<svg xmlns="http://www.w3.org/2000/svg" viewBox="0 0 298.08 342.93"><defs><style>.cls-1{fill:#c88a5f;}.cls-2{fill:#6c2912;}</style></defs><g id="Capa_2" data-name="Capa 2"><g id="Capa_1-2" data-name="Capa 1"><rect class="cls-1" width="298.08" height="342.93" rx="35.2"/><path class="cls-2" d="M134.5,145.63c-6.86-5.26-13.58-10.64-22.9-9a20.4,20.4,0,0,1-4.55-.06c-2-.12-3-1.36-2.94-3.32s.93-3.3,3-3.26c8.06.17,16.52-1.82,23.54,4.21a6.94,6.94,0,0,0,1.2.66c19.78,11.42,19.78,11.37,42.75,10.84,2.69-.06,3.72-.63,3.65-3.54q-.3-12.08,0-24.18c.08-2.81-.91-3.37-3.5-3.79-9.18-1.49-15.75-7.93-17.34-16.42-1-5.35.36-7.47,5.69-6.87,5.73.64,8.82-1.34,10-6.84.22-1,.95-1.93,1.22-2.94C176,74.52,179,69.64,187.09,71.4c2.27.49,2.78-1.07,2.76-3-.06-4.26,0-8.52,0-12.78,0-2.27.8-4,3.31-4s3.42,1.6,3.4,4c0,4.26.11,8.52,0,12.77-.08,2.39.8,3.38,3.17,3.12.75-.08,1.53.1,2.27,0,4.76-.82,7.48,1.23,8.59,5.84.35,1.45,1.29,2.77,1.66,4.22,1.72,6.66,4.79,11,12.81,9.39,3.67-.72,4.5,2.25,4.18,5.38A19.8,19.8,0,0,1,214,113.58c-3.59.78-4.44,2.27-4.38,5.75.22,12.62.12,25.25.06,37.87,0,4.08-1.74,5.74-4.6,4.81-2.55-.83-2.22-3-2.23-4.91,0-12.77-.11-25.55.07-38.32,0-3.25-.57-4.73-4.18-4.38a74.94,74.94,0,0,1-10.49,0c-2.32-.1-3.23.63-3.22,3.06q.15,35.36.11,70.72c0,2.08.63,3,2.88,3,3.95-.14,7.91-.17,11.86,0,2.52.12,3.13-1,3-3.22-.14-2.42,0-4.86,0-7.29,0-2.25,1.13-3.5,3.25-3.57s3.36,1.17,3.52,3.35c.05.61,0,1.22.09,1.82.27,2.85-1.27,7.37.75,8.19,3.4,1.39,7.73.56,11.66.62a1.45,1.45,0,0,0,1.54-1.8c-.31-2.12,1.17-4.62-1.28-6.29-.75-.52-1.6-.9-2.3-1.47a11.39,11.39,0,1,1,13.79.22c-1.23,1-3.08,1.12-3.46,3.26-.89,4.91,0,6.12,5.11,6.13,3.65,0,7.31.11,10.95,0,1.44-.06,3.84,1.07,4-1.51.17-2.24,1.47-5.28-1.12-6.68-7.7-4.17-7.44-10.64-5.81-17.73,1.09-4.74,2.15-9.49,4.8-13.66,3.49-5.51,8.47-5.55,11.73.12a45.89,45.89,0,0,1,5.7,20.89A9.65,9.65,0,0,1,260,182.1c-3.76,1.77-2.25,4.88-2.23,7.45s2.53,1.42,3.92,1.52c2.28.18,4,1,4.08,3.35s-1.67,3.37-3.88,3.48c-1.37.07-2.74.06-4.11.06H40.14c-1.52,0-3,0-4.56-.12-2.09-.18-3.47-1.28-3.34-3.51.12-1.9,1.34-2.94,3.26-3.17,2.38-.29,5.58,1.11,7-.64,1.73-2.18.53-5.55.61-8.39.11-4.56.2-9.14,0-13.69-.17-3.2,1.05-5,3.87-6.42,8.73-4.27,17.32-8.8,26.06-13.05,2.62-1.28,4.22-2.76,3.67-5.88a18.84,18.84,0,0,1,0-3.19c0-11.06-1.23-10,11.57-10,2.23,0,3.4,1.11,3.4,3.34s-1.3,3.24-3.45,3.36-4.93-.82-4.86,3.33c.1,5.66-.17,5.67,5.62,5.67ZM62.73,161.85l.1,1h3c35.9,0,71.8-.07,107.7.09,3.89,0,4.93-1.14,4.7-4.85-.21-3.22.21-5.47-4.6-5.42-29.81.27-59.63.13-89.44.15-1.65,0-3.28-.18-4.89.67C73.84,156.31,68.27,159.05,62.73,161.85Zm131-64.16c-8.66,0-17.32.06-26,0-2.71,0-3.3.88-1.9,3.15,2.29,3.7,5.48,6.32,9.9,6.39,11.54.19,23.09.15,34.63,0,4.08,0,7.16-2.24,9.5-5.47.7-1,1.75-2,1.24-3.26-.59-1.44-2.13-.79-3.24-.8C209.83,97.66,201.78,97.69,193.73,97.69ZM50.38,180.09v1.81c0,9.23,0,9.23,9.14,9.23,10.91,0,10.91,0,10.91-11.58,0-10,0-10-9.86-10C50.38,169.55,50.38,169.55,50.38,180.09Zm53.88.17v1.81c0,9.06,0,9.06,8.87,9.06,11.19,0,11.19,0,11.19-11.3,0-10.28,0-10.28-9.57-10.28C104.26,169.55,104.26,169.55,104.26,180.26Zm73.92.45v-1.82c0-9.34,0-9.34-9.14-9.34-10.9,0-10.9,0-10.9,11.65,0,9.93,0,9.93,9.8,9.93C178.18,191.13,178.18,191.13,178.18,180.71Zm-81-.37v-3.18c0-7.61,0-7.61-7.77-7.61-12.25,0-12.25,0-12.25,12.27,0,9.31,0,9.31,9.18,9.31C97.21,191.13,97.21,191.13,97.21,180.34Zm34,0c0,2.42.15,4.85,0,7.26-.22,2.83.9,3.68,3.66,3.55a110,110,0,0,1,12.71,0c3.21.21,3.86-1.2,3.7-4s0-5.75,0-8.63c0-9,0-9-9.06-9C131.16,169.55,131.16,169.55,131.16,180.38Zm77.12-89.63c-.27-1.07-.33-1.51-.49-1.91-4-10.68-4-10.68-15.4-10.68-10.38,0-10.29,0-13.59,10-.75,2.26-.16,2.59,1.84,2.58C189.73,90.72,198.81,90.75,208.28,90.75Zm46,64.37c-3,5.73-4.08,11.06-4.75,16.45-.39,3.07,1.26,5,4.44,5.06,3.44.1,5-1.79,4.79-5.14A45.78,45.78,0,0,0,254.26,155.12Zm-22.82,17.22c-.2-2.17-1.29-4-4.08-4.11s-4.38,1.19-4.61,3.9c-.24,2.94,1.35,4.7,4.23,4.77C229.58,177,231.2,175.48,231.44,172.34Z"/><path class="cls-2" d="M200.48,277.67c-8.09-9-15.76-17.58-23.4-26.16-1-1.06-2.14-1-3.35-1-9.27,0-18.54,0-28.24.75,4.35,2.69,8.77,5.27,13,8.11,2.28,1.52,6.78,2.31,4.5,6.41-2.48,4.47-5.58,1-8-.62a18.1,18.1,0,0,0-10.67-3c-20.83.16-41.66,0-62.49.11-6.93,0-12.61-1.93-15.9-8.42s-1.25-12.13,2.76-17.38c9-11.84,21.1-17.95,36-16.9,22,1.55,43.87,3.84,65.81,5.8q28.14,2.52,56.29,5a4.41,4.41,0,0,1,.9.05c8.79,3,13.48-1.26,16.26-9.05a20.49,20.49,0,0,1,1.52-2.79c4.93-8.92,6.3-9.57,16.56-8.28,2.55.33,3.82,1.63,3.82,4.17,0,7.46,0,14.91,0,22.36a8,8,0,0,1-1.33,3.81c-7.41,14.05-19.2,21.16-34.94,21.55-10.77.26-21.54.05-33.42.05l13.34,15.14c1.4,1.58,3.31,3,2.28,5.49-1.13,2.69-3.65,2.27-5.91,2.27a34.41,34.41,0,0,0-5.47,0c-9.7,1.54-17.74-2.14-25.31-7.66-2-1.43-3.33-2.9-2-5.23s3.39-2.16,5.48-.84a46,46,0,0,1,4.26,2.64C187.78,278.17,193.43,278.94,200.48,277.67Zm-64.08-22.5.25-.95-4.17-2.65c-2-1.27-4.71-2.16-3.73-5.38s3.81-2.51,6.13-2.52c11,0,21.93.54,32.82-.21,8.4-.57,14.77,1.43,19.3,8.68a5.63,5.63,0,0,0,5.14,3.09c13.53-.16,27.07.16,40.59-.24,9-.27,16.21-4.63,21.87-11.54.7-.84,2.1-1.71,1.43-3-.53-1-1.91-.67-2.94-.78-3.17-.31-6.35-.57-9.53-.85q-61.26-5.46-122.53-11c-2.61-.23-4,.22-4.92,3C113,240,105.73,245,96.13,245.21c-6.68.11-13.38,0-20.06.07-1.53,0-3.64-.95-4.46,1.1s0,3.89,1.25,5.56a7.59,7.59,0,0,0,6.66,3.24c5.47-.06,10.94,0,16.41,0ZM76.57,238.49c7.12,0,13.63.26,20.11-.08a13.66,13.66,0,0,0,12.44-8.48c.52-1.14,1.55-2.42-.74-3.12C99.08,223.94,83.29,229.46,76.57,238.49ZM246,232c3.67.42,6.68.71,9.67,1.11,2.27.31,3.37-.36,3.25-2.87-.15-3.17,0-6.36-.06-9.53,0-1.24.53-3-1.54-3.2-1.67-.2-3.27-.25-4.27,1.65C250.87,223.28,248.56,227.33,246,232Z"/><path class="cls-2" d="M74.42,83.25c-3.51-2.13-6.58-4-9.64-5.86-1.82-1.11-3.25-2.48-1.92-4.8s3.23-2.47,5.4-1.11a18.92,18.92,0,0,1,2,1.14c6,4.87,11.45,6.84,18.21.16,4.61-4.55,11.91-1.66,15.48,4.75,3.44,6.17,1.85,12.67-3.86,15.71a2.91,2.91,0,0,1-.84.34c-8.19,1.21-9.65,6.6-8.61,13.66a24.7,24.7,0,0,1,0,5,3.05,3.05,0,0,1-3.17,3.17c-2.25.12-3.44-1.13-3.5-3.27-.09-3-.07-6.08.06-9.11.11-2.56-.37-3.89-3.28-2.48a24.79,24.79,0,0,1-5.55,2c-4.38.9-6.49,3.09-5.75,7.82.37,2.37-.35,4.82-3.38,4.91s-3.83-2.07-3.62-4.64c.18-2.25-.49-2.88-2.92-3.13-4.4-.46-6.49-4.24-4.36-7.86,1.54-2.6.84-3.53-1.42-4.69-1.92-1-3.08-2.59-1.69-4.85,1.27-2.07,3.28-2.66,5-1.1,4.58,4.15,8.21,2.43,11.88-1.26A68.86,68.86,0,0,1,74.42,83.25ZM69,96.42l.39.92C78.19,94.07,87,90.91,95.7,87.5c3-1.18,4.06-3.71,2.37-6.68s-4.35-3.8-7.23-1.57C83.52,84.91,76.3,90.69,69,96.42Z"/></g></g></svg>