<svg xmlns="http://www.w3.org/2000/svg" xmlns:xlink="http://www.w3.org/1999/xlink" viewBox="0 0 178.65 171.78"><defs><style>.cls-1{isolation:isolate;}.cls-2{fill:#fff;}.cls-3{fill:#6c2910;}.cls-4{fill:#fef1da;}.cls-5{fill:#776b61;}.cls-6{opacity:0.5;}.cls-7{fill:#c88a5e;}.cls-8{fill:url(#linear-gradient);}.cls-9{fill:url(#linear-gradient-2);}.cls-10{fill:url(#linear-gradient-3);}.cls-11{fill:url(#linear-gradient-4);}.cls-12{fill:url(#linear-gradient-5);}.cls-13{fill:url(#linear-gradient-6);}.cls-14{fill:#6a83c1;}.cls-15{fill:url(#linear-gradient-7);}.cls-16{fill:url(#linear-gradient-8);}.cls-17{fill:url(#linear-gradient-9);}.cls-18{fill:url(#linear-gradient-10);}.cls-19{fill:url(#linear-gradient-11);}.cls-20{fill:url(#linear-gradient-12);}.cls-21{fill:url(#linear-gradient-13);}.cls-22{fill:url(#linear-gradient-14);}.cls-23{fill:url(#linear-gradient-15);}.cls-24{fill:#bd9883;}.cls-25{fill:#efdbcd;}.cls-26{fill:#f5a9a3;}.cls-27{fill:#db6355;}.cls-28{fill:#dcc9bd;}.cls-29{mix-blend-mode:screen;opacity:0.7;fill:url(#linear-gradient-16);}.cls-30{fill:#efe5de;}</style><linearGradient id="linear-gradient" x1="435.22" y1="96.55" x2="495.04" y2="96.55" gradientTransform="matrix(0.99, -0.15, 0.15, 0.99, -442.38, 34.88)" gradientUnits="userSpaceOnUse"><stop offset="0" stop-color="#6a83c1"/><stop offset="1" stop-color="#93afdc"/></linearGradient><linearGradient id="linear-gradient-2" x1="435.22" y1="105.98" x2="495.04" y2="105.98" xlink:href="#linear-gradient"/><linearGradient id="linear-gradient-3" x1="435.22" y1="121.78" x2="495.04" y2="121.78" xlink:href="#linear-gradient"/><linearGradient id="linear-gradient-4" x1="491.04" y1="119.85" x2="491.04" y2="71.8" xlink:href="#linear-gradient"/><linearGradient id="linear-gradient-5" x1="491.04" y1="119.85" x2="491.04" y2="71.81" xlink:href="#linear-gradient"/><linearGradient id="linear-gradient-6" x1="491.04" y1="119.85" x2="491.04" y2="71.8" xlink:href="#linear-gradient"/><linearGradient id="linear-gradient-7" x1="350.28" y1="242.67" x2="281.61" y2="251.75" gradientTransform="translate(-263.28 -150.82) rotate(-1.3)" xlink:href="#linear-gradient"/><linearGradient id="linear-gradient-8" x1="352.28" y1="257.77" x2="283.6" y2="266.84" gradientTransform="translate(-263.28 -150.82) rotate(-1.3)" xlink:href="#linear-gradient"/><linearGradient id="linear-gradient-9" x1="352.55" y1="259.84" x2="283.88" y2="268.91" gradientTransform="translate(-263.28 -150.82) rotate(-1.3)" xlink:href="#linear-gradient"/><linearGradient id="linear-gradient-10" x1="352.81" y1="261.82" x2="284.14" y2="270.89" gradientTransform="translate(-263.28 -150.82) rotate(-1.3)" xlink:href="#linear-gradient"/><linearGradient id="linear-gradient-11" x1="352.16" y1="256.86" x2="283.49" y2="265.93" gradientTransform="translate(-263.28 -150.82) rotate(-1.3)" xlink:href="#linear-gradient"/><linearGradient id="linear-gradient-12" x1="352.54" y1="259.79" x2="283.87" y2="268.86" gradientTransform="translate(-263.28 -150.82) rotate(-1.3)" xlink:href="#linear-gradient"/><linearGradient id="linear-gradient-13" x1="292.78" y1="259.16" x2="305.59" y2="259.16" gradientTransform="translate(-263.28 -150.82) rotate(-1.3)" xlink:href="#linear-gradient"/><linearGradient id="linear-gradient-14" x1="-1390.8" y1="684.06" x2="-1357.24" y2="756.22" gradientTransform="translate(1677.24 145.33) rotate(29.71)" gradientUnits="userSpaceOnUse"><stop offset="0" stop-color="#93afdc"/><stop offset="1" stop-color="#6a83c1"/></linearGradient><linearGradient id="linear-gradient-15" x1="-1422.21" y1="698.66" x2="-1388.65" y2="770.83" xlink:href="#linear-gradient-14"/><linearGradient id="linear-gradient-16" x1="-1913.24" y1="707.96" x2="-1947.06" y2="762.16" gradientTransform="matrix(-0.75, 0.66, 0.66, 0.75, -1858.46, 815.22)" gradientUnits="userSpaceOnUse"><stop offset="0.01" stop-color="#fff"/><stop offset="1" stop-color="#e2e7f6"/></linearGradient></defs><g class="cls-1"><g id="Capa_2" data-name="Capa 2"><g id="Capa_1-2" data-name="Capa 1"><rect class="cls-2" x="112.51" width="66.14" height="171.78" rx="12"/><path class="cls-3" d="M80.76,100.82a1.71,1.71,0,0,1-1.42,1.94l-63.87,9.85a1.72,1.72,0,0,1-1.94-1.42L0,23.57a1.7,1.7,0,0,1,1.42-1.94L65.3,11.78a1.7,1.7,0,0,1,1.94,1.42Z"/><path class="cls-4" d="M76.85,94.11a1.7,1.7,0,0,1-1.42,1.94l-58.26,9a1.7,1.7,0,0,1-1.94-1.42L3.17,25.37a1.7,1.7,0,0,1,1.42-1.94l58.26-9a1.7,1.7,0,0,1,1.94,1.42Z"/><path class="cls-5" d="M42.46,12.62l-5.08.79a4.46,4.46,0,1,0-8.82,1.36l-5.08.78a3.41,3.41,0,0,0-2.84,3.88l.05.28a3.4,3.4,0,0,0,3.87,2.84l19-2.93a3.38,3.38,0,0,0,2.83-3.87l0-.29A3.4,3.4,0,0,0,42.46,12.62ZM33.27,16A2,2,0,1,1,35,13.68,2,2,0,0,1,33.27,16Z"/><g class="cls-6"><path class="cls-7" d="M31.89,31.59a1.54,1.54,0,0,1-1.29,1.75L13.94,35.91a1.54,1.54,0,0,1-1.76-1.28h0a1.55,1.55,0,0,1,1.29-1.76L30.14,30.3a1.54,1.54,0,0,1,1.75,1.29Z"/><path class="cls-7" d="M25,42.37a1.54,1.54,0,0,1-1.29,1.75l-9.83,1.52a1.55,1.55,0,0,1-1.76-1.29h0a1.54,1.54,0,0,1,1.29-1.75l9.83-1.52A1.55,1.55,0,0,1,25,42.37Z"/><path class="cls-7" d="M45.41,39.21A1.54,1.54,0,0,1,44.13,41L27.65,43.51a1.54,1.54,0,0,1-1.75-1.29h0a1.54,1.54,0,0,1,1.29-1.75l16.47-2.54a1.53,1.53,0,0,1,1.75,1.28Z"/><path class="cls-7" d="M44.69,51a1.55,1.55,0,0,1-1.29,1.76L15.6,57.06a1.55,1.55,0,0,1-1.76-1.29h0A1.54,1.54,0,0,1,15.13,54l27.81-4.29A1.53,1.53,0,0,1,44.69,51Z"/><path class="cls-7" d="M34.52,59a1.53,1.53,0,0,1-1.29,1.75L16.57,63.36a1.55,1.55,0,0,1-1.76-1.29h0a1.54,1.54,0,0,1,1.29-1.75l16.67-2.57A1.53,1.53,0,0,1,34.52,59Z"/><path class="cls-8" d="M49.67,56.69a1.55,1.55,0,0,1-1.29,1.76l-9.62,1.48A1.52,1.52,0,0,1,37,58.65h0a1.54,1.54,0,0,1,1.28-1.76l9.62-1.48a1.55,1.55,0,0,1,1.76,1.28Z"/><path class="cls-7" d="M40,67.73a1.53,1.53,0,0,1-1.28,1.75L18,72.67a1.54,1.54,0,0,1-1.76-1.28h0a1.55,1.55,0,0,1,1.29-1.76l20.67-3.19A1.54,1.54,0,0,1,40,67.73Z"/><path class="cls-9" d="M51.1,66a1.52,1.52,0,0,1-1.28,1.75L43,68.82a1.54,1.54,0,0,1-1.76-1.28h0a1.55,1.55,0,0,1,1.29-1.76l6.85-1A1.53,1.53,0,0,1,51.1,66Z"/><path class="cls-7" d="M45.74,73.29A1.53,1.53,0,0,1,44.46,75L19,79a1.54,1.54,0,0,1-1.76-1.28h0a1.55,1.55,0,0,1,1.29-1.76L44,72a1.54,1.54,0,0,1,1.75,1.29Z"/><path class="cls-7" d="M35.69,84.37a1.54,1.54,0,0,1-1.28,1.76l-14,2.16A1.54,1.54,0,0,1,18.66,87h0A1.54,1.54,0,0,1,20,85.25l14-2.16a1.52,1.52,0,0,1,1.75,1.28Z"/><path class="cls-10" d="M54.26,81.51A1.53,1.53,0,0,1,53,83.26l-14.6,2.26a1.53,1.53,0,0,1-1.75-1.29h0a1.53,1.53,0,0,1,1.28-1.75l14.6-2.25a1.54,1.54,0,0,1,1.76,1.28Z"/><path class="cls-7" d="M32.56,91.31a1.54,1.54,0,0,1-1.29,1.75l-9.88,1.53a1.55,1.55,0,0,1-1.76-1.29h0a1.54,1.54,0,0,1,1.29-1.75L30.81,90a1.54,1.54,0,0,1,1.75,1.29Z"/></g><path class="cls-7" d="M56.9,32a1,1,0,0,1,1.17.86l.87,5.66a1,1,0,0,1-.85,1.16l-5.67.88a1,1,0,0,1-1.16-.85L50.39,34a1,1,0,0,1,.85-1.16L56.9,32m-.1-.67-5.66.88a1.7,1.7,0,0,0-1.43,1.93l.88,5.67a1.7,1.7,0,0,0,1.94,1.42l5.66-.87a1.7,1.7,0,0,0,1.42-1.94l-.87-5.67a1.7,1.7,0,0,0-1.94-1.42Z"/><path class="cls-11" d="M59.36,47.88a1,1,0,0,1,1.16.85l.88,5.67a1,1,0,0,1-.85,1.16l-5.67.88a1,1,0,0,1-1.16-.86l-.88-5.66a1,1,0,0,1,.86-1.16l5.66-.88m-.1-.67-5.67.87A1.71,1.71,0,0,0,52.17,50l.88,5.67A1.69,1.69,0,0,0,55,57.11l5.67-.88a1.69,1.69,0,0,0,1.42-1.93l-.87-5.67a1.71,1.71,0,0,0-1.94-1.42Z"/><path class="cls-12" d="M61.82,63.81a1,1,0,0,1,1.16.85l.87,5.67A1,1,0,0,1,63,71.49l-5.66.88a1,1,0,0,1-1.17-.86l-.87-5.66a1,1,0,0,1,.85-1.16l5.67-.88m-.11-.67L56.05,64A1.7,1.7,0,0,0,54.63,66l.87,5.67A1.71,1.71,0,0,0,57.44,73l5.67-.88a1.7,1.7,0,0,0,1.42-1.93l-.88-5.67a1.7,1.7,0,0,0-1.94-1.42Z"/><path class="cls-13" d="M64.27,79.74a1,1,0,0,1,1.17.85l.87,5.67a1,1,0,0,1-.85,1.16l-5.67.87a1,1,0,0,1-1.16-.85l-.87-5.66a1,1,0,0,1,.85-1.17l5.66-.87m-.1-.67-5.66.87a1.7,1.7,0,0,0-1.42,1.94L58,87.55A1.71,1.71,0,0,0,59.9,89l5.66-.88A1.69,1.69,0,0,0,67,86.15l-.87-5.66a1.7,1.7,0,0,0-1.94-1.42Z"/><path class="cls-7" d="M55.16,38a1,1,0,0,1-.69-.15L48.65,34a1,1,0,1,1,1.09-1.62l5,3.33L60.59,26a1,1,0,0,1,1.67,1L55.85,37.57a1,1,0,0,1-.62.45Z"/><path class="cls-7" d="M57.69,54.41a1,1,0,0,1-.69-.16l-5.82-3.9a1,1,0,0,1,1.08-1.62l5,3.34,5.88-9.7a1,1,0,0,1,1.67,1L58.37,54a1,1,0,0,1-.62.45Z"/><path class="cls-14" d="M60.21,70.78a1,1,0,0,1-.69-.15l-5.82-3.9a1,1,0,1,1,1.09-1.62l5,3.33,5.88-9.7A1,1,0,0,1,67,58.42a1,1,0,0,1,.33,1.33L60.9,70.32a1,1,0,0,1-.62.45Z"/><path class="cls-14" d="M62.74,87.16a1,1,0,0,1-.69-.16l-5.82-3.9a1,1,0,1,1,1.08-1.62l5,3.33,5.88-9.69a1,1,0,1,1,1.67,1L63.43,86.7a1,1,0,0,1-.63.44Z"/><path class="cls-2" d="M85,116.68a1.88,1.88,0,0,1-1.84,1.92l-50.4,1.15a1.88,1.88,0,0,1-1.92-1.84L29.27,49.46a1.86,1.86,0,0,1,1.83-1.92L81.5,46.4a1.86,1.86,0,0,1,1.92,1.83Z"/><path class="cls-2" d="M39.48,55.56a3.42,3.42,0,1,1-3.34,3.49,3.41,3.41,0,0,1,3.34-3.49m0-.75a4.17,4.17,0,1,0,4.26,4.07,4.17,4.17,0,0,0-4.26-4.07Z"/><path class="cls-2" d="M39.85,71.87a3.42,3.42,0,1,1-3.34,3.5,3.42,3.42,0,0,1,3.34-3.5m0-.75a4.17,4.17,0,1,0,4.26,4.07,4.17,4.17,0,0,0-4.26-4.07Z"/><path class="cls-2" d="M40.2,86.64a3.42,3.42,0,1,1-3.34,3.5,3.42,3.42,0,0,1,3.34-3.5m0-.75A4.17,4.17,0,1,0,44.44,90a4.17,4.17,0,0,0-4.26-4.07Z"/><path class="cls-2" d="M40.52,101.41a3.42,3.42,0,1,1-3.34,3.5,3.42,3.42,0,0,1,3.34-3.5m0-.75a4.17,4.17,0,1,0,4.26,4.07,4.17,4.17,0,0,0-4.26-4.07Z"/><path class="cls-7" d="M48.52,56.33l28.82-.65a.19.19,0,0,0,0-.38L48.52,56a.19.19,0,0,0-.19.19A.19.19,0,0,0,48.52,56.33Z"/><path class="cls-7" d="M48.58,59l26.91-.61a.19.19,0,1,0,0-.37l-26.9.61a.19.19,0,0,0-.19.19A.18.18,0,0,0,48.58,59Z"/><path class="cls-7" d="M48.64,61.57l12.85-.29a.19.19,0,0,0,0-.37l-12.84.29a.19.19,0,0,0-.19.19A.18.18,0,0,0,48.64,61.57Z"/><path class="cls-7" d="M63,60.87a.19.19,0,0,0,0,.38l7.81-.18a.18.18,0,0,0,.18-.19.18.18,0,0,0-.19-.19Z"/><path class="cls-7" d="M48.9,72.65l22.21-.51a.17.17,0,0,0,.18-.19.18.18,0,0,0-.19-.18l-22.21.5a.19.19,0,1,0,0,.38Z"/><path class="cls-7" d="M49,75.27l18.31-.42a.19.19,0,0,0,0-.37L49,74.89a.19.19,0,1,0,0,.38Z"/><path class="cls-7" d="M49,77.89l12.85-.29a.19.19,0,0,0,.18-.19.19.19,0,0,0-.19-.19L49,77.52a.18.18,0,0,0-.19.19A.19.19,0,0,0,49,77.89Z"/><path class="cls-7" d="M76.38,77.08a.18.18,0,0,0-.19-.18l-12.78.29a.19.19,0,0,0,0,.37l12.78-.29A.19.19,0,0,0,76.38,77.08Z"/><path class="cls-7" d="M68.57,74.64a.19.19,0,0,0,.19.18l10.46-.24a.19.19,0,0,0,.18-.19.18.18,0,0,0-.19-.18l-10.45.23A.2.2,0,0,0,68.57,74.64Z"/><path class="cls-7" d="M49.23,87.42,68.44,87a.19.19,0,0,0,.18-.19.18.18,0,0,0-.19-.18L49.22,87a.2.2,0,0,0-.18.2A.19.19,0,0,0,49.23,87.42Z"/><path class="cls-7" d="M49.29,90l26.9-.61a.19.19,0,0,0,.19-.19.2.2,0,0,0-.19-.19l-26.91.61a.2.2,0,0,0-.18.2A.19.19,0,0,0,49.29,90Z"/><path class="cls-7" d="M49.35,92.66l12.84-.29a.19.19,0,0,0,0-.38l-12.85.3a.18.18,0,0,0-.18.19A.19.19,0,0,0,49.35,92.66Z"/><path class="cls-15" d="M70.22,86.94,78,86.76a.18.18,0,0,0,.19-.19.19.19,0,0,0-.19-.18l-7.83.18a.18.18,0,0,0-.19.19A.2.2,0,0,0,70.22,86.94Z"/><path class="cls-7" d="M49.57,102.19l12.35-.28a.19.19,0,0,0,0-.38l-12.36.28a.18.18,0,0,0-.18.2A.18.18,0,0,0,49.57,102.19Z"/><path class="cls-16" d="M49.63,104.81l18.89-.43a.19.19,0,0,0,.18-.19.18.18,0,0,0-.19-.18l-18.89.42a.19.19,0,1,0,0,.38Z"/><path class="cls-17" d="M60.79,106.8l-11.11.26a.18.18,0,0,0-.19.19.2.2,0,0,0,.2.18l11.1-.25A.2.2,0,0,0,61,107,.19.19,0,0,0,60.79,106.8Z"/><path class="cls-18" d="M76.86,106.44l-12.78.29a.19.19,0,0,0-.18.19.18.18,0,0,0,.19.18l12.78-.29a.19.19,0,0,0,0-.37Z"/><path class="cls-19" d="M79.82,101.13,64,101.49a.18.18,0,0,0-.18.19.19.19,0,0,0,.19.18l15.86-.36a.18.18,0,0,0,.18-.19A.18.18,0,0,0,79.82,101.13Z"/><path class="cls-20" d="M79.88,103.75,69.47,104a.2.2,0,0,0-.18.2.19.19,0,0,0,.19.18l10.41-.24a.19.19,0,0,0,0-.37Z"/><path class="cls-7" d="M40,77.52a.82.82,0,0,1-.56-.2l-4.48-3.94A.83.83,0,1,1,36,72.14l3.83,3.36,6-7.53A.83.83,0,0,1,47,67.84.84.84,0,0,1,47.17,69l-6.58,8.2a.82.82,0,0,1-.57.31Z"/><path class="cls-7" d="M39.57,60.31A.81.81,0,0,1,39,60.1l-4.48-3.93a.83.83,0,1,1,1.09-1.25l3.83,3.36,6-7.53a.84.84,0,0,1,1.17-.12.83.83,0,0,1,.13,1.16L40.2,60a.81.81,0,0,1-.58.3Z"/><path class="cls-7" d="M40.29,92.1a.79.79,0,0,1-.56-.2L35.25,88a.83.83,0,0,1-.08-1.17.83.83,0,0,1,1.17-.07l3.83,3.36,6-7.53a.83.83,0,1,1,1.29,1l-6.58,8.2a.82.82,0,0,1-.57.31Z"/><path class="cls-21" d="M40.62,106.35a.8.8,0,0,1-.57-.2l-4.48-3.94A.82.82,0,0,1,35.5,101a.83.83,0,0,1,1.17-.07l3.83,3.36,6-7.53a.83.83,0,1,1,1.29,1L41.25,106a.84.84,0,0,1-.58.31S40.64,106.36,40.62,106.35Z"/><path class="cls-2" d="M110.9,147.15a1.81,1.81,0,0,1-2.54.24L66,112.24a1.8,1.8,0,0,1-.24-2.54l49.66-59.84a1.81,1.81,0,0,1,2.54-.24l42.35,35.15a1.81,1.81,0,0,1,.24,2.54Z"/><path class="cls-4" d="M118.32,137.81a1.8,1.8,0,0,1-2.46.68l-47.8-27.28a1.81,1.81,0,0,1-.67-2.46l38.54-67.54a1.79,1.79,0,0,1,2.46-.67l47.8,27.27a1.8,1.8,0,0,1,.67,2.46Z"/><path class="cls-7" d="M106,49.9l41.63,23.76a.18.18,0,1,0,.18-.32L106.14,49.59a.18.18,0,0,0-.25.07A.17.17,0,0,0,106,49.9Z"/><path class="cls-7" d="M104.1,53.17l26.35,15a.18.18,0,1,0,.18-.32l-26.35-15a.19.19,0,0,0-.25.06A.18.18,0,0,0,104.1,53.17Z"/><path class="cls-7" d="M132,68.65a.18.18,0,0,0-.24.07.19.19,0,0,0,.06.25l13,7.39a.17.17,0,0,0,.24-.07.18.18,0,0,0-.06-.24Z"/><path class="cls-7" d="M102.23,56.44l36.78,21a.18.18,0,0,0,.25-.07.19.19,0,0,0-.07-.24l-36.78-21a.17.17,0,0,0-.24.07A.19.19,0,0,0,102.23,56.44Z"/><path class="cls-7" d="M100.37,59.7l30.47,17.39a.17.17,0,0,0,.24-.07.19.19,0,0,0-.06-.25L100.55,59.39a.18.18,0,0,0-.25.07A.17.17,0,0,0,100.37,59.7Z"/><path class="cls-7" d="M98.51,63l37.71,21.52a.18.18,0,0,0,.25-.07.17.17,0,0,0-.07-.24L98.69,62.66a.19.19,0,0,0-.25.06A.18.18,0,0,0,98.51,63Z"/><path class="cls-7" d="M96.64,66.24l31.55,18a.18.18,0,1,0,.18-.32l-31.55-18a.17.17,0,0,0-.24.07A.19.19,0,0,0,96.64,66.24Z"/><path class="cls-7" d="M94.78,69.5l34.89,19.91a.19.19,0,0,0,.25-.06.18.18,0,0,0-.07-.25L95,69.19a.19.19,0,0,0-.25.06A.18.18,0,0,0,94.78,69.5Z"/><path class="cls-7" d="M92.92,72.77,121.28,89a.19.19,0,0,0,.25-.06.18.18,0,0,0-.07-.25L93.09,72.45a.18.18,0,0,0-.17.32Z"/><path class="cls-22" d="M123.45,89.77a.18.18,0,1,0-.18.32L130,93.9a.18.18,0,0,0,.25-.07.17.17,0,0,0-.07-.24Z"/><path class="cls-7" d="M91.05,76l39.79,22.71a.17.17,0,0,0,.24-.07.19.19,0,0,0-.06-.25L91.23,75.72a.18.18,0,0,0-.25.07A.17.17,0,0,0,91.05,76Z"/><path class="cls-7" d="M131,102.74,89.37,79a.19.19,0,0,0-.25.06.18.18,0,0,0,.07.25l41.63,23.75a.18.18,0,0,0,.24-.06A.19.19,0,0,0,131,102.74Z"/><path class="cls-7" d="M87.32,82.57l26.36,15a.18.18,0,0,0,.24-.06.19.19,0,0,0-.06-.25l-26.36-15a.17.17,0,0,0-.24.07A.19.19,0,0,0,87.32,82.57Z"/><path class="cls-7" d="M128.14,105.44l-12.95-7.39a.18.18,0,0,0-.25.07.17.17,0,0,0,.07.24l13,7.4a.17.17,0,0,0,.24-.07A.18.18,0,0,0,128.14,105.44Z"/><path class="cls-7" d="M85.46,85.83l36.78,21a.17.17,0,0,0,.24-.07.18.18,0,0,0-.07-.25l-36.77-21a.18.18,0,0,0-.25.07A.17.17,0,0,0,85.46,85.83Z"/><path class="cls-7" d="M83.6,89.1l30.46,17.38a.19.19,0,0,0,.25-.06.18.18,0,0,0-.07-.25L83.78,88.79a.19.19,0,0,0-.25.06A.18.18,0,0,0,83.6,89.1Z"/><path class="cls-7" d="M81.73,92.36l37.72,21.53a.18.18,0,0,0,.24-.07.19.19,0,0,0-.06-.25L81.91,92.05a.17.17,0,0,0-.24.07A.18.18,0,0,0,81.73,92.36Z"/><path class="cls-7" d="M79.87,95.63l31.55,18a.19.19,0,0,0,.25-.06.18.18,0,0,0-.07-.25l-31.55-18a.19.19,0,0,0-.25.06A.18.18,0,0,0,79.87,95.63Z"/><path class="cls-7" d="M78,98.9l34.89,19.91a.18.18,0,0,0,.25-.07.17.17,0,0,0-.07-.24L78.18,98.58a.17.17,0,0,0-.24.07A.18.18,0,0,0,78,98.9Z"/><path class="cls-23" d="M76.14,102.16l28.37,16.19a.17.17,0,0,0,.24-.07.18.18,0,0,0-.06-.24L76.32,101.85a.18.18,0,0,0-.25.07A.19.19,0,0,0,76.14,102.16Z"/><path class="cls-7" d="M106.67,119.17a.17.17,0,0,0-.24.07.18.18,0,0,0,.06.24l6.69,3.82a.18.18,0,0,0,.25-.07.19.19,0,0,0-.07-.25Z"/><path class="cls-7" d="M114.24,127.82l-39.78-22.7a.19.19,0,0,0-.25.06.18.18,0,0,0,.07.25l39.78,22.7a.18.18,0,0,0,.25-.07A.17.17,0,0,0,114.24,127.82Z"/><path class="cls-24" d="M119.1,80.82A2,2,0,0,1,116.45,82L93.07,73.12a2,2,0,0,1-1.19-2.65l9.59-25.21a2,2,0,0,1,2.65-1.19L127.5,53a2.06,2.06,0,0,1,1.19,2.66Z"/><path class="cls-5" d="M118.73,43.34a3.53,3.53,0,0,0-4.44.56l1.16.66a2.32,2.32,0,0,1,2.64-.1,2.1,2.1,0,0,1,.78,2.87l-4,7a1.87,1.87,0,0,1-2.61.93,2.11,2.11,0,0,1-.78-2.87l1.79-3.13a.65.65,0,1,0-1.13-.64l-1.79,3.13a3.4,3.4,0,0,0,1.27,4.64A3.16,3.16,0,0,0,116,55l4-7A3.39,3.39,0,0,0,118.73,43.34Z"/><path class="cls-25" d="M101.89,104H48.06V97.52a2,2,0,0,0-2-2H18a2,2,0,0,0-2,2v54.15a2,2,0,0,0,2,2h83.87a2,2,0,0,0,2-2V106A2,2,0,0,0,101.89,104Z"/><path class="cls-26" d="M178.65,110.53l-31.54,19.9s-4.84-8.34-16.28-3.53c0,0-8-.51-15.9-7.24-5-4.21-9.46-.29-6,5.39,3,4.88,12.21,11.08,12.21,11.08l-11.51,11.29s8.43,10.81,11.44,12.41,21-.84,26.61-11.15l30.92-6.75Z"/><path class="cls-27" d="M139.51,135.55a10.78,10.78,0,0,0-4.77,1.22,10.61,10.61,0,0,0-3.75,5c-.11.27-.51,0-.4-.23a11.59,11.59,0,0,1,3.92-5.18,10.57,10.57,0,0,1,5-1.29c.29,0,.29.44,0,.47Z"/><polygon class="cls-28" points="107.46 135.57 111.52 132.03 99.07 117.9 95.01 121.44 107.46 135.57"/><polygon class="cls-7" points="97.04 119.67 95.01 121.44 107.46 135.57 109.49 133.8 97.04 119.67"/><path class="cls-3" d="M125.82,160a4.92,4.92,0,0,0,7,.47h0a4.92,4.92,0,0,0,.48-6.95l-21-24.12a4.93,4.93,0,0,0-7-.48h0a4.93,4.93,0,0,0-.48,7Z"/><path class="cls-7" d="M61,120a27.49,27.49,0,1,0,2.66-38.79A27.49,27.49,0,0,0,61,120Zm5.72-35.28a22.83,22.83,0,1,1-2.21,32.21A22.84,22.84,0,0,1,66.69,84.69Z"/><path class="cls-7" d="M61.77,119.26A26.42,26.42,0,1,0,64.33,82,26.42,26.42,0,0,0,61.77,119.26Zm4.92-34.57a22.83,22.83,0,1,1-2.21,32.21A22.84,22.84,0,0,1,66.69,84.69Z"/><path class="cls-29" d="M64.48,116.9a22.83,22.83,0,1,0,2.21-32.21A22.82,22.82,0,0,0,64.48,116.9Z"/><path class="cls-2" d="M94.75,116.8a1.39,1.39,0,0,1-.26,2,21.1,21.1,0,0,1-15.24,4.16,20.08,20.08,0,0,1-3.18-.62,1.37,1.37,0,0,1-1-1.7,1.27,1.27,0,0,1,.2-.44,1.39,1.39,0,0,1,1.5-.53,20.2,20.2,0,0,0,2.77.53,18.3,18.3,0,0,0,13.24-3.62A1.39,1.39,0,0,1,94.75,116.8Z"/><path class="cls-2" d="M71,116.86a1.39,1.39,0,1,1-1.61,2.26,21,21,0,0,1-5.84-6.28,1.41,1.41,0,0,1,.06-1.53,1.4,1.4,0,0,1,2.32.09A18.34,18.34,0,0,0,71,116.86Z"/><path class="cls-26" d="M108.56,149.85c-2.74-.89-6.45-4.11-4.56-7.63s10.34-12.1,16.74-10.72c4.34.94,3.35,5.73-.93,9.64A129.93,129.93,0,0,1,108.56,149.85Z"/><path class="cls-27" d="M122.72,137.89a5.6,5.6,0,0,0,.87-4,3.66,3.66,0,0,0-2.85-2.64c-2.08-.61-4.37.19-5.93,1a.23.23,0,1,0,.2.41c1.49-.74,3.67-1.5,5.6-.94a3.26,3.26,0,0,1,2.53,2.3c.44,1.88-.92,4.54-3.55,6.94a.24.24,0,0,0,0,.33.22.22,0,0,0,.32,0A14.57,14.57,0,0,0,122.72,137.89Z"/><path class="cls-26" d="M114.61,155c-3.27.36-8.39-2.76-5.84-7.18,2-3.47,12.1-14.13,18.5-12.74,4.34.93,2.9,5.33-1.38,9.24S114.61,155,114.61,155Z"/><path class="cls-27" d="M129.19,140.77A5.15,5.15,0,0,0,130,137a3.14,3.14,0,0,0-2.71-2.15c-3.58-.77-8,2.07-11.1,4.6a38.17,38.17,0,0,0-7.65,8.25h0a.23.23,0,0,0,.08.32A.24.24,0,0,0,109,148c2-3.55,12-14,18.25-12.63a2.75,2.75,0,0,1,2.36,1.83c.47,1.73-1,4.42-3.85,7a.24.24,0,0,0,.32.35A16.59,16.59,0,0,0,129.19,140.77Z"/><path class="cls-26" d="M113.77,154.47a25.32,25.32,0,0,1,3.4-4.36,26.49,26.49,0,0,1,7.89-6,8.24,8.24,0,0,1,4.62-.81c3.32.56,2.94,3.07.46,6.64-.43.63-.92,1.28-1.47,2a39.62,39.62,0,0,1-5.32,5.25l.45.51,2,2.32a4.51,4.51,0,0,0,.71.67,22.79,22.79,0,0,1-8.06.48C115.22,160.66,111.73,158,113.77,154.47Z"/><path class="cls-27" d="M123.84,157.06a36,36,0,0,0,5-4.95c2.8-3.49,3.89-5.91,3.32-7.4a2.87,2.87,0,0,0-2.45-1.59c-3.24-.54-6.9,1.75-9.41,3.77a30.27,30.27,0,0,0-6.74,7.46.24.24,0,0,0,.41.23c2.13-3.72,10-12,15.67-11a2.46,2.46,0,0,1,2.09,1.29c.49,1.31-.6,3.64-3.25,6.94a34.66,34.66,0,0,1-5.3,5.17.24.24,0,0,0-.09.23.26.26,0,0,0,.17.18Z"/><path class="cls-30" d="M115,101.92h0c-.76-1.11,5.43-8.61,7.26-9.87l41.35-28.36c1.83-1.26,6.38,5.38,4.55,6.63L126.79,98.69C125,100,115.73,103,115,101.92Z"/><path class="cls-3" d="M122.1,92.15a9.26,9.26,0,0,0,1.67,3.73,9,9,0,0,0,2.88,2.9l.14-.09,37.08-25.44a7.07,7.07,0,0,0-4.56-6.64L122.23,92.05Z"/><path class="cls-7" d="M164.68,67.81a7.56,7.56,0,0,1,1.37,3.94l2.08-1.43c1.83-1.25-2.72-7.89-4.55-6.63l-2.08,1.42A7.64,7.64,0,0,1,164.68,67.81Z"/><path class="cls-3" d="M115.77,99.68c-.66,1.08-1,1.92-.8,2.24s1.13.29,2.37.06a2.35,2.35,0,0,0-1.57-2.3Z"/><path class="cls-24" d="M162.63,69.22a6.73,6.73,0,0,0-3.32-2.61L122.23,92.05l-.13.1a9.26,9.26,0,0,0,1.67,3.73"/></g></g></g></svg>