<svg xmlns="http://www.w3.org/2000/svg" xmlns:xlink="http://www.w3.org/1999/xlink" viewBox="0 0 234.91 220.76"><defs><style>.cls-1{fill:#fff;}.cls-2{fill:#6c2910;}.cls-3{fill:#fdce75;}.cls-4{fill:#feebca;}.cls-5{fill:url(#linear-gradient);}.cls-6{fill:url(#linear-gradient-2);}.cls-7{fill:url(#linear-gradient-3);}.cls-8{fill:url(#linear-gradient-4);}.cls-9{fill:url(#linear-gradient-5);}.cls-10{fill:url(#linear-gradient-6);}.cls-11{fill:#bd9883;}.cls-12{fill:url(#linear-gradient-7);}.cls-13{fill:url(#linear-gradient-8);}.cls-14{fill:#b2b095;}.cls-15{fill:url(#linear-gradient-9);}.cls-16{fill:url(#linear-gradient-10);}.cls-17{fill:url(#linear-gradient-11);}.cls-18{fill:url(#linear-gradient-12);}.cls-19{fill:url(#linear-gradient-13);}.cls-20{fill:url(#linear-gradient-14);}.cls-21{fill:#be8a64;}.cls-22{fill:url(#linear-gradient-15);}.cls-23{fill:url(#linear-gradient-16);}.cls-24{fill:url(#linear-gradient-17);}.cls-25{fill:#5e7e2e;}.cls-26{fill:url(#Degradado_sin_nombre_26);}.cls-27{fill:url(#Degradado_sin_nombre_50);}.cls-28{fill:url(#Degradado_sin_nombre_50-2);}.cls-29{fill:url(#Degradado_sin_nombre_12);}.cls-30{fill:url(#Degradado_sin_nombre_12-2);}.cls-31{fill:url(#linear-gradient-18);}.cls-32{fill:#cfca9d;}.cls-33{fill:url(#radial-gradient);}.cls-34{fill:#e7e6e6;}.cls-35{fill:#eea886;}.cls-36{fill:#de9e7e;}.cls-37{fill:#c88a5e;}.cls-38{fill:#c88665;}.cls-39{fill:#323657;}.cls-40{fill:#eea987;}.cls-41{fill:#a77961;}.cls-42{fill:url(#linear-gradient-19);}.cls-43{fill:#d6926f;}.cls-44{fill:#dfbe9e;}.cls-45{fill:url(#linear-gradient-20);}.cls-46{fill:url(#linear-gradient-21);}.cls-47{fill:url(#linear-gradient-22);}.cls-48{fill:url(#linear-gradient-23);}.cls-49{fill:url(#linear-gradient-24);}.cls-50{fill:url(#linear-gradient-25);}.cls-51{fill:url(#linear-gradient-26);}.cls-52{fill:url(#linear-gradient-27);}.cls-53{fill:#eebba2;}.cls-54{fill:#dbd59e;}.cls-55{fill:#eedad3;}.cls-56{fill:#345597;}.cls-57{fill:#183442;}.cls-58{fill:#776b61;}</style><linearGradient id="linear-gradient" x1="116.98" y1="3.27" x2="147.92" y2="102.89" gradientUnits="userSpaceOnUse"><stop offset="0.16" stop-color="#e7edba"/><stop offset="0.99" stop-color="#d4d36f"/></linearGradient><linearGradient id="linear-gradient-2" x1="65.63" y1="76.05" x2="82.5" y2="130.4" xlink:href="#linear-gradient"/><linearGradient id="linear-gradient-3" x1="68.37" y1="46.92" x2="90.22" y2="117.29" xlink:href="#linear-gradient"/><linearGradient id="linear-gradient-4" x1="49.01" y1="65.37" x2="70.86" y2="135.74" xlink:href="#linear-gradient"/><linearGradient id="linear-gradient-5" x1="42.93" y1="85.13" x2="58.41" y2="135" xlink:href="#linear-gradient"/><linearGradient id="linear-gradient-6" x1="53.56" y1="51.52" x2="75.41" y2="121.89" xlink:href="#linear-gradient"/><linearGradient id="linear-gradient-7" x1="149.32" y1="71.02" x2="166.6" y2="126.67" xlink:href="#linear-gradient"/><linearGradient id="linear-gradient-8" x1="154.99" y1="61.7" x2="175.22" y2="126.86" xlink:href="#linear-gradient"/><linearGradient id="linear-gradient-9" x1="31.19" y1="62.19" x2="53.04" y2="132.55" xlink:href="#linear-gradient"/><linearGradient id="linear-gradient-10" x1="79.87" y1="43.35" x2="101.73" y2="113.72" xlink:href="#linear-gradient"/><linearGradient id="linear-gradient-11" x1="51.26" y1="52.24" x2="73.11" y2="122.6" xlink:href="#linear-gradient"/><linearGradient id="linear-gradient-12" x1="-9755.5" y1="-297.17" x2="-9733.65" y2="-226.8" gradientTransform="matrix(-1, 0, 0, 1, -9527.68, 0)" xlink:href="#linear-gradient"/><linearGradient id="linear-gradient-13" x1="121.97" y1="67.82" x2="138.7" y2="121.71" xlink:href="#linear-gradient"/><linearGradient id="linear-gradient-14" x1="170.29" y1="77.24" x2="187.16" y2="131.59" xlink:href="#linear-gradient"/><linearGradient id="linear-gradient-15" x1="127.52" y1="101.7" x2="132.59" y2="101.7" gradientUnits="userSpaceOnUse"><stop offset="0.16" stop-color="#c19e3d"/><stop offset="1" stop-color="#98a635"/></linearGradient><linearGradient id="linear-gradient-16" x1="82.3" y1="85.26" x2="87.3" y2="85.26" gradientUnits="userSpaceOnUse"><stop offset="0.17" stop-color="#c19e3d"/><stop offset="1" stop-color="#a6a235"/></linearGradient><linearGradient id="linear-gradient-17" x1="148.83" y1="50.63" x2="154.92" y2="50.63" xlink:href="#linear-gradient-15"/><linearGradient id="Degradado_sin_nombre_26" x1="102.5" y1="-16.07" x2="131.86" y2="92.27" gradientUnits="userSpaceOnUse"><stop offset="0.04" stop-color="#dbd59e"/><stop offset="0.29" stop-color="#d3b684"/><stop offset="0.56" stop-color="#cd9e6f"/><stop offset="0.8" stop-color="#c98f62"/><stop offset="1" stop-color="#c88a5e"/></linearGradient><radialGradient id="Degradado_sin_nombre_50" cx="147.08" cy="54.81" r="15.05" gradientUnits="userSpaceOnUse"><stop offset="0.26" stop-color="#dbd59e"/><stop offset="0.43" stop-color="#d8ca95"/><stop offset="0.71" stop-color="#d1ae7d"/><stop offset="1" stop-color="#c88a5e"/></radialGradient><radialGradient id="Degradado_sin_nombre_50-2" cx="88.15" cy="65.6" r="15.99" xlink:href="#Degradado_sin_nombre_50"/><linearGradient id="Degradado_sin_nombre_12" x1="147.46" y1="96.93" x2="140.27" y2="73.01" gradientUnits="userSpaceOnUse"><stop offset="0.16" stop-color="#dbd59e"/><stop offset="1" stop-color="#c88a5e"/></linearGradient><linearGradient id="Degradado_sin_nombre_12-2" x1="104.9" y1="96.97" x2="103.85" y2="92.38" xlink:href="#Degradado_sin_nombre_12"/><linearGradient id="linear-gradient-18" x1="168.39" y1="80.02" x2="98.88" y2="132.86" gradientUnits="userSpaceOnUse"><stop offset="0.16" stop-color="#75ccf4"/><stop offset="1" stop-color="#fff"/></linearGradient><radialGradient id="radial-gradient" cx="61.78" cy="92.37" r="132.04" gradientUnits="userSpaceOnUse"><stop offset="0.16" stop-color="#75ccf4"/><stop offset="0.58" stop-color="#3b6bb3"/><stop offset="1" stop-color="#4756a2"/></radialGradient><linearGradient id="linear-gradient-19" x1="-3222.6" y1="2008.2" x2="-3225.55" y2="1995.33" gradientTransform="translate(2089.2 -3185.01) rotate(-27.79)" gradientUnits="userSpaceOnUse"><stop offset="0.16" stop-color="#135986"/><stop offset="1" stop-color="#2e6e90"/></linearGradient><linearGradient id="linear-gradient-20" x1="147.42" y1="144.25" x2="158.62" y2="171.77" gradientUnits="userSpaceOnUse"><stop offset="0.16" stop-color="#f9fbf0"/><stop offset="0.99" stop-color="#d4d4c6"/></linearGradient><linearGradient id="linear-gradient-21" x1="152.02" y1="184.56" x2="154.15" y2="189.78" gradientUnits="userSpaceOnUse"><stop offset="0.19" stop-color="#d49675"/><stop offset="0.99" stop-color="#d4853d"/></linearGradient><linearGradient id="linear-gradient-22" x1="151.98" y1="183.93" x2="153.25" y2="187.05" xlink:href="#linear-gradient-21"/><linearGradient id="linear-gradient-23" x1="149.2" y1="143.41" x2="153.26" y2="164.02" gradientUnits="userSpaceOnUse"><stop offset="0.19" stop-color="#eb5779"/><stop offset="1" stop-color="#c24342"/></linearGradient><linearGradient id="linear-gradient-24" x1="153.77" y1="142.51" x2="157.84" y2="163.13" xlink:href="#linear-gradient-23"/><linearGradient id="linear-gradient-25" x1="145.88" y1="144.07" x2="149.95" y2="164.66" xlink:href="#linear-gradient-23"/><linearGradient id="linear-gradient-26" x1="158.64" y1="141.55" x2="162.72" y2="162.24" xlink:href="#linear-gradient-23"/><linearGradient id="linear-gradient-27" x1="144.08" y1="144.38" x2="148.14" y2="164.93" xlink:href="#linear-gradient-23"/></defs><g id="Capa_2" data-name="Capa 2"><g id="Capa_1-2" data-name="Capa 1"><path class="cls-1" d="M42.45,220.76a19.66,19.66,0,0,1-11.27-3.66,80.33,80.33,0,0,1-7.82-6.24C8.16,196.71-4.31,172.1,1.42,146.71c3.42-15.12,12.79-23.9,21.73-32.94,3.17-3.2,6.13-7.3,5.76-13-.39-5.89-3.44-11-5.23-16.26a92.8,92.8,0,0,1-4.25-17.91C17.38,50.87,20,34.12,27.89,22c6.92-10.67,17.79-18,29-19.28A30.35,30.35,0,0,1,74,6c11.15,5.6,19.83,16.06,29.13,25,9.73,9.39,20.76,16.26,32.86,19.88A75.25,75.25,0,0,0,153.94,54c10.44.5,20.87-2.11,31.27.19,13.88,3.06,27.67,12.4,37.06,26.69s11.56,34.86,7.52,52.8c-1.85,8.19-4.85,15.78-4.25,24.6a46.65,46.65,0,0,0,3.7,15.16c2.64,6.13,5.81,12.24,5.67,19.64,0,.43,0,.86,0,1.29-.78,14.95-11,26.4-23,26.4Z"/><path class="cls-2" d="M122.08,57.41s-6.73,10.36-19.53-1.91c-8.52-8.16-20.73.41-24-11.06S122.08,57.41,122.08,57.41Z"/><path class="cls-3" d="M210.13,132.3s-16.86-9.7-23.06-38.77S160.18,50.4,137.54,59.91,110,79.94,84.63,88.22,38.56,119.1,33.22,132.3Z"/><path class="cls-4" d="M197.61,134s7-17.93-14.79-26.76-26.32-7-37.39-21.1-26.8-11.19-48.08,4S39.76,123.26,40.69,134,197.61,134,197.61,134Z"/><rect class="cls-5" x="151.2" y="104.4" width="3.36" height="28.94"/><rect class="cls-6" x="79.83" y="116.86" width="1.84" height="15.79"/><rect class="cls-7" x="90.58" y="112.03" width="2.38" height="20.44"/><rect class="cls-8" x="65.68" y="109.21" width="1.34" height="23.98"/><rect class="cls-9" x="54.74" y="116.19" width="0.95" height="17"/><rect class="cls-10" x="74.28" y="107.88" width="1.28" height="24.85"/><path class="cls-11" d="M74,91.86c-3.09,1.81-5.75,5.76-3.19,11.67s-6.15,5.19-5.28,10.86,6.08,10.71,9.35,10.79,8.39-2.08,5.43-9,2.32-6,.56-11.35S79.24,88.83,74,91.86Z"/><rect class="cls-12" x="165.71" y="115.59" width="1.01" height="19.65"/><rect class="cls-13" x="173.9" y="113.98" width="1.73" height="22.84"/><path class="cls-14" d="M165.52,102.92c-2.44,1.43-4.55,4.55-2.53,9.23s-4.86,4.1-4.17,8.59,4.8,8.47,7.39,8.53,6.64-1.64,4.3-7.08,1.83-4.74.44-9S169.63,100.52,165.52,102.92Z"/><path class="cls-15" d="M66.3,131.23s.45-3.13-4.32-2.68-3,3.2-7.89.52-6.32.22-6.32.22-2.5-1.82-4.08.29-6.12.61-6.12,3.57H68.78S68.93,131.3,66.3,131.23Z"/><path class="cls-16" d="M116.43,131.84s-1-3.83-6.22-1.92-4.79-2.35-9.24.46S98,133.19,98,133.19h19.22S118.07,131.77,116.43,131.84Z"/><path class="cls-17" d="M71.47,133.15a1.28,1.28,0,0,1,1.4-1.74s.1-2.12,2.29-1.1c0,0,1.85-.95,2.74.48,0,0,2.08-.13,2.08,1.78,0,0,1.3-.13,1.3.58Z"/><path class="cls-18" d="M99.11,133.15a1.28,1.28,0,0,0-1.4-1.74s-.11-2.12-2.3-1.1c0,0-1.84-.95-2.73.48,0,0-2.09-.13-2.09,1.78,0,0-1.3-.13-1.3.58Z"/><polygon class="cls-11" points="158.48 110 160.66 110.03 156.88 101.76 158.86 101.78 153.2 89.38 147.27 101.65 149.19 101.67 145.24 109.85 147.66 109.88 139.88 125.96 152.88 126.1 165.89 126.25 158.48 110"/><polygon class="cls-11" points="98.05 113.81 99.7 113.81 94.96 101.01 97.21 101.01 95.5 96.38 97.21 96.38 91.76 81.66 86.32 96.38 88.03 96.38 86.32 101.01 88.56 101.01 83.83 113.81 85.48 113.81 80.51 127.25 91.76 127.25 103.02 127.25 98.05 113.81"/><rect class="cls-19" x="138.97" y="117.69" width="1.82" height="15.65"/><polygon class="cls-14" points="144.69 119.05 145.96 119.05 142.33 109.24 144.05 109.24 142.74 105.7 144.05 105.7 139.88 94.43 135.71 105.7 137.02 105.7 135.71 109.24 137.43 109.24 133.8 119.05 135.07 119.05 131.26 129.34 139.88 129.34 148.5 129.34 144.69 119.05"/><polygon class="cls-14" points="85.42 120.51 88.26 120.51 86.01 116.72 88.26 116.72 82.76 107.44 84.72 107.44 80.51 100.35 76.3 107.44 78.26 107.44 72.76 116.72 75.01 116.72 72.76 120.51 75.6 120.51 70.7 128.78 80.51 128.78 90.32 128.78 85.42 120.51"/><path class="cls-14" d="M65.37,98.94c3-1.44,3.83,2.1,3.65,5.21s2.74,1.91,3.65,6.66-2.92,5.38-2.74,7.76,4,7.66-2,9.31-7.85-5.84-6-11.5-1.92-6.94-.18-11S63.63,99.76,65.37,98.94Z"/><path class="cls-11" d="M48.18,120.52c2-5-1.86-6.49,1-9.72,2-2.28.59-4.45,3.22-6.06s3.54,4,6.69,4.89a6.08,6.08,0,0,1,3.94,8.56c-2,4-.27,9-5.19,9.68S45.66,126.87,48.18,120.52Z"/><path class="cls-11" d="M169.32,129.31c-3.6-1-5.88-8.18-3-11.52s4.16-2.94,3-8,.72-17.49,6.46-14.19,1.14,13,5.59,14.19,6.27,4,1.58,10.35C180.08,124.07,179.65,132.22,169.32,129.31Z"/><rect class="cls-20" x="184.49" y="118.05" width="1.84" height="15.79"/><polygon class="cls-11" points="190.07 121.7 192.92 121.7 190.67 117.91 192.92 117.91 187.42 108.63 189.37 108.63 185.17 101.54 180.96 108.63 182.92 108.63 177.42 117.91 179.67 117.91 177.42 121.7 180.26 121.7 175.35 129.97 185.17 129.97 194.98 129.97 190.07 121.7"/><rect class="cls-2" x="113.77" y="27.38" width="11.33" height="112.02"/><rect class="cls-21" x="113.77" y="27.38" width="3.16" height="112.02"/><path class="cls-21" d="M113.77,106.36s-.83-5.12-4.09-7-5.27-6.83-7.13-7.61v-.46a13.8,13.8,0,0,1,4,4.39c1.4,2.36,4.09,2.54,5.48,3.83a18.76,18.76,0,0,1,2.85,4.14Z"/><path class="cls-2" d="M121.25,74.51s1.75-6,5.06-7.53,7-10,9.94-9.47v-.82s-1.61-.14-3.47,2.45-5,6.64-7.45,7.18S120.71,73,120.71,73Z"/><path class="cls-21" d="M118.17,133.05c-.1-3.12,0-92,0-105.67h.11C119.44,48.54,118.17,133.05,118.17,133.05Z"/><path class="cls-22" d="M127.52,100.23s2.44.15,3.08,1.37,2,.4,2,.4S129.26,105.6,127.52,100.23Z"/><path class="cls-23" d="M82.3,88.85s.74-3.6,2.69-4.3,1-2.89,1-2.89S90.68,87.39,82.3,88.85Z"/><path class="cls-24" d="M148.83,48.87s2.93.17,3.7,1.62,2.39.48,2.39.48S150.94,55.31,148.83,48.87Z"/><path class="cls-25" d="M126.64,83.42s.63-.8,1.2-.73.61-.59.61-.59S128.89,84.1,126.64,83.42Z"/><path class="cls-25" d="M149.49,41.83s1.5-1.9,2.85-1.74,1.45-1.39,1.45-1.39S154.84,43.45,149.49,41.83Z"/><path class="cls-2" d="M124.42,99.54s1.49-4.71,3.53-7c2.79-3.18,11.77-9,10.83-14.82s10.5-8.88,17.24-6.16l-1.43-1s-6.09-1.92-11.28,0-7,5.17-7.26,7.5-3.38,9-11.26,12.46S119.46,94,119.46,94Z"/><path class="cls-21" d="M114.91,72.93s-4.85-5.64-6.18-9.92-10.28-7.59-9.89-11.28-4.93-11.28-4.93-11.28h1s4,3.37,4.41,6.74,3,7.84,6.67,9.5,6.86,9.69,8.88,10.6Z"/><path class="cls-21" d="M105.45,57.56s-1.3-2.85.58-7-1-9.08-1-9.08h.83s2.33,4.28,1.3,8,.26,9.08.26,9.08Z"/><path class="cls-21" d="M109.47,98.83s-.58-.16-.52-2.66A6.36,6.36,0,0,0,107.4,92l.48.16a9,9,0,0,1,1.3,4.15,4.4,4.4,0,0,0,1.65,3.27Z"/><path class="cls-21" d="M114.91,88s-3.11-6-7.58-6.55-9.61-5.7-21.46-5.15V76s8.47-1.64,15.32,2,11.46,1.85,13.18,4.5Z"/><path class="cls-21" d="M98.83,77.39s-4.42-1.26-4.5-3.51-2.63-2.3-2.63-2.3l.36-.16a2.71,2.71,0,0,1,2.57,2.28c.57,2.33,4.85,3.5,4.85,3.5Z"/><path class="cls-21" d="M101.19,78.66s-1.5-2.55,1.17-3.68,1.78-4.56,1.17-5.88h.41s1.79,3.05-.41,5.56-1.57,2.8-.83,4.61Z"/><path class="cls-25" d="M122.08,52.8A14.3,14.3,0,0,1,130,42.88c6.71-3,5.74-11.77,5.74-11.77h-.49s-1,9-6.3,10.84-6.83,5.3-6.83,5.3Z"/><path class="cls-2" d="M137.74,74.81s2.46-4,2.46-7S142.92,62,142.92,62l.22.36A10.44,10.44,0,0,0,141,67.82a15,15,0,0,1-1.51,5.67Z"/><path class="cls-2" d="M128.48,90.28s2.45-1.36,6.13,1.93S148,91.62,148,91.62l-.64-.31s-6.79,3.16-10.9.68-5-3.12-6.87-2.65Z"/><path class="cls-25" d="M135.75,91.66s2.46-.35,3.83-4.63,3.56-3.64,3.56-3.64v.17s-2.42,0-3.16,3.53a10.06,10.06,0,0,1-3.38,5.55Z"/><path class="cls-26" d="M147.51,15.08c-6.57-1.67-5.23-7.34-13-13.21-6.31-4.78-10.77,5.87-16.5.63S104.13,1,103.92,6.69c-.15,4-6.27,10.7-15.38,10.28a7.7,7.7,0,0,0-3.86.88C84,15.41,80,13.72,80,13.72c-.08,3.4.67,5.31,1.74,6.33l-.39.42c-1.32-.94-4,0-4,0a6.67,6.67,0,0,0,2.46,2c-3.86,5.82-5.26,15.14-1.3,22C84.82,55.35,89.29,40.88,110,54.3s15.34-14.57,33.18-17.2S154.07,16.76,147.51,15.08Z"/><path class="cls-27" d="M165.25,45.9a6.2,6.2,0,0,0-2.52.14,3.74,3.74,0,0,0,0-2.31s-1.52,1.1-1.43,2.15a1.22,1.22,0,0,1,0,.34,5.92,5.92,0,0,0-4-1.08c-4.67.55-6.35,3.22-13.68.76s-5.88,3.89-10,5.7c-3.87,1.69-9.38,9.21,3.08,13.29s7.78-5.38,19.45-9.79c5.87-2.21,7.31-4.86,6.7-6.87C163.51,48.06,164.37,47.41,165.25,45.9Z"/><path class="cls-28" d="M77.45,56.65c5.82-7.83,15.37-4.38,19.26,1.65s10.3,2.92,9.53,9.14-3.68.85-14.38,6.07-11.68,7.74-17.81,3.27-4.38-6.94-.88-11S74.35,60.83,77.45,56.65Z"/><path class="cls-29" d="M130.5,84.67C132,79,135.38,78,139.85,80s8.54-2,12.54-1.58c3.63.36,6.65,4.24,6,7.58s-10.2,2.25-10.09,5.81S142,100,135.94,95.5,129.44,88.76,130.5,84.67Z"/><path class="cls-30" d="M96.92,93.3c2.09-3.93-.61-8.11,2.55-7.91s5,.45,7.28,0,5.6,2.76,3.33,5.69-6.29,2.88-8.1,5.3S95.24,96.47,96.92,93.3Z"/><path class="cls-31" d="M158.25,85.16s-44-2.79-49.52,42.78l16.79,1.92s2.3-42.35,31.12-43.61Z"/><path class="cls-32" d="M108.82,134.68s-6.27-5.75,0-7.84,4-7.76,6.91-6.9,1.16,5.51,4.77,5.74,5.16,0,5.23,4.29,1,2.69,4.74,4.71,5.71,3.83,3.77,5.15-23,.3-23,.3Z"/><path class="cls-33" d="M210.13,132.3a88.45,88.45,0,0,1-88.46,88.46q-1,0-2,0A88.33,88.33,0,0,1,33.22,132.3Z"/><path class="cls-32" d="M121.67,219.16a18.71,18.71,0,0,1-2,1.57A88.49,88.49,0,0,1,39.05,164a25.17,25.17,0,0,0,1.09-4.29c0-2.18,1.75-4.35-.93-5.9s-.43-1.13-3-2.73a6.45,6.45,0,0,0-1.12-.54,88.76,88.76,0,0,1-1.87-18.2h15a39.31,39.31,0,0,0,2.18,10c1.86,5,.93,9.92,2.17,11.16s-2.48,1.24,1.86,3.1,2.45,2.58,6.21,3.42,4.72-1.11,7.72,0,4.06-1.56,5.92-1.56a25.87,25.87,0,0,1,8.68,1.83,67.47,67.47,0,0,0,9,2.49c2.48.65,6.64,3.42,6.51,7.16s3.46,6.51,5,8.37,2.45,6.2,2.45,6.2-4.73,1.18-5.58,5,3.13,7.44,3.13,7.44l2.45,4.65s3.1,8.68,3.41,9.61,3.73.94,5.9,1.86S121.67,219.16,121.67,219.16Z"/><path class="cls-32" d="M210.13,132.3A88.27,88.27,0,0,1,178,200.53a9.88,9.88,0,0,0-4.18-3.34c-5-2.48.93-5,0-12.41s-5.58-9-11.17-9-10.23-7.41-15.81-8-5.58-.62-13-5,0-4.63-2.17-10.52-7.13-2.79-10-5,0-8.67,0-8.67a84.89,84.89,0,0,0-9.89,0c-5.59.31-12.1-6.28-12.1-6.28Z"/><path class="cls-34" d="M210.73,156.79a5,5,0,0,0-2.12.46,9.76,9.76,0,0,0-16.13-1.43,6.77,6.77,0,0,0-9.66,6.12h33.07A5.16,5.16,0,0,0,210.73,156.79Z"/><path class="cls-34" d="M155.83,212.77a4.66,4.66,0,0,0-2,.43,9.11,9.11,0,0,0-15.09-1.33,6.33,6.33,0,0,0-9,5.72h30.93A4.82,4.82,0,0,0,155.83,212.77Z"/><path class="cls-34" d="M67.35,173.36a6,6,0,0,0-3.71,1.3,10.52,10.52,0,0,0-18.41-.78,5.81,5.81,0,0,0-1.52-.21,5.66,5.66,0,0,0-3,.87,8.89,8.89,0,0,0-16.38,4.79h49A6,6,0,0,0,67.35,173.36Z"/><path class="cls-35" d="M192.46,75.36l-.49-.12a13.85,13.85,0,0,0-1.95.67c-2.7,1-7.22,2.91-7.22,2.91s-.84,3.44-1.3,4.8h0a1.81,1.81,0,0,1-.22.53c-.29.26-4.44.17-7.12,0s-3-.17-3-.17,0-1.19,1-1.39,5.19-.8,5.88-1,1.15.06,1.35-.63c.11-.37.32-1.63.56-2.87.11-.51.22-1,.33-1.47h0a5.47,5.47,0,0,1,.38-1.14,21.78,21.78,0,0,1,2.76-2.8h0c.55-.5,1-.89,1.13-1a21.52,21.52,0,0,1,3.06-1.07l2.82.64.62.13c.24,0,.8.23,1.49.46h0A8.56,8.56,0,0,1,192.46,75.36Z"/><path class="cls-35" d="M172.41,82.68s-.56-.19-.87-.25-.59-.17-.81-.22a7.64,7.64,0,0,0-1.44-.12,4.56,4.56,0,0,1-.85.38c-.2,0-.62,0-.6.17s.38.33.38.33a.24.24,0,0,0-.21.19.48.48,0,0,0,.09.47.51.51,0,0,0-.17.3.66.66,0,0,0,.17.45.55.55,0,0,0,0,.37.47.47,0,0,0,.32.34s0,.36.19.43.33,0,.48,0a5.1,5.1,0,0,0,2.22-.88,5.31,5.31,0,0,1,1.79-.75Z"/><path class="cls-1" d="M187.88,122.44s1,2.69,1.58,3,1.53,1.83,1,2.58-3.67,2.61-3.91,3.14S185.53,123.64,187.88,122.44Z"/><path class="cls-36" d="M187,119.48l-1.06,4.24s-1-2-2-4c-.25-.5-.5-1-.75-1.46a24.69,24.69,0,0,0-1.25-2.25c-.74-1-3.14-5-4-6.09s-.22-2.26-.08-3.85,2.16-7.25,2.52-9,2-7.86,2-7.86C185.17,90.53,187,119.48,187,119.48Z"/><path class="cls-35" d="M182.62,89.47s.13,3.16,0,4-.24,5.52-.3,7.79-.74,6.65-.46,7.57,1.36,6.17,1.69,7.89,1,12.69,1,12.69a3.66,3.66,0,0,0,2.66-.45,42,42,0,0,1,.84-7.23,20.63,20.63,0,0,0-.22-9.67c-.87-2.8.74-6.86,1.85-9.1s2.88-11.12,2.77-12.27A11.13,11.13,0,0,0,190,85.33C188.42,83.5,182.62,89.47,182.62,89.47Z"/><path class="cls-1" d="M187.21,128.94a6.24,6.24,0,0,1-1.77.15,1.9,1.9,0,0,0-1,.08S183.15,131.4,182,132s-4.1,1.51-3.76,2.68,3.71.83,4.94.24,4.32-.66,4.64-1.85S187.09,129.52,187.21,128.94Z"/><path class="cls-37" d="M181.75,90.24s-.51,2.85-.7,3.62-2.87,8.25-2.87,8.25,7.62,5.53,15,4.36c0,0,.13-10.16-.25-14.7a12.09,12.09,0,0,0-2.39-6.26C189.88,84.59,181.75,90.24,181.75,90.24Z"/><path class="cls-38" d="M183.89,119.69h0c-.25-.5-.5-1-.75-1.46.08-.6-.31-5.23-.31-5.23A33.5,33.5,0,0,1,183.89,119.69Z"/><path class="cls-39" d="M186.16,58.73a2,2,0,0,1,2.79.19c1.57,1.36,1.17,3,1.41,4.47s-.65,5,.16,6.3a2.12,2.12,0,0,1,.26,2.21s-4.13,1.93-4.86-4.7S186.16,58.73,186.16,58.73Z"/><path class="cls-37" d="M188.55,69.1a2.23,2.23,0,0,0,.4,1.11c.31.3,2.88.77,3.53,1.55s-.3,5.12-.52,6.29-1.38,3.66-1.3,4.5a21.58,21.58,0,0,0,.78,3.67c.25.63,1,3.36,1.2,3.87,0,0-6.49,2.07-11,.83,0,0,.29-4.21.15-5.1s-.52-4.14-.53-5-1.44-1.74-.9-3.39c.48-1.45,2.83-4.31,3.26-4.87s1.51-1.67,1.51-1.67a5.26,5.26,0,0,0,.35-2.4l3-1.66A18.1,18.1,0,0,0,188.55,69.1Z"/><path class="cls-40" d="M189.41,71.16c-.26.18-1.56.47-.93,2a9.33,9.33,0,0,0,2.61,3.25c.65.54,3.55,3.38,4,3.89s.47,1,.63,2.13,1.73,7.65,1.77,8.13L199,90s-.13-8.23-.44-9.23a9,9,0,0,0-1.89-3.22c-1.16-1.43-3.77-5.19-4.28-5.65S190.77,70.23,189.41,71.16Z"/><path class="cls-3" d="M191.4,77.27a11.75,11.75,0,0,1,3.32-2.85S191.8,69.4,189,71C186.61,72.24,190.12,75.7,191.4,77.27Z"/><path class="cls-40" d="M189,70.21s-1.75,3-4,3.16.13-2.53.13-2.53a5.07,5.07,0,0,0,.24-.76,5.88,5.88,0,0,0,.11-.69h0a4.22,4.22,0,0,0,0-.94l3.05-2.17S188.36,69.53,189,70.21Z"/><path class="cls-40" d="M185.93,69.37c-.53.08-2,.18-3.37-3-1.65-3.94-.11-6.43,1.47-7.13s3.23-.42,4.48,1.56c0,0,.94,1.55.49,4.71S186.49,69.28,185.93,69.37Z"/><path class="cls-39" d="M185.84,61.62s-2.2.56-3.69,4.06c0,0-1.68-3.56.54-5.75a3.51,3.51,0,0,1,5-.43s.93,0,1.27,1.72,1.94,4-.32,5.63a8,8,0,0,0-.4-2.32C188,64.13,187.25,64.57,185.84,61.62Z"/><path class="cls-40" d="M188,63.81c.06-.31.35-.49.57-.21s.26,1.53-.16,1.75S187.88,64.44,188,63.81Z"/><path class="cls-41" d="M187.79,68.3a2.81,2.81,0,0,1-2.43,1.78,5.88,5.88,0,0,0,.11-.69h0A2.92,2.92,0,0,0,187.79,68.3Z"/><path class="cls-3" d="M184.56,71.43s-3.56,1.13-4.32,4.27l1.37.51Z"/><path class="cls-35" d="M197.14,88.86s.38,1.11.25,1.38a9.47,9.47,0,0,0-.29,1c-.07.27-.49.93-.47,1.23a9.55,9.55,0,0,1,.29,1.08c0,.25-.08.75.1.75s.37-.44.37-.44,0,.23.16.28c.33.11.47-.07.47-.07s.14.23.28.23a.58.58,0,0,0,.46-.16.48.48,0,0,0,.37.06.55.55,0,0,0,.36-.36s.36,0,.44-.19A1.69,1.69,0,0,0,200,93a8.17,8.17,0,0,0-.73-2.83,5.75,5.75,0,0,1-.63-2.1Z"/><path class="cls-42" d="M171.33,96.66,164,86.42l.36-.31a.34.34,0,0,0,.2.08.21.21,0,0,0,.16-.1,2.7,2.7,0,0,0,.32-.56c.63-1.24,1.94-3.8,4.63-2.78,2.16.81,1.53,4.91,1,8.2a11.05,11.05,0,0,0-.26,3.68Zm-6.54-10,5.11,7.18a27.25,27.25,0,0,1,.36-2.95c.45-3,1.07-7-.73-7.67-2.27-.86-3.41,1.35-4,2.55a4,4,0,0,1-.38.66A.73.73,0,0,1,164.79,86.64Z"/><polygon class="cls-14" points="163.92 101.08 159.14 87.94 159.14 87.94 155.51 86.39 163.16 82.35 163.62 84.29 172.42 96.61 163.92 101.08"/><path class="cls-43" d="M168.33,82.9s1.12-.27,1.43,0-.09.38-.09.38.4-.13.53.2-.34.45-.34.45a.34.34,0,0,1,.34.36c0,.37-.39.37-.39.37s.46.26.14.56a1.67,1.67,0,0,1-1.38.32s-.2-.07-.2-.43a.53.53,0,0,1-.3-.73s-.39-.46,0-.75C168.08,83.62,167.69,83.08,168.33,82.9Z"/><polygon class="cls-44" points="156.08 186.41 155.72 186.35 156.76 180.6 157.12 180.65 156.08 186.41"/><rect class="cls-44" x="153.65" y="180.62" width="0.36" height="5.76"/><rect class="cls-44" x="151.39" y="180.62" width="0.36" height="5.76"/><polygon class="cls-44" points="149.42 186.41 148.47 180.65 148.83 180.6 149.78 186.36 149.42 186.41"/><path class="cls-45" d="M166.06,164.08c-1,1.87-2.74,4.58-4.41,7.34-2.26,3.76-4.4,7.62-4.4,9.66h-8.94c0-3.54-6.46-12.59-8.82-17a15.3,15.3,0,0,1-1.43-8.09s0-.08,0-.12a.19.19,0,0,1,0-.08,11.68,11.68,0,0,1,.16-1.34c0-.2,0-.31,0-.31h0c1.27-6.4,7.27-11.24,14.48-11.24s13.2,4.84,14.48,11.24h0a3,3,0,0,1,.06.31c.07.44.13.88.16,1.34v.08a.49.49,0,0,1,0,.12A15.2,15.2,0,0,1,166.06,164.08Z"/><polygon class="cls-46" points="152.78 186.13 147.98 186.13 149.61 190.7 152.78 190.7 155.95 190.7 157.58 186.13 152.78 186.13"/><rect class="cls-47" x="147.61" y="185.66" width="10.33" height="0.47"/><path class="cls-48" d="M152.78,142.9C149,157.26,150.38,167.33,151,170s1.74,11,1.74,11,1.08-8.33,1.74-11S156.56,157.26,152.78,142.9Z"/><path class="cls-49" d="M152.78,142.9c7.3,7.43,8.09,17.77,4.6,27.14a113.69,113.69,0,0,0-2.85,11,69.74,69.74,0,0,1,5.54-11.21C164.44,162.57,167.15,152,152.78,142.9Z"/><path class="cls-50" d="M152.78,142.9c-7.31,7.43-8.1,17.77-4.61,27.14a111.66,111.66,0,0,1,2.86,11,70.42,70.42,0,0,0-5.55-11.21C141.12,162.57,138.4,152,152.78,142.9Z"/><path class="cls-51" d="M166.06,164.08c-1,1.87-2.74,4.58-4.41,7.34,6.78-12.38,4.61-17.79,2.48-21.76-3.26-6.09-11.35-6.76-11.35-6.76,7.21,0,13.2,4.84,14.48,11.24h0a3,3,0,0,1,.06.31c.07.44.13.88.16,1.34v.08a.49.49,0,0,1,0,.12A15.2,15.2,0,0,1,166.06,164.08Z"/><path class="cls-52" d="M139.49,164.08c1,1.87,2.74,4.58,4.41,7.34-6.77-12.38-4.6-17.79-2.48-21.76,3.26-6.09,11.36-6.76,11.36-6.76-7.21,0-13.21,4.84-14.48,11.24h0s0,.11,0,.31a11.68,11.68,0,0,0-.16,1.34.19.19,0,0,0,0,.08s0,.08,0,.12A15.3,15.3,0,0,0,139.49,164.08Z"/><path class="cls-53" d="M58.57,71.89l-7.44,9.73s-.83,1.25-2.2,3.85c-1.79,3.4-3.39,7.15-3.39,7.15s1,1.18,1.66.79c1.08-.64,6.79-9.12,6.85-9.77s5.87-6.48,5.87-6.48S59.9,72.27,58.57,71.89Z"/><path class="cls-54" d="M57.7,70.07,56.3,81.45l-1.09,8.88s-5.69,1.51-5.49-2.78a35.83,35.83,0,0,1,.85-6.1c1.12-5.06,3-9.44,3.92-10.54A3,3,0,0,1,57.7,70.07Z"/><path class="cls-37" d="M56.3,81.45l-1.09,8.88s-5.9,1.53-5.7-2.76a33.5,33.5,0,0,1,1.06-6.12Z"/><path class="cls-2" d="M43.58,126.84a3,3,0,0,0,.39,1.74c.51,1,2.82,3.53,2.66,4.57s-2.82.92-4.5-.91-4.16-3.74-4.07-4.18a11.54,11.54,0,0,1,3.48-3C42.41,124.73,43.58,126.84,43.58,126.84Z"/><path class="cls-2" d="M79.75,128.39a11.2,11.2,0,0,0,2.52.75c1.18.16,4-.31,4.83.47s-.93,3-3.55,3.35-6,.89-6.3.54a10.28,10.28,0,0,1-.33-4.43C77.19,128.12,79.75,128.39,79.75,128.39Z"/><path class="cls-53" d="M62,68.08a11.86,11.86,0,0,0,.32,3c.32.81-4.55-1.46-4.55-1.46a9.83,9.83,0,0,0-.07-4C57.21,64.19,62,68.08,62,68.08Z"/><path class="cls-37" d="M74.28,106.86l-6,4s-1.26-.88-2.74-2c-.37-.27-.74-.56-1.12-.85a26.37,26.37,0,0,1-3.12-2.76c-1.61-1.86,1.91-13.59,6.36-8.36C67.68,96.89,73.1,103.77,74.28,106.86Z"/><path class="cls-37" d="M67.32,95.5s-2.34,12.2-5.1,16.57a61.1,61.1,0,0,1-7.55-1.85s.06-9.21.26-11.63S67.32,95.5,67.32,95.5Z"/><path class="cls-2" d="M69,95.18c-.13.42-.59,2.28-1,2.31l-13.06,1.1s.62-10.13-.35-15.5c-.65-3.57.29-9.37,2.43-12.5a8.54,8.54,0,0,1,.8-1S62.34,71,62.57,71a7,7,0,0,1,1.12,1.19h0c1.23,1.5,3,4.24,3.22,6.89.26,3.92,2.22,6.61,2.56,11A11.11,11.11,0,0,1,69,95.18Z"/><path class="cls-53" d="M77,87.89a.32.32,0,0,1-.12.1,5.58,5.58,0,0,1-1.39.47c-2.77.69-8.53,1.51-10.23,1.2-2.22-.4-6.65-10.39-6.65-10.39l4.06-2.57L66,83.47A3.35,3.35,0,0,0,67.4,85a5.72,5.72,0,0,0,2.3.75c1.47,0,3.51.07,5,.07h1.91S77.23,87.24,77,87.89Z"/><polygon class="cls-53" points="79.45 126.95 79.75 128.39 76.92 129.07 76.5 127.58 79.45 126.95"/><polygon class="cls-53" points="44.51 125.86 43.56 126.88 41.44 125.07 42.42 123.94 44.51 125.86"/><path class="cls-53" d="M76.53,85.77a2.87,2.87,0,0,0,1-1,1.89,1.89,0,0,1,2-.65c.55.21,1.22-.12,1.43.25s-.42.88-.34,1.23.55,2-.75,2.38-2.45-.1-3.12.12S76.53,85.77,76.53,85.77Z"/><path class="cls-37" d="M74.28,106.86s1.14,3.15,3.84,13.5c0,0,1.57,5.72,1.83,6.37s-4.82,1.77-4.83,1.08-5.41-14.34-6.82-17C67.05,108.56,74.28,106.86,74.28,106.86Z"/><path class="cls-37" d="M62.35,111.81c-1.63,3.66-17.48,14.45-17.48,14.45s-1.1-.68-2-1.35c-.19-.14-.37-.28-.53-.42a3.93,3.93,0,0,1-.5-.46c-.66-.76,3.32-4.56,3.32-4.56,8.93-10.31,9.55-11.6,9.55-11.6s1,0,2.42.24l.65.09C60.47,108.64,63.35,109.59,62.35,111.81Z"/><path class="cls-55" d="M64.86,79.83l-5.58,2.4s-.16-.39-.37-1l5.58-2.49C64.74,79.39,64.86,79.83,64.86,79.83Z"/><path class="cls-56" d="M63.69,72.22A37.42,37.42,0,0,1,57,70.59a8.54,8.54,0,0,1,.8-1S62.34,71,62.57,71A7,7,0,0,1,63.69,72.22Z"/><path class="cls-53" d="M63.51,61.15a13.87,13.87,0,0,1,1.24,2.53c0,.44-.52.44-.25.9s.85,1.32.57,1.6-.92.14-1,.74-.89,2.42-1.72,2.41-3.68-1.44-3.87-2-1.28-3.86-1.62-4.49,5.66-3.66,6.18-2.66Z"/><path class="cls-57" d="M63.4,60.94A1.09,1.09,0,0,0,64,59.62a2.09,2.09,0,0,0-2.83-1.49c-1.74.56-3.06,1.75-4.26,1.95s-1.49,1.37-.43,3.56S58,66.9,58,66.9s.34-1.89.8-1.81S60,63.92,60,63.92l.12.32.82-.06s-1.07-2.29-.5-2.58S63.31,61.19,63.4,60.94Z"/><path class="cls-57" d="M60.9,64.18s.54,2,1,2a7.8,7.8,0,0,1,2.26.49.43.43,0,0,1,.13.46c-.1.28-.37,2,.17,2.54,0,0-.38.61-2.31-.07A9.23,9.23,0,0,1,59.2,68s1.38-2.63.88-3.77Z"/><path class="cls-53" d="M60,63.58a1,1,0,0,0-1.58-.32c-.74.53.25,2.32,1,2.28S60.38,64.51,60,63.58Z"/><path class="cls-54" d="M63.2,76.63a5.85,5.85,0,0,0-3.9-4.22,8,8,0,0,0-3.08-.52c-.11.23-.22.49-.32.73a4.16,4.16,0,0,1,.67-.06,7.3,7.3,0,0,1,2.49.47,5.3,5.3,0,0,1,3.47,3.74A2.83,2.83,0,0,1,62,79.2c-1.53,2.08-5.58,3-7.51,3.39,0,.17,0,.33.08.5a1,1,0,0,0,0,.16c2-.36,6.27-1.36,8-3.67A3.54,3.54,0,0,0,63.2,76.63Z"/><path class="cls-56" d="M64.86,79.83l-5.58,2.4s-.16-.39-.37-1c-.6-1.7-1.59-5.1-.31-6.15,3-2.51,5.1,1.59,5.89,3.66C64.74,79.39,64.86,79.83,64.86,79.83Z"/><path class="cls-53" d="M48.07,92.37s-.44.93.09,1.45a4.15,4.15,0,0,1,.8,1.46c.1.32.86,1.29.4,1.32S48,95.05,47.78,94.73s-.67,1.1-1,1.26-3.32-1.07-2.89-2,1.65-1.37,1.71-1.54.54-1.23.54-1.23Z"/><path class="cls-53" d="M46.94,95.81a18,18,0,0,1-1.85,2.76c-.31.07-.5,0-.37-.3s1.39-2.65,1.39-2.65-2.55,2.8-2.77,2.91-.52-.14-.46-.29,2.35-3.08,2.35-3.08a34.15,34.15,0,0,1-2.62,2.65c-.2,0-.52-.22-.36-.43l2.19-2.77s-1.92,1.78-2.16,1.71-.49-.21,0-.65,1.56-1.62,1.56-1.62Z"/><path class="cls-58" d="M65.56,108.86c-.37-.27-1-.8-1.42-1.09a43.24,43.24,0,0,0,2-6.31A17.62,17.62,0,0,1,65.56,108.86Z"/></g></g></svg>