<svg xmlns="http://www.w3.org/2000/svg" xmlns:xlink="http://www.w3.org/1999/xlink" viewBox="0 0 199.92 181.82"><defs><style>.cls-1,.cls-10,.cls-14{fill:none;}.cls-2,.cls-22{fill:#fff;}.cls-3{fill:#eef4fc;}.cls-4{fill:#cfca9d;}.cls-5{fill:#f2eff8;}.cls-40,.cls-6{fill:#6c2910;}.cls-7{fill:#ecb2ad;}.cls-8{fill:#4b3c32;}.cls-9{fill:#c88a5e;}.cls-10{stroke:#aa3c3a;stroke-width:2px;}.cls-10,.cls-14{stroke-miterlimit:10;}.cls-11{fill:#eac47b;}.cls-12{fill:#ecb1ac;}.cls-13{fill:#e37972;}.cls-14{stroke:#d15f58;}.cls-15{fill:#923850;}.cls-16{fill:#be8a64;}.cls-17{fill:#1c3153;}.cls-18{fill:#be556c;}.cls-19{fill:#b2b095;}.cls-20,.cls-21{fill:#fdce75;}.cls-21,.cls-22,.cls-23,.cls-26,.cls-27,.cls-28,.cls-40{fill-rule:evenodd;}.cls-23{fill:#dbd59e;}.cls-24{fill:#ebae4d;}.cls-25{clip-path:url(#clip-path);}.cls-26{fill:#dc9936;}.cls-27{fill:#b26f18;}.cls-28{fill:#d15f58;}.cls-29{fill:#f2f3fb;}.cls-30{clip-path:url(#clip-path-2);}.cls-31{fill:#ceb1a0;}.cls-32{fill:#395173;}.cls-33{fill:#343447;}.cls-34{fill:#cd8981;}.cls-35{fill:#322a53;}.cls-36{fill:#fbfbfb;}.cls-37{fill:#de9d91;}.cls-38{fill:#282440;}.cls-39{fill:#46455a;}</style><clipPath id="clip-path"><rect class="cls-1" x="146.35" y="46.36" width="18.51" height="11.97"/></clipPath><clipPath id="clip-path-2"><circle class="cls-1" cx="67.79" cy="25.1" r="18.23" transform="translate(-4.46 27.6) rotate(-22.3)"/></clipPath></defs><g id="Capa_2" data-name="Capa 2"><g id="Capa_1-2" data-name="Capa 1"><path class="cls-2" d="M192.25,121.83a28.31,28.31,0,0,0-11.94-33.29A28.3,28.3,0,0,0,143.9,46.41,45.13,45.13,0,1,0,54.35,53a40.14,40.14,0,1,0,8,78.27,28.3,28.3,0,0,0,45.34,14.29,28.3,28.3,0,1,0,52.23-5.19A28.3,28.3,0,0,0,192.25,121.83Z"/><circle class="cls-2" cx="153.79" cy="31.3" r="8.04" transform="translate(-0.52 2.67) rotate(-0.99)"/><circle class="cls-2" cx="33.15" cy="36.67" r="10.25"/><path class="cls-2" d="M28.55,140.53A8.33,8.33,0,1,1,23.37,130,8.32,8.32,0,0,1,28.55,140.53Z"/><circle class="cls-3" cx="57.45" cy="141.03" r="5.61" transform="translate(-53.46 36.68) rotate(-24.58)"/><circle class="cls-2" cx="3.96" cy="142.68" r="3.95" transform="translate(-129.27 91.46) rotate(-67.38)"/><circle class="cls-2" cx="168.89" cy="26.41" r="5.24"/><circle class="cls-2" cx="194.67" cy="90.6" r="5.24"/><path class="cls-2" d="M160.69,16.92a3.31,3.31,0,1,1-2.06-4.21A3.32,3.32,0,0,1,160.69,16.92Z"/><path class="cls-4" d="M132.13,90.06c1.45-3.4,3.09-6.82,5.73-9.41s6.47-4.23,10.07-3.37A11.19,11.19,0,0,1,155.56,85c.89,3.52-.37,7.12-1.85,10.43a47.64,47.64,0,0,1-6.31,9.64c-7,9-12.75,15.23-21.83,22.06-9.33,7-16.31,3.41-11.23-.07C125.38,117.21,126.56,103.21,132.13,90.06Z"/><path class="cls-5" d="M115.31,132.06c5.48-4.33,10-9.92,14.28-15.42a152.29,152.29,0,0,0,14.35-22.13,74.1,74.1,0,0,0,5-11.6.27.27,0,0,0-.51-.16c-2.48,7.65-6.54,14.79-10.85,21.54a153.08,153.08,0,0,1-15,19.94,62.61,62.61,0,0,1-7.67,7.43c-.27.22.09.61.36.4Z"/><path class="cls-5" d="M140.91,82c.79,4,1.42,8,3.14,11.64a.27.27,0,0,0,.29.14c3.13-.65,6.33-.65,9.4-1.63.32-.1.21-.62-.12-.52a30.47,30.47,0,0,1-4.83,1,24.06,24.06,0,0,1-4,.53c-.47,0-.16.12-.43-.18a5.57,5.57,0,0,1-.52-1.26,29.07,29.07,0,0,1-1.05-3.44c-.53-2.11-.9-4.27-1.33-6.41a.27.27,0,0,0-.52.12Z"/><path class="cls-5" d="M134,91.28c2.05,3,3.34,6.49,5,9.71.11.23.25.7.49.84.55.35,2.15-.25,2.75-.37A30.51,30.51,0,0,0,150,98.78a.26.26,0,0,0-.24-.47,29.77,29.77,0,0,1-7.33,2.54c-.62.13-2.45.73-2.83.4a5,5,0,0,1-.7-1.42A65.09,65.09,0,0,0,134.42,91c-.19-.28-.66,0-.47.24Z"/><path class="cls-6" d="M95.38,133.83c-3.82-1.75-7.5-2.9-11.31-4.66-5.08-2.33-36.51-15.12-37.6-40-.19-4.42,1.57-9.95,5.67-11.6,12.12-4.89,14.22,11,15.34,14.32C70.05,99.49,75.11,106.1,81,111.6s12.63,10,19.31,14.51c1.46,1,3.07,2.23,3.13,4a5.56,5.56,0,0,1-.37,1.88C102,135.5,98,135.05,95.38,133.83Z"/><path class="cls-5" d="M53.15,81.52A31.24,31.24,0,0,0,56.87,95a70.37,70.37,0,0,0,6.41,10A79.36,79.36,0,0,0,83.5,123.38a94.24,94.24,0,0,0,15.75,8.05.33.33,0,0,0,.25-.6c-17-6.81-32.09-18.47-41.18-34.53a42,42,0,0,1-2.9-5.86,31.34,31.34,0,0,1-1.63-9c0-.42-.66-.33-.64.08Z"/><path class="cls-5" d="M48.24,88.42a39,39,0,0,0,7.92,4.87A.32.32,0,0,0,56.6,93,24.86,24.86,0,0,1,60,83.88c.22-.34-.29-.74-.52-.39A25.69,25.69,0,0,0,56,93l.44-.25a38,38,0,0,1-7.78-4.8.33.33,0,0,0-.39.52Z"/><path class="cls-5" d="M51.31,99.43c2.11.69,4.2,1.45,6.3,2.15,1,.34,2,.67,3,1a2.83,2.83,0,0,0,1.33.26.32.32,0,0,0,.27-.27,85.33,85.33,0,0,1,1.52-10.2c.1-.4-.54-.48-.64-.08-.51,2.24-.83,4.52-1.12,6.8-.11.88-.22,1.76-.31,2.64,0,.21,0,.42-.07.63,0,.05.34,0,0-.18a12.38,12.38,0,0,0-1.94-.56c-.95-.3-1.9-.62-2.85-1-1.75-.59-3.49-1.22-5.24-1.8-.4-.13-.65.47-.25.6Z"/><path class="cls-5" d="M57.17,109.17a69.08,69.08,0,0,0,11.47,2.36.32.32,0,0,0,.36-.27,50,50,0,0,0,.12-9.86c0-.42-.67-.33-.64.08a49,49,0,0,1-.12,9.69l.36-.28a67,67,0,0,1-11.3-2.32c-.39-.11-.65.49-.25.6Z"/><path class="cls-4" d="M65.29,137.11c-4.67-.37-14.64-1.51-12.91-5a6,6,0,0,1,3.72-2c.47-1.13-1.28-1.79-2.5-1.85-3.27-.17-15.69-.36-13.61-4.49.64-1.5,4.83-2.33,4.58-2.45a40.93,40.93,0,0,1-10.46-6.56c-2.41-2-5.33-6.68-2.72-8.43,1.84-.59,3.78.5,5.28,1.71a38.54,38.54,0,0,0,6.43,4.65c-.49-1.34-3.35-8.37,1.07-7.89,2.75.3,6,7.2,8.88,9.23.38.28,1,.53,1.28.19a1.41,1.41,0,0,0,.23-.82c.26-1.73,2.82-2.13,4.22-1.08s2,2.83,2.67,4.43S63.31,120,65,120.23a5.93,5.93,0,0,1,.33-3A2.07,2.07,0,0,1,67.89,116a3,3,0,0,1,1.06,1c4.77,6.52,12.8,14.17,17.85,20.12C86.08,136.89,69,137.4,65.29,137.11Z"/><path class="cls-5" d="M34.76,111.67c15.86,11.2,34,18.6,51.89,25.78.38.15.69-.41.3-.57-17.92-7.18-36-14.57-51.88-25.78-.34-.23-.64.33-.31.57Z"/><path class="cls-5" d="M43.78,124.87A46.29,46.29,0,0,0,54,123.06a.32.32,0,0,0,.18-.48c-2.68-3.46-5.61-7.07-7.46-11.06-.18-.37-.72,0-.55.35,1.86,4,4.78,7.59,7.47,11l.18-.48a46,46,0,0,1-10.08,1.79c-.42,0-.4.67,0,.64Z"/><path class="cls-5" d="M56.43,133.25c2.16-.4,4.34-.72,6.48-1.25,1.86-.46,4-1,5.44-2.35a.33.33,0,0,0,0-.46c-3.89-3.8-6.68-8.64-10.18-12.79-.26-.32-.7.16-.44.47,3.5,4.15,6.29,9,10.18,12.8v-.46c-1.53,1.44-4,1.92-6,2.37s-3.78.7-5.66,1c-.41.08-.22.69.18.62Z"/><path class="cls-7" d="M53.61,78a4.05,4.05,0,0,0-1.55-2.94c-1.61-1.41-5.54-9.33-4.48-10.65s2.15.17,2.15.17S47.89,61.34,49,60.7s1.48.11,1.48.11-.69-1.53.26-2.1,2.12,1,2.12,1,.37-1,2-.18S59.3,67,59.3,67s-.46-3.38,1.46-4.14,1.83,7,1.67,8.4-1.21,4-1,5.36Z"/><path class="cls-6" d="M78.8,138.63s-1.89,13.87-1,14.49,53.53,1.13,54.35.11-1-14.6-1-14.6Z"/><path class="cls-8" d="M118.76,62.83c4.43-6.29,5.37-13.89,2.21-19.6-1.79-3.23-5.18-5.43-7-6.42a11.47,11.47,0,0,0-8.18-4.34c-6.7-.72-11.28,4.67-12.47,6-5.47,6-6.48,15.23-2.65,24.66C79,77.44,74.65,92.46,80.17,99.66c3.61,4.68,10.55,5,24.11,5.47,15.62.6,26.11,1,30.11-4.79C139.42,93.07,133.36,77.33,118.76,62.83Z"/><path class="cls-9" d="M131.13,138.63H78.8L74.65,97.4a28.7,28.7,0,0,1,28.7-28.7h2.09a28.7,28.7,0,0,1,28.71,28.7Z"/><path class="cls-9" d="M121.3,73.47c14.53,5.45,30.69,39.06,25.13,47.35-1.18,1.76-8.52,7-14.83,8C127.74,112.28,125.17,90,121.3,73.47Z"/><path class="cls-9" d="M90.92,71.52s-9.39,3.07-13.91,11c-3.5,6.19-9.08,15-9.08,15L63.82,76.38a1.05,1.05,0,0,0-1.26-.82L52.16,78a1,1,0,0,0-.79,1c.36,5.59,2.64,36.72,9.69,40.54,7.75,4.21,24.58-18.93,24.58-18.93Z"/><path class="cls-10" d="M67.93,97.57a8.63,8.63,0,0,1,1.88,6.09"/><path class="cls-10" d="M131.74,109.07s5.72-2,8.38,1.63"/><path class="cls-11" d="M90.92,71.52s7.75,11,8.6,67.11H114s-4.69-50.23,6.15-65.94C120.16,72.69,109,63.71,90.92,71.52Z"/><path class="cls-2" d="M96.94,69.41s-2.25,2.2-1,4.55a2.81,2.81,0,0,0,3.69,1.23s-1.39,3.63,2.9,4.49a3.38,3.38,0,0,0,4.4-3.27s2,3.24,4.71,1.35.14-5.28.14-5.28,2.54-.46,2.68-2.66C114.49,69.82,107.21,66.86,96.94,69.41Z"/><path class="cls-12" d="M110.09,60.05V71.19a5.22,5.22,0,1,1-10.43,0V60.05Z"/><path class="cls-13" d="M110.09,60.05v9.82a11,11,0,0,1-7.09-.38,10.22,10.22,0,0,1-3.34-2.26V60.05Z"/><path class="cls-12" d="M119.81,52.12C119,54.34,117,55.63,115.28,55s-2.34-2.93-1.51-5.15,2.86-3.5,4.53-2.88S120.64,49.9,119.81,52.12Z"/><path class="cls-12" d="M91,52.34c1,2.65,3.41,4.19,5.4,3.44s2.79-3.5,1.8-6.15-3.41-4.18-5.4-3.44S90,49.69,91,52.34Z"/><path class="cls-7" d="M115.2,49.4C116.88,54,111.8,63.71,105,63.71c-5.74,0-10.39-6.19-10.39-13.82,0-8.32,6.81-13.14,9-13.59,1.27-.26,2.37-.21,3,2.2C108.87,46.68,113.78,45.47,115.2,49.4Z"/><path class="cls-14" d="M91.8,48.73s.24,3.8,7.75,7.59"/><circle class="cls-15" cx="99.67" cy="56.22" r="1.06"/><path class="cls-16" d="M95.21,45s-1,6.6.17,11.33a5.89,5.89,0,0,1-5.81-6C89.4,45.11,95.21,45,95.21,45Z"/><path class="cls-16" d="M114.55,45s1,6.6-.16,11.33a5.88,5.88,0,0,0,5.8-6C120.36,45.11,114.55,45,114.55,45Z"/><path class="cls-16" d="M118,46s-2.06-13.63-13.08-13.63C94,32.38,91.8,46,91.8,46l2.26-.7s2.24-11.77,10.82-12.13C113.65,32.82,116,45.65,116,45.65Z"/><path class="cls-15" d="M120.19,50.38A6.27,6.27,0,0,1,119,54.07a8.92,8.92,0,0,1-.32-7.52A4.64,4.64,0,0,1,120.19,50.38Z"/><path class="cls-15" d="M89.57,50.38a6.27,6.27,0,0,0,1.17,3.69,8.93,8.93,0,0,0,.33-7.52A4.65,4.65,0,0,0,89.57,50.38Z"/><path class="cls-17" d="M100.28,46.53c-.38,0-.71.34-.89.84a3.57,3.57,0,0,1-1-.56,1.54,1.54,0,0,0,.88,1.08,2.81,2.81,0,0,0,0,.29c0,.92.45,1.66,1,1.66s1-.74,1-1.66S100.84,46.53,100.28,46.53Z"/><path class="cls-17" d="M101.6,45.79s-2.17-1.87-3.42.15a1.79,1.79,0,0,1,1.67-1.44C101.34,44.33,102.2,45.63,101.6,45.79Z"/><path class="cls-17" d="M109.15,46.53c.38,0,.71.34.89.84a3.57,3.57,0,0,0,1-.56,1.54,1.54,0,0,1-.89,1.08,1.42,1.42,0,0,1,0,.29c0,.92-.45,1.66-1,1.66s-1-.74-1-1.66S108.59,46.53,109.15,46.53Z"/><path class="cls-18" d="M101.26,56.28A3.43,3.43,0,0,0,104.67,59a4,4,0,0,0,3.82-2.69A15.88,15.88,0,0,1,101.26,56.28Z"/><path class="cls-13" d="M104.35,50.79s-1.24,2.62-.53,2.79,1.62.07,1.45-.14-1.29.05-1.23-.69S104.35,50.79,104.35,50.79Z"/><path class="cls-17" d="M107.83,45.79s2.17-1.87,3.42.15a1.79,1.79,0,0,0-1.67-1.44C108.09,44.33,107.23,45.63,107.83,45.79Z"/><path class="cls-13" d="M49.73,64.59,52,68.93s0-.1.19-.17-3.48-6.86-3.48-6.86A12.69,12.69,0,0,0,49.73,64.59Z"/><path class="cls-13" d="M50.48,60.81s3.43,6.3,3.51,6.89a.56.56,0,0,1,.35-.2c.2,0-3.88-6.75-4.1-7.9A4.05,4.05,0,0,0,50.48,60.81Z"/><path class="cls-13" d="M52.86,59.7s3,5.75,3.38,6.72l.23-.12-3.42-6.87Z"/><path class="cls-19" d="M134.65,126.54A4.74,4.74,0,0,1,130,131H78.06a4.73,4.73,0,0,1-4.67-4.41l-1.8-32.28a4.13,4.13,0,0,1,4.17-4.41h56.52a4.13,4.13,0,0,1,4.17,4.41Z"/><path class="cls-8" d="M108.19,108.56a4.18,4.18,0,1,1-4.17-4A4.1,4.1,0,0,1,108.19,108.56Z"/><rect class="cls-9" x="42.72" y="131.83" width="118.74" height="15.92"/><path class="cls-20" d="M181.78,133.92H19.68a2.09,2.09,0,0,1-2.09-2.09h0a2.09,2.09,0,0,1,2.09-2.09h162.1a2.09,2.09,0,0,1,2.09,2.09h0A2.09,2.09,0,0,1,181.78,133.92Z"/><path class="cls-8" d="M127.69,124.9H114.92a.5.5,0,0,1-.5-.5.5.5,0,0,1,.5-.5h12.77a.5.5,0,0,1,.5.5A.5.5,0,0,1,127.69,124.9Z"/><path class="cls-8" d="M93,124.9H80.27a.5.5,0,0,1-.5-.5.5.5,0,0,1,.5-.5H93a.5.5,0,0,1,.5.5A.5.5,0,0,1,93,124.9Z"/><path class="cls-21" d="M19.91,61.23a3.72,3.72,0,0,1,3.73-3.72H39.72a3.72,3.72,0,0,1,3.73,3.72V72.11a3.73,3.73,0,0,1-3.73,3.73h-1.3l1,4-6.42-4H23.64a3.73,3.73,0,0,1-3.73-3.73Z"/><path class="cls-22" d="M35.83,65.24a2.56,2.56,0,1,1-2.56-2.56A2.56,2.56,0,0,1,35.83,65.24Zm1.71,0A4.27,4.27,0,1,1,33.27,61,4.28,4.28,0,0,1,37.54,65.24Z"/><path class="cls-22" d="M29.71,67.42a1,1,0,0,1,1.34,0,1,1,0,0,1,0,1.35L27.8,72a1,1,0,0,1-1.35-1.35Z"/><path class="cls-19" d="M45.16,72.6h-1V60a3.3,3.3,0,0,0-3.3-3.29H22.5v-1H40.86A4.3,4.3,0,0,1,45.16,60Z"/><path class="cls-19" d="M28.1,77.61H22.35a4.29,4.29,0,0,1-4.29-4.29V60.71h1V73.32a3.29,3.29,0,0,0,3.29,3.29H28.1Z"/><path class="cls-23" d="M171.92,51.31c0-8.86-7.52-16.06-16.79-16.06s-16.78,7.2-16.78,16.06a15.79,15.79,0,0,0,6.08,12.37l-.41,7L150,66.6a17.67,17.67,0,0,0,5.16.77C164.4,67.37,171.92,60.18,171.92,51.31Z"/><rect class="cls-24" x="146.35" y="46.36" width="18.51" height="11.97"/><g class="cls-25"><polygon class="cls-26" points="155.61 52.83 145.88 58.7 165.35 58.7 155.61 52.83"/><polygon class="cls-27" points="155.61 53.73 165.35 46.01 145.88 46.01 155.61 53.73"/></g><path class="cls-28" d="M164.24,43.28A2.67,2.67,0,1,1,161.58,46,2.67,2.67,0,0,1,164.24,43.28Z"/><path class="cls-29" d="M165.14,46.06v.35h-1.77l0-.27,1-1.65h.36l-.39.66-.56.91Zm-.29-1.57V47h-.45V44.49Z"/><path class="cls-19" d="M155.13,69.88a20.2,20.2,0,0,1-3.89-.38l.26-1.3a19.17,19.17,0,0,0,3.63.35c9.93,0,18-7.73,18-17.22a16.74,16.74,0,0,0-4.16-11l1-.87a18.12,18.12,0,0,1,4.49,11.88C174.48,61.56,165.8,69.88,155.13,69.88Z"/><path class="cls-19" d="M164.77,36.78a18.54,18.54,0,0,0-9.64-2.67V32.77a19.92,19.92,0,0,1,10.33,2.87Z"/><path class="cls-19" d="M140.93,63.92a18.09,18.09,0,0,1-5.14-12.59,18.46,18.46,0,0,1,10.3-16.41l.6,1.19a17.12,17.12,0,0,0-9.57,15.22A16.78,16.78,0,0,0,141.89,63Z"/><path class="cls-9" d="M67.79,6.88A18.22,18.22,0,0,1,83.08,35l3.59,6.27-6.79-2.55A18.23,18.23,0,1,1,67.79,6.88Z"/><path class="cls-19" d="M86.2,33.67l-1.09-.5a18.85,18.85,0,0,0,1.78-8.07A19.12,19.12,0,0,0,67.79,6V4.8A20.31,20.31,0,0,1,86.2,33.67Z"/><path class="cls-19" d="M56.06,10l-.73-.94A20,20,0,0,1,61.5,5.8l.37,1.13A19.11,19.11,0,0,0,56.06,10Z"/><path class="cls-19" d="M67.79,45.4A20.3,20.3,0,0,1,52,12.37l.93.75A19.1,19.1,0,0,0,78.52,40.91l.68,1A20.23,20.23,0,0,1,67.79,45.4Z"/><g class="cls-30"><path class="cls-12" d="M81.94,34.63a2.05,2.05,0,0,0,1-1.79,6.62,6.62,0,0,0-1.2-1.76c-.92-1.25-2.38-1.41-3.49-2.49a5,5,0,0,0-1.33-1,1.8,1.8,0,0,0-1.6,0,1.84,1.84,0,0,0-.71,2C75,31.63,78.64,35.29,81.94,34.63Z"/><path class="cls-31" d="M77.68,23.62a21.42,21.42,0,0,0,4.47,3.26c1.15.67-.65,2.59-2.29,2.55-.67,0-1.17,1.4-1.62,1.91s-.33,2.67-.86,2.44-.66-.59-1-1c-.84-1,0-2.3-.86-3.26a7.81,7.81,0,0,1-1.33-1.86c-.53-1.15-1-4.26,0-5.28C75.33,21.16,76.81,22.88,77.68,23.62Z"/><path class="cls-31" d="M62.58,24.64a1.34,1.34,0,0,0-.17.58c0,.43.36.76.66,1.08,1.8,1.94.8,4.72.44,7.35s-2,5.41-.33,7.48c.3.38-.84,3-.77,3.17s-.1,1.79,2,1.18c4.14-1.22,9.93.45,14.28-.95,1.59-1.08.49-2.82-.34-4.86a14.48,14.48,0,0,1-1.2-5.4,13.85,13.85,0,0,1,.48-2.44,3.52,3.52,0,0,0-.45-3c-.23-.31-.86-1.43-1.09-1.75-.9-1.26-.67-5-.88-5.12a10.92,10.92,0,0,0-2.37-.32,29.89,29.89,0,0,0-5.73.68C65.1,22.68,63.55,22.64,62.58,24.64Z"/><path class="cls-32" d="M65.7,33.62a3.07,3.07,0,0,0,2.31.77,6,6,0,0,0,2.58-1.3c.09-.07,0-.23-.1-.16a6.75,6.75,0,0,1-2.21,1.22,2.88,2.88,0,0,1-2.49-.69c-.1-.07-.19.09-.09.16Z"/><path class="cls-32" d="M72.26,33.09a4.76,4.76,0,0,0,2.67.63,3,3,0,0,0,1.88-1.21c.06-.1-.1-.19-.16-.09a2.84,2.84,0,0,1-2.05,1.16,5.77,5.77,0,0,1-2.29-.67c-.12,0-.17.14,0,.18Z"/><path class="cls-32" d="M75.4,26.37a35.51,35.51,0,0,0,1.5,4.07c0,.11.22.06.18-.05a35.51,35.51,0,0,1-1.5-4.07c0-.12-.2-.07-.18.05Z"/><path class="cls-32" d="M67,36.63a9.09,9.09,0,0,0,7,3.07.1.1,0,0,0,0-.19,8.85,8.85,0,0,1-6.88-3c-.08-.09-.22,0-.14.13Z"/><path class="cls-32" d="M68.22,41.43a5.2,5.2,0,0,1,2.77,0c1,.11,1.88.28,2.81.48a.09.09,0,0,0,0-.18c-1-.22-2-.39-3-.51a5,5,0,0,0-2.69.1c-.11,0,0,.21.1.16Z"/><path class="cls-32" d="M67.49,26.68a7.78,7.78,0,0,0,5.17,1.61.1.1,0,0,0,0-.19,7.64,7.64,0,0,1-5.08-1.58c-.09-.08-.19.09-.09.16Z"/><path class="cls-33" d="M66.89,18.33a.48.48,0,0,0-.16-.12l-1.26-.69a28.71,28.71,0,0,1-.65,3.87l1-1.83c-.14,1.09,0,1.43-.18,2,.41-.92.79-2,1.21-2.92A.4.4,0,0,0,66.89,18.33Z"/><path class="cls-12" d="M66.2,22c-.33.23-1,.27-1.84.72l2.88,1.55a5.73,5.73,0,0,0,1.75.7,2.93,2.93,0,0,0,1.78-.18,3.25,3.25,0,0,0,2-3.09,2.54,2.54,0,0,1-1.92-.38c-.4-.34-.93-3.2-1-4.11a14.33,14.33,0,0,1-4.11-.41C66.09,19.21,67.18,21.25,66.2,22Z"/><path class="cls-34" d="M67.05,23.56c.66.07,1.65,0,2.17.47.09.08.22-.05.13-.13-.57-.53-1.58-.45-2.3-.53-.12,0-.12.18,0,.19Z"/><path class="cls-34" d="M70,23.84c.17.16.35-.05.48-.16a2.6,2.6,0,0,1,1.21-.54c.12,0,.07-.2,0-.18a2.93,2.93,0,0,0-.82.27c-.07,0-.69.48-.69.47a.1.1,0,0,0-.13.14Z"/><path class="cls-13" d="M70.87,21.27a5.9,5.9,0,0,1-4.28-.42,15.66,15.66,0,0,0-.45-2.23l4.34,1.44A2.47,2.47,0,0,0,70.87,21.27Z"/><path class="cls-12" d="M58.46,38.81a3.8,3.8,0,0,0,2.84,2.65c.71.08,2.08-1.66,2.27-2.52A40.2,40.2,0,0,0,64,34.55a2.52,2.52,0,0,0-.2-1.54,2.14,2.14,0,0,0-1.52-.85,4,4,0,0,0-2.91.57C57.47,34,57.93,36.88,58.46,38.81Z"/><path class="cls-31" d="M58.82,29.25a7,7,0,0,1-.22,2.25,9.83,9.83,0,0,1-.75,1.29,6.28,6.28,0,0,0-.68,4,7.53,7.53,0,0,0,2.56.4l4.91-1.08A.69.69,0,0,0,65,36a.6.6,0,0,0,.1-.49c-.09-.83-.46-1.61-.53-2.43a11.88,11.88,0,0,1,.69-3.49,7.89,7.89,0,0,0-.08-3.71C63.72,20.46,59,26.21,58.82,29.25Z"/><path class="cls-12" d="M77.88,29.86a49.23,49.23,0,0,1-1.22-5.55A17.06,17.06,0,0,0,76,21.6c-.63-1.49-1.92-2.26-2-3.87l1.34.91a4,4,0,0,0-1.41-3.06c-.21-.18-1-.62-1-.89a.57.57,0,0,1,.49-.76c.4-.09,1.1.66,1.49.78a6.19,6.19,0,0,1,1.49.71c1.24.85,1.5,1.94,1.75,3.42.82,4.84,4.65,8,5.43,12.83.26,1.64-1.27,3.95-3.26,2.71C78.62,33.38,78.27,31.56,77.88,29.86Z"/><rect class="cls-35" x="72.17" y="13.63" width="3.73" height="6.67" rx="0.35" transform="translate(29.68 78.62) rotate(-67.17)"/><rect class="cls-3" x="72.4" y="14.23" width="3.27" height="5.47" transform="translate(29.68 78.62) rotate(-67.17)"/><path class="cls-36" d="M71.2,16.17l.28-.67a.06.06,0,0,0-.1-.05l-.28.68c0,.06.07.1.1,0Z"/><path class="cls-36" d="M77,18.2a.17.17,0,0,0-.31-.12.17.17,0,0,0,.31.12Z"/><path class="cls-36" d="M74.05,18l.89-.36c.07,0,0-.13,0-.1l-.89.36c-.06,0,0,.13,0,.1Z"/><path class="cls-36" d="M72.85,17.3l2.26-.92a.05.05,0,1,0,0-.1l-2.27.92a.06.06,0,0,0,0,.1Z"/><path class="cls-36" d="M72.79,16.25l.64-.26c.06,0,0-.13-.05-.1l-.63.26a.05.05,0,1,0,0,.1Z"/><path class="cls-12" d="M73.44,19.27c-.25-.09-.7-.11-1-.2s0-.57.65-.56a3.93,3.93,0,0,1,.82.2c.44.1,1.7.73,1.83,1.16s-.93.61-1.31.36C73.77,19.77,73.78,19.38,73.44,19.27Z"/><path class="cls-37" d="M78.21,31.44a2,2,0,0,0,.7,1.33c.09.07.22-.06.13-.14a1.79,1.79,0,0,1-.64-1.19c0-.12-.2-.12-.19,0Z"/><path class="cls-12" d="M59.88,33.08a23.89,23.89,0,0,0-1,4.38,3.93,3.93,0,0,0,1.85,3.81,1.82,1.82,0,0,0,.91.21c.92,0,1.57-.92,1.9-1.78.93-2.45.32-5.18-.11-7.76-.31-1.88-.45-5-.09-5.3.62-.54.65-1.7,1.08-2.27a.51.51,0,0,1,.32-.24c.31-.06.62.39.88.2.1-1-1-1.59-1.92-1.94a2,2,0,0,0-1.05-.19c-.81.16-1.12,1.21-1.87,1.56.18-.08-.83-1.58-1.75-1,.85.84.63,1.41.93,2.14a5.5,5.5,0,0,1,.34,2A21.73,21.73,0,0,1,59.88,33.08Z"/><path class="cls-37" d="M58.86,37.73a2.59,2.59,0,0,0,.3.86.09.09,0,0,0,.16-.09,2.66,2.66,0,0,1-.28-.82c0-.12-.2-.07-.18,0Z"/><path class="cls-37" d="M62.66,23.24a.7.7,0,0,1,.77-.43c.12,0,.17-.16,0-.18a.89.89,0,0,0-1,.56c0,.11.13.16.18,0Z"/><path class="cls-37" d="M63.38,23.62a1,1,0,0,1,.65-.46c.12,0,.07-.2-.05-.18a1.15,1.15,0,0,0-.76.55.09.09,0,0,0,.16.09Z"/><path class="cls-37" d="M64,24a1.09,1.09,0,0,1,.57-.25c.12,0,.07-.2,0-.18a1.3,1.3,0,0,0-.65.3c-.1.08,0,.21.13.13Z"/><path class="cls-38" d="M62.69,12a1.41,1.41,0,0,1-.67-.16,1.12,1.12,0,0,1-.47-.89,2.75,2.75,0,0,1,.85-2.08c.54-.56,1.16-1.26,1.93-1.26,1.49,0,1.42,1.28,1.42,1.76a1.85,1.85,0,0,0,.41,1.33C67.49,12.07,63.14,12.06,62.69,12Z"/><path class="cls-12" d="M64.84,16.4c.79,1.39.5,1.63,1.66,2.73.89.86,3.49,2.09,4.63,1.62a3.23,3.23,0,0,0,1.54-2.26A8.93,8.93,0,0,0,72,12c-.18-.42-.6-1.39-1-1.61A4.05,4.05,0,0,0,69.83,10a5.92,5.92,0,0,0-4.17.41C63.62,11.61,63.82,14.61,64.84,16.4Z"/><path class="cls-38" d="M67.89,13.47a4.92,4.92,0,0,1,.71,1.41c1-.4,1.75-.51,2.42-.82a4.26,4.26,0,0,0-.53-1.34c.6.37.57,1.3,1,1.32A8.77,8.77,0,0,1,73,13.88a4.79,4.79,0,0,0-.68-3c-.52-.7-2.11-2.07-5.93-1.06a4.52,4.52,0,0,0-2.06,1.61,4,4,0,0,0-.75,3.69A8.42,8.42,0,0,0,65.22,18c.09.09.73-.36.78-.52.15-.44.09-1.43.19-1.87A18.63,18.63,0,0,0,68,14.9C68.19,14.75,68.05,14.07,67.89,13.47Z"/><path class="cls-12" d="M66.45,17.45l-.12-.4c-.18-.46-.44-1.1-.93-1.13-1.48-.08-.86,1.65-.5,2.17a1.5,1.5,0,0,0,.58.54.76.76,0,0,0,.76-.08A1.17,1.17,0,0,0,66.45,17.45Z"/><path class="cls-13" d="M70.44,15.48a6.8,6.8,0,0,0,.38,1.1,6.55,6.55,0,0,0,.32.58l.18.27a.56.56,0,0,1-.3.32.09.09,0,0,0,.1.16c.25-.14.49-.28.36-.57s-.36-.56-.49-.85a5.79,5.79,0,0,1-.37-1.06.09.09,0,0,0-.18.05Z"/><path class="cls-13" d="M70.78,18.22l.22.31,0-.13a1.51,1.51,0,0,1-1.06.16.09.09,0,0,0-.09.15,1.79,1.79,0,0,0,.84.6c.12,0,.17-.14,0-.18a1.63,1.63,0,0,1-.75-.55l-.1.16a1.71,1.71,0,0,0,1.21-.18.08.08,0,0,0,0-.12l-.22-.31c-.06-.1-.23,0-.16.09Z"/><path class="cls-38" d="M69,16.19c0,.2-.1.36-.22.36s-.22-.16-.22-.36.1-.36.22-.36S69,16,69,16.19Z"/><path class="cls-38" d="M71.93,15.45c0,.2-.1.36-.22.36s-.22-.16-.22-.36.1-.36.22-.36S71.93,15.25,71.93,15.45Z"/><path class="cls-13" d="M65.62,16.42c-.44-.22-.82.22-.78.65s.49,1.28,1.09,1.24c.12,0,.12-.2,0-.19-.39,0-.59-.3-.75-.6A1.19,1.19,0,0,1,65,17c0-.23.17-.57.49-.41.1.05.2-.11.09-.17Z"/><path class="cls-38" d="M67.63,15.72l1.22-.42c.11,0,.06-.22,0-.18l-1.22.42c-.11,0-.06.22,0,.18Z"/><path class="cls-38" d="M70.91,14.79a2.31,2.31,0,0,0,.86-.39c.1-.06,0-.23-.09-.16a2.26,2.26,0,0,1-.82.37c-.12,0-.07.2,0,.18Z"/><path class="cls-39" d="M64.65,14.91a3.38,3.38,0,0,1-.17-2.15.09.09,0,0,0-.18,0A3.54,3.54,0,0,0,64.47,15c0,.11.22.06.18-.05Z"/><path class="cls-39" d="M65.13,12.55a3.81,3.81,0,0,0,.38,2,.1.1,0,0,0,.17-.09,3.57,3.57,0,0,1-.36-1.87c0-.12-.18-.12-.19,0Z"/><path class="cls-39" d="M66.11,12.13a6.84,6.84,0,0,0,.51,2.36c0,.11.23.06.18-.05a7,7,0,0,1-.51-2.31c0-.12-.19-.13-.18,0Z"/><path class="cls-39" d="M67.52,12a2.71,2.71,0,0,1,1.26,1.73c0,.12.2.07.18,0a2.89,2.89,0,0,0-1.34-1.84.09.09,0,0,0-.1.16Z"/><path class="cls-39" d="M68.41,11.41A4,4,0,0,1,69.68,13c0,.11.21,0,.16-.09a4.11,4.11,0,0,0-1.34-1.67c-.1-.07-.19.09-.09.16Z"/><path class="cls-39" d="M69.51,10.85a3.35,3.35,0,0,1,1.9,2c0,.11.23.06.18-.05a3.56,3.56,0,0,0-2-2.08c-.12-.05-.16.14,0,.18Z"/><path class="cls-39" d="M70.51,10.62a3.29,3.29,0,0,1,1.56,1.76c0,.11.22.06.18-.05a3.54,3.54,0,0,0-1.65-1.88c-.1,0-.2.11-.09.17Z"/><path class="cls-39" d="M62.48,10.14a1,1,0,0,0,.92,1.24c.12,0,.12-.17,0-.18a.86.86,0,0,1-.74-1c0-.12-.16-.17-.18,0Z"/><path class="cls-39" d="M63.54,9.93a.76.76,0,0,0,.75.73.09.09,0,0,0,0-.18.58.58,0,0,1-.56-.55.1.1,0,0,0-.19,0Z"/><path class="cls-39" d="M64.41,9.53l.32.37c.08.09.22,0,.14-.13l-.33-.37c-.08-.09-.21,0-.13.13Z"/><path class="cls-39" d="M64.87,8.57l.19.28c.07.09.23,0,.16-.1L65,8.47c-.07-.1-.23,0-.16.1Z"/></g><path class="cls-40" d="M133.86,12.66a3,3,0,0,0-3-3H111.24a3,3,0,0,0-3,3v8.75a3,3,0,0,0,3,3l-2.08,3.09,6.78-3.09h14.93a3,3,0,0,0,3-3Z"/><path class="cls-22" d="M126.83,15.33a1.54,1.54,0,1,0,1.54,1.54A1.54,1.54,0,0,0,126.83,15.33Z"/><path class="cls-22" d="M120.93,15.33a1.54,1.54,0,1,0,1.54,1.54A1.54,1.54,0,0,0,120.93,15.33Z"/><path class="cls-22" d="M115,15.33a1.54,1.54,0,1,0,1.54,1.54A1.54,1.54,0,0,0,115,15.33Z"/><path class="cls-19" d="M107.09,24.5a4.59,4.59,0,0,1-.79-2.59V12.36a4.64,4.64,0,0,1,4.63-4.63H116v1.2h-5.06a3.44,3.44,0,0,0-3.44,3.43v9.55a3.37,3.37,0,0,0,.59,1.92Z"/><path class="cls-19" d="M131.18,26.54V25.35a3.45,3.45,0,0,0,3.44-3.44V12.36a3.44,3.44,0,0,0-3.44-3.43h-8.05V7.73h8.05a4.64,4.64,0,0,1,4.63,4.63v9.55A4.64,4.64,0,0,1,131.18,26.54Z"/><rect class="cls-19" x="115.99" y="25.35" width="8.11" height="1.19"/></g></g></svg>