<svg xmlns="http://www.w3.org/2000/svg" xmlns:xlink="http://www.w3.org/1999/xlink" viewBox="0 0 237.27 247.49"><defs><style>.cls-1,.cls-13,.cls-15,.cls-19,.cls-22,.cls-23,.cls-24,.cls-4,.cls-6{fill:none;}.cls-2{fill:#fff;}.cls-3{fill:#f1eae7;}.cls-4{stroke:#231e49;}.cls-15,.cls-19,.cls-22,.cls-23,.cls-24,.cls-4{stroke-linecap:round;}.cls-13,.cls-15,.cls-19,.cls-22,.cls-23,.cls-24,.cls-4,.cls-6{stroke-miterlimit:10;}.cls-15,.cls-19,.cls-22,.cls-23,.cls-24,.cls-4,.cls-6{stroke-width:0.5px;}.cls-5{fill:#c88a5e;}.cls-23,.cls-6{stroke:#fff;}.cls-7{fill:#4b3c32;}.cls-8{fill:#967e6c;}.cls-9{fill:#fdce75;}.cls-10{fill:#6c2910;}.cls-11{fill:#ee7160;}.cls-12{clip-path:url(#clip-path);}.cls-13{stroke:#6c2910;}.cls-14{fill:#dbd59e;}.cls-15{stroke:#213b8c;}.cls-16{fill:#231e49;}.cls-17{opacity:0.35;}.cls-18{fill:#e5262b;}.cls-19{stroke:#d61024;}.cls-20{fill:#f9c0a2;}.cls-21{fill:#f3967d;}.cls-22{stroke:#f08687;}.cls-24{stroke:#025786;}</style><clipPath id="clip-path"><rect class="cls-1" x="99.95" y="90.9" width="15.12" height="9.67" rx="2.95"/></clipPath></defs><g id="Capa_2" data-name="Capa 2"><g id="Capa_1-2" data-name="Capa 1"><path class="cls-2" d="M139,202.84H55.29A52.88,52.88,0,0,1,5.26,166l-.48-1.52C-1.46,144.23-4.86,120.68,15.9,89.2s6.52-61,33.21-71.77S97.45,20.08,127.85,7,219-5.26,222.75,47.73s-11.12,50.68-5.19,68.34S243.5,207.45,139,202.84Z"/><ellipse class="cls-3" cx="60.74" cy="232.44" rx="56.34" ry="15.05"/><line class="cls-4" x1="3.71" y1="202.81" x2="233.12" y2="202.81"/><path class="cls-5" d="M38.93,189.07H84.17a0,0,0,0,1,0,0v49.1a0,0,0,0,1,0,0H34.54a0,0,0,0,1,0,0V193.46A4.39,4.39,0,0,1,38.93,189.07Z" transform="matrix(-1, 0, 0, -1, 118.48, 427.3)"/><path class="cls-5" d="M34.57,189l49.6.05L68.55,176.65a6.09,6.09,0,0,0-3.82-1.34l-41.53,0a1.14,1.14,0,0,0-.81,1.95Z"/><path class="cls-5" d="M20.62,221.92l-.16-42.67c0-3.25,2.11-3.78,2.11-3.78l-.38.8c-.19.42.21.9.53,1.22L34.57,189l0,49.1L22.14,225.6A5.23,5.23,0,0,1,20.62,221.92Z"/><path class="cls-6" d="M48.37,189.06l-11.73,0a2.08,2.08,0,0,0-2.08,2.07V203.5"/><line class="cls-6" x1="34.54" y1="211.34" x2="34.51" y2="236.07"/><line class="cls-6" x1="27.24" y1="181.96" x2="34.5" y2="189.04"/><path class="cls-6" d="M22.5,175.47l-.38.8c-.19.42.21.9.53,1.22L26,180.72"/><rect class="cls-7" x="74.89" y="39.14" width="86.19" height="163.91" rx="16.95"/><rect class="cls-2" x="78.63" y="43.21" width="78.71" height="155.78" rx="9.94"/><path class="cls-8" d="M99.54,41.18h37.38a0,0,0,0,1,0,0v2a9.41,9.41,0,0,1-9.41,9.41H108.45A9.41,9.41,0,0,1,99,43.18v-1.5A.5.5,0,0,1,99.54,41.18Z"/><path class="cls-9" d="M98.2,33.83A18.75,18.75,0,1,1,79.35,15.2,18.74,18.74,0,0,1,98.2,33.83Z"/><path class="cls-10" d="M93.41,33.56A14.25,14.25,0,1,1,79.08,19.4,14.25,14.25,0,0,1,93.41,33.56Z"/><path class="cls-11" d="M93.81,34.16a14.06,14.06,0,1,1-14.14-14A14,14,0,0,1,93.81,34.16Z"/><path class="cls-5" d="M93.81,34.16a14.06,14.06,0,1,1-14.14-14A14,14,0,0,1,93.81,34.16Z"/><path class="cls-10" d="M80.31,33l0-3.6h0a7.24,7.24,0,0,1,1.92.49,6.1,6.1,0,0,1,.9.56l0-.12.55-1.29.13-.3-.65-.67-.3.14a6.83,6.83,0,0,0-2.61-.74l0-2L79.65,25v.5H78.8l0,2c-2.78.28-4.09,1.87-4.08,3.69,0,2.48,2.14,3.11,4.12,3.58l0,3.56A6.89,6.89,0,0,1,75.31,37l-.8,1.8a7.76,7.76,0,0,0,4.38,1.45v1.5h-.7l.7.47h1.46v-2c2.8-.3,4.12-1.88,4.11-3.7C84.45,34.1,82.29,33.48,80.31,33Zm-1.47-.37c-1-.3-1.8-.69-1.8-1.54s.52-1.43,1.79-1.63Zm1.45-3.23Zm0,8.91,0-3.16c1.07.3,1.86.7,1.86,1.58S81.64,38.12,80.34,38.33Z"/><path class="cls-2" d="M79.74,39.78v2H78.29v-2a7.77,7.77,0,0,1-4.37-1.46l.79-1.8a6.78,6.78,0,0,0,3.57,1.33l0-3.56c-2-.47-4.11-1.1-4.12-3.58,0-1.81,1.3-3.41,4.08-3.69V25h1.46v2a7.54,7.54,0,0,1,3.62,1.06l-.72,1.81a7.34,7.34,0,0,0-2.89-.95l0,3.6c2,.47,4.14,1.08,4.16,3.56C83.87,37.9,82.54,39.48,79.74,39.78Zm-1.5-7.62,0-3.17c-1.27.2-1.8.85-1.79,1.63S77.2,31.87,78.24,32.16Zm3.34,4.1c0-.87-.8-1.28-1.87-1.57l0,3.15C81,37.64,81.58,37,81.58,36.26Z"/><path class="cls-9" d="M130.25,16.45a11.88,11.88,0,1,1-11.94-11.8A11.87,11.87,0,0,1,130.25,16.45Z"/><circle class="cls-10" cx="118.19" cy="16.33" r="9.03" transform="translate(-1.11 18.08) rotate(-8.71)"/><path class="cls-11" d="M127.47,16.66a8.91,8.91,0,1,1-9-8.86A8.91,8.91,0,0,1,127.47,16.66Z"/><path class="cls-5" d="M127.47,16.66a8.91,8.91,0,1,1-9-8.86A8.91,8.91,0,0,1,127.47,16.66Z"/><path class="cls-10" d="M118.91,15.93V13.65h0a4.9,4.9,0,0,1,1.21.31,4.23,4.23,0,0,1,.57.36l0-.07.35-.83.08-.18-.41-.43-.19.09a4.24,4.24,0,0,0-1.66-.47V11.18l-.4-.31v.31H118v1.27c-1.76.18-2.59,1.19-2.58,2.34,0,1.57,1.35,2,2.6,2.27l0,2.25a4.32,4.32,0,0,1-2.27-.84l-.5,1.14a4.91,4.91,0,0,0,2.77.92v.95h-.44l.44.3H119V20.53c1.77-.19,2.61-1.19,2.61-2.34C121.54,16.62,120.17,16.23,118.91,15.93ZM118,15.7c-.66-.19-1.15-.43-1.15-1s.33-.91,1.14-1Zm.91-2Zm0,5.65v-2c.68.19,1.18.44,1.18,1S119.76,19.17,118.93,19.3Z"/><path class="cls-2" d="M118.56,20.22v1.26h-.92V20.24a5,5,0,0,1-2.77-.92l.5-1.15a4.38,4.38,0,0,0,2.26.85V16.76c-1.26-.3-2.6-.7-2.61-2.27,0-1.15.82-2.16,2.58-2.34V10.88h.92v1.25a5,5,0,0,1,2.29.68l-.45,1.14a4.92,4.92,0,0,0-1.83-.6v2.28c1.25.3,2.62.69,2.63,2.26C121.17,19,120.33,20,118.56,20.22Zm-1-4.83v-2c-.8.13-1.14.54-1.13,1S117,15.2,117.6,15.39Zm2.12,2.6c0-.55-.5-.81-1.18-1v2C119.37,18.86,119.72,18.47,119.72,18Z"/><rect class="cls-5" x="203.64" y="97.47" width="33.63" height="34.58" rx="4.06" transform="translate(440.92 229.52) rotate(180)"/><path class="cls-10" d="M203.64,97.47h33.63a0,0,0,0,1,0,0v5.9a4.06,4.06,0,0,1-4.06,4.06H207.7a4.06,4.06,0,0,1-4.06-4.06v-5.9A0,0,0,0,1,203.64,97.47Z" transform="translate(440.92 204.9) rotate(180)"/><rect class="cls-3" x="227.52" y="110.58" width="5.47" height="5.47" rx="0.79" transform="translate(460.52 226.64) rotate(180)"/><rect class="cls-2" x="221.11" y="110.58" width="5.47" height="5.47" rx="0.79" transform="translate(447.68 226.64) rotate(180)"/><path class="cls-8" d="M212.46,100.06a1.12,1.12,0,0,1-1.12-1.12V95a1.12,1.12,0,0,1,2.24,0v4A1.12,1.12,0,0,1,212.46,100.06Z"/><path class="cls-8" d="M218.13,100.06A1.12,1.12,0,0,1,217,98.94V95a1.12,1.12,0,0,1,2.24,0v4A1.12,1.12,0,0,1,218.13,100.06Z"/><path class="cls-8" d="M223.54,100.06a1.12,1.12,0,0,1-1.12-1.12V95a1.12,1.12,0,0,1,2.24,0v4A1.12,1.12,0,0,1,223.54,100.06Z"/><rect class="cls-3" x="214.64" y="110.58" width="5.47" height="5.47" rx="0.79" transform="translate(434.76 226.64) rotate(180)"/><rect class="cls-3" x="208.22" y="110.58" width="5.47" height="5.47" rx="0.79" transform="translate(421.92 226.64) rotate(-180)"/><rect class="cls-3" x="227.48" y="116.68" width="5.47" height="5.47" rx="0.79" transform="translate(460.43 238.83) rotate(180)"/><rect class="cls-2" x="221.06" y="116.68" width="5.47" height="5.47" rx="0.79" transform="translate(447.59 238.83) rotate(180)"/><rect class="cls-3" x="214.59" y="116.68" width="5.47" height="5.47" rx="0.79" transform="translate(434.66 238.83) rotate(180)"/><rect class="cls-3" x="208.18" y="116.68" width="5.47" height="5.47" rx="0.79" transform="translate(421.82 238.83) rotate(180)"/><rect class="cls-3" x="227.43" y="122.82" width="5.47" height="5.47" rx="0.79" transform="translate(460.34 251.12) rotate(180)"/><rect class="cls-2" x="221.01" y="122.82" width="5.47" height="5.47" rx="0.79" transform="translate(447.5 251.12) rotate(180)"/><rect class="cls-3" x="214.55" y="122.82" width="5.47" height="5.47" rx="0.79" transform="translate(434.57 251.12) rotate(180)"/><rect class="cls-3" x="208.13" y="122.82" width="5.47" height="5.47" rx="0.79" transform="translate(421.73 251.12) rotate(180)"/><path class="cls-8" d="M229,100.06a1.12,1.12,0,0,1-1.12-1.12V95a1.12,1.12,0,0,1,2.24,0v4A1.12,1.12,0,0,1,229,100.06Z"/><path class="cls-10" d="M181.35,73.07h-82a4.82,4.82,0,0,0-4.82,4.82v42.67a4.82,4.82,0,0,0,4.82,4.83h82a4.83,4.83,0,0,0,4.83-4.83V77.89A4.82,4.82,0,0,0,181.35,73.07Z"/><rect class="cls-9" x="92.41" y="71.39" width="91.64" height="52.32" rx="7.75"/><path class="cls-5" d="M184.05,76.22a4.82,4.82,0,0,0-4.82-4.83h-82a4.83,4.83,0,0,0-4.83,4.83V77c10,.46,29.49,3.75,43.06,21.16,15.61,20.05,36.6,18.09,48.58,13.19Z"/><rect class="cls-8" x="99.95" y="90.9" width="15.12" height="9.67" rx="2.95"/><rect class="cls-10" x="160.42" y="76.03" width="18.09" height="4.71" rx="1.22"/><path class="cls-8" d="M115.19,108.73H101a1.61,1.61,0,0,1-1.61-1.61h0a1.61,1.61,0,0,1,1.61-1.6h14.18a1.6,1.6,0,0,1,1.6,1.6h0A1.6,1.6,0,0,1,115.19,108.73Z"/><path class="cls-8" d="M135.27,108.73H121.09a1.61,1.61,0,0,1-1.61-1.61h0a1.61,1.61,0,0,1,1.61-1.6h14.18a1.6,1.6,0,0,1,1.6,1.6h0A1.61,1.61,0,0,1,135.27,108.73Z"/><path class="cls-8" d="M155.5,108.73H141.32a1.61,1.61,0,0,1-1.61-1.61h0a1.61,1.61,0,0,1,1.61-1.6H155.5a1.6,1.6,0,0,1,1.6,1.6h0A1.61,1.61,0,0,1,155.5,108.73Z"/><path class="cls-8" d="M175.58,108.73H161.39a1.61,1.61,0,0,1-1.6-1.61h0a1.6,1.6,0,0,1,1.6-1.6h14.19a1.6,1.6,0,0,1,1.6,1.6h0A1.61,1.61,0,0,1,175.58,108.73Z"/><path class="cls-10" d="M119.67,119.56H101.22a1,1,0,0,1-1-1h0a1,1,0,0,1,1-1h18.45a1,1,0,0,1,1,1h0A1,1,0,0,1,119.67,119.56Z"/><path class="cls-10" d="M175.53,119.56h-9.11a1,1,0,0,1-1-1h0a1,1,0,0,1,1-1h9.11a1,1,0,0,1,1,1h0A1,1,0,0,1,175.53,119.56Z"/><g class="cls-12"><path class="cls-13" d="M102.71,90.73a7.58,7.58,0,0,1-.18,10.09"/><line class="cls-13" x1="98.97" y1="95.64" x2="104.52" y2="95.64"/><path class="cls-13" d="M111.89,90.73a7.58,7.58,0,0,0,.18,10.09"/><line class="cls-13" x1="115.62" y1="95.64" x2="110.07" y2="95.64"/></g><path class="cls-2" d="M194.31,37.37c-4.11-4.31-4.41-5.81,2-12.13s5.4-15,5.4-15L189.41,10h-.71l-12.31.24s-1,8.71,5.41,15,6.11,7.82,2,12.13-9.72,8.51-9.52,16.42h29.55C204,45.88,198.42,41.67,194.31,37.37Z"/><path class="cls-10" d="M204.07,55.94H174a1.65,1.65,0,0,1-1.65-1.65h0A1.65,1.65,0,0,1,174,52.63h30a1.66,1.66,0,0,1,1.66,1.66h0A1.65,1.65,0,0,1,204.07,55.94Z"/><path class="cls-10" d="M204.07,11.57H174a1.65,1.65,0,0,1-1.65-1.65h0A1.65,1.65,0,0,1,174,8.26h30a1.66,1.66,0,0,1,1.66,1.66h0A1.65,1.65,0,0,1,204.07,11.57Z"/><path class="cls-5" d="M183.35,23H195a.44.44,0,0,1,.36.72l-5.3,6A.43.43,0,0,0,190,30V48a.45.45,0,0,0,.46.44h9.91a.45.45,0,0,1,.44.31l.66,2a.44.44,0,0,1-.44.57H177.14a.44.44,0,0,1-.44-.55l.55-2a.46.46,0,0,1,.45-.32l10.23,0a.45.45,0,0,0,.46-.44V30.05a.43.43,0,0,0-.11-.28L183,23.69A.44.44,0,0,1,183.35,23Z"/><g id="_Group_" data-name="&lt;Group&gt;"><path id="_Path_" data-name="&lt;Path&gt;" class="cls-14" d="M186.28,179.31s.11-13.69,8.57-14.67,11.39,1.53,12.55,2-1.9,1.09-4.48,3.61-2.56,5.68-8.38,6.71a11.28,11.28,0,0,0-8,5.32Z"/><path id="_Path_2" data-name="&lt;Path&gt;" class="cls-15" d="M186.55,182.28s2.72-14.05,15.84-14.62"/></g><g id="_Group_2" data-name="&lt;Group&gt;"><path id="_Path_3" data-name="&lt;Path&gt;" class="cls-14" d="M187,174.45s1.27-11.81-5.93-13.49-10,.19-11,.47,1.52,1.13,3.5,3.56,1.64,5.15,6.55,6.61a9.78,9.78,0,0,1,6.35,5.38Z"/><path id="_Path_4" data-name="&lt;Path&gt;" class="cls-15" d="M186.45,177s-.94-12.38-12.19-14.17"/></g><path class="cls-16" d="M187.76,147.47s0,0,0,.14.05.23.08.4.07.4.11.65.07.57.11.9a35,35,0,0,1,.12,5.78c-.11,2.45-.48,5.33-.89,8.53a94,94,0,0,0-.82,10.45,86.78,86.78,0,0,0,1.72,18.93c.47,2.4,1,4.3,1.32,5.62.19.65.33,1.16.43,1.52,0,.16.08.29.1.39s0,.14,0,.14a65.68,65.68,0,0,1-2-7.64,84.16,84.16,0,0,1-1.78-19,91.62,91.62,0,0,1,.84-10.47c.42-3.2.79-6.08.93-8.51a37.19,37.19,0,0,0-.07-5.77q0-.51-.09-.9l-.09-.66-.06-.4C187.76,147.52,187.76,147.47,187.76,147.47Z"/><rect class="cls-7" x="178.84" y="185.1" width="17.63" height="3.35" rx="1.13"/><path class="cls-7" d="M192.13,202.63h-8.36a1.39,1.39,0,0,1-1.37-1.15l-2.34-13.56h15.18l-1.74,13.5A1.37,1.37,0,0,1,192.13,202.63Z"/><g id="_Group_3" data-name="&lt;Group&gt;"><path id="_Path_5" data-name="&lt;Path&gt;" class="cls-14" d="M187.57,160.05s1.15-9,6.77-8.94,7.34,1.9,8.07,2.3-1.33.56-3.22,2-2.13,3.52-6,3.74a7.43,7.43,0,0,0-5.66,2.85Z"/><path id="_Path_6" data-name="&lt;Path&gt;" class="cls-15" d="M187.51,162s2.89-9,11.53-8.33"/></g><g id="_Group_4" data-name="&lt;Group&gt;"><path id="_Path_7" data-name="&lt;Path&gt;" class="cls-14" d="M188.68,153.27s2.09-8.79-3.18-10.76-7.54-.8-8.36-.69,1,1,2.3,3,.75,4,4.32,5.62a7.43,7.43,0,0,1,4.28,4.67Z"/><path id="_Path_8" data-name="&lt;Path&gt;" class="cls-15" d="M188,155.13s.47-9.43-7.85-11.87"/></g><path class="cls-5" d="M53.12,56.1A2.08,2.08,0,0,0,51,54H20.25a2.08,2.08,0,0,0-2.08,2.09V72.73a2.09,2.09,0,0,0,2.08,2.09H45.62L48,78.07a1.48,1.48,0,0,0,2.62-.19L52.69,74a2,2,0,0,0,.43-1.25Z"/><path class="cls-2" d="M47.28,61.46H23.72a.66.66,0,0,1-.67-.66h0a.67.67,0,0,1,.67-.67H47.28a.67.67,0,0,1,.66.67h0A.66.66,0,0,1,47.28,61.46Z"/><path class="cls-2" d="M40.12,64.58H23.72a.66.66,0,0,1-.67-.66h0a.67.67,0,0,1,.67-.67h16.4a.67.67,0,0,1,.66.67h0A.66.66,0,0,1,40.12,64.58Z"/><path class="cls-2" d="M44.09,67.77H23.72a.67.67,0,0,1-.67-.67h0a.67.67,0,0,1,.67-.66H44.09a.67.67,0,0,1,.67.66h0A.67.67,0,0,1,44.09,67.77Z"/><g class="cls-17"><circle class="cls-10" cx="120.54" cy="163.64" r="18.41" transform="translate(-46.68 279.17) rotate(-88.26)"/></g><circle class="cls-9" cx="118.98" cy="162.35" r="18.6" transform="translate(-49.7 272.17) rotate(-86.83)"/><circle class="cls-10" cx="118.69" cy="162.06" r="14.14" transform="translate(-31.3 28.45) rotate(-12.09)"/><path class="cls-11" d="M133.23,162.56a13.95,13.95,0,1,1-14-13.86A13.95,13.95,0,0,1,133.23,162.56Z"/><path class="cls-5" d="M133.23,162.56a13.95,13.95,0,1,1-14-13.86A13.95,13.95,0,0,1,133.23,162.56Z"/><path class="cls-10" d="M119.83,161.43l0-3.57h0a7.2,7.2,0,0,1,1.9.49,6.12,6.12,0,0,1,.89.55l0-.11.55-1.29.12-.29-.64-.67-.3.14a7,7,0,0,0-2.59-.73v-2l-.62-.49V154h-.84v2c-2.76.29-4.06,1.87-4,3.67,0,2.46,2.13,3.08,4.09,3.55l0,3.53a6.76,6.76,0,0,1-3.54-1.32l-.79,1.79a7.72,7.72,0,0,0,4.34,1.44v1.48l-.69,0,.69.46h1.45v-2c2.77-.3,4.09-1.87,4.08-3.67C123.94,162.5,121.79,161.9,119.83,161.43Zm-1.45-.36c-1-.3-1.79-.68-1.8-1.53s.53-1.42,1.78-1.62Zm1.43-3.21Zm0,8.84,0-3.13c1.06.29,1.84.7,1.85,1.56S121.15,166.5,119.86,166.7Z"/><path class="cls-2" d="M119.27,168.15v2h-1.45v-2a7.69,7.69,0,0,1-4.34-1.44l.78-1.79a6.76,6.76,0,0,0,3.55,1.32l0-3.53c-2-.47-4.08-1.1-4.09-3.55,0-1.81,1.29-3.39,4-3.67l0-2h1.45l0,2a7.48,7.48,0,0,1,3.59,1.06l-.71,1.79a7.23,7.23,0,0,0-2.87-.94l0,3.57c2,.47,4.11,1.07,4.12,3.53C123.36,166.28,122,167.85,119.27,168.15Zm-1.49-7.56,0-3.15c-1.26.2-1.78.84-1.78,1.62S116.75,160.29,117.78,160.59Zm3.31,4.06c0-.86-.79-1.27-1.85-1.56l0,3.13C120.55,166,121.09,165.41,121.09,164.65Z"/><circle class="cls-9" cx="133.07" cy="149" r="7.57"/><path class="cls-13" d="M130.51,148.84l1,2.28a.35.35,0,0,0,.58.09l3.8-4.12"/><circle class="cls-6" cx="133.05" cy="148.98" r="6.28"/><path class="cls-18" d="M33,90.85s2.29-6.36,12-3.61c6.45,1.84,10.2,7,9.77,14.48-.45,8,4.58,5.51,1.65,17-2,7.76,7.42,14.16-1.13,26.36-6.92,9.87-46,4.18-45.66-12.86.19-8,6.9-4.28,7.31-17.26.17-5.51,10.67-3.67,9.25-12C25.45,98.77,28.78,90.32,33,90.85Z"/><path class="cls-19" d="M44.83,115.58a5,5,0,0,1,2,5.2c-.66,3.56-.95,6.92,2.09,9.53"/><path class="cls-19" d="M52,107.29c.65,2.86,1.89,4.78.18,8.67-3.6,8.21,3.6,9.92.14,17.44a23.15,23.15,0,0,0-2,7"/><polygon class="cls-20" points="53.49 147.9 65.85 147.91 62.06 143.77 53.95 145 53.49 147.9"/><path class="cls-19" d="M31,111.9s-3.55,2-3.07,5.69c.64,5-4.36,5.81-3.12,9"/><path class="cls-19" d="M29.44,98.46a13.33,13.33,0,0,0-1.06,6.28c.77,6.47-8,6.61-8.08,13.14,0,4.08-3.44,6.57-5.66,8.93"/><polygon id="_Path_9" data-name="&lt;Path&gt;" class="cls-21" points="89.79 222.06 89.76 229.6 82.81 229.66 81.7 223.51 89.79 222.06"/><polygon id="_Path_10" data-name="&lt;Path&gt;" class="cls-21" points="68.99 224.43 68.31 232.65 60.79 233.33 59.56 227.15 68.99 224.43"/><path class="cls-10" d="M38,168.76c8,4.29,24.64,12.79,34.09,14.51a1.83,1.83,0,0,1,1.49,1.53L79.28,224a1.83,1.83,0,0,0,1.28,1.48c2.19.64,7.14,1.47,11-2.63a1.81,1.81,0,0,0,.5-1.38c-.4-5.78-3-43.14-4.93-48s-28.91-10.23-32.2-10.85a2,2,0,0,0-.65,0l-15.77,2.81A1.82,1.82,0,0,0,38,168.76Z"/><path class="cls-10" d="M26.37,171.28s-6.46,12.26,26.1,15.14a1.53,1.53,0,0,1,1.33,1.41l4.05,39.53a1.57,1.57,0,0,0,1.08,1.35,11.35,11.35,0,0,0,11.26-2.05,1.65,1.65,0,0,0,.6-1.32c-.15-5.77-1.24-43.23-2.94-48.2-1.63-4.79-25.61-10.73-31-12a1.59,1.59,0,0,0-1.68.64Z"/><path class="cls-9" d="M24.86,121.09c10.17-3,22.49-.4,24.51.21,2.3.69,5.18,3.45,8.29,9.67l3.11,6.22L54.55,139v23.72h0A42,42,0,0,1,35.16,172l-8.4,1.51a1.3,1.3,0,0,1-1.53-1.33l1-30.19-10.55.56S15.15,124,24.86,121.09Z"/><path class="cls-20" d="M45.89,143l-18.95,5.21-.75-6.2-8.81.4s-2,15.3,3.26,15.63c7.93.5,28.37-9.54,28.37-9.54Z"/><path class="cls-20" d="M42.84,95.29a3.41,3.41,0,0,1,3.39.73c2.15,2.23,4.83,6.12,3.92,11.09-1,5.74-2.41,9.32-5.58,9.26-1,0-1.47.8-1.51,1.76l-.19,3h0c-.94,5.25-8.62,6-10.82,1.07l-.36-.81a2.2,2.2,0,0,1,0-1.86c.93-1.94,3.18-5.24.66-12.57-.18-.51-.95-2.22-.46-3.43a1.64,1.64,0,0,1,2.61-.46c.19.15.44.18.92-.15C37.09,101.79,37.23,97.56,42.84,95.29Z"/><path class="cls-18" d="M43.53,95.14s.09,1.94,3.31,3.61c3.95,2,1.52,4.46,3.35,7.34s.25-2.74.25-2.74l-.56-6.59c-1.11-4.28-2.75-7.07-6.85-6.22-2.2.46-4.33,1.29-5.47,2.77-3,3.89-3.67,12.76-3.67,12.76s3.31.06,5-4.09C40.9,97.28,40.67,96.52,43.53,95.14Z"/><rect class="cls-16" x="53.61" y="129.72" width="9.79" height="18.61" rx="1.8"/><path class="cls-20" d="M68.78,142.19h0c-2-2.86-4.9-8.23-5.88-8.34-.52-.06-.69.4-.46,1.48.69,3.23,1.8,3.86-1.22,3.34l-3.86-.75a1.16,1.16,0,0,0-1.31,1.55,2.83,2.83,0,0,0,.5.74s-.71,2,1.2,2.51c0,0,.22,2.28,1.66,2.38a36.17,36.17,0,0,0,4.74,2.28h0a3.42,3.42,0,0,0,4.55-.67l.25-.29A3.17,3.17,0,0,0,68.78,142.19Z"/><path class="cls-22" d="M56.89,140.24a13.54,13.54,0,0,0,3.69.78"/><path class="cls-22" d="M58,142.76a9.46,9.46,0,0,0,3.19.62"/><path class="cls-20" d="M45.89,143l2.3-1.67c1.66-3.31,4.72-9.3,5.27-9s.78,1,.36,2.3c-1,3.15-.5,4.69,1.28,4.55.62,0,5.89-.07,5.89-.07s1.26,1.13-.42,2.4c0,0,.36,2.11-1.61,2.27,0,0-.61,2.2-2.05,2.05a34.84,34.84,0,0,1-5.06,1.43L49,148.52Z"/><path class="cls-22" d="M60.24,141.49a13.38,13.38,0,0,1-3.77.13"/><path class="cls-22" d="M58.7,143.78a9.26,9.26,0,0,1-3.25.05"/><path class="cls-22" d="M53.46,132.34c.61.32.78,1,.36,2.3-1,3.15-.5,4.69,1.28,4.55.62,0,5.89-.07,5.89-.07s1.26,1.13-.42,2.4c0,0,.36,2.11-1.61,2.27,0,0-.61,2.2-2.05,2.05a34.84,34.84,0,0,1-5.06,1.43"/><path class="cls-22" d="M59.41,145.1c.75.37,3.5,1.77,4.74,2.28h0"/><path class="cls-10" d="M90.45,228.3s-2.22,1.8-8.5.84c0,0-.45,3.93-2.16,6s3.25,4.53,7,3.38,6.49,1.59,10.17,1.15,9-4.45,7-5.64-9-1.15-10.69-3.88A4.26,4.26,0,0,0,90.45,228.3Z"/><path class="cls-23" d="M95.14,238.13c3.37,1,7.13-2.91,7.13-2.91"/><path class="cls-23" d="M81.32,235.78s1.34,1.6,4.41,1.28a23.61,23.61,0,0,1,9.41,1.07"/><path class="cls-10" d="M69.16,231.15s-3.5,2.49-9.71,1.18c0,0,.08,3.74-1.74,5.69s3,4.71,6.76,3.77,6.4,2,10.09,1.71,9.21-3.93,7.32-5.23-9.56-2.18-11.15-5A7,7,0,0,0,69.16,231.15Z"/><path class="cls-23" d="M72.86,241.88c3.31,1.18,7.28-2.51,7.28-2.51"/><path class="cls-23" d="M59.2,238.76s1.24,1.67,4.33,1.53a23.44,23.44,0,0,1,9.33,1.59"/><path class="cls-23" d="M68.89,184.56a43.49,43.49,0,0,0-1-7.42c-.93-2.75-9.22-5.87-17.14-8.28"/><path class="cls-23" d="M68.67,204c-.24-5.66-.54-11.62-.89-16.64"/><path class="cls-23" d="M62.1,227.93a10.82,10.82,0,0,0,6.66-2.7,1.65,1.65,0,0,0,.6-1.32c0-1.86-.2-7-.43-13.32"/><path class="cls-6" d="M59.76,176.89s.2,5.2,6.21,7"/><path class="cls-6" d="M80.34,172.51A12.76,12.76,0,0,0,86.65,180"/><path class="cls-6" d="M81.7,223.51a15,15,0,0,0,8.62-2.8"/><path class="cls-24" d="M30.5,122.06s1.07,6.23,9.07,4.61"/><path class="cls-24" d="M43.77,122.5s.07,1.74-2.22,3.12"/><line class="cls-24" x1="17.1" y1="141.1" x2="23.71" y2="141.05"/><line class="cls-24" x1="26.25" y1="141.9" x2="26.95" y2="137.48"/><path class="cls-24" d="M36.3,169.13a60.79,60.79,0,0,1-8.51,1.63"/><path class="cls-24" d="M52.12,161.48s-3.81,3.49-11.55,6.3"/><path class="cls-24" d="M42,164a16.38,16.38,0,0,1-5.12,1.13"/><path class="cls-24" d="M52,157.85a39.23,39.23,0,0,1-6.78,4.67"/><path class="cls-6" d="M37.44,173.43S39.58,178,36,181.38"/></g></g></svg>