<svg xmlns="http://www.w3.org/2000/svg" viewBox="0 0 187.16 172.2"><defs><style>.cls-1{fill:#fff;}.cls-2{fill:#c88a5e;}.cls-3{fill:#6c2910;}.cls-4{fill:#7f7f74;}.cls-5{fill:#c3ac7f;}.cls-6{fill:#fcc467;}.cls-7{fill:#f7a949;}.cls-8{fill:#fdd79e;}.cls-9{fill:#b2b095;}.cls-10{fill:#dbd59e;}.cls-11{fill:#be8a64;}.cls-12{fill:#29151a;}.cls-13{fill:#fdce75;}.cls-14{fill:#c0bd99;}.cls-15{fill:#4b3c32;}</style></defs><g id="Capa_2" data-name="Capa 2"><g id="Capa_1-2" data-name="Capa 1"><ellipse class="cls-1" cx="93.58" cy="159.1" rx="93.58" ry="13.1"/><path class="cls-2" d="M63.58,30.14V24.06H59.22a16.12,16.12,0,0,0-.47-1.72l3.78-2.19-3-5.27-3.79,2.2a15,15,0,0,0-1.26-1.26L56.63,12,51.36,9l-2.18,3.79a14.22,14.22,0,0,0-1.73-.47V7.93H41.37v4.36a14.22,14.22,0,0,0-1.73.47L37.46,9l-5.27,3,2.18,3.77a15.22,15.22,0,0,0-1.27,1.27l-3.77-2.18-3,5.27L30,22.32a16.51,16.51,0,0,0-.48,1.74H25.24v6.08h4.31A16.88,16.88,0,0,0,30,31.9l-3.74,2.15,3,5.27,3.74-2.16a15.58,15.58,0,0,0,1.28,1.29l-2.16,3.73,5.27,3,2.16-3.74a14.53,14.53,0,0,0,1.75.47v4.31h6.08V42a14.53,14.53,0,0,0,1.75-.47l2.16,3.75,5.27-3-2.17-3.76a13.73,13.73,0,0,0,1.26-1.27l3.77,2.17,3-5.27-3.77-2.17a14.37,14.37,0,0,0,.47-1.74Zm-8.11-3A11.08,11.08,0,1,1,44.39,16,11.09,11.09,0,0,1,55.47,27.13Z"/><path class="cls-3" d="M184.82,141.36v-6.09h-4.36a14.57,14.57,0,0,0-.47-1.72l3.79-2.18-3.05-5.27-3.79,2.19q-.6-.66-1.26-1.26l2.19-3.79-5.27-3L170.42,124a16.79,16.79,0,0,0-1.72-.47v-4.36h-6.09v4.35a14.73,14.73,0,0,0-1.73.47l-2.18-3.78-5.27,3,2.18,3.77a13.73,13.73,0,0,0-1.27,1.26l-3.77-2.17-3,5.27,3.75,2.16a14.89,14.89,0,0,0-.47,1.74h-4.33v6.09h4.32a14.53,14.53,0,0,0,.47,1.75l-3.74,2.16,3,5.26,3.74-2.15a15.46,15.46,0,0,0,1.28,1.28l-2.16,3.74,5.27,3,2.16-3.74a16.69,16.69,0,0,0,1.75.48v4.31h6.09v-4.32a17.21,17.21,0,0,0,1.74-.48l2.16,3.75,5.27-3-2.17-3.77a15.22,15.22,0,0,0,1.27-1.27l3.76,2.17,3.05-5.26L180,143.09a14.73,14.73,0,0,0,.47-1.73Zm-8.11-3a11.08,11.08,0,1,1-11.08-11.08A11.09,11.09,0,0,1,176.71,138.34Z"/><path class="cls-4" d="M153.49,25.68V20.82H150a12.77,12.77,0,0,0-.38-1.38l3-1.75-2.43-4.2-3,1.75a12,12,0,0,0-1-1l1.75-3-4.2-2.43-1.75,3a12.77,12.77,0,0,0-1.38-.38V7.93h-4.86v3.48a12.77,12.77,0,0,0-1.38.38l-1.74-3-4.21,2.43,1.74,3a12,12,0,0,0-1,1l-3-1.73-2.43,4.2,3,1.73a13.12,13.12,0,0,0-.38,1.4h-3.45v4.86h3.44a13.8,13.8,0,0,0,.38,1.4l-3,1.72L126.13,33l3-1.73a12.51,12.51,0,0,0,1,1l-1.73,3,4.21,2.43,1.72-3a13.8,13.8,0,0,0,1.4.38v3.44h4.86V35.11a13.12,13.12,0,0,0,1.4-.38l1.73,3,4.2-2.43-1.73-3a13.9,13.9,0,0,0,1-1l3,1.74,2.43-4.21-3-1.74c.14-.45.27-.91.37-1.38ZM147,23.27a8.86,8.86,0,1,1-8.85-8.86A8.86,8.86,0,0,1,147,23.27Z"/><path class="cls-5" d="M27.08,76.2a4.4,4.4,0,0,1-1.24-2.77c.05-1,1.2-2,2.1-1.5a15.19,15.19,0,0,1-5.88-5.14,3.81,3.81,0,0,1-.83-3c.27-1,1.7-1.71,2.44-1a17,17,0,0,1-6.34-10C17,51,17.2,48.67,18.92,48c1.36-.51,2.82.39,4,1.29a60.36,60.36,0,0,1,5.22,4.63c.09-1.22-.36-2.61.41-3.55a2.28,2.28,0,0,1,2.85-.27,6.54,6.54,0,0,1,2,2.31L38.27,60c.32-1.17-.37-2.79.66-3.44s2.1.57,2.64,1.6A159.58,159.58,0,0,1,50.11,77a18.89,18.89,0,0,1,1.53,6.44A7,7,0,0,1,49,89.24a6.57,6.57,0,0,1-5.38.57,19.78,19.78,0,0,1-4.1-2.43A50,50,0,0,1,27.08,76.2Z"/><rect class="cls-6" x="12.94" y="146.86" width="44.63" height="7.81"/><rect class="cls-7" x="12.94" y="152.49" width="44.63" height="2.18"/><rect class="cls-7" x="42.38" y="146.86" width="5.76" height="7.09"/><rect class="cls-7" x="37.1" y="146.86" width="2.24" height="7.09"/><rect class="cls-8" x="16.48" y="146.86" width="10.32" height="5.63"/><rect class="cls-8" x="27.9" y="146.86" width="3.54" height="5.63"/><rect class="cls-6" x="10.25" y="139.04" width="44.63" height="7.81"/><rect class="cls-7" x="10.25" y="144.67" width="44.63" height="2.18"/><rect class="cls-7" x="39.69" y="139.04" width="5.76" height="7.09"/><rect class="cls-7" x="34.41" y="139.04" width="2.24" height="7.09"/><rect class="cls-8" x="13.79" y="139.04" width="10.32" height="5.63"/><rect class="cls-8" x="25.21" y="139.04" width="3.54" height="5.63"/><rect class="cls-6" x="12.94" y="131.23" width="44.63" height="7.81"/><rect class="cls-7" x="12.94" y="136.86" width="44.63" height="2.18"/><rect class="cls-7" x="42.38" y="131.23" width="5.76" height="7.09"/><rect class="cls-7" x="37.1" y="131.23" width="2.24" height="7.09"/><rect class="cls-8" x="16.48" y="131.23" width="10.32" height="5.63"/><rect class="cls-8" x="27.9" y="131.23" width="3.54" height="5.63"/><rect class="cls-6" x="10.92" y="123.42" width="44.63" height="7.81"/><rect class="cls-7" x="10.92" y="129.05" width="44.63" height="2.18"/><rect class="cls-7" x="40.35" y="123.42" width="5.76" height="7.09"/><rect class="cls-7" x="35.08" y="123.42" width="2.24" height="7.09"/><rect class="cls-8" x="14.46" y="123.42" width="10.32" height="5.63"/><rect class="cls-8" x="25.88" y="123.42" width="3.54" height="5.63"/><rect class="cls-6" x="12.76" y="115.6" width="44.63" height="7.81"/><rect class="cls-7" x="12.76" y="121.23" width="44.63" height="2.18"/><rect class="cls-7" x="42.2" y="115.6" width="5.76" height="7.09"/><rect class="cls-7" x="36.92" y="115.6" width="2.24" height="7.09"/><rect class="cls-8" x="16.3" y="115.6" width="10.32" height="5.63"/><rect class="cls-8" x="27.72" y="115.6" width="3.54" height="5.63"/><rect class="cls-6" x="10.25" y="107.79" width="44.63" height="7.81"/><rect class="cls-7" x="10.25" y="113.42" width="44.63" height="2.18"/><rect class="cls-7" x="39.69" y="107.79" width="5.76" height="7.09"/><rect class="cls-7" x="34.41" y="107.79" width="2.24" height="7.09"/><rect class="cls-8" x="13.79" y="107.79" width="10.32" height="5.63"/><rect class="cls-8" x="25.21" y="107.79" width="3.54" height="5.63"/><rect class="cls-6" x="14.11" y="99.97" width="44.63" height="7.81"/><rect class="cls-7" x="14.11" y="105.6" width="44.63" height="2.18"/><rect class="cls-7" x="43.55" y="99.97" width="5.76" height="7.09"/><rect class="cls-7" x="38.27" y="99.97" width="2.24" height="7.09"/><rect class="cls-8" x="17.65" y="99.97" width="10.32" height="5.63"/><rect class="cls-8" x="29.07" y="99.97" width="3.54" height="5.63"/><rect class="cls-6" x="12.09" y="92.15" width="44.63" height="7.81"/><rect class="cls-7" x="12.09" y="97.78" width="44.63" height="2.18"/><rect class="cls-7" x="41.53" y="92.15" width="5.76" height="7.09"/><rect class="cls-7" x="36.26" y="92.15" width="2.24" height="7.09"/><rect class="cls-8" x="15.64" y="92.15" width="10.32" height="5.63"/><rect class="cls-8" x="27.06" y="92.15" width="3.54" height="5.63"/><rect class="cls-6" x="13.94" y="84.34" width="44.63" height="7.81"/><rect class="cls-7" x="13.94" y="89.97" width="44.63" height="2.18"/><rect class="cls-7" x="43.38" y="84.34" width="5.76" height="7.09"/><rect class="cls-7" x="38.1" y="84.34" width="2.24" height="7.09"/><rect class="cls-8" x="17.48" y="84.34" width="10.32" height="5.63"/><rect class="cls-8" x="28.9" y="84.34" width="3.54" height="5.63"/><rect class="cls-6" x="10.92" y="76.52" width="44.63" height="7.81"/><rect class="cls-7" x="10.92" y="82.16" width="44.63" height="2.18"/><rect class="cls-7" x="40.35" y="76.52" width="5.76" height="7.09"/><rect class="cls-7" x="35.08" y="76.52" width="2.24" height="7.09"/><rect class="cls-8" x="14.46" y="76.52" width="10.32" height="5.63"/><rect class="cls-8" x="25.88" y="76.52" width="3.54" height="5.63"/><path class="cls-1" d="M33.23,119.12c-1-2.77-.36-2.11-3.13-3.14,2.77-1,2.11-.36,3.13-3.13,1,2.77.37,2.11,3.14,3.13C33.6,117,34.26,116.35,33.23,119.12Z"/><path class="cls-1" d="M36,112.64c-.67-1.8-.24-1.37-2-2,1.8-.66,1.37-.23,2-2,.66,1.8.23,1.37,2,2C36.24,111.27,36.67,110.84,36,112.64Z"/><path class="cls-1" d="M12.94,143.9c-.67-1.8-.23-1.37-2-2,1.81-.67,1.37-.24,2-2,.67,1.8.24,1.37,2,2C13.18,142.53,13.61,142.1,12.94,143.9Z"/><path class="cls-9" d="M141.66,48.58A4.3,4.3,0,0,1,144,46.63c1-.24,2.27.6,2,1.6a15.16,15.16,0,0,1,3.32-7.07,3.82,3.82,0,0,1,2.62-1.62c1.06,0,2.11,1.17,1.58,2.09a17,17,0,0,1,7.92-8.86c1.63-.85,4-1.27,5.05.2.87,1.17.4,2.82-.15,4.17a59.42,59.42,0,0,1-3,6.29c1.2-.25,2.41-1.07,3.52-.59a2.28,2.28,0,0,1,1.05,2.67,6.52,6.52,0,0,1-1.65,2.61l-5.94,6.75c1.22,0,2.58-1.12,3.49-.31s0,2.18-.82,3a156.1,156.1,0,0,1-15.77,13.4,18.85,18.85,0,0,1-5.77,3.25,7,7,0,0,1-6.28-.93,6.56,6.56,0,0,1-2-5,19.6,19.6,0,0,1,1.21-4.61,49.82,49.82,0,0,1,7.32-15.05Z"/><path class="cls-10" d="M146.83,61.13a4.34,4.34,0,0,1,2.83-1.06c1,.11,1.94,1.32,1.38,2.19a15.14,15.14,0,0,1,5.49-5.55,3.86,3.86,0,0,1,3-.65c1,.34,1.6,1.81.79,2.5a16.94,16.94,0,0,1,10.43-5.69c1.82-.25,4.15.12,4.69,1.88.43,1.39-.57,2.79-1.54,3.88A60.23,60.23,0,0,1,169,63.54c1.21.17,2.62-.2,3.51.63a2.28,2.28,0,0,1,.1,2.86,6.63,6.63,0,0,1-2.43,1.91l-7.87,4.37c1.16.4,2.81-.2,3.4.88s-.71,2-1.77,2.53a156.75,156.75,0,0,1-19.35,7.34,18.75,18.75,0,0,1-6.52,1.12,7,7,0,0,1-5.61-3,6.58,6.58,0,0,1-.23-5.41,19.65,19.65,0,0,1,2.68-3.93,50.8,50.8,0,0,1,5.13-6A49.53,49.53,0,0,1,146.83,61.13Z"/><rect class="cls-3" x="171.99" y="99.64" width="6.19" height="9.97"/><polygon class="cls-3" points="168.56 100.62 175.08 94.11 181.6 100.62 168.56 100.62"/><rect class="cls-2" x="66.32" y="5.72" width="6.19" height="9.97"/><polygon class="cls-2" points="62.9 6.7 69.42 0.18 75.94 6.7 62.9 6.7"/><rect class="cls-11" x="11.51" y="65.43" width="4.57" height="7.35"/><polygon class="cls-11" points="8.98 66.16 13.79 61.35 18.6 66.16 8.98 66.16"/><rect class="cls-4" x="109.09" y="4.08" width="4.57" height="7.35"/><polygon class="cls-4" points="106.57 4.81 111.37 0 116.18 4.81 106.57 4.81"/><rect class="cls-3" x="41.63" y="24.77" width="102.38" height="134.05"/><rect class="cls-12" x="47.46" y="32" width="90.71" height="123.04"/><rect class="cls-1" x="47.46" y="30.28" width="90.71" height="123.04"/><path class="cls-10" d="M69.49,77.61h0a23.33,23.33,0,0,1,46.66,0h10.06a33.39,33.39,0,0,0-66.78,0H69.49Z"/><path class="cls-13" d="M120.15,58.46s6.1,7,6.06,19.15H116.15A23.4,23.4,0,0,0,112,64.34Z"/><path class="cls-4" d="M129.17,78.3H56.47a.69.69,0,0,1-.69-.69.68.68,0,0,1,.69-.68h72.7a.68.68,0,0,1,.69.68A.69.69,0,0,1,129.17,78.3Z"/><path class="cls-4" d="M93.58,78.3a.68.68,0,0,1-.4-1.24l35.59-25.67a.69.69,0,0,1,.8,1.12L94,78.17A.66.66,0,0,1,93.58,78.3Z"/><rect class="cls-14" x="71.91" y="20.02" width="41.82" height="16.45"/><circle class="cls-14" cx="92.95" cy="21.1" r="13.16"/><path class="cls-15" d="M100.58,20a7.77,7.77,0,0,0-15.52,0Z"/><rect class="cls-4" x="77.29" y="107.76" width="38.41" height="2.73"/><rect class="cls-4" x="77.29" y="113.25" width="51.47" height="2.73"/><path class="cls-10" d="M62.75,119.09h0a2,2,0,0,1-1.62-.84l-4-5.48a1.4,1.4,0,0,1,.31-1.93,1.37,1.37,0,0,1,1.92.31l3.39,4.67,7.86-10.61a1.38,1.38,0,0,1,2.21,1.64l-8.46,11.42A2,2,0,0,1,62.75,119.09Z"/><rect class="cls-4" x="77.29" y="87.02" width="38.41" height="2.73"/><rect class="cls-4" x="77.29" y="92.52" width="51.47" height="2.73"/><path class="cls-10" d="M62.75,98.35h0a2,2,0,0,1-1.62-.83l-4-5.49a1.38,1.38,0,0,1,2.23-1.62l3.39,4.68,7.86-10.61a1.38,1.38,0,1,1,2.21,1.64L64.37,97.54A2,2,0,0,1,62.75,98.35Z"/><rect class="cls-4" x="77.29" y="128.5" width="38.41" height="2.73"/><rect class="cls-4" x="77.29" y="133.99" width="51.47" height="2.73"/><path class="cls-10" d="M62.75,139.82h0a2,2,0,0,1-1.62-.83l-4-5.49a1.39,1.39,0,0,1,.31-1.92,1.37,1.37,0,0,1,1.92.31l3.39,4.67L70.62,126a1.38,1.38,0,1,1,2.21,1.64L64.37,139A2,2,0,0,1,62.75,139.82Z"/><rect class="cls-6" x="123.04" y="156.01" width="44.63" height="7.81"/><rect class="cls-7" x="123.04" y="161.64" width="44.63" height="2.18"/><rect class="cls-7" x="152.48" y="156.01" width="5.76" height="7.09"/><rect class="cls-7" x="147.21" y="156.01" width="2.24" height="7.09"/><rect class="cls-8" x="126.59" y="156.01" width="10.32" height="5.63"/><rect class="cls-8" x="138.01" y="156.01" width="3.54" height="5.63"/><rect class="cls-6" x="120.35" y="148.2" width="44.63" height="7.81"/><rect class="cls-7" x="120.35" y="153.83" width="44.63" height="2.18"/><rect class="cls-7" x="149.79" y="148.2" width="5.76" height="7.09"/><rect class="cls-7" x="144.51" y="148.2" width="2.24" height="7.09"/><rect class="cls-8" x="123.89" y="148.2" width="10.32" height="5.63"/><rect class="cls-8" x="135.32" y="148.2" width="3.54" height="5.63"/><rect class="cls-6" x="123.04" y="140.38" width="44.63" height="7.81"/><rect class="cls-7" x="123.04" y="146.01" width="44.63" height="2.18"/><rect class="cls-7" x="152.48" y="140.38" width="5.76" height="7.09"/><rect class="cls-7" x="147.21" y="140.38" width="2.24" height="7.09"/><rect class="cls-8" x="126.59" y="140.38" width="10.32" height="5.63"/><rect class="cls-8" x="138.01" y="140.38" width="3.54" height="5.63"/><rect class="cls-6" x="121.02" y="132.57" width="44.63" height="7.81"/><rect class="cls-7" x="121.02" y="138.2" width="44.63" height="2.18"/><rect class="cls-7" x="150.46" y="132.57" width="5.76" height="7.09"/><rect class="cls-7" x="145.18" y="132.57" width="2.24" height="7.09"/><rect class="cls-8" x="124.56" y="132.57" width="10.32" height="5.63"/><rect class="cls-8" x="135.98" y="132.57" width="3.54" height="5.63"/><rect class="cls-6" x="122.86" y="124.75" width="44.63" height="7.81"/><rect class="cls-7" x="122.86" y="130.38" width="44.63" height="2.18"/><rect class="cls-7" x="152.3" y="124.75" width="5.76" height="7.09"/><rect class="cls-7" x="147.02" y="124.75" width="2.24" height="7.09"/><rect class="cls-8" x="126.41" y="124.75" width="10.32" height="5.63"/><rect class="cls-8" x="137.83" y="124.75" width="3.54" height="5.63"/><rect class="cls-6" x="120.35" y="116.94" width="44.63" height="7.81"/><rect class="cls-7" x="120.35" y="122.57" width="44.63" height="2.18"/><rect class="cls-7" x="149.79" y="116.94" width="5.76" height="7.09"/><rect class="cls-7" x="144.51" y="116.94" width="2.24" height="7.09"/><rect class="cls-8" x="123.89" y="116.94" width="10.32" height="5.63"/><rect class="cls-8" x="135.32" y="116.94" width="3.54" height="5.63"/><rect class="cls-6" x="124.21" y="109.13" width="44.63" height="7.81"/><rect class="cls-7" x="124.21" y="114.76" width="44.63" height="2.18"/><rect class="cls-7" x="153.65" y="109.13" width="5.76" height="7.09"/><rect class="cls-7" x="148.37" y="109.13" width="2.24" height="7.09"/><rect class="cls-8" x="127.76" y="109.13" width="10.32" height="5.63"/><rect class="cls-8" x="139.18" y="109.13" width="3.54" height="5.63"/><circle class="cls-6" cx="144.51" cy="87" r="23.1"/><path class="cls-7" d="M144.52,107.54h-.27a20.54,20.54,0,0,1,.26-41.08h.27a20.54,20.54,0,0,1-.26,41.08Zm0-39.87a19.33,19.33,0,0,0-.25,38.65,19.33,19.33,0,0,0,19.58-19.07h0a19.33,19.33,0,0,0-19.07-19.58Z"/><path class="cls-7" d="M143.36,103.11V101l-.47,0a3.68,3.68,0,0,1-.47,0,7.61,7.61,0,0,1-4.84-1.3,4.75,4.75,0,0,1-1.87-3.45,4,4,0,0,1,.54-2.48,2.48,2.48,0,0,1,2-1.25c.23,0,.35,0,.37.2a.41.41,0,0,1-.17.33,2.79,2.79,0,0,0-.31.68,3.32,3.32,0,0,0-.18.82,1.43,1.43,0,0,0,0,.29l0,.26a3.9,3.9,0,0,0,1.77,3.07,7.53,7.53,0,0,0,3.6,1.21l.15-10.72c-.88-.44-1.73-.91-2.56-1.41a12,12,0,0,1-2.19-1.64,7,7,0,0,1-1.48-2,6.23,6.23,0,0,1-.64-2.25,6.92,6.92,0,0,1,.76-3.82,8.25,8.25,0,0,1,2.87-3.14A10,10,0,0,1,143.72,73V71a.7.7,0,0,1,.19-.49.68.68,0,0,1,.41-.19.74.74,0,0,1,.47.11.46.46,0,0,1,.21.45l0,2a6,6,0,0,1,3.84,1,4.9,4.9,0,0,1,1.82,3.8,2.29,2.29,0,0,1-.37,1.66,1.49,1.49,0,0,1-1,.66.94.94,0,0,1-.71-.23,1.23,1.23,0,0,1-.37-.89l0-.25a1.43,1.43,0,0,1,0-.29,5.07,5.07,0,0,0,0-1.1,4.06,4.06,0,0,0-.9-2.27,2.83,2.83,0,0,0-2.3-1l-.12,11.9L147,87a37.17,37.17,0,0,1,3.41,1.85,6.68,6.68,0,0,1,2,1.75,4.67,4.67,0,0,1,.78,2.3c0,.11,0,.21,0,.3s0,.19,0,.29A6.27,6.27,0,0,1,151,98.17a11.17,11.17,0,0,1-6.3,2.62l0,2.2a.7.7,0,0,1-.19.49.68.68,0,0,1-.88.06A.47.47,0,0,1,143.36,103.11Zm.19-17.9.13-10.95a4.81,4.81,0,0,0-2.15,1.35,6.42,6.42,0,0,0-1.34,2.23,5.65,5.65,0,0,0-.33,2.58,5.34,5.34,0,0,0,.43,1.68,4.26,4.26,0,0,0,1,1.47,9.78,9.78,0,0,0,1,.87C142.74,84.7,143.14,85,143.55,85.21Zm1.12,14.21.47,0a13.5,13.5,0,0,0,1.44-.23,6.62,6.62,0,0,0,1.32-.46,4.28,4.28,0,0,0,1.88-1.47,3.77,3.77,0,0,0,.73-1.67,3.61,3.61,0,0,0-.91-3,9.67,9.67,0,0,0-2.1-1.68c-.84-.53-1.74-1-2.7-1.52Z"/><path class="cls-1" d="M158.24,135.65c-1.25-3.37-.44-2.56-3.81-3.81,3.37-1.25,2.56-.44,3.81-3.81,1.25,3.37.44,2.56,3.82,3.81C158.68,133.09,159.49,132.28,158.24,135.65Z"/><path class="cls-1" d="M129.19,88.72c-1-2.77-.37-2.1-3.13-3.13,2.76-1,2.1-.36,3.13-3.13,1,2.77.36,2.1,3.13,3.13C129.55,86.62,130.21,86,129.19,88.72Z"/><path class="cls-1" d="M154.32,100.25c-.62-1.68-.22-1.28-1.9-1.9,1.68-.62,1.28-.22,1.9-1.9.62,1.68.22,1.28,1.9,1.9C154.54,99,154.94,98.57,154.32,100.25Z"/><path class="cls-1" d="M128.74,136.82c-.93-2.5-.33-1.9-2.83-2.83,2.5-.93,1.9-.33,2.83-2.83.92,2.5.32,1.9,2.83,2.83C129.06,134.92,129.66,134.32,128.74,136.82Z"/><path class="cls-1" d="M160.44,140.4c-.72-2-.25-1.48-2.2-2.2,1.95-.72,1.48-.26,2.2-2.2.72,1.94.26,1.48,2.2,2.2C160.7,138.92,161.16,138.45,160.44,140.4Z"/></g></g></svg>