<svg xmlns="http://www.w3.org/2000/svg" xmlns:xlink="http://www.w3.org/1999/xlink" viewBox="0 0 259.76 244.59"><defs><style>.cls-1{fill:none;}.cls-2{fill:#fff;}.cls-3{fill:#c88a5e;}.cls-4{fill:#cda880;}.cls-5{fill:#e4ad01;}.cls-6{fill:#5b251b;}.cls-7{fill:#f9c342;}.cls-8{fill:#90433c;}.cls-9{fill:#a4534c;}.cls-10{fill:#914f26;}.cls-11{fill:#763c2c;}.cls-12{fill:#512717;}.cls-13{fill:#6c2910;}.cls-14{fill:#854624;}.cls-15{fill:#6e341d;}.cls-16{fill:#9a153f;}.cls-17{fill:#a41544;}.cls-18{fill:#d58f1e;}.cls-19{fill:#1f2725;}.cls-20{clip-path:url(#clip-path);}.cls-21{fill:#dc7c3e;}.cls-22{fill:#c05f28;}.cls-23{fill:#4c1f16;}.cls-24{fill:#381511;}.cls-25{fill:#682b23;}.cls-26{fill:#c81243;}.cls-27{fill:#b76915;}.cls-28{fill:#b54f24;}.cls-29{fill:#f2ead7;}.cls-30{fill:#fffce9;}.cls-31{fill:#ef7b32;}.cls-32{fill:#fdce75;}</style><clipPath id="clip-path"><path class="cls-1" d="M51.67,71.57s-5-7-8.48-7.11c0,0-3.34,2.72-4,5.75,0,0,5.65,3,7.8,7A6.82,6.82,0,0,0,51.67,71.57Z"/></clipPath></defs><g id="Capa_2" data-name="Capa 2"><g id="Capa_1-2" data-name="Capa 1"><path class="cls-2" d="M241,125.15c-7.67-6.56-20.3-7.57-24.63-16.68-2.66-5.59-1-12.3,1.83-17.8s6.77-10.43,9-16.21,2.26-13-2.09-17.42-11-4.48-16.92-3.68-12.06,2.34-17.79.59c-9.32-2.84-14-13-20.84-19.87a36.28,36.28,0,0,0-25.87-10.24q-7.9.07-15.82,0A36.28,36.28,0,0,0,102,34.08C95.11,41,90.46,51.11,81.14,54c-5.73,1.75-11.86.22-17.79-.59S50.64,52.77,46.43,57s-4.3,11.64-2.1,17.42,6.15,10.71,9,16.21,4.49,12.21,1.83,17.8c-4.33,9.11-17,10.12-24.63,16.68-8.61,7.36-8.89,22.41-.56,30.1,4.58,4.22,10.79,6.07,16.3,9s10.84,7.81,10.88,14c.07,9.22-11,14.71-13.51,23.58-1.45,5.1.22,10.71,3.35,15s7.56,7.42,12.1,10.15a110.54,110.54,0,0,0,64.8,15.34l11.89-7.2,11.89,7.2A110.54,110.54,0,0,0,212.45,227c4.54-2.73,9-5.87,12.1-10.15s4.8-9.89,3.35-15c-2.52-8.87-13.58-14.36-13.51-23.58,0-6.23,5.38-11.13,10.88-14s11.72-4.76,16.3-9C249.9,147.56,249.62,132.51,241,125.15Z"/><ellipse class="cls-3" cx="130.83" cy="238.74" rx="128.93" ry="5.85"/><path class="cls-3" d="M110.12,234.48s6.49-5.82,3.68-8.79-7.13,7.08-7.13,7.08,1.16-12.58-4-12.58c-4.95,0,.5,14.29.5,14.29Z"/><path class="cls-3" d="M252.9,214.42a66.52,66.52,0,0,0,1.63-8.93,4.44,4.44,0,0,0-.49.24c-4.84,2.73-11.89.6-11.48-2.89s6.52-2.6,9.16-3a7.8,7.8,0,0,0,3.16-1.12,51.05,51.05,0,0,0-1.4-11.74c-3.37,1.57-5.71,6-8.55,5.87-3.77-.17-3.66-4.34,1.39-6.44a7.19,7.19,0,0,0,4.75-6.75,42.2,42.2,0,0,0-2-4.14,10,10,0,0,0-11.33-4.4c-.84.28-1.73.62-2.66,1a3.8,3.8,0,0,0-1.8,1.63,7.41,7.41,0,0,0-.47,6c1.64,5.22-1.48,8-4,5.21-1.73-1.87-.38-5.82-.8-9.2-3,1.74-6.31,3.85-9.91,6.28a8.25,8.25,0,0,0,1,2.22c1.42,2.27,6,6.38,3.62,8.94s-8.58-1.47-9.6-6.93c0-.22-.1-.43-.16-.64a40.72,40.72,0,0,0-6.41,6.25,6,6,0,0,0,3.33,5.34c4,2.05,6.08,5.21,2.17,5.77s-5.74-6.05-8.84-6.63a51.46,51.46,0,0,0-4.31,7.85,6.57,6.57,0,0,0,3.24,4.49c4.32,2.53,8.62,5.86,6.72,8.55s-5.47.35-12.49-3.3l-.34-.18a24.21,24.21,0,0,0,.41,10.13c2.19,5.94,6.51,5.43,12.3,7.74a6.24,6.24,0,0,1,3,2.26,5.72,5.72,0,0,1,.17,3.17h.71l1.3-2.16L215,233.1c4.72-7.83,26-55.06,26-55.06-3.13,10.52-19.83,50.94-22.67,54.76a51.47,51.47,0,0,0-2.84,4.3h27.35l.6-.8c-7.19-3-11.2-4.2-10.38-7.36s6.15-2,10.87-.37a6.69,6.69,0,0,0,3.8.26c.12-.28.25-.56.38-.85a87.12,87.12,0,0,0,3.36-8.67c-2.7-1.4-8.41.85-10.3-2.18-2.09-3.36,1.66-3.81,5.82-2.06A5.91,5.91,0,0,0,252.9,214.42Zm-16.28,5a1.76,1.76,0,0,1-.08,1.93c-1.84,2.43-7-3.75-4.23-4.46C234.51,216.29,236,218.23,236.62,219.38Zm-.78-9.52c.8-1.27,2.69-1.56,3.44-1.62a1.26,1.26,0,0,1,.67,0C243.32,209.87,234.87,211.4,235.84,209.86Zm-24.05-1.17c1.18-1.83,5.2,3,5.2,3C218.57,216.61,210.6,210.53,211.79,208.69Zm12.05-6.27c-.6,1.28-2.43.1-3.67-.77-1.46-1-1.33-3.65.59-3.53,1.43.09,2.55,1.91,3,2.85A1.64,1.64,0,0,1,223.84,202.42Z"/><path class="cls-4" d="M215.51,237.1h-2.93l1.3-2.16L215,233.1c4.72-7.83,26-55.06,26-55.06-3.13,10.52-19.83,50.94-22.67,54.76A51.47,51.47,0,0,0,215.51,237.1Z"/><path class="cls-4" d="M233.52,197.16A25.47,25.47,0,0,1,244,195.34a25.5,25.5,0,0,0-11.74,5.06Z"/><path class="cls-4" d="M233.12,196.75a25.53,25.53,0,0,0-4.85-9.46,25.43,25.43,0,0,1,3,12.42Z"/><path class="cls-4" d="M226.35,211.5a25.65,25.65,0,0,0-7.78-7.24,25.45,25.45,0,0,1,7.06,10.65Z"/><path class="cls-4" d="M219.74,224.14a25.35,25.35,0,0,0-6.61-8.32,25.41,25.41,0,0,1,5.4,11.58Z"/><path class="cls-4" d="M227.21,212.42a25.56,25.56,0,0,1,10.51,1.6A25.43,25.43,0,0,0,225,215.09Z"/><path class="cls-4" d="M221.4,225.45a25.52,25.52,0,0,1,10.64,0,25.44,25.44,0,0,0-12.43,3Z"/><path class="cls-3" d="M7.88,215c4.15-1.74,7.9-1.29,5.82,2.06-1.89,3-7.61.79-10.3,2.19A87,87,0,0,0,6.75,228l.39.84a6.6,6.6,0,0,0,3.8-.25c4.72-1.67,10-2.82,10.86.37s-3.18,4.39-10.38,7.36l.6.8H39.37a50.66,50.66,0,0,0-2.83-4.31C33.7,229,17,188.54,13.86,178c0,0,21.31,47.23,26,55.06l1.1,1.84c.49.8.92,1.51,1.3,2.16H43a5.7,5.7,0,0,1,.17-3.17,6.29,6.29,0,0,1,3-2.26c5.79-2.31,10.12-1.8,12.3-7.74a24.26,24.26,0,0,0,.41-10.14l-.34.19c-7,3.65-10.58,6-12.48,3.3s2.4-6,6.71-8.55a6.56,6.56,0,0,0,3.24-4.49,51.46,51.46,0,0,0-4.31-7.85c-3.1.58-5.07,7.17-8.83,6.63s-1.84-3.72,2.17-5.78a6,6,0,0,0,3.32-5.33A40.72,40.72,0,0,0,42,185.64c-.06.2-.11.42-.16.64-1,5.46-7.19,9.48-9.6,6.92s2.2-6.67,3.62-8.93a8.08,8.08,0,0,0,1-2.22c-3.6-2.43-6.9-4.55-9.91-6.29-.42,3.39.93,7.33-.8,9.21-2.56,2.77-5.68,0-4-5.21a7.4,7.4,0,0,0-.47-6,3.74,3.74,0,0,0-1.8-1.62c-.92-.39-1.81-.73-2.66-1a10,10,0,0,0-11.32,4.4,38.14,38.14,0,0,0-2,4.14,7.15,7.15,0,0,0,4.75,6.74c5,2.11,5.15,6.28,1.38,6.45-2.83.13-5.17-4.3-8.55-5.87A51.61,51.61,0,0,0,0,198.72a7.86,7.86,0,0,0,3.16,1.12c2.65.37,8.76-.51,9.17,3S5.68,208.44.85,205.71l-.49-.25A65.86,65.86,0,0,0,2,214.39,5.93,5.93,0,0,0,7.88,215Zm14.69,1.79c2.76.71-2.39,6.89-4.22,4.46a1.76,1.76,0,0,1-.09-1.93C18.91,218.21,20.37,216.27,22.57,216.83Zm-7.64-8.57a1.41,1.41,0,0,1,.68,0c.75.07,2.63.36,3.43,1.63C20,211.38,11.56,209.84,14.93,208.26Zm23,3.44s4-4.86,5.2-3S36.31,216.59,37.9,211.7Zm-6.81-10.76c.48-.93,1.6-2.76,3-2.84,1.92-.12,2.05,2.5.6,3.53-1.24.87-3.07,2.05-3.68.77A1.67,1.67,0,0,1,31.09,200.94Z"/><path class="cls-4" d="M39.37,237.08H42.3c-.38-.65-.81-1.36-1.3-2.16l-1.1-1.84c-4.73-7.83-26-55.06-26-55.06C17,188.54,33.7,229,36.54,232.77A50.66,50.66,0,0,1,39.37,237.08Z"/><path class="cls-4" d="M21.36,197.14a25.55,25.55,0,0,0-10.47-1.83,25.5,25.5,0,0,1,11.73,5.07Z"/><path class="cls-4" d="M21.77,196.73a25.5,25.5,0,0,1,4.84-9.46,25.43,25.43,0,0,0-3,12.42Z"/><path class="cls-4" d="M28.54,211.48a25.52,25.52,0,0,1,7.78-7.24,25.42,25.42,0,0,0-7.07,10.64Z"/><path class="cls-4" d="M35.14,224.12a25.61,25.61,0,0,1,6.61-8.33,25.47,25.47,0,0,0-5.4,11.59Z"/><path class="cls-4" d="M27.67,212.4A25.56,25.56,0,0,0,17.16,214a25.48,25.48,0,0,1,12.74,1.07Z"/><path class="cls-4" d="M33.48,225.42a25.56,25.56,0,0,0-10.63,0,25.44,25.44,0,0,1,12.43,3Z"/><path class="cls-3" d="M90.26,235.63a11.59,11.59,0,0,0,.55-4.38c-.4-5.94-1.49-5.66.72-8.4s3.53-3.25,2.47-7.33-1.46-6.81,1.74-9.43,3.28-7.1,1.3-11,1.88-6.77,3.26-12.8S98.09,170,98.09,170c0,8.88-8.14,11.24-10.78,16s1.63,6.75-1.28,10-6.3,3.14-5.36,6.46,3.36,8.8-1.16,10.95-2.31,5.13-.87,9.25.34,6-3.9,10.28a3.5,3.5,0,0,0-1.23,2.63Z"/><path class="cls-4" d="M82,235.63l12.18-47.18a.43.43,0,0,0-.29-.52h0a.41.41,0,0,0-.51.31L81.08,235.63Z"/><path class="cls-3" d="M169.52,235.63a11.79,11.79,0,0,1-.54-4.38c.39-5.94,1.49-5.66-.73-8.4s-3.52-3.25-2.47-7.33,1.47-6.81-1.73-9.43-3.28-7.1-1.31-11-1.87-6.77-3.25-12.8,2.2-12.27,2.2-12.27c.05,8.88,8.15,11.24,10.78,16s-1.63,6.75,1.29,10,6.29,3.14,5.36,6.46-3.36,8.8,1.15,10.95,2.32,5.13.88,9.25-.35,6,3.9,10.28a3.45,3.45,0,0,1,1.22,2.63Z"/><path class="cls-4" d="M177.84,235.63l-12.19-47.18a.44.44,0,0,1,.3-.52h0a.42.42,0,0,1,.51.31l12.24,47.39Z"/><path class="cls-5" d="M124.47,70.08c-.49.19-1,.36-1.48.51l-3.77-7.71a5.74,5.74,0,0,1,1.2-1.09Z"/><path class="cls-6" d="M116.63,54.05l3.79,7.74a5.74,5.74,0,0,0-1.2,1.09l-4-8.25A6.65,6.65,0,0,0,116.63,54.05Z"/><path class="cls-7" d="M116.63,54.05a6.65,6.65,0,0,1-1.45.58L110,44.05l1.51-.44Z"/><path class="cls-6" d="M99.12,18.28l12.39,25.33-1.51.44L97.72,19Z"/><path class="cls-6" d="M165.38,154.66l-1.39.68L123,70.59c.5-.15,1-.32,1.48-.51Z"/><path class="cls-8" d="M104,25.63l-2.06,1-1.26.62s1.32-2.61-5.82-4.83c-.48-9.83-1.22-15.31-1.22-15.31L105,17.46C102.74,22.13,101.87,21.26,104,25.63Z"/><path class="cls-9" d="M102,26.63l-1.26.62s1.32-2.61-5.82-4.83c-.48-9.83-1.22-15.31-1.22-15.31Z"/><path class="cls-10" d="M121,76.13l-.36.3-.35.28-.69.56-1.41,1.09c-.94.71-1.89,1.41-2.86,2.09s-2,1.35-2.94,2-2,1.28-3.05,1.9-2.09,1.21-3.16,1.79-2.2,1.14-3.36,1.66a38,38,0,0,1-3.7,1.45l-1,.31-.54.14-.27.07-.13,0-.15,0L96.4,90l-.29.05-.23,0-.27,0-.54,0h-.56a7.37,7.37,0,0,1-1.14-.08,5.67,5.67,0,0,1-.57-.1l-.56-.13-.54-.17-.27-.09-.25-.1-.5-.22c-.17-.07-.31-.16-.47-.24l-.44-.26-.41-.26a11.85,11.85,0,0,1-2.44-2.3A15.36,15.36,0,0,1,85.44,84a22.09,22.09,0,0,1-1-2.07A31.22,31.22,0,0,1,83,78c-.38-1.26-.68-2.51-.94-3.74A72.87,72.87,0,0,1,81,67c-.13-1.21-.23-2.41-.29-3.62,0-.6-.07-1.2-.09-1.81l0-.92v-1a5.59,5.59,0,0,1,11.14-.62l0,.19.16,1.55c.06.54.11,1.08.18,1.62.12,1.08.25,2.15.4,3.22.28,2.14.61,4.25,1,6.28.1.5.21,1,.32,1.49s.24,1,.37,1.44a24.9,24.9,0,0,0,.84,2.6c.15.38.31.73.46,1a5.52,5.52,0,0,0,.39.68c.09.15.13.18,0,.1l-.05,0s0,0-.08,0l-.09,0-.1,0h-.06l-.06,0-.14,0-.14,0L95,79a1.43,1.43,0,0,0-.29,0h-.3s0,0,0,0l.13,0,.26,0h.07l.07,0,.15,0,.29-.06.64-.14c.87-.22,1.82-.51,2.78-.84l1.45-.53.74-.29.74-.29c1-.4,2-.83,3-1.27,2-.89,4-1.83,6-2.8l3-1.46,3-1.47.08,0a3.84,3.84,0,0,1,4.15,6.4Z"/><path class="cls-7" d="M111.86,76.94c1.24,2,2.94,3.78,4.26,3.85a1.47,1.47,0,0,0,1.43-1,.46.46,0,0,0-.84-.39c-.18.39-.37.43-.54.42-1.28-.06-3.92-3.36-4.87-6.08-.38-1.11-.31-1.68-.13-1.84.42-.37,1,0,1,.08a.46.46,0,1,0,.58-.72,1.74,1.74,0,0,0-2.22-.06c-.57.5-.61,1.45-.13,2.84A14.12,14.12,0,0,0,111.86,76.94Z"/><path class="cls-11" d="M95.28,78.87a1.43,1.43,0,0,1,0,.22c0,.2-.08.4-.13.58a9.62,9.62,0,0,1-1,2.36.25.25,0,0,0,0,.07.21.21,0,0,0,.1.23.21.21,0,0,0,.29-.07,10,10,0,0,0,1.1-2.9c0-.14.05-.28.07-.42a.22.22,0,0,0,0-.14.28.28,0,0,0-.15-.11A.22.22,0,0,0,95.28,78.87Z"/><path class="cls-11" d="M93.06,80.12l-.07,0a.2.2,0,0,0-.07.23.21.21,0,0,0,.26.15,10,10,0,0,0,1.93-.87,5,5,0,0,0,.47-.29.11.11,0,0,0,.06-.07l.06-.37a.22.22,0,0,0,0-.14l-.44.29A9.59,9.59,0,0,1,93.06,80.12Z"/><path class="cls-10" d="M121.85,76s5.09-.8,6.74-3.55c1.84-3.09-2.89-9.15-4.81-10.22-2.41-1.33-5,2.28-5,2.28a1.87,1.87,0,0,0-2.19.12c-1,.89-1.38,5.85-1.38,5.85S116.45,76.2,121.85,76Z"/><path class="cls-12" d="M119.18,70.36a.9.9,0,0,0,.79-.53c.64-1.15.3-3.48.29-3.58a.31.31,0,0,0-.35-.26.31.31,0,0,0-.25.35,6.61,6.61,0,0,1-.22,3.2c-.13.24-.27.22-.32.21-.45-.08-1.2-1-1.42-2.42a.32.32,0,0,0-.35-.25.3.3,0,0,0-.25.35c.24,1.49,1.08,2.77,1.91,2.92Z"/><path class="cls-12" d="M123.42,72a.3.3,0,0,0,.24-.12,9.7,9.7,0,0,1,3.13-2.57.31.31,0,0,0,.18-.4.31.31,0,0,0-.4-.17,10.25,10.25,0,0,0-3.39,2.76.31.31,0,0,0,0,.43A.3.3,0,0,0,123.42,72Z"/><path class="cls-12" d="M121.42,70.05a.28.28,0,0,0,.24-.14,8,8,0,0,1,3.56-2.64.31.31,0,0,0,.18-.39.31.31,0,0,0-.39-.19,8.51,8.51,0,0,0-3.85,2.88.3.3,0,0,0,.08.42A.32.32,0,0,0,121.42,70.05Z"/><path class="cls-12" d="M120.05,67.53a.31.31,0,0,0,.25-.13A7,7,0,0,1,123.5,65a.31.31,0,0,0,.19-.39.3.3,0,0,0-.39-.18,7.55,7.55,0,0,0-3.51,2.59.31.31,0,0,0,.09.42A.34.34,0,0,0,120.05,67.53Z"/><path class="cls-12" d="M119,73.06a.45.45,0,0,0,.18-.07,5.33,5.33,0,0,0,1.93-4,.29.29,0,0,0-.3-.3h0a.29.29,0,0,0-.3.3,4.79,4.79,0,0,1-1.82,3.6C118.59,72.89,118.77,73.06,119,73.06Z"/><path class="cls-12" d="M124.84,73.67a.35.35,0,0,0,.26-.15.31.31,0,0,0-.1-.42s-4.84-3.06-5-7.82a.3.3,0,0,0-.31-.3.32.32,0,0,0-.3.32c.16,5.09,5.07,8.19,5.28,8.32A.33.33,0,0,0,124.84,73.67Z"/><path class="cls-13" d="M50.42,113.09s-3.63,33.28-11.24,43.42c0,0,4.59,21.68,47.39,15.26l-5.44-34Z"/><path class="cls-14" d="M73.49,69.33s-5.14,6.57-19.68,4.94C52.65,67.31,49.59,56,51,53.44c3.46-6.5,14.05-3.51,16.75-6.7l12.14,2.81s.28,1.67,3.25,2.73,9.36,2.89,9.69,6.94-.61,12.15-3.64,16.29a4.45,4.45,0,0,0-.49,1C84.92,76.35,76.89,76.24,73.49,69.33Z"/><path class="cls-15" d="M54.16,79c.18-.94-.56-5.67-.91-7.78,14.69,7.15,20-2.93,20-2.93,3.39,6.92,11.7,8,15.44,8.17-2.46,6.61-1.83,33.8-.29,40.29,0,0-25,4.71-39-2.92C49.36,113.86,53.39,83.09,54.16,79Z"/><path class="cls-14" d="M79.67,50.4c-3.43,6.66-11.88-1.79-12.14-3.63a40.59,40.59,0,0,0,1.38-9.53l10.82,3.59-.06.94a42.1,42.1,0,0,0-.1,4.53C79.61,47.05,79.55,49.61,79.67,50.4Z"/><path class="cls-12" d="M79.57,46.3c-5.66-1.12-9.45-6.84-9.45-6.84l9.55,2.31A42.1,42.1,0,0,0,79.57,46.3Z"/><path class="cls-10" d="M88.83,111.57S88,122.3,87.75,125.83c-.29,3.86-9.45,4-17.94,3.76s-20.44-5.79-20.74-9.22,1-11.76,1-11.76Z"/><path class="cls-10" d="M49.88,163.26c.33,4.81.58,10,.62,15.54-.81,2.65-4.7,7.81-.39,25.29,2,8.3,1.9,25.69,1.9,25.69l6.73.13s1.09-13.2,2.6-22.11A186.06,186.06,0,0,0,64,180.74c.1-2.61,1-7.73,2-14,.49-3.09,1-6.46,1.48-10,1.36-10,2.34-21.07,1.16-29.6l-18.93-9.36C46.62,129.57,48,141.22,49.3,156Q49.61,159.49,49.88,163.26Z"/><path class="cls-6" d="M58.43,181.66a8.33,8.33,0,0,0,3.59-.74.4.4,0,0,0,.18-.54.41.41,0,0,0-.54-.17A8.85,8.85,0,0,1,54.5,180a.39.39,0,0,0-.53.19.4.4,0,0,0,.2.53A10.24,10.24,0,0,0,58.43,181.66Z"/><path class="cls-6" d="M49.3,156q.31,3.53.58,7.3A79.07,79.07,0,0,0,66,166.7c.49-3.09,1-6.46,1.48-10Z"/><path class="cls-10" d="M58.69,227.34s1.64,4.09,2.66,6.18,5.35,4.15,5.32,5.82-9.93,1.21-13.33.75-2.48-5.56-1.23-11.17C53.11,224.44,58.69,227.34,58.69,227.34Z"/><path class="cls-10" d="M70.07,129.37c1.39,8.41,2.45,16.15,6.75,27.77,1.16,3.12,2.55,6.52,4.24,10.29,1.24,2.76,2.64,5.71,4.24,8.9,0,0-5.91,11-1.5,22.51,3.06,8,1,31.57,1,31.57l7.62.15s9.47-48.57,9-56.26A68.48,68.48,0,0,0,99.83,166c-.53-2.34-1.19-5-2-8a320.07,320.07,0,0,0-10.12-32.21Z"/><path class="cls-6" d="M97.42,176a8,8,0,0,0,3.69-.9.4.4,0,1,0-.4-.7,7.24,7.24,0,0,1-5.18.52.41.41,0,0,0-.5.27.41.41,0,0,0,.27.5A7.45,7.45,0,0,0,97.42,176Z"/><path class="cls-6" d="M76.82,157.14c1.16,3.12,2.55,6.52,4.24,10.29A155.79,155.79,0,0,0,99.83,166c-.53-2.34-1.19-5-2-8Z"/><path class="cls-10" d="M92.66,229.32s.31,3.15,2.91,3.87,13.53,4,14.52,4,.6,1.46-1,2.19-12.28-.21-14.66,0-8.75,1-10.69-.47,1.07-9.21,1.07-9.21Z"/><path class="cls-13" d="M51.89,85.28c23.48-7,29.24-35.71,29.24-35.71,2.39-.13,4.85,1.66,6.33,4C85.22,63.29,77.45,89.36,51.89,85.28Z"/><path class="cls-3" d="M49.94,107l2-21.69c1-.07,2.14-.22,3.1-.38,17.55,11.17,33.34-7.62,33.34-7.62l.85,33.63Z"/><path class="cls-13" d="M54.86,84.93a32.18,32.18,0,0,0,4.43-1c22.5,3.76,29.78-19.11,31.76-28.09a26,26,0,0,1,1.74,3.41A34,34,0,0,1,89.57,75.3c-1.52,3-4.27,5.16-6.91,7.13a33.89,33.89,0,0,1-7.15,4.12,21.89,21.89,0,0,1-19.37-.86C55.91,85.56,55.09,84.89,54.86,84.93Z"/><path class="cls-16" d="M56.66,84.73c-.48.12-1,.23-1.47.32a.89.89,0,0,0-.33-.12,32.18,32.18,0,0,0,4.43-1c22.5,3.76,29.83-19.07,31.81-28.05a25.53,25.53,0,0,1,1.74,3.4c0,.36,0,.71,0,1.06C88.59,71.74,78.28,89.83,56.66,84.73Z"/><path class="cls-3" d="M88.55,113.31s5.29,21,18.78,46.77c0,0-32.47,13.35-61.09-.35,0,0-4.13-34.16,3.85-52.4C50.09,107.33,67.63,117.09,88.55,113.31Z"/><path class="cls-17" d="M81.08,143.71c4.45,0,5.09-2.41,5.12-2.53a.31.31,0,0,0-.22-.37.3.3,0,0,0-.36.22,2.41,2.41,0,0,1-1.17,1.32c-.93.55-2.76,1.09-6.2.48-6.76-1.21-20-14.83-20.19-15a.29.29,0,0,0-.42,0,.31.31,0,0,0,0,.43c.55.57,13.56,13.9,20.51,15.13A16.79,16.79,0,0,0,81.08,143.71Z"/><path class="cls-17" d="M62.79,159.33c-8-1.68-11.43-4.59-11.58-4.72a.4.4,0,0,1-.12-.21,108.35,108.35,0,0,1-.32-33.92,88.28,88.28,0,0,1,3.16-14.23.36.36,0,0,1,.45-.23.37.37,0,0,1,.22.47,88.52,88.52,0,0,0-3.12,14.12,107.5,107.5,0,0,0,.29,33.52c.61.48,4.1,3,11.16,4.49s19.53,2.23,37.83-2.9a115.91,115.91,0,0,1-5.45-11.28,168.28,168.28,0,0,1-9.74-31.1.37.37,0,0,1,.28-.44.36.36,0,0,1,.42.29A168.16,168.16,0,0,0,96,144.13a109.45,109.45,0,0,0,5.66,11.63.39.39,0,0,1,0,.32.41.41,0,0,1-.23.22,105,105,0,0,1-23.07,4.07c-1.76.09-3.48.12-5.15.09A55.1,55.1,0,0,1,62.79,159.33Zm-11.35-5Z"/><path class="cls-13" d="M88.73,108.63s-19.85,2.89-38-7c-.46,1.66-.55,4-1,6.82,0,0,18.78,10.57,38.89,5.93A8,8,0,0,0,88.73,108.63Z"/><path class="cls-3" d="M59.29,83.9C80,77.42,85.73,51.51,85.73,51.51c2.12-.11,4,2.19,5.32,4.3C89.07,64.79,81.79,87.66,59.29,83.9Z"/><path class="cls-7" d="M73.3,49.57c3.23.3,6.65,0,7.84-1.45a2,2,0,0,0,.15-2.37.64.64,0,1,0-1.13.59c.27.52.15.77,0,.95-1.15,1.36-7,1.47-10.81.21-1.54-.51-2.11-1.07-2.13-1.39,0-.79.86-1,1-1.07a.66.66,0,0,0,.47-.78.65.65,0,0,0-.77-.47,2.4,2.4,0,0,0-1.94,2.4c.06,1,1.08,1.89,3,2.53A20.57,20.57,0,0,0,73.3,49.57Z"/><path class="cls-7" d="M73.51,45.94c3.06.28,6.29,0,7.42-1.37a1.9,1.9,0,0,0,.15-2.25.61.61,0,0,0-1.08.57c.26.49.15.73,0,.9-1.08,1.28-6.63,1.39-10.23.2-1.47-.49-2-1-2-1.33,0-.74.82-1,.92-1a.61.61,0,0,0-.29-1.18,2.27,2.27,0,0,0-1.84,2.27c.06,1,1,1.79,2.85,2.4A18.8,18.8,0,0,0,73.51,45.94Z"/><path class="cls-12" d="M81.89,32.81s.75-2.66,2.92-2.12,2.45,7.68-1.64,7.57Z"/><path class="cls-18" d="M80.09,40.35a3.57,3.57,0,1,1,4.08,3A3.58,3.58,0,0,1,80.09,40.35Zm.53-.08a3,3,0,1,0,2.52-3.48A3,3,0,0,0,80.62,40.27Z"/><path class="cls-10" d="M67.71,37.67c1.32,3,9.43,6.28,12.64,4.63,2-1,3.63-2.93,4.44-7.06,0,0,0,0,0-.06,0-.25.09-.49.13-.72.07-.43.13-.85.18-1.25l0-.28c0-.25,0-.49,0-.72a7.54,7.54,0,0,0,0-.81c0-4.11,0-8.73-3.87-11.13s-9.72-2.85-12.92,1c0,0-2.35,3.31-2,9.23S66.76,35.49,67.71,37.67Z"/><path class="cls-6" d="M79.36,37.86A4.45,4.45,0,0,1,76.11,36a.23.23,0,0,1,.07-.32.25.25,0,0,1,.32.07,3.81,3.81,0,0,0,3.72,1.63.22.22,0,0,1,.26.18.23.23,0,0,1-.19.27A3.71,3.71,0,0,1,79.36,37.86Z"/><path class="cls-19" d="M76.09,30.94c-.06.44.12.82.4.86s.55-.29.61-.73-.13-.82-.41-.86S76.14,30.5,76.09,30.94Z"/><path class="cls-19" d="M80.91,31.79c0,.44.13.82.41.86s.55-.29.61-.73-.13-.82-.41-.86S81,31.35,80.91,31.79Z"/><path class="cls-12" d="M84.67,35.79c0-.23.16-.45.19-.67.07-.4.13-.79.17-1.16l0-.26h-.19c-1.44,0-2.6.48-2.6,1.06S83.3,35.77,84.67,35.79Z"/><path class="cls-12" d="M71.07,34c0,.57,1.16,1,2.6,1s2.6-.47,2.6-1-1.17-1.05-2.61-1S71.06,33.43,71.07,34Z"/><path class="cls-19" d="M77,26.85a2.9,2.9,0,0,0-2.65.7c-.64.62-.1,1.3.77.78a3.16,3.16,0,0,1,1.7-.56A.47.47,0,0,0,77,26.85Z"/><path class="cls-19" d="M81.51,27.14a3,3,0,0,1,2.71.47c.68.57.2,1.29-.7.85A3.23,3.23,0,0,0,81.78,28,.47.47,0,0,1,81.51,27.14Z"/><path class="cls-10" d="M69,30.68a2.8,2.8,0,0,0-3.55-1.15c-2.23,1-1,8.82,3.36,7.85Z"/><path class="cls-18" d="M65.48,36.06c.13.14.21.29.35.43a3,3,0,1,0,3.88,2.43,3,3,0,0,0-1.94-2.37c-.67-.18-.77-.44-.81-.72a3.61,3.61,0,1,1-1.48.23Z"/><path class="cls-6" d="M68.11,34.35a.2.2,0,0,1-.14.26h0a.2.2,0,0,1-.21-.15,4.43,4.43,0,0,0-.77-1.41c-.42.4-.76.77-.76.77a.21.21,0,0,1-.15.07.22.22,0,0,1-.15-.06.21.21,0,0,1,0-.3s.35-.38.78-.79a2.52,2.52,0,0,0-1.34-.68.21.21,0,0,1-.17-.24.22.22,0,0,1,.25-.18A3.84,3.84,0,0,1,68.11,34.35Z"/><path class="cls-12" d="M78.93,39.4l.17,0a.22.22,0,0,0,.15-.26A.22.22,0,0,0,79,39a1.41,1.41,0,0,1-1.33-.4c-.12-.14-.39-.08-.4.21A1.79,1.79,0,0,0,78.93,39.4Z"/><path class="cls-6" d="M79.52,34.58a2.41,2.41,0,0,1-.54,0h0c-.23-.25,0-.52.17-.51a1.57,1.57,0,0,0,1.18-.46,13,13,0,0,1-1.54-4,.27.27,0,0,1,.53-.12c.18.87.83,3.28,1.55,3.92a.26.26,0,0,1,0,.35A2.13,2.13,0,0,1,79.52,34.58Z"/><path class="cls-4" d="M75.83,33a6.11,6.11,0,0,0,2.31-.43.23.23,0,0,0,.12-.31.23.23,0,0,0-.31-.12,6,6,0,0,1-5.16-.47.24.24,0,0,0-.25.41A6.32,6.32,0,0,0,75.83,33Z"/><path class="cls-4" d="M75.83,34a6.11,6.11,0,0,0,2.31-.43.23.23,0,0,0,.12-.31.23.23,0,0,0-.31-.12,6,6,0,0,1-5.16-.47.25.25,0,0,0-.33.08.24.24,0,0,0,.08.33A6.32,6.32,0,0,0,75.83,34Z"/><path class="cls-4" d="M81.53,33.39a.25.25,0,0,1-.08-.33.25.25,0,0,1,.33-.08,5.82,5.82,0,0,0,3.25.84c0,.15,0,.31-.07.49h-.14A6.32,6.32,0,0,1,81.53,33.39Z"/><path class="cls-4" d="M81.78,34.05a5.82,5.82,0,0,0,3.09.84l-.09.48a6.29,6.29,0,0,1-3.25-.92.24.24,0,0,1-.08-.32A.23.23,0,0,1,81.78,34.05Z"/><path class="cls-4" d="M81.36,26.57a.27.27,0,0,0,.53,0,.27.27,0,0,0-.53,0Z"/><path class="cls-4" d="M82.83,26.66a.27.27,0,1,0,.26-.26A.27.27,0,0,0,82.83,26.66Z"/><path class="cls-4" d="M84,27.1a.27.27,0,1,0,.27-.27A.27.27,0,0,0,84,27.1Z"/><path class="cls-4" d="M76.13,26.14a.26.26,0,0,0,.26.26.27.27,0,0,0,0-.53A.26.26,0,0,0,76.13,26.14Z"/><path class="cls-4" d="M74.94,26.24a.27.27,0,1,0,.27-.27A.27.27,0,0,0,74.94,26.24Z"/><circle class="cls-4" cx="74.18" cy="26.77" r="0.26"/><path class="cls-4" d="M73.05,27.79a.26.26,0,0,0,.26.27.27.27,0,0,0,0-.53A.26.26,0,0,0,73.05,27.79Z"/><path class="cls-2" d="M78.74,50.2a.91.91,0,1,0,.9-.91A.9.9,0,0,0,78.74,50.2Z"/><path class="cls-2" d="M78.23,51.73a.91.91,0,1,0,.91-.9A.91.91,0,0,0,78.23,51.73Z"/><path class="cls-2" d="M77.56,53.24a.91.91,0,1,0,1.81,0,.91.91,0,0,0-1.81,0Z"/><path class="cls-2" d="M76.65,54.72a.91.91,0,1,0,.91-.91A.9.9,0,0,0,76.65,54.72Z"/><path class="cls-2" d="M75.75,56.16a.91.91,0,0,0,1.81,0,.91.91,0,1,0-1.81,0Z"/><path class="cls-2" d="M74.84,57.58a.91.91,0,1,0,.91-.9A.9.9,0,0,0,74.84,57.58Z"/><path class="cls-2" d="M73.49,58.49a.91.91,0,1,0,.91-.91A.91.91,0,0,0,73.49,58.49Z"/><circle class="cls-2" cx="72.59" cy="58.83" r="0.91"/><path class="cls-2" d="M69.87,58.49a.91.91,0,1,0,.9-.91A.9.9,0,0,0,69.87,58.49Z"/><path class="cls-2" d="M68.55,57.41a.91.91,0,1,0,.91-.91A.91.91,0,0,0,68.55,57.41Z"/><path class="cls-2" d="M67.64,56.16a.91.91,0,1,0,.91-.91A.9.9,0,0,0,67.64,56.16Z"/><path class="cls-2" d="M66.73,54.52a.92.92,0,1,0,.91-.91A.92.92,0,0,0,66.73,54.52Z"/><path class="cls-2" d="M66.39,52.89A.92.92,0,1,0,67.3,52,.91.91,0,0,0,66.39,52.89Z"/><path class="cls-2" d="M66.25,51.27a.92.92,0,1,0,.92-.91A.92.92,0,0,0,66.25,51.27Z"/><path class="cls-2" d="M66.25,49.56a.92.92,0,1,0,.92-.91A.92.92,0,0,0,66.25,49.56Z"/><circle class="cls-2" cx="67.03" cy="48.02" r="0.91"/><path class="cls-19" d="M70.15,21.51S66.78,22,67.83,19a2.2,2.2,0,0,1,2.25-1.47s-1.61-2.39.39-3.2c1.27-.52,2.56.91,2.56.91s.4-2.36,2.22-2,1.17,1.87,1.17,1.87,2.6-2.28,4.16-1.27.59,2.15.59,2.15,2.66-1.73,3.94.54A1.81,1.81,0,0,1,84,19.44a1.84,1.84,0,0,1,1.65,2c0,2.32-3,2.19-3,2.19S71.59,19.69,70.15,21.51Z"/><path class="cls-10" d="M52.79,52l-4.41,5.71Q46.19,60.54,44,63.42c-.73,1-1.44,1.94-2.16,2.91s-1.43,2-2.13,3-1.41,2-2.1,3.11c-.35.54-.7,1.09-1,1.67s-.69,1.18-1,1.86l-.13.27a1.69,1.69,0,0,0-.13.27l-.14.28-.13.31-.06.15-.07.17-.07.18,0,.08-.05.14a6.43,6.43,0,0,0-.38,1.75,8,8,0,0,0,0,1.4A9.17,9.17,0,0,0,34.58,82c.08.32.16.62.25.89s.18.51.27.75A21.9,21.9,0,0,0,36.21,86c.37.68.74,1.3,1.13,1.89a17.49,17.49,0,0,0,1.2,1.65A18.38,18.38,0,0,0,39.85,91c.45.46.92.89,1.38,1.32s.94.84,1.41,1.24a70.62,70.62,0,0,0,5.86,4.49c1,.69,2,1.36,3.06,2,.52.32,1,.63,1.58.94l.8.44.83.44A3.25,3.25,0,0,0,58.9,97.1L58.8,97c-.16-.22-.35-.45-.53-.68s-.36-.46-.54-.69l-1.11-1.37c-.73-.9-1.48-1.79-2.22-2.68-1.49-1.77-3-3.52-4.39-5.24L49,85c-.35-.42-.67-.86-1-1.27-.67-.83-1.36-1.61-2-2.31-.33-.35-.64-.69-.9-1a6.4,6.4,0,0,1-.56-.75.5.5,0,0,1,0-.07s0,0,0,0a1.62,1.62,0,0,1,0,.23,2.92,2.92,0,0,1,0,.52,3.6,3.6,0,0,1-.19.88v0h0v0l0,0,0,0,0-.1.06-.11.07-.12.07-.13c.21-.36.47-.77.75-1.19s.58-.85.89-1.28l1-1.32c.33-.44.68-.88,1-1.32,1.4-1.75,2.88-3.51,4.4-5.24s3.08-3.44,4.67-5.14c.79-.84,1.59-1.68,2.4-2.51l1.21-1.24,1.22-1.21,0,0a6.25,6.25,0,0,0-8.82-8.87A7.72,7.72,0,0,0,52.79,52Z"/><path class="cls-7" d="M51.67,71.57s-5-7-8.48-7.11c0,0-3.34,2.72-4,5.75,0,0,5.65,3,7.8,7A6.82,6.82,0,0,0,51.67,71.57Z"/><path class="cls-3" d="M63.92,58.43s-2.15,4.59-3.77,5-.51-5.84-.51-5.84a6.68,6.68,0,0,1-4.26,2.28c-2.49.12.75-5,.75-5S53.27,57.4,51.3,57s2.89-4.16,2.89-4.16-3.43,2.17-4.64.74,5-4.09,5-4.09S65.88,46.49,63.92,58.43Z"/><path class="cls-6" d="M56.3,98.75s6.34-5,8.62-5.3.92,1.29.16,2.15S56.3,98.75,56.3,98.75Z"/><path class="cls-10" d="M55.11,100.62A4,4,0,0,0,59.44,104a9.91,9.91,0,0,1,3.3.21c2.27.67,4.77,2.1,6,2.12,1.84,0,.51-1.45.32-1.61a27,27,0,0,0-3.14-2.14s3.88,1.12,5.1,2.13,2.63.71,2-.88-4.62-3.71-5.89-4a8.44,8.44,0,0,1,4.28,1.38,6.44,6.44,0,0,0,3.36,1.66c.86.11.92-1.64-1.52-3.4a9.44,9.44,0,0,0-5.25-2,15.24,15.24,0,0,1,3.1-.33c2,0,3.81,1.62,4.84,1.09s-1.16-2.38-2.83-2.84a11.08,11.08,0,0,0-5.06-.66,27.82,27.82,0,0,0-5.58,1.08c-1.28.48-6.06,1.59-7.13,3.25A2.47,2.47,0,0,0,55.11,100.62Z"/><g class="cls-20"><circle class="cls-2" cx="50.05" cy="74.55" r="0.75"/><circle class="cls-2" cx="48.28" cy="73.1" r="0.75"/><circle class="cls-2" cx="46.5" cy="71.64" r="0.75"/><path class="cls-2" d="M44,70.19a.75.75,0,1,0,.75-.75A.75.75,0,0,0,44,70.19Z"/><circle class="cls-2" cx="42.95" cy="68.73" r="0.75"/><path class="cls-2" d="M40.43,67.28a.75.75,0,1,0,.75-.75A.75.75,0,0,0,40.43,67.28Z"/></g><path class="cls-6" d="M62.13,67.64c0,.21.33.38.75.38s.75-.17.75-.38-.34-.38-.75-.38S62.13,67.43,62.13,67.64Z"/><polygon class="cls-13" points="162.94 165.86 162.94 171.51 177.42 184.46 191.9 169.7 191.35 164.92 162.94 165.86"/><path class="cls-6" d="M126,98.43a1.76,1.76,0,0,0,1.38-.79c.08.25.22.44.44.36.55-.2.62-.66,1-1.86s3.3-3.06,3.3-3.06a3.06,3.06,0,0,0-.73,0c.54-.43.95-.72.95-.72a5.18,5.18,0,0,0-5.59,2.27C125.81,96.33,124.79,98.46,126,98.43Z"/><path class="cls-21" d="M140.88,88.22a2.28,2.28,0,0,0-2.82-1.35c-2.77.83-9.18,2.84-10.55,4-1.77,1.45-1.57,3.86-4.33,6.6,0,0,.43,1.74,2.51,0s2.45-3.27,3.55-3.68,3.95-.14,4,.48-1.77,1.87-2.47,2.15-2.14.85-1.68,1.59,2.1.13,4.07-.34,3.19-2.91,4.8-4.29C140,91.49,141.48,89.82,140.88,88.22Z"/><path class="cls-6" d="M222.42,114.25a1.77,1.77,0,0,1-1.06-1.18c-.16.21-.35.35-.53.2-.46-.36-.39-.82-.34-2.07s-2.19-3.94-2.19-3.94a3.69,3.69,0,0,1,.71.18c-.38-.58-.67-1-.67-1a5.19,5.19,0,0,1,4.6,3.91C223.25,112.31,223.56,114.65,222.42,114.25Z"/><path class="cls-21" d="M211.47,99.9a2.3,2.3,0,0,1,3.1-.4c2.37,1.65,7.83,5.56,8.79,7.06,1.22,1.92.29,4.15,2,7.62,0,0-.94,1.51-2.36-.82s-1.31-3.86-2.23-4.6-3.71-1.36-3.91-.78,1.1,2.33,1.67,2.82,1.77,1.47,1.1,2-2-.54-3.76-1.6-2.12-3.75-3.21-5.57C211.26,103.27,210.4,101.24,211.47,99.9Z"/><path class="cls-21" d="M215.13,225.77l-9.34-4.28c-3.1-10.94-10.31-30-17.4-53.57q-1.09-3.63-2.18-7.4c-3.35-8.43-4.26-13.78-6.71-24.87-1.2-5.41-2-9.83-2.42-12.34-.24-1.46-.36-2.28-.36-2.28-.32-5.91,11.33-19.67,14.76-12a111.24,111.24,0,0,1,5.25,14.48c1.06,3.67,1.9,7.21,2.55,10.51a173.53,173.53,0,0,1,2.95,23.89c2.36,8.54,4.67,25.23,5.56,32.37S215.13,225.77,215.13,225.77Z"/><path class="cls-22" d="M202.15,156.43l-13.76,11.49,1.8,5.88s13.43-9.91,13.3-10.57Z"/><path class="cls-21" d="M173.87,123.27a103.25,103.25,0,0,1-1,11.91,96.7,96.7,0,0,1-6.08,23.39c5.13,8.83-3.57,27.66-4.94,34.73s-5.35,35.48-5.35,35.48l-7-2.53c2.81-12.18,3-67.34,3-67.34a216.87,216.87,0,0,1,1.6-27.74c.36-3,.75-5.71,1.13-8.12A121.24,121.24,0,0,1,158,110.23c1.54-5.72,14.58-6.59,15.44,1.78A92.36,92.36,0,0,1,173.87,123.27Z"/><polygon class="cls-22" points="152.53 158.77 167.86 171.83 166.36 178.29 152.42 167.27 152.53 158.77"/><path class="cls-23" d="M158,228.54a6.23,6.23,0,0,1-.07-.85l2.55-25.12-9.78-1-2.89,26c-.29.26-.62.54-1,.89-1.95,1.75-5.27,2.91-8.09,4.09-3.65,1.53-4.68,3-4.89,4.1a1.94,1.94,0,0,0,.21,1.36h24.57a3.44,3.44,0,0,0,.32-1.36c.16-2.08-.51-5.4-.83-7.49C158.1,229,158.07,228.75,158,228.54Z"/><path class="cls-24" d="M150,207.89s9.92.23,9.91.34-.64,6.28-.64,6.28l-9.94-.59Z"/><path class="cls-25" d="M161.27,202.16s2.49,10.65.34,10.64c-1.19,0-2.5-4.88-2.5-4.88s.13,4.18-1.09,5.11-1.66-4.82-1.66-4.82-.7,4.23-1.77,4.4c-1.48.25-.17-5.21-.17-5.21s-1.25,4.66-2.7,5.35.43-5.62.43-5.62-2.1,5.18-3.54,5.23c-1.79.07,1.49-5.31,1.49-5.31s-2.7,4.41-4,3.92,3.81-9.59,3.81-9.59S155.91,202.09,161.27,202.16Z"/><path class="cls-18" d="M134.08,238.07h24.57a3.44,3.44,0,0,0,.32-1.36h-25.1A1.94,1.94,0,0,0,134.08,238.07Z"/><path class="cls-19" d="M184.91,41.63a6,6,0,0,1,.29-5.48c2-3.82,1.66-6.86-.5-9.73-3.51-4.67-10.46-4.37-12.6-3.24,0,0-4.67,2.64-3.83,6.43.66,2.94,1.42,2.69.22,4.25a5,5,0,0,0-.34,5.61c.32.5.26.79,0,1C170.63,41.67,177.76,44.36,184.91,41.63Z"/><path class="cls-13" d="M171.4,58.06l0,.41,0,.39-.06.78c-.05.51-.1,1-.16,1.54s-.13,1-.2,1.54-.14,1-.23,1.53c-.32,2-.71,4.08-1.19,6.12s-1,4.06-1.72,6.12c-.35,1-.73,2.05-1.17,3.1s-.7,3.46-1.36,4.59A15.71,15.71,0,0,1,164,86c-.26.31-.54.64-.89,1l-.28.26c-.11.09-.2.18-.32.27l-.17.13-.18.14-.19.14-.19.13a8.89,8.89,0,0,1-1.14.61,9.77,9.77,0,0,1-.91.4c-.58.23-1.12.42-1.65.6-1.06.35-2.08.63-3.1.89s-2,.49-3.05.7-2,.4-3,.57L147.4,92l-.76.11-.76.1c-1,.13-2,.24-3.07.33l-1.55.1c-.52,0-1,0-1.56.06l-1.36-5.81c1.81-.94,3.67-1.77,5.51-2.57l.7-.3.69-.29,1.38-.58,2.76-1.12L152.1,81c.89-.36,1.78-.72,2.6-1.08.41-.19.81-.37,1.15-.54l.46-.24c.12-.07.22-.14.18-.13l0,0,0,0-.06,0,0,0h0a.76.76,0,0,1,.09-.15,6.84,6.84,0,0,0,.44-.75,22.15,22.15,0,0,0,1-2.2c.32-.82.64-1.68.94-2.56.61-1.76,1.18-3.59,1.74-5.45l1.67-5.62.42-1.42.43-1.41.44-1.42.22-.7.11-.35.11-.34Z"/><path class="cls-8" d="M159,81.17a.38.38,0,0,1-.33-.18,5.26,5.26,0,0,0-2.14-1.37.4.4,0,0,1-.24-.51.39.39,0,0,1,.5-.24,6.09,6.09,0,0,1,2.54,1.68.4.4,0,0,1-.11.55A.38.38,0,0,1,159,81.17Z"/><path class="cls-13" d="M204.47,154.22a85.33,85.33,0,0,0-6.15-31.84c-5.27-13.15-12-30.92-11.56-35.54C187,84,188.35,80,190,75.9c2.73-6.84,6.25-13.82,6.76-15.52a5,5,0,0,0-2-6,11.85,11.85,0,0,0-3.83-1.71c-6-1.65-7-3.93-7-3.93l-10.34,2a13.87,13.87,0,0,1-5,2.3c-2.25.31-4,.38-4.51,3a8.41,8.41,0,0,0,0,2.35c.2,1.87.72,3.64,0,4.69-1,1.5-3,4.93-3.3,8.34-.18,2.45,1.57,4.23,2.81,6.24a7.4,7.4,0,0,1,1.05,2.51c.63,3.23,1,9.82-.52,14.07-1,2.68-7.73,19.73-12.6,32-3.37,8.48-4.31,28-4.31,28l29.54,25.17,27.75-25.17Z"/><path class="cls-7" d="M147.81,146c-.46,4.7-.63,8.23-.63,8.23l29.54,25.17,27.75-25.17c0-2.8-.14-5.6-.41-8.38l-27.34,24.79Z"/><path class="cls-26" d="M176.72,166.62,148.2,142.31c-.15,1.28-.28,2.51-.39,3.68l28.91,24.64,27.34-24.79c-.12-1.21-.26-2.42-.43-3.62Z"/><polygon class="cls-13" points="147.18 154.22 153.67 150.99 152.95 159.16 161.22 157.42 160.43 165.47 167.91 163.12 166.91 171.02 174.87 169.05 173.42 176.57 147.18 154.22"/><polygon class="cls-13" points="204.58 154.16 198.47 150.92 199.15 159.12 191.36 157.37 192.11 165.44 185.06 163.09 186.01 171.01 178.51 169.03 179.88 176.57 204.58 154.16"/><path class="cls-13" d="M195.93,55.52c.54.93.51,1.45,1,2.4s1,1.91,1.44,2.87q1.4,2.88,2.68,5.8c.86,2,1.7,3.91,2.49,5.89s1.57,4,2.32,6l.53,1.45.1.28.13.3.26.62c.37.84.81,1.73,1.26,2.62s.92,1.8,1.4,2.71L211,89.2c1.38,2.61,1.72,3.22,2.94,5.58l.73,1.42.72,1.43c.47,1,.94,1.92,1.37,2.89l-5.25,3.78c-.83-.75-1.6-1.51-2.36-2.29L208,100.83l-1.1-1.21c-.36-.4-.72-.81-1.07-1.22l-1.06-1.24c-.69-.84-1.38-1.69-2-2.55s-1.25-1.52-1.89-2.42-1.34-2-1.95-3l-.45-.72-.22-.36-.22-.38c-.15-.25-.3-.5-.44-.76s-.29-.51-.43-.78l-.21-.41-.21-.42-.21-.42-.2-.46L195.66,83c-.84-1.93-1.67-3.89-2.47-5.86s-1.58-3.94-2.34-5.93-1.47-4-2.15-6c-.34-1-.67-2-1-3s-.62-2-.89-3.08Z"/><path class="cls-8" d="M203.4,82.12a.39.39,0,0,1-.28-.67,6.58,6.58,0,0,1,2.94-1.39.4.4,0,0,1,.47.31.41.41,0,0,1-.31.47h0A5.87,5.87,0,0,0,203.69,82,.37.37,0,0,1,203.4,82.12Z"/><path class="cls-19" d="M181.78,33.37s1.85,2.55.46,5-2.27,7.86-.35,10.08a14.19,14.19,0,0,0,5.42,3.39s-4.68-13.91-2-16.66A32,32,0,0,1,181.78,33.37Z"/><path class="cls-23" d="M218.25,228.34c-.55-1.05-1.5-2.88-2.23-4.39l-.4-.87c-2.84,4.11-8.69,4.41-10.56,4.4l.06.22a65.33,65.33,0,0,1-1.52,6.73c-1.44.68-3.63,3.82-3.64,5.41a.84.84,0,0,0,1,.93c2.89,0,6.7,0,9,0a3.55,3.55,0,0,0,3.12-1.79l4.35-7.58.32-.56,1-1.66Z"/><path class="cls-23" d="M215.62,223.08l0-.06c-.13-.3-.25-.56-.34-.79l-5.92-24L198,201.2c.12.56,6.37,23.82,7,26.28C206.93,227.49,212.78,227.19,215.62,223.08Z"/><path class="cls-24" d="M199.08,205.18s10.8-4.46,10.84-4.35l1.64,6.37-10.89,3.85Z"/><path class="cls-27" d="M218.71,229.21l-5.63,9.8A3.55,3.55,0,0,1,210,240.8c-2.33,0-6.14-.06-9,0a.84.84,0,0,1-1-.93l9.95,0a3,3,0,0,0,2.56-1.48l5.78-10Z"/><path class="cls-25" d="M209.33,197s4.88,8.17,2.8,8.75c-1.13.32-3.74-4-3.74-4s1.28,4,.36,5.22-2.93-4.18-2.93-4.18.5,4.26-.48,4.72c-1.35.65-1.6-5-1.6-5s.09,4.83-1.12,5.89-1.14-5.52-1.14-5.52-.58,5.56-2,6c-1.69.56,0-5.52,0-5.52s-1.38,5-2.8,4.89,1.5-9,1.5-9A105.11,105.11,0,0,0,209.33,197Z"/><path class="cls-8" d="M180.17,143.93h0c-7.75-.13-13.13-4.87-16.41-8.89a27.85,27.85,0,0,1-4.74-8.45.35.35,0,0,1,.66-.22,30.91,30.91,0,0,0,4.64,8.26c3,3.78,8.12,8.33,15.88,8.61a.35.35,0,0,1,.33.36A.33.33,0,0,1,180.17,143.93Z"/><path class="cls-8" d="M198.89,139.81a.34.34,0,0,1-.34-.27,235.12,235.12,0,0,0-13-37.13.35.35,0,0,1,.17-.46.34.34,0,0,1,.46.17,235.36,235.36,0,0,1,13.08,37.26.35.35,0,0,1-.25.42Z"/><path class="cls-2" d="M146.87,156.88a.38.38,0,0,1-.13-.52l.69-1.17.7-1.18a.38.38,0,0,1,.52-.13.39.39,0,0,1,.14.52l-.7,1.17-.7,1.18A.38.38,0,0,1,146.87,156.88Z"/><path class="cls-2" d="M148.79,158.29a.37.37,0,0,1-.13-.52l.7-1.17.7-1.17a.38.38,0,1,1,.65.38L150,157l-.7,1.17A.37.37,0,0,1,148.79,158.29Z"/><path class="cls-2" d="M150.29,159.85a.38.38,0,0,1-.13-.52l.7-1.18.7-1.17a.38.38,0,1,1,.65.39l-.7,1.17-.7,1.18A.38.38,0,0,1,150.29,159.85Z"/><path class="cls-2" d="M152.06,161.4a.39.39,0,0,1-.14-.52l.7-1.17.7-1.18a.38.38,0,0,1,.65.39l-.69,1.17-.7,1.18A.38.38,0,0,1,152.06,161.4Z"/><path class="cls-2" d="M153.69,162.86a.37.37,0,0,1-.13-.52l.7-1.17L155,160a.38.38,0,1,1,.65.39l-.7,1.18-.7,1.17A.37.37,0,0,1,153.69,162.86Z"/><path class="cls-2" d="M155.45,164.62a.37.37,0,0,1-.13-.52l.7-1.17.7-1.18a.38.38,0,0,1,.65.39l-.7,1.18-.7,1.17A.37.37,0,0,1,155.45,164.62Z"/><path class="cls-2" d="M157.17,166.18a.38.38,0,0,1-.13-.52l.7-1.18.7-1.17a.38.38,0,0,1,.65.39l-.7,1.17-.7,1.17A.39.39,0,0,1,157.17,166.18Z"/><path class="cls-2" d="M158.79,167.6a.38.38,0,0,1-.13-.52l.7-1.18.69-1.17a.39.39,0,0,1,.52-.14.4.4,0,0,1,.14.53l-.7,1.17-.7,1.17A.39.39,0,0,1,158.79,167.6Z"/><path class="cls-2" d="M160.38,169.15a.38.38,0,0,1-.13-.52l.7-1.17.69-1.18a.38.38,0,0,1,.52-.13.39.39,0,0,1,.14.52l-.7,1.17-.7,1.18A.38.38,0,0,1,160.38,169.15Z"/><path class="cls-2" d="M162.17,170.86a.38.38,0,0,1-.13-.52l.7-1.17.7-1.18a.38.38,0,0,1,.65.39l-.7,1.17-.7,1.18A.37.37,0,0,1,162.17,170.86Z"/><path class="cls-2" d="M163.81,172.11a.39.39,0,0,1-.14-.52l.7-1.18.7-1.17a.38.38,0,0,1,.65.39l-.7,1.17-.69,1.17A.39.39,0,0,1,163.81,172.11Z"/><path class="cls-2" d="M165.73,173.74a.37.37,0,0,1-.13-.52l.7-1.17.69-1.18a.39.39,0,0,1,.52-.13.38.38,0,0,1,.14.52l-.7,1.18-.7,1.17A.38.38,0,0,1,165.73,173.74Z"/><path class="cls-2" d="M167.46,175.09a.38.38,0,0,1-.13-.52l.7-1.17.7-1.18a.38.38,0,1,1,.65.39l-.7,1.17L168,175A.37.37,0,0,1,167.46,175.09Z"/><path class="cls-2" d="M169,176.85a.38.38,0,0,1-.13-.52l.7-1.17.7-1.18a.38.38,0,1,1,.65.39l-.7,1.17-.7,1.18A.37.37,0,0,1,169,176.85Z"/><path class="cls-2" d="M171.24,178.75a.37.37,0,0,1-.13-.52l.7-1.17.69-1.17a.4.4,0,0,1,.53-.14.39.39,0,0,1,.13.52l-.7,1.18-.7,1.17A.38.38,0,0,1,171.24,178.75Z"/><path class="cls-2" d="M173.54,180.5a.39.39,0,0,1-.14-.52l.7-1.17.7-1.17a.39.39,0,0,1,.52-.14.38.38,0,0,1,.13.52l-.69,1.18-.7,1.17A.38.38,0,0,1,173.54,180.5Z"/><path class="cls-2" d="M205.92,157a.38.38,0,0,0,.13-.52l-.7-1.17-.7-1.18a.38.38,0,1,0-.65.39l.7,1.17.7,1.18A.38.38,0,0,0,205.92,157Z"/><path class="cls-2" d="M204,158.4a.39.39,0,0,0,.14-.52l-.7-1.17-.7-1.17a.39.39,0,0,0-.52-.14.38.38,0,0,0-.13.52l.7,1.18.69,1.17A.38.38,0,0,0,204,158.4Z"/><path class="cls-2" d="M202.49,160a.39.39,0,0,0,.14-.52l-.7-1.18-.7-1.17a.38.38,0,0,0-.65.39l.69,1.17.7,1.18A.38.38,0,0,0,202.49,160Z"/><path class="cls-2" d="M200.73,161.51a.38.38,0,0,0,.13-.52l-.7-1.17-.69-1.18a.38.38,0,0,0-.52-.13.39.39,0,0,0-.14.52l.7,1.18.7,1.17A.38.38,0,0,0,200.73,161.51Z"/><path class="cls-2" d="M199.09,163a.38.38,0,0,0,.14-.52l-.7-1.17-.7-1.18a.39.39,0,0,0-.52-.13.38.38,0,0,0-.13.52l.7,1.18.69,1.17A.38.38,0,0,0,199.09,163Z"/><path class="cls-2" d="M197.33,164.73a.39.39,0,0,0,.14-.52l-.7-1.17-.7-1.18a.39.39,0,0,0-.52-.13.38.38,0,0,0-.13.52l.7,1.18.69,1.17A.38.38,0,0,0,197.33,164.73Z"/><path class="cls-2" d="M195.61,166.29a.39.39,0,0,0,.14-.52l-.7-1.18-.7-1.17a.38.38,0,0,0-.65.39l.7,1.17.69,1.17A.39.39,0,0,0,195.61,166.29Z"/><path class="cls-2" d="M194,167.71a.38.38,0,0,0,.13-.52l-.7-1.18-.7-1.17a.38.38,0,0,0-.65.39l.7,1.17.7,1.17A.39.39,0,0,0,194,167.71Z"/><path class="cls-2" d="M192.41,169.26a.38.38,0,0,0,.13-.52l-.7-1.17-.7-1.18a.38.38,0,1,0-.65.39l.7,1.17.7,1.18A.37.37,0,0,0,192.41,169.26Z"/><path class="cls-2" d="M190.61,171a.39.39,0,0,0,.14-.52l-.7-1.17-.7-1.18a.38.38,0,0,0-.65.39l.7,1.17.69,1.18A.38.38,0,0,0,190.61,171Z"/><path class="cls-2" d="M189,172.22a.38.38,0,0,0,.13-.52l-.69-1.18-.7-1.17a.38.38,0,0,0-.52-.13.39.39,0,0,0-.14.52l.7,1.17.7,1.17A.39.39,0,0,0,189,172.22Z"/><path class="cls-2" d="M187.06,173.85a.37.37,0,0,0,.13-.52l-.7-1.17-.7-1.18a.38.38,0,0,0-.52-.13.38.38,0,0,0-.13.52l.7,1.18.7,1.17A.37.37,0,0,0,187.06,173.85Z"/><path class="cls-2" d="M185.32,175.2a.39.39,0,0,0,.14-.52l-.7-1.17-.7-1.18a.38.38,0,0,0-.65.39l.7,1.18.69,1.17A.38.38,0,0,0,185.32,175.2Z"/><path class="cls-2" d="M183.82,177a.39.39,0,0,0,.14-.52l-.7-1.17-.7-1.18a.38.38,0,1,0-.65.39l.69,1.17.7,1.18A.38.38,0,0,0,183.82,177Z"/><path class="cls-2" d="M181.55,178.86a.37.37,0,0,0,.13-.52l-.7-1.17-.7-1.17a.39.39,0,0,0-.52-.14.38.38,0,0,0-.13.52l.7,1.18.7,1.17A.37.37,0,0,0,181.55,178.86Z"/><path class="cls-2" d="M179.25,180.61a.37.37,0,0,0,.13-.52l-.7-1.17-.69-1.17a.38.38,0,0,0-.66.38l.7,1.18.7,1.17A.38.38,0,0,0,179.25,180.61Z"/><rect class="cls-7" x="208.56" y="99.5" width="8.94" height="3.35" transform="translate(-19.43 140.91) rotate(-35.1)"/><polygon class="cls-26" points="209.62 101.51 210.34 105.12 212.77 103.4 209.62 101.51"/><polygon class="cls-26" points="212.06 99.8 212.77 103.4 215.21 101.69 212.06 99.8"/><polygon class="cls-26" points="214.5 98.08 215.21 101.69 217.65 99.98 214.5 98.08"/><rect class="cls-7" x="135.99" y="87.42" width="8.94" height="3.35" transform="translate(193.03 -68.72) rotate(76.03)"/><polygon class="cls-26" points="141.38 85.8 137.76 85.16 138.48 88.05 141.38 85.8"/><polygon class="cls-26" points="142.1 88.69 138.48 88.05 139.2 90.95 142.1 88.69"/><polygon class="cls-26" points="142.82 91.58 139.2 90.95 139.92 93.84 142.82 91.58"/><path class="cls-8" d="M160.53,68l15,20.22,23.85-25.55-2.31-5.42s-1.45-5.5-8.89-5.42l-5.11-2.86-10.19,1.27a17.44,17.44,0,0,1-5.55,2.4,6.5,6.5,0,0,0-4.43,3.52,27.81,27.81,0,0,0-2.25,11.21"/><path class="cls-6" d="M182.44,66.32a17.72,17.72,0,0,1-8.9-2.29,14,14,0,0,1-3.83-3.09.22.22,0,0,1,.35-.28,13.63,13.63,0,0,0,3.72,3A17.89,17.89,0,0,0,185,65.72a.22.22,0,1,1,0,.43A19.88,19.88,0,0,1,182.44,66.32Z"/><polygon class="cls-2" points="160.8 64.37 163.12 63.77 162.3 66.4 165.1 66.41 164.26 68.99 166.84 68.75 165.95 71.27 168.66 71.19 167.65 73.55 160.8 64.37"/><polygon class="cls-2" points="167.64 73.54 169.96 72.94 169.14 75.57 171.94 75.59 171.1 78.17 173.69 77.93 172.79 80.45 175.5 80.36 174.5 82.73 167.64 73.54"/><polygon class="cls-2" points="176.81 82.85 175.83 80.66 178.56 81.02 178.1 78.27 180.78 78.65 180.11 76.15 182.75 76.6 182.21 73.94 184.71 74.54 176.81 82.85"/><polygon class="cls-2" points="184.58 74.42 183.6 72.23 186.33 72.59 185.87 69.84 188.56 70.23 187.89 67.72 190.52 68.17 189.98 65.52 192.48 66.11 184.58 74.42"/><polyline class="cls-2" points="192.47 66.1 191.48 63.91 194.21 64.27 193.76 61.52 196.44 61.91 195.77 59.4 198.24 59.93"/><path class="cls-26" d="M175.54,84.2,160.83,64.39c-.09.92-.15,1.9-.17,3l-.13.63,15,20.22,23.85-25.55-1.17-2.74Z"/><path class="cls-5" d="M200,65.7a.3.3,0,0,0,.08-.42l-.63-.89-.63-.89a.3.3,0,0,0-.42-.07.3.3,0,0,0-.08.42l.63.89.63.89A.3.3,0,0,0,200,65.7Z"/><path class="cls-5" d="M198.58,67a.31.31,0,0,0,.07-.43l-.63-.89-.62-.89a.31.31,0,0,0-.5.35l.63.89.63.89A.3.3,0,0,0,198.58,67Z"/><path class="cls-5" d="M197.48,68.27a.3.3,0,0,0,.08-.42l-.63-.89-.63-.89a.3.3,0,0,0-.42-.07.3.3,0,0,0-.08.42l.63.89.63.89A.3.3,0,0,0,197.48,68.27Z"/><path class="cls-5" d="M196.18,69.62a.3.3,0,0,0,.07-.42l-.63-.89-.63-.89a.3.3,0,1,0-.49.34l.63.9.63.89A.3.3,0,0,0,196.18,69.62Z"/><path class="cls-5" d="M195,70.88a.3.3,0,0,0,.07-.42l-.63-.89-.63-.89a.29.29,0,0,0-.42-.07.3.3,0,0,0-.07.42l.63.89.63.89A.29.29,0,0,0,195,70.88Z"/><path class="cls-5" d="M193.68,72.39a.3.3,0,0,0,.07-.42l-.63-.89-.63-.89a.3.3,0,1,0-.49.35l.63.89.62.89A.31.31,0,0,0,193.68,72.39Z"/><path class="cls-5" d="M192.4,73.73a.3.3,0,0,0,.08-.42l-.63-.89-.63-.89a.3.3,0,0,0-.49.35l.62.89.63.89A.3.3,0,0,0,192.4,73.73Z"/><path class="cls-5" d="M191.21,75a.3.3,0,0,0,.07-.42l-.63-.89-.63-.89a.3.3,0,0,0-.49.35l.63.89.62.89A.31.31,0,0,0,191.21,75Z"/><path class="cls-5" d="M190,76.3a.31.31,0,0,0,.07-.43l-.63-.89-.62-.89a.31.31,0,0,0-.43-.07.3.3,0,0,0-.07.42l.63.89.63.89A.3.3,0,0,0,190,76.3Z"/><path class="cls-5" d="M188.72,77.77a.3.3,0,0,0,.07-.42l-.63-.89-.62-.89a.32.32,0,0,0-.43-.08.3.3,0,0,0-.07.42l.63.89.63.9A.31.31,0,0,0,188.72,77.77Z"/><path class="cls-5" d="M187.5,78.86a.3.3,0,0,0,.07-.42l-.63-.89-.63-.89a.3.3,0,0,0-.42-.08.31.31,0,0,0-.07.43l.63.89.63.89A.3.3,0,0,0,187.5,78.86Z"/><path class="cls-5" d="M186.07,80.28a.29.29,0,0,0,.07-.42l-.63-.89-.63-.89a.29.29,0,0,0-.42-.07.3.3,0,0,0-.07.42l.63.89.63.89A.3.3,0,0,0,186.07,80.28Z"/><path class="cls-5" d="M184.77,81.46a.3.3,0,0,0,.08-.42l-.63-.89-.63-.89a.3.3,0,1,0-.49.35l.62.89.63.89A.3.3,0,0,0,184.77,81.46Z"/><path class="cls-5" d="M183.69,83a.29.29,0,0,0,.07-.42l-.63-.89-.62-.89a.31.31,0,0,0-.43-.07.3.3,0,0,0-.07.42l.63.89.63.89A.29.29,0,0,0,183.69,83Z"/><path class="cls-5" d="M182,84.61a.3.3,0,0,0,.07-.42l-.63-.89-.63-.89a.3.3,0,1,0-.49.34l.63.89.63.9A.31.31,0,0,0,182,84.61Z"/><path class="cls-5" d="M180.28,86.14a.29.29,0,0,0,.07-.42l-.63-.89-.62-.89a.31.31,0,0,0-.43-.07.31.31,0,0,0-.07.42l.63.89.63.89A.29.29,0,0,0,180.28,86.14Z"/><path class="cls-5" d="M178,88.4a.31.31,0,0,0,.08-.42l-.63-.89-.63-.89a.31.31,0,0,0-.42-.08.3.3,0,0,0-.07.42l.62.89.63.9A.31.31,0,0,0,178,88.4Z"/><path class="cls-5" d="M159.79,69.94a.31.31,0,0,1,0-.43l.77-.77.77-.78a.29.29,0,0,1,.42,0,.31.31,0,0,1,0,.43l-.77.77-.76.78A.3.3,0,0,1,159.79,69.94Z"/><path class="cls-5" d="M160.82,71.47a.29.29,0,0,1,0-.42l.77-.78.76-.78a.31.31,0,0,1,.43,0,.3.3,0,0,1,0,.43l-.76.78-.77.77A.3.3,0,0,1,160.82,71.47Z"/><path class="cls-5" d="M161.8,72.88a.3.3,0,0,1,0-.43l.76-.77.77-.78a.3.3,0,1,1,.43.43l-.76.77-.77.78A.3.3,0,0,1,161.8,72.88Z"/><path class="cls-5" d="M162.73,74.39a.31.31,0,0,1,0-.43l.77-.77.76-.78a.3.3,0,0,1,.43.43l-.76.77-.77.78A.3.3,0,0,1,162.73,74.39Z"/><path class="cls-5" d="M163.8,76.06a.3.3,0,0,1,0-.43l.77-.77.76-.78a.3.3,0,0,1,.43.43l-.76.77-.77.78A.3.3,0,0,1,163.8,76.06Z"/><path class="cls-5" d="M164.82,77.34a.3.3,0,0,1,0-.43l.76-.78.77-.77a.31.31,0,0,1,.43,0,.3.3,0,0,1,0,.43l-.77.78-.76.77A.31.31,0,0,1,164.82,77.34Z"/><path class="cls-5" d="M166,79a.31.31,0,0,1,0-.43l.77-.77.77-.78a.29.29,0,0,1,.42,0,.31.31,0,0,1,0,.43l-.77.77-.77.78A.29.29,0,0,1,166,79Z"/><path class="cls-5" d="M167.08,80.35a.3.3,0,0,1,0-.43l.76-.78.77-.77a.3.3,0,0,1,.43.43l-.77.77-.76.78A.31.31,0,0,1,167.08,80.35Z"/><path class="cls-5" d="M167.9,82a.31.31,0,0,1,0-.43l.77-.77.76-.78a.3.3,0,0,1,.43.43l-.76.77-.77.78A.31.31,0,0,1,167.9,82Z"/><path class="cls-5" d="M169.3,83.91a.3.3,0,0,1,0-.43l.77-.77.76-.78a.3.3,0,1,1,.43.43l-.76.77-.77.78A.3.3,0,0,1,169.3,83.91Z"/><path class="cls-5" d="M170.74,85.7a.3.3,0,0,1,0-.42l.77-.78.76-.78a.31.31,0,0,1,.43,0,.3.3,0,0,1,0,.43l-.76.78-.77.77A.3.3,0,0,1,170.74,85.7Z"/><path class="cls-5" d="M172.62,88.3a.29.29,0,0,1,0-.42l.76-.78.77-.78a.31.31,0,0,1,.43,0,.3.3,0,0,1,0,.43l-.77.78-.76.77A.3.3,0,0,1,172.62,88.3Z"/><path class="cls-7" d="M178.58,59.47h0c3.95,0,7.84-2.54,11.58-7.53a14.34,14.34,0,0,0-1.68-.13c-3.28,4.14-6.6,6.24-9.9,6.24h0c-3.27,0-6.43-2-9.42-6-.45.16-.93.31-1.43.44C171.09,57.11,174.73,59.45,178.58,59.47Z"/><path class="cls-19" d="M189.68,63.74a1.27,1.27,0,0,0,.16-.81,1.12,1.12,0,0,0-.22-.51,1.41,1.41,0,0,0,.21-1,1.31,1.31,0,0,0-.32-.67,1.36,1.36,0,0,0,.1-.75,1.29,1.29,0,0,0-.38-.73,1.5,1.5,0,0,0,.18-.93,1.28,1.28,0,0,0-.55-.86,1.48,1.48,0,0,0,.14-.88,1.24,1.24,0,0,0-.41-.76A1.86,1.86,0,0,0,189,54.4a1.63,1.63,0,0,0-.83-1.16,1.84,1.84,0,0,0,.41-1.43,1.56,1.56,0,0,0-.55-1,1.81,1.81,0,0,0,.22-1.14,1.58,1.58,0,0,0-.62-1,1.84,1.84,0,0,0,.17-1.08,1.59,1.59,0,0,0-.84-1.16,1.89,1.89,0,0,0,.43-1.46,1.61,1.61,0,0,0-1.11-1.28,1.87,1.87,0,0,0,.53-1.57,1.69,1.69,0,0,0-2.11-1.33A2,2,0,0,0,183.18,43a1.6,1.6,0,0,0,1.1,1.28,1.87,1.87,0,0,0-.52,1.57A1.58,1.58,0,0,0,184.6,47a1.83,1.83,0,0,0-.43,1.45,1.58,1.58,0,0,0,.62,1,1.84,1.84,0,0,0-.17,1.08,1.55,1.55,0,0,0,.54,1,1.87,1.87,0,0,0-.21,1.14,1.6,1.6,0,0,0,.83,1.16,1.81,1.81,0,0,0-.41,1.43,1.58,1.58,0,0,0,.85,1.17,1.44,1.44,0,0,0-.15.89,1.26,1.26,0,0,0,.54.86,1.47,1.47,0,0,0-.14.88,1.24,1.24,0,0,0,.38.73,1.41,1.41,0,0,0-.18.92,1.31,1.31,0,0,0,.32.67,1.36,1.36,0,0,0-.1.75,1.3,1.3,0,0,0,.44.78,1.34,1.34,0,0,0-.07.63,1.12,1.12,0,0,0,.45.73l0,0,2-.5Z"/><path class="cls-19" d="M189.89,67.57l-1,.24.09,0-.41,3s2.25,1.38,2.83-.43Z"/><path class="cls-5" d="M189.89,67.55a1.71,1.71,0,0,0,.53-1.58,1.67,1.67,0,0,0-.38-.84,1.24,1.24,0,0,0,.09-.66,1.15,1.15,0,0,0-.42-.7l-2,.5a1.33,1.33,0,0,0-.14.79,1.08,1.08,0,0,0,.36.66,1.78,1.78,0,0,0-.06.83,1.44,1.44,0,0,0,1.07,1.26l1-.24Z"/><path class="cls-19" d="M169.33,63a1.32,1.32,0,0,0,.47-.69,1.14,1.14,0,0,0,0-.55,1.49,1.49,0,0,0,.59-.82,1.21,1.21,0,0,0,0-.73,1.53,1.53,0,0,0,.39-.66,1.27,1.27,0,0,0-.06-.82,1.46,1.46,0,0,0,.53-.78,1.23,1.23,0,0,0-.16-1,1.48,1.48,0,0,0,.49-.75,1.32,1.32,0,0,0-.08-.86,1.88,1.88,0,0,0,1-1.16,1.62,1.62,0,0,0-.3-1.4,1.82,1.82,0,0,0,.95-1.15,1.59,1.59,0,0,0-.12-1.1,1.78,1.78,0,0,0,.65-1,1.6,1.6,0,0,0-.16-1.18,1.76,1.76,0,0,0,.58-.92,1.58,1.58,0,0,0-.3-1.4,1.86,1.86,0,0,0,1-1.17,1.62,1.62,0,0,0-.51-1.61,1.89,1.89,0,0,0,1.11-1.23,1.69,1.69,0,0,0-1.4-2.06,2,2,0,0,0-2.29,1.36,1.61,1.61,0,0,0,.51,1.62A1.84,1.84,0,0,0,171,44.24a1.58,1.58,0,0,0,.31,1.4,1.83,1.83,0,0,0-1,1.17,1.55,1.55,0,0,0,.16,1.18,1.84,1.84,0,0,0-.59.92,1.59,1.59,0,0,0,.12,1.1,1.78,1.78,0,0,0-.65,1,1.6,1.6,0,0,0,.3,1.39,1.82,1.82,0,0,0-1,1.15,1.6,1.6,0,0,0,.32,1.41,1.47,1.47,0,0,0-.5.75,1.26,1.26,0,0,0,.17,1,1.45,1.45,0,0,0-.49.75,1.27,1.27,0,0,0,.06.82,1.41,1.41,0,0,0-.53.78,1.24,1.24,0,0,0,0,.74,1.33,1.33,0,0,0-.39.65,1.29,1.29,0,0,0,.09.89,1.27,1.27,0,0,0-.32.55,1.18,1.18,0,0,0,.12.85l0,0,2,.35S169.34,63.05,169.33,63Z"/><path class="cls-19" d="M168,66.63l-1-.17.07.06-1.55,2.55s1.51,2.17,2.77.74Z"/><path class="cls-5" d="M168,66.61a1.72,1.72,0,0,0,1.13-1.24,1.68,1.68,0,0,0,0-.92,1.23,1.23,0,0,0,.34-.57,1.1,1.1,0,0,0-.1-.8l-2-.35a1.31,1.31,0,0,0-.45.66,1.18,1.18,0,0,0,.07.75,1.82,1.82,0,0,0-.39.74,1.45,1.45,0,0,0,.49,1.58l1,.17Z"/><path class="cls-28" d="M170.15,35.58A1.6,1.6,0,0,0,168.77,37c-.28,1.39.32,3.76,1.75,3.54S170.15,35.58,170.15,35.58Z"/><line class="cls-10" x1="173.52" y1="46.64" x2="173.52" y2="46.64"/><path class="cls-21" d="M184.94,51.07A8.71,8.71,0,0,1,178.73,55c-5.24.51-5.73-1.76-5.73-1.76a10.27,10.27,0,0,0,.51-2.14c0-.28.06-.57.08-.88a23.53,23.53,0,0,0,0-2.77c0-.25,0-.5,0-.76v0a14.51,14.51,0,0,0,8.81-4.72l.56-.3.37-.2.06.21-.1.67A13.19,13.19,0,0,0,184.94,51.07Z"/><path class="cls-28" d="M179.7,44.58c-.84,1.69-2.74,4.65-6.11,5.63a23.53,23.53,0,0,0,0-2.77c0-.25,0-.5,0-.76l.21,0A8.63,8.63,0,0,0,179.7,44.58Z"/><path class="cls-21" d="M187.89,36.42a4.56,4.56,0,0,1-4.15,4.51h-.07c0,.12-.09.23-.13.34l-.07.15h0c-1.54,3.36-6.26,5.4-8.82,5.52a5.78,5.78,0,0,1-1.74-.2c-2.73-.54-3.3-4.21-2.93-7a9.92,9.92,0,0,1,.23-1.16l0-.07s-1-3.92-1.23-5.63c-.47-3.32,1.38-6.73,8.66-7.52s9.1,3.71,9.66,6.1c.09.4.05,2.78-.34,3.17A1.94,1.94,0,0,1,187.89,36.42Z"/><path class="cls-19" d="M171.65,37c0,.49.29.86.54.83s.41-.43.36-.92-.29-.85-.54-.82S171.6,36.52,171.65,37Z"/><path class="cls-19" d="M172.8,36.54a.1.1,0,0,0,.06,0,.13.13,0,0,0,0-.18,2.06,2.06,0,0,0-2.23-.05.13.13,0,0,0,.15.21,1.85,1.85,0,0,1,1.94.05A.11.11,0,0,0,172.8,36.54Z"/><path class="cls-19" d="M175.85,36.65c.05.48.3.85.55.83s.41-.44.36-.92-.29-.85-.54-.83S175.81,36.17,175.85,36.65Z"/><path class="cls-19" d="M177.22,36.34a.1.1,0,0,0,.07,0,.13.13,0,0,0,0-.18,2,2,0,0,0-2.2-.33.12.12,0,0,0,0,.17.11.11,0,0,0,.17,0,1.84,1.84,0,0,1,1.92.31A.14.14,0,0,0,177.22,36.34Z"/><path class="cls-29" d="M175.82,40.5s-.12,2.29-2,2.42a2,2,0,0,1-2.13-1.77Z"/><path class="cls-6" d="M174.16,43.78a1,1,0,0,0,.59-.36.17.17,0,0,0-.28-.2.71.71,0,0,1-.76.2.17.17,0,0,0-.21.12.16.16,0,0,0,.12.21A1.13,1.13,0,0,0,174.16,43.78Z"/><path class="cls-19" d="M187,34.61a5.25,5.25,0,0,0-.59.08,4.36,4.36,0,0,0-2.57,1.77c-.07-.67-.63-3.75-5-4.48l-.2,0a3.79,3.79,0,0,1-.4-1.93c.54-1.78-8.21-1.31-8.65,1.45-.18,1.16-.28,1.91-.34,2.4h0a5.3,5.3,0,0,0-.08.9s-.81.76-.68-3.06a5.19,5.19,0,0,1,1.47-3.35c1.84-2,5.22-3.37,8.89-3.65,5.44-.41,9.08,5.47,9.24,7.55S187,34.61,187,34.61Z"/><path class="cls-28" d="M171.47,39.14c0,.29-.64.53-1.49.58a9.92,9.92,0,0,1,.23-1.16C170.94,38.64,171.47,38.87,171.47,39.14Z"/><path class="cls-28" d="M173.2,40a.24.24,0,0,1-.12,0l-1-.57a.22.22,0,0,1-.12-.19.21.21,0,0,1,.11-.19,3.21,3.21,0,0,0,1.46-2.28.22.22,0,0,1,.43.09,3.68,3.68,0,0,1-1.35,2.36l.69.39a.22.22,0,0,1,.09.3A.25.25,0,0,1,173.2,40Z"/><path class="cls-19" d="M175.25,33.63a.54.54,0,0,1-.39-1,1.6,1.6,0,0,1,1.09-.19,3.93,3.93,0,0,1,2.82,2,10.16,10.16,0,0,0-2.92-.91A2.64,2.64,0,0,0,175.25,33.63Z"/><path class="cls-19" d="M172.11,33.9a.55.55,0,0,0,.28-1,1.59,1.59,0,0,0-1.1-.06c-2,.52-2,1.95-2,1.95a7.21,7.21,0,0,1,2.24-.84A3.17,3.17,0,0,1,172.11,33.9Z"/><path class="cls-28" d="M176,39.09c0,.34.82.61,1.85.61s1.84-.27,1.84-.6-.82-.61-1.84-.61S176,38.76,176,39.09Z"/><path class="cls-6" d="M183.74,40.93h-.07c0,.12-.09.23-.13.34l-.07.15h0a2.28,2.28,0,0,1-1-.37,2.07,2.07,0,0,1-.54-.56.26.26,0,0,1,.09-.36.25.25,0,0,1,.36.08,1.41,1.41,0,0,0,.64.54,2.69,2.69,0,0,0,.47.14Z"/><path class="cls-28" d="M183.47,39.4a.25.25,0,0,0,.21-.21c.32-1.85,2.51-2.69,2.53-2.7A.27.27,0,1,0,186,36c-.1,0-2.5.95-2.87,3.11a.26.26,0,0,0,.22.3Z"/><path class="cls-28" d="M185.75,38.33a.18.18,0,0,0,.1,0,.26.26,0,0,0,.08-.36,1.81,1.81,0,0,0-1.61-.76.26.26,0,0,0-.25.28.27.27,0,0,0,.28.25,1.27,1.27,0,0,1,1.13.51A.25.25,0,0,0,185.75,38.33Z"/><path class="cls-7" d="M177.14,23.05a9.16,9.16,0,0,1-3.78,1.16,5.4,5.4,0,0,1,2.31-1.32,5.92,5.92,0,0,1-3.17-.28l3.07-.13a6.08,6.08,0,0,1-3-1.27,17.45,17.45,0,0,1,3.66.51l-.22-.13a6.67,6.67,0,0,0,1.18.24C177.17,22.23,177.16,22.64,177.14,23.05Z"/><path class="cls-13" d="M176,21.59a6.21,6.21,0,0,1-2.48-3.29c-.07-.19-.13-.39-.18-.58a28.17,28.17,0,0,0,3.87,2.07q0,1,0,2A6.67,6.67,0,0,1,176,21.59Z"/><path class="cls-4" d="M173.07,16.53c-.15-.86-.22-1.72-.3-2.59a6.51,6.51,0,0,0,3.72,2.41,3.51,3.51,0,0,0,.67.44c0,.78,0,1.55.05,2.33A16.94,16.94,0,0,1,173.07,16.53Z"/><path class="cls-7" d="M177.21,19.79a28.17,28.17,0,0,1-3.87-2.07,12,12,0,0,1-.27-1.19,16.94,16.94,0,0,0,4.14,2.59Z"/><path class="cls-7" d="M176.49,16.35l0,0a21.86,21.86,0,0,1-3.82-3.81,18.6,18.6,0,0,0,3,2.19,10.27,10.27,0,0,1-2.86-3.12A9.51,9.51,0,0,0,176,13.79a.91.91,0,0,1-.16-.11,11.44,11.44,0,0,0,1.24.14c.05,1,.09,2,.13,3A3.51,3.51,0,0,1,176.49,16.35Z"/><path class="cls-13" d="M175.33,13.32a1.27,1.27,0,0,1-.11-.26,1.27,1.27,0,0,0,.11.26A7.6,7.6,0,0,1,172.84,9a11.41,11.41,0,0,0,4.09,2.88c0,.66.07,1.32.1,2a11.44,11.44,0,0,1-1.24-.14A5.19,5.19,0,0,1,175.33,13.32Z"/><path class="cls-7" d="M174.73,7.59a22.48,22.48,0,0,0,2.07,1.52c0,.61,0,1.22.08,1.83a13.11,13.11,0,0,1-4.15-3.36A6.48,6.48,0,0,1,173,5.89a5.93,5.93,0,0,0,2.4,2.36C175.15,8,174.93,7.82,174.73,7.59Z"/><path class="cls-8" d="M176.88,10.94c0,.3,0,.6.05.9A11.41,11.41,0,0,1,172.84,9a7.14,7.14,0,0,1-.11-1.38A13.11,13.11,0,0,0,176.88,10.94Z"/><path class="cls-13" d="M176.68,5.62c0,1.16.06,2.33.12,3.49a22.48,22.48,0,0,1-2.07-1.52,4.2,4.2,0,0,1-1.34-2.82,3.39,3.39,0,0,1,.88-2A7.39,7.39,0,0,0,176.68,5.62Z"/><path class="cls-13" d="M174.27,2.73a6.91,6.91,0,0,1,.51-.57,18,18,0,0,0,2-2.05c-.14,1.83-.16,3.67-.14,5.51A7.39,7.39,0,0,1,174.27,2.73Z"/><path class="cls-7" d="M177.86,21.29l3,.47-2.09.13A14.76,14.76,0,0,1,181.12,23a6.75,6.75,0,0,1-2.94-.51,9.69,9.69,0,0,1,2.1,1.42c-.53-.43-2-.56-2.71-.89a.51.51,0,0,0-.23-.07.42.42,0,0,0-.19.06h0l.06-1.63c.24,0,.48-.1.72-.16Z"/><path class="cls-13" d="M180.87,18.41a3.69,3.69,0,0,1-.21.64,5.27,5.27,0,0,1-2.74,2.21c-.24.06-.48.12-.72.16,0-.62,0-1.24,0-1.86A13.12,13.12,0,0,0,180.87,18.41Z"/><path class="cls-13" d="M181,17.49a9.28,9.28,0,0,1-.15.92,13.12,13.12,0,0,1-3.66,1.15c0-.34,0-.67,0-1A16.34,16.34,0,0,0,181,17.44Z"/><path class="cls-4" d="M181.33,15.11l-.3,2.33a16.34,16.34,0,0,1-3.83,1.11c0-.81,0-1.62-.07-2.42a4.05,4.05,0,0,0,.5-.12A5.6,5.6,0,0,0,181.33,15.11Z"/><path class="cls-7" d="M178.44,13.8a3.38,3.38,0,0,0,2.09-.48,7.5,7.5,0,0,1-2.29,1.37,6.67,6.67,0,0,0,3.21-1.13c-.68,1.42-2.38,2-3.91,2.44h.09a4.05,4.05,0,0,1-.5.12c0-.78-.06-1.55-.1-2.32A8.28,8.28,0,0,0,178.44,13.8Z"/><path class="cls-7" d="M176.82.11A.76.76,0,0,1,176.9,0a11.37,11.37,0,0,1,2.51,3,9.5,9.5,0,0,1-2.73,1.92C176.66,3.31,176.7,1.71,176.82.11Z"/><path class="cls-13" d="M178.46,8l.61-.34a7.8,7.8,0,0,1-2.3,1.07c-.05-1.26-.08-2.51-.09-3.76A9.5,9.5,0,0,0,179.41,3a4.14,4.14,0,0,1,.26.61A3.71,3.71,0,0,1,178.46,8Z"/><path class="cls-7" d="M180.43,8.78a9.43,9.43,0,0,1-3.56,1.89c0-.67-.07-1.33-.1-2a7.8,7.8,0,0,0,2.3-1.07,7.71,7.71,0,0,0,1.52-1.27A7.12,7.12,0,0,0,180.43,8.78Z"/><path class="cls-8" d="M180.45,9.19l0,.43a12.59,12.59,0,0,1-3.57,2c0-.31,0-.62,0-.93a9.43,9.43,0,0,0,3.56-1.89C180.44,8.92,180.44,9.05,180.45,9.19Z"/><path class="cls-13" d="M180.22,12a2.47,2.47,0,0,1-2.08,1.72l.3.05a8.28,8.28,0,0,1-1.41,0l-.12-2.21a12.59,12.59,0,0,0,3.57-2A5.92,5.92,0,0,1,180.22,12Z"/><path class="cls-23" d="M176.67,1.66a22.76,22.76,0,0,0,.12,2.62,20.92,20.92,0,0,1,.15,2.62c.06,1.77.1,3.54.14,5.31q.13,5.28.26,10.56c0,1,.06,1.92.07,2.89s.07,2,0,3a.12.12,0,0,1-.23,0c-.18-1.73-.16-3.5-.2-5.24l-.15-5.31c-.09-3.52-.21-7-.27-10.56,0-1-.08-1.93,0-2.89s0-2,0-3c0-.08.11-.08.11,0Z"/><path class="cls-8" d="M178,25.73a1.15,1.15,0,0,1-.76.3A1.2,1.2,0,0,1,176,24.86a1.16,1.16,0,0,1,.19-.69l.56,0A1.5,1.5,0,0,1,178,25.73Z"/><path class="cls-13" d="M178,25.73a1.5,1.5,0,0,0-1.25-1.58l-.56,0a1.21,1.21,0,0,1,2.22.63A1.19,1.19,0,0,1,178,25.73Z"/><path class="cls-30" d="M177.11,25.32a.32.32,0,1,0-.63,0,.32.32,0,0,0,.32.31A.32.32,0,0,0,177.11,25.32Z"/><path class="cls-13" d="M182.5,25.25c-.05,0-.08,0-.08-.08-.61-3-1.1-5.28.9-8A8.27,8.27,0,0,0,184.39,20a1.36,1.36,0,0,1,0,.2,1.36,1.36,0,0,0,0-.2,1.18,1.18,0,0,0,.11.19l0-.07c.15.27.31.54.47.8C184.07,22.36,183.24,23.77,182.5,25.25Z"/><path class="cls-7" d="M184.47,20.16l-.1-.24a3.63,3.63,0,0,0-.27-.76,8.53,8.53,0,0,1-.27-3.41,36,36,0,0,0,1.79,3.83.46.46,0,0,0-.16-.15.46.46,0,0,1,.16.15l0,0h0a.71.71,0,0,1,.1.14c-.27.41-.53.82-.79,1.23C184.78,20.7,184.62,20.43,184.47,20.16Z"/><path class="cls-31" d="M184.37,19.92c-.1-.25-.19-.5-.27-.76A3.63,3.63,0,0,1,184.37,19.92Z"/><path class="cls-13" d="M185.4,14a16.59,16.59,0,0,0,1.69,3.65c-.46.69-.91,1.38-1.36,2.07a.71.71,0,0,0-.1-.14c-.27-.94-.54-1.88-.82-2.82a2.91,2.91,0,0,1-.15-1.51,2.67,2.67,0,0,1,.5-.92Z"/><path class="cls-13" d="M187.09,17.66A16.59,16.59,0,0,1,185.4,14l.43-.61a12.83,12.83,0,0,0,1.84,3.39Z"/><path class="cls-7" d="M185.83,13.4l1.84-2.55a4,4,0,0,0,.89,2.8,4.84,4.84,0,0,1-.3-1.05,8.48,8.48,0,0,0,.83,2.05c-.47.72-.94,1.43-1.42,2.14A12.83,12.83,0,0,1,185.83,13.4Z"/><path class="cls-13" d="M188.26,12.6A3.84,3.84,0,0,1,189.39,9c.47-.4,2.94-1.27,3.87-2a47.14,47.14,0,0,1-4.17,7.65A8.48,8.48,0,0,1,188.26,12.6Z"/><path class="cls-13" d="M185.7,21.91a5.93,5.93,0,0,0,3.38.31l-.25.17c-1.12.74-5.65,3.07-6.33,2.86.63-1.26,1.32-2.47,2.05-3.66A4.81,4.81,0,0,0,185.7,21.91Z"/><path class="cls-7" d="M190.13,20.41a11.39,11.39,0,0,1-4.45,1.49h0a4.81,4.81,0,0,1-1.15-.32c.3-.49.61-1,.92-1.45a8.13,8.13,0,0,0,2.05.42A7.17,7.17,0,0,0,190.13,20.41Z"/><path class="cls-13" d="M193.26,7c.23-.17.37-.33.36-.47,0,1.06.11,2.48.17,3.53a6.64,6.64,0,0,1,0,1.48,4.32,4.32,0,0,1-3.52,3.13,6.85,6.85,0,0,1-1-.22A46.11,46.11,0,0,0,193.26,7Z"/><path class="cls-13" d="M192.15,16.46c-.1.18-.21.36-.31.55s-.33.57-.51.85a10,10,0,0,1-4.23-.2l.67-1A9.38,9.38,0,0,0,192.15,16.46Z"/><path class="cls-7" d="M187.77,16.64c.49-.73,1-1.45,1.45-2.19a6.85,6.85,0,0,0,1,.22H190a6.13,6.13,0,0,0,1.59.15,9.32,9.32,0,0,0,2.11-1l-1.53,2.65A9.38,9.38,0,0,1,187.77,16.64Z"/><path class="cls-13" d="M191.33,17.86a7.62,7.62,0,0,1-1.34,1.7,3.46,3.46,0,0,1-2.63,1l-.24,0,.24,0,.16,0a8.13,8.13,0,0,1-2.05-.42c.53-.83,1.08-1.66,1.63-2.48A10,10,0,0,0,191.33,17.86Z"/><path class="cls-31" d="M187.36,20.54l-.24,0Z"/><path class="cls-23" d="M191.6,10.57a18.71,18.71,0,0,0-1.17,2,20.91,20.91,0,0,1-1.15,2q-1.22,2-2.45,3.95L182,26.36l-1.34,2.14c-.47.75-.91,1.51-1.43,2.22a.1.1,0,0,1-.18-.1c.71-1.36,1.57-2.65,2.38-3.94l2.44-4c1.63-2.63,3.23-5.26,4.87-7.87.45-.71.88-1.45,1.37-2.13s1-1.46,1.46-2.21c0,0,.12,0,.08.06Z"/><path class="cls-32" d="M182.06,26.76a.81.81,0,0,1-.5-.1.76.76,0,0,1-.24-1,.74.74,0,0,1,.34-.29l.29.18A.93.93,0,0,1,182.06,26.76Z"/><path class="cls-32" d="M182.06,26.76a.93.93,0,0,0-.11-1.24l-.29-.18a.74.74,0,1,1,.4,1.42Z"/><path class="cls-30" d="M181.76,26.26a.2.2,0,0,0-.34-.21.21.21,0,0,0,.07.27A.2.2,0,0,0,181.76,26.26Z"/><path class="cls-7" d="M180.74,29.33a1,1,0,0,1-.74-.15,1.12,1.12,0,0,1-.36-1.53,1.09,1.09,0,0,1,.5-.43l.43.26A1.38,1.38,0,0,1,180.74,29.33Z"/><path class="cls-7" d="M180.74,29.33a1.38,1.38,0,0,0-.17-1.85l-.43-.26a1.11,1.11,0,0,1,1.39,1.6A1.08,1.08,0,0,1,180.74,29.33Z"/><path class="cls-30" d="M180.29,28.59a.31.31,0,0,0-.1-.41.3.3,0,0,0-.4.1.29.29,0,0,0,.5.31Z"/><path class="cls-13" d="M172,24.91a.11.11,0,0,1-.11,0c-3-.82-5.2-1.42-6.72-4.45a8.31,8.31,0,0,0,3.05.37l.19.06-.19-.06.22,0h-.08c.32,0,.63,0,.94-.06C170.17,22.19,171.05,23.58,172,24.91Z"/><path class="cls-7" d="M168.39,20.84l-.26,0a3.42,3.42,0,0,0-.79-.1,8.39,8.39,0,0,1-3.16-1.31,34.94,34.94,0,0,0,4.22.15.48.48,0,0,0-.2.07.48.48,0,0,1,.2-.07h0l.17,0c.24.43.49.85.74,1.26C169,20.81,168.71,20.83,168.39,20.84Z"/><path class="cls-31" d="M168.13,20.81a7.11,7.11,0,0,1-.79-.1A3.42,3.42,0,0,1,168.13,20.81Z"/><path class="cls-13" d="M163.34,17.21a16.44,16.44,0,0,0,4,.15c.41.73.81,1.45,1.23,2.16l-.17,0L165.53,19a2.91,2.91,0,0,1-1.41-.55,2.69,2.69,0,0,1-.59-.86Z"/><path class="cls-13" d="M167.36,17.36a16.44,16.44,0,0,1-4-.15c-.12-.22-.23-.44-.34-.66a12.76,12.76,0,0,0,3.85-.1Z"/><path class="cls-7" d="M163,16.55l-1.44-2.8a4,4,0,0,0,2.9.49,4.93,4.93,0,0,1-1.08-.22,8.63,8.63,0,0,0,2.21.2l1.26,2.23A12.76,12.76,0,0,1,163,16.55Z"/><path class="cls-13" d="M163.38,14a3.85,3.85,0,0,1-2.71-2.66c-.15-.59.2-3.19,0-4.34a47.17,47.17,0,0,1,4.91,7.2A8.63,8.63,0,0,1,163.38,14Z"/><path class="cls-13" d="M170.52,20.53a6,6,0,0,0,1.81-2.86s0,.15,0,.29c.15,1.34.17,6.43-.33,7-.83-1.13-1.6-2.31-2.33-3.5A4.54,4.54,0,0,0,170.52,20.53Z"/><path class="cls-7" d="M171.19,15.91a11.25,11.25,0,0,1-.69,4.64l0,0a4.54,4.54,0,0,1-.82.88l-.87-1.47a8.21,8.21,0,0,0,1.31-1.64A7,7,0,0,0,171.19,15.91Z"/><path class="cls-13" d="M160.68,7c-.05-.28-.13-.47-.26-.53l3.22,1.45a6.89,6.89,0,0,1,1.31.71,4.3,4.3,0,0,1,1.18,4.55,6.48,6.48,0,0,1-.66.81A46.52,46.52,0,0,0,160.68,7Z"/><path class="cls-13" d="M168.59,12.31l.35.53c.18.28.36.55.53.84a10.16,10.16,0,0,1-2.1,3.68l-.6-1.07A9.38,9.38,0,0,0,168.59,12.31Z"/><path class="cls-7" d="M166.77,16.29c-.43-.76-.86-1.52-1.3-2.28a6.48,6.48,0,0,0,.66-.81l-.11.24a5.83,5.83,0,0,0,.86-1.35,9.14,9.14,0,0,0,.05-2.34c.56.85,1.11,1.71,1.66,2.56A9.38,9.38,0,0,1,166.77,16.29Z"/><path class="cls-13" d="M169.47,13.68a7.63,7.63,0,0,1,.9,2,3.45,3.45,0,0,1-.32,2.78l-.15.2.15-.2.09-.13a8.21,8.21,0,0,1-1.31,1.64c-.5-.85-1-1.71-1.46-2.58A10.16,10.16,0,0,0,169.47,13.68Z"/><path class="cls-31" d="M170.05,18.43l-.15.2Z"/><path class="cls-23" d="M163.1,10.12a17.66,17.66,0,0,0,1.23,1.94A18.75,18.75,0,0,1,165.57,14c.82,1.32,1.61,2.65,2.42,4q2.38,4,4.78,7.92c.43.72.87,1.44,1.3,2.17s.93,1.5,1.33,2.28a.11.11,0,0,1-.18.11c-.89-1.24-1.64-2.6-2.43-3.9l-2.41-4c-1.6-2.63-3.22-5.26-4.79-7.91-.43-.72-.89-1.44-1.28-2.18s-.85-1.55-1.3-2.31c0-.05.05-.1.09-.05Z"/><path class="cls-32" d="M173.17,26a.72.72,0,0,1-.31.4.75.75,0,0,1-1-.25.68.68,0,0,1-.11-.43l.29-.18A.93.93,0,0,1,173.17,26Z"/><path class="cls-32" d="M173.17,26a.93.93,0,0,0-1.15-.46l-.29.18a.72.72,0,0,1,.36-.59.74.74,0,0,1,1,.25A.72.72,0,0,1,173.17,26Z"/><path class="cls-30" d="M172.59,26a.19.19,0,0,0-.27-.07.2.2,0,0,0-.06.27.18.18,0,0,0,.26.06A.18.18,0,0,0,172.59,26Z"/><path class="cls-7" d="M174.87,28.33a1.09,1.09,0,0,1-.47.59,1.12,1.12,0,0,1-1.53-.37,1.15,1.15,0,0,1-.16-.64l.44-.27A1.38,1.38,0,0,1,174.87,28.33Z"/><path class="cls-7" d="M174.87,28.33a1.38,1.38,0,0,0-1.72-.69l-.44.27a1.12,1.12,0,0,1,.54-.89,1.11,1.11,0,0,1,1.62,1.31Z"/><path class="cls-30" d="M174,28.39a.29.29,0,0,0-.4-.09.28.28,0,0,0-.1.4.3.3,0,0,0,.4.1A.31.31,0,0,0,174,28.39Z"/><path class="cls-7" d="M186.76,32.57q0,.34,0,.66a4.35,4.35,0,0,1-.34,1.46v.07a3.31,3.31,0,0,0-1.71.81c-7.22-7-15.64-2.36-15.64-2.36a15.27,15.27,0,0,1-.1-2.73q0-.33.12-.66a4.47,4.47,0,0,1,.92-1.76,15.6,15.6,0,0,1,16.73,2.69C186.74,31.38,186.77,32,186.76,32.57Z"/><path class="cls-8" d="M186.76,32.57q0,.34,0,.66c-1.9-1.2-5.91-3.43-9.87-3.89a16.88,16.88,0,0,0-7.92,1.14q0-.33.12-.66a17.12,17.12,0,0,1,7.86-1A25.78,25.78,0,0,1,186.76,32.57Z"/></g></g></svg>