<svg xmlns="http://www.w3.org/2000/svg" viewBox="0 0 263.2 267.25"><defs><style>.cls-1{fill:#fff;}.cls-2{fill:#6c2910;}.cls-3{fill:#fdce75;}.cls-11,.cls-14,.cls-4{fill:none;stroke-linecap:round;stroke-linejoin:round;}.cls-4{stroke:#79962a;}.cls-5{fill:#967e6c;}.cls-6{fill:#dbd59e;}.cls-7{fill:#4b3c32;}.cls-8{fill:#f2937d;}.cls-9{fill:#f18971;}.cls-10{fill:#ec625b;}.cls-11{stroke:#ec625b;}.cls-12{fill:#511725;}.cls-13{fill:#c88a5e;}.cls-14{stroke:#511725;}.cls-15{fill:#f8ab0a;}</style></defs><g id="Capa_2" data-name="Capa 2"><g id="Capa_1-2" data-name="Capa 1"><path class="cls-1" d="M236.85,110.33c-7.67-6.55-20.3-7.57-24.63-16.68-2.66-5.58-1-12.3,1.83-17.79s6.77-10.44,9-16.22,2.25-13-2.1-17.42S210,37.75,204,38.55s-12.06,2.34-17.79.59c-9.32-2.84-14-13-20.84-19.87A36.24,36.24,0,0,0,139.52,9q-7.92.08-15.83,0A36.24,36.24,0,0,0,97.82,19.27C91,26.17,86.3,36.3,77,39.14c-5.72,1.75-11.86.22-17.79-.59S46.48,38,42.27,42.22,38,53.86,40.18,59.64s6.14,10.72,9,16.22S53.64,88.07,51,93.65c-4.33,9.11-17,10.13-24.62,16.68-8.62,7.37-8.9,22.42-.57,30.11,4.58,4.22,10.79,6.07,16.3,9s10.84,7.81,10.89,14c.06,9.22-11,14.7-13.52,23.58-1.45,5.1.23,10.71,3.35,15s7.56,7.42,12.1,10.15a110.54,110.54,0,0,0,64.8,15.34l11.89-7.2,11.89,7.2a110.54,110.54,0,0,0,64.8-15.34c4.54-2.73,9-5.87,12.1-10.15s4.8-9.89,3.35-15c-2.52-8.88-13.58-14.36-13.51-23.58,0-6.23,5.38-11.14,10.88-14s11.72-4.76,16.3-9C245.74,132.75,245.46,117.7,236.85,110.33Z"/><path class="cls-1" d="M237.73,130.62a7.46,7.46,0,0,0,.5-5.41c-.89-2.29-3.57-3.47-6-3.47a8,8,0,0,0-4.6,1.33,5.72,5.72,0,0,0-2.49,4,13.9,13.9,0,0,0,.72,4.44c.7,3.08-.32,4.76-3,6.17-1.65.87-2.27,2.5-1,4.14,2.51,3.16,9.45-2.63,11.35-4.52A20.31,20.31,0,0,0,237.73,130.62Z"/><path class="cls-1" d="M46.38,61.21c-2-3.62-2.59-8.2-.66-11.83a9.34,9.34,0,0,1,11-4.36,8.5,8.5,0,0,1,5,10.5c-1,2.62-3.37,4.79-3.37,7.58a15.26,15.26,0,0,0,.81,3.68c1.07,4.24-2.25,6-5.29,3.26A34.59,34.59,0,0,1,46.38,61.21Z"/><path class="cls-1" d="M181.06,86.89a20.89,20.89,0,0,0,5.49-4.67,9.26,9.26,0,0,0,2-6.75,6,6,0,0,0-4.5-5.08c-2.37-.45-5.06,1.3-5.24,3.7-.14,2,1.3,4,.72,6-.44,1.46-1.89,2.35-3.28,3s-2.89,1.22-3.77,2.47c-1.39,2-.15,3.46,1.74,3.66C176.68,89.41,179.08,88.14,181.06,86.89Z"/><path class="cls-1" d="M155.83,16.12a8.32,8.32,0,0,1,3.43,3.5A3.56,3.56,0,0,1,158.17,24a3.67,3.67,0,0,1-3.72-.28A12.21,12.21,0,0,1,151.7,21a9.08,9.08,0,0,0-2.87-2.62c-1.61-.8-4.07-.7-5.08-2.46-.75-1.3.09-2.43,1.33-3C148.34,11.54,153.15,14.43,155.83,16.12Z"/><path class="cls-2" d="M262.25,153.82a1.71,1.71,0,0,0-2.36.77,1.87,1.87,0,0,0,.43,2.23,76.06,76.06,0,0,1-4.38,6.59,43.07,43.07,0,0,1,.42-6.11,1.73,1.73,0,0,0,1.51-1,1.85,1.85,0,0,0-.75-2.45,1.72,1.72,0,0,0-2.36.77,1.85,1.85,0,0,0,.75,2.45,1.37,1.37,0,0,0,.31.13,44.43,44.43,0,0,0-.43,6.92,76.46,76.46,0,0,1-6.41,7.39,44.33,44.33,0,0,1,1.07-5.72,1.74,1.74,0,0,0,1.91-.93,1.86,1.86,0,0,0-.75-2.45,1.72,1.72,0,0,0-2.37.77,1.85,1.85,0,0,0,.7,2.41,42.83,42.83,0,0,0-1.18,6.55,77,77,0,0,1-8.6,7.36,42.62,42.62,0,0,1,1.84-6,1.71,1.71,0,0,0,1.93-.93,1.85,1.85,0,0,0-.75-2.45,1.73,1.73,0,0,0-2.36.77,1.85,1.85,0,0,0,.67,2.41,44.13,44.13,0,0,0-2,6.49.32.32,0,0,0,0,.14,72.59,72.59,0,0,1-9.24,5.66.28.28,0,0,0-.12.37.28.28,0,0,0,.24.14.28.28,0,0,0,.13,0,74.06,74.06,0,0,0,14-9.35h0c1.91-.21,3.82-.52,5.71-.91a1.83,1.83,0,0,0,.83,1,1.72,1.72,0,0,0,2.36-.77,1.85,1.85,0,0,0-.75-2.45,1.71,1.71,0,0,0-2.36.77,1.87,1.87,0,0,0-.19,1q-2.44.51-4.92.81c1.32-1.15,2.61-2.34,3.85-3.58a.21.21,0,0,0,.11-.1c1.36-1.36,2.67-2.76,3.93-4.22,2-.22,4-.55,5.95-1a1.83,1.83,0,0,0,.78.87,1.73,1.73,0,0,0,2.37-.77,1.86,1.86,0,0,0-.75-2.45,1.72,1.72,0,0,0-2.37.77,1.88,1.88,0,0,0-.18,1.06c-1.74.37-3.51.66-5.27.88a77.06,77.06,0,0,0,7.5-10.53,1.71,1.71,0,0,0,2.21-.83A1.85,1.85,0,0,0,262.25,153.82Z"/><path class="cls-3" d="M239,180.44c2.48-1.49,5.27-.47,7.18,1.71a9.12,9.12,0,0,1,1.63,8.18,16.2,16.2,0,0,1-4.51,7.29,27.16,27.16,0,0,1-20.53,7.73c2.73.34,4.25,3.45,4.23,6.35,0,3.1-2.11,5.9-4.74,7.54a22.61,22.61,0,0,1-8.81,2.72,77.47,77.47,0,0,1-20.91.13c2,.65,3.34,3.1,3.26,5.41-.09,2.77-2.12,5.21-4.59,6.47a18,18,0,0,1-8.09,1.53,51,51,0,0,1-39.94-19.39l4.51-3.6A25.14,25.14,0,0,1,150,200.12a14.35,14.35,0,0,1,9.53-7.8c4.16-.85,8.92,1,10.87,4.76.59-3.82.42-7.37,1.74-11a19.77,19.77,0,0,1,6.55-9.36,12,12,0,0,1,11-1.92A8.82,8.82,0,0,1,195.4,183c.37-3.86.73-8,2-11.56a22.23,22.23,0,0,1,6.93-10A10.35,10.35,0,0,1,212,159c4.45.64,7.26,5.15,8.64,9.43a24.79,24.79,0,0,1,9.65-17.2,16.11,16.11,0,0,1,7.27-3.24,9.45,9.45,0,0,1,7.53,2.05,9.76,9.76,0,0,1,2.93,6,19.78,19.78,0,0,1-.51,6.76A40.59,40.59,0,0,1,239,180.44Z"/><path class="cls-4" d="M185.49,180.4a28.15,28.15,0,0,0,.72,24.6"/><path class="cls-4" d="M161.41,197.74a18.7,18.7,0,0,0,2.39,15.33"/><path class="cls-5" d="M184,156.6c2.24-12.86,1.91-26,2.89-39,.35-4.78.94-9.69,3.26-13.88s6.79-7.54,11.56-7.17c3.66.29,6.89,2.68,9.1,5.61,5.31,7.05,5.46,16.62,4.95,25.42-.84,14.5-3,29.37-10.46,41.84a55.23,55.23,0,0,1-31.91,24.49c-2.76.78-9.86.24-6.21-3.73,2.87-3.13,5.79-5.76,8.1-9.44C179.85,173.42,182.52,165,184,156.6Z"/><path class="cls-2" d="M200.54,133.92a.51.51,0,0,1-.4-.2.5.5,0,0,1,.1-.7,135.38,135.38,0,0,0,11.55-9.73.5.5,0,0,1,.71,0,.48.48,0,0,1,0,.7,135.74,135.74,0,0,1-11.63,9.8A.49.49,0,0,1,200.54,133.92Z"/><path class="cls-2" d="M197.39,152.64a.5.5,0,0,1-.39-.18l-8.69-10.73a.5.5,0,1,1,.78-.62l8.69,10.72a.5.5,0,0,1-.08.7A.45.45,0,0,1,197.39,152.64Z"/><path class="cls-2" d="M185.15,180.05a.48.48,0,0,1-.39-.19,31.27,31.27,0,0,1-3.73-6,.5.5,0,1,1,.91-.43,30,30,0,0,0,3.6,5.78.49.49,0,0,1-.08.7A.45.45,0,0,1,185.15,180.05Z"/><path class="cls-2" d="M174.94,174.06c1.71-.48,3.57-2.56,4.41-3.81a4,4,0,0,0,.79-3.45,2,2,0,0,0-1.55-1.37c-1.07-.14-1.81.72-2.3,1.57a15.54,15.54,0,0,0-2,6.05c-.86-2.05-1.59-4.15-2.24-6.27l.15,0c1.71-.48,3.57-2.56,4.41-3.81a4,4,0,0,0,.79-3.45,2,2,0,0,0-1.55-1.37c-1.07-.14-1.8.72-2.3,1.57a16,16,0,0,0-1.94,5.59,66.39,66.39,0,0,1-1.58-7.41h.08c1.76,0,4.1-1.57,5.22-2.56a4,4,0,0,0,1.64-3.14,2,2,0,0,0-1.15-1.72,2.47,2.47,0,0,0-2.62.93,15.72,15.72,0,0,0-3.37,5.13,65.22,65.22,0,0,1-.6-8.61c1.74.29,4.3-.76,5.58-1.5a4,4,0,0,0,2.22-2.76,2,2,0,0,0-.8-1.91,2.49,2.49,0,0,0-2.75.4,16,16,0,0,0-4.23,4.26,61,61,0,0,1,.82-9,.27.27,0,0,0-.22-.3.28.28,0,0,0-.31.22c-.31,1.89-.54,3.79-.67,5.71a15.65,15.65,0,0,0-3.75-5.11,2.49,2.49,0,0,0-2.67-.78,2,2,0,0,0-1.05,1.78,4,4,0,0,0,1.82,3c1.18.92,3.6,2.33,5.37,2.25a.43.43,0,0,0,.22-.06,65.84,65.84,0,0,0,.06,8.19,15.63,15.63,0,0,0-5.11-3.64,2.45,2.45,0,0,0-2.77.1,2,2,0,0,0-.45,2,4,4,0,0,0,2.68,2.31c1.4.51,4.09,1.08,5.75.48a68.22,68.22,0,0,0,1.1,7.41,16,16,0,0,0-4.92-3.41,2.49,2.49,0,0,0-2.78.09,2,2,0,0,0-.44,2,4,4,0,0,0,2.68,2.32c1.4.51,4.11,1.08,5.77.48a65.59,65.59,0,0,0,1.89,6.61,15.78,15.78,0,0,0-4.82-3.32,2.49,2.49,0,0,0-2.78.09,2,2,0,0,0-.44,2,4,4,0,0,0,2.68,2.32c1.41.51,4.15,1.09,5.8.47a.24.24,0,0,0,.08-.06,64.86,64.86,0,0,0,2.67,6.17,16,16,0,0,0-4.59-3.09,2.49,2.49,0,0,0-2.78.09,2,2,0,0,0-.44,2,4,4,0,0,0,2.68,2.31c1.41.51,4.15,1.09,5.8.47a.57.57,0,0,0,.18-.12q.61,1.17,1.29,2.31a.27.27,0,0,0,.23.14.33.33,0,0,0,.13,0,.27.27,0,0,0,.1-.36,60.8,60.8,0,0,1-3.32-6.54A.55.55,0,0,0,174.94,174.06Z"/><path class="cls-6" d="M230.1,129.28a10.12,10.12,0,0,0-2,9.54c.71,2.26,2.2,4.18,3.13,6.36s1.16,5-.44,6.71c-2.37,2.56-6.93,1.24-9.72,3.33-2.44,1.82-2.53,5.39-2.24,8.42s.6,6.46-1.42,8.72c-1.52,1.7-4,2.23-6.25,2.25s-4.56-.37-6.82-.08-4.61,1.46-5.43,3.59c-.89,2.29.24,4.88-.1,7.32a7.39,7.39,0,0,1-5.18,5.72,11.39,11.39,0,0,1-7.94-.71c1.92.71,4.1-1.45,5.07-3.25a11,11,0,0,0,.82-6,20.11,20.11,0,0,1,0-6.1,8.53,8.53,0,0,1,7.27-6.38c3.28-.32,7,1.19,9.64-.83,1.75-1.36,2.17-3.82,2.11-6s-.46-4.46.13-6.59a7.42,7.42,0,0,1,5.32-5.12c2.49-.59,5.43.07,7.38-1.58,1.65-1.39,1.84-3.88,1.46-6s-1.18-4.21-1.06-6.36A7.43,7.43,0,0,1,230.1,129.28Z"/><path class="cls-2" d="M33.29,185.64A72.59,72.59,0,0,1,24.05,180a.32.32,0,0,0,0-.14,44.13,44.13,0,0,0-2-6.49,1.85,1.85,0,0,0,.67-2.41,1.73,1.73,0,0,0-2.36-.77,1.85,1.85,0,0,0-.75,2.45,1.71,1.71,0,0,0,1.93.93,42.62,42.62,0,0,1,1.84,6,76,76,0,0,1-8.59-7.36,44.11,44.11,0,0,0-1.19-6.55,1.85,1.85,0,0,0,.7-2.41,1.72,1.72,0,0,0-2.37-.77,1.86,1.86,0,0,0-.75,2.45,1.74,1.74,0,0,0,1.91.93,42.68,42.68,0,0,1,1.07,5.72,76.46,76.46,0,0,1-6.41-7.39,44.43,44.43,0,0,0-.43-6.92,1.2,1.2,0,0,0,.31-.13,1.85,1.85,0,0,0,.75-2.45,1.72,1.72,0,0,0-2.36-.77,1.85,1.85,0,0,0-.75,2.45,1.73,1.73,0,0,0,1.51,1,43.07,43.07,0,0,1,.42,6.11,76.06,76.06,0,0,1-4.38-6.59,1.85,1.85,0,0,0,.43-2.23A1.71,1.71,0,0,0,1,153.82a1.85,1.85,0,0,0-.75,2.45,1.71,1.71,0,0,0,2.21.83,77.93,77.93,0,0,0,7.5,10.53c-1.76-.22-3.53-.51-5.27-.88a1.88,1.88,0,0,0-.18-1.06,1.72,1.72,0,0,0-2.37-.77,1.86,1.86,0,0,0-.75,2.45,1.73,1.73,0,0,0,2.37.77,1.83,1.83,0,0,0,.78-.87c2,.42,4,.75,5.95,1,1.26,1.46,2.57,2.86,3.93,4.22a.21.21,0,0,0,.11.1c1.24,1.24,2.53,2.43,3.85,3.58q-2.47-.3-4.92-.81a1.77,1.77,0,0,0-.19-1,1.71,1.71,0,0,0-2.36-.77,1.85,1.85,0,0,0-.75,2.45,1.72,1.72,0,0,0,2.36.77,1.83,1.83,0,0,0,.83-1c1.89.39,3.8.7,5.71.91h0a74,74,0,0,0,14,9.35.31.31,0,0,0,.13,0,.27.27,0,0,0,.24-.14A.28.28,0,0,0,33.29,185.64Z"/><path class="cls-3" d="M24.18,180.44C21.7,179,18.91,180,17,182.15a9.1,9.1,0,0,0-1.64,8.18,16.2,16.2,0,0,0,4.51,7.29,27.16,27.16,0,0,0,20.53,7.73c-2.73.34-4.25,3.45-4.23,6.35,0,3.1,2.11,5.9,4.74,7.54A22.61,22.61,0,0,0,49.73,222a77.47,77.47,0,0,0,20.91.13c-2,.65-3.34,3.1-3.26,5.41.09,2.77,2.12,5.21,4.59,6.47a18,18,0,0,0,8.09,1.53,51.06,51.06,0,0,0,40-19.39l-4.52-3.6a25.14,25.14,0,0,0-2.25-12.39,14.35,14.35,0,0,0-9.53-7.8c-4.16-.85-8.92,1-10.87,4.76-.58-3.82-.42-7.37-1.73-11a19.79,19.79,0,0,0-6.56-9.36,12,12,0,0,0-11-1.92A8.82,8.82,0,0,0,67.8,183c-.37-3.86-.73-8-2-11.56a22.23,22.23,0,0,0-6.93-10,10.35,10.35,0,0,0-7.6-2.47c-4.45.64-7.26,5.15-8.64,9.43a24.79,24.79,0,0,0-9.65-17.2,16.11,16.11,0,0,0-7.27-3.24A9.45,9.45,0,0,0,18.13,150a9.76,9.76,0,0,0-2.93,6,19.78,19.78,0,0,0,.51,6.76A40.59,40.59,0,0,0,24.18,180.44Z"/><path class="cls-4" d="M77.71,180.4A28.15,28.15,0,0,1,77,205"/><path class="cls-4" d="M101.79,197.74a18.7,18.7,0,0,1-2.39,15.33"/><path class="cls-5" d="M79.21,156.6c-2.24-12.86-1.91-26-2.89-39-.35-4.78-.93-9.69-3.26-13.88s-6.78-7.54-11.56-7.17c-3.66.29-6.89,2.68-9.1,5.61-5.31,7.05-5.46,16.62-4.95,25.42.84,14.5,3,29.37,10.46,41.84a55.23,55.23,0,0,0,31.91,24.49c2.76.78,9.86.24,6.21-3.73-2.87-3.13-5.79-5.76-8.09-9.44C83.35,173.42,80.68,165,79.21,156.6Z"/><path class="cls-2" d="M62.66,133.92a.49.49,0,0,1-.3-.1A135.74,135.74,0,0,1,50.73,124a.5.5,0,1,1,.68-.73A135.38,135.38,0,0,0,63,133a.5.5,0,0,1,.1.7A.51.51,0,0,1,62.66,133.92Z"/><path class="cls-2" d="M65.81,152.64a.45.45,0,0,1-.31-.11.5.5,0,0,1-.08-.7l8.69-10.72a.51.51,0,0,1,.71-.08.49.49,0,0,1,.07.7L66.2,152.46A.5.5,0,0,1,65.81,152.64Z"/><path class="cls-2" d="M88.26,174.06c-1.7-.48-3.57-2.56-4.41-3.81a4,4,0,0,1-.79-3.45,2,2,0,0,1,1.55-1.37c1.07-.14,1.81.72,2.3,1.57a15.54,15.54,0,0,1,2,6.05c.86-2.05,1.59-4.15,2.24-6.27l-.15,0c-1.7-.48-3.57-2.56-4.41-3.81a4,4,0,0,1-.79-3.45,2,2,0,0,1,1.55-1.37c1.07-.14,1.81.72,2.3,1.57a16,16,0,0,1,1.94,5.59,66.39,66.39,0,0,0,1.58-7.41h-.08c-1.76,0-4.1-1.57-5.22-2.56a4,4,0,0,1-1.64-3.14,2,2,0,0,1,1.15-1.72,2.47,2.47,0,0,1,2.62.93,15.91,15.91,0,0,1,3.38,5.13,67,67,0,0,0,.59-8.61c-1.74.29-4.3-.76-5.58-1.5a4,4,0,0,1-2.22-2.76,2,2,0,0,1,.8-1.91,2.49,2.49,0,0,1,2.75.4,16,16,0,0,1,4.23,4.26,62.42,62.42,0,0,0-.81-9,.25.25,0,0,1,.21-.3.28.28,0,0,1,.31.22q.47,2.83.68,5.71A15.48,15.48,0,0,1,98.06,138a2.49,2.49,0,0,1,2.67-.78,2,2,0,0,1,1,1.78,4,4,0,0,1-1.82,3c-1.18.92-3.6,2.33-5.37,2.25a.37.37,0,0,1-.21-.06,67.84,67.84,0,0,1-.07,8.19,15.63,15.63,0,0,1,5.11-3.64,2.47,2.47,0,0,1,2.78.1,2,2,0,0,1,.44,2,4,4,0,0,1-2.68,2.31c-1.4.51-4.09,1.08-5.75.48a63.64,63.64,0,0,1-1.1,7.41A16.09,16.09,0,0,1,98,157.66a2.49,2.49,0,0,1,2.78.09,2,2,0,0,1,.44,2,4,4,0,0,1-2.68,2.32c-1.4.51-4.11,1.08-5.77.48a65.59,65.59,0,0,1-1.89,6.61,15.78,15.78,0,0,1,4.82-3.32,2.49,2.49,0,0,1,2.78.09,2,2,0,0,1,.44,2,4,4,0,0,1-2.68,2.32c-1.41.51-4.14,1.09-5.8.47,0,0,0,0-.08-.06a64.86,64.86,0,0,1-2.67,6.17,16,16,0,0,1,4.59-3.09,2.49,2.49,0,0,1,2.78.09,2,2,0,0,1,.44,2,4,4,0,0,1-2.68,2.31c-1.41.51-4.15,1.09-5.8.47a.57.57,0,0,1-.18-.12q-.62,1.17-1.29,2.31a.27.27,0,0,1-.23.14.33.33,0,0,1-.13,0,.27.27,0,0,1-.1-.36,60.8,60.8,0,0,0,3.32-6.54A.55.55,0,0,1,88.26,174.06Z"/><path class="cls-6" d="M33.1,129.28a10.12,10.12,0,0,1,2,9.54c-.71,2.26-2.2,4.18-3.13,6.36s-1.16,5,.45,6.71c2.36,2.56,6.92,1.24,9.71,3.33,2.44,1.82,2.53,5.39,2.24,8.42s-.6,6.46,1.42,8.72c1.52,1.7,4,2.23,6.25,2.25s4.56-.37,6.82-.08,4.61,1.46,5.43,3.59c.89,2.29-.24,4.88.1,7.32a7.39,7.39,0,0,0,5.18,5.72,11.38,11.38,0,0,0,7.94-.71c-1.91.71-4.1-1.45-5.06-3.25a10.88,10.88,0,0,1-.83-6,20.11,20.11,0,0,0,0-6.1,8.53,8.53,0,0,0-7.27-6.38c-3.28-.32-7,1.19-9.64-.83-1.75-1.36-2.17-3.82-2.11-6s.46-4.46-.13-6.59a7.42,7.42,0,0,0-5.32-5.12c-2.49-.59-5.43.07-7.38-1.58-1.65-1.39-1.84-3.88-1.46-6s1.18-4.21,1.06-6.36A7.42,7.42,0,0,0,33.1,129.28Z"/><path class="cls-2" d="M240.54,188.94a1,1,0,0,0-1.36-.38,14.09,14.09,0,0,1-18.33-3.95c8.86-8.32,15.42-17.86,19-27.92a1,1,0,0,0-.6-1.28,1,1,0,0,0-1.28.6c-4.61,12.87-14.2,24.87-27.39,34.47a27.59,27.59,0,0,1-3.21-17.66,8.46,8.46,0,0,0,6-3c1.71-2.35,1.4-5.42,1.16-7.89s-.27-4.83,1.09-6.34c1.17-1.31,3.2-1.78,5.17-2.23l.16,0,.87-.2c2.43-.6,5.38-1.62,6.63-4.23a7.82,7.82,0,0,0,.14-5.63c-.19-.65-.42-1.29-.65-2a17.55,17.55,0,0,1-.83-2.75,9.21,9.21,0,0,1,1.94-7.59,1,1,0,0,0-.13-1.41,1,1,0,0,0-.73-.22,1,1,0,0,0-.68.35,11.24,11.24,0,0,0-2.37,9.25,21.43,21.43,0,0,0,.92,3.07c.22.6.43,1.2.61,1.82a5.92,5.92,0,0,1,0,4.2c-.89,1.86-3.31,2.67-5.31,3.16l-.84.2-.17,0c-2.15.5-4.6,1.06-6.2,2.85-1.87,2.08-1.87,5-1.59,7.86.22,2.25.47,4.79-.78,6.52a6.14,6.14,0,0,1-4,2.14,26.62,26.62,0,0,1,2-5.54,1,1,0,0,0-.46-1.33,1,1,0,0,0-1.34.46A27.57,27.57,0,0,0,205.7,171l-1.54,0a25.92,25.92,0,0,0-3.8.26c-2.82.47-5,1.9-5.92,3.92a10,10,0,0,0-.54,5l0,.48c.12,2,.11,4.93-1.29,7.16-1.12,1.78-3.58,3.17-5.62,2.3a1,1,0,0,0-.76,0,1,1,0,0,0-.56,1.3,1,1,0,0,0,.54.55,5.46,5.46,0,0,0,2.12.43,7.42,7.42,0,0,0,6-3.5c1.71-2.72,1.73-6.07,1.6-8.34l0-.5a8.33,8.33,0,0,1,.36-4c.92-2,3.41-2.62,4.43-2.79a24.16,24.16,0,0,1,3.53-.23l1.13,0A29.65,29.65,0,0,0,209,191.66q-2.92,2-6.06,3.92c-15.22,9.09-31.83,14.45-50.4,20a1,1,0,0,0-.59.49,1,1,0,0,0-.08.76,1,1,0,0,0,1,.71,1,1,0,0,0,.29,0c5.1-1.54,10-3.05,14.88-4.64a23.76,23.76,0,0,0,21.56,13.69H190a1,1,0,1,0,0-2,21.77,21.77,0,0,1-20-12.32,202.54,202.54,0,0,0,23-9.08,24.48,24.48,0,0,0,25.61,9.58,1,1,0,0,0-.47-1.94,22.81,22.81,0,0,1-13.4-.91,22.57,22.57,0,0,1-9.91-7.62c3.12-1.54,6.19-3.19,9.21-5A100.09,100.09,0,0,0,219.37,186a16.32,16.32,0,0,0,9,6,16,16,0,0,0,3.79.45,16.26,16.26,0,0,0,8-2.08A1,1,0,0,0,240.54,188.94Z"/><path class="cls-2" d="M170.37,192.74a1.16,1.16,0,0,0,.37-.07c6.59-2.6,12.49-7.83,17.56-15.55a69.22,69.22,0,0,0,4.85-8.74c3.6-1.32,7.28-2.59,10.93-3.77a1,1,0,0,0,.58-.5,1,1,0,0,0-1.2-1.41c-3.06,1-6.14,2.06-9.19,3.16A97.76,97.76,0,0,0,201,139.74c1.65-13.37,1.18-27.24.77-39.47a1,1,0,0,0-.34-.7,1,1,0,0,0-.7-.27,1,1,0,0,0-1,1c.18,5.49.37,11.33.38,17.29-3.09-2.92-6.11-5.95-9-9a1,1,0,0,0-.7-.32,1,1,0,0,0-.71.27,1,1,0,0,0-.32.69,1,1,0,0,0,.27.72c3.33,3.58,6.85,7.08,10.44,10.42A167.84,167.84,0,0,1,199,139.5c-1.78,14.46-5.94,26.75-12.36,36.53-4.84,7.36-10.43,12.33-16.63,14.78a1,1,0,0,0-.55.53,1,1,0,0,0,.92,1.4Z"/><path class="cls-2" d="M110.69,215.61c-18.57-5.58-35.18-10.93-50.4-20q-3.13-1.87-6.06-3.92A29.52,29.52,0,0,0,57.85,173L59,173a24.07,24.07,0,0,1,3.51.23c1,.17,3.51.79,4.43,2.79a8.38,8.38,0,0,1,.36,4l0,.49c-.13,2.28-.1,5.62,1.6,8.34a7.42,7.42,0,0,0,6,3.5,5.46,5.46,0,0,0,2.12-.43,1,1,0,0,0,.54-.55,1,1,0,0,0,0-.77,1,1,0,0,0-1.31-.52c-2,.86-4.5-.52-5.62-2.3-1.4-2.23-1.41-5.15-1.29-7.16l0-.48a9.92,9.92,0,0,0-.54-5c-.94-2-3.09-3.45-5.92-3.92A25.92,25.92,0,0,0,59,171l-1.54,0a27.57,27.57,0,0,0-2.24-6.63,1,1,0,0,0-1.8.87,26.62,26.62,0,0,1,1.95,5.54,6.1,6.1,0,0,1-3.95-2.14c-1.26-1.73-1-4.28-.79-6.52.28-2.86.28-5.79-1.59-7.86-1.6-1.79-4-2.35-6.21-2.85l-1-.23c-2-.5-4.42-1.3-5.31-3.16a5.92,5.92,0,0,1,0-4.2c.18-.62.39-1.22.61-1.83a20.92,20.92,0,0,0,.92-3.06,11.21,11.21,0,0,0-2.37-9.24,1,1,0,0,0-1.4-.14,1,1,0,0,0-.36.68,1,1,0,0,0,.22.73,9.25,9.25,0,0,1,2,7.59,20.28,20.28,0,0,1-.84,2.78c-.23.64-.46,1.28-.65,1.93a7.82,7.82,0,0,0,.14,5.63c1.25,2.61,4.2,3.63,6.63,4.23l.89.21.15,0c2,.45,4,.92,5.17,2.23,1.35,1.51,1.31,3.94,1.08,6.34s-.55,5.54,1.16,7.89a8.46,8.46,0,0,0,6,3,27.59,27.59,0,0,1-3.21,17.66c-13.19-9.6-22.78-21.6-27.39-34.46a1,1,0,1,0-1.88.67c3.6,10.07,10.16,19.6,19,27.92A14.1,14.1,0,0,1,24,188.56a1,1,0,0,0-1.36.38,1,1,0,0,0,.38,1.37,16.21,16.21,0,0,0,8,2.08,16,16,0,0,0,3.78-.45,16.38,16.38,0,0,0,9-6,99.52,99.52,0,0,0,15.42,11.31c3,1.81,6.09,3.46,9.21,5a22.38,22.38,0,0,1-23.31,8.53,1,1,0,0,0-1.21.74,1,1,0,0,0,.74,1.2,24.53,24.53,0,0,0,5.69.67A24.36,24.36,0,0,0,70.3,203.18a202.54,202.54,0,0,0,23,9.08,21.77,21.77,0,0,1-20,12.32,1,1,0,0,0,0,2h.44a23.76,23.76,0,0,0,21.55-13.69c4.83,1.59,9.78,3.1,14.88,4.64a1,1,0,0,0,.29,0,1,1,0,0,0,1-.71,1,1,0,0,0-.08-.76A1,1,0,0,0,110.69,215.61Z"/><path class="cls-2" d="M59.12,164.61c3.66,1.18,7.33,2.45,10.93,3.77a69.22,69.22,0,0,0,4.85,8.74c5.07,7.71,11,12.94,17.56,15.55a1.16,1.16,0,0,0,.37.07,1,1,0,0,0,.93-.63,1,1,0,0,0-.56-1.3c-5.11-2-9.8-5.75-14-11.12a31.62,31.62,0,0,0,3.42-5.58,1,1,0,0,0-1.81-.87A29.63,29.63,0,0,1,78,178c-.46-.65-.92-1.31-1.38-2C70.15,166.25,66,154,64.21,139.5a170.17,170.17,0,0,1-1.13-19.13c3.59-3.34,7.11-6.84,10.45-10.42a1,1,0,0,0,.26-.72,1,1,0,0,0-.31-.69,1.06,1.06,0,0,0-.72-.27,1,1,0,0,0-.7.32c-2.88,3.09-5.9,6.12-9,9,0-6,.2-11.8.39-17.29a1,1,0,0,0-1-1,1,1,0,0,0-1,1c-.42,12.24-.88,26.11.77,39.47a97.29,97.29,0,0,0,6.7,26.12c-3.05-1.1-6.13-2.16-9.2-3.16a1,1,0,0,0-1.25.65,1,1,0,0,0,.06.76A1,1,0,0,0,59.12,164.61Z"/><path class="cls-7" d="M59,187.39s6.69-11.58,47-8.1l6.32,30.44-49-17.36Z"/><path class="cls-7" d="M204.15,187.39s-6.68-11.58-47-8.1l-6.32,30.44,49-17.36Z"/><rect class="cls-8" x="122.56" y="60" width="18.03" height="30.81"/><path class="cls-9" d="M116.24,57.21a3.71,3.71,0,0,0-5.49-3.39,4.82,4.82,0,0,0-2.28,3.83,10.28,10.28,0,0,0,.83,4.53,11.12,11.12,0,0,0,2,3.51,5.33,5.33,0,0,0,3.46,1.88,3.55,3.55,0,0,0,3.4-1.73c.73-1.38.23-3.07,0-4.62A7.61,7.61,0,0,0,116.24,57.21Z"/><path class="cls-10" d="M112.83,60.17a2.26,2.26,0,0,0,.38,1.27,1.4,1.4,0,0,0,1.14.62A1.51,1.51,0,0,0,115.69,61a2.7,2.7,0,0,0-.17-1.81,2,2,0,0,0-.72-1C113.49,57.29,112.82,59.2,112.83,60.17Z"/><path class="cls-11" d="M115.2,59.25a7.6,7.6,0,0,0-1.13-2.51,2.58,2.58,0,0,0-2.4-1.06A2.41,2.41,0,0,0,110,57.32a4.88,4.88,0,0,0-.06,2.43,10.29,10.29,0,0,0,.88,2.59"/><path class="cls-9" d="M146.9,57.21a3.72,3.72,0,0,1,5.5-3.39,4.82,4.82,0,0,1,2.28,3.83,10.28,10.28,0,0,1-.83,4.53,11.32,11.32,0,0,1-2,3.51,5.33,5.33,0,0,1-3.47,1.88,3.57,3.57,0,0,1-3.4-1.73c-.72-1.38-.22-3.07,0-4.62A7.67,7.67,0,0,1,146.9,57.21Z"/><path class="cls-10" d="M150.31,60.17a2.17,2.17,0,0,1-.37,1.27,1.42,1.42,0,0,1-1.14.62A1.5,1.5,0,0,1,147.46,61a2.76,2.76,0,0,1,.16-1.81,2.13,2.13,0,0,1,.73-1C149.66,57.29,150.33,59.2,150.31,60.17Z"/><path class="cls-11" d="M148,59.25a7.58,7.58,0,0,1,1.12-2.51,2.58,2.58,0,0,1,2.41-1.06,2.42,2.42,0,0,1,1.69,1.64,4.76,4.76,0,0,1,.05,2.43,10.26,10.26,0,0,1-.87,2.59"/><path class="cls-8" d="M247.41,104.61c2.51-1.56,5.21-4.64,4.06-5s-4,2-4,2,4-4.56,2.34-5-4.52,3.57-4.52,3.57.93-3.8.24-4.91c-.51-.81-2.31-1.13-3.41-1.71s-1.7-.57-2,.65S243,97,243,97v1c-.57,2.28-7,3.28-7,3.28a5.82,5.82,0,0,0-1.45-5.09c5.35,1.38,4.93-2.8,4.13-3.2s-1.67.49-2.64.49-3.48-1.22-4.92,1.06-.3,8.88-.3,8.88l1.8,6.61s3.24,1.67,9.69-.23,9.79-4.91,8.93-5.86S247.41,104.61,247.41,104.61Z"/><path class="cls-8" d="M231.27,101.08l-31.33,29.53-30.8-31.5c-3.52-3.61-12.61-6.47-16.42-2.53-2.27,2.35-3.66,2.22-5.9,6.67a12,12,0,0,0,1.6,10.14c3.86,5.55,10.77,12.17,13.87,15.08,2.2,2.08,10.21,8,17.67,13.35l4.52,3.24c4.44,3.18,8.11,5.77,9.38,6.66a11.71,11.71,0,0,1,13-.56,56.06,56.06,0,0,0,8.39-7.91c5.68-6.31,13.65-18.27,24-35.53Z"/><path class="cls-10" d="M193.86,151.72l.47.34,1.72,1.36a6.31,6.31,0,0,0,8.85-1,16.88,16.88,0,0,0,1.94-1.24A11.71,11.71,0,0,0,193.86,151.72Z"/><path class="cls-8" d="M15.79,104.61c-2.51-1.56-5.21-4.64-4.06-5s4,2,4,2-4-4.56-2.34-5,4.53,3.57,4.53,3.57-.94-3.8-.25-4.91c.51-.81,2.31-1.13,3.42-1.71s1.69-.57,2,.65-2.9,2.8-2.9,2.8v1c.57,2.28,7,3.28,7,3.28a5.82,5.82,0,0,1,1.45-5.09c-5.35,1.38-4.92-2.8-4.13-3.2s1.67.49,2.64.49,3.48-1.22,4.92,1.06.3,8.88.3,8.88l-1.8,6.61s-3.23,1.67-9.69-.23S11.1,104.94,12,104,15.79,104.61,15.79,104.61Z"/><path class="cls-8" d="M31.93,101.08l31.33,29.53,30.8-31.5c3.53-3.61,12.61-6.47,16.42-2.53,2.27,2.35,3.66,2.22,5.9,6.67a12,12,0,0,1-1.6,10.14c-3.86,5.55-10.77,12.17-13.87,15.08-2.2,2.08-10.21,8-17.67,13.35l-4.52,3.24c-4.44,3.18-8.11,5.77-9.37,6.66a11.72,11.72,0,0,0-13-.56A56.06,56.06,0,0,1,48,143.25c-5.68-6.31-13.65-18.27-24-35.53Z"/><path class="cls-10" d="M69.35,151.72l-.48.34-1.72,1.36a6.29,6.29,0,0,1-8.84-1,15.88,15.88,0,0,1-2-1.24A11.72,11.72,0,0,1,69.35,151.72Z"/><path class="cls-8" d="M140.71,35.45c-2.65-.66-6-.26-9.14.5-3.16-.76-6.49-1.16-9.14-.5-7.27,1.83-7.14,10.86-7.14,10.86V57.94c0,8.75,5.66,16.49,13.11,18.31a9.23,9.23,0,0,0,2.53.4h1.28a9.3,9.3,0,0,0,2.54-.4c7.44-1.82,13.1-9.56,13.1-18.31V46.31S148,37.28,140.71,35.45Z"/><path class="cls-10" d="M140.59,73.33v3.11a14.87,14.87,0,0,1-5.84,2.91,8.87,8.87,0,0,1-2.53.41h-1.29a8.93,8.93,0,0,1-2.53-.41,14.74,14.74,0,0,1-5.84-2.91V73.33a14.87,14.87,0,0,0,5.84,2.91,8.27,8.27,0,0,0,2.53.4h1.29a8.22,8.22,0,0,0,2.53-.4A15,15,0,0,0,140.59,73.33Z"/><path class="cls-8" d="M164.85,96.22c-3.45-1.59-7.32-2.08-11-3.07a40.72,40.72,0,0,1-14.2-7H123.5a40.67,40.67,0,0,1-14.19,7c-3.69,1-7.56,1.48-11,3.07a17.78,17.78,0,0,0-10.13,14H175A17.77,17.77,0,0,0,164.85,96.22Z"/><polygon class="cls-8" points="131.57 107.37 101.23 106.63 104.54 174.1 107.91 174.1 155.23 174.1 158.61 174.1 161.91 106.63 131.57 107.37"/><path class="cls-7" d="M158.62,174.1H104.53s-1.43,30.85,0,33.68c.42.83,4.12,1.88,9.38,2.75,4.82,1.31,11.21,1.72,17.66,1.59,6.46.13,12.85-.28,17.66-1.59,5.26-.87,9-1.92,9.39-2.75C160.05,205,158.62,174.1,158.62,174.1Z"/><path class="cls-7" d="M104.28,179.15s22.61,12.21,54.59,0l-.25-6.41-54-1.82Z"/><path class="cls-12" d="M121.27,51.63a5.46,5.46,0,0,1,1.24-1.1,6.46,6.46,0,0,1,3.23-1,2.23,2.23,0,0,1,1.67.48.71.71,0,0,1-.24,1.2l-.07,0a3.09,3.09,0,0,1-1.37.09,7.66,7.66,0,0,0-1.35,0,8.5,8.5,0,0,0-1.37.27,10,10,0,0,0-1.37.51h0a.31.31,0,0,1-.41-.15A.33.33,0,0,1,121.27,51.63Z"/><path class="cls-12" d="M141.49,52.3a10.32,10.32,0,0,0-1.33-.6,7.54,7.54,0,0,0-1.35-.37,6.81,6.81,0,0,0-1.34-.12,3.17,3.17,0,0,1-1.36-.2L136,51a.7.7,0,0,1-.38-.91.64.64,0,0,1,.23-.3,2.25,2.25,0,0,1,1.7-.37,6.41,6.41,0,0,1,1.67.43,6.32,6.32,0,0,1,1.48.83,5.41,5.41,0,0,1,1.16,1.18.33.33,0,0,1-.08.44.33.33,0,0,1-.33,0Z"/><path class="cls-10" d="M124.32,62.84a3.26,3.26,0,1,1-3.26-3.26A3.25,3.25,0,0,1,124.32,62.84Z"/><path class="cls-10" d="M145.69,62.84a3.26,3.26,0,1,1-3.25-3.26A3.24,3.24,0,0,1,145.69,62.84Z"/><path class="cls-1" d="M128.25,65.49s4.21.65,6.65,0c0,0-.32,3.32-3.34,3.33C128.89,68.86,128.25,65.49,128.25,65.49Z"/><path class="cls-11" d="M130.74,69.59a3.87,3.87,0,0,0,1.66,0"/><path class="cls-13" d="M161.36,133.51a34.55,34.55,0,0,1-10.62-19.14c-1.34-7.31-.72-15.19,2.64-21.81l0,0-5.33-2c-1.1,4.42-2.71,8.79-5.6,12.3-3.1,3.78-7.54,6.46-12.39,5.93a15.63,15.63,0,0,1-10.67-6.74,30,30,0,0,1-4.25-11.25l-5.68,1.87c3.36,6.62,4,14.5,2.64,21.81a34.55,34.55,0,0,1-10.62,19.14s2.88,24.62,2.78,42.64c0,0,26,12,54.59,0C158.23,167.82,161.36,133.51,161.36,133.51Z"/><path class="cls-14" d="M128.1,55.8a2.91,2.91,0,0,1-5.53.54"/><path class="cls-14" d="M135.4,55.8a2.91,2.91,0,0,0,5.53.54"/><path class="cls-11" d="M131.64,56.6c-.2,1.64.65,3.22,1.29,4.77a1.88,1.88,0,0,1,.12,1.66,1.8,1.8,0,0,1-1.09.74,6.79,6.79,0,0,1-1.42.16"/><path class="cls-12" d="M116.63,40.21a5.41,5.41,0,0,0-6.3,5.85,12.91,12.91,0,0,0,1.78,4.56,49.17,49.17,0,0,1,3.16,8,11.81,11.81,0,0,0,3-5.41A22,22,0,0,0,119,47a14.41,14.41,0,0,0-.44-3.7A6.26,6.26,0,0,0,116.63,40.21Z"/><path class="cls-12" d="M146.51,40.21a5.42,5.42,0,0,1,6.31,5.85A13.12,13.12,0,0,1,151,50.62a50,50,0,0,0-3.15,8,11.83,11.83,0,0,1-3-5.41,22,22,0,0,1-.67-6.21,14.41,14.41,0,0,1,.44-3.7A6.34,6.34,0,0,1,146.51,40.21Z"/><path class="cls-12" d="M147.83,45.64A7.13,7.13,0,0,1,142.06,49a13.68,13.68,0,0,1-6.7-1.54c-2.09-1-4.05-2.26-6.11-3.31a9.68,9.68,0,0,0-5.56-1.35,7.37,7.37,0,0,0-4.55,2.79,19,19,0,0,0-2.63,4.77c-1.74-3.54-3.19-7.36-1.92-11.1A12.38,12.38,0,0,1,122.14,32a26.54,26.54,0,0,1,10.64-1.28,27.21,27.21,0,0,1,8.51,1.46,12.71,12.71,0,0,1,6.64,5.32A8.27,8.27,0,0,1,147.83,45.64Z"/><path class="cls-12" d="M148.47,46.39a17.23,17.23,0,0,1,1.46-5.3,9.37,9.37,0,0,0,.7-5.4,6.08,6.08,0,0,0-4.69-4.25,8.2,8.2,0,0,0-6.26,1.24,3.18,3.18,0,0,0,1.3-3.93A4.76,4.76,0,0,0,137.55,26a9.77,9.77,0,0,0-4.49.24c-3.05.75-5.89,2.13-7.64,4.73a3,3,0,0,0-2-3.62,4.84,4.84,0,0,0-3.49.69,12.89,12.89,0,0,0-5.35,17.17c1.82-2,4.54-2.62,7.19-3,6.74-.91,13.73-1.29,20.23.71C144.45,43.72,146.82,44.45,148.47,46.39Z"/><path class="cls-12" d="M114.53,41.15a3.79,3.79,0,0,0-1.12-.51,3.95,3.95,0,0,1-.61-4.49.29.29,0,0,0-.13-.39.28.28,0,0,0-.39.13,4.61,4.61,0,0,0-.44,2.78,4.53,4.53,0,0,0,.73,1.84,4.07,4.07,0,0,0-1.1.11,3.89,3.89,0,0,0-2.44,1.9.3.3,0,0,0,.12.4.32.32,0,0,0,.14,0,.27.27,0,0,0,.25-.15,3.33,3.33,0,0,1,2.07-1.62,3.22,3.22,0,0,1,1.48,0l0,0a2,2,0,0,0,1.18.65h0a.29.29,0,0,0,.29-.26v0A.29.29,0,0,0,114.53,41.15Z"/><path class="cls-7" d="M158.25,182.06a27.38,27.38,0,0,0-13,18.4"/><path class="cls-7" d="M104.59,182.06a27.41,27.41,0,0,1,13,18.4"/><path class="cls-11" d="M63.2,130.81c0,3.08.07,6.15.11,9.23"/><path class="cls-11" d="M199.85,130.81c0,3.08-.07,6.15-.11,9.23"/><path class="cls-11" d="M123,91.87a14.27,14.27,0,0,0,2.54,4"/><path class="cls-11" d="M140.52,91.87a14.27,14.27,0,0,1-2.54,4"/><path class="cls-11" d="M102.29,127.28a25.91,25.91,0,0,0,4.44-7.26"/><path class="cls-11" d="M161,127.28a25.91,25.91,0,0,1-4.44-7.26"/><path class="cls-7" d="M60.08,186.17a11.9,11.9,0,0,0-2.4,3.34,13.12,13.12,0,0,0,1.86,14C63.31,198.13,63.85,191.11,60.08,186.17Z"/><path class="cls-2" d="M60.08,186.17c3.77,4.94,3.23,12-.54,17.32a12.52,12.52,0,0,0,1,1.16C69,213,85.3,226.35,131.3,238.32l10.35-21.16C116.28,199.47,73.57,173.2,60.08,186.17Z"/><path class="cls-8" d="M151,223.84c-2.71-2-5.88-4.25-9.37-6.68L131.3,238.32q5.16,1.35,10.84,2.66t11.67,2.56l7.32-12.09S157.26,228.41,151,223.84Z"/><path class="cls-8" d="M173,247.52c-1.25-1.27-2.75-2.39-3.44-4-.79-1.9-.31-4.06-.47-6.12a9.76,9.76,0,0,0-19.4-.41v.62a28,28,0,0,0,4.1,8.94c2.6,3.63,7,5.78,10.51,8.53a16.31,16.31,0,0,1,5.07,8.12c.47,1.46,1,3.12,2.33,3.8a3.39,3.39,0,0,0,3.72-.78,7.13,7.13,0,0,0,1.81-3.56A16.46,16.46,0,0,0,173,247.52Z"/><path class="cls-10" d="M165.92,231a124,124,0,0,1-27.83,9c-2.33-.57-4.6-1.14-6.79-1.71L141,218.59l1.87-.62c3,2.13,5.79,4.12,8.2,5.88,2.65,1.93,4.86,3.59,6.54,4.86a9.62,9.62,0,0,1,6.29.86A9.25,9.25,0,0,1,165.92,231Z"/><path class="cls-7" d="M121.5,217.16l10.35,21.16q3.21-.82,6.22-1.68l-11.38-23Q124,215.42,121.5,217.16Z"/><path class="cls-2" d="M203.46,186.58c-12.18-13-50.85,9.44-76.77,27l11.38,23c41.07-11.46,56.28-23.93,64.38-31.88A17.56,17.56,0,0,1,203.46,186.58Z"/><path class="cls-7" d="M205.46,189.51a11.74,11.74,0,0,0-2-2.93,17.56,17.56,0,0,0-1,18.18l.12-.11A13.25,13.25,0,0,0,205.46,189.51Z"/><path class="cls-8" d="M112.13,223.84c2.71-2,5.88-4.25,9.37-6.68l10.35,21.16c-3.45.9-7,1.79-10.84,2.66s-7.6,1.72-11.67,2.56L102,231.45S105.88,228.41,112.13,223.84Z"/><path class="cls-8" d="M90.16,247.52c1.26-1.27,2.76-2.39,3.45-4,.79-1.9.3-4.06.47-6.12a9.75,9.75,0,0,1,5.22-7.8A9.89,9.89,0,0,1,113.48,237v.62a28,28,0,0,1-4.1,8.94c-2.6,3.63-7,5.78-10.51,8.53-2.56,2-4.09,5-5.08,8.12-.46,1.46-1,3.12-2.32,3.8a3.4,3.4,0,0,1-3.73-.78,7.2,7.2,0,0,1-1.8-3.56A16.46,16.46,0,0,1,90.16,247.52Z"/><polygon class="cls-10" points="121.5 217.16 131.85 238.32 128.05 239.29 116.93 220.38 121.5 217.16"/><path class="cls-3" d="M139.23,151.13a13.14,13.14,0,0,1-5.3.59,13.28,13.28,0,0,1,1.2-26.5,13.45,13.45,0,0,1,4.08.64.6.6,0,0,1,.13,1.09,13.28,13.28,0,0,0,0,23.1A.6.6,0,0,1,139.23,151.13Z"/><polygon class="cls-15" points="110.97 1.61 110.3 0 109.64 1.61 108.44 2.16 109.62 2.72 110.3 4.2 110.99 2.72 112.17 2.16 110.97 1.61"/><polygon class="cls-15" points="162.43 75.75 161.36 73.17 160.29 75.75 158.36 76.64 160.25 77.53 161.36 79.92 162.46 77.53 164.36 76.64 162.43 75.75"/><polygon class="cls-15" points="149.02 17.73 147.95 15.14 146.88 17.73 144.95 18.62 146.85 19.51 147.95 21.89 149.05 19.51 150.95 18.62 149.02 17.73"/><polygon class="cls-15" points="57.43 56.17 56.36 53.58 55.29 56.17 53.36 57.06 55.26 57.95 56.36 60.34 57.46 57.95 59.36 57.06 57.43 56.17"/><polygon class="cls-15" points="106.84 80.93 106.18 79.31 105.51 80.93 104.31 81.48 105.49 82.03 106.18 83.52 106.86 82.03 108.04 81.48 106.84 80.93"/><polygon class="cls-15" points="77.66 23.34 77 21.72 76.33 23.34 75.13 23.89 76.31 24.44 77 25.93 77.68 24.44 78.86 23.89 77.66 23.34"/><polygon class="cls-15" points="194.52 83.03 193.85 81.42 193.19 83.03 191.99 83.58 193.17 84.14 193.85 85.62 194.54 84.14 195.72 83.58 194.52 83.03"/><polygon class="cls-15" points="187.5 20.13 186.83 18.52 186.16 20.13 184.97 20.68 186.15 21.23 186.83 22.72 187.52 21.23 188.7 20.68 187.5 20.13"/><polygon class="cls-15" points="239.6 71.28 238.93 69.67 238.27 71.28 237.06 71.83 238.25 72.39 238.93 73.87 239.62 72.39 240.8 71.83 239.6 71.28"/><polygon class="cls-15" points="177.89 50.56 177.48 49.57 177.07 50.56 176.33 50.9 177.06 51.24 177.48 52.16 177.9 51.24 178.63 50.9 177.89 50.56"/><polygon class="cls-15" points="211.39 53.28 210.98 52.29 210.57 53.28 209.83 53.62 210.56 53.96 210.98 54.88 211.4 53.96 212.13 53.62 211.39 53.28"/><polygon class="cls-15" points="90.72 55.58 90.31 54.59 89.89 55.58 89.15 55.92 89.88 56.26 90.31 57.18 90.73 56.26 91.46 55.92 90.72 55.58"/><polygon class="cls-15" points="23.94 73.03 23.53 72.04 23.12 73.03 22.38 73.37 23.11 73.71 23.53 74.63 23.95 73.71 24.68 73.37 23.94 73.03"/><polygon class="cls-15" points="74.91 84.51 74.5 83.52 74.09 84.51 73.35 84.85 74.08 85.19 74.5 86.11 74.93 85.19 75.65 84.85 74.91 84.51"/></g></g></svg>