<svg xmlns="http://www.w3.org/2000/svg" viewBox="0 0 298.08 342.93"><defs><style>.cls-1{fill:#dbd69f;}.cls-2{fill:#6c2912;}</style></defs><g id="Capa_2" data-name="Capa 2"><g id="Capa_1-2" data-name="Capa 1"><rect class="cls-1" width="298.08" height="342.93" rx="35.2"/><path class="cls-2" d="M272.34,215c-.2,1.91-.86,3.89-.52,5.7,2.41,12.86-7.33,18.86-14.63,26.23a2.38,2.38,0,0,1-3.8-.1c-1.13-1.35-.54-2.75.56-3.87,3.16-3.21,6.26-6.48,9.56-9.54a8.86,8.86,0,0,0,3-7.22c-.14-7.72,0-15.44,0-23.15,0-2.49.06-5.25-3.42-5.14-3,.1-3.19,2.57-3.19,5,0,5.14-.17,10.29-.1,15.43a13.17,13.17,0,0,1-4.28,10.29c-5.46,5.23-10.69,10.69-16.07,16-4.91,4.83-10.07,5.34-14,1.5s-3.38-9.19,1.29-14c1.91-2,3.87-3.86,5.78-5.82,1.4-1.45,1.88-3.16.33-4.66s-3-.73-4.26.52c-6,6.05-12.08,12-17.85,18.27-2.79,3-3.87,7-3.87,11.13q0,12.3,0,24.6c0,1.42.24,2.9-.54,4.24-.61,1-1.44,1.87-2.7,1.57-2-.48-2.17-2.18-2.17-3.82,0-8.84-.22-17.7.27-26.52.19-3.51-.86-3.88-3.8-3.87q-49,.12-97.91,0c-3.47,0-4,.85-3.88,4.26.43,8.5.23,17,.22,25.56,0,1.9.15,4.4-2.52,4.37s-2.88-2.52-2.89-4.68c0-8-.12-16.08,0-24.11a20.42,20.42,0,0,0-6.3-15.58q-7.37-7.31-14.68-14.66c-1.41-1.4-3.07-3-5-1.31-2.07,1.85-.82,3.73.82,5.33,2.18,2.14,4.42,4.23,6.44,6.52,3.51,4,3.49,9.2.12,12.59s-8.68,3.63-12.57-.06c-6.54-6.19-12.81-12.66-19.14-19.05-2.18-2.2-2.68-5-2.7-8,0-5.46-.12-10.93-.13-16.39,0-2.5-.54-4.71-3.56-4.6-2.81.1-3.06,2.33-3.05,4.56,0,8.36.16,16.72.05,25.08,0,2.58,1.31,4.15,2.93,5.76q14.32,14.31,28.64,28.65c2.87,2.88,4.74,15,3,18.56A2.42,2.42,0,0,1,63.53,282a2.25,2.25,0,0,1-2.19-1.61,5.21,5.21,0,0,1-.21-2.37c1.8-8.36-2.65-13.67-8.35-18.9-7.93-7.28-15.28-15.18-23-22.75a11.05,11.05,0,0,1-3.72-8c-.09-8.68-.44-17.36-.36-26,.07-7.22,5.74-11.54,11.81-9.23,3.7,1.4,5.43,4.39,5.55,8.26.19,5.79.35,11.57.35,17.36a7.64,7.64,0,0,0,2.33,6c5.55,5.36,11,10.86,16.41,16.34,2,2,4.23,3.45,6.59,1s.19-4.37-1.52-6.11c-1.92-2-3.93-3.81-5.78-5.82-3.8-4.12-4-8.59-.74-12,3-3.17,7.38-3.17,11.68,0,.38.28.78.51,1.6,1V148.86c-2.27.34-3.23,2.23-4.82,3.21a9.58,9.58,0,0,1-12.3-1.52c-3.25-3.61-3.78-8.87-.15-12.23,9.66-9,19.74-17.46,29.67-26.12a3.45,3.45,0,0,1,3.15-.62c2.5.5,4.13-.47,3.88-3.26-.23-2.63.93-3.66,3.37-3.09,2.22.52,4-.54,3.81-2.36-.36-3.52,2.07-4.79,4.06-6.52q18.18-15.82,36.41-31.62c5.93-5.1,9.69-5.09,15.65.07q41.19,35.69,82.29,71.45c4.92,4.28,5.62,9.65,2,14s-9.15,4.5-14.14.59c-.88-.69-1.8-1.32-2.71-2-.08,0-.28.09-.68.23v69.47c.46,0,.85.13,1.05,0,4.89-3.67,9.27-3.86,12.43-.49,3.46,3.69,2.94,8.1-1.53,12.73-2,2.08-4.1,4.09-6.11,6.17-1.51,1.55-2.14,3.33-.45,5.09a3.44,3.44,0,0,0,5.17.16c6.47-6.26,12.78-12.67,19.15-19,1.16-1.17.92-2.68.95-4.1.11-5,.14-10,.27-15,.17-6.85,2-10.06,6.19-11.26,4.84-1.37,8,.46,11.66,6.68Zm-89.52-53.5c2.61-4.21,3.74-5.13,6.52-5.49,6.11-.78,9.49,2.26,9.54,9,.1,15.75,0,31.5,0,47.25,0,9.16,0,18.32,0,27.48,0,1.12-.54,2.79,1.46,3,1.28.12,2.58.2,3.28-1.31,2.73-5.86,7.8-9.73,12.19-14.16a7.09,7.09,0,0,0,2.33-5.46q-.1-37.61,0-75.21a6.36,6.36,0,0,0-2.46-5.33q-31.92-27.57-63.67-55.35c-2.45-2.14-4-2.13-6.41,0Q114,113.71,82,141.25a6.38,6.38,0,0,0-2.49,5.32q.1,37.6,0,75.21a7.11,7.11,0,0,0,2.31,5.47c3.65,3.6,7.57,6.95,10.57,11.2,1.25,1.78,1.56,5.34,4.86,4.18,3-1,1.48-4.14,1.49-6.25.12-23.62.08-47.25.08-70.87,0-3.89.57-7.73,4.79-9.07,4.06-1.29,8.11-.9,10.32,3.56.84,1.69,1.51,1.15,2.44.35,2.8-2.43,6.29-3.5,9.77-4.61-8.62-15.55-7.23-29.36,3.78-39.16a28.68,28.68,0,0,1,36-1.59,27.22,27.22,0,0,1,10.68,16.13c2,8.83.21,17.09-5.22,24.64A26.18,26.18,0,0,1,182.82,161.49Zm-34.19,81.35v0h21.2c11.58,0,11.41,0,11.5-11.66,0-3.91-1.3-5-5-4.8-5.77.25-11.56.06-17.34,0-2.1,0-4.17-.66-4.12-3s2.19-2.83,4.25-2.86h3.37c8.68,0,17.35-.18,26,.08,3.71.11,4.95-1.19,4.49-4.7a16,16,0,0,1,0-3.85c.37-3.27-1.29-4.15-4.24-4.14q-40,.06-80,0c-3.14,0-4.39,1.25-4.07,4.33a16,16,0,0,1,0,3.85c-.54,3.76,1.21,4.83,4.68,4.48a65.83,65.83,0,0,1,6.74,0h20.23c2,0,4.27.36,4.38,2.72.13,2.72-2.18,3.19-4.43,3.21-2.57,0-5.14,0-7.71,0-12.55,0-12.43,0-12.19,12.45.07,3.31,1.34,4,4.28,3.95C130,242.76,139.31,242.84,148.63,242.84Zm.12-76.73c1.7-4.21,4.25-5.16,7.08-6,11.43-3.59,18-14.38,16.09-26.28-1.73-11-11.64-19.2-23.18-19.17-11.22,0-21.06,8.17-22.9,18.95a23.2,23.2,0,0,0,16.31,26.59C144.83,161,147.35,161.8,148.75,166.11Zm33.79,13.11c0-11.25-3.64-17.07-12.66-17.39a19.12,19.12,0,0,0-17.07,8.52c-1.68,2.52-4.16,5.74-6.42,1.74-2.84-5-7.35-6.67-11.87-9-7.86-4-18,.84-19.08,9.53-.52,4.11-.23,8.33-.25,12.5,0,1.11,0,2.32,1.57,2.54s1.8-.88,2.22-2c1.35-3.42,3.44-6.51,7-7.48,6.87-1.85,13.9-2.69,20.44,1.23,1.69,1,2.72,1.33,4.62.19,10.31-6.15,21.41-3.42,27.89,6.7.61,1,1.13,1.48,2.2,1.3,1.24-.21,1.36-1.25,1.39-2.21C182.58,183.4,182.54,181.31,182.54,179.22Zm-33.65,23.24c13.48,0,27,0,40.44,0,1.32,0,3.17.79,3.86-.87a5.11,5.11,0,0,0-1-5,7.2,7.2,0,0,0-6.26-2.9q-37.07,0-74.13,0a7.19,7.19,0,0,0-6.24,2.95c-1.1,1.51-1.7,3.31-1,5s2.56.81,3.89.82C121.94,202.48,135.42,202.46,148.89,202.46Zm-44.14-26.59c0,3.53-.07,7.06,0,10.58,0,1.05-.65,2.92,1.53,2.63,1.4-.18,2.74-.68,2.72-2.68-.07-7.38,0-14.76,0-22.13,0-1.66-.55-3-2.42-2.81-1.67.12-1.83,1.52-1.83,2.86C104.75,168.17,104.76,172,104.75,175.87Zm88.24,0h0c0-4,0-8,0-12,0-1.23-.43-2.29-1.8-2.4a2.07,2.07,0,0,0-2.39,2.33c0,7.54,0,15.07-.06,22.61,0,2,1.31,2.51,2.71,2.69,2.19.3,1.51-1.57,1.54-2.62C193.05,182.93,193,179.4,193,175.88Zm-57.87,12.85c2.55,0,5.11.07,7.65,0,1,0,2.44.61,2.94-.78s-.65-2.39-1.53-3.27c-3.1-3.16-14.76-3.3-18.05-.22a8,8,0,0,0-1.41,1.89c-.83,1.45-.67,2.42,1.31,2.4C129.06,188.7,132.09,188.72,135.12,188.73Zm27.16,0c2.39,0,4.79.09,7.17,0,1.34-.07,3.38.79,3.83-.78.52-1.76-1-3.44-2.58-4.14-5.19-2.23-10.52-1.94-15.8-.22a4.67,4.67,0,0,0-1.79,1.54c-.68.84-1.63,1.72-1,3s1.68.63,2.56.66C157.18,188.78,159.73,188.73,162.28,188.73ZM111,235c0-1.44-.08-2.9,0-4.34.15-2.37-.15-4-3.25-3.93-2.85.06-3,1.6-3,3.73.06,3.06.11,6.11,0,9.16-.09,2.42,1.14,3,3.26,3,2,0,3.07-.63,3-2.78C110.87,238.21,110.94,236.6,111,235Zm82,0c0-1.44-.07-2.89,0-4.34.13-2.36-.18-4-3.27-3.94-2.85.06-3,1.59-3,3.73.08,3.05.11,6.11,0,9.16-.09,2.42,1.13,3,3.26,3,1.93,0,3.07-.62,3-2.77C192.92,238.22,193,236.61,193,235Z"/><path class="cls-2" d="M66.25,179.85a2.78,2.78,0,0,1-2.21,2.9c-4.5,1.19-6.27,4.59-7.38,8.63-.43,1.56-1,3.25-3,3.14s-2.59-1.86-2.88-3.39a10.08,10.08,0,0,0-7.1-8.27,3.16,3.16,0,0,1-2.48-2.66,2.71,2.71,0,0,1,2.17-2.81c4.57-1.34,6.56-4.75,7.58-9.06.34-1.44,1.09-2.75,2.91-2.68A2.71,2.71,0,0,1,56.44,168c1.17,4.59,3.32,8.29,8.32,9.62A2.38,2.38,0,0,1,66.25,179.85Zm-12.51-2.46c-1.07.69-2.28,1.47-2.16,2.82a2.36,2.36,0,0,0,2.2,2.17,2.27,2.27,0,0,0,2.1-2.64A2.94,2.94,0,0,0,53.74,177.39Z"/><path class="cls-2" d="M244.35,194.55c-2.23,0-2.86-1.49-3.22-3.1-.93-4.2-3-7.32-7.36-8.64a2.81,2.81,0,0,1,0-5.51c4.37-1.29,6.29-4.6,7.34-8.7.36-1.42.87-2.82,2.7-2.94,2.12-.12,2.78,1.47,3.14,3,1,4.18,3.13,7.11,7.33,8.76,3.16,1.24,3.3,3.95.28,5.06-4.66,1.71-6.75,5-7.83,9.47A3.18,3.18,0,0,1,244.35,194.55Zm-.4-12a3,3,0,0,0,2.26-2.25,2.39,2.39,0,0,0-2.07-2.72c-1.32-.12-2.18,1.34-2.25,2.57S242.94,182,244,182.54Z"/><path class="cls-2" d="M231.69,272.14c-2.25-7.26,3.81-10.68,8.18-15a2.15,2.15,0,0,1,3.39,0c1,1.09,1.37,2.55.16,3.39-6.69,4.62-7.66,11.21-6.84,18.56A2.37,2.37,0,0,1,234,282a2.33,2.33,0,0,1-2.32-2.56C231.64,277.14,231.69,274.9,231.69,272.14Z"/><path class="cls-2" d="M248.29,249.64a2.44,2.44,0,0,1,2.59,2.36,2.41,2.41,0,0,1-4.81.23A2.37,2.37,0,0,1,248.29,249.64Z"/><path class="cls-2" d="M148,220.77c1.5.47,2.68,1.25,2.43,3a2.46,2.46,0,0,1-2.55,2.35,2.56,2.56,0,0,1-2.71-2.71C145.16,221.79,146.41,221,148,220.77Z"/><path class="cls-2" d="M165.25,131.39c0,5.39-14.51,19.93-19.18,20s-13.49-8.65-13.6-13.27a7.09,7.09,0,0,1,10.87-6.23c2.57,1.54,3.87,1.09,5.58-.86a34.83,34.83,0,0,1,4.86-4.62,7.31,7.31,0,0,1,11.47,5Zm-25.88,4.83c-1.48.51-2.3,1.48-.91,3.05,1.7,1.91,3.61,3.62,5.34,5.5,1.53,1.68,2.88,1.6,4.42,0,3.47-3.55,7-7,10.47-10.56.84-.86,2-1.88.64-3.24s-2.32-.53-3.3.43c-2.05,2-4.17,4-6.1,6.11-2.48,2.76-4.87,3.45-7.56.31C141.67,137,140.93,136.07,139.37,136.22Z"/></g></g></svg>