<svg id="Capa_1" data-name="Capa 1" xmlns="http://www.w3.org/2000/svg" xmlns:xlink="http://www.w3.org/1999/xlink" viewBox="0 0 430.82 249.5"><defs><style>.cls-1{fill:none;}.cls-2{fill:#6c2a11;}.cls-3{fill:#f7e2ef;}.cls-4{fill:#c17845;}.cls-5{fill:#c88a5e;}.cls-6{fill:#feede1;}.cls-7{fill:#b09e7e;}.cls-8{fill:#eb5d61;}.cls-9{fill:#592048;}.cls-10{fill:#4c3c32;}.cls-11{fill:#cf5657;}.cls-12{fill:#a61549;}.cls-13{fill:#f9b767;}.cls-14{fill:#fff;}.cls-15{clip-path:url(#clip-path);}.cls-16{clip-path:url(#clip-path-2);}.cls-17{clip-path:url(#clip-path-3);}</style><clipPath id="clip-path"><path class="cls-1" d="M221,23.73s4.61-5.74,9.57-.32a6.19,6.19,0,0,1-4.46,3.32C222.91,27.18,221,23.73,221,23.73Z"/></clipPath><clipPath id="clip-path-2"><path class="cls-1" d="M240,19.91l1.15,5.17s-5.55,2.33-6.64-2.62S240,19.91,240,19.91Z"/></clipPath><clipPath id="clip-path-3"><path class="cls-1" d="M234.75,22.7s3.69-5.25,7.8-.19a5.06,5.06,0,0,1-3.6,3C236.37,25.92,234.75,22.7,234.75,22.7Z"/></clipPath></defs><path class="cls-2" d="M279.21,225a5,5,0,0,0,.94-2.58c.66-2.76,3.13-4.28,3.82-7.32.63-2.77-.89-7.09-.26-10s3.41-4.43,4-7.46c.82-3.94-.42-8.65.39-12.71.61-3.09,3.27-5.51,3.87-8.61.9-4.64.1-9.79,1-14.34.73-3.92,3.11-7.26,3.8-11,.63-3.49-1.65-8.07-1.07-11.33.5-2.75,3.87-4.22,4.31-6.76.54-3-1.29-5.33-.83-8s4.2-5.37,3.51-7.38c-3.49-10.19-2-16.37-3.27-17.71-1.08-1.13-4.81,2-5.68,3.29-1,1.48-5.28-.42-6.25,1.06-1.17,1.8-.87,5.45-2,7.24-1.38,2.2-4.17,2.54-5.47,4.72-1.21,2-.78,5.91-1.92,7.91-1.51,2.63-4.56,3.37-6,6-1.68,3.1-1.58,8-3.12,11-1.69,3.32-5,4.79-6.53,8-1.37,2.86-1,7.63-2.18,10.37-1.57,3.48-4.76,4.88-6.12,8.12-1.46,3.45-1,7.85-2.27,11-1.3,3.3-4.23,5.3-5.28,8.16-1.2,3.27-.18,8.31-1.06,10.89-1.5,4.4-4.6,5.62-5.19,7.56,0,0-3.92,13.61,13.22,20.21Z"/><path class="cls-3" d="M257.77,215.38a.28.28,0,0,1-.18,0,.29.29,0,0,1-.17-.36c13.5-38.26,36.34-104.72,36.56-105.38a.28.28,0,0,1,.36-.18.29.29,0,0,1,.17.36c-.23.66-23.06,67.12-36.56,105.39A.28.28,0,0,1,257.77,215.38Z"/><path class="cls-4" d="M286.05,239.37c-1.82-10.58-5.93-14.6-5.93-14.6q-3.53-2.24-6.93-4c-.64-.33-2.83,2.45-3.46,2.15-1.22-.6-.87-4.26-2.07-4.77a75.25,75.25,0,0,0-11.47-3.87c-.6-.15-1.57,2.31-2.15,2.18s-1.07-2.91-1.78-3c-1.1-.21-2.17-.38-3.23-.53s-2.32,2.95-3.34,2.86-1.93-3.39-3-3.43a55.34,55.34,0,0,0-19.06,2.35,1.51,1.51,0,0,0-.78,2.28c1.35,2,2.79,4,4.28,6.08.53.74,3-.09,3.58.64s-.94,2.93-.42,3.61c2.83,3.73,5.82,7.42,8.83,10.9.72.84,4-1.65,4.73-.84.25.27.08,1.09-.18,2Z"/><path class="cls-3" d="M273.88,239.53a178.32,178.32,0,0,0-50.42-24,.28.28,0,0,0-.34.19.29.29,0,0,0,.19.35,179.09,179.09,0,0,1,49.58,23.38"/><path class="cls-3" d="M243.68,223.46l.09,0a.28.28,0,0,0,.15-.37,76.18,76.18,0,0,0-6.33-10.89.3.3,0,0,0-.39-.07.28.28,0,0,0-.07.39,75.47,75.47,0,0,1,6.28,10.79A.28.28,0,0,0,243.68,223.46Z"/><path class="cls-3" d="M235,233.54h0c.1,0,10.08-1.63,20.63-4.44a.28.28,0,0,0,.2-.34.28.28,0,0,0-.34-.2C245,231.36,235.08,233,235,233a.28.28,0,0,0,.05.56Z"/><path class="cls-3" d="M267.38,235.77h0a.28.28,0,0,0,.21-.34c-1.89-8.35-6.78-19.91-6.83-20a.28.28,0,0,0-.36-.15.29.29,0,0,0-.15.37c0,.11,4.92,11.62,6.8,19.93A.27.27,0,0,0,267.38,235.77Z"/><path class="cls-3" d="M281.6,239.2a140,140,0,0,0-6-17.4.29.29,0,0,0-.37-.14.27.27,0,0,0-.14.36,139.07,139.07,0,0,1,6,17.18"/><path class="cls-5" d="M163.65,239.43c1.14-6.66,3.73-9.19,3.73-9.19,1.47-.93,2.93-1.77,4.35-2.5.4-.21,1.78,1.54,2.18,1.35.76-.38.55-2.68,1.3-3a47.19,47.19,0,0,1,7.21-2.44c.38-.09,1,1.46,1.36,1.38s.67-1.83,1.11-1.92c.69-.13,1.37-.24,2-.33s1.47,1.86,2.1,1.8,1.22-2.13,1.87-2.16a35,35,0,0,1,12,1.48,1,1,0,0,1,.49,1.44c-.85,1.25-1.75,2.53-2.69,3.82-.33.46-1.9-.06-2.25.4s.59,1.85.26,2.27c-1.78,2.34-3.65,4.67-5.55,6.86-.45.53-2.52-1-3-.54-.16.18,0,.7.11,1.28Z"/><path class="cls-6" d="M167.29,238.76a.28.28,0,0,1-.12-.53A233.72,233.72,0,0,1,201.86,225a.28.28,0,0,1,.34.2.28.28,0,0,1-.2.34,233.12,233.12,0,0,0-34.6,13.19A.23.23,0,0,1,167.29,238.76Z"/><path class="cls-7" d="M300.42,239.37c5-2.67,8.66-13.1,11.28-27.07.1-.54-3.39-3-3.29-3.5.16-.86,3.89.12,4-.76.26-1.55.5-3.13.73-4.73.18-1.27-4.67-4.63-4.51-5.93.2-1.55,5.41-1,5.59-2.62.73-6.57,1.27-13.38,1.64-20.1.07-1.23-3-2.85-3-4.08s3.28-2.23,3.32-3.54c.14-3.65.21-7.24.24-10.71a2,2,0,0,0-2.43-2.17A64.35,64.35,0,0,0,292.32,166c-1.06.85.36,5.5-.72,6.47s-4.51-1.91-5.52-.91-2,2-3,3.14c-.65.71.92,4.32.27,5.08-.53.61-3.28-1.64-3.81-1a104.32,104.32,0,0,0-9.36,13.58c-.9,1.55,2,5.74,1.17,7.4-.45.87-4.71-.84-5.16.06q-2.34,4.77-4.49,10.2s-2,10.74,7.06,29.35Z"/><path class="cls-3" d="M274.13,239.47c.62-2.27,1.46-5.15,2.23-7.64a258.12,258.12,0,0,1,39-76.35.28.28,0,0,0-.06-.39.29.29,0,0,0-.39.06,258.58,258.58,0,0,0-39.09,76.51c-.79,2.54-1.63,5.48-2.27,7.79Z"/><path class="cls-3" d="M299,180.23a.29.29,0,0,1-.27-.24c-1.18-7.28-1-18-1-18.13a.28.28,0,0,1,.28-.27h0a.28.28,0,0,1,.27.28c0,.11-.21,10.8,1,18a.28.28,0,0,1-.23.32Z"/><path class="cls-3" d="M290.32,196.33a.31.31,0,0,1-.26-.19.28.28,0,0,1,.17-.35c13.06-4.71,24.67-10.43,24.79-10.49a.28.28,0,0,1,.24.5c-.11.06-11.75,5.79-24.84,10.51Z"/><path class="cls-3" d="M282.63,213.53a.29.29,0,0,1-.25-.19c-3.87-11.64-6.84-29.47-6.87-29.65a.28.28,0,0,1,.23-.32.27.27,0,0,1,.32.23c0,.18,3,18,6.85,29.56a.28.28,0,0,1-.18.35Z"/><path class="cls-3" d="M278.05,226.78a.28.28,0,0,1-.27-.28.28.28,0,0,1,.28-.28c14.17.06,32.14-8.27,32.32-8.36a.29.29,0,0,1,.37.13.28.28,0,0,1-.14.37c-.18.09-18.26,8.48-32.55,8.42Z"/><path class="cls-3" d="M274.19,238.48a.27.27,0,0,1-.24-.15c-5.59-11.28-9.46-35.21-9.49-35.45a.27.27,0,0,1,.23-.32.28.28,0,0,1,.31.23c0,.24,3.9,24.09,9.44,35.29a.27.27,0,0,1-.12.37A.31.31,0,0,1,274.19,238.48Z"/><path class="cls-7" d="M130.05,85.14c.75,1.41,1.62,3,2.59,4.9s.08,6.53,1.2,8.68,4.39,2,5.74,4.61c1.14,2.2-1.18,6.67,0,9.06,1.46,2.84,6.49,3.64,8,6.69,1.66,3.28,1.44,8,3.17,11.46,2,4,5.95,6.72,8,10.83,1.34,2.75.29,7.14,1.61,9.89,1.75,3.61,5.85,5.58,7.51,9.12,1.28,2.72-.45,6.63.75,9.26s5.36,4.09,6.47,6.64c1.23,2.79-.2,6.37.87,8.95.87,2.1,4.26,3.24,5,5.17a124.61,124.61,0,0,1,4.41,13,112.44,112.44,0,0,1-2.54,29.48,7.45,7.45,0,0,1-12.73,3.51C164,229.72,155.37,223,146,213.12a9.11,9.11,0,0,1-2.05-3.43c-.64-1.95,1.59-6,.31-10.53-.76-2.67-4.87-5.09-5.74-8.57-.76-3,.82-7.42,0-11-.75-3.41-3.88-6-4.62-9.86-.69-3.62,1.5-7.86.85-11.86-.51-3.15-3.87-6-4.34-9.36-.51-3.77,1.76-8.19,1.33-12.2-.4-3.67-3.52-6.91-3.83-10.76-.26-3.23,2.22-6.88,2-10.23-.14-2.55-3-4.79-3.06-7.4-.1-2.85,2.37-6,2.34-8.87,0-2.39-2.59-4.59-2.57-7q0-3,.09-6.1A1.73,1.73,0,0,1,130.05,85.14Z"/><path class="cls-3" d="M177.17,233.06a.32.32,0,0,0,0-.37c-.2-.37-20-37.61-36.9-104.15a.34.34,0,0,0-.41-.24.33.33,0,0,0-.23.4c16.93,66.62,36.76,103.93,37,104.3a.33.33,0,0,0,.45.13A.28.28,0,0,0,177.17,233.06Z"/><path class="cls-4" d="M153.51,239.59s-16.6-.39-28-6.11c-5.05-2.53-9.07-13.12-12.05-27-.12-.54,3.3-3,3.19-3.58-.18-.86-3.88.22-4.05-.65-.3-1.55-.58-3.12-.85-4.72-.22-1.26,4.55-4.75,4.35-6-.24-1.54-5.44-.9-5.66-2.48-.9-6.54-1.62-13.33-2.17-20-.1-1.23,3-2.93,2.87-4.16s-3.33-2.14-3.41-3.45c-.23-3.65-.4-7.24-.52-10.7a2,2,0,0,1,2.37-2.24,64.49,64.49,0,0,1,22,11.27c1.08.82-.22,5.51.88,6.45s4.46-2,5.5-1.06,2.07,2,3.11,3.06c.67.69-.8,4.35-.13,5.09.54.59,3.23-1.73,3.77-1.11a103.5,103.5,0,0,1,9.72,13.34c.94,1.52-1.88,5.78-1,7.42.47.86,4.69-1,5.15-.08q2.48,4.71,4.77,10.09S166.28,216.29,153.51,239.59Z"/><path class="cls-3" d="M149.3,225.05a258.17,258.17,0,0,0-41-75.29.27.27,0,0,1,0-.39.28.28,0,0,1,.39,0,258.48,258.48,0,0,1,41.1,75.46Z"/><path class="cls-3" d="M125.36,174.06a.25.25,0,0,0,.25-.24c1-7.31.51-18,.5-18.15a.27.27,0,0,0-.29-.26h0a.28.28,0,0,0-.26.29c0,.11.49,10.79-.5,18.05a.28.28,0,0,0,.24.31Z"/><path class="cls-3" d="M134.41,189.93a.28.28,0,0,0,.25-.19.29.29,0,0,0-.18-.35,267.17,267.17,0,0,1-25-9.83.28.28,0,0,0-.37.14.27.27,0,0,0,.13.37c.12.05,11.9,5.47,25.12,9.85Z"/><path class="cls-3" d="M142.54,206.92a.27.27,0,0,0,.25-.19c3.57-11.73,6.06-29.64,6.08-29.82a.28.28,0,1,0-.55-.08c0,.18-2.51,18-6.06,29.73a.28.28,0,0,0,.19.35Z"/><path class="cls-3" d="M147.47,220.05a.28.28,0,0,0,0-.56c-14.16.44-32.35-7.42-32.53-7.5a.27.27,0,0,0-.36.14.28.28,0,0,0,.14.37c.18.08,18.48,8,32.77,7.55Z"/><path class="cls-3" d="M151.64,231.65a.3.3,0,0,0,.24-.16c5.28-11.42,8.52-35.45,8.55-35.69a.27.27,0,0,0-.24-.31.28.28,0,0,0-.31.24c0,.24-3.26,24.18-8.5,35.52a.27.27,0,0,0,.13.37A.31.31,0,0,0,151.64,231.65Z"/><path class="cls-8" d="M256.79,163.31a.28.28,0,0,1-.28-.28v-8.35a.28.28,0,0,1,.28-.27.27.27,0,0,1,.28.27V163A.27.27,0,0,1,256.79,163.31Z"/><path class="cls-9" d="M252.57,164.45a.29.29,0,0,1-.28-.28v-8.35a.28.28,0,0,1,.56,0v8.35A.29.29,0,0,1,252.57,164.45Z"/><path class="cls-8" d="M248.35,165a.27.27,0,0,1-.28-.27v-8.35a.28.28,0,1,1,.55,0v8.35A.27.27,0,0,1,248.35,165Z"/><path class="cls-9" d="M244.12,165a.27.27,0,0,1-.27-.27v-8.35a.28.28,0,1,1,.55,0v8.35A.27.27,0,0,1,244.12,165Z"/><path class="cls-8" d="M239.9,165.58a.28.28,0,0,1-.28-.27V157a.28.28,0,0,1,.56,0v8.35A.28.28,0,0,1,239.9,165.58Z"/><path class="cls-9" d="M235.68,166.15a.27.27,0,0,1-.28-.28v-8.34a.27.27,0,0,1,.28-.28.28.28,0,0,1,.28.28v8.34A.28.28,0,0,1,235.68,166.15Z"/><path class="cls-8" d="M231.45,166.72a.27.27,0,0,1-.27-.28v-8.35a.28.28,0,0,1,.55,0v8.35A.27.27,0,0,1,231.45,166.72Z"/><path class="cls-9" d="M227.23,167.29A.29.29,0,0,1,227,167v-8.35a.29.29,0,0,1,.28-.28.28.28,0,0,1,.28.28V167A.28.28,0,0,1,227.23,167.29Z"/><path class="cls-8" d="M223,167.86a.29.29,0,0,1-.28-.28v-8.35a.28.28,0,1,1,.56,0v8.35A.29.29,0,0,1,223,167.86Z"/><path class="cls-9" d="M218.79,168.42a.27.27,0,0,1-.28-.27V159.8a.28.28,0,1,1,.55,0v8.35A.27.27,0,0,1,218.79,168.42Z"/><path class="cls-8" d="M214.56,168.42a.27.27,0,0,1-.27-.27V159.8a.28.28,0,1,1,.55,0v8.35A.27.27,0,0,1,214.56,168.42Z"/><path class="cls-9" d="M210.34,167.86a.29.29,0,0,1-.28-.28v-8.35a.28.28,0,0,1,.56,0v8.35A.29.29,0,0,1,210.34,167.86Z"/><path class="cls-8" d="M206.12,167.29a.28.28,0,0,1-.28-.28v-8.35a.28.28,0,1,1,.55,0V167A.28.28,0,0,1,206.12,167.29Z"/><path class="cls-9" d="M201.89,166.72a.27.27,0,0,1-.27-.28v-8.35a.28.28,0,0,1,.55,0v8.35A.27.27,0,0,1,201.89,166.72Z"/><path class="cls-8" d="M197.67,165.58a.28.28,0,0,1-.28-.27V157a.28.28,0,0,1,.56,0v8.35A.28.28,0,0,1,197.67,165.58Z"/><path class="cls-9" d="M193.45,165.58a.27.27,0,0,1-.28-.27V157a.27.27,0,0,1,.28-.28.28.28,0,0,1,.28.28v8.35A.28.28,0,0,1,193.45,165.58Z"/><path class="cls-8" d="M189.23,165a.27.27,0,0,1-.28-.27v-8.35a.28.28,0,1,1,.55,0v8.35A.27.27,0,0,1,189.23,165Z"/><path class="cls-9" d="M185,165a.28.28,0,0,1-.28-.27v-8.35a.28.28,0,0,1,.28-.28.27.27,0,0,1,.28.28v8.35A.27.27,0,0,1,185,165Z"/><path class="cls-8" d="M180.78,164.45a.29.29,0,0,1-.28-.28v-8.35a.28.28,0,0,1,.56,0v8.35A.29.29,0,0,1,180.78,164.45Z"/><path class="cls-9" d="M176.56,163.31a.27.27,0,0,1-.28-.28v-8.35a.28.28,0,0,1,.55,0V163A.27.27,0,0,1,176.56,163.31Z"/><path class="cls-2" d="M198.42,102.22S184,123.48,174.87,155.07a3,3,0,0,0,2.3,3.74c10.39,1.92,44.68,7.15,78.72.05a3,3,0,0,0,2.23-3.75c-2.51-8.4-10.44-32.47-24.23-52.89Z"/><path class="cls-10" d="M206.51,22.48s.28,13.63-10.84,22.59C171.77,64.34,206.75,73,223.12,73.34c33.5.65,9.22-22.78,9.7-31.74S212.92,16.17,206.51,22.48Z"/><path class="cls-11" d="M213.66,19.19a20.84,20.84,0,0,1,1.13-4.25,50,50,0,0,1,10.8-4.69,11.18,11.18,0,0,1,14,8.22c.53,2.28,1,4.43,1.27,5.78A20.64,20.64,0,0,1,240,38.12c-3.21,7-15.24,2.85-15.24,2.85s-.12,10.09.62,13.46c0,0,4.35,8.68-12.61,7.65-14.26-.87-7.39-5.48-7.39-5.48l5.95-24.75Z"/><path class="cls-9" d="M226.17,41.69a.14.14,0,0,1-.13,0A44,44,0,0,1,219,39.12a.17.17,0,0,1-.09-.23.18.18,0,0,1,.24-.09,44.76,44.76,0,0,0,7,2.56.19.19,0,0,1,.13.22A.31.31,0,0,1,226.17,41.69Z"/><path class="cls-9" d="M235.87,31a.2.2,0,0,1-.11-.37,2.94,2.94,0,0,1,1.07-.45.55.55,0,0,0,.41-.4c0-.19.11-.7-.56-1.38a.21.21,0,1,1,.29-.29,1.87,1.87,0,0,1,.66,1.79.94.94,0,0,1-.71.68,2.91,2.91,0,0,0-.92.38A.17.17,0,0,1,235.87,31Z"/><path class="cls-9" d="M233,30.87h0a.21.21,0,0,1-.14-.26.75.75,0,0,1,.42-.53.88.88,0,0,1,.69.06.2.2,0,0,1,.08.28.21.21,0,0,1-.28.09.43.43,0,0,0-.33-.05.41.41,0,0,0-.18.26A.21.21,0,0,1,233,30.87Z"/><path class="cls-9" d="M231.93,31.33a.22.22,0,0,1-.13-.06,1.69,1.69,0,0,1,0-2.43.21.21,0,1,1,.3.28,1.32,1.32,0,0,0,0,1.85.21.21,0,0,1,0,.29A.2.2,0,0,1,231.93,31.33Z"/><path class="cls-12" d="M234.45,37.11a4.18,4.18,0,0,0,3.81-3.32.72.72,0,0,0-.51-.91c-2.78-.4-3.61.94-3.61.94s-1-1.41-5.37-.45C228.77,33.37,230.73,37.47,234.45,37.11Z"/><path class="cls-5" d="M235,25.91a2.2,2.2,0,0,0-.77,0,2.89,2.89,0,0,0-1.93,1.35c-1.14,1.82-6.81,6.25-18.57,4.49a10.54,10.54,0,0,1-6-3.05l-.06-.06c-2.11-2.17-8.39-23.47,17.76-25.17,0,0,9.8-1.26,12.79,9.76.49,1.82,1.19,4.24,1.44,5.49l1.51,6.67c.08.33.27,1.54.27,1.54a2.53,2.53,0,0,1-.9.79,4,4,0,0,1-4.81-1.31A1.25,1.25,0,0,0,235,25.91Zm-4-.78a2.4,2.4,0,0,0-.1-3.26,8,8,0,0,0-7.11-2.42c-5.76.87-5.81,8.91,1.09,8.92A8.77,8.77,0,0,0,231,25.13Zm8.7-6.35A8,8,0,0,0,235,21.94a2,2,0,0,0,.22,2.93s3.71,4,6,.42Z"/><path class="cls-13" d="M232.8,19.64s-6.07-6.13-13.23-3.38-9.83-2.79-9.09,3.09S216,32.27,222.7,31.91s9.61-4.65,9.61-4.65a3.57,3.57,0,0,1,1.93-1.35,1.72,1.72,0,0,1,1.51.5A3.55,3.55,0,0,0,239.11,28c2.19-.06,2.35-1.11,2.35-1.11s-1.63-8.27-2.93-12.46C238.53,14.47,234.72,14.71,232.8,19.64Z"/><path class="cls-2" d="M231.32,22.48s-3.13-6.45-11.75-3.95c-7.64,2.21-.95,10.25,5.3,9.84,0,0-5.54,0-5.3-4.88,0,0,.41-4.79,7.66-3.85A8.35,8.35,0,0,1,231.32,22.48Z"/><path class="cls-8" d="M235,21.94a9,9,0,0,1,4.73-3.16l-.39-1.65S236.68,18.14,235,21.94Z"/><path class="cls-11" d="M231,25.13a2.4,2.4,0,0,0-.1-3.26,8,8,0,0,0-7.11-2.42c-5.76.86-5.81,8.91,1.09,8.92A8.77,8.77,0,0,0,231,25.13Z"/><path class="cls-11" d="M239.69,18.78A8,8,0,0,0,235,21.94a2,2,0,0,0,.22,2.93s3.71,4,6,.42Z"/><path class="cls-14" d="M221,23.73s4.61-5.74,9.57-.32a6.19,6.19,0,0,1-4.46,3.32C222.91,27.18,221,23.73,221,23.73Z"/><g class="cls-15"><path class="cls-9" d="M228.94,23.65a3.05,3.05,0,1,1-3.35-2.72A3.05,3.05,0,0,1,228.94,23.65Z"/></g><g class="cls-16"><path class="cls-14" d="M234.75,22.7s3.69-5.25,7.8-.19a5.06,5.06,0,0,1-3.6,3C236.37,25.92,234.75,22.7,234.75,22.7Z"/><g class="cls-17"><path class="cls-9" d="M240.55,22.78a2.51,2.51,0,1,1-5,.5,2.51,2.51,0,1,1,5-.5Z"/></g></g><path class="cls-9" d="M232.8,19.92a.25.25,0,0,1-.2-.09c-.06-.06-5.48-5.9-12.94-3.31-4.19,1.45-6.48.78-7.72.41-.44-.13-.79-.23-.93-.14s-.31.77-.37,1.24a.28.28,0,1,1-.55-.07c.12-1,.29-1.42.61-1.63s.8-.11,1.4.07c1.26.37,3.36,1,7.38-.4,6.78-2.35,11.93,1.93,13.22,3.15.46-1.08,2-4,5-4.81a.28.28,0,0,1,.14.54c-3.44.93-4.79,4.81-4.81,4.85a.28.28,0,0,1-.2.18Z"/><path class="cls-2" d="M210.36,8.61s15.07-2.45,19.33,3.22c0,0,1.46-4.29,2.05-7.17,0,0-2.89-2.3-9.89-1C213.13,5.37,210.36,8.61,210.36,8.61Z"/><path class="cls-13" d="M211.61,8.16a40.52,40.52,0,0,1,4.77-.66,35.64,35.64,0,0,1,4.85,0,19.81,19.81,0,0,1,4.87.91,10.21,10.21,0,0,1,4.44,2.76h0l-1.91.37c1-2.1,2-4.23,2.86-6.4a.15.15,0,0,1,.2-.08.15.15,0,0,1,.09.16c-.27,2.34-.64,4.66-1,7a1,1,0,0,1-1.18.84,1,1,0,0,1-.58-.31l-.15-.16h0A8.34,8.34,0,0,0,225.46,10a18.12,18.12,0,0,0-4.39-1.2,32.78,32.78,0,0,0-4.66-.36,38.84,38.84,0,0,0-4.7.24h0a.28.28,0,0,1-.31-.25A.28.28,0,0,1,211.61,8.16Z"/><path class="cls-9" d="M229.77,13.33a1.24,1.24,0,0,1-1.18-.66c-2.67-3.51-9.49-3.79-9.56-3.79a.29.29,0,0,1-.27-.29.3.3,0,0,1,.29-.27c.29,0,7.18.3,10,4a.16.16,0,0,1,0,.07s.22.44.95.3.75-1.8.88-3c0-.41.08-.8.12-1.14a.29.29,0,0,1,.32-.24.27.27,0,0,1,.23.32c0,.33-.08.72-.12,1.11-.17,1.65-.34,3.36-1.33,3.54A2.76,2.76,0,0,1,229.77,13.33Z"/><path class="cls-11" d="M216.81,118.69h23.45s9.37,15,10.91,48.78c0,0,8.26,43.84,10,62.64H249S234,195,231.7,174.61c0,0-11.54-19.46-14.89-39.61-3.34,20.15-14.88,39.61-14.88,39.61-2.27,20.41-17.28,55.5-17.28,55.5h-12.2c1.74-18.8,10-62.64,10-62.64,2.1-33.15,11-48.78,11-48.78Z"/><path class="cls-11" d="M232.27,72.93h0c4.38,2.91,25.41,9.17,25.41,9.17a76.37,76.37,0,0,1-14.1,17.52c1.23,3.16,6,9.67,6,9.67a59,59,0,0,0,22.57-22c8.7-15.23-23.34-28.66-29.25-31.2a44,44,0,0,0-17.83-3.56c-4.4,2.31-5.45,3.31-8.27,3.52h0c-2.82-.21-6.07-1.21-10.46-3.52,0,0-9.59,1.37-15.64,3.56s-38,16-29.24,31.2a57.27,57.27,0,0,0,22.89,21.84s4.78-6.51,6-9.67A68.8,68.8,0,0,1,176,82.1S195.66,75.9,200,73Z"/><path class="cls-5" d="M200.51,80.17s.57,21.37-7.06,38.52h46.81a78.47,78.47,0,0,1-8.68-38.38Z"/><path class="cls-9" d="M248.35,141.32a.27.27,0,0,1-.27-.21c-4.16-16.23-8-22.21-8.05-22.27a.28.28,0,1,1,.47-.31c0,.06,3.93,6.1,8.11,22.44a.28.28,0,0,1-.2.34Z"/><path class="cls-9" d="M183.6,155.58h0a.27.27,0,0,1-.25-.3,115.13,115.13,0,0,1,5.1-24.55.27.27,0,0,1,.35-.16.27.27,0,0,1,.17.35,114,114,0,0,0-5.07,24.41A.27.27,0,0,1,183.6,155.58Z"/><path class="cls-9" d="M224.61,160.58a.29.29,0,0,1-.26-.16,126.37,126.37,0,0,1-5.4-14.91.28.28,0,0,1,.54-.15,122.75,122.75,0,0,0,5.37,14.83.27.27,0,0,1-.14.36A.23.23,0,0,1,224.61,160.58Z"/><path class="cls-11" d="M248.41,100.28s-2.2-4-5.22-3.59c-11,1.57-6.36,4.6-7.19,5.08-1.61.93-5,.85-3.86,4.77a2.06,2.06,0,0,0,1.26,1.39,2.21,2.21,0,0,0,2.13,3.65s-1.52.5-1,1.74,1.45,2.35,2.82,1.93c0,0,.07,2,2.54,1.76,6.29-.52,7.08-3.72,8.67-6.33a30,30,0,0,1,4-3.52S253.67,106,248.41,100.28Z"/><path class="cls-9" d="M233.4,108.21a.29.29,0,0,1-.28-.25.28.28,0,0,1,.25-.3s4-.45,5.95-.93a.28.28,0,0,1,.34.2.29.29,0,0,1-.21.34c-2,.49-5.86.92-6,.94Z"/><path class="cls-9" d="M234.55,112.1h0a.28.28,0,0,1,0-.55h0a36,36,0,0,0,6-.49.29.29,0,0,1,.34.21.26.26,0,0,1-.2.33A34.88,34.88,0,0,1,234.55,112.1Z"/><path class="cls-9" d="M237,115.56h0a.28.28,0,1,1,0-.55h0a23.43,23.43,0,0,0,4.79-.49.28.28,0,0,1,.33.21.26.26,0,0,1-.2.33A24.6,24.6,0,0,1,237,115.56Z"/><path class="cls-9" d="M236,102.05a.28.28,0,0,1-.28-.26.27.27,0,0,1,.26-.29,13.82,13.82,0,0,0,4.54-1.06.28.28,0,0,1,.37.14.28.28,0,0,1-.13.37,14.09,14.09,0,0,1-4.75,1.1Z"/><path class="cls-11" d="M184.75,100.28s2.19-4,5.22-3.59c11,1.57,6.36,4.6,7.19,5.08,1.6.93,5,.85,3.86,4.77a2.09,2.09,0,0,1-1.26,1.39,2.22,2.22,0,0,1-2.13,3.65s1.52.5,1,1.74-1.45,2.35-2.83,1.93c0,0-.06,2-2.54,1.76-6.28-.52-7.08-3.72-8.67-6.33-.53-.89-4-3.52-4-3.52S179.49,106,184.75,100.28Z"/><path class="cls-9" d="M199.76,108.21h0c-.17,0-4-.45-6-.94a.28.28,0,0,1,.14-.54c2,.48,5.91.92,5.95.93a.26.26,0,0,1,.24.3A.27.27,0,0,1,199.76,108.21Z"/><path class="cls-9" d="M198.61,112.1a34.81,34.81,0,0,1-6.16-.5.26.26,0,0,1-.2-.33.28.28,0,0,1,.33-.21,35.27,35.27,0,0,0,6,.49h0a.28.28,0,0,1,.28.28.27.27,0,0,1-.28.27Z"/><path class="cls-9" d="M196.19,115.56a24.6,24.6,0,0,1-4.91-.5.28.28,0,0,1-.21-.33.29.29,0,0,1,.34-.21,24.34,24.34,0,0,0,4.78.49h0a.28.28,0,0,1,0,.55Z"/><path class="cls-9" d="M197.16,102.05h0a14.09,14.09,0,0,1-4.75-1.1.28.28,0,1,1,.23-.51,13.87,13.87,0,0,0,4.54,1.06.28.28,0,0,1,.27.29A.28.28,0,0,1,197.16,102.05Z"/><path class="cls-9" d="M239.39,125.55a.28.28,0,0,1-.28-.28V118.8a.28.28,0,1,1,.55,0v6.47A.28.28,0,0,1,239.39,125.55Z"/><path class="cls-8" d="M236.07,128.59a.28.28,0,0,1-.28-.28v-6.47a.28.28,0,0,1,.28-.28.29.29,0,0,1,.28.28v6.47A.29.29,0,0,1,236.07,128.59Z"/><path class="cls-9" d="M232.75,131.1a.28.28,0,0,1-.28-.27v-6.47a.28.28,0,0,1,.56,0v6.47A.28.28,0,0,1,232.75,131.1Z"/><path class="cls-8" d="M229.43,133.31a.28.28,0,0,1-.28-.28v-6.47a.28.28,0,0,1,.56,0V133A.28.28,0,0,1,229.43,133.31Z"/><path class="cls-9" d="M226.11,136.22a.28.28,0,0,1-.28-.28v-6.47a.29.29,0,0,1,.28-.28.28.28,0,0,1,.28.28v6.47A.27.27,0,0,1,226.11,136.22Z"/><path class="cls-8" d="M222.79,138.13a.27.27,0,0,1-.27-.27v-6.47a.28.28,0,1,1,.55,0v6.47A.27.27,0,0,1,222.79,138.13Z"/><path class="cls-9" d="M219.47,139.7a.28.28,0,0,1-.27-.28V133a.28.28,0,1,1,.55,0v6.47A.28.28,0,0,1,219.47,139.7Z"/><path class="cls-8" d="M194.29,125.55a.28.28,0,0,1-.27-.28V118.8a.28.28,0,1,1,.55,0v6.47A.28.28,0,0,1,194.29,125.55Z"/><path class="cls-9" d="M197.61,128.59a.29.29,0,0,1-.28-.28v-6.47a.28.28,0,0,1,.56,0v6.47A.29.29,0,0,1,197.61,128.59Z"/><path class="cls-8" d="M200.93,131.1a.28.28,0,0,1-.28-.27v-6.47a.28.28,0,1,1,.56,0v6.47A.28.28,0,0,1,200.93,131.1Z"/><path class="cls-9" d="M204.25,133.31A.28.28,0,0,1,204,133v-6.47a.28.28,0,0,1,.56,0V133A.28.28,0,0,1,204.25,133.31Z"/><path class="cls-8" d="M207.57,136.22a.27.27,0,0,1-.28-.28v-6.47a.28.28,0,1,1,.55,0v6.47A.27.27,0,0,1,207.57,136.22Z"/><path class="cls-9" d="M210.89,138.13a.27.27,0,0,1-.28-.27v-6.47a.28.28,0,1,1,.55,0v6.47A.27.27,0,0,1,210.89,138.13Z"/><path class="cls-8" d="M214.2,139.7a.28.28,0,0,1-.27-.28V133a.28.28,0,1,1,.55,0v6.47A.28.28,0,0,1,214.2,139.7Z"/><path class="cls-2" d="M196.8,109.09l1.62-6.87s17.49-5.34,35.47,0l2.09,6.87S220.83,103,196.8,109.09Z"/><path class="cls-5" d="M196.8,109.09s21.18-5.93,39.18,0a28.53,28.53,0,0,1,4.28,9.6s-6.16,8.87-23.45,16.31c0,0-14.25-5.26-23.36-16.31A69.77,69.77,0,0,1,196.8,109.09Z"/><path class="cls-13" d="M218.78,108.57H214a4.2,4.2,0,0,1-4.2-4.19v-2.17A4.2,4.2,0,0,1,214,98h4.77a4.2,4.2,0,0,1,4.19,4.2v2.17A4.2,4.2,0,0,1,218.78,108.57ZM214,100.23a2,2,0,0,0-2,2v2.17a2,2,0,0,0,2,2h4.77a2,2,0,0,0,2-2v-2.17a2,2,0,0,0-2-2Z"/><path class="cls-13" d="M193.45,118.69s7.14,10.11,23.36,16.31c0,0,15.53-6,23.45-16.31a23.5,23.5,0,0,0-.7-2.32,226.79,226.79,0,0,1-23.06,17.19s-13-7.87-22.38-17.19Z"/><path class="cls-9" d="M216.09,56.4a16.69,16.69,0,0,1-9.92-3.7.27.27,0,0,1,0-.39.28.28,0,0,1,.39,0c.38.33,9.3,8,18.36,0a.28.28,0,0,1,.39,0,.27.27,0,0,1,0,.39A13.61,13.61,0,0,1,216.09,56.4Z"/><polygon class="cls-13" points="215.95 53.3 213.74 56.22 215.95 58.99 218.13 56.15 215.95 53.3"/><path class="cls-5" d="M246.63,96.66A37.48,37.48,0,0,1,253.45,107a63.23,63.23,0,0,0,17.92-14.56s-9.63-4.25-16.71-5.63A123,123,0,0,1,246.63,96.66Z"/><path class="cls-9" d="M254.66,86.81l-1.49,2,14,8.11a32.52,32.52,0,0,0,4.16-4.46A63.7,63.7,0,0,0,254.66,86.81Z"/><path class="cls-5" d="M187.36,96.64A37.48,37.48,0,0,0,180.54,107a63.08,63.08,0,0,1-17.92-14.55s9.64-4.26,16.71-5.64A123,123,0,0,0,187.36,96.64Z"/><path class="cls-9" d="M179.33,86.79s-6.55,1-16.71,5.64c0,0,1.74,2.08,3.16,3.46,0,0,8.45-4,14.75-7.49Z"/><path class="cls-13" d="M216.81,87.17c11.79,0,19.95,1.25,20.79-6.68A15.4,15.4,0,0,0,233.5,68a111.28,111.28,0,0,1-.78-14.76,7.81,7.81,0,0,0-4.45-.75s-1.43,8.66-11.46,16.67c-10-8-11.47-16.67-11.47-16.67a7.78,7.78,0,0,0-4.44.75A111.28,111.28,0,0,1,200.12,68,15.4,15.4,0,0,0,196,80.49C196.86,88.42,205,87.17,216.81,87.17Z"/><path class="cls-2" d="M200.12,68s7.37-3.25,16.69,1.16c0,0-8.77-6.91-11.47-16.67a5,5,0,0,0-4.44.75S200.71,61.6,200.12,68Z"/><path class="cls-2" d="M233.5,68s-7.38-3.25-16.69,1.16c0,0,8.77-6.91,11.46-16.67a5,5,0,0,1,4.45.75S232.91,61.6,233.5,68Z"/><path class="cls-8" d="M203.13,82.11a.27.27,0,0,1-.22-.11l-3.5-4.4a.27.27,0,0,1,0-.34l3.5-4.62a.27.27,0,0,1,.22-.11.36.36,0,0,1,.22.11l3.45,4.51a.27.27,0,0,1,0,.34L203.35,82a.27.27,0,0,1-.22.11ZM200,77.43l3.14,3.95,3.11-4.06-3.1-4.06Z"/><path class="cls-8" d="M210.07,75.93a.32.32,0,0,1-.22-.1l-2.2-2.78a.29.29,0,0,1,0-.34l2.21-2.92a.27.27,0,0,1,.22-.11.31.31,0,0,1,.22.11l2.18,2.85a.26.26,0,0,1,0,.33l-2.18,2.85a.27.27,0,0,1-.22.11Zm-1.85-3.06,1.85,2.33,1.83-2.39-1.83-2.39Z"/><path class="cls-8" d="M216.82,82.15a.27.27,0,0,1-.22-.11l-1.33-1.66a.29.29,0,0,1,0-.34l1.33-1.76a.27.27,0,0,1,.22-.11h0a.29.29,0,0,1,.22.11L218.35,80a.3.3,0,0,1,0,.34L217,82a.28.28,0,0,1-.22.11Zm-1-2,1,1.22,1-1.26-1-1.25Z"/><path class="cls-8" d="M230,79.31a.29.29,0,0,1-.22-.11l-1.32-1.67a.27.27,0,0,1,0-.34l1.32-1.75a.27.27,0,0,1,.22-.11h0a.27.27,0,0,1,.22.11l1.31,1.71a.27.27,0,0,1,0,.34l-1.31,1.71a.27.27,0,0,1-.22.11Zm-1-2,1,1.22,1-1.26-1-1.25Z"/><path class="cls-8" d="M203.11,79.31a.26.26,0,0,1-.21-.11l-1.33-1.67a.27.27,0,0,1,0-.34l1.32-1.75a.29.29,0,0,1,.22-.11.25.25,0,0,1,.22.11l1.31,1.71a.27.27,0,0,1,0,.34l-1.31,1.71a.26.26,0,0,1-.21.11Zm-1-2,1,1.22,1-1.26-.95-1.25Z"/><path class="cls-8" d="M223.43,75.93a.3.3,0,0,1-.22-.1L221,73.05a.29.29,0,0,1,0-.34l2.21-2.92a.27.27,0,0,1,.22-.11h0a.27.27,0,0,1,.22.11l2.18,2.85a.26.26,0,0,1,0,.33l-2.18,2.85a.27.27,0,0,1-.22.11Zm-1.86-3.06,1.86,2.33,1.83-2.39-1.83-2.39Z"/><path class="cls-8" d="M216.83,85a.32.32,0,0,1-.22-.1l-3.49-4.4a.29.29,0,0,1,0-.34l3.5-4.63a.23.23,0,0,1,.22-.11.27.27,0,0,1,.22.11L220.51,80a.3.3,0,0,1,0,.34l-3.46,4.51a.27.27,0,0,1-.22.11Zm-3.15-4.68,3.15,4,3.11-4.06-3.11-4Z"/><path class="cls-8" d="M230,82.11a.26.26,0,0,1-.21-.11l-3.5-4.4a.27.27,0,0,1,0-.34l3.49-4.62a.39.39,0,0,1,.22-.11.3.3,0,0,1,.23.11l3.45,4.51a.27.27,0,0,1,0,.34L230.27,82a.29.29,0,0,1-.22.11Zm-3.14-4.68L230,81.38l3.11-4.06-3.1-4.06Z"/><path class="cls-2" d="M253.67,181.6s-1.23-7.7-2.57-14.13c0,0-7,4.57-19.48,7.14,0,0,.33,8.37,4.59,20.62C236.21,195.23,245.51,187.92,253.67,181.6Z"/><path class="cls-13" d="M261.18,230.11s-2.14-31.6-2.49-51.51a124.54,124.54,0,0,0-22.37,16.63s6.7,24.2,12.66,34.88C249,230.11,254.12,236.5,261.18,230.11Z"/><path class="cls-9" d="M243.18,217a.28.28,0,0,1-.26-.18c-1.57-4.13-4.4-13.16-4.43-13.25a.27.27,0,0,1,.18-.35.29.29,0,0,1,.35.18c0,.1,2.86,9.11,4.42,13.22a.28.28,0,0,1-.16.36Z"/><path class="cls-2" d="M261.18,224.48s-11.39,5.12-14.94,0L249,239h34S280.66,223.53,261.18,224.48Z"/><path class="cls-8" d="M255.75,215.93a.28.28,0,0,1-.22-.1l-1.32-1.67a.29.29,0,0,1,0-.34l1.33-1.75a.27.27,0,0,1,.22-.11h0a.27.27,0,0,1,.22.11l1.31,1.71a.27.27,0,0,1,0,.34L256,215.83A.23.23,0,0,1,255.75,215.93Zm-1-1.94,1,1.22,1-1.26-1-1.25Z"/><path class="cls-8" d="M255.76,218.74a.26.26,0,0,1-.21-.11l-3.5-4.4a.27.27,0,0,1,0-.34l3.49-4.62a.28.28,0,0,1,.22-.11h0a.27.27,0,0,1,.22.11l3.46,4.51a.3.3,0,0,1,0,.34L256,218.63A.24.24,0,0,1,255.76,218.74Zm-3.14-4.68,3.14,3.95,3.11-4.06-3.1-4.06Z"/><path class="cls-8" d="M246.25,209.2a.26.26,0,0,1-.22-.1l-1.33-1.67a.27.27,0,0,1,0-.34l1.32-1.75a.29.29,0,0,1,.22-.11h0a.29.29,0,0,1,.22.11l1.3,1.71a.27.27,0,0,1,0,.34l-1.3,1.71C246.41,209.16,246.35,209.22,246.25,209.2Zm-1-1.94,1,1.22,1-1.26-.95-1.25Z"/><path class="cls-8" d="M246.26,212a.27.27,0,0,1-.22-.11l-3.5-4.4a.27.27,0,0,1,0-.34l3.5-4.62a.27.27,0,0,1,.22-.11h0a.28.28,0,0,1,.22.11l3.45,4.51a.27.27,0,0,1,0,.34l-3.45,4.51A.24.24,0,0,1,246.26,212Zm-3.15-4.68,3.14,3.95,3.11-4.06-3.1-4.06Z"/><path class="cls-8" d="M253.2,192.7a.29.29,0,0,1-.22-.1l-1.33-1.67a.29.29,0,0,1,0-.34l1.33-1.75a.23.23,0,0,1,.22-.11.32.32,0,0,1,.22.1l1.31,1.71a.3.3,0,0,1,0,.34l-1.31,1.71A.23.23,0,0,1,253.2,192.7Zm-1-1.95,1,1.22,1-1.26-1-1.25Z"/><path class="cls-8" d="M253.21,195.5a.28.28,0,0,1-.22-.1L249.5,191a.29.29,0,0,1,0-.34L253,186a.27.27,0,0,1,.22-.11h0a.27.27,0,0,1,.22.11l3.46,4.51a.3.3,0,0,1,0,.34l-3.46,4.51A.22.22,0,0,1,253.21,195.5Zm-3.15-4.68,3.15,4,3.11-4.07-3.11-4.05Z"/><path class="cls-8" d="M254.52,204.52a.29.29,0,0,1-.22-.1l-2.2-2.78a.29.29,0,0,1,0-.34l2.21-2.92a.29.29,0,0,1,.22-.11.27.27,0,0,1,.22.11l2.18,2.85a.27.27,0,0,1,0,.34l-2.18,2.84A.23.23,0,0,1,254.52,204.52Zm-1.86-3.05,1.85,2.32,1.84-2.39L254.52,199Z"/><path class="cls-8" d="M249.73,223.05a.27.27,0,0,1-.22-.11l-2.21-2.77a.27.27,0,0,1,0-.34l2.21-2.92a.27.27,0,0,1,.22-.11h0a.29.29,0,0,1,.22.11l2.18,2.84a.3.3,0,0,1,0,.34L250,222.94A.28.28,0,0,1,249.73,223.05ZM247.87,220l1.85,2.33,1.84-2.4-1.83-2.39Z"/><path class="cls-8" d="M243.19,200.52a.29.29,0,0,1-.22-.11l-2.2-2.77a.29.29,0,0,1,0-.34l2.21-2.92a.27.27,0,0,1,.22-.11h0a.27.27,0,0,1,.22.11l2.18,2.84a.27.27,0,0,1,0,.34l-2.18,2.85A.25.25,0,0,1,243.19,200.52Zm-1.85-3.06,1.85,2.33,1.83-2.4L243.19,195Z"/><path class="cls-2" d="M179.88,181.6s1.24-7.7,2.58-14.13c0,0,6.95,4.57,19.47,7.14,0,0-.33,8.37-4.59,20.62C197.34,195.23,188,187.92,179.88,181.6Z"/><path class="cls-13" d="M184.69,230.11c5.95-10.68,12.65-34.88,12.65-34.88A124.29,124.29,0,0,0,175,178.6c-.36,19.91-2.49,51.51-2.49,51.51S179.21,235.49,184.69,230.11Z"/><path class="cls-9" d="M193.22,209l-.1,0a.27.27,0,0,1-.15-.36,97.76,97.76,0,0,0,2.87-9.57.26.26,0,0,1,.33-.2.29.29,0,0,1,.21.34,98.49,98.49,0,0,1-2.9,9.64A.28.28,0,0,1,193.22,209Z"/><path class="cls-2" d="M172.54,224.48s11.33,5.12,14.89,0L184.74,239h-34S153.06,223.53,172.54,224.48Z"/><path class="cls-8" d="M178.22,215.93a.32.32,0,0,1-.22-.1l-1.31-1.71a.27.27,0,0,1,0-.34l1.31-1.71a.27.27,0,0,1,.22-.11h0a.27.27,0,0,1,.22.11l1.32,1.75a.27.27,0,0,1,0,.34l-1.33,1.67A.25.25,0,0,1,178.22,215.93Zm-1-2,1,1.26,1-1.22-1-1.29Z"/><path class="cls-8" d="M178.2,218.74a.27.27,0,0,1-.22-.11l-3.45-4.51a.27.27,0,0,1,0-.34l3.45-4.51a.29.29,0,0,1,.22-.11h0a.3.3,0,0,1,.23.11l3.49,4.62a.27.27,0,0,1,0,.34l-3.5,4.4A.27.27,0,0,1,178.2,218.74ZM175.1,214l3.11,4.06,3.14-3.95-3.15-4.17Z"/><path class="cls-8" d="M187.72,209.2h0a.29.29,0,0,1-.22-.1l-1.31-1.71a.3.3,0,0,1,0-.34l1.31-1.71a.29.29,0,0,1,.22-.11h0a.27.27,0,0,1,.22.11l1.33,1.75a.29.29,0,0,1,0,.34l-1.33,1.67A.26.26,0,0,1,187.72,209.2Zm-1-2,1,1.26,1-1.22-1-1.29Z"/><path class="cls-8" d="M187.71,212a.28.28,0,0,1-.22-.11L184,207.39a.3.3,0,0,1,0-.34l3.46-4.51a.27.27,0,0,1,.22-.11h0a.27.27,0,0,1,.22.11l3.5,4.62a.29.29,0,0,1,0,.34l-3.49,4.4A.29.29,0,0,1,187.71,212Zm-3.11-4.79,3.11,4.06,3.15-3.95-3.15-4.17Z"/><path class="cls-8" d="M180.77,192.7a.28.28,0,0,1-.22-.11l-1.31-1.71a.3.3,0,0,1,0-.34l1.31-1.71a.29.29,0,0,1,.22-.1h0a.27.27,0,0,1,.22.11l1.33,1.75a.29.29,0,0,1,0,.34L181,192.6A.29.29,0,0,1,180.77,192.7Zm-1-2,1,1.26,1-1.22-1-1.29Z"/><path class="cls-8" d="M180.76,195.5a.22.22,0,0,1-.22-.11l-3.46-4.51a.3.3,0,0,1,0-.34l3.46-4.51a.27.27,0,0,1,.22-.11h0a.28.28,0,0,1,.22.11l3.5,4.63a.29.29,0,0,1,0,.34l-3.5,4.4A.25.25,0,0,1,180.76,195.5Zm-3.11-4.79,3.11,4.07,3.14-4-3.14-4.16Z"/><path class="cls-8" d="M179.45,204.52a.26.26,0,0,1-.22-.11l-2.18-2.84a.27.27,0,0,1,0-.34l2.18-2.85a.27.27,0,0,1,.22-.11h0a.27.27,0,0,1,.22.11l2.21,2.92a.29.29,0,0,1,0,.34l-2.2,2.78A.32.32,0,0,1,179.45,204.52Zm-1.83-3.12,1.83,2.39,1.85-2.32L179.45,199Z"/><path class="cls-8" d="M184.24,223.05a.25.25,0,0,1-.22-.11l-2.18-2.85a.3.3,0,0,1,0-.34l2.18-2.84a.28.28,0,0,1,.22-.11.33.33,0,0,1,.22.11l2.21,2.92a.29.29,0,0,1,0,.34l-2.21,2.77A.27.27,0,0,1,184.24,223.05Zm-1.83-3.13,1.84,2.4L186.1,220l-1.86-2.46Z"/><path class="cls-8" d="M190.78,200.52a.22.22,0,0,1-.22-.11l-2.18-2.85a.27.27,0,0,1,0-.34l2.18-2.84a.27.27,0,0,1,.22-.11h0a.28.28,0,0,1,.22.11l2.2,2.92a.27.27,0,0,1,0,.34L191,200.41A.26.26,0,0,1,190.78,200.52ZM189,197.39l1.83,2.4,1.85-2.33L190.77,195Z"/></svg>