<svg xmlns="http://www.w3.org/2000/svg" viewBox="0 0 299.73 211.76"><defs><style>.cls-1{fill:#fff;}.cls-2{fill:#014338;}.cls-3{fill:#6c2910;}.cls-4{fill:#844813;}.cls-5{fill:#4b3c32;}.cls-6{fill:#ffdf5d;}.cls-7{fill:#dbc052;}.cls-8{fill:#b37d11;}.cls-9{fill:#0b1d14;}.cls-10{fill:#af9e7d;}.cls-11{fill:#c0bd99;}.cls-12{fill:#ec6839;}.cls-13{fill:#66361d;}.cls-14{fill:#c88a5e;}.cls-15{fill:#2d1a0f;}.cls-16{fill:#7f7f74;}.cls-17{fill:#622a0d;}.cls-18{fill:#a1a08b;}.cls-19{fill:#c76754;}.cls-20{fill:#fdce75;}.cls-21{fill:#a85717;}.cls-22{fill:#844413;}.cls-23{fill:#f6a010;}.cls-24{fill:#4a2410;}.cls-25{fill:#c0811b;}.cls-26{fill:#5b2e0f;}.cls-27{fill:#ae5140;}.cls-28{fill:#dbd59e;}.cls-29{fill:#1f4958;}.cls-30{fill:#173d47;}.cls-31{fill:#394429;}.cls-32{fill:#776b61;}.cls-33{fill:#ceb1a0;}.cls-34{fill:#f18718;}.cls-35{fill:#1d0c08;}.cls-36{fill:#352b50;}.cls-37{fill:#2a2444;}.cls-38{fill:#1a373f;}</style></defs><g id="Capa_2" data-name="Capa 2"><g id="Capa_1-2" data-name="Capa 1"><path class="cls-1" d="M244.77,90c-6.65-5.54-17.59-6.39-21.35-14.07-2.31-4.72-.86-10.38,1.59-15s5.87-8.8,7.78-13.68,2-11-1.82-14.7-9.52-3.77-14.66-3.09-10.46,2-15.43.49c-8.08-2.4-12.1-10.94-18.07-16.76a31.91,31.91,0,0,0-22.42-8.65q-6.85.07-13.72,0a31.92,31.92,0,0,0-22.42,8.65c-6,5.82-10,14.36-18.07,16.76-5,1.48-10.28.19-15.42-.49s-11-.5-14.67,3.09-3.72,9.83-1.81,14.7,5.32,9,7.77,13.68,3.9,10.3,1.59,15C79.89,83.57,68.94,84.42,62.29,90c-7.46,6.21-7.71,18.91-.48,25.39,4,3.57,9.35,5.13,14.12,7.58s9.41,6.59,9.44,11.85c0,7.78-9.53,12.41-11.72,19.89-1.25,4.31.2,9,2.91,12.65s6.55,6.26,10.49,8.56a97.84,97.84,0,0,0,56.17,12.94l10.31-6.07,10.31,6.07A97.86,97.86,0,0,0,220,175.88c3.93-2.3,7.77-4.95,10.48-8.56s4.16-8.34,2.91-12.65c-2.19-7.48-11.77-12.11-11.72-19.89,0-5.26,4.67-9.4,9.44-11.85s10.16-4,14.13-7.58C252.48,108.87,252.24,96.17,244.77,90Z"/><path class="cls-1" d="M245.54,107.08a6.14,6.14,0,0,0,.43-4.57c-.78-1.94-3.09-2.92-5.23-2.93a7.15,7.15,0,0,0-4,1.12,4.81,4.81,0,0,0-2.15,3.39,11.09,11.09,0,0,0,.62,3.75c.61,2.59-.28,4-2.58,5.19-1.44.74-2,2.12-.85,3.5,2.17,2.67,8.19-2.22,9.83-3.81A17.16,17.16,0,0,0,245.54,107.08Z"/><path class="cls-1" d="M79.65,48.52c-1.68-3.06-2.24-6.92-.56-10a8.18,8.18,0,0,1,9.54-3.69c3.51,1.26,5.63,5.46,4.32,8.86-.85,2.21-2.93,4-2.93,6.4a12.52,12.52,0,0,0,.7,3.1c.93,3.58-1.94,5.06-4.58,2.75A29.5,29.5,0,0,1,79.65,48.52Z"/><path class="cls-1" d="M196.41,70.18a17.94,17.94,0,0,0,4.75-3.94,7.6,7.6,0,0,0,1.77-5.7,5.12,5.12,0,0,0-3.9-4.28c-2.06-.38-4.39,1.09-4.54,3.12-.13,1.7,1.12,3.39.62,5a4.73,4.73,0,0,1-2.84,2.52A7.56,7.56,0,0,0,189,69c-1.21,1.68-.14,2.91,1.5,3.08C192.61,72.31,194.69,71.24,196.41,70.18Z"/><path class="cls-1" d="M174.54,10.47a7.16,7.16,0,0,1,3,2.95,3,3,0,0,1-.95,3.73,3.27,3.27,0,0,1-3.22-.24A10.32,10.32,0,0,1,171,14.58a8,8,0,0,0-2.49-2.21c-1.4-.68-3.53-.59-4.41-2.07-.65-1.11.08-2.06,1.16-2.51C168.05,6.6,172.22,9.05,174.54,10.47Z"/><path class="cls-2" d="M162.89,176.52a14.6,14.6,0,0,1-1.83,6.28H90.9c-1.81-1.35-2.61-3-1.28-4.31,3.51-3.5,17.28-.66,17.94-4.59s-10.06-.22-16.62-3.72-5.25-8.75-.66-9,14.21,2.4,14.65-.88S94.44,158.15,94,151.59s6.56-10.79,12.9-9,12.9,14.26,16.84,12.08-4.15-9.85.22-9.85,9.62,1.1,12.24,7.44-3,10.93-.86,11.81,5.89-2.19,5.68-8.31,9.84,5.24,10.06,9.84-3.1,6.54-2.65,9.6,5.71-3,5.71-7S162.89,166.46,162.89,176.52Z"/><path class="cls-3" d="M137.76,120.57s-2.39,11,1.2,20.37,7.17,5.58,8.77,14.75.6,13.76,6.18,17.15,4,10,4,10h13.15s-3.19-16.34-9.57-21.33-4.78-10.6-9.57-14.77S140.35,139.07,137.76,120.57Z"/><path class="cls-3" d="M165.47,175.65s1.4-13.38,12.16-16.37,13.16-10,17-14.95,11.21-8.18,16.57-9.37c0,0-5.61-3.39-13.78,0S185,147.32,176.64,148.51s-17.55,16.23-17.55,16.23Z"/><path class="cls-2" d="M180.2,158.43s3.26-.15,6.25,3.29a10.69,10.69,0,0,1,2.25,8s-8.83,1-9.12-11.3"/><path class="cls-2" d="M175.23,148.85s-2.22-2.4-1.51-6.9a10.71,10.71,0,0,1,4.69-6.87s6.42,6.14-2.78,14.25"/><path class="cls-2" d="M194.38,144.82a7.51,7.51,0,0,1,5.72-2.52,9.41,9.41,0,0,1,6.78,2.86s-4.19,6.64-12.84.09"/><path class="cls-2" d="M192.77,138.14a7.48,7.48,0,0,1-1.61-6,9.41,9.41,0,0,1,3.86-6.26s5.93,5.16-1.88,12.71"/><path class="cls-2" d="M137.7,133.56s-2.91,1.47-7-.43a10.65,10.65,0,0,1-5.33-6.38s7.64-4.51,13,6.55"/><path class="cls-2" d="M149.61,145a7.51,7.51,0,0,1-1.61-6,9.44,9.44,0,0,1,3.86-6.26s5.93,5.17-1.88,12.72"/><path class="cls-4" d="M15.44,86.81s6.66,8.8,12,9.57a5.27,5.27,0,0,1-6,.5L23,99.37a6,6,0,0,1-6-1.49l1.51,2.78s-1.61,1-4.7-2.88A14,14,0,0,1,11,89.3Z"/><path class="cls-3" d="M16.35,120.6s-1.8,8.18,4.78,13.16,8.18-12.36,8.18-12.36l4.38,1.6s-4.91,9.37-1.85,12.75,6-7.57,6-7.57l5.28,1.19s-4.08,6.09-1.09,7,3.68-10.81,3.68-10.81l3.49,2.94s-1.19,11.41,2,13,4.58-10.47,4.58-10.47l4.79.07s-1,13.91,2.59,15.54c0,0,3,3.23,5.38-3.15s4.79-16.15,4.79-16.15l7.23.6s-12.1,35.37-9.37,43.7L0,172.84V132.56S7.18,119.81,16.35,120.6Z"/><path class="cls-2" d="M0,56.58s19.78-8.89,37.87-8.89,32.5,21.77,32.5,21.77h-4.9l-12-10.89,7.21,10.89-3.07.92L50.29,60.11,54,70.38h-2.3L44.16,57.19l3.83,14H44.16L39.71,59.42,42,70.07l-1.84,1.08L36.49,60.87,37,71.76H34.34l-4-11.35L32,71.76,29.9,73,25.76,62.41,27.14,73l-2,.76-6.28-11,2,11H19.32l-3.07-8.12.62,8.12H14.11l-2-7-.3,5.67L9.2,71.91,7.67,63.33l-.46,8.28L0,72.53Z"/><path class="cls-2" d="M0,150.71s5-5.19,15.15-3.79S29.9,158.48,29.9,158.48a23.21,23.21,0,0,1,16.75-3.79c9.77,1.6,15.15,7.78,16.55,15.16,0,0,15.55.79,19.34,13H0Z"/><path class="cls-2" d="M34.29,140.14s-6.78,8.57,2.19,17.94C36.48,158.08,44.86,149.31,34.29,140.14Z"/><path class="cls-2" d="M41.27,155.49s-4.19-10.56,3.79-15.35C45.06,140.14,49.24,152.1,41.27,155.49Z"/><path class="cls-2" d="M11.56,149.91s3.59-8.37-2.59-12.76c0,0-6.3,6.78,3.63,12.76"/><path class="cls-2" d="M0,132.56s4.46-6.67,9.58-7,11.13,7,20.56,7,10.2-3.19,9.59-3.49-5.61-2.87-4.93-4.85,4.78-.15,7.36,3.19,9.25,1.06,10-.15-7-5.31-5.15-5.76,3.33,3.33,7.73,3.18,6.52-3.34,6.52-4.55-8.94-2.43-7.12-3.49,6.67.15,7.12-2.73-2.88-4.39-6.82-4.39-5.46,3.18-8.8,3.18-.15-5.31,2.73-5.46-4.55-3.94-8-2.27-3.49,6.52-6.83,5.76-.52-7.73-3.37-7-7.39,1.82-8.3,5.61-4.4,6.52-5.46,5,.91-7.43-2.73-5.92-7.58,5.1-7.28,9.68S0,125.89,0,130.14Z"/><path class="cls-5" d="M0,91.5s13.16-.6,19.14-7.18S24.46,72,24.46,72h3.45l-3.59,13.9s21.93-8.57,41.47-7.37l-1.6,4.78s-19.93,0-27.11,4.39c0,0,11.37,4.78,13.76,8l-3.59,1.2S40.07,91.1,31.3,91.1,0,109,0,109Z"/><path class="cls-6" d="M16.35,60.72s15.55-.22,19.73,2.67A8.72,8.72,0,0,1,40,70.65H17.74Z"/><path class="cls-7" d="M31.88,70.65s-.23,2.55-4.62,2.85-8.37.25-8.37.25l-1.15-3.1Z"/><path class="cls-8" d="M13.58,88.23a8.05,8.05,0,0,1-4.52,1.46c-1.51-.07-2.88-.88-4.28-2.58-2.65-3.24-2.49-9.77-2.49-9.77C3,54.92,15.75,58.4,17.75,60.72s1.69,8.94,1.89,14.73S17.15,86.11,13.58,88.23Z"/><path class="cls-4" d="M11,64.28c-2.2,6.28,4.18,16.45,2.49,21a7.82,7.82,0,0,1-4.4,4.37c-1.51-.07-2.88-.88-4.28-2.58-2.65-3.24-2.49-9.77-2.49-9.77C3,54.92,15.75,58.4,17.75,60.72,17.75,60.72,13.16,58,11,64.28Z"/><circle class="cls-4" cx="15.42" cy="65.15" r="1.74"/><path class="cls-5" d="M259.21,159.5a1.1,1.1,0,0,1-.51.12A14.56,14.56,0,0,1,248,154.25a7.77,7.77,0,0,1-1.24-7.3,11.83,11.83,0,0,1,7.57-7.31,9.63,9.63,0,0,1,12.16,5.94,6.66,6.66,0,0,1-2,6.76,6.26,6.26,0,0,1-6.78,1.31,6.61,6.61,0,0,1-4.41-5.4,4,4,0,0,1,1.69-3.83,5.61,5.61,0,0,1,4.2-.72,4.89,4.89,0,0,1,3.07,2.29,2.94,2.94,0,0,1-.54,3.93,2.81,2.81,0,0,1-3.7,0,3.23,3.23,0,0,1-1-1.41,1.06,1.06,0,0,1,1.7-1.12h0a1.07,1.07,0,0,1,.31.45,1.53,1.53,0,0,0,.39.5.72.72,0,0,0,.91-.09c.24-.2.45-.56.08-1.18a2.83,2.83,0,0,0-1.75-1.31,3.42,3.42,0,0,0-2.58.46,2,2,0,0,0-.68,1.84,4.53,4.53,0,0,0,3.09,3.59,4.14,4.14,0,0,0,4.51-.9,4.49,4.49,0,0,0,1.44-4.51,7.42,7.42,0,0,0-9.51-4.58,9.64,9.64,0,0,0-6.16,5.91,5.67,5.67,0,0,0,.9,5.36,12.58,12.58,0,0,0,9,4.54,1.07,1.07,0,0,1,1.06,1.08A1.1,1.1,0,0,1,259.21,159.5Z"/><path class="cls-8" d="M280.16,131.43s11.66.3,18.94,5.68v13.46l-25.32-1.89a66.65,66.65,0,0,0-2.2-8.38C270.69,138.31,280.16,131.43,280.16,131.43Z"/><path class="cls-5" d="M271.53,104.36s-4-9.17-9.37-10.76-10.37-.6-16.94,2.59c0,0,5,2.79,2.79,4.59s-5.78-2.17-5.78-2.17a20.88,20.88,0,0,1-12.37,11.93c-9.37,3.19-23.32-1.79-23.32-1.79s5.38,8.17,10.57,10.17S269.34,120.31,271.53,104.36Z"/><path class="cls-9" d="M299,143.91s-6-6.28-18.36-4.59-17.87,14-17.87,14a28.12,28.12,0,0,0-20.3-4.59c-11.84,1.93-18.36,9.42-20,18.36,0,0-18.84,1-23.43,15.7H299Z"/><path class="cls-9" d="M206.89,155.71s12.42,4.58,9.06,19.94C216,175.65,201.75,171.87,206.89,155.71Z"/><path class="cls-9" d="M208.22,175.21s-4.4-13.05-15.52-11.24C192.7,164,198.19,178.32,208.22,175.21Z"/><path class="cls-5" d="M285,142.94s-4.35-10.14,3.14-15.46c0,0,7.64,8.21-4.39,15.46"/><path class="cls-2" d="M299,163.25s-21.2-9.53-40.59-9.53-34.85,23.34-34.85,23.34h5.26l12.82-11.67L234,177.06l3.29,1,7.89-11-3.94,11h2.46l8.06-14.13-4.11,15h4.11l4.76-12.57L254,177.71l2,1.15,3.94-11-.49,11.67h2.8l4.27-12.16-1.81,12.16,2.3,1.32,4.44-11.34L270,180.84l2.14.82,6.74-11.84-2.14,11.84h1.64l3.29-8.71-.66,8.71h3l2.14-7.56.33,6.08,2.79-.49,1.65-9.21.49,8.88,7.72,1Z"/><path class="cls-3" d="M299.73,112s.38-7.37-12.56-11.55-22.58-.64-30.59,8.37c-8.77,9.87-41,9.37-44,7,0,0,9.12,10.86,34.74,9.17,13.55-.9,44.86-4,51.73.23Z"/><path class="cls-4" d="M283.25,134.62l-3.1-1.4c1.8,4.79-3.08,8.87-3.08,8.87l-1.5-2.39a5.65,5.65,0,0,1-4,4.89s1-2.1-1.49-3.79c-2.09-1.42-5.31-1.16-8.47-2.46a10.63,10.63,0,0,1-1.8-.93c-3.69-2.39-2.79-9.77-2.79-9.77s2.49,1.4,3.29-3.19a8.91,8.91,0,0,1,4-6.28c-.59-.9-.59-3.68-.59-3.68,3.69,2.69,12.06,1.39,15,4.88s2,6.87,3.79,9.07S283.25,134.62,283.25,134.62Z"/><path class="cls-8" d="M269.34,129.79c-1.57.74-4.41,0-4.41,0a9.37,9.37,0,0,1,.52,5.08c-.3,1.58-2.23,2.76-3.83,3.47a10.63,10.63,0,0,1-1.8-.93c-3.69-2.39-2.79-9.77-2.79-9.77s2.49,1.4,3.29-3.19a8.91,8.91,0,0,1,4-6.28s2.5-.13,5,3.09S270.91,129,269.34,129.79Z"/><ellipse class="cls-4" cx="262.09" cy="126.2" rx="1.12" ry="1.79"/><path class="cls-10" d="M0,143.34a57.14,57.14,0,0,1,32.89,0c17.67,5.43,20.27,19.63,30.75,15.94s18.39-10.69,34-7,18.83,10.1,18.83,10.1,12.4-11,27.3-7.93,16.78,12.12,16.78,12.12,6.81-10.72,20-11.32S200.46,162,200.46,162s7-14.77,26.61-17,28.85,11.05,39.2,7.14,14.11-11.41,33.46-11v49.47H0Z"/><ellipse class="cls-11" cx="151.41" cy="202.53" rx="146.33" ry="9.24"/><path class="cls-12" d="M224.9,152.46a86.34,86.34,0,0,0-7.32,15.5,183,183,0,0,0-5.33,21L218,192.4l17.88-35.28Z"/><path class="cls-12" d="M247.65,156.17s-.26,11,2.33,19.92a149.43,149.43,0,0,0,7.61,19.35h7.82l-6.48-40.58Z"/><path class="cls-13" d="M228.67,102.07l-2.11,39.21-3,11.22,14,4.86,5.13-11.92S232.86,109.78,228.67,102.07Z"/><path class="cls-14" d="M227.69,89.71l27.55,4.35-1.7,7.61s5.64,43.18,7.24,51.9l-14.55,2.6L232.65,114s-3.85-6.89-5-10.94S227.69,89.71,227.69,89.71Z"/><path class="cls-12" d="M262.61,19.25c-.16.82-1.6,6.3-2.94,8.14s-6.69-.05-6.69-.05l-.66,5-9.45-2.18s1.95-8.08,1.77-9.66-2.9-3.46-3.45-7.09c-.41-2.7,7.13-6.68,13.07-7.56a9.57,9.57,0,0,1,5.09.32A4.83,4.83,0,0,1,261,8.81c.41,1.77-.28,4.24.65,5.55s2.71.54,3.08,1.87S262.77,18.44,262.61,19.25Z"/><path class="cls-15" d="M255,12.26a5.2,5.2,0,0,1-2.54,3.65s-.95-3.07-2.79-2.95-2.2,4.71-1.11,5.62,2.18,1.77,2.18,1.77-3.42,1.64-6.08.14c-.18-1.59-2.9-3.46-3.45-7.09-.41-2.7,7.13-6.68,13.07-7.56l.32.92A10.78,10.78,0,0,1,255,12.26Z"/><path class="cls-16" d="M241.21,12.85s18.37-4.53,19.47-5c0,0-1.46-6-4.22-7.34s-10-.09-12.24,2.77a9.32,9.32,0,0,0-3.36,3.28C239.58,8.79,241.21,12.85,241.21,12.85Z"/><path class="cls-17" d="M253,9.91l6.74-5s7.48,1.16,9.65,1.91S260.52,10,253,9.91Z"/><path class="cls-18" d="M234.07,33.57s5.27-5.69,8.57-6.37,6.88-.34,8.71.85c3.93,2.57,6,6.23,9.38,16.26s-3.45,35.77-3.45,35.77l-2.43,17.13-27.16-2.84,1.22-21.48S231.54,38.53,234.07,33.57Z"/><path class="cls-19" d="M216.28,37.08s-6.88,28.42-8.56,33-4.28,17.24-.93,24.87,17.34,7.81,20.49,5.4,10.21-67.18,10.21-67.18S223.73,24.24,216.28,37.08Z"/><path class="cls-17" d="M238.74,29s6.84-2.51,11.72.85,5.34,12.41,3,22.58-9.7,17.62-9.7,17.62l2.42-13.23L237.49,30.1Z"/><path class="cls-12" d="M235.49,50.39s-3.24,22.9-3,25.74,13.78,27.36,13.78,27.36l6.84-3.93-10.2-25.21L247.23,53Z"/><polygon class="cls-12" points="258.6 105.66 256.01 111.25 251.84 112.01 246.23 103.49 252.78 99.31 258.6 105.66"/><path class="cls-12" d="M258.6,105.66a32.89,32.89,0,0,1,2.43,5.23c.31,1.42.91,3,.26,3.5s-2-3.14-2-3.14l-2.06-3.4Z"/><path class="cls-12" d="M255.2,110.05s2.23,3.32,2.89,4.39,1.62,2.13,2.49,1.77-1.24-3.39-1.24-3.39l-2.31-5Z"/><path class="cls-12" d="M253.07,111.77a19.8,19.8,0,0,0,2.74,3.12c1.17.92,1.88,1.07,2.18.92s0-1.35-1-2-1.83-3-1.83-3Z"/><path class="cls-12" d="M251.84,112a7,7,0,0,0,1.59,2.73c1,.76,1.57,1,1.77.71s-.53-1.67-.53-1.67l-1.89-2.53Z"/><path class="cls-11" d="M238.94,34a25.76,25.76,0,0,0-4.05,10.81l-1.09,6.89,15.68,2.84s4.29-14,1.54-19.29C249.13,31.55,242.41,29.31,238.94,34Z"/><path class="cls-17" d="M238.74,29a14.07,14.07,0,0,0-7.39-1.81c-4.18.18-10.32,0-12.74,1.81s-7.35,13.44-5.68,14.28,5.77-7.26,8-9S233.49,33,235.45,34a3.76,3.76,0,0,0,3.82-.46Z"/><path class="cls-17" d="M214.11,76.94s-3.1,10.69-.74,12.77,8.56,3.94,11,2,4.23-14.1,4.23-14.1l-14.41-3.21Z"/><path class="cls-20" d="M217.09,73.05l12.16,2.61s.37,3.72-6.08,4.22a8.73,8.73,0,0,1-8.94-5.53,1.71,1.71,0,0,1-.12-.68C214.23,72.68,214.63,72.53,217.09,73.05Z"/><path class="cls-17" d="M205.17,70.48s-5.08,9.77-5.08,15,6.24,7.49,7.07,7.05,6.39-24.42,6.39-24.42Z"/><path class="cls-20" d="M211.07,61.91s-4.36.29-5.9,1.31-2.1,8.09-1.26,9.54,4.56-1.49,7.53-2.68S216.84,61.91,211.07,61.91Z"/><path class="cls-21" d="M245.19,154.37s15.25-3.47,15.59-3.35.66,3.35.66,3.35-14.95,2.88-15.26,3S245.19,154.37,245.19,154.37Z"/><path class="cls-21" d="M239.79,126.29s1.49,10,3.25,12,7.73,1.7,7.73,1.7,4.27-1.36,4.67-4.2S254,124.26,254,124.26Z"/><path class="cls-20" d="M238.57,124.67s14.91-3,15.42-3,.41,1.69.41,2.51c0,1.26-5.39,3.38-6.55,3.38s-7.65.21-8.46-.27S238.57,124.67,238.57,124.67Z"/><path class="cls-22" d="M248.46,128.26l1.85,11S254,131.51,248.46,128.26Z"/><path class="cls-22" d="M248.8,125.41a1.15,1.15,0,1,1-1.15-1.15A1.15,1.15,0,0,1,248.8,125.41Z"/><polygon class="cls-21" points="223.28 148.73 239.79 154.19 238.26 158.04 222.49 152.08 223.28 148.73"/><path class="cls-17" d="M281.66,206.36c.31,4-11.85,3.72-14.39,3.72s-3.22-.62-3.22-.62-.63.62-3.23.62-4.66-.25-4.9-.5a4.52,4.52,0,0,1-.5-2.66A3.42,3.42,0,0,1,256,206s-.12-4.53,0-6a2.89,2.89,0,0,0-.27-1.43,5.42,5.42,0,0,1-.78-2.48c0-1.74-1.86-4.65-.81-6.63,0,0,1.95-.45,4.2-.94,2.87-.63,6.26-1.33,6.78-1.3.93.06,1.49,2.48,1.18,4.1a18.36,18.36,0,0,1,.74,5.16v.05s.39.15,1,.42l.75.38c.29.16.6.34.92.54a8.46,8.46,0,0,1,.73.49,8,8,0,0,1,.83.69,4.47,4.47,0,0,1,.52.55l.07.09.87.43,1.28.63h0c1,.46,2.08,1,2.87,1.23,1.1.4,2.62.47,3.64,1.5a3.29,3.29,0,0,1,.64.91l.18.42h0A6,6,0,0,1,281.66,206.36Z"/><path class="cls-23" d="M281.66,206.36c.31,4-11.85,3.72-14.39,3.72s-3.22-.62-3.22-.62-.63.62-3.23.62-4.66-.25-4.9-.5a4.52,4.52,0,0,1-.5-2.66A3.42,3.42,0,0,1,256,206a13.7,13.7,0,0,0,5.33.8c3.11-.12,4.16.15,6.77,0s7.76-.35,10.48-1.19,2.55-1.26,2.55-1.26l.18.42h0A6,6,0,0,1,281.66,206.36Z"/><path class="cls-23" d="M259.64,197.43a12.09,12.09,0,0,1-3.87,1.11,5.42,5.42,0,0,1-.78-2.48c0-1.74-1.86-4.65-.81-6.63,0,0,1.95-.45,4.2-.94C258.38,188.49,260.63,196.68,259.64,197.43Z"/><path class="cls-23" d="M268,196.92l-1.64,2.73a.53.53,0,0,1-.73.19.55.55,0,0,1-.19-.74l1.6-2.65v.05S267.47,196.65,268,196.92Z"/><path class="cls-23" d="M269.71,197.84l-1.68,2.8a.54.54,0,0,1-.74.17.52.52,0,0,1-.18-.72l1.68-2.79C269.08,197.46,269.39,197.64,269.71,197.84Z"/><path class="cls-23" d="M271.27,199l-1.38,2.29a.54.54,0,1,1-.92-.55l1.47-2.43A8,8,0,0,1,271.27,199Z"/><path class="cls-23" d="M272.73,200.09l-1,1.72a.54.54,0,0,1-.74.19.55.55,0,0,1-.18-.74l1-1.69.07.09Z"/><path class="cls-24" d="M256,200s2-.78,4.11,1.6a12.46,12.46,0,0,1,2.65,5.19A12.87,12.87,0,0,1,256,206,41,41,0,0,1,256,200Z"/><path class="cls-24" d="M259.89,191.58l6-1A5.22,5.22,0,0,1,259.89,191.58Z"/><path class="cls-24" d="M280.53,203.45a13.4,13.4,0,0,1-4.27.24,7.43,7.43,0,0,1-3.28-.84l1-2.13h0c1,.46,2.08,1,2.87,1.23C278,202.35,279.51,202.42,280.53,203.45Z"/><path class="cls-25" d="M254.26,191.54l4.15-.82S257.28,193,254.26,191.54Z"/><path class="cls-25" d="M254.6,193.86l4.15-.81S257.62,195.34,254.6,193.86Z"/><path class="cls-25" d="M255.16,196.26l4.15-.82S258.18,197.74,255.16,196.26Z"/><path class="cls-17" d="M223,209.94c-1.94,3-10.56-3.76-12.4-5.14s-2-2.2-2-2.2-.79.11-2.67-1.31a13.51,13.51,0,0,1-3.26-3,4.2,4.2,0,0,1,1.09-2.2,3.34,3.34,0,0,1,1-.33s2.37-3.33,3.27-4.34a2.48,2.48,0,0,0,.58-1.17,4.9,4.9,0,0,1,.79-2.22c.94-1.25,1.19-4.36,3-5.21,0,0,1.64.73,3.53,1.6a61.93,61.93,0,0,1,5.59,2.76c.64.55-.27,2.59-1.38,3.59a16.79,16.79,0,0,1-2.27,4.12l0,0s.19.32.46.83l.33.67c.12.27.25.57.37.89a8.21,8.21,0,0,1,.48,1.71,3.81,3.81,0,0,1,.07.67.41.41,0,0,1,0,.11l.39.78c.16.33.37.72.58,1.15h0c.45.87,1,1.82,1.39,2.45.59.89,1.64,1.76,1.82,3.06a3.15,3.15,0,0,1,0,1l-.11.4h0A5.62,5.62,0,0,1,223,209.94Z"/><path class="cls-23" d="M223,209.94c-1.94,3-10.56-3.76-12.4-5.14s-2-2.2-2-2.2-.79.11-2.67-1.31a13.51,13.51,0,0,1-3.26-3,4.2,4.2,0,0,1,1.09-2.2,3.34,3.34,0,0,1,1-.33,12.27,12.27,0,0,0,3.4,3.48c2.31,1.6,2.92,2.37,4.87,3.69s5.78,4,8.2,4.84,2.53.49,2.53.49l-.11.4h0A5.62,5.62,0,0,1,223,209.94Z"/><path class="cls-23" d="M212,191.53a10.94,10.94,0,0,1-3.4-1.3,4.9,4.9,0,0,1,.79-2.22c.94-1.25,1.19-4.36,3-5.21,0,0,1.64.73,3.53,1.6C216,184.4,213.12,191.53,212,191.53Z"/><path class="cls-23" d="M218.34,195.74l-2.67,1.07a.49.49,0,0,1-.63-.26.5.5,0,0,1,.27-.64l2.59-1,0,0S218.07,195.23,218.34,195.74Z"/><path class="cls-23" d="M219,197.3l-2.73,1.1a.48.48,0,0,1-.63-.27.48.48,0,0,1,.27-.62l2.72-1.1C218.79,196.68,218.92,197,219,197.3Z"/><path class="cls-23" d="M219.52,199l-2.24.9a.5.5,0,0,1-.63-.27.48.48,0,0,1,.27-.63l2.38-1A6.64,6.64,0,0,1,219.52,199Z"/><path class="cls-23" d="M220,200.57l-1.68.67a.48.48,0,1,1-.37-.89l1.65-.67a.41.41,0,0,1,0,.11Z"/><path class="cls-24" d="M208,191.4s1.88.54,2.09,3.4a11.23,11.23,0,0,1-.91,5.17,11.59,11.59,0,0,1-4.45-4.23A37.29,37.29,0,0,1,208,191.4Z"/><path class="cls-24" d="M215.37,187.45l4.87,2.58A4.71,4.71,0,0,1,215.37,187.45Z"/><path class="cls-24" d="M223.79,207.23a11.73,11.73,0,0,1-3.21-2.15,6.73,6.73,0,0,1-1.91-2.38l1.9-1h0c.45.87,1,1.82,1.39,2.45C222.56,205.06,223.61,205.93,223.79,207.23Z"/><path class="cls-25" d="M211.33,184.36l3.44,1.67S212.7,187.07,211.33,184.36Z"/><path class="cls-25" d="M210.31,186.22l3.44,1.67S211.69,188.93,210.31,186.22Z"/><path class="cls-25" d="M209.41,188.25l3.44,1.67S210.79,191,209.41,188.25Z"/><path class="cls-26" d="M226.8,13.13c-2,1.08-4.68,1.9-6.26,6.51s.56,9.81,8.47,10.5,11.13-8.38,7.78-13.47S228.51,12.19,226.8,13.13Z"/><path class="cls-15" d="M228.55,15.47s-4.3,1.26-4.62,5.18a5.23,5.23,0,0,0,6.52,5.76A5.63,5.63,0,0,0,234.81,20c-.44-2.09-3.66-3.48-5.4-3.1s-2.88,3.08-1.68,4.6a2.65,2.65,0,0,0,2.53,1.22s-1.13-1.65-.85-2.47,2.3.76,2.24,2.15-2.47,2-4.3.89-1.39-4-.44-5.31A4.68,4.68,0,0,1,230.7,16S230.64,15.15,228.55,15.47Z"/><path class="cls-27" d="M227.19,38.07l-5.51,32S230,43.78,227.19,38.07Z"/><path class="cls-28" d="M135.72,47.69s-9.6,22.83-11.62,26.44S115.19,93,117,99.8s15.87,7.73,18.83,6.14S154,47.29,154,47.29,143.68,38,135.72,47.69Z"/><path class="cls-16" d="M159.67,46s-6.49-4.13-10-4.54-8.64-1.4-10.91-.21-8,10.25-6.67,11.18,5.8-5.29,7.91-6.47,11.87,2.47,13.36,3.59,2.85-1.34,2.85-1.34Z"/><path class="cls-20" d="M128.51,80.72s-4,8.53-2.34,10.58,6.62,4.45,9,3.12,5.44-11.22,5.44-11.22L129,78.57Z"/><path class="cls-2" d="M131.53,77.88l9.82,3.82s-.2,3.16-5.66,2.7A7.38,7.38,0,0,1,129,78.57a1.62,1.62,0,0,1,0-.58C129.2,77.18,129.55,77.1,131.53,77.88Z"/><path class="cls-16" d="M121.91,74.11S116.35,81.6,115.65,86s4.2,7.11,5,6.85,8.63-19.55,8.63-19.55Z"/><path class="cls-20" d="M128,67.74s-3.69-.34-5.11.31-2.85,6.48-2.35,7.8,4-.63,6.66-1.22S132.83,68.52,128,67.74Z"/><path class="cls-29" d="M147.75,29.09c-1.8.63-4.17.95-6.11,4.6s-.86,8.27,5.66,9.92,10.44-5.51,8.33-10.21S149.31,28.54,147.75,29.09Z"/><path class="cls-30" d="M148.9,31.28s-3.77.48-4.56,3.71A4.42,4.42,0,0,0,149,40.68a4.77,4.77,0,0,0,4.52-4.8c-.09-1.8-2.59-3.4-4.1-3.32a2.64,2.64,0,0,0-2,3.62,2.24,2.24,0,0,0,1.95,1.36s-.72-1.53-.37-2.18,1.82,1,1.58,2.1-2.33,1.31-3.72.16-.62-3.52.35-4.5a4,4,0,0,1,3.43-1.07S150.69,31.3,148.9,31.28Z"/><path class="cls-31" d="M144.71,50l-8.94,26S146.27,55.14,144.71,50Z"/><path class="cls-32" d="M138.64,116.36l-8.91,37.82,12.48,3.36L149.73,137S143.1,117.63,138.64,116.36Z"/><path class="cls-15" d="M162.45,26.89S161,21,156.19,19.66,147,22.45,147,22.45l.7,1,2-1S147,26.1,148,29.79h1.27s-.13-2.68,1.15-4.08c0,0-.7,2.49-.13,3.63l1.27-.19s.26-2.35,1.53-3.31a3.23,3.23,0,0,1,2.93-.25s-1.66.95-1.91,2l.95.89s3.66-3.34,7,.34C162,28.79,163,28.39,162.45,26.89Z"/><path class="cls-12" d="M180.31,41.06c-.22.69-2,5.31-3.37,6.77S170,46.64,170,46.64L167.82,50l-6.64-4s3.4-4.3,3.4-5.68-2.17-3.3-2.28-6.5c-.09-2.4,6.86-5.09,12.1-5.26a8.37,8.37,0,0,1,4.39.79A4.2,4.2,0,0,1,180,31.84c.19,1.58-.66,3.65,0,4.88s2.29.74,2.48,1.94S180.53,40.37,180.31,41.06Z"/><path class="cls-15" d="M175.15,30.69s-1.11,3.91-2.39,5.5a3,3,0,0,1-3.07,1.08s.64-3.24-1.08-3.82-2.93,2.93-2.36,4.84,1.53,1.91,1.53,1.91-3.38,5.6-8,2.74.38-12.26,1-13S175.15,30.69,175.15,30.69Z"/><path class="cls-16" d="M160.1,31.09s10.08,1.56,14.29,2.59a8.5,8.5,0,0,0,7.38-2s.62-5-1.69-6.54a16.71,16.71,0,0,0-8.71-2.73c-3.47-.22-6.7-.54-8.28,2.15A49.72,49.72,0,0,0,160.1,31.09Z"/><path class="cls-20" d="M171.8,33.16s9.13,3.88,14.67,3.6-2.39-3.39-4.68-4.87C180.07,30.78,171.8,33.16,171.8,33.16Z"/><path class="cls-33" d="M145.77,64.27S151,46.61,161.18,46l6.64,4s3.8,11.83,3.29,17.94-3.8,12.41-3.8,12.41L159,104.26,138.64,99.8Z"/><path class="cls-16" d="M157.8,50s11,14,9.19,39.89h2.85s3.42-39.95-11-44.36L154,49.34Z"/><path class="cls-3" d="M156,49.37s-2.63-1.78-8.61,5.1-13,29.41-13,29.41l7.77,2.8s16-25.08,17.06-28.65S159.43,49.63,156,49.37Z"/><path class="cls-14" d="M138.64,99.8s-6.18,8.3-2.15,17.19c3.24,7.13,6.93,10.51,6.93,10.51l12.11,29.4L167,154.32s-6.44-38-8.23-43.34l.26-6.72Z"/><path class="cls-20" d="M134.44,99.8s23.08,5.22,27.65,1.4S167,89.87,167,89.87h2.85s-.53,9.72-4.53,13.46-27.3,2-32.14-1.36Z"/><path class="cls-12" d="M155.53,156.9a63.69,63.69,0,0,0,3.55,19.69c3.63,10.13,7.07,22.41,7.07,22.41l7.26-1.37L167,154.32Z"/><path class="cls-12" d="M142.21,157.54l-19,32.62-5.73-1.53s5.47-25.92,12.29-34.45l13.3,3.36"/><path class="cls-14" d="M187,206.14c.27,3.45-10.29,3.24-12.5,3.24s-2.8-.55-2.8-.55-.54.55-2.8.55a12.48,12.48,0,0,1-4.25-.44,4,4,0,0,1-.44-2.31,2.89,2.89,0,0,1,.55-.81s-.11-3.94,0-5.23a2.45,2.45,0,0,0-.24-1.23,4.71,4.71,0,0,1-.68-2.16c0-1.51-1.62-4-.7-5.76,0,0,1.69-.39,3.65-.81,2.49-.55,5.43-1.16,5.88-1.13.81.05,1.3,2.15,1,3.56a16,16,0,0,1,.64,4.48v0s.34.13.84.37l.64.33c.25.13.53.29.8.46s.43.28.64.43a8.48,8.48,0,0,1,.72.6,4.06,4.06,0,0,1,.45.48l.06.08.75.37,1.12.54h0a26.44,26.44,0,0,0,2.48,1.08c1,.34,2.28.4,3.17,1.3a3,3,0,0,1,.56.79l.15.36h0A5,5,0,0,1,187,206.14Z"/><path class="cls-34" d="M187,206.14c.27,3.45-10.29,3.24-12.5,3.24s-2.8-.55-2.8-.55-.54.55-2.8.55a12.48,12.48,0,0,1-4.25-.44,4,4,0,0,1-.44-2.31,2.89,2.89,0,0,1,.55-.81,11.85,11.85,0,0,0,4.62.7c2.7-.11,3.62.13,5.88,0s6.73-.3,9.1-1,2.22-1.09,2.22-1.09l.15.36h0A5,5,0,0,1,187,206.14Z"/><path class="cls-34" d="M167.83,198.39a10.83,10.83,0,0,1-3.36,1,4.71,4.71,0,0,1-.68-2.16c0-1.51-1.62-4-.7-5.76,0,0,1.69-.39,3.65-.81C166.74,190.63,168.69,197.74,167.83,198.39Z"/><path class="cls-34" d="M175.13,198l-1.43,2.37a.47.47,0,1,1-.8-.48l1.39-2.3v0S174.63,197.71,175.13,198Z"/><path class="cls-34" d="M176.57,198.74l-1.46,2.43a.47.47,0,0,1-.64.16.45.45,0,0,1-.15-.63l1.45-2.42C176,198.41,176.3,198.57,176.57,198.74Z"/><path class="cls-34" d="M177.93,199.77l-1.2,2a.47.47,0,0,1-.8-.48l1.28-2.11A8.48,8.48,0,0,1,177.93,199.77Z"/><path class="cls-34" d="M179.19,200.7l-.9,1.49a.46.46,0,1,1-.8-.47l.89-1.47.06.08Z"/><path class="cls-31" d="M164.71,200.59s1.75-.67,3.56,1.4a10.78,10.78,0,0,1,2.31,4.5,11.21,11.21,0,0,1-5.87-.67A34.53,34.53,0,0,1,164.71,200.59Z"/><path class="cls-31" d="M168.05,193.31l5.23-.85A4.54,4.54,0,0,1,168.05,193.31Z"/><path class="cls-31" d="M186,203.62a11.51,11.51,0,0,1-3.71.2,6.57,6.57,0,0,1-2.85-.72l.9-1.86h0a26.44,26.44,0,0,0,2.48,1.08C183.77,202.66,185.08,202.72,186,203.62Z"/><path class="cls-25" d="M163.16,193.27l3.6-.71S165.78,194.56,163.16,193.27Z"/><path class="cls-25" d="M163.45,195.29l3.6-.71S166.08,196.58,163.45,195.29Z"/><path class="cls-25" d="M163.94,197.37l3.6-.71S166.56,198.66,163.94,197.37Z"/><path class="cls-14" d="M130.49,207.63c-1.39,3-10-2.16-11.8-3.19s-2-1.76-2-1.76-.71.2-2.57-.86a12.07,12.07,0,0,1-3.29-2.35,3.77,3.77,0,0,1,.72-2.11,3.07,3.07,0,0,1,.83-.41s1.75-3.29,2.45-4.3a2.41,2.41,0,0,0,.38-1.13,4.49,4.49,0,0,1,.45-2.09c.71-1.24.56-4.08,2.12-5.07,0,0,1.57.47,3.38,1a56.09,56.09,0,0,1,5.37,1.83c.64.42.06,2.38-.82,3.4a15,15,0,0,1-1.57,4l0,0s.22.26.52.69l.37.58q.23.34.45.75c.11.21.22.43.32.65a6.53,6.53,0,0,1,.31.84,3.08,3.08,0,0,1,.14.6.29.29,0,0,1,0,.09l.44.66.67,1h0c.51.73,1.1,1.54,1.55,2,.63.74,1.68,1.4,2,2.55a3,3,0,0,1,.08.91l0,.38h0A5.4,5.4,0,0,1,130.49,207.63Z"/><path class="cls-34" d="M130.49,207.63c-1.39,3-10-2.16-11.8-3.19s-2-1.76-2-1.76-.71.2-2.57-.86a12.07,12.07,0,0,1-3.29-2.35,3.77,3.77,0,0,1,.72-2.11,3.07,3.07,0,0,1,.83-.41,11.34,11.34,0,0,0,3.48,2.74c2.27,1.17,2.91,1.8,4.83,2.76s5.68,2.91,8,3.41S131,206,131,206l0,.38h0A5.4,5.4,0,0,1,130.49,207.63Z"/><path class="cls-34" d="M118.39,192.3a10,10,0,0,1-3.22-.78,4.49,4.49,0,0,1,.45-2.09c.71-1.24.56-4.08,2.12-5.07,0,0,1.57.47,3.38,1C121.12,185.4,119.4,192.17,118.39,192.3Z"/><path class="cls-34" d="M124.6,195.35l-2.29,1.29a.44.44,0,0,1-.6-.17.45.45,0,0,1,.17-.6l2.22-1.25,0,0S124.3,194.92,124.6,195.35Z"/><path class="cls-34" d="M125.42,196.68,123.08,198a.44.44,0,0,1-.43-.77l2.32-1.3Q125.2,196.27,125.42,196.68Z"/><path class="cls-34" d="M126.05,198.17l-1.92,1.07a.44.44,0,0,1-.6-.17.43.43,0,0,1,.17-.59l2-1.15A6.53,6.53,0,0,1,126.05,198.17Z"/><path class="cls-34" d="M126.65,199.52l-1.44.81a.44.44,0,0,1-.6-.17.45.45,0,0,1,.17-.6l1.41-.79a.29.29,0,0,1,0,.09Z"/><path class="cls-31" d="M114.79,192.65s1.75.27,2.28,2.82a10.12,10.12,0,0,1-.22,4.78,10.59,10.59,0,0,1-4.51-3.3A33.44,33.44,0,0,1,114.79,192.65Z"/><path class="cls-31" d="M121,188.22l4.7,1.76A4.29,4.29,0,0,1,121,188.22Z"/><path class="cls-31" d="M130.87,205.09a10.74,10.74,0,0,1-3.15-1.56,6.23,6.23,0,0,1-2-1.93l1.61-1.11h0c.51.73,1.1,1.54,1.55,2C129.5,203.28,130.55,203.94,130.87,205.09Z"/><path class="cls-25" d="M116.94,185.9l3.29,1.11S118.5,188.19,116.94,185.9Z"/><path class="cls-25" d="M116.24,187.7l3.29,1.11S117.79,190,116.24,187.7Z"/><path class="cls-25" d="M115.66,189.64l3.3,1.1S117.22,191.92,115.66,189.64Z"/><path class="cls-12" d="M139.53,84.55,163.6,96.36,161.44,102S139.91,95.75,137,93.26a9.18,9.18,0,0,1-2.55-9.38S136.46,83,139.53,84.55Z"/><path class="cls-12" d="M161,96.26s6.36-1,8.11-1,3.49,2,3.7,2.79-.71,1.12-.71,1.12.67,1.59-.66,2.13a1.33,1.33,0,0,1-.67,1.8,2,2,0,0,1-1.25,1.28,5.39,5.39,0,0,1-2.6,0c-.35-.09-.39-.88-.39-.88a11.19,11.19,0,0,1-2.87-.62c-1-.46-3.65-1.78-3.65-1.78Z"/><path class="cls-16" d="M114,14.27l-5.3,3.12,5.69,19.17-17.86-2,3,12.43s10.25.86,18.69-1.78a7.12,7.12,0,0,0,4.49-9.45Z"/><path class="cls-12" d="M114.06,13.58c-.17-2.13-3.26-7.89-3.48-7.81l-6.82,2.88,1.84,6.07,3.07,2.67S114.11,14.12,114.06,13.58Z"/><path class="cls-35" d="M65.64,151.64A85.4,85.4,0,0,0,58.38,167a181,181,0,0,0-5.29,20.79l5.66,3.45,17.73-35Z"/><path class="cls-35" d="M88.2,155.32s-.26,10.9,2.31,19.76a148,148,0,0,0,7.55,19.19h7.75L99.39,154Z"/><path class="cls-5" d="M69.37,101.67l-2.09,38.89-3,11.12,13.94,4.83,5.09-11.83S73.53,109.31,69.37,101.67Z"/><path class="cls-5" d="M68.4,89.41l27.33,4.31L94,101.27s5.59,42.83,7.19,51.47l-14.44,2.58L73.32,113.53s-3.81-6.84-4.92-10.86S68.4,89.41,68.4,89.41Z"/><path class="cls-12" d="M103.21,17.55c0,.82-.34,6.43-1.3,8.48S94,27.13,94,27.13l-1.23,4.38-8.55-2s2.18-5.81,1.71-7.31S82.48,19.4,81.25,16C80.33,13.42,86.9,8.1,92.51,6.1a9.56,9.56,0,0,1,5-.66A4.81,4.81,0,0,1,99.66,7.7c.74,1.64.54,4.17,1.7,5.27s2.74,0,3.36,1.23S103.21,16.73,103.21,17.55Z"/><path class="cls-15" d="M94.45,12.21a5.2,5.2,0,0,1-1.77,4s-1.51-2.8-3.29-2.33-1.23,5,0,5.68,2.47,1.3,2.47,1.3-3,2.26-5.89,1.31c-.48-1.51-3.49-2.81-4.72-6.23C80.33,13.42,86.9,8.1,92.51,6.1l.49.84A10.83,10.83,0,0,1,94.45,12.21Z"/><path class="cls-11" d="M74.74,33.72s5.21-5.64,8.49-6.31,6.83-.34,8.64.84c3.89,2.55,6,6.17,9.3,16.12s-3.42,35.49-3.42,35.49l-2.41,17L68.4,94l1.21-21.31S72.22,38.64,74.74,33.72Z"/><path class="cls-14" d="M57.09,37.2S50.26,65.4,48.6,69.94,44.35,87,47.68,94.6,64.87,102.35,68,100,78.13,33.33,78.13,33.33,64.47,24.47,57.09,37.2Z"/><path class="cls-26" d="M79.36,29.22s6.79-2.49,11.63.85,5.29,12.3,3,22.39a35.73,35.73,0,0,1-9.76,16.75l2.54-12.39L78.13,30.28Z"/><path class="cls-26" d="M79.36,29.22A14,14,0,0,0,72,27.42c-4.16.18-10.25,0-12.65,1.8S52.1,42.55,53.77,43.39s5.72-7.2,7.93-9,12.46-1.29,14.4-.27a3.74,3.74,0,0,0,3.79-.45Z"/><path class="cls-26" d="M54.93,76.74s-3.07,10.61-.73,12.67,8.49,3.9,11,1.93,4.2-14,4.2-14L55.06,74.17Z"/><path class="cls-20" d="M57.89,72.88,70,75.47s.37,3.69-6,4.18a8.64,8.64,0,0,1-8.86-5.48,1.94,1.94,0,0,1-.13-.67C55.06,72.52,55.45,72.36,57.89,72.88Z"/><path class="cls-11" d="M85.76,153.54s15.12-3.45,15.47-3.32.65,3.32.65,3.32-14.83,2.86-15.14,3S85.76,153.54,85.76,153.54Z"/><path class="cls-18" d="M80.41,125.69s1.47,9.94,3.22,11.89,7.66,1.68,7.66,1.68,4.24-1.34,4.64-4.16-1.41-11.43-1.41-11.43Z"/><path class="cls-11" d="M79.2,124.08s14.78-3,15.28-3,.42,1.68.42,2.49c0,1.25-5.36,3.36-6.5,3.36s-7.59.2-8.4-.27S79.2,124.08,79.2,124.08Z"/><path class="cls-36" d="M89,127.64l1.83,10.88S94.45,130.86,89,127.64Z"/><circle class="cls-11" cx="88.2" cy="124.82" r="1.14"/><polygon class="cls-11" points="64.03 147.95 80.41 153.36 78.89 157.17 63.24 151.27 64.03 147.95"/><path class="cls-3" d="M121.93,205.1c.31,3.94-11.75,3.69-14.27,3.69s-3.2-.62-3.2-.62-.62.62-3.2.62-4.62-.25-4.86-.49a4.57,4.57,0,0,1-.49-2.64,3.42,3.42,0,0,1,.62-.93s-.13-4.49,0-6a2.79,2.79,0,0,0-.28-1.41,5.5,5.5,0,0,1-.77-2.47c0-1.72-1.85-4.61-.8-6.57,0,0,1.93-.45,4.16-.93,2.85-.62,6.21-1.33,6.73-1.29.92.06,1.48,2.46,1.17,4.06a18.38,18.38,0,0,1,.73,5.12v0s.39.15,1,.42l.73.38c.29.15.6.33.92.53a8.31,8.31,0,0,1,.72.49,7.91,7.91,0,0,1,.83.68,5.27,5.27,0,0,1,.51.55l.07.09.86.43,1.28.62h0c1,.45,2.06,1,2.85,1.22,1.1.39,2.6.46,3.61,1.48a3.29,3.29,0,0,1,.64.91l.18.42h0A6.45,6.45,0,0,1,121.93,205.1Z"/><path class="cls-20" d="M121.93,205.1c.31,3.94-11.75,3.69-14.27,3.69s-3.2-.62-3.2-.62-.62.62-3.2.62-4.62-.25-4.86-.49a4.57,4.57,0,0,1-.49-2.64,3.42,3.42,0,0,1,.62-.93,13.41,13.41,0,0,0,5.28.8c3.08-.13,4.13.15,6.71,0s7.69-.34,10.4-1.18,2.53-1.24,2.53-1.24l.18.42h0A6.45,6.45,0,0,1,121.93,205.1Z"/><path class="cls-20" d="M100.09,196.24a12.08,12.08,0,0,1-3.84,1.11,5.5,5.5,0,0,1-.77-2.47c0-1.72-1.85-4.61-.8-6.57,0,0,1.93-.45,4.16-.93C98.84,187.38,101.07,195.5,100.09,196.24Z"/><path class="cls-37" d="M108.43,195.74l-1.64,2.71a.52.52,0,0,1-.72.18.53.53,0,0,1-.18-.73l1.58-2.63v0S107.86,195.47,108.43,195.74Z"/><path class="cls-37" d="M110.08,196.65l-1.67,2.77a.53.53,0,0,1-.91-.54l1.66-2.76C109.45,196.27,109.76,196.45,110.08,196.65Z"/><path class="cls-37" d="M111.63,197.82l-1.37,2.28a.54.54,0,0,1-.73.18.53.53,0,0,1-.18-.73l1.45-2.41A7.91,7.91,0,0,1,111.63,197.82Z"/><path class="cls-37" d="M113.07,198.89l-1,1.7a.53.53,0,1,1-.91-.55l1-1.67.07.09Z"/><path class="cls-20" d="M96.53,198.76s2-.77,4.07,1.59a12.33,12.33,0,0,1,2.63,5.15,12.77,12.77,0,0,1-6.7-.77A40.34,40.34,0,0,1,96.53,198.76Z"/><path class="cls-38" d="M100.34,190.44l6-1A5.17,5.17,0,0,1,100.34,190.44Z"/><path class="cls-20" d="M120.81,202.21a12.88,12.88,0,0,1-4.23.24,7.33,7.33,0,0,1-3.26-.83l1-2.11h0c1,.45,2.06,1,2.85,1.22C118.3,201.12,119.8,201.19,120.81,202.21Z"/><path class="cls-20" d="M94.75,190.4l4.12-.81S97.75,191.87,94.75,190.4Z"/><path class="cls-37" d="M95.09,192.71l4.12-.81S98.09,194.17,95.09,192.71Z"/><path class="cls-37" d="M95.65,195.08l4.11-.81S98.64,196.55,95.65,195.08Z"/><path class="cls-3" d="M63.77,208.66c-1.92,3-10.48-3.73-12.3-5.11s-2-2.18-2-2.18-.79.11-2.65-1.3a13,13,0,0,1-3.23-3,4.13,4.13,0,0,1,1.08-2.17,3.23,3.23,0,0,1,.95-.33s2.35-3.31,3.25-4.3a2.56,2.56,0,0,0,.57-1.17,4.85,4.85,0,0,1,.78-2.2c.94-1.24,1.18-4.33,3-5.17l3.51,1.59c2.39,1.11,5.19,2.43,5.55,2.74.63.54-.28,2.57-1.37,3.56a17,17,0,0,1-2.25,4.09l0,0s.2.32.46.82c.1.2.21.43.32.68s.25.56.37.88a8,8,0,0,1,.48,1.69,3.81,3.81,0,0,1,.07.67.38.38,0,0,1,0,.1l.38.78.59,1.14h0c.45.86,1,1.81,1.38,2.43.58.88,1.63,1.74,1.8,3a2.77,2.77,0,0,1,0,1l-.1.4h0A5.62,5.62,0,0,1,63.77,208.66Z"/><path class="cls-20" d="M63.77,208.66c-1.92,3-10.48-3.73-12.3-5.11s-2-2.18-2-2.18-.79.11-2.65-1.3a13,13,0,0,1-3.23-3,4.13,4.13,0,0,1,1.08-2.17,3.23,3.23,0,0,1,.95-.33A12.22,12.22,0,0,0,49,198c2.29,1.58,2.9,2.35,4.83,3.66s5.73,3.94,8.14,4.8,2.5.48,2.5.48l-.1.4h0A5.62,5.62,0,0,1,63.77,208.66Z"/><path class="cls-20" d="M52.85,190.39a10.84,10.84,0,0,1-3.37-1.29,4.85,4.85,0,0,1,.78-2.2c.94-1.24,1.18-4.33,3-5.17l3.51,1.59S54,190.39,52.85,190.39Z"/><path class="cls-37" d="M59.13,194.56l-2.65,1.07a.48.48,0,0,1-.62-.26.49.49,0,0,1,.26-.63l2.58-1,0,0S58.87,194.06,59.13,194.56Z"/><path class="cls-37" d="M59.82,196.12l-2.71,1.09a.48.48,0,1,1-.35-.89l2.69-1.08C59.58,195.51,59.7,195.8,59.82,196.12Z"/><path class="cls-37" d="M60.3,197.81l-2.22.89a.48.48,0,0,1-.63-.27.48.48,0,0,1,.27-.62l2.36-.95A6.52,6.52,0,0,1,60.3,197.81Z"/><path class="cls-37" d="M60.76,199.36,59.1,200a.49.49,0,0,1-.63-.27.48.48,0,0,1,.26-.62l1.64-.66a.38.38,0,0,1,0,.1Z"/><path class="cls-38" d="M56.18,186.35,61,188.9A4.68,4.68,0,0,1,56.18,186.35Z"/><path class="cls-20" d="M64.53,206a11.85,11.85,0,0,1-3.18-2.14,6.63,6.63,0,0,1-1.9-2.36l1.9-1h0c.45.86,1,1.81,1.38,2.43C63.31,203.81,64.36,204.67,64.53,206Z"/><path class="cls-26" d="M67.52,13.45c-2,1.07-4.64,1.88-6.21,6.46s.56,9.72,8.4,10.41S80.75,22,77.43,17,69.22,12.52,67.52,13.45Z"/><path class="cls-15" d="M69.26,15.77S65,17,64.68,20.91a5.18,5.18,0,0,0,6.46,5.71,5.59,5.59,0,0,0,4.33-6.4c-.44-2.07-3.64-3.45-5.36-3.07a3.11,3.11,0,0,0-1.67,4.57A2.62,2.62,0,0,0,71,22.92s-1.12-1.63-.84-2.45,2.28.76,2.22,2.14-2.45,1.94-4.26.88-1.38-4-.44-5.27a4.6,4.6,0,0,1,3.76-1.88S71.33,15.46,69.26,15.77Z"/><path class="cls-22" d="M67.91,38.19,62.44,69.94S70.68,43.85,67.91,38.19Z"/><path class="cls-26" d="M98.49,6.1s.59-2.52-4.64-4.49S82,4.94,80.62,8.13s-.42,7,.56,7.57C81.18,15.7,91,4.81,98.49,6.1Z"/><path class="cls-26" d="M82.26,5.77a10.63,10.63,0,0,0-6-3.4c-3.36-.37-4.29.32-4.29.32l.37.65a5.06,5.06,0,0,1,2.45,0s-3.14,1-3.51,2.76l.92,1.07A5,5,0,0,1,74,5.87s-1.38,2-1.2,3.14L74,10.12a3,3,0,0,1,1.85-2.45,4.8,4.8,0,0,0-.88,1.9l.63.55S78,6.82,81,7.45C81,7.45,82.57,7.2,82.26,5.77Z"/><path class="cls-16" d="M84.8,31.63A6.66,6.66,0,0,0,77,37.43c-1.31,11.69-3.74,33.88-3.6,35.94C73.57,76.19,87,100.51,87,100.51l6.78-3.9L83.7,71.6l6.42-32.11a6.66,6.66,0,0,0-5.32-7.86Z"/><path class="cls-12" d="M101.71,107.85a32.84,32.84,0,0,0-2.41-5.19l-5.77-6.3L87,100.51,92.6,109a7,7,0,0,0,1.57,2.72c1,.75,1.56,1,1.76.7s-.51-1.62-.52-1.65a9.56,9.56,0,0,0,1.12,1.1c1.16.9,1.87,1.05,2.17.9s0-1.33-1-2a6.42,6.42,0,0,1-1.59-2.45l.58-.1c.7,1,1.67,2.52,2.07,3.16.65,1.06,1.6,2.12,2.46,1.77s-1.23-3.37-1.23-3.37l-2-4.34.15-.31L100,108.2s1.28,3.62,1.93,3.12S102,109.26,101.71,107.85Z"/><path class="cls-35" d="M99.52,11.46a.94.94,0,0,1,.51-1.15c2.48-1.11,10.55-4.69,11-4.67s1.84,4,1.5,4.31c-.62.62-8.54,3.06-11.33,3.8a1,1,0,0,1-1.15-.63Z"/><path class="cls-12" d="M110.44,5.46a1.88,1.88,0,0,0-1.39-1c-.94-.09-1.1.85-1.1,1.61s-.53,1.8.11,2,.92-.23,1.16-.88a4,4,0,0,0,.25-1l1.11-.43Z"/><path class="cls-12" d="M107.74,5.32a2.19,2.19,0,0,0-1.25-.6c-.62,0-1.24.22-1.17,1s-.66,2.08,0,2.36a1.21,1.21,0,0,0,1.46-.62,1.46,1.46,0,0,0,.14-.83l.41.43.52-.23.29-1.4Z"/><path class="cls-12" d="M105.78,6.24a2.19,2.19,0,0,0-1.25-.6c-.62,0-1.24.23-1.17,1.05s-.66,2.09,0,2.37a1.21,1.21,0,0,0,1.46-.63A1.46,1.46,0,0,0,105,7.6l.4.43.53-.22.29-1.41Z"/><path class="cls-12" d="M104.44,7a2.24,2.24,0,0,0-1.25-.59c-.62,0-1.25.22-1.18,1s-.65,2.09,0,2.37a1.21,1.21,0,0,0,1.46-.62,1.51,1.51,0,0,0,.13-.83l.41.42.53-.22.29-1.4Z"/><path class="cls-12" d="M101.19,13.75s.54,1.24,1.49,1.28a10,10,0,0,1,2.92,1.13,7.52,7.52,0,0,0,2.53.28L106.58,14s-1.62-.28-2.18-.46S101.79,12.84,101.19,13.75Z"/><path class="cls-20" d="M48.91,190.27A14.68,14.68,0,0,1,50,198.73s-3.27-1.75-4.37-4.16Z"/></g></g></svg>