<svg xmlns="http://www.w3.org/2000/svg" viewBox="0 0 298.08 342.93"><defs><style>.cls-1{fill:#6c2912;}.cls-2{fill:#fdce76;}</style></defs><g id="Capa_2" data-name="Capa 2"><g id="Capa_1-2" data-name="Capa 1"><rect class="cls-1" width="298.08" height="342.93" rx="35.2"/><path class="cls-2" d="M215.65,243.77c-.81-2.17-.49-3.46,1.27-5.12a12.52,12.52,0,0,0,4.35-9.08,12.88,12.88,0,0,0-4.45-9.37c-.13-.13-.28-.26-.41-.37-.83-.72-2.08-1.8-.92-4a11.48,11.48,0,0,0-.56-11.66,13.6,13.6,0,0,0-12.46-6c-8.35.42-16.89.32-25.16.22-3.72,0-7.45-.09-11.22-.09h-1.17l.19-1.16q.33-2,.66-3.87c.5-2.9,1-5.65,1.33-8.39a2.19,2.19,0,0,0-1.94-2.76,2.57,2.57,0,0,0-2,.42,1.29,1.29,0,0,0-.5,1,48.3,48.3,0,0,1-2,10.81c-1.06,3.93-2.16,8-2,12.19.44,11.61-5.13,18.17-17,20.06-2.53.4-3,1.25-3,2.39.06,1.33.66,2.22,3.39,2.22H142c8.65,0,17.12-6.41,20.13-15.14a23.79,23.79,0,0,0,1-6.51c.05-1,.11-1.94.22-2.93a4.29,4.29,0,0,1,1.48-3.18c1.23-.91,2.78-.62,4.14-.36a7,7,0,0,0,1.87.2,2.92,2.92,0,0,1,2.58.63c.77.87.44,2.09.18,3.07-.07.27-.14.52-.18.76a12.36,12.36,0,0,0,3.95,11.59l.24.23c1.13,1.07,2.54,2.41,1.12,5a9.85,9.85,0,0,0-.08,9.71c1.25,2.4.52,3.73-1.16,5.2-3.58,3.15-6.35,8.23-3.39,13.07,3.22,5.26,3.89,10,3.94,16.51,0,2.74-.37,4.29-1.33,5.18-1.13,1.05-2.73.92-4.75.75l-.17,0c-.41,0-.85,0-1.31,0h-1.05c-2.63,0-3.53.6-3.58,2.34a2.34,2.34,0,0,0,.51,1.8c.66.68,2,.78,3.46.78l8.43,0c7,0,14.26.06,21.38-.06,4.62-.08,8.39-1.92,10.61-5.2s2.55-7.6.93-11.93c-.72-1.9-.76-3.22,1.06-4.8C216.62,254.16,217.76,249.39,215.65,243.77ZM178,210c.26-4.3,2.9-6.7,7.41-6.75,6.42-.07,12.7-.12,19.08,0a8.18,8.18,0,0,1,6,2.42,6.31,6.31,0,0,1,1.65,4.77c-.26,4.12-2.82,6.63-7.21,7.08-.33,0-.66.05-1,.05h-10.3v0l-1.85,0c-.95,0-1.91,0-2.88,0-1.21,0-2.42,0-3.63-.11C180.59,217.2,177.75,214.25,178,210Zm29.59,58.26c-.3,4-2.94,6.52-7,6.69-1.34.05-2.7,0-4,0h-1.79l-1.67,0h-1.64c-.68,0-1.37,0-2.06-.05-4.23-.24-6.69-2.63-6.91-6.73s2.17-7,6.27-7.45a60.69,60.69,0,0,1,12.57,0A6.68,6.68,0,0,1,207.6,268.26Zm2.79-14.66a6.65,6.65,0,0,1-4.79,2.12c-3.58.16-7.12.24-10.58.24-3.67,0-7.27-.09-10.75-.27a6.4,6.4,0,0,1-4.61-2.06,7.19,7.19,0,0,1-1.63-5.4c.26-4.15,2.76-6.49,7-6.6,2.27-.06,4.57,0,6.79,0h3.43q4.65,0,9.31,0c4.42,0,7.2,2.54,7.46,6.76A7.11,7.11,0,0,1,210.39,253.6Zm-1-17c-2.27.07-4.57.05-6.8,0l-3,0h0c-1,0-2.1,0-3.14,0s-2,0-3.08,0c-1.34,0-2.69,0-4-.09-4.19-.19-6.7-2.66-6.9-6.78s2.34-7.21,6.34-7.41a205.64,205.64,0,0,1,21.37,0,6.69,6.69,0,0,1,4.72,2.19,7.09,7.09,0,0,1,1.6,5.32C216.18,234,213.53,236.5,209.4,236.63Z"/><path class="cls-2" d="M160.72,164.89c.32,1.51.65,3.06,1,4.58.72,2.94,2.18,2.68,2.81,2.57a2.41,2.41,0,0,0,1.64-.94,3,3,0,0,0,.32-2.24l-.16-.88a61.36,61.36,0,0,0-3.27-12.66,10.15,10.15,0,0,0-11.94-6.06c-6.11,1.29-8.68,5-8.59,12.52.11,10.74-3.71,19-11.69,25.24l-11.41,8.88-7.72,6-.12-1.9c-.27-4.38-.42-6.79-1.38-7.72s-3.29-.91-7.54-.91H96.32c-5,0-10,0-15,0-4.5,0-5.07.57-5.09,4.91,0,8.8,0,18,0,28V225c0,1.46,0,3,.69,3.67a2.5,2.5,0,0,0,1.86.52c2.12,0,2.32-1.24,2.3-4.15v-7.44c0-5.61,0-11.41,0-17.12a4.42,4.42,0,0,1,.93-3.36,3.77,3.77,0,0,1,2.93-.87c5.56.16,11.36.16,17.75,0a4,4,0,0,1,3,.91,4.37,4.37,0,0,1,1,3.24c-.06,27.14-.05,49.48,0,70.33a3.64,3.64,0,0,1-4.36,4.27c-6.8-.18-12-.17-16.84,0a4.42,4.42,0,0,1-3.45-.93,4.82,4.82,0,0,1-1-3.65c.1-5.81.08-11.73.07-17.45q0-4.84,0-9.69c0-2.87-.54-3.83-2.24-3.93h-.29a2.09,2.09,0,0,0-1.51.48c-.72.68-.82,2.19-.82,3.44q0,6.9,0,13.79,0,9.36,0,18.71a4.48,4.48,0,0,0,.87,3.09,3.68,3.68,0,0,0,2.88,1c9.26,0,18.69,0,28,0a4,4,0,0,0,2.93-.91,1.73,1.73,0,0,0,.34-1.41c-.27-2.23,0-3.65,1-4.47,1.26-1.11,3.1-.64,4.87-.19l.68.17a21.29,21.29,0,0,1,8,3.78,12.72,12.72,0,0,0,7.18,2.85c6.65.24,13.43.2,20,.15a3.22,3.22,0,0,0,2.29-.77,2.25,2.25,0,0,0,.56-1.65c0-2-1.58-2.41-2.88-2.42l-2.09,0c-3.24-.06-6.6-.11-9.87,0-5.26.22-10.82-.11-15.74-4a16.36,16.36,0,0,0-9-3c-3.55-.22-4.85-1.67-4.82-5.34.12-14.83.12-31,0-49.39a8.35,8.35,0,0,1,2.77-6.57,127.85,127.85,0,0,1,14.63-11.85c13.51-9.48,19.35-20.31,18.39-34.1-.28-3.91,1.87-6.59,5.6-7,3.31-.35,5.68,1.55,6.67,5.36C159.89,161,160.31,163,160.72,164.89Z"/><path class="cls-2" d="M222.06,116.36c-.73-2.63-2.85-3.8-6.85-3.8h-.07c-5.84,0-9.47-2.78-11.45-8.75-1-2.89-2.83-4.36-5.55-4.36h0c-3,0-4.42,1.81-5.67,4.5-.2.43-.43.85-.66,1.26a11.88,11.88,0,0,0-.86,1.82c-1.15,3.53-3.53,5.18-7.31,5h-.13a8.86,8.86,0,0,0-1.94.31,15.57,15.57,0,0,1-1.73.33c-3.3.36-5.07,1.49-5.75,3.68-1,3.31,1.45,5.5,2.55,6.28,5.61,4,7.2,9.11,4.85,15.66a4.92,4.92,0,0,0-.21,1.81A4.86,4.86,0,0,0,187.9,145a11,11,0,0,0,3.69-1.59c4.37-3.35,8.69-3.31,13.21.11a8.43,8.43,0,0,0,4.66,1.68,4.87,4.87,0,0,0,4.1-1.77c1.27-1.58,1.58-4,.88-6.77-1.44-5.8-.18-9.67,4.23-13C221.69,121.43,222.8,119,222.06,116.36Zm-6,3c-7.16,5-9.1,10.9-6.27,19.18l1,3-2.55-1.86c-7.21-5.24-13.66-5.14-20.29.3l-2.78,2.27,1.2-3.38c3-8.53,1-14.71-6.24-19.46l-3-2,3.58.12c8.77.27,14-3.58,16.53-12.21l1-3.39.94,3.4c2.41,8.69,7.42,12.48,16.29,12.18l3.36-.11Z"/><path class="cls-2" d="M122.87,120.75a5.13,5.13,0,0,0,.78-4.12,5,5,0,0,0-2.8-3,9.59,9.59,0,0,0-4.19-1.1c-5.57.11-9.25-2.62-11.27-8.36-1.2-3.43-3-5.11-5.62-5.13h-.06c-3.53,0-5.06,3.09-5.66,5-1.94,6-5.76,8.79-11.61,8.55a5,5,0,0,0-1.07.16l-.44.1c-2.9.59-4.94,2.11-5.46,4.06-.45,1.68.29,3.49,2.1,5.08,6.09,5.36,7.72,10.35,5.45,16.68v.23a6.27,6.27,0,0,0,2.78,5.84,5,5,0,0,0,5.38-.38,16.23,16.23,0,0,1,8.69-2.94,14.15,14.15,0,0,1,8.43,3.11,4.78,4.78,0,0,0,6.19-.3,5.48,5.48,0,0,0,1.77-6.17c-2.27-6.39-.62-11.5,4.88-15.21A6.89,6.89,0,0,0,122.87,120.75Zm-5-2.45a15.76,15.76,0,0,1-4.09,5.08c-1.45,1.35-2.7,2.52-3.26,4.18-.64,1.92-.26,3.84.18,6.07a23.11,23.11,0,0,1,.63,5.93l-.11,2.05-1.54-1.34c-6.7-5.82-13-6-20-.52l-2.53,2,1-3.08c2.69-8.71.61-14.84-6.57-19.29l-3.08-1.92,3.63.07c9.11.15,14.24-3.59,16.57-12.15l.92-3.38,1,3.36c2.63,8.76,7.78,12.43,16.22,11.54l1.74-.19Z"/><path class="cls-2" d="M261.86,158.42c.1-3.19-1.94-5.26-5.44-5.51-5.23-.39-10.87-1.79-13.06-9.29-.92-3.17-2.67-4.82-5.2-4.91s-4.38,1.44-5.58,5c-2.09,6.09-6.05,9.05-12.12,9.05h-.18c-3.27,0-5.33,1.2-6.14,3.56-1.12,3.28.93,5.59,2.84,7,5.3,3.77,6.73,8.51,4.39,14.49a4,4,0,0,0-.17,1,5.62,5.62,0,0,0,7.62,6.14,35,35,0,0,1,8.79-.84c4,0,8.08.34,10.12,1a5.58,5.58,0,0,0,5.06-.4,5.51,5.51,0,0,0,1.93-4.62,14,14,0,0,0-.57-4.07c-1.5-4.83-.31-8.58,3.64-11.46C259.84,163,261.76,161.18,261.86,158.42Zm-6,.93c-7.08,4.91-9.07,11.07-6.26,19.4l1.08,3.2-2.65-2.1c-6.77-5.36-13.23-5.35-20.35.05L225,182l1.18-3.2c3-8.24,1-14.37-6.26-19.3l-2.55-1.73,3.08-.1c9.77-.32,14.63-3.92,16.27-12l.72-3.52,1.21,3.38c3.14,8.8,8.26,12.51,16.62,12.07l3.53-.2Z"/><path class="cls-2" d="M82.3,161.63l.07-.09a5.45,5.45,0,0,0,1.19-4.95,5.35,5.35,0,0,0-3.62-3.46,8.78,8.78,0,0,0-3.1-.56c-5.74.31-9.51-2.51-11.57-8.62-1-3.1-2.93-4.61-5.76-4.61h-.1c-2.63,0-4.33,1.52-5.36,4.68-1.94,6-5.71,8.82-11.59,8.56a4.54,4.54,0,0,0-1.07.17l-.43.1c-2.64.55-4.63,2.13-5.17,4.12-.47,1.72.17,3.48,1.8,5,4.61,4.23,8.85,9.48,5.41,16.41-.06,3.31.82,5.68,2.48,6.67,1.46.88,3.55.63,5.87-.71,4.82-2.76,10-5,15.89-.31a5.38,5.38,0,0,0,7,0c2.21-1.66,2.82-3.89,1.86-6.82-2-6-.51-10.62,4.34-13.69A8.62,8.62,0,0,0,82.3,161.63Zm-4.58-2.31c-7.49,5.48-9.44,11.42-6.31,19.27l1.3,3.24-2.82-2.06c-7.22-5.31-13.44-5.29-20.17,0l-2.52,2,.94-3.08c2.62-8.59.56-14.71-6.49-19.28l-2.84-1.84h3.38c9.26,0,14.31-3.75,16.38-12.13l.87-3.52,1.05,3.47c2.6,8.55,7.88,12.36,16.6,12.06l3.26-.12Z"/><path class="cls-2" d="M172.93,99.78v0c0-2.61-1.61-4.44-3.84-4.45-7.86,0-12.8-3.57-16-11.41a4.58,4.58,0,0,0-4.24-3.07h0A4.71,4.71,0,0,0,144.54,84c-3.06,7.47-7.69,10.87-15.5,11.37a4.3,4.3,0,0,0-3.89,2.42,6,6,0,0,0,1.15,6.05,10.38,10.38,0,0,0,2.23,2.33c4.42,3,5.73,7.09,4,12.6-1.18,3.75-.7,6.16,1.54,7.82s4.83,1.4,7.93-.79c4.78-3.38,9.09-3.4,13.56,0,2.81,2.11,5.46,2.27,7.88.48s2.8-4,1.65-7.74c-1.61-5.26-.35-9.26,3.86-12.21C171.83,104.2,173.06,102.22,172.93,99.78Zm-12.14,20.88,1.57,3.38-3.05-2.14c-7.51-5.28-13.83-5.3-20.47-.07l-2.52,2,1-3.07c2.71-8.76.68-14.64-6.61-19l-3.1-1.88,3.63,0h.23c8.83,0,14.06-3.83,16.44-12l.93-3.19,1,3.17c2.63,8.45,7.86,12.19,16.49,11.78l3.06-.15L167,101.34C159.14,107.63,157.36,113.23,160.79,120.66Z"/><path class="cls-2" d="M94.41,215.31c.07-1.24.14-2.53-.42-3.11a2.66,2.66,0,0,0-1.91-.53H92a2.57,2.57,0,0,0-1.9.61c-.69.75-.56,2.38-.46,3.83.05.63.1,1.29.09,1.89,0,.45,0,.93-.08,1.43-.12,1.59-.25,3.39.52,4.24a3.42,3.42,0,0,0,3.76.15c.62-.62.59-2,.55-3.41a16.69,16.69,0,0,1,.06-2.35A10.46,10.46,0,0,1,94.41,215.31Z"/></g></g></svg>