<svg xmlns="http://www.w3.org/2000/svg" viewBox="0 0 180.19 182.81"><defs><style>.cls-1{isolation:isolate;}.cls-15,.cls-2{fill:#fff;}.cls-3{fill:#6c2910;}.cls-4{fill:#dbd59e;}.cls-5{fill:#62bdd4;}.cls-6{fill:#c9d528;}.cls-7{fill:#2d9fc0;}.cls-8{fill:#3db0c9;}.cls-9{fill:#bcc8ca;}.cls-22,.cls-28,.cls-29,.cls-30,.cls-34,.cls-9{mix-blend-mode:multiply;}.cls-10{fill:#4b3c32;}.cls-11{fill:#c88a5e;}.cls-12{fill:#afaeb6;}.cls-13{fill:#524955;}.cls-14{fill:#53b9c3;}.cls-15{opacity:0.2;}.cls-16{fill:#e5e5e4;}.cls-17{fill:#656469;}.cls-18{fill:#f5f5f5;}.cls-19{fill:#d49917;}.cls-20{fill:#838288;}.cls-21{fill:#f7d07f;}.cls-22{fill:#c7b8ad;opacity:0.66;}.cls-23{fill:#f5c77b;}.cls-24{fill:#c5a063;}.cls-25{fill:#eebe75;}.cls-26{fill:#cdcccc;}.cls-27{fill:#b4b4b4;}.cls-28{fill:#c1c8c9;}.cls-29{fill:#c3cbcc;}.cls-30{fill:#afb6b9;}.cls-31{fill:#f7a429;}.cls-32{fill:#b2b095;}.cls-33{fill:#4da7b1;}.cls-34{fill:#c8d5d6;}.cls-35{fill:#9fd6df;}.cls-36{fill:#7b8391;}.cls-37{fill:#939cad;}</style></defs><g class="cls-1"><g id="Capa_2" data-name="Capa 2"><g id="Capa_1-2" data-name="Capa 1"><path class="cls-2" d="M32.56,167.42a15.08,15.08,0,0,1-8.64-2.81,61.71,61.71,0,0,1-6-4.79C6.26,149-3.31,130.09,1.09,110.62,3.71,99,10.9,92.28,17.76,85.35c2.43-2.45,4.7-5.6,4.41-10s-2.63-8.46-4-12.48a71.38,71.38,0,0,1-3.25-13.73c-1.58-12,.43-24.89,6.48-34.21C26.7,6.74,35,1.13,43.61.14A23.13,23.13,0,0,1,56.79,2.7C65.35,7,72,15,79.14,21.9a62.09,62.09,0,0,0,25.2,15.25,57.23,57.23,0,0,0,13.74,2.34c8,.39,16-1.61,24,.15,10.65,2.35,21.23,9.52,28.44,20.47s8.86,26.74,5.76,40.5c-1.41,6.29-3.72,12.11-3.26,18.87a35.89,35.89,0,0,0,2.84,11.63c2,4.7,4.46,9.39,4.35,15.07,0,.33,0,.66,0,1-.6,11.47-8.46,20.25-17.67,20.25Z"/><path class="cls-3" d="M108.85,176.15h-.06a47,47,0,0,1-5.57-.33,1.07,1.07,0,0,1,.26-2.13,37.3,37.3,0,0,0,5.37.32h.92a1.07,1.07,0,0,1,0,2.14Zm6.26-.45a1.06,1.06,0,0,1-1.06-.91,1.07,1.07,0,0,1,.9-1.22,40.46,40.46,0,0,0,6.11-1.36,1.07,1.07,0,1,1,.63,2,42.26,42.26,0,0,1-6.43,1.43Zm-17-.84-.26,0a42.39,42.39,0,0,1-6.25-2.07,1.07,1.07,0,0,1,.83-2,39.39,39.39,0,0,0,5.94,2,1.07,1.07,0,0,1-.26,2.11Zm28.29-2.49a1.07,1.07,0,0,1-.47-2A24.31,24.31,0,0,0,131,167a1.07,1.07,0,1,1,1.4,1.62,26.37,26.37,0,0,1-5.58,3.7A1.1,1.1,0,0,1,126.37,172.37Zm-39.24-1.82a1,1,0,0,1-.47-.11l-3.31-1.63-2.45-1.22a1.07,1.07,0,1,1,.94-1.92l2.46,1.22,3.31,1.63A1.07,1.07,0,0,1,88.1,170,1.08,1.08,0,0,1,87.13,170.55Zm-10.59-5.17a1,1,0,0,1-.45-.1c-2.15-1-4.06-1.83-5.85-2.53a1.08,1.08,0,0,1,.79-2c1.83.73,3.78,1.57,6,2.59a1.07,1.07,0,0,1-.45,2Zm58.88-.41a1.08,1.08,0,0,1-.66-.23,1.07,1.07,0,0,1-.18-1.51,27.86,27.86,0,0,0,3.27-5.24,1.07,1.07,0,1,1,1.93.92,29.8,29.8,0,0,1-3.52,5.65A1.06,1.06,0,0,1,135.42,165Zm-111-1.92a1.07,1.07,0,0,1,0-2.14,33,33,0,0,0,6.18-.67,1.07,1.07,0,1,1,.41,2.1,34,34,0,0,1-6.59.71Zm-5.31-.59a1,1,0,0,1-.24,0,27.3,27.3,0,0,1-5.6-2l-.66-.29a1.07,1.07,0,1,1,.92-1.94,6.65,6.65,0,0,0,.61.27,25.3,25.3,0,0,0,5.2,1.83,1.07,1.07,0,0,1-.23,2.11Zm16.91-1.3a1.07,1.07,0,0,1-.26-2.11l.35-.09c1.92-.48,3.9-1,6-1.39a1.08,1.08,0,0,1,.42,2.11c-2,.4-4,.89-5.87,1.36l-.34.09A1.24,1.24,0,0,1,36.06,161.16ZM65.59,161a.93.93,0,0,1-.32-.05,50.29,50.29,0,0,0-6.1-1.52,1.07,1.07,0,0,1,.38-2.11,52.3,52.3,0,0,1,6.36,1.59,1.07,1.07,0,0,1,.71,1.34A1.08,1.08,0,0,1,65.59,161Zm-18-2.1a1.07,1.07,0,0,1-.06-2.14,42.16,42.16,0,0,1,6.54-.11,1.09,1.09,0,0,1,1,1.14,1.07,1.07,0,0,1-1.14,1,42,42,0,0,0-6.24.1ZM8.74,157.24a1.1,1.1,0,0,1-.75-.31,18.53,18.53,0,0,1-3.84-5.6,1.07,1.07,0,1,1,2-.88,16.34,16.34,0,0,0,3.38,5,1.08,1.08,0,0,1-.75,1.84Zm131.92-2.74a.84.84,0,0,1-.27,0,1.06,1.06,0,0,1-.77-1.3,24.53,24.53,0,0,0,.79-6.09,1.07,1.07,0,0,1,2.14,0h0a26.32,26.32,0,0,1-.86,6.62A1.06,1.06,0,0,1,140.66,154.5Zm-137-7.67a1.07,1.07,0,0,1-1.06-.91,23,23,0,0,1-.26-3.44,24.11,24.11,0,0,1,.23-3.28,1.07,1.07,0,0,1,2.12.3,21.33,21.33,0,0,0-.21,3,20.2,20.2,0,0,0,.24,3.12,1.07,1.07,0,0,1-.9,1.22Zm137.05-4a1.09,1.09,0,0,1-1-.79,26.48,26.48,0,0,0-2.31-5.72,1.07,1.07,0,0,1,1.88-1,28.74,28.74,0,0,1,2.5,6.17,1.07,1.07,0,0,1-.75,1.32A1.35,1.35,0,0,1,140.69,142.86ZM5,135.26a1.09,1.09,0,0,1-.39-.08,1.07,1.07,0,0,1-.6-1.39A22.91,22.91,0,0,1,7.36,128,1.07,1.07,0,0,1,9,129.31,20.86,20.86,0,0,0,6,134.58,1.08,1.08,0,0,1,5,135.26Zm130.41-2.85a1.11,1.11,0,0,1-.87-.44l-.26-.35a31.59,31.59,0,0,0-4-4.13,1.08,1.08,0,0,1,1.45-1.59,35,35,0,0,1,4.32,4.45l.26.35a1.07,1.07,0,0,1-.23,1.5A1.06,1.06,0,0,1,135.39,132.41ZM12,126a1.07,1.07,0,0,1-.66-1.91,60.28,60.28,0,0,1,5.42-3.67,1.07,1.07,0,0,1,1.14,1.81,62.56,62.56,0,0,0-5.24,3.54A1,1,0,0,1,12,126Zm115-1.84a1.06,1.06,0,0,1-.74-.3,27.14,27.14,0,0,1-4.39-5,1.08,1.08,0,0,1,1.83-1.13,25.24,25.24,0,0,0,4,4.63,1.08,1.08,0,0,1,0,1.52A1.1,1.1,0,0,1,127,124.14ZM21.82,119.43A1.05,1.05,0,0,1,21,119a1.08,1.08,0,0,1,.22-1.5,18.65,18.65,0,0,0,4.34-4.23,1.07,1.07,0,0,1,1.75,1.24,20.79,20.79,0,0,1-4.81,4.72A1.11,1.11,0,0,1,21.82,119.43ZM122,114.2a1,1,0,0,1-.33-.06,1.08,1.08,0,0,1-.69-1.35,12.25,12.25,0,0,1,4.28-5.48,1.07,1.07,0,0,1,1.5.17,1.08,1.08,0,0,1-.17,1.51,10.19,10.19,0,0,0-3.57,4.47A1.08,1.08,0,0,1,122,114.2Zm-93.41-4.08a1.24,1.24,0,0,1-.27,0,1.08,1.08,0,0,1-.77-1.31,18,18,0,0,0,.52-4v-.53c0-.54,0-1-.05-1.54a1.07,1.07,0,0,1,2.13-.17c0,.55.07,1.12.07,1.71,0,.19,0,.38,0,.58a20.45,20.45,0,0,1-.58,4.43A1.08,1.08,0,0,1,28.61,110.12Zm101.83-3.82a1.08,1.08,0,0,1-.95-.56,1.07,1.07,0,0,1,.43-1.45,62.38,62.38,0,0,1,5.91-2.82,1.07,1.07,0,0,1,.83,2,63.14,63.14,0,0,0-5.71,2.73A1,1,0,0,1,130.44,106.3Zm10.8-4.73a1.07,1.07,0,0,1-.37-2.08c2.29-.84,4.47-1.57,6.12-2.12a1.08,1.08,0,0,1,.68,2c-1.64.54-3.8,1.27-6.06,2.09A1,1,0,0,1,141.24,101.57ZM27.8,98.6a1.05,1.05,0,0,1-1-.61,13.68,13.68,0,0,0-3.67-4.64,1.07,1.07,0,1,1,1.39-1.63,15.83,15.83,0,0,1,4.22,5.36,1.07,1.07,0,0,1-.52,1.42A1,1,0,0,1,27.8,98.6Zm124.63-.83a1.08,1.08,0,0,1-.36-2.09l.47-.17a37.86,37.86,0,0,0,5.17-2.46,1.08,1.08,0,1,1,1.08,1.86,40.87,40.87,0,0,1-5.49,2.61l-.51.18A1.15,1.15,0,0,1,152.43,97.77Zm10.11-5.9a1.06,1.06,0,0,1-.77-.33,1.07,1.07,0,0,1,0-1.51A12,12,0,0,0,165,85.11a1.07,1.07,0,1,1,2,.66,14.29,14.29,0,0,1-3.7,5.79A1.1,1.1,0,0,1,162.54,91.87Zm-143-1.38a1,1,0,0,1-.57-.17l-1.27-.79c-1.38-.87-2.81-1.76-4.18-2.75A1.07,1.07,0,0,1,14.74,85c1.31.95,2.71,1.83,4.06,2.67l1.27.8a1.07,1.07,0,0,1-.57,2Zm-9.4-7a1.07,1.07,0,0,1-.8-.36,18.55,18.55,0,0,1-3.54-5.76,1.07,1.07,0,0,1,2-.77,16.55,16.55,0,0,0,3.14,5.1,1.07,1.07,0,0,1-.8,1.79Zm156.43-2.23a1.08,1.08,0,0,1-1.07-1,16.36,16.36,0,0,0-.21-1.64,11.54,11.54,0,0,0-1.46-4,1.08,1.08,0,0,1,1.85-1.1,13.9,13.9,0,0,1,1.72,4.71,17.7,17.7,0,0,1,.24,1.85,1.06,1.06,0,0,1-1,1.15ZM5.46,72.83a1.07,1.07,0,0,1-1.06-.92A26.88,26.88,0,0,1,4.11,68a26,26,0,0,1,.16-2.8,1.07,1.07,0,0,1,2.13.24A24.11,24.11,0,0,0,6.26,68a25.69,25.69,0,0,0,.26,3.58,1.07,1.07,0,0,1-.91,1.21Zm155.68-1.65a1.1,1.1,0,0,1-.66-.23,35.56,35.56,0,0,0-5.3-3.26,1.07,1.07,0,1,1,1-1.9,37.83,37.83,0,0,1,5.62,3.47,1.07,1.07,0,0,1-.66,1.92Zm-10.21-5.86a1.1,1.1,0,0,1-.52-.14,39.26,39.26,0,0,1-5.54-3.58,1.08,1.08,0,0,1-.17-1.51,1.07,1.07,0,0,1,1.5-.17,37.82,37.82,0,0,0,5.25,3.39,1.07,1.07,0,0,1-.52,2ZM6.56,61.22a.94.94,0,0,1-.37-.07,1.06,1.06,0,0,1-.64-1.37,22.54,22.54,0,0,1,3.23-5.89,1.07,1.07,0,1,1,1.71,1.29,20.45,20.45,0,0,0-2.93,5.34A1.07,1.07,0,0,1,6.56,61.22ZM142,57.89a1.08,1.08,0,0,1-1-.6,50.31,50.31,0,0,1-2.3-6.18,1.07,1.07,0,0,1,2-.66A48.25,48.25,0,0,0,143,56.34a1.06,1.06,0,0,1-.48,1.43A1,1,0,0,1,142,57.89ZM13.35,51.77a1.09,1.09,0,0,1-.83-.4,1.07,1.07,0,0,1,.16-1.5,26.28,26.28,0,0,1,5.67-3.53,1.07,1.07,0,0,1,.9,1.94A24.67,24.67,0,0,0,14,51.53,1.09,1.09,0,0,1,13.35,51.77Zm124.68-5a1.09,1.09,0,0,1-1-.71c-.79-2.21-1.57-4.13-2.39-5.86a1.07,1.07,0,1,1,1.93-.92,63.37,63.37,0,0,1,2.48,6,1.07,1.07,0,0,1-.64,1.37A1,1,0,0,1,138,46.77ZM23.84,46.58a1.07,1.07,0,0,1-.27-2.11,36.34,36.34,0,0,1,5.93-1l.61,0a1.07,1.07,0,1,1,.13,2.14l-.57,0a34.33,34.33,0,0,0-5.56.95A1.24,1.24,0,0,1,23.84,46.58ZM42,45.79h0c-1,0-2-.08-3-.13l-3.38-.14a1.07,1.07,0,1,1,.07-2.14c1.13,0,2.27.09,3.41.14l3,.13a1.07,1.07,0,0,1,0,2.14Zm5.35,0a1.07,1.07,0,0,1-.05-2.14,25.66,25.66,0,0,0,6.08-1A1.07,1.07,0,0,1,54,44.7a27.82,27.82,0,0,1-6.59,1.08ZM58.49,42.5a1,1,0,0,1-.92-.54A1.06,1.06,0,0,1,58,40.5a25.06,25.06,0,0,0,4.87-3.76,1.07,1.07,0,0,1,1.5,1.54A27.51,27.51,0,0,1,59,42.35,1.08,1.08,0,0,1,58.49,42.5ZM133,36.11a1.07,1.07,0,0,1-.91-.5,32.29,32.29,0,0,0-3.8-4.91,1.07,1.07,0,0,1,1.55-1.48,34.38,34.38,0,0,1,4.06,5.24,1.07,1.07,0,0,1-.33,1.48A1,1,0,0,1,133,36.11Zm-65.9-1.53a1.07,1.07,0,0,1-.84-1.74c1.2-1.5,2.35-3.11,3.48-4.66l.32-.46a1.07,1.07,0,0,1,1.5-.24A1.06,1.06,0,0,1,71.83,29l-.32.46C70.37,31,69.19,32.64,68,34.18A1.08,1.08,0,0,1,67.13,34.58Zm57.93-7a1.08,1.08,0,0,1-.62-.19A25.89,25.89,0,0,0,119,24.41a1.07,1.07,0,0,1-.6-1.39,1.08,1.08,0,0,1,1.4-.6,28.46,28.46,0,0,1,5.85,3.17,1.07,1.07,0,0,1,.25,1.49A1.05,1.05,0,0,1,125.06,27.53ZM96.21,23.14A1.07,1.07,0,0,1,96,21a62.51,62.51,0,0,1,6.48-.83,1.06,1.06,0,0,1,1.15,1,1.07,1.07,0,0,1-1,1.15,58.49,58.49,0,0,0-6.27.8Zm18.1-.18-.22,0a36.58,36.58,0,0,0-6.18-.72,1.08,1.08,0,0,1,0-2.15h0a38.77,38.77,0,0,1,6.55.77,1.07,1.07,0,0,1-.22,2.12Z"/><polygon class="cls-4" points="143.97 53.91 147.88 142.16 105.97 153.25 63.22 145.91 21.29 157.01 17.38 68.78 59.31 57.67 102.06 65.02 143.97 53.91"/><polygon class="cls-5" points="62.91 138.89 27.78 148.18 24.49 74 59.62 64.69 102.37 72.05 137.48 62.74 140.77 136.93 105.65 146.23 62.91 138.89"/><path class="cls-6" d="M137.48,62.72l3.29,74.19-14.58,3.86a22.59,22.59,0,0,0-6.25-.48c-2.17-.11-9.69-.2-10.69-3.37-.77-3,3-4,4.49-5.36,2.47-2.48.47-4.12,1.85-6.76,2-3.52,10.87-2,14.26-3,6.37-2.21,6.12-7.79,3.08-13.24-2.35-4.4-11.17-4.87-8.09,1.87,1.44,3.38,3.65,4.77-1.49,5.22-2.56.33-8.16.14-6.37-3.37.81-1.12,6.92-3.53,1-5-1.51-.38-5.74,1.33-7.2,2-8,4.66-4.56,9,1,13.27-1.59,2.87-5.79.25-7.85,2.06-2.08,1.61-.33,7.34-4,7.28-3.44-.07-6.32-11.53-6.65-14.32-.57-3.19-1.76-5.51-5.59-5.13-2.36.32-6.33,3.08-6.87,5.26-.32,2.59,2.62,5.9,3.79,8,2.32,3.76.52,2.12-1.73,4.8-1,1.11-2.47,7.19-5,3.46,0-.23.55-2.2.52-2.83a12.47,12.47,0,0,0-1.64-2.94c-2.56-4.61-2.89-12.11-10.18-11.58-4.08.38-3.33,2.52-5.14,5-2.26,2.68-3.34,2.3-4,6.2-1.27,5.44-4.49,5.79-9.42,5.8-3.67-.06-7.31.1-8.12-3.53-.27-1.48-.43-5.14-.52-7.06,0-3.65,1.55-3.94,5-4.52,2.77-.33,5.36,0,7.44-2,1.84-2,1.71-4.8,2.47-7.19,1.16-2.85,2.21-3.54,5.19-3.89.65,0,1.54.56,2.19.54.86,0,1-.91,1.88-1.15a13.64,13.64,0,0,0,2.76-.56c1.93-.3,3.89.06,5.8-.25A8.72,8.72,0,0,0,77,102c1.46-.92,1.4-2.21,2.44-3.12,3.08-3.14,8.76-1.24,13.22-2.09,7.47-1.4,4.29-10.29-1.41-12.39-7.63-2.69-9.38,6.43-14.36,10.3-1,.7-2.31,1.39-3.35,2.07-.82.9-.55,2.4-2.69,2.29-1.32-.39-1.4-2.31-2.7-2.91-1.1-.36-3,.58-4.09.18-4.17-1.74.68-4.1-.75-7.26-.94-1.9-3.5-1.35-2.53-4,.37-.88,2.92-1.65,3.56-1.88,2.73-1.19,6.4-1.15,8.9-2.77,1.27-.69,2.05-2.45,3.52-3.37,3.43-2,9.22-4.93,13.32-7.18L102.36,72l5.85-1.55c.87,1.68-.1,2.88-1.89,5.3-1.2,1.77-2.86,2.93-.61,5.61,1.14,1.46,1.14,1.46,2.6.54.22,0,1.19-2.63,2-3.32,1.85-1.59,4.25-1,5.21-3.46.38-1.09-.33-2.77,0-4.08a9.6,9.6,0,0,1,1.27-2.88Z"/><path class="cls-6" d="M49.12,107.41a4.22,4.22,0,0,1-5.72,1.89c-2.18-.9-2.43-2.89-1.94-5s1.39-4,1.09-6.22c-.26-1.56-1.33-4.21-.16-5.48h0c2-.45,5.22,2.55,5.82,4.52.5,1.61-.29,3.16,0,4.87C48.69,104,50,105.29,49.12,107.41Z"/><path class="cls-6" d="M37.69,101c-.23.61-.52,1.19-.68,1.64-.5,1.61-.49,3.39-2.71,3.35-1.8-.14-4.16-1.53-3-3.66a5,5,0,0,1,4.85-2.5A1.66,1.66,0,0,1,37.69,101Z"/><rect class="cls-2" x="145.92" y="53.83" width="1.79" height="88.28" transform="translate(-4.24 6.68) rotate(-2.57)"/><path class="cls-7" d="M37.87,145.53,27.78,148.2l-.53-11.86a36.3,36.3,0,0,0,6.35,5.74A29.51,29.51,0,0,1,37.87,145.53Z"/><path class="cls-7" d="M50.27,67.17c-2.28,3.87-4,8.28-8.37,10-2.75,1-5.55.68-8.33,1-3.51.5-6.3,1.48-8.81,1.83L24.49,74Z"/><path class="cls-8" d="M72.08,66.84c-.35,2.25-.72,4.43-2.41,6.14s-5,2.81-7.17,3.54c-2.75.77-6.39.93-8.47,3-2.48,2.06-2.77,5.08-5.72,6.72-2.52,1.18-4.69.42-7,1.17-3.39,1-2.64,3.34-4.24,6-2.75,4.75-7.17,2.73-11.66.73l-.62-14c2.51-.35,5.3-1.33,8.81-1.83,2.78-.35,5.58,0,8.33-1,4.34-1.77,6.09-6.18,8.37-10l9.35-2.48Z"/><path class="cls-8" d="M55.16,141l-17.29,4.58a29.51,29.51,0,0,0-4.27-3.45,36.3,36.3,0,0,1-6.35-5.74L26.1,110.41c5.06,0,8.33.83,7.73,7.58-.23,4.74-2.57,10.23-1.06,14.87C35.82,141.77,51.22,135.52,55.16,141Z"/><path class="cls-8" d="M111.72,144.63l-6.06,1.61-22.2-3.81a7.31,7.31,0,0,0,4-3.4c.8-1.3.74-2.71,2.31-3.64,3-1.63,6.44-.28,8.78,1.66,3.23,2.66,6.55,2.39,10.16,3.85A6.27,6.27,0,0,1,111.72,144.63Z"/><path class="cls-8" d="M74.16,140.83,62.91,138.9l-1.12.29c1.07-4.22,1.62-9.87,6.09-9.6C72.93,129.9,73.06,136.63,74.16,140.83Z"/><polygon class="cls-9" points="147.88 142.15 105.95 153.25 102.04 65.01 143.97 53.91 147.88 142.15"/><polygon class="cls-9" points="63.21 145.91 21.29 157.01 17.38 68.77 59.3 57.66 63.21 145.91"/><path class="cls-10" d="M155.39,106.26a2.29,2.29,0,0,1-2.91,1.41L144.74,105a2.29,2.29,0,0,1-1.41-2.91l8.33-19.89c.53-1.22.58-1.6,1.94-1.13l6.89,2.39c1.19.41,1.18.84.83,2.06Z"/><path class="cls-11" d="M175.56,115l-18.64,53.78A19.68,19.68,0,0,1,137.73,182a19.46,19.46,0,0,1-5.8-1.08,19.1,19.1,0,0,1-5.24-2.75,19.67,19.67,0,0,1-6.9-22.25l18.64-53.79a3.27,3.27,0,0,1,4.16-2l30.95,10.73A3.27,3.27,0,0,1,175.56,115Z"/><path class="cls-12" d="M176.39,112.63l-.83,2.4a3.27,3.27,0,0,0-2-4.16l-30.95-10.73a3.27,3.27,0,0,0-4.16,2l.84-2.4a3.25,3.25,0,0,1,4.15-2l31,10.72A3.27,3.27,0,0,1,176.39,112.63Z"/><rect class="cls-13" x="127.87" y="117.52" width="41.39" height="30.81" transform="translate(-25.68 229.78) rotate(-70.89)"/><rect class="cls-14" x="130.69" y="120.34" width="35.75" height="25.17" transform="translate(-25.67 229.78) rotate(-70.89)"/><polygon class="cls-15" points="151.62 112.08 134.88 150.09 127.23 147.44 140.78 108.33 151.62 112.08"/><path class="cls-16" d="M159.88,162.89,157.76,169a20.53,20.53,0,0,1-20,13.79l3.82-11a14.42,14.42,0,0,1,4.82-6.7,14.87,14.87,0,0,1,2.49-1.53,14.35,14.35,0,0,1,10-.95A9.32,9.32,0,0,1,159.88,162.89Z"/><path class="cls-16" d="M130,167.78l-3.82,11a20.55,20.55,0,0,1-7.2-23.23l2.13-6.12c.33.12.65.24,1,.38A14.37,14.37,0,0,1,130,167.78Z"/><path class="cls-17" d="M145.49,162.34a6.73,6.73,0,1,1-4.15-8.56A6.74,6.74,0,0,1,145.49,162.34Z"/><polygon class="cls-18" points="138.6 156.38 141.88 157.52 140.81 155.3 138.6 156.38"/><polygon class="cls-18" points="136.41 162.71 139.69 163.85 137.47 164.93 136.41 162.71"/><polygon class="cls-18" points="135.41 160.66 136.55 157.38 134.33 158.44 135.41 160.66"/><polygon class="cls-18" points="141.74 162.85 142.87 159.57 143.96 161.78 141.74 162.85"/><path class="cls-19" d="M154.89,159.59a1.56,1.56,0,0,1-1.56,1.57h-4.17a1.56,1.56,0,0,1-1.57-1.56h0a1.56,1.56,0,0,1,1.56-1.57h4.18a1.56,1.56,0,0,1,1.56,1.56Z"/><path class="cls-19" d="M127.08,150a1.57,1.57,0,0,0,.26,2.2l3.27,2.6a1.57,1.57,0,0,0,2.2-.26h0a1.56,1.56,0,0,0-.25-2.2l-3.28-2.59a1.56,1.56,0,0,0-2.2.25Z"/><path class="cls-20" d="M122.12,157.37a1.87,1.87,0,0,0,.3,2.62l3.89,3.08a1.87,1.87,0,0,0,2.62-.31h0a1.85,1.85,0,0,0-.31-2.61l-3.89-3.08a1.86,1.86,0,0,0-2.61.3Z"/><path class="cls-20" d="M120.81,163.36a1.86,1.86,0,0,0,.31,2.62l3.89,3.08a1.85,1.85,0,0,0,2.61-.31h0a1.86,1.86,0,0,0-.3-2.61l-3.89-3.08a1.87,1.87,0,0,0-2.62.3Z"/><path class="cls-20" d="M154.46,168.58a1.86,1.86,0,0,1-1.85,1.87h-5a1.86,1.86,0,0,1-1.86-1.86h0a1.86,1.86,0,0,1,1.85-1.87h5a1.86,1.86,0,0,1,1.86,1.86Z"/><path class="cls-20" d="M151.78,174.09a1.87,1.87,0,0,1-1.86,1.87H145a1.86,1.86,0,0,1-1.87-1.85h0a1.86,1.86,0,0,1,1.86-1.87h5a1.85,1.85,0,0,1,1.86,1.85Z"/><path class="cls-19" d="M137.63,171.35a2.25,2.25,0,1,1-1.39-2.86A2.26,2.26,0,0,1,137.63,171.35Z"/><path class="cls-19" d="M135.55,177.36a2.25,2.25,0,1,1-1.39-2.87A2.25,2.25,0,0,1,135.55,177.36Z"/><rect class="cls-21" x="35.2" y="78.4" width="5.33" height="92.27"/><polygon class="cls-22" points="40.53 78.4 40.53 170.67 38.96 170.67 38.96 134.96 35.2 134.96 35.2 132.05 38.96 132.05 38.96 117.31 35.2 117.31 35.2 114.4 38.96 114.4 38.96 99.79 35.2 99.79 35.2 96.88 38.96 96.88 38.96 78.4 40.53 78.4"/><polygon class="cls-23" points="59.93 90.29 51.37 96.88 20.38 96.88 20.38 83.71 51.37 83.71 59.93 90.29"/><polygon class="cls-23" points="54.68 107.83 48.31 114.4 25.24 114.4 25.24 101.24 48.31 101.24 54.68 107.83"/><polygon class="cls-24" points="57.98 107.83 51.61 114.4 48.31 114.4 54.68 107.83 48.31 101.24 51.61 101.24 57.98 107.83"/><polygon class="cls-23" points="20 125.47 25.69 132.05 46.29 132.05 46.29 118.88 25.69 118.88 20 125.47"/><rect class="cls-24" x="46.29" y="118.88" width="2.81" height="13.17"/><path class="cls-25" d="M28.72,83.71a6.14,6.14,0,0,1-2.28,2,29.81,29.81,0,0,1-6.06,1.69v-.67c1.87-.33,4-.53,5.38-1.6a7.34,7.34,0,0,0,1.38-1.46Z"/><path class="cls-25" d="M32.8,83.71a9.76,9.76,0,0,1-6,4.78c-1.41.46-4.44.73-6.45,1.62V89c3.95-1.23,8.68-1.3,10.71-5.24Z"/><path class="cls-25" d="M36,83.71c-.84,3.09-3.77,5-6.72,6.28a24,24,0,0,1-4.6,1.48c-3.27.71-2.9,3.23-1.44,5.41H21c-.86-1.77-.86-3.72,1-5.13,1.46-1.15,4-1.14,5.64-1.81,3-1.21,6-3,6.7-6.23Z"/><path class="cls-25" d="M36.58,96.88H34.8c.77-2.67-2.6-3.78-5.2-3.58-1.22.1-3.64.58-1.88,2a10.36,10.36,0,0,0,2.64,1.57H26.94a3.4,3.4,0,0,1-1.68-2c-.37-2,2.44-2.64,3.89-2.81C32.49,91.7,37.75,93.09,36.58,96.88Z"/><path class="cls-25" d="M41.07,96.88H39.23c-.35-1.59-1.53-2.57-3.12-3.62-1-.68-1.64-1-1.84-2.2-.15-1,1.35-2.93,1.62-3.53.59-1.27,1.11-2.53,1.56-3.82H39c-1.3,2.86-3.48,7.38-1.76,8.51C39.3,93.61,40.8,94.75,41.07,96.88Z"/><path class="cls-25" d="M47.64,96.88H45.55c-1.7-2.36-5-3.48-6.82-6-1-1.43.93-5.17,2.36-7.21h1.57a16.6,16.6,0,0,0-1.95,4.6c-.66,2.22.53,2.82,2.06,4C44.63,93.76,46.6,95,47.64,96.88Z"/><path class="cls-25" d="M59.23,90.84l-1.41,1.08a41.82,41.82,0,0,0-7.4-.49c-.77,0-4.81-.14-4.15-1.88.52-1.36,3.07-1.71,4.25-2,.88-.19,3.22-.33,4.93-.74l1.06.82c-2.5.83-5.94.72-7.95,1.58-1.43.61,3.19,1.06,3.64,1a28.46,28.46,0,0,1,3.06-.06A19.48,19.48,0,0,1,59.23,90.84Z"/><path class="cls-25" d="M53.33,95.38l-1.19.91c-1.77-.91-3.65-1.51-5.54-2.43-1.37-.68-3.22-1.63-3.83-3.16-1.4-3.56,2.12-5.27,4.93-7h1.76c-3.17,2.12-7.54,4.68-4,7.63C47.74,93.29,50.67,94.07,53.33,95.38Z"/><path class="cls-25" d="M32.92,108.7c-2,2-5.1,1.38-7.68,2.12v-1.25a8.44,8.44,0,0,1,.9-.21c1.23-.23,3.37-.12,4.67-.72a27.78,27.78,0,0,0-5.57-1.12v-1.37c2.55.69,5.24.57,7.63,1.82A.46.46,0,0,1,32.92,108.7Z"/><path class="cls-25" d="M37.63,108.36a35.58,35.58,0,0,0-4.8,2.93,8.46,8.46,0,0,1-3,1.55,25.29,25.29,0,0,1-4.58.5v-.94a19.83,19.83,0,0,0,2.52-.23c2.7-.49,3.94-2.08,6.1-3.38a12.75,12.75,0,0,1,1.88-.83c-1.74-.73-4-.81-5.72-1.23s-3.17-.85-4.78-1.07v-1.24a46.88,46.88,0,0,1,5.81,1.22c2.2.48,4.95.57,6.89,1.79C38.43,107.73,37.94,108.18,37.63,108.36Z"/><path class="cls-25" d="M43.47,106.45c-2,3.11-5.79,4-8,6.84a8,8,0,0,1-1.05,1.12H32.56c1.3-1.12,2.19-2.54,3.78-3.64s7.62-3.68,2.92-4.44-9.34-2.36-14-3v-1c3.58.34,7,1.56,10.54,2.24,2.47.47,5.26.55,7.59,1.45C43.58,106.16,43.58,106.3,43.47,106.45Z"/><path class="cls-25" d="M48.51,101.44a15.77,15.77,0,0,0-4.12,3,1.64,1.64,0,0,1-1.52.41c-4.25-1.3-9.49-1-13.28-3.56h2.78c3.29,1.6,7.5,1.66,11.06,2.57a20.62,20.62,0,0,1,3.82-2.57h1.06Z"/><path class="cls-25" d="M43,101.24a2.57,2.57,0,0,1-1.6,1.41c-1.56.31-2.58-.58-3.93-1.16a.69.69,0,0,1-.33-.25h3.11c.4.17.76.25.89.08l0-.08Z"/><path class="cls-25" d="M52,110.56l-1.12,1.16a19.54,19.54,0,0,0-3.05-2.62c-.77-.53-3-1.44-2.84-2.67.18-1.91,2.61-3.31,4.34-4.1l.44.46a6.85,6.85,0,0,0-2.63,2.15c-.93,1.49.41,2.35,1.6,3.08A20,20,0,0,1,52,110.56Z"/><path class="cls-25" d="M54.33,108.2l-1.08,1.1a10.32,10.32,0,0,0-1.87-1.39,9.24,9.24,0,0,0-2-1,5.74,5.74,0,0,1-1.17-.39c-1-.62,1.4-1.75,2.93-2.38l.56.57a9.42,9.42,0,0,0-1.54.71c-.82.49.45.64.64.72a11.64,11.64,0,0,1,1.09.48A13.7,13.7,0,0,1,54.33,108.2Z"/><path class="cls-25" d="M49.69,113l-1.19,1.24a44.72,44.72,0,0,0-4.22-4.14c-1.22-1.22-4,2.65-5.08,4.33H37.54c1.33-2.33,3.77-5.19,6.31-5.62,1.78-.31,2.44,1.2,3.69,2.24A19.81,19.81,0,0,1,49.69,113Z"/><path class="cls-25" d="M46.56,114.41H44.42a5.59,5.59,0,0,1-.41-.66c-.19-.37-.37-.76-.59-1.11a.86.86,0,0,0-.1-.16c-.41.61-.71,1.29-1.07,1.93H40.67c.6-1.19,1.16-2.57,2.44-3A1.44,1.44,0,0,1,45,112c.31.49.55,1,.83,1.51A5.67,5.67,0,0,0,46.56,114.41Z"/><path class="cls-25" d="M42.44,125.93a17.63,17.63,0,0,0,3.85-.76v.64a18.72,18.72,0,0,1-5.18,1c-.19,0-.58,0-.51-.33.61-2.81,3.08-4.51,5.69-5.63v1A6.75,6.75,0,0,0,42.44,125.93Z"/><path class="cls-25" d="M38.3,128.35c1.5-.06,3-.58,4.54-.65l3.45-.17v.93a30.41,30.41,0,0,0-5.34.33,15.5,15.5,0,0,1-4,.55c-.19,0-.63-.09-.54-.39a15.3,15.3,0,0,1,8.87-10.07h1v.6C42.25,120.91,39.62,124.34,38.3,128.35Z"/><path class="cls-25" d="M45.76,132.06H42.54a8.27,8.27,0,0,0-3.74-.52,20.78,20.78,0,0,1-5.68,0c-.27-.06-.66-.21-.59-.56a18.73,18.73,0,0,1,8.58-12.08h2.74a15.65,15.65,0,0,0-7.36,6.49,15.49,15.49,0,0,0-2,4.49c-.3,1.35,2.61.57,3.3.51C40.79,130.13,43.59,130.47,45.76,132.06Z"/><path class="cls-25" d="M37.49,118.88a.72.72,0,0,1-.2.09c-3.71,1.37-5,6.43-6.68,9.63a7.33,7.33,0,0,1-2.39,3.09,6.24,6.24,0,0,1-.58.37H25.7l-.32-.38a10.56,10.56,0,0,0,4.46-5.14c1.24-2.66,2.63-5.92,5.13-7.66Z"/><path class="cls-25" d="M32.32,118.88c-1.57,2.22-2,5.05-3.62,7.25-1.41,1.94-3.34,2.37-5.25,3.32l-.61-.69c.5-.21,1-.4,1.51-.6,2.1-.85,3.09-2.36,3.92-4.35a25.33,25.33,0,0,1,2.41-4.93Z"/><path class="cls-25" d="M28.8,118.88c-.49,2.15-1,4.84-2.81,6.12a9.86,9.86,0,0,1-3.77,1.07l-1.43.3-.79-.9.15-.17c1.09-.25,2.19-.46,3.28-.66,2.67-.49,3.11-3.4,3.63-5.76Z"/><polygon class="cls-26" points="24.54 173.9 18.54 168.92 21.54 164.29 24.54 161.71 32.61 162.91 38.28 168.92 38.28 172.12 36.05 173.9 24.54 173.9"/><polygon class="cls-16" points="40.96 172.12 41.99 168.24 47.14 164.12 50.74 164.12 54.52 167.21 55.55 170.3 55.55 172.12 40.96 172.12"/><polygon class="cls-27" points="35.45 173.9 34.26 172.36 34.86 170.33 35.97 168.62 40.73 167.21 44.01 169.59 45.79 172.36 45.05 173.9 35.45 173.9"/><polygon class="cls-28" points="35.45 173.9 24.54 173.9 18.54 168.92 21.54 164.3 24.54 161.72 24.77 161.75 22.22 166.22 22.5 169.46 27.97 172.12 32.46 172.12 34.27 169.64 35.42 169.47 35.24 169.75 35.23 169.75 35.23 169.76 34.86 170.34 34.27 172.36 35.45 173.9"/><polygon class="cls-29" points="55.55 170.3 55.55 172.12 45.64 172.12 44.24 169.94 45.34 169.82 47.81 171.19 53.5 171.04 54.22 168.57 54.09 168.33 53.45 167.21 54.73 167.83 54.85 168.21 55.55 170.3"/><polygon class="cls-30" points="45.79 172.36 45.05 173.9 35.45 173.9 34.27 172.36 34.86 170.34 35.23 169.76 35.05 172.02 36.4 173.28 36.89 173.23 43.48 172.46 43.63 172.12 44.01 171.23 43.02 168.87 44.01 169.59 44.24 169.94 44.01 169.97 44.24 169.94 45.64 172.12 45.79 172.36"/><path class="cls-11" d="M87.11,17.31a18.52,18.52,0,0,1,8.7,2.43A53.78,53.78,0,0,1,102,12.48c1.68-1.7,4.49-.26,2.43,1.8a39.06,39.06,0,0,0-5.86,7.08c2.45,1.49,4.83,3.13,7.3,4.38,1.73.88-1.71,3.63-3.32,2.81-2-1-3.9-2.3-5.87-3.57-.81,1.76-1.54,3.55-2.3,5.33s-4.82,2.31-3.74-.16,1.91-4.72,3.08-7a16.56,16.56,0,0,0-8.36-2.56C82.76,20.63,85.36,17.32,87.11,17.31Z"/><path class="cls-31" d="M46.92,50.08a4.11,4.11,0,1,1-5.51-1.82A4.11,4.11,0,0,1,46.92,50.08Z"/><path class="cls-32" d="M92.57,79.85c-10.74,5.41-17.28-4.5-21.26-12.42l3.88-2C81.63,78.28,86.41,78.09,90.61,76c4.64-2.33,4.5-6.63,3.73-13.43-.71-6.21-1.5-13.25,5.48-16.76l2.1,4.17c-4.39,2.15-4,5.75-3.26,12.1S100.24,76,92.57,79.85Z"/><path class="cls-31" d="M40.65,38.69a4.11,4.11,0,1,1-5.51-1.82A4.1,4.1,0,0,1,40.65,38.69Z"/><path class="cls-31" d="M76,35.43a4.11,4.11,0,1,0,1.83-5.51A4.11,4.11,0,0,0,76,35.43Z"/><path class="cls-31" d="M70.62,23.61a4.11,4.11,0,1,0,1.83-5.51A4.12,4.12,0,0,0,70.62,23.61Z"/><rect class="cls-33" x="68.74" y="62.69" width="8.61" height="6.64" transform="translate(-21.88 39.89) rotate(-26.72)"/><path class="cls-11" d="M78.19,26.28c8.1,16.1,5.69,33.67-5.39,39.24s-26.62-3-34.72-19c-4-7.89-4.74-14.8-3.19-20.44,1.61-5.88,5.74-10.39,11.38-13.24S58,9.33,63.68,11.54C69.14,13.66,74.23,18.4,78.19,26.28Z"/><path class="cls-16" d="M72.11,21.55C79,35.27,77,50.26,67.51,55S44.81,52.49,37.9,38.76a27.32,27.32,0,0,1-3.33-13.38C36.18,19.5,40.3,15,46,12.15s11.73-3.47,17.41-1.26A27.39,27.39,0,0,1,72.11,21.55Z"/><path class="cls-34" d="M72.46,19.9c7.85,15.6,6.13,32.32-3.83,37.33S44.22,53.66,36.37,38.05a43.37,43.37,0,0,1-2.17-5,22,22,0,0,1,.41-5.63A28.88,28.88,0,0,0,37.92,38.8c6.91,13.72,20.17,21,29.61,16.25S79,35.31,72.13,21.59a28.91,28.91,0,0,0-7.19-9.48,22.4,22.4,0,0,1,4.76,3A44.91,44.91,0,0,1,72.46,19.9Z"/><path class="cls-2" d="M36.34,29.13c-.06-.52-.11-1-.14-1.54s0-1.11,0-1.65c1.47-5.22,5.13-9.42,10.59-12.17s11-3.17,16.08-1.25a15.89,15.89,0,0,1,1.3,1c.39.33.78.67,1.16,1a40,40,0,0,0-29,14.59Z"/><rect class="cls-35" x="44.02" y="24.46" width="26" height="19.38" transform="translate(-9.27 29.26) rotate(-26.7)"/><rect class="cls-36" x="44.1" y="33.21" width="1.32" height="1.72" transform="translate(-10.53 23.72) rotate(-26.67)"/><rect class="cls-36" x="45.5" y="31.7" width="1.33" height="2.48" transform="translate(-9.88 24.25) rotate(-26.69)"/><rect class="cls-36" x="46.89" y="30.1" width="1.33" height="3.33" transform="translate(-9.2 24.73) rotate(-26.67)"/><path class="cls-36" d="M58.9,24.23l.36.71-.69.35.76,1.5.69-.35.35.7,4.86-2.44-1.47-2.91Zm5.65.25-4,2-1-2,4-2Z"/><rect class="cls-36" x="60.32" y="24.25" width="1.07" height="1.67" transform="translate(-4.78 30.04) rotate(-26.72)"/><rect class="cls-36" x="61.53" y="23.63" width="1.08" height="1.68" transform="translate(-4.37 30.59) rotate(-26.78)"/><rect class="cls-36" x="62.75" y="23.02" width="1.07" height="1.68" transform="translate(-3.95 31.16) rotate(-26.85)"/><path class="cls-36" d="M57.21,41.55l-2.06-4.1-.69.35-.28-.56a1.34,1.34,0,0,0,.44-.5,1.23,1.23,0,0,0,.15-.64l.56-.28L58,41.15Z"/><path class="cls-36" d="M56.76,37a1.74,1.74,0,0,1-.17-1.36,1.34,1.34,0,0,1,.75-.82,1.3,1.3,0,0,1,1.09-.06,1.46,1.46,0,0,1,.84.74,2.59,2.59,0,0,1,.28,1.17,7.38,7.38,0,0,1-.13,1.27c0,.17-.06.43-.09.78l0,.29c0,.19,0,.34,0,.44a.31.31,0,0,0,0,.09l1.58-.79.39.79-2.55,1.28-.37-.73a2.11,2.11,0,0,1,0-.38c0-.11,0-.23,0-.37l.06-.4c0-.23.1-.6.17-1.1a6,6,0,0,0,.08-1.21,1.91,1.91,0,0,0-.17-.72.7.7,0,0,0-.34-.34.54.54,0,0,0-.48,0,.57.57,0,0,0-.28.63,1,1,0,0,0,.11.33l.1.2-.79.4Z"/><path class="cls-36" d="M61.44,38.42l.8-.4.41.8-.81.41Z"/><path class="cls-36" d="M61.8,33.57l.58,1.15a.88.88,0,0,1,.2-.44.7.7,0,0,1,.25-.18,1,1,0,0,1,1,0,1.74,1.74,0,0,1,.67.79L65,36a1.42,1.42,0,0,1,.11,1.15,1.31,1.31,0,0,1-.71.82,1.26,1.26,0,0,1-1.07.06,1.43,1.43,0,0,1-.79-.72l-.06-.13.74-.45.11.18a.51.51,0,0,0,.47.29.29.29,0,0,0,.16,0,.5.5,0,0,0,.24-.76l-.66-1.3a.54.54,0,0,0-.36-.3.38.38,0,0,0-.27,0,.38.38,0,0,0-.23.32.6.6,0,0,0,.07.35l.07.15-.8.4-1.47-2.91L62.94,32l.41.8Z"/><path class="cls-36" d="M66.07,36l.43.86-.4.2-1.36-2.7.4-.21.49,1V33.92l.44-.22v1.39l1.47,1.27-.49.24-1-.88Z"/><path class="cls-36" d="M68.27,36l-.4.2-1.37-2.7.59-.3L68.45,35l-.61-2.13.56-.28,1.36,2.7-.41.2-.86-1.69L69,35.62l-.33.17-1.25-1.5Z"/><polygon class="cls-36" points="52.69 39.17 51.73 39.66 53.5 43.18 51.56 44.16 49.79 40.63 48.82 41.12 49.69 38.02 52.69 39.17"/><path class="cls-31" d="M67.05,46.43a3.44,3.44,0,1,1-4.62-1.53A3.45,3.45,0,0,1,67.05,46.43Z"/><path class="cls-31" d="M70.68,42.57a1.81,1.81,0,1,1-2.43-.8A1.81,1.81,0,0,1,70.68,42.57Z"/><path class="cls-31" d="M58.88,48.51a1.81,1.81,0,1,1-2.44-.8A1.82,1.82,0,0,1,58.88,48.51Z"/><path class="cls-37" d="M48,26a1.73,1.73,0,0,1-1.39.1,1.71,1.71,0,0,1-1-.9L43.7,21.45a1.73,1.73,0,0,1-.11-1.39A1.76,1.76,0,0,1,44.51,19a1.73,1.73,0,0,1,1.39-.1,1.78,1.78,0,0,1,1.05.91l.39.78-1.06.54-.41-.8a.59.59,0,0,0-.38-.33A.65.65,0,0,0,45,20a.62.62,0,0,0-.32.39.59.59,0,0,0,0,.5l1.87,3.73A.65.65,0,0,0,47,25a.67.67,0,0,0,.5,0,.59.59,0,0,0,.33-.38.62.62,0,0,0,0-.5l-.67-1.34-.57.29L46,22l1.63-.82,1.2,2.38A1.82,1.82,0,0,1,48,26Z"/><path class="cls-37" d="M48.68,17a1.73,1.73,0,0,1,1.43-.13,1.81,1.81,0,0,1,1,.94l.5,1a1.77,1.77,0,0,1,.11,1.39,1.68,1.68,0,0,1-.9,1l-.59.3,1.29,2.56-1,.52-3.42-6.81Zm1.44,1.33a.65.65,0,0,0-.38-.35.66.66,0,0,0-.51.05l-.62.31,1.1,2.18.62-.31a.65.65,0,0,0,.33-.38.69.69,0,0,0,0-.51Z"/><path class="cls-37" d="M57,19.24a2.07,2.07,0,0,1,.24,1.4,1.53,1.53,0,0,1-.46.84,2.45,2.45,0,0,1-.53.36,1.72,1.72,0,0,1-2-.2,2.87,2.87,0,0,1-.71-.85l.94-.56a1.65,1.65,0,0,0,.75.71.59.59,0,0,0,.52,0,.72.72,0,0,0,.37-.6,1,1,0,0,0-.13-.5,1.4,1.4,0,0,0-.81-.65l-1.34-.41a4.34,4.34,0,0,1-1.17-.52,2.31,2.31,0,0,1-.71-.84,1.85,1.85,0,0,1-.08-1.72,1.69,1.69,0,0,1,.81-.77,1.9,1.9,0,0,1,1.06-.23,1.57,1.57,0,0,1,.76.28,2.15,2.15,0,0,1,.62.68l-.89.67a1.35,1.35,0,0,0-.57-.53.57.57,0,0,0-.49,0,.53.53,0,0,0-.31.46,1.11,1.11,0,0,0,.14.56,1.67,1.67,0,0,0,.88.75,4.52,4.52,0,0,0,.67.21,6.06,6.06,0,0,1,.69.18,3.57,3.57,0,0,1,1,.45,3,3,0,0,1,.32.24A2.2,2.2,0,0,1,57,19.24Z"/><path class="cls-32" d="M118.32,55.11a14.37,14.37,0,1,1,7.18-8.33A14.28,14.28,0,0,1,118.32,55.11ZM106.38,31.38a12.07,12.07,0,0,0-6.09,7.07,12.17,12.17,0,1,0,6.09-7.07Z"/><polygon class="cls-34" points="64.28 19.66 65.57 22.23 44.9 32.63 52.31 47.37 49.76 48.65 41.06 31.34 64.28 19.66"/></g></g></g></svg>