<svg xmlns="http://www.w3.org/2000/svg" viewBox="0 0 337.19 234.49"><defs><style>.cls-1{fill:#af9e7d;}.cls-2{fill:#6c2910;}.cls-3{fill:#fff;}.cls-4{fill:#12242d;}.cls-5{fill:#f18c68;}.cls-6{fill:#3f5578;}.cls-7{fill:#fdce75;}.cls-8{fill:#8b2012;}.cls-9{fill:#f1ebe7;}.cls-10{fill:#c76754;}.cls-11{fill:#033134;}.cls-12{fill:#d6483e;}.cls-13{fill:#c88a5e;}.cls-14{fill:#c75f46;}.cls-15{fill:#bdab9f;}.cls-16{fill:#736764;}.cls-17{fill:#d26d19;}.cls-18{fill:#b55017;}.cls-19{fill:#f49931;}.cls-20{fill:#504745;}.cls-21{fill:#95877e;}.cls-22{fill:#b24736;}.cls-23{fill:#8a2416;}.cls-24{fill:#ceb1a0;}.cls-25{fill:#e4d8d0;}</style></defs><g id="Capa_2" data-name="Capa 2"><g id="Capa_1-2" data-name="Capa 1"><ellipse class="cls-1" cx="169.23" cy="228.43" rx="167.96" ry="6.06"/><path class="cls-1" d="M56.22,224.73s-7.71-4.7-5.45-7.1S59,223.35,59,223.35s-.94-10.16,3.19-10.16-.4,11.54-.4,11.54Z"/><path class="cls-2" d="M234.73,224.73s-7.71-4.7-5.44-7.1,8.23,5.72,8.23,5.72-.94-10.16,3.2-10.16-.41,11.54-.41,11.54Z"/><path class="cls-1" d="M329,227.6s7.71-4.7,5.44-7.1-8.23,5.72-8.23,5.72.93-10.16-3.2-10.16.41,11.54.41,11.54Z"/><path class="cls-1" d="M291.29,206.24a54.5,54.5,0,0,0,1.37-7.47,4.11,4.11,0,0,0-.42.21c-4,2.28-9.94.49-9.6-2.42s5.46-2.18,7.67-2.49a6.58,6.58,0,0,0,2.64-.95,42.62,42.62,0,0,0-1.17-9.81c-2.82,1.31-4.78,5-7.15,4.91-3.15-.15-3.06-3.63,1.16-5.4a6,6,0,0,0,4-5.64,35,35,0,0,0-1.71-3.46,8.38,8.38,0,0,0-9.47-3.68c-.71.23-1.45.52-2.23.85a3.17,3.17,0,0,0-1.5,1.35,6.18,6.18,0,0,0-.39,5c1.37,4.37-1.24,6.68-3.38,4.36-1.45-1.56-.32-4.86-.67-7.7-2.52,1.46-5.28,3.23-8.29,5.26A6.84,6.84,0,0,0,263,181c1.18,1.89,5,5.34,3,7.47s-7.18-1.23-8-5.79a3.53,3.53,0,0,0-.13-.54,34.94,34.94,0,0,0-5.36,5.23,5,5,0,0,0,2.78,4.46c3.35,1.72,5.09,4.37,1.82,4.84s-4.8-5.06-7.39-5.55a43.92,43.92,0,0,0-3.61,6.56,5.49,5.49,0,0,0,2.71,3.76c3.61,2.12,7.21,4.91,5.62,7.15s-4.58.3-10.44-2.75l-.29-.16a20.42,20.42,0,0,0,.34,8.48c1.83,5,5.45,4.54,10.29,6.47a5.3,5.3,0,0,1,2.56,1.89,4.76,4.76,0,0,1,.13,2.65h.6l1.08-1.8.93-1.54c3.95-6.55,21.78-46.06,21.78-46.06-2.62,8.8-16.59,42.61-19,45.8-.84,1.14-1.66,2.42-2.37,3.6H282.9l.5-.67c-6-2.48-9.37-3.51-8.68-6.15s5.14-1.71,9.08-.31a5.56,5.56,0,0,0,3.18.21l.33-.7a72,72,0,0,0,2.8-7.26c-2.25-1.17-7,.71-8.61-1.83-1.75-2.8,1.39-3.18,4.86-1.72A5,5,0,0,0,291.29,206.24Zm-13.61,4.15a1.47,1.47,0,0,1-.07,1.61c-1.54,2-5.84-3.13-3.53-3.72C275.92,207.8,277.14,209.43,277.68,210.39Zm-.65-8a3.88,3.88,0,0,1,2.87-1.36,1.06,1.06,0,0,1,.56,0C283.28,202.43,276.22,203.71,277,202.43Zm-20.13-1c1-1.54,4.35,2.54,4.35,2.54C262.58,208.08,255.91,203,256.9,201.45ZM267,196.21c-.51,1.07-2,.08-3.07-.65-1.22-.86-1.11-3.05.49-2.95,1.2.07,2.13,1.6,2.53,2.38A1.38,1.38,0,0,1,267,196.21Z"/><path class="cls-2" d="M260,225.21h-2.45l1.08-1.8.93-1.54c3.95-6.55,21.78-46.06,21.78-46.06-2.62,8.8-16.59,42.61-19,45.8C261.55,222.75,260.73,224,260,225.21Z"/><path class="cls-2" d="M275.09,191.8a21.32,21.32,0,0,1,8.76-1.52,21.22,21.22,0,0,0-9.82,4.23Z"/><path class="cls-2" d="M274.75,191.46a21.49,21.49,0,0,0-4.05-7.91,21.29,21.29,0,0,1,2.51,10.38Z"/><path class="cls-2" d="M269.08,203.8a21.33,21.33,0,0,0-6.51-6.06,21.23,21.23,0,0,1,5.91,8.91Z"/><path class="cls-2" d="M263.56,214.37a21.32,21.32,0,0,0-5.53-7,21.19,21.19,0,0,1,4.51,9.69Z"/><path class="cls-2" d="M269.81,204.57a21.45,21.45,0,0,1,8.79,1.33,21.3,21.3,0,0,0-10.65.9Z"/><path class="cls-2" d="M265,215.46a21.36,21.36,0,0,1,8.89,0A21.21,21.21,0,0,0,263.45,218Z"/><path class="cls-1" d="M317.53,215.72c-1.88,2.27-1,2-.69,7a9.64,9.64,0,0,1-.55,3.81H302.37a2.72,2.72,0,0,1,1-2.49c3.6-3.55,4.53-5.11,3.36-8.57s-3-6,.82-7.73,1.82-6.36,1.07-9.14,2.08-2.65,4.55-5.36-1.09-4.39,1.16-8.36,9-5.87,9.17-13.3c0,0,2.94,5.25,1.73,10.29s-4.46,7.39-2.85,10.67,1.51,7-1.19,9.19-2.38,4.45-1.54,7.87S319.4,213.45,317.53,215.72Z"/><path class="cls-2" d="M308.59,226.54l10.75-39.76a.36.36,0,0,1,.44-.25h0a.35.35,0,0,1,.24.43l-10.69,39.58Z"/><path class="cls-1" d="M6.59,208.11c3.47-1.46,6.61-1.08,4.87,1.72-1.59,2.54-6.36.66-8.62,1.83a72,72,0,0,0,2.81,7.25c.1.24.21.48.32.71a5.64,5.64,0,0,0,3.18-.21c3.95-1.4,8.39-2.36,9.09.3s-2.67,3.68-8.68,6.16c.16.23.33.45.49.67H32.93a40.56,40.56,0,0,0-2.37-3.6c-2.38-3.19-16.34-37-19-45.8,0,0,17.83,39.5,21.78,46.06l.93,1.53,1.08,1.81H36a4.81,4.81,0,0,1,.14-2.65A5.22,5.22,0,0,1,38.67,222c4.84-1.93,8.46-1.51,10.29-6.47a20.26,20.26,0,0,0,.34-8.48l-.28.15c-5.87,3.05-8.85,5-10.45,2.76s2-5,5.62-7.15a5.49,5.49,0,0,0,2.71-3.76,42.52,42.52,0,0,0-3.6-6.56c-2.6.48-4.25,6-7.39,5.55s-1.54-3.12,1.81-4.84a5,5,0,0,0,2.78-4.46,33.63,33.63,0,0,0-5.36-5.23,4.27,4.27,0,0,0-.13.54c-.86,4.56-6,7.93-8,5.79s1.85-5.58,3-7.47a6.79,6.79,0,0,0,.82-1.86c-3-2-5.77-3.8-8.29-5.26-.35,2.84.78,6.13-.67,7.7-2.14,2.32-4.75,0-3.38-4.36a6.14,6.14,0,0,0-.39-5,3.13,3.13,0,0,0-1.5-1.35c-.78-.33-1.52-.62-2.23-.85A8.4,8.4,0,0,0,4.9,175a35.2,35.2,0,0,0-1.71,3.47,6,6,0,0,0,4,5.64c4.22,1.76,4.31,5.25,1.16,5.4C6,189.66,4,186,1.17,184.64A42.55,42.55,0,0,0,0,194.45a6.48,6.48,0,0,0,2.64.94c2.22.31,7.33-.42,7.67,2.49s-5.56,4.71-9.6,2.42l-.41-.2a55.55,55.55,0,0,0,1.36,7.46A4.94,4.94,0,0,0,6.59,208.11Zm12.29,1.49c2.31.6-2,5.76-3.53,3.73a1.45,1.45,0,0,1-.08-1.61C15.82,210.76,17,209.13,18.88,209.6Zm-6.39-7.16a1.06,1.06,0,0,1,.56,0,3.86,3.86,0,0,1,2.88,1.36C16.74,205,9.67,203.76,12.49,202.44Zm19.21,2.87s3.36-4.07,4.35-2.53S30.37,209.4,31.7,205.31Zm-5.69-9c.4-.78,1.33-2.3,2.53-2.38,1.61-.09,1.72,2.1.5,3-1,.72-2.57,1.71-3.08.64A1.38,1.38,0,0,1,26,196.31Z"/><path class="cls-2" d="M32.93,226.54h2.45l-1.08-1.81-.93-1.53c-3.95-6.56-21.78-46.06-21.78-46.06,2.63,8.8,16.59,42.61,19,45.8A40.56,40.56,0,0,1,32.93,226.54Z"/><path class="cls-2" d="M17.87,193.13a21.45,21.45,0,0,0-8.76-1.53,21.29,21.29,0,0,1,9.81,4.24Z"/><path class="cls-2" d="M18.21,192.79a21.41,21.41,0,0,1,4.05-7.92,21.27,21.27,0,0,0-2.52,10.39Z"/><path class="cls-2" d="M23.87,205.13a21.33,21.33,0,0,1,6.51-6.06,21.23,21.23,0,0,0-5.91,8.9Z"/><path class="cls-2" d="M29.39,215.7a21.33,21.33,0,0,1,5.53-7,21.3,21.3,0,0,0-4.51,9.68Z"/><path class="cls-2" d="M23.15,205.9a21.4,21.4,0,0,0-8.79,1.33,21.3,21.3,0,0,1,10.65.9Z"/><path class="cls-2" d="M28,216.79a21.37,21.37,0,0,0-8.89,0,21.27,21.27,0,0,1,10.4,2.48Z"/><path class="cls-3" d="M29.76,71.16C29.76,41.47,53.57,8.92,83.21,7c.52,0,1-.07,1.58-.09,42.48-2.06,45.71,51.75,84.15,57.82s67.79-24.57,113.78-4.58C324,78.06,335.22,179,213.85,183,116.75,186.23,29.75,159.77,29.76,71.16Z"/><path class="cls-3" d="M141.91,40.39a5.07,5.07,0,1,0,6.15-1.85A5.07,5.07,0,0,0,141.91,40.39Z"/><path class="cls-3" d="M152.85,48a3.11,3.11,0,0,0-.65,5.13,3.07,3.07,0,0,0,3.42.44A3.11,3.11,0,1,0,152.85,48Z"/><path class="cls-3" d="M34,37a.51.51,0,0,0,.47-.31A73.13,73.13,0,0,1,46.59,18.82C54.08,10.7,66.74,1,84.56,1s30.52,8.55,38,15.73a64,64,0,0,1,12.12,15.73.5.5,0,0,0,.67.23.51.51,0,0,0,.23-.68,64.9,64.9,0,0,0-12.32-16c-7.63-7.3-20.54-16-38.71-16S53.45,9.88,45.82,18.16A74.08,74.08,0,0,0,33.51,36.3a.52.52,0,0,0,.26.67A.79.79,0,0,0,34,37Z"/><path class="cls-3" d="M294.55,161.15a.56.56,0,0,0,.32-.11c18.64-14.86,22.68-34.92,22.78-49.12a86.94,86.94,0,0,0-4.28-27.51.5.5,0,0,0-.65-.3.5.5,0,0,0-.3.64,85.8,85.8,0,0,1,4.22,27.19c-.11,14-4.08,33.7-22.4,48.31a.5.5,0,0,0-.08.71A.51.51,0,0,0,294.55,161.15Z"/><path class="cls-3" d="M318,37a19.85,19.85,0,0,0-4.87-4.27,14,14,0,0,0-3.71-1.65c-4-1-5.28,3.76-9,2.89s-5.52-5.68-9.63-5.09-3.17,5.6-6.81,5.26-2.81-3-7.16-1.44S271.55,39,271.55,39h48.11Z"/><path class="cls-4" d="M224.12,75.72q-1.23-.77-2.55-1.47c-1.65,3-3.49,6-5.3,8.89l.22.16c5.08,3.75,13.41,8.63,16.84,6.06S232,80.63,224.12,75.72Z"/><path class="cls-5" d="M212.39,67.14s8.1,6.48,10.22,7.69c-1.29,3.66-3.49,8.45-4.8,9.43,0,0-6.58-4.64-9.2-8.66S212.39,67.14,212.39,67.14Z"/><path class="cls-4" d="M231.21,89.84s3.67.71,6.54-7.52,8.17-15.67,5.49-19.65-4.1.7-8.39,7.32C230.75,76.32,221.12,87.57,231.21,89.84Z"/><path class="cls-4" d="M238.21,62.26a8.76,8.76,0,0,1-.41-3.87,31.14,31.14,0,0,1,1.13-4.15c.29-.56,1.76.15,1.21,2.82A21.41,21.41,0,0,1,238.21,62.26Z"/><path class="cls-4" d="M247.63,61.34s1.59-2.69,1.92-3.41c1.3-2.83-.31-2.49-1-1.4-.21.32-2.25,3.86-2.25,3.86Z"/><path class="cls-4" d="M246.25,59.8s1.73-2.94,2.1-3.73c1.42-3.09-.35-2.72-1.14-1.53-.23.35-2.46,4.22-2.46,4.22Z"/><path class="cls-4" d="M244.82,58.11s1.79-3.43,2.16-4.36c1.42-3.59-.41-2.94-1.24-1.53-.24.4-2.76,5.09-2.76,5.09Z"/><path class="cls-4" d="M242.19,58.14s1.79-3.44,2.16-4.36c1.42-3.59-.41-2.94-1.24-1.54-.24.41-2.76,5.09-2.76,5.09Z"/><path class="cls-6" d="M240.06,56.67l.09-.11a4.81,4.81,0,0,1,.51-.55,1.1,1.1,0,0,1,.14-.11.43.43,0,0,1,.25-.12,8,8,0,0,1,2.16.61l.15.06c.61.25,1.27.54,1.91.88l.12.06a11.32,11.32,0,0,1,1.81,1.18l.1.09a3.13,3.13,0,0,1,.93,1.21,2.07,2.07,0,0,1,.06.91s0,.09,0,.13h0a16,16,0,0,1-2.62,5.25,2,2,0,0,1-2.27.74c-2-.7-5.41-2.15-5.73-3.9a4,4,0,0,1,0-1.19l0-.11A12.9,12.9,0,0,1,240.06,56.67Z"/><path class="cls-4" d="M240.06,56.67l.09-.11a5.18,5.18,0,0,1-.26,3.63,2.43,2.43,0,0,1-2.23,1.62l0-.11a2.31,2.31,0,0,0,2.11-1.56A5.07,5.07,0,0,0,240.06,56.67Z"/><path class="cls-4" d="M240.66,56a1.1,1.1,0,0,1,.14-.11,1.24,1.24,0,0,0,.46,1.34,1,1,0,0,0,.75.14,2.47,2.47,0,0,0,1.2-1l.15.06c-.16.44-.48,1.53.13,1.87s1.4-.53,1.78-1l.12.06a2.28,2.28,0,0,0-.5,1.45.66.66,0,0,0,.34.46c.85.49,1.74-.46,2-.73l.1.09c-.16.33-.69,1.48-.2,2a1.07,1.07,0,0,0,1.19.14s0,.09,0,.13h0a1.14,1.14,0,0,1-1.25-.19c-.45-.45-.17-1.33,0-1.83-.4.38-1.15.94-1.9.52a.77.77,0,0,1-.4-.55A1.78,1.78,0,0,1,245,57.8c-.45.45-1.08.91-1.58.62s-.43-1.23-.27-1.77a2.25,2.25,0,0,1-1.12.84,1,1,0,0,1-.84-.15A1.29,1.29,0,0,1,240.66,56Z"/><path class="cls-6" d="M226.38,82.32a5.13,5.13,0,1,1,1.94,7A5.12,5.12,0,0,1,226.38,82.32Z"/><path class="cls-4" d="M228.35,83.43a2.86,2.86,0,1,1,1.08,3.9A2.87,2.87,0,0,1,228.35,83.43Z"/><path class="cls-6" d="M229.6,84.14a1.43,1.43,0,1,1,.54,2A1.44,1.44,0,0,1,229.6,84.14Z"/><polygon class="cls-5" points="197.7 212.57 197.38 220.09 189.73 220.23 190.28 213.16 197.7 212.57"/><path class="cls-7" d="M188,228.72v.17c0,.26,0,.5,0,.7,0,.45.06.73.06.73h14.85a8.3,8.3,0,0,0,0-1.43,7.4,7.4,0,0,0-2.65-5.5c-2.81-2.17-1.72-1.72-2.3-2.7-.06-.11-.57-1.8-.62-1.91-.48-1-.93-1.51-3.59-1.51-3.53,0-3.84,1.71-4.22,2.61A18.07,18.07,0,0,0,189,222c-.09.37-.18.77-.27,1.18-.21,1-.42,2.09-.56,2.94A16.4,16.4,0,0,0,188,228.72Z"/><path class="cls-8" d="M188,228.72v.17c0,.26,0,.5,0,.7a4.08,4.08,0,0,0,1.54-2c.92-2.5-.49-5.5-.55-5.63l0,0c-.09.37-.18.77-.27,1.18a6.74,6.74,0,0,1,.19,4.19A3.54,3.54,0,0,1,188,228.72Z"/><path class="cls-8" d="M188,228.89c0,.84.09,1.43.09,1.43h14.85a8.3,8.3,0,0,0,0-1.43Z"/><path class="cls-9" d="M193.3,221.89h.11a7.39,7.39,0,0,1,3.44-.07.42.42,0,0,0,.52-.3.43.43,0,0,0-.29-.52,8.28,8.28,0,0,0-3.89.07.43.43,0,0,0-.3.52A.42.42,0,0,0,193.3,221.89Z"/><path class="cls-9" d="M193.06,220.18h.1a7.28,7.28,0,0,1,3.45-.07.42.42,0,0,0,.22-.82,8.22,8.22,0,0,0-3.88.07.42.42,0,0,0,.11.83Z"/><path class="cls-9" d="M193.94,223.24l.1,0a7.61,7.61,0,0,1,3.45-.07.43.43,0,0,0,.52-.29.42.42,0,0,0-.3-.52,8.15,8.15,0,0,0-3.88.06.42.42,0,0,0-.3.52A.43.43,0,0,0,193.94,223.24Z"/><path class="cls-9" d="M194.68,224.76h.11a7.24,7.24,0,0,1,3.44-.07.42.42,0,0,0,.52-.3.43.43,0,0,0-.29-.52,8.1,8.1,0,0,0-3.88.07.42.42,0,0,0-.31.51A.43.43,0,0,0,194.68,224.76Z"/><path class="cls-10" d="M205.18,164.31c-.48,9.19-7,50-7,50l-8.79-.63s-.64-15.16-1.1-27.88,1.22-20,1.22-20,.95-2.87.22-10.32c-.6-6.16-2.71-25.8-3.58-32.35l-.27-2.1s13.77-3.87,17.25.47a3.44,3.44,0,0,1,.61,1.17,36.74,36.74,0,0,1,1,5.07C206.09,137.82,205.58,156.78,205.18,164.31Z"/><path class="cls-11" d="M200,163.18a6.92,6.92,0,0,0,5-.2.39.39,0,0,0,.18-.53.4.4,0,0,0-.52-.18,6.22,6.22,0,0,1-4.58.11.39.39,0,1,0-.28.73Z"/><path class="cls-11" d="M189.27,210.94c0,.18,0,.36,0,.52h1.31l8.11-.07c0-.16.06-.34.09-.52l-8.15.07h-1.38Z"/><path class="cls-11" d="M190.09,210.94c0,.21,0,.33,0,.35a.28.28,0,0,0,0,.16h.47a.27.27,0,0,0,.05-.15v-.37c0-3,.25-23.56.14-30.08-.1-6,1.4-17.73,1.41-17.85v-.06c-1-11.23-3.83-40-3.86-40.27a.27.27,0,0,0-.31-.25.28.28,0,0,0-.26.31c0,.28,2.85,29,3.86,40.23-.08.67-1.51,12-1.41,17.9C190.33,187.38,190.12,208,190.09,210.94Z"/><path class="cls-12" d="M199.31,37.81s.64-6-5.47-5.11-7.1,9.06-.79,10.62S199.31,37.81,199.31,37.81Z"/><path class="cls-12" d="M199.83,37s-5.79-1.81-8.62,2.46c-2.39,3.62-1.22,6.14-2.31,8.14s-3.42,2-3,5.32-3.12,2.3-3.38,5.67,1.57,4-.91,5.24S176.4,70,178.64,72.6c3.21,3.75,13.94-2.73,20,1.24s13.34,2.61,13.14-.59-4.18-5.11-2.48-7.42,3-5.49,1.46-8.47-.77-2.61-.23-5.76a28.49,28.49,0,0,0-.29-6.82c-.27-2.7-.33-3.79-2.79-5.87C203.55,35.58,199.83,37,199.83,37Z"/><path class="cls-9" d="M190.08,41.93l-.09,0a.27.27,0,0,1-.14-.34c0-.07,2.88-6.48,9.58-5a.26.26,0,0,1,.19.31.25.25,0,0,1-.31.19c-6.27-1.41-8.87,4.41-9,4.66A.27.27,0,0,1,190.08,41.93Z"/><path class="cls-13" d="M185.35,101.86s0,1.81,2.46,2l25-2.87a2.83,2.83,0,0,0,.94-3.13S202.35,93.49,185.35,101.86Z"/><path class="cls-5" d="M214.29,109.9a58.52,58.52,0,0,1-27.18,1.51,40.47,40.47,0,0,0,.69-6.16c.09-2.31,0-4.33,0-5.39,5.45-1.11,18.81-3.68,24.26-3.22l.36,2.11Z"/><path class="cls-14" d="M202.82,102.8c0,.68-.22,1.23-.5,1.23s-.51-.55-.51-1.23.22-1.23.5-1.23S202.82,102.12,202.82,102.8Z"/><path class="cls-14" d="M212.41,98.75c-5.54.48-16.37,2-24.61,6.5.09-2.31,0-4.33,0-5.39,5.45-1.11,18.81-3.68,24.26-3.22Z"/><path class="cls-2" d="M216.9,88.11a12.77,12.77,0,0,1-2.68,4.24l-.32.34c-.16.17-.31.31-.42.42l-.25.24v0c0,.09,0,.2,0,.3,0,.42.07.9.13,1.46s.11.93.18,1.46c.05.38.1.79.16,1.21a16.61,16.61,0,0,0-2.29-.44l-.41,0a30.63,30.63,0,0,0-5.08,0l-.41,0c-7.42.61-16,3.15-20.18,4.51,0-.31,0-.62.05-.92s0-.45,0-.66a49.32,49.32,0,0,0-.17-6.36c0-.16,0-.32,0-.5a70.13,70.13,0,0,0-2.3-10.62l-.24-.82-.17-.53c-.4-1.32-.85-2.63-1.32-3.9-.16-.44-.3-.88-.44-1.31s-.28-1-.39-1.46a15.78,15.78,0,0,1-.43-3.6A7.23,7.23,0,0,1,181.8,66a6.52,6.52,0,0,1,3-1.66L186,64c1.24-.32,2.38-.59,3.32-.79l.85-.18,1.37-.28.17,0,11.7,1.59,1.11.15,1.34.24c1,.19,1.93.39,2.7.6a12,12,0,0,1,2.35.86c2.72,1.38,2.63,3.41,3.15,7.32a1.23,1.23,0,0,1,0,.2.13.13,0,0,1,0,.06c0,.3.09.59.14.89s.13.72.21,1.09c.15.73.33,1.45.51,2.15.75,2.84,1.67,5.45,2,7.51,0,.25.07.48.1.71A5.1,5.1,0,0,1,216.9,88.11Z"/><path class="cls-13" d="M210.47,95.4a3.61,3.61,0,0,0-2.93-.66c-2,.24-2,1.45-2,2.43v.18l.41,0v-.15c0-1,0-1.82,1.64-2a3.29,3.29,0,0,1,2.61.56,2.5,2.5,0,0,1,.82,1.63l.41,0a0,0,0,0,0,0,0A2.94,2.94,0,0,0,210.47,95.4Z"/><path class="cls-13" d="M192.48,84.43a2,2,0,0,1-.58-.11,2.41,2.41,0,0,1-1.8-2,4,4,0,0,1,2.24-3.54c1.28-.74.87-1.53.39-2.44-.35-.68-.71-1.38-.21-2a2.46,2.46,0,0,1,2.87-.45,4.6,4.6,0,0,1,3.3,3.92,1.78,1.78,0,0,1-1.19,1.8c-.77.27-1.41,1.28-2,2.24C194.65,83.15,193.79,84.5,192.48,84.43ZM194.24,74a1.65,1.65,0,0,0-1.4.58c-.3.37-.1.82.26,1.52.48.92,1.07,2.06-.55,3a3.58,3.58,0,0,0-2,3.14A2,2,0,0,0,192,83.92c1.35.46,2.2-.88,3.1-2.3.65-1,1.32-2.09,2.23-2.41a1.4,1.4,0,0,0,.92-1.41,4.27,4.27,0,0,0-3-3.53h0A3,3,0,0,0,194.24,74Z"/><path class="cls-13" d="M211.64,79.77a1.91,1.91,0,0,1-1.4-.56c-.42-.49-.44-1.27-.06-2.33.56-1.53-.11-1.89-1-2.4a3.36,3.36,0,0,1-1.45-1.21c-.95-1.64,2.1-3.91,2.23-4a.2.2,0,0,1,.21,0l2.65,1.28a.28.28,0,0,1,.11.13c.08.27,2.08,6.72,1.05,8.48a.91.91,0,0,1-.62.47A7.22,7.22,0,0,1,211.64,79.77Zm-1.57-10.1c-.86.66-2.63,2.34-2,3.4a3.18,3.18,0,0,0,1.29,1.05c.9.48,1.92,1,1.23,2.9-.33.91-.33,1.55,0,1.92s1.32.54,2.68.25a.52.52,0,0,0,.35-.27c.77-1.31-.48-6.18-1.07-8.06Z"/><path class="cls-13" d="M188.27,73c-1.53-.08-2.81-2.05-2.87-2.14a.25.25,0,0,1,0-.19l2.2-6.14a.22.22,0,0,1,.26-.13c.36.12,3.51,1.2,3.67,2.55.08.74-.47.93-.92,1.08s-.91.31-.76,1.12c.25,1.4.4,2.53-.1,3.23a1.56,1.56,0,0,1-1.1.6A1.45,1.45,0,0,1,188.27,73Zm-2.46-2.29c.27.4,1.5,2,2.76,1.86a1.13,1.13,0,0,0,.82-.44c.41-.56.26-1.6,0-2.91-.21-1.15.51-1.4,1-1.58s.68-.27.63-.64c-.09-.86-2.18-1.78-3.19-2.13Z"/><path class="cls-13" d="M195.92,90.27h0c-.14,0-3.47-.65-3.55-3.19A1.38,1.38,0,0,1,192.7,86c.55-.54,1.61-.49,2.72-.44a6,6,0,0,0,2.74-.25c1-.47,1-1.23,1.06-2a2,2,0,0,1,.68-1.72,1.25,1.25,0,0,1,1.1-.17c1,.34,1.7,2,1.72,2.07a.14.14,0,0,1,0,.11A7.63,7.63,0,0,1,199,89,10.4,10.4,0,0,1,196,90.26Zm4.74-8.53a.86.86,0,0,0-.53.16c-.43.28-.46.8-.49,1.39a2.41,2.41,0,0,1-1.29,2.39,6.29,6.29,0,0,1-2.95.29c-1,0-2-.1-2.41.32a1,1,0,0,0-.24.77c.07,2.07,2.81,2.71,3.18,2.79.51-.13,5.62-1.5,6.38-6.3-.11-.27-.68-1.53-1.44-1.77A.78.78,0,0,0,200.66,81.74Z"/><path class="cls-13" d="M217.05,86.07a2.62,2.62,0,0,0-1.6-1,3,3,0,0,0-2.23.79.2.2,0,0,1-.14.06c-.06,0-5.48.17-6,2.43a1.75,1.75,0,0,0,.21,1.49c.61.85,2.12,1,3.49,1.15a5.66,5.66,0,0,1,2.09.78,6.37,6.37,0,0,0,1.36.61l-.32.34a8.63,8.63,0,0,1-1.24-.58,5.19,5.19,0,0,0-1.93-.73c-1.45-.12-3.07-.33-3.79-1.32a2.18,2.18,0,0,1-.27-1.84c.57-2.43,5.6-2.71,6.32-2.74a3.28,3.28,0,0,1,2.53-.85,2.69,2.69,0,0,1,1.43.73C217,85.61,217,85.84,217.05,86.07Z"/><path class="cls-5" d="M214.23,74.6c-6-1.52-7.89-7.65-8.37-9.92,1,.19,1.93.39,2.7.6a12,12,0,0,1,2.35.86c2.72,1.38,2.63,3.41,3.15,7.32a1.23,1.23,0,0,1,0,.2.15.15,0,0,1,0,.07C214.14,74,214.18,74.31,214.23,74.6Z"/><path class="cls-6" d="M203.4,64.29c-.48,1.07-1.61,2.36-4.26,2.56-3.66.28-6.56-2.82-7.6-4.12l.17,0Z"/><path class="cls-9" d="M200.58,71.56h.33a2.83,2.83,0,0,0,2.28-1.22c1.46-2.16.1-6.39,0-6.57a.27.27,0,0,0-.34-.17.28.28,0,0,0-.18.34s1.34,4.15,0,6.09a2.28,2.28,0,0,1-1.87,1c-3.55.24-8.8-8.09-8.85-8.17a.28.28,0,0,0-.38-.09.28.28,0,0,0-.08.38C191.77,63.48,196.75,71.36,200.58,71.56Z"/><path class="cls-13" d="M196.11,94.08a.26.26,0,0,0,.23.15.21.21,0,0,0,.13,0,15.75,15.75,0,0,1,9.92-.94,16.87,16.87,0,0,0,6.86.43c0-.1,0-.21,0-.3v0l.25-.24a16.12,16.12,0,0,1-7-.38,15.91,15.91,0,0,0-10.29,1A.27.27,0,0,0,196.11,94.08Z"/><path class="cls-13" d="M202.66,74.1c3.43.18,4.38-3.49,4.39-3.52a.28.28,0,0,0-.2-.33.27.27,0,0,0-.33.2c0,.13-.85,3.26-3.83,3.11-3.13-.17-9.69-5.3-9.75-5.35a.27.27,0,0,0-.39,0,.27.27,0,0,0,0,.38C192.87,68.85,199.36,73.92,202.66,74.1Z"/><path class="cls-2" d="M201.32,94.85l-1.4.68-1.38.65c-.86.4-1.72.78-2.6,1.16l-.19.08-.2.08c-.87.37-1.76.73-2.65,1.07-.61.24-1.22.46-1.84.69l-.46.16-.64.22c-1,.34-2,.65-3.09.94-.48.12-1,.25-1.47.36l-.19,0c-.55.12-1.13.23-1.75.31h-.09l-.41,0a13.37,13.37,0,0,1-1.85.06l-.36,0-.38,0-.41,0-.46-.09-.24-.06-.27-.08-.27-.09-.07,0-.08,0-.08,0h0l-.08,0-.32-.14a7.08,7.08,0,0,1-1-.59l-.37-.3-.19-.15-.19-.18c-.13-.13-.25-.26-.37-.4l-.17-.21-.17-.23a7,7,0,0,1-.56-1,6,6,0,0,1-.5-2c0-.14,0-.29,0-.43V95l0-.51,0-.5c0-.17,0-.36,0-.48l0-.31.06-.53h0c.06-.57.14-1.07.21-1.6l.11-.77.13-.76c0-.31.09-.62.14-.92,0-.14.05-.28.07-.41l.3-1.68c.37-2,.75-3.94,1.17-5.89l.27-1.25c0-.14.05-.27.08-.41.18-.79.35-1.58.53-2.37.14-.6.27-1.19.41-1.79.46-1.94.92-3.86,1.43-5.79a5,5,0,0,1,9.31-1.06h0a5,5,0,0,1,.49,3.32v0c-.76,3.81-1.6,7.65-2.41,11.46l-.6,2.86c-.21,1-.4,1.89-.59,2.84L185.23,91c.66-.14,1.33-.31,2-.48.89-.23,1.79-.48,2.7-.74s1.81-.53,2.72-.82l2.73-.86,2.7-.88.12,0a4.13,4.13,0,0,1,3.11,7.63Z"/><path class="cls-13" d="M181.43,82a4.09,4.09,0,0,1-2.11,1.82c-1.14.57-2.11,1.06-2,3,.1,1.56-.74,1.85-1.25,1.89h-.24a3,3,0,0,1-.56-.09c0-.14.05-.28.07-.41a2.25,2.25,0,0,0,.71.08c.23,0,.94-.07.85-1.44-.15-2.18,1.05-2.79,2.21-3.38a3.64,3.64,0,0,0,1.92-1.62.85.85,0,0,0,0-.83c-.5-.89-2.61-1.41-4-1.63,0-.14.05-.27.08-.41,1.25.21,3.61.73,4.23,1.84A1.24,1.24,0,0,1,181.43,82Z"/><path class="cls-13" d="M185.26,73.18a3,3,0,0,0-2.56-1,1.65,1.65,0,0,0-1,.79,2,2,0,0,0-1.73,2.19,3.72,3.72,0,0,0,1.59,2.28c.79.71,1.54,1.38,1.3,2.18a2.2,2.2,0,0,0,.64,2.35,1.89,1.89,0,0,0,1.13.46,1.57,1.57,0,0,0,.8-.15c.68-.33,1.16-1.89,1.34-3.29C186.86,78,187.12,74.74,185.26,73.18ZM186.32,79c-.21,1.62-.73,2.78-1.11,3a1.37,1.37,0,0,1-1.48-.24,1.79,1.79,0,0,1-.5-1.92c.3-1.06-.58-1.85-1.44-2.61-.69-.61-1.4-1.25-1.45-2a1.66,1.66,0,0,1,1.49-1.78.22.22,0,0,0,.16-.12,1.22,1.22,0,0,1,.81-.66,2.81,2.81,0,0,1,2.2.9C186.34,74.63,186.56,77.06,186.32,79Z"/><path class="cls-13" d="M179.62,98.67a4.83,4.83,0,0,1-1.13,2.23h0l-.08,0-.32-.14a4.29,4.29,0,0,0,1.11-2.12,1.21,1.21,0,0,0-.71-1.45c-1.3-.55-1.13-1.25-1-1.93a1.79,1.79,0,0,0-.55-2,1.61,1.61,0,0,0-1.3-.49,2.28,2.28,0,0,0-1,.46l.06-.53h0a2.49,2.49,0,0,1,.91-.33,2,2,0,0,1,1.65.6,2.17,2.17,0,0,1,.66,2.44c-.15.64-.24,1,.74,1.45A1.62,1.62,0,0,1,179.62,98.67Z"/><path class="cls-13" d="M198.91,90.94a.21.21,0,0,1-.22.2c-1.38,0-5.05.08-5.49,1.14,0,.11-.09.24,0,.32s.65.19,1.09.2c.77,0,1.65,0,1.8.76a1.22,1.22,0,0,1-.48,1.14c-.49.52-.95,1,.34,2.59a.05.05,0,0,1,0,0l-.19.08-.2.08c-1.47-1.83-.78-2.56-.28-3.09.28-.3.44-.48.38-.76s-.64-.41-1.42-.44c-.61,0-1.19,0-1.42-.39a.72.72,0,0,1,0-.7c.64-1.52,5.36-1.41,5.9-1.39A.21.21,0,0,1,198.91,90.94Z"/><path class="cls-13" d="M191.05,97.69c-.24-1.54-1.14-3-2-3.29s-1.26.65-1.63,1.52-.65,1.55-1.28,1.78-.89-.26-1.37-1-.87-1.43-1.66-1.08a2.15,2.15,0,0,0-1.26,1.67,2.55,2.55,0,0,0,.91,2.31,1.15,1.15,0,0,1,.45.89,1.77,1.77,0,0,1-.28.91l.41,0h.09a2.12,2.12,0,0,0,.2-.85,1.57,1.57,0,0,0-.59-1.21,2.12,2.12,0,0,1-.78-1.93,1.73,1.73,0,0,1,1-1.35c.41-.18.67.16,1.13.92s.95,1.56,1.87,1.22,1.19-1.2,1.53-2,.63-1.43,1.12-1.29,1.45,1.47,1.68,3a4.48,4.48,0,0,1,0,1.66l.46-.16A5.09,5.09,0,0,0,191.05,97.69Z"/><path class="cls-13" d="M184.5,83.79c-1.19-.66-2.07-.82-2.62-.47s-.55,1-.52,1.64c0,.78,0,1.27-.64,1.5a1.82,1.82,0,0,0-1.21,2.07,1.51,1.51,0,0,0,1.49,1.2h.38a2.8,2.8,0,0,0,2.08-1.36c.41-.56.62-.79,1.16-.57a1,1,0,0,0,.84,0,.93.93,0,0,0,.37-.41,2.28,2.28,0,0,0,.19-.69A2.92,2.92,0,0,0,184.5,83.79Zm1.11,2.85a1.12,1.12,0,0,1-.35.79.55.55,0,0,1-.48,0c-.86-.35-1.26.19-1.65.71a2.38,2.38,0,0,1-1.79,1.19,1.18,1.18,0,0,1-1.42-.85,1.38,1.38,0,0,1,.93-1.59c1-.35,1-1.22.93-1.92s0-1,.32-1.27a.9.9,0,0,1,.54-.11,4.16,4.16,0,0,1,1.66.59A2.53,2.53,0,0,1,185.61,86.64Z"/><path class="cls-13" d="M192.89,98.83a.27.27,0,0,1-.23-.17.25.25,0,0,1,.16-.32,39.62,39.62,0,0,0,8.48-4,.25.25,0,0,1,.28.42,40.17,40.17,0,0,1-8.6,4.1Z"/><path class="cls-13" d="M186.39,90.89a.22.22,0,0,1-.17-.09.24.24,0,0,1-.06-.23c.85-3.2,1.73-8.16,2.37-11.78.25-1.4.47-2.62.65-3.55a.25.25,0,1,1,.49.1c-.18.93-.39,2.14-.64,3.54-.66,3.69-1.46,8.25-2.29,11.46,1.54-.18,7.54-1,9.94-2a.25.25,0,0,1,.33.13.24.24,0,0,1-.13.33c-2.83,1.18-10.14,2-10.45,2Z"/><path class="cls-13" d="M183.25,92.65a.27.27,0,0,1-.19-.11.25.25,0,0,1,.05-.35,20.38,20.38,0,0,1,2.53-1.46,13.76,13.76,0,0,0-2.06,0,.24.24,0,0,1-.27-.22.25.25,0,0,1,.22-.28,9.24,9.24,0,0,1,3,.16.26.26,0,0,1,.16.23.28.28,0,0,1-.15.24,22.49,22.49,0,0,0-3.1,1.73A.33.33,0,0,1,183.25,92.65Z"/><path class="cls-6" d="M189,78a.21.21,0,0,1-.18-.09.26.26,0,0,1,0-.36l1.86-1.47a.24.24,0,0,1,.35,0,.26.26,0,0,1,0,.36L189.13,78A.26.26,0,0,1,189,78Z"/><path class="cls-5" d="M188.86,67.92h0c-.79,3.37-2.87,7.19-8.12,8.32a14.75,14.75,0,0,1-3,.32c.14-.6.27-1.19.41-1.79.46-1.94.92-3.85,1.43-5.79a5,5,0,0,1,2.25-3,6.52,6.52,0,0,1,3-1.66L186,64c1.24-.32,2.38-.59,3.32-.79A18.38,18.38,0,0,1,188.86,67.92Z"/><path class="cls-14" d="M204.68,88.25a15.49,15.49,0,0,0,2.42-4.19c.69-2.07.73-4.28.08-4.37s-1,1.54-2.32,3.86A5.36,5.36,0,0,0,204.68,88.25Z"/><path class="cls-14" d="M204.1,81.63a9,9,0,0,1,2.74-2.41c2.13-1,1-2.18-.73-1.15s-2.6,1.73-2.6,1.73Z"/><path class="cls-5" d="M197.61,88.69s2.7-1.41,3-2.87a25.56,25.56,0,0,1,3.24-7.45c2.14-3.12,3.58-1.58,2.95-.93A4.34,4.34,0,0,0,205,80.56c-.43,2.34.94,8.43,0,10.29s-3.71,3.07-3.71,3.07S197.79,90.92,197.61,88.69Z"/><path class="cls-5" d="M201.65,82.62s.84-4.56,2.08-5.79,2.15-2.87,3-2.68-.85,2.9-.85,2.9Z"/><path class="cls-5" d="M202.72,64.49c-3.57,4-9.85,0-10-1.58a27.46,27.46,0,0,0,1.36-8.5l9,3.72c0,.27-.07.54-.11.81a38.64,38.64,0,0,0-.36,3.86A13.76,13.76,0,0,0,202.72,64.49Z"/><path class="cls-4" d="M202.68,62.8c-4.77-1.3-7.68-6.42-7.68-6.42l8,2.56A38.64,38.64,0,0,0,202.68,62.8Z"/><path class="cls-14" d="M205.48,51.4s.81-2.23,2.63-1.64,1.63,6.72-1.86,6.38Z"/><path class="cls-9" d="M203.49,57.74a3.06,3.06,0,1,1,3.31,2.79A3.05,3.05,0,0,1,203.49,57.74Zm.45,0a2.6,2.6,0,1,0,2.37-2.82A2.61,2.61,0,0,0,203.94,57.7Z"/><path class="cls-5" d="M194,55.14c.88,2.48,7.15,5.53,9.8,4.39,1.61-.69,3.05-2.12,3.93-5.36,0,0,0,0,0-.06l.15-.56q.12-.51.21-1a2.07,2.07,0,0,1,0-.22c0-.19.06-.38.08-.57s.05-.44.06-.64c.19-3.27.48-7-2.46-9.07s-7.57-2.82-10.33,0a12.13,12.13,0,0,0-2.1,7.24C193.29,54.08,193.32,53.35,194,55.14Z"/><path class="cls-4" d="M202.06,50.59a.26.26,0,0,1-.16-.19s-.12-.73-.6-.85a1.31,1.31,0,0,0-1,.19.24.24,0,0,1-.34-.05.25.25,0,0,1,0-.33,1.78,1.78,0,0,1,1.38-.28c.79.19,1,1.21,1,1.25a.25.25,0,0,1-.2.28A.25.25,0,0,1,202.06,50.59Z"/><path class="cls-4" d="M204.76,51.07h0a.25.25,0,0,1-.13-.32s.37-.85,1.09-.85a1.53,1.53,0,0,1,1.1.53.24.24,0,0,1,0,.34.25.25,0,0,1-.34,0,1.05,1.05,0,0,0-.73-.35c-.4,0-.64.55-.64.55A.24.24,0,0,1,204.76,51.07Z"/><path class="cls-4" d="M204.51,54.79h0a3,3,0,0,1-4-1.38.2.2,0,0,1,.09-.25.19.19,0,0,1,.25.09,2.58,2.58,0,0,0,3.5,1.2.18.18,0,1,1,.14.34Z"/><path class="cls-4" d="M203.35,52.77a1.54,1.54,0,0,1-.37,0,.23.23,0,1,1,.05-.45,1.32,1.32,0,0,0,1-.33A11,11,0,0,1,203,48.46a.23.23,0,0,1,.2-.26.23.23,0,0,1,.26.19,8.88,8.88,0,0,0,1.09,3.45.22.22,0,0,1,0,.3A1.85,1.85,0,0,1,203.35,52.77Z"/><path class="cls-14" d="M202.71,56.59h.15a.18.18,0,0,0,.14-.22.18.18,0,0,0-.21-.15,1.21,1.21,0,0,1-1.12-.43.19.19,0,0,0-.26,0,.18.18,0,0,0,0,.26A1.53,1.53,0,0,0,202.71,56.59Z"/><path class="cls-14" d="M207.69,54.11l.15-.56q.12-.51.21-1a2.07,2.07,0,0,1,0-.22h-.17c-1.23-.08-2.25.25-2.28.75S206.52,54,207.69,54.11Z"/><path class="cls-14" d="M196.15,51.77c0,.49.93,1,2.16,1s2.26-.25,2.29-.74-.94-1-2.17-1S196.18,51.27,196.15,51.77Z"/><path class="cls-12" d="M198,41.59s-1.64,5.08-3.15,6.07-2.72-1.52-2.72-1.52S195.26,38.37,198,41.59Z"/><path class="cls-12" d="M204.33,41.88s-3,4.16-6.62,3.11-1.14-4.06-1.14-4.06S203.44,38.24,204.33,41.88Z"/><path class="cls-12" d="M203.35,41.51s1.74,5.49,5.35,4.61-1.37-6.35-3.77-6.17S203.35,41.51,203.35,41.51Z"/><path class="cls-12" d="M201.62,46a2.52,2.52,0,0,0-2.32.43c-.58.5-.16,1.11.61.72a2.78,2.78,0,0,1,1.49-.38A.4.4,0,0,0,201.62,46Z"/><path class="cls-12" d="M205.5,46.52a2.53,2.53,0,0,1,2.29.57c.55.52.09,1.11-.65.68a2.75,2.75,0,0,0-1.47-.46A.41.41,0,0,1,205.5,46.52Z"/><path class="cls-5" d="M194.55,48.8a2.42,2.42,0,0,0-3-1.2c-2,.75-1.42,7.49,2.41,6.92Z"/><path class="cls-12" d="M195.76,45.87s-.68.89-.65,4.16.39,4.08.39,4.08a10.32,10.32,0,0,1-1.47-7.2C194.86,40.25,195.76,45.87,195.76,45.87Z"/><path class="cls-9" d="M191.24,53.19c.11.13.17.26.27.39a2.59,2.59,0,1,0,1.66.16c-.56-.18-.63-.42-.64-.65a3.08,3.08,0,1,1-1.29.1Z"/><path class="cls-4" d="M193.6,51.89a.18.18,0,0,1-.14.21h0a.19.19,0,0,1-.18-.14,3.68,3.68,0,0,0-.57-1.25c-.38.32-.69.61-.7.61a.15.15,0,0,1-.13,0,.24.24,0,0,1-.13,0,.2.2,0,0,1,0-.26s.33-.31.73-.63a2.18,2.18,0,0,0-1.11-.66.18.18,0,0,1-.13-.22.18.18,0,0,1,.22-.14A3.31,3.31,0,0,1,193.6,51.89Z"/><polygon class="cls-5" points="215.52 211.84 216.02 220.63 222.65 220.69 223.22 211.76 215.52 211.84"/><path class="cls-7" d="M238.29,230.32H214.63a3.46,3.46,0,0,1-.31-1.32,38.46,38.46,0,0,1,.81-7.2c0-.24.07-.46.09-.66a5.63,5.63,0,0,0,.07-.82,1.21,1.21,0,0,1,1.46-1.36c2.39,2.35,5.1-1.17,6.68,0,0,0,.68.49,2.56,2.18s5.07,2.8,7.79,3.94c3.51,1.47,4.51,2.93,4.7,3.94A1.91,1.91,0,0,1,238.29,230.32Z"/><path class="cls-8" d="M238.29,230.32H214.63a3.46,3.46,0,0,1-.31-1.32h24.16A1.91,1.91,0,0,1,238.29,230.32Z"/><path class="cls-8" d="M217.05,230.32h-.7a5.24,5.24,0,0,0,1.27-3.79,6.69,6.69,0,0,0-2.49-4.73c0-.24.07-.46.09-.66a7.25,7.25,0,0,1,3,5.36A5.78,5.78,0,0,1,217.05,230.32Z"/><path class="cls-9" d="M225.59,222.51a.41.41,0,0,1-.38-.29.39.39,0,0,1,.29-.47l1.47-.37a.4.4,0,0,1,.48.28.41.41,0,0,1-.29.48l-1.48.36Z"/><path class="cls-9" d="M224.23,221.24a.4.4,0,0,1-.38-.3.39.39,0,0,1,.29-.47l1.47-.37a.41.41,0,0,1,.48.29.39.39,0,0,1-.29.47l-1.48.37Z"/><path class="cls-9" d="M227.07,223.37a.39.39,0,0,1-.38-.29.41.41,0,0,1,.28-.48l1.48-.36a.38.38,0,0,1,.47.28.38.38,0,0,1-.28.47l-1.48.37Z"/><path class="cls-9" d="M228.55,224.2a.39.39,0,0,1-.1-.77l1.48-.37a.39.39,0,0,1,.47.29.38.38,0,0,1-.28.47l-1.48.37Z"/><path class="cls-9" d="M230.16,225a.39.39,0,0,1-.38-.29.4.4,0,0,1,.28-.48l1.48-.36a.38.38,0,0,1,.47.28.38.38,0,0,1-.28.47l-1.48.37Z"/><path class="cls-9" d="M231.9,225.61a.38.38,0,0,1-.37-.29.39.39,0,0,1,.28-.48l1.48-.36a.38.38,0,0,1,.47.28.39.39,0,0,1-.28.47l-1.48.37Z"/><path class="cls-10" d="M205.81,127.93l-1.21.29c-5.16,1.19-10.57,1.67-14.37.77-1.87-.45-3.06-2.74-3.83-5.3a9.83,9.83,0,0,1-.53-2.12,40.49,40.49,0,0,1,1.75-13.74c8.07.6,16.38.58,25.86-2.34,0,0,2.5,4.52,3.53,6.75a45.88,45.88,0,0,1,2.09,5.2h0a13.83,13.83,0,0,1,.62,2.77C220,122.74,213.31,126,205.81,127.93Z"/><path class="cls-11" d="M197.13,111.14h-.22a76.54,76.54,0,0,1-9.76-.67.24.24,0,1,1,.07-.48,74.77,74.77,0,0,0,9.7.66c4.94,0,11.82-.51,16.55-3.1a.25.25,0,0,1,.33.1.24.24,0,0,1-.1.33C209,110.58,202.11,111.14,197.13,111.14Z"/><path class="cls-11" d="M186.75,124a.28.28,0,0,1-.27-.21.29.29,0,0,1,.2-.34,8.63,8.63,0,0,0,3.21-1.7,10.09,10.09,0,0,0,3.53-7.53.28.28,0,0,1,.29-.26.27.27,0,0,1,.26.3,10.64,10.64,0,0,1-3.75,7.93,9,9,0,0,1-3.41,1.8Z"/><path class="cls-10" d="M209.6,151.44c2.3,7,2.09,10.56,2.09,10.56s-1.79,7.22.12,19.73c1.44,9.4,2.32,22.49,2.67,28.43,0,.18,0,.36,0,.52.1,1.66.14,2.64.14,2.64l9.16,1s.08-1.07.2-2.92c0-.17,0-.34,0-.51.66-10.06,2.52-39.45,2.26-50.16,0-1-.07-1.81-.13-2.45,0-.45-.11-1-.19-1.7-1-8.2-4.61-31.7-7.13-39.59-1.93-6.08-15.53.15-15.53.15S207.31,144.39,209.6,151.44Z"/><path class="cls-11" d="M221,159.93a6.92,6.92,0,0,0,5-.2.39.39,0,0,0,.18-.53.41.41,0,0,0-.53-.18,6.2,6.2,0,0,1-4.58.11.39.39,0,0,0-.28.73Z"/><path class="cls-11" d="M214.48,210.16c0,.18,0,.36,0,.52l9.5.71c0-.17,0-.34,0-.51Z"/><path class="cls-11" d="M204.65,126.52a.27.27,0,0,1-.25-.15.28.28,0,0,1,.12-.38,7.66,7.66,0,0,0,3.62-5.17.29.29,0,0,1,.33-.23.28.28,0,0,1,.23.33,8.09,8.09,0,0,1-3.92,5.57A.28.28,0,0,1,204.65,126.52Z"/><path class="cls-11" d="M216.27,210.67a.28.28,0,0,1-.26-.26c0-.29-1.89-29.25-2.52-35.86-.61-6.36.3-15.5.38-16.34-2.12-6.5-8-32.38-8.05-32.64a.28.28,0,0,1,.21-.34.29.29,0,0,1,.34.22c.06.26,6,26.26,8.06,32.65a.2.2,0,0,1,0,.11c0,.1-1,9.71-.39,16.29s2.51,35.58,2.52,35.87a.27.27,0,0,1-.26.3Z"/><path class="cls-5" d="M265.81,76.51c-1.46,3.89-2.93,7.75-4.42,11.62s-3,7.73-4.61,11.63c-.19.49-.41,1-.61,1.47l-.31.74-.34.76-.34.77-.4.85-.1.21-.05.11-.11.19c-.14.25-.29.51-.44.74l-.42.59-.11.15-.11.12-.2.24a15.71,15.71,0,0,1-1.6,1.58c-.25.21-.51.43-.76.62l-.37.29-.37.28c-1,.72-2,1.34-2.93,1.93-1.93,1.17-3.86,2.18-5.79,3.14-1,.48-1.93.94-2.91,1.39l-1.47.66-.74.32-.77.34a4.43,4.43,0,0,1-3.71-8l.1-.06.64-.31.66-.33,1.32-.68c.88-.46,1.75-.94,2.61-1.42,1.72-1,3.4-2,4.95-3,.77-.52,1.51-1.06,2.16-1.59l.23-.2.23-.19.42-.39a4.64,4.64,0,0,0,.57-.63l0,0,0,0h0a.05.05,0,0,1,0,0,.14.14,0,0,0-.06.07v0l0-.07.06-.14.23-.56.25-.66.26-.67.25-.71c.17-.47.34-.93.51-1.41,1.34-3.81,2.63-7.72,3.91-11.62s2.54-7.83,3.79-11.74h0a5.71,5.71,0,1,1,10.89,3.46Z"/><path class="cls-14" d="M249,101.28a.31.31,0,0,1-.13,0,8.3,8.3,0,0,0-2.77-.64.23.23,0,0,1-.23-.26.25.25,0,0,1,.26-.24,8.6,8.6,0,0,1,3,.71.25.25,0,0,1-.14.46Z"/><path class="cls-14" d="M247.07,100.72a.25.25,0,0,1-.21-.12.24.24,0,0,1,.07-.34,4.28,4.28,0,0,1,1.9-.7.26.26,0,0,1,.27.24.25.25,0,0,1-.24.26,3.84,3.84,0,0,0-1.65.62A.25.25,0,0,1,247.07,100.72Z"/><path class="cls-4" d="M233.73,107.89s4.33,1.25,6.93,7a3.24,3.24,0,0,1-2.74,1.33s-4.63-5.77-7.06-6.54C230.86,109.65,230.91,108,233.73,107.89Z"/><path class="cls-4" d="M235.71,133.64a3.57,3.57,0,0,1-2.12-.72c-3.65-2.67-4.41-11.92-4.44-12.31l.62,0c0,.1.77,9.36,4.18,11.86a2.93,2.93,0,0,0,2.51.51c2.88-.68,3.22-5.67,3-9.74a61.75,61.75,0,0,0-1.23-9l.6-.14c.17.74,4,18-2.23,19.43A3.94,3.94,0,0,1,235.71,133.64Z"/><path class="cls-15" d="M215.93,226.77h-.15a1.13,1.13,0,0,1-1-1.27l14.47-107.82a1.13,1.13,0,1,1,2.23.3L217.05,225.79A1.13,1.13,0,0,1,215.93,226.77Z"/><path class="cls-4" d="M224.94,113.82h0l8.52,5.2a2.65,2.65,0,0,0,2.77-4.51h0l-8.51-5.2a2.65,2.65,0,0,0-2.77,4.51Z"/><path class="cls-5" d="M236.93,113.4s1.66,1.41,1.45,2.44.68,2.88-.41,2.79-1.56-1.69-1.68-2.2-1.89-1.17-1.75-2.09S236.93,113.4,236.93,113.4Z"/><path class="cls-5" d="M223.85,114a3.29,3.29,0,0,0,.64,1h0c.21.23.45.48.72.73a8.87,8.87,0,0,0,.72.61c.2.16.41.31.62.45h0a10.76,10.76,0,0,0,1.31.75c.21.09.41.18.62.25h0a4.15,4.15,0,0,0,3.69.53l-1.17-.73a9.08,9.08,0,0,0,1.36-2.24c.67-1.31,2.7-1.08,2.7-1.08a3.49,3.49,0,0,0,2.82.24,12.49,12.49,0,0,0-4.81-4.51c-3.51-1.59-5.38-2.48-6.79-.72C225.07,110.8,223.46,112.7,223.85,114Z"/><path class="cls-14" d="M230.22,117.48a.19.19,0,0,0,.06.25h0a2.13,2.13,0,0,0,1.26.24.11.11,0,0,0,.08,0l-.55-.34a1.49,1.49,0,0,1-.61-.19A.18.18,0,0,0,230.22,117.48Z"/><path class="cls-14" d="M227.91,116.7a1,1,0,0,0,0,.81c.21.09.41.18.62.25l0,0a.77.77,0,0,1-.22-.88,14.51,14.51,0,0,1,1.19-1.93.18.18,0,0,0-.05-.26.18.18,0,0,0-.25,0A14.57,14.57,0,0,0,227.91,116.7Z"/><path class="cls-14" d="M226,115.75a1,1,0,0,0-.1.55c.2.16.41.31.62.45a.73.73,0,0,1-.19-.85,19.6,19.6,0,0,1,1.45-2.27.19.19,0,0,0-.3-.22A19.5,19.5,0,0,0,226,115.75Z"/><path class="cls-14" d="M224.59,114.49a1.21,1.21,0,0,0-.1.47h0c.21.23.45.48.72.73a.19.19,0,0,0-.07-.17.76.76,0,0,1-.21-.88,18.72,18.72,0,0,1,1.14-1.94.18.18,0,0,0,0-.26.18.18,0,0,0-.25,0A19,19,0,0,0,224.59,114.49Z"/><rect class="cls-16" x="212.89" y="222.53" width="5.89" height="7.64" transform="translate(32.02 -26.69) rotate(7.64)"/><path class="cls-4" d="M272.78,40.16a15.07,15.07,0,0,0,.42,1.71l1.71,4.3,2.39,6.06s2.33,2.78,4,2.56c1-.14,1.5-1.15,1.71-1.9a4.36,4.36,0,0,0,.15-.83,3.32,3.32,0,0,0,.3.32,1.9,1.9,0,0,0,2.65.2c1.67-1.27.6-4.4.6-4.4a3.42,3.42,0,0,0,3.27,0c1.57-1,.09-5.25.09-5.25s1.1.38,1.61-1.65S290,38.57,290,38.57s2.09-3-.08-4.57-5.57.48-5.57.48a4.28,4.28,0,0,0-3.65-1.88c-2.48.07-3.37,4.21-3.37,4.21a3.2,3.2,0,0,0-3.63-1.17C272.3,36.16,272.47,38.5,272.78,40.16Z"/><path class="cls-17" d="M272.78,40.16a15.07,15.07,0,0,0,.42,1.71l1.71,4.3a17.72,17.72,0,0,0,6.86,6.09,1.12,1.12,0,0,1,.32.24,4.89,4.89,0,0,0,1-2,7.85,7.85,0,0,0-1.65-7.62C278.91,39.75,274.18,40.08,272.78,40.16Z"/><path class="cls-5" d="M292.12,207.42l1.82,6.28c-2.19,1.84-4.35,1.62-6.5.86l-2.2-6Z"/><path class="cls-2" d="M297.89,219.89l-.86,1.5-.29.5-3.9,6.82a3.18,3.18,0,0,1-2.81,1.61c-2.09,0-5.52,0-8.13,0a.75.75,0,0,1-.87-.84c0-1.43,2-4.26,3.27-4.86,0,0,2.15-7.56,1.41-9.32-1.27-3,.6-3.16,2.42-2.24.92.47,1.17,1.16,1.86,1.17a12.61,12.61,0,0,0,3.46-1.09s.87-1.16,1.15,0a9,9,0,0,0,.48,1.21l.39.84c.65,1.36,1.51,3,2,4Z"/><path class="cls-18" d="M297,221.39l-.29.5a5.51,5.51,0,0,1-2.07-5.09,12.44,12.44,0,0,1,.41-2.48l.39.84a10.61,10.61,0,0,0-.23,1.69A5,5,0,0,0,297,221.39Z"/><path class="cls-18" d="M297.89,219.89l-5.05,8.82a3.18,3.18,0,0,1-2.81,1.61c-2.09,0-5.52,0-8.13,0a.75.75,0,0,1-.87-.84l9,0a2.65,2.65,0,0,0,2.3-1.33l5.2-9Z"/><path class="cls-18" d="M288.08,217.66a.51.51,0,0,0,.4-.42.42.42,0,0,0-.48-.4l-1.93.06a.51.51,0,0,0-.52.44c0,.23.19.41.47.4l1.94-.07Z"/><path class="cls-18" d="M286.7,224a.49.49,0,0,0,.4-.42.42.42,0,0,0-.47-.4l-1.94.07a.51.51,0,0,0-.52.44.42.42,0,0,0,.47.4l1.94-.07Z"/><path class="cls-18" d="M287.15,222.28a.49.49,0,0,0,.4-.42.42.42,0,0,0-.47-.4l-1.94.07a.51.51,0,0,0-.52.43.42.42,0,0,0,.47.4l1.94-.06Z"/><path class="cls-18" d="M287.46,220.75a.49.49,0,0,0,.4-.42.42.42,0,0,0-.47-.4l-1.94.07a.5.5,0,0,0-.52.43.42.42,0,0,0,.47.4l1.94-.06Z"/><path class="cls-18" d="M287.77,219.22a.49.49,0,0,0,.4-.42.42.42,0,0,0-.48-.4l-1.93.07a.5.5,0,0,0-.52.43c0,.23.19.41.47.4l1.94-.07Z"/><path class="cls-7" d="M276.78,102.94s9.48,4.17,11.26,16.71,5.9,17.23,3.12,23.1-22.21-1-38.43-.74-12.62-12.07-9.56-17.1,6.28-19.56,11.26-20S276.78,102.94,276.78,102.94Z"/><polygon class="cls-5" points="251.41 211.63 250.91 220.52 244.2 220.58 243.62 211.56 251.41 211.63"/><path class="cls-2" d="M228.4,230.33l23.92,0a3.29,3.29,0,0,0,.31-1.32,39.31,39.31,0,0,0-.81-7.29c0-.24-.08-.46-.1-.66a6,6,0,0,1-.07-.84,1.22,1.22,0,0,0-1.48-1.37c-2.41,2.37-5.16-1.18-6.76,0,0,0-.69.49-2.59,2.2s-5.12,2.84-7.87,4c-3.55,1.49-4.56,3-4.75,4A1.8,1.8,0,0,0,228.4,230.33Z"/><path class="cls-18" d="M228.4,230.33l23.92,0a3.29,3.29,0,0,0,.31-1.32l-24.43,0A1.8,1.8,0,0,0,228.4,230.33Z"/><path class="cls-18" d="M249.88,230.32h.71a5.29,5.29,0,0,1-1.29-3.83,6.7,6.7,0,0,1,2.52-4.79c0-.24-.08-.46-.1-.66a7.34,7.34,0,0,0-3,5.42A5.83,5.83,0,0,0,249.88,230.32Z"/><path class="cls-18" d="M241.23,222.43a.39.39,0,0,0,.38-.3.39.39,0,0,0-.28-.48l-1.5-.37a.41.41,0,0,0-.48.29.4.4,0,0,0,.29.48l1.5.37Z"/><path class="cls-18" d="M242.61,221.14a.4.4,0,0,0,.09-.78l-1.49-.37a.4.4,0,1,0-.19.77l1.49.37Z"/><path class="cls-18" d="M239.74,223.3a.39.39,0,0,0,.38-.3.41.41,0,0,0-.29-.48l-1.49-.37a.4.4,0,1,0-.19.77l1.49.37Z"/><path class="cls-18" d="M238.24,224.14a.41.41,0,0,0,.39-.3.4.4,0,0,0-.29-.48l-1.5-.37a.4.4,0,0,0-.19.77l1.5.37Z"/><path class="cls-18" d="M236.61,224.91a.4.4,0,0,0,.1-.78l-1.5-.37a.4.4,0,0,0-.19.77l1.5.37Z"/><path class="cls-18" d="M234.85,225.57a.39.39,0,0,0,.38-.3.41.41,0,0,0-.29-.48l-1.49-.36a.39.39,0,0,0-.48.28.4.4,0,0,0,.29.48l1.49.37Z"/><path class="cls-13" d="M261.16,126.75l1.22.29c5.22,1.19,10.7,1.67,14.53.76,1.89-.45,3.1-2.77,3.87-5.36a10.11,10.11,0,0,0,.54-2.15c.47-7.19-1.3-10.24-1.3-10.24l-28.23-3.15s-.93,1.73-2,4a46.86,46.86,0,0,0-2.1,5.26h0a13.92,13.92,0,0,0-.62,2.8C246.85,121.51,253.56,124.84,261.16,126.75Z"/><path class="cls-13" d="M262.41,129.64c.61,10.19,3.92,29.22,5.79,36.58,1.66,6.53,10.26,28.73,14.81,40.34.07.16.13.33.2.49.24.63.61,1.78.83,2.34l2.8-.42c2.37-.34,4.54-.61,6.92-.85-.07-.45-.14-1.74-.22-2.25,0-.16-.05-.33-.08-.5-.87-5.56-2.22-14.07-3.45-21.68-2.05-12.65-5.12-19.48-5.12-19.48s-1.5-2.64-2.25-10.13c-.62-6.21-2.39-26-2.82-32.63-.09-1.34-.14-2.12-.14-2.12s-14.36-1.12-16.94,3.85a3.54,3.54,0,0,0-.37,1.27A37.86,37.86,0,0,0,262.41,129.64Z"/><path class="cls-6" d="M268.19,163.93a6.89,6.89,0,0,0,5-.19.39.39,0,0,0-.34-.7,6.34,6.34,0,0,1-4.58.09.39.39,0,1,0-.29.73Z"/><path class="cls-6" d="M283,206.56c.07.16.13.33.2.49l9.06-1,.54-.06.73-.08c0-.16-.05-.33-.08-.5l-.66.07-.65.08Z"/><path class="cls-4" d="M278,132.61a.28.28,0,0,0,.28-.21.29.29,0,0,0-.21-.34,8.89,8.89,0,0,1-3.24-1.73,10.15,10.15,0,0,1-3.58-7.6.28.28,0,0,0-.56,0,10.72,10.72,0,0,0,3.81,8,9.28,9.28,0,0,0,3.44,1.83Z"/><path class="cls-13" d="M257.34,150.52c-2.32,7.13-2.1,10.69-2.1,10.69s1.82,7.3-.11,20c-1.45,9.51-2.32,22.75-2.67,28.76,0,.18,0,.36,0,.52-.1,1.68-.14,2.67-.14,2.67l-9.27,1s-.08-1.08-.2-2.95c0-.17,0-.34,0-.52-.74-11.11-2.95-45.51-2.2-53.21.58-6,4.62-33.13,7.36-41.77,2-6.15,15.71.14,15.71.14S259.66,143.4,257.34,150.52Z"/><path class="cls-6" d="M241.17,158.76a6.91,6.91,0,0,0,5,.7.4.4,0,0,0,.27-.49.39.39,0,0,0-.48-.27,6.23,6.23,0,0,1-4.53-.71.4.4,0,0,0-.54.13.41.41,0,0,0,.13.55Z"/><path class="cls-6" d="M252.46,209.93c0,.18,0,.36,0,.52l-9.61.73c0-.17,0-.34,0-.52Z"/><path class="cls-6" d="M277.81,121.09a.27.27,0,0,1,.31.25c0,.29,2.89,29.16,4.1,40.46.21.65,3.84,11.54,4.9,17.38,1,5.24,3.94,19.6,5.36,26.38-.18.06-.37.1-.55.15-1.42-6.76-4.41-21.17-5.37-26.43-1.08-5.95-4.86-17.22-4.9-17.33s0,0,0-.06c-1.21-11.28-4.07-40.2-4.1-40.49A.28.28,0,0,1,277.81,121.09Z"/><path class="cls-6" d="M262.33,125.32a.29.29,0,0,0,.13-.54,7.76,7.76,0,0,1-3.67-5.23.29.29,0,0,0-.33-.23.28.28,0,0,0-.23.33,8.25,8.25,0,0,0,4,5.64A.35.35,0,0,0,262.33,125.32Z"/><path class="cls-6" d="M250.65,210.45a.3.3,0,0,0,.26-.27c0-.3,1.89-29.59,2.52-36.27.61-6.44-.32-15.68-.4-16.53,2.14-6.58,8.06-32.76,8.12-33a.29.29,0,0,0-.22-.34.28.28,0,0,0-.34.21c-.06.27-6,26.58-8.13,33a.49.49,0,0,0,0,.12c0,.1,1,9.82.41,16.48s-2.5,36-2.52,36.28a.29.29,0,0,0,.27.31Z"/><path class="cls-1" d="M251.78,108.71c6.64,1.78,15.84,2.54,28.54,1.91a93.33,93.33,0,0,1,1.2-15.57c.18-1.16.47-2.57.87-4.12.14-.54.29-1.11.46-1.68s.33-1.15.51-1.74.36-1.12.55-1.69c.12-.36.24-.72.37-1.09.07-.21.15-.43.23-.64a.56.56,0,0,1,0-.12c.06-.16.11-.32.18-.49.13-.36.26-.72.4-1.08.33-.85.67-1.69,1-2.51,2.19-5.1,2.54-10.85-2.72-12.6l-1.13-.37c-2.48-.79-4.56-1.3-5.14-1.44l-.16,0-11,.92-1.06.08c-1.54.17-2.8.37-3.83.59a11.59,11.59,0,0,0-2.25.7c-2.61,1.16-2.63,3.06-3.31,6.7l0,.19s0,0,0,.06c-.11.62-.26,1.23-.42,1.84s-.37,1.34-.58,2c-.44,1.36-.92,2.67-1.33,3.88-.21.59-.39,1.15-.56,1.69a17.42,17.42,0,0,0-.43,1.73,6.3,6.3,0,0,0-.11,1.69,2.93,2.93,0,0,0,.1.53,8.75,8.75,0,0,0,.44,1.21,12.91,12.91,0,0,0,1,1.68,15.43,15.43,0,0,0,1.56,2l.22.23v0l0,.29c-.05.39-.12.84-.2,1.36A122.92,122.92,0,0,1,251.78,108.71Z"/><path class="cls-8" d="M252.57,84.09h29a7.73,7.73,0,0,1-1.87-1.69H253.13C252.92,83,252.74,83.55,252.57,84.09Z"/><path class="cls-8" d="M252,87.51h31.33c.18-.56.36-1.12.55-1.69H252.14A6.3,6.3,0,0,0,252,87.51Z"/><path class="cls-8" d="M252.57,89.25a12.91,12.91,0,0,0,1,1.68h28.86c.14-.54.29-1.11.46-1.68Z"/><path class="cls-7" d="M253.42,102.71a5.65,5.65,0,0,0-1.64,6.62s18.12,6.19,28.73,2a11.33,11.33,0,0,0-.19-6.58S263.84,108.11,253.42,102.71Z"/><path class="cls-18" d="M270.43,107.67a57.18,57.18,0,0,0,10-1,.24.24,0,0,0,.19-.28.26.26,0,0,0-.29-.19,50.94,50.94,0,0,1-12.26.93.24.24,0,0,0-.05.48C268.79,107.64,269.61,107.67,270.43,107.67Z"/><path class="cls-18" d="M262.56,110a.24.24,0,0,0,0-.47,53,53,0,0,1-10.19-2.84.24.24,0,0,0-.31.14.24.24,0,0,0,.13.31,53.44,53.44,0,0,0,10.3,2.86Z"/><path class="cls-7" d="M261.81,109.33s-7.83,2.51-11.94,6.7c0,0,1.57,5.74,5.79,6.66,0,0,6-10.34,8-11Z"/><path class="cls-7" d="M269.52,109.65s6.76,4.7,9.46,9.9c0,0-3.19,5-7.49,4.68,0,0-2.69-11.65-4.41-12.88Z"/><path class="cls-7" d="M261,109a6.91,6.91,0,0,1,.32-2.79c.35-1,1-2.11,2.2-2.19,2.3-.14,2.56,1.65,2.56,1.65s1-1.89,3.4-.86,1.49,8.06-.89,8.88a2.55,2.55,0,0,1-3.31-1.13s-.77,1.46-2.78.45C261.48,112.48,261.08,110.31,261,109Z"/><path class="cls-9" d="M267.74,73.05l-.31,0a2.69,2.69,0,0,1-2.08-1.26c-1.26-2.1.23-6,.29-6.16a.25.25,0,0,1,.33-.15.25.25,0,0,1,.14.33s-1.45,3.83-.32,5.72a2.13,2.13,0,0,0,1.7,1c3.32.4,8.66-7.15,8.72-7.23a.25.25,0,1,1,.41.3C276.4,65.9,271.34,73.05,267.74,73.05Z"/><path class="cls-5" d="M258.82,67.72a18.61,18.61,0,0,1-3.78,8.8c.16-.61.31-1.22.42-1.84,0,0,0,0,0-.06l0-.19C256.19,70.79,256.21,68.89,258.82,67.72Z"/><path class="cls-5" d="M276.67,75c.26,4.86,4.38,10.26,7.61,9.71l.27-.75a5,5,0,0,1,.18-.5c.44-1.21.92-2.43,1.42-3.59,2.19-5.1,2.54-10.85-2.72-12.6l-1.13-.37C279.37,67.52,276.37,69.42,276.67,75Z"/><path class="cls-8" d="M271.34,94.67a.27.27,0,0,1-.22.13.2.2,0,0,1-.13,0,14.73,14.73,0,0,0-9.25-1.37,16,16,0,0,1-6.46.07l0-.29v0l-.22-.23a15.24,15.24,0,0,0,6.55,0,14.92,14.92,0,0,1,9.6,1.43A.25.25,0,0,1,271.34,94.67Z"/><path class="cls-8" d="M263.22,80.14c-3.24,0-3.94-3.48-4-3.52a.25.25,0,0,1,.2-.3.27.27,0,0,1,.3.2c0,.14.64,3.11,3.45,3.11s9.34-4.49,9.41-4.54a.25.25,0,0,1,.35.06.27.27,0,0,1-.06.36C272.65,75.7,266.32,80.14,263.22,80.14Z"/><path class="cls-5" d="M266.13,66.45c1.71,5.91,9.3.58,9.81-.86a17.58,17.58,0,0,1,.95-7.18l-9.28,1.17c0,.26-.07.51-.1.77a33.5,33.5,0,0,1-.64,3.66C266.73,64.61,266.35,65.83,266.13,66.45Z"/><path class="cls-4" d="M266.87,64c4.74,0,8.7-4,8.7-4l-8.06.35A33.5,33.5,0,0,1,266.87,64Z"/><path class="cls-4" d="M264.63,52s-1.56-6.88,2.47-9.74,12.85-2.08,15.06,3-.65,11.29-5.58,12.33S264.63,52,264.63,52Z"/><path class="cls-14" d="M267.14,52.79s-.19-2.26-2-2.17-3.18,5.79.12,6.35Z"/><path class="cls-19" d="M263.64,60.88a2.93,2.93,0,1,1,3.75-1.74A2.93,2.93,0,0,1,263.64,60.88Zm1.86-5.09A2.49,2.49,0,1,0,267,59,2.51,2.51,0,0,0,265.5,55.79Z"/><path class="cls-5" d="M276.85,59.12c-1.43,2.07-8,3.31-10.14,1.61-1.32-1-2.29-2.73-2.29-5.94v0c0-.19,0-.37,0-.56s0-.65.05-1a1.49,1.49,0,0,1,0-.21c0-.19,0-.38.06-.55s.07-.42.1-.61c.65-3.07,1.3-6.53,4.54-7.76s7.7-.71,9.53,2.62a11.64,11.64,0,0,1,.13,7.21C277.72,58.3,277.88,57.62,276.85,59.12Z"/><path class="cls-9" d="M266.55,56.13a35.21,35.21,0,0,0,4.51-.21,2.31,2.31,0,0,1-2.15,2.1A2.27,2.27,0,0,1,266.55,56.13Z"/><path class="cls-4" d="M276.53,45.61s.25,5.1,1.39,6.39,2.89-.73,2.89-.73S279.83,43.31,276.53,45.61Z"/><path class="cls-4" d="M270.58,44.28s1.7,4.59,5.33,4.53S278,45.35,278,45.35,272.3,41.15,270.58,44.28Z"/><path class="cls-4" d="M271.57,44.19s-3,4.64-6.08,2.92,2.84-5.52,5-4.75S271.57,44.19,271.57,44.19Z"/><path class="cls-14" d="M264.42,54.74c0-.19,0-.37,0-.56s0-.65.05-1a1.49,1.49,0,0,1,0-.21l.15,0c1.16.23,2,.79,1.93,1.26S265.53,54.94,264.42,54.74Z"/><path class="cls-14" d="M275.69,55.3c-.06.47-1.05.73-2.22.59s-2.07-.64-2-1.11,1.05-.74,2.22-.59S275.75,54.82,275.69,55.3Z"/><path class="cls-4" d="M272.05,48.76a2.41,2.41,0,0,1,2,1c.41.6-.13,1.06-.74.51a2.59,2.59,0,0,0-1.28-.72A.39.39,0,0,1,272.05,48.76Z"/><path class="cls-4" d="M268.34,48.28a2.41,2.41,0,0,0-2.25-.05c-.64.35-.37,1,.43.79A2.67,2.67,0,0,1,268,49,.39.39,0,0,0,268.34,48.28Z"/><path class="cls-5" d="M277.88,53.11a2.32,2.32,0,0,1,3.05-.36c1.62,1.19-.56,7.27-4,5.79Z"/><path class="cls-4" d="M277.54,50.39s-2.26,5.27-.89,5.07,2.58-3.41,2.58-3.41Z"/><path class="cls-19" d="M279.83,58c-.13.09-.21.2-.34.3a2.47,2.47,0,1,1-1.57-.27c.56,0,.69-.23.76-.44a2.94,2.94,0,1,0,1.15.41Z"/><path class="cls-4" d="M278,56.2a.19.19,0,0,0,.08.24h0a.17.17,0,0,0,.19-.09,3.74,3.74,0,0,1,.84-1c.28.39.49.73.5.74a.16.16,0,0,0,.1.08.23.23,0,0,0,.14,0,.18.18,0,0,0,.05-.24,9.08,9.08,0,0,0-.51-.76,2.11,2.11,0,0,1,1.19-.34.18.18,0,0,0,.18-.17.18.18,0,0,0-.17-.18A3.17,3.17,0,0,0,278,56.2Z"/><path class="cls-14" d="M268.19,59a.36.36,0,0,1-.13,0,.17.17,0,0,1-.08-.24.18.18,0,0,1,.24-.08,1.16,1.16,0,0,0,1.13-.11c.13-.1.33,0,.29.23A1.48,1.48,0,0,1,268.19,59Z"/><path class="cls-4" d="M268.77,54.58a1.43,1.43,0,0,0,.43.1h0c.22-.16.13-.41-.06-.43a1.31,1.31,0,0,1-.87-.56,10.33,10.33,0,0,0,1.87-3,.2.2,0,0,0-.12-.28.21.21,0,0,0-.28.11,8.48,8.48,0,0,1-1.88,2.91.21.21,0,0,0-.08.27A1.75,1.75,0,0,0,268.77,54.58Z"/><path class="cls-4" d="M268.57,51.56a2.41,2.41,0,1,1-2.4-2.41A2.4,2.4,0,0,1,268.57,51.56Z"/><path class="cls-4" d="M274.48,52.51a2.41,2.41,0,1,1-2.41-2.41A2.41,2.41,0,0,1,274.48,52.51Z"/><path class="cls-4" d="M270,52.53a2.42,2.42,0,0,0-1.94-.32l-.16-.6a3,3,0,0,1,2.52.46Z"/><path class="cls-4" d="M274.21,52.71l-.28-.55c.13-.07,3.09-1.53,4.88-.61l-.28.55C277,51.32,274.24,52.7,274.21,52.71Z"/><path class="cls-5" d="M286.76,70.14l.48.69.45.68.9,1.35c.6.91,1.19,1.81,1.77,2.73q1.75,2.73,3.42,5.56c.56.94,1.11,1.9,1.64,2.88s1.07,2,1.58,3,1,2.11,1.47,3.29l.18.45.17.47c0,.07.05.16.08.24l.08.25.08.25,0,.13.06.18a7.75,7.75,0,0,1,.21.91c.05.28.09.52.11.76a12.12,12.12,0,0,1,.06,1.29c0,.79-.07,1.47-.14,2.12s-.18,1.26-.29,1.85c-.22,1.19-.48,2.31-.76,3.4-.56,2.19-1.2,4.29-1.88,6.36s-1.4,4.1-2.14,6.12c-.37,1-.75,2-1.14,3l-.59,1.51-.61,1.52a4.22,4.22,0,0,1-7.92-2.91l0-.09.48-1.44.48-1.47c.32-1,.63-2,.94-3,.6-2,1.18-4,1.71-5.92s1-3.93,1.39-5.85c.18-1,.35-1.91.46-2.8.06-.45.1-.88.12-1.28a7.48,7.48,0,0,0,0-1.05c0-.13,0-.24,0-.29s0,0,0,0a.87.87,0,0,0,0,.14v0l0,0,0-.06-.05-.13,0-.12s0-.08-.05-.13l-.13-.27a2.14,2.14,0,0,0-.12-.28c-.36-.75-.8-1.58-1.28-2.4s-1-1.67-1.52-2.51-1.09-1.68-1.65-2.51q-1.71-2.52-3.53-5c-.61-.82-1.22-1.65-1.84-2.47l-.93-1.22L278,77.5l-.46-.58,0,0a5.72,5.72,0,0,1,9-7Z"/><path class="cls-14" d="M282.91,84.21a.24.24,0,0,1-.22-.14c-1.23-2.52-4.24-7.52-4.27-7.57a.26.26,0,0,1,.09-.35.25.25,0,0,1,.34.09c0,.05,3.06,5.07,4.29,7.61a.24.24,0,0,1-.12.33A.2.2,0,0,1,282.91,84.21Z"/><path class="cls-14" d="M280.2,79.27h-.07l-1.38-.39a.25.25,0,0,1,.14-.48l1.38.39a.25.25,0,0,1-.07.49Z"/><path class="cls-14" d="M290,95.38a.26.26,0,0,1-.23-.13.26.26,0,0,1,.11-.34,6.42,6.42,0,0,1,3.33-.69.25.25,0,0,1-.07.49,6.14,6.14,0,0,0-3,.65A.23.23,0,0,1,290,95.38Z"/><path class="cls-14" d="M290.49,95.16h-.08a.26.26,0,0,1-.16-.32,5.84,5.84,0,0,1,1.36-1.93.25.25,0,0,1,.35,0,.25.25,0,0,1,0,.36A5.35,5.35,0,0,0,290.73,95,.27.27,0,0,1,290.49,95.16Z"/><path class="cls-5" d="M285.91,116.84c-.63.2-1.12,1.26-1.74,1.89a11.13,11.13,0,0,0-2.14,3.32c-.51,1.46-1.8,5.85-1.21,6.93s2-2.64,2.29-3.39a3.35,3.35,0,0,1,.77-1.18s-2.55,8.73-2,9.53,2.51-4.06,3-5.26c0,0-1.56,6.66-1,7,1.06.76,3-6.6,3-6.6s-1,5.66-.12,5.74,2.08-6,2.08-6-.15,3.75.59,4.19,1.65-7.45,1.64-8.67,1-4.21.7-5.77C291.55,117.6,287.91,116.22,285.91,116.84Z"/><path class="cls-7" d="M77.82,70.69c0,.6.07,1.16.11,1.73s.1,1.13.17,1.7.12,1.13.19,1.69l.23,1.69c.31,2.25.71,4.49,1.16,6.73.23,1.12.47,2.24.74,3.36s.55,2.24.86,3.37.64,2.26,1,3.41l.29.87.32.88.34.9.15.38c.06.13.12.26.17.39s.24.49.37.72a13.09,13.09,0,0,0,1.67,2.36,16.07,16.07,0,0,0,1.78,1.74A20.89,20.89,0,0,0,89.17,104c.59.4,1.18.76,1.77,1.09s1.17.64,1.75.93,1.17.54,1.75.79c1.15.5,2.31.91,3.47,1.3a56.39,56.39,0,0,0,6.92,1.8c1.16.23,2.31.42,3.48.58.58.08,1.16.14,1.75.21l.88.08.45,0h.23l.24,0a3.42,3.42,0,0,0,2-6.38l-.46-.26-.16-.08L113,104l-.37-.17-.73-.33-1.49-.67c-1-.45-2-.89-2.93-1.35-2-.9-3.85-1.82-5.66-2.79-.91-.48-1.79-1-2.63-1.48L98,96.43c-.4-.25-.77-.52-1.13-.78a13.65,13.65,0,0,1-1.82-1.55,5.65,5.65,0,0,1-.56-.66,1.38,1.38,0,0,1-.21-.4v0h0s0,0,0,0l-.21-.68-.21-.71-.21-.73c-.28-1-.55-2-.82-3l-1.61-6.28c-.55-2.11-1.1-4.24-1.69-6.36l-.45-1.59c-.16-.53-.3-1.06-.46-1.59s-.32-1.06-.49-1.59-.33-1.06-.51-1.56l0-.09a5,5,0,0,0-9.79,1.9Z"/><path class="cls-18" d="M88.35,95.7a.31.31,0,0,0,.13,0A27.91,27.91,0,0,1,94.23,94a.32.32,0,0,0,.26-.36.31.31,0,0,0-.36-.25,26.83,26.83,0,0,0-5.91,1.68.32.32,0,0,0,.13.6Z"/><path class="cls-18" d="M93.05,94.26a.32.32,0,0,0,.12-.61,26.18,26.18,0,0,0-2.91-.85.31.31,0,0,0-.14.61,25.38,25.38,0,0,1,2.82.82A.2.2,0,0,0,93.05,94.26Z"/><polygon class="cls-20" points="48.63 207.15 48.47 218.99 51.29 218.66 52.07 207.15 48.63 207.15"/><path class="cls-16" d="M48.39,160.37,48,161.64a52.49,52.49,0,0,0-1.33,6.6c-1.43,10.56.75,19.34,5.69,18.14,4.77-1.16,6.17-12.12,6.57-19.34.08-1.38.12-2.62.14-3.63,0-1.67,0-2.72,0-2.72Z"/><path class="cls-20" d="M48,161.64a52.49,52.49,0,0,0-1.33,6.6c3.82.77,9.44-.46,12.26-1.2.08-1.38.12-2.62.14-3.63Z"/><path class="cls-16" d="M54.92,178.72s3.85,2,1.52,11.7-1.35,19.33-6.82,19.79c-2.75.22-.65-6.2-4.56-15.63C44,192.14,43.8,174.67,54.92,178.72Z"/><circle class="cls-21" cx="51.74" cy="184.14" r="5.87" transform="translate(-137.6 211.29) rotate(-82.46)"/><path class="cls-15" d="M48.47,184a3.28,3.28,0,1,0,3.46-3.09A3.28,3.28,0,0,0,48.47,184Z"/><path class="cls-4" d="M50.11,184.05a1.64,1.64,0,1,0,1.73-1.54A1.64,1.64,0,0,0,50.11,184.05Z"/><path class="cls-2" d="M44.77,227.22v.17q0,.39,0,.69c0,.44.06.7.06.7H59.34a8.34,8.34,0,0,0,0-1.39A7.25,7.25,0,0,0,56.77,222c-2.74-2.12-1.68-1.68-2.24-2.64-.07-.11-.56-1.75-.61-1.86-.47-1-.9-1.48-3.5-1.48-3.44,0-3.75,1.67-4.11,2.55a17.7,17.7,0,0,0-.58,2.05c-.08.36-.17.75-.25,1.15-.22,1-.41,2-.55,2.87A15.57,15.57,0,0,0,44.77,227.22Z"/><path class="cls-11" d="M44.77,227.22v.17q0,.39,0,.69a4.07,4.07,0,0,0,1.5-2c.9-2.44-.48-5.37-.54-5.5l0,0c-.08.36-.17.75-.25,1.15a6.64,6.64,0,0,1,.18,4.09A3.36,3.36,0,0,1,44.77,227.22Z"/><path class="cls-11" d="M44.77,227.39c0,.83.09,1.39.09,1.39H59.34a8.34,8.34,0,0,0,0-1.39Z"/><path class="cls-11" d="M49.94,220.57h.11a7,7,0,0,1,3.35-.07.41.41,0,1,0,.22-.8,7.82,7.82,0,0,0-3.78.07.42.42,0,0,0-.3.5A.43.43,0,0,0,49.94,220.57Z"/><path class="cls-11" d="M49.7,218.9h.11a7.06,7.06,0,0,1,3.36-.07.41.41,0,0,0,.22-.8,7.87,7.87,0,0,0-3.79.07.41.41,0,0,0,.1.81Z"/><path class="cls-11" d="M50.56,221.88l.11,0a7.33,7.33,0,0,1,3.35-.07.41.41,0,0,0,.51-.28.42.42,0,0,0-.29-.51,7.89,7.89,0,0,0-3.78.06.42.42,0,0,0,.1.82Z"/><path class="cls-11" d="M51.29,223.36h.1a7.38,7.38,0,0,1,3.36-.07.42.42,0,0,0,.51-.29.41.41,0,0,0-.29-.5,7.89,7.89,0,0,0-3.78.06.41.41,0,0,0,.1.81Z"/><polygon class="cls-22" points="76.15 208.24 76.15 217.5 83.35 218.01 84.81 207.62 76.15 208.24"/><path class="cls-2" d="M100.16,228.78l-25.77,0a3.58,3.58,0,0,1-.34-1.43c-.16-2.18.54-5.66.88-7.85,0-.26.08-.5.11-.71,0-.37.07-.68.07-.9a1.32,1.32,0,0,1,1.59-1.48c2.61,2.56,5.56-1.27,7.28,0,0,0,.75.54,2.79,2.38s5.52,3.06,8.49,4.3c3.82,1.61,4.9,3.2,5.11,4.3A2,2,0,0,1,100.16,228.78Z"/><path class="cls-11" d="M100.16,228.78l-25.77,0a3.58,3.58,0,0,1-.34-1.43l26.32,0A2,2,0,0,1,100.16,228.78Z"/><path class="cls-11" d="M77,228.76h-.77a5.63,5.63,0,0,0,1.39-4.12,7.25,7.25,0,0,0-2.71-5.16c0-.26.08-.5.11-.71a7.87,7.87,0,0,1,3.21,5.84A6.23,6.23,0,0,1,77,228.76Z"/><path class="cls-11" d="M86.33,220.27a.43.43,0,0,1-.41-.32.43.43,0,0,1,.31-.52l1.61-.39a.43.43,0,0,1,.52.31.44.44,0,0,1-.31.51l-1.61.4Z"/><path class="cls-11" d="M84.87,219a.42.42,0,0,1-.11-.83l1.61-.4a.42.42,0,1,1,.21.82L85,219Z"/><path class="cls-11" d="M87.94,221.21a.43.43,0,0,1-.1-.84l1.61-.4a.43.43,0,0,1,.52.31.44.44,0,0,1-.31.52l-1.62.4Z"/><path class="cls-11" d="M89.55,222.11a.43.43,0,0,1-.1-.84l1.61-.4a.43.43,0,0,1,.2.83l-1.61.4Z"/><path class="cls-11" d="M91.31,222.94a.44.44,0,0,1-.42-.32.43.43,0,0,1,.31-.51l1.62-.4a.42.42,0,0,1,.51.31.42.42,0,0,1-.31.51l-1.61.4Z"/><path class="cls-11" d="M93.21,223.65a.43.43,0,0,1-.41-.32.41.41,0,0,1,.31-.51l1.61-.4a.42.42,0,1,1,.2.82l-1.61.4Z"/><path class="cls-2" d="M76.57,181.37c-.74,12.32-1.64,28.81-1.64,28.81l11.45-.13a401.9,401.9,0,0,0,8.5-47.79L79.22,123.38l-17.9,8.12,18.39,36h.06A37.93,37.93,0,0,0,76.57,181.37Z"/><path class="cls-6" d="M75.48,206.3H86.77a.4.4,0,0,0,.4-.4.39.39,0,0,0-.4-.39H75.48a.38.38,0,0,0-.39.39A.39.39,0,0,0,75.48,206.3Z"/><path class="cls-6" d="M90,164.46a6.93,6.93,0,0,0,4.68-1.84.4.4,0,0,0,0-.56.38.38,0,0,0-.55,0,6.35,6.35,0,0,1-4.3,1.6.39.39,0,0,0-.4.38.38.38,0,0,0,.38.4Z"/><path class="cls-6" d="M77,206.3a.39.39,0,0,0,.39-.37c0-.18,1.46-18.37,1.7-24.55s3.29-14.67,3.32-14.76a.4.4,0,0,0,0-.32c-4.09-7.75-16.54-32.88-16.67-33.14a.4.4,0,0,0-.71.35c.13.26,12.43,25.08,16.6,33-.43,1.23-3.09,9.07-3.31,14.83-.24,6.17-1.68,24.34-1.69,24.52a.38.38,0,0,0,.36.42Z"/><path class="cls-2" d="M52.7,166.42h2.66A6.9,6.9,0,0,0,62.25,160c1-14.48-.46-37.06-.46-37.06l-17.93-1.61s.15,4.34.79,16.62c.29,5.55.76,14.52,1.15,21.92A6.91,6.91,0,0,0,52.7,166.42Z"/><path class="cls-2" d="M80,117.36s1,13.63-7.55,14.93c-6,.92-21,.52-27.76-3.71-4.81-3,.13-16.36.13-16.36Z"/><path class="cls-6" d="M80.54,128a.41.41,0,0,0,.39-.3.39.39,0,0,0-.29-.47h0a4.67,4.67,0,0,1-2.7-2.07,5,5,0,0,1,0-4.1.39.39,0,0,0-.24-.5.4.4,0,0,0-.51.24,5.69,5.69,0,0,0,.08,4.74,5.34,5.34,0,0,0,3.2,2.45Z"/><path class="cls-6" d="M46,126.66a8.56,8.56,0,0,0,7-3.51,12.71,12.71,0,0,0,2.13-4.41.38.38,0,0,0-.3-.47.39.39,0,0,0-.47.29h0a12,12,0,0,1-2,4.13,7.84,7.84,0,0,1-8,3,.4.4,0,0,0-.45.33.39.39,0,0,0,.32.45A10.85,10.85,0,0,0,46,126.66Z"/><path class="cls-9" d="M46.66,130.34a4,4,0,0,1-.83-.09,3.53,3.53,0,0,1-2.51-1.88c-2.41-4.5,2-15.42,2.17-15.88a.46.46,0,1,1,.86.35c0,.11-4.42,11-2.21,15.09A2.59,2.59,0,0,0,46,129.34c3,.62,5.59-3.3,7.2-6.7a50.47,50.47,0,0,0,2.85-7.87.48.48,0,0,1,.57-.34A.46.46,0,0,1,57,115C56.8,115.65,53,130.34,46.66,130.34Z"/><path class="cls-6" d="M62.45,133a.45.45,0,0,0,.19-.05,20.53,20.53,0,0,0,7-7.45.4.4,0,0,0-.7-.37,20.21,20.21,0,0,1-6.69,7.14.39.39,0,0,0,.2.73Z"/><path class="cls-7" d="M81.11,63.05s6.22-11.27-9.89-13.91C58,47,57.09,56.16,58.65,60.22S75.36,66.73,81.11,63.05Z"/><path class="cls-7" d="M69.61,56.94s-10.07.71-14.07,2.94c-5.4,3-5.8,21.85-7.67,30s-6,22-5.16,25.71,30.94,7.61,37,5.45c3.22-1.15,1.11-23.08,3.91-32.2s5.86-15.2,5.44-19.28c-.34-3.3-9.74-8.33-9.74-8.33Z"/><path class="cls-18" d="M64.38,72.78l-1.15,6.11s11,1.63,15.06,2.14l.9-6.11Z"/><path class="cls-18" d="M78.81,65.07l.1,0a5.19,5.19,0,0,0,2.6-2.39.31.31,0,1,0-.56-.28h0a4.61,4.61,0,0,1-2.25,2.08.31.31,0,0,0,.11.61Z"/><path class="cls-18" d="M65.5,89.62a25.08,25.08,0,0,0,12-3,20.11,20.11,0,0,0,5.29-4,.31.31,0,1,0-.47-.41,19.78,19.78,0,0,1-5.14,3.86A24.79,24.79,0,0,1,62.23,88.8a.31.31,0,1,0-.07.62A27.78,27.78,0,0,0,65.5,89.62Z"/><path class="cls-18" d="M83.17,91.11a.32.32,0,0,0,.3-.23c0-.11,3.4-11.62,5.26-16.23a.31.31,0,0,0-.17-.41.33.33,0,0,0-.41.18c-1.87,4.64-5.25,16.17-5.28,16.29a.3.3,0,0,0,.21.38Z"/><path class="cls-18" d="M46,113.78a68.71,68.71,0,0,1,3.74-20.72c3-9.08,3.81-22.8,3.82-22.94a.32.32,0,0,1,.33-.3.32.32,0,0,1,.3.34c0,.14-.8,13.94-3.85,23.1a68.31,68.31,0,0,0-3.7,20.52Z"/><path class="cls-18" d="M71.78,118.71a38.22,38.22,0,0,0,8.94-.83.31.31,0,1,0-.16-.6,40.84,40.84,0,0,1-10,.8,87,87,0,0,1-27.45-5.49.32.32,0,0,0-.4.19.32.32,0,0,0,.19.4,87.42,87.42,0,0,0,27.68,5.52Z"/><path class="cls-18" d="M59.13,103.13a25.61,25.61,0,0,0,10.78-2.75,43.5,43.5,0,0,0,7.86-4.82.33.33,0,0,0,0-.46.34.34,0,0,0-.47,0,41.84,41.84,0,0,1-7.73,4.74c-4.08,1.93-10.06,3.81-15.33,1.86a.33.33,0,0,0-.42.2.32.32,0,0,0,.19.42A14.62,14.62,0,0,0,59.13,103.13Z"/><path class="cls-18" d="M59.78,108.73a20.26,20.26,0,0,0,8.34-1.83,18.54,18.54,0,0,0,4.14-2.5.33.33,0,0,0,0-.46.32.32,0,0,0-.46,0,19.88,19.88,0,0,1-14.29,4,.33.33,0,0,0-.36.29.31.31,0,0,0,.28.36A18.73,18.73,0,0,0,59.78,108.73Z"/><path class="cls-18" d="M73.32,65.42a9.38,9.38,0,0,0,5.37-2,.32.32,0,0,0,0-.46.33.33,0,0,0-.46,0,8.5,8.5,0,0,1-5.7,1.78,6.62,6.62,0,0,1-4.51-3,.33.33,0,1,0-.53.39,7.27,7.27,0,0,0,5,3.25A7.86,7.86,0,0,0,73.32,65.42Z"/><path class="cls-4" d="M83,48.55s3.51,1.87,4.39-1.51A3,3,0,0,0,90,44.22a1.87,1.87,0,0,0-1.8-2s2.48-2.83,0-4.37c0,0,1.82-2.3.27-3.73s-4,.16-4,.16.55-2.24-1.53-2.67-3.26,1.9-3.26,1.9-.91-2.48-2.84-2.08-2.53,2.9-2.53,2.9a4.62,4.62,0,0,0-4.6.16A2.37,2.37,0,0,0,69,38s-2.44-.1-3.18,1.29S67.61,42,67.61,42s-1.75,2-.12,3.39a5.3,5.3,0,0,0,3.91,1Z"/><path class="cls-23" d="M81.58,48.76s1.35-2.36,3.29-1.34.54,7.91-3.35,6.85Z"/><path class="cls-22" d="M68.47,58.68s-.72.73,2.8,2.78a8.39,8.39,0,0,0,5.81.82A7.68,7.68,0,0,0,78,62a10.77,10.77,0,0,1,1.41-5.18l.06-.09-8.57-7.54Z"/><path class="cls-4" d="M71.25,53.41s.64,7.15,5.83,8.87A7.68,7.68,0,0,0,78,62a10.77,10.77,0,0,1,1.41-5.18Z"/><path class="cls-22" d="M74.18,57.83c3.87,1.84,7.56.91,8.85-2.48.31-.82.66-2,1-3.3v0c.08-.27.15-.55.22-.82l.15-.59c.58-2.27,1-4.34,1-4.34.85-5.78-4.19-9.3-9.2-8.3s-5,8.29-5.89,11.64A6.89,6.89,0,0,0,74.18,57.83Z"/><path class="cls-4" d="M78.76,48.78a.24.24,0,0,1-.16-.21s-.11-.81-.63-1a1.44,1.44,0,0,0-1.06.18.26.26,0,0,1-.36-.06.26.26,0,0,1,.06-.37,1.93,1.93,0,0,1,1.5-.25c.86.23,1,1.34,1,1.39a.27.27,0,0,1-.23.29A.19.19,0,0,1,78.76,48.78Z"/><path class="cls-4" d="M81.68,49.39h0a.27.27,0,0,1-.13-.35s.43-.92,1.21-.89a1.65,1.65,0,0,1,1.18.61.26.26,0,0,1-.05.37.27.27,0,0,1-.36-.05,1.19,1.19,0,0,0-.79-.41c-.43,0-.71.58-.71.59A.26.26,0,0,1,81.68,49.39Z"/><path class="cls-9" d="M76.51,50.85s0,2.35,1.63,3.26c1.87,1,3.11-1.33,3.11-1.33Z"/><path class="cls-4" d="M77.13,45.56c-1.22-.06-1.22-1.38,0-1.74a3.1,3.1,0,0,1,1.67-.14c1.53.39,1.29,1.47.41,1.71A8.3,8.3,0,0,1,77.13,45.56Z"/><path class="cls-4" d="M83.83,46.69c1.15.42,1.66-.8.68-1.61A3.22,3.22,0,0,0,83,44.3c-1.56-.22-1.76.87-1,1.42A8.16,8.16,0,0,0,83.83,46.69Z"/><path class="cls-23" d="M83.56,52l.47.06v0c.08-.27.15-.55.22-.82l.15-.59-.57-.14c-1-.19-2,0-2,.41S82.51,51.8,83.56,52Z"/><path class="cls-4" d="M80,51.43h.1c1.09-.39,1.35-.67,1.39-.73a.15.15,0,0,0,0-.17l-.79-2.36v0a3.47,3.47,0,0,1,.11-1.93.19.19,0,0,0-.14-.23.19.19,0,0,0-.23.14,3.81,3.81,0,0,0-.09,2.17l.76,2.23a5.17,5.17,0,0,1-1.15.55.19.19,0,0,0,0,.36Z"/><path class="cls-23" d="M73.08,48.39c-.08.42.71.92,1.75,1.11s2,0,2-.41-.7-.91-1.75-1.11S73.16,48,73.08,48.39Z"/><path class="cls-4" d="M71.45,43.69a2,2,0,0,0,0,.22s.84.58.8,2.51l1.24.27a9.24,9.24,0,0,0,1-4,2.38,2.38,0,0,1,.13-.6c.82-2.18,5.26-3.19,7.84-2a5.5,5.5,0,0,1,3,4.27,9.7,9.7,0,0,1-.18,2.23,7,7,0,0,0-.19-5.94c-2-4-7.73-5.32-10.89-2.64A7.26,7.26,0,0,0,71.45,43.69Z"/><path class="cls-23" d="M71.45,43.69a2,2,0,0,0,0,.22s.84.58.8,2.51l1.24.27a9.24,9.24,0,0,0,1-4,2.38,2.38,0,0,1,.13-.6Z"/><path class="cls-4" d="M76.89,40.19s2.26-.26,3.15.4,2.19,1.54,3.48,1,1.91,2.15,1.91,2.15-.28-4.48-3.9-4.53S78,38.9,76.89,40.19Z"/><path class="cls-23" d="M78.45,55.19h.17a.21.21,0,0,0,.2-.23.22.22,0,0,0-.24-.2,1.44,1.44,0,0,1-1.25-.63.22.22,0,0,0-.37.23A1.83,1.83,0,0,0,78.45,55.19Z"/><path class="cls-22" d="M72.36,45.23a2.53,2.53,0,0,0-2.84-1.76c-2.15.42-2.79,7.42,1.24,7.52Z"/><path class="cls-4" d="M70.61,48.41h0a.2.2,0,0,0,.19-.2,3.45,3.45,0,0,0-1.79-2.92.19.19,0,0,0-.25.1.19.19,0,0,0,.1.25,3.1,3.1,0,0,1,1.56,2.59A.17.17,0,0,0,70.61,48.41Z"/><path class="cls-4" d="M69.13,47.39a.32.32,0,0,0,.14,0,11,11,0,0,1,1-.58.18.18,0,0,0,.07-.25.18.18,0,0,0-.25-.08c-.53.29-1,.58-1,.59a.18.18,0,0,0,0,.26A.18.18,0,0,0,69.13,47.39Z"/><path class="cls-6" d="M48.8,165.21c-.65-11.53-1.15-32.29-1.16-32.52a.4.4,0,0,1,.79,0c0,.23.53,21.63,1.19,33Z"/><path class="cls-9" d="M71.67,105.39a.29.29,0,0,0,.28-.18C75.25,98.08,76.75,87,77.43,79c.73-8.69.69-15.79.69-15.87a.31.31,0,0,0-.31-.31h0a.33.33,0,0,0-.31.32c0,.28.14,28.34-6.1,41.85a.3.3,0,0,0,.15.41A.28.28,0,0,0,71.67,105.39Z"/><path class="cls-9" d="M59,105.17a.3.3,0,0,0,.29-.2c5.46-15.45,9.13-43,9.17-43.33a.31.31,0,1,0-.62-.08c0,.28-3.7,27.81-9.14,43.2a.32.32,0,0,0,.19.4Z"/><path class="cls-5" d="M155.75,116.86l0,.1.05.11.1.23.21.46.43.94c.29.62.58,1.24.89,1.86.6,1.24,1.23,2.45,1.87,3.64.33.6.66,1.18,1,1.76s.67,1.13,1,1.67.69,1.05,1,1.53c.17.24.34.46.51.68s.32.4.47.57l.35.38s.06.06.06.07,0,0,0,0l.15.09a8.81,8.81,0,0,0,1.3.71,19,19,0,0,0,3.32,1.11c1.24.3,2.59.55,4,.8s2.87.5,4.36.78a4.24,4.24,0,0,1-1.3,8.37h0c-1.36-.16-2.75-.28-4.2-.42s-3-.26-4.54-.49a28.64,28.64,0,0,1-5-1.13,18.63,18.63,0,0,1-2.63-1.07l-.33-.17-.48-.28c-.3-.19-.58-.38-.82-.56-.48-.37-.88-.72-1.25-1.06s-.7-.68-1-1-.61-.65-.88-1c-.56-.65-1.07-1.29-1.55-1.92s-1-1.27-1.4-1.91-.89-1.26-1.32-1.9c-.85-1.27-1.66-2.54-2.46-3.82-.4-.64-.79-1.28-1.18-1.93l-.57-1-.29-.5-.15-.25-.15-.27-.18-.31a5.86,5.86,0,0,1,10.18-5.8A6.46,6.46,0,0,1,155.75,116.86Z"/><path class="cls-14" d="M160.89,133.35a.29.29,0,0,1-.18-.07.26.26,0,0,1,0-.36,10,10,0,0,1,2.93-2.06.25.25,0,0,1,.33.14.24.24,0,0,1-.13.33,9.48,9.48,0,0,0-2.76,1.94A.27.27,0,0,1,160.89,133.35Z"/><path class="cls-14" d="M161.18,131.78a.26.26,0,0,1,0-.51,9.78,9.78,0,0,1,2.05-.15.26.26,0,0,1,.23.28.25.25,0,0,1-.27.23,9.41,9.41,0,0,0-1.92.14Z"/><path class="cls-5" d="M177.3,134.47a9.63,9.63,0,0,1,6.83,5.27c1.45,3.28,3.45,10.21,1.6,9.7S179,141,175.59,141.69,177.3,134.47,177.3,134.47Z"/><path class="cls-24" d="M146.08,112.79l.92,15.33,7.3-8,.3-.31,2.69-2.71s-2.2-5.06-3.93-9.34c-.06-.16-.12-.31-.19-.46s-.22-.57-.33-.84a19.63,19.63,0,0,0-4.51-6.94Z"/><path class="cls-15" d="M125.45,198.6h27.14l-25.35-9.71a.29.29,0,0,1-.16-.36.28.28,0,0,1,.36-.16L153,198.15l-19.34-19.33a.28.28,0,0,1,.4-.4l19.41,19.41L143,172.27a.29.29,0,0,1,.15-.37.28.28,0,0,1,.36.16l10.29,25.21v-27a.28.28,0,0,1,.56,0v27.14L164.09,172a.29.29,0,0,1,.36-.16.28.28,0,0,1,.16.36l-9.78,25.54,19.33-19.34a.28.28,0,0,1,.4.4l-19,19,24.94-10.18a.28.28,0,0,1,.36.15.28.28,0,0,1-.15.37L155.07,198.6h27.68a.28.28,0,0,1,0,.56H155.61L181,208.87a.29.29,0,0,1,.16.36.28.28,0,0,1-.26.18l-.1,0-25.54-9.78,19.34,19.33a.28.28,0,0,1,0,.4.29.29,0,0,1-.4,0L155,200.18l10.17,24.94a.27.27,0,0,1-.15.36.22.22,0,0,1-.11,0,.26.26,0,0,1-.25-.17l-10.29-25.21v27.41a.28.28,0,0,1-.56,0V200.39l-9.71,25.35a.28.28,0,0,1-.26.18l-.1,0a.29.29,0,0,1-.16-.36L153.37,200,134,219.34a.29.29,0,0,1-.4,0,.28.28,0,0,1,0-.4l19.6-19.59-25.57,10.43-.1,0a.28.28,0,0,1-.26-.18.28.28,0,0,1,.15-.36l24.76-10.1H125.45a.28.28,0,1,1,0-.56Z"/><path class="cls-21" d="M131.61,221.37a31.82,31.82,0,1,1,22.49,9.31A31.64,31.64,0,0,1,131.61,221.37Zm-5.29-22.49A27.78,27.78,0,1,0,154.1,171.1,27.81,27.81,0,0,0,126.32,198.88Z"/><circle class="cls-16" cx="154.1" cy="198.88" r="4.48" transform="translate(-95.49 167.22) rotate(-45)"/><circle class="cls-4" cx="154.1" cy="198.88" r="2.48"/><path class="cls-15" d="M153.48,200.37a1,1,0,0,0,.24,0,1.2,1.2,0,0,0,.94-1.42l-18.73-93.09a1.21,1.21,0,0,0-1.18-1H119.31a1.21,1.21,0,0,0,0,2.42h14.45L152.3,199.4A1.2,1.2,0,0,0,153.48,200.37Z"/><path class="cls-15" d="M205.13,226.92a1.21,1.21,0,0,0,1.21-1.21V217a.92.92,0,0,0,0-.29l-12-47.66a1.21,1.21,0,0,0-1.17-.91H129.3a1.21,1.21,0,0,0,0,2.41h62.93l11.7,46.6v8.55A1.21,1.21,0,0,0,205.13,226.92Z"/><circle class="cls-15" cx="205.4" cy="226.66" r="5.14" transform="translate(-100.11 211.62) rotate(-45)"/><path class="cls-4" d="M203,226.66a2.36,2.36,0,1,0,2.36-2.36A2.36,2.36,0,0,0,203,226.66Z"/><path class="cls-8" d="M171.24,139H126.61c-.9,0-1.63.55-1.63,1.23v22.83c0,.68.73,1.23,1.63,1.23h44.63a1.46,1.46,0,0,0,1.62-1.23V140.26A1.46,1.46,0,0,0,171.24,139Z"/><path class="cls-15" d="M122.69,140.24h52.47a1.21,1.21,0,0,0,0-2.41H122.69a1.21,1.21,0,1,0,0,2.41Z"/><path class="cls-8" d="M116.58,106.05a88.43,88.43,0,0,0-10.65-.14c-3.35.35-2.16.55-1.61,5.76s8.35,41.45,8.35,41.45h13.27Z"/><polygon class="cls-5" points="186.51 183.57 189.46 192.46 196.54 190.65 194.62 180.21 186.51 183.57"/><path class="cls-25" d="M216.11,195.63l-24.75,8.2a3.74,3.74,0,0,1-.78-1.27c-.84-2-1.28-5.6-1.65-7.81-.05-.26-.09-.5-.13-.72a8,8,0,0,0-.21-.89,1.33,1.33,0,0,1,1-1.92c3.31,1.62,4.93-3,7-2.34,0,0,.88.27,3.43,1.39s6.28,1.18,9.51,1.42c4.18.32,5.73,1.51,6.29,2.5A2.07,2.07,0,0,1,216.11,195.63Z"/><path class="cls-15" d="M216.11,195.63l-24.75,8.2a3.74,3.74,0,0,1-.78-1.27l25.28-8.37A2.07,2.07,0,0,1,216.11,195.63Z"/><path class="cls-11" d="M193.89,203l-.74.25a5.71,5.71,0,0,0,0-4.41,7.35,7.35,0,0,0-4.24-4.08c-.05-.26-.09-.5-.13-.72a8,8,0,0,1,4.95,4.58A6.28,6.28,0,0,1,193.89,203Z"/><path class="cls-15" d="M200.12,191.87a.43.43,0,0,1-.36-.77l1.42-.9a.44.44,0,0,1,.59.14.42.42,0,0,1-.13.59l-1.42.89Z"/><path class="cls-15" d="M198.32,191.14a.43.43,0,0,1-.37-.77l1.42-.9a.43.43,0,0,1,.59.14.42.42,0,0,1-.13.59l-1.42.9Z"/><path class="cls-15" d="M202,192.26a.44.44,0,0,1-.37-.78l1.42-.89a.42.42,0,0,1,.59.13.44.44,0,0,1-.13.6l-1.42.89Z"/><path class="cls-15" d="M203.8,192.61a.43.43,0,0,1-.5-.18.42.42,0,0,1,.13-.59l1.42-.9a.42.42,0,0,1,.59.13.44.44,0,0,1-.13.6l-1.42.89Z"/><path class="cls-15" d="M205.75,192.85a.43.43,0,0,1-.5-.18.42.42,0,0,1,.13-.59l1.42-.9a.42.42,0,0,1,.59.13.43.43,0,0,1-.13.6l-1.42.89Z"/><path class="cls-15" d="M207.8,192.92a.43.43,0,0,1-.5-.17.45.45,0,0,1,.14-.6l1.42-.89a.42.42,0,0,1,.59.13.43.43,0,0,1-.14.59l-1.41.9Z"/><path class="cls-13" d="M128.11,148.55s-.7,14.35,10.62,15.89,35.93-6.18,38.19-10.31c0,0-3.35,4.05-.15,10.15,3.74,7.12,11.31,24,11.31,24L196,186s-8-43.42-13.86-44.58-34.64.36-34.64.36S132.17,145,128.11,148.55Z"/><path class="cls-6" d="M188.3,184.81a.4.4,0,0,1-.48-.21c-2.71-5.76-9.07-25.78-9.14-26a.41.41,0,0,1,.27-.51h0a.41.41,0,0,1,.5.27c.07.2,6.41,20.17,9.1,25.87a.4.4,0,0,1-.19.54Z"/><path class="cls-6" d="M195.1,183l-7.89,2.45a.39.39,0,0,1-.5-.26.4.4,0,0,1,.26-.51l7.89-2.45a.41.41,0,0,1,.51.26A.42.42,0,0,1,195.1,183Z"/><polygon class="cls-5" points="175.76 186.83 178.71 195.72 185.79 193.9 183.87 183.46 175.76 186.83"/><polygon class="cls-21" points="216.14 195.17 171.91 208.41 173.2 213.86 216.66 200.17 216.14 195.17"/><path class="cls-25" d="M205.36,198.89l-24.75,8.19a3.69,3.69,0,0,1-.78-1.26c-.85-2-1.28-5.61-1.66-7.82q-.06-.39-.12-.72a7.73,7.73,0,0,0-.21-.88,1.33,1.33,0,0,1,1-1.93c3.31,1.63,4.93-3,7-2.34,0,0,.89.28,3.44,1.4s6.27,1.17,9.51,1.42c4.18.32,5.73,1.51,6.29,2.49A2.1,2.1,0,0,1,205.36,198.89Z"/><path class="cls-15" d="M205.36,198.89l-24.75,8.19a3.69,3.69,0,0,1-.78-1.26l25.28-8.38A2.1,2.1,0,0,1,205.36,198.89Z"/><path class="cls-15" d="M183.14,206.25l-.74.24a5.69,5.69,0,0,0,0-4.4,7.33,7.33,0,0,0-4.25-4.09q-.06-.39-.12-.72a8,8,0,0,1,4.95,4.58A6.37,6.37,0,0,1,183.14,206.25Z"/><path class="cls-15" d="M189.37,195.12a.43.43,0,0,1-.5-.17.45.45,0,0,1,.14-.6l1.42-.89a.42.42,0,0,1,.59.13.42.42,0,0,1-.14.59l-1.41.9Z"/><path class="cls-15" d="M187.56,194.39a.41.41,0,0,1-.49-.17.43.43,0,0,1,.13-.6l1.42-.89a.43.43,0,0,1,.46.72l-1.42.9Z"/><path class="cls-15" d="M191.21,195.51a.42.42,0,0,1-.49-.18.42.42,0,0,1,.13-.59l1.42-.9a.43.43,0,0,1,.59.14.42.42,0,0,1-.13.59l-1.42.9Z"/><path class="cls-15" d="M193.05,195.86a.43.43,0,0,1-.5-.18.42.42,0,0,1,.13-.59l1.42-.9a.43.43,0,0,1,.59.14.42.42,0,0,1-.13.59l-1.42.9Z"/><path class="cls-15" d="M195,196.1a.43.43,0,0,1-.5-.18.42.42,0,0,1,.13-.59l1.42-.89a.43.43,0,1,1,.46.72l-1.42.9Z"/><path class="cls-15" d="M197.05,196.18a.43.43,0,0,1-.36-.77l1.41-.9a.43.43,0,0,1,.6.13.45.45,0,0,1-.14.6l-1.42.89Z"/><path class="cls-13" d="M117.34,153.34s-.76,15.36,10.56,16.9,35.65-4.92,37.91-9.05a32.39,32.39,0,0,0,3.5,12.05,169.53,169.53,0,0,1,7.57,17.91l8-2.49s-3.78-40.5-9.65-41.66-38.77,3.51-38.77,3.51S121.41,149.75,117.34,153.34Z"/><path class="cls-6" d="M184.16,178.25h-.06a.4.4,0,0,1-.46-.34c0-.08-1.1-7.82-2.62-15.66-2.73-14.15-4.48-16.36-5.1-16.65-4.21-2-27.74,1.45-28,1.49a.4.4,0,0,1-.46-.35.39.39,0,0,1,.34-.45c1-.15,24-3.5,28.43-1.43.6.29,1.57,1.22,3,6.07.82,2.79,1.68,6.55,2.58,11.17,1.52,7.86,2.61,15.62,2.62,15.7A.4.4,0,0,1,184.16,178.25Z"/><path class="cls-6" d="M184.16,186.76l-7.64,2.38a.41.41,0,1,1-.24-.78l7.64-2.37a.41.41,0,0,1,.51.26A.42.42,0,0,1,184.16,186.76Z"/><path class="cls-6" d="M178,188.67a.4.4,0,0,1-.49-.24c-.05-.13-5.47-13.72-7.51-18a39.4,39.4,0,0,1-3.29-12.13c-8.49,6.34-35.28,14.85-41.78,10.82-2.72-1.69-4.62-4.89-5.5-9.26a26.3,26.3,0,0,1-.51-6.11.4.4,0,0,1,.42-.39.41.41,0,0,1,.38.43c0,.11-.5,10.84,5.63,14.64,2.77,1.72,10.29,1.05,20.11-1.78,9.07-2.61,17.64-6.41,21.33-9.44a.4.4,0,0,1,.42-.05.39.39,0,0,1,.24.34,38.41,38.41,0,0,0,3.28,12.58c2.06,4.33,7.48,17.94,7.53,18.08a.4.4,0,0,1-.23.52Z"/><path class="cls-24" d="M149.8,110.31c-.07.76-.15,1.56-.23,2.39s-.19,1.92-.27,2.94c-.07.77-.13,1.55-.19,2.37q-.06.88-.12,1.83c0,.26,0,.51,0,.75,0,.86-.11,1.64-.16,2.36-.46,6.55-.69,8.06,2.8,18.85.66,2,0,3.84-4.56,6.46a4.21,4.21,0,0,1-1.13.44c-1.48.34-4.26,1.1-6.48,1.48a25.93,25.93,0,0,0-10.71,4.87,13.24,13.24,0,0,1-4,2l-.63.19c-3.17.75-6.11.12-6.52-.7-1.69-3.4-4.19-19.78-4.32-28s-3.18-23.28,1.29-27.47c3.32-3.1,14-7.66,14-7.66l8.57.83s11.57,4,12.69,7C150.72,103.63,150.24,105.81,149.8,110.31Z"/><path class="cls-5" d="M137.48,93.68,137,96.05a6.64,6.64,0,0,1-.95.43c-4.57,1.72-8.44-2.16-8.44-2.16l1.51-8.22,7.33,6.67Z"/><path class="cls-4" d="M137.48,93.68,137,96.05a6.64,6.64,0,0,1-.95.43c-3.24-2-5.12-6.18-5.12-6.18l5.52,2.47Z"/><path class="cls-4" d="M128.26,77.72s-2.65.38-2.66,1.94a1.47,1.47,0,0,0,1.28,1.59s-3,1.66-2.12,3a1.9,1.9,0,0,0,2.13.9s-2,3-.23,4.05,4.77-1.68,4.77-1.68S132.9,78.2,128.26,77.72Z"/><path class="cls-4" d="M142.3,74.24s4.38,2,2,5.45C144.3,79.69,141.88,75.78,142.3,74.24Z"/><path class="cls-14" d="M142.38,83.72s1.64-1.34,2.11.39-.71,4.84-2.66,3.94Z"/><path class="cls-9" d="M145.65,83.64a.3.3,0,0,1-.16,0,3.45,3.45,0,0,0-1.49-.43.28.28,0,0,1-.26-.3.27.27,0,0,1,.3-.26,4.05,4.05,0,0,1,1.78.53.28.28,0,0,1,.06.39A.28.28,0,0,1,145.65,83.64Z"/><path class="cls-5" d="M142.79,89.56s-.9,4.91-6,4S129,88,128.86,87.74h0l.13-1,.7-5.4.38-2.89s.3-5.26,5.36-5.3c3.7,0,6.94,1.19,8.29,3.36a4.38,4.38,0,0,1,.64,2.79l-.78,5.16-.2,1.27Z"/><path class="cls-4" d="M143,81.08c1.16.27,1.52-1,.47-1.65a3.07,3.07,0,0,0-1.54-.58c-1.54,0-1.6,1.05-.84,1.5A8.31,8.31,0,0,0,143,81.08Z"/><path class="cls-14" d="M136.81,83.82c-.07.35-.86.51-1.76.34s-1.59-.59-1.53-1,.86-.51,1.77-.34S136.87,83.46,136.81,83.82Z"/><path class="cls-14" d="M143.38,85.68l-.4-.06c-.9-.16-1.58-.59-1.52-1s.86-.51,1.76-.34l.36.08Z"/><path class="cls-9" d="M143.2,85.84a3.05,3.05,0,1,1,3.06-3A3,3,0,0,1,143.2,85.84Zm0-5.65a2.6,2.6,0,1,0,2.59,2.61A2.61,2.61,0,0,0,143.22,80.19Z"/><path class="cls-4" d="M140.49,84.62a6.14,6.14,0,0,1-.93,0,.17.17,0,0,1-.17-.18.17.17,0,0,1,.18-.17,4.28,4.28,0,0,0,1.13-.09l-1.09-1.28a.15.15,0,0,1,0-.14l.16-1.08a.17.17,0,0,1,.2-.14.17.17,0,0,1,.15.2l-.15,1,1.21,1.43a.17.17,0,0,1,0,.14.18.18,0,0,1-.09.13A2.72,2.72,0,0,1,140.49,84.62Z"/><path class="cls-4" d="M136.41,80.32c-1.19.14-1.4-1.14-.29-1.69a3.09,3.09,0,0,1,1.6-.4c1.53.14,1.48,1.22.67,1.59A8.24,8.24,0,0,1,136.41,80.32Z"/><path class="cls-9" d="M136.33,84.91a3,3,0,1,1,3.06-3A3.06,3.06,0,0,1,136.33,84.91Zm0-5.65a2.6,2.6,0,1,0,2.59,2.61A2.61,2.61,0,0,0,136.35,79.26Z"/><path class="cls-9" d="M140.31,82.7a.75.75,0,0,0-1-.17l-.24-.38a1.18,1.18,0,0,1,1.64.29Z"/><path class="cls-9" d="M133.66,81a.23.23,0,0,1-.18-.08s-.38-.36-2-.62a.23.23,0,0,1,.07-.45c1.84.31,2.21.72,2.26.8a.22.22,0,0,1-.05.31A.22.22,0,0,1,133.66,81Z"/><path class="cls-9" d="M140.93,86.9a32.65,32.65,0,0,1-4.17-1.05,2.18,2.18,0,0,0,1.61,2.36A2.16,2.16,0,0,0,140.93,86.9Z"/><path class="cls-14" d="M137.68,89.18l-.11-.09a.18.18,0,1,1,.26-.26,1.16,1.16,0,0,0,1.13.27.18.18,0,0,1,.11.35A1.5,1.5,0,0,1,137.68,89.18Z"/><path class="cls-4" d="M136.67,81.59c-.07.43.06.82.31.87s.52-.27.6-.71-.06-.83-.31-.87S136.75,81.15,136.67,81.59Z"/><path class="cls-4" d="M140.77,82.24c-.08.44.06.83.31.87s.52-.27.6-.7-.06-.83-.31-.87S140.85,81.81,140.77,82.24Z"/><path class="cls-4" d="M128.3,78.54a4.27,4.27,0,0,0,.36,2.18,3,3,0,0,1,2,2.28l1.24.4a12.64,12.64,0,0,0,.4-3.7c-.11-1.27,1.1-1.44,1.56-2.45a1.42,1.42,0,0,0,.17-.93,4.82,4.82,0,0,1,4.12,0c2.05,1.08,4,1.67,5.23.54a1.11,1.11,0,0,0,.3-.4c-1.35-2.17-4.59-3.39-8.29-3.36-5.06,0-6.61,2.2-6.61,2.2A7.42,7.42,0,0,0,128.3,78.54Z"/><path class="cls-2" d="M128.08,75.05s8.52-1.68,14.2-.83l.44.08a10.21,10.21,0,0,1,1.63.41,6.82,6.82,0,0,0-4.25-4.65,10.78,10.78,0,0,0-1.39-.46,12.73,12.73,0,0,0-2.25-.37h-.08l-.64,0a9,9,0,0,0-1.77.11l-.42.07a7.46,7.46,0,0,0-2.56,1,6.35,6.35,0,0,0-.65.47A6.22,6.22,0,0,0,128.08,75.05Z"/><path class="cls-8" d="M138.71,69.6a7.43,7.43,0,0,1,3.57,4.62c0,.14.07.28.1.43l.4-.08-.06-.27a7.77,7.77,0,0,0-2.62-4.24A10.78,10.78,0,0,0,138.71,69.6Z"/><path class="cls-8" d="M135.74,69.2a6.69,6.69,0,0,1,2.36,3.7l.4-.09a7.33,7.33,0,0,0-2-3.58h-.08Z"/><path class="cls-8" d="M133.55,69.38A5.92,5.92,0,0,0,135.12,74l.28-.31A5.58,5.58,0,0,1,134,69.31Z"/><path class="cls-8" d="M130.11,74.68l.38-.14a5.83,5.83,0,0,1,.5-4.14,6.35,6.35,0,0,0-.65.47A5.63,5.63,0,0,0,130.11,74.68Z"/><path class="cls-8" d="M144.64,76.34a21,21,0,0,0-16.31,1.36A2.57,2.57,0,0,1,128.1,75s8.19-5,16.34-.71A2,2,0,0,1,144.64,76.34Z"/><path class="cls-4" d="M130.83,86a4.62,4.62,0,0,1-2,1.7h0l.14-1A3.57,3.57,0,0,0,130.83,86Z"/><path class="cls-5" d="M130.56,82.47s-1.48-3-3.29-1.19c-1.5,1.49-.08,6.34,2.54,5.25Z"/><path class="cls-9" d="M128,85.33a.46.46,0,0,0,.9.17.46.46,0,0,0-.37-.54A.46.46,0,0,0,128,85.33Z"/><path class="cls-4" d="M129.69,85.69h0a.2.2,0,0,0,.22-.19,3.82,3.82,0,0,0-1.65-3.45.21.21,0,0,0-.28.06.22.22,0,0,0,.06.29h0a3.4,3.4,0,0,1,1.46,3.07A.21.21,0,0,0,129.69,85.69Z"/><path class="cls-4" d="M128,84.12a.23.23,0,0,0,.14,0h0a1.6,1.6,0,0,1,1.12-.21.21.21,0,1,0,.18-.37,2,2,0,0,0-1.5.22.2.2,0,0,0-.08.28A.21.21,0,0,0,128,84.12Z"/><path class="cls-11" d="M118.88,115.94c12.36.54,26.17-2.24,30.69-3.24.08-.83.16-1.63.23-2.39-3.39.78-17.93,3.92-30.82,3.36a1.14,1.14,0,1,0-.1,2.27Z"/><path class="cls-11" d="M119.15,121.09c11.76.52,24.82-2,30-3.08.06-.82.12-1.6.19-2.37-4.46,1-18,3.71-30.05,3.18a1.14,1.14,0,0,0-1.18,1.09A1.12,1.12,0,0,0,119.15,121.09Z"/><path class="cls-11" d="M119.28,125.94c11.43.5,24.11-1.84,29.51-3,.05-.72.11-1.5.16-2.36-4.87,1.06-17.91,3.59-29.58,3.08a1.14,1.14,0,1,0-.09,2.27Z"/><path class="cls-11" d="M149.19,118.52a.26.26,0,0,0,.15-.2c.06-.49,1.44-11.93-.52-16.81a.26.26,0,0,0-.33-.14.25.25,0,0,0-.14.33c1.91,4.76.5,16.44.49,16.56a.25.25,0,0,0,.22.28A.27.27,0,0,0,149.19,118.52Z"/><path class="cls-11" d="M119.39,155.38a.33.33,0,0,1-.39-.22,66.9,66.9,0,0,1-2.69-22.83c.4-9.46-2.58-22.73-2.61-22.87a.32.32,0,0,1,.24-.38.33.33,0,0,1,.38.24c0,.14,3,13.49,2.62,23A66,66,0,0,0,119.61,155a.32.32,0,0,1-.21.39Z"/><path class="cls-11" d="M128.82,139.42a25.35,25.35,0,0,0,9.71-5.21,42.29,42.29,0,0,0,6.4-6.49.33.33,0,0,0-.06-.46.32.32,0,0,0-.45.06,42,42,0,0,1-6.31,6.39c-3.46,2.83-8.76,6.06-14.29,5.44a.32.32,0,0,0-.35.29.32.32,0,0,0,.28.36A14.46,14.46,0,0,0,128.82,139.42Z"/><path class="cls-11" d="M130.79,144.65a20.17,20.17,0,0,0,7.58-3.75,18.62,18.62,0,0,0,3.37-3.38.33.33,0,1,0-.53-.38,19.65,19.65,0,0,1-12.76,7.28.33.33,0,0,0-.29.36.32.32,0,0,0,.36.28A17.57,17.57,0,0,0,130.79,144.65Z"/><path class="cls-24" d="M134.66,105.05a9.23,9.23,0,0,0,4.68-3.18.32.32,0,0,0-.52-.38,8.42,8.42,0,0,1-5.06,3.06,6.54,6.54,0,0,1-5-1.79.33.33,0,0,0-.46,0,.34.34,0,0,0,0,.46,7.22,7.22,0,0,0,5.54,1.94A5.64,5.64,0,0,0,134.66,105.05Z"/><path class="cls-9" d="M136.29,102.55a1.83,1.83,0,0,0,.33,0,2.84,2.84,0,0,0,2.24-1.35c1.37-2.27-.23-6.48-.3-6.65a.27.27,0,0,0-.36-.16.26.26,0,0,0-.15.35s1.57,4.14.34,6.18a2.3,2.3,0,0,1-1.84,1.09c-3.58.43-9.34-7.73-9.39-7.81a.29.29,0,0,0-.39-.07.28.28,0,0,0-.06.39C126.94,94.83,132.4,102.55,136.29,102.55Z"/><path class="cls-2" d="M104.73,144.31v24.33a1.49,1.49,0,0,0,1.62,1.31H151a1.5,1.5,0,0,0,1.63-1.31V144.31a1.12,1.12,0,0,0-.36-.81A1.77,1.77,0,0,0,151,143H106.35a1.53,1.53,0,0,0-1.61,1.15A.76.76,0,0,0,104.73,144.31Z"/><path class="cls-13" d="M104.73,144.31v3.88l47.88-2.34v-1.54a1.12,1.12,0,0,0-.36-.81l-47.51.66A.76.76,0,0,0,104.73,144.31Z"/><path class="cls-15" d="M103,145H155.5a1.21,1.21,0,0,0,0-2.42H103a1.21,1.21,0,1,0,0,2.42Z"/><path class="cls-15" d="M176.68,229a1.21,1.21,0,0,0,1.21-1.21v-7.19a1.35,1.35,0,0,0,0-.29L165,169.06a1.21,1.21,0,0,0-1.17-.91H99.94a1.21,1.21,0,0,0,0,2.41h62.93l12.6,50.21v7A1.21,1.21,0,0,0,176.68,229Z"/><circle class="cls-15" cx="176.68" cy="227.39" r="5.14" transform="translate(-34.14 31.24) rotate(-9.22)"/><path class="cls-4" d="M174.33,227.39a2.35,2.35,0,1,0,2.35-2.35A2.35,2.35,0,0,0,174.33,227.39Z"/><path class="cls-15" d="M93.73,198.6h27.15l-25.35-9.71a.28.28,0,1,1,.2-.52l25.54,9.78-19.34-19.33a.28.28,0,0,1,0-.4.27.27,0,0,1,.39,0l19.42,19.41-10.43-25.56a.29.29,0,0,1,.15-.37.28.28,0,0,1,.36.16l10.29,25.21v-27a.27.27,0,0,1,.28-.28.28.28,0,0,1,.28.28v27.14L132.38,172a.28.28,0,0,1,.36-.16.29.29,0,0,1,.16.36l-9.78,25.54,19.33-19.34a.28.28,0,0,1,.4.4l-19,19,24.93-10.18a.28.28,0,0,1,.37.15.28.28,0,0,1-.16.37L123.35,198.6H151a.28.28,0,1,1,0,.56H123.9l25.35,9.71a.29.29,0,0,1,.16.36.29.29,0,0,1-.26.18l-.1,0-25.54-9.78,19.34,19.33a.28.28,0,0,1,0,.4.29.29,0,0,1-.4,0L123.3,200.18l10.17,24.94a.27.27,0,0,1-.15.36.22.22,0,0,1-.11,0,.28.28,0,0,1-.26-.17l-10.28-25.21v27.41a.28.28,0,0,1-.28.28.27.27,0,0,1-.28-.28V200.39l-9.71,25.35a.28.28,0,0,1-.26.18l-.1,0a.28.28,0,0,1-.16-.36L121.66,200l-19.34,19.34a.27.27,0,0,1-.19.08.3.3,0,0,1-.2-.08.28.28,0,0,1,0-.4l19.6-19.59L96,209.78l-.1,0a.28.28,0,0,1-.26-.18.28.28,0,0,1,.15-.36l24.76-10.1H93.73a.28.28,0,0,1,0-.56Z"/><path class="cls-16" d="M99.9,221.37a31.82,31.82,0,1,1,22.49,9.31A31.6,31.6,0,0,1,99.9,221.37Zm-5.29-22.49a27.78,27.78,0,1,0,27.78-27.78A27.81,27.81,0,0,0,94.61,198.88Z"/><circle class="cls-16" cx="122.39" cy="198.88" r="4.48" transform="translate(-99.76 126.89) rotate(-40.44)"/><circle class="cls-4" cx="122.39" cy="198.88" r="2.48"/><path class="cls-15" d="M168,221.72l-3.25.95a1.32,1.32,0,0,1-.34,0,1.17,1.17,0,0,1-.6-.16,1.2,1.2,0,0,1-.57-.75L150,169.65a1.21,1.21,0,1,1,2.34-.59L165.31,220l2-.59Z"/><path class="cls-15" d="M122.39,200.37a1,1,0,0,0,.24,0,1.21,1.21,0,0,0,.94-1.42l-18.73-93.09a1.21,1.21,0,0,0-1.18-1H88.22a1.21,1.21,0,1,0,0,2.42h14.45L121.2,199.4A1.22,1.22,0,0,0,122.39,200.37Z"/><rect class="cls-4" x="82.27" y="103.62" width="13.54" height="4.9" rx="0.65"/><path class="cls-5" d="M135.53,131l-.39.33-.36.29-.71.57c-.47.38-.95.75-1.43,1.11-1,.73-1.94,1.44-2.95,2.12a52.86,52.86,0,0,1-6.41,3.81,33.34,33.34,0,0,1-3.68,1.56,19.64,19.64,0,0,1-4.39,1,13.77,13.77,0,0,1-2.66,0,10.62,10.62,0,0,1-4.52-1.41l-.72-.47-.34-.26,0,0-.2-.16-.36-.35a5.06,5.06,0,0,1-.54-.66l-.21-.32-.17-.29-.08-.15-.06-.13a2,2,0,0,1-.11-.26l-.18-.46-.12-.4a8.57,8.57,0,0,1-.22-1.21c0-.34,0-.63,0-.88s0-.5,0-.73a19.52,19.52,0,0,1,.24-2.28c.1-.68.22-1.32.35-1.94.26-1.24.55-2.42.85-3.57.62-2.32,1.29-4.55,2-6.77s1.43-4.4,2.18-6.59c.37-1.09.75-2.17,1.13-3.26l.58-1.63.61-1.64a5.62,5.62,0,1,1,10.56,3.85c0,.07-.05.13-.07.2l0,.07-.63,1.52-.63,1.55-1.23,3.11c-.8,2.07-1.58,4.15-2.32,6.23s-1.45,4.15-2.07,6.2c-.31,1-.6,2-.84,3v.05c.38-.08.8-.18,1.22-.31a21.32,21.32,0,0,0,2.61-1,43.69,43.69,0,0,0,5.36-2.94c.89-.56,1.77-1.15,2.63-1.76l1.29-.93.62-.48.58-.44.12-.1a4.62,4.62,0,0,1,5.81,7.19Z"/><path class="cls-14" d="M111.44,134.22a.26.26,0,0,1-.19-.46,19.17,19.17,0,0,1,3.73-2,.25.25,0,0,1,.33.14.25.25,0,0,1-.14.34,19.27,19.27,0,0,0-3.6,2A.21.21,0,0,1,111.44,134.22Z"/><path class="cls-14" d="M114.84,132.24a.24.24,0,0,1-.14,0,5.32,5.32,0,0,0-2.79-.19.26.26,0,0,1-.1-.51,5.77,5.77,0,0,1,3.12.24.25.25,0,0,1,.12.34A.23.23,0,0,1,114.84,132.24Z"/><path class="cls-5" d="M131,128.59a5,5,0,0,1-.64-5.62,29.11,29.11,0,0,1,4-6c2.59-2.77,4.55-6.29,5.58-5.15.76.84-1.78,3.62-2.59,5.33,0,0,3.88-5.57,4.9-4,.55.85-1.91,3.51-3.32,5.25,0,0,1-.67,1.44-.38a1.3,1.3,0,0,1,.22,2s1.37-.57,1.22.78c-.12,1-1.12,1.26-2,3.63s-.82,3.62-2.69,4.78C135.72,130.06,132.88,130.73,131,128.59Z"/><path class="cls-5" d="M129.8,124.89s.8-5.9,2.58-6.85a4.06,4.06,0,0,1,3.27-.35Z"/><path class="cls-4" d="M128,125.34s2.21,4.76,5.68,7.15a3,3,0,0,0,1.84-1.32,19.74,19.74,0,0,1-5.83-7.34A2.78,2.78,0,0,0,128,125.34Z"/><path class="cls-4" d="M131.7,124.66c.76.94.36,2.51-.88,3.5s-2.86,1-3.62.09-.35-2.52.89-3.51S131,123.71,131.7,124.66Z"/><path class="cls-9" d="M130.44,127.68a1.63,1.63,0,1,1,.63-2.52A1.88,1.88,0,0,1,130.44,127.68Z"/><path class="cls-24" d="M106.69,119.36l3,.66.37.08h0l6.45,1.42.25,0h0l3.65.8s.46-1.14,1.06-2.88l.15-.43a52.67,52.67,0,0,0,2.37-9.4,1.8,1.8,0,0,0,0-.22,12.47,12.47,0,0,0,0-4,6.38,6.38,0,0,0-1.53-3c-.15-.17-.31-.32-.47-.47a6.74,6.74,0,0,0-.75-.57,6.52,6.52,0,0,0-7.47.22l-.34.26-.09.07a9.77,9.77,0,0,0-1.92,2.19l-.21.35a16.07,16.07,0,0,0-1.33,3.22c-.9,2.91-1.53,5-2,6.59q-.06.21-.12.39A34,34,0,0,0,106.69,119.36Z"/><path class="cls-7" d="M82.49,97l-1.64-.16q-.85-.07-1.71-.18c-1.13-.12-2.27-.28-3.4-.44s-2.26-.34-3.38-.53-2.22-.42-3.31-.66a57.09,57.09,0,0,1-6.31-1.74c-.25-.08-.5-.18-.74-.27l-.37-.13-.36-.15c-.24-.09-.49-.18-.72-.28l-.35-.16L60,92.27l-.09,0,.21.09a3,3,0,0,1,.67.4,2.76,2.76,0,0,1,.38.34c.17.18.23.27.24.27s0,0,0-.15-.06-.24-.1-.41c-.07-.33-.15-.74-.2-1.19S61,90.65,61,90.14c-.08-1-.11-2.08-.12-3.17s0-2.22.06-3.35.1-2.27.17-3.42.16-2.3.25-3.45.2-2.32.31-3.48.23-2.32.34-3.48l.38-3.43v-.09a5.92,5.92,0,0,0-11.75-1.51l-.07.49-.06.47-.13.93c-.08.61-.15,1.23-.22,1.84-.14,1.23-.26,2.47-.37,3.7s-.2,2.47-.28,3.71c0,.62-.07,1.24-.1,1.87s-.06,1.25-.08,1.87c0,1.26-.07,2.52-.07,3.79s0,2.56.1,3.87.16,2.64.33,4c.09.7.2,1.4.34,2.14s.32,1.5.57,2.33c.13.41.27.84.46,1.31a11.36,11.36,0,0,0,.7,1.48A9.54,9.54,0,0,0,53,100.34a8.85,8.85,0,0,0,1,1,7.66,7.66,0,0,0,1.44.88l.41.17.12,0,.25.08.49.18c.33.12.65.22,1,.32l.49.16.49.14c.33.1.65.19,1,.27s.65.18,1,.25l1,.23c.64.14,1.29.28,1.94.39,1.29.24,2.57.43,3.85.59s2.56.26,3.83.34,2.55.13,3.81.15,2.53,0,3.79,0l1.9-.09,1-.07.49,0,.52,0a4.1,4.1,0,0,0,0-8.17Z"/><path class="cls-18" d="M58.22,103.31s-.44-5-6.46-4.38A7.72,7.72,0,0,0,58.22,103.31Z"/><path class="cls-18" d="M82.06,97.36a.33.33,0,0,0,.3-.28.32.32,0,0,0-.28-.35C80.44,96.55,64.29,94,60.88,93c-.08-1.86-.54-15.15.39-21.38a.32.32,0,0,0-.27-.36.3.3,0,0,0-.35.26c-1,6.74-.4,21.57-.39,21.72a.29.29,0,0,0,.2.28c3,1.08,19.84,3.68,21.55,3.87Z"/><path class="cls-18" d="M60.73,75.46a.37.37,0,0,0,.21-.1l2-2a.31.31,0,0,0-.45-.44l-2,2a.32.32,0,0,0,0,.45A.36.36,0,0,0,60.73,75.46Z"/><path class="cls-22" d="M97.86,108.06c1-1-4.11-4.41-4.11-4.41l1.65,0s-1-3.78-3.71-4a29.88,29.88,0,0,1-6.32-1.5c-2.94.46-4.22,5.39-4.22,5.39l4.19,3.79s2.75,2.82,3.65,2.9,1.06-.9,1.06-.9a2.73,2.73,0,0,0,1.89.2,1.06,1.06,0,0,0,.83-1.15,3.87,3.87,0,0,0,1.92.54,1.05,1.05,0,0,0,.85-.92A1.53,1.53,0,0,0,97.86,108.06Z"/><path class="cls-18" d="M79,105a.32.32,0,0,0,0-.63c-.2,0-20,.14-24.13-2.52C50.33,99,49.51,90.46,49.5,90.37a.32.32,0,0,0-.63.06c0,.36.87,8.93,5.59,11.94,4.33,2.76,23.66,2.63,24.48,2.62Z"/><path class="cls-18" d="M64.19,64a.31.31,0,0,0,0-.61c-.14,0-3.39-.34-5.34-4.6a.31.31,0,0,0-.56.26C60.42,63.63,64,64,64.16,64Z"/></g></g></svg>