<svg xmlns="http://www.w3.org/2000/svg" xmlns:xlink="http://www.w3.org/1999/xlink" viewBox="0 0 234.91 255.47"><defs><style>.cls-1,.cls-11,.cls-18{fill:none;}.cls-2{isolation:isolate;}.cls-3{clip-path:url(#clip-path);}.cls-13,.cls-4{fill:#fff;}.cls-5{fill:#ad554a;}.cls-6{fill:#f59e07;}.cls-7{fill:#713f10;}.cls-8{fill:#ee8400;}.cls-9{fill:#f7b33e;}.cls-10{fill:#3f2613;}.cls-11{stroke:#713f10;}.cls-11,.cls-18{stroke-linecap:round;stroke-linejoin:round;stroke-width:0.44px;}.cls-12{fill:#190e08;}.cls-13{mix-blend-mode:soft-light;opacity:0.5;}.cls-14{fill:#51100e;}.cls-15{fill:#e0382c;}.cls-16{fill:#293357;}.cls-17{fill:#933e34;}.cls-18{stroke:#a82017;}</style><clipPath id="clip-path" transform="translate(0 -16.53)"><path class="cls-1" d="M42.45,264.21a19.58,19.58,0,0,1-11.27-3.66,80.33,80.33,0,0,1-7.82-6.24C8.16,240.16-4.31,215.55,1.42,190.16c3.42-15.12,12.79-23.9,21.73-32.94,3.17-3.2,6.13-7.3,5.76-13-.39-5.89-3.44-11-5.23-16.26A92.8,92.8,0,0,1,19.43,110c-2.05-15.69.57-32.44,8.46-44.59,6.92-10.68,17.79-18,29-19.29,5.89-.68-16.53-26.25,14-35.63,16-13.86,43.31-10.57,52.61-1.6C136.47-1,151-6.56,167.93,13.7c28.74-21.06,58-4.66,58.13,7.83,8.85,43.12-26.33,68.25-15.93,70.54,13.88,3.06,2.75,18,12.14,32.25s11.56,34.86,7.52,52.8c-1.85,8.2-4.85,15.78-4.25,24.6a46.58,46.58,0,0,0,3.7,15.16c2.64,6.13,5.81,12.24,5.67,19.64,0,.44,0,.86,0,1.29-.78,14.95-11,26.4-23,26.4Z"/></clipPath></defs><g class="cls-2"><g id="Capa_2" data-name="Capa 2"><g id="Capa_1-2" data-name="Capa 1"><g class="cls-3"><path class="cls-4" d="M42.45,264.21a19.58,19.58,0,0,1-11.27-3.66,80.33,80.33,0,0,1-7.82-6.24C8.16,240.16-4.31,215.55,1.42,190.16c3.42-15.12,12.79-23.9,21.73-32.94,3.17-3.2,6.13-7.3,5.76-13-.39-5.89-3.44-11-5.23-16.26A92.8,92.8,0,0,1,19.43,110c-2.05-15.69.57-32.44,8.46-44.59,6.92-10.68,17.79-18,29-19.29A30.35,30.35,0,0,1,74,49.47c11.15,5.6,19.83,16.07,29.13,25,9.73,9.39,20.76,16.26,32.86,19.88a75.25,75.25,0,0,0,17.91,3.06c10.44.5,20.87-2.11,31.27.19,13.88,3.06,27.67,12.41,37.06,26.69s11.56,34.86,7.52,52.8c-1.85,8.2-4.85,15.78-4.25,24.6a46.58,46.58,0,0,0,3.7,15.16c2.64,6.13,5.81,12.24,5.67,19.64,0,.44,0,.86,0,1.29-.78,14.95-11,26.4-23,26.4Z" transform="translate(0 -16.53)"/><path class="cls-5" d="M101.3,141.33,89.61,264.53a3.09,3.09,0,0,1-6.16-.3l.38-123.75a8.76,8.76,0,1,1,17.51.05C101.34,140.8,101.32,141.07,101.3,141.33Z" transform="translate(0 -16.53)"/><path class="cls-5" d="M120.12,140.08l8.15,124.24a3.08,3.08,0,0,1-6.12.69l-19.4-123A8.75,8.75,0,0,1,120,139.29,7,7,0,0,1,120.12,140.08Z" transform="translate(0 -16.53)"/><path class="cls-5" d="M119.31,247h7.83l-3-93.49a65,65,0,0,0-7.79-28.1L113.44,120,99,117.73l-.48-2.35L89.45,120l-3.33,9.82A66.43,66.43,0,0,0,82.6,150.7L83.5,247h7.77l10.61-98.5.59.06Z" transform="translate(0 -16.53)"/><path class="cls-6" d="M121.74,192.88s-8.28,20-40.48,20.76c0,0-.36-4.64-.68-11.88a394.15,394.15,0,0,1,.31-44.38l21.75-10,15.63,37.27Z" transform="translate(0 -16.53)"/><path class="cls-7" d="M121.74,192.88s-8.28,20-40.48,20.76c0,0-.36-4.64-.68-11.88a36.47,36.47,0,0,0,4-3.76c2.6.9,5.23,1.75,7.84,2.65a12.49,12.49,0,0,0,4-6.2c2.17.32,4.37.6,6.53.92a42.21,42.21,0,0,0,4.68-6.76l5.59,1a39.72,39.72,0,0,0,4.68-5.28l.38.27Z" transform="translate(0 -16.53)"/><path class="cls-8" d="M129,201.52c-28.2,4.19-46.44-12.8-44.74-45l3.09-1.67,35.82-19.4c3,6.62,5,44.92,5.59,60C128.91,199.21,129,201.52,129,201.52Z" transform="translate(0 -16.53)"/><path class="cls-9" d="M129,201.52c-28.2,4.19-46.44-12.8-44.74-45l3.09-1.67a35.33,35.33,0,0,0,41.41,40.57C128.91,199.21,129,201.52,129,201.52Z" transform="translate(0 -16.53)"/><path class="cls-7" d="M125,137c-20.09,23-44.85,21.31-44.85,21.31s0-1.87.14-4.7a93.29,93.29,0,0,1,2-15.52c.12-.47.23-.92.35-1.37A91,91,0,0,1,89.45,120c7.37,2.83,24.39-2.27,24.39-2.27l.29,2.29a39.22,39.22,0,0,1,3.82,4.19,46,46,0,0,1,3.72,5.4A35.52,35.52,0,0,1,125,137Z" transform="translate(0 -16.53)"/><path class="cls-10" d="M121.67,129.63a72,72,0,0,1-41.41,24,93.29,93.29,0,0,1,2-15.52A69.62,69.62,0,0,0,118,124.23,46,46,0,0,1,121.67,129.63Z" transform="translate(0 -16.53)"/><path class="cls-11" d="M90.09,160.8a32.65,32.65,0,0,0,20.42,26.92" transform="translate(0 -16.53)"/><path class="cls-11" d="M92.4,162.88a23.91,23.91,0,0,0,19.4,15.9" transform="translate(0 -16.53)"/><path class="cls-5" d="M61.28,59.22A4.67,4.67,0,0,1,62,57.69a4.42,4.42,0,0,1,6.14-1L96.68,76.86a4.4,4.4,0,0,1-5.09,7.19L63,63.83A4.4,4.4,0,0,1,61.28,59.22Z" transform="translate(0 -16.53)"/><path class="cls-5" d="M62.55,56.92,83.8,36.84a2.56,2.56,0,0,1,3.73,3.48L69,62.92a4.41,4.41,0,0,1-6.83-5.59A5.08,5.08,0,0,1,62.55,56.92Z" transform="translate(0 -16.53)"/><path class="cls-5" d="M86.31,42.09s8.18,3.63,8.92,3.13S91,41.06,91,41.06s9.46-10.24,9-11-4.83,3.55-4.83,3.55,4.19-5.51,3.57-6.14-5.25,4.84-5.25,4.84,3.77-6.3,3-6.45-4.59,5.25-4.59,5.25,2.41-5.49,1.9-5.55-3.94,4.93-3.94,4.93C88.12,33,86.91,33.6,84.5,35.75,80.15,39.62,81.7,41.21,86.31,42.09Z" transform="translate(0 -16.53)"/><path class="cls-6" d="M112.2,32.27a10.43,10.43,0,0,1-9.71,3.39,3.21,3.21,0,0,1-1.31-.53,1.39,1.39,0,0,1-.39-1.81,2.31,2.31,0,0,1,.54-.73,7.49,7.49,0,0,1,1.91-1,12.27,12.27,0,0,0,5.36-4.75,11.51,11.51,0,0,0,1-2.09,12.84,12.84,0,0,0,.78-4,1.85,1.85,0,0,1,.57-1.31A2.64,2.64,0,0,0,110,18a1.72,1.72,0,0,1,1.25-1.47,5,5,0,0,1,.81,2.21l.83.37.23.11,0,0a2.78,2.78,0,0,1,1,.92,5.44,5.44,0,0,1,.74,2A12.09,12.09,0,0,1,112.2,32.27Z" transform="translate(0 -16.53)"/><path class="cls-8" d="M112.31,21.53a7.06,7.06,0,0,1,.19,1.95,8.56,8.56,0,0,1-.33,1.95,10.41,10.41,0,0,1-1.86,3.49,14.41,14.41,0,0,1-2.91,2.66c-.54.37-1.09.72-1.66,1.05s-1.15.62-1.75.9c.56-.34,1.12-.68,1.67-1s1.08-.72,1.6-1.11a15.7,15.7,0,0,0,2.8-2.66,10.68,10.68,0,0,0,1.87-3.36A8.29,8.29,0,0,0,112.31,21.53Z" transform="translate(0 -16.53)"/><path class="cls-7" d="M101.41,34.32a1.24,1.24,0,0,1-.23.81,1.39,1.39,0,0,1-.39-1.81A1.29,1.29,0,0,1,101.41,34.32Z" transform="translate(0 -16.53)"/><path class="cls-6" d="M120,34.57a10.44,10.44,0,0,1-10.23-1.08,3.25,3.25,0,0,1-1-1,1.37,1.37,0,0,1-.17-.74,1.52,1.52,0,0,1,.58-1.07,2.32,2.32,0,0,1,.81-.42,7.42,7.42,0,0,1,2.16-.12,12.23,12.23,0,0,0,6.87-2,11.68,11.68,0,0,0,1.81-1.46,12.8,12.8,0,0,0,2.39-3.27,1.86,1.86,0,0,1,1.09-.94,2.79,2.79,0,0,0-.29-1.73,1.74,1.74,0,0,1,1.75-.8,5.06,5.06,0,0,1-.21,2.35c.19.24.39.46.59.69a1.63,1.63,0,0,1,.17.2l0,0a2.84,2.84,0,0,1,.5,1.26,5.23,5.23,0,0,1-.21,2.15A12.09,12.09,0,0,1,120,34.57Z" transform="translate(0 -16.53)"/><path class="cls-8" d="M124.67,24.89a6.7,6.7,0,0,1-.66,1.85,8.32,8.32,0,0,1-1.13,1.63,10.46,10.46,0,0,1-3.16,2.36A14.82,14.82,0,0,1,116,31.89c-.65.11-1.3.19-2,.24s-1.3.08-2,.07c.65-.07,1.3-.13,2-.22s1.29-.19,1.92-.33a15.72,15.72,0,0,0,3.68-1.21,10.77,10.77,0,0,0,3.12-2.24A8.26,8.26,0,0,0,124.67,24.89Z" transform="translate(0 -16.53)"/><path class="cls-7" d="M109.36,31.82a1.21,1.21,0,0,1-.55.63,1.37,1.37,0,0,1-.17-.74,1.52,1.52,0,0,1,.58-1.07A1.3,1.3,0,0,1,109.36,31.82Z" transform="translate(0 -16.53)"/><path class="cls-6" d="M88.71,35.81a10.42,10.42,0,0,0,10-2.61A3.24,3.24,0,0,0,99.45,32a1.55,1.55,0,0,0,.06-.77,1.51,1.51,0,0,0-.74-1,2.21,2.21,0,0,0-.86-.3,7.45,7.45,0,0,0-2.15.21,12.21,12.21,0,0,1-7.1-1,11.21,11.21,0,0,1-2-1.17,12.89,12.89,0,0,1-2.85-2.86,1.88,1.88,0,0,0-1.21-.78,2.69,2.69,0,0,1,0-1.75,1.76,1.76,0,0,0-1.86-.53,5.27,5.27,0,0,0,.56,2.3c-.15.26-.32.51-.48.77a.92.92,0,0,0-.13.21l0,0a2.88,2.88,0,0,0-.31,1.32,5.52,5.52,0,0,0,.53,2.1A12.14,12.14,0,0,0,88.71,35.81Z" transform="translate(0 -16.53)"/><path class="cls-8" d="M82.63,26.94a7.42,7.42,0,0,0,.93,1.73,8.43,8.43,0,0,0,1.37,1.43A10.38,10.38,0,0,0,88.41,32a14.72,14.72,0,0,0,3.9.58c.66,0,1.31,0,2,0s1.3-.13,1.94-.23c-.65,0-1.3.07-2,.07s-1.3,0-2,0a15.83,15.83,0,0,1-3.82-.65,10.77,10.77,0,0,1-3.42-1.75A8.41,8.41,0,0,1,82.63,26.94Z" transform="translate(0 -16.53)"/><path class="cls-7" d="M98.81,31.49a1.28,1.28,0,0,0,.64.55,1.55,1.55,0,0,0,.06-.77,1.51,1.51,0,0,0-.74-1A1.29,1.29,0,0,0,98.81,31.49Z" transform="translate(0 -16.53)"/><path class="cls-6" d="M93.74,35.41a10.42,10.42,0,0,0,10.27.66,3.25,3.25,0,0,0,1.11-.86,1.41,1.41,0,0,0,.3-.71,1.51,1.51,0,0,0-.4-1.15,2.27,2.27,0,0,0-.72-.55,8,8,0,0,0-2.11-.48,12.25,12.25,0,0,1-6.44-3.13,12.7,12.7,0,0,1-1.54-1.74,13.07,13.07,0,0,1-1.81-3.62,1.85,1.85,0,0,0-.9-1.12,2.66,2.66,0,0,1,.57-1.65A1.74,1.74,0,0,0,90.48,20a5.1,5.1,0,0,0-.19,2.36l-.7.58-.19.16,0,0a2.82,2.82,0,0,0-.71,1.15,5.62,5.62,0,0,0-.16,2.16A12.11,12.11,0,0,0,93.74,35.41Z" transform="translate(0 -16.53)"/><path class="cls-8" d="M90.76,25.08A6.76,6.76,0,0,0,91.1,27a8.87,8.87,0,0,0,.84,1.79,10.29,10.29,0,0,0,2.72,2.86,14.78,14.78,0,0,0,3.52,1.79c.62.21,1.25.4,1.89.56s1.27.29,1.92.4c-.63-.18-1.26-.35-1.88-.55s-1.24-.4-1.84-.65a15.32,15.32,0,0,1-3.42-1.81,10.62,10.62,0,0,1-2.7-2.73A8.31,8.31,0,0,1,90.76,25.08Z" transform="translate(0 -16.53)"/><path class="cls-7" d="M104.68,34.49a1.33,1.33,0,0,0,.44.72,1.41,1.41,0,0,0,.3-.71,1.51,1.51,0,0,0-.4-1.15A1.33,1.33,0,0,0,104.68,34.49Z" transform="translate(0 -16.53)"/><path class="cls-7" d="M130.51,32.81a16.93,16.93,0,0,1-2,3.67c-.17.25-.36.52-.57.8a24.54,24.54,0,0,1-4,4.18l-.51.43c-.44.35-.91.7-1.41,1l-.75.51c-4.15,2.68-10,4.87-18.23,5.08-6.41.16-11-.91-14.33-2.54l-.74-.38a15.32,15.32,0,0,1-5.11-4.4c-.11-.14-.21-.29-.31-.43l-.14-.22c-.09-.14-.18-.28-.26-.42a13.88,13.88,0,0,1-1.79-4.73c0-.16,0-.31-.07-.45a8,8,0,0,1-.08-1A228.87,228.87,0,0,1,130.51,32.81Z" transform="translate(0 -16.53)"/><path class="cls-12" d="M128.54,36.48c-.17.25-.36.52-.57.8q-3.64.15-7.29.35-11.21.59-22.4,1.48-7.91.64-15.79,1.44c-.09-.14-.18-.28-.26-.42q3.1-.32,6.23-.6,11.17-1.05,22.38-1.77,8.13-.52,16.28-.89l-5.86-.18L100,36,80.44,35.4c0-.16,0-.31-.07-.45l10.22.33,21.3.67Z" transform="translate(0 -16.53)"/><path class="cls-12" d="M111.78,43.74l10.32-.81-.75.51L98.69,45.21l-9.9.77-.74-.38c.13,0,.26,0,.4,0Z" transform="translate(0 -16.53)"/><path class="cls-12" d="M124,41.46l-.51.43-1.39-.06q-11.52-.39-23-.54-8.09-.1-16.15-.09c-.11-.14-.21-.29-.31-.43q3.16,0,6.31,0,11.52,0,23,.32Q118,41.24,124,41.46Z" transform="translate(0 -16.53)"/><path class="cls-10" d="M130.56,32.32a209.66,209.66,0,0,0-39.45-.44c-3.7.3-7.39.72-11.08,1.22a.93.93,0,0,0-.64,1.14,1,1,0,0,0,1.14.64,209.48,209.48,0,0,1,38.94-1.59c3.71.2,7.4.49,11.09.88a.93.93,0,0,0,.93-.92A1,1,0,0,0,130.56,32.32Z" transform="translate(0 -16.53)"/><path class="cls-13" d="M84.83,39.57a11.62,11.62,0,0,0,1.66,2.21,8.5,8.5,0,0,0,4.42,2.89,2.7,2.7,0,0,0,1,0,1.27,1.27,0,0,0,.84-.54,1.46,1.46,0,0,0,0-1.43,7,7,0,0,0-.91-1.19,7.34,7.34,0,0,1-1.13-1.81c-.33-.75-.54-1.56-.86-2.32a4.16,4.16,0,0,0-1.48-1.94,2.78,2.78,0,0,0-4.1,1.4,2.53,2.53,0,0,0,.07,1.56A6.2,6.2,0,0,0,84.83,39.57Z" transform="translate(0 -16.53)"/><polygon class="cls-5" points="96.06 59.73 88.82 54.77 86 63.57 92.62 69.05 96.06 59.73"/><path class="cls-5" d="M114.06,76.27l-10.49,1.46-7.51-1.48-6,14.59C88.53,93,87,95.31,86.84,98.35a7.2,7.2,0,0,0,2.72,5.87L89.45,120c7.16,1.92,15.66.13,24.39-2.26l5-28.23Z" transform="translate(0 -16.53)"/><path class="cls-6" d="M96.39,67a3.18,3.18,0,0,0-.87-2.14l-.35.31,0,0a2.36,2.36,0,0,1,.73,1.48,2.75,2.75,0,0,1-.27,2,1,1,0,0,1-1.51.15,2,2,0,0,1-.59-1.73,3.57,3.57,0,0,1,.83-2.06c.21-.24-.14-.6-.35-.35A4,4,0,0,0,93,67a2.58,2.58,0,0,0,.7,2.22,1.56,1.56,0,0,0,2,.11A2.57,2.57,0,0,0,96.39,67Z" transform="translate(0 -16.53)"/><path class="cls-5" d="M107.68,66.74l.68,10.4s-4.54,2.93-8.2.62l.12-7.89Z" transform="translate(0 -16.53)"/><path class="cls-14" d="M100.23,73.29a9,9,0,0,0,7.35-2.7h-7.31Z" transform="translate(0 -16.53)"/><path class="cls-10" d="M110.39,67.32A2.69,2.69,0,0,0,112,65a5.13,5.13,0,0,0,1.39-4.75c-1.25-.73-2.43-1.51-3.68-2.24A38.78,38.78,0,0,1,110.39,67.32Z" transform="translate(0 -16.53)"/><path class="cls-5" d="M100.23,49.32C108.42,48.1,112.71,52.83,112,62c-.55,7.31-5.11,11.37-10.79,10.45-4.5-.72-7.34-4.29-7.81-9.72C92.76,55,95.37,50.05,100.23,49.32Z" transform="translate(0 -16.53)"/><path class="cls-10" d="M109.13,58.3a1.54,1.54,0,0,0,1.34,1.94,2.38,2.38,0,0,0,.23,1.81,2.41,2.41,0,0,0,1.44,1.14l.07-.15a6.1,6.1,0,0,0,.21-3.33,3.46,3.46,0,0,0-.74-1.42,2.06,2.06,0,0,0-1.39-.7A1,1,0,0,0,109.13,58.3Z" transform="translate(0 -16.53)"/><path class="cls-8" d="M101.16,55s-5.51,1.32-8,3.85a24.58,24.58,0,0,1,1-6.74Z" transform="translate(0 -16.53)"/><path class="cls-8" d="M109.68,47.13s-6.93-2.51-10.78-1.45a10.18,10.18,0,0,0-1.64,1.69l13.21.76A2.12,2.12,0,0,0,109.68,47.13Z" transform="translate(0 -16.53)"/><path class="cls-6" d="M113.38,61.16a42.47,42.47,0,0,0-19.83-6.38c1-5.91,3.81-7.57,3.81-7.57a35.51,35.51,0,0,1,13,.63C114.35,52.57,113.38,61.16,113.38,61.16Z" transform="translate(0 -16.53)"/><path class="cls-5" d="M110.86,62.55c-.51,1.28-.14,2.51.78,2.89s2.1-.36,2.62-1.64.19-2.62-.74-3S111.38,61.27,110.86,62.55Z" transform="translate(0 -16.53)"/><path class="cls-14" d="M111.76,64.26a.27.27,0,0,1-.25-.18.26.26,0,0,1,.16-.33.57.57,0,0,0,.41-.47A.87.87,0,0,0,112,63a1.17,1.17,0,0,1-.11-.4,1.08,1.08,0,0,1,.3-.79,1.06,1.06,0,0,1,.91-.35,1,1,0,0,1,.78,1,.26.26,0,1,1-.51,0A.52.52,0,0,0,113,62a.59.59,0,0,0-.45.2.56.56,0,0,0-.15.4,1.07,1.07,0,0,0,.07.25,1.09,1.09,0,0,1,.11.5,1.1,1.1,0,0,1-.76.93Z" transform="translate(0 -16.53)"/><path class="cls-10" d="M94.1,58a15.45,15.45,0,0,1,4.05-.15C97.3,56.66,95.08,57.22,94.1,58Z" transform="translate(0 -16.53)"/><path class="cls-10" d="M106.21,58a15.39,15.39,0,0,0-4-.15C103,56.66,105.24,57.22,106.21,58Z" transform="translate(0 -16.53)"/><ellipse class="cls-10" cx="96.64" cy="45.13" rx="0.73" ry="0.9"/><path class="cls-4" d="M96.64,61.33a.27.27,0,0,1-.23.29.3.3,0,0,1,0-.58A.27.27,0,0,1,96.64,61.33Z" transform="translate(0 -16.53)"/><path class="cls-10" d="M104.4,61.65a.74.74,0,1,1-.72-.89A.82.82,0,0,1,104.4,61.65Z" transform="translate(0 -16.53)"/><path class="cls-4" d="M103.68,61.33a.27.27,0,0,1-.23.29.3.3,0,0,1,0-.58A.27.27,0,0,1,103.68,61.33Z" transform="translate(0 -16.53)"/><path class="cls-14" d="M99.39,65h0a1.21,1.21,0,0,1-.89-.53.84.84,0,0,1,0-.75,4.59,4.59,0,0,1,.38-.7,5.51,5.51,0,0,0,.35-.64.25.25,0,0,1,.33-.15.26.26,0,0,1,.15.33,4.4,4.4,0,0,1-.39.72,3.88,3.88,0,0,0-.33.62c-.08.2,0,.29,0,.32a.78.78,0,0,0,.54.27.25.25,0,0,1,.2.3A.25.25,0,0,1,99.39,65Z" transform="translate(0 -16.53)"/><path class="cls-4" d="M97.63,66.12a25.08,25.08,0,0,0,5-.19C101.75,67.93,98.19,67.58,97.63,66.12Z" transform="translate(0 -16.53)"/><path class="cls-6" d="M114.39,67a3.17,3.17,0,0,0-.86-2.14l-.36.31,0,0a2.41,2.41,0,0,1,.73,1.48,2.85,2.85,0,0,1-.27,2,1,1,0,0,1-1.52.15,2,2,0,0,1-.59-1.73,3.57,3.57,0,0,1,.83-2.06c.21-.24-.14-.6-.35-.35A4,4,0,0,0,111,67a2.58,2.58,0,0,0,.7,2.22,1.57,1.57,0,0,0,2,.11A2.59,2.59,0,0,0,114.39,67Z" transform="translate(0 -16.53)"/><ellipse class="cls-4" cx="110.82" cy="44.38" rx="0.51" ry="1.17"/><ellipse class="cls-4" cx="111.7" cy="61.27" rx="1.17" ry="0.51" transform="translate(-10.61 80.41) rotate(-45)"/><ellipse class="cls-4" cx="112.07" cy="45.63" rx="1.17" ry="0.51"/><path class="cls-4" d="M111.34,63.39c-.46-.45-.67-1-.47-1.19s.74,0,1.19.47.67,1,.47,1.19S111.8,63.85,111.34,63.39Z" transform="translate(0 -16.53)"/><path class="cls-4" d="M110.31,63.4c0-.65.23-1.17.51-1.17s.51.52.51,1.17-.22,1.17-.51,1.17S110.31,64,110.31,63.4Z" transform="translate(0 -16.53)"/><path class="cls-4" d="M109.58,62.67c.46-.46,1-.67,1.19-.47s0,.74-.47,1.19-1,.67-1.19.47S109.12,63.13,109.58,62.67Z" transform="translate(0 -16.53)"/><path class="cls-4" d="M109.58,61.64c.64,0,1.17.23,1.17.51s-.53.51-1.17.51-1.17-.22-1.17-.51S108.93,61.64,109.58,61.64Z" transform="translate(0 -16.53)"/><path class="cls-4" d="M110.3,60.91c.46.46.67,1,.47,1.19s-.73,0-1.19-.47-.67-1-.47-1.19S109.85,60.45,110.3,60.91Z" transform="translate(0 -16.53)"/><path class="cls-15" d="M111.39,62.15a.57.57,0,1,1-.57-.57A.57.57,0,0,1,111.39,62.15Z" transform="translate(0 -16.53)"/><path class="cls-5" d="M134.1,105.55l14.47-28.88a2.55,2.55,0,0,1,4.67,2L142.19,109a4.41,4.41,0,0,1-8.29-3A2.76,2.76,0,0,1,134.1,105.55Z" transform="translate(0 -16.53)"/><path class="cls-5" d="M139,112a4.41,4.41,0,0,1-5.35-1.63L115.3,82.83a4.4,4.4,0,1,1,7.32-4.89L141,105.48a4.4,4.4,0,0,1-1.22,6.11A4.66,4.66,0,0,1,139,112Z" transform="translate(0 -16.53)"/><path class="cls-5" d="M114.06,76.27l3.64-.53a5.24,5.24,0,0,1,5.13,2.33l4.24,6.53-5.46,7.68-3.76-3.39S113.14,84.39,114.06,76.27Z" transform="translate(0 -16.53)"/><path class="cls-5" d="M148.24,77.2s-1.79-8.93-1.19-9.7,3,4.76,3,4.76,11.28-9.59,11.86-9-4.21,5-4.21,5,5.91-4.2,6.37-3.5-5.48,5.37-5.48,5.37,6.55-3.71,6.54-2.91-5.73,4.64-5.73,4.64,5.54-2.3,5.49-1.75-5.31,4-5.31,4c-2.6,1.72-3.41,3-5.86,5.45C149.35,83.92,148.17,82.18,148.24,77.2Z" transform="translate(0 -16.53)"/><path class="cls-15" d="M128.42,86.06c-5.32,17.56-15.66,32.13-33.64,31.68S80.2,93.6,80.2,93.6Z" transform="translate(0 -16.53)"/><path class="cls-16" d="M88,82.6c-.51,1.35-1.09,2.68-1.73,4a39,39,0,0,1-4.92,7.5,7,7,0,0,1-3.27-7.63,5.16,5.16,0,0,1-1-7.8A4.88,4.88,0,0,1,76.43,75a5,5,0,0,1,2.2-3,5.2,5.2,0,0,1,3.06-5.83l1.64,1.07,2.75,1.79a23.8,23.8,0,0,1,1.31,6.61C87.67,77.9,88.84,80.37,88,82.6Z" transform="translate(0 -16.53)"/><path class="cls-4" d="M88,82.6c-.51,1.35-1.09,2.68-1.73,4l-.46.47a8.43,8.43,0,0,0-2,2.29A5.1,5.1,0,0,1,81.68,87a5,5,0,0,1-.34-3.14,3.74,3.74,0,0,1-1.27-2.56A3.87,3.87,0,0,1,81,78.49a4.72,4.72,0,0,1-.23-3.08A4.4,4.4,0,0,1,82.44,73a6.24,6.24,0,0,1,.89-5.86l2.75,1.79a23.8,23.8,0,0,1,1.31,6.61C87.67,77.9,88.84,80.37,88,82.6Z" transform="translate(0 -16.53)"/><path class="cls-8" d="M128.43,86.06c-6.35,15.22-17.64,28.66-35.61,27.45S78.24,83,88.44,76c0,0,6.2,12,14.2,11.78s20.57-9.32,20.57-9.32l.24.35,1.15,1.67,1.8,2.64L127,84Z" transform="translate(0 -16.53)"/><path class="cls-6" d="M123.47,78.31s-5.18,18.3-22.85,15.84S86,68.34,86,68.34l2.82,2,1.36,1,6,4.33,2.72.78c.36,9,10.64,2.55,11.47,0,0,0,6.71-1,8.44-1.21H119a4,4,0,0,1,1.33.22A5.2,5.2,0,0,1,123.47,78.31Z" transform="translate(0 -16.53)"/><path class="cls-9" d="M120.35,75.47a27.23,27.23,0,0,1-4.6,8.92,16.84,16.84,0,0,1-8.46,5.82,12.53,12.53,0,0,1-10.2-1.42c-3-2-4.92-5.19-6.26-8.45a26.6,26.6,0,0,1-2-10l1.36,1a25.42,25.42,0,0,0,2.29,9.46c1.37,3,3.33,5.88,6.29,7.42a11.67,11.67,0,0,0,9.56.22c5.63-2.25,8.86-7.66,10.7-13.21A4,4,0,0,1,120.35,75.47Z" transform="translate(0 -16.53)"/><path class="cls-4" d="M101.58,92.07a.45.45,0,0,1-.43-.46h0v0h0s0,0,0,0h0a.44.44,0,0,1-.54.31h0a.44.44,0,0,1-.31-.55h0s0,0,0,0h0l0,0h0a.43.43,0,0,1-.6.17h0a.45.45,0,0,1-.17-.61h0a.44.44,0,0,1-.62,0h0a.44.44,0,0,1,0-.63h0a.45.45,0,0,1-.62-.09h0a.44.44,0,0,1,.09-.62h0a0,0,0,0,0,0,0h0a.44.44,0,0,1-.6-.19h0a.44.44,0,0,1,.18-.6h0a.44.44,0,0,1-.57-.25h0a.43.43,0,0,1,.25-.57h0a.43.43,0,0,1-.54-.31h0a.44.44,0,0,1,.3-.54h0a.45.45,0,0,1-.52-.35h0a.46.46,0,0,1,.35-.53h0a.43.43,0,0,1-.49-.38h0a.44.44,0,0,1,.39-.49h0a.44.44,0,0,1-.47-.42h0a.44.44,0,0,1,.41-.47h0a.44.44,0,0,1-.45-.44h0a.45.45,0,0,1,.44-.45h0a.43.43,0,0,1-.43-.45h0a.44.44,0,0,1,.45-.44h0a.43.43,0,0,1-.41-.47h0a.44.44,0,0,1,.47-.41h0a.45.45,0,0,1-.4-.49h0a.44.44,0,0,1,.49-.39h0a.44.44,0,0,1-.38-.5h0a.44.44,0,0,1,.49-.38h0a.44.44,0,0,1,.39.5h0a.44.44,0,0,1-.49.38h0a.43.43,0,0,1,.38.48h0a.44.44,0,0,1-.47.4h0a.44.44,0,0,1,.4.47h0a.45.45,0,0,1-.45.42h0a.43.43,0,0,1,.41.45h0a.44.44,0,0,1-.44.43h0a.46.46,0,0,1,.44.44h0a.44.44,0,0,1-.42.45h0a.44.44,0,0,1,.45.41h0a.43.43,0,0,1-.39.46h0a.45.45,0,0,1,.47.39h0a.44.44,0,0,1-.35.49h0a.45.45,0,0,1,.49.36h0a.45.45,0,0,1-.32.51h0a.44.44,0,0,1,.51.32h0a.44.44,0,0,1-.27.53h0a.44.44,0,0,1,.53.27h0a.44.44,0,0,1-.2.55h0a.44.44,0,0,1,.55.2h0a.45.45,0,0,1-.14.58h0a.45.45,0,0,1,.58.11h0a.45.45,0,0,1,0,.58h0a.45.45,0,0,1,.58,0h0a.46.46,0,0,1,.08.56h0a.44.44,0,0,1,.55-.1h0a.44.44,0,0,1,.2.53h0a.44.44,0,0,1,.51-.23h0a.46.46,0,0,1,.33.46h0a.44.44,0,0,1,.45-.34h0a.45.45,0,0,1,.42.37h0a.44.44,0,0,1,.36-.43h0a.44.44,0,0,1,.5.28h0a.44.44,0,0,1,.28-.5h0a.46.46,0,0,1,.55.21h0a.44.44,0,0,1,.2-.55h0a.44.44,0,0,1,.58.14h0a.44.44,0,0,1,.12-.59h0a.46.46,0,0,1,.6.08h0a.45.45,0,0,1,.06-.6h0a.45.45,0,0,1,.61,0h0a.44.44,0,0,1,0-.61h0a.44.44,0,0,1,.62,0h0a.45.45,0,0,1,0,.63h0a.44.44,0,0,1-.63,0h0a.45.45,0,0,1,0,.63h0a.45.45,0,0,1-.63,0h0a.45.45,0,0,1-.1.62h0a.45.45,0,0,1-.62-.11h0a.45.45,0,0,1-.18.61h0a.45.45,0,0,1-.6-.18h0a.44.44,0,0,1-.26.57h0a.44.44,0,0,1-.57-.26h0a.44.44,0,0,1-.36.52h0a.44.44,0,0,1-.51-.36h0a0,0,0,0,0,0,0h0a.44.44,0,0,1-.44.43h0ZM106.52,89a.46.46,0,0,1-.06-.63h0a.46.46,0,0,1,.61-.07h0a.44.44,0,0,1-.08-.6h0a.44.44,0,0,1,.6-.11h0a.44.44,0,0,1-.11-.6h0a.43.43,0,0,1,.61-.13h0a.44.44,0,0,1,.14.61h0a.46.46,0,0,1-.61.14h0a.44.44,0,0,1,.09.61h0a.45.45,0,0,1-.62.1h0a.44.44,0,0,1,.06.62h0a.44.44,0,0,1-.34.16h0A.46.46,0,0,1,106.52,89Zm1.57-2.14a.45.45,0,0,1-.16-.61h0a.45.45,0,0,1,.59-.17h0a.43.43,0,0,1-.17-.59h0a.43.43,0,0,1,.57-.2h0a.44.44,0,0,1-.2-.58h0a.46.46,0,0,1,.57-.23h0a.45.45,0,0,1-.22-.57h0a.44.44,0,0,1,.57-.24h0a.44.44,0,0,1-.25-.57h0a.44.44,0,0,1,.57-.26h0a.44.44,0,0,1-.28-.56h0a.44.44,0,0,1,.55-.29h0a.45.45,0,0,1-.3-.54h0a.46.46,0,0,1,.56-.31h0a.43.43,0,0,1-.32-.53h0a.45.45,0,0,1,.53-.32h0a.43.43,0,0,1-.32-.53h0a.44.44,0,0,1,.51-.33h0a.46.46,0,0,1-.33-.52h0a.45.45,0,0,1,.52-.35h0a.43.43,0,0,1-.35-.51h0a.43.43,0,0,1,.5-.36h0a.45.45,0,0,1-.36-.51h0a.44.44,0,0,1,.5-.38h0a.43.43,0,0,1-.38-.49h0a.44.44,0,0,1,.49-.39h0a.44.44,0,0,1,.39.5h0a.45.45,0,0,1-.5.38h0a.44.44,0,0,1,.37.51h0a.44.44,0,0,1-.5.37h0a.44.44,0,0,1,.36.51h0a.43.43,0,0,1-.51.36h0a.45.45,0,0,1,.34.53h0a.44.44,0,0,1-.5.35h0a.43.43,0,0,1,.31.52h0a.45.45,0,0,1-.53.34h0a.44.44,0,0,1,.32.54h0a.43.43,0,0,1-.54.31h0a.45.45,0,0,1,.3.56h0a.43.43,0,0,1-.55.29h0a.46.46,0,0,1,.28.57h0a.44.44,0,0,1-.56.28h0a.44.44,0,0,1,.26.57h0a.44.44,0,0,1-.57.26h0a.45.45,0,0,1,.24.58h0a.45.45,0,0,1-.57.25h0a.44.44,0,0,1,.21.58h0a.45.45,0,0,1-.59.22h0a.44.44,0,0,1,.2.59h0a.45.45,0,0,1-.6.2h0a.44.44,0,0,1,.16.6h0a.43.43,0,0,1-.39.22h0A.44.44,0,0,1,108.09,86.85Zm-10.8-6.76a.44.44,0,0,1-.36-.51h0a.44.44,0,0,1,.51-.37h0a.44.44,0,0,1,.36.51h0a.44.44,0,0,1-.43.38h-.08Zm.15-.88a.43.43,0,0,1-.36-.52h0a.44.44,0,0,1,.52-.35h0a.45.45,0,0,1,.35.52h0a.45.45,0,0,1-.43.36h-.08Zm.16-.87a.46.46,0,0,1-.35-.53h0a.46.46,0,0,1,.53-.34h0a.45.45,0,0,1,.34.53h0a.44.44,0,0,1-.43.35H97.6Zm.18-.87a.44.44,0,0,1-.33-.53h0a.44.44,0,0,1,.53-.33h0a.43.43,0,0,1,.33.53h0a.44.44,0,0,1-.43.34h-.1Zm.2-.86a.45.45,0,0,1-.32-.54h0a.44.44,0,0,1,.54-.32h0a.43.43,0,0,1,.32.54h0a.44.44,0,0,1-.43.33H98Z" transform="translate(0 -16.53)"/><path class="cls-13" d="M83.27,92.1a5,5,0,0,0,.18,2.08,2,2,0,0,0,1.46,1.38,2.34,2.34,0,0,0,2.28-1.39c.46-.83.63-1.79,1-2.65A12.6,12.6,0,0,1,91,88.15a7.46,7.46,0,0,0,2.33-3.65,4.24,4.24,0,0,0-.74-3.27,2.8,2.8,0,0,0-2.81-1.15,3.6,3.6,0,0,0-2.3,1.27A19.89,19.89,0,0,0,84,88,19.39,19.39,0,0,0,83.27,92.1Z" transform="translate(0 -16.53)"/><path class="cls-11" d="M93.1,83.43l-3,7.41C88.53,93,87,95.31,86.84,98.35a7.2,7.2,0,0,0,2.72,5.87" transform="translate(0 -16.53)"/><path class="cls-11" d="M106.3,105.17a8.3,8.3,0,0,0,7.51-4.67" transform="translate(0 -16.53)"/><path class="cls-11" d="M92.08,81.26c-.24,2.1-.47,4.2-.71,6.31" transform="translate(0 -16.53)"/><path class="cls-11" d="M115.08,84.62a10.72,10.72,0,0,0,3.41,7.82" transform="translate(0 -16.53)"/><path class="cls-17" d="M154.59,145.72l11.69,123.2a3.09,3.09,0,0,0,6.16-.3l-.38-123.75a8.76,8.76,0,0,0-17.51,0C154.55,145.18,154.57,145.46,154.59,145.72Z" transform="translate(0 -16.53)"/><path class="cls-17" d="M135.77,144.47l-8.15,124.24a3.09,3.09,0,0,0,6.13.68l19.4-123a8.76,8.76,0,0,0-17.3-2.72A7,7,0,0,0,135.77,144.47Z" transform="translate(0 -16.53)"/><path class="cls-17" d="M136.58,251.43h-7.83l3-93.5a65.12,65.12,0,0,1,7.79-28.1l2.92-5.4,14.4-2.31.48-2.36,9.11,4.64,3.33,9.82a66.43,66.43,0,0,1,3.52,20.87l-.85,96.34h-7.82L154,152.93l-.59.06Z" transform="translate(0 -16.53)"/><path class="cls-4" d="M168.3,191.75a5.34,5.34,0,0,1-4.86,9.08,5.85,5.85,0,0,1-8.53,7.21,6,6,0,0,1-10.06,5.12,6.55,6.55,0,0,1-10.75,3.74,3.37,3.37,0,0,1-6.36-2.06c7.14-3.23,13.21-8,19.55-12.66S160.68,193.58,168.3,191.75Z" transform="translate(0 -16.53)"/><path class="cls-16" d="M130.75,163.82c-4.7,26.06-3.55,52-3.55,52C152.74,215,173,188.44,173,188.44Z" transform="translate(0 -16.53)"/><path class="cls-6" d="M174.94,195.47c-34.55.56-44.74-29.91-44.74-29.91s.15-1.86.44-4.66c0-.28.06-.56.09-.85.13-1.27.29-2.68.47-4.18,0-.15,0-.29.05-.44.13-1.1.28-2.23.44-3.38.13-1,.27-2,.42-2.92a74.2,74.2,0,0,1,2.06-10,56.21,56.21,0,0,1,6-13.35c16.78,4.74,27.68,2.66,27.68,2.66s5,10.92,5.71,19.19c.38,4.07.72,15.76,1,26.55,0,.6,0,1.2,0,1.79,0,1.94.08,3.83.12,5.64,0,.14,0,.28,0,.43,0,2.08.08,4,.11,5.74,0,.15,0,.3,0,.44C174.9,192.61,174.94,195.47,174.94,195.47Z" transform="translate(0 -16.53)"/><path class="cls-11" d="M140.45,142.19a27.62,27.62,0,0,0,17,17" transform="translate(0 -16.53)"/><path class="cls-11" d="M140.43,145a38.55,38.55,0,0,0,17,19.91" transform="translate(0 -16.53)"/><path class="cls-4" d="M174.81,188.26a47.36,47.36,0,0,1-10.15-.93,48.58,48.58,0,0,1-12.18-4.16,47.63,47.63,0,0,1-10-6.74,48.44,48.44,0,0,1-11.81-15.53c0-.28.06-.56.09-.85a46.84,46.84,0,0,0,5.13,8.61,47.49,47.49,0,0,0,8,8.39,46.56,46.56,0,0,0,10.27,6.42,48.28,48.28,0,0,0,12.19,3.72,47.17,47.17,0,0,0,8.47.63C174.81,188,174.81,188.12,174.81,188.26Z" transform="translate(0 -16.53)"/><path class="cls-16" d="M174.56,176a85.6,85.6,0,0,1-8.58-1.38,58.86,58.86,0,0,1-22.25-9.53,43.48,43.48,0,0,1-12-13c.13-1,.27-2,.42-2.92a37.84,37.84,0,0,0,5.69,8.28,48.17,48.17,0,0,0,18.11,12.34,72.24,72.24,0,0,0,18.61,4.47C174.53,174.82,174.55,175.42,174.56,176Z" transform="translate(0 -16.53)"/><path class="cls-8" d="M174.69,182.08a31,31,0,0,1-3.75.82,7.7,7.7,0,0,1-5.22-1.59c-1.48-1-2.78-2.24-4.3-3.19a8.2,8.2,0,0,0-2.34-1.05,7.67,7.67,0,0,0-3.2,0,13.34,13.34,0,0,1-3.5.4,4.75,4.75,0,0,1-2.74-1.18c-1.61-1.39-2.3-3.45-3.25-5.28a8.56,8.56,0,0,0-1.85-2.56,7,7,0,0,0-2.61-1.33c-1.79-.53-3.8-.73-5.33-1.91-1.74-1.34-2-3.57-2.58-5.55-.4-1.46-1.29-3.33-2.82-3.81,0-.15,0-.29.05-.44a2.19,2.19,0,0,1,.33.12c1.86.79,2.61,2.92,3.06,4.73a13.16,13.16,0,0,0,1,3.08,4.68,4.68,0,0,0,2.16,2.08c1.73.85,3.73.95,5.49,1.72a6.31,6.31,0,0,1,2.39,1.86,14.14,14.14,0,0,1,1.57,2.72c.86,1.82,1.76,3.94,3.67,4.9,2.19,1.1,4.64-.23,6.92-.19,3.73.08,6.15,3.47,9.18,5.14a7.15,7.15,0,0,0,2.46.86,9.7,9.7,0,0,0,3.7-.44c.49-.12,1-.25,1.52-.36C174.68,181.79,174.69,181.93,174.69,182.08Z" transform="translate(0 -16.53)"/><path class="cls-7" d="M136.62,46.24c0,.18.07.36.11.54a10.26,10.26,0,0,0,.94,2.75c.07.14.14.28.22.42s.32.53.49.78a10,10,0,0,0,1.91,2.09,13.52,13.52,0,0,0,10.77,2.62c4.3-.66,8.19-2.89,10.26-6.06a9.57,9.57,0,0,0,1.21-2.59,9.2,9.2,0,0,0,.34-1.91l0-.49a9.66,9.66,0,0,0-.13-1.68c0-.09,0-.19,0-.27A15,15,0,0,0,159.87,36c-.31-.39-.63-.75-1-1.1l-.36-.35a12.84,12.84,0,0,0-4.75-2.87l1-7.92s-10.88.81-17.53,2.68l4.11,7.48a13.82,13.82,0,0,0-3.46,4.52c-.08.15-.14.3-.21.45-.18.41-.34.83-.48,1.25A13.22,13.22,0,0,0,136.62,46.24Z" transform="translate(0 -16.53)"/><path class="cls-10" d="M137.41,25.38a105.54,105.54,0,0,1,17.12-2.7,1.11,1.11,0,1,1,.34,2.19,104.31,104.31,0,0,0-17.12,2.71,1.12,1.12,0,0,1-1.26-.93A1.14,1.14,0,0,1,137.41,25.38Z" transform="translate(0 -16.53)"/><path class="cls-10" d="M136.62,46.24c0,.18.07.36.11.54a75.14,75.14,0,0,0,26-4.07c0-.09,0-.19,0-.27A15,15,0,0,0,159.87,36a86.25,86.25,0,0,1-22.68,4.14A13.22,13.22,0,0,0,136.62,46.24Z" transform="translate(0 -16.53)"/><path class="cls-10" d="M138.38,50.73a10,10,0,0,0,1.91,2.09,124.49,124.49,0,0,0,21-3.44,9.57,9.57,0,0,0,1.21-2.59c-1.58.42-3.16.82-4.75,1.17A124.53,124.53,0,0,1,138.38,50.73Z" transform="translate(0 -16.53)"/><path class="cls-10" d="M137.67,49.53c.07.14.14.28.22.42l.31-.08c1.26-.39,2.2-1.41,3.42-1.9a2.58,2.58,0,0,1,1.75-.14,7.26,7.26,0,0,1,1.31.65,3.7,3.7,0,0,0,1.24.49,2.7,2.7,0,0,0,1.53-.22c1.1-.46,1.88-1.41,2.93-1.94a2.6,2.6,0,0,1,1.61-.3,6.46,6.46,0,0,1,1.38.41,4.21,4.21,0,0,0,2.7.33,6.63,6.63,0,0,0,2.31-1.5,4.7,4.7,0,0,1,2.52-1.31,3.31,3.31,0,0,1,2,.44l0-.49a3.62,3.62,0,0,0-1.77-.4,4.56,4.56,0,0,0-2.81,1.23A7.35,7.35,0,0,1,156,46.83a4.42,4.42,0,0,1-2.78-.45,3.61,3.61,0,0,0-2.9,0c-1.06.5-1.83,1.43-2.89,1.93a2.23,2.23,0,0,1-1.64.19,6.32,6.32,0,0,1-1.31-.63,4.13,4.13,0,0,0-1.28-.53,3.09,3.09,0,0,0-1.59.19c-1.12.4-2,1.26-3,1.75A3.53,3.53,0,0,1,137.67,49.53Z" transform="translate(0 -16.53)"/><path class="cls-10" d="M137.67,38.85c1.51-.08,3-.2,4.53-.37a83.71,83.71,0,0,0,16.71-3.62l-.36-.35c-.8.26-1.61.51-2.42.75a83.73,83.73,0,0,1-18.25,3.14C137.8,38.55,137.74,38.7,137.67,38.85Z" transform="translate(0 -16.53)"/><path class="cls-13" d="M159.69,42.26a4.24,4.24,0,0,1-.16,1.84,2,2,0,0,1-1.26,1.26,2.19,2.19,0,0,1-1.77-.4,13.54,13.54,0,0,1-1.39-1.24,31.72,31.72,0,0,0-2.7-2,8.49,8.49,0,0,1-2.35-2.39,3.69,3.69,0,0,1-.35-3.24c.71-1.68,3.07-2.21,4.68-1.57a9.15,9.15,0,0,1,4.25,4.26A9.78,9.78,0,0,1,159.69,42.26Z" transform="translate(0 -16.53)"/><path class="cls-17" d="M198.18,71.43l5.71-28.67A2.55,2.55,0,0,0,199,41.45l-9.3,27.71A4.41,4.41,0,1,0,198,72,3.58,3.58,0,0,0,198.18,71.43Z" transform="translate(0 -16.53)"/><path class="cls-4" d="M203.27,46.88l-5.65-1.47a.75.75,0,0,0-.92.52.76.76,0,0,0,.52.93l5.65,1.48a.76.76,0,0,0,.4-1.46Z" transform="translate(0 -16.53)"/><path class="cls-6" d="M202.79,51,197,47.32c-.82-.52-1.58.79-.76,1.3L202,52.29C202.86,52.81,203.61,51.5,202.79,51Z" transform="translate(0 -16.53)"/><path class="cls-17" d="M198.06,70.32a4.4,4.4,0,0,0-6.22-3.82L160,80.93a4.41,4.41,0,0,0,3.64,8l31.88-14.44A4.39,4.39,0,0,0,198.06,70.32Z" transform="translate(0 -16.53)"/><path class="cls-17" d="M198.49,41.85s-3.77-8.11-3.28-8.86,4.23,4.17,4.23,4.17,10.08-9.63,10.81-9.15-3.46,4.89-3.46,4.89,5.43-4.29,6.08-3.68-4.75,5.33-4.75,5.33,6.23-3.88,6.39-3.14-5.17,4.68-5.17,4.68,5.45-2.5,5.51-2-4.85,4-4.85,4c-2.43,1.77-3,3-5.14,5.44C201.06,48,199.45,46.45,198.49,41.85Z" transform="translate(0 -16.53)"/><polygon class="cls-17" points="159.84 64.11 168.19 60.68 171.73 68.75 163.28 73.43 159.84 64.11"/><path class="cls-17" d="M141.83,80.66l10.49,1.46,7.51-1.48,6,14.59c1.53,2.13,3.07,4.47,3.22,7.51a7.2,7.2,0,0,1-2.72,5.87l.11,15.79-24,0L136.8,93Z" transform="translate(0 -16.53)"/><path class="cls-17" d="M148.21,71.12l-.67,10.41s4.53,2.92,8.2.62l-.13-7.9Z" transform="translate(0 -16.53)"/><path class="cls-14" d="M155.66,77.68a9,9,0,0,1-7.35-2.7h7.31Z" transform="translate(0 -16.53)"/><path class="cls-17" d="M155.66,53.71c-8.18-1.22-12.48,3.51-11.79,12.69.55,7.31,5.11,11.37,10.79,10.45,4.5-.72,7.35-4.29,7.81-9.72C163.13,59.38,160.52,54.43,155.66,53.71Z" transform="translate(0 -16.53)"/><path class="cls-10" d="M148.6,61.4a1.92,1.92,0,0,1-.3,1.64,2,2,0,0,1-1.49.77,8.79,8.79,0,0,1-.05,1.45,2.76,2.76,0,0,1-.52,1.33,2.17,2.17,0,0,1-1.4.79,2.12,2.12,0,0,1-1.55-.46,5.54,5.54,0,0,1,.65-2.27,9.7,9.7,0,0,1,1.36-1.9,4.05,4.05,0,0,1,1-.88A5.11,5.11,0,0,1,148.6,61.4Z" transform="translate(0 -16.53)"/><path class="cls-6" d="M162.57,65c-1.28-4-5.85-6.33-6.88-6.49l3.42-.88a3.61,3.61,0,0,1,3.1,1.9C163,61.37,162.57,65,162.57,65Z" transform="translate(0 -16.53)"/><path class="cls-15" d="M162.21,59.52c-5-3.78-15.52,1.49-18.9,8a20,20,0,0,1,1.95-12.13c2.45-4.79,12.72-4.32,14.72-1.2A18.63,18.63,0,0,1,162.21,59.52Z" transform="translate(0 -16.53)"/><path class="cls-18" d="M158,55.66a16,16,0,0,0-12.68,5.17" transform="translate(0 -16.53)"/><path class="cls-18" d="M154.94,54.87a18.82,18.82,0,0,0-9.89,3.4" transform="translate(0 -16.53)"/><path class="cls-17" d="M145,66.94c.52,1.28.14,2.51-.78,2.89s-2.1-.36-2.62-1.64-.19-2.62.74-3S144.51,65.66,145,66.94Z" transform="translate(0 -16.53)"/><path class="cls-14" d="M144.13,68.64a.26.26,0,0,0,.09-.5.58.58,0,0,1-.41-.47.87.87,0,0,1,.07-.29A1.24,1.24,0,0,0,144,67a1,1,0,0,0-.3-.79,1.06,1.06,0,0,0-.91-.35,1,1,0,0,0-.78,1,.26.26,0,1,0,.51,0,.52.52,0,0,1,.36-.53.59.59,0,0,1,.45.2.56.56,0,0,1,.15.4.64.64,0,0,1-.07.24,1.32,1.32,0,0,0-.11.51,1.11,1.11,0,0,0,.76.93Z" transform="translate(0 -16.53)"/><path class="cls-10" d="M161.79,62.36a15.39,15.39,0,0,0-4-.15C158.59,61.05,160.82,61.61,161.79,62.36Z" transform="translate(0 -16.53)"/><path class="cls-10" d="M149.68,62.36a15.45,15.45,0,0,1,4-.15C152.88,61.05,150.65,61.61,149.68,62.36Z" transform="translate(0 -16.53)"/><ellipse class="cls-10" cx="159.26" cy="49.52" rx="0.73" ry="0.9"/><path class="cls-4" d="M159.26,65.72a.23.23,0,1,0,.22-.29A.26.26,0,0,0,159.26,65.72Z" transform="translate(0 -16.53)"/><ellipse class="cls-10" cx="152.21" cy="49.52" rx="0.73" ry="0.9"/><path class="cls-4" d="M152.21,65.72a.27.27,0,0,0,.23.29.3.3,0,0,0,0-.58A.27.27,0,0,0,152.21,65.72Z" transform="translate(0 -16.53)"/><path class="cls-14" d="M156.5,69.37h.05a1.2,1.2,0,0,0,.89-.53.84.84,0,0,0,0-.75,4.17,4.17,0,0,0-.38-.7,4.63,4.63,0,0,1-.34-.64.26.26,0,0,0-.34-.16.27.27,0,0,0-.15.34,6,6,0,0,0,.39.72,5.2,5.2,0,0,1,.34.62c.07.2,0,.29,0,.31a.74.74,0,0,1-.53.28.26.26,0,0,0,0,.51Z" transform="translate(0 -16.53)"/><path class="cls-4" d="M158.26,70.5a25.08,25.08,0,0,1-5-.18C154.14,72.31,157.71,72,158.26,70.5Z" transform="translate(0 -16.53)"/><path class="cls-4" d="M145.84,64.57c0,.64-.23,1.17-.52,1.17s-.51-.53-.51-1.17.23-1.17.51-1.17S145.84,63.92,145.84,64.57Z" transform="translate(0 -16.53)"/><path class="cls-4" d="M146.57,65.29c-.46.46-1,.67-1.19.47s0-.73.46-1.19,1-.67,1.19-.47S147,64.84,146.57,65.29Z" transform="translate(0 -16.53)"/><path class="cls-4" d="M146.57,66.32c-.65,0-1.17-.22-1.17-.51s.52-.51,1.17-.51,1.17.23,1.17.51S147.21,66.32,146.57,66.32Z" transform="translate(0 -16.53)"/><path class="cls-4" d="M145.84,67.05c-.46-.45-.67-1-.46-1.19s.73,0,1.19.47.66,1,.46,1.19S146.3,67.51,145.84,67.05Z" transform="translate(0 -16.53)"/><path class="cls-4" d="M144.81,67.06c0-.65.23-1.17.51-1.17s.52.52.52,1.17-.23,1.17-.52,1.17S144.81,67.7,144.81,67.06Z" transform="translate(0 -16.53)"/><path class="cls-4" d="M144.08,66.33c.46-.46,1-.67,1.19-.47s0,.74-.46,1.19-1,.67-1.19.47S143.62,66.79,144.08,66.33Z" transform="translate(0 -16.53)"/><path class="cls-4" d="M144.08,65.3c.65,0,1.17.23,1.17.51s-.52.51-1.17.51-1.17-.22-1.17-.51S143.43,65.3,144.08,65.3Z" transform="translate(0 -16.53)"/><path class="cls-4" d="M144.81,64.57c.45.46.66,1,.46,1.19s-.73,0-1.19-.47-.66-1-.46-1.19S144.35,64.11,144.81,64.57Z" transform="translate(0 -16.53)"/><path class="cls-15" d="M145.89,65.81a.57.57,0,1,1-.57-.57A.57.57,0,0,1,145.89,65.81Z" transform="translate(0 -16.53)"/><path class="cls-17" d="M108.74,109.47l25.11,20.32a2.55,2.55,0,0,0,3.42-3.76L114.67,103a4.41,4.41,0,1,0-6.3,6.18A4,4,0,0,0,108.74,109.47Z" transform="translate(0 -16.53)"/><path class="cls-17" d="M108.76,109.4a4.39,4.39,0,0,0,5.58-.07L139.7,88A4.4,4.4,0,0,0,134,81.29l-25.36,21.3a4.39,4.39,0,0,0-.54,6.2A4,4,0,0,0,108.76,109.4Z" transform="translate(0 -16.53)"/><path class="cls-17" d="M137.85,125.29s4.14,0,5.11.77,6,6.66,5.27,7.3c-.53.44-4.78-4.25-4.78-4.25s4.27,5.17,3.77,5.88-5.11-4.59-5.11-4.59,3.17,4.91,2.52,5.24-4.77-4.69-4.77-4.69,2.65,4.94,2.24,5.35-4.2-5-4.2-5-5.14-.42-5.05-3.55C133,124,137.85,125.29,137.85,125.29Z" transform="translate(0 -16.53)"/><path class="cls-17" d="M141.83,80.66,139,80.12a7.13,7.13,0,0,0-6.16,1.77l-4.94,4.55-3.71,14.62,13.32-8.47C141.17,87.68,141.83,80.66,141.83,80.66Z" transform="translate(0 -16.53)"/><path class="cls-4" d="M121.45,92a2.49,2.49,0,0,1,2.47-2.28l29.52,24.76,13.81-6.42c3.07-1.42,5.9-2.86,9-4.29a4.84,4.84,0,0,1,.4,5.21,5.24,5.24,0,0,1,.55,3.27,5.37,5.37,0,0,1-1.6,3,4.92,4.92,0,0,1-4.31,7.06,4,4,0,0,1-5.16,4.55,4,4,0,0,1-7,2.32,3.65,3.65,0,0,1-5.53.38,5.34,5.34,0,0,1-8.13-2.19,4.83,4.83,0,0,1-6.42-4.48,3.32,3.32,0,0,1-3.26-.72,3.36,3.36,0,0,1-.92-3.21,4,4,0,0,1-3.59-1.89,4.23,4.23,0,0,1-.18-4.17,4.08,4.08,0,0,1-3.3-6.32,3.4,3.4,0,0,1-2.74-2.22,3.33,3.33,0,0,1,.82-3.39,4.23,4.23,0,0,1-2.22-6.44A2.48,2.48,0,0,1,121.45,92Z" transform="translate(0 -16.53)"/><path class="cls-8" d="M176.73,86.91c-.06-1.32,1.63-2.17,1.73-3.5a2.8,2.8,0,0,0-1.18-2.14,5.63,5.63,0,0,1-1.69-1.85,4.61,4.61,0,0,1-.2-2,4.33,4.33,0,0,0-.22-2c-.27-.61-1-1.35-1.58-1.09l-3.35,1.42,3.33,19a4.18,4.18,0,0,0,3.93-6.12A4.41,4.41,0,0,1,176.73,86.91Z" transform="translate(0 -16.53)"/><path class="cls-16" d="M128.41,85.61l-4.72,4s8.23,39.5,30.86,38.82c26.5-.79,23-31.12,18.74-43.9l-15.92,22.11Z" transform="translate(0 -16.53)"/><path class="cls-6" d="M170.59,75.49c10,27.7-.87,39.25-12.33,40C134.6,116.9,128.15,85.5,128.15,85.5l3.55-2.81L150.76,90l11.59-10.83Z" transform="translate(0 -16.53)"/><path class="cls-13" d="M128.6,91.39a13.57,13.57,0,0,0,1.07,4.68A43.12,43.12,0,0,0,133,102.9a6.28,6.28,0,0,0,1.86,2.16,2.4,2.4,0,0,0,2.7,0,2.5,2.5,0,0,0,.67-2.54,9.83,9.83,0,0,0-1.19-2.49,19.11,19.11,0,0,1-2.17-5.94,23.86,23.86,0,0,0-.89-4.29c-.49-1.25-1.81-3.15-3.41-2.67S128.59,90,128.6,91.39Z" transform="translate(0 -16.53)"/><path class="cls-15" d="M131.51,82.7s8,23.23,25.86,20.81c18-2.45,7.52-25.56,7.52-25.56l-1.14.52-.81.38-3.26,1.52-3,.89c-3,8.36-9.18,2.49-10.48,0l-7-1.46a8,8,0,0,0-4.88.7,7.55,7.55,0,0,0-.78.43A8.72,8.72,0,0,0,131.51,82.7Z" transform="translate(0 -16.53)"/><path class="cls-4" d="M133.51,80.93a45.28,45.28,0,0,0,6,10.9,23.52,23.52,0,0,0,9,7.79,13.14,13.14,0,0,0,10.84.08c3.44-1.68,5.4-5.25,5.95-8.93.64-4.17-.42-8.31-1.57-12.3l-.81.38c1.21,4.19,2.32,8.61,1.29,12.94a10.14,10.14,0,0,1-6.67,7.68,13.12,13.12,0,0,1-10.49-1.61,27,27,0,0,1-8-8.19,45.15,45.15,0,0,1-4.77-9.17A7.55,7.55,0,0,0,133.51,80.93Z" transform="translate(0 -16.53)"/><path class="cls-10" d="M140.21,96.41a.11.11,0,0,0,.08,0,5.44,5.44,0,0,0,2.06-2.68.13.13,0,0,0-.1-.16.13.13,0,0,0-.15.1,5.11,5.11,0,0,1-1.56,2.2A19.35,19.35,0,0,0,142,89.76a.13.13,0,1,0-.25,0,19.42,19.42,0,0,1-1.61,6.48.14.14,0,0,0,0,.16A.11.11,0,0,0,140.21,96.41Z" transform="translate(0 -16.53)"/><path class="cls-10" d="M165.29,109.5l.06,0s4-2.27,3.83-6.75c-.16-3.33-2-5.87-3.63-8.11l-.13-.18a22.57,22.57,0,0,0-.77-6.54.12.12,0,0,0-.16-.08.14.14,0,0,0-.08.17c.83,2.22.75,6.44.75,6.49a.16.16,0,0,0,0,.08l.15.21c1.61,2.21,3.42,4.72,3.58,8,.21,4.32-3.66,6.49-3.7,6.51a.14.14,0,0,0-.05.18A.15.15,0,0,0,165.29,109.5Z" transform="translate(0 -16.53)"/><path class="cls-10" d="M165.28,93.46a.08.08,0,0,0,.07,0,3.24,3.24,0,0,0,1.25-2,.12.12,0,0,0-.1-.15.13.13,0,0,0-.15.1,3,3,0,0,1-1.14,1.8.12.12,0,0,0,0,.17A.11.11,0,0,0,165.28,93.46Z" transform="translate(0 -16.53)"/><path class="cls-10" d="M150.08,109.87h.29a.13.13,0,0,0,.13-.13.13.13,0,0,0-.14-.13c-5.12.11-8.2-2.83-8.74-5a.13.13,0,0,0-.16-.09.14.14,0,0,0-.1.16C141.89,106.73,144.71,109.87,150.08,109.87Z" transform="translate(0 -16.53)"/><path class="cls-4" d="M135.12,122.68a.77.77,0,0,0-.93.53q-.91,2.82-1.84,5.64a.76.76,0,0,0,1.46.4l1.83-5.64A.76.76,0,0,0,135.12,122.68Z" transform="translate(0 -16.53)"/><path class="cls-6" d="M134.11,121.51a.78.78,0,0,0-1.07,0c-1.5,1.21-3,2.36-4.6,3.49a.77.77,0,0,0-.27,1,.76.76,0,0,0,1,.27c1.68-1.19,3.31-2.43,4.91-3.73A.75.75,0,0,0,134.11,121.51Z" transform="translate(0 -16.53)"/></g></g></g></g></svg>