<svg xmlns="http://www.w3.org/2000/svg" viewBox="0 0 298.08 342.93"><defs><style>.cls-1{fill:#fdce76;}.cls-2{fill:#6c2912;}</style></defs><g id="Capa_2" data-name="Capa 2"><g id="Capa_1-2" data-name="Capa 1"><rect class="cls-1" width="298.08" height="342.93" rx="35.2"/><path class="cls-2" d="M133.19,198.31c-2.65-3.55-4.68-6.16-6.57-8.87a4,4,0,0,0-3.66-1.77q-27.42.06-54.85,0c-2,0-3.23.56-4,2.47-1,2.53-2.26,5-3.75,8.19,7,0,13.47.06,19.9,0,2.46,0,4.11.1,4.08,3.35,0,3-1.23,3.55-3.9,3.53q-19.59-.16-39.18,0c-2.69,0-3.75-.53-3.8-3.54,0-3.31,1.63-3.77,4-3.26,9.17,2,14.17-2.05,16.69-10.67.71-2.43,1-4.11-.38-6.34-4.81-7.76-9.41-15.64-14-23.52-1.11-1.89-3.47-3.6.23-5.88,3.94-2.44,4.27.79,5.48,2.68A101,101,0,0,1,55,164c1.23,2.45,2.91,3.15,5.53,3,4.93-.19,9.87-.11,14.8,0,7.44.11,11.9,3.91,12.81,11.38.32,2.62,1.67,2.54,3.49,2.54,10.88,0,21.76.11,32.64-.08a7.11,7.11,0,0,1,6.81,3.47c2.66,4,5.75,7.65,8.5,11.56a5.46,5.46,0,0,0,5.07,2.51c11.61-.12,23.22-.14,34.82,0,2.79,0,3.85-.7,3.69-3.61-.23-4.34-.1-8.71,0-13.06.1-8.93,6.1-15.5,14.17-15.58s14.24,6.5,14.37,15.37c.07,4.5.18,9,0,13.49-.14,2.76.87,3.37,3.47,3.4,9.82.11,9.81.2,9.82-9.62,0-2.9-.13-5.81.05-8.71a14.22,14.22,0,0,1,28.44,0c.25,4.92.19,9.87,0,14.8-.09,2.59.58,3.85,3.36,3.44,2.59-.39,3.85.3,3.87,3.41s-1.4,3.45-3.92,3.41c-6.82-.11-13.64-.09-20.46,0-2.06,0-4.63-1.07-4.69,3s2.27,3.22,4.49,3.23c7,0,13.93.13,20.89-.06,2.88-.07,3.64.85,3.67,3.68s-1.28,3.25-3.66,3.22c-7.25-.11-14.51,0-21.76-.08-2.48,0-3.62.4-3.57,3.28.16,10.73.12,21.47,0,32.21,0,2.63.59,3.32,3.22,2.29,7-2.74,13.63-6.35,21.36-7,3.54-.3,4.71.61,4.33,4.1-.18,1.71-.44,2.69-2.43,2.63-6-.18-11.26,2.3-16.57,4.64-12.2,5.37-24.52,5.64-36.57-.14-12.65-6.07-24.94-6.06-37.6,0-12.2,5.85-24.76,5.7-36.94-.1-12.52-6-24.68-5.94-37.19,0-12,5.76-24.36,5.64-36.57.24-5.45-2.41-10.86-4.82-17-4.75-3.33,0-1.78-2.62-2.06-4.18-.4-2.17.79-2.75,2.78-2.55,5.22.54,10.38,1.34,15.09,3.77,12.77,6.61,25.39,6.39,38.35.18a40.45,40.45,0,0,1,36.14,0c12.82,6.13,25.29,6.41,38,0a29.87,29.87,0,0,1,11.6-3.41c2.6-.17,3.69-1.15,3.62-4q-.33-11.74,0-23.5c.09-3.16-1-3.83-4-3.8-16.68.13-33.37,0-50,.12-2.77,0-3.68-.68-3.74-3.6-.08-3.39,1.69-3.28,4-3.28,16.69.05,33.38-.07,50.06.11,3.4,0,3.73-1.39,3.61-4.12-.14-3.32-2.53-2.18-4.1-2.18q-36.78-.1-73.56,0c-2.61,0-5.34.48-7.8-.13s-7,3-7-3.16c0-6.43,4.79-3.26,7.19-3.34C109.27,198.11,120.7,198.31,133.19,198.31Zm74.25,6.8c-4.93,0-9.86.12-14.78,0-2.45-.08-2.87,1-2.82,3.11s.11,3.36,2.7,3.24c3.76-.18,7.54.09,11.3-.09,2.56-.12,3.21.94,3.23,3.3s-.5,3.78-3.37,3.59c-3.46-.22-6.95,0-10.43-.08-2.14-.06-3.5.12-3.48,2.93,0,2.66.77,3.47,3.45,3.42q14.12-.23,28.25,0c2.64,0,3.48-.69,3.48-3.4s-1.29-3.09-3.46-2.94c-1.44.11-2.91-.1-4.35,0-2.65.26-3.79-.45-3.82-3.49,0-3.25,1.49-3.54,4-3.35,1.44.1,2.91-.1,4.35,0,2.35.22,3.35-.51,3.3-3.09,0-2.38-.63-3.34-3.16-3.25C217,205.24,212.22,205.11,207.44,205.11Zm-17.53-17.52c0,10.8,0,10.8,10.71,10.72a16.64,16.64,0,0,1,1.73,0c1.86.18,2.56-.62,2.52-2.5-.09-5.34.1-10.7-.1-16a7.43,7.43,0,0,0-14.82,0C189.78,182.38,189.91,185,189.91,187.59Zm41.81.17c-.05,10.6-.05,10.6,10.43,10.55.72,0,1.45,0,2.17,0,1.61.11,2.35-.52,2.33-2.23-.07-5.49.12-11-.11-16.47-.17-4.08-3.46-6.77-7.56-6.7a7.08,7.08,0,0,0-7.22,6.62C231.56,182.26,231.72,185,231.72,187.76Zm-24.38,56.53c-4.78,0-9.56,0-14.34,0-1.27,0-3-.65-3.15,1.79s.81,3.13,2.9,3.29c4.85.36,9.25,2.18,13.57,4.25a41.48,41.48,0,0,0,10.23,3.48c7.87,1.49,8.33,1.12,8.32-6.7,0-1.15-.09-2.32,0-3.47.2-2.12-.76-2.74-2.78-2.7C217.19,244.36,212.27,244.3,207.34,244.29Zm0-6.8c4.92,0,9.85-.11,14.77,0,2.53.08,2.77-1.17,2.77-3.18s-.25-3.2-2.77-3.17q-14.78.18-29.55,0c-2.52,0-2.76,1.16-2.77,3.17s.25,3.26,2.77,3.18C197.52,237.38,202.45,237.49,207.38,237.49ZM61.43,173.79c1.58,5.59,4.5,8.08,9.94,7.17,2.26-.37,4.63,0,6.95-.1,1.16-.06,2.79.73,3.37-1a4.56,4.56,0,0,0-.88-3.71,4.83,4.83,0,0,0-4.37-2.38C71.54,173.8,66.63,173.79,61.43,173.79Z"/><path class="cls-2" d="M101.07,134.57c0,7-.12,13.92.06,20.88.07,2.82-.74,3.7-3.64,3.71s-3.27-1.19-3.26-3.63c.09-13.78,0-27.56.11-41.34,0-3.32-.6-4.35-4.09-3.33-4.79,1.39-9.39,2.81-12.73,6.87-1.65,2-5.83,1.78-7.59-.12-6.05-6.53-19.45-6.76-25-.09-2,2.46-4.28,1.58-6.21,1.2s-1-2.68-.8-4.09c3.15-25.45,22.48-45.31,48.85-50.27C115.33,59,145,75.62,154.65,102.3A53.19,53.19,0,0,1,157.41,115c.14,1.29,1.11,3.35-.76,3.75s-4.15,1.1-6-.83c-6.83-7.18-18.21-7.06-25.49,0a4.87,4.87,0,0,1-7.27-.11c-3.68-4.22-8.48-5.76-13.59-7.07-2.51-.65-3.34-.09-3.29,2.57C101.16,120.35,101.07,127.46,101.07,134.57Zm16.41-26.48c.62-2.52-.31-4.92-.76-7.28-1.91-10-4.4-19.86-11.94-27.39-4.56-4.54-9.5-4.42-14.21-.06a30.81,30.81,0,0,0-7.1,10.8,72.35,72.35,0,0,0-5.79,24.21C93.33,101.86,98.24,101.85,117.48,108.09ZM82.09,72.79c-16.55,3.6-34.82,21.9-35.59,35.31a30.11,30.11,0,0,1,24.11,1.07c1.13-6.44,1.77-12.62,3.52-18.59A70,70,0,0,1,82.09,72.79Zm31.37.24a73.06,73.06,0,0,1,7.72,17.38c1.79,6.09,2.38,12.41,3.59,18.84,8.06-4,16.08-4,24.29-1.16C146.89,93.35,128.3,75.1,113.46,73Z"/><path class="cls-2" d="M223.48,286.06a44.51,44.51,0,0,1-19.72-4.54c-11.7-5.77-23.36-5.65-35.13,0-13.1,6.25-26.27,6.19-39.39-.09-11.58-5.56-23.12-5.55-34.74,0-13.09,6.29-26.27,6.26-39.4.06-4.75-2.24-9.61-4.16-15-4-3.58.09-2.31-2.45-2.55-4.22-.36-2.64,1.27-2.76,3.22-2.55,5.21.57,10.31,1.49,15,3.91,12.49,6.37,24.89,6.25,37.56.19a41.13,41.13,0,0,1,36.94,0c12.66,6.06,25,5.95,37.59-.08a40.86,40.86,0,0,1,36.54,0c12.82,6.14,25.34,6.29,38-.19,4.59-2.36,9.57-3.27,14.63-3.79,1.72-.17,3.72-.57,3.42,2.31-.2,1.92,1,4.57-2.78,4.44-5.2-.17-9.95,1.67-14.53,3.94A44.89,44.89,0,0,1,223.48,286.06Z"/><path class="cls-2" d="M78,218.16c-12.31,0-24.61,0-36.92,0-2.4,0-3.67-.29-3.64-3.23s.81-3.68,3.66-3.66q37.14.15,74.28,0c2.4,0,3.74.33,3.74,3.23s-.9,3.7-3.77,3.66C102.94,218.07,90.49,218.16,78,218.16Z"/><path class="cls-2" d="M97.8,172c-2.46.45-3.69-.19-3.61-3.06.06-2.53.66-3.62,3.37-3.55,2.41.06,3.67.49,3.59,3.33C101.09,171.29,100.57,172.65,97.8,172Z"/><path class="cls-2" d="M46.37,227.56c-.68-3.3,1.4-3.05,3.54-3.19,3.15-.21,2.89,1.73,3,3.83.21,3.05-1.6,3-3.79,3.08C45.94,231.48,46.11,229.55,46.37,227.56Z"/><path class="cls-2" d="M85.53,228c-.41-2.42.14-3.73,3-3.64,2.49.07,3.65.61,3.57,3.35-.07,2.38-.43,3.71-3.31,3.61C86.36,231.23,84.91,230.79,85.53,228Z"/><path class="cls-2" d="M124.72,227.94c-.46-2.48.22-3.67,3.08-3.6,2.54,0,3.59.69,3.53,3.39-.06,2.42-.51,3.64-3.34,3.58C125.44,231.25,124.11,230.69,124.72,227.94Z"/><path class="cls-2" d="M167,224.53c3.33-.65,3.33,1.29,3.46,3.52.16,2.87-1.27,3.13-3.65,3.26-3.1.16-3-1.52-3.07-3.71C163.68,224.9,164.62,223.81,167,224.53Z"/><path class="cls-2" d="M245.34,224.53c3.25-.65,3.42,1.15,3.52,3.45.12,2.78-1.13,3.22-3.58,3.33-3,.13-3.11-1.36-3.14-3.65C242.09,225.06,242.79,223.74,245.34,224.53Z"/></g></g></svg>