<svg xmlns="http://www.w3.org/2000/svg" viewBox="0 0 224.67 189.32"><defs><style>.cls-1{fill:#fff;}.cls-2{fill:#7f7f74;}.cls-3{fill:#b2b095;}.cls-4{fill:#727070;}.cls-5{fill:#b0b0af;}.cls-6{fill:#f6f6f6;}.cls-7{fill:#585857;}.cls-8{fill:#dba62e;}.cls-9{fill:#eeeded;}.cls-10{fill:#461135;}.cls-11{fill:#b22b5e;}.cls-12{fill:#c88a5e;}.cls-13{fill:#b0b0b0;}.cls-14{fill:#c0bd99;}.cls-15{fill:none;}.cls-16{fill:#dadada;}.cls-17{fill:#1e1e1c;}.cls-18{fill:#7f1710;}.cls-19{fill:#b3b2b2;}.cls-20{fill:#dc1a29;}.cls-21{fill:#4a2a7b;}.cls-22{fill:#c3c030;}.cls-23{fill:#2c373b;}.cls-24{fill:#8ac0b7;}.cls-25{fill:#d0e9ec;}.cls-26{fill:#f5f5f5;}.cls-27{fill:#867e6c;}.cls-28{fill:#fdc940;}.cls-29{fill:#fad5b4;}</style></defs><g id="Capa_2" data-name="Capa 2"><g id="Capa_1-2" data-name="Capa 1"><circle id="Background_2" data-name="Background 2" class="cls-1" cx="111.68" cy="97.5" r="91.82" transform="translate(-36.23 107.53) rotate(-45)"/><g id="Page_Quality" data-name="Page Quality"><g id="Computer"><path class="cls-2" d="M107,143.4c0-1.27-1.43-2.3-3.19-2.3H81.35c-1.76,0-3.19,1-3.19,2.3l-5.43,20.08c0,1.27,1.43,2.3,3.19,2.3h34.65c1.76,0,3.19-1,3.19-2.3Z"/><rect class="cls-3" x="13.73" y="32.67" width="161.75" height="111.55" rx="3.19"/><rect class="cls-4" x="13.73" y="38.83" width="161.75" height="89.76"/><rect class="cls-5" x="57.49" y="157.55" width="71.88" height="9.58" rx="3.19"/><polygon class="cls-6" points="173.4 45.21 13.73 45.21 13.73 120.63 124.33 120.63 140.45 120.63 175.48 120.63 175.48 78.13 175.48 58.58 175.48 52.76 175.48 45.21 173.4 45.21"/><path class="cls-7" d="M99.42,136.85a6,6,0,1,1-6-6A6,6,0,0,1,99.42,136.85Z"/><rect class="cls-8" x="13.73" y="45.21" width="161.75" height="6.54"/><path class="cls-9" d="M171.1,48.54a1.4,1.4,0,1,1-1.4-1.4A1.4,1.4,0,0,1,171.1,48.54Z"/><path class="cls-9" d="M165.68,48.54a1.4,1.4,0,1,1-1.4-1.4A1.4,1.4,0,0,1,165.68,48.54Z"/><path class="cls-9" d="M160.26,48.54a1.4,1.4,0,1,1-1.4-1.4A1.4,1.4,0,0,1,160.26,48.54Z"/><path class="cls-9" d="M43.53,48.54a1.4,1.4,0,0,1-1.4,1.4H23.53a1.4,1.4,0,0,1-1.4-1.4h0a1.4,1.4,0,0,1,1.4-1.4h18.6a1.4,1.4,0,0,1,1.4,1.4Z"/><rect class="cls-10" x="23.33" y="56.68" width="144.97" height="19.53"/><rect class="cls-11" x="141.22" y="79.19" width="27.08" height="17.32"/><rect class="cls-11" x="141.22" y="99.53" width="27.08" height="17.32"/><rect class="cls-12" x="106.23" y="79.19" width="27.08" height="17.32"/><rect class="cls-12" x="106.23" y="99.53" width="27.08" height="17.32"/><rect class="cls-12" x="71.23" y="79.19" width="27.08" height="17.32"/><rect class="cls-12" x="71.23" y="99.53" width="27.08" height="17.32"/><rect class="cls-13" x="23.33" y="79.19" width="41.35" height="6.5"/><rect class="cls-13" x="23.33" y="87.8" width="41.35" height="6.5"/><rect class="cls-13" x="23.33" y="96.42" width="41.35" height="6.5"/><rect class="cls-13" x="23.33" y="105.03" width="41.35" height="6.5"/></g><g id="List"><path class="cls-14" d="M218.66,174.22a4.4,4.4,0,0,1-4.16,4.61H135.43a4.4,4.4,0,0,1-4.16-4.61V63.69a4.4,4.4,0,0,1,4.16-4.6H214.5a4.4,4.4,0,0,1,4.16,4.6Z"/><polygon class="cls-15" points="198.02 71.61 150.32 71.61 150.32 61.35 149.13 61.35 149.13 74.58 199.45 74.58 199.45 61.35 198.02 61.35 198.02 71.61"/><path class="cls-15" d="M173.6,50.38c-5.72-.24-7.46,3.43-8,5.39h15.15A7.25,7.25,0,0,0,173.6,50.38Z"/><polygon class="cls-6" points="140.79 67.96 140.79 166.14 209.89 166.14 209.89 86.08 182.86 67.96 140.79 67.96"/><path class="cls-16" d="M209.89,86.08,182.86,68V86.08a43.62,43.62,0,0,1,12.44-1.74A57.91,57.91,0,0,1,209.89,86.08Z"/><path class="cls-17" d="M198,59.78v-4H182.49a8.94,8.94,0,0,0-8.82-7.08c-7.23-.31-9.25,4.8-9.78,7.08H150.32v4h-2.76V76.14H201V59.78Zm-8,1.64a2.25,2.25,0,1,1-2.25,2.25A2.25,2.25,0,0,1,190,61.42Zm-16.41-11a7.25,7.25,0,0,1,7.16,5.39H165.61C166.14,53.81,167.88,50.14,173.6,50.38Zm-16.13,11a2.25,2.25,0,1,1-2.25,2.25A2.25,2.25,0,0,1,157.47,61.42Zm42,13.15H149.13V61.35h1.19V71.61H198V61.35h1.43Z"/><rect class="cls-18" x="158.74" y="76.14" width="24.12" height="3.16"/><rect class="cls-18" x="158.74" y="80.51" width="24.12" height="1.35"/><rect class="cls-18" x="158.74" y="82.73" width="24.12" height="1.35"/><rect class="cls-19" x="163.6" y="131.25" width="38.68" height="5.07"/><rect class="cls-19" x="163.6" y="137.59" width="38.68" height="1.69"/><rect class="cls-19" x="163.6" y="148.05" width="38.68" height="5.07"/><rect class="cls-19" x="163.6" y="154.39" width="38.68" height="1.69"/><path class="cls-16" d="M161.87,135.16a5.18,5.18,0,1,1-5.18-5.18A5.18,5.18,0,0,1,161.87,135.16Z"/><path class="cls-16" d="M161.87,152.07a5.18,5.18,0,1,1-5.18-5.18A5.17,5.17,0,0,1,161.87,152.07Z"/><path class="cls-20" d="M167.14,125.82c-.67-.8-2.21-.57-2.88,0l-7.67,6.36-3.2-3.09a1.78,1.78,0,1,0-2.48,2.55l4.45,4.3a1.83,1.83,0,0,0,2.27.26l.16-.11,8.87-7.36A2.37,2.37,0,0,0,167.14,125.82Z"/><path class="cls-20" d="M167.14,143c-.67-.8-2.21-.57-2.88,0l-7.67,6.37-3.2-3.1a1.78,1.78,0,1,0-2.48,2.55l4.45,4.31a1.86,1.86,0,0,0,2.27.26l.16-.12,8.87-7.36A2.37,2.37,0,0,0,167.14,143Z"/><rect class="cls-19" x="182.86" y="92.92" width="23.39" height="12.13"/><rect class="cls-19" x="182.86" y="106.76" width="23.39" height="2.51"/><rect class="cls-19" x="182.86" y="110.22" width="23.39" height="2.51"/><rect class="cls-19" x="182.86" y="113.83" width="23.39" height="2.51"/><g id="Pie_Chart" data-name="Pie Chart"><path class="cls-21" d="M162,87.86v15.71h15.71A15.71,15.71,0,0,0,162,87.86Z"/><path class="cls-18" d="M160.84,89.35a15.71,15.71,0,1,0,11.63,26.27l-11.63-10.56Z"/><path class="cls-22" d="M162.12,104.53l11.63,10.56a15.64,15.64,0,0,0,4.08-10.56Z"/></g><path class="cls-12" d="M224.67,163.25a22.39,22.39,0,1,1-22.39-22.39A22.39,22.39,0,0,1,224.67,163.25Z"/><path class="cls-6" d="M200,178.83a3.56,3.56,0,0,1-2.2-.76l-12.07-9.46a3.57,3.57,0,1,1,4.41-5.62l9.32,7.3,14.94-18.16a3.57,3.57,0,1,1,5.52,4.54l-17.16,20.86A3.58,3.58,0,0,1,200,178.83Z"/></g><g id="Glasses"><path class="cls-23" d="M24.71,179a2.12,2.12,0,0,1-1.94-1.29,5.5,5.5,0,0,1,.34-5.33,6,6,0,0,1,5-2.58h0c10.18,0,22.79.12,22.92.12a2.1,2.1,0,0,1,0,4.19h0c-.13,0-12.72-.11-22.88-.11h0a1.89,1.89,0,0,0-1.52.7,1.45,1.45,0,0,0,0,1.39,2.1,2.1,0,0,1-1.12,2.74A2.14,2.14,0,0,1,24.71,179Z"/><path class="cls-24" d="M67.67,158.06a7.13,7.13,0,0,0-3.22-1.68,7.22,7.22,0,0,0-1.55-.17H39.14a7,7,0,0,0-7,7v4.41a7.05,7.05,0,0,0,7,7.06H62.9A7.06,7.06,0,0,0,70,167.67v-4.41A7,7,0,0,0,67.67,158.06Z"/><path class="cls-25" d="M44.56,169.59a2.74,2.74,0,0,0,3.87.17L61.32,158a2.75,2.75,0,0,0,.87-1.77h-7l-10.41,9.51A2.74,2.74,0,0,0,44.56,169.59Z"/><path class="cls-25" d="M57.65,164.91a1.71,1.71,0,0,0,2.41.11l7.61-7a7.13,7.13,0,0,0-3.22-1.68l-6.69,6.12A1.7,1.7,0,0,0,57.65,164.91Z"/><path class="cls-23" d="M128,179a2.09,2.09,0,0,0,1.93-1.29,5.48,5.48,0,0,0-.33-5.33,6,6,0,0,0-5-2.58h0c-10.18,0-22.78.12-22.91.12a2.1,2.1,0,0,0,0,4.19h0c.12,0,12.71-.11,22.88-.11h0a1.9,1.9,0,0,1,1.52.7,1.48,1.48,0,0,1,0,1.39A2.11,2.11,0,0,0,128,179Z"/><path class="cls-23" d="M62.87,177.15h-.12L39,176.86a9.36,9.36,0,0,1-9.22-9.45l.06-4.41a9.37,9.37,0,0,1,9.33-9.22h.11l23.76.3a9.33,9.33,0,0,1,9.21,9.44l0,4.41A9.36,9.36,0,0,1,62.87,177.15Zm-23.7-18.81a4.79,4.79,0,0,0-4.78,4.72l0,4.4a4.77,4.77,0,0,0,4.72,4.84l23.81.3a4.81,4.81,0,0,0,4.78-4.72l0-4.41A4.78,4.78,0,0,0,63,158.63Z"/><path class="cls-24" d="M118.59,158.06a7.14,7.14,0,0,0-3.21-1.68,7.24,7.24,0,0,0-1.56-.17H90.07a7.05,7.05,0,0,0-7.06,7v4.41a7.06,7.06,0,0,0,7.06,7.06h23.75a7.06,7.06,0,0,0,7.06-7.06v-4.41A7,7,0,0,0,118.59,158.06Z"/><path class="cls-25" d="M108.58,164.91A1.71,1.71,0,0,0,111,165l7.6-7a7.14,7.14,0,0,0-3.21-1.68l-6.69,6.12A1.7,1.7,0,0,0,108.58,164.91Z"/><path class="cls-23" d="M113.8,177.15h-.12l-23.75-.29a9.36,9.36,0,0,1-9.22-9.45l.06-4.41a9.36,9.36,0,0,1,9.33-9.22h.11l23.76.3a9.33,9.33,0,0,1,9.21,9.44l-.05,4.41A9.36,9.36,0,0,1,113.8,177.15ZM90.1,158.34a4.79,4.79,0,0,0-4.78,4.72l0,4.4A4.77,4.77,0,0,0,90,172.3l23.82.3a4.79,4.79,0,0,0,4.77-4.72l.06-4.41a4.78,4.78,0,0,0-4.72-4.84Z"/><path class="cls-23" d="M82.7,167.86a2.16,2.16,0,0,1-.89-.19,15.42,15.42,0,0,0-5.5-1.12,9.65,9.65,0,0,0-4.72.91,2.2,2.2,0,0,1-3.15-.66,2.5,2.5,0,0,1,.63-3.33c.25-.17,2.58-1.72,7.24-1.72a19.65,19.65,0,0,1,7.27,1.51,2.44,2.44,0,0,1,1.21,3.14A2.28,2.28,0,0,1,82.7,167.86Z"/><path class="cls-23" d="M83.72,173.37H69a1.9,1.9,0,0,1,0-3.79H83.72a1.9,1.9,0,0,1,0,3.79Z"/><path class="cls-26" d="M116.48,167.86c-.53,0-.23-5.92-1.33-7s-7.06-.81-7-1.34,5.63-.85,6.76-2,1.54-6.72,2-6.76.47,5.73,1.53,6.8,6.82,1,6.8,1.49-5.75.77-6.91,1.92S117,167.82,116.48,167.86Z"/></g><g id="Badge"><polygon class="cls-27" points="42.94 172.33 25.3 156.77 7.65 172.33 7.65 123.86 42.94 123.86 42.94 172.33"/><polygon class="cls-28" points="51.11 120.23 47.66 122.72 50.48 125.92 46.55 127.58 48.59 131.32 44.39 132.06 45.54 136.17 41.28 135.95 41.49 140.21 37.39 139.06 36.65 143.26 32.9 141.23 31.24 145.15 28.05 142.33 25.56 145.79 23.06 142.33 19.87 145.15 18.21 141.22 14.46 143.26 13.72 139.06 9.62 140.21 9.83 135.95 5.58 136.16 6.72 132.06 2.53 131.32 4.56 127.58 0.64 125.92 3.46 122.72 0 120.23 3.46 117.74 0.64 114.54 4.56 112.88 2.53 109.14 6.72 108.4 5.58 104.29 9.83 104.5 9.62 100.25 13.73 101.4 14.46 97.2 18.21 99.23 19.87 95.31 23.06 98.13 25.56 94.67 28.05 98.13 31.24 95.31 32.9 99.23 36.65 97.2 37.39 101.4 41.49 100.25 41.28 104.51 45.54 104.3 44.39 108.4 48.59 109.14 46.55 112.88 50.48 114.54 47.66 117.74 51.11 120.23"/><path class="cls-12" d="M44,120.23A18.43,18.43,0,1,1,25.56,101.8,18.43,18.43,0,0,1,44,120.23Z"/><path class="cls-26" d="M41.11,117.08c-.64,0-.27-7.16-1.6-8.49S31,107.61,31,107s6.8-1,8.17-2.39,1.86-8.12,2.44-8.17.56,6.92,1.85,8.22,8.24,1.19,8.21,1.8-7,.93-8.34,2.32S41.68,117,41.11,117.08Z"/></g><g id="Like"><path class="cls-29" d="M141.19,21.3a2.94,2.94,0,0,1-2.94-2.94v-.73a2.94,2.94,0,0,1,2.94-2.93h12.33l-.59-.79c-1.29-1.69-4.13-6.3-3.92-10.17.07-1.29,2.22-7.38,7.45-.58,12,15.69,17.76,14,17.76,14a4.07,4.07,0,0,1,2.57,3.33V37.23c0,1.39-.78,1.8-2.57,2.51l-8.6,2h-.05a2.55,2.55,0,0,1-.84.15h-21.4A2.94,2.94,0,0,1,140.4,39v-.73a2.94,2.94,0,0,1,2.93-2.94h3.89v-.27h-6a2.94,2.94,0,0,1-2.94-2.93v-.74a2.94,2.94,0,0,1,2.94-2.93h6v-.28h-6a2.94,2.94,0,0,1-2.94-2.93v-.73a2.94,2.94,0,0,1,2.94-2.94h6V21.3Z"/><rect class="cls-6" x="174.3" y="14.8" width="5.37" height="27.12"/><rect class="cls-10" x="179.67" y="11.4" width="32.01" height="33.81"/></g></g></g></g></svg>