<svg id="Capa_1" data-name="Capa 1" xmlns="http://www.w3.org/2000/svg" viewBox="0 0 232 260"><defs><style>.cls-1{fill:#6c2910;}.cls-2{fill:#fff;}.cls-3{fill:#c88a5e;}</style></defs><circle class="cls-1" cx="114.01" cy="218.62" r="28.85"/><path class="cls-2" d="M116.06,207v19.81h-4.58V212.15L107,213.47V210l8.68-3Z"/><path class="cls-3" d="M64.89,130.1c-6.54,0-13.08.1-19.61,0-2.3-.05-2.79.91-2.52,2.85.24,1.71-1.06,4.35,2.56,4,1.62-.17,3.51-.15,3.48,2.2s-1.88,2.19-3.52,2.21c-5.93.09-7.2-1.1-7.18-6.87,0-3.45-.77-7.2,3.6-9,.93-.39.41-1.65.42-2.5,0-7,0-14.08,0-21.12.07-10,7.33-17.23,17.33-17.37,3.52,0,7,0,10.56,0,10.36.09,17.63,7.2,17.82,17.58.12,7,0,14.08,0,21.12,0,1.3-.22,2.88,1.74,2.77,1.73-.09,1.44-1.58,1.44-2.76,0-6.94,0-13.87,0-20.81.06-10.52,7.31-17.8,17.79-17.9,3.52,0,7,0,10.56,0,10.07.14,17.37,7.5,17.44,17.64,0,7,0,14.08,0,21.11,0,1.21-.23,2.68,1.49,2.73,1.94.06,1.7-1.53,1.7-2.82,0-6.74,0-13.48,0-20.22.08-11.33,7.19-18.41,18.48-18.45,3.72,0,7.44,0,11.16,0A13,13,0,0,1,175,85.61a2.12,2.12,0,0,1,1.41,2.65,2,2,0,0,1-2.79,1.58c-5-1.66-10.18-.92-15.27-.94-8.34,0-13.55,5.28-13.58,13.55,0,6.84.06,13.68,0,20.51,0,1.85.33,2.63,2.43,2.61q15.84-.16,31.68,0c2,0,2.57-.61,2.54-2.55-.09-6.93,0-13.87,0-20.81A14.41,14.41,0,0,0,180,96.05c-.7-1.48-.45-2.85,1.19-3.48s2.43.5,3,1.75a16.22,16.22,0,0,1,1.59,7c0,7.14,0,14.28,0,21.42,0,1.57-.05,2.91,1.86,3.54a3.36,3.36,0,0,1,2,2.86,28.23,28.23,0,0,1,0,8.41c-.39,2.52-2.1,3.76-4.69,3.75-4.53,0-9.06.09-13.58,0-2-.06-2.79.58-2.49,2.55a9,9,0,0,1,0,.9c0,2.11-.67,4.68.29,6.2,1.1,1.75,3.89.5,5.92.74,3.74.44,6,2.85,5.88,6.32-.15,3.31-2.56,5.54-6.23,5.57q-11.78.06-23.53,0c-3.63,0-6.34-2.59-6.37-5.86s2.45-5.62,6-6c2-.23,4.53.92,5.75-.58s.17-4.08.45-6.15c.38-2.86-.6-3.75-3.58-3.7-10.22.2-20.46.15-30.68,0-2.26,0-3.2.59-2.81,2.85a4,4,0,0,1,0,.6c0,2.11-.67,4.68.29,6.21,1.1,1.76,3.89.48,5.92.74,3.53.46,5.95,2.89,5.89,6.08-.07,3.38-2.63,5.79-6.38,5.81-7.85,0-15.69.05-23.53,0-3.6,0-6.1-2.34-6.27-5.6s2.2-5.79,5.69-6.24c.3,0,.6,0,.9-.05,5.5-.29,5.51-.29,5.5-5.84,0-.8-.06-1.61,0-2.41.13-1.52-.39-2.13-2-2.12q-16.55.09-33.1,0c-1.44,0-2,.52-1.93,1.94,0,.4,0,.8,0,1.2,0,2.21-.65,4.86.34,6.51s3.89.46,5.93.73c3.51.46,6,3,5.87,6.13s-2.8,5.73-6.48,5.75q-11.61.06-23.23,0c-3.88,0-6.33-2.24-6.43-5.68s2.23-5.83,6-6.22c2-.2,4.68,1,5.69-.58S59,147,59,144.9c0-1.78.71-4-2.52-3.81-1,0-1.68-1.11-1.54-2.24A2,2,0,0,1,56.67,137a17.32,17.32,0,0,1,2.7-.13c8.45,0,16.9-.1,25.34.05,2.7,0,2.61-1.44,2.52-3.23s.67-3.7-2.43-3.62C78.16,130.21,71.52,130.1,64.89,130.1Zm.23-4.59c5.22,0,10.44-.09,15.65,0,2,.06,2.52-.61,2.49-2.54-.11-6.92,0-13.85-.05-20.77,0-7.91-5.21-13.19-13.13-13.38-3.41-.08-6.83-.08-10.24,0-7.67.18-12.91,5.15-13.13,12.79-.21,7.22,0,14.45-.09,21.67,0,1.7.53,2.25,2.24,2.22C54.28,125.46,59.7,125.51,65.12,125.51Zm48.72,0c5.32,0,10.65-.07,16,0,1.81,0,2.45-.42,2.42-2.33-.11-7.33,0-14.67-.09-22a12,12,0,0,0-10.52-12,55.8,55.8,0,0,0-14.72-.1c-6.84.78-11.05,5.79-11.12,12.76s.08,14.06-.07,21.09c0,2.21.72,2.67,2.76,2.62C103.59,125.42,108.71,125.51,113.84,125.51Zm.16,11.33c6.62,0,13.25-.12,19.87.06,2.85.08,2.41-1.63,2.38-3.29s.66-3.59-2.43-3.56q-19.86.19-39.73,0c-3.13,0-2.31,2-2.38,3.6s-.38,3.34,2.42,3.26C100.75,136.71,107.38,136.84,114,136.84Zm48.84,0c6.63,0,13.26-.1,19.88.06,2.37.06,2.77-1,2.45-2.88-.26-1.56,1.23-4-2.27-4q-19.89.15-39.77,0c-3.11,0-2.3,2-2.41,3.64-.11,1.81-.14,3.28,2.54,3.21C149.78,136.73,156.31,136.84,162.84,136.84ZM65,156.29H53.9c-1,0-2.22-.18-2.29,1.25s1.18,1.4,2.16,1.4c7.41,0,14.82,0,22.23,0,.94,0,2.27.21,2.29-1.25,0-1.66-1.4-1.37-2.45-1.38C72.23,156.27,68.62,156.29,65,156.29Zm49.2,0H102.78c-1,0-2.18,0-2.1,1.46.07,1.27,1.19,1.18,2.06,1.18q11.15,0,22.29,0c.93,0,2.22.21,2.24-1.29s-1.22-1.34-2.2-1.35Zm48.93,0H151.73c-1,0-2.17,0-2.08,1.47.08,1.26,1.22,1.17,2.08,1.17q11.27,0,22.53,0c1,0,2.2,0,2.08-1.48-.1-1.21-1.15-1.17-2.07-1.17ZM66.3,146.41c0-1.21,0-2.41,0-3.62,0-.92-.21-1.54-1.34-1.49-.89,0-1.3.46-1.31,1.28q0,3.91,0,7.83c0,.89.55,1.17,1.39,1.18s1.27-.41,1.26-1.27C66.29,149,66.3,147.71,66.3,146.41Zm49,.13c0-1.2,0-2.39,0-3.59,0-.81,0-1.6-1.19-1.65s-1.37.54-1.37,1.47c0,2.49,0,5,0,7.48,0,.8.26,1.3,1.19,1.34s1.39-.5,1.37-1.46C115.24,148.94,115.25,147.74,115.26,146.54Zm49,.09c0-1.4,0-2.81,0-4.21,0-.88-.63-1.14-1.46-1.11s-1.15.31-1.15,1.05c0,2.71,0,5.42,0,8.13a1,1,0,0,0,1.11,1.09c.76,0,1.47-.09,1.5-1C164.33,149.24,164.29,147.94,164.3,146.63Z"/><path class="cls-3" d="M147.88,43.06a33.91,33.91,0,1,1-33.79-34A34,34,0,0,1,147.88,43.06ZM114,13.66a29.38,29.38,0,1,0,29.43,29.25A29.49,29.49,0,0,0,114,13.66Z"/><path class="cls-3" d="M114,68.86a25.9,25.9,0,1,1,25.93-25.77A25.91,25.91,0,0,1,114,68.86ZM117.64,64l.77-.09C126,62.76,133.82,54.76,135,47c.19-1.29-.06-1.84-1.47-1.83A2.24,2.24,0,0,1,131,42.83a2.21,2.21,0,0,1,2.41-2.2c1.6,0,1.75-.66,1.47-2.07a21.64,21.64,0,0,0-16.33-16.34c-1.36-.27-2.29-.55-2.3,1.41a2.28,2.28,0,1,1-4.56,0c0-2-1-1.61-2.31-1.35A21.55,21.55,0,0,0,93.08,38.62c-.21,1.12-.37,2,1.23,2,1.44,0,2.64.69,2.65,2.28a2.25,2.25,0,0,1-2.57,2.34c-1.5,0-1.59.67-1.4,1.88,1.21,7.69,8.58,15.29,16.32,16.75,1.24.24,2.42.52,2.37-1.49a2.2,2.2,0,0,1,2.18-2.43c1.56-.06,2.35,1,2.43,2.49C116.35,63.45,116.47,64.26,117.64,64Z"/><path class="cls-3" d="M118.61,45.27c-7,0-7.09.81-7-7,0-2.2,0-4.4,0-6.6,0-1.58.54-2.87,2.3-2.91s2.38,1.22,2.39,2.81c0,2.2.11,4.41,0,6.6-.11,1.88.43,2.78,2.48,2.59a29.28,29.28,0,0,1,4.49.05,2.06,2.06,0,0,1,2.21,2.3,2.13,2.13,0,0,1-2.37,2.15C121.61,45.3,120.11,45.27,118.61,45.27Z"/></svg>