<svg id="Capa_1" data-name="Capa 1" xmlns="http://www.w3.org/2000/svg" viewBox="0 0 232 260"><defs><style>.cls-1{fill:#6c2910;}.cls-2{fill:#fff;}.cls-3{fill:#c88a5e;}</style></defs><circle class="cls-1" cx="117.23" cy="222.04" r="28.85"/><path class="cls-2" d="M123.94,227.65v3.54H110.12v-3l6.36-6.69a18.84,18.84,0,0,0,1.37-1.74,7.47,7.47,0,0,0,.75-1.39,3.23,3.23,0,0,0,.24-1.13,3.76,3.76,0,0,0-.25-1.44,2,2,0,0,0-.74-.88,2.21,2.21,0,0,0-1.19-.3,2,2,0,0,0-1.24.41,2.64,2.64,0,0,0-.82,1.12,4,4,0,0,0-.29,1.59h-4.6a6.34,6.34,0,0,1,.89-3.33,6.55,6.55,0,0,1,2.48-2.42,7.36,7.36,0,0,1,3.69-.9,8.73,8.73,0,0,1,3.68.68,4.82,4.82,0,0,1,2.23,2,6.46,6.46,0,0,1,.43,5.08,8.33,8.33,0,0,1-.94,1.89,15.84,15.84,0,0,1-1.49,1.91c-.58.66-1.25,1.35-2,2.08l-2.56,3Z"/><path class="cls-3" d="M140.54,171.79c-6.75,0-13.5,0-20.25,0-6.91,0-11.2-3.83-11.58-10.69-.12-2.25-.73-3-3-3.14-4.34-.34-8.48-1.87-12.67-3a49.78,49.78,0,0,0-13.52-1.8q-18.08,0-36.15,0c-6.15,0-9.16-3-9.16-9.15q0-20.1,0-40.2c0-6,3.14-9.18,9.21-9.22,6.64,0,13.29,0,19.94,0a21,21,0,0,0,15.37-6.38c3.19-3.13,6.33-6.3,9.48-9.46a25.29,25.29,0,0,1,18-7.92c2,0,2.42-.79,2.4-2.58-.07-7.79.07-15.58-.06-23.37-.08-5.1,1.72-9,6.1-11.79,3.06-2,5.9-4.23,8.9-6.29a2.43,2.43,0,0,0,1.2-3c-1.06-5.79,1.17-10.07,5.69-11.28a19.23,19.23,0,0,1,4.63-.32c4.15,0,8.31,0,12.46,0,5.8,0,9.31,3.08,8.81,8.73-.35,4,1.07,6.23,4.3,8.08,2.42,1.39,4.58,3.22,6.87,4.83a11.28,11.28,0,0,1,5.05,9.8q0,13.25,0,26.49c0,.31,0,.62,0,.93.16,3.15-3.36,5.6-2.77,8,.64,2.6,2.87,5,2.75,8-.07,1.73.47,2.27,2.25,2.36,8.2.46,12.31,6.21,10.27,14.3-.35,1.41.06,1.64,1.27,2.08,4.81,1.77,7.44,5.44,7.46,10a10.46,10.46,0,0,1-7.36,10.09c-1.56.57-1.74,1-1.25,2.53a10.1,10.1,0,0,1-4.5,12.37c-1.44.9-1.63,1.48-1,3.07,2.11,5.35,0,10.63-5.23,13.34a3,3,0,0,0-1.91,3.05c-.17,7.4-4.41,11.5-11.74,11.51C154,171.8,147.29,171.79,140.54,171.79Zm-1.4-18.71h0c9.86,0,19.73,0,29.6,0,3.82,0,6.35-2.19,6.36-5.34s-2.41-5.21-6.4-5.23q-7.94,0-15.89,0c-2,0-4.06,0-4.12-2.57-.06-2.85,2.24-2.77,4.25-2.77,6.13,0,12.26,0,18.39,0a28.81,28.81,0,0,0,4.65-.22,5.43,5.43,0,0,0,4.5-5.21,5.18,5.18,0,0,0-4.67-5,22.9,22.9,0,0,0-3.1-.12h-20c-1.93,0-4.06,0-4.08-2.64s2-2.72,4-2.71c6.64,0,13.29,0,19.94,0,3.43,0,6.86.1,10.28-.05a5.41,5.41,0,0,0,5.45-5.6c-.12-3-2.25-4.85-5.65-4.93-1.55,0-3.11,0-4.67,0q-12.93,0-25.86,0c-1.9,0-3.43-.6-3.5-2.67s1.47-2.77,3.34-2.82c.73,0,1.46,0,2.18,0,6.75,0,13.51,0,20.26,0,3.56,0,5.89-2,6-4.93s-2.4-5.39-5.89-5.62c-.93-.06-1.87,0-2.8,0H107.28c-1.87,0-3.74-.11-3.83-2.54-.08-2.19,1.49-2.78,3.36-2.68,1.68.1,1.78-.92,1.82-2.18a12,12,0,0,1,2-6.75c.48-.69,1.95-1.2.86-2.53-.86-1-1.58-2-3.24-2-6.07.08-11.45,1.8-15.84,6.11-3.33,3.27-6.61,6.61-9.92,9.9a25.48,25.48,0,0,1-15,7.62c-7.76,1-15.56.25-23.34.43-4.22.1-4.6.4-4.6,4.66q0,19.17,0,38.33c0,4.39.43,4.82,4.8,4.83,11.53,0,23.06,0,34.59,0a56,56,0,0,1,17.78,2.55,57.34,57.34,0,0,0,19.31,2.73C123.76,152.94,131.45,153.08,139.14,153.08Zm1.28-63.71c7.68,0,15.37,0,23.05,0,1.16,0,2.82.68,3.38-.67a5.2,5.2,0,0,0-.51-4.78,5.05,5.05,0,0,0-4.09-2.48c-1.66-.14-2.82-.84-2.92-2.6-.11-2,1.28-2.56,2.95-2.92,3.54-.77,4.78-2.22,4.79-5.76.05-8.93,0-17.86,0-26.79a6,6,0,0,0-2.53-5.05c-12.89-10-12.88-10-29.24-10-.83,0-1.66.05-2.49,0a5.41,5.41,0,0,0-3.76,1.14q-6.15,4.5-12.39,8.9a6,6,0,0,0-2.7,5.28c0,8.83,0,17.66,0,26.49,0,3.49,1.36,5.12,4.76,5.82,1.67.35,3.18.93,3.17,2.81s-1.31,2.58-3.12,2.76a5.14,5.14,0,0,0-4.72,4.29c-.72,3-.17,3.64,2.93,3.65Zm.18,69.21h-23c-3.67,0-4.71,1.87-2.86,5.14a4.79,4.79,0,0,0,4.31,2.61c14.42,0,28.84,0,43.26,0a4.64,4.64,0,0,0,4.65-3.86c.81-3.13.22-3.84-3-3.84Zm.12-135.79c2.48,0,5,.1,7.43-.05,1.18-.07,3.16,1,3.13-1.62,0-2.21-.9-3.54-3.29-3.53s-4.54,0-6.82,0c-2.89,0-5.78,0-8.67.09-2.25.1-2.43,1.78-2.46,3.57,0,2.14,1.54,1.5,2.62,1.53C135.35,22.83,138,22.79,140.72,22.79Z"/><path class="cls-3" d="M140.4,81.38c-3.11,0-6.22,0-9.34,0-2,0-3.7-.55-3.72-2.75,0-2,1.63-2.71,3.49-2.71,6.54,0,13.08,0,19.62,0,1.82,0,3.42.65,3.38,2.78s-1.59,2.67-3.46,2.66C147,81.36,143.72,81.38,140.4,81.38Z"/></svg>