<svg xmlns="http://www.w3.org/2000/svg" viewBox="0 0 184.52 195.29"><defs><style>.cls-1{fill:#c98b5f;}</style></defs><g id="Capa_2" data-name="Capa 2"><g id="Capa_1-2" data-name="Capa 1"><path class="cls-1" d="M105.75,90.83,116.32,116c2.38-2.51,3-4.79.74-7.42a11.45,11.45,0,0,1-1.53-2.63,2.81,2.81,0,0,1,4.55-3,13.75,13.75,0,0,1,1.77,2.46c3,5,6.17,9.91,9,15a246.71,246.71,0,0,0,26.54,39c.49.58.91,1.22,1.35,1.84,1,1.47,1,3-.42,4.05a2.76,2.76,0,0,1-4.06-.58c-1.46-1.76-2.78-3.64-4.27-5.37-9.91-11.52-17.54-24.55-25.08-37.65-.69-1.18-1.5-2.29-2.29-3.49-2.81,3.27-2.95,6.35-1.37,10.21,6.6,16.06,12.8,32.28,19.28,48.39,1.36,3.4,3.3,6.56,4.93,9.86,2.32,4.71-.32,8.88-5.61,8.56s-10.38-.86-15.54-1.53a8.38,8.38,0,0,1-6.8-5.47c-.6-1.46-1.23-2.2-3-2.24-14-.34-27.77-2.43-41.11-7.37-.83,2.72.44,5.11.69,7.56.35,3.63-.87,6.3-4.14,7.78a7,7,0,0,1-8.9-2c-3.23-3.76-6.52-7.47-9.73-11.24a7.69,7.69,0,0,1-.81-9.55c1.6-2.64,1.05-3.94-1.4-5.69-27.52-19.61-42.56-46.36-45.42-80-.26-3-.49-6.08-.56-9.12a5.64,5.64,0,0,0-1.38-3.38c-2.31-3.11-2.45-6.41,0-9.49s5.46-3.9,9.17-2.54C14,62,17.3,62.72,20.25,64.12c9.33,4.45,17.9,2.38,26.27-2.51,2.95-1.73,5.94-3.41,8.89-5.16.77-.47,2.16-.64,1.61-2.09a2.39,2.39,0,0,0-2.3-1.69,9.16,9.16,0,0,1-5.33-1.83c-1.78-1.4-3.2-1.1-4.66.21-3.34,3-7.09,4.27-11.12,1.82s-8.81-5.07-7.92-11c.77-5.14,2-10.42,8.19-12.06.76-.2,1.46-.32,1.86-1.11C38.23,23.88,43,21.32,47,18.08s8.51-2.64,11.74,1.39c3,3.76,5.91,7.64,8.68,11.58a13.38,13.38,0,0,1,2.29,10.84c-.78,3.71.28,4.87,4.08,4.6,4.57-.32,8.59.84,11.78,4.18,1.34,1.4,2,1,2.73-.47A19.82,19.82,0,0,1,101.5,39.61c2.84-.72,2.76-2.75,1.17-4.21-4.23-3.9-5.52-8.67-5-14.13.2-2.28-.85-2.82-2.88-2.75A15.53,15.53,0,0,1,83.6,14.36c-1.51-1.34-2.18-3-.68-4.63s3-1.1,4.37.16a11.23,11.23,0,0,0,4.61,2.56c3.19.87,5.53,1.16,6.61-3.24,1.34-5.48,6.69-9,12.25-9.2a14.06,14.06,0,0,1,13.33,8.42c.66,1.49,0,3.94,2.17,4.37a9.79,9.79,0,0,0,7.63-1.64c1.89-1.33,3.92-4.14,6-1.14s-1.1,4.67-3.19,6.18a14.17,14.17,0,0,1-9,2.34c-1.62-.05-2.72.25-2.56,2.26.46,5.71-.78,10.76-5.28,14.81-1.33,1.2-1.39,3,1.11,3.62,8.18,2.08,11.77,7.52,12,15.82s.93,16.74,1.44,25.11c.11,1.76,0,3.55,1.42,5,7.46,7.64,11.83,17.11,15.07,27,5.84,17.88,16.66,33,26.42,48.67,2.2,3.55,4.1,7.29,6.11,11,1.88,3.42,1.38,6.58-1.14,9.49-3.17,3.64-6.27,7.35-9.51,10.92-2.88,3.18-6,3.84-9.18,2.21s-4.51-4.74-3.79-8.69a23.19,23.19,0,0,0,.59-3.75c.14-7.45,3.29-12.71,10.58-15.18,1.9-.65,2.64-1.85,1-3.63a16.21,16.21,0,0,1-1-1.6,230.17,230.17,0,0,1-29.3-57c-2-5.72-5.66-10.45-9.62-15a3.09,3.09,0,0,0-2.88-1.42C121.47,89.13,113.81,90,105.75,90.83ZM20.64,81.74c.48,5.63,2.11,10.93,3.83,16.16,8,24.39,21.73,44.33,45.05,56.53,18.13,9.49,37.67,11.35,57.71,10.31,1.89-.1,2-.8,1.57-2.36-.57-1.92-1.71-2.36-3.65-2.32a156.32,156.32,0,0,1-22.06-.56C73.16,156,50.91,141.24,36.6,114.64c-1-1.84-2.22-3.92.18-5.33,2.59-1.52,3.85.56,4.93,2.58C58.93,144,87.07,155.5,121.88,154.36c1.05,0,3,.67,3-1.17a5.72,5.72,0,0,0-1.72-4.06c-.88-.71-2.67-.34-4.06-.37-26.93-.58-48.79-11.33-65.35-32.64A97.5,97.5,0,0,1,38.24,87.07c-1.07-3.18-2.82-3.07-5-2.35-2.73.88-.67,2.75-.39,4a72.27,72.27,0,0,0,2.57,8.74c.72,2,.4,3.63-1.6,4.38-2.21.83-3.34-.73-3.9-2.55A103.3,103.3,0,0,1,26.38,86.9C25.77,83.53,24.09,82.08,20.64,81.74Zm96.24,50.54c-5.51-13.11-10.87-25.76-16.14-38.45-.67-1.64-1.54-1.24-2.66-.77-3.27,1.37-6.6,2.61-9.8,4.11-3.74,1.75-7.16,1.48-10.2-1.31-2.85-2.61-3.23-5.92-1.27-10.44.37-.86,1-1.72-.31-2C69.63,82,63.43,77.09,55.7,79.85c-2.26.81-2.39,1.38-1.63,3.33C58.33,94,63.94,104,72,112.49,84.07,125.09,99,131.33,116.88,132.28ZM9.44,77.39C8.28,142.66,69.37,190.3,134.8,178.14c-.72-1.91-1.55-3.76-2.1-5.69s-1.63-2.47-3.61-2.24a117.33,117.33,0,0,1-31.87-.91C74.48,165.72,55.1,155.89,40,138.23,26.21,122.1,18.47,103.14,14.72,82.48,14.08,78.94,12.47,77.79,9.44,77.39ZM47,68a13.8,13.8,0,0,0,9.22,4.3c6.61.2,12.77,2.14,18.68,4.62,6.65,2.8,12.35,2.47,18.24-1.91,2.49-1.84,3.29-3,1.38-5.47A152.4,152.4,0,0,0,80.86,54.26a7.12,7.12,0,0,0-9.16-1.12C63.78,58.36,55.55,63.05,47,68Zm76-17.75c-.1-3.23-1.29-5-4-5.34a4.37,4.37,0,0,0-5.29,3.74q-2.07,9.66-3.9,19.36c-.57,3-1.71,5.22-4.68,6.78-7.18,3.76-14.13,8-21.19,12-1.71,1-3.15,2.11-2.15,4.17s2.9,1.44,4.61.73Q97.91,86.84,109.48,82a10.76,10.76,0,0,0,6.46-7.49c1.56-5.61,3.21-11.19,4.82-16.79C121.53,55.09,122.31,52.42,122.92,50.29Zm-7.37,92.45a12.49,12.49,0,0,0,2.27.15c1-.1,2.74.87,2.75-.84,0-1.45-.3-3.42-2.38-3.85a21.25,21.25,0,0,0-2.66-.14c-17.15-1.12-32.33-6.95-44.94-18.89-10.06-9.52-16.93-21.09-21.84-33.92-.8-2.11-1.43-4.2-4.36-2.86-3.12,1.42-.29,3.14,0,4.56a25.69,25.69,0,0,0,2.23,5.63C60.17,122.24,82.06,140.46,115.55,142.74ZM111.41,18.56h-5.69c-1,0-2.24,0-2.31,1.34-.19,3.79-.7,7.85,2.71,10.54,2.19,1.74,3.51,3.49,3.07,6.34-.25,1.65.59,2.21,2.19,2.16,1.36,0,2.29-.36,2.08-1.91-.39-2.94.77-4.91,3.17-6.69s3.87-8.2,2.47-10.54c-1.52-2.56-4.36-.78-6.56-1.24A5.33,5.33,0,0,0,111.41,18.56ZM46.8,75.92c-3.34-4.38-7.17-6-12.24-4.09-3.84,1.47-7.56,1-11.36-.6C18.89,69.45,14.4,68.1,10,66.65c-1.39-.46-3.15-1.16-3.8,1-.54,1.78.92,2.38,2.29,2.89,3.9,1.47,8,2.62,11.65,4.52a28.4,28.4,0,0,0,23.42,1.64A31.14,31.14,0,0,1,46.8,75.92ZM55.15,43.1c.5.78-2,3.55.75,3.78,3,.25,4.56,1.72,5.87,4,.78,1.37,1.63.75,2.49.15s2-1.25.91-2.35c-2.48-2.59-2-5.36-1.17-8.45.67-2.43-.45-4.67-1.85-6.75-2.85-4.21-2.72-4.14-6.73-1.11C54,33.46,54.14,34.64,54.3,36,54.54,38.14,54.81,40.28,55.15,43.1ZM165.51,186.53c.09.84-.53,2,.74,2.57a1.71,1.71,0,0,0,2-.59c3.25-3.72,6.58-7.38,9.69-11.21,1.2-1.47-.67-6.28-2.25-6.41-1.14-.1-8.31,4.68-8.53,5.83C166.59,180,166.08,183.2,165.51,186.53Zm-117-143.9A8.25,8.25,0,0,0,48.64,37c-1.74-4.9.09-7.85,4.39-10.08.89-.46,3.57-.72,1.9-3.06-1.39-1.95-3-2.56-5.1-.82-2.32,2-4.75,3.78-7,5.78-3.1,2.73-3.15,5.92-.14,8.8C44.4,39.3,46.3,40.77,48.48,42.63ZM118,83.57c3.21-.36,5.83-.73,8.46-.95,1.67-.13,2.44-.66,2.29-2.56-.58-7.24-1-14.49-1.55-22.59C123.6,66.41,122.89,75.42,118,83.57ZM57.6,171c-1.42.15-2.92,4.45-1.82,5.77,3.15,3.82,6.45,7.51,9.7,11.23.51.57,1.13,1.17,2,.76a1.87,1.87,0,0,0,1-2.26c-.6-3.1-1.11-6.23-1.74-9.33C66.4,176,58.82,170.91,57.6,171ZM111.11,12.91c1.9,0,3.81-.08,5.7,0,2.4.11,2.6-.93,1.62-2.74a8,8,0,0,0-14.16-.08c-.91,1.64-1,2.92,1.52,2.81C107.56,12.84,109.34,12.91,111.11,12.91ZM42.94,45a23.3,23.3,0,0,1-2.06-1.31,20.28,20.28,0,0,1-4.52-4.54c-.7-1.06-.48-3.22-2.17-3s-1.32,2.18-1.78,3.43a4.3,4.3,0,0,1-.29.7c-2.71,4.44,1.73,5.32,3.78,7.13s3.93.28,5.5-1.34A13.71,13.71,0,0,1,42.94,45Zm80.42,140.72-.25,1.12c5.25,2.38,11,1.67,17.64,2.4-2.36-2.22-1.65-5.58-5.07-5.16C131.57,184.62,127.47,185.21,123.36,185.76Zm-25-138.09c-7.91,5-8.16,10.93-.79,15.17C98,57.82,96.92,52.77,98.37,47.67Zm10-2.41L107.19,45c-6.32,5.73-2.91,13.24-2.86,20.14Q106.34,55.18,108.36,45.26Z"/><path class="cls-1" d="M150.71,35.21a3,3,0,0,1,2.83,3.43c-.1,2.14.42,3.4,2.92,3.17,2-.19,3.65.71,3.54,2.93-.09,2-1.6,2.83-3.48,2.62-2.43-.27-3.12.85-3,3.07.12,1.88-.76,3.38-2.73,3.4-2.19,0-3.12-1.53-2.87-3.6.32-2.51-.9-3.08-3.08-2.87-1.94.19-3.31-.75-3.35-2.72s1.31-3,3.25-2.82c2.47.23,3.49-.66,3.19-3.19C147.72,36.66,148.85,35.58,150.71,35.21Z"/><path class="cls-1" d="M166.85,55.69c1.85.17,2.89,1.2,2.88,2.93a2.82,2.82,0,0,1-5.63,0C164,56.9,165.19,56,166.85,55.69Z"/></g></g></svg>