<svg xmlns="http://www.w3.org/2000/svg" viewBox="0 0 177.78 177.78"><defs><style>.cls-1{fill:#c98b5f;}</style></defs><g id="Capa_2" data-name="Capa 2"><g id="Capa_1-2" data-name="Capa 1"><path class="cls-1" d="M136.33,87.77a3.85,3.85,0,0,0,.32-.64c0-3.45,1.43-7.79-.49-10.08s-6.31-.63-9.61-.7c-6.13-.13-12.26,0-18.39,0-4.91,0-6.68-1.79-6.68-6.72q0-31.57,0-63.15C101.49,1.68,103.22,0,108,0h63.5c4.59,0,6.25,1.67,6.25,6.27q0,31.74,0,63.49c0,4.77-1.7,6.51-6.44,6.53-8.79,0-17.58.09-26.37,0-2.41,0-3.31.66-3.13,3.11.19,2.63,0,5.28,0,7.92,1.51.33,1.91-.94,2.75-1.42,1.24-.7,2.46-.85,3.48.2a2.36,2.36,0,0,1,.11,3.45c-2.44,2.45-5,4.79-7.65,7-1.18,1-2.4.31-3.41-.61-1.88-1.72-3.74-3.45-5.63-5.16-1.49-1.34-2.71-2.91-1-4.69,1.56-1.61,3.15-.64,4.5.7A12.37,12.37,0,0,0,136.33,87.77ZM106.89,38.21c0,9.94.06,19.88,0,29.83,0,2.27.65,2.91,2.91,2.9q29.83-.12,59.66,0c2.39,0,3.15-.64,3.13-3.09q-.12-29.65,0-59.31c0-2.59-.75-3.33-3.33-3.31q-29.65.13-59.31,0c-2.46,0-3.1.76-3.07,3.15C107,18.32,106.89,28.26,106.89,38.21Z"/><path class="cls-1" d="M90.39,141.87c0,1.59,1.16,2,1.61,2.89.64,1.27.72,2.54-.42,3.47a2.47,2.47,0,0,1-3.48-.13q-3.41-3.47-6.62-7.11c-1.24-1.4-.69-2.75.48-4,1.74-1.86,3.46-3.73,5.16-5.63,1.28-1.42,2.79-2.44,4.45-.95s.88,3.1-.48,4.49a1.62,1.62,0,0,0-.7,1.8c3.08,0,6.26,0,9.44,0,2.12,0,1.62-1.57,1.62-2.72,0-8.44,0-16.89,0-25.33,0-5.6,1.63-7.21,7.24-7.22h62.12c5.4,0,6.93,1.59,6.94,7.07,0,4.51,0,9,0,13.53,0,2-.43,3.59-2.73,3.57s-2.51-1.73-2.53-3.44c0-4.16-.09-8.33,0-12.49,0-2-.38-2.88-2.65-2.87q-30.19.12-60.38,0c-2.25,0-2.66.79-2.65,2.81q.09,30,0,60c0,2.39.87,2.85,3,2.85q29.67-.1,59.34,0c2.54,0,3.4-.65,3.36-3.29-.14-10.29-.06-20.59-.05-30.88a27,27,0,0,1,.1-3.12c.18-1.57,1.06-2.67,2.71-2.54a2.57,2.57,0,0,1,2.45,2.84c0,3.12,0,6.25,0,9.37,0,8.91,0,17.81,0,26.72,0,4.37-1.72,6.11-6,6.12q-31.94,0-63.85,0c-4.69,0-6.36-1.73-6.38-6.58,0-8.67-.1-17.35,0-26,0-2.56-.61-3.56-3.27-3.33S93,141.87,90.39,141.87Z"/><path class="cls-1" d="M35.91,89.84c-2.43,1.51-4.21,4.17-6.27,1.71s.63-4.12,2.24-5.6c7.82-7.22,5.74-6.62,13.2,0l.76.7c1.52,1.34,3.28,2.86,1.52,4.9s-3.5.52-5-.86a7.65,7.65,0,0,0-1.3-.67c0,3.46,0,6.64,0,9.81,0,2.11,1.53,1.64,2.69,1.64,8.45,0,16.89,0,25.34,0,5.6,0,7.22,1.62,7.23,7.22q0,31.06,0,62.12c0,5.42-1.59,7-7,7q-18.57,0-37.13,0c-.7,0-1.39,0-2.08,0-1.76,0-2.91-.87-2.91-2.71s1.25-2.44,2.76-2.48c4.05-.09,8.1-.07,12.14-.08,8.45,0,16.9-.13,25.34.07,3,.07,3.59-.92,3.58-3.72q-.18-29.33,0-58.65c0-2.42-.37-3.4-3.15-3.38q-29.67.19-59.34,0c-2.73,0-3.23.91-3.21,3.38q.12,29.49,0,59c0,2.53.63,3.58,3.29,3.36s5.08-.06,7.63,0c2,0,4,.25,3.9,2.8-.1,2.23-1.94,2.51-3.84,2.48-3.35-.06-6.71,0-10.06,0-4.38,0-6.13-1.72-6.13-6q0-31.92,0-63.85c0-4.69,1.72-6.37,6.56-6.39,8.68,0,17.35-.1,26,0,2.52,0,3.59-.54,3.35-3.24S35.91,93,35.91,89.84Z"/><path class="cls-1" d="M87.91,35.9a15.15,15.15,0,0,0-1.08-1.63c-1.37-1.47-2.47-3.19-.54-4.75s3.39,0,4.7,1.41c8.29,9,7.55,6.53.76,14.22-1.44,1.64-3,4.37-5.57,2.1s.3-3.84,1.81-6.18c-3.77,0-7.13-.1-10.47,0-1.8.08-1.17,1.72-1.18,2.73,0,8.33,0,16.66,0,25,0,5.89-1.56,7.48-7.32,7.49H7.23C1.51,76.3,0,74.81,0,69.17,0,64.08,0,59,0,53.9,0,52-.1,49.84,2.48,49.78,5.28,49.72,5.27,52,5.28,54c0,4.63.08,9.26,0,13.88,0,2.11.38,3.06,2.82,3q30-.14,60,0c2.37,0,2.84-.81,2.83-3q-.11-29.83,0-59.68c0-2.51-.85-3-3.18-3q-29.67.1-59.33,0c-2.77,0-3.23,1-3.2,3.45.11,9.59,0,19.2,0,28.8a17.81,17.81,0,0,1-.2,3.1,2.33,2.33,0,0,1-2.77,2A2.26,2.26,0,0,1,.07,40.35C0,38.62,0,36.88,0,35.15q0-14.4,0-28.8C0,1.72,1.67,0,6.19,0H70c4.49,0,6.23,1.75,6.26,6.34,0,8.56.18,17.13-.07,25.68-.1,3.33,1,4.21,4.1,3.91C82.61,35.72,84.94,35.9,87.91,35.9Z"/><path class="cls-1" d="M38.22,64.05c-6.25,0-12.5,0-18.75,0-3.91,0-5.25-1.25-5.23-5.22,0-3.5-1.24-7.68,4.12-9,1.51-.36,1-11.67-.39-12.49-3.54-2-5.23-8.82-3-12.25a2.86,2.86,0,0,1,2.16-1.6c5.44-.05,8.91-4,13-6.59,9.87-6.3,6.06-6.44,15.9,0,2.23,1.45,4.41,3,6.58,4.51a8.11,8.11,0,0,0,4.75,1.78c3,0,4.64,1.73,4.56,4.86,0,1.74,0,3.47,0,5.21,0,1.37-.5,2.92-1.71,3.16C56.38,37.2,57,39.94,57,42.5c0,1.51.09,3,0,4.51-.12,1.77.11,2.94,2.26,3.37,1.66.33,2.59,1.84,2.62,3.68q0,.34,0,.69c.43,8.71-.13,9.3-8.77,9.3Zm-.33-32c5.43,0,10.87,0,16.3,0,1.2,0,2.61.36,2.64-1.72s-1.3-1.8-2.55-1.8q-16.12,0-32.25,0c-1.19,0-2.58-.43-2.61,1.7S20.67,32,21.93,32Zm0,26.93H54.18c1.26,0,2.61.25,2.64-1.76s-1.3-1.85-2.57-1.85H22c-1.22,0-2.57-.29-2.59,1.77s1.23,1.85,2.52,1.85ZM30,43.62a30.87,30.87,0,0,1,0-3.47c.23-2.09-.48-2.83-2.68-2.79s-3.22.4-3,2.84a42.5,42.5,0,0,1,0,6.58c-.13,2.14.11,3.32,2.85,3.33s3-1.31,2.79-3.37C29.88,45.7,30,44.66,30,43.62Zm11,0a28.66,28.66,0,0,1,0-3.47c.24-2.07-.46-2.84-2.66-2.8s-3.24.37-3,2.82a43.93,43.93,0,0,1,0,6.59c-.12,2.12.08,3.33,2.84,3.34s3-1.28,2.8-3.36C40.89,45.72,41,44.67,41,43.63ZM51.9,44c0-1,0-2.08,0-3.11.07-1.91.27-3.52-2.68-3.56s-3.19,1.29-3,3.55a52.43,52.43,0,0,1,0,5.88c-.13,2.13.14,3.36,2.88,3.35s3.07-1.2,2.86-3.34C51.83,45.85,51.9,44.92,51.9,44ZM31.38,22.9H44.73C37,16.72,39.2,17,31.38,22.9Z"/><path class="cls-1" d="M38.13,165.23H21.49c-4.77,0-5.27-.51-5.28-5.42q0-9.18,0-18.37c0-1.57.26-3-2-3.72-2-.68-2.13-2.8-.51-4.2,7.14-6.22,14.33-12.39,21.64-18.42,2-1.67,4.37-1.12,6.34.56,6.68,5.69,13.37,11.38,20,17.14,2.49,2.17,2.4,4.08-.45,5.21-1.84.73-1.35,1.9-1.36,3,0,6.59-.13,13.18,0,19.76.08,3.29-1.14,4.58-4.45,4.49C49.68,165.11,43.9,165.23,38.13,165.23Zm.26-27.06c-4.74,0-9.49.12-14.22,0-2.23-.08-2.72.71-2.67,2.77.13,5.43.22,10.88,0,16.3-.14,3.08,1.68,2.63,3.51,2.64s4,.49,3.74-2.79c-.27-3.68,0-7.39-.08-11.09-.05-2.95,1.31-4.21,4.22-4.14,3.47.08,6.94.09,10.41,0,2.88-.08,4.28,1,4.17,4.07-.14,3.81.12,7.64-.07,11.45-.16,3.17,2,2.49,3.69,2.47s3.84.81,3.74-2.42c-.17-5.54-.15-11.1,0-16.65.06-2.31-1-2.64-2.89-2.59C47.41,138.24,42.9,138.17,38.39,138.17Zm15.07-5.5c-4-3.4-7.17-6.18-10.4-8.91-5-4.2-5-4.21-10,0-3.26,2.76-6.45,5.6-10.22,8.87Zm-11.17,21c0-6.87,0-6.87-6.15-6.45a1.93,1.93,0,0,1-.34,0c-1.35-.13-1.81.52-1.78,1.82,0,3,0,6,0,9,0,1,.18,1.62,1.43,1.85,5.63,1,6.83.13,6.83-5.49Z"/><path class="cls-1" d="M125.09,156.58a9.29,9.29,0,0,1,3-6.05c1.1-1.09,3.32-2.1,2.69-3.67-.74-1.85-3.08-.69-4.7-.84-1.84-.17-3.7-.06-5.55-.06a4.22,4.22,0,0,1-4.42-3.2,4.27,4.27,0,0,1,1.94-5.12c3.61-2.29,7.22-4.58,10.93-6.71a3.64,3.64,0,0,0,2.14-3.89,31.42,31.42,0,0,1,0-4.85,8.44,8.44,0,0,1,8.38-8c4.47,0,8.81,3.54,8.29,8-.74,6.27,2,9.58,7.26,11.86a41,41,0,0,1,5.33,3.22c2,1.26,3.32,3,2.6,5.48S160.43,146,158,146c-2.66-.06-5.33,0-8,0-.68,0-1.48-.1-1.8.7s.28,1.29.75,1.8,1,1,1.47,1.47c4.8,4.85,4.69,8.52,0,13.35-2,2.11-3.82,2.17-6,.58-2.74-2-5.41-3.28-8.68-.66-1.38,1.11-3,2.73-5.28,1.5C127.73,163.27,125.08,159.22,125.09,156.58Zm-1-16.47.22.76c2.6,0,5.2.11,7.79,0,2.9-.15,4.11.87,4.23,3.95.13,3.49-.57,6.26-3.41,8.51-1.42,1.13-3.6,2.56-1.73,4.8s3.4-.17,4.69-1c2.57-1.6,4.83-1.88,7.29,0,.72.56,1.63.86,2.4,1.37a1.57,1.57,0,0,0,2.4-.3,2.07,2.07,0,0,0,.42-2.54,8,8,0,0,0-2.07-2.3c-3.14-2.21-3.63-5.27-3.46-8.82.13-2.63,1.06-3.81,3.75-3.7s5.56,0,8.34,0a6.51,6.51,0,0,0-2.79-2.56c-6.37-2.94-11.25-6.76-9.26-14.88a1,1,0,0,0,0-.35c-.25-2.06-1.15-3.66-3.42-3.57s-3.15,1.7-3.22,3.77a50.32,50.32,0,0,0,0,5.89,4.93,4.93,0,0,1-2.91,5.29C130.15,136.19,127.13,138.21,124.05,140.11Z"/><path class="cls-1" d="M137.25,32.63c-.94-3.05-2.58-4.23-5.31-3.87a8.18,8.18,0,0,1-2.41-.15,2.24,2.24,0,0,1-2-2.42,2.24,2.24,0,0,1,2.26-2.54q7.62-.09,15.26,0a2.28,2.28,0,0,1,2.39,2.44,2.41,2.41,0,0,1-2.23,2.63c-1,.2-2.09-.27-3,.57.65,2.63,2.23,3.65,5,3.41,3.09-.27,7.22,1,9-.6,2.13-1.84.6-6.08.67-9.27.13-5.45,0-5.45-5.44-5.45-1.62,0-3.23,0-4.85,0s-2.92-.78-2.95-2.65a2.42,2.42,0,0,1,2.65-2.6,72.76,72.76,0,0,1,10,.19A6.14,6.14,0,0,1,162,18.67c.13,10,.45,20.13-.17,30.15-.26,4.28-3.5,8.06-4.42,12.54-.55,2.65-4.87,3.51-8.59,2.5-2.62-.71-4.39-2.58-4.25-5.23.16-3.06-1.24-3.45-3.66-3.21a19.15,19.15,0,0,1-3.47,0c-1.62-.13-2.08.51-2.26,2.14-.56,5.1-2.59,6.67-7.86,6.47-4.28-.16-6.13-2.29-6.39-7.3,0-.89.29-1.93-.61-2.57-3.1-2.2-3-5.41-3-8.72.07-8.55,0-17.11,0-25.66,0-4.85,2.55-7.54,7.36-7.76,2.89-.13,5.78-.07,8.67,0,1.83,0,3.26.91,3.11,2.91-.13,1.77-1.48,2.45-3.21,2.42-2.55,0-5.1.09-7.63,0-2.2-.1-3.23.72-3.19,3,.06,3.35.06,6.71,0,10.06,0,1.53.34,2.34,2.1,2.3C128.67,32.57,132.82,32.63,137.25,32.63ZM139.58,50c4.85,0,9.71,0,14.56,0,1.61,0,2.76-.4,2.73-2.26s-1.57-1.25-2.57-1.34c-1.26-.12-2.55.06-3.8-.1-2.5-.3-4.86-1.49-4.68-4.18.28-4.42-2.16-4.52-5.32-4.27-1.61.13-3.23,0-4.85,0-1.09,0-1.56.39-1.77,1.58-1.18,6.6-1.39,6.7-8.59,6.93-1.09,0-2.82-.69-2.79,1.49,0,1.87,1.3,2.14,2.86,2.12C130.1,50,134.84,50,139.58,50Zm-14.05-8.92c.76-.72,2.78,1,2.94-1.51.14-2.11-1.46-1.73-2.6-1.64s-3.31-.9-3.36,1.61C122.46,41.7,124.25,40.75,125.53,41.11Zm28.46,0c.82-.68,2.91.88,2.87-1.64,0-2.32-1.89-1.51-3-1.52s-3-.78-3,1.53S152.75,40.62,154,41.13ZM128,58.91c1.28.12,1.87-.43,1.87-1.75,0-1.07-.23-1.76-1.49-1.71-1,0-2.1-.09-2,1.5C126.37,58.1,126.53,59,128,58.91ZM153.35,57c.21-.91-.24-1.53-1.43-1.53-1,0-2.17-.22-2.16,1.38,0,1.1.1,2.07,1.58,2.08C152.54,58.93,153.37,58.61,153.35,57Z"/></g></g></svg>