<svg id="Capa_1" data-name="Capa 1" xmlns="http://www.w3.org/2000/svg" viewBox="0 0 232 260"><defs><style>.cls-1{fill:#6c2910;}.cls-2{fill:#fff;}.cls-3{fill:#c88a5e;}</style></defs><circle class="cls-1" cx="113.63" cy="214.93" r="28.85"/><path class="cls-2" d="M120.34,220.54v3.54H106.52v-3l6.36-6.69a17.59,17.59,0,0,0,1.37-1.74,7.17,7.17,0,0,0,.75-1.39,3.23,3.23,0,0,0,.24-1.13,3.61,3.61,0,0,0-.25-1.44,1.89,1.89,0,0,0-.74-.88,2.21,2.21,0,0,0-1.19-.29,2,2,0,0,0-1.24.4A2.79,2.79,0,0,0,111,209a4,4,0,0,0-.29,1.59h-4.6a6.37,6.37,0,0,1,.89-3.33,6.55,6.55,0,0,1,2.48-2.42,7.36,7.36,0,0,1,3.69-.9,8.73,8.73,0,0,1,3.68.68,4.87,4.87,0,0,1,2.23,2,6,6,0,0,1,.76,3.1,6.06,6.06,0,0,1-.33,2,8.47,8.47,0,0,1-.94,1.88,14.89,14.89,0,0,1-1.49,1.91c-.58.66-1.25,1.35-2,2.09l-2.56,2.95Z"/><path class="cls-3" d="M43.59,105.39A133.1,133.1,0,0,1,33.47,94.25C23.63,81.52,17.5,67,13.15,51.7a4.24,4.24,0,0,1-.22-1.31c.19-3.77,0-6.6-5.23-7-3.8-.28-6.15-5.59-5.36-9.49A8.78,8.78,0,0,1,11,27a8.42,8.42,0,0,1,8.21,7.29,11.86,11.86,0,0,1,.1,4c-1.59,7.2,2.25,10.17,8.31,13,46,21.16,94.2,29.82,144.62,26.66,3.4-.22,6.8-.42,10.19-.69.71-.05,1.54-.29,1.61-1.21s-.74-1.12-1.47-1.27c-1.86-.4-3.45-1.08-3.44-3.37a3.21,3.21,0,0,1,3.31-3.42c1.7-.13,1.82-1.13,1.81-2.42s-.25-2-1.67-2.08c-2-.1-3.35-1.13-3.45-3.28s1.4-3.11,3.32-3.41c2.2-.35,1.77-2,1.79-3.44.07-4.89.09-9.78.13-14.66A18,18,0,0,1,186,31.33c.81-1.8,2.1-3,4.18-2.27a3.14,3.14,0,0,1,2.12,4.28c-2.68,7.07-1,14.38-1.24,21.85,5.17-14,14.47-23.34,29.17-26.68-3.73-5.12-11.62-6.93-18.32-4.22a24.75,24.75,0,0,0-3.55,1.82c-1.84,1.13-3.52.9-4.64-.83-1.27-1.94-.61-3.72,1.29-4.94q11.34-7.26,23.66-1.74c3.16,1.41,5.71,3.66,8.28,5.9,2,1.76,3.54,3.72,2.56,6.55s-3.24,3.57-5.91,3.9a29.13,29.13,0,0,0-20.73,12.31,26.61,26.61,0,0,0-1.88,3c-3.25,5.92-3.25,6,3.47,6.39,2.28.15,4.38.71,4.42,3.32.05,2.87-2.07,3.54-4.6,3.46-2.22-.08-4.44,0-6.66,0s-2.09,1.94-2.3,3.19c-.3,1.67,1.31,1.14,2.2,1.21,2.2.16,3.79,1.05,3.79,3.43,0,2.77-2.08,3.56-4.28,3.34-3.47-.33-4.81,1.09-5.65,4.41-2.69,10.63-7.34,20.3-15.48,27.94-1.68,1.57-1.28,2.52.24,3.86,3.58,3.18,7.88,3.43,11.67.43,1.05-.83,2-1.76,3-2.61,6.77-5.66,14.29-5.64,20.86.13,2.57,2.25,5,4.56,8.75,4.71a3.05,3.05,0,0,1,3,3.71,3.38,3.38,0,0,1-3.82,3,16.26,16.26,0,0,1-10.32-4.55c-6.62-6-9.38-5.93-16-.13-7.29,6.38-14.92,6.32-22.23-.18-6.24-5.55-9.06-5.58-15.33-.15-7.79,6.73-14.79,6.77-22.54.12-6.5-5.58-9-5.54-15.64.22-7.35,6.38-14.94,6.31-22.23-.22-6.13-5.48-9.3-5.51-15.34-.11-7.53,6.71-14.89,6.75-22.56.15-6.42-5.53-9-5.55-15.32-.11-7.76,6.69-15,6.7-22.55,0-2.22-2-4.36-3.89-7.67-4a3.17,3.17,0,0,1-3.29-3.87c.38-2.26,2.16-3.1,4.32-2.88a16.86,16.86,0,0,1,9.86,4.6c6.57,6,9.34,5.88,16,.05C40.21,107.88,41.79,106.78,43.59,105.39ZM182.45,84C126.61,88.77,73.1,80.29,21.89,55.85c.72,4.81,2,8,6.52,9.6,5.7,2,11.18,4.65,16.74,7,2.32,1,5.29,2,3.85,5.26s-4.12,1.91-6.51,1L28.4,73A91.49,91.49,0,0,0,41.25,93.12c5.43,6.59,12.37,11.21,19.28,16.07,7.31,5.14,9.54,5.72,16.14,0,7.25-6.3,14.58-6.3,21.87,0,6.77,5.84,9.19,5.84,16,0,7.24-6.25,14.87-6.24,21.91,0,6.6,5.87,9.45,5.93,16,0,3.46-3.15,7.48-5.36,12-4.49,5.22,1,6.56-2.66,9.87-5.78-16.25.13-31.34.57-46.43-.65a307.72,307.72,0,0,1-69.45-13.7c-2.39-.77-4.72-1.79-3.69-4.91,1-2.94,3.47-2.29,5.6-1.6,36.75,12,74.47,16.11,113,13.9C180.38,91.47,180.57,91.49,182.45,84Z"/><path class="cls-3" d="M59.71,134.24c3.44-.07,6.24.69,8.55,2.79s4.63,4.07,7.93,4.52c1.91.27,2.72,1.72,2.45,3.58s-1.55,2.7-3.42,2.79c-3.48.15-6.21-1.39-8.76-3.58-5.57-4.78-6.81-4.75-12.42-.05-2.68,2.24-5.57,3.86-9.23,3.62a3.19,3.19,0,0,1-3.21-3.06A2.81,2.81,0,0,1,44,141.61c3.35-.36,5.58-2.41,7.93-4.47A11.25,11.25,0,0,1,59.71,134.24Z"/><path class="cls-3" d="M171.8,134.24a11.43,11.43,0,0,1,8,2.66c2.47,2.12,4.83,4.29,8.32,4.73a2.79,2.79,0,0,1,2.31,3.3,3.23,3.23,0,0,1-3.28,3c-3.49.22-6.26-1.27-8.85-3.41-6.2-5.1-6.79-5.09-13.1.17-2.59,2.17-5.45,3.52-8.9,3.19a3,3,0,0,1-2.91-2.82c-.2-1.66.45-3.18,2.12-3.38,3.66-.43,6.06-2.75,8.66-5A10.94,10.94,0,0,1,171.8,134.24Z"/></svg>