<svg id="Capa_1" data-name="Capa 1" xmlns="http://www.w3.org/2000/svg" viewBox="0 0 232 260"><defs><style>.cls-1{fill:#6c2910;}.cls-2{fill:#fff;}.cls-3{fill:#c88a5e;}</style></defs><circle class="cls-1" cx="117.34" cy="220.22" r="28.85"/><path class="cls-2" d="M114.4,221v-2.28h3a10.43,10.43,0,0,1,2.71.33,6.24,6.24,0,0,1,2.11,1,4.4,4.4,0,0,1,1.36,1.61,4.84,4.84,0,0,1,.47,2.2,5.13,5.13,0,0,1-2.12,4.31,7.34,7.34,0,0,1-2.35,1.14,10.54,10.54,0,0,1-2.93.39,9.68,9.68,0,0,1-2.48-.34,7.25,7.25,0,0,1-2.26-1,5.45,5.45,0,0,1-1.64-1.8,5.26,5.26,0,0,1-.61-2.62h4.6a2,2,0,0,0,.34,1.14,2.45,2.45,0,0,0,.93.81,2.79,2.79,0,0,0,1.27.3,3.06,3.06,0,0,0,1.44-.32,2.29,2.29,0,0,0,.9-.87,2.34,2.34,0,0,0,.31-1.21,3.31,3.31,0,0,0-.33-1.6,2,2,0,0,0-1-.88,3.81,3.81,0,0,0-1.51-.27Zm0-3.41h2.23a2.94,2.94,0,0,0,1.41-.31,1.92,1.92,0,0,0,.82-.87,3.08,3.08,0,0,0,.27-1.34,2.37,2.37,0,0,0-.25-1.1,1.88,1.88,0,0,0-.77-.81,2.48,2.48,0,0,0-1.32-.31,2.63,2.63,0,0,0-1.06.23,2.18,2.18,0,0,0-.85.63,1.52,1.52,0,0,0-.34,1H110a4.59,4.59,0,0,1,.93-2.89,6,6,0,0,1,2.46-1.85,8.41,8.41,0,0,1,3.3-.65,9.78,9.78,0,0,1,3.7.65,5.51,5.51,0,0,1,2.49,1.9,5.29,5.29,0,0,1,.89,3.11,4,4,0,0,1-.48,1.92,5,5,0,0,1-1.33,1.58,6.43,6.43,0,0,1-2,1.07,7.77,7.77,0,0,1-2.51.39h-3Z"/><path class="cls-3" d="M87.1,46.86c-3.56-4.89-4.77-10-2.63-15.71A15.18,15.18,0,0,1,99,21.14a19.53,19.53,0,0,0,12.16-3.64c13.76-9.23,28.39-9.57,42.39-.7s19.79,22.35,17.84,38.94c-.24,2.07-.27,3.74,1.23,5.65a8.8,8.8,0,0,1-5.9,14.08c-2.69.32-2.86,1.38-2.71,3.4a19.61,19.61,0,0,1-4.24,14.25c-2.21,2.72-5.4,3.9-8.29,5.55-2.63,1.51-4.16,5.48-3,8.11.53,1.19,1.79,1,2.76,1.29a164,164,0,0,1,25,8c4,1.7,7.88,3.56,11.11,6.56a7.74,7.74,0,0,1,2.67,6.64c-.91,11.43-1.73,22.87-2.55,34.31-.15,2.14-1.2,3.13-3.32,3.08-.75,0-1.51,0-2.27,0H60.39c-5.47,0-5.54-.07-5.54-5.38,0-11.58-.06-23.17,0-34.75a12.57,12.57,0,0,0-4-9.55c-12.74-12.53-11.67-10.78-11.65-28.29,0-6.28.13-12.57,0-18.84a17.83,17.83,0,0,1,2.36-9.91c1.21-2,2.14-4.24,3.21-6.36,2.67-5.3,5-6.56,10.93-5.73,2.57.36,5.13.77,7.7,1.18,3.65.57,6.29,2.74,6.87,6.34.3,1.89,1,2.33,2.65,2.13a6.31,6.31,0,0,1,1.94,0c3,.55,4.41-.6,4.88-3.71C80.35,49.82,83.13,47.67,87.1,46.86Zm61.25,65.89c.57,2.9-1,4.24-2.68,5.52a20.74,20.74,0,0,1-16.53,4,18.93,18.93,0,0,1-10.79-5.52c-2.13-2.19-.68-5-1.16-7.44a2.84,2.84,0,0,0-.36-.67c-1.58,1.75-1.23,3.68-.71,5.53,2.6,9.24,5.32,18.46,7.88,27.72.51,1.85,1.32,2.51,3.3,2.7,8.82.84,17.63,1.89,26.43,3,5,.61,5.06.69,5-4.45,0-2,.5-2.6,2.53-2.58s2.86.4,2.79,2.66c-.17,5.19,0,10.39-.1,15.58-.07,2.2.68,2.74,2.75,2.67,4.22-.15,8.45-.22,12.66,0,2.5.15,3.12-.82,3.25-3.05.54-8.85,1.12-17.71,1.86-26.55.46-5.55.58-5.74-4.48-8.3C170.13,118.6,159.52,115.66,148.35,112.75ZM114.9,82.13c-.15.53-.28.83-.33,1.15-1.95,12.26-11.45,17.91-19.32,18.34-10.42.58-17.93-5.12-21.64-16.24-.19-.58-.2-1.44-1-1.35a1.57,1.57,0,0,0-1.33,1.63,43.5,43.5,0,0,0,.55,5.47c1.69,10.35-1.17,7.83,8.53,12.44,10.08,4.79,15.4,12.89,17.41,23.47s3.88,21,5.59,31.57c.38,2.37,1.24,2.88,3.49,2.87,15.47-.1,30.95,0,46.42,0,5.88,0,5.82,0,5.63-5.9-.05-1.64-.56-2.3-2.18-2.47-8.27-.85-16.55-1.76-24.82-2.67-5.26-.59-10.51-1.28-15.78-1.8-2.22-.21-1.48-1.7-1.43-2.84s-.33-2.79,1.63-2.39c3.17.65,2.44-1,1.92-2.81-2.4-8.29-4.73-16.6-7.13-24.9-1-3.62-1.06-7.19,1.46-10.13a12.18,12.18,0,0,0,2.74-7.41c.3-3.67.69-7.32,1.09-11C116.55,85.4,116.76,83.69,114.9,82.13ZM60.06,141.31c0,5.95,0,11.91,0,17.86,0,1.26-.07,2.32,1.77,2.28,4.87-.09,9.74,0,14.62,0,1,0,1.57-.28,1.48-1.49-.58-7.66-.25-15.51-1.87-22.94-2.17-9.88-4.38-19.79-6.72-29.65-.55-2.3-1.21-3.2-3.72-3.16-8.39.15-8.32,1.06-8.19-7.87,0-.79.39-2.24-.53-2.27-3-.13-1.8-2.29-2-3.75-.36-2.23,1.6-1.45,2.58-1.91,1.63-.75,2.7-2,2.54-3.77-.18-2.19-2.06-1.11-3-1.07-2.21.09-2.06-1.16-2.12-2.66-.07-1.77.14-3,2.38-2.65,1.79.26,3,0,2.95-2.44s-.85-3.09-3-2.73-2.28-1-2.35-2.68c-.08-1.94.43-2.87,2.51-2.54s2.85-.27,2.83-2.55-.69-3-2.77-2.63-2.63-.41-2.59-2.46.36-3,2.64-2.78a26.47,26.47,0,0,0,5.19,0c.87-.08,2.46.85,2.49-1,0-1.32-1-2-2.37-2.25-2.88-.42-5.78-.82-8.65-1.29a3.56,3.56,0,0,0-4.36,2.4c-.61,1.49-1.47,2.89-2.1,4.38-1.17,2.73-3.21,5.08-3.18,8.36.09,10.06.05,20.13,0,30.2a11.12,11.12,0,0,0,3.3,8.18c2.59,2.62,5.21,5.21,7.79,7.83a15.26,15.26,0,0,1,4.52,11.11C60.05,130.7,60.06,136,60.06,141.31Zm61-94.24c5.09,0,10.18.08,15.27,0,3.09-.08,7.21,1.4,9-.65,1.52-1.77.52-5.77.51-8.79,0-7-4.29-11.29-11.36-11.31q-17.22,0-34.44,0c-6.6,0-11.32,4.35-11.35,10.35S93.35,47,99.93,47.06C107,47.09,114,47.07,121.05,47.07Zm-13.18,5.22c.71,5.17.71,5.17,5.59,5.17,5.09,0,10.18.12,15.26,0,3.12-.09,4.19,1.19,4.16,4.23-.11,10.5,0,21,0,31.49,0,6.25,1.63,7.37,7.76,5.28a20.44,20.44,0,0,0,2.93-1.36c2.95-1.58,5.86-3.25,8.82-4.8,4.27-2.24,6.16-5.94,6.42-10.53.17-3.13-.37-6.34.13-9.4,1.3-8.06-1.3-14-8.58-17.81-1.31-.69-2.12-2.23-3.83-2.23Zm8.3-31.21c6.33,0,12.66,0,19,0,9,.06,16.49,6.82,15.66,15.73s1.88,14.83,9.45,19.1c1.66.94,3.24,2.16,5,1.39,1.5-.66,1.07-2.66,1.2-4.07A33.91,33.91,0,0,0,136,16,28.28,28.28,0,0,0,116.17,21.08ZM90.77,161.43c1.84,0,3.68-.09,5.51,0s2.26-.36,1.93-2.19c-2-10.71-3.58-21.49-5.83-32.14-1.52-7.18-1-6.21-7.18-3.21-3.41,1.66-4.66,4-4.13,8,.94,7.16,1.27,14.41,1.68,21.64C83.19,161.42,83.1,161.43,90.77,161.43Zm3.1-96.15a15.58,15.58,0,1,0,15.55,15.77A15.72,15.72,0,0,0,93.87,65.28Zm10.35-2.6C109,66,112,69.61,113.55,74.33a3.18,3.18,0,0,0,1.93,2c5,2.33,6.8,5.77,6.13,11.22-.37,3-.6,6-1.06,9-.32,2.07.41,2.78,2.41,2.52a11.8,11.8,0,0,1,2.59,0c1.49.14,2.11-.33,2.11-2q-.09-16.23,0-32.48c0-1.29-.25-2-1.76-2C119,62.71,112.07,62.68,104.22,62.68Zm27.83,41.58h-4c-5.58,0-5.62,0-5.56,5.56,0,1.73-.54,3.52,1.5,4.89,5,3.39,12.76,3.49,17.71,0a2.83,2.83,0,0,0,1.57-2.59c-.09-2.37-.08-4.75,0-7.13,0-1.35-.42-1.74-1.68-1.33C138.29,104.72,134.91,104.06,132.05,104.26ZM83.46,62.67c-5.77,0-10.62.14-15.46-.05-2.4-.1-2.83.79-2.79,2.95.14,6.16,0,12.33.07,18.49,0,1.65,0,3.43-1,4.66-2.12,2.56-1.43,5.48-1.65,8.32-.17,2.28,1.27,1.92,2.68,2,2,.16,2.1-.88,1.89-2.37-.39-2.78-.71-5.57-1.11-8.34-.71-4.91.89-7.85,5.45-9.74.94-.38,1.75-.67,2-1.83C74.59,71,77.89,66.58,83.46,62.67Zm-5.4,59.84a34.76,34.76,0,0,1,8.17-5c1.93-.78,1.44-1.59.49-2.79-3-3.86-7.27-5.84-12.1-7.9C75.79,112.2,76.87,117.1,78.06,122.51ZM93.53,57.46c2.27,0,4.56.11,6.82-.05,1-.06,2.7,1,2.74-.92,0-1.65-.3-3.92-2.44-4.05a116.94,116.94,0,0,0-13.63,0c-2.14.13-2.47,2.41-2.42,4.06.05,1.83,1.81.83,2.76.9C89.41,57.58,91.47,57.46,93.53,57.46Zm70.1,9.1c1.69.85-1.42,3.68,1.83,3.8,2.2.07,3.55-1.47,3.7-3.72.14-2.08-1.91-4.19-3.88-3.91C162.77,63.09,164.74,65.22,163.63,66.56Z"/><path class="cls-3" d="M150.37,67.9a4.54,4.54,0,1,1-4.51-4.57A4.64,4.64,0,0,1,150.37,67.9Z"/><path class="cls-3" d="M93.79,70.46A10.4,10.4,0,1,1,83.45,80.75,10.4,10.4,0,0,1,93.79,70.46ZM93.69,86a5.17,5.17,0,1,0-5-5.33A5.29,5.29,0,0,0,93.69,86Z"/></svg>