<svg xmlns="http://www.w3.org/2000/svg" viewBox="0 0 173.48 173.29"><defs><style>.cls-1{fill:#c98b5f;}</style></defs><g id="Capa_2" data-name="Capa 2"><g id="Capa_1-2" data-name="Capa 1"><path class="cls-1" d="M127.29,76.86c32.26,3.11,48.06,29.11,46,52.48a48.07,48.07,0,0,1-48.5,43.95c-23.2-.08-46.17-18-47.67-47.3-2.65,1.85-5.09,3.5-7.47,5.23-1,.71-.56,1.88-.58,2.85-.22,8.34-.46,16.69-.53,25a6.68,6.68,0,0,1-2.2,5.37c-2.09,1.9-4,4-6,6-2.84,2.71-5.39,2.16-6.66-1.53-2.61-7.55-5.26-15.09-7.55-22.74-.91-3-2.17-3.52-5-2.55a47.4,47.4,0,0,1-8.2,1.9c-4.39.7-5.76-.62-5.08-4.93A70.39,70.39,0,0,1,30,131c.6-2,.28-2.69-1.74-3.34-7.71-2.46-15.36-5.14-23-7.77-4.77-1.64-4.92-3.6-1.77-7.57,4.66-5.87,10.19-8.38,17.77-7.71,6,.52,12.17-.21,18.26-.34,1.39,0,2.51-.13,3.41-1.54A100.77,100.77,0,0,1,58.84,84c1.83-1.73,1.86-2.56-.55-3.67-4-1.84-7.81-4-11.71-6-2.11-1.1-3.68-2.59-2.4-5.09s3.36-2.13,5.49-1c4.78,2.53,9.59,5,14.37,7.52,1.13.59,2.21,1.22,3.23-.18a11.31,11.31,0,0,1,1.19-1.21l30-29.94C95,42.92,91.57,43.22,88.35,42.9c-17.72-1.79-35.46-3.37-53.19-5-4.26-.4-8.53-.82-12.78-1.31a4.89,4.89,0,0,0-4.48,1.67c-2.72,2.84-5.63,5.5-8.9,8.66,4.73,2.48,9,4.69,13.16,6.92a18.63,18.63,0,0,1,2.92,1.68,3,3,0,0,1,1,4.17c-1,1.64-2.45,2.5-4.28,1.57C15.15,57.84,8.54,54.45,2,50.88c-2.45-1.34-2.67-3.55-.66-5.63,4.78-5,9.7-9.76,14.57-14.62A3.94,3.94,0,0,1,19,29.49a8.55,8.55,0,0,1,1.68.18c8.23,2,14.91.31,20.25-6.91,2.8-3.78,7.78-4.14,11.75-2.31s6.37,5.86,5.88,10.79c-.15,1.54.16,2,1.62,2.06,2.36.14,4.72.36,7.06.68a3.58,3.58,0,0,0,3.26-1.32c2.19-2.28,4.4-4.54,6.71-6.7a10,10,0,0,1,11.57-1.89,10.17,10.17,0,0,1,5.93,10.15c-.21,2,.27,2.54,2.11,2.62,2.36.11,4.72.36,7.07.67,1.54.2,2.22-.91,3.07-1.75,7.27-7.25,14.44-14.6,21.81-21.75C140,3.15,153.28-1.58,168.89.47c2.56.33,3.7,1.51,4,4.06,2,15.74-2.78,29.14-13.8,40.35-9.81,10-19.77,19.8-29.66,29.7C128.83,75.21,128.23,75.88,127.29,76.86Zm-92.06,61.3A94.15,94.15,0,0,0,77.07,117a5.45,5.45,0,0,0,1.53-2.93q7.56-28,35.63-35.59a6.7,6.7,0,0,0,3.28-1.6c13-13.12,26.27-26,39.07-39.41,7.25-7.56,10.11-17.11,10.08-27.57,0-2.3-.74-3.14-3.11-3.15-11.23-.05-21.14,3.44-29.12,11.37Q96.39,55.92,58.62,94C46.64,106.14,39.18,120.92,35.23,138.16Zm90.22-54.23a41.29,41.29,0,1,0,41.18,41.39A41.35,41.35,0,0,0,125.45,83.93ZM11.32,114.78c4.38,1.49,8.61,2.94,12.85,4.35,2.76.92,5.93,3,8.2,2.31,2.56-.81,2.6-5.06,4.18-7.59s.35-2.73-1.87-2.65c-5.95.23-11.91.44-17.87.4A5.5,5.5,0,0,0,11.32,114.78ZM58.6,162c3.08-2.29,3.07-2.29,3.13-5.25.09-5.17.15-10.33.3-15.5.16-5.61.2-5.6-4.76-3.34-1.43.65-2.86,1.28-4.33,1.84-1.13.42-1.6,1-1.15,2.26C54.08,148.66,56.32,155.31,58.6,162ZM41.48,31.49c2.81.32,4.59.58,6.38.7,1.34.09,3,1,3.74-1a3.31,3.31,0,0,0-1.06-4,3.22,3.22,0,0,0-4.34-.05C44.74,28.31,43.43,29.67,41.48,31.49Zm36.15,3.4c3.14.37,5.43.65,7.71.9,2.5.28,2.86-1.28,2.46-3.15a3.47,3.47,0,0,0-5.55-2C80.77,31.78,79.5,33.16,77.63,34.89Z"/><path class="cls-1" d="M25.81,78.68A5,5,0,0,1,24,81.81L6.77,99c-1.67,1.67-3.5,2.8-5.56.82S.09,96,1.8,94.3L19.51,76.62c1.18-1.17,2.52-2,4.22-1.16A3.39,3.39,0,0,1,25.81,78.68Z"/><path class="cls-1" d="M4,173.28a3.54,3.54,0,0,1-3.44-1.81,3.1,3.1,0,0,1,.59-4c2.56-2.68,5.21-5.27,7.83-7.9,2.86-2.86,5.73-5.71,8.58-8.58,1.72-1.72,3.67-2.52,5.56-.52,1.73,1.84.95,3.71-.67,5.32l-16,16A4.49,4.49,0,0,1,4,173.28Z"/><path class="cls-1" d="M86.05,165.9c-.08,1.85-5.35,7.2-7.25,7.37-2.26.2-4.33-2-3.46-4.14a12.78,12.78,0,0,1,6.42-6.53C83.78,161.63,86.14,163.67,86.05,165.9Z"/><path class="cls-1" d="M35.07,67.74c-2.1-.18-3.26-1.29-3.24-3.45A3.06,3.06,0,0,1,35,61a3.15,3.15,0,0,1,3.49,3.29C38.49,66.33,37.23,67.58,35.07,67.74Z"/><path class="cls-1" d="M117.67,59.07a3,3,0,0,1-2.86-1.48,3.23,3.23,0,0,1,.13-3.8,30.73,30.73,0,0,1,2.77-2.95L144.2,24.35a19.65,19.65,0,0,1,2.23-2.06,3.14,3.14,0,0,1,4.31.15c1.44,1.35,1.65,3.18.32,4.54-10.35,10.49-20.8,20.89-31.22,31.31A3.12,3.12,0,0,1,117.67,59.07Z"/><path class="cls-1" d="M108,68.75c-2.17-.31-3.43-1.51-3.29-3.63a3.29,3.29,0,0,1,6.57.51C111.17,67.68,109.81,68.52,108,68.75Z"/><path class="cls-1" d="M125.11,160a34.38,34.38,0,0,1-34.36-34.72c.07-19.06,15.86-34.67,34.77-34.38a34.55,34.55,0,0,1-.41,69.1Zm.23-6.86a27.69,27.69,0,1,0-27.78-27.54A27.75,27.75,0,0,0,125.34,153.17Z"/><path class="cls-1" d="M125.65,128.79a3.89,3.89,0,0,1-3.27-1.33c-1.72-1.77-3.47-3.51-5.24-5.24s-2.13-3.54-.38-5.3,3.4-1.12,5,.34c3.66,3.23,3.68,3.2,7.19-.31,2-2,4-4,6-6,1.61-1.58,3.38-1.88,5-.19a3.2,3.2,0,0,1-.08,4.83c-4,4.11-8.09,8.12-12.14,12.17A3.32,3.32,0,0,1,125.65,128.79Z"/><path class="cls-1" d="M125.41,108.72c-2-.27-3.39-1.27-3.39-3.41a3,3,0,0,1,3.11-3.25c2.11-.1,3.45,1,3.56,3.11S127.44,108.36,125.41,108.72Z"/><path class="cls-1" d="M105.42,121.82c2.14.2,3.39,1.42,3.33,3.47a3.1,3.1,0,0,1-3.47,3.26,3,3,0,0,1-3.11-3.25C102.14,123.14,103.34,122,105.42,121.82Z"/><path class="cls-1" d="M148.55,125.36c-.19,2.08-1.31,3.28-3.46,3.21a3.06,3.06,0,0,1-3.16-3.23,3.11,3.11,0,0,1,3.31-3.43C147.36,121.9,148.46,123.2,148.55,125.36Z"/><path class="cls-1" d="M128.75,145.21c-.22,2.1-1.37,3.32-3.49,3.25a3.28,3.28,0,0,1,0-6.55C127.41,141.89,128.55,143.1,128.75,145.21Z"/></g></g></svg>