<svg xmlns="http://www.w3.org/2000/svg" viewBox="0 0 203.77 210.66"><defs><style>.cls-1{fill:#6c2910;stroke:#6c2910;stroke-miterlimit:10;stroke-width:0.75px;}</style></defs><g id="Capa_2" data-name="Capa 2"><g id="Capa_1-2" data-name="Capa 1"><path class="cls-1" d="M28.37,105.22c0,17.19.11,34.38-.08,51.56,0,3.55.74,4.66,4.47,4.61,17.63-.21,35.25-.1,52.88-.09,3.24,0,11.73,6.5,12.51,9.58a3.89,3.89,0,0,1,0,1.73c-.7,3.1-9.14,9.68-12.43,9.68-17.77,0-35.54,0-53.31,0-2.66,0-4.19.09-4.2,3.57s1.74,3.49,4.28,3.48q35.61-.08,71.22,0c2.3,0,5.16-1.26,5.22,3.37s-2.55,3.6-5,3.6c-19.22,0-38.45.07-57.68-.05-2.9,0-4,.52-4,3.74s1.57,3.33,4,3.32c24.18-.05,48.36.07,72.54-.13,3.83,0,4.17,1.5,4.09,4.54,0,2.24-1,2.6-2.89,2.6q-40-.06-80,0c-3.36,0-4.62-1.56-4.68-4.82-.07-3,1.44-6.94-.8-8.69-1.84-1.43-5.58-.51-8.48-.47-3.35,0-4.82-1.53-4.66-4.8.05-1-.11-2.06,0-3.06.53-4.1,0-6.47-5.36-6.47-5.15,0-8.92-5.58-8.63-10.82s4.52-9.79,9.91-9.71c3.73.06,4.13-1.39,4.12-4.52q-.14-51.55,0-103.12c0-3.77-1.11-4.51-4.63-4.45C5.54,49.54.39,44.2.39,32.82c0-5.83,0-11.65,0-17.48C.45,6.36,6.18.51,15.07.48Q40.63.42,66.2.48c7.35,0,12.65,3.91,14.22,11,.61,2.75,1.79,3,4,3q13.55-.13,27.09,0A4.63,4.63,0,0,0,116,12c10.29-15.6,31.08-15.55,41.47.11a4.6,4.6,0,0,0,4.57,2.34c6-.1,11.95.11,17.91-.09,4-.13,6.31,1.29,5.67,5.52-.67,4.39,1.15,5.7,5.24,5.06a33.32,33.32,0,0,1,4.36,0c3.13-.07,4.45,1.51,4.44,4.57,0,30.15-.06,60.3.06,90.45,0,3.37-1.9,2.7-3.88,2.94-3,.36-3.24-1.14-3.24-3.56.07-27.82,0-55.64.06-83.46,0-2.32.23-4.13-3.24-4.06-3.11.07-3.84,1-3.82,4,.12,24.18,0,48.36.14,72.54,0,3.19-.7,4.16-4,4.18-3.72,0-3-2.16-3-4.24,0-27.24-.11-54.48.11-81.72,0-4.27-1.08-5.86-5.25-5.08a2.16,2.16,0,0,1-.44,0c-3.49,0-7.41-1-10.37.3-3.63,1.54-1.18,6.11-2.15,9.29-3.56,11.75-11.88,19-21.95,24.83a3.51,3.51,0,0,1-3.73,0c-10.52-6-19.29-13.58-22.18-26.1-.1-.42-.2-.85-.31-1.27-.58-2.23,1-5.5-.82-6.55-2-1.14-5.06-.49-7.66-.51-6.12,0-12.25.19-18.35-.09-3.64-.18-5.41.54-4.86,4.65a60.51,60.51,0,0,1,.07,8.73c-.09,8.53-5.57,14.44-14,14.57-3,0-3.53,1.09-3.51,3.77,0,7.34-1.57,8.24-8.25,4.89-4.8-2.4-9.59-4.84-14.41-7.23a12.18,12.18,0,0,0-3.21-1.26c-8.2-1.39-9-.66-9,7.64ZM56.1,50.08c.55-7.62.55-7.62,8.32-7.66.58,0,1.16,0,1.74,0,4.83-.2,7.54-2.81,7.62-7.64q.15-9.81,0-19.63C73.71,10.31,71,7.53,66.2,7.51q-25.53-.1-51,0c-4.9,0-7.65,2.69-7.73,7.48-.12,6.68,0,13.37,0,20.06,0,3.66,1.87,6.16,5.32,7.07a19.23,19.23,0,0,0,6.07.28C31.58,41.54,44,42.2,55,50,55.18,50.12,55.53,50,56.1,50.08ZM136.77,7.49a17.44,17.44,0,0,0-16.86,21.78c2.26,8.59,8.46,14,15.42,18.7a2.5,2.5,0,0,0,3.17-.21c6.08-4.16,11.54-8.89,14.31-16C157.45,20,149.18,7.5,136.77,7.49ZM43.22,168.31c-7.86,0-15.71,0-23.57,0-2.53,0-5,.33-5.11,3.37s2.22,3.64,4.83,3.64c16,0,32-.08,48,0,2.8,0,3-1.22,3-3.4s0-3.8-3.13-3.71C59.24,168.46,51.23,168.31,43.22,168.31Zm39.18,6.9c2.81.67,6.51-.24,6.58-3.21.09-3.54-3.77-4-7-3.7a5.74,5.74,0,0,1-1.31,0c-2.58-.39-3.29.57-3.51,3.28C76.84,175.91,79.39,175.41,82.4,175.21Z"/><path class="cls-1" d="M154.28,210.26c-24.88,0-44.76-17.54-48.72-43C102.1,145,116.87,122,139.25,114.75c5.09-1.65,5.95-4,3.22-8.89-3.74-6.64-2.71-13.51,2.71-18.15a13.91,13.91,0,0,1,18-.06c5.45,4.63,6.52,11.55,2.82,18.14-2.91,5.18-2.12,7.22,3.5,9.07,22.3,7.32,37,30.56,33.29,52.7C198.6,193,179,210.26,154.28,210.26Zm41.89-49a41.94,41.94,0,1,0-41.87,42A42.1,42.1,0,0,0,196.17,161.23ZM154.34,91.37a7,7,0,0,0-6.92,5.54c-.27,1-.5,2.17.34,2.88s1.61-.26,2.36-.57a10.7,10.7,0,0,1,7.21-.41c1.16.32,2.42,2,3.45.76s.28-3-.46-4.48A6.94,6.94,0,0,0,154.34,91.37Zm0,21c1.35-.13,3.62.85,3.41-2.41-.16-2.45-.89-4.43-3.56-4.41s-3.35,2-3.5,4.46C150.53,112.82,152.36,112.37,154.35,112.33Z"/><path class="cls-1" d="M89.12,70.4c12.23,0,24.47-.06,36.7,0,4,0,6.69-.94,7.51-5.42.61-3.29,3.57-1.23,5.4-1.49,2.11-.3,1.52,1.68,1.46,2.82-.32,6.21-5.91,11-12.89,11q-36.27.06-72.53,0c-6.28,0-8.86,1.52-8.87,5.22s2.58,5.25,8.84,5.25h53.75c8.71,0,14.33,4.88,14.28,12.34s-5.66,12.14-14.49,12.15H58c-1,0-2,0-3.05,0-3.43.19-5.62,2-5.51,5.43.1,3.24,2.29,5,5.5,5,6.41.08,12.82,0,19.23,0,9.16,0,14.41,6,13.68,15.21-.23,2.95-2,2.25-3.6,2.26s-3.37.64-3.56-2.31c-.49-7.68-1.19-8.15-9-8.15-5.68,0-11.36.07-17,0a12.23,12.23,0,1,1,.1-24.45c17.33-.07,34.66,0,52,0,1.16,0,2.33,0,3.49,0,3.21-.21,5.31-1.9,5.35-5.15s-2-5-5.24-5.25c-1.88-.13-3.78,0-5.68,0q-26.22,0-52.43,0c-7.95,0-13.48-5.11-13.45-12.3S44.4,70.42,52.41,70.4Q70.77,70.37,89.12,70.4Z"/><path class="cls-1" d="M87.72,150.86c.76,3.14-.94,3.42-3.56,3.56-3.21.18-3.33-1.35-3.45-3.86-.13-2.85,1-3.3,3.52-3.33C87,147.2,88.42,147.86,87.72,150.86Z"/><path class="cls-1" d="M40.46,35.45c-7.71,0-15.43-.17-23.14.08-3.31.1-2.86-1.77-3-3.83-.15-2.34.42-3.34,3.06-3.32q23.13.18,46.27,0c3,0,3.21,1.21,3.25,3.61s-.43,3.62-3.31,3.54C55.89,35.31,48.18,35.45,40.46,35.45Z"/><path class="cls-1" d="M47.15,21.46c-5.23,0-10.48-.19-15.7.07-3.11.16-3.16-1.4-3.14-3.68s.08-3.5,2.92-3.46q16.36.24,32.73,0c2.86,0,2.9,1.35,2.92,3.46,0,2.3,0,3.83-3.14,3.69C58.22,21.28,52.68,21.46,47.15,21.46Z"/><path class="cls-1" d="M21.3,18.16c.83,3.38-1.32,3.21-3.7,3.38-2.91.2-3.23-1.07-3.32-3.54-.1-2.88.85-3.62,3.66-3.65C21,14.31,21.89,15.37,21.3,18.16Z"/><path class="cls-1" d="M147.24,25.13a10.49,10.49,0,1,1-10.32-10.67A10.57,10.57,0,0,1,147.24,25.13Zm-7,0c-.17-2-1.22-3.36-3.14-3.53a3.19,3.19,0,0,0-3.7,3.26,3.15,3.15,0,0,0,3,3.49C138.62,28.54,139.79,27.15,140.21,25.11Z"/><path class="cls-1" d="M165.85,177c-4.49-1.19-9.06-2.13-13.43-3.67-3.1-1.09-5.32-.67-7.18,1.94-1.69,2.37-3.07,2.07-5.14.09-2.26-2.16-1.89-3.57.26-5.12,2.67-1.94,2.88-4.22,1.81-7.23-1.36-3.82-2.23-7.81-3.22-11.75-1.14-4.48.8-6.35,5.34-5.2a117.25,117.25,0,0,1,11.76,3.21c3.09,1.14,5.31.69,7.18-1.92,1.68-2.36,3.06-2.1,5.13-.1,2.23,2.15,1.93,3.57-.24,5.14-2.65,1.92-2.92,4.18-1.83,7.21,1.41,4,2.36,8.08,3.37,12.17C170.49,175.11,168.92,177.16,165.85,177Zm-4.7-9c-2.66-11.42-4.75-13.36-13.74-13.06C150,166.26,150,166.26,161.15,168Z"/><path class="cls-1" d="M154.19,133.26c-3.13.75-3.42-.94-3.56-3.56-.17-3.2,1.34-3.34,3.85-3.45,2.85-.13,3.31,1,3.34,3.52C157.85,132.54,157.2,134,154.19,133.26Z"/><path class="cls-1" d="M126.18,161.44c.8,3.26-1.15,3.27-3.63,3.46-3.35.26-3.2-1.54-3.37-3.92-.2-3,1.19-3.17,3.59-3.26C125.67,157.61,126.83,158.54,126.18,161.44Z"/><path class="cls-1" d="M189.12,161.09c.59,2.78-.31,3.87-3.34,3.83-2.8,0-3.79-.73-3.68-3.64.1-2.45.38-3.77,3.3-3.55C187.77,157.91,190,157.69,189.12,161.09Z"/><path class="cls-1" d="M154.35,196.14c-3.49.85-3.53-1.07-3.72-3.57-.24-3.33,1.52-3.22,3.92-3.38,2.95-.2,3.24,1.16,3.26,3.58C157.83,195.52,157.34,197.17,154.35,196.14Z"/><path class="cls-1" d="M136.73,138.78a16.91,16.91,0,0,1-4.59,4.74c-.5.36-5.11-4.08-4.74-4.51,1.4-1.62,3-4.22,4.54-4.27S135.1,137.3,136.73,138.78Z"/><path class="cls-1" d="M181.63,139c-2,1.82-3.53,3.33-5.23,4.62-.47.36-4.74-4.38-4.35-4.82,1.38-1.58,2.64-4.28,4.61-4C178.4,135,179.85,137.36,181.63,139Z"/><path class="cls-1" d="M136.76,183.57c-1.54,1.52-3,3.05-4.57,4.43-.41.37-5.12-3.89-4.81-4.41,1.11-1.87,2.67-4.23,4.49-4.36S135,181.79,136.76,183.57Z"/><path class="cls-1" d="M181.46,183.61c-1.8,1.66-3.31,4.19-5,4.29s-3.34-2.44-4.54-4.24c-.36-.53,4.18-5,4.65-4.6C178.24,180.41,179.73,182,181.46,183.61Z"/></g></g></svg>