<svg xmlns="http://www.w3.org/2000/svg" viewBox="0 0 176.02 173.17"><defs><style>.cls-1{fill:#c98b5f;}</style></defs><g id="Capa_2" data-name="Capa 2"><g id="Capa_1-2" data-name="Capa 1"><path class="cls-1" d="M109,117.32c1.09-.6,1.36-1.77,1.9-2.71q10.5-18.3,21-36.61c3.64-6.34,8.46-6.35,12.09,0q15.33,26.79,30.64,53.6c.35.6.69,1.19,1,1.81.82,1.67.62,3.13-1.06,4.13s-3.12.22-4.05-1.27c-1.56-2.53-3-5.14-4.46-7.72-4.43-7.75-8.91-15.46-13.23-23.26-1-1.81-2.11-2.64-4.26-2.6q-10.65.18-21.3,0a4,4,0,0,0-4.07,2.36c-4.4,7.89-8.9,15.73-13.43,23.54a8.25,8.25,0,0,0-1.1,4.56,64.18,64.18,0,0,1-.07,9.61c-.49,3.57.93,4.27,4,3.88,4-.49,7.33.9,10.47,3.34,4.16,3.23,8.59,6.09,12.78,9.27a10.7,10.7,0,0,0,7,2.21c9.5-.1,19,0,28.52-.06,2.13,0,4.49-.09,4.58,2.78s-2.19,3-4.38,3c-10.31,0-20.61,0-30.92,0a10.65,10.65,0,0,1-7-2.31c-1.16-.93-2.56-1.6-3.61-2.62-8.59-8.4-18.8-10.81-30.64-9.9-11,.85-22.21.23-33.31.15a5.89,5.89,0,0,0-5,2.29c-3.94,4.77-8.1,9.35-12,14.12a10.76,10.76,0,0,1-8.91,4.25c-11.8-.07-23.59,0-35.39,0-2.17,0-4.49-.07-4.57-2.86-.09-3,2.34-3.16,4.63-3.2,7-.11,7-.12,7-7,0-20.84,0-41.69,0-62.53,0-2.25-.13-3.66-2.89-4.33-3.94-1-6-4.55-6-9.36q-.06-16,0-31.95c0-1.64-.09-3.08-1.47-4.31A5.1,5.1,0,0,1,0,43.56c.05-2.75,0-5.5,0-8.25A8.6,8.6,0,0,1,8.29,26.5a59.45,59.45,0,0,1,7.55-.07c2.5.11,3.55-.09,2.86-3.29A18.63,18.63,0,0,1,33,.54c7.82-1.73,14.37.71,19.18,6.93,5,6.48,5.55,13.7,1.49,20.88-1.51,2.67-2.27,4,1.73,4.32,3.29.29,5.9,2.31,8.21,4.64,4.44,4.47,9,8.84,13.32,13.4a6.6,6.6,0,0,0,5.42,2.17c6.07-.12,12.14,0,18.21-.06,4.13,0,7.38,1.47,9.44,5.09a9.65,9.65,0,0,1-.53,11,4.77,4.77,0,0,0-.91,2.86q0,22.5,0,45C108.64,116.92,108.83,117.09,109,117.32Zm-91.24,5.87c0,8.81.06,17.62,0,26.43,0,2.12.4,3.13,2.8,3a75.29,75.29,0,0,1,9.26,0c2.08.12,2.74-.57,2.87-2.63.72-11.64,1.63-23.27,2.37-34.91.55-8.58,1.38-9.41,10.11-9.37.34,0,.68,0,1,0,4.42.09,6.34,1.94,6.84,6.39.67,5.91,1.45,11.8,2.11,17.7.17,1.49.68,2.25,2.34,2.2,3.66-.09,7.32-.08,11,0,1.56,0,1.94-.68,1.93-2.07-.07-8.69.24-17.41-.23-26.08-.52-9.76-14.42-17.19-22.86-12.23A18.34,18.34,0,0,1,37.48,94c-5.26,0-10.53.15-15.79-.07-3-.13-4.16.53-4.06,3.85C17.89,106.25,17.72,114.72,17.72,123.19ZM62.91,64.9l-1.19.76c0,6.17,0,12.33,0,18.49,0,1.58.83,2.06,2.09,2.65,8.43,3.93,12.53,10.65,12.54,19.91,0,7.67.05,15.34,0,23,0,1.79.4,2.79,2.19,3.59a10.74,10.74,0,0,1,6.59,10.4c0,3.44,2,2.77,3.94,2.91,2.92.2,1.87-1.79,1.88-3.19,0-2.06-.06-4.12-.06-6.18,0-20.27,0-40.53.06-60.79,0-2.4-.61-3.2-3-3.06-3.54.2-7.1.06-10.65,0a15.22,15.22,0,0,1-11.13-4.55A42.51,42.51,0,0,1,62.91,64.9ZM44,69.44c-4.59,0-6.72,1.87-5.86,6.29a3,3,0,0,1-.11,1,2.6,2.6,0,0,1-2.89,2.34,2.61,2.61,0,0,1-2.77-2.48,19,19,0,0,1,0-3.77c.16-1.82-.61-2.5-2.36-2.35-.91.08-1.83,0-2.75,0-2,.07-4.45-.46-6,.45s-.34,3.39-.58,5.17-1.13,3-3.09,3-2.67-1.21-2.86-2.83c-.16-1.36,0-2.75-.11-4.12-.16-3.05-3-2-4.5-2.52C8.21,69.06,9,71.11,9,72c-.1,4.12,0,8.24-.06,12.36,0,2.4,1,3.61,3.49,3.61q14.07,0,28.15,0c2.24,0,3.43-1.1,3.45-3.33C44,79.58,44,74.56,44,69.44ZM26.3,44H39.7c7.23,0,7.23,0,7.14-7.11-.05-3.94-.64-4.55-4.65-4.56-9.16,0-18.33,0-27.49,0s-9,0-8.79,9.12C6,43.66,6.82,44,8.77,44,14.61,43.89,20.45,44,26.3,44Zm28.55,109c-4.67-2.82-5.13-3.42-4.94-8.86.34-10.12-1.67-20-2.6-30-.21-2.27-1.39-2.67-3.41-2.68s-2.85.55-3,2.63c-.75,12.32-1.61,24.63-2.39,36.95-.05.82-.43,1.87.8,2.34,4,1.52,6.22,4.68,7.64,8.84ZM50.24,19.74c0-6-3.05-10.63-7.78-12.71A13.2,13.2,0,0,0,28.13,9.57a12.9,12.9,0,0,0-3.36,13.84c.66,2.14,1.82,3.11,4.21,3,5-.16,10.13-.54,15.06.18,4,.59,5.08-1.29,5.82-4.3A19.75,19.75,0,0,0,50.24,19.74ZM26.4,50H16.8c-8.08,0-8.08,0-7.88,8,.1,4.29,2.23,6.44,6.61,6.48,5.59.06,11.2-.19,16.78.06,12.41.56,11.81-2.91,11.74-12.16,0-2-.72-2.5-2.58-2.46C36.45,50.07,31.42,50,26.4,50Zm70.5,59.3c0,11.09,0,22.19,0,33.29,0,2.2.45,4,3.11,3.85s2.56-2.43,2.56-4.39q0-32.78,0-65.55c0-1.82.17-3.2-2.57-3.15s-3.18.88-3.16,3.34C97,87.56,96.9,98.43,96.9,109.3ZM50,66.83c0,5.15.1,10.3,0,15.45-.07,2.27.7,2.91,2.93,2.92s2.94-.6,2.9-2.88c-.13-7.9,0-15.8-.06-23.7,0-1.68.15-3.21,2-4s2.78.38,3.87,1.4c3.44,3.2,3.44,3.2,6.5-.61a13.86,13.86,0,0,1,1.1-1.31c1.18-1.12,1-2-.16-3.11-3.46-3.33-6.79-6.81-10.26-10.14a12.66,12.66,0,0,0-3.13-2c-1.71-.84-2.8-.61-2.7,1.72.1,2,.68,4.46-.76,6C49.47,49.35,50,52.6,50,55.84,49.94,59.5,50,63.16,50,66.83Zm17.73,79.76h7.88c3.57,0,4.43-1.09,3.34-4.49a5.48,5.48,0,0,0-5.65-4.1c-3.88,0-7.77,0-11.65,0-6.07,0-6,0-5.94,5.95,0,2.15.73,2.77,2.77,2.69C61.51,146.5,64.6,146.59,67.69,146.59Zm-38.15,20.5H37.1c4.17,0,5.27-1.93,3.18-5.65a5.74,5.74,0,0,0-5.43-2.94c-3.78,0-7.56,0-11.34,0-6.08,0-6,0-5.84,6.13,0,2,.7,2.58,2.6,2.5C23.36,167,26.45,167.09,29.54,167.09ZM147.79,96.68l-9.94-17.32L128,96.68ZM82,67.38c2.41,0,4.37-.1,6.3,0s2.81-.46,2.56-2.47a8,8,0,0,1,0-2.4c.6-3.34-1-4-4-3.89-3.4.12-7.08,1-10.16-.62-2.24-1.16-3-.37-4.06,1.11a12.75,12.75,0,0,1-1.71,2.14c-2.29,2.06-1.32,3.33.83,4.68C75.15,68.1,78.87,67.1,82,67.38ZM96.9,62.89c0,4.49,0,4.49,3,4.49,3.64,0,5.62-1.6,5.53-4.48s-2.1-4.08-5.85-4.27C95.65,58.44,97.25,61.27,96.9,62.89Z"/><path class="cls-1" d="M126.11,32.36a17.65,17.65,0,0,1,35.3-.29,17.65,17.65,0,1,1-35.3.29Zm29.27,0a11.68,11.68,0,0,0-11.69-11.75A11.83,11.83,0,0,0,132,32.42a11.7,11.7,0,0,0,11.59,11.52A11.55,11.55,0,0,0,155.38,32.33Z"/><path class="cls-1" d="M162.5,48.21c1.76-.05,4.82,2.93,4.82,4.73a2.66,2.66,0,0,1-2.63,3c-1.88.17-5.19-2.94-5-4.79A3.14,3.14,0,0,1,162.5,48.21Z"/><path class="cls-1" d="M122.69,8.77c2.13,0,5.19,2.82,5.12,4.61a2.85,2.85,0,0,1-3,3c-1.8.05-4.63-3-4.57-4.84A2.54,2.54,0,0,1,122.69,8.77Z"/><path class="cls-1" d="M140.87,4.16c-.16-2.2.39-4.15,2.92-4.08,2.78.09,2.85,2.37,2.85,4.53,0,2-.41,3.83-2.81,3.85C141,8.48,140.72,6.36,140.87,4.16Z"/><path class="cls-1" d="M167.33,11.43c.06,1.75-2.78,4.91-4.56,4.93a2.9,2.9,0,0,1-3.13-2.93c-.14-1.7,3-4.69,4.8-4.7A2.64,2.64,0,0,1,167.33,11.43Z"/><path class="cls-1" d="M115.69,35.17c-2.12.12-4.16-.31-4.16-2.84,0-2.81,2.21-2.93,4.41-2.95s4,.45,4,3S117.76,35.25,115.69,35.17Z"/><path class="cls-1" d="M125.11,48.24c1.58.42,2.78,1.35,2.65,3.26s-3.33,4.59-5,4.38a2.62,2.62,0,0,1-2.54-3C120.26,51,123.26,48.13,125.11,48.24Z"/><path class="cls-1" d="M171.85,29.42c2.09-.12,4.08.29,4.06,2.85,0,2.83-2.26,2.92-4.41,2.92s-4-.41-3.88-3.06S169.79,29.34,171.85,29.42Z"/><path class="cls-1" d="M140.86,60.22c-.1-2.13.24-4,2.89-4s2.86,2,2.88,4.08-.2,4.14-2.77,4.22C141.05,64.56,140.75,62.41,140.86,60.22Z"/><path class="cls-1" d="M26.58,52.84c2.09.22,5.55-.91,5.56,2.82,0,3.89-3.53,2.87-6,3.05a16.07,16.07,0,0,1-1.7,0c-2-.06-3.79-.47-3.8-2.89,0-2.61,1.85-3.06,4-3C25.22,52.86,25.79,52.84,26.58,52.84Z"/></g></g></svg>