<svg xmlns="http://www.w3.org/2000/svg" viewBox="0 0 255.91 209.89"><defs><style>.cls-1{fill:#6c2910;}</style></defs><g id="Capa_2" data-name="Capa 2"><g id="Capa_1-2" data-name="Capa 1"><path class="cls-1" d="M66.25,149.36c-2.61-1.16-3.74-.09-4.63,1.86-1.49,3.27-4,5.51-7.69,5.43s-6.17-2.36-7.25-5.88c-.71-2.3-2.17-2.82-4.42-3-5.13-.4-9.58-1.1-12.8,5-2.45,4.64-9.7,3.21-12.17-1.93-1.35-2.83-2.85-4.74-6-5.89a13.82,13.82,0,0,1-9.25-12C1,123.64.31,114.33,0,105c-.33-10.22,6.47-18,16.66-19C34.26,84.21,51.44,81.09,68,74.42c10.77-4.34,22.21-6.87,33.6-9.25,2.6-.54,3.84-1.37,4.59-4.17,3.4-12.7,14.19-20.6,27.46-20.09,3.43.13,5.29-.85,7.17-3.66A102.22,102.22,0,0,1,177.34,3.91c15.84-8.62,25.52-2.73,25.6,15.2a81.57,81.57,0,0,1-2.68,20.22c-.84,3.39-1,5.11,3.73,4.2,8.33-1.61,16.79-2.22,25.32-.69C241.15,45,245.66,53,240.76,64c-3.1,6.93-7.95,12.65-13.06,18.16-1.22,1.31-2.85,2.31-3.53,4.44,6.24,1.73,12.52,3.09,18.4,5.7,16.18,7.18,17.74,18,4.12,29.43-6.95,5.81-15.11,9.61-23.41,13.58,4.25,4,8.42,7.79,12.35,11.78,4.8,4.89,9.18,10.13,11.44,16.76,2.46,7.24.16,12.78-6.69,16.12a17.42,17.42,0,0,1-5.13,1.87c-17.51,2.32-35,2.37-51.7-4-5.52-2.1-9.22-2.3-14.15,1.27-10.67,7.7-23.47,9.71-36.14,11.87q-54.07,9.19-108.13,18.6c-10,1.75-15.65-3.2-17.43-13.32C5,180.77,8.92,172.65,27.11,169.06c3.11-.62,4.59-1.88,5.3-5.27,1.53-7.3,8.2-8.89,13.5-3.61,4.29,4.28,13.75,1.67,15.28-4.31A11,11,0,0,1,66.25,149.36ZM13.32,125.17c32.18,1.75,63.43,3.43,94.67,5.17,2,.12,3.41-.75,5-1.83,9.11-6.37,20.4-5.68,28.5,1.63A22.62,22.62,0,0,1,120,168.52a11.37,11.37,0,0,0-6.32-.37q-47.25,13.26-94.51,26.49c-1.69.48-3.82.43-3.4,3.24.37,2.42,1.51,4.24,4,4.29a39.56,39.56,0,0,0,7.41-.76c30-5.13,60-10.16,89.92-15.52,12.73-2.28,25.76-3.23,38-7.95,22.52-8.69,33-25.21,30.76-48.41-.3-3.1-.42-5.22-4.92-3.63-20.5,7.24-41-4.58-45.84-25.92-.31-1.39,1-4.15-2.39-3.79-2.73.29-2.68,2.14-2.9,4.26-1.9,18.24-19.32,29.91-36.48,24.56-11.4-3.56-19-13.27-19.65-25.55-.16-2.8-.39-4.36-3.87-4.86-7.22-1-14.34-2.77-21.47-4.39-3.31-.75-4,.35-3.62,3.54.79,6.27,1.15,12.59,1.85,18.87.32,2.91.31,5.73-3.18,6.2s-4.21-2.37-4.47-5.22c-.62-6.63-1.39-13.25-1.9-19.88-.17-2.24-.92-2.77-3.09-2.44-5.09.77-10.24,1.21-15.34,2-4,.59-7.78,1.83-9.62,6.06C22.87,105.37,23,116.47,13.32,125.17ZM204.19,93c11.54-9,22-18.24,28.85-30.74,4.21-7.65,2-11.47-6.76-12.24a87.09,87.09,0,0,0-24.84,1.54c-2.69.55-5,.89-5.93,4.2-.59,2.19-2.84,2.84-4.95,2s-2.41-2.58-1.89-4.57c.43-1.61.86-3.21,1.36-4.79,3.29-10.36,5.79-20.87,5.1-31.84-.58-9.24-4-11.27-12.28-7C168.38,17.07,156.72,27.81,147.21,41c-1.57,2.17-1.29,3.27.88,4.69a23.15,23.15,0,0,1,9.31,11.43c1.1,3,2.7,3.08,5.31,2.57,12-2.34,22.35,1.07,31.08,9.54C200.28,75.51,203.08,83.53,204.19,93Zm15,82.85a55.89,55.89,0,0,0,14.37-1.48c7.4-1.94,8.65-4.92,4.86-11.5-5.08-8.8-12.64-15.31-20.31-21.72-2.26-1.88-4.22-2.51-7.13-1.21a31.22,31.22,0,0,1-14,3c-2.62-.1-3.72.62-4.15,3.47a37.92,37.92,0,0,1-8.22,19c-2.83,3.39-1.68,4.42,1.75,5.62C197.31,174.79,208.79,175,219.15,175.85Zm-21.5-40.64c17.93-3.68,34.56-10.29,48-23.26,4.09-4,3.45-7-1.39-10.13-8.14-5.29-17.54-6.8-26.83-8.59-1.53-.29-2.45.87-3.47,1.66-6.09,4.69-12.92,8.6-15.44,16.75-.68,2.21-2.81,4.09-4.56,5.84-1.56,1.56-2.25,3-1.71,5.27a50.16,50.16,0,0,1,1.33,8.86C193.75,134.34,194.63,135.69,197.65,135.21ZM61.89,85a212.22,212.22,0,0,0,49.54,5.7c10.45,0,21-.7,30.69-5.37,5-2.38,8.95-5.62,10.18-11.44,1.2-5.63,1-6.06-4.63-6.13-16.38-.18-32.46,2.2-48.39,5.83C86.56,76.47,74,79.91,61.89,85Zm99.3-16c.79-.1,1.59-.14,2.36-.31,11-2.44,19.69,1.37,26.36,10,6.36,8.22,6.73,19.08,1,28.09s-14.29,13.35-25,12c-3.17-.4-8.57,0-7.8-5.45.75-5.28,5.12-2.57,8.09-2.16,10,1.39,19.25-5,20.69-14.38,1.53-10-4.86-19.29-14.22-20.8A18.8,18.8,0,0,0,151.38,91.6c-.45,3.06.4,5.92,1.28,8.8.69,2.27.52,4.49-2.07,5.4-2.82,1-4.19-.73-5.24-3.17-1.2-2.8-1.26-5.88-2.16-10.15-1.83,10.27,5.11,21.24,15,25.68,11.81,5.27,24.83,1.75,32.9-8.91,6.94-9.15,6.72-23.09-.49-32.06C182.87,67.53,170.61,63.9,161.19,69Zm-51.34,92.37c-3.61-1.68-2.77-6.48-7.51-5.16q-40.52,11.25-81.07,22.32a8.58,8.58,0,0,0-5.92,4.92,4.44,4.44,0,0,0-.28,3.32c.67,1.29,2.14.31,3.12,0C48.25,178.52,78.28,170.16,109.85,161.38Zm-100-28.32c1.82,4.17,4.66,5.78,8.67,6q40.68,1.84,81.36,3.84c2.77.14,4.77-.38,4.74-3.35s-2.74-1.69-4.17-1.78q-32.65-2-65.33-3.72C26.88,133.59,18.66,132.42,9.85,133.06Zm92.26-14.27c10.78-.08,19.26-7.41,19.8-17.21.06-1.19.91-3.17-.87-3.42a27.59,27.59,0,0,0-8,.11c-2,.3-1.06,2.5-1.52,3.81-1.66,4.73-5.07,6.8-9.89,6.89-4.47.09-8.76-1.71-9-6.1-.39-6.35-4.26-5.72-8.35-6.2-2.87-.34-3.45.56-3.2,3.21A21.14,21.14,0,0,0,102.11,118.79ZM150.48,60c-4.29-8.06-10.34-11.77-18.15-11.73s-14,3.84-17.53,11.1c-.8,1.61-2.17,3.68,1.57,3.12A194.61,194.61,0,0,1,150.48,60ZM141,147.2a14.65,14.65,0,0,0-14.26-15.32A15,15,0,0,0,111,146.38c-.27,8.1,6.75,15.39,14.94,15.51A15,15,0,0,0,141,147.2ZM8.89,118c3.51-2.07,4.66-4.54,2.58-7.91-.58-1-1.46-2.1-2.68-1.84-1.61.35-.84,1.91-.82,2.9C8,113.2,7.72,115.36,8.89,118Z"/><path class="cls-1" d="M155.77,93.41A13.34,13.34,0,0,1,169.48,80a13.77,13.77,0,0,1,13.4,13.41A13.63,13.63,0,0,1,169.26,107,13.23,13.23,0,0,1,155.77,93.41Zm19.37.15c-.24-3.71-2.25-5.9-6-5.88s-6,2.43-5.9,6A5.56,5.56,0,0,0,169,99.42C172.65,99.49,174.85,97.4,175.14,93.56Z"/><path class="cls-1" d="M138.16,146.64A12,12,0,0,1,126.39,159,12.36,12.36,0,0,1,114,146.69a12,12,0,0,1,12.14-11.94A11.73,11.73,0,0,1,138.16,146.64Zm-7.38,0c-.46-2.46-1.89-4.36-4.48-4.41-2.82,0-4.63,1.63-4.51,4.7.11,2.81,1.76,4.18,4.48,4.17S130.32,149.34,130.78,146.68Z"/></g></g></svg>