<svg xmlns="http://www.w3.org/2000/svg" viewBox="0 0 187.14 187.21"><defs><style>.cls-1{fill:#c98b5f;}</style></defs><g id="Capa_2" data-name="Capa 2"><g id="Capa_1-2" data-name="Capa 1"><path class="cls-1" d="M40,135.89H21.7c-2.18,0-4.56-.23-4.66-2.91-.1-3,2.47-3.13,4.74-3.13,10.71,0,21.43-.08,32.14,0,2.58,0,3.49-.78,3.24-3.31-.2-1.93,0-3.9-.15-5.84A10.33,10.33,0,0,0,51.23,112c-1.39-.73-3-1-4.36-1.83-4.82-2.76-9-3.37-12.55,2.14-1.38,2.17-3.81,2-5.24,0-3.59-5.09-7.55-4.59-12.7-2.27-9,4.06-11.64,8-10.49,17.84.16,1.43.69,1.92,2,1.9a21.74,21.74,0,0,1,2.55.1c1.62.18,2.77.92,2.85,2.72a2.63,2.63,0,0,1-2.5,3,56.35,56.35,0,0,1-8,0,2.77,2.77,0,0,1-2.71-2.93c0-4.62-.31-9.3.29-13.85.81-6.09,4.46-10.41,10.18-12.8,3.47-1.45,7-2.83,10.5-4.16,2.06-.78,2.2-1.81.48-3a13.9,13.9,0,0,1-5-6.14c-.62-1.51-2-1.6-3.18-2.11-4.64-2-6.82-7.3-4.17-11.44a13.52,13.52,0,0,0,2-7.5c.17-9.21,5.66-16.67,14-19.3A20.84,20.84,0,0,1,48.55,59.9a19.58,19.58,0,0,1,3.67,12.36,10,10,0,0,0,1.72,6.46,7.87,7.87,0,0,1-3.39,11.67,7.78,7.78,0,0,0-4.39,3.9,15.2,15.2,0,0,1-3.25,3.88c-2.86,2.67-2.87,2.82.89,4.36,2.93,1.19,5.88,2.31,8.77,3.58,6.65,2.91,10.24,8,10.47,15.3.09,3.16.08,6.33.06,9.49,0,4.19-.76,4.95-4.87,5C52.14,135.93,46.05,135.89,40,135.89Zm2.47-53c2.09-4-2.16-5.76-4.43-8.55-1-1.28-1.8-1.15-3-.32a26.17,26.17,0,0,1-11.47,4.34c-1.81.25-2.58,1-2.42,2.84.11,1.21,0,2.44,0,3.65.05,7.67,3.55,11.12,11.19,11C39.22,95.77,42.42,91.92,42.43,82.88ZM45.9,72.81c.73-8.7-4.83-14.87-13.53-15.31C24.15,57.08,17.46,63,17.18,70.92c-.06,1.54.24,2.35,2,2.14,5.89-.74,11.46-2.15,15.72-6.75,2.71-2.93,4.47-2.53,6.11,1.2C41.94,69.73,42.85,72,45.9,72.81Zm-14,28.84c-.77,1-3.06-1.14-3.19,1.29a3.15,3.15,0,0,0,3,3.09,3.65,3.65,0,0,0,3-3.26C34.8,101.07,33.06,102.1,31.93,101.65Z"/><path class="cls-1" d="M164.08,135.89c-5.84,0-11.69,0-17.53,0a16.55,16.55,0,0,1-2.91-.16c-1.59-.3-2.67-1.18-2.62-3a2.61,2.61,0,0,1,2.76-2.78c3.4-.12,6.81-.13,10.22-.13,8,0,16.08-.07,24.11,0,2.24,0,3.41-.44,3.14-3s.15-5.33-.6-8a10.42,10.42,0,0,0-5.87-7c-1.43-.66-3-1.09-4.35-1.86-4.62-2.61-8.59-2.91-11.93,2.19-1.6,2.43-4.19,2.2-5.81-.1-3.3-4.65-7.09-4.92-11.71-2.19-1.77,1-3.88,1.47-5.66,2.48-4.55,2.57-7.19,11.12-5.27,16.36.55,1.49,1.75,1,2.74,1.09,2.16.11,4.56.19,4.5,3-.06,3-2.61,3-4.87,3-8.38.17-8.39.17-8.39-8,0-2.07,0-4.14,0-6.21.23-7.61,3.91-12.84,11-15.7,3.15-1.28,6.32-2.49,9.49-3.74,2-.77,3.12-1.68.71-3.42a13.43,13.43,0,0,1-4.74-5.91c-.61-1.55-1.91-1.66-3.12-2.16-4.81-2-6.94-7.53-4.08-11.76a11.72,11.72,0,0,0,1.92-7.09c0-9.28,5.32-16.67,13.78-19.38a20.91,20.91,0,0,1,23.67,7.65,16.56,16.56,0,0,1,2.84,6.26c1,5,.59,10.11,3.32,14.93,1.82,3.22-.68,7.6-4.19,9A7.9,7.9,0,0,0,170,94.48a13.42,13.42,0,0,1-3,3.61c-3,2.86-3.05,2.87,1,4.52,3.14,1.29,6.34,2.46,9.41,3.92,6.17,2.92,9.32,8,9.67,14.74.18,3.4-.05,6.82.07,10.22.12,3.18-1.45,4.41-4.41,4.4Zm2.42-53.17c1.7-4-2.38-5.68-4.54-8.36-1-1.26-1.73-1.28-3-.39a24,24,0,0,1-8.23,3.67c-6.14,1.59-6.14,1.62-5.81,8.09a14,14,0,0,0,.13,1.45c.73,5.45,4.28,8.58,9.84,8.68C163.17,96,166.49,92.42,166.5,82.72ZM170,72.93c.82-8.44-4.74-14.77-13.32-15.39-8.23-.6-15.08,5.12-15.52,13-.08,1.29-.47,2.84,1.8,2.56,5.87-.73,11.45-2,15.7-6.64,2.85-3.09,4.67-2.72,6.34,1.2C166,70,167.15,72.19,170,72.93Zm-14.42,28.7c-.66.92-2.87-1-2.77,1.46a3,3,0,0,0,2.73,2.89,3.36,3.36,0,0,0,3-3.09C158.62,100.88,156.71,102.18,155.56,101.63Z"/><path class="cls-1" d="M101.77,187.2H83.87c-2.2,0-4.81.29-4.89-2.88s2.49-3,4.72-3c10.72,0,21.44-.08,32.15.05,2.49,0,3.57-.55,3.29-3.2s.12-5.1-.52-7.63a10.59,10.59,0,0,0-6-7.33c-1.21-.57-2.55-.88-3.7-1.55-4.9-2.85-9.22-3.35-12.8,2.18-1.43,2.2-3.8,2-5.2-.1-3.56-5.25-7.57-4.5-12.68-2.23-8.94,4-11.95,8.78-10.33,18.23.33,1.91,1.5,1.52,2.63,1.57,1.44.07,3-.24,4,1.1a2.6,2.6,0,0,1,.55,2.73,2.92,2.92,0,0,1-2.76,2c-2.43,0-4.87.08-7.3,0C63,187.1,62,185.82,62,183.83c0-4.62-.29-9.3.33-13.85.77-5.64,4.18-9.77,9.45-12.11,3.22-1.43,6.53-2.64,9.79-4,3.8-1.53,3.82-1.64.89-4.28a14,14,0,0,1-3.79-4.86,4.25,4.25,0,0,0-2.79-2.48c-5.84-2.22-7.69-8-4-13,1.44-2,1.19-3.86,1.21-5.85.1-9.42,5.46-17,14-19.64a20.76,20.76,0,0,1,23.61,7.85,16.49,16.49,0,0,1,3,7c.74,4.69.44,9.39,3.06,13.91,1.92,3.31-.64,7.72-4.36,9.24a7.12,7.12,0,0,0-4.31,3.92,12.26,12.26,0,0,1-4.12,4.57c-1.7,1.27-1.46,2.37.45,3.15,3.16,1.28,6.33,2.49,9.47,3.79C121.26,160.34,125,165.94,125,174c0,2.8,0,5.6,0,8.4,0,4.17-.66,4.79-5,4.8C113.94,187.21,107.86,187.2,101.77,187.2Zm2.56-53.09c-.39-1.33,1-3.58-.86-5-1.68-1.25-2.83-3.29-4.51-4.1-2.06-1-3.52,1.86-5.58,2.38-1.63.42-3.17,1.21-4.79,1.67-6.07,1.73-6.08,1.71-5.74,8.12,0,.36,0,.73.08,1.09.69,6,4.31,9,10.7,9s10.06-3.14,10.68-9C104.44,137,104.33,135.81,104.33,134.11Zm3.5-9.81A13.61,13.61,0,0,0,95.59,109c-9.1-.71-16.19,4.91-16.62,13-.11,2,.62,2.53,2.47,2.34,5.69-.6,10.94-2.16,15.06-6.42,3-3.13,4.66-2.86,6.36,1.06C103.89,121.36,104.94,123.63,107.83,124.3Zm-14.26,29c-1,.48-3-1-2.89,1.39a3.13,3.13,0,0,0,2.76,2.84,3.45,3.45,0,0,0,2.94-3.14C96.43,152.49,94.54,153.73,93.57,153.3Z"/><path class="cls-1" d="M102,84.31H83c-2.08,0-4.12-.24-4.07-3s2-3,4.13-3c10.84,0,21.68-.07,32.51,0,2.51,0,3.62-.32,3.6-3.29-.09-10.49-1.42-12.68-11.21-16.58a7.91,7.91,0,0,1-1.33-.59c-3.78-2.42-6.64-1.75-9.48,1.9s-4.25,3.68-7.27.06-6.12-4-10-1.8a26.58,26.58,0,0,1-4.37,1.8c-5.09,1.83-7.5,5.51-7.57,10.84,0,1.09.07,2.2,0,3.28-.32,2.92,0,5,3.88,4.42a2.83,2.83,0,0,1,3.44,2.92c0,2.1-1.45,2.92-3.41,2.93-10.85.07-9.9.85-9.89-9,0-1.83,0-3.66.08-5.48.29-7.32,4-12.34,10.6-15.2,3.12-1.34,6.3-2.57,9.48-3.75,2.42-.89,3.54-1.87.76-3.78a12.45,12.45,0,0,1-4.13-5,4.69,4.69,0,0,0-3-2.71,8,8,0,0,1-3.88-12.73c1.46-1.93,1.27-3.82,1.29-5.83.1-14.34,12.49-23.75,26.38-20A19.83,19.83,0,0,1,114,19.6c0,2.88,0,5.51,2,8.2,2.75,3.85.7,9.38-3.8,11.24a6.76,6.76,0,0,0-4.07,3.67,12.31,12.31,0,0,1-3.45,4.2c-2.75,2.33-2.66,2.78.75,4.17,3.14,1.29,6.36,2.43,9.45,3.84,6.49,2.95,9.77,8.16,10.07,15.22.14,3.4,0,6.82,0,10.23,0,2.78-1.28,4-4,3.95C114.68,84.28,108.35,84.31,102,84.31Zm2.33-52.95c1.74-4.13-2.4-5.76-4.53-8.46-1-1.23-1.61-1.29-2.89-.35a24.86,24.86,0,0,1-8.6,3.82c-5.61,1.47-5.62,1.47-5.49,7.17a19.61,19.61,0,0,0,.2,2.54c.69,4.6,3.41,7.47,7.95,8.26C97.8,45.51,105.13,42.68,104.35,31.36ZM93.57,6A14.25,14.25,0,0,0,79.08,18.25c-.35,2.33-.15,3.6,2.85,3.22,5.7-.72,10.83-2.37,14.89-6.71,2.5-2.67,4.44-2.24,5.94,1.2a11.58,11.58,0,0,0,2.63,4.31c.62.55,1.33,1.32,2.22.95s.52-1.47.48-2.24C107.65,11.64,101.33,6,93.57,6Zm3.1,45.45c-1-1.7-2.66-.73-3.93-.9-.81-.11-2.24-.49-2.06,1.13s1.5,3,2.75,3C95,54.65,95.9,53,96.67,51.46Z"/><path class="cls-1" d="M68.7,7.78c-.11,2-2,2.51-3.73,3.08A87.89,87.89,0,0,0,22.2,42.8c-.71,1-1.43,2-2.09,3-1.16,1.77-2.76,2.62-4.6,1.37s-1.44-3.09-.3-4.79a95.09,95.09,0,0,1,14.3-17A92.71,92.71,0,0,1,63.62,5C66.69,4,68.77,5,68.7,7.78Z"/><path class="cls-1" d="M122.09,4.63a87.79,87.79,0,0,1,15.65,6.65,94.38,94.38,0,0,1,33.41,30.34c1.21,1.79,2.53,3.75.28,5.42-2.48,1.83-4-.17-5.24-2.06a87.37,87.37,0,0,0-43.54-33.87A12.33,12.33,0,0,1,120,9.92a2.63,2.63,0,0,1-1-3.21A3,3,0,0,1,122.09,4.63Z"/><path class="cls-1" d="M17.29,139.66c1.42,0,2.18.93,2.87,2A87.94,87.94,0,0,0,56,172.81c1.93.92,3.4,2.35,2.17,4.59S55,179,53.08,178a93.65,93.65,0,0,1-37.71-32.87c-.83-1.24-1.56-2.48-.76-4A2.61,2.61,0,0,1,17.29,139.66Z"/><path class="cls-1" d="M132,178.51a2.65,2.65,0,0,1-2.72-1.59,2.48,2.48,0,0,1,.43-3,12.28,12.28,0,0,1,3-2A87,87,0,0,0,166,142.68c.14-.21.29-.4.42-.6,1.21-1.89,2.72-3.47,5-1.83,2.1,1.5,1.13,3.39,0,5.11a95.68,95.68,0,0,1-11.24,13.83,93.47,93.47,0,0,1-25.23,18.3A6,6,0,0,1,132,178.51Z"/></g></g></svg>