<svg id="Capa_1" data-name="Capa 1" xmlns="http://www.w3.org/2000/svg" viewBox="0 0 232 260"><defs><style>.cls-1{fill:#6c2910;}.cls-2{fill:#fff;}.cls-3{fill:#c88a5e;}</style></defs><circle class="cls-1" cx="117.51" cy="219.44" r="28.85"/><path class="cls-2" d="M124.51,220.84v3.54H110.24l-.27-2.8,8-12.81h3.62l-3.93,6.44-3.27,5.63Zm-2-12.07v19.82h-4.59V208.77Z"/><path class="cls-3" d="M169.77,122.28q-9.54,9.56-19.07,19.13c-3.28,3.28-3.9,3.28-7.09.09q-16.67-16.67-33.33-33.33c-2.87-2.87-2.87-3.54,0-6.41q10.41-10.44,20.85-20.86c2.66-2.65,3.33-2.63,6,0,1.95,1.92,3.91,3.83,5.78,5.82,1,1,1.64,1.14,2.67,0q5.34-5.82,10.87-11.48c1.39-1.42,1-3.22,1.39-4.84,1.51-7.38,7.46-13.37,14.59-14.5a18.15,18.15,0,1,1,5.05,35.91A5.31,5.31,0,0,0,174,93.33c-3.65,3.52-7.31,7-11.05,10.45-1.14,1-1.29,1.68-.11,2.87,2.33,2.34,4.46,4.88,6.67,7.33l1-.6c0-2.7.08-5.4,0-8.09-.08-2,.16-3.15,2.71-3.13s2.48,1.15,2.48,3q-.06,29,0,58.08c0,3.52-.52,4-4.09,4q-49.71,0-99.42,0c-2,0-3.09-.12-3.07-2.68S70.32,162,72.24,162q47.13.06,94.26,0c4,0,4,0,4-3.87q0-16.27,0-32.53v-3ZM188.55,73.8a13,13,0,0,0-12.59-13,12.81,12.81,0,0,0-13.11,12.39,7.36,7.36,0,0,1-2.32,5.34C155.24,84,150,89.54,144.8,95c-4.4,4.63-4.4,4.63,0,9a35.48,35.48,0,0,1,3,3c1.36,1.74,2.36,1.77,4,.14,6.28-6.18,12.76-12.15,19.11-18.27a7.3,7.3,0,0,1,5-2.24C183.41,86.29,188.55,80.87,188.55,73.8ZM166.4,117.36c-.86-.8-2-1.81-3.06-2.85-1.9-1.81-3.58-4.63-5.76-5.1-1.38-.3-3.57,2.84-5.29,4.55s-3.4,1.75-5.18-.09c-3.59-3.7-7.29-7.31-10.93-11-2.77-2.78-2.77-3.34-.1-6.24,4.69-5.11,4.66-5.07-.43-9.88-1.08-1-1.75-1.33-2.92-.1-2.92,3.08-5.94,6.09-9,9-1.13,1.08-1.2,1.76,0,2.91q15,14.85,29.86,29.84c1,1,1.6,1.21,2.67.09,3-3.14,6.14-6.17,9.21-9.26A2.24,2.24,0,0,0,166.4,117.36Zm-15.17,16.36c-.71-.8-1.2-1.4-1.74-1.95-9.72-9.73-19.5-19.4-29.13-29.22-1.67-1.71-2.47-1.16-3.72.23s-2.47,2-.46,4c9.77,9.53,19.35,19.25,29,28.88.63.62,1.15,2.1,2.31,1.39A28.06,28.06,0,0,0,151.23,133.72Z"/><path class="cls-3" d="M97,37.8c.82-.39.69-1.15.75-1.84a7.65,7.65,0,0,1,1.8-4.1c2-2.63,5.5-2.05,8-3.84,2.72-1.91,5.8-1.07,8.35,1.18.82.74,2,.36,2.92.64,4.92,1.4,9.12,12.22,6.38,16.57-.71,1.12-1.53,2.12-1.44,3.55a2.38,2.38,0,0,1-.27.86c-1.8,5.27-12.32,9.08-16.88,6-1.69-1.16-3.63-1.11-5.38-1.87-1.34-.59-1,.87-1,1.52C98.31,70.42,89,80.64,75.28,83.61,59,87.15,41.88,75.85,38.72,59.45c-3.34-17.38,7.76-34.18,24.62-37,13.52-2.25,24.21,2.45,32.07,13.67.34.49.67,1,1,1.47C96.56,37.73,96.81,37.74,97,37.8ZM43.38,53.07A25.88,25.88,0,0,0,69.21,79a26.15,26.15,0,0,0,26-25.84,25.93,25.93,0,1,0-51.85-.09Zm72.32-2.79c2.18.49,3.07-.39,2.69-2.58a3,3,0,0,1,1.46-3.35c1.38-.86,1.79-2.18.32-3.14a3.64,3.64,0,0,1-1.75-4.09c.25-1.65-.53-2.58-2.28-2.11a2.9,2.9,0,0,1-3.62-1.37c-1.11-1.79-2.3-1.85-3.44,0a2.79,2.79,0,0,1-3.3,1.5c-2.41-.67-2.89.55-2.59,2.58a2.93,2.93,0,0,1-1.51,3.3c-1.61,1-1.66,2.29-.07,3.33a3.22,3.22,0,0,1,1.55,3.6c-.35,2.07.62,2.85,2.61,2.39a2.67,2.67,0,0,1,3.13,1.22c1.2,1.84,2.42,2,3.69.06A2.68,2.68,0,0,1,115.7,50.28Z"/><path class="cls-3" d="M110.8,156.91H61.22c-4.62,0-4.92-.28-4.92-4.75q0-30,0-59.91c0-1.8,0-3,2.45-3s2.78.91,2.77,3c-.07,18.65,0,37.3-.1,56,0,2.64.64,3.41,3.36,3.4q46.08-.15,92.16,0c2.51,0,3.38-.66,3.22-3.21-.21-3.43.05-6.89-.08-10.34-.08-2.35,1.47-1.88,2.83-2s2.49,0,2.44,2q-.19,7.44,0,14.9c.08,2.94-1.23,3.91-4,3.9C144.46,156.87,127.63,156.9,110.8,156.91Z"/><path class="cls-3" d="M99.18,11.49c12.78,0,25.55,0,38.32,0a6.18,6.18,0,0,1,4.86,1.89Q152.82,24,163.43,34.42A5.74,5.74,0,0,1,165.31,39c-.11,4-.16,7.91,0,11.86.1,2.19-1,2.18-2.61,2.17s-2.79,0-2.67-2.15c.14-2.73-.07-5.48.06-8.21.09-1.93-.48-2.66-2.53-2.61-5.37.14-10.75.05-16.12.05-4.25,0-4.78-.52-4.78-4.66,0-5.37-.08-10.74,0-16.11,0-1.95-.5-2.61-2.52-2.6q-35.13.09-70.25,0c-1.25,0-2.13,0-2.66,1.67-.59,1.85-2.61.81-4,.85s-.95-1.3-1-2.11c-.24-5.32.12-5.68,5.47-5.68ZM142,21.22c0,4,0,7.86,0,11.69,0,.78-.15,1.79,1.05,1.8,4.15,0,8.29,0,12.43,0C150.92,30.12,146.6,25.8,142,21.22Z"/><path class="cls-3" d="M116.47,144c-4.86,0-9.72,0-14.58,0-3.3,0-4.13-.87-4.15-4.13,0-6,.06-12,0-17.92,0-2.79,1-4.11,3.92-4,4,.13,8.1.15,12.14,0,2.07-.08,2.29.84,2.24,2.52s0,3-2.32,2.78c-2.82-.2-5.67,0-8.5-.07-1.87-.07-2.15.85-2.12,2.41.07,3.54.13,7.09,0,10.62-.08,2,.56,2.57,2.55,2.55,8.6-.1,17.21,0,25.81-.08,1.92,0,2.89.21,2.89,2.54s-.73,2.93-3,2.86C126.39,143.87,121.43,144,116.47,144Z"/><path class="cls-3" d="M175.64,36.78c0,3.84-.12,7.69.05,11.52.1,2.17-1,2.18-2.58,2.17s-2.69,0-2.65-2.15c.13-6.16,0-12.33.09-18.49,0-2.17-.71-2.93-2.79-2.69-.89.11-1.83-.09-2.72,0-2.35.33-2.26-1.14-2.34-2.78-.1-1.88.36-2.77,2.47-2.6a54.81,54.81,0,0,0,6.66,0c2.67-.1,3.93,1,3.84,3.74C175.56,29.3,175.64,33,175.64,36.78Z"/><path class="cls-3" d="M87.36,97.21c4.55,0,9.11.07,13.66,0,1.91,0,2.16.87,2.09,2.41s.19,2.79-2.06,2.77q-13.68-.13-27.34,0c-2.06,0-1.95-1.22-1.94-2.58s-.18-2.64,1.92-2.59C78.24,97.28,82.8,97.21,87.36,97.21Z"/><path class="cls-3" d="M111.12,76.43c4.35,0,8.7.11,13,0,2.1-.07,2.27.93,2.22,2.56s.1,2.67-2.12,2.64q-13.48-.18-27,0c-2.31,0-2-1.28-2.06-2.7-.12-1.72.29-2.56,2.28-2.5C102,76.53,106.58,76.43,111.12,76.43Z"/><path class="cls-3" d="M115.94,68.67c-3.65,0-7.3-.1-10.94,0-2,.07-2.06-1.08-2-2.49s-.5-2.95,1.89-2.92c7.39.07,14.78.05,22.17,0,2.42,0,1.69,1.7,1.82,3,.15,1.49-.09,2.5-2,2.43C123.23,68.57,119.58,68.67,115.94,68.67Z"/><path class="cls-3" d="M100.23,91.92c-3.65,0-7.3-.09-10.94,0-2.09.07-2-1.16-1.91-2.53s-.4-2.66,1.8-2.63q11.23.12,22.49,0c2.17,0,1.74,1.4,1.81,2.67.08,1.45,0,2.55-2,2.49C107.73,91.84,104,91.92,100.23,91.92Z"/><path class="cls-3" d="M82.21,123.14c-2.84,0-5.68-.06-8.51,0-2.07.07-2-1.25-1.92-2.61s-.35-2.68,1.83-2.64c5.77.09,11.55.08,17.33,0,1.92,0,1.82,1.15,1.75,2.39s.52,2.84-1.67,2.83C88.09,123.13,85.15,123.14,82.21,123.14Z"/><path class="cls-3" d="M82.32,128.31c2.83,0,5.66.08,8.48,0,1.77-.08,2,.85,1.89,2.23s.63,3.06-1.75,3.06c-5.85,0-11.71,0-17.56,0-2.17,0-1.5-1.72-1.59-2.89s-.17-2.45,1.75-2.38C76.47,128.39,79.4,128.31,82.32,128.31Z"/><path class="cls-3" d="M82.35,144c-2.73,0-5.46-.13-8.18,0-2.23.13-2.4-1-2.44-2.78s.4-2.69,2.52-2.63q8,.22,16.06,0c2.21-.07,2.42.92,2.44,2.7s-.39,2.83-2.52,2.7C87.62,143.86,85,144,82.35,144Z"/><path class="cls-3" d="M115.87,133.57a31.37,31.37,0,0,0-4.55,0c-3.21.49-3.41-1.33-3.25-3.73.08-1.17.48-1.59,1.63-1.58,4.15,0,8.3.08,12.45,0,2-.05,1.75,1.22,1.67,2.41s.66,2.86-1.57,2.87h-6.38Z"/><path class="cls-3" d="M79.86,107.58c1.51,0,3,.06,4.53,0,1.87-.1,3.14-.07,3.12,2.57s-1.22,2.67-3.13,2.62c-3.42-.08-6.85-.13-10.26,0-2.24.09-2.34-1.09-2.39-2.8s.5-2.57,2.39-2.42S78,107.58,79.86,107.58Z"/><path class="cls-3" d="M77.06,91.93c-.81,0-1.62-.07-2.42,0-1.91.19-3-.2-2.94-2.54s.91-2.77,2.89-2.6c1.4.12,2.83,0,4.24,0,1.74,0,3.56-.56,3.58,2.52s-1.73,2.59-3.53,2.58Z"/><path class="cls-3" d="M97.59,112.73a21.88,21.88,0,0,0-2.43,0c-2,.23-2.61-.6-2.59-2.57s.39-2.84,2.51-2.63a30.66,30.66,0,0,0,5.16,0c1.89-.12,3,.15,2.93,2.53,0,2.2-.81,2.88-2.84,2.66C99.42,112.65,98.5,112.73,97.59,112.73Z"/><path class="cls-3" d="M58.7,68.65A4.29,4.29,0,0,1,57.28,68c-2.41-2.31-4.87-4.58-7.09-7.06-1.59-1.77.82-2.23,1.46-3.24S53,56.12,54,57.43a1.39,1.39,0,0,0,.21.21c1.59,1.38,2.8,4.09,4.64,4,2-.07,3.29-2.7,4.85-4.24,5.9-5.83,11.81-11.66,17.57-17.62,1.49-1.54,2.29-1.24,3.52.12,1.08,1.2,2,1.93.33,3.6-8,7.76-15.77,15.69-23.64,23.55A4.09,4.09,0,0,1,58.7,68.65Z"/></svg>