<svg id="Capa_1" data-name="Capa 1" xmlns="http://www.w3.org/2000/svg" viewBox="0 0 232 260"><defs><style>.cls-1{fill:#6c2910;}.cls-2{fill:#fff;}.cls-3{fill:#c88a5e;}</style></defs><circle class="cls-1" cx="109.49" cy="220.51" r="28.85"/><path class="cls-2" d="M106.3,220.83l-3.65-.86,1.2-10.13h11.58v3.57h-7.84l-.45,3.93a7,7,0,0,1,1.11-.45,5.28,5.28,0,0,1,1.73-.27,7.28,7.28,0,0,1,2.61.44,5.19,5.19,0,0,1,1.93,1.3,5.55,5.55,0,0,1,1.19,2.09,9.39,9.39,0,0,1,.4,2.83,7.41,7.41,0,0,1-.42,2.47,6,6,0,0,1-3.4,3.63,7.79,7.79,0,0,1-3.07.55,8,8,0,0,1-2.57-.41,7.53,7.53,0,0,1-2.25-1.17,5.78,5.78,0,0,1-1.58-1.87,5.12,5.12,0,0,1-.57-2.45h4.62a2.89,2.89,0,0,0,.34,1.25,2.13,2.13,0,0,0,.81.82,2.27,2.27,0,0,0,1.18.29,2.17,2.17,0,0,0,1.13-.27,2,2,0,0,0,.7-.75,3.26,3.26,0,0,0,.37-1.09,7.83,7.83,0,0,0,.11-1.32,4.87,4.87,0,0,0-.16-1.32,2.67,2.67,0,0,0-.49-1A2.28,2.28,0,0,0,110,220a3.55,3.55,0,0,0-1.29-.22,3.11,3.11,0,0,0-1.56.34A2.74,2.74,0,0,0,106.3,220.83Z"/><path class="cls-3" d="M129,141.27c-4.59,1.78-6.2,4.46-5.36,9a80.77,80.77,0,0,1,.85,12.37c.09,3.67-1.77,5.81-5.57,6h-.45c-12.44.59-13.29-.23-13.81-12.66-.26-6.34-.77-12.68-1-19,0-1.59-.55-2.14-2-2.06-.59,0-1.19,0-1.78,0-3.1,0-6.64-.86-9.19.35s-1.72,5.23-2.64,7.95a37.53,37.53,0,0,1-39.76,25.3,37.31,37.31,0,0,1-32.37-33.65A11.87,11.87,0,0,0,14.14,130c-3.15-5.51-6.26-11-9.4-16.56s-3-11.07.6-16.28A9.49,9.49,0,0,0,7,91.36c0-17.89,0-35.79-.07-53.68a12.85,12.85,0,0,1,2.41-7.82c8.57-12.2,20.2-19,35.14-19.11,29.87-.22,59.74,0,89.61-.1,8.37,0,13.8,5.3,19.56,10.1,1.13.93,1,2.42.3,3.68a3,3,0,0,1-3.84,1.33,8.75,8.75,0,0,1-3.31-2.12c-6.29-6.68-14.36-6.71-22.62-6.36-2.21.09-2.76,1-2.66,3,.11,2.21,0,4.43,0,6.65-.07,7.59-3.81,11.27-11.56,11.28-10.79,0-21.59.15-32.38-.07-3.35-.07-4.25.87-4.18,4.18.23,9.61.06,19.23.11,28.84,0,1.46-.69,3.32,1.91,3.67,11.72,1.59,22.08,7.27,33,11.3,2.67,1,4.45,1.12,6.36-1.52a16.56,16.56,0,0,1,10.31-6.44c3-.6,4-2,3.49-4.86a11.77,11.77,0,0,1,0-1.33c-.12-2.54.18-5.18,3.36-5.11s3.22,2.85,3.21,5.31c0,6.51.07,13,0,19.52,0,2.21.45,3.56,2.82,4.17,9.14,2.35,18.22,4.84,27.71,5.62a21.28,21.28,0,0,0,18.58-7.35c9.67-10.62,15-23.56,19.63-36.86,2.11-6.07,2.22-6.21,8.51-4.17,2.24.72,4.51,1.38,6.75,2.11,1.22.39,2.46.4,3.27-.6a2.9,2.9,0,0,0-.12-3.72c-3-3.87-5.81-7.86-9.09-11.45-2.16-2.36-5.16-1.55-7.76-.39-3.74,1.67-6.5,4.59-9,7.74-7.23,9.14-11.89,19.66-16.11,30.4-2.91,7.41-5.42,9.24-13.26,8.9-6.2-.27-12.39-.8-18.58-1.25-2.23-.17-4.32-.88-4.21-3.54.12-3,2.35-3.33,4.81-3.17,6.19.42,12.4.62,18.57,1.23,3.42.34,5.13-.9,6.28-4,3.89-10.72,8.67-21,15.39-30.3,3.75-5.19,8.06-9.83,14.08-12.51,2.92-1.3,3.86-4.37,5.72-6.6,1.37-1.64,2.62-3.49,5.08-2.05s2.16,3.39.83,5.32c-1,1.46-.36,1.81.68,3,4.54,5.23,8.91,10.65,12.91,16.3,2.22,3.15,1.7,6.81-.66,9.95-2.59,3.45-6.11,4.38-10.24,3.48-2.37-.52-5.19-3-6.85-1.52-1.46,1.28-1.09,4.68-1.49,7.14a75.23,75.23,0,0,0,0,23.82c1.92,12.36-1.63,24.36-3.06,36.5-.83,7-2,14-3,21-.59,4,.61,7.93.87,11.9.4,6.12-1.14,7.94-7.08,7.88-8.27-.08-11.28,2.45-12.89-10.72-1-8.2.33-16.22.47-24.32.06-3.18-.48-4.81-4-4.07a10,10,0,0,1-3.09.06c-9.57-1.13-18.38-.57-22.78,10-6.51,3.83-6.28,9.9-5.31,16.17,2.33,15.06-3,13-14.21,12.69-3.5-.09-4.59-3.16-4.78-6.43C130,155.2,129.47,148.31,129,141.27Zm71.77-59.08A111.51,111.51,0,0,1,191,96.73c-7.74,9.34-17.42,13.13-29.5,11.2a183.92,183.92,0,0,1-22.91-5c-2.52-.75-3.81-.69-3.58,2.53a78.71,78.71,0,0,1,0,10.64c-.19,2.8.84,3.85,3.59,4.17,14,1.66,27.86,3.36,42,2.45,3.44-.22,5.19-1,4.8-4.78-.25-2.46.6-4.55,3.61-4.37,2.84.17,3,2.36,2.94,4.54-.27,5.91-.69,11.81-.84,17.72-.21,8-1.43,15.9.16,23.87.52,2.6,2.15,2.31,3.93,2.29,2.37,0,2.08-1.66,1.8-3.12-1.89-9.86,1.18-19.33,2.19-29C200.84,114.19,205.84,98.57,200.75,82.19Zm-166.38-44H20.64c-7.47,0-8.38,1.17-7.15,8.66.25,1.52.86,1.94,2.27,2,6.65.21,10,4.2,11.6,10.21,1.46,5.4,3.08,10.76,4.48,16.18.53,2,1,3,3.52,2.19a81.42,81.42,0,0,1,28-3.6c2.52.1,3.32-.63,3.28-3.17-.12-9.75,0-19.5,0-29.25,0-1.55.45-3.24-2.24-3.28s-2.84,1.24-2.82,3.28c.06,6.2,0,12.41,0,18.61,0,2.34-.29,4.77-3.32,4.71s-3.3-2.34-3.29-4.76c0-6.06-.14-12.12.08-18.17.11-3-.92-3.76-3.76-3.66C45.61,38.36,40,38.22,34.37,38.22Zm47.26,69.5c-.44-7.81-.94-14.71-1.19-21.62-.1-3-1.5-4-4.27-4.38-9.88-1.29-19.74-1.66-29.59,0C33.44,84,21.73,89.08,12.42,99c-2.13,2.27-3.72,4.8-2.88,7.94,1.36,5.1,4.67,9.16,7.42,14.36C25.84,94.89,58.53,84.26,81.63,107.72Zm5.93-76.37c5.77,0,11.53,0,17.3,0,10.7-.07,9.68,1.34,9.88-10.14.05-3.21-1.12-4-4.1-3.94-10.64.15-21.29.06-31.93.06-8.56,0-12.77,3-15.82,11-.89,2.33-.56,3.11,2,3.07C72.48,31.27,80,31.34,87.56,31.35Zm-70.83,0c12.69,0,24.31,0,35.94,0,1.26,0,2.44-.14,2.74-1.6.91-4.35,3.32-8,5.77-12.17C44.71,16.74,28.89,16.16,16.73,31.34Zm91.44,68.21c-2.63,1.8-3.47,4-4.46,6.06s-2.27,3.33-4.49,2.44c-2.39-1-2.6-2.94-1.67-5.15a25.72,25.72,0,0,1,6.22-9c1.4-1.3,1.32-2-.56-2.66-4.56-1.67-9.11-3.38-13.57-5.3-2.46-1.06-2.72-.14-2.57,2,.6,8.68,1.16,17.36,1.63,26.05.1,1.88.84,2.61,2.68,2.59,5.46-.05,10.92-.06,16.38,0,2.13,0,2.56-.84,1.84-2.71C107.92,109.46,108.07,104.86,108.17,99.55ZM153.77,129c-5.26-.69-10.2-1.37-15.15-2-1.78-.22-3.72-.55-3.53,2.34q1,15.24,1.94,30.47c.15,2.39,1.87,2.16,3.52,2.23,2.09.08,2.44-1.06,2.31-2.8-.35-4.56-.54-9.13-1-13.68a6,6,0,0,1,3-6.28A22.65,22.65,0,0,0,153.77,129ZM13.51,88.56c2.47-1.62,4.14-2.76,5.85-3.84,6.89-4.35,6.89-4.35,4.67-12.24-1.27-4.54-2.46-9.1-3.83-13.6A4.3,4.3,0,0,0,15,55.73c-2.38.4-1.46,2.58-1.48,4C13.47,69,13.51,78.31,13.51,88.56Zm115,19.6c0-8.07,0-8.07-7.71-10.61a18.78,18.78,0,0,1-2.49-.87c-1.88-.92-2.62-.15-3,1.69a26.23,26.23,0,0,0,1.43,15.53,3.9,3.9,0,0,0,4,2.68c7.79.31,7.78.39,7.78-7.54ZM61.05,131.45a8.32,8.32,0,1,0-16.63.56,8.32,8.32,0,0,0,16.63-.56ZM124.73,135c-4.26,0-7.2.26-10.08-.07-4.1-.47-4.8,1.75-4.54,5,.5,6.15,1.21,12.29,1.49,18.45.13,2.73.73,4,3.74,3.79,3.73-.23,2.22-2.68,2.11-4.45C116.93,149.59,114.27,141,124.73,135ZM49.47,110c0-9.7-.44-10-9.1-6a47.38,47.38,0,0,0-5,2.82c-.7.43-1.7,1-.71,2,3.1,3.16,6.26,6.27,9.39,9.41.86.86,1.63.09,2.43-.12C51.64,116.69,48.57,112.44,49.47,110Zm6.53-.57c0,1.47.07,3,0,4.43-.11,1.91.24,3.2,2.36,4.06a3.43,3.43,0,0,0,4.54-1.1c1.14-1.35,2.49-2.53,3.74-3.78,5.87-5.86,5.87-5.86-1.76-9.2C56.3,100,56,100.23,56,109.39Zm52.75,18.82H125.1c1.81,0,3.55.17,3.48-2.62s-1.83-2.18-3.36-2.18c-10.75,0-21.5,0-32.26,0-1.39,0-3.37-.83-3.44,2-.07,2.6,1.33,2.83,3.32,2.81C98.14,128.18,103.45,128.21,108.75,128.21ZM30.34,135a23.09,23.09,0,0,1-3.53,0c-3.8-.61-4.57,1.09-3.54,4.37a38,38,0,0,0,4.17,9.2c1,1.64,2,1.85,3.38.35,2.52-2.68,5.12-5.29,7.81-7.8,1.25-1.17,1-2.19.38-3.49s-.89-2.79-2.93-2.63S32.26,135,30.34,135Zm19.13,18.65a43.6,43.6,0,0,1,0-4.43c.2-2.14-.82-3-2.7-3.88s-3,0-4.15,1.19-2.29,2.3-3.44,3.45c-6.16,6.16-6.1,6.46,2,9.79,7.89,3.25,8.3,3,8.3-5.24Zm6.53-.3c0,9.57.59,9.94,9.19,6a52.54,52.54,0,0,0,4.63-2.59c.63-.37,1.25-.84,1.19-1.7s-9.92-10.3-10.77-10.21a10.86,10.86,0,0,0-1.63.62C53.75,146.94,57.05,151,56,153.31ZM75.28,135c-1.77,0-3.54.13-5.29,0-2-.19-2.76.78-3.53,2.46s-.58,2.93.88,4.16,2.51,2.46,3.76,3.71c6.13,6.13,6.3,6.1,9.68-2C84.09,135.26,83.89,135,75.28,135Zm-.56-6.75c9.06,0,9.56-.79,5.66-9.2-.68-1.46-1.62-2.79-2.37-4.22-.89-1.7-1.8-2-3.23-.45-2,2.16-4.23,4.1-6.19,6.28-1.22,1.36-3.45,2.09-2.27,5s3.13,2.6,5.31,2.59Zm-45.19-16a29.51,29.51,0,0,0-6.43,12.67c-.48,2-.36,3.48,2.38,3.38,3.53-.14,7.07.1,10.59-.09,2.76-.15,4.37-3.68,2.66-5.68C35.78,119,32.68,115.69,29.53,112.19ZM128.69,88.5c-1-1.16,1.28-4.09-1.69-3.86s-6.75,1.87-6.75,4.5c0,2.36,4.31,2.73,6.81,3S128,89.82,128.69,88.5Z"/></svg>