<svg id="Capa_1" data-name="Capa 1" xmlns="http://www.w3.org/2000/svg" viewBox="0 0 232 260"><defs><style>.cls-1{fill:#6c2910;}.cls-2{fill:#fff;}.cls-3{fill:#c88a5e;}</style></defs><circle class="cls-1" cx="112.26" cy="223.2" r="28.85"/><path class="cls-2" d="M119.26,224.61v3.54H105l-.28-2.81,8-12.8h3.62L112.37,219l-3.26,5.64Zm-2-12.07v19.81h-4.59V212.54Z"/><path class="cls-3" d="M173,154.32c-4.26-8.55-8.35-17.16-12.83-25.57-1.85-3.48-1.79-5.86,1.27-8.65,5.39-4.91,10.4-10.25,15.56-15.42a8.75,8.75,0,0,0,2.82-4.23c.84-3.86-.12-4.7-3.9-5.22-11.56-1.58-21.33,1.48-29.22,10.21a13.26,13.26,0,0,1-2.46,2,77.24,77.24,0,0,0-26,29c-3.6,6.93-8,13.46-12.26,20-1.48,2.27-.88,3.24,1,4.71,2.24,1.74,3,.16,4-1.22l19.4-26.74c.55-.75,1.09-1.51,1.66-2.25,1.35-1.76,2.57-4.27,5.32-2.36s1,3.89-.34,5.76q-6.21,8.52-12.4,17.06l-8.9,12.24c-.91,1.26-1.83,2.17-.36,4,1.89,2.41.56,4.67-2.59,4.75-5.58.14-11.16,0-16.74.07-2,0-3.08-1.16-4.21-2.52-5.14-6.26-10.4-12.42-15.45-18.74-1.5-1.87-2.1-1.67-3.82-.08-5,4.57-6.59,9-2.5,15.3,2.71,4.14,1.16,5.55-3.76,6.13-7,.82-11-1.4-13.93-8.22-2.54-5.87-3.2-10.3,1.33-15.08a55.68,55.68,0,0,0,4.67-6.44c1.28-1.82,3-2.4,4.77-1s1.21,3.06.09,4.63a82,82,0,0,1-4.91,6.76c-2.21,2.53-2.76,5-.58,7.71,1.52,1.88,1.36,6.47,4.62,5.14,2-.82-1-4-1.71-6a4.54,4.54,0,0,1,.88-5.08c2.43-2.81,4.75-5.73,7.26-8.46,1.4-1.53,1.6-2.59.12-4.29-4.44-5.11-8.65-10.42-13-15.62-.72-.87-1.32-2-2.84-1.78-4.06.71-7.23-1.23-10.11-3.69a11.47,11.47,0,0,0-8.4-2.9,12,12,0,0,1-11.83-6.54c-1.46-2.58-3.12-4.94-6.12-6-1.61-.55-2.87-1.52-2.68-3.46s1.79-2.5,3.31-3c8.57-2.74,17.14-5.5,25.76-8.11,2.23-.68,3.62-1.48,3.83-4.15a100.57,100.57,0,0,1,1.8-10.57,3.85,3.85,0,0,0-.56-3c-4.33-7.13-1.12-13,7.21-13,8.63-.09,17.26,0,25.89,0,4.12,0,8.27-.32,12.35,0,17.06,1.56,33.21-1.13,48.2-9.74a10.62,10.62,0,0,1,2.2-.91c1.86-.55,3.52-.27,4.27,1.74s-.45,3-2,3.79c-.59.3-1.21.54-1.82.8-3.65,1.57-7.42,2.92-10.92,4.76-8.42,4.42-17.22,6.63-26.76,5.62-1.16-.12-3.21-1-3.3,1.54s1.92,1.92,3.39,2.08c11.1,1.17,21.61-1.25,31.76-5.46,3.68-1.53,5.79-.65,7.75,2.78,3.76,6.55,8,12.82,11.9,19.3a4.94,4.94,0,0,0,5.11,2.75c4-.21,8-.15,11.95,0,2.37.08,2.88-.55,2.32-3-2-8.51-3.52-17.13-5.61-25.61-1-4.06-.19-6.59,3.76-8.2,2.07-.84,3.83-2.43,5.9-3.28,10.28-4.2,16.86-11.95,21.62-21.68.94-1.93.87-2.86-.8-4.22-2-1.64-2.91-.29-3.68,1.08-5.87,10.48-15.39,15.94-26.35,19.6-4,1.34-7.82,3.25-11.72,4.93-2,.84-4,1.43-5.07-1s.65-3.62,2.63-4.47c7.79-3.32,15.57-6.7,23.41-9.93a14.3,14.3,0,0,0,6.13-4.8c5.29-7,10.72-13.86,16.13-20.75a7.74,7.74,0,0,1,13.61,2.46,7.6,7.6,0,0,1-1,6.48c-5.12,8.53-10.21,17.07-15.39,25.56a18.42,18.42,0,0,1-6.92,6.45c-4.61,2.61-9.15,5.36-13.83,7.86-2.11,1.13-2.65,2.36-2.11,4.76,2.53,11.1,4.78,22.27,7.24,33.39,1.17,5.25,0,9.67-3.84,13.46-4.82,4.75-9.51,9.64-14.41,14.32-1.71,1.63-2,2.87-.85,5,4.34,8.34,8.51,16.78,12.64,25.23,2.71,5.54,1.08,11.46,1.12,17.22,0,1.4-1.46,2.1-2.95,2.1H155.38a2.94,2.94,0,0,1-2.93-1.62,3,3,0,0,1,.69-3.63c.36-.39.75-.76,1.11-1.14,6.64-6.86,6.65-6.86,2.14-15.13-3.43-6.29-6.84-12.58-10.3-18.85-2.84-5.17-2.58-10.14.85-14.93,3.09-4.32,6.19-8.63,9.26-13,1.23-1.73,2.74-2.72,4.67-1.29s1.42,3.19.2,4.88c-2.79,3.88-5.44,7.86-8.38,11.62-2.79,3.57-3.14,6.91-.75,10.94,4,6.84,7.69,13.91,11.51,20.89C166.48,156.75,166.48,156.75,173,154.32ZM95.65,108.13c-5.05-2.3-10.11-4.59-15.16-6.91-1.78-.82-2.8-2.21-2-4.15s2.34-2.3,4.28-1.41c6.13,2.81,12.31,5.55,18.45,8.36,1.85.85,2.7,2.5,1.72,4.25-3.25,5.86-5.6,10-13.47,9.9a14.3,14.3,0,0,0-9.45,3.39c-2,1.52-2.43,2.42-.75,4.54,3.79,4.77,7.28,9.79,10.89,14.7l10,13.62c7.48-12.13,14.66-23.73,21.77-35.38a19.55,19.55,0,0,1,4.7-5.31C135,107.16,143.18,100.4,151.6,94c2.37-1.82,2.38-3.08.82-5.39q-5.1-7.59-9.69-15.51c-1.32-2.28-2.64-2.84-5-1.78-9.52,4.21-19.5,5.5-29.85,4.83-5.29-.34-10.71.58-15.9-.2-9.27-1.39-15.07,1.76-17.52,10.88-1.93,7.2-6.63,9.56-13.9,8.6-12.86-1.71-23.95,4.71-35.53,7.8,2.19,6.86,6.62,9.69,13.33,9.35,3.53-.17,6.19,2.08,8.78,4.19,2.15,1.75,4.33,2.93,7.25,1.64a18.05,18.05,0,0,1,15,0,5.36,5.36,0,0,0,6.26-1c4.11-3.87,9-5.37,14.54-5.33C92.85,112.05,94.8,111,95.65,108.13Zm-34,14.62a2,2,0,0,0,.68,2.1q16.45,19.88,32.91,39.78c2.28,2.78,4.85,1.92,8.23,1.28-3-2.23-5.39-4-7.22-6.55-7.36-10.19-15.08-20.13-22.18-30.49C70.82,124.14,66.27,123.83,61.65,122.75ZM73,76.05H57.14c-1.17,0-2.39-.17-2.63,1.61-.43,3.15-1,6.28-1.57,9.41-.3,1.69.32,2.43,2.11,2.38,3.18-.08,6.37-.06,9.55,0A2.44,2.44,0,0,0,67.12,88C69,84.17,70.85,80.4,73,76.05Zm1.83-9.61c-6.5,0-13,0-19.49,0-1.3,0-3-.21-3.1,1.61-.16,2.17,1.71,2,3.12,2q19.68,0,39.37,0c1.32,0,2.71.17,2.74-1.9,0-2.22-1.54-1.74-2.75-1.74C88.1,66.43,81.47,66.44,74.84,66.44Zm88.23,100c3.57,0,6.58,0,9.58,0,2.57,0,1.89-2,1.91-3.48,0-.92.36-2.48-1.43-2C169.54,161.85,165.39,161.74,163.07,166.45ZM207.4,19.81c2-1.63,2.71-3.91,3.93-5.8a1.71,1.71,0,0,0-.29-2.47c-1.09-.74-2-.19-2.69.71-1,1.22-1.95,2.46-2.9,3.7C203.52,18.47,206.42,18.43,207.4,19.81Z"/><path class="cls-3" d="M74.45,44A12.75,12.75,0,0,1,63.18,56.78a12.41,12.41,0,0,1-13.4-9.35,4.8,4.8,0,0,0-3.87-4.12,9.22,9.22,0,0,1-6.42-9.06,9.64,9.64,0,0,1,6.9-8.77A8.52,8.52,0,0,1,56.47,29c1.41,2.37,2.81,2.62,5.3,2.52A12.48,12.48,0,0,1,74.45,44Zm-6.06.17a6.4,6.4,0,0,0-6.49-6.55,6.49,6.49,0,1,0,6.49,6.55ZM48.93,31.26c-1.93.13-3.16,1.11-3.18,3.16a3,3,0,0,0,3.43,3.33c2-.08,3.07-1.32,3-3.33S51,31.36,48.93,31.26Z"/><path class="cls-3" d="M142,47.23a13,13,0,0,1-12.55-12.88,12.7,12.7,0,0,1,25.4.32A13,13,0,0,1,142,47.23ZM142.35,28a6.29,6.29,0,0,0-6.65,6.34,6.49,6.49,0,1,0,13,.31A6.29,6.29,0,0,0,142.35,28Z"/></svg>