<svg id="Capa_1" data-name="Capa 1" xmlns="http://www.w3.org/2000/svg" viewBox="0 0 232 260"><defs><style>.cls-1{fill:#6c2910;}.cls-2{fill:#fff;}.cls-3{fill:#c88a5e;}</style></defs><circle class="cls-1" cx="112.29" cy="219.5" r="28.85"/><path class="cls-2" d="M109.35,220.24V218h3a10.35,10.35,0,0,1,2.7.33,6.34,6.34,0,0,1,2.11,1,4.3,4.3,0,0,1,1.36,1.61,4.85,4.85,0,0,1,.48,2.2,5.39,5.39,0,0,1-.56,2.48,5.18,5.18,0,0,1-1.56,1.83,7.3,7.3,0,0,1-2.36,1.14,10.47,10.47,0,0,1-2.92.39,9.21,9.21,0,0,1-2.48-.34,7.15,7.15,0,0,1-2.26-1,5.35,5.35,0,0,1-1.64-1.8,5.26,5.26,0,0,1-.62-2.62h4.6a2,2,0,0,0,.35,1.14,2.45,2.45,0,0,0,.93.81,2.73,2.73,0,0,0,1.27.3,3,3,0,0,0,1.43-.32,2.23,2.23,0,0,0,.91-.86,2.41,2.41,0,0,0,.31-1.22,3.31,3.31,0,0,0-.33-1.6,2,2,0,0,0-1-.87,3.86,3.86,0,0,0-1.52-.27Zm0-3.42h2.23a2.83,2.83,0,0,0,1.41-.31,1.94,1.94,0,0,0,.83-.87,3,3,0,0,0,.27-1.34,2.5,2.5,0,0,0-.25-1.1,1.94,1.94,0,0,0-.77-.81,2.63,2.63,0,0,0-1.32-.31,2.59,2.59,0,0,0-1.06.23,2.29,2.29,0,0,0-.86.63,1.52,1.52,0,0,0-.33,1h-4.6a4.61,4.61,0,0,1,.93-2.89,6,6,0,0,1,2.47-1.85,8.4,8.4,0,0,1,3.3-.64,9.82,9.82,0,0,1,3.7.64,5.45,5.45,0,0,1,2.48,1.91,5.19,5.19,0,0,1,.89,3.11,4,4,0,0,1-.47,1.92,5,5,0,0,1-1.34,1.57,6.49,6.49,0,0,1-2,1.07,7.81,7.81,0,0,1-2.51.39h-3Z"/><path class="cls-3" d="M145.5,90.84c-.08,11.32-4.59,19.7-14.29,24.61s-18.94,3.68-27.52-2.77c-1.52-1.14-2.69-1.56-4.58-.89a23.33,23.33,0,0,1-15.79,0,4,4,0,0,0-4.32.7c-8.61,6.62-18.08,7.86-27.77,2.92S36.66,102.18,37.14,91.3c.48-10.72,6-18.43,15.9-22.6,2.48-1,2.42-2.88,2.46-4.57s-1.92-1.2-3-1.47c-8.59-2-7.85-.34-7.53-9.32.12-3.48-1.67-5.27-3.73-7.29-5.58-5.47-5.83-5.2.07-10.25,3.52-3,3.65-6.38,3.56-10.28-.11-4.79.1-4.94,4.78-5.86.31-.06.63-.09.95-.12a19.56,19.56,0,0,0,14.31-7.43c2.66-3.27,3.71-3.29,6.36,0,3.92,4.93,9,6.79,15,7.53,5,.61,5.5,1,4.94,5.89-.61,5.28,1.6,8.72,5.37,11.79,2,1.61,3.88,3.46,1.07,6-.46.42-.5.94.13,1.29s1.4,1.18,2.33.59A30.42,30.42,0,0,1,110.4,41.1c.82-.17,1-1.05,1.4-1.68a17.52,17.52,0,0,1,11.37-8.31,4.74,4.74,0,0,0,3.17-2.38c6.45-10.19,17.89-15.4,28.9-13.28,12.5,2.41,21,10.86,23.3,23.5a5.13,5.13,0,0,0,3.36,4.33c9.3,4.25,14.46,11.73,15,21.88.6,10.71-4.07,19-13.5,24.15-9.21,5-18.67,4.59-26.95-1.76-4.09-3.13-7.23-.93-10.66-.19C143.82,87.79,146.3,90,145.5,90.84ZM84.92,46C71.19,46,60.79,55.86,60.35,68.38c-.08,2.41-.8,3.59-3.21,4.34C48.45,75.41,42.85,82.46,42.27,91A20.81,20.81,0,0,0,54.09,111.1c8,3.75,16.66,2.25,23.42-4.24a4,4,0,0,1,5.14-.89,19.45,19.45,0,0,0,17.1,0c2.21-1,3.65-.62,5.4,1,5.91,5.6,12.87,7.51,20.76,5a20.48,20.48,0,0,0-2.12-39.62c-2.79-.56-4.75-1.46-6-4.33-1.72-3.88-5.3-5.93-9.44-6.41-2.27-.26-3.32-1.3-4.32-3.15C99.63,50.5,92.7,46.49,84.92,46Zm64.35-25.81c-7.83.4-14.84,4.43-19.26,12.6-.93,1.74-1.91,2.76-4.07,3a12.29,12.29,0,0,0-10.34,7.68A4,4,0,0,1,112,46.22a17.48,17.48,0,0,0-6.73,2c-.52.28-1.28.41-1.17,1.3s5.74,7.07,6.76,7.31a17.27,17.27,0,0,1,11.17,8.06,4.9,4.9,0,0,0,3.45,2.46,25.13,25.13,0,0,1,15.68,11c2.83,4.28,2.82,4.29,7.87,2.7a10.78,10.78,0,0,0,2.1-.78c2.2-1.26,3.81-.79,5.67,1a20.17,20.17,0,0,0,23.2,4,20.78,20.78,0,0,0,11.8-19.83A20.34,20.34,0,0,0,177.17,47c-2.46-.77-3.37-1.88-3.47-4.5C173.22,30.09,162.92,20.24,149.27,20.23ZM55.13,41.57a12.69,12.69,0,0,0,4.33,8.89c.75.68,1.51,1.53,2.64.23a27.58,27.58,0,0,1,17-9.48c1.52-.24,1.89-.93,1.65-2.4A13.17,13.17,0,0,0,67.2,28C60.55,28.42,55.19,34.1,55.13,41.57Zm-5.17,1c0-10.87,7.13-18.84,16.27-19.68A17.81,17.81,0,0,1,85.7,37.73c.5,2.92,1.61,3.79,4.17,3.84.8,0,1.75.73,2.31-.31s-.53-1.55-1.09-2C87.5,36.33,85,33,86.06,28c.51-2.38-.56-3.51-3-3.69-5.51-.44-10.45-2.08-13.82-6.88-1.24-1.76-2.26-.54-3,.48-3,4.18-7.28,5.7-12.13,6.2-.53.06-1,.28-1.57.31-2.11.12-3,1.09-2.65,3.27a10.37,10.37,0,0,1-4.58,11.1c-2,1.39-1.88,2.56-.06,4.2,2.49,2.22,5.13,4.25,4.76,8.48-.47,5.4-.11,5.42,5.35,6.38.93.16,1.76.69,2.4-.64s-.46-1.66-1.12-2.22C52.37,51.31,50.08,46.66,50,42.52Z"/><path class="cls-3" d="M176.37,110.52a8.79,8.79,0,0,1,1.59-5.47c2-2.91,4.16-5.73,6.33-8.53,1.52-2,3.25-2,4.78,0,2.24,2.89,4.53,5.75,6.48,8.81a10,10,0,0,1-1.05,12,10.32,10.32,0,0,1-18.13-6.74Zm15.51,0a7,7,0,0,0-.44-1.71c-1.27-2.33-2.62-5.78-4.8-5.91-1.83-.11-3.38,3.43-4.59,5.69-1.1,2.07-.48,4,1.08,5.57a4.65,4.65,0,0,0,5.32,1.18A5.37,5.37,0,0,0,191.88,110.48Z"/><path class="cls-3" d="M159.22,141.48c-8.84,0-13.87-8.58-9.82-15.41a88.83,88.83,0,0,1,6.66-9.08c1.44-1.84,3.15-1.76,4.57.06,2.24,2.88,4.53,5.74,6.49,8.8a9.53,9.53,0,0,1,.16,10.38A9.78,9.78,0,0,1,159.22,141.48Zm4.28-10.33a7,7,0,0,0-.43-1.72c-1.25-2.35-2.62-5.78-4.79-5.93-1.85-.13-3.38,3.42-4.59,5.66-1.13,2.07-.5,4,1.05,5.58A4.63,4.63,0,0,0,160,136,5.36,5.36,0,0,0,163.5,131.15Z"/><path class="cls-3" d="M90.31,144.06a9.79,9.79,0,0,1-8-5.27,9.51,9.51,0,0,1,.17-10.38c2-3.06,4.26-5.92,6.5-8.79,1.43-1.83,3.14-1.87,4.57,0a87.26,87.26,0,0,1,6.65,9.08C104.2,135.51,99.16,144.05,90.31,144.06Zm1-5.19A5.1,5.1,0,0,0,96,132.05c-.89-2.22-2.63-3.89-4-5.79-.48-.66-1-.8-1.49-.06-1.38,1.9-3.13,3.58-4,5.78A5.09,5.09,0,0,0,91.36,138.87Z"/><path class="cls-3" d="M48.45,146.64c-9,0-14-8.57-10-15.41a88.21,88.21,0,0,1,6.65-9.07c1.44-1.85,3.15-1.78,4.57,0,2.24,2.88,4.53,5.74,6.49,8.81a9.53,9.53,0,0,1,.17,10.38A9.87,9.87,0,0,1,48.45,146.64Zm4.11-10.22a6.94,6.94,0,0,0-.38-1.73c-1.17-2.41-2.64-5.78-4.74-6-1.92-.23-3.36,3.38-4.64,5.56-1.18,2-.59,4,.92,5.61A4.67,4.67,0,0,0,49,141.15,5.36,5.36,0,0,0,52.56,136.42Z"/><path class="cls-3" d="M117,159.54a10.24,10.24,0,0,1-8.92-15.38,88.73,88.73,0,0,1,6.65-9.08c1.43-1.84,3.14-1.83,4.57,0a88.36,88.36,0,0,1,6.64,9.09A10.24,10.24,0,0,1,117,159.54Zm0-5.19a5,5,0,0,0,4.62-7c-1.08-2.33-2.75-5.81-4.54-5.76-2.21.07-3.7,3.47-4.81,5.85C110.84,150.64,113.51,154.39,117.08,154.35Z"/><path class="cls-3" d="M71.26,169.88c-8.8-.2-13.63-8.85-9.47-15.64a96.75,96.75,0,0,1,6.49-8.8c1.41-1.82,3.12-1.92,4.57-.08,2.31,2.95,4.66,5.91,6.66,9.07a9.43,9.43,0,0,1-.06,10.38A9.77,9.77,0,0,1,71.26,169.88Zm4.55-10.69c-.49-2.88-2.92-5-4.74-7.46-.46-.61-.93-.09-1.25.36A66.68,66.68,0,0,0,66,157.61c-1.16,2-.46,4,1.11,5.56a4.64,4.64,0,0,0,5.32,1.13C74.49,163.43,75.53,161.82,75.81,159.19Z"/><path class="cls-3" d="M181.62,169.9a10.22,10.22,0,0,1-9.05-5.29,9.49,9.49,0,0,1,.16-10.38c2-3.06,4.24-5.93,6.49-8.8,1.59-2,3.31-1.75,4.79.17,2.1,2.72,4.23,5.43,6.13,8.28a9.68,9.68,0,0,1,.39,10.66A10.19,10.19,0,0,1,181.62,169.9Zm5.1-10.4a6.85,6.85,0,0,0-.44-1.71c-1.27-2.34-2.62-5.78-4.81-5.91-1.82-.11-3.38,3.43-4.58,5.69-1.1,2.07-.47,4,1.08,5.57a4.65,4.65,0,0,0,5.32,1.18A5.37,5.37,0,0,0,186.72,159.5Z"/><path class="cls-3" d="M119.66,105.35c-.25-1.58,0-2.47,1.91-2.85a9.58,9.58,0,0,0,8.09-8.07c.59-3.25,2.89-2,4.38-1.84,2.08.2.93,2,.69,3-1.54,6.55-5.72,10.51-12.24,12.11C120.33,108.25,119.1,107.87,119.66,105.35Z"/><path class="cls-3" d="M166,43.38c-1.9.48-2.43-.4-2.8-2.23-1.15-5.71-4.74-9.4-10.47-10.32-3.31-.54-2.11-2.69-2.06-4.24.08-2.27,2-1.12,2.94-.94a18.21,18.21,0,0,1,14.87,14.9C168.87,42.7,168.57,44,166,43.38Z"/></svg>