<svg xmlns="http://www.w3.org/2000/svg" viewBox="0 0 175.19 175.24"><defs><style>.cls-1{fill:#c98b5f;}</style></defs><g id="Capa_2" data-name="Capa 2"><g id="Capa_1-2" data-name="Capa 1"><path class="cls-1" d="M0,90.22Q0,56.49,0,22.74C0,11.56,5.63,5.88,16.71,5.88H147.65c2.27,0,4.66.55,4.29-3.25C151.76.84,153.42,0,155.24,0c3,0,6.09-.13,9.12,0a11.56,11.56,0,0,1,10.77,11.28c.11,3.52,0,7.05,0,10.58V138.28c0,9.15-4.46,13.55-13.68,13.56-14.22,0-28.45,0-42.67-.06-2.29,0-4,.49-5.25,2.41a3.2,3.2,0,0,1-.25.27c-12,13.57-12,13.57-29.06,19.74-1.49.54-3,1.22-4.43-.07s-1-2.79-.5-4.39c1.48-5.12,2.79-10.3,4.31-15.41.58-2,.18-2.54-1.91-2.53q-25,.1-50,0c-2.18,0-2.62.79-2.58,2.75.11,5.35-.09,10.7.08,16.05.12,3.53-1.37,4.82-4.78,4.64-3-.17-6.08,0-9.11,0C6.21,175.13,0,169,0,159.88Q0,125.05,0,90.22Zm5.85,58.5c4.47-2.92,9-2.76,13.45-2.75q33.21.06,66.4,0c.86,0,1.71-.05,2.56,0A2.67,2.67,0,0,0,91,144c.37-1.1-.84-1.64-1.6-2.16a9.36,9.36,0,0,0-5.48-1.68c-2.07,0-4.14-.08-6.2,0-1.88.09-2-1.1-1.76-2.34s-1.15-3.4,1.31-3.46c5.3-.12,11-1.15,15.4,2.69,2.74,2.41,3.87,1.17,5.64-.8,12.74-14.22,25.59-28.34,38.31-42.58,3.59-4,7.79-5.58,13-4.44.69.15,1.66,1.21,2-.24s-.91-1.37-1.84-1.38c-4.74,0-9.48,0-14.22,0-2.15,0-4.13-.34-4.17-2.9s1.91-3,4.08-3c4.5,0,9,0,13.5,0,1.89,0,2.88-.25,2.81-2.52-.16-5.22-.11-10.45,0-15.68,0-1.76-.57-2.32-2.3-2.28-4.37.1-8.75,0-13.13,0-2.22,0-4.84.25-4.92-2.84s2.48-3,4.75-3c4.38,0,8.76-.08,13.13,0,1.92.05,2.51-.57,2.48-2.48q-.17-9.12,0-18.24c0-2-.51-2.77-2.63-2.7-4.62.14-9.24,0-13.86.05-2.06,0-3.82-.5-3.89-2.81-.07-2.56,1.8-3.09,4-3.06,4.63,0,9.25-.06,13.87,0,1.85.05,2.63-.45,2.52-2.43a57.3,57.3,0,0,1,0-8.39c.27-2.94-.55-3.88-3.7-3.87q-65.85.16-131.71.08C9.06,11.73,5.86,15,5.86,22.46q0,50.17,0,100.33Zm163.45-19v-3.81q0-55.82,0-111.62c0-6.64-1.83-8.3-8.38-8.49-2.87-.08-3.37.9-3.33,3.5.13,11.31,0,22.62,0,33.93,0,27.22.05,54.45-.06,81.68,0,2.81.65,4,3.58,3.58A17,17,0,0,1,169.31,129.73ZM121,146c14.73,0,28.45.05,42.17,0a5.77,5.77,0,0,0,6.09-5.89c-.06-3.27-2.56-5.59-6.28-5.72-1.82-.07-3.64,0-5.46,0-5.55,0-5.74-.2-5.75-5.77V111.89ZM23.36,160.56c0-9.81,0-9.84-9.58-8.67a8.55,8.55,0,0,0-7.19,5.38c-1.5,3.51-.71,6.65,1.82,9.37,2.08,2.24,11.75,4.28,14.05,2.5,2.08-1.61.51-4.48.88-6.76A11,11,0,0,0,23.36,160.56ZM93.56,155a26.54,26.54,0,0,1,1.73-2.41q16.58-18.4,33.14-36.79c.67-.75,2.42-1.44,1-2.9-1.7-1.69-2.3.31-3,1.12q-9.36,10.19-18.6,20.49-7.57,8.37-15.09,16.79c-.48.54-1.6,1-.9,2A12.26,12.26,0,0,0,93.56,155Zm6.39,5.75c.64-.81,1.21-1.59,1.85-2.31Q118.39,140,135,121.64c.67-.75,2.42-1.42.92-2.89-1.72-1.68-2.29.32-3,1.13q-9.12,9.93-18.12,20-7.82,8.65-15.58,17.35c-.48.53-1.6,1-.86,2A12.2,12.2,0,0,0,100,160.75Zm52-60.4a5.19,5.19,0,0,0-3.32-5.08,5.79,5.79,0,0,0-6.39,1.06c-1.73,1.49-2.48,2.76-.1,4.41a24.71,24.71,0,0,1,4.56,4.1c1.68,2,2.69,1.12,3.88-.43A6.31,6.31,0,0,0,152,100.35Zm-11.3,14.46a9.54,9.54,0,0,0,3.42-3.34c.8-1.17-.61-1.62-1.21-2.21-1.38-1.34-2.86-2.58-4.29-3.86-1.28-1.15-2.19-2.88-4.23-.53-1.79,2.06-1.84,3.25.36,4.83a55.42,55.42,0,0,1,4.29,3.85C139.54,114,140.13,114.4,140.68,114.81ZM88.58,158.5c-.71,3.08-2,5.37-1.82,8.34l7.61-3Z"/><path class="cls-1" d="M56.47,46.74c-8.42-12.05-8.87-19.62-1.79-25.65a14.64,14.64,0,0,1,19.6.45c6.62,6.23,6,13.83-2.29,25.1,3.93,0,7.67.32,11.33-.07C89.15,45.94,93.26,41,93.39,35c.1-5,.18-10,0-14.95-.12-2.74,1.41-2.45,3.17-2.54,1.92-.09,2.86.3,2.79,2.54-.16,5,0,10-.06,15A17.39,17.39,0,0,1,81.66,52.57c-17.27.07-34.53,0-51.79,0-8.89,0-14.64,8-11.48,15.92a11.24,11.24,0,0,0,7.55,6.85c5.14,1.53,6.06,1,6.14-4.26,0-3.05,1.5-4,4.32-4,6.81.08,13.62.12,20.43,0,3.29-.06,4.92,1.25,4.45,4.52-.5,3.5.71,4.59,4.28,4.37C71,75.68,76.5,75.87,82,76a17.5,17.5,0,0,1,0,35c-17.39.08-34.77,0-52.16,0-4.93,0-8.69,2.08-11,6.5a10.91,10.91,0,0,0,1,12c2.93,4.06,7.19,5.19,11.93,4.77,2.43-.21,3.45.39,3.36,3.1-.07,2.26-.69,2.81-2.91,2.84-12.09.17-20.42-6.74-20.55-17.26A17.42,17.42,0,0,1,29,105.15c17.39-.09,34.77,0,52.16-.05,8.72,0,14.39-7.87,11.43-15.67-1.76-4.65-5.3-7.35-10.21-7.56-6.31-.28-12.64-.05-19-.11-1.51,0-2.3.39-2.15,2a28.44,28.44,0,0,1,0,2.92c0,5.91,0,6-5.89,6.69-2,.24-2.47,1.82-3.24,3.06-4.8,7.71-6.2,7.85-10.84,0-1.32-2.22-2.81-3.37-5.5-3.06s-3.77-1.14-3.75-3.72c0-2.43.72-5.29-.31-7.17S27.56,82,25.34,81.4C16.42,79,10.62,70.93,11.76,62A17.67,17.67,0,0,1,29.39,46.75C38.33,46.7,47.27,46.74,56.47,46.74ZM46.74,73C38,73,38,73,38,81.85c0,1.33,0,2.66,0,4,0,.85,0,1.91,1.21,1.71,3.43-.55,4.7,2,6.05,4.22,1.06,1.8,1.8,2,2.93,0,1.34-2.27,2.57-4.82,6-4.26,1.22.19,1.27-.79,1.27-1.68,0-1.33,0-2.66,0-4C55.47,73,55.47,73,46.74,73ZM73,31.71a8.45,8.45,0,0,0-5.12-7.45,8,8,0,0,0-9.15,1.23,8.67,8.67,0,0,0-2.94,9.16c1,4.46,4.7,6.91,7.57,10,.47.49,1,.72,1.57.18C68.41,41.2,72.88,38.23,73,31.71Z"/><path class="cls-1" d="M115.55,20.47c11,0,10-1.11,10,9.92,0,2.31,0,4.61,0,6.92s-1.13,3.61-3.55,3.61c-4.37,0-8.75,0-13.12,0-2.57,0-3.81-1.14-3.79-3.74,0-4.25.06-8.5,0-12.75,0-2.75,1.14-4.06,3.92-4C111.18,20.52,113.36,20.47,115.55,20.47Zm.12,6c-2.89-.55-5.37-.69-4.8,3.59.35,2.61-.79,5.7,3.93,5.06,2.72-.36,5.7.62,5-4C119.35,28.43,120.47,25,115.67,26.5Z"/><path class="cls-1" d="M115.47,67.19c-11.59,0-10.37,1.26-10.37-10.25,0-11.35-1.2-10.2,10.05-10.19,11.59,0,10.37-1.28,10.38,10.24C125.53,68.33,126.7,67.16,115.47,67.19Zm-.7-6c3,.39,5.58.66,5-3.65-.36-2.61.79-5.7-3.93-5.07-2.72.37-5.69-.62-5,4C111.28,59.23,110.16,62.65,114.77,61.22Z"/><path class="cls-1" d="M125.53,83.15c0,11.55,1.23,10.26-10.31,10.31-2.19,0-4.38,0-6.57,0-2.4,0-3.57-1.18-3.56-3.58,0-4.49,0-9,0-13.48,0-2.23,1.16-3.37,3.38-3.38H122c2.4,0,3.58,1.18,3.56,3.58C125.52,78.77,125.53,81,125.53,83.15Zm-5.84.54c-.08-5.49.54-4.52-4.27-4.9-3.56-.27-4.66.67-4.65,4.44s1.07,4.46,4.62,4.53C119.25,87.84,120.45,86.65,119.69,83.69Z"/><path class="cls-1" d="M43.9,134.38c2.73-.67,2.74,1,2.9,3,.21,2.79-1.29,2.67-3.28,2.81-2.47.17-2.64-1-2.72-3C40.71,134.81,41.49,133.84,43.9,134.38Z"/><path class="cls-1" d="M58.33,137.06c.49,2.32-.26,3.23-2.79,3.19-2.33,0-3.16-.61-3.07-3,.08-2,.32-3.14,2.76-3C57.2,134.4,59,134.21,58.33,137.06Z"/><path class="cls-1" d="M70,137.65c.73,3.1-1.56,2.33-3.29,2.54-3.11.39-2.32-1.76-2.54-3.46-.36-2.83,1.55-2.25,3.2-2.46C70.24,133.9,70.29,135.57,70,137.65Z"/><path class="cls-1" d="M61.29,32.54c.14-2,1-3.1,2.66-3.24a2.65,2.65,0,0,1,3.13,2.75,2.67,2.67,0,0,1-2.94,3C62.41,35,61.66,33.8,61.29,32.54Z"/></g></g></svg>