<svg xmlns="http://www.w3.org/2000/svg" viewBox="0 0 220.81 220.84"><defs><style>.cls-1{fill:#6c2910;stroke:#6c2910;stroke-miterlimit:10;stroke-width:0.75px;}</style></defs><g id="Capa_2" data-name="Capa 2"><g id="Capa_1-2" data-name="Capa 1"><path class="cls-1" d="M111.26,106.27c.4-2.27-.52-3.66-.78-5.17-.37-2.12.43-3.73,2.56-4.3,2-.54,3.3.58,4.06,2.32a15,15,0,0,1,1,3.28c.55,2.83,1.47,4.58,5,5,4.11.46,6.7,3.69,7.69,7.77s-.74,7-3.74,9.39c-.94.77-2.21,1.19-1.67,3,3.4,11.34,6.69,22.72,10.07,34.29a151.86,151.86,0,0,1,27.66-9.91c1.71-.44,2.3-1.13,2.29-2.87q-.09-16.34,0-32.66c0-1.73-.4-2.49-2.33-2.64a25.42,25.42,0,0,1-14.87-6c-1.57-1.34-3.11-1-4.81-.85-12.79.88-23.23-8.92-22.68-21.25.16-3.52,1.57-6.66,3.06-9.75,3.74-7.77,8.74-14.75,14-21.58,1.17-1.53,2.52-3,4.67-2.16,1.82.68,2.42,2.23,2.42,4.14,0,4.58,2.16,8.22,5.35,11.32,1.54,1.5,3.19,2.88,4.74,4.37,9.39,9,9.55,20.17.39,29.41a11.25,11.25,0,0,1-2.14,1.3,28,28,0,0,0,2.35,1.64c8.56,4.54,9.88,3.78,9.88-5.65,0-7-.06-14,0-21A5.13,5.13,0,0,0,163.2,73C150.34,62.75,152.91,44.26,168,37.92c8.92-3.75,18.44-5,27.9-6.51,1.78-.27,3.55-.11,4.51,1.67a3.76,3.76,0,0,1-.91,4.7c-3.75,3.77-4.53,8.44-4.24,13.47.11,1.86.18,3.73.19,5.59.05,12-7.56,20.15-19.55,20.29-3.17,0-3.71,1-3.69,3.82.12,16.62.16,33.24,0,49.85,0,3.64,1.19,4.11,4.22,3.19,2.59-.79,5.22-1.38,7.39-3.49-3.31-3.12-6.1-6.48-7.33-10.93-1.86-6.75-.69-12.77,4.14-17.9,2.15-2.29,4.53-4.38,6.81-6.55a16,16,0,0,0,5.39-11.32c.07-1.89.55-3.46,2.4-4.13s3.31.39,4.41,1.84c5.8,7.64,11.49,15.38,15.26,24.28,6.2,14.66-4.4,29.65-20.27,28.58a8.52,8.52,0,0,0-6.61,1.91,19.15,19.15,0,0,1-11.35,4.63c-4.36.15-4.87,2.22-4.39,5.62.14,1,.16,2,.24,3.13a258.06,258.06,0,0,1,41-4.84c6.61-.2,6.93.2,6.93,6.61v62.74c0,5.77-.46,6.26-6,6.26H6.42c-2.11,0-4.47.47-5.64-2-1.32-2.77.9-4.25,2.44-5.82,9.24-9.38,20.11-16.48,31.85-22.3,2.08-1,3.54-2,3.21-4.75-.37-3,1.18-5.52,3.24-7.65,11-11.45,13.41-25.79,13.86-40.82.06-2.14-.8-2.56-2.72-2.74a20.87,20.87,0,0,1-10-3.54c-2.52-1.74-4.65-4.19-8.32-3.34-1.32.31-2.39-1-2.82-2.23-.51-1.48-.21-3.16,1.26-3.73,2.42-.93,2-2.75,2-4.55-.05-6.35.69-12.56,3.43-18.39a4.91,4.91,0,0,0,.36-3.21C36.6,84.06,44,75.62,55.37,76.06a32.72,32.72,0,0,1,3.42.34c4.15.63,7.8,1.72,12.5,0,8.45-3,20.6,5.32,21.55,14.4.75,7.06,4.82,10.3,10.42,12.73C105.73,104.64,108.36,105.31,111.26,106.27Zm64.38,107.27c11.59,0,23.17-.06,34.76.05,2.36,0,3.22-.57,3.19-3.08-.13-11.16-.1-22.31,0-33.47,0-2.42-.92-3.73-3.3-4.16-6-1.09-11.67-1.21-16.51,3.29-2.36,2.19-4.65,2.13-6.44-.67a13.67,13.67,0,0,0-24.95,3.79c-.53,2.22-1.89,3.16-4.26,3.39-6.3.63-9.93,4.59-9.8,10.75a6.76,6.76,0,0,1-2.57,5.92,23.27,23.27,0,0,0-6.58,9.88c-1.16,3.05-1,4.5,3,4.4C153.33,213.36,164.49,213.54,175.64,213.54ZM44.76,185.65c7.09-2.93,13.56-4.18,18.24-9.46,7.68-8.65,12.44-18.47,12.89-30.09.15-3.85,1.85-5.13,5.37-4.72a22.29,22.29,0,0,1,10.68,4.1c7.61,5.48,11.75,13.22,13.55,22.14.73,3.63,2.43,4.07,5.25,3.19,3.28-1,1-3.2.78-4.85a19.51,19.51,0,0,0-1.3-4.51c-5.77-14.23-13.92-25.73-31-27C77,134.28,76,132.86,76,130.67c.08-3.86,0-7.74.36-11.58.43-4.38.73-8.85,2.88-12.88.86-1.6,2-2.91,4-2.64a3.32,3.32,0,0,1,3.1,3.49,6.56,6.56,0,0,0,2.43,4.86c9.3,7.68,20.15,9.56,31.78,8.14,1.73-.22,3.6-1.19,3.38-3.24-.26-2.38-2.23-2.92-4.47-3a45.94,45.94,0,0,1-8.94-.89c-11.89-2.83-23.1-6.41-24.6-21.48-.45-4.55-6.35-8.33-11.73-8.44-4.75-.09-4.7,4.23-6.08,7.12A26.19,26.19,0,0,0,66.55,95c-3.61,14-4.17,28.22-4.35,42.56-.21,16.83-3.52,32.71-15.88,45.36A17.35,17.35,0,0,0,44.76,185.65Zm-31.6,27.11c.8.54.91.67,1,.67q39.94.06,79.9.15c2.1,0,2.57-.75,2.78-2.68a54.61,54.61,0,0,1,6.23-20.36c2.37-4.38,5.52-8.2,9.34-12.77C75.58,180.48,42.2,189.82,13.16,212.76ZM165,158.81A136.76,136.76,0,0,0,141,167.08c-2.11.94-3.82,1.78-2.8,4.68a2.91,2.91,0,0,1-1.86,3.84c-1.57.58-3.36.46-4.14-1.18-.88-1.83-1.66-1.84-3.2-.82-13.38,8.79-22.74,20.26-25.07,36.65-.42,2.89.42,3.39,3,3.34,6.73-.14,13.46-.21,20.18,0,2.95.11,4.33-.64,4.83-3.71a25.16,25.16,0,0,1,6.74-13.18,9.74,9.74,0,0,0,2.9-6.32c.37-4.25,2.17-8.61,5.94-10.46,6.16-3,10.34-7.78,14.8-12.67C164.67,164.63,166,162.52,165,158.81ZM83.89,117.22c-.32,2.32-.49,4-.8,5.71-.6,3.27,0,5.2,4,5.72s7.8,2.67,11.19,5.12c10.69,7.7,16.84,18.36,20.14,30.89,1.67,6.33,1.67,6.29,7.29,2.72,1.93-1.22,3.78-1.95,2.77-5.14-3.35-10.59-6.39-21.28-9.41-32-.57-2-1.49-2.67-3.56-2.72C104.15,127.27,93.44,124.88,83.89,117.22Zm112.49,10.2c10.8-1,16.07-9.68,12.09-19a85.12,85.12,0,0,0-9.88-16.55c-1.72,2.39-3.21,4.84-5.08,7s-4.38,4.12-6.52,6.22c-5.3,5.21-5.83,11.79-1.44,17.3,3,3.77,4,3.6,5.8-1a19.6,19.6,0,0,0,1.49-6.66c.08-2.5,1-4.36,3.75-4.14s3.3,2.31,3.19,4.71C199.58,119.43,198.19,123.32,196.38,127.42ZM166,66.15c1.78-4.3,3.62-8.15,6.62-11.3,1.59-1.66,3.44-2.26,5.29-.7s1.53,3.55,0,5.25a23.59,23.59,0,0,0-4.51,7.22c-.92,2.31-.82,3.58,2.34,3.56,7.45-.05,12.76-5,12.86-12.45.06-5-1-10.06.51-14.92,1.07-3.48-.72-3.25-2.9-2.79a88.22,88.22,0,0,0-15.23,4.16C161.5,48,159.1,57.71,166,66.15ZM139.24,64c-4.45,6.4-8.58,12.23-10.91,19-2.83,8.26,3.92,17,12.68,16.65a60,60,0,0,1-2.16-6,43.18,43.18,0,0,1-.93-6.32c-.24-2.28.63-4.12,3.07-4.31,2.67-.2,3.77,1.58,3.8,4.09a22.17,22.17,0,0,0,2.05,8.23c1.15,2.78,2.45,2.49,4.31.57,5.27-5.43,5.24-12.74-.45-18.21C146.49,73.62,141.87,70,139.24,64Zm74.4,95.39h-.11c0-1.72-.08-3.44,0-5.16.12-1.87-.6-2.53-2.49-2.38-12.26,1-24.48,2.15-36.55,4.71-2.52.53-2.18,2-2.22,3.73,0,2.1,1.41,1.75,2.64,1.72a20.06,20.06,0,0,1,14.81,5.69c1.09,1,1.95,1.32,3.33.47,4.33-2.67,9.17-2.8,14.09-2.76,2.07,0,4.66,2,6,.23C214.17,164.17,213.53,161.47,213.64,159.34ZM71.9,176.49c7.95-1.42,15.36-2.82,22.79-4,5-.82,5.12-.73,3.57-5.68-2.19-7-5.47-13.21-12.29-16.82-1.28-.68-3-2-3.43.84C81.28,160.15,77.55,168.5,71.9,176.49ZM61.62,87.32c-6.41,3.31-9.51,8.56-9.63,15.8-.1,6.14-1.35,11.92-4.78,17.1-2.57,3.88-2.3,4.73,2.18,6.32,1.07.38,2.2.6,3.31.88,2,.51,2.69-.24,2.81-2.35C56.26,112.51,57.51,100,61.62,87.32Zm-7.27-4.16c-5.49-.14-9.27,3.57-9.2,8.33,0,.67-.19,1.51.81,1.64.83.11,1.3-.46,1.59-1.13C49,88.69,51.36,86.11,54.35,83.16Zm-9.68,18.9c-2.22,3.89-2.76,8.09-3,13.55A20.67,20.67,0,0,0,44.67,102.06Z"/><path class="cls-1" d="M52,34.64A17.2,17.2,0,1,1,34.64,17.58,17.2,17.2,0,0,1,52,34.64Zm-6.91.08A10.49,10.49,0,0,0,34.62,24.48,10.51,10.51,0,0,0,24.48,34.61,10.48,10.48,0,0,0,34.71,45.06,10.48,10.48,0,0,0,45.06,34.72Z"/><path class="cls-1" d="M69.13,59a17.2,17.2,0,0,1,34.39-.22A17.2,17.2,0,1,1,69.13,59ZM86,69.13a10.29,10.29,0,0,0,.81-20.57A10.29,10.29,0,1,0,86,69.13Z"/><path class="cls-1" d="M31.32,6.38c.1-1.81-.45-3.8,1.33-5.16a3.12,3.12,0,0,1,4.59.35c1.46,1.52,1.43,8.25,0,9.73a3.12,3.12,0,0,1-4.6.27C30.86,10.18,31.42,8.19,31.32,6.38Z"/><path class="cls-1" d="M6.27,31.42a14.43,14.43,0,0,1,3.42,0c1.86.47,3.07,1.83,2.63,3.8-.85,3.78-4,2.82-6.64,2.95-2.44.13-4.77-.12-5.21-3.1-.29-2,.9-3.28,2.81-3.68a14.2,14.2,0,0,1,3,0Z"/><path class="cls-1" d="M63.27,38.13a13.92,13.92,0,0,1-3.42-.05c-1.86-.47-3.07-1.84-2.62-3.8.85-3.79,4-2.81,6.63-3,2.44-.13,4.78.12,5.21,3.1.29,2-.9,3.28-2.81,3.68a14.2,14.2,0,0,1-3,0Z"/><path class="cls-1" d="M38.15,63.2a16.55,16.55,0,0,1,0,3c-.37,1.92-1.67,3.19-3.62,2.88-3.87-.61-3.09-3.79-3.18-6.42s0-5.12,3.3-5.45c2-.2,3.21,1.06,3.52,3a18.76,18.76,0,0,1,0,3Z"/><path class="cls-1" d="M20,16.76A3.57,3.57,0,0,1,16.71,20c-2.15.24-7.17-4.83-7.12-7.11a3,3,0,0,1,3.18-3.28C15,9.46,20.07,14.45,20,16.76Z"/><path class="cls-1" d="M52.77,20a3.6,3.6,0,0,1-3.21-3.31c-.22-1.93,4.53-6.91,6.7-7.07,2-.16,3.32.67,3.65,2.74C60.28,14.71,55.34,20.09,52.77,20Z"/><path class="cls-1" d="M20,53c0,2.21-5.09,7.13-7.31,7A3,3,0,0,1,9.6,56.61c0-2,4.76-7,6.75-7.09A3.83,3.83,0,0,1,20,53Z"/><path class="cls-1" d="M52.84,49.54c1.95-.11,6.91,4.54,7.07,6.72S59,59.81,56.76,60c-2,.13-7-4.53-7.21-6.61A3.77,3.77,0,0,1,52.84,49.54Z"/></g></g></svg>