<svg id="Capa_1" data-name="Capa 1" xmlns="http://www.w3.org/2000/svg" viewBox="0 0 232 260"><defs><style>.cls-1{fill:#6c2910;}.cls-2{fill:#fff;}.cls-3{fill:#c88a5e;}</style></defs><circle class="cls-1" cx="112.28" cy="219.81" r="28.85"/><path class="cls-2" d="M115.32,209.15V229h-4.59V214.32l-4.52,1.32v-3.48l8.69-3Z"/><path class="cls-3" d="M124.23,17.68a12.39,12.39,0,0,1,9.82-1,11,11,0,0,1,7.46,9.61c.17,3.52.15,7.05,0,10.56a10.89,10.89,0,0,1-3.68,7.44c.79.92,1.73.51,2.52.51,9.3,0,18.59,0,27.89.08a6.45,6.45,0,0,0,5.35-2.24c2.44-2.67,8.26-3.12,11.87-1.16a8.76,8.76,0,0,1,4.36,9.69c-1,4.23-4.17,6.81-9,6.91-5.67.11-11.35,0-17,.06-1.69,0-2.43-.36-2.44-2.26s.59-2.3,2.36-2.27c5.47.11,10.95,0,16.43.06,2.53,0,4.5-.77,5.26-3.27a3.8,3.8,0,0,0-2.16-4.91c-2.22-.92-4.91-1.73-6.72.58-2.21,2.83-4.93,3.28-8.23,3.21-7.92-.18-15.85-.1-23.78,0-.94,0-3-.76-2.7.82.2,1.29.49,3.65,3.05,3.58,3.32-.09,6.65.07,10,0,1.71-.06,2.17.56,2.13,2.18s-.25,2.4-2.07,2.34c-3-.11-6.06,0-9.09,0A2,2,0,0,0,143.42,60a10.48,10.48,0,0,1-4.36,6.73c-1.81,1.25-2.57,3-3.51,4.82-5.48,10.85-6.12,22.69-7.44,34.41-1.49,13.3-2.91,26.61-4.47,39.91-.21,1.74-.08,2.32,1.89,2.45a11.2,11.2,0,0,1,10.82,11.56c0,1.37-.38,1.88-1.81,1.87q-12.18-.08-24.37,0c-1.62,0-2-.65-2-2.09,0-11.84.06-23.68,0-35.52,0-1.94.86-2.21,2.5-2.25s2.16.66,2.11,2.26c-.1,2.93.06,5.87-.06,8.8-.06,1.69.29,2.39,2.22,2.39,5.6,0,5.46.1,6-5.49,1.41-13.31,2.88-26.62,4.52-39.9.34-2.77.08-4.45-3-4.91a17.3,17.3,0,0,1-4.46-1.37C107.75,79.07,96.84,80,86,80.11c-2.08,0-3.43-.47-4.49-2.35-1.4-2.46-3.24-4.66-4.65-7.11-1.14-2-2.11-2.41-4.33-1.3-2.49,1.24-3.38,2.06-1.52,4.73,2.5,3.59,4.57,7.5,6.72,11.33a13.41,13.41,0,0,0,10.57,7c9.87,1.36,19.73,2.81,29.6,4.15,1.47.2,2.2.66,1.74,2.22-.36,1.19-.07,3-2.33,2.29a5.86,5.86,0,0,0-.85-.21c-3.69-.6-3.69-.6-3.7,3.12s-.06,7.63,0,11.44c0,1.63-.44,2.25-2.14,2.23s-2.52-.34-2.47-2.26c.11-4.5,0-9,.07-13.5,0-1.71-.47-2.31-2.25-2.53-6.3-.78-12.56-1.89-18.86-2.69a17,17,0,0,1-13.12-8.76c-4.75-8.09-9.57-16.13-14.2-24.29-1.12-2-2.1-2.48-4.33-1.73-6.06,2-10.93-1.4-11.53-7.74-.15-1.56.22-2.28,1.68-2.8,4-1.44,8-3.05,12-4.55,2.91-1.09,5.68-2.18,8.08-4.44C69.16,39.15,75.85,39.68,79,43a5.7,5.7,0,0,0,4.6,1.9c10.86-.09,21.72,0,32.58-.05a4.17,4.17,0,0,0,4.22-4.32c-.08-1.18-.43-2.3-2.09-2.21s-3.34-.09-5,.05c-2,.17-2.74-.53-2.7-2.62.13-5.38,0-10.76.05-16.14,0-4.63,2-7.53,5.56-8.14S122.64,12.94,124.23,17.68Zm15,39.36c.22-3.89-3.07-5.93-5-8.75-1.15-1.67-2.62-1.18-4.13-1.31a8.83,8.83,0,0,1-4.19-1.11c-2.2-1.57-2.68-.27-3.39,1.41-1.69,4-4.13,7.34-8.06,9.34a2.76,2.76,0,0,0-1.58,3.06,30.48,30.48,0,0,1-2.64,15.13c-.75,1.54,0,1.87,1.15,2.21,4.56,1.4,9.14,2.76,13.69,4.21,1.37.44,2,.26,2.57-1.26,1.39-4,3.07-8,4.49-12a6.92,6.92,0,0,1,3.17-4A7.51,7.51,0,0,0,139.27,57ZM74.14,58.59c3.6,5.4,7.16,10.71,10.69,16,.67,1,1.67.84,2.62.84,5.17,0,10.34-.07,15.51,0a2.77,2.77,0,0,0,3-2.07,36.62,36.62,0,0,0,2.68-12.19c.16-2.72-.87-3.23-3.33-3.19-9.07.13-18.14,0-27.21.07C76.88,58.14,75.6,57.83,74.14,58.59Zm42.08-9.36h-3.91c-9.79,0-19.57-.08-29.35.05-2.74,0-4.86-.51-6.68-2.7-1.66-2-5.25-2.36-7.44-1.08a2.91,2.91,0,0,0-1.66,1.94c-.24,1.78,4,6.22,5.86,6.22,11.74,0,23.48,0,35.22,0C111.5,53.7,113.77,52.18,116.22,49.23Zm5.59,108c1.86,0,3.72.07,5.57,0,1.2-.06,3.14.64,3.42-.57.37-1.63-1.49-2.47-2.84-3.26a5.59,5.59,0,0,0-2.84-.58c-1.56,0-3.13-.07-4.69,0-1.4.07-2-.44-1.79-1.88.35-2.81.45-5.66,1-8.43.46-2.34-.29-3.05-2.49-2.77a9.37,9.37,0,0,1-2.05,0c-1.76-.2-2.4.46-2.35,2.29.13,4.4.09,8.8,0,13.2,0,1.51.45,2.11,2,2C117.11,157.17,119.46,157.23,121.81,157.24ZM59,56.08c1.58-.34,1.89.57,2.33,1.31L65,63.69c2.14,3.63,2.1,3.54,5.79,1.72,1.62-.8,1.57-1.5.65-2.82-2.62-3.77-5.2-7.57-7.66-11.43a2,2,0,0,0-2.85-.9c-3.34,1.35-6.72,2.61-10.07,3.92-.77.3-2,.28-2,1.34s1,1.81,2.05,2.24a5.12,5.12,0,0,0,3.71-.22Zm78-29.66c-3.42,2.44-6,5.53-10.08,5.07-2.55-.28-3.3.79-3,3.12.12.77,0,1.57.11,2.33a6.55,6.55,0,0,0,6.8,5.57A6.26,6.26,0,0,0,137,36.58C137.13,33.39,137,30.18,137,26.42Zm-17.45-.92h-.05c0-2.24,0-4.48,0-6.73,0-1.49-.35-2.84-2.2-2.79s-2.14,1.34-2.13,2.87c0,4.09,0,8.19,0,12.29,0,1.6,0,2.69,2.21,2.69s2.22-1.22,2.19-2.77C119.51,29.21,119.54,27.36,119.54,25.5Zm6.25,1.72c3.86,0,6-2.17,8-4.41,1-1.07-.18-1.49-.95-1.82a6.56,6.56,0,0,0-8.25,3.51C123.79,26.27,123.65,27.6,125.79,27.22Z"/><path class="cls-3" d="M82.26,109.22c0,1.26,0,2.53,0,3.79,0,1.53.18,2.8-2.13,2.81s-2.5-1.09-2.44-2.88c.08-2.91.1-5.84,0-8.75-.08-2,1.24-1.73,2.5-1.81s2.21.22,2.09,1.88S82.26,107.57,82.26,109.22Z"/><path class="cls-3" d="M62.38,88.94c1.27,0,2.54.06,3.8,0,1.63-.09,2.73,0,2.69,2.24,0,2-.7,2.48-2.54,2.4-2.73-.13-5.47-.12-8.2,0-1.79.07-2.62-.34-2.62-2.4s1.14-2.31,2.77-2.23C59.64,89,61,88.94,62.38,88.94Z"/><path class="cls-3" d="M73.43,100.85c-.32.35-.61.72-1,1.05-2.33,2.35-4.77,4.61-7,7.07-1.34,1.48-1.91.35-2.71-.41s-2-1.57-.42-3c2.38-2.15,4.56-4.53,6.86-6.77.49-.48,1-1.52,1.87-.67A7.72,7.72,0,0,1,73.43,100.85Z"/></svg>