<svg xmlns="http://www.w3.org/2000/svg" viewBox="0 0 283.27 248.21"><defs><style>.cls-1{isolation:isolate;}.cls-2{fill:#ede6c9;}.cls-3{fill:#8d5534;}.cls-4{fill:#6c4d24;}.cls-5{fill:#047da8;}.cls-6{fill:#1b1c26;}.cls-7{fill:#d7cf8e;}.cls-8{fill:#ebdfd9;}.cls-15,.cls-8{mix-blend-mode:multiply;}.cls-9{fill:#72220f;}.cls-10{fill:#fff;}.cls-11{fill:#fbbf03;}.cls-12{fill:#30383b;}.cls-13{fill:#7e3b1a;}.cls-14{fill:#c17845;}.cls-15{fill:#ececec;}.cls-16{fill:#f9bb8d;}.cls-17{fill:#df986e;}</style></defs><g class="cls-1"><g id="Capa_1" data-name="Capa 1"><path class="cls-2" d="M238.55,180.65c0,13.73-3,24.32-7,32.3-7.5,15.09-18.37,20.83-18.37,20.83H73.26A68.74,68.74,0,0,1,63.5,221.1c-.55-.87-1.09-1.78-1.63-2.73s-1.18-2.1-1.76-3.22A94.64,94.64,0,0,1,49.45,171.1c0-46.71,71.14-72.51,116.88-72.51S238.55,129.38,238.55,180.65Z"/><path class="cls-3" d="M163,233.24a181,181,0,0,0,5.26-28.5l9.39-.35a221.83,221.83,0,0,1-7,28.85Z"/><path class="cls-4" d="M175.32,174.69c-4.44,1.52-6.4,8.41-7.66,17.63s-3.46,31.55-3.46,31.55a71.59,71.59,0,0,0,10.27.24C179.25,207,189.66,169.8,175.32,174.69Z"/><path class="cls-5" d="M183.09,233.24l3.53-3.11,5.54,3.11Z"/><path class="cls-6" d="M200.33,159c-25.1,4.38-33.18-25.41-33.18-25.41s-4-4.05-3.51-14c.5-9.56,7.75-19.79,21.28-20.81,20.88-1.56,32.39,10.28,33,28.55C218.52,143.05,209,157.47,200.33,159Z"/><path class="cls-7" d="M213.52,233.24H172.05l1-5.73L171.15,209s-3.51-4.18-3.49-8.54c1.91-8.14,6-10.75,7.66-25.77,4.62-1.64,8.57-3.29,8.57-3.29l10,5.73,10-5.73a27.07,27.07,0,0,1,7.58,1.71c4.62,1.65,4.89,14.82,4.89,27.56,0,4.88-4.78,26.84-4.78,26.84Z"/><path class="cls-3" d="M183.89,171.4c-2.67,5.56-15.93,18.85-.12,19.74,21.29,1.2,19.06-15.26,20-19.74-3.77-.66-5.23-9.85-2.37-15.87s-18.22-1.28-15.6,1.58S187.69,170.74,183.89,171.4Z"/><path class="cls-8" d="M186.15,169.32c6.13-2.37,9.31-9.87,9.28-16.57-5,.56-11.05,2.75-9.58,4.36C187.83,159.28,187.87,165.89,186.15,169.32Z"/><path class="cls-3" d="M209.5,117.4l-1.06,25.79c0,10-16.7,22.56-24,22.56-6.12,0-12.79-9.77-15.34-19.48-2.77-10.56-1.74-24.2-1.27-28.87Z"/><path class="cls-3" d="M203.87,139.57c0,3.06,1.18,5.22,4.49,5.55,4.85.46,5.72-3.64,5.67-6.19a5.08,5.08,0,0,0-4.68-4.84C206,134.31,203.87,136.51,203.87,139.57Z"/><path class="cls-6" d="M193.66,135a1.93,1.93,0,1,1-1.92-1.92A1.92,1.92,0,0,1,193.66,135Z"/><path class="cls-6" d="M175.24,135a1.93,1.93,0,1,1-1.93-1.92A1.92,1.92,0,0,1,175.24,135Z"/><path class="cls-9" d="M187.53,150c0,5.34-3.93,6.39-5.94,6.39s-6.62-1-6.62-6.39Z"/><path class="cls-9" d="M187.45,150a18,18,0,0,0-6.2-1.48A17.68,17.68,0,0,0,175,150Z"/><path class="cls-3" d="M218.54,233.24a179.84,179.84,0,0,0-1.74-28.73l9-2.59a222.88,222.88,0,0,1,.07,31.32Z"/><path class="cls-4" d="M211.4,173.11c-3.18-.42.54,19.88,3.29,24.29.28,10.15,2.75,26.66,2.75,26.66a71.61,71.61,0,0,0,10-2.23C228,204.1,226.42,175.14,211.4,173.11Z"/><path class="cls-8" d="M181.22,141.45a2.49,2.49,0,0,0-2.44,1.58,2,2,0,0,1-.09-.55,2.58,2.58,0,0,1,5.08,0,1.68,1.68,0,0,1-.1.55A2.5,2.5,0,0,0,181.22,141.45Z"/><path class="cls-8" d="M211.79,139.78c0,1.24-1.56,3-2.39,2.46s1-3.48-1.89-2.87c0,1,.52,3,2.14,3.27s3-1.06,3-3a3.36,3.36,0,0,0-3.71-3.51A3.56,3.56,0,0,1,211.79,139.78Z"/><path class="cls-6" d="M169.51,130.62c.11.39.89-.6,2.72-1.2a3.87,3.87,0,0,1,2.76.28c.69.29,1-1.37.62-1.67a4.3,4.3,0,0,0-3.49-.27C170.32,128.35,169.39,130.23,169.51,130.62Z"/><path class="cls-6" d="M196.37,130.52c-.12.4-1.18-.29-3-.88a3.83,3.83,0,0,0-2.75.28c-.7.29-1-1.38-.63-1.68a4.35,4.35,0,0,1,3.49-.27C195.26,128.56,196.49,130.13,196.37,130.52Z"/><path class="cls-8" d="M209.57,117.4c2.55,12.18-3.78,23.33-3.78,23.33.63-5.76-2.66-13.41-6.8-16-7.47-4.7-20.3-6.26-27.6-.81-3.1,2.31-4.16,9.65-4.24,9.65l.79-16.16S207.34,114.61,209.57,117.4Z"/><path class="cls-6" d="M166.6,113.82c-1.12,5.76-.71,14.52.69,17.59.37-8.14,3.08-13.12,14.9-13.12s21.53,3,23.64,14c2,2.76,0,8.41,0,8.41s2.63-2.87,4.7-10c1.21-4.21.68-11.53,0-16.86Z"/><path class="cls-6" d="M202.71,104.21s7,13.52,13.77,16c9.4,3.47,14.28-9,9.07-20.45-5-11-15.92-12.74-20-9.07S202.71,104.21,202.71,104.21Z"/><path class="cls-10" d="M187.28,150.25a6,6,0,0,1-5.72,4.59c-2.87,0-5.7-1.35-6.39-4.59Z"/><path class="cls-11" d="M207.42,145.23a1.92,1.92,0,1,0,1.92-1.92A1.92,1.92,0,0,0,207.42,145.23Z"/><path class="cls-12" d="M110.57,232,107,228.9,101.49,232Z"/><path class="cls-13" d="M80.53,177.68c9.74,6.21,32.68,5.56,40.62.78,15.25-9.16,5.73-31,6.79-39s4.11-13.24,1.87-23.33c-2.11-9.49-7.6-17-21.07-18.67-22.59-2.72-33.17,9.32-31.92,28.28C78,142.88,66.93,169,80.53,177.68Z"/><path class="cls-14" d="M126.76,182.55c-.48-2.59-4-7.69-7.19-8.64-1.31-.47,1.06,38,1.06,38l-1.06,12.91S133,227,133.84,216.2C134.9,203,127.23,185.14,126.76,182.55Z"/><path class="cls-15" d="M123.44,215.53c8.24-4.72,4-10,2-17.05a89.35,89.35,0,0,0-4.2-10.85l-.58,24.26-.08,1C120.75,212.84,123.25,215.65,123.44,215.53Z"/><path class="cls-14" d="M79.26,232h41.46l1.79-16.46S126,211.37,126,207c-1.91-8.14-4.8-18.08-6.43-33.1-4.62-1.65-9.81-3.74-9.81-3.74l-10,5.73-10-5.73a27.37,27.37,0,0,0-7.58,1.72c-4.62,1.64-3.81,26.23-3.81,39C78.45,215.05,79.08,228.29,79.26,232Z"/><path class="cls-15" d="M106.34,207.33c-5.68,2.9-9.56,1.35-15.16.23-5-1-7.83,2.46-12.74,2.06,0,.42,0,.85,0,1.25,0,3.14,1.38,12,.65,17.85,10,.94,20.64-5.73,20.64-5.73s15.89,5.74,21,4.22l1.77-11.66a6,6,0,0,0,2.9-3.73C118.39,212.26,114.05,203.4,106.34,207.33Z"/><path class="cls-16" d="M109.76,170.17c2.68,5.56,10.46,13.78-2.94,13.41-17.27-.47-16-8.93-17-13.41,3.77-.66,5.23-9.85,2.36-15.86s18.23-1.29,15.6,1.58S106,169.51,109.76,170.17Z"/><path class="cls-8" d="M107.51,168.09c-6.13-2.37-9.31-9.86-9.28-16.57,5,.56,11,2.76,9.57,4.37C105.83,158.05,105.79,164.66,107.51,168.09Z"/><path class="cls-16" d="M84.16,116.17l1,25.79c0,10,16.71,22.57,24,22.57,6.11,0,12.79-9.78,15.34-19.49,2.77-10.55,1.74-24.2,1.27-28.87Z"/><path class="cls-16" d="M89.79,138.34c0,3.07-1.18,5.23-4.49,5.55-4.85.47-5.72-3.64-5.67-6.19.06-2.95,2.89-4.95,4.67-4.83C87.63,133.09,89.79,135.29,89.79,138.34Z"/><path class="cls-6" d="M100,133.73a1.92,1.92,0,1,0,1.92-1.92A1.92,1.92,0,0,0,100,133.73Z"/><path class="cls-6" d="M118.42,133.73a1.93,1.93,0,1,0,1.93-1.92A1.92,1.92,0,0,0,118.42,133.73Z"/><path class="cls-10" d="M106.38,148.76c0,4.71,3.78,5.64,5.72,5.64s6.39-.93,6.39-5.64Z"/><path class="cls-16" d="M119.32,214.57c-2.28.69-9.24.8-9.24.8s-4.8-3.32-2.57-5.2a11.36,11.36,0,0,0,1.59-3.23,6.63,6.63,0,0,1,4.51-3.94c1.34-.19,3.08,1.3,3.08,1.3s1-.12,1.36.38a4.18,4.18,0,0,1,.64,2.64s1.22-.28,1.1,2.22c.56,1.17,1.28,1.1.36,3C120.94,213.55,119.88,214.4,119.32,214.57Z"/><polygon class="cls-17" points="116.69 204.3 112.97 205.4 113.3 204.26 114.35 204.74 116.69 204.3"/><path class="cls-14" d="M82.26,171.89c3.14-.67-1.21,18.3-3.84,22.79-4.78,7.43.6,17.63.6,17.63s-1.51,12.76-6.7,10.38C58,215.12,64.24,175.73,82.26,171.89Z"/><path class="cls-14" d="M107.83,208.31l4.09,7.93s-25.5,12.54-39.6,6.45c-7.11-3.07-3.6-14.13,5.19-11.21C85.8,214.25,107.83,208.31,107.83,208.31Z"/><path class="cls-15" d="M89.26,217.88c.64.05,8.66,3.48,9.43,3.49a100.85,100.85,0,0,0,13.23-5.13l-2.94-5.7a42.54,42.54,0,0,1-7-.84c-5.82,1.28-14.76,2.9-20.88,2.43C81.11,216.33,83.65,217.45,89.26,217.88Z"/><path class="cls-8" d="M112.43,140.22a2.5,2.5,0,0,1,2.45,1.58,1.92,1.92,0,0,0,.09-.55,2.58,2.58,0,0,0-5.08,0,1.63,1.63,0,0,0,.1.55A2.49,2.49,0,0,1,112.43,140.22Z"/><path class="cls-8" d="M81.87,138.55c0,1.24,1.55,3,2.39,2.46s-1.05-3.48,1.89-2.87c0,1-.52,3-2.14,3.27s-3-1.06-3-3a3.36,3.36,0,0,1,3.71-3.52A3.56,3.56,0,0,0,81.87,138.55Z"/><path class="cls-6" d="M124.15,129.39c-.11.39-.89-.6-2.72-1.2a3.81,3.81,0,0,0-2.76.29c-.69.28-1-1.38-.63-1.68a4.34,4.34,0,0,1,3.5-.27C123.33,127.12,124.27,129,124.15,129.39Z"/><path class="cls-6" d="M97.29,129.3c.12.39,1.18-.29,3-.89a3.83,3.83,0,0,1,2.75.28c.7.29,1-1.37.63-1.67a4.34,4.34,0,0,0-3.49-.28C98.4,127.34,97.17,128.91,97.29,129.3Z"/><path class="cls-8" d="M84.09,116.17,87,135.39c2-3.29,5.84-5.24,10.42-6.93,7.24-2.68,11.3-10.77,16.69-7.11,3.34-1.74,6.72,1.68,8.42,3.19,2.89,2.56,3.88,7.79,4,7.79l-.79-16.16Z"/><path class="cls-13" d="M127.06,112.59c1.12,5.77.7,14.52-.69,17.59-1.79-7.67-7.26-14.7-11.51-11.16-6.91-6.88-12,7.12-27,12.07-2,2.76,0,8.41,0,8.41s-2.62-2.87-4.69-10c-1.22-4.22-.69-11.53,0-16.87Z"/><path class="cls-16" d="M83.76,215.41C86,216.06,93,216,93,216s4.74-3.4,2.48-5.24a11.17,11.17,0,0,1-1.65-3.2,6.55,6.55,0,0,0-4.59-3.85c-1.34-.18-3,1.35-3,1.35s-1-.11-1.36.4a4.24,4.24,0,0,0-.59,2.65s-1.22-.26-1,2.24c-.54,1.18-1.27,1.12-.31,3C82.12,214.42,83.19,215.25,83.76,215.41Z"/><polygon class="cls-17" points="86.2 205.1 89.94 206.13 89.59 204.99 88.55 205.49 86.2 205.1"/><path class="cls-14" d="M93.89,209.51l-4,8s25.72,12.08,39.71,5.74c7.06-3.2,3.34-14.2-5.39-11.11C116,215.06,93.89,209.51,93.89,209.51Z"/><path class="cls-14" d="M156.22,17.26c-9.52-11-72.35-11.61-80.68,0s-7.75,27.63,0,37.75c1.85,2.43,6.93,4.31,13.69,5.62L79,95.34l26.39-32.82C126,63.74,150.58,61.36,156.22,55A28.5,28.5,0,0,0,156.22,17.26Z"/><path class="cls-10" d="M97.6,36.75a4.7,4.7,0,1,1-4.7-4.7A4.69,4.69,0,0,1,97.6,36.75Z"/><path class="cls-10" d="M118.45,36.75a4.7,4.7,0,1,1-4.7-4.7A4.69,4.69,0,0,1,118.45,36.75Z"/><path class="cls-10" d="M139.31,36.75a4.7,4.7,0,1,1-4.7-4.7A4.7,4.7,0,0,1,139.31,36.75Z"/><path class="cls-4" d="M131.78,40.54c9.53-11,72.35-11.61,80.68,0s7.75,27.63,0,37.75c-1.85,2.43-6.92,4.31-13.69,5.62l3.57,12.33L182.65,85.8C162,87,137.42,84.64,131.78,78.29A28.5,28.5,0,0,1,131.78,40.54Z"/><path class="cls-7" d="M156.29,58.94a4.7,4.7,0,1,1-4.7-4.7A4.69,4.69,0,0,1,156.29,58.94Z"/><path class="cls-7" d="M177.15,58.94a4.7,4.7,0,1,1-4.7-4.7A4.7,4.7,0,0,1,177.15,58.94Z"/><path class="cls-7" d="M198,58.94a4.7,4.7,0,1,1-4.7-4.7A4.69,4.69,0,0,1,198,58.94Z"/></g></g></svg>