<svg xmlns="http://www.w3.org/2000/svg" viewBox="0 0 154.12 236.53"><defs><style>.cls-1{fill:#6c2910;}.cls-2{fill:#fff;}.cls-3{fill:#c88a5e;}</style></defs><g id="Capa_2" data-name="Capa 2"><g id="Capa_1-2" data-name="Capa 1"><circle class="cls-1" cx="77.22" cy="207.68" r="28.85"/><path class="cls-2" d="M74.28,209.39V207.1h3a10.41,10.41,0,0,1,2.71.34,6.27,6.27,0,0,1,2.1,1A4.54,4.54,0,0,1,83.46,210a5,5,0,0,1,.47,2.19,5.2,5.2,0,0,1-2.12,4.32,7.3,7.3,0,0,1-2.36,1.14,10.8,10.8,0,0,1-2.92.38,9.61,9.61,0,0,1-2.48-.33,7.49,7.49,0,0,1-2.26-1,5.45,5.45,0,0,1-1.64-1.8,5.26,5.26,0,0,1-.62-2.62h4.6a2,2,0,0,0,.35,1.14,2.45,2.45,0,0,0,.93.81,2.85,2.85,0,0,0,1.27.29,3,3,0,0,0,1.43-.31,2.31,2.31,0,0,0,.91-.87,2.37,2.37,0,0,0,.31-1.21,3.36,3.36,0,0,0-.33-1.61,2,2,0,0,0-1-.87,3.86,3.86,0,0,0-1.52-.27Zm0-3.42h2.23a2.89,2.89,0,0,0,1.41-.3,2,2,0,0,0,.83-.87,3.11,3.11,0,0,0,.27-1.34,2.58,2.58,0,0,0-.25-1.11,2.06,2.06,0,0,0-.77-.81,2.87,2.87,0,0,0-2.38-.08,2.11,2.11,0,0,0-.85.64,1.47,1.47,0,0,0-.34,1h-4.6a4.57,4.57,0,0,1,.93-2.89,6,6,0,0,1,2.47-1.85,8.41,8.41,0,0,1,3.3-.65,9.82,9.82,0,0,1,3.7.65,5.43,5.43,0,0,1,2.48,1.9,5.22,5.22,0,0,1,.9,3.11,4,4,0,0,1-.48,1.92,5,5,0,0,1-1.33,1.58,6.89,6.89,0,0,1-2,1.07,7.81,7.81,0,0,1-2.51.39h-3Z"/><path class="cls-3" d="M22.1,37.35q10.6-11.07,21.22-22.13A20.26,20.26,0,0,1,46,12.78a5.92,5.92,0,0,1,8,.41c3.84,3.35,4.77,8.37,2.46,13.41a19.27,19.27,0,0,1-3.1,4.77c-1.2,1.34-2.45,2.62-3.85,4.11,1.8.8,3.49.4,5.11.42,5.31.06,10.63-.07,15.94.07,2,.05,2.71-.76,2.91-2.52a22.62,22.62,0,0,0-1.63-11.17,2.94,2.94,0,0,0-2.18-1.78C64,18.65,61.12,14.1,62,8.5,62.8,3.56,67.27,0,72.85,0H124c5.62,0,10,3.5,10.83,8.47.9,5.64-1.89,10.2-7.54,12a3.39,3.39,0,0,0-2.41,2.35,23.07,23.07,0,0,0-1.52,9.12c.26,4.89,1.18,6.1,5.85,7.45,4.44,1.28,8.78,2.8,12.58,5.52,3.37,2.4,5.75,5.38,5,9.84-.23,1.31.52,1.73,1.31,2.36,6.84,5.45,6.48,12-.91,16.78a34.89,34.89,0,0,1-7.61,3.54c-1,.34-1.87.65-2.07,1.85-1.2,7.33-4.32,13.87-8.9,20.48,5.17,0,9.81,0,14.46,0,5.26,0,8.7,2.11,10.34,6.2,2.71,6.75-2.24,13.66-9.94,13.72-10.33.08-20.66.09-31,0-2.28,0-3.2.47-3,2.94a87.12,87.12,0,0,1,0,10.22c-.12,2.33.54,3.25,3,3,3.87-.35,7.15.93,9.17,4.45,2.14,3.72,1.25,7.82,1,11.76-.08,1.33-1.52,2-3,2-14.13,0-28.27,0-42.41,0-2,0-3.12-1.2-3.15-3.23,0-2.31-.14-4.63,0-6.92.37-4.63,4.18-7.87,9.26-8.06,4.06-.16,4.06-.16,4.06-4.3,0-3.11-.11-6.22,0-9.32.1-2-.54-2.55-2.52-2.54q-15.78.14-31.58,0c-7.56-.07-12.51-6.86-9.88-13.52a9.29,9.29,0,0,1,9-6.36c5-.11,10-.1,15-.15.07,0,.14-.12.35-.31-1.44-2.52-3-5.06-4.35-7.66-.71-1.31-1.86-1-2.89-1-5.72,0-11.44-.09-17.15,0-5.23.09-9.68-1.47-12.91-5.73-2.07-2.72-4.94-2.15-7.71-2.11-1.14,0-1.05,1-1.35,1.69a6.09,6.09,0,0,1-6.15,3.92c-3,0-6,0-9,0C2.5,88.38.05,86,0,82.22Q0,61,0,39.81C0,36,2.3,33.7,6.19,33.53c2.5-.12,5-.05,7.52-.05C18.11,33.49,18.36,33.6,22.1,37.35ZM131.09,80c-1.13.18-1.81.31-2.49.4-2.36.3-5.45,1.83-6.25-1.77s2.49-3.61,4.9-4.12c5-1,5-1,4.57-6.21a1.51,1.51,0,0,1,0-.3c.11-1.6-.53-1.76-2-1.32a110,110,0,0,1-14.38,3c-2.16.34-4-.07-4.42-2.41s1.18-3.27,3.38-3.6q6.66-1,13.23-2.63c2.44-.6,2.46-1.58,1.62-3.51a61.44,61.44,0,0,0-6.2-10.61c-5.1-7.36-7.56-15.2-4.56-24.09.39-1.14.35-1.82-1.22-1.82q-18.81.07-37.6,0c-1.41,0-1.82.45-1.36,1.74A24.93,24.93,0,0,1,79.42,34c-.17,1.46.39,1.83,1.75,2.06,5.38.95,8.34,4.51,8,9.82-.13,1.95.24,2.55,2.28,2.64,4.55.19,7.78,2.62,9,6.3,1.24,3.86.11,7.55-3.42,10.4a2.5,2.5,0,0,0-1,3,9.08,9.08,0,0,1-8.79,11.31c-1.9.07-3.81.09-5.71,0-1.59-.07-2.22.2-2.15,2.12.18,4.58-2.58,7.78-7,8.8-.71.16-1.61-.07-2.13.79a38.76,38.76,0,0,0,4,6,5.27,5.27,0,0,0,5.31,2.55,37.54,37.54,0,0,1,5.71,0,2.65,2.65,0,0,1,2.72,2.65,2.77,2.77,0,0,1-2.24,3.12,11.37,11.37,0,0,1-3,.23c-9.52,0-19,0-28.58,0-3.45,0-5.32,1.44-5.24,3.94.07,2.33,2,3.86,5.15,3.86q44.52,0,89,0c3.11,0,5-1.61,5-4s-1.77-3.79-5.07-3.79q-14.28,0-28.57,0a16,16,0,0,1-2.4-.06c-1.78-.26-3.06-1.18-3-3.12s1.27-2.85,3.16-2.87c2.2,0,4.41-.06,6.61,0a3.34,3.34,0,0,0,2.89-1.23A42,42,0,0,0,131.09,80ZM21.77,59.85h0c0,4.82.07,9.63,0,14.44,0,1.81.48,2.5,2.38,2.39,4.65-.25,8.67,1,11.57,5A7.37,7.37,0,0,0,42,84.57c9.23,0,18.46,0,27.68,0,1.76,0,3.49-.42,3.5-2.43s-1.75-2.63-3.65-2.61c-2.6,0-5.21,0-7.82,0a2.63,2.63,0,0,1-2.79-2.57,2.83,2.83,0,0,1,2.4-3.29A12,12,0,0,1,64,73.49H86.58c2.17,0,3.53-1.09,3.56-3.2s-1.36-3-3.3-3.2c-1-.08-2,0-3,0-6,0-12,0-18,0-1.85,0-3.1-.92-3.16-2.88s1.21-2.86,3-3.11a20.25,20.25,0,0,1,2.7-.06l22.87,0c2.14,0,3.5-1,3.49-3.22,0-2.06-1.32-3-3.3-3.13-1,0-2,0-3,0H67.61c-2,0-3.7-.75-3.72-3s1.63-3,3.66-3.08c.9,0,1.8,0,2.7,0,3.21,0,6.42,0,9.63,0,2-.05,3.25-1,3.25-3.14S82,42.11,79.93,42c-.9,0-1.81,0-2.71,0H45c-2.12,0-4.09-.37-5-2.53s.35-3.78,1.85-5.25c2.44-2.39,4.93-4.73,7.17-7.29,1.64-1.88,3-4.06,2.31-6.82-.66-2.49-1.48-2.73-3.29-1C42.76,24.36,37.5,29.59,32.2,34.78c-3.45,3.37-8.38,6.11-10,10.19C20.42,49.28,21.77,54.84,21.77,59.85ZM98.7,6h-25C69.9,6,67.91,7.62,68,10.56s2,4.36,5.67,4.37q24.81,0,49.61,0c3.64,0,5.59-1.61,5.62-4.42S126.94,6,123.05,6ZM6,60.79V75.5c0,7,0,6.9,7,7,2.4,0,2.75-.81,2.73-2.92-.1-11-.05-22-.05-33,0-7.11,0-7-7-7-2,0-2.76.5-2.71,2.65C6.13,48.38,6,54.58,6,60.79ZM98.37,148h15.32c3,0,4.1-1.82,2.75-4.48-.83-1.64-2.33-1.66-3.87-1.66H84.34a7.27,7.27,0,0,0-2.09.16c-2.4.74-2.25,2.75-2.19,4.68.07,2.12,1.74,1.23,2.69,1.25C88,148.08,93.17,148,98.37,148Zm5-20.26q0-3.15,0-6.32c0-.82,0-1.72-1.14-1.7-2.79,0-6-.94-8.25.42-1.49.88-.36,3.93-.52,6-.06.89,0,1.8,0,2.7,0,7.08,0,7,7.18,7,2.36,0,3-.83,2.78-3C103.27,131.19,103.4,129.48,103.4,127.77Zm34.07-63.19c.76,2.4-.51,5.39,1.33,6.23,1.63.74,3.78-1.27,5.55-2.37a4.65,4.65,0,0,0,.71-.55c1.11-1,2.44-2.07,1.43-3.78S144,60.68,142.4,61.2C140.62,61.78,138.3,62.61,137.47,64.58Zm-7.42-18.46a66.38,66.38,0,0,1,5.37,10.53c.13.33.53.88.67.84a7.91,7.91,0,0,0,4.24-3.08c.93-1.22.44-2.32-.47-3.2C137.24,48.67,134,47.27,130.05,46.12Z"/><path class="cls-3" d="M105.74,83.5c-2,.21-3.7-.47-4-2.64s1.16-3.21,3.29-3.35,4-.38,6-.49a2.77,2.77,0,0,1,3.1,2.62A2.88,2.88,0,0,1,111.41,83C109.54,83.26,107.63,83.33,105.74,83.5Z"/><path class="cls-3" d="M101.43,102.6c-.17,2-1.26,3.16-3.06,3.11a2.74,2.74,0,0,1-2.86-3.11,2.66,2.66,0,0,1,2.84-2.79C100.3,99.77,101.17,101,101.43,102.6Z"/></g></g></svg>