<svg xmlns="http://www.w3.org/2000/svg" viewBox="0 0 86.74 144.65"><defs><style>.cls-1{fill:#fff;}.cls-2{fill:#be1542;}</style></defs><g id="Capa_2" data-name="Capa 2"><g id="Capa_1-2" data-name="Capa 1"><path class="cls-1" d="M.75,109.25A43.37,43.37,0,1,0,46.7,58a9.76,9.76,0,0,1-8.94-7.9l0-.19a9.72,9.72,0,0,1,3.73-9.75A22.16,22.16,0,1,0,23,43.59a9.7,9.7,0,0,1,7.1,7.6l.06.31a9.75,9.75,0,0,1-5.41,10.63A43.36,43.36,0,0,0,.75,109.25Z"/><circle class="cls-2" cx="28.61" cy="22.3" r="14.91" transform="translate(5.31 50.11) rotate(-87.97)"/><circle class="cls-2" cx="43.38" cy="101.28" r="34" transform="matrix(0.98, -0.17, 0.17, 0.98, -16.91, 9.06)"/><path class="cls-1" d="M24.14,105.43s19.78-2.77,30.7-18.67l5.81,4.7S44.47,108.05,24.14,105.43Z"/><path class="cls-1" d="M28.48,108.73a36.77,36.77,0,0,1-4.34-.25v9.19a1,1,0,0,0,1,1h5a1,1,0,0,0,1-1v-9C30.26,108.7,29.37,108.73,28.48,108.73Z"/><path class="cls-1" d="M33.68,108.38v9.29a1,1,0,0,0,1,1h5a1,1,0,0,0,1-1V106.84A43.29,43.29,0,0,1,33.68,108.38Z"/><path class="cls-1" d="M43.22,106v11.68a1,1,0,0,0,1,1h5a1,1,0,0,0,1-1V102.78A53.44,53.44,0,0,1,43.22,106Z"/><path class="cls-1" d="M52.75,101.33v16.34a1,1,0,0,0,1,1h5a1,1,0,0,0,1-1V96.32A61.46,61.46,0,0,1,52.75,101.33Z"/><path class="cls-1" d="M52.58,86.27l9.15,7.56a.54.54,0,0,0,.88-.42V85.7a1.86,1.86,0,0,0-2.2-1.82l-7.59,1.44A.54.54,0,0,0,52.58,86.27Z"/><path class="cls-1" d="M28.61,29.36a3.24,3.24,0,0,1-2.77-1.11A5.13,5.13,0,0,1,25,25.1v-.92a4.73,4.73,0,0,1,.25-1.7,1.83,1.83,0,0,1,.92-1,1.62,1.62,0,0,1-.9-.86A3.74,3.74,0,0,1,25,19.11v-.36a3.42,3.42,0,0,1,.93-2.67,3.82,3.82,0,0,1,2.67-.84,3.77,3.77,0,0,1,2.7.86,3.66,3.66,0,0,1,.89,2.76A5.06,5.06,0,0,1,32,20.53a1.62,1.62,0,0,1-.93,1,1.87,1.87,0,0,1,1,1,5,5,0,0,1,.22,1.67v.92a5.2,5.2,0,0,1-.83,3.15A3.26,3.26,0,0,1,28.61,29.36Zm0-2.72c.51,0,.76-.41.76-1.22V24.16a2.33,2.33,0,0,0-.17-1,.67.67,0,0,0-1.18,0,2.55,2.55,0,0,0-.15,1v1.26C27.87,26.23,28.12,26.64,28.61,26.64Zm0-6.32c.49,0,.73-.44.73-1.31a2.27,2.27,0,0,0-.15-.83.61.61,0,0,0-1.15,0,2.08,2.08,0,0,0-.16.83C27.88,19.88,28.13,20.32,28.61,20.32Z"/></g></g></svg>