<svg xmlns="http://www.w3.org/2000/svg" viewBox="0 0 85.39 85.39"><defs><style>.cls-1{fill:#6c2912;}.cls-2{fill:#fff;}.cls-3{fill:#c88a5f;}</style></defs><g id="Capa_2" data-name="Capa 2"><g id="Capa_1-2" data-name="Capa 1"><circle class="cls-1" cx="42.7" cy="42.7" r="42.7"/><circle class="cls-2" cx="42.7" cy="42.7" r="36.49"/><path class="cls-3" d="M18.06,31.93c-.9-2.57-.51-4.41,1.19-5.64a4.2,4.2,0,0,1,5,.05c1.66,1.24,2,3.12,1.12,5.56,3,.74,3.82,1.77,3.82,4.87,0,2.29,0,4.59,0,6.88,0,1.67-.49,2.27-2.16,2.37-.76,0-.64.48-.64.93V55.7c0,1.36-.2,1.55-1.56,1.55-2.1,0-4.21,0-6.31,0-1.12,0-1.51-.44-1.49-1.53,0-2.92,0-5.83,0-8.75,0-.63,0-1-.85-1-1.31,0-1.94-.75-2-2.1,0-2.41,0-4.82,0-7.23C14.25,33.68,15.18,32.52,18.06,31.93Zm.87,13.67c0,2.95,0,5.91,0,8.86,0,.68.12,1,.89.95s1-.13,1-.95c0-3.11,0-6.22,0-9.33,0-.75.2-1,1-1s.94.3.94,1c0,3.11,0,6.23,0,9.34,0,.72.2.89.91.92.9,0,1-.35,1-1.09,0-5.71,0-11.43,0-17.15,0-.65-.35-1.46,1-1.45s.89.78.9,1.4c0,2.06,0,4.12,0,6.18,0,.32-.23.84.43.86s.47-.49.48-.82c0-2.45,0-4.9,0-7.35a1.88,1.88,0,0,0-2.11-2.08q-3.5,0-7,0A1.88,1.88,0,0,0,16.13,36c0,2.41,0,4.83,0,7.24,0,.35-.27,1,.49.91s.41-.56.41-.89c0-2.17,0-4.35,0-6.53,0-.72.14-1,.94-1s1,.25,1,1C18.9,39.69,18.93,42.64,18.93,45.6Zm2.76-18.23a2.33,2.33,0,1,0,2.36,2.35A2.35,2.35,0,0,0,21.69,27.37Z"/><path class="cls-3" d="M68.33,31.94c2.8.51,3.83,1.75,3.83,4.55q0,3.63,0,7.24c0,1.57-.55,2.21-2.11,2.29-.73,0-.69.4-.69.89q0,4.32,0,8.64c0,1.57-.13,1.7-1.75,1.71H61.77c-1.62,0-1.75-.13-1.75-1.71,0-2.84,0-5.68,0-8.52,0-.71-.11-1-.93-1a1.79,1.79,0,0,1-1.88-1.94c0-2.8,0-5.6,0-8.4,0-2,1.35-3.29,3.83-3.74a4.62,4.62,0,0,1-.32-3.69,4.24,4.24,0,0,1,1.54-2,4.19,4.19,0,0,1,5,.14C68.89,27.64,69.26,29.52,68.33,31.94ZM61.89,45.56c0,2.95,0,5.91,0,8.86,0,.75.2,1,1,1s.93-.33.92-1c0-3,0-5.91,0-8.86,0-.61-.33-1.37.9-1.39s1,.68,1,1.33c0,3,0,6,0,9,0,.53-.05.93.75,1s1.14-.27,1.14-1.17c0-5.83,0-11.66,0-17.49,0-.72.14-1,1-1s1,.24,1,1c0,2.21,0,4.43,0,6.65,0,.35-.14.83.51.79s.4-.49.4-.79c0-2.49,0-5,0-7.47a1.85,1.85,0,0,0-2.06-2q-3.51,0-7,0A1.88,1.88,0,0,0,59.1,36c0,2.44,0,4.89,0,7.34,0,.33-.22.85.46.84s.44-.52.45-.85c0-2.21,0-4.43,0-6.64,0-.72.18-.94.91-.93s1,.14,1,.95C61.86,39.65,61.89,42.6,61.89,45.56ZM67,29.67A2.33,2.33,0,1,0,64.66,32,2.34,2.34,0,0,0,67,29.67Z"/><path class="cls-3" d="M55.35,41.43a12.15,12.15,0,1,1-12-12.2A12.16,12.16,0,0,1,55.35,41.43ZM43.1,51.64A10.27,10.27,0,1,0,32.94,41.18,10.3,10.3,0,0,0,43.1,51.64Z"/><path class="cls-3" d="M42.85,69.41A27.35,27.35,0,0,1,28,65.47c-.71-.43-1.15-.45-1.63.22a3.8,3.8,0,0,1-.66.67c-.75.62-1.4.48-1.67-.46q-.73-2.52-1.31-5.07a.91.91,0,0,1,1.12-1.2c1.81.25,3.61.56,5.4.91.93.18,1.15.89.57,1.64-.37.48-1.26.87-1.12,1.37.19.67,1.12.86,1.77,1.17A26.47,26.47,0,0,0,55.7,64a13.27,13.27,0,0,0,4-3.22c.67-.83,1-.19,1.48.11.74.47.26.81-.07,1.17C57.43,66,52.84,68,47.72,68.92A26.11,26.11,0,0,1,42.85,69.41ZM27.1,62.15c-.74-.21-1.58-.65-2-.22s.12,1.2.39,1.88A8.23,8.23,0,0,0,27.1,62.15Z"/><path class="cls-3" d="M41.63,13.34a27.34,27.34,0,0,1,14.94,3.94c.71.43,1.15.44,1.63-.23a3.46,3.46,0,0,1,.74-.74c.68-.5,1.31-.41,1.55.43q.76,2.57,1.35,5.18c.18.82-.3,1.31-1.13,1.2-1.8-.26-3.6-.57-5.4-.91-.93-.18-1.14-.9-.56-1.64.37-.49,1.26-.88,1.12-1.37-.19-.66-1.12-.87-1.77-1.18A26.52,26.52,0,0,0,29,18.67,13.31,13.31,0,0,0,24.89,22c-.67.83-1,.19-1.49-.12-.74-.46-.25-.81.08-1.16a23.12,23.12,0,0,1,12.09-6.59A27.18,27.18,0,0,1,41.63,13.34Zm15.68,7.27c.91.19,1.78.61,2.11.23s-.05-1.24-.32-1.73Z"/><path class="cls-3" d="M46.39,45.15c-.63,0-1.25,0-1.87,0a3.63,3.63,0,0,1-3.16-2.7c-.07-.33-.39-.89.17-1s1.31-.41,1.55.3c.47,1.43,1.51,1.61,2.76,1.55.7,0,1.4,0,2.1,0a1.84,1.84,0,0,0,1.8-1.79,1.89,1.89,0,0,0-1.76-2,6.42,6.42,0,0,0-1.16,0c-.71,0-1.14,0-1.14-1s.44-1,1.14-.94a7.44,7.44,0,0,1,2.3.23,3.81,3.81,0,0,1,2.47,4.06,3.75,3.75,0,0,1-3.45,3.24c-.59,0-1.17,0-1.75,0Z"/><path class="cls-3" d="M39,45.18A3.67,3.67,0,0,1,35.16,43a3.56,3.56,0,0,1,.54-4c1.66-2,7-2,8.61,0a3.18,3.18,0,0,1,.59,1c.15.45.63,1.12-.06,1.35-.52.17-1.45.48-1.65-.63a.54.54,0,0,0,0-.11,1.91,1.91,0,0,0-2-1.08c-1.42.18-3.12-.67-4.18,1a1.84,1.84,0,0,0,1.29,2.77,7.46,7.46,0,0,0,1.16,0c.7,0,1.37-.16,1.35,1s-.72.84-1.32.88Z"/></g></g></svg>