<svg xmlns="http://www.w3.org/2000/svg" viewBox="0 0 158.57 239.48"><defs><style>.cls-1{fill:#6c2910;}.cls-2{fill:#fff;}.cls-3{fill:#c88a5e;}</style></defs><g id="Capa_2" data-name="Capa 2"><g id="Capa_1-2" data-name="Capa 1"><circle class="cls-1" cx="75.6" cy="210.64" r="28.85"/><path class="cls-2" d="M72.4,211l-3.64-.86L70,200H81.54v3.57H73.7l-.45,3.93a5.82,5.82,0,0,1,1.11-.45,5.28,5.28,0,0,1,1.73-.27,7.28,7.28,0,0,1,2.61.44,5.07,5.07,0,0,1,1.92,1.3,5.33,5.33,0,0,1,1.19,2.08,9.13,9.13,0,0,1,.41,2.84,7.41,7.41,0,0,1-.42,2.47A6.39,6.39,0,0,1,80.54,218a6.11,6.11,0,0,1-2.15,1.5,7.71,7.71,0,0,1-3.06.55,8.28,8.28,0,0,1-2.57-.41,7.11,7.11,0,0,1-2.25-1.18,5.53,5.53,0,0,1-1.58-1.86,5,5,0,0,1-.57-2.46H73a2.9,2.9,0,0,0,.35,1.26,2.06,2.06,0,0,0,.81.82,2.26,2.26,0,0,0,1.17.29,2.15,2.15,0,0,0,1.13-.27,1.9,1.9,0,0,0,.71-.75,3.89,3.89,0,0,0,.37-1.09,8,8,0,0,0,.11-1.32,5.3,5.3,0,0,0-.16-1.32,2.69,2.69,0,0,0-.5-1,2.12,2.12,0,0,0-.88-.63,3.26,3.26,0,0,0-1.28-.22,3.15,3.15,0,0,0-1.57.34A2.87,2.87,0,0,0,72.4,211Z"/><path class="cls-3" d="M94.33,74.25c0,3.21-3,6.11-6.34,6.32-1.47.09-3,0-4.44,0-1.17,0-2.25,0-2.75,1.37-.41,1.18-1.16,2.27.17,3.36,1.51,1.23,1.12,2.34,0,3.71a30.49,30.49,0,0,0-5,8.08c-.93,2.28-1.93,2.07-3.38.61-.56-.56-1.32-.93-1.83-1.53-1.1-1.29-2.22-1.11-3.62-.48a3,3,0,0,0-2.2,2.91c-.48,6.27-.9,6.56-7.24,6.58H56.27c-5.21-.1-5.89-.68-6.27-5.82-.12-1.65-.22-2.9-2.13-3.69s-2.86-.21-4.18.9c-4.23,3.55-4.73,3.49-8.75-.34-.9-.87-1.71-1.83-2.61-2.71-2.08-2-2.23-4.07-.11-6.2A18.57,18.57,0,0,0,34,85.21a2.85,2.85,0,0,0-2.08-4.6c-1.48-.1-3,0-4.44,0-5.48-.1-8.46-4-6.15-8.85,1.79-3.74,2-7.62,2.58-11.5,2-13.63,10.33-23.09,23.72-26.31,3.19-.77,6.12-3.06,9.46-2.47,8,1.41,16.09,3,22.73,8.28,6.19,4.9,9.56,11.51,11,19.11.87,4.65.74,9.5,3.21,13.78A4.51,4.51,0,0,1,94.33,74.25ZM48.42,52.64h.2c-.21-3.52-.58-7-.59-10.55,0-2.36-.7-2.57-2.75-1.83-9.36,3.37-16.8,14.16-16.42,23.83.06,1.69,1,1.45,2,1.45,5.34,0,10.68-.06,16,0,1.86,0,2.33-.64,2.18-2.39C48.77,59.67,48.63,56.15,48.42,52.64Zm27.32,12.9h8.52c.93,0,1.66,0,1.74-1.38.54-9.69-7.64-21.24-17-24.11-2-.6-2,.11-2.12,1.62-.29,6.81-.48,13.64-1.07,20.42-.27,3,.67,3.78,3.45,3.5C71.4,65.37,73.58,65.54,75.74,65.54ZM57.07,75.11c9.67,0,19.34,0,29,0,.87,0,2.39.68,2.51-.79a3,3,0,0,0-1.65-3.1,7.56,7.56,0,0,0-2.7-.15H48.74c-6.48,0-13,.09-19.45,0-2.26,0-2.88,1.46-3,2.94-.12,2.07,1.79,1.13,2.76,1.14C38.41,75.14,47.74,75.11,57.07,75.11ZM39.54,80.83c2.72,3.26,1,5.57-1.25,7.8-.93.94-1.52,1.77-.2,3.09s2.07.64,3.11-.18c1.31-1,2.46-3.05,4.18-2.63a35.61,35.61,0,0,1,8.46,3.35c1.93,1,1.43,3.42,1.54,5.31.07,1.3.32,2.14,1.91,2.17s2.17-.7,2.2-2.24c0-1.79-.37-4.08,1.32-5.07a35,35,0,0,1,8.4-3.53c1.93-.52,3.1,1.6,4.5,2.68,1.07.83,1.82,1.41,3.11.1s.58-2.22-.3-3.1c-2.28-2.25-3.84-4.59-1.28-7.71-2.86-.59-4.72-.35-6.57,2.24a13.85,13.85,0,0,1-22.52,0C44.3,80.43,42.42,80.38,39.54,80.83ZM61,51.61l-.19,0c.22-3.74.33-7.49.69-11.21.32-3.31-1.93-3.48-4.11-3.46s-4.14.18-3.94,3.3c.49,7.7.89,15.42,1.14,23.13.07,2.23,1.2,2.2,2.81,2.22s3,0,3-2.4C60.33,59.31,60.73,55.46,61,51.61ZM51.46,80.74c4.66,3.43,8,3.35,11.48,0Z"/><path class="cls-3" d="M1.75,65.15C1.18,49.33.63,33.52,0,17.71c-.08-2.14.32-3.77,2.51-4.65C20.54,5.83,38.88-.26,58.58,0c18.93.26,36.64,6.06,54,13.18,1.88.77,2.37,2.17,2.3,4.08-.68,17.29-1.37,34.59-1.93,51.88-.11,3.25-2.46,2.41-4.13,2.62-2.73.33-1.37-1.94-1.34-2.84.51-16.05,1.16-32.08,1.79-48.12.06-1.58.33-3-1.77-3.82C90.85,10.57,74,5.16,55.91,5.5,38.86,5.83,22.83,11,7.1,17.12c-1.74.68-1.55,2-1.5,3.32q.75,20.31,1.48,40.62Q8,85.63,8.92,110.2c.05,1.32-.27,2.68,1,3.74,11.36,9.25,23.32,17.4,37.7,21.33A36.56,36.56,0,0,0,71.08,134c3.09-1.2,3.32.68,4.17,2.52,1.31,2.84-1.35,2.37-2.43,2.77C60.26,144,48,142.39,36.05,137.09A125.25,125.25,0,0,1,5.76,117.58a6.53,6.53,0,0,1-2.36-5.33c-.47-15.7-1.07-31.4-1.62-47.1Z"/><path class="cls-3" d="M99,74.84,100.12,44c.22-6.26.39-12.52.69-18.77.08-1.56-.54-2.17-1.89-2.72Q57.44,5.41,16,22.46a2.63,2.63,0,0,0-1.92,3q1.54,40.78,3,81.57a3.39,3.39,0,0,0,1.17,3C28.76,118.13,39.63,125.5,53,128c5.44,1,10.61-.13,15.77-1.68,1.17-.36,2.71-1.94,3.37.74.51,2.06,1.08,3.68-1.86,4.62a39.28,39.28,0,0,1-26.08-.21c-11.51-4.11-21.51-10.74-31-18.29a4.58,4.58,0,0,1-1.66-3.86Q10.25,70.43,8.82,31.52q-.15-4.44-.47-8.87A3.74,3.74,0,0,1,11,18.45c15.19-5.68,30.61-10.4,47-10.27,16,.12,31.13,4.77,46,10.34a3.63,3.63,0,0,1,2.49,4q-1,24.23-1.89,48.46C104.49,74.66,101.22,73.33,99,74.84Z"/><path class="cls-3" d="M117.73,76.48a41,41,0,1,1-41.17,40.83A41,41,0,0,1,117.73,76.48ZM117.52,82a35.53,35.53,0,1,0,35.57,35.65A35.62,35.62,0,0,0,117.52,82Z"/><path class="cls-3" d="M117.44,147.56c-3.76,0-7.51-.05-11.27,0-2.61,0-3.77-1.18-3.65-3.74.15-2.91-.57-6,1.28-8.62,2-2.85,4.61-4.41,8.1-4,2.47.27,3.12-.69,3-3-.19-3.29-.58-6.71.08-9.88,1.07-5.2-2.33-8-5-11.21-.47-.57-8.32-.81-8.61-.26a2.37,2.37,0,0,0-.07,1.58c1,3.5,2,7,3,10.48.29,1.06,1.13,1.16,1.94,1.57,2.46,1.24,2.5,3.42.23,5.07-5.1,3.71-13.54,3.7-18.63,0-2.28-1.66-2.3-4,.24-5,1.64-.63,1.92-1.65,2.27-3,.66-2.41,1.36-4.8,2.06-7.2.52-1.78,1.6-3.58-1.2-4.64-1-.36-1.15-1.71-.73-2.74a2.91,2.91,0,0,1,3-1.88c4.43,0,8.88-.09,13.31.05,2,.06,3.44-.23,4.41-2.19a7.25,7.25,0,0,1,2.21-2.08c2.32-1.79,2.17-2.87-.59-4.08a2.7,2.7,0,0,1-1.91-2.9,2.52,2.52,0,0,1,2.47-2.4c2.84-.09,5.69-.08,8.53,0a2.53,2.53,0,0,1,2.55,2.32,2.6,2.6,0,0,1-2.13,3c-.78.24-1.86-.17-1.92,1.31,0,1.27.21,2.22,1.49,2.68a.52.52,0,0,1,.28.19c2.9,5.19,7.87,4.08,12.47,4.09,2.5,0,5,0,7.51,0a2.7,2.7,0,0,1,2.76,2.09,2.27,2.27,0,0,1-1.24,2.88c-1.76.73-1.53,1.81-1.08,3.21.83,2.59,1.58,5.21,2.29,7.84.42,1.52.67,2.8,2.6,3.48,2.18.78,2.18,3.1.37,4.65-4.65,4-15,3.94-19.45-.11-1.73-1.59-1.72-3.6.34-4.43s2.36-2.09,2.8-3.74c.66-2.52,1.31-5.06,2.19-7.51.74-2.09.46-2.48-2-3.06-5.31-1.27-7.56,2.83-10.88,5.1-.8.54-.43,1.47-.44,2.22,0,5,0,10,0,15,0,1.6.21,2.39,2.17,2.47,8.26.34,12.51,6.45,10.06,14.24-.53,1.67-1.8,2.15-3.46,2.13C125.18,147.52,121.31,147.56,117.44,147.56Zm.13-5.48c2.28,0,4.55.08,6.82,0,1,0,2.68.81,2.74-1.4.05-1.88-.36-3.76-2.42-3.86a142.1,142.1,0,0,0-14.3,0c-2.07.1-2.47,2-2.41,3.87.07,2.22,1.73,1.33,2.76,1.39C113,142.16,115.3,142.08,117.57,142.08Zm.28-35.54c1.26-.38,2.4-1.11,2.36-2.73a2.64,2.64,0,1,0-5.28.18C115,105.54,116.1,106.37,117.85,106.54Zm-20.48,8.73-.67.1c-.5,1.61-1,3.21-1.47,4.85-.21.82-.78,1.85.3,2.44a3.42,3.42,0,0,0,3,.06c1.14-.51.64-1.58.41-2.4C98.46,118.62,97.89,117,97.37,115.27Zm41,0-.67.1c-.5,1.62-1,3.22-1.47,4.86-.21.82-.78,1.86.31,2.44a3.42,3.42,0,0,0,3,0c1.13-.51.63-1.58.4-2.4C139.46,118.61,138.9,117,138.37,115.27Z"/></g></g></svg>