<svg xmlns="http://www.w3.org/2000/svg" viewBox="0 0 145.68 86.74"><defs><style>.cls-1{fill:#fff;}.cls-2{fill:#3d8046;}</style></defs><g id="Capa_2" data-name="Capa 2"><g id="Capa_1-2" data-name="Capa 1"><path class="cls-1" d="M47.37.19A43.37,43.37,0,1,0,84.05,58.4,9.78,9.78,0,0,1,94.1,52l.19,0a9.73,9.73,0,0,1,8.36,6.25,22.16,22.16,0,1,0,1.8-18.72,9.73,9.73,0,0,1-9.27,4.75l-.31,0a9.75,9.75,0,0,1-8.74-8.11A43.37,43.37,0,0,0,47.37.19Z"/><path class="cls-2" d="M124.74,35.93a14.91,14.91,0,1,1-16.22,13.48A14.92,14.92,0,0,1,124.74,35.93Z"/><circle class="cls-2" cx="43.37" cy="43.37" r="34" transform="translate(-17.68 37.42) rotate(-39.44)"/><path class="cls-1" d="M43.37,29.13c-13.94,0-25.25,14.24-25.25,14.24S29.43,57.61,43.37,57.61,68.62,43.37,68.62,43.37,57.32,29.13,43.37,29.13Zm-9.08,6.66a14.72,14.72,0,0,0,3.37,1.75A12.34,12.34,0,0,0,36,42.7H31.56A11.66,11.66,0,0,1,34.29,35.79ZM31.56,44H36a12.34,12.34,0,0,0,1.64,5.16A14.72,14.72,0,0,0,34.29,51,11.66,11.66,0,0,1,31.56,44ZM42.7,55.19a11.83,11.83,0,0,1-7.52-3.28,13.66,13.66,0,0,1,3.18-1.57,22.93,22.93,0,0,0,4.34,4.78Zm0-1.87a21.45,21.45,0,0,1-3-3.38,15.65,15.65,0,0,1,3-.4Zm0-5.09a16.52,16.52,0,0,0-3.71.56A11.23,11.23,0,0,1,37.38,44H42.7Zm0-5.53H37.38A11.14,11.14,0,0,1,39,38a17.11,17.11,0,0,0,3.71.55Zm0-5.5a15.65,15.65,0,0,1-3-.4,21.92,21.92,0,0,1,3-3.38Zm0-5.58a22.93,22.93,0,0,0-4.34,4.78,13.66,13.66,0,0,1-3.18-1.57,11.83,11.83,0,0,1,7.52-3.28Zm1.35-.07a11.8,11.8,0,0,1,7.51,3.28,13.28,13.28,0,0,1-3.18,1.57,23,23,0,0,0-4.33-4.78Zm0,1.87a22.47,22.47,0,0,1,3,3.38,15.87,15.87,0,0,1-3,.4Zm0,5.09a17,17,0,0,0,3.7-.55,11.16,11.16,0,0,1,1.62,4.74H44.05Zm0,5.53h5.32a11.24,11.24,0,0,1-1.62,4.75,16.43,16.43,0,0,0-3.7-.56Zm0,5.5a15.87,15.87,0,0,1,3,.4,22,22,0,0,1-3,3.38Zm0,5.65v-.07a23,23,0,0,0,4.33-4.78,13.28,13.28,0,0,1,3.18,1.57A11.8,11.8,0,0,1,44.05,55.19ZM52.46,51a14.79,14.79,0,0,0-3.38-1.75A12.34,12.34,0,0,0,50.72,44h4.47A11.78,11.78,0,0,1,52.46,51ZM50.72,42.7a12.34,12.34,0,0,0-1.64-5.16,14.79,14.79,0,0,0,3.38-1.75,11.78,11.78,0,0,1,2.73,6.91Z"/><path class="cls-1" d="M118.75,57.62V47a1.89,1.89,0,0,1-.77.55,2.39,2.39,0,0,1-.93.21V45.53a3.62,3.62,0,0,0,1.78-.84,2.54,2.54,0,0,0,.63-.88h2.22V57.62Z"/><path class="cls-1" d="M126,57.77a3.35,3.35,0,0,1-2.66-1,4.37,4.37,0,0,1-.83-2.91V52.46h2.83v1.45a2.84,2.84,0,0,0,.14.93.58.58,0,0,0,.61.38.57.57,0,0,0,.62-.41,4.79,4.79,0,0,0,.14-1.35v-.34a3,3,0,0,0-.24-1.25.92.92,0,0,0-.94-.53h-.26V48.87a1.64,1.64,0,0,0,1.08-.31,1.32,1.32,0,0,0,.38-1.07c0-.77-.22-1.16-.67-1.16a.59.59,0,0,0-.6.34,2.11,2.11,0,0,0-.15.86V48h-2.85a1.55,1.55,0,0,1,0-.23,2.26,2.26,0,0,1,0-.26,3.8,3.8,0,0,1,.89-2.78,3.68,3.68,0,0,1,2.71-.89c2.35,0,3.53,1.23,3.53,3.67a4.48,4.48,0,0,1-.27,1.68,1.63,1.63,0,0,1-1,.93,2.05,2.05,0,0,1,.87.73,2.6,2.6,0,0,1,.36,1.08,11.83,11.83,0,0,1,.09,1.58,5.11,5.11,0,0,1-.87,3.19A3.38,3.38,0,0,1,126,57.77Z"/></g></g></svg>