<svg xmlns="http://www.w3.org/2000/svg" viewBox="0 0 154.2 238.41"><defs><style>.cls-1{fill:#6c2910;}.cls-2{fill:#fff;}.cls-3{fill:#c88a5e;}</style></defs><g id="Capa_2" data-name="Capa 2"><g id="Capa_1-2" data-name="Capa 1"><circle class="cls-1" cx="62.97" cy="209.56" r="28.85"/><path class="cls-2" d="M69,210v3.54H54.72l-.27-2.8,8-12.81H66l-3.94,6.44L58.83,210Zm-2-12.07v19.81H62.39V197.92Z"/><path class="cls-3" d="M127.07,62.05c1.18-2,2.37-4,3.53-6,.61-1,1.63-2.23,2.64-1.7,2.67,1.42,3.07-.71,4-2.13,2-2.86,4.61-3.27,8.11-1.29,3.73,2.1,5,4.7,3.17,7.77-1.56,2.62-1,3.7,1.53,5.08C154.27,66,155.29,69.93,153,74c-3.73,6.68-7.6,13.27-11.42,19.89-.9,1.56-2.08,2.84-4,1.64s-1.16-2.83-.28-4.35q5.43-9.39,10.84-18.78c.69-1.21,1.73-2.47-.11-3.93-4.17,7.2-8.28,14.35-12.45,21.46A18.61,18.61,0,0,1,131.13,95a12.49,12.49,0,0,0-4.73,9.67c.06,13.86,0,27.72,0,41.58,0,6.12-1.58,7.69-7.68,7.69H13.85c-5.61,0-7.42-1.8-7.42-7.41q0-47.47,0-95c0-2.11-.48-3.3-2.57-4.17C.28,45.92-1,43,.9,39.65c5.4-9.15,6.25-19,5.54-29.26a38,38,0,0,1,0-4.65C6.66,2.16,8.83,0,12.45,0q45.61,0,91.23,0a6.65,6.65,0,0,1,4.92,2.2c5.18,5.21,10.34,10.44,15.6,15.56a7.88,7.88,0,0,1,2.24,6.17c0,11.59,0,23.17,0,34.76v3.07Zm-5.69,50.27-.68-.17c-1.73,3-3.71,5.85-5.13,9C113,126.87,109,131,103,133a4.26,4.26,0,0,0-2.91,2.16c-1.27,3-3.33,3.07-6,1.94-4.08-1.71-8.3-2.21-12.11.58-6.57,4.81-12.93,3.9-19.22-.38a11.25,11.25,0,0,0-9.45-1.61c-2.71.66-5.38,1.45-8.08,2.11A2.43,2.43,0,0,1,42,136.12a2.27,2.27,0,0,1,1.63-2.94c7.72-2.54,15.36-5,23,.64,3.75,2.78,8,3.09,12.05,0,3.84-3,8.29-3.55,13-2.68,5,.93,5.13.94,4.44-4.13a17.09,17.09,0,0,1,2.54-12c5.4-8.67,10.3-17.66,15.41-26.51.41-.72,1.24-1.52,1.13-2.16-.89-5.15,3.36-8.13,5-12.19.46-1.13,1.23-2.1,1.23-3.44q0-22.49,0-45c0-1.63-.54-2.14-2.15-2.1-3.82.1-7.65.06-11.48,0-3.46,0-4.9-1.39-5-4.87s-.19-7,0-10.54c.16-2.58-.61-3.27-3.23-3.26C73,5,46.42,5,19.84,5c-8.62,0-8.62,0-8.35,8.59,0,.12.23.23.56.55.66-1.48,1.23-2.88,1.9-4.25,1.45-3,3.95-4.25,6.78-3.45,6.47,1.84,10,4.72,9.79,8.07a1.48,1.48,0,0,1-.08.61c-2.08,3.7,1.06,4,3.2,4.74,1.69.56,3.48.12,5.2-.31,4.28-1.08,8.56-1.62,12.71.44a2.55,2.55,0,0,0,2.58-.24c4.54-2.35,9.14-2.13,13.79-.37a38.7,38.7,0,0,0,5.54,1.93c3,.63,4.75-1.15,4.28-4-.5-3.06.62-5.16,3.55-6.44,1.7-.74,3.44-1.41,5.19-2,3.76-1.34,6.41-.18,7.9,3.62q5.81,14.85,11.47,29.73c1.27,3.31.55,5.85-1.88,7.39-5.65,3.58-10.25,4.08-12.84,1.4-.08-.07-.14-.16-.21-.23-.68-.76-.89-2.22-2.54-1.52a3.83,3.83,0,0,0-2.3,2.55c-1.45,4.1-5,7.16-6,11.55-.19.78-1.45,1.59-2.36,1.83a5.15,5.15,0,0,0-3.93,3.61c-1,2.8-4.54,2.72-6.33,4.31S64.88,78.3,62,78.42c-4.33.18-8.85,1.49-12.78,1-4.29-.6-8.7-3.05-12.85-5.16a.66.66,0,0,1-.22-.22c-.59-.9-1.36-.91-2.39-.83-4.52.35-6.95-1.35-8.33-5.63a2.84,2.84,0,0,0-1.58-2c-5.27-2.56-6.43-5.94-3.72-11.31a6.3,6.3,0,0,0-.35-5.92c-.58-1.17-2.2-2.86-3.75-.41a4.18,4.18,0,0,1-2.62,2.07c-1.91.33-2,1.52-2,3.08q0,46.55,0,93.09c0,2.31.62,3,3,3q52.13-.12,104.25,0c2.15,0,2.84-.56,2.81-2.75-.11-9.1,0-18.21,0-27.31ZM47.92,23.8a17.47,17.47,0,0,0-6.12.26c-4.35,1.09-8.73,1.9-12.9-.7-1.49-.93-2,.08-2.47,1.2-1.9,4.35-3.74,8.73-5.78,13-1.23,2.58-2.48,4.85,1.64,5.92A3.37,3.37,0,0,1,24,45.21c.63,1.18,1.21,1.49,2.66,1.09,3.94-1.09,6.55.09,8.7,3.47.32.51.7,1.45,1,1.43,4.57-.24,6.54,4.5,10.9,5.43,3.13.67,6.33,3.3,9.59,4.94,3,1.5,5.89,3.38,8.78,5.17,1.35.84,2.78,1.31,3.73-.38s-.46-2.63-1.73-3.36c-3.31-1.91-6.65-3.77-10-5.64-1.55-.87-2.92-1.93-1.74-3.9s2.73-1.32,4.29-.43q6.06,3.45,12.14,6.84c1.35.75,2.91,1.9,4,0s-.6-2.91-2.07-3.74c-3-1.68-5.93-3.36-8.91-5-1.52-.86-2.54-2-1.56-3.76s2.47-1.52,4-.63c3,1.76,6.11,3.47,9.16,5.2,1.4.79,2.9,1.69,3.93-.34.9-1.77-.5-2.58-1.81-3.33-4.76-2.7-9.52-5.38-14.25-8.14a6.32,6.32,0,0,0-5.64-.49c-3.4,1.2-6.75,2.58-10.23,3.52-4.92,1.34-9.42.43-13.07-3.41-2.67-2.79-2.48-4.66.75-6.7A47.17,47.17,0,0,0,47.92,23.8ZM62.35,34.12c1.52-.16,3.37.7,5.19,1.74,5.1,2.94,10.28,5.73,15.28,8.81,1.75,1.08,2.91.26,4.26-.37.91-.42.57-1.15.3-1.85Q84.17,34.24,81,26c-.34-.88-.75-1.6-1.77-.95-3.93,2.5-7.83,1.44-11.5-.37-6.32-3.1-11.58-1.5-16.36,3.06a70.84,70.84,0,0,1-8.76,7.38c-.73.5-2.13.84-1.87,1.79s1.66,1.4,2.8,1.58c3,.48,5.68-.58,8.4-1.62C55.11,35.69,58.2,34.18,62.35,34.12ZM101.56,128c2.39-1.36,5.17-1.71,6.66-4.3q8.55-14.88,17.2-29.71c.92-1.58.63-2.38-.93-3a9.29,9.29,0,0,1-2.14-1.23c-1.88-1.51-2.83-.88-3.95,1.1-5.15,9.17-10.33,18.32-15.8,27.3C100.63,121.36,100.61,124.42,101.56,128ZM130,88.36c1.07,0,1.25-.87,1.59-1.45C135.35,80.49,139,74,142.79,67.64c.8-1.36.82-2.11-.69-2.88a62.71,62.71,0,0,1-6.17-3.54c-1.44-1-2.16-.79-3,.78-3.2,5.77-6.56,11.45-9.85,17.16-2.25,3.9-2.26,3.9,1.73,6.2ZM11.09,45.25c1.22-.24,1.27-1.3,1.62-2.09q5.46-12.25,10.9-24.53c2.14-4.82,2.13-4.78-2.86-6.78-1.23-.49-1.95-.61-2.59.87C14.07,22.15,9.87,31.55,5.73,41c-.22.5-.88,1.24-.16,1.63C7.36,43.59,9.26,44.39,11.09,45.25ZM88,13.62c-1.36.58-3.48,1-4.84,2.21-1.12,1,.4,2.63.89,3.9,3.25,8.56,6.65,17.06,9.84,25.64.77,2,1.64,2.59,3.54,1.51a10.59,10.59,0,0,1,2.29-.9c1.47-.43,1.93-1.08,1.29-2.69C97.26,33.91,93.67,24.49,90,15.1,89.75,14.4,89.62,13.39,88,13.62ZM38.59,59a2,2,0,0,0-1.11-2.29c-.86-.38-1.9-.52-2.48.47-1.56,2.66-3.08,5.34-4.52,8.07a2,2,0,0,0,.87,2.67,1.76,1.76,0,0,0,2.52-.25C35.93,64.94,37.11,61.74,38.59,59ZM116.35,18.6l-8.41-8.44c-.86,8.73-.86,8.73,8.2,8.47C116.43,18.62,116.72,18.55,116.35,18.6ZM46.73,63.28c0-1.29-.39-2-1.25-2.3s-1.91-.36-2.46.64c-1.24,2.26-2.45,4.54-3.58,6.85a1.76,1.76,0,0,0,.85,2.37,1.7,1.7,0,0,0,2.29-.09C44.53,68.46,45.55,65.64,46.73,63.28ZM26.05,60.89c.35-.19,1-.32,1.18-.69C28.57,58,29.91,55.82,31,53.52c.46-.92-.28-1.83-1.11-2.31a1.91,1.91,0,0,0-2.74.56A42.38,42.38,0,0,0,23.9,58C23.3,59.54,24.36,60.51,26.05,60.89Zm28.78,7c.08-1.47-.29-2.28-1.31-2.59a1.88,1.88,0,0,0-2.42.78C50,68,49,70,48,72a1.75,1.75,0,0,0,.82,2.37,2,2,0,0,0,2.56-.23A24.36,24.36,0,0,0,54.83,67.88Zm5.33,1.68a4.68,4.68,0,0,0-1.87,3.24c-.15.81,1,1.13,1.81,1a2,2,0,0,0,1.87-2A2.25,2.25,0,0,0,60.16,69.56ZM142.29,59A3.07,3.07,0,0,0,144,56.39c.05-1-1.28-1.57-2-1.49-1.21.15-1.71,1.57-1.82,2.54S141.41,58.6,142.29,59Z"/><path class="cls-3" d="M64.42,82.81q18.77,0,37.53,0a15,15,0,0,1,3.07.25,2.19,2.19,0,0,1,1.82,2.22,2.29,2.29,0,0,1-2,2.41,13.45,13.45,0,0,1-2.46.17H26.7a18.65,18.65,0,0,1-2.48-.13,2.31,2.31,0,0,1-2.1-2.32,2.28,2.28,0,0,1,2-2.42,16.61,16.61,0,0,1,3.08-.19Q45.81,82.79,64.42,82.81Z"/><path class="cls-3" d="M60.72,104.55H26.93c-.93,0-1.86,0-2.78-.13a2.2,2.2,0,0,1-2-2.06,2.22,2.22,0,0,1,1.75-2.57A12,12,0,0,1,27,99.52q33.78,0,67.58,0c.52,0,1,0,1.55,0,1.74,0,3.24.66,3.24,2.56s-1.53,2.47-3.26,2.47H60.72Z"/><path class="cls-3" d="M55.82,121.25q-14.88,0-29.77,0c-1.84,0-3.87,0-3.88-2.41S24,116.21,26,116.21q30.09,0,60.17,0c1.88,0,3.83.23,3.88,2.53s-1.93,2.52-3.79,2.51Q71,121.23,55.82,121.25Z"/><path class="cls-3" d="M98.87,71.19H90.22c-1.82,0-3.48-.5-3.47-2.6,0-1.93,1.55-2.46,3.28-2.45,5.86,0,11.73,0,17.6,0,1.69,0,3.15.45,3.11,2.55s-1.59,2.45-3.23,2.48C104.63,71.23,101.75,71.19,98.87,71.19Z"/><path class="cls-3" d="M20.78,17.86c-1.09-.27-2-.81-1.94-2a1.92,1.92,0,0,1,2-2,1.81,1.81,0,0,1,1.9,2A2,2,0,0,1,20.78,17.86Z"/><path class="cls-3" d="M87.08,15.82C88.2,16,89,16.5,89,17.75a1.78,1.78,0,0,1-1.82,2,1.82,1.82,0,0,1-2-1.89C85.14,16.63,85.94,16.08,87.08,15.82Z"/></g></g></svg>