<svg xmlns="http://www.w3.org/2000/svg" viewBox="0 0 169.24 238.41"><defs><style>.cls-1{fill:#6c2910;}.cls-2{fill:#fff;}.cls-3{fill:#c88a5e;}</style></defs><g id="Capa_2" data-name="Capa 2"><g id="Capa_1-2" data-name="Capa 1"><circle class="cls-1" cx="85.62" cy="209.56" r="28.85"/><path class="cls-2" d="M92.33,214.38v3.54H78.5v-3l6.37-6.7a16.27,16.27,0,0,0,1.36-1.74A6.75,6.75,0,0,0,87,205.1a3.19,3.19,0,0,0,.24-1.13,3.6,3.6,0,0,0-.26-1.44,1.85,1.85,0,0,0-.73-.87,2.21,2.21,0,0,0-1.19-.3,2,2,0,0,0-1.24.41,2.61,2.61,0,0,0-.82,1.11,4,4,0,0,0-.29,1.59H78.09a6.4,6.4,0,0,1,.9-3.33,6.63,6.63,0,0,1,2.48-2.42,7.36,7.36,0,0,1,3.69-.9,8.84,8.84,0,0,1,3.67.68,4.81,4.81,0,0,1,2.24,2,5.9,5.9,0,0,1,.76,3.09,6.06,6.06,0,0,1-.33,2,8.47,8.47,0,0,1-.94,1.88,15.9,15.9,0,0,1-1.49,1.92c-.58.65-1.25,1.34-2,2.08l-2.56,2.95Z"/><path class="cls-3" d="M58,68.46c-1.82-15.33,1.67-27.39,17-33.46C69,30.15,66,24.35,66.73,17a18.06,18.06,0,0,1,6.17-12A18.75,18.75,0,0,1,99.35,6.06c7.74,8.26,6.65,19.44-2.77,28.53,0,1.1,1,1,1.64,1.31,9.84,4.94,15.38,12.55,15,23.89,0,.66,0,1.33,0,2-.21,2.37.79,2.26,2.46,1.35,6.48-3.5,13-6.95,19.51-10.41,3.94-2.08,4.91-1.79,7,2.12,1.67,3.09,3.29,6.22,5,9.3,1.17,2.12,1.35,4.13-1,5.37s-3.92-.21-4.94-2.33c-.05-.1-.12-.18-.18-.28-1.48-2.39-2-6.47-4.37-6.9s-5,2.18-7.55,3.5c-3.61,1.89-7.16,3.89-10.79,5.71-1.5.75-1.79,1.44-.95,3q11.22,20.94,22.28,42c.78,1.48,1.46,1.81,3,1q8.37-4.62,16.91-9c1.71-.87,1.51-1.7.75-3-1.41-2.49-2.71-5-4.05-7.57-1-1.88-1.05-3.77.93-4.91s3.81-.37,4.92,1.73q3.24,6.12,6.49,12.24c1.15,2.16.61,3.87-1.49,5q-12.93,6.94-25.92,13.81c-.38.2-.94.56-1.21.43-4.61-2.27-6.75,3.6-10.79,3.23-1-.09-1.09.83-1.16,1.66-.43,4.85-3.09,7.91-7.73,9.15-1.24.33-1.43.94-1.66,2-1.46,6.48-4,8.77-10.44,9.38-1.16.11-1.58.36-1.89,1.61-1.9,7.64-7.84,10.57-15.11,7.57-3-1.26-6.14-2.45-9.08-3.92-2.26-1.12-3.76-.89-5.71.9-5.54,5.06-12.93,4-16-2.48-1.38-2.86-2.68-5-5.7-6.36s-3.41-5.63-5.4-7.84-6.55-2.83-7.16-6.14c-.89-4.81-5.37-5.16-7.8-7.92-.87-1-1.24,0-1.67.6-1.46,2-3.26,1.92-5.24.87L2.38,112.82c-2.52-1.34-3-3.22-1.63-5.77Q14,82.17,27.27,57.24c1.62-3,3.08-3.46,6.2-1.82C41.34,59.55,49.17,63.75,58,68.46ZM46.09,100.11c8.58-.75,8.74-.71,14.1,6.46.69.92,1.44.75,2.29.81,7.05.45,11.39,5.68,10.09,12.48a3,3,0,0,0,1.34,3.45c3.86,3.17,5,7.14,3.22,11.8-.51,1.36-.52,2.1.66,3a10.09,10.09,0,0,1,4.11,7.6,2,2,0,0,0,1.31,2c3.85,1.6,7.68,3.25,11.56,4.8a3.34,3.34,0,0,0,4.69-1.77c.93-2,.16-3.68-1.77-4.69s-4-1.88-5.94-2.86c-2.13-1.06-3.38-2.77-2.24-5.08s3.13-2,5.15-1.16c3.83,1.66,7.68,3.28,11.49,5,2.33,1,4.43,1,5.52-1.58,1-2.4-.28-3.91-2.55-4.86-4.76-2-9.47-4.11-14.21-6.15-2.28-1-3.91-2.44-2.68-5.06,1.13-2.38,3.14-2.32,5.34-1.3,5.48,2.53,11,5,16.51,7.47a7.93,7.93,0,0,0,3.79,1,3.3,3.3,0,0,0,3.19-1.92c.63-1.42,0-2.59-.85-3.64a7.81,7.81,0,0,0-3.06-1.89L100,116.26c-2-.9-3.48-2.18-2.54-4.58s3-2.65,5.19-1.73c2.64,1.09,5.26,2.22,7.89,3.34,5.16,2.19,10.31,4.39,15.48,6.55,1.74.73,3.49.86,4.82-.77a3.22,3.22,0,0,0,.1-4.25,8.3,8.3,0,0,0-2.64-1.9c-13.83-7.24-27.69-14.42-41.51-21.69a6.74,6.74,0,0,0-5-.56C77,91.85,72.13,92.85,67.33,94c-3.79.92-6.93-.26-9.69-2.78-1.76-1.6-2.54-3.81-3.31-6.65C51.39,90.13,48.79,95,46.09,100.11Zm6.35-26.29c.1-1-.79-1.16-1.41-1.49-5.62-3-11.28-5.92-16.84-9-1.76-1-2.4-.41-3.22,1.13Q20,85.28,8.84,106c-.89,1.65-.7,2.35,1,3.2,5.39,2.73,10.77,5.48,16,8.53,2.31,1.35,3,.66,4.12-1.39,7.08-13.53,14.3-27,21.47-40.45C51.74,75.24,52.07,74.55,52.44,73.82Zm53.72-11.29c1.4-8.17-1.3-14.61-7.82-18.92A23.26,23.26,0,0,0,81.6,40.22c-8.48,1.25-17.66,7.86-17.15,19.24.16,3.52.12,7,0,10.56-.09,2.36.57,2.82,2.82,1.93,7-2.78,14.17-5.32,21.23-8.05C94.26,61.68,100.08,60.52,106.16,62.53Zm20,41.71.42-.5L111.78,75.81c-3-5.66-8.23-8.7-14.42-7.31C85.54,71.14,74.64,76.57,63.3,80.64c-1.95.7-2.38,2.62-1.76,4.45a3.5,3.5,0,0,0,4.16,2.46,26.6,26.6,0,0,0,5.77-1.33c9.62-4,18.14-2.14,26.86,3.33C107.21,95.11,116.88,99.39,126.21,104.24ZM73.32,19.06a12.25,12.25,0,1,0,24.49-.17A12.43,12.43,0,0,0,85.62,6.67,12.3,12.3,0,0,0,73.32,19.06Zm-7.2,98.74a3.39,3.39,0,0,0-1.88-3.25,3.12,3.12,0,0,0-3.94.48c-3.85,3.46-7.71,6.89-11.52,10.39a3.12,3.12,0,0,0-.22,4.92c1.54,1.65,3.22,1.63,4.91.11l11.08-9.89A3.51,3.51,0,0,0,66.12,117.8Zm-23.9,3.66a3.24,3.24,0,0,0,1-.41,86.12,86.12,0,0,0,10.42-9.5c1.21-1.38.44-2.92-.74-4.1s-2.74-1.63-4.13-.43q-5,4.31-9.73,8.83a2.65,2.65,0,0,0-.24,3.61A3.79,3.79,0,0,0,42.22,121.46Zm25.33,6.17a3.21,3.21,0,0,0-1.11.41c-3.15,2.75-6.4,5.4-9.32,8.38-1.12,1.14-.63,2.92.66,4.15s2.89,1.48,4.19.39c3-2.46,5.77-5.11,8.55-7.77a2.56,2.56,0,0,0,.28-3.35A4.22,4.22,0,0,0,67.55,127.63Zm7.67,18.17c-.59-1.69-1.53-3.24-3.82-3.14-2.05.09-5.85,3.93-5.57,5.74a3.61,3.61,0,0,0,3.74,3.42C71.28,151.83,75.33,147.52,75.22,145.8Z"/><path class="cls-3" d="M151.74,76.47c2.24.35,3.51,1.56,3.37,3.55a3.07,3.07,0,0,1-3.54,3.06,3,3,0,0,1-2.93-3.28C148.65,77.61,150,76.78,151.74,76.47Z"/><path class="cls-3" d="M25.23,106.32c-.07,2-1,3.28-3.17,3.32a3.24,3.24,0,0,1-.28-6.48C23.77,103.06,25,104.19,25.23,106.32Z"/></g></g></svg>