<svg xmlns="http://www.w3.org/2000/svg" viewBox="0 0 109.01 135.34"><defs><style>.cls-1{fill:#fff;}.cls-2{fill:#e72379;}</style></defs><g id="Capa_2" data-name="Capa 2"><g id="Capa_1-2" data-name="Capa 1"><path class="cls-1" d="M6.57,68.49a43.83,43.83,0,1,0,69.19-7,9.89,9.89,0,0,1-1.29-12l.1-.17A9.84,9.84,0,0,1,84,44.63,22.41,22.41,0,1,0,67.87,34.57,9.83,9.83,0,0,1,68,45.09l-.16.27a9.86,9.86,0,0,1-11.28,4.25A43.85,43.85,0,0,0,6.57,68.49Z"/><circle class="cls-2" cx="86.58" cy="22.53" r="15.07" transform="translate(-2.86 20.58) rotate(-13.34)"/><circle class="cls-2" cx="43.84" cy="91.56" r="34.36" transform="translate(-57.15 101.86) rotate(-70.24)"/><path class="cls-1" d="M43.84,69.56A18.44,18.44,0,0,0,39.74,106v-5.07a13.54,13.54,0,1,1,10.69-1.08v5.4a18.44,18.44,0,0,0-6.59-35.67Z"/><path class="cls-1" d="M49.11,110.2H38.56V98.1a.5.5,0,0,1,.5-.49h9.55a.49.49,0,0,1,.5.49Z"/><path class="cls-1" d="M46.09,83.4H35.44a.54.54,0,0,0-.54.54v2.33a.54.54,0,0,0,.54.54h8.67Z"/><path class="cls-1" d="M50,83.4l-2,3.41h4.17a.54.54,0,0,0,.54-.54V83.94a.54.54,0,0,0-.54-.54Z"/><path class="cls-1" d="M46.68,89.2l-2,3.41h7.52a.54.54,0,0,0,.54-.54V89.74a.54.54,0,0,0-.54-.54Z"/><path class="cls-1" d="M42.74,89.2h-7.3a.54.54,0,0,0-.54.54v2.33a.54.54,0,0,0,.54.54h5.33Z"/><rect class="cls-1" x="34.9" y="86.3" width="17.87" height="3.42" rx="0.32" transform="translate(-54.3 81.97) rotate(-60)"/><path class="cls-1" d="M44.93,116.48l6.88-6.22a.49.49,0,0,0-.33-.86H36.2a.49.49,0,0,0-.34.86l6.88,6.22A1.64,1.64,0,0,0,44.93,116.48Z"/><path class="cls-1" d="M81.87,29.5V18.75a2,2,0,0,1-.78.55,2.27,2.27,0,0,1-.94.21V17.29a3.5,3.5,0,0,0,.9-.27,3.63,3.63,0,0,0,.9-.58,2.56,2.56,0,0,0,.64-.89h2.24v14Z"/><path class="cls-1" d="M89.32,29.63a3.63,3.63,0,0,1-2.73-1,4,4,0,0,1-1-2.86V19.49a4.44,4.44,0,0,1,.91-3,3.51,3.51,0,0,1,2.78-1.05,3.47,3.47,0,0,1,2.78,1.05,4.44,4.44,0,0,1,.91,3v6.29a4,4,0,0,1-1,2.86A3.64,3.64,0,0,1,89.32,29.63Zm0-2.57a.57.57,0,0,0,.51-.29,1.26,1.26,0,0,0,.18-.66V19.22a2.81,2.81,0,0,0-.11-.86.53.53,0,0,0-.58-.37.54.54,0,0,0-.58.37,3.15,3.15,0,0,0-.11.86v6.89a1.27,1.27,0,0,0,.19.66A.57.57,0,0,0,89.32,27.06Z"/></g></g></svg>