<svg xmlns="http://www.w3.org/2000/svg" viewBox="0 0 173.96 173.97"><defs><style>.cls-1{fill:#c98b5f;}</style></defs><g id="Capa_2" data-name="Capa 2"><g id="Capa_1-2" data-name="Capa 1"><path class="cls-1" d="M158.51,135.19c4.45-4.45,9.05-9,13.61-13.55a5.33,5.33,0,0,0,1.84-4.3c-.09-7.09-.07-14.3-.06-21.27,0-2.58,0-5.17,0-7.75V78.07q0-19.9,0-39.82c0-.28,0-.55,0-.83a4.27,4.27,0,0,0,0-.87s-.23-.07-.74-.11c-7.61-.52-14.58,1.78-19.64,6.49a25.52,25.52,0,0,0-7.82,18.9c0,4.63,0,9.26,0,14v8.44L144,84c-8.51-1.34-11.9-.52-16.46,4q-8.28,8.23-16.54,16.51-8,8-16,15.93a4,4,0,0,0-1.43,3.14c.06,16.14.06,32.64,0,49.05,0,.94.1,1.17.13,1.2h0a2.75,2.75,0,0,0,1,.12q11.75-.07,23.52-.07c7.86,0,15.7,0,23.46.07a2.32,2.32,0,0,0,1-.13,4.39,4.39,0,0,0,.08-1.18c0-2.92,0-5.88,0-8.75,0-3.13,0-6.37,0-9.55a7.52,7.52,0,0,1,2.46-5.9C149.66,144.05,154.16,139.54,158.51,135.19Zm-24.33,29.89c-1.39,1.42-3.55,1.42-7.87,1.42h-5.74c-4.88,0-9.93,0-14.88,0h-.23a4.42,4.42,0,0,1-3.25-1,4.52,4.52,0,0,1-1.09-3.25V162c0-4.05-.06-6.08,1.29-7.45s3.46-1.37,7.63-1.37h12c3,0,6.19,0,9.27,0a4.06,4.06,0,0,1,3,.89,4.29,4.29,0,0,1,1.08,3.15v.19C135.5,161.56,135.55,163.67,134.18,165.08ZM140,143.16a8,8,0,0,1-6.2,2.62c-8.71-.11-18.08-.18-27.56,0h-.32a5,5,0,0,1-3.72-1.21,5.22,5.22,0,0,1-1.07-4.08c.22-4,.14-8.12,0-12.3a7.14,7.14,0,0,1,2.28-5.66c6.23-6.17,12.54-12.47,18.64-18.57L132.26,93.8c3.68-3.67,8.08-4.06,11.21-1a6.92,6.92,0,0,1,2.24,4.9,9,9,0,0,1-3,6.31c-6.08,6.16-10.75,10.83-15.16,15.14a3.8,3.8,0,0,0-.51.57,3.07,3.07,0,0,0,.45.55l.15.16c2.15,2.25,3.71,3.87,4.48,3.88s2.45-1.63,4.72-3.91l4.13-4.14c2.53-2.53,5-5.06,7.59-7.59a15.22,15.22,0,0,0,4.62-11.34V89.45c0-9.41,0-19.15,0-28.72,0-7.22,4.27-13,11.32-15.58l2-.72V74.2c0,12.75,0,25.93,0,38.89a7.66,7.66,0,0,1-2.4,5.92C156.31,126.73,148.18,134.86,140,143.16Z"/><path class="cls-1" d="M78.5,174c1.26,0,1.57-.21,1.62-.25s.25-.41.24-1.74c-.1-15.22-.1-30.82,0-47.67A5.5,5.5,0,0,0,78.48,120l-4.14-4.09C65.7,107.35,56.77,98.53,48.2,89.64c-5.66-5.86-11.22-7.55-18-5.48l-1.94.59v-2c0-2.24,0-4.42-.06-6.57C28.1,71.44,28,67,28.3,62.47a24.71,24.71,0,0,0-7.18-18.79A25,25,0,0,0,1.81,36.42C0,36.51,0,36.51,0,38.21.09,61.4.09,86.64,0,117.64a4.67,4.67,0,0,0,1.57,3.73c4.59,4.52,9.22,9.15,13.69,13.63s9,9,13.47,13.42a7.53,7.53,0,0,1,2.48,5.89c-.05,2.66,0,5.37,0,8,0,3.27,0,6.64-.08,10,0,1.23.16,1.45.17,1.46s.23.23,1.6.22c8.08-.07,15.76-.1,23.13-.1C63.82,173.86,71.27,173.9,78.5,174Zm-69-55.31a6.86,6.86,0,0,1-2.06-5.36c0-8,0-16.18,0-24.07V74.51q0-12.37,0-24.73a5,5,0,0,0-.07-.64c-.12-.93-.36-2.67,1.25-3.54,1.76-1,3.34.26,4.19.92l.43.32a16.49,16.49,0,0,1,7.51,14v3.78c0,10.42.07,21.19,0,31.79a16.83,16.83,0,0,0,5.44,13.07c5,4.79,9.91,9.79,14.93,14.91a3.06,3.06,0,0,0,.58.52,2.86,2.86,0,0,0,.53-.43l.16-.15c2.26-2.16,3.9-3.72,3.9-4.5s-1.63-2.44-3.91-4.71l-3.51-3.5q-3.87-3.85-7.72-7.75c-3.57-3.63-3.89-7.71-.86-10.92a6.8,6.8,0,0,1,4.91-2.23h.1a9,9,0,0,1,6.23,2.89q6.57,6.54,13.13,13.11,8,8,15.94,15.9a6.56,6.56,0,0,1,2.2,5c-.1,4.58-.11,9.2,0,13.74a4.41,4.41,0,0,1-1,3.37,4.19,4.19,0,0,1-3,1h-.12c-10.22-.12-20.49-.07-29.31,0a6.13,6.13,0,0,1-4.71-2C26.68,135.77,18.13,127.19,9.49,118.66Zm33.35,47.88h-.19a4.17,4.17,0,0,1-3-1,4.46,4.46,0,0,1-1.06-3.24v-.24c0-4.12-.09-6.19,1.27-7.57s3.45-1.38,7.61-1.38h12c3,0,6.19,0,9.27,0a4,4,0,0,1,3.11,1,4.42,4.42,0,0,1,1,3v.2c.13,4.24.19,6.36-1.19,7.78s-3.54,1.42-7.84,1.42H58C53,166.48,47.87,166.46,42.84,166.54Z"/><path class="cls-1" d="M122,68.51a18,18,0,0,1,0-2.31c0-.32,0-.63,0-1a14.4,14.4,0,0,0-.13-2.74,15,15,0,0,0-2.9-.14H104.4q-17.57,0-35.13,0c-6,0-10.18-3-11.74-8.46a4.1,4.1,0,0,1,.26-3.68C58.63,49.1,60.07,49,61.37,49c7.14.08,14.42.06,21.45.05H98.63c7,0,14.27,0,21.41.06,1.32,0,1.67-.15,1.77-.25s.28-.34.26-1.6c-.16-10.82-.16-22.23,0-34.9,0-1.3-.17-1.63-.24-1.71s-.36-.24-1.66-.26c-17.34.11-35,.09-52,.07H59.74c-.66,0-1.38.05-2.14.11-2.28.17-4.65.34-6.41-.86-2-1.38-2.14-4-2.23-6.39a20.91,20.91,0,0,0-.15-2.09C48.66.09,48.52,0,47.44,0c-3.63.1-7.32.08-10.89.06H32.22c-3,0-5.4,0-5.91.53s-.39,2.87-.26,5.82v.19a2.7,2.7,0,0,0,.14.86s.17,0,.58,0H27c1.7-.05,3.41,0,5.07,0,2,0,4,0,5.95-.06,3-.13,4.51,1.14,5,4.28,2.38,15.25,5,30.52,6.94,42.12.85,5,3.21,11.33,9.61,13.55,5,1.75,10,4.64,8.19,12.78,0,0,0,.07,0,.09a3.19,3.19,0,0,0,.67.11c3.19.29,5.65.52,6.2,0s.52-3.11.49-5.87a4.78,4.78,0,0,1,1.1-3.6A5,5,0,0,1,80,69.8c4.76.1,9.61.08,14.31.06H100c8.37,0,9.06.68,9.26,9.1v.14a6.06,6.06,0,0,1,0,.74,2,2,0,0,0,0,.39,2.5,2.5,0,0,0,.58.11c2.71.31,5.52.62,6.17,0s.67-3.23.7-5.81v-.25a1.61,1.61,0,0,0,0-.22,3.42,3.42,0,0,1,4.25-4.22c.7.1,1,0,1,0S122.13,69.58,122,68.51ZM97.9,18.87a4.3,4.3,0,0,1,3.6-1.07,80.17,80.17,0,0,0,8.77,0,4.15,4.15,0,0,1,3.3,1,4.32,4.32,0,0,1,1,3.38c-.1,1.79-.08,3.64,0,5.43,0,.8,0,1.6,0,2.4V31.7c0,5.06,0,7.59-1.65,9.09-.95.87-2.2,1.16-4.07,1.16-1.37,0-3.08-.16-5.24-.36h-.1a3.42,3.42,0,0,1-3.5-3.26c-.78-5.08-1.68-10.42-2.69-15.86A4.18,4.18,0,0,1,97.9,18.87ZM77,19a4.06,4.06,0,0,1,3.17-1.18h.23c8.18-.22,8.84.35,10.08,8.59.14,1,.27,1.95.4,2.92a50.61,50.61,0,0,0,1.24,7.09c.34,1.22.66,3-.38,4.19a3.6,3.6,0,0,1-2.87,1.07,11.34,11.34,0,0,1-1.3-.08,7.53,7.53,0,0,0-1,0H86c-5.89,0-6.52-.54-7.41-6.42V35c-.72-4.76-1.41-9-2.12-12.87A3.89,3.89,0,0,1,77,19ZM54.19,33.68c-.32-1.76-.6-3.53-.88-5.3-.34-2.16-.69-4.39-1.12-6.55a3.57,3.57,0,0,1,.47-3.07,3.39,3.39,0,0,1,2.83-1c2.79.09,6,.17,9.17,0,3.53-.2,4,2.56,4.17,3.6L69.26,24c.75,4.59,1.52,9.33,2.36,14a3.11,3.11,0,0,1-.49,2.69,3,3,0,0,1-2.32.89h-.25c-1.18,0-2.37,0-3.56,0H63.43v0h-.17C56.12,41.55,55.52,41,54.19,33.68Z"/></g></g></svg>