<svg xmlns="http://www.w3.org/2000/svg" xmlns:xlink="http://www.w3.org/1999/xlink" viewBox="0 0 254.84 200.54"><defs><style>.cls-1{isolation:isolate;}.cls-2,.cls-26{fill:#fff;}.cls-15,.cls-16,.cls-2{mix-blend-mode:soft-light;}.cls-3{fill:#e6e6e7;}.cls-23,.cls-3,.cls-8{mix-blend-mode:multiply;}.cls-4{fill:#af9e7d;}.cls-5{fill:#fdce75;}.cls-6{fill:#f1883c;}.cls-7{fill:#cee9ed;}.cls-8{fill:url(#Degradado_sin_nombre_93);}.cls-17,.cls-9{fill:#f2f7ed;}.cls-10{fill:#d1702b;}.cls-11{fill:#b2dde2;}.cls-12{fill:#b15517;}.cls-13{fill:#b2b095;}.cls-14{fill:#6c2910;}.cls-15{fill:#64b0e0;}.cls-16{fill:url(#Degradado_sin_nombre_40);}.cls-17{opacity:0.8;}.cls-18,.cls-23{fill:#a9d9db;}.cls-19{fill:#4b3c32;}.cls-20{fill:#7f7f74;}.cls-21{fill:#f4f3e4;}.cls-22{fill:#c3ac7f;}.cls-24{fill:#c88a5e;}.cls-25{fill:#e8d0bc;}.cls-27{fill:url(#Degradado_sin_nombre_94);}.cls-28{fill:url(#Degradado_sin_nombre_93-2);}.cls-29{fill:url(#Degradado_sin_nombre_93-3);}</style><linearGradient id="Degradado_sin_nombre_93" x1="128.75" y1="177.11" x2="128.75" y2="39.07" gradientUnits="userSpaceOnUse"><stop offset="0.37" stop-color="#54acdc"/><stop offset="0.59" stop-color="#7dc1e0" stop-opacity="0.96"/><stop offset="0.86" stop-color="#aad8e5" stop-opacity="0.92"/><stop offset="1" stop-color="#bbe1e7" stop-opacity="0.9"/></linearGradient><linearGradient id="Degradado_sin_nombre_40" x1="202.97" y1="81.19" x2="202.97" y2="115.37" gradientUnits="userSpaceOnUse"><stop offset="0" stop-color="#94d5f7" stop-opacity="0.3"/><stop offset="0.56" stop-color="#94d5f7" stop-opacity="0.69"/><stop offset="1" stop-color="#7ec2ec"/></linearGradient><linearGradient id="Degradado_sin_nombre_94" x1="128.03" y1="147.49" x2="128.03" y2="118.78" gradientUnits="userSpaceOnUse"><stop offset="0.3" stop-color="#54acdc"/><stop offset="0.54" stop-color="#7dc1e0" stop-opacity="0.96"/><stop offset="0.84" stop-color="#aad8e5" stop-opacity="0.92"/><stop offset="1" stop-color="#bbe1e7" stop-opacity="0.9"/></linearGradient><linearGradient id="Degradado_sin_nombre_93-2" x1="89.07" y1="141.83" x2="89.07" y2="122.7" xlink:href="#Degradado_sin_nombre_93"/><linearGradient id="Degradado_sin_nombre_93-3" x1="61.56" y1="141.83" x2="61.56" y2="116.6" xlink:href="#Degradado_sin_nombre_93"/></defs><g class="cls-1"><g id="Capa_2" data-name="Capa 2"><g id="Capa_1-2" data-name="Capa 1"><path class="cls-2" d="M46.05,168.94a27.57,27.57,0,0,1-12.22-2.81,84.71,84.71,0,0,1-8.48-4.78c-16.49-10.85-30-29.73-23.81-49.21,3.71-11.6,13.88-18.33,23.58-25.26,3.43-2.46,6.65-5.6,6.24-10s-3.73-8.46-5.67-12.47a54.38,54.38,0,0,1-4.61-13.74c-2.22-12,.62-24.88,9.17-34.2,7.51-8.19,19.3-13.8,31.42-14.79A44.72,44.72,0,0,1,80.32,4.22c12.1,4.3,21.51,12.33,31.6,19.21a99.43,99.43,0,0,0,35.65,15.24A112.86,112.86,0,0,0,167,41c11.32.39,22.64-1.61,33.92.14,15.06,2.35,30,9.52,40.21,20.48s12.54,26.74,8.15,40.5c-2,6.29-5.26,12.11-4.61,18.87a27.6,27.6,0,0,0,4,11.63c2.86,4.7,6.3,9.39,6.15,15.07,0,.33,0,.66-.05,1-.85,11.47-12,20.25-25,20.25Z"/><path class="cls-3" d="M132.22,200.35,37,181.89c-1-.2-.27-.49,1.69-.64l63.85-1.11a44.17,44.17,0,0,1,5.45.1L200.22,192c1,.2.27.48-1.69.63l-60.86,7.86A26.53,26.53,0,0,1,132.22,200.35Z"/><path class="cls-4" d="M49.13,56.41v0l-1.32.21C30.55,59.74,18.68,74.22,21.32,89a23.47,23.47,0,0,0,3.57,8.88,27.22,27.22,0,0,1,1.88,26,28.45,28.45,0,0,0-2.07,16.57c3.12,17.44,22.19,28.61,42.58,25,.89-.16,1.76-.34,2.62-.56l8-1.43-.22-1.24L58.73,56.33l-.29-1.58Z"/><path class="cls-5" d="M101.51,110.5a27.21,27.21,0,0,1-7.26-25.06,23.63,23.63,0,0,0,.26-9.56C91.87,61.12,75.72,51.65,58.45,54.75S29.3,72.31,32,87.08A23.61,23.61,0,0,0,35.51,96a27.19,27.19,0,0,1,1.88,26,28.37,28.37,0,0,0-2.07,16.57c3.12,17.44,22.19,28.61,42.59,25s34.41-20.75,31.29-38.18A28.46,28.46,0,0,0,101.51,110.5Z"/><path class="cls-4" d="M44.61,78.18c-2,.34-3.17,2.61-2.73,5.06s2.37,4.16,4.32,3.81,3.16-2.61,2.72-5.07S46.55,77.83,44.61,78.18Zm1.51,8.45c-1.54.28-3.06-1.07-3.41-3s.62-3.74,2.15-4,3.07,1.07,3.41,3S47.66,86.36,46.12,86.63Z"/><path class="cls-4" d="M73.52,67.76c-1.53.27-2.5,2.06-2.15,4s1.87,3.28,3.41,3,2.5-2.07,2.15-4S75.06,67.48,73.52,67.76Zm1.2,6.67a2.88,2.88,0,1,1,1.7-3.16A2.56,2.56,0,0,1,74.72,74.43Z"/><path class="cls-4" d="M87.17,75a2.85,2.85,0,1,0,2.66,2.34A2.53,2.53,0,0,0,87.17,75Zm.93,5.21a2.25,2.25,0,1,1,1.33-2.47A2,2,0,0,1,88.1,80.21Z"/><path class="cls-4" d="M82.34,63.79A1.8,1.8,0,0,0,83,67.24a1.59,1.59,0,0,0,1.06-2A1.61,1.61,0,0,0,82.34,63.79Zm.58,3.29a1.42,1.42,0,1,1,.84-1.56A1.26,1.26,0,0,1,82.92,67.08Z"/><path class="cls-4" d="M59,75.72c-1.54.28-3.06-1.07-3.41-3s.62-3.73,2.15-4,3.06,1.07,3.41,3S60.48,75.45,59,75.72Z"/><path class="cls-4" d="M70,83.22a2.35,2.35,0,1,1,1.38-2.58A2.1,2.1,0,0,1,70,83.22Z"/><path class="cls-4" d="M47.88,72.27a2.35,2.35,0,0,1-.81-4.51,2.35,2.35,0,0,1,.81,4.51Z"/><path class="cls-4" d="M66.5,64.8a2.35,2.35,0,1,1,1.39-2.57A2.09,2.09,0,0,1,66.5,64.8Z"/><path class="cls-4" d="M53.74,101.15c.35,1.94,1.88,3.28,3.41,3s2.5-2.07,2.16-4-1.88-3.28-3.41-3S53.4,99.21,53.74,101.15Zm.66.3a2.57,2.57,0,0,1,1.7-3.16,2.89,2.89,0,0,1,1,5.54A2.58,2.58,0,0,1,54.4,101.45Z"/><path class="cls-4" d="M85.93,102c.35,1.94,1.87,3.28,3.41,3s2.5-2.07,2.15-4-1.87-3.28-3.41-3S85.58,100,85.93,102Zm.66.3a2.29,2.29,0,1,1,2.69,2.38A2.56,2.56,0,0,1,86.59,102.25Z"/><path class="cls-4" d="M43.93,111.79a2.53,2.53,0,0,0,2.66,2.35,2.85,2.85,0,0,0-1-5.47A2.54,2.54,0,0,0,43.93,111.79Zm.51.24a2,2,0,0,1,1.33-2.47,2.25,2.25,0,0,1,.77,4.32A2,2,0,0,1,44.44,112Z"/><path class="cls-4" d="M45.19,98.46a1.62,1.62,0,0,0,1.68,1.48,1.8,1.8,0,1,0-1.68-1.48Zm.33.14a1.13,1.13,0,1,1,1.32,1.17A1.25,1.25,0,0,1,45.52,98.6Z"/><path class="cls-4" d="M68.92,96.56c-.35-1.94.62-3.74,2.15-4s3.07,1.07,3.41,3-.62,3.73-2.15,4S69.27,98.49,68.92,96.56Z"/><path class="cls-6" d="M62.35,108.5a1.87,1.87,0,1,1,2.2,1.93A2.1,2.1,0,0,1,62.35,108.5Z"/><path class="cls-4" d="M81.1,90.23a1.87,1.87,0,1,1,2.19,1.94A2.1,2.1,0,0,1,81.1,90.23Z"/><path class="cls-4" d="M59.26,90a1.87,1.87,0,1,1,2.2,1.93A2.1,2.1,0,0,1,59.26,90Z"/><path class="cls-6" d="M53.35,127c-1.94.35-3.17,2.62-2.73,5.07s2.38,4.16,4.32,3.81,3.17-2.62,2.73-5.07S55.3,126.69,53.35,127Zm1.51,8.46c-1.53.27-3.06-1.08-3.4-3s.61-3.73,2.15-4,3.06,1.08,3.41,3S56.4,135.22,54.86,135.5Z"/><path class="cls-6" d="M82.27,116.62c-1.54.28-2.5,2.07-2.16,4s1.87,3.29,3.41,3,2.5-2.06,2.15-4S83.8,116.35,82.27,116.62Zm1.19,6.68a2.89,2.89,0,1,1,1.7-3.16A2.57,2.57,0,0,1,83.46,123.3Z"/><path class="cls-6" d="M93.74,124.25a2.85,2.85,0,1,0,2.66,2.35A2.55,2.55,0,0,0,93.74,124.25Zm.94,5.21A2.26,2.26,0,1,1,96,127,2,2,0,0,1,94.68,129.46Z"/><path class="cls-6" d="M91.08,112.66a1.8,1.8,0,1,0,1.68,1.48A1.6,1.6,0,0,0,91.08,112.66Zm.59,3.29a1.42,1.42,0,1,1,.84-1.56A1.28,1.28,0,0,1,91.67,116Z"/><path class="cls-4" d="M79.84,103a1.8,1.8,0,1,0,1.67,1.48A1.61,1.61,0,0,0,79.84,103Zm.58,3.29a1.42,1.42,0,1,1,.84-1.56A1.26,1.26,0,0,1,80.42,106.33Z"/><path class="cls-6" d="M67.69,124.59c-1.53.27-3.06-1.08-3.41-3s.62-3.73,2.16-4,3.06,1.07,3.41,3S69.23,124.31,67.69,124.59Z"/><path class="cls-6" d="M76.88,131.81a2.35,2.35,0,1,1,1.38-2.57A2.09,2.09,0,0,1,76.88,131.81Z"/><path class="cls-4" d="M56.62,121.13a2.35,2.35,0,0,1-.8-4.51,2.35,2.35,0,0,1,.8,4.51Z"/><path class="cls-6" d="M75.25,113.67a2.35,2.35,0,1,1,1.38-2.58A2.1,2.1,0,0,1,75.25,113.67Z"/><path class="cls-6" d="M61.3,150.23c.35,1.93,1.87,3.28,3.41,3s2.5-2.07,2.15-4-1.87-3.28-3.4-3S61,148.29,61.3,150.23Zm.66.3a2.59,2.59,0,0,1,1.7-3.17,2.89,2.89,0,0,1,1,5.54A2.56,2.56,0,0,1,62,150.53Z"/><path class="cls-6" d="M86.54,148.87c.35,1.94,1.88,3.28,3.41,3s2.5-2.07,2.15-4-1.87-3.28-3.4-3S86.2,146.93,86.54,148.87Zm.66.3a2.29,2.29,0,1,1,2.69,2.37A2.59,2.59,0,0,1,87.2,149.17Z"/><path class="cls-6" d="M98.08,137.13A2.26,2.26,0,1,0,99.76,134,2.53,2.53,0,0,0,98.08,137.13Zm.51.23a1.79,1.79,0,1,1,2.1,1.86A2,2,0,0,1,98.59,137.36Z"/><path class="cls-6" d="M53.62,145.54a1.43,1.43,0,1,0,1.06-2A1.61,1.61,0,0,0,53.62,145.54Zm.32.15a1.13,1.13,0,1,1,1.33,1.17A1.28,1.28,0,0,1,53.94,145.69Z"/><path class="cls-6" d="M76.72,142.41c-.35-1.93.61-3.73,2.15-4s3.06,1.07,3.41,3-.62,3.73-2.16,4S77.06,144.35,76.72,142.41Z"/><path class="cls-6" d="M42.13,140.36c-.35-1.94.62-3.73,2.15-4s3.07,1.08,3.41,3-.62,3.73-2.15,4S42.48,142.29,42.13,140.36Z"/><path class="cls-6" d="M72.56,155.27a1.87,1.87,0,1,1,2.19,1.93A2.11,2.11,0,0,1,72.56,155.27Z"/><path class="cls-6" d="M87.86,135.29a1.87,1.87,0,1,1,2.2,1.93A2.1,2.1,0,0,1,87.86,135.29Z"/><path class="cls-6" d="M64.62,137A1.87,1.87,0,1,1,66.81,139,2.11,2.11,0,0,1,64.62,137Z"/><path class="cls-4" d="M42.52,124.55A2.11,2.11,0,0,1,43.9,122a2.36,2.36,0,0,1,.81,4.52A2.1,2.1,0,0,1,42.52,124.55Z"/><path class="cls-6" d="M97.55,118.29a1.87,1.87,0,1,1,2.19,1.94A2.1,2.1,0,0,1,97.55,118.29Z"/><path class="cls-7" d="M107.78,168.94h41.94a10.68,10.68,0,0,0,10.69-10.69V141.53A457.07,457.07,0,0,0,149.8,43.58h0a5.13,5.13,0,0,0-5-4H122.17a5.14,5.14,0,0,0-4.31,2.34h0c-.15.24-.29.48-.43.72a13,13,0,0,0,1.38,14.44l6.32,8a13.34,13.34,0,0,1-4.22,20.09l-9.62,5.08a26.64,26.64,0,0,0-14.2,23.55v44.53A10.69,10.69,0,0,0,107.78,168.94Z"/><path class="cls-8" d="M147.42,44.1A2.72,2.72,0,0,0,144.79,42H122.17a2.68,2.68,0,0,0-2.26,1.23l-.36.59a10.67,10.67,0,0,0,1.16,11.72l6.32,8a15.77,15.77,0,0,1-5,23.76l-9.63,5.08a24.14,24.14,0,0,0-12.89,21.39v44.53a8.27,8.27,0,0,0,8.25,8.26h41.94a8.27,8.27,0,0,0,8.26-8.26V141.53A455.42,455.42,0,0,0,147.42,44.1Zm-27.26,0,.33-.55a2,2,0,0,1,1.68-.92h22.62a2,2,0,0,1,2,1.57q1.88,8.55,3.41,17.16H126.27l-5-6.31A10,10,0,0,1,120.16,44.15Z"/><path class="cls-9" d="M147.43,75a1.62,1.62,0,1,1-2-1A1.62,1.62,0,0,1,147.43,75Z"/><path class="cls-9" d="M149,70.8a1,1,0,1,1-1.2-.62A1,1,0,0,1,149,70.8Z"/><path class="cls-9" d="M128.76,105.78a1.62,1.62,0,1,1-1.86-1.34A1.62,1.62,0,0,1,128.76,105.78Z"/><path class="cls-9" d="M127.88,96.6a1,1,0,1,1-1.09-.79A1,1,0,0,1,127.88,96.6Z"/><path class="cls-9" d="M140.29,115.26a1,1,0,1,1-1.2-.62A1,1,0,0,1,140.29,115.26Z"/><path class="cls-9" d="M134.82,67.45a1.36,1.36,0,1,1,1.35-1.35A1.35,1.35,0,0,1,134.82,67.45Zm0-2.15a.8.8,0,1,0,.8.8A.8.8,0,0,0,134.82,65.3Z"/><path class="cls-9" d="M118.61,101.52a.75.75,0,0,1-.21,0,1.35,1.35,0,1,1,1.55-1.13,1.39,1.39,0,0,1-.54.89A1.36,1.36,0,0,1,118.61,101.52Zm0-2.15a.8.8,0,0,0-.12,1.59.78.78,0,0,0,.59-.15.84.84,0,0,0,.32-.52h0a.8.8,0,0,0-.67-.91Z"/><path class="cls-6" d="M122.87,24.89h22.57a0,0,0,0,1,0,0v9.46a5.2,5.2,0,0,1-5.2,5.2H128.07a5.2,5.2,0,0,1-5.2-5.2V24.89A0,0,0,0,1,122.87,24.89Z" transform="translate(268.3 64.44) rotate(180)"/><path class="cls-10" d="M143.49,37.47a.35.35,0,0,1-.35-.34V27.31a.35.35,0,1,1,.7,0v9.82A.35.35,0,0,1,143.49,37.47Z"/><path class="cls-10" d="M136.16,37.47a.35.35,0,0,1-.35-.34V27.31a.35.35,0,1,1,.7,0v9.82A.35.35,0,0,1,136.16,37.47Z"/><path class="cls-10" d="M139.82,37.47a.35.35,0,0,1-.35-.34V27.31a.35.35,0,1,1,.7,0v9.82A.35.35,0,0,1,139.82,37.47Z"/><path class="cls-10" d="M132.14,37.47a.35.35,0,0,1-.35-.34V27.31a.35.35,0,1,1,.7,0v9.82A.35.35,0,0,1,132.14,37.47Z"/><path class="cls-10" d="M128.48,37.47a.34.34,0,0,0,.35-.34V27.31a.35.35,0,1,0-.69,0v9.82A.34.34,0,0,0,128.48,37.47Z"/><path class="cls-10" d="M124.81,37.47a.35.35,0,0,0,.35-.34V27.31a.35.35,0,1,0-.7,0v9.82A.35.35,0,0,0,124.81,37.47Z"/><path class="cls-11" d="M131.41,24.89h-5.85a19.51,19.51,0,0,0-17.8-14V0h5.86V10.88A19.49,19.49,0,0,1,131.41,24.89Z"/><path class="cls-9" d="M113.62,0V10.88a19.49,19.49,0,0,1,17.79,14h10.47l16.76-7.39a1.33,1.33,0,0,0,.79-1.22V11.6a1.33,1.33,0,0,0-.76-1.2L140,1.53A15.77,15.77,0,0,0,133.21,0Z"/><path class="cls-10" d="M120.84,13.56a8.76,8.76,0,0,0-2.94,6.25v0a18.33,18.33,0,0,1-1.47,6.55,19.06,19.06,0,0,1-4.74,6.6,1,1,0,0,0-.16,1.34l1.26,1.79a1,1,0,0,0,.83.43h-2.16a1,1,0,0,1-.81-.43l-1.27-1.79a1,1,0,0,1,.17-1.34,19.06,19.06,0,0,0,4.74-6.6,18.56,18.56,0,0,0,1.48-6.55v0a8.75,8.75,0,0,1,2.93-6.25Z"/><path class="cls-6" d="M129.21,23.5h-5.64a23.8,23.8,0,0,1-2.36,5.36,23.61,23.61,0,0,1-7,7.52,1.37,1.37,0,0,1-.38.15h-.16a1,1,0,0,1-.83-.43l-1.26-1.79a1,1,0,0,1,.16-1.34,19.06,19.06,0,0,0,4.74-6.6,18.33,18.33,0,0,0,1.47-6.55v0a8.76,8.76,0,0,1,2.94-6.25A19.48,19.48,0,0,1,129.21,23.5Z"/><path class="cls-6" d="M113.62,0V10.88c-.31,0-.62,0-.94,0h-5.84a.92.92,0,0,0,.92-.92v-9a.91.91,0,0,0-.91-.91Z"/><path class="cls-10" d="M98.43.62v9.62a.62.62,0,0,0,.62.62h7.79a.94.94,0,0,0,.93-.94v-9a.91.91,0,0,0-.91-.91H99.05A.62.62,0,0,0,98.43.62Z"/><path class="cls-12" d="M103.73,5.44c0,.82-.47,1.49-1.06,1.49s-1.06-.67-1.06-1.49S102.08,4,102.67,4,103.73,4.62,103.73,5.44Z"/><path class="cls-13" d="M188.49,85.86H234.1l-7.57,78.88a4.62,4.62,0,0,1-4.62,4.2H155.06a4.64,4.64,0,0,1-4.62-4.2l-7.56-78.88Z"/><path class="cls-14" d="M142.88,85.86l.85,9c7.08,1,24.46,1.63,44.76,1.63s37.67-.67,44.75-1.63l.86-9Z"/><path class="cls-13" d="M140.34,82.67V89.9c0,1.72,21.56,3.11,48.15,3.11s48.15-1.39,48.15-3.11V82.65h0c0-1.71-21.55-3.11-48.15-3.11s-48.15,1.4-48.15,3.11Z"/><path class="cls-14" d="M142.38,83.56c6,1.28,24.36,2.21,46.11,2.21s40.13-.93,46.11-2.21c-6-1.29-24.35-2.22-46.11-2.22S148.36,82.27,142.38,83.56Z"/><path class="cls-4" d="M164.92,39.59h0a1.16,1.16,0,0,1-.46,1.57,52.75,52.75,0,0,0-26.83,43.36,1.76,1.76,0,0,0,.5,1.31,1.81,1.81,0,0,0,1.35.58h.86v2.31h-.86a4.15,4.15,0,0,1-3-1.31,4,4,0,0,1-1.12-3,55,55,0,0,1,28-45.24A1.14,1.14,0,0,1,164.92,39.59Z"/><path class="cls-14" d="M162.5,41.12a3.83,3.83,0,0,0,5,1.45,46.87,46.87,0,0,1,41.93,0,3.83,3.83,0,0,0,5-1.45h0a3.82,3.82,0,0,0-1.54-5.38,54.58,54.58,0,0,0-48.89,0,3.82,3.82,0,0,0-1.55,5.38Z"/><path class="cls-15" d="M215,39.16a3.82,3.82,0,0,1-4.55,3.76,3.75,3.75,0,1,1,3-6.84l0,0A3.78,3.78,0,0,1,215,39.16Z"/><path class="cls-4" d="M240.35,87.59a4.32,4.32,0,0,1-3,1.13h-8a1.16,1.16,0,0,1,0-2.31h8.13a1.81,1.81,0,0,0,1.35-.58,1.75,1.75,0,0,0,.49-1.31,52.69,52.69,0,0,0-27.94-44,1.14,1.14,0,0,1-.48-1.58h0a1.15,1.15,0,0,1,1.52-.47,55,55,0,0,1,29.2,45.87A4.08,4.08,0,0,1,240.35,87.59Z"/><path class="cls-16" d="M217.08,85.17v7.24c-7.33.35-16.26.56-26,.6V85.76C200.82,85.73,209.75,85.51,217.08,85.17ZM188.87,96.44v9.62a4.33,4.33,0,1,0,8.65,0v-4.4a4.34,4.34,0,0,1,4.33-4.33,4.28,4.28,0,0,1,3.05,1.28,4.33,4.33,0,0,1,1.27,3v12a4.33,4.33,0,1,0,8.65,0V96C207.35,96.28,198.44,96.43,188.87,96.44Zm0-3.43v3.43c9.57,0,18.48-.16,25.95-.42V92.51C207.35,92.82,198.45,93,188.87,93Z"/><path class="cls-17" d="M209.78,116.19c.36.63,1.42.7,2.37.15s1.42-1.5,1.06-2.13-1.42-.69-2.37-.14S209.42,115.57,209.78,116.19Z"/><path class="cls-17" d="M192.49,108.52c.33.56,1.28.62,2.14.13s1.27-1.35,1-1.91-1.28-.62-2.13-.13S192.17,108,192.49,108.52Z"/><path class="cls-9" d="M44.45,134.53a3.43,3.43,0,1,1-.82-4.78A3.44,3.44,0,0,1,44.45,134.53Z"/><path class="cls-18" d="M44.44,134.53a3.42,3.42,0,0,1-6.21-2.28,3.41,3.41,0,0,0,5.79.32,3.39,3.39,0,0,0,.62-1.69A3.43,3.43,0,0,1,44.44,134.53Z"/><circle class="cls-9" cx="73.4" cy="111.23" r="3.43" transform="translate(-5.99 4.19) rotate(-3.15)"/><path class="cls-18" d="M76.54,112.61a1.42,1.42,0,0,0-.08.18A3.43,3.43,0,1,1,72,108.12a3.43,3.43,0,0,0,4.57,4.49Z"/><path class="cls-9" d="M107.67,109.28a3.5,3.5,0,1,1-4.51-2A3.5,3.5,0,0,1,107.67,109.28Z"/><path class="cls-18" d="M107.67,109.28a3.5,3.5,0,1,1-6.56,2.45,3.14,3.14,0,0,1-.17-.67,3.49,3.49,0,0,0,6.42-2.4A3.26,3.26,0,0,1,107.67,109.28Z"/><circle class="cls-9" cx="59.9" cy="112.77" r="4.44"/><path class="cls-18" d="M64.34,112.77A4.44,4.44,0,0,1,56.07,115a4.27,4.27,0,0,0,1.92.44,4.43,4.43,0,0,0,3.82-6.69A4.46,4.46,0,0,1,64.34,112.77Z"/><path class="cls-19" d="M116.45,158.7H113c-3.22,0-6.12,2.06-8.23,5.4a24.58,24.58,0,0,0-3.39,12.46l-2.52.21c.3-10.86,6-19.52,12.88-19.52A8.86,8.86,0,0,1,116.45,158.7Z"/><path class="cls-19" d="M113,195.61h10.36c6.43,0,11.64-8.27,11.64-18.46s-5.21-18.45-11.64-18.45H113Z"/><ellipse class="cls-20" cx="112.95" cy="177.15" rx="11.63" ry="18.45"/><ellipse class="cls-21" cx="112.4" cy="177.15" rx="7.65" ry="12.14"/><path class="cls-22" d="M119.43,172.37c-1.35-3.42-3.75-5.69-6.48-5.69-4.23,0-7.65,5.44-7.65,12.14a18.31,18.31,0,0,0,.62,4.79,17.46,17.46,0,0,1-1.17-6.46c0-6.7,3.42-12.13,7.65-12.13C115.55,165,118.26,168,119.43,172.37Z"/><ellipse class="cls-22" cx="112.95" cy="177.15" rx="2.78" ry="4.42"/><path class="cls-23" d="M115.73,177.15c0,2.44-1.24,4.42-2.78,4.42-1.32,0-2.42-1.45-2.71-3.39.48,1.36,1.39,2.28,2.44,2.28,1.54,0,2.79-2,2.79-4.42a6.8,6.8,0,0,0-.08-1A6.47,6.47,0,0,1,115.73,177.15Z"/><path class="cls-19" d="M52.16,151.71H48.93c-4.79,0-8.76,5.45-9.59,12.65l-1.12.15c.72-7.88,5-13.94,10.17-13.94A7.08,7.08,0,0,1,52.16,151.71Z"/><path class="cls-19" d="M48.93,182.66h8.69c5.39,0,9.75-6.93,9.75-15.48S63,151.7,57.62,151.7H48.93Z"/><ellipse class="cls-20" cx="48.93" cy="167.18" rx="9.76" ry="15.48"/><ellipse class="cls-21" cx="48.46" cy="167.18" rx="6.42" ry="10.18"/><path class="cls-22" d="M54.36,163.17c-1.13-2.86-3.14-4.77-5.43-4.77-3.55,0-6.42,4.56-6.42,10.18a15.69,15.69,0,0,0,.52,4,14.66,14.66,0,0,1-1-5.42c0-5.62,2.87-10.17,6.41-10.17C51.11,157,53.38,159.54,54.36,163.17Z"/><ellipse class="cls-22" cx="48.93" cy="167.18" rx="2.34" ry="3.71"/><path class="cls-23" d="M51.26,167.18c0,2-1,3.71-2.33,3.71-1.11,0-2-1.22-2.28-2.85.4,1.15,1.17,1.92,2.05,1.92C50,170,51,168.3,51,166.25a6,6,0,0,0-.07-.86A5.6,5.6,0,0,1,51.26,167.18Z"/><path class="cls-19" d="M182.39,154.61h-10c-6.23,0-11.28,8-11.28,17.89s5.05,17.9,11.28,17.9h10c6.23,0,11.28-8,11.28-17.9S188.62,154.61,182.39,154.61Z"/><ellipse class="cls-20" cx="171.81" cy="172.5" rx="7.42" ry="11.77"/><path class="cls-24" d="M199.6,173.68a5.63,5.63,0,0,1-5.14,5.82l-52.26,4.67a19.4,19.4,0,0,1-5.38-.26l-12.47-2.34a32.41,32.41,0,0,0,.23-3.86c0-11.3-5.77-20.46-12.89-20.46-6.93,0-12.58,8.66-12.88,19.52L58.58,169.2c.07-.75.1-1.52.1-2.3,0-9-4.6-16.33-10.29-16.33-5.16,0-9.45,6.06-10.17,13.94a5.34,5.34,0,0,1-1.7-3.9V138.54a3.41,3.41,0,0,1,2.41-3.26L49.65,132l4.88-9.35c4.51-8.87,6.7-9.86,21.18-9.86l52.64.36a22.2,22.2,0,0,1,14.52,5.56l23.23,20.52,28.36,12.52a7.51,7.51,0,0,1,4.54,6.45c.17,2.7.26,5.65.28,6.23Z"/><path class="cls-20" d="M199.6,173.68a5.63,5.63,0,0,1-5.14,5.82l-52.26,4.67a19.4,19.4,0,0,1-5.38-.26l-4.45-.83v-4.85a1.56,1.56,0,0,1,1.74-1.55l6.33.72,59.13-4.59Z"/><path class="cls-14" d="M198.82,176.76a5.63,5.63,0,0,1-1.25,1.46l-.2.16a6.52,6.52,0,0,1-.88.55l-.21.1-.26.11-.47.16-.11,0-.3.07-.22,0a3.62,3.62,0,0,1-.46.06l-52.26,4.67a19.4,19.4,0,0,1-5.38-.26l-4.45-.83v-2.71l8.07.91Z"/><path class="cls-25" d="M183.38,171.35,160.51,173a5.7,5.7,0,0,1-6.12-5.5l-.23-6.65,32.39-1.65.3,8.28A3.74,3.74,0,0,1,183.38,171.35Z"/><polygon class="cls-14" points="186.66 162.35 154.28 164.45 154.24 162.97 186.61 160.86 186.66 162.35"/><polygon class="cls-14" points="186.78 165.67 154.4 167.77 154.39 167.51 154.35 166.3 186.73 164.19 186.78 165.67"/><path class="cls-14" d="M186.85,167.52a3.78,3.78,0,0,1-.28,1.5l-30.82,2a5.54,5.54,0,0,1-.89-1.43Z"/><path class="cls-26" d="M151,169.53l-6.52.37a4.54,4.54,0,0,1-4.88-4.55v-.91a1.41,1.41,0,0,1,1.32-1.37l6.52-.37a4.53,4.53,0,0,1,4.88,4.55v.9A1.41,1.41,0,0,1,151,169.53Z"/><path class="cls-5" d="M146.05,166a2.22,2.22,0,0,1-2.1,2.18,1.92,1.92,0,0,1-2.08-1.94,2.23,2.23,0,0,1,2.09-2.19A1.94,1.94,0,0,1,146.05,166Z"/><ellipse class="cls-5" cx="148.73" cy="166.54" rx="1.62" ry="1.52" transform="translate(-72.13 133.69) rotate(-39.77)"/><path class="cls-26" d="M189.53,167.29l5.51-.43a4.55,4.55,0,0,0,4.14-4.45v-.77a1,1,0,0,0-1.12-1l-5.51.43a4.57,4.57,0,0,0-4.14,4.46v.77A1,1,0,0,0,189.53,167.29Z"/><path class="cls-5" d="M193.71,163.71a1.62,1.62,0,0,0,1.77,1.63,2,2,0,0,0,1.77-1.91,1.61,1.61,0,0,0-1.77-1.63A2,2,0,0,0,193.71,163.71Z"/><path class="cls-5" d="M190.11,164.58a1.22,1.22,0,0,0,1.34,1.23,1.46,1.46,0,0,0,1.33-1.44,1.22,1.22,0,0,0-1.33-1.23A1.47,1.47,0,0,0,190.11,164.58Z"/><path class="cls-27" d="M96.34,119.44l41.95-.51a2.91,2.91,0,0,1,1.93.69L160,136.37a.92.92,0,0,1-.57,1.62l-41,1a3.18,3.18,0,0,1-2.15-.76L96,120.45A.58.58,0,0,1,96.34,119.44Z"/><path class="cls-9" d="M151.94,138.17l-18.15.43-33.11-14L96,120.45a.58.58,0,0,1,.37-1l11.09-.14Z"/><path class="cls-9" d="M159.39,138l-1.45,0-44.35-18.79,11.59-.14,28.8,12.2,6,5.08A.92.92,0,0,1,159.39,138Z"/><path class="cls-28" d="M105.81,139l-33.47-4.15.43-15.6,13.66.36a4.22,4.22,0,0,1,3,1.36Z"/><polygon class="cls-9" points="88.8 136.88 81.91 136.02 73.33 119.26 79.88 119.43 88.8 136.88"/><polygon class="cls-9" points="95.37 137.69 91.08 137.16 82.04 119.49 86.12 119.59 95.37 137.69"/><path class="cls-29" d="M62.74,119l7.11.19-.41,15.31-16.17-2,5.66-11.21A4.16,4.16,0,0,1,62.74,119Z"/><path class="cls-9" d="M66.57,134.12l-6.27-.78L56.54,126l2.39-4.74a4,4,0,0,1,.61-.9Z"/><path class="cls-9" d="M69.59,129.05l-.15,5.43-.79-.1-7.69-15a4.13,4.13,0,0,1,1.78-.35l1.72,0Z"/><path class="cls-20" d="M97,138.57h-7.9a2.86,2.86,0,0,1-2.72-2h0A2.84,2.84,0,0,1,87,133.8l.89-1a2.6,2.6,0,0,1,1.91-.84H97.6a1.62,1.62,0,0,1,1.62,1.62v2.84l3.53,3.5a1.31,1.31,0,0,1,.13,1.72h0a1.32,1.32,0,0,1-1,.52h-.67a1.31,1.31,0,0,1-.93-.39Z"/><path class="cls-14" d="M102.88,141.66a1.32,1.32,0,0,1-1,.52h-.67a1.31,1.31,0,0,1-.93-.39L97,138.57h-7.9a2.85,2.85,0,0,1-2.72-2,2.79,2.79,0,0,1-.13-.85,3.53,3.53,0,0,1,0-.56c0,.1,0,.2.08.29a2.85,2.85,0,0,0,2.72,2H97l3.19,3.22a1.31,1.31,0,0,0,.93.39h.67a1.34,1.34,0,0,0,1-.51,1.41,1.41,0,0,0,.13-.24A1.3,1.3,0,0,1,102.88,141.66Z"/><path class="cls-14" d="M71.39,143.27l4.34.78a.4.4,0,0,1,.32.39v2.07a.39.39,0,0,1-.46.39L71.43,146a.37.37,0,0,1-.31-.36v-2.18A.23.23,0,0,1,71.39,143.27Z"/><path class="cls-14" d="M49.07,138.61l4.33.71a.4.4,0,0,1,.32.39v2.34a.17.17,0,0,1-.2.17L49,141.46a.24.24,0,0,1-.19-.23v-2.39A.24.24,0,0,1,49.07,138.61Z"/><path class="cls-14" d="M140,155.19a4.31,4.31,0,0,1-2.5-.79l-18.93-13.33,44.86-1.51.06,0,23.3,10.4a1.16,1.16,0,0,1,.67,1.27,1.15,1.15,0,0,1-1.07,1l-46.12,3Zm-19.75-13.62L137.84,154a3.78,3.78,0,0,0,2.42.68l46.11-3a.61.61,0,0,0,.21-1.16l-23.24-10.38Z"/><path class="cls-14" d="M114,155.42a29.11,29.11,0,0,0-7.73-18.49L90.62,119.77a6.09,6.09,0,0,0-4.28-2l-15.11-.4a.18.18,0,0,0-.1,0,.15.15,0,0,0-.11,0l-1.17,0-6.19-.16a5.86,5.86,0,0,0-5.37,3.12l-7.06,13.13-4.39,2.66a7.13,7.13,0,0,0-3.41,6v10.44a4.47,4.47,0,0,1,.41-.35V142.17a6.69,6.69,0,0,1,3.21-5.69l4.44-2.69a.3.3,0,0,0,.08-.08l7.08-13.19a5.47,5.47,0,0,1,5-2.9l7.26.2L70,167.37l-11.38-2.06c0,.15,0,.29,0,.43L99.13,173c0-.14,0-.28.07-.41l-28.78-5.19.91-49.61,15,.4a5.63,5.63,0,0,1,4,1.82L106,137.21a28.7,28.7,0,0,1,7.62,18.23c0,.33,0,.67,0,1v1a3.25,3.25,0,0,1,.42.11v-1.14C114,156.1,114,155.76,114,155.42Z"/><circle class="cls-9" cx="110.73" cy="111.23" r="4.22"/><path class="cls-18" d="M115,111.23a4.23,4.23,0,0,1-8.45,0,4.49,4.49,0,0,1,.08-.83,4.22,4.22,0,0,0,8.28,0A3.77,3.77,0,0,1,115,111.23Z"/><circle class="cls-9" cx="66.57" cy="109.72" r="5.73"/><path class="cls-18" d="M72.31,109.72a5.74,5.74,0,0,1-11.47,0,6,6,0,0,1,.11-1.13,5.73,5.73,0,0,0,11.24,0A5.29,5.29,0,0,1,72.31,109.72Z"/><circle class="cls-9" cx="37.54" cy="135.65" r="2.63"/><path class="cls-18" d="M39.64,134.06a2.63,2.63,0,1,1-4.2,3.17,2.07,2.07,0,0,1-.27-.45,2.63,2.63,0,0,0,4.12-3.1A3.22,3.22,0,0,1,39.64,134.06Z"/><polygon class="cls-9" points="169.76 123.27 168.71 112.77 167.66 123.27 162.3 124.32 167.66 125.37 168.71 135.88 169.76 125.37 175.13 124.32 169.76 123.27"/><polygon class="cls-9" points="178.75 114.06 178.22 108.75 177.69 114.06 174.98 114.59 177.69 115.12 178.22 120.43 178.75 115.12 181.46 114.59 178.75 114.06"/></g></g></g></svg>