<svg xmlns="http://www.w3.org/2000/svg" viewBox="0 0 175.93 197.31"><defs><style>.cls-1{fill:#c98b5f;}</style></defs><g id="Capa_2" data-name="Capa 2"><g id="Capa_1-2" data-name="Capa 1"><path class="cls-1" d="M66.38,6.17a10.74,10.74,0,0,1,2.81.39c4,1.44,7,.41,10-2.66A12,12,0,0,1,97,4c2.85,3,5.73,3.69,9.65,2.62,7.38-2,14.08,2,15.9,9.4.89,3.69,2.82,5.66,6.52,6.57,7.67,1.87,11.42,8.46,9.36,16.23-.95,3.58-.33,6.36,2.4,9,5.79,5.61,5.75,13-.08,18.62a8.19,8.19,0,0,0-2.41,8.68c2.12,8.32-1.5,14.4-9.75,16.61-4.64,1.25-5.1,2.31-2.88,6.63,3.63,7.06,7.23,14.13,10.9,21.17,1.05,2,1.79,4,.26,6.1s-3.79,1.89-6,1.43a94.62,94.62,0,0,1-10.45-2.51c-2.52-.83-3.36.07-4.14,2.24-1.25,3.49-2.86,6.85-4.18,10.31-.82,2.15-2.22,3.53-4.5,3.56-2.11,0-3.45-1.26-4.41-3.16-3.47-6.86-7.09-13.63-10.52-20.5-1-2-2-3-4.58-3.07s-3.79,1-4.86,3.22C80,123.86,76.46,130.4,73.1,137c-1,2.07-2.34,3.77-4.89,3.67s-3.72-1.88-4.57-4c-1.25-3.22-2.74-6.36-3.85-9.62-.8-2.36-1.73-3.29-4.41-2.39a91.67,91.67,0,0,1-10.44,2.49c-2,.42-4.12.64-5.64-1.3s-1-4,.05-6.07c3.79-7.26,7.51-14.56,11.25-21.85,1.85-3.62,1.33-5-2.59-6a15.49,15.49,0,0,1-6-2.48,12.16,12.16,0,0,1-4.53-13.69,8.78,8.78,0,0,0-2.64-9.65c-5.42-5.24-5.33-12.76.17-18.08,2.85-2.75,3.52-5.58,2.5-9.33-2.06-7.63,1.86-14.19,9.58-16.1a7.75,7.75,0,0,0,6.31-6.33C55,9.9,59.69,6.18,66.38,6.17ZM88,108.18a6.84,6.84,0,0,0,5.42-2.47c3.91-4.35,8.6-5.61,14.24-3.92,4.8,1.44,8.11-.37,9.27-5.24,1.4-5.91,5-9.2,10.77-10.63,4.61-1.13,6.43-4.48,5-9-1.71-5.62-.46-10.26,3.75-14.31,3.65-3.52,3.59-7.38-.11-11-4.05-4-5.35-8.49-3.69-14,1.45-4.83-.32-8.16-5.13-9.32-5.86-1.42-9.27-4.85-10.68-10.71-1.12-4.67-4.46-6.54-9-5.16-5.77,1.76-10.48.44-14.61-3.93-3.17-3.36-7.31-3.38-10.45,0-4.12,4.38-8.81,5.74-14.6,4-4.53-1.38-7.87.46-9,5.1-1.43,5.83-4.78,9.33-10.67,10.74-4.82,1.17-6.62,4.49-5.18,9.29,1.65,5.49.4,10-3.65,14-3.84,3.76-3.79,7.38.1,11.24s5.19,8.3,3.6,13.66c-1.5,5.07.27,8.37,5.27,9.59,5.72,1.38,9.05,4.76,10.44,10.46,1.19,4.88,4.47,6.73,9.23,5.29,5.64-1.7,10.35-.46,14.26,3.87A6.87,6.87,0,0,0,88,108.18ZM45.28,121c4.46-1,8.17-1.88,11.85-2.81,3.25-.82,5.48.2,6.74,3.36,1.43,3.59,2.92,7.15,4.67,11.42,3.53-6.82,6.54-13,9.92-19,1.43-2.52.66-3.95-1.22-5.47a6.13,6.13,0,0,0-5.77-1.35c-6.45,2-12,.91-16.57-4.83Zm85.4-.07c-3.11-6-6-11.44-8.69-16.9-1.14-2.27-1.84-.69-2.66.16-3.67,3.78-8.11,4.66-13,3.32-1.78-.48-3.63-.91-5.27-.19-2.11.92-5.3,2.18-4.09,4.94,3,6.87,6.76,13.41,10.53,20.71,1.67-4.05,3-7.43,4.44-10.79,1.74-4.15,3.08-4.81,7.42-3.82C122.88,119.2,126.45,120,130.68,121Z"/><path class="cls-1" d="M0,156.23c0-8.72,0-17.44,0-26.16,0-6.43,2.75-9.13,9.09-9.21,2.31,0,4.62,0,6.93,0,5.16.13,8.23,2.71,8.5,7.92.15,2.75,1.22,3,3.47,3.05,9,.07,17.75,2,25.23,6.94,9,5.9,18.86,7.52,29.12,8.46,5.86.53,11.73,1.2,17.54,2.13,7,1.13,11.55,5.42,13.36,12.18.74,2.76,1.59,2.83,3.87,1.81,13.55-6.06,27.15-12,40.73-18,3.35-1.47,6.74-2.55,10.4-1.24a10.73,10.73,0,0,1,7.53,9.32c.56,4.65-.63,8.73-5,11.2q-25.74,14.57-51.55,29a29.67,29.67,0,0,1-14.77,3.6c-12.7,0-25.4-.1-38.1,0a39.83,39.83,0,0,1-14.63-2.65c-8-3-16.09-5.92-24.08-9-2.06-.8-3.42-1-3.81,1.65,0,.12-.12.22-.19.33-2.26,4.19-10.68,6.11-17.93,4.1C1.94,190.66,0,187.63,0,182.4,0,173.68,0,165,0,156.23Zm5.68,0c0,7.06,0,14.11,0,21.17,0,9.5-1.42,8.81,9.29,8.86,2.82,0,3.81-1.17,3.77-4-.13-7.82,0-15.65-.06-23.47,0-2.1.32-4.15,2.8-4.23,2.71-.09,3.2,2,3.19,4.28,0,5.52.09,11,0,16.55-.06,2.11.59,3.2,2.63,3.93,9.27,3.33,18.5,6.77,27.71,10.25a30.7,30.7,0,0,0,10.93,1.8c12.57,0,25.14,0,37.71,0A29.28,29.28,0,0,0,119,187.25c5.4-3.2,10.91-6.2,16.38-9.28q15.56-8.79,31.1-17.58c3.53-2,4.54-4.48,3.21-7.52-1.42-3.24-4.07-4.14-8.05-2.69-1.08.4-2.13.87-3.18,1.33q-21.8,9.59-43.57,19.16a10.57,10.57,0,0,1-4,1.29c-14-.19-28,1.08-41.84-1.46-2.18-.4-4.4-.79-4-3.51s2.81-2.49,4.92-2.14c11.45,1.9,23,1.53,34.54,1.52,3.83,0,4.23-.6,2.83-4.25a10.63,10.63,0,0,0-8.8-7.14c-4.68-.69-9.4-1.18-14.12-1.62-12.29-1.13-24.35-2.65-35-10-5.17-3.57-11.47-4.95-17.82-5.44-2-.15-4.44-.86-6-.05-2,1-.57,3.72-.94,5.65-.31,1.65-.93,3-2.84,3.05-2.08,0-3-1.23-3.07-3.15-.08-2.82,0-5.65,0-8.47-.09-9.22,1.37-8.35-8.81-8.49-3.2,0-4.3,1.25-4.25,4.36C5.77,139.3,5.69,147.77,5.69,156.23Z"/><path class="cls-1" d="M127.31,56.81A39.32,39.32,0,0,1,50,67.38,16.87,16.87,0,0,1,49.4,64a2.59,2.59,0,0,1,2.4-3,2.67,2.67,0,0,1,3,1.89,26.23,26.23,0,0,1,.83,3C60.12,82.59,76,92.74,93.68,90.21,109.28,88,121.83,73,121.61,56.87a33.59,33.59,0,0,0-66-8.38c-.17.61-.39,1.22-.53,1.84-.39,1.86-1.38,3.2-3.4,2.83-2.29-.42-2.53-2.26-2.18-4.19a31.69,31.69,0,0,1,.91-3.73C56,27.22,74.56,15.39,93.09,18A39.4,39.4,0,0,1,127.31,56.81Z"/><path class="cls-1" d="M71,74.28c.77-2.89,1.6-6.51,2.75-10a3,3,0,0,0-1.24-3.9c-2.57-1.91-5-4-7.53-6-1.58-1.28-2.77-2.76-2-5s2.44-3.08,4.75-3.11c3.08,0,6.15-.4,9.22-.4,2.18,0,3.15-1,3.78-3,.93-2.92,2.16-5.74,3.21-8.62.74-2,2.08-3.31,4.25-3.26a4.2,4.2,0,0,1,3.94,3.13c.65,1.81,1.7,3.53,2,5.38.87,5.38,4.15,7,9.15,6.62,1.65-.14,3.33.15,5,.12,2.28,0,4,.75,4.84,3s-.5,3.9-2.17,5.24c-2.4,1.93-4.75,3.91-7.24,5.72-1.61,1.17-1.94,2.33-1.25,4.23a86.71,86.71,0,0,1,2.47,8.86c.49,2.06.56,4.12-1.59,5.47-1.91,1.2-3.6.61-5.36-.48-3.35-2.07-6.47-6.15-10-5.88s-6.7,3.86-10,6c-1.61,1-3.25,1.46-5,.41C71.35,78,70.8,76.67,71,74.28Zm6.9-2.88c6.91-7,13.35-7.05,19.94.46-.07-4.8-3-8.2-1.87-11.83s5.54-4.61,7.8-7.81c-3.7-1.15-7.64.68-10.7-1.46s-2.67-6.7-5.57-10.44C86.23,49.63,81.54,53.93,71.72,52,80.39,56.61,82.21,62.81,77.86,71.4Z"/></g></g></svg>