<svg xmlns="http://www.w3.org/2000/svg" viewBox="0 0 319.52 195.2"><defs><style>.cls-1{fill:#f6f6f6;}.cls-2{fill:#191a1a;}.cls-3{fill:#a35459;}.cls-4{fill:#80373f;}.cls-33,.cls-4{opacity:0.32;}.cls-5{fill:#862c12;}.cls-6{fill:#e8d0bc;}.cls-7{fill:#cfca9d;}.cls-8{fill:#c88a5e;}.cls-9{fill:#e9f2f2;}.cls-10,.cls-12,.cls-17,.cls-25,.cls-41{fill:#fff;}.cls-11,.cls-13{fill:#776b61;}.cls-12{opacity:0.54;}.cls-13{opacity:0.49;}.cls-14{fill:#f49b5f;}.cls-15{fill:#034759;}.cls-16,.cls-34{fill:#def0f4;}.cls-17{opacity:0.14;}.cls-18{fill:#375161;}.cls-19,.cls-29{fill:#e67719;}.cls-19{opacity:0.58;}.cls-20{fill:#7f7f74;}.cls-21{fill:#c0bd99;}.cls-22{fill:#033a47;}.cls-23{fill:#53a68d;}.cls-24{opacity:0.34;}.cls-25{opacity:0.47;}.cls-26{opacity:0.61;}.cls-27{opacity:0.19;}.cls-28{fill:#68bea6;}.cls-30{fill:none;}.cls-31{fill:#f5a98e;}.cls-32{fill:#f18b6c;}.cls-33{fill:#f18c79;}.cls-34{opacity:0.66;}.cls-35{fill:#b3cbdc;opacity:0.13;}.cls-36{fill:#dbd59e;}.cls-37{fill:#f4a499;}.cls-38{fill:#f08372;}.cls-38,.cls-42{opacity:0.46;}.cls-39{fill:#ef7e6f;}.cls-40{fill:#a1a08b;}.cls-41{opacity:0.28;}.cls-43,.cls-44{fill:#ee7462;}.cls-44{opacity:0.57;}.cls-45{fill:#e2d4bc;}</style></defs><g id="Capa_2" data-name="Capa 2"><g id="Capa_1-2" data-name="Capa 1"><path class="cls-1" d="M117.9,193.66c-9.31-4.66-9.68-17.73-15.55-26.32-11-16-37-12.19-51.22-25.46-7.49-7-10.38-18.14-8.54-28.22s8-19.08,15.86-25.63c5.21-4.33,11.9-9.18,11.09-15.9-.29-2.4-1.55-4.54-2.44-6.79-4-10.05,0-22,7.46-29.79S92.42,23.37,102.8,20.33a152.73,152.73,0,0,1,28-5.42c5.21-.52,10.56-.79,15.38-2.84s8.76-5.73,13.4-8.18C170.61-1.95,184,0,196.34,2.08c15.89,2.73,31.78,5.57,47.32,9.83,5.83,1.6,11.77,3.49,16.4,7.36s7.69,10.22,6,16c-1.38,4.89-5.61,8.31-9.07,12s-6.43,9-4.56,13.68c2.19,5.55,9.33,6.74,14.44,9.83,5.45,3.3,8.88,9.25,10.41,15.43s1.36,12.65,1,19c-.32,5.64-.81,11.42-3.27,16.5-4.7,9.7-15.67,14.9-26.34,16.4-8.64,1.21-13,1.53-17.69,10.25-5.68,10.58-9.39,22.3-16.58,31.92s-19.42,17-31,13.71c-7.27-2.06-12.91-7.9-20-10.58-8.07-3.05-14.62-1.59-20.84,3.5C136.06,192.34,126.6,198,117.9,193.66Z"/><path class="cls-2" d="M242.43,73.53h0l-1.62-6.65a14.68,14.68,0,0,0-17.74-10.78L213,58.55a8.21,8.21,0,0,0-.25-1.74c-.9-3.5-3.85-5.66-6.59-4.84a5,5,0,0,0-3.1,3.12c-4.55-2.74-10-2.19-12.9,1.63-3.41,4.42-2.24,11.54,2.62,15.9A12.75,12.75,0,0,0,198,75.48a9.42,9.42,0,0,0,.3,2.1,13.66,13.66,0,0,0,2.42,17.69l7.65,6.74h0c.06,0,1.28,1.39,1.34,1.38,6.1-.83,9.49-7.45,9.48-13.62v-9.4L220.4,76a14.68,14.68,0,0,0,9.13.71l3.06-4.11,1.38,3,.23-.06c1.85,3.56,4.8,9.62,5.84,14.07l3.77-7.81A7.28,7.28,0,0,0,242.43,73.53Z"/><path class="cls-3" d="M243.74,87.88l-4.52-13.56L234,75.6l-1.38-3-3.06,4.11a14.67,14.67,0,0,1-14.77-4.88L214.24,73l-.92,6.39c-.43,3-2.63,4.3-5.38,4.8v0l-1.91.63a5.66,5.66,0,0,0,3.25,10.83l.1,19a8.48,8.48,0,0,0,8.5,8.41h2.92a8.48,8.48,0,0,0,8.41-8.5l0-6.19c.34-.08.67-.18,1-.29l4.43-1.48a13.54,13.54,0,0,0,8.86-9.57A13.38,13.38,0,0,0,243.74,87.88Z"/><ellipse class="cls-4" cx="222.81" cy="107.26" rx="6.49" ry="4.81"/><path class="cls-5" d="M206.42,92.23a.26.26,0,0,1-.17-.07.25.25,0,0,1,0-.35l1.57-1.6-2.52-1.8a.25.25,0,0,1-.06-.35.25.25,0,0,1,.34-.06l3,2.14-2,2A.27.27,0,0,1,206.42,92.23Z"/><path class="cls-2" d="M235.35,78.05a3.08,3.08,0,0,1,1.13-.57c.43-.15.85-.32,1.21-.47s.78-.34,1.19-.54a3,3,0,0,1,1.2-.41c.37,0,.66.33.48,1a3.49,3.49,0,0,1-2.06,2,3.4,3.4,0,0,1-2.84.07C235.11,78.76,235.09,78.32,235.35,78.05Z"/><path class="cls-2" d="M224.19,82.78a3.8,3.8,0,0,0,1.39-.57c.47-.27.94-.52,1.36-.73s.91-.43,1.4-.64a3.62,3.62,0,0,0,1.29-.76c.29-.33.22-.84-.48-1.17a4.13,4.13,0,0,0-3.37.32,4,4,0,0,0-2.26,2.48C223.37,82.45,223.75,82.8,224.19,82.78Z"/><path class="cls-2" d="M238.12,81.08a1,1,0,0,0,1.78-.72,1,1,0,1,0-1.78.72Z"/><path class="cls-2" d="M228.33,83.53a1,1,0,1,0,.53-1.25A1,1,0,0,0,228.33,83.53Z"/><path class="cls-5" d="M238.22,82.35a.26.26,0,0,1-.17-.07.24.24,0,0,1,0-.35,2.74,2.74,0,0,1,2.58-.61.25.25,0,0,1,.18.3.24.24,0,0,1-.29.18,2.29,2.29,0,0,0-2.12.47A.23.23,0,0,1,238.22,82.35Z"/><path class="cls-5" d="M228.32,84.83a.25.25,0,0,1-.15,0,.25.25,0,0,1,0-.35,2.29,2.29,0,0,1,2.57-.6.24.24,0,0,1-.16.46,1.81,1.81,0,0,0-2,.45A.25.25,0,0,1,228.32,84.83Z"/><path class="cls-6" d="M235.84,106.34a14,14,0,0,0,8.73-11,15.29,15.29,0,0,0-.51-6.92l-.9-2.8a12.14,12.14,0,0,1-5-1.23c-2.65-1.2-5.23-.5-7.34,1.49-2.3,2.17-5.93,3.61-9.84,4.66-2.75.74-9.73,4-8.94,6.7a17.91,17.91,0,0,0,3.93,7.72c2.17,2.25,5.27,3,8.28,3.2A29.34,29.34,0,0,0,235,106.67C235.27,106.57,235.56,106.46,235.84,106.34Z"/><path class="cls-7" d="M219.63,92.17a.22.22,0,0,1-.15-.06l-11.13-8.59a.23.23,0,0,1,0-.34.24.24,0,0,1,.34-.05l11.13,8.59a.25.25,0,0,1,.05.35A.28.28,0,0,1,219.63,92.17Z"/><path class="cls-8" d="M231.31,88.71a.3.3,0,0,1-.15,0,.26.26,0,0,1,0-.35c.09-.11,2.2-2.72,4.57-3a5.68,5.68,0,0,1,4.23,1.43.25.25,0,0,1,0,.35.26.26,0,0,1-.35,0,5.19,5.19,0,0,0-3.83-1.3c-2.17.26-4.22,2.8-4.24,2.83A.25.25,0,0,1,231.31,88.71Z"/><path class="cls-8" d="M237.17,91a.25.25,0,0,1-.24-.18l-1.37-5.13a.25.25,0,0,1,.48-.13l1.37,5.13a.24.24,0,0,1-.17.3Z"/><path class="cls-9" d="M208.85,96.27a.25.25,0,0,1,0-.5h5.44a.25.25,0,0,1,.25.25.24.24,0,0,1-.24.24l-5.45,0Z"/><path class="cls-8" d="M233.3,95.18a.24.24,0,0,1-.23-.18.25.25,0,0,1,.16-.31l8.24-2.53a.25.25,0,0,1,.31.17.24.24,0,0,1-.16.3l-8.24,2.53Z"/><path class="cls-8" d="M233.87,97.79a.24.24,0,0,1-.23-.18.25.25,0,0,1,.16-.31L242,94.77a.25.25,0,0,1,.31.17.24.24,0,0,1-.17.3l-8.24,2.54Z"/><path class="cls-8" d="M281.93,126.34l-7-45.4a1.93,1.93,0,0,0-2.29-1.6l-16.06,3.24a2.85,2.85,0,0,0-2.27,3c.65,7.22,2.46,27.49,2.49,28.4,0,.7-27.08,2-29.43,2l-7.63,1.66-12.86-1.49-7.21,0c-8,.07-14.49,7.3-14.42,16.15l.68,62.39,62.2-.54,1.34-20.64,3.43-5.43a15.74,15.74,0,0,0,1.41-13.69L251.56,147l12.73,0A17.9,17.9,0,0,0,281.93,126.34Z"/><path class="cls-10" d="M231.64,116l-7.59,38.49a.86.86,0,0,1-1.65.15l-15.29-38.54,12,1.8Z"/><path class="cls-11" d="M219.63,122.79v-3.6c0-5.21,5-9.44,11.17-9.44h0S235.49,122.65,219.63,122.79Z"/><path class="cls-11" d="M219.69,122.79v-3.6c0-5.21-5-9.44-11.18-9.44h0S203.82,122.65,219.69,122.79Z"/><path class="cls-12" d="M226.75,154.79a.28.28,0,0,1-.12,0,.25.25,0,0,1-.09-.34L239.14,133a.58.58,0,0,0,.06-.45.55.55,0,0,0-.28-.35l-5.15-2.89,7.31-4.44a.4.4,0,0,0,.19-.32.41.41,0,0,0-.14-.34l-6.44-5.45a.25.25,0,0,1,.32-.38l6.44,5.45a.91.91,0,0,1,.31.76.89.89,0,0,1-.43.7l-6.58,4,4.41,2.47a1,1,0,0,1,.51.66,1,1,0,0,1-.11.82L227,154.66A.23.23,0,0,1,226.75,154.79Z"/><path class="cls-12" d="M218.21,156.09a.25.25,0,0,1-.2-.1l-16.12-21.94a1.07,1.07,0,0,1,.33-1.52l4.29-2.67-6.76-3.7a.9.9,0,0,1-.18-1.45l6.17-5.74a.25.25,0,0,1,.34.36l-6.18,5.74a.41.41,0,0,0-.12.35.39.39,0,0,0,.2.31l7.5,4.1-5,3.12a.57.57,0,0,0-.27.37.65.65,0,0,0,.08.45l16.12,21.93a.24.24,0,0,1,0,.34A.23.23,0,0,1,218.21,156.09Z"/><polygon class="cls-13" points="263.79 146.9 248.78 130.33 255.21 158.15 251.15 146.79 263.79 146.9"/><polygon class="cls-11" points="256.8 114.02 264.13 113.75 256.25 107.61 256.8 114.02"/><path class="cls-14" d="M271.44,79.74l-.33-1.45c1.39-3.36.22-8.3-1-11.75h0l-2.43.85s-18-5.1-17.92-2.74,3,14.2,6.12,18Z"/><path class="cls-10" d="M265.57,46.92l1.35,3.13a.53.53,0,0,1-.2.67l-4.22,2.7a.55.55,0,0,0-.21.65l.8,2.13a.53.53,0,0,1-.36.71L258.85,58a.54.54,0,0,1-.61-.24l-1.58-2.63a.54.54,0,0,0-.54-.26l-3.36.47a.55.55,0,0,1-.61-.41l-.25-1.14a.54.54,0,0,1,.08-.41c.46-.71,2.06-3.14,2.21-3.25s8.62-2.85,10.72-3.52A.53.53,0,0,1,265.57,46.92Z"/><path class="cls-15" d="M265.61,46.91l1.43-.08a.72.72,0,0,1,.69.39l.38.71a1,1,0,0,1-.16,1.16l-1,1.07Z"/><path class="cls-15" d="M265.94,51.28l.53,2.35,2.93,2.27-.49.53-3.83-1.88a1,1,0,0,1-.56-.76l-.22-1.45Z"/><path class="cls-16" d="M260.55,57.58H273a2.53,2.53,0,0,1,2.53,2.53V83.18a8.8,8.8,0,0,1-8.8,8.8h0a8.8,8.8,0,0,1-8.8-8.8v-23a2.63,2.63,0,0,1,2.63-2.63Z" transform="translate(543.56 65.11) rotate(162.34)"/><rect class="cls-10" x="257.48" y="66.1" width="17.6" height="14.58" transform="translate(542.27 62.52) rotate(162.34)"/><rect class="cls-15" x="257.45" y="68.53" width="17.6" height="9.56" transform="translate(542.19 62.37) rotate(162.34)"/><rect class="cls-17" x="260.43" y="57.58" width="12.59" height="34.4" rx="6.29" transform="translate(543.56 65.11) rotate(162.34)"/><path class="cls-15" d="M255.94,57.17h10.15a0,0,0,0,1,0,0v0a2.56,2.56,0,0,1-2.56,2.56h-5a2.56,2.56,0,0,1-2.56-2.56v0A0,0,0,0,1,255.94,57.17Z" transform="translate(523.56 7.35) rotate(156.36)"/><rect class="cls-18" x="263.66" y="55.98" width="0.3" height="2.53" transform="translate(528.44 3.93) rotate(156.37)"/><rect class="cls-18" x="261.97" y="56.72" width="0.3" height="2.53" transform="translate(525.49 6.03) rotate(156.37)"/><rect class="cls-18" x="260.11" y="57.54" width="0.3" height="2.53" transform="translate(522.26 8.31) rotate(156.36)"/><rect class="cls-18" x="258.42" y="58.28" width="0.3" height="2.53" transform="translate(519.31 10.41) rotate(156.36)"/><path class="cls-10" d="M287.5,25.63a.27.27,0,0,1-.17-.06.25.25,0,0,1,0-.35l.67-.72a.24.24,0,0,1,.35,0,.24.24,0,0,1,0,.34l-.67.72A.23.23,0,0,1,287.5,25.63Z"/><path class="cls-10" d="M273.05,41.17a.27.27,0,0,1-.17-.06.25.25,0,0,1,0-.35l1.45-1.56a.25.25,0,0,1,.34,0,.25.25,0,0,1,0,.35l-1.45,1.55A.22.22,0,0,1,273.05,41.17Zm2.89-3.11a.27.27,0,0,1-.17-.06.25.25,0,0,1,0-.35l1.45-1.55a.24.24,0,0,1,.34,0,.25.25,0,0,1,0,.35L276.12,38A.24.24,0,0,1,275.94,38.06Zm2.89-3.1a.23.23,0,0,1-.17-.07.25.25,0,0,1,0-.35L280.09,33a.24.24,0,0,1,.35,0,.24.24,0,0,1,0,.34L279,34.88A.25.25,0,0,1,278.83,35Zm2.89-3.11a.23.23,0,0,1-.17-.07.24.24,0,0,1,0-.34L283,29.88a.25.25,0,0,1,.37.34l-1.45,1.55A.25.25,0,0,1,281.72,31.85Zm2.89-3.11a.27.27,0,0,1-.17-.06.25.25,0,0,1,0-.35l1.44-1.56a.25.25,0,0,1,.35,0,.24.24,0,0,1,0,.35l-1.44,1.55A.25.25,0,0,1,284.61,28.74Z"/><path class="cls-10" d="M270.94,43.45a.23.23,0,0,1-.17-.07.24.24,0,0,1,0-.35l.67-.72a.25.25,0,0,1,.35,0,.26.26,0,0,1,0,.35l-.67.72A.27.27,0,0,1,270.94,43.45Z"/><path class="cls-10" d="M271.38,46.53a.25.25,0,0,1-.23-.15.25.25,0,0,1,.13-.32l.85-.35a.25.25,0,0,1,.33.13.24.24,0,0,1-.14.32l-.85.35Zm2.67-1.1a.24.24,0,0,1-.23-.15A.24.24,0,0,1,274,45l1.82-.75a.25.25,0,0,1,.32.13.26.26,0,0,1-.13.33l-1.83.74A.15.15,0,0,1,274.05,45.43Zm3.65-1.49a.25.25,0,0,1-.23-.16.25.25,0,0,1,.13-.32l1.83-.75a.25.25,0,1,1,.18.46l-1.82.75Zm3.64-1.5a.26.26,0,0,1-.23-.15.24.24,0,0,1,.14-.32l1.82-.75a.24.24,0,1,1,.19.45l-1.82.75A.18.18,0,0,1,281.34,42.44Zm3.65-1.5a.24.24,0,0,1-.23-.15.25.25,0,0,1,.13-.32l1.83-.75a.25.25,0,1,1,.18.46l-1.82.75Zm3.64-1.49a.25.25,0,0,1-.22-.15.25.25,0,0,1,.13-.33l1.82-.74a.24.24,0,0,1,.32.13.23.23,0,0,1-.13.32l-1.82.75Zm3.65-1.5a.24.24,0,0,1-.23-.15.24.24,0,0,1,.14-.32l1.82-.75a.25.25,0,0,1,.32.13.26.26,0,0,1-.13.33l-1.83.74A.15.15,0,0,1,292.28,38Zm3.65-1.49a.25.25,0,0,1-.23-.16.25.25,0,0,1,.13-.32l1.83-.75a.25.25,0,0,1,.32.14.25.25,0,0,1-.14.32l-1.82.75Z"/><path class="cls-10" d="M272.88,49.13a.26.26,0,0,1-.25-.24.25.25,0,0,1,.24-.25l2-.09a.24.24,0,0,1,.25.24.25.25,0,0,1-.23.26l-2,.08Zm3.93-.17a.25.25,0,0,1-.25-.23.25.25,0,0,1,.24-.26l2-.08a.24.24,0,0,1,.25.24.24.24,0,0,1-.23.25l-2,.08Zm3.93-.16a.25.25,0,0,1,0-.49l2-.08a.25.25,0,1,1,0,.49l-2,.08Zm3.94-.16a.26.26,0,0,1-.25-.24.25.25,0,0,1,.24-.26l2-.08a.25.25,0,1,1,0,.49l-2,.09Zm3.94-.17a.25.25,0,0,1-.25-.23.25.25,0,0,1,.24-.26l2-.08a.24.24,0,0,1,.25.23.25.25,0,0,1-.23.26l-2,.08Zm3.94-.16a.25.25,0,0,1-.25-.24.24.24,0,0,1,.24-.25l2-.09a.25.25,0,0,1,0,.5l-2,.08Zm3.93-.17a.23.23,0,0,1-.24-.23.25.25,0,0,1,.23-.26l2-.08a.25.25,0,1,1,0,.49l-2,.08Zm3.94-.16a.25.25,0,0,1-.25-.24.25.25,0,0,1,.24-.25l2-.08a.25.25,0,1,1,0,.49l-2,.08Z"/><rect class="cls-14" x="269.88" y="62.09" width="4.21" height="7.97" rx="2.1" transform="translate(368.81 328.68) rotate(-123.9)"/><rect class="cls-14" x="267.53" y="58.59" width="4.21" height="7.97" rx="2.1" transform="translate(368.06 321.29) rotate(-123.9)"/><rect class="cls-14" x="264.7" y="50.79" width="4.21" height="7.97" rx="2.1" transform="translate(425.69 276) rotate(-137.29)"/><rect class="cls-14" x="271.88" y="66.74" width="4.21" height="5.98" rx="2.1" transform="translate(368.91 336.03) rotate(-123.9)"/><path class="cls-14" d="M249.79,64.65s.39-7,5.34-8.84c0,0,2.46-.6,2,2s-1.76,7-1.18,8.63c1,2.76-.08,7.28-.08,7.28Z"/><path class="cls-14" d="M235.22,154.93s3.51-11,9.58-11.72a1.83,1.83,0,0,1,1.76,2.82c-1.18,2.85-3.95,7.39-3.63,9.42s-.11.87-.11.87Z"/><path class="cls-19" d="M235,158.24s3.51-11,9.59-11.73a1.83,1.83,0,0,1,1.76,2.83c-1.18,2.84-3.95,7.38-3.64,9.41s-.1.87-.1.87Z"/><path class="cls-20" d="M244.08,159.71l-4.27-16.61c-.34-1.87,2.53-3.2,4.81-2.23l1.1.47a4.38,4.38,0,0,0,3.46-.08l4.29-2.09c1.61-.78,3.81-.38,4.66.85l.94,1.36a3.53,3.53,0,0,0,3.09,1.25h0c2.29-.12,4,1.45,3.22,3l-5.89,14Z"/><path class="cls-20" d="M278.14,186.66l.06,7.48h7.05l0-4.18a31.31,31.31,0,0,0-31.49-31c-.65,0-1.29,0-1.93.08A28,28,0,0,1,278.14,186.66Z"/><path class="cls-21" d="M278.2,194.14l-.06-7.48a28,28,0,0,0-26.35-27.58c-.58,0-1.17-.06-1.76-.05a29.47,29.47,0,0,0-29.14,29.64l0,5.47Z"/><path class="cls-21" d="M244.45,140.84l3.19,18.84,2.55.24-.05-19.13S248.71,142.13,244.45,140.84Z"/><path class="cls-21" d="M261.76,142.63l-5.37,17-3.52,0,6-18.53A3.22,3.22,0,0,0,261.76,142.63Z"/><rect class="cls-22" x="241.81" y="158.5" width="20.61" height="1.68" rx="0.53" transform="translate(-1.33 2.12) rotate(-0.48)"/><path class="cls-14" d="M247.05,148.25l2.74-1.68a2.16,2.16,0,0,1,3,.72h0a2.17,2.17,0,0,1-.71,3l-.32.19c0,.08.07.16.1.25l3.26-1.67a2.24,2.24,0,0,1,3,.89l.14.24a2.09,2.09,0,0,1-.89,2.87l-4,2.05,0,.13,2.65-1.45a2.25,2.25,0,0,1,3,.82l.14.24a2.07,2.07,0,0,1-.81,2.88l-1.74.95a2.13,2.13,0,0,1,2.41.83,2,2,0,0,1-.61,2.77l-1.06.58c-3,2.62-7.94,6.35-11.8,6.37l-2.3,1-9.47-13.29C235.7,153.09,243.05,149.89,247.05,148.25Z"/><path class="cls-19" d="M247.27,152.92a.24.24,0,0,1-.22-.14.25.25,0,0,1,.11-.33l4.93-2.35a.25.25,0,0,1,.33.12.24.24,0,0,1-.12.33l-4.92,2.34A.23.23,0,0,1,247.27,152.92Z"/><path class="cls-19" d="M250.31,156.77a.24.24,0,0,1-.22-.14.24.24,0,0,1,.12-.33l4.92-2.34a.25.25,0,0,1,.33.11.24.24,0,0,1-.12.33l-4.92,2.35Z"/><path class="cls-19" d="M252.05,161.06a.24.24,0,0,1-.22-.14.24.24,0,0,1,.12-.33l4.92-2.34a.25.25,0,0,1,.33.11.24.24,0,0,1-.12.33L252.16,161Z"/><path class="cls-13" d="M230,154.37l-30.06,25.86L220.18,193l22-24.33-9.35-13.91A2,2,0,0,0,230,154.37Z"/><path class="cls-8" d="M230.93,155.85,200.88,181.7l20.25,12.78,22.06-24.34-9.35-13.9A2,2,0,0,0,230.93,155.85Z"/><path class="cls-23" d="M70.14,180.56a.74.74,0,0,1-.74-.74V168a17.6,17.6,0,0,0-17.58-17.58H42.55a18.52,18.52,0,0,0-18.5,18.5v9.51a.74.74,0,0,1-1.48,0v-9.51a20,20,0,0,1,20-20h9.27A19.07,19.07,0,0,1,70.88,168v11.82A.74.74,0,0,1,70.14,180.56Z"/><g class="cls-24"><path class="cls-10" d="M28.63,170.84a5.23,5.23,0,0,1-.1-1A4.93,4.93,0,0,1,33.46,165a4.88,4.88,0,0,1,3,1A7,7,0,0,1,49,170.14c0,.23,0,.46,0,.68h.54a3.67,3.67,0,0,1,3.66,3.66h0a3.67,3.67,0,0,1-3.66,3.66H29a3.67,3.67,0,0,1-3.66-3.66h0A3.67,3.67,0,0,1,28.63,170.84Z"/></g><path class="cls-25" d="M67.18,173.36a5.54,5.54,0,0,0-8.77-5.5,7.83,7.83,0,0,0-14.09,4.72c0,.26,0,.51,0,.76h-.6a4.13,4.13,0,0,0-4.12,4.12h0a4.13,4.13,0,0,0,4.12,4.11h23a4.12,4.12,0,0,0,4.11-4.11h0A4.13,4.13,0,0,0,67.18,173.36Z"/><g class="cls-26"><path class="cls-10" d="M54.4,177.67a5.49,5.49,0,0,0-8.71-5.46,7.78,7.78,0,0,0-14,4.68c0,.26,0,.51,0,.76h-.59a4.1,4.1,0,0,0-4.09,4.09h0a4.1,4.1,0,0,0,4.09,4.08H54a4.1,4.1,0,0,0,4.08-4.08h0A4.09,4.09,0,0,0,54.4,177.67Z"/></g><g class="cls-26"><path class="cls-10" d="M49.71,157.72A2.71,2.71,0,1,1,47,155,2.71,2.71,0,0,1,49.71,157.72Z"/></g><g class="cls-27"><path class="cls-10" d="M48.06,156.08A1.06,1.06,0,1,1,47,155,1.05,1.05,0,0,1,48.06,156.08Z"/></g><path class="cls-10" d="M55.2,160.78a1.38,1.38,0,1,1-1.37-1.37A1.37,1.37,0,0,1,55.2,160.78Z"/><g class="cls-27"><path class="cls-10" d="M54.36,160a.54.54,0,1,1-.53-.54A.53.53,0,0,1,54.36,160Z"/></g><polygon class="cls-28" points="72.19 182.63 22.39 182.63 23.63 194.54 71.04 194.54 72.19 182.63"/><rect class="cls-15" x="20.39" y="176.43" width="53.8" height="8.02" rx="4.01"/><path class="cls-6" d="M113,111.52l-31.57-.26a37.23,37.23,0,0,0-11.09,1.3l-15.25-.34L53.8,84.45,36.39,87.91l-4,32a11.82,11.82,0,0,0,7,12.28L59,141.83l-1.09,52.65,70.89,0,.73-65.81A16.82,16.82,0,0,0,113,111.52Z"/><path class="cls-10" d="M79.67,111.33l8.67,48.25a1.08,1.08,0,0,0,2.07.19l18.42-48.33Z"/><path class="cls-8" d="M82.61,148.86,71.29,128.65a1,1,0,0,1-.09-.77,1,1,0,0,1,.5-.6L76.06,125a.52.52,0,0,0,.25-.31.48.48,0,0,0,0-.39l-4.86-8.74a1,1,0,0,1,0-.91,1,1,0,0,1,.73-.55l5.16-1,.09.48-5.17,1a.49.49,0,0,0-.36.28.5.5,0,0,0,0,.46l4.86,8.74a1,1,0,0,1,.08.78,1,1,0,0,1-.49.59l-4.37,2.27a.55.55,0,0,0-.25.31.49.49,0,0,0,0,.39L83,148.62Z"/><path class="cls-8" d="M99.77,148.87l-.39-.3,14.24-18.28a.52.52,0,0,0,.1-.38.5.5,0,0,0-.2-.34l-4-2.9a1,1,0,0,1-.4-.67,1,1,0,0,1,.2-.75l6.12-7.91a.49.49,0,0,0,.08-.45.52.52,0,0,0-.32-.34l-5-1.72.16-.47,5,1.73a1,1,0,0,1,.47,1.55l-6.12,7.91a.51.51,0,0,0-.1.38.5.5,0,0,0,.2.34l4,2.9a1,1,0,0,1,.4.67,1,1,0,0,1-.2.75Z"/><path class="cls-8" d="M79.71,153.38H68.46a.58.58,0,0,1-.58-.58v-1.63a.59.59,0,0,1,.58-.58H79.71a.59.59,0,0,1,.58.58v1.63A.58.58,0,0,1,79.71,153.38Zm-11.25-2.29a.08.08,0,0,0-.08.08v1.63a.08.08,0,0,0,.08.09H79.71a.09.09,0,0,0,.09-.09v-1.63a.09.09,0,0,0-.09-.08Z"/><path class="cls-8" d="M90.57,172.23l19.18,9,15-31.53-15.84,28.15-14.65-7.2a2.55,2.55,0,0,0-3.2.92Z"/><path class="cls-8" d="M44.8,134.85l17.78,5.56a1.58,1.58,0,0,1,1,2l-4.87,15.88L59,141.83Z"/><polygon class="cls-8" points="55.12 112.22 49.24 112.36 54.81 106.22 55.12 112.22"/><path class="cls-8" d="M88.94,170.72S85.43,159.77,79.36,159a1.83,1.83,0,0,0-1.77,2.82c1.19,2.84,4,7.39,3.64,9.42s.11.87.11.87Z"/><path class="cls-23" d="M89.12,174s-3.51-11-9.59-11.72a1.83,1.83,0,0,0-1.76,2.83c1.18,2.84,4,7.38,3.63,9.41s.11.87.11.87Z"/><polygon class="cls-14" points="156.01 95.34 116.82 67.92 121.89 49 172.04 84.09 156.01 95.34"/><path class="cls-29" d="M116.76,69l-.19,0a.75.75,0,0,1-.53-.9l5.22-20.36a.74.74,0,1,1,1.43.37l-5.22,20.35A.73.73,0,0,1,116.76,69Z"/><path class="cls-29" d="M122.12,72.37a.66.66,0,0,1-.23,0,.72.72,0,0,1-.46-.93l6.8-20a.74.74,0,0,1,1.4.48l-6.81,20A.73.73,0,0,1,122.12,72.37Z"/><path class="cls-29" d="M127.86,76.19a.86.86,0,0,1-.27,0,.74.74,0,0,1-.43-1l7.43-19.39a.74.74,0,0,1,.95-.43.76.76,0,0,1,.43,1l-7.42,19.38A.75.75,0,0,1,127.86,76.19Z"/><path class="cls-29" d="M132.89,79.14a.63.63,0,0,1-.32-.08.73.73,0,0,1-.34-1L141,60.2a.74.74,0,0,1,1-.33.73.73,0,0,1,.34,1l-8.76,17.88A.74.74,0,0,1,132.89,79.14Z"/><path class="cls-29" d="M155.91,96.4a.75.75,0,0,1-.61-.32.74.74,0,0,1,.2-1l17.33-11.88a.74.74,0,0,1,1,.2.73.73,0,0,1-.2,1L156.33,96.27A.72.72,0,0,1,155.91,96.4Z"/><path class="cls-29" d="M150.9,92.51a.7.7,0,0,1-.57-.28.74.74,0,0,1,.11-1L166.91,78a.74.74,0,0,1,.93,1.15L151.37,92.35A.74.74,0,0,1,150.9,92.51Z"/><path class="cls-29" d="M145.36,88.43a.72.72,0,0,1-.56-.25.73.73,0,0,1,.07-1l15.67-13.62a.74.74,0,0,1,1,.08.73.73,0,0,1-.07,1L145.84,88.25A.74.74,0,0,1,145.36,88.43Z"/><path class="cls-29" d="M140.86,84.71a.75.75,0,0,1-.52-.21.74.74,0,0,1,0-1L154.11,69.1a.74.74,0,0,1,1.07,1L141.39,84.48A.75.75,0,0,1,140.86,84.71Z"/><path class="cls-29" d="M136.64,82.05a.76.76,0,0,1-.43-.14.75.75,0,0,1-.18-1l11.5-16.43a.73.73,0,0,1,1-.18.72.72,0,0,1,.18,1l-11.5,16.44A.72.72,0,0,1,136.64,82.05Z"/><polygon class="cls-15" points="54.9 194.59 132.14 84.21 135.46 86.53 59.83 194.61 54.9 194.59"/><rect class="cls-22" x="124.49" y="82.17" width="18.72" height="6.24" rx="3.12" transform="translate(73.08 -61.33) rotate(34.98)"/><rect class="cls-15" x="111.02" y="80.64" width="48.93" height="4.63" rx="2.31" transform="translate(72.03 -62.69) rotate(34.98)"/><path class="cls-8" d="M77.11,164l-2.74-1.67a2.15,2.15,0,0,0-3,.72h0a2.16,2.16,0,0,0,.71,2.95l.32.19a1.86,1.86,0,0,0-.1.25l-3.26-1.67a2.24,2.24,0,0,0-3,.88l-.14.25a2.08,2.08,0,0,0,.89,2.86l4,2.06a.5.5,0,0,0,0,.13l-2.65-1.45a2.26,2.26,0,0,0-3,.81l-.14.25a2.07,2.07,0,0,0,.81,2.88l1.74.95a2.13,2.13,0,0,0-2.41.83,2,2,0,0,0,.61,2.76l1.06.59c2.95,2.62,7.94,6.35,11.8,6.37l2.3,1,9.47-13.3C88.46,168.88,81.11,165.68,77.11,164Z"/><path class="cls-23" d="M76.89,168.71a.23.23,0,0,1-.11,0l-4.92-2.34a.24.24,0,0,1-.12-.33.25.25,0,0,1,.33-.12L77,168.24a.25.25,0,0,1-.1.47Z"/><path class="cls-23" d="M73.85,172.56l-.11,0-4.93-2.35a.25.25,0,0,1-.11-.33.25.25,0,0,1,.33-.11L74,172.09a.24.24,0,0,1,.12.33A.24.24,0,0,1,73.85,172.56Z"/><path class="cls-23" d="M72.11,176.85l-.11,0-4.92-2.35a.24.24,0,0,1-.12-.33.26.26,0,0,1,.33-.12l4.92,2.35a.24.24,0,0,1,.12.33A.24.24,0,0,1,72.11,176.85Z"/><path class="cls-2" d="M102.43,61.76q-.39-.13-.81-.24l-.66-.15-.17,0h0c-7.39-1.51-14.51-2.16-15.9.49a5.76,5.76,0,0,0-3.61-1.77,5.66,5.66,0,0,0-2.14.18A5.82,5.82,0,0,0,74.93,65a5.82,5.82,0,1,0,6.4,6.63,5.76,5.76,0,0,0,3.59-1.79,5.82,5.82,0,0,0,11-.35,15.23,15.23,0,0,1,3.9,1,9.06,9.06,0,0,1,4.85,6.9,15,15,0,0,1-.19,4.11c-.07.44-.15.88-.23,1.32l3.15.88a5.71,5.71,0,0,1,3.33,2.51l1.65-2.4.3-.79A16.19,16.19,0,0,0,102.43,61.76Z"/><path class="cls-30" d="M102.43,61.76q-.39-.13-.81-.24Q102,61.63,102.43,61.76Z"/><path class="cls-30" d="M100.79,61.33l.17,0-.17,0Z"/><path class="cls-31" d="M107.35,83.67l-3.15-.88c.08-.44.16-.88.23-1.32a15,15,0,0,0,.19-4.11,9.06,9.06,0,0,0-4.85-6.9,15.23,15.23,0,0,0-3.9-1,5.82,5.82,0,0,1-11,.35,5.81,5.81,0,0,1-9.86-2.5L69,89a13.3,13.3,0,0,0,1.25,10.16A13.38,13.38,0,0,0,79,107l4.34,1.21,0,5.94a8.42,8.42,0,0,0,8.35,8.44l3.44,0a8.43,8.43,0,0,0,8.44-8.35l.1-19.61.57.16a5.75,5.75,0,0,0,6.43-8.6A5.71,5.71,0,0,0,107.35,83.67Z"/><path class="cls-32" d="M107.32,91.23a.23.23,0,0,1-.17-.07l-1.89-1.75a.27.27,0,0,1-.08-.19.24.24,0,0,1,.09-.18L108,86.89a.26.26,0,0,1,.35,0,.24.24,0,0,1,0,.35l-2.48,2,1.68,1.56a.25.25,0,0,1,0,.35A.27.27,0,0,1,107.32,91.23Z"/><ellipse class="cls-33" cx="89.7" cy="108.7" rx="6.17" ry="4.04"/><path class="cls-2" d="M78.06,75.73a3.76,3.76,0,0,0-1.4-.63c-.52-.16-1-.33-1.49-.49s-1-.37-1.45-.58a3.58,3.58,0,0,0-1.47-.42c-.44,0-.77.43-.52,1.17a4.23,4.23,0,0,0,2.6,2.27A4.09,4.09,0,0,0,77.74,77C78.39,76.56,78.38,76,78.06,75.73Z"/><path class="cls-2" d="M83.64,76.86a4.29,4.29,0,0,1,1.74,0c.61.1,1.23.18,1.77.23s1.17.09,1.79.11a4.2,4.2,0,0,1,1.72.3c.44.24.58.82,0,1.46a4.85,4.85,0,0,1-3.79,1.06,4.69,4.69,0,0,1-3.48-1.76C82.89,77.55,83.15,77,83.64,76.86Z"/><path class="cls-2" d="M74.6,80.5a1,1,0,1,1-.6-1.25A1,1,0,0,1,74.6,80.5Z"/><path class="cls-2" d="M84.7,82.51a1,1,0,1,1-.6-1.25A1,1,0,0,1,84.7,82.51Z"/><path class="cls-32" d="M74.65,81.94a.23.23,0,0,1-.16-.06,2.31,2.31,0,0,0-2.18-.38.25.25,0,0,1-.31-.17.24.24,0,0,1,.17-.3,2.76,2.76,0,0,1,2.65.49.24.24,0,0,1,0,.35A.23.23,0,0,1,74.65,81.94Z"/><path class="cls-32" d="M84.5,84a.25.25,0,0,1-.19-.09,1.82,1.82,0,0,0-2.08-.35.25.25,0,1,1-.18-.46,2.3,2.3,0,0,1,2.64.49.26.26,0,0,1,0,.35A.27.27,0,0,1,84.5,84Z"/><path class="cls-34" d="M95.19,79.71,68.68,74.23a1.19,1.19,0,0,0-1.4.93L66.13,80.8a3,3,0,0,0,2.21,3.52l4.55,1.15a2.47,2.47,0,0,0,2.78-1.21l.7-1.27a2,2,0,0,1,2.18-1h0a2.23,2.23,0,0,1,1.79,2.22l0,1.52a2.44,2.44,0,0,0,1.89,2.41L90.31,90a2.52,2.52,0,0,0,3-1.88l2-8.3A.11.11,0,0,0,95.19,79.71Z"/><path class="cls-16" d="M91,90.38a3.08,3.08,0,0,1-.61-.07l-8.33-2a2.54,2.54,0,0,1-2-2.53l0-1.73a1.87,1.87,0,0,0-1.5-1.85l-.19,0a1.64,1.64,0,0,0-1.78.82l-.79,1.44a2.61,2.61,0,0,1-2.92,1.26l-4.76-1.2a3.13,3.13,0,0,1-2.3-3.65L67.07,75a1.27,1.27,0,0,1,.54-.81,1.3,1.3,0,0,1,1-.18l26,5.37a1.06,1.06,0,0,1,.66.45,1,1,0,0,1,.13.79l-1.83,7.77A2.6,2.6,0,0,1,92.37,90,2.63,2.63,0,0,1,91,90.38Zm-12.91-8.7a2,2,0,0,1,.42,0l.2,0a2.36,2.36,0,0,1,1.89,2.33l0,1.74a2.06,2.06,0,0,0,1.59,2l8.33,2a2.14,2.14,0,0,0,1.62-.27,2.1,2.1,0,0,0,1-1.33l1.83-7.78a.51.51,0,0,0-.07-.4.55.55,0,0,0-.34-.24l-26-5.37a.81.81,0,0,0-.59.11.79.79,0,0,0-.33.49L66.35,81a2.63,2.63,0,0,0,1.93,3.08L73,85.25a2.11,2.11,0,0,0,2.37-1l.79-1.44A2.15,2.15,0,0,1,78.08,81.68Z"/><polygon class="cls-16" points="95.13 79.87 104.56 81.15 104.17 82.82 94.04 84.47 95.13 79.87"/><path class="cls-6" d="M77.81,107.13a14.47,14.47,0,0,1-9.43-11,15.85,15.85,0,0,1,.26-7.15L69.45,86a12.31,12.31,0,0,0,5.14-1.46c2.67-1.35,5.36-.73,7.61,1.24,2.45,2.14,6.25,3.49,10.32,4.42,2.86.65,10.17,3.69,9.47,6.54a18.51,18.51,0,0,1-3.74,8.11c-2.15,2.4-5.31,3.3-8.41,3.62a29.92,29.92,0,0,1-11.13-1.07Z"/><path class="cls-9" d="M93.73,91.7a.24.24,0,0,1-.19-.08.26.26,0,0,1,0-.35l10.53-9a.24.24,0,0,1,.34,0,.25.25,0,0,1,0,.35l-10.53,9A.23.23,0,0,1,93.73,91.7Z"/><path class="cls-8" d="M82.36,88.94a.28.28,0,0,1-.2-.1s-2-2.63-4.19-3a5.36,5.36,0,0,0-3.89,1.2.24.24,0,0,1-.33-.36A5.7,5.7,0,0,1,78,85.4c2.38.35,4.43,3,4.52,3.14a.25.25,0,0,1,0,.35A.3.3,0,0,1,82.36,88.94Z"/><path class="cls-8" d="M76.41,91.11h-.07a.25.25,0,0,1-.16-.31l1.51-5.11a.25.25,0,0,1,.3-.17.24.24,0,0,1,.17.31l-1.51,5.11A.25.25,0,0,1,76.41,91.11Z"/><path class="cls-9" d="M99.25,95.61A.25.25,0,0,1,99,95.4a.24.24,0,0,1,.2-.28l4.17-.67a.24.24,0,0,1,.28.2.23.23,0,0,1-.2.28l-4.17.67Z"/><path class="cls-35" d="M80.11,95.25h-.06L71.67,93a.25.25,0,0,1-.18-.3.24.24,0,0,1,.3-.17l8.38,2.22a.26.26,0,0,1,.18.3A.25.25,0,0,1,80.11,95.25Z"/><path class="cls-35" d="M79.64,97.9h-.06L71.2,95.67a.25.25,0,0,1-.17-.31.24.24,0,0,1,.3-.17l8.37,2.23a.24.24,0,0,1,.18.3A.25.25,0,0,1,79.64,97.9Z"/><path class="cls-6" d="M75.24,65.92,113.9,77h0a21.13,21.13,0,0,0-14.17-26.3l-.15,0A19.42,19.42,0,0,0,75.72,64.28Z"/><path class="cls-8" d="M112.56,76.61S98.05,59.22,77.77,55.81,75,66,75,66Z"/><path class="cls-8" d="M50,63.18C49,61,35.37,74.78,35.37,74.78l-2.6.32c.48,3.7,1.65,8.74,4.44,11.18l1.06,2.11,15-3.67C54.42,79.85,51.05,65.36,50,63.18Z"/><rect class="cls-8" x="33.6" y="56.07" width="4.29" height="11.56" rx="1.78" transform="translate(-29.23 32.17) rotate(-35.43)"/><path class="cls-10" d="M39.47,49.85,37.94,53.2a.58.58,0,0,0,.21.73l4.49,3a.57.57,0,0,1,.21.7l-.91,2.29a.59.59,0,0,0,.38.77L46.48,62a.57.57,0,0,0,.66-.24l1.77-2.82a.6.6,0,0,1,.59-.26l3.62.59a.6.6,0,0,0,.66-.44l.3-1.22a.58.58,0,0,0-.07-.45c-.49-.78-2.16-3.44-2.33-3.56s-9.24-3.26-11.49-4A.57.57,0,0,0,39.47,49.85Z"/><path class="cls-15" d="M39.43,49.84l-1.54-.12a.79.79,0,0,0-.76.4l-.43.76a1.07,1.07,0,0,0,.15,1.26l1.06,1.18Z"/><path class="cls-15" d="M39,54.55l-.63,2.53-3.22,2.38.52.59,4.18-2a1.08,1.08,0,0,0,.62-.8l.27-1.56Z"/><path class="cls-16" d="M36.9,61.28h0A8.69,8.69,0,0,1,45.59,70V92.76a2.5,2.5,0,0,1-2.5,2.5H30.81a2.6,2.6,0,0,1-2.6-2.6V70a8.69,8.69,0,0,1,8.69-8.69Z" transform="translate(36.22 -8.26) rotate(24.8)"/><rect class="cls-10" x="28.35" y="70.57" width="17.38" height="14.4" transform="translate(36.03 -8.36) rotate(24.8)"/><rect class="cls-15" x="28.39" y="72.97" width="17.38" height="9.44" transform="translate(36 -8.39) rotate(24.8)"/><rect class="cls-17" x="30.68" y="61.28" width="12.43" height="33.97" rx="6.22" transform="translate(36.23 -8.26) rotate(24.8)"/><path class="cls-15" d="M41.26,61H47a2.61,2.61,0,0,1,2.61,2.61v.16a0,0,0,0,1,0,0h-11a0,0,0,0,1,0,0v-.16A2.61,2.61,0,0,1,41.26,61Z" transform="translate(30.24 -12.76) rotate(24.8)"/><rect class="cls-22" x="40.98" y="59.67" width="0.33" height="2.73" transform="translate(29.39 -11.63) rotate(24.8)"/><rect class="cls-22" x="42.79" y="60.51" width="0.33" height="2.73" transform="translate(29.91 -12.31) rotate(24.8)"/><rect class="cls-22" x="44.78" y="61.43" width="0.33" height="2.73" transform="translate(30.48 -13.06) rotate(24.8)"/><rect class="cls-22" x="46.59" y="62.26" width="0.33" height="2.73" transform="translate(30.99 -13.74) rotate(24.79)"/><path class="cls-8" d="M52.49,73.13S51.65,60.71,46.56,59c0,0-2.54-.55-2,2.11s1.15,8.21.48,9.9c-1.47,3.73-.26,11.21-.26,11.21Z"/><rect class="cls-8" x="32.45" y="62.57" width="4.29" height="9.95" rx="2.15" transform="translate(-38.24 46.23) rotate(-46.56)"/><rect class="cls-8" x="29.88" y="67.21" width="4.29" height="7.46" rx="2.15" transform="translate(-41.51 45.42) rotate(-46.57)"/><path class="cls-10" d="M8.55,46.47H8.5l-1-.22a.25.25,0,1,1,.11-.48l1,.22a.25.25,0,0,1,.18.3A.24.24,0,0,1,8.55,46.47Z"/><path class="cls-10" d="M29.23,51.22h-.05l-2.07-.48a.25.25,0,1,1,.11-.48l2.07.48a.24.24,0,0,1,.18.29A.24.24,0,0,1,29.23,51.22Zm-4.13-.95H25L23,49.79a.25.25,0,0,1,.11-.48l2.07.48a.25.25,0,0,1,.19.29A.26.26,0,0,1,25.1,50.27Zm-4.14-1h-.05l-2.07-.47a.25.25,0,0,1-.19-.3.25.25,0,0,1,.3-.18l2.07.47a.26.26,0,0,1,.18.3A.25.25,0,0,1,21,49.32Zm-4.13-1h-.06l-2.07-.47a.25.25,0,0,1-.18-.3.24.24,0,0,1,.29-.18l2.07.47a.26.26,0,0,1,.19.3A.26.26,0,0,1,16.83,48.37Zm-4.14-.95h-.06l-2.06-.47a.25.25,0,1,1,.11-.48l2.07.47a.25.25,0,0,1,.18.3A.26.26,0,0,1,12.69,47.42Z"/><path class="cls-10" d="M32.26,51.92H32.2l-1-.22a.24.24,0,0,1-.18-.29.25.25,0,0,1,.3-.19l1,.22a.25.25,0,0,1,.18.3A.26.26,0,0,1,32.26,51.92Z"/><path class="cls-10" d="M34.71,50a.22.22,0,0,1-.15-.06l-.73-.56a.23.23,0,0,1,0-.34.24.24,0,0,1,.34,0l.73.57a.23.23,0,0,1,0,.34A.24.24,0,0,1,34.71,50Zm-2.29-1.77a.3.3,0,0,1-.15,0L30.71,47a.25.25,0,0,1,0-.34.25.25,0,0,1,.35-.05l1.55,1.21a.24.24,0,0,1,0,.34A.23.23,0,0,1,32.42,48.23Zm-3.11-2.41a.25.25,0,0,1-.15,0L27.6,44.56a.24.24,0,0,1-.05-.34.25.25,0,0,1,.35,0l1.56,1.21a.25.25,0,0,1,0,.34A.26.26,0,0,1,29.31,45.82Zm-3.12-2.41a.27.27,0,0,1-.15,0l-1.56-1.21a.24.24,0,0,1,0-.35.25.25,0,0,1,.34,0L26.34,43a.23.23,0,0,1,0,.34A.24.24,0,0,1,26.19,43.41ZM23.07,41a.24.24,0,0,1-.15-.06l-1.56-1.2a.25.25,0,0,1,.3-.39l1.56,1.2a.25.25,0,0,1,.05.35A.26.26,0,0,1,23.07,41ZM20,38.58a.23.23,0,0,1-.15,0l-1.55-1.2A.25.25,0,0,1,18.2,37a.25.25,0,0,1,.35,0l1.56,1.2a.26.26,0,0,1,0,.35A.25.25,0,0,1,20,38.58Zm-3.11-2.41a.2.2,0,0,1-.15-.05l-1.56-1.2a.25.25,0,0,1-.05-.35.24.24,0,0,1,.35,0L17,35.73a.24.24,0,0,1,0,.35A.25.25,0,0,1,16.84,36.17Zm-3.12-2.41a.21.21,0,0,1-.15,0L12,32.51a.24.24,0,0,1,0-.35.23.23,0,0,1,.34,0l1.56,1.2a.24.24,0,0,1,0,.35A.23.23,0,0,1,13.72,33.76Z"/><path class="cls-10" d="M36.21,47.4a.25.25,0,0,1-.21-.12l-1-1.65a.25.25,0,0,1,.42-.27L36.42,47a.25.25,0,0,1-.08.34A.22.22,0,0,1,36.21,47.4Zm-2.1-3.32A.24.24,0,0,1,33.9,44L32.84,42.3a.25.25,0,0,1,.08-.34.25.25,0,0,1,.34.08l1.05,1.66a.24.24,0,0,1-.07.34A.22.22,0,0,1,34.11,44.08ZM32,40.75a.25.25,0,0,1-.21-.12L30.73,39a.25.25,0,0,1,.08-.34.24.24,0,0,1,.34.08l1.06,1.66a.25.25,0,0,1-.08.34A.22.22,0,0,1,32,40.75Zm-2.11-3.33a.26.26,0,0,1-.21-.11l-1.05-1.67a.24.24,0,1,1,.41-.26L30.1,37a.24.24,0,0,1-.08.34A.22.22,0,0,1,29.89,37.42Zm-2.11-3.33a.26.26,0,0,1-.21-.11l-1.05-1.67a.24.24,0,1,1,.41-.26L28,33.71a.24.24,0,0,1-.08.34A.22.22,0,0,1,27.78,34.09Zm-2.11-3.33a.26.26,0,0,1-.21-.11L24.41,29a.25.25,0,0,1,.07-.34.24.24,0,0,1,.34.08l1.06,1.66a.24.24,0,0,1-.08.34A.2.2,0,0,1,25.67,30.76Zm-2.11-3.33a.26.26,0,0,1-.21-.11L22.3,25.65a.25.25,0,0,1,.42-.26l1.05,1.66a.24.24,0,0,1-.08.34A.2.2,0,0,1,23.56,27.43ZM21.45,24.1a.26.26,0,0,1-.21-.11l-1-1.67a.25.25,0,0,1,.08-.34.26.26,0,0,1,.34.08l1.05,1.67a.25.25,0,0,1-.08.34A.28.28,0,0,1,21.45,24.1Z"/><path class="cls-2" d="M161.85,47.56l-3.32-.06c1.23-1.86,1.45-3.54.81-4.93-1.16-2.57-5.36-.82-5.36-.82s2.44-4.07.37-6.82c-2.56-3.39-5.85-.13-5.85-.13a9,9,0,0,0-4.25-3.64,5.36,5.36,0,0,0-5.71,1.24c-2.66,2.66-1.44,6.41-1.44,6.41-6.27-2.2-7.52,2.24-7.52,2.24-1.87,5.84,4.87,8,4.87,8a9.7,9.7,0,0,0-1.2,2.32c-1.53,4.27.22,8.84,6.22,8.08a17.38,17.38,0,0,0-.89,5.19l-.15,8.59a12.14,12.14,0,0,0,11.92,12.35l16.81.3a11.48,11.48,0,0,0,11.68-11.28l.17-9.24A17.47,17.47,0,0,0,161.85,47.56Z"/><path class="cls-36" d="M141,74.06a1,1,0,0,1-1-1V65.62c0-8.29,8.42-15,18.76-15,10.17,0,18.44,6.63,18.44,14.77v7.36a1,1,0,1,1-2,0V65.36c0-7.06-7.39-12.8-16.47-12.8-9.26,0-16.79,5.86-16.79,13.06v7.45A1,1,0,0,1,141,74.06Z"/><path class="cls-36" d="M166.75,53.71,164.06,52a8,8,0,0,1-2.54-11l1.69-2.7.83.53a10.2,10.2,0,0,1,3.23,14ZM163.8,41.07l-.61,1a6,6,0,0,0,1.91,8.31l1,.61a8.21,8.21,0,0,0-2.28-9.89Z"/><path class="cls-36" d="M167.77,53.21a8.52,8.52,0,0,1-1.33-.11l-1-.15.44-2.73a6.67,6.67,0,0,1,7.64-5.55l2.73.43-.15,1A8.48,8.48,0,0,1,167.77,53.21Zm0-2h0a6.51,6.51,0,0,0,6.17-4.51l-.71-.12a4.73,4.73,0,0,0-5.39,3.92Z"/><path class="cls-37" d="M183,77.25a5.33,5.33,0,0,0-3.67-5c-3.67-.24-4.15.42-4.59,2-.13.49-2.49-5.17-3-5.16-18.1.38-19.26-9.45-19.26-9.45-1,6.78-6.33,7.19-9.6,6.76v1.26h0l0,5-.74,0a5.35,5.35,0,0,0-5.23,5.46v.33a5.33,5.33,0,0,0,5.46,5.22H143l0,2.58a16.55,16.55,0,0,0,6.59,13.11l.2,8.84a10.33,10.33,0,1,0,20.66-.46l-.2-8.94a16.56,16.56,0,0,0,5.89-12.8l0-3.07,1.63,0A5.36,5.36,0,0,0,183,77.57Z"/><path class="cls-38" d="M152.3,99.61a7.83,7.83,0,1,0,8.93-6.55A7.83,7.83,0,0,0,152.3,99.61Z"/><path class="cls-39" d="M178.76,79.53a.33.33,0,0,1-.16,0l-1.53-1.3,2-2.35a.23.23,0,0,1,.34,0,.24.24,0,0,1,0,.34l-1.66,2,1.16,1a.24.24,0,0,1,0,.35A.27.27,0,0,1,178.76,79.53Z"/><path class="cls-39" d="M141.37,79.6a.22.22,0,0,1-.18-.08.24.24,0,0,1,0-.34l1.12-1-1.74-1.9a.25.25,0,0,1,.36-.34L143,78.18l-1.47,1.36A.27.27,0,0,1,141.37,79.6Z"/><path class="cls-2" d="M169.13,73.62a3.74,3.74,0,0,1-1.53.22c-.56,0-1.11,0-1.6.06s-1,.09-1.58.16a3.66,3.66,0,0,1-1.55,0c-.43-.15-.64-.64-.2-1.31a4.28,4.28,0,0,1,3.17-1.5,4.16,4.16,0,0,1,3.33,1.06C169.69,72.89,169.54,73.41,169.13,73.62Z"/><path class="cls-39" d="M156.88,81.06a.24.24,0,0,1-.24-.24,1.74,1.74,0,0,1,1.45-1.76l.45-.08.05-3.88a.24.24,0,0,1,.24-.24h0a.24.24,0,0,1,.24.24L159,79.4l-.86.15a1.25,1.25,0,0,0-1,1.26.25.25,0,0,1-.24.25Z"/><path class="cls-2" d="M146.78,72.59a3.7,3.7,0,0,0,1.56,0c.55-.07,1.1-.13,1.58-.16s1,0,1.59,0a3.6,3.6,0,0,0,1.54-.21c.4-.21.54-.73,0-1.32a4.22,4.22,0,0,0-3.35-1.07,4.1,4.1,0,0,0-3.14,1.48C146.14,71.94,146.35,72.44,146.78,72.59Z"/><path class="cls-2" d="M164.68,76.86a1.2,1.2,0,1,0,1.59-.61A1.2,1.2,0,0,0,164.68,76.86Z"/><path class="cls-39" d="M164.7,79a.23.23,0,0,1-.22-.13.24.24,0,0,1,.1-.33,2.49,2.49,0,0,1,2.47,0,.24.24,0,0,1,.07.34.23.23,0,0,1-.33.07h0a2,2,0,0,0-2,.06A.2.2,0,0,1,164.7,79Z"/><path class="cls-2" d="M151.57,77.15a1.2,1.2,0,1,0,1.59-.61A1.2,1.2,0,0,0,151.57,77.15Z"/><path class="cls-39" d="M151.49,79.36a.23.23,0,0,1-.22-.13.24.24,0,0,1,.1-.33,2.68,2.68,0,0,1,2.68,0,.24.24,0,0,1,.08.34.25.25,0,0,1-.34.07,2.23,2.23,0,0,0-2.19.06A.2.2,0,0,1,151.49,79.36Z"/><path class="cls-7" d="M164.9,79.75c3.46,2,7.38,3.69,11.35,3,0,0,2.4,19.45-16.6,19.72-18.73.26-17-19.47-17-19.47a33.66,33.66,0,0,0,11.65-3.18C157.17,78.4,162.1,78.18,164.9,79.75Z"/><path class="cls-40" d="M152.53,83.31a.22.22,0,0,1-.21-.12.24.24,0,0,1,.08-.34,17.52,17.52,0,0,1,6.47-2.3c2.9-.17,6.81,2.15,7,2.25a.24.24,0,0,1-.25.42s-3.94-2.34-6.69-2.17-6.21,2.2-6.25,2.22A.19.19,0,0,1,152.53,83.31Z"/><path class="cls-40" d="M159,87.84a.24.24,0,0,1-.24-.24l0-6.58a.25.25,0,0,1,.25-.25h0a.24.24,0,0,1,.24.24l0,6.58a.25.25,0,0,1-.25.25Z"/><path class="cls-40" d="M153.48,90.87a.25.25,0,0,1-.25-.24.25.25,0,0,1,.24-.25l10.38-.47a.25.25,0,0,1,0,.49l-10.39.47Z"/><path class="cls-40" d="M153.89,96.53a.23.23,0,0,1-.24-.23.25.25,0,0,1,.23-.26l10.39-.46a.24.24,0,0,1,.26.23.25.25,0,0,1-.24.26l-10.38.46Z"/><path class="cls-16" d="M146.72,82.71a.25.25,0,0,1-.24-.22c-.85-6.61-4-10-4-10a.25.25,0,0,1,0-.35.24.24,0,0,1,.34,0c.14.14,3.32,3.49,4.19,10.28a.25.25,0,0,1-.22.27Z"/><path class="cls-16" d="M171.35,82.94a.25.25,0,0,1-.24-.25c0-8.67,3.73-9.76,3.89-9.8a.25.25,0,0,1,.13.48c-.06,0-3.53,1.1-3.53,9.32A.25.25,0,0,1,171.35,82.94Z"/><path class="cls-40" d="M170.71,107.22v-2.28a1.56,1.56,0,0,0-1.56-1.56h-19a1.57,1.57,0,0,0-1.57,1.56v2.27H142c1.74,4.18,6.49,15.83,6.49,15.83l.17.39a12.32,12.32,0,0,0,22.55-.31l0-.08,6.29-15.82Z"/><path class="cls-41" d="M170.71,124.09l-.49-.73H148.59l0,.07A12.33,12.33,0,0,0,170.71,124.09Z"/><path class="cls-36" d="M218,142.85,208,131.24l-14-16.37c-5.14-5.86-7.65-8.83-15.12-9.12a1,1,0,0,0-1,.66l-.33.81L171.21,123l0,.08c-.14.33-.3.66-.46,1a12.33,12.33,0,0,1-22.09-.66l0-.07-.14-.32s-4.75-11.65-6.49-15.83c-.39-.91-.63-1.47-.64-1.47A25.94,25.94,0,0,0,116,129l-1.41,13.14h0l-1.88,24c.19,8.75,7.62,15.08,16,14.9v13.68h62.06V172.58h7.75C216.41,171.24,224.29,150.7,218,142.85Zm-85.92,12.57a9.46,9.46,0,0,0,1.16,1.45H132.2Zm57.06-5.8A9.43,9.43,0,0,0,189,148h0a1,1,0,0,1,1.81-.89l2,2.34,0,0Z"/><g class="cls-42"><polygon class="cls-40" points="183.17 125.61 182.41 125.54 182.99 127.33 191.28 147.03 193.92 147.22 183.16 125.63 183.17 125.61"/></g><polygon class="cls-40" points="177.41 148.18 153.56 143.66 154.08 142.79 179.18 147.25 177.41 148.18"/><g class="cls-42"><polygon class="cls-40" points="139.16 128.16 138.56 127.69 138.06 129.5 134.27 150.53 136.38 152.14 139.14 128.16 139.16 128.16"/></g><path class="cls-40" d="M152.34,162.49h0a5.45,5.45,0,0,0,3.74,3.9l34.69,8.74-.06-2.73Z"/><polygon class="cls-40" points="128.53 180.98 175.7 171.36 177.55 171.94 128.53 182.6 128.53 180.98"/><path class="cls-14" d="M148.56,149s-7.08-6.83-12-5a1.57,1.57,0,0,0-.18,2.84c2,1.66,6,4,6.55,5.63s.44.61.44.61Z"/><path class="cls-43" d="M150,151.41s-7.08-6.83-12-4.95a1.56,1.56,0,0,0-.18,2.84c2,1.66,6,4,6.55,5.62s.44.62.44.62Z"/><path class="cls-10" d="M124.15,136.86l.66,3.21a.51.51,0,0,0,.53.41l4.8-.18a.51.51,0,0,1,.52.39l.54,2.11a.53.53,0,0,0,.68.37l3.65-1.27a.5.5,0,0,0,.35-.52l-.2-2.95a.53.53,0,0,1,.29-.5l2.9-1.47a.52.52,0,0,0,.25-.66l-.43-1a.5.5,0,0,0-.28-.29c-.75-.3-3.35-1.34-3.53-1.34s-8.35,2.49-10.37,3.12A.51.51,0,0,0,124.15,136.86Z"/><path class="cls-15" d="M124.12,136.87l-1.17.72a.71.71,0,0,0-.34.69l.1.77a1,1,0,0,0,.76.83l1.38.28Z"/><path class="cls-15" d="M126.26,140.49l.87,2.14-1.07,3.4.69.15,2-3.59a1,1,0,0,0,0-.9l-.62-1.26Z"/><path class="cls-28" d="M137.17,143.36h0a8.8,8.8,0,0,1,8.8,8.8v23.07a2.53,2.53,0,0,1-2.53,2.53H131a2.63,2.63,0,0,1-2.63-2.63v-23a8.8,8.8,0,0,1,8.8-8.8Z" transform="translate(-28.72 29.89) rotate(-11.26)"/><rect class="cls-10" x="128.09" y="151.83" width="17.6" height="14.58" transform="translate(-28.45 29.8) rotate(-11.26)"/><rect class="cls-15" x="128.07" y="154.26" width="17.6" height="9.56" transform="translate(-28.43 29.8) rotate(-11.26)"/><rect class="cls-41" x="130.88" y="143.36" width="12.59" height="34.4" rx="6.29" transform="translate(-28.72 29.88) rotate(-11.26)"/><path class="cls-15" d="M131.53,142.23h4a2.05,2.05,0,0,1,2.05,2.05v0a0,0,0,0,1,0,0h-8.13a0,0,0,0,1,0,0v0A2.05,2.05,0,0,1,131.53,142.23Z" transform="translate(-25.41 28.85) rotate(-11.26)"/><rect class="cls-22" x="131.03" y="142.73" width="0.24" height="2.02" transform="translate(-25.54 28.37) rotate(-11.26)"/><rect class="cls-22" x="132.48" y="142.45" width="0.24" height="2.02" transform="translate(-25.48 28.68) rotate(-11.27)"/><rect class="cls-22" x="134.07" y="142.13" width="0.24" height="2.02" transform="translate(-25.39 28.99) rotate(-11.27)"/><rect class="cls-22" x="135.52" y="141.84" width="0.24" height="2.02" transform="translate(-25.3 29.26) rotate(-11.27)"/><path class="cls-14" d="M129,159l-.14-.28a1.85,1.85,0,0,1,.86-2.47l2-1-1.4.68a1.75,1.75,0,0,1-2.37-.84,2.15,2.15,0,0,1,1-2.75,17,17,0,0,1,4.44-1.65c2.49-.48,7.26-1.73,9.33-2.29a14.13,14.13,0,0,1,2.06-.39l4.42-.48,3.33,14.76-14.54,1.82a2.24,2.24,0,0,1-3-1.05.65.65,0,0,1,.3-.87l.56-.27-1.45.71a2.07,2.07,0,0,1-2.76-1l-.1-.21a1.52,1.52,0,0,1,.7-2l2-1-2.76,1.34A1.81,1.81,0,0,1,129,159Z"/><path class="cls-44" d="M132.52,155.38a.4.4,0,1,0-.36-.71L129.54,156a.38.38,0,0,0-.18.53.4.4,0,0,0,.54.19l2.61-1.28Z"/><path class="cls-44" d="M131.66,160.27h0l3.21-1.78a.39.39,0,0,0,.16-.54.43.43,0,0,0-.55-.16l-3.21,1.78a.4.4,0,0,0-.16.55A.41.41,0,0,0,131.66,160.27Z"/><path class="cls-44" d="M137.42,161.52a.41.41,0,0,0,.17-.53.41.41,0,0,0-.54-.19L134.59,162a.39.39,0,0,0-.18.53.4.4,0,0,0,.54.19l2.45-1.21Z"/><path class="cls-14" d="M183.71,145.51s-6.6,2.42-6.44,2.9c.07.21,12.92,3.52,13.35,3.1,2.44-2.4,5.31-3.92,8.22-2.46C206.25,152.75,189.19,138.53,183.71,145.51Z"/><path class="cls-45" d="M318.78,194.93H.74a.74.74,0,0,1,0-1.48h318a.74.74,0,0,1,0,1.48Z"/></g></g></svg>