<svg xmlns="http://www.w3.org/2000/svg" viewBox="0 0 280.99 241.15"><defs><style>.cls-1{fill:#f6f6f6;}.cls-2{fill:#d7b87f;}.cls-3{fill:#b08868;}.cls-4{fill:#fff;}.cls-5{fill:#b2b095;}.cls-6{fill:#7f7f74;}.cls-7{fill:#c88a5e;}.cls-8{fill:#6c2910;}.cls-9{fill:#f8ceab;}.cls-10{fill:#f9af3d;}.cls-11{fill:#e27872;}.cls-12{fill:#4b3c32;}.cls-13{fill:#343c52;}.cls-14{fill:#dbd59e;}.cls-15{fill:#dcc9bd;}.cls-16{fill:#fdce75;}.cls-17{fill:#99b0dc;}.cls-18{fill:#776b61;}</style></defs><g id="Capa_2" data-name="Capa 2"><g id="Capa_1-2" data-name="Capa 1"><path class="cls-1" d="M101.72,51.2H95a7,7,0,0,0,7-7h0a7,7,0,0,0-7-7H80.78a7,7,0,0,0,7-7h0a7,7,0,0,0-7-7H59.45a7,7,0,0,0-7,7h0a7,7,0,0,0,7,7H46.67a7,7,0,0,0-7,7h0a7,7,0,0,0,7,7H58.14a7,7,0,0,0-7,7h0a7,7,0,0,0,7,7h43.58a7,7,0,0,0,7-7h0A7,7,0,0,0,101.72,51.2Z"/><path class="cls-1" d="M246.68,70.56H240a7,7,0,0,1,6.95,7h0a7,7,0,0,1-6.95,7H225.91a7,7,0,0,1,7,7h0a7,7,0,0,1-7,7H204.77a7,7,0,0,1-7-7h0a7,7,0,0,1,7-7H192.09a7,7,0,0,1-7-7h0a7,7,0,0,1,7-7h11.37a7,7,0,0,1-7-7h0a7,7,0,0,1,7-7h43.22a7,7,0,0,1,7,7h0A7,7,0,0,1,246.68,70.56Z"/><path class="cls-1" d="M189.29,13.65H178.81a6.82,6.82,0,0,0,6.82-6.82h0A6.82,6.82,0,0,0,178.81,0h-32A6.83,6.83,0,0,0,140,6.83h0a6.82,6.82,0,0,0,6.83,6.82H134.34a6.83,6.83,0,0,0-6.83,6.83h0a6.82,6.82,0,0,0,6.83,6.82h10.47A6.83,6.83,0,0,0,138,34.13h0A6.83,6.83,0,0,0,144.81,41H175a6.83,6.83,0,0,0,6.83-6.83h0A6.83,6.83,0,0,0,175,27.3h14.31a6.82,6.82,0,0,0,6.83-6.82h0A6.83,6.83,0,0,0,189.29,13.65Z"/><path class="cls-1" d="M236.32,155.26H224.18a7.9,7.9,0,0,0,7.9-7.9h0a7.91,7.91,0,0,0-7.9-7.91H187.09a7.91,7.91,0,0,0-7.91,7.91h0a7.91,7.91,0,0,0,7.91,7.9H172.67a7.91,7.91,0,0,0-7.91,7.91h0a7.91,7.91,0,0,0,7.91,7.91h12.12a7.9,7.9,0,0,0-7.9,7.9h0a7.91,7.91,0,0,0,7.9,7.91h35a7.91,7.91,0,0,0,7.9-7.91h0a7.9,7.9,0,0,0-7.9-7.9h16.57a7.91,7.91,0,0,0,7.91-7.91h0A7.91,7.91,0,0,0,236.32,155.26Z"/><path class="cls-1" d="M57.45,168.28H69.59a7.9,7.9,0,0,0-7.9,7.9h0a7.91,7.91,0,0,0,7.9,7.91h37.09a7.91,7.91,0,0,0,7.91-7.91h0a7.91,7.91,0,0,0-7.91-7.9H121.1a7.91,7.91,0,0,0,7.91-7.91h0a7.91,7.91,0,0,0-7.91-7.91H109a7.9,7.9,0,0,0,7.9-7.9h0a7.91,7.91,0,0,0-7.9-7.91H74a7.91,7.91,0,0,0-7.91,7.91h0a7.91,7.91,0,0,0,7.91,7.9H57.45a7.91,7.91,0,0,0-7.9,7.91h0A7.91,7.91,0,0,0,57.45,168.28Z"/><ellipse class="cls-2" cx="151.11" cy="211.59" rx="106.77" ry="8.33"/><path class="cls-3" d="M218.37,31.07H81.11a4.47,4.47,0,0,0-4.67,4.25V206.64a4.47,4.47,0,0,0,4.67,4.24H218.37a4.47,4.47,0,0,0,4.66-4.24V35.32A4.47,4.47,0,0,0,218.37,31.07Z"/><rect class="cls-4" x="87.16" y="40.82" width="125.16" height="160.32"/><path class="cls-5" d="M169.33,23.2H162c0-4.53-5.51-8.21-12.3-8.21s-12.31,3.68-12.31,8.21h-7.29A3.83,3.83,0,0,0,126.31,27V46.88h46.85V27A3.83,3.83,0,0,0,169.33,23.2Zm-19.59,3.28a2.77,2.77,0,1,1,2.77-2.77A2.77,2.77,0,0,1,149.74,26.48Z"/><rect class="cls-6" x="126.31" y="35.04" width="46.86" height="5.92"/><path class="cls-5" d="M132,67.6c9.28.81,18.82.23,28.14.23s18.87.6,28.14-.31a.41.41,0,0,0,0-.81c-9.27-.91-18.82-.32-28.14-.31s-18.86-.58-28.14.23a.49.49,0,0,0,0,1Z"/><path class="cls-5" d="M133.08,72.69c10.23.37,20.45.49,30.69.53,5,0,10,.08,15,.09,4.75,0,9.86.55,14.54-.33a.54.54,0,0,0,0-1c-4.49-.85-9.36-.35-13.92-.34-5.22,0-10.44.08-15.66.1-10.24,0-20.46.16-30.69.53a.23.23,0,0,0,0,.45Z"/><path class="cls-5" d="M135,77.89c8.24,1.15,17,.46,25.27.45h12.59c4.21,0,8.54.3,12.72-.32a.53.53,0,0,0,0-1c-4-.58-8.08-.31-12.09-.31H160.28c-8.31,0-17-.69-25.27.46a.39.39,0,0,0,0,.74Z"/><path class="cls-5" d="M132.51,62.53c9.33.59,18.81.15,28.15.16h13.76c4.75,0,9.66.37,14.38-.24a.53.53,0,0,0,0-1.05c-4.51-.58-9.21-.24-13.76-.23H160.66c-9.34,0-18.82-.44-28.15.16a.59.59,0,0,0,0,1.18Z"/><path class="cls-5" d="M121.23,79.65H104.56V59.8h16.67Zm-14.78-1.89h12.89V61.7H106.45Z"/><path class="cls-7" d="M108.25,66l2.33,4.5c.32.61.76,1.94,1.45,2.32,1.53.85,2.78-.78,3.64-1.79,1.79-2.1,3.38-4.36,5.18-6.45s4.33-3.69,6.33-5.73a.65.65,0,0,0-.63-1.08c-3.52.84-6.37,4.74-8.49,7.43-1.12,1.42-2.39,4-3.92,5-.46,1-1.1,1-1.93,0l-.54-1a34.24,34.24,0,0,1-2.17-3.94c-.45-.82-1.68-.1-1.25.73Z"/><path class="cls-5" d="M132,103.34c9.28.81,18.82.23,28.14.23s18.87.6,28.14-.31a.41.41,0,0,0,0-.81c-9.27-.91-18.82-.32-28.14-.31s-18.86-.58-28.14.23a.49.49,0,0,0,0,1Z"/><path class="cls-5" d="M133.08,108.43c10.23.37,20.45.49,30.69.53,5,0,10,.08,15,.09,4.75,0,9.86.55,14.54-.33a.54.54,0,0,0,0-1c-4.49-.85-9.36-.35-13.92-.34-5.22,0-10.44.08-15.66.1-10.24,0-20.46.16-30.69.53a.23.23,0,0,0,0,.45Z"/><path class="cls-5" d="M135,113.63c8.24,1.15,17,.46,25.27.45h12.59c4.21,0,8.54.3,12.72-.32a.53.53,0,0,0,0-1c-4-.58-8.08-.31-12.09-.31H160.28c-8.31,0-17-.69-25.27.46a.39.39,0,0,0,0,.74Z"/><path class="cls-5" d="M132.51,98.27c9.33.59,18.81.15,28.15.16h13.76c4.75,0,9.66.37,14.38-.24a.53.53,0,0,0,0-1c-4.51-.58-9.21-.24-13.76-.23H160.66c-9.34,0-18.82-.44-28.15.16a.59.59,0,0,0,0,1.18Z"/><path class="cls-5" d="M121.23,115.39H104.56V95.54h16.67Zm-14.78-1.89h12.89V97.44H106.45Z"/><path class="cls-7" d="M108.25,101.7q1.16,2.25,2.33,4.49c.32.62.76,2,1.45,2.33,1.53.85,2.78-.78,3.64-1.79,1.79-2.1,3.38-4.36,5.18-6.45s4.33-3.69,6.33-5.73a.66.66,0,0,0-.63-1.09c-3.52.85-6.37,4.75-8.49,7.44-1.12,1.42-2.39,4-3.92,5-.46,1-1.1,1-1.93,0l-.54-1A34.24,34.24,0,0,1,109.5,101c-.45-.82-1.68-.1-1.25.73Z"/><path class="cls-5" d="M132,139.08c9.28.81,18.82.23,28.14.23s18.87.6,28.14-.31a.41.41,0,0,0,0-.81c-9.27-.91-18.82-.32-28.14-.32s-18.86-.57-28.14.24a.49.49,0,0,0,0,1Z"/><path class="cls-5" d="M133.08,144.17c10.23.37,20.45.49,30.69.53,5,0,10,.07,15,.09,4.75,0,9.86.55,14.54-.33a.54.54,0,0,0,0-1c-4.49-.85-9.36-.35-13.92-.34-5.22,0-10.44.08-15.66.1-10.24,0-20.46.16-30.69.53a.23.23,0,0,0,0,.45Z"/><path class="cls-5" d="M135,149.37c8.24,1.15,17,.46,25.27.45h12.59c4.21,0,8.54.3,12.72-.32a.53.53,0,0,0,0-1c-4-.58-8.08-.31-12.09-.31H160.28c-8.31,0-17-.69-25.27.46a.39.39,0,0,0,0,.74Z"/><path class="cls-5" d="M132.51,134c9.33.59,18.81.15,28.15.16h13.76c4.75,0,9.66.37,14.38-.24a.53.53,0,0,0,0-1.05c-4.51-.58-9.21-.24-13.76-.23H160.66c-9.34,0-18.82-.44-28.15.16a.59.59,0,0,0,0,1.18Z"/><path class="cls-5" d="M121.23,151.13H104.56V131.28h16.67Zm-14.78-1.89h12.89V133.17H106.45Z"/><path class="cls-7" d="M108.25,137.44l2.33,4.49c.32.62.76,1.95,1.45,2.33,1.53.85,2.78-.78,3.64-1.79,1.79-2.1,3.38-4.36,5.18-6.45s4.33-3.69,6.33-5.73a.66.66,0,0,0-.63-1.09c-3.52.85-6.37,4.75-8.49,7.44-1.12,1.42-2.39,4-3.92,5-.46,1-1.1,1-1.93,0l-.54-1a34.24,34.24,0,0,1-2.17-3.94c-.45-.82-1.68-.1-1.25.73Z"/><path class="cls-5" d="M132,174.82c9.28.81,18.82.23,28.14.23s18.87.6,28.14-.31a.41.41,0,0,0,0-.81c-9.27-.91-18.82-.32-28.14-.32s-18.86-.57-28.14.24a.49.49,0,0,0,0,1Z"/><path class="cls-5" d="M133.08,179.91c10.23.37,20.45.49,30.69.53,5,0,10,.07,15,.09,4.75,0,9.86.55,14.54-.33a.54.54,0,0,0,0-1c-4.49-.85-9.36-.35-13.92-.34-5.22,0-10.44.08-15.66.1-10.24,0-20.46.16-30.69.53a.23.23,0,0,0,0,.45Z"/><path class="cls-5" d="M135,185.11c8.24,1.15,17,.46,25.27.45h12.59c4.21,0,8.54.3,12.72-.32a.53.53,0,0,0,0-1c-4-.58-8.08-.31-12.09-.32H160.28c-8.31,0-17-.69-25.27.46a.39.39,0,0,0,0,.74Z"/><path class="cls-5" d="M132.51,169.75c9.33.59,18.81.15,28.15.16h13.76c4.75,0,9.66.37,14.38-.24a.53.53,0,0,0,0-1.05c-4.51-.58-9.21-.24-13.76-.23H160.66c-9.34,0-18.82-.44-28.15.15a.6.6,0,0,0,0,1.19Z"/><path class="cls-5" d="M121.23,186.87H104.56V167h16.67ZM106.45,185h12.89V168.91H106.45Z"/><path class="cls-7" d="M108.25,173.18q1.16,2.25,2.33,4.49c.32.62.76,2,1.45,2.33,1.53.85,2.78-.78,3.64-1.79,1.79-2.1,3.38-4.36,5.18-6.45s4.33-3.69,6.33-5.73a.66.66,0,0,0-.63-1.09c-3.52.85-6.37,4.75-8.49,7.44-1.12,1.42-2.39,4-3.92,5-.46,1-1.1,1-1.93,0l-.54-1a34.24,34.24,0,0,1-2.17-3.94c-.45-.82-1.68-.1-1.25.73Z"/><ellipse class="cls-2" cx="53.81" cy="229.21" rx="49.73" ry="6.72"/><rect class="cls-8" x="50.92" y="36.98" width="11.32" height="99.02" transform="translate(-6.9 168.06) rotate(-108.92)"/><rect class="cls-7" x="54.24" y="36.98" width="4.67" height="99.02" transform="translate(-6.9 168.06) rotate(-108.92)"/><polygon class="cls-9" points="101.58 65.09 112.39 64.9 119.98 64.76 113.91 69.31 105.25 75.8 101.58 65.09"/><polygon class="cls-8" points="112.39 64.9 119.98 64.76 113.91 69.31 112.39 64.9"/><rect class="cls-10" x="2.38" y="101.32" width="11.32" height="3.61" transform="translate(-86.92 144.16) rotate(-108.92)"/><path class="cls-11" d="M.15,102.78,2,108.24A2.77,2.77,0,0,0,5.54,110l2.62-.89L4.49,98.36l-2.62.9A2.77,2.77,0,0,0,.15,102.78Z"/><path class="cls-12" d="M26.91,229.78a120.21,120.21,0,0,0,15.54-.43c1.74-1.74-4.26-3.22-8.14-4.35-1.52-.44-2.05-1.87-2.36-3.41-2-.33-3.31-1.48-3.84-.08C27.23,223.85,26.91,229.51,26.91,229.78Z"/><path class="cls-12" d="M60.47,229.35A121.92,121.92,0,0,0,76,228.93c1.74-1.75-4.26-3.23-8.14-4.36-1.51-.44-2-1.86-2.36-3.41-2-.32-3.31-1.47-3.84-.07C60.78,223.42,60.47,229.09,60.47,229.35Z"/><path class="cls-8" d="M65.2,184C63,169.11,61.72,164.14,57,147.22c-6.65.77-20.06-6.61-22.24,1.64-2.59,9.79-.35,34.27-1.49,37.13-5.6,14-4,23.07-5.59,35.55-.21,1.58,3,1.81,4.64,1.14,3.9-16.25,8-26.45,9.83-35.13.29-1.38,3.35-18.68,5.09-23.37,4.75,13.67,9.67,18.39,9.32,23.17-.79,10.62,4.71,28.8,4.67,34.2,0,1.57,3.42.82,4.83.12C66.73,221.35,66.46,192.32,65.2,184Z"/><path class="cls-9" d="M44,106.81c.92.2,4.89-.5,5.39-1.38a12.53,12.53,0,0,0,0-12.11c-2.09-3.67-3.76-3.85-7.93-3.19C30.77,91.83,36.71,105.21,44,106.81Z"/><path class="cls-9" d="M39.56,103.47a30.76,30.76,0,0,1,1.7,8.24c2.14,1.26,4.06,0,6.53-.3q-1.35-3.33-2.69-6.66A8.75,8.75,0,0,0,43.58,102a2.93,2.93,0,0,0-2.83-1,1.8,1.8,0,0,0-1.18,2.46"/><path class="cls-13" d="M34.7,93.81c.89-3.13,4-4.52,6.08-5.06.71-.19,7.76-1.48,8-3.18a17.5,17.5,0,0,1,1.8,4.9,2.08,2.08,0,0,1-1.61,3,32,32,0,0,1-5.73,1.24c-1.05.44-.58,1.45.46,3.63-.08.58-.93.66-1.27.3-.48-.51-.84-1.74-2.07-1a3.3,3.3,0,0,0,1.51,4.3A.7.7,0,0,1,42.2,103c-.94,1.41-2.54,1.82-3.53,1C36.33,101.93,33.88,96.66,34.7,93.81Z"/><path class="cls-11" d="M47,103.21a2.25,2.25,0,0,0,1.35.26c.38,0,.95-.19,1.12-.57a.21.21,0,0,0-.24-.3c-.33.05-.6.31-.94.38a2,2,0,0,1-1.15-.12c-.2-.08-.33.25-.14.35Z"/><path class="cls-14" d="M35.26,148.5c7.31,0,14.69-.3,22-.46,1.41.12,1.21-7.48.69-12.29-1-9,1.8-17.12-1.36-24.92-.84-2.07-1.87-3-2.43-2.93-6.11.35-21.74-.12-21.81,8.8,0,1.33,1.63,5.22,2,12C34.7,137.09,32.81,148.5,35.26,148.5Z"/><path class="cls-14" d="M20.31,121.83c-.25-6.47-1.67-9-1.92-15.5-1.13-.61-1.51-1-2.24,0s-2,25.09,1.39,24.93c5.68-.27,11.56-4.24,18.3-7.43,2.58-1.22,3.55-13.71-.24-12.33C30.71,113.28,25,118,20.31,121.83Z"/><path class="cls-14" d="M71.24,104c1-.69,4-8.52,5.29-17.47,1.28-.23,2.33-.62,3.54-.16-1.47,11.09-2.46,21.72-5.55,23.79-1.32.88-17.2,9.7-19.41,9.81-6.13.31-8.76-10.05-4.34-11.23C59.68,106.33,67.64,106.46,71.24,104Z"/><path class="cls-9" d="M19.11,102.65c-.59-.28-.91,1.21-1.57,1.21-3.19,0-2.4-2.7-4.45-2.38a2.29,2.29,0,0,0-1.32,2.44c.56,2.25,2,2.69,3.53,3.14C18.1,107.93,21.34,103.74,19.11,102.65Z"/><path class="cls-9" d="M81.28,81.17c-.47-1.15-2.36-.66-2.64-.31-.84,1.06-.29,3.68-1.87,4-.85.16-1.72.18-1.62.73.21,1.1,3,1.57,4.32,1a4.56,4.56,0,0,0,2-1.25C82.56,83.92,82,82.83,81.28,81.17Z"/><ellipse class="cls-2" cx="239.79" cy="226.63" rx="41.2" ry="6.72"/><path class="cls-11" d="M248.59,226.68c-.32.28-3.76.09-5,.24a22.36,22.36,0,0,1-8,0c-.85-.56-.5-1.31.43-1.62,1.85-.63,2.85-.93,4.08-1.37l.85-.3a7.33,7.33,0,0,0,3.36-2.92c.51-1.05,2.26-.83,3-.7,0,0,.63,1,.68,1.16a14.3,14.3,0,0,1,.38,1.86c0,.22.11.47.19.77C248.9,224.57,249.19,226.15,248.59,226.68Z"/><path class="cls-9" d="M248.46,223l-.16.09a14.92,14.92,0,0,1-4.16,1.69c-1.3.25-3.1.23-4-.88l.85-.3a7.33,7.33,0,0,0,3.36-2.92c.51-1.05,2.26-.83,3-.7,0,0,.63,1,.68,1.16A14.3,14.3,0,0,1,248.46,223Z"/><path class="cls-11" d="M265.52,227c-.29.3-3.73.42-4.94.68a22.34,22.34,0,0,1-7.91.72c-.9-.48-.62-1.26.28-1.66,1.79-.78,2.76-1.18,3.95-1.72l.82-.38a7.37,7.37,0,0,0,3.08-3.21c.41-1.08,2.17-1,2.95-1,0,0,.72.95.77,1.09a12.93,12.93,0,0,1,.55,1.82c.07.22.15.46.26.75C265.64,224.89,266.07,226.43,265.52,227Z"/><path class="cls-9" d="M265.07,223.4l-.15.1a14.27,14.27,0,0,1-4,2.06c-1.28.37-3.07.51-4-.52l.82-.38a7.37,7.37,0,0,0,3.08-3.21c.41-1.08,2.17-1,2.95-1,0,0,.72.95.77,1.09A12.93,12.93,0,0,1,265.07,223.4Z"/><path class="cls-7" d="M244.08,221a25.41,25.41,0,0,1,4,.2c2.27-12.69,2.46-16.53,1-31.29-.82-8.25.95-13,2-23.86.34,7.95,2.23,14.12,3.29,22.27,1.38,10.7,3.89,23.56,5.82,32.68.17.8,5,1.06,4.29-.76-1.57-9.89,1.62-22-1.83-32.57-2.95-9,4-23.46.46-33.36-3-1.16-10.13-1.75-13.33-1.2-4.06.71-9.72-2.62-10.5,1.15-1.4,6.76.4,25.26,1.18,33.53C241.52,199.44,244.08,206.24,244.08,221Z"/><path class="cls-13" d="M265.29,115.92c-.27-.58-.93-.85-1.35-1.33-1.17-1.36.07-3.58-.64-5.23-.66-1.5-2.68-2-3.47-3.41a7,7,0,0,1-.56-2.23c-1.22-6.76-10.12-10.06-15.61-5.89-1.9,1.45-4,5.76-3.08,8,2,4.74-.41,3.54-.32,6.12.06,1.7.62,3.86,2.31,4.08-.93,1.2-1.51,3.12-.34,4.08s2.89,0,4.38.2c2.12.22,4.08,2.65,6,1.64a12.3,12.3,0,0,0,1.15-.9c1.45-1,3.42-.49,5.2-.49a8,8,0,0,0,5.6-2.33A2.17,2.17,0,0,0,265.29,115.92Z"/><path class="cls-9" d="M246.43,114.3a2.85,2.85,0,0,0,3.44.82c.89-.32,2.31-.68,2.9-1.41a15.21,15.21,0,0,0,3.36-8.67c.3-5.42-5.77-9.19-10.19-5.39C242.25,102.81,243.33,111.19,246.43,114.3Z"/><path class="cls-9" d="M252.87,112.63c.12-.47-4.81,1.59-4.81,1.59-.45,1.9,0,2.17-.48,4.07-5.16.27-3,8-2.29,8,.44,0,5.78,1.33,6.22,1.35s3-7.54,3.73-9.7l-2.31-.07C252.7,115.42,252.43,114.36,252.87,112.63Z"/><path class="cls-13" d="M248.75,105.57a4,4,0,0,1,2.05.77c.53.57.49,1.45.74,2.18.5,1.48,2.18,2.24,3.73,2.35s3.11-.28,4.66-.28q-1.55-3.63-2.81-7.37a14.78,14.78,0,0,0-2.27-4.83,7.52,7.52,0,0,0-10.14-.82,8.52,8.52,0,0,0-2,10.23c-.44-.86,2.24-3.9,2.89-4.36A4.35,4.35,0,0,0,248.75,105.57Z"/><path class="cls-4" d="M249.52,110.89a15.63,15.63,0,0,0-3.57,0c-.21,0,.09,2,2.08,2C249.39,112.86,249.52,110.89,249.52,110.89Z"/><path class="cls-9" d="M199,105.22c-.73.07-.21.93.29,1.47s1.39,1.22,1.94,1.71c.71.63-.7,3.55,1.67,5,1,.6,3.35.62,4.47.84s11.33,5.14,16.38,7.35c4.53,2,17.17,4.85,17.44,5.07,1.27,1,4.55-6.26,3.09-7-4.48-2.33-12.21-1.69-20.81-4.08-4.06-1.13-12.21-3-16-4.88-1.66-.81-2.06-1.75-3.67-2.64C201.68,106.91,200.94,106.52,199,105.22Z"/><path class="cls-15" d="M239.25,130.64c-.26,2.09,3.48,6.15,3.85,8.23.83,4.76-4,10.53-3.86,15.37,0,.37,10.33,4.45,23.83,0-.13-6.85-4.37-13.44-2.5-19a19.08,19.08,0,0,1,3.11-6c1.3-1.64-2.4-2.77-3.28-4.67s1.46-4.73-.44-5.56a14.51,14.51,0,0,0-5.5-1.06c-1.05,6.68-5.09,8.55-7.2,8.23-3.57-.55-2.43-4.94-.74-7.72,0,0-2.66.07-3.42.91s-.4,2.9-1.19,4.93C240.75,127.33,239.66,127.44,239.25,130.64Z"/><path class="cls-9" d="M276.2,134c.59,1.77-.38,3.64-1.32,5.25-1.86,3.18-8.19,10.84-8.19,11.85,0,2.31-1.35,2.45-2.74,2.47,1.63,2.49.46,2.82-.73,2.38a3.34,3.34,0,0,1-2.18-3.49c0-1.74,1.26-1.83,3-2.75a77.39,77.39,0,0,0,6.31-14.46c-4.72-2.16-8.39-5.38-12.34-8.75-4.42-3.76-1.89-9.44,3.56-7S275.93,133.18,276.2,134Z"/><ellipse class="cls-2" cx="184.72" cy="231.09" rx="35.93" ry="10.06"/><path class="cls-12" d="M188.65,227.85a24.87,24.87,0,0,0,10.87-2.47c3.31-1.76,9.21-6.39,10-10,.16-.79-.74-2.08-2.31-3-.87-.51-13.33-.86-19.16-.41-10.68.83-29-3.15-25.07,4.73C168.12,227,181.59,228.07,188.65,227.85Z"/><path class="cls-11" d="M174.31,176.07a13,13,0,0,1,.86,2.88,13.53,13.53,0,0,1-.56,3.5c-.52,2.84.63,6.09,3.2,7.39s5.84.34,8.82.33c2.1,0,4.23.5,6.29.05s4-2.38,3.51-4.41c-.29-1.09-1.21-1.9-1.62-2.95a7,7,0,0,1-.2-3.06c.34-4.57.08-9.54-2.76-13.13a11,11,0,0,0-12.36-3.28C175,165.19,172.86,171.64,174.31,176.07Z"/><path class="cls-16" d="M168.12,192.06l6.31,1.78a121.24,121.24,0,0,1,0,18.08c6.34,3.22,13.86,2.56,20.93,1.82a3.54,3.54,0,0,0,2-.6c.78-.64-1.06-2.82-1.05-3.82.07-5.81-.7-10-.75-16.17a29.49,29.49,0,0,0,6.35-2.08,29.24,29.24,0,0,0-4.68-6.51c-1.7-1.7-5.95-2-7.78-2.17a37.14,37.14,0,0,0-9.06,0c-3.64.51-7.46,1.27-9,3.41C170.93,186.36,168.12,192.06,168.12,192.06Z"/><path class="cls-9" d="M167.68,208c.46,2,8.2,2.1,12.68,1.15l-.39-1.7c-2-.89-4.29-1.35-7-2.72-1.58-.8-.48-2.75-.28-4.51.25-2.16,1.49-4.2,1.74-6.36,0-.15-5.37-1.52-5.37-1.52A74.5,74.5,0,0,0,167.68,208Z"/><path class="cls-9" d="M203.78,206.82c-.66,1.61-6.78,1.56-10.16,1.63-.86,0-.93-1.51-.64-2.1s6.9-3.31,6.71-3.85c-1.23-3.41-2.41-5-4.16-9.35a38.72,38.72,0,0,1,5.44-1.67C202.34,195.8,204.71,204.56,203.78,206.82Z"/><rect class="cls-4" x="170.81" y="194.93" width="30.16" height="20.62" rx="1.19"/><path class="cls-17" d="M187.56,203.26c-.75,0-1.08.24-1.71,1.11-.3-1-2.33-1.63-2.75-.2-.58,1.86,2.59,3.11,2.77,3.32.4-.27,2.5-1.17,2.8-2.6A1.35,1.35,0,0,0,187.56,203.26Z"/><path class="cls-9" d="M189.7,182.54c-.5-.41-2-.44-2.64-.64-.78-.26-.47-2.94-.24-4.25h-4.89c.17,1.77.83,2.77.44,3.79-.26.69-1.88.72-2.51,1.11s0,2.29.5,2.81c1,2.14,4.37,4.15,4.83,4,1.15-.29,2.48-2.17,3.51-3.58C189.12,185.24,190.26,183,189.7,182.54Z"/><path class="cls-9" d="M180.68,178.7c1.79,1.8,5,2.24,6.85.54,1.56-1.41,1.88-3.72,2-5.83a15,15,0,0,0-.1-3.84,4.84,4.84,0,0,0-5.12-4.28C177.44,165.21,176.66,174.62,180.68,178.7Z"/><path class="cls-11" d="M185,168.23a14,14,0,0,0,2.68,4.57,6.15,6.15,0,0,0,4.73,2c.19-2.8.36-5.75-.86-8.28a8.14,8.14,0,0,0-13.89-1.31c-2.08,2.82-2.13,6.61-1.93,10.11,0,.08,4.5-2.21,5-2.56A15.53,15.53,0,0,0,185,168.23Z"/><path class="cls-11" d="M182.36,177.51a2.66,2.66,0,0,0,2.94,0c.16-.15,0-.36-.2-.33a9.35,9.35,0,0,1-1.3.26,3.44,3.44,0,0,1-1.31-.26c-.19-.07-.3.22-.13.32Z"/><path class="cls-9" d="M206.31,233.61a2.11,2.11,0,0,1-1.18,1.89c-1.46.82-3.21.33-4.74-.5-.39-.22-3.8-3.13-4.15-3.37-.85-.59-3.34-1.78-2.08-3.5.46-.63,1.1-.43,3.26.44,1.32.53,4.09,1.56,5.14,2.06l1.69.83C205.19,231.91,206.23,232.57,206.31,233.61Z"/><path class="cls-8" d="M206.31,233.61a2.11,2.11,0,0,1-1.18,1.89c-1.46.82-3.21.33-4.74-.5a10,10,0,0,0,2.17-4.37l1.69.83C205.19,231.91,206.23,232.57,206.31,233.61Z"/><path class="cls-18" d="M183,219.75c-7.18-4.89-8.66-7.13-13.68-8.12-3.85-.75-8.29.25-6.87,4.06s7.35,6.31,9.83,7.39c7.72,3.4,15.91,5.94,23.93,8.55a6.07,6.07,0,0,0,1.18-3.06C193.42,226.22,186.86,222.37,183,219.75Z"/><path class="cls-9" d="M165.88,233.61a2.12,2.12,0,0,0,1.19,1.89c1.46.82,3.21.33,4.74-.5.38-.22,3.76-3.13,4.11-3.37.86-.59,3.37-1.78,2.12-3.5-.48-.65-1.07-.47-3.3.44-1.25.51-4.11,1.59-5.1,2.06l-1.7.83C167,231.91,166,232.57,165.88,233.61Z"/><path class="cls-8" d="M165.88,233.61a2.12,2.12,0,0,0,1.19,1.89c1.46.82,3.21.33,4.74-.5a9.85,9.85,0,0,1-2.17-4.37l-1.7.83C167,231.91,166,232.57,165.88,233.61Z"/><path class="cls-18" d="M188.7,220.74c7.18-4.9,11.05-9,14.65-9.83,3.82-.92,7.57.61,6.15,4.42s-7.16,6.67-9.64,7.75c-7.73,3.4-15.91,5.94-23.94,8.55a6.07,6.07,0,0,1-1.18-3.06C178.75,226.22,184.86,223.35,188.7,220.74Z"/></g></g></svg>