<svg xmlns="http://www.w3.org/2000/svg" viewBox="0 0 195.24 195.26"><defs><style>.cls-1{fill:#c98b5f;}</style></defs><g id="Capa_2" data-name="Capa 2"><g id="Capa_1-2" data-name="Capa 1"><path class="cls-1" d="M0,90V13C0,4.54,4.47,0,12.86,0Q34.19,0,55.54,0c1.67,0,3.33,0,4.52,1.42a3.45,3.45,0,0,1,.6,3.9c-1,2-2.72,2.36-4.79,2.35-13.59,0-27.18,0-40.78,0-7,0-7.45.43-7.45,7.62V165.44c0,6.09.75,6.86,6.69,6.86,37.23,0,74.45,0,111.67.07,3.13,0,4.18-.72,4.05-4-.26-6.21-.1-12.45-.07-18.67,0-3.39.18-6.53,2.13-9.79,1.67-2.78.57-6.69.37-10.09-.06-1.13-1.37-.9-2.16-1.17-19.87-6.72-32.09-20.16-35.82-41-.36-2-1.32-2.37-3.08-2.34-5.59.07-11.18,0-16.77,0-2.84,0-4.93-1-4.86-4,.07-2.79,2.1-3.73,4.77-3.7,5.21.08,10.42-.11,15.62.08,2.62.1,3.57-.5,4-3.36,3.27-22.45,15.91-37,37.63-43.57a12.15,12.15,0,0,1,4.07-.88c4.73.34,5.69-2,5.24-6.18a93.34,93.34,0,0,1-.07-9.9c0-5.29-1-6.27-6.13-6.28H93.74a11.71,11.71,0,0,1-3-.13,3.62,3.62,0,0,1-3-3.85,3.61,3.61,0,0,1,3-3.51,12.22,12.22,0,0,1,3-.13Q114.87,0,136,0c8.12,0,12.63,4.59,12.65,12.79,0,4.7.07,9.4,0,14.1,0,1.85.46,2.58,2.47,2.88,24.07,3.48,42.12,22.47,44,46.07s-12.62,45.05-35.63,52.43c-2.53.81-3.43,1.89-3.2,4.49.29,3.33-.55,6.77,2,9.74.77.91.76,2.67.77,4,.05,11.18.09,22.36,0,33.53-.05,6.05-2.57,10.83-8.17,13.58-5.11,2.51-10.09,2-14.76-1.22-3.17-2.18-5.39-5.21-5.69-9.05-.24-3.12-1.66-3.52-4.34-3.52q-56.2.11-112.42.05C4.2,179.94,0,175.71,0,166.21Zm144.2,32.89a43,43,0,1,0,.58-85.94c-23.39-.32-43.15,19.07-43.34,42.54A43,43,0,0,0,144.2,122.88Zm-6.48,41.63c0,4.94,0,9.88,0,14.82.06,5.2,2.67,8.28,6.86,8.2s6.66-3,6.7-8c.07-10.25,0-20.51.06-30.76,0-2.2-.52-3.29-3-3.1a48.08,48.08,0,0,1-7.59,0c-2.68-.24-3.17,1-3.12,3.31C137.81,154.13,137.72,159.32,137.72,164.51Zm6.91-33.84c-3-.61-4.42-.1-4.52,3.66-.11,4.12,2,3.54,4.62,3.76,3.11.26,4.06-.66,4.05-3.9S147.67,129.86,144.63,130.67Z"/><path class="cls-1" d="M34.17,58.71A9,9,0,0,1,31.32,58,39.07,39.07,0,0,1,16,43.09c-3.32-5.92,3.09-8.76,6.18-12.43,2.42-2.88,6-4.89,9-2.47,4.3,3.5,6.24,1,8.69-1.78.93-1,1.94-2,3-3,4.08-3.88,7.61-3.92,11.61-.09,1.83,1.75,3.67,3.52,5.36,5.41,2.76,3.07,2.94,7,.1,10-5.62,5.86-11.4,11.56-17.24,17.2C40.61,57.91,37.94,58.83,34.17,58.71ZM35,51.06a4,4,0,0,0,3.05-1.33q7.29-7.21,14.53-14.5c.49-.49,1.19-.86.86-1.86a4.54,4.54,0,0,0-7.55-2.1L40,37.18c-4.33,4.31-5,4.3-9.55.06-.73-.68-1.14-2.08-2.72-1.28-3.9,2-4.4,4.8-1.31,7.89,1.89,1.88,3.76,3.77,5.66,5.64A4.49,4.49,0,0,0,35,51.06Z"/><path class="cls-1" d="M35.23,109.06a11.26,11.26,0,0,1-8.2-3.43c-3.09-3-6.17-6-9.15-9.15C14.22,92.65,14.3,89,18,85.16c1.67-1.74,3.36-3.46,5.12-5.1,3.17-3,6.71-3.4,9.89-.6,2.07,1.82,3.08,1.2,4.56-.41,1.88-2,3.86-4,5.93-5.91C47,70,50.56,70.06,54,73.25c2,1.8,3.85,3.69,5.64,5.65,3,3.22,3.13,7.15.16,10.24-5.54,5.77-11.24,11.38-17,17A10.64,10.64,0,0,1,35.23,109.06Zm.27-7.67c1.25,0,2.36-1.06,3.44-2.15,4.3-4.31,8.44-8.79,13-12.84,2.6-2.32,1-3.37-.51-5s-2.9-3-5-.4a88.69,88.69,0,0,1-6.67,6.77c-4,3.93-4.89,3.9-9,0-.74-.7-1.17-2.1-2.66-1.67a4.52,4.52,0,0,0-2.12,7.53c2,2,3.94,3.95,5.93,5.91A5,5,0,0,0,35.5,101.39Z"/><path class="cls-1" d="M34.8,159.38A10.86,10.86,0,0,1,27.13,156c-3.19-3.09-6.37-6.19-9.42-9.42-3.47-3.68-3.34-7.34.21-11.05,1.66-1.74,3.36-3.45,5.12-5.1,3.32-3.14,6.67-3.45,10.2-.55,1.68,1.38,2.59,1.36,4-.19,2-2.16,4-4.22,6.19-6.18,3.47-3.18,7.08-3.2,10.49-.06,2.06,1.88,4.05,3.85,5.91,5.92,2.77,3.07,2.92,7,.07,10-5.62,5.86-11.4,11.56-17.24,17.21C40.7,158.46,38.15,159.36,34.8,159.38Zm.58-7.69a4.81,4.81,0,0,0,3-1.56c4.76-4.74,9.45-9.56,14.29-14.22,2.15-2.06.06-3-1-3.76s-1.84-4.09-4.34-1.62c-2.79,2.76-5.53,5.58-8.35,8.32-3,2.92-4.39,2.9-7.36.08A17.58,17.58,0,0,1,30,137.31c-1.86-2.26-3-.21-3.77.9s-4.11,1.85-1.67,4.35c2.65,2.72,5.37,5.39,8.09,8A3.47,3.47,0,0,0,35.38,151.69Z"/><path class="cls-1" d="M88.94,35.1c-4.69,0-9.38-.07-14.06,0-2.76,0-5-.71-5.09-3.75s2.06-4,4.88-3.94c9.63.06,19.26,0,28.88,0,2.61,0,4.64.81,4.68,3.72,0,3.15-2.1,4-4.85,3.93C98.56,35.07,93.75,35.1,88.94,35.1Z"/><path class="cls-1" d="M89.2,135.72c-4.94,0-9.88,0-14.82,0-2.7,0-4.6-1.08-4.59-3.84s1.92-3.84,4.61-3.83c9.76.05,19.51,0,29.27,0,2.63,0,4.57.93,4.56,3.84s-2,3.82-4.59,3.81C98.83,135.71,94,135.72,89.2,135.72Z"/><path class="cls-1" d="M80.43,51.86c-2.28,0-4.56.06-6.84,0-2.43-.07-3.85-1.52-3.81-3.84s1.48-3.72,3.91-3.74c4.57,0,9.13-.06,13.69,0a3.57,3.57,0,0,1,3.84,3.83c0,2.28-1.52,3.7-3.94,3.75S82.71,51.86,80.43,51.86Z"/><path class="cls-1" d="M80.51,152.48c-2.29,0-4.57.05-6.85,0s-3.87-1.45-3.88-3.77a3.54,3.54,0,0,1,3.84-3.81c4.56-.06,9.12,0,13.69,0a3.6,3.6,0,0,1,3.91,3.77c0,2.27-1.45,3.74-3.87,3.81S82.79,152.48,80.51,152.48Z"/><path class="cls-1" d="M78.11,102.17c-1.52,0-3,.06-4.55,0a3.59,3.59,0,0,1-3.79-3.87,3.46,3.46,0,0,1,3.55-3.69q4.94-.19,9.87,0a3.51,3.51,0,0,1,3.62,3.64c0,2.35-1.41,3.73-3.77,3.9C81.41,102.27,79.75,102.17,78.11,102.17Z"/><path class="cls-1" d="M78.08,3.72c-.15,2.33-1.3,3.84-3.71,3.88a3.39,3.39,0,0,1-3.72-3.44c-.16-2.34,1-3.92,3.46-4.07S77.77,1.38,78.08,3.72Z"/><path class="cls-1" d="M144.3,115.33a35.44,35.44,0,1,1,35.62-35A35.37,35.37,0,0,1,144.3,115.33Zm-21.9-19.1c2.33-3.26,4.57-6.32,7.9-8,2.83-1.43,3.07-2.89,1.53-5.43-1.22-2-1.11-4.41-1.08-6.69.1-8.62,5.74-14.53,13.77-14.52s13.5,6,13.84,14.58c.14,3.73-3.22,7.69-1.81,10.19,1.56,2.77,6,4.11,8,7.26s3,2.19,4.33-.39c5.19-10.37,4.73-20.45-2.18-29.76-7-9.47-16.84-13-28.26-10.56C119,57,110,81.19,122.4,96.23Zm22,11.38A27.39,27.39,0,0,0,158.52,104c2.32-1.24,2.23-2.39.95-4.37-7-10.78-23.21-10.71-30.05.15-1.16,1.83-1.3,2.94.88,4.11A27.41,27.41,0,0,0,144.43,107.61Zm-6-31.1c0,4.35,2.37,7.26,5.94,7.31s6.19-3,6.13-7.54-2.33-7-6.17-7S138.47,72,138.48,76.51Z"/></g></g></svg>