<svg xmlns="http://www.w3.org/2000/svg" xmlns:xlink="http://www.w3.org/1999/xlink" viewBox="0 0 321.2 320.39"><defs><style>.cls-1,.cls-14,.cls-16,.cls-19,.cls-7{fill:#fff;}.cls-2{fill:#66361d;}.cls-3{fill:#c88a5e;}.cls-4{fill:#6c2910;}.cls-5{fill:#c0bd99;}.cls-6{fill:#fdce75;}.cls-7{opacity:0.72;}.cls-8{fill:#95b0dd;}.cls-9{fill:#7f7f74;}.cls-10{fill:#c3ac7f;}.cls-11{fill:#beceeb;}.cls-12{fill:#967e6c;}.cls-13{fill:#776b61;}.cls-14{opacity:0.78;}.cls-15{fill:#b08868;}.cls-16{opacity:0.71;}.cls-17{fill:#4b3c32;}.cls-18{opacity:0.3;}.cls-19{opacity:0.56;}.cls-20{fill:url(#linear-gradient);}.cls-21{fill:#a1a08b;}.cls-22{fill:url(#linear-gradient-2);}.cls-23{fill:url(#linear-gradient-3);}.cls-24{fill:#a4856b;}.cls-25{fill:url(#linear-gradient-4);}.cls-26{fill:url(#linear-gradient-5);}.cls-27{fill:url(#linear-gradient-6);}.cls-28{fill:url(#linear-gradient-7);}.cls-29{fill:url(#linear-gradient-8);}</style><linearGradient id="linear-gradient" x1="80.64" y1="220.55" x2="81.36" y2="207.93" gradientUnits="userSpaceOnUse"><stop offset="0" stop-color="#232451"/><stop offset="1" stop-color="#2a307b"/></linearGradient><linearGradient id="linear-gradient-2" x1="44.27" y1="250.28" x2="85.26" y2="349.3" gradientUnits="userSpaceOnUse"><stop offset="0" stop-color="#f7baba"/><stop offset="1" stop-color="#f2908f"/></linearGradient><linearGradient id="linear-gradient-3" x1="-4343.65" y1="250.07" x2="-4302.65" y2="349.09" gradientTransform="matrix(-1, 0, 0, 1, -4226.71, 0)" xlink:href="#linear-gradient-2"/><linearGradient id="linear-gradient-4" x1="120.07" y1="274.62" x2="96.42" y2="338.67" xlink:href="#linear-gradient-2"/><linearGradient id="linear-gradient-5" x1="72.69" y1="255.32" x2="49.03" y2="319.4" xlink:href="#linear-gradient-2"/><linearGradient id="linear-gradient-6" x1="80.25" y1="258.46" x2="79.71" y2="211" xlink:href="#linear-gradient-2"/><linearGradient id="linear-gradient-7" x1="-297.65" y1="-101.94" x2="-295.95" y2="-143.23" gradientTransform="translate(356.05 380.59) rotate(9.25)" xlink:href="#linear-gradient-2"/><linearGradient id="linear-gradient-8" x1="227.39" y1="479.5" x2="230.06" y2="414.79" gradientTransform="translate(-215.94 -207.52) rotate(-7.64)" xlink:href="#linear-gradient-2"/></defs><g id="Capa_2" data-name="Capa 2"><g id="Capa_1-2" data-name="Capa 1"><path class="cls-1" d="M283.92,275.51a113.43,113.43,0,0,1-17.4,14.65c-56.77,40.73-123.94,28.86-138.22,26-21.08-4.28-61.83-12.56-91.29-47.2C-7.56,216.5-.62,133.92,34,79.41c6.33-10,39.73-65.31,107.63-74.19,41.09-5.37,89,5.46,123.67,34.52C338.06,100.74,332.87,224,283.92,275.51Z"/><circle class="cls-2" cx="199.68" cy="120.76" r="95.1" transform="translate(-26.91 176.57) rotate(-45)"/><circle class="cls-3" cx="199.68" cy="120.76" r="81.17"/><path class="cls-1" d="M199.68,206a85.24,85.24,0,1,1,85.24-85.24A85.34,85.34,0,0,1,199.68,206Zm0-166.41a81.17,81.17,0,1,0,81.17,81.17A81.26,81.26,0,0,0,199.68,39.59Z"/><circle class="cls-3" cx="199.68" cy="120.76" r="49.48" transform="translate(36.27 287.36) rotate(-76.72)"/><path class="cls-1" d="M199.68,174.31a53.55,53.55,0,1,1,53.55-53.55A53.61,53.61,0,0,1,199.68,174.31Zm0-99a45.42,45.42,0,1,0,45.42,45.42A45.47,45.47,0,0,0,199.68,75.34Z"/><circle class="cls-3" cx="199.68" cy="120.76" r="19.17" transform="translate(36.27 287.36) rotate(-76.72)"/><path class="cls-1" d="M199.68,144a23.24,23.24,0,1,1,23.24-23.24A23.26,23.26,0,0,1,199.68,144Zm0-38.34a15.11,15.11,0,1,0,15.11,15.1A15.12,15.12,0,0,0,199.68,105.66Z"/><rect class="cls-4" x="259.89" y="-5.52" width="3.44" height="130.22" transform="translate(404.46 286.71) rotate(-135)"/><path class="cls-5" d="M216.08,98.54c1.39-1.39,8,5.19,6.57,6.58L198.26,124.3a1,1,0,0,1-1.36-1.36Z"/><path class="cls-5" d="M308.81,14.82l12.39,1.23-17,17A26.29,26.29,0,0,1,283,40.63h0Z"/><path class="cls-5" d="M306.38,12.39,305.15,0l-17,17a26.27,26.27,0,0,0-7.57,21.18h0Z"/><path class="cls-4" d="M234.35,293.27c-3.42-34.54-12-120.34-13.86-132.89-2.35-15.76-21.67-12.28-21.67-12.28l-4.13,159.51h26.93a12.66,12.66,0,0,0,9.49-4.3A13.12,13.12,0,0,0,234.35,293.27Z"/><path class="cls-4" d="M16.47,311.63a15.23,15.23,0,0,1-14.9-15.55L4.31,166.59a13.42,13.42,0,0,1,13-13.13l188-5.58a9.9,9.9,0,0,1,10.19,9.92L215,306.28a9.4,9.4,0,0,1-9.6,9.36Z"/><path class="cls-4" d="M4.36,300.76a4.43,4.43,0,0,1-4.31-5.11C2.83,278,11.53,217.37,8.74,167a4.1,4.1,0,0,1,3.95-4.33l188.79-6a4.71,4.71,0,0,1,4.86,4.53c.8,21.17,3.79,108.36-.12,139.35a3.74,3.74,0,0,1-3.76,3.26Z"/><path class="cls-6" d="M9.13,298.78A4.25,4.25,0,0,1,5,293.86c2.67-17,11-75.34,8.36-123.8a3.93,3.93,0,0,1,3.8-4.16l181.68-5.8a4.54,4.54,0,0,1,4.67,4.36c.78,20.38,3.65,104.28-.11,134.1a3.59,3.59,0,0,1-3.62,3.14Z"/><path class="cls-7" d="M120.8,196.69l-.28,13.08a3.58,3.58,0,0,0,3.56,3.66l13.42.07a3.57,3.57,0,0,0,3.59-3.5l.3-13.75a3.58,3.58,0,0,0-3.74-3.65l-13.44.59A3.57,3.57,0,0,0,120.8,196.69Z"/><path class="cls-7" d="M73.87,213.32l13.42.07a3.57,3.57,0,0,0,3.6-3.5l.25-11.7a3.59,3.59,0,0,0-3.71-3.65L74,195a3.59,3.59,0,0,0-3.45,3.5l-.23,11.14A3.58,3.58,0,0,0,73.87,213.32Z"/><path class="cls-7" d="M85.63,271.6l-12.76-.12a3.91,3.91,0,0,0-4,3.82l-.25,11.95a3.91,3.91,0,0,0,3.74,4l12.76.54A3.91,3.91,0,0,0,89.24,288l.26-12.37A3.91,3.91,0,0,0,85.63,271.6Z"/><path class="cls-7" d="M64.15,287l.25-11.69a3.83,3.83,0,0,0-3.8-3.92l-12.9-.13A3.84,3.84,0,0,0,43.83,275l-.24,11.27a3.84,3.84,0,0,0,3.67,3.91l12.9.55A3.83,3.83,0,0,0,64.15,287Z"/><path class="cls-7" d="M65.27,234.19l.21-9.59a4.13,4.13,0,0,0-4.14-4.22L49,220.4a4.14,4.14,0,0,0-4.12,4l-.19,9.17a4.12,4.12,0,0,0,4,4.22l12.31.4A4.12,4.12,0,0,0,65.27,234.19Z"/><path class="cls-7" d="M64.68,262.08,65,247.4a3.84,3.84,0,0,0-3.71-3.92l-12.6-.41a4.13,4.13,0,0,0-4.26,4l-.31,14.8a3.83,3.83,0,0,0,3.83,3.92H60.85A3.83,3.83,0,0,0,64.68,262.08Z"/><path class="cls-7" d="M99,213.46l13.42.08A3.58,3.58,0,0,0,116,210l.27-12.74a3.57,3.57,0,0,0-3.7-3.65l-13.44.48a3.58,3.58,0,0,0-3.45,3.5l-.25,12.19A3.57,3.57,0,0,0,99,213.46Z"/><path class="cls-7" d="M89.79,262l.29-13.73a3.91,3.91,0,0,0-3.78-4l-12.76-.41a3.9,3.9,0,0,0-4,3.82l-.3,14.14a3.9,3.9,0,0,0,3.9,4H85.88A3.91,3.91,0,0,0,89.79,262Z"/><path class="cls-7" d="M112.74,220.29l-14.65,0a3,3,0,0,0-3,2.9l-.28,13.2a3,3,0,0,0,2.87,3l14.64.48a3,3,0,0,0,3.06-2.89l.29-13.71A3,3,0,0,0,112.74,220.29Z"/><path class="cls-7" d="M120.22,223.91,120,236.48a3.73,3.73,0,0,0,3.6,3.8l13.13.43a3.72,3.72,0,0,0,3.84-3.64l.28-13a3.73,3.73,0,0,0-3.73-3.8l-13.14,0A3.71,3.71,0,0,0,120.22,223.91Z"/><path class="cls-7" d="M72.63,238.61l14.65.48a3,3,0,0,0,3-2.89l.28-12.84a3,3,0,0,0-3-3l-14.66,0a3,3,0,0,0-3,2.9l-.26,12.33A3,3,0,0,0,72.63,238.61Z"/><path class="cls-7" d="M111.39,245.12l-12.76-.41a3.91,3.91,0,0,0-4,3.82l-.28,13.32a3.91,3.91,0,0,0,3.9,4H111a3.91,3.91,0,0,0,3.91-3.82l.27-12.91A3.9,3.9,0,0,0,111.39,245.12Z"/><path class="cls-7" d="M136.91,246l-13.65-.45a3.46,3.46,0,0,0-3.57,3.39l-.29,13.41a3.46,3.46,0,0,0,3.46,3.53h13.66a3.46,3.46,0,0,0,3.46-3.38l.28-13A3.46,3.46,0,0,0,136.91,246Z"/><path class="cls-7" d="M50.65,213l10.19.06a5,5,0,0,0,5-4.85l.18-8.41a4.41,4.41,0,0,0-4.57-4.51l-11.34.41a4.85,4.85,0,0,0-4.68,4.75l-.15,7A5.42,5.42,0,0,0,50.65,213Z"/><path class="cls-7" d="M39.3,275.33a4.13,4.13,0,0,0-4.09-4.22l-4.44,0c-3.37,0-6.13,2.19-6.19,5l-.17,8.13c-.06,2.78,2.56,5.11,5.9,5.26l4.77.2a3.84,3.84,0,0,0,4-3.76Z"/><path class="cls-7" d="M182,272.54l-8.72-.09a3.92,3.92,0,0,0-3.95,3.83L169,291.5a3.91,3.91,0,0,0,3.74,4l8.69.37c3.46.15,6.37-2.11,6.43-5l.28-13.05C188.19,274.94,185.42,272.57,182,272.54Z"/><path class="cls-7" d="M31.13,265.83h4.33a4.13,4.13,0,0,0,4.13-4l.31-14.92a4.14,4.14,0,0,0-4-4.22l-4.36-.14c-3.44-.11-6.3,2.14-6.36,5l-.28,13.06C24.85,263.45,27.66,265.83,31.13,265.83Z"/><path class="cls-7" d="M31.49,237.27l5.45.17a3.12,3.12,0,0,0,3.23-3.05l.23-10.78a3.14,3.14,0,0,0-3.13-3.19H31.76c-3.34,0-6,2.23-6.1,5L25.52,232C25.46,234.81,28.12,237.16,31.49,237.27Z"/><path class="cls-7" d="M183.38,190.92l-8.75.32a3.72,3.72,0,0,0-3.59,3.64l-.32,15a3.72,3.72,0,0,0,3.7,3.8l9,0c3.36,0,6.1-2.2,6.16-5l.27-12.58C189.92,193.21,187,190.79,183.38,190.92Z"/><path class="cls-7" d="M110.73,271.84,98,271.72A3.9,3.9,0,0,0,94,275.54l-.27,12.78a3.91,3.91,0,0,0,3.74,4l12.76.54a3.9,3.9,0,0,0,4.06-3.82l.28-13.19A3.91,3.91,0,0,0,110.73,271.84Z"/><path class="cls-7" d="M183,220.16l-8.87,0a3.71,3.71,0,0,0-3.71,3.64l-.31,14.3a3.73,3.73,0,0,0,3.6,3.8l8.91.29c3.43.12,6.3-2.13,6.36-5l.25-11.78C189.3,222.54,186.48,220.15,183,220.16Z"/><path class="cls-7" d="M182.69,247.46l-9.26-.3a3.44,3.44,0,0,0-3.57,3.38l-.25,11.78a3.46,3.46,0,0,0,3.46,3.53h9.3c3.34,0,6.06-2.22,6.12-5l.17-8.12C188.72,249.91,186.06,247.57,182.69,247.46Z"/><path class="cls-7" d="M144.77,249.72l-.26,12.59a3.45,3.45,0,0,0,3.45,3.53h13.67a3.46,3.46,0,0,0,3.45-3.39l.26-12.15a3.46,3.46,0,0,0-3.34-3.53l-13.66-.45A3.46,3.46,0,0,0,144.77,249.72Z"/><path class="cls-7" d="M160.92,272.33l-12.76-.12a3.9,3.9,0,0,0-3.94,3.82l-.31,14.41a3.91,3.91,0,0,0,3.74,4l12.75.54a3.9,3.9,0,0,0,4.07-3.82l.32-14.82A3.91,3.91,0,0,0,160.92,272.33Z"/><path class="cls-7" d="M32.21,212.91l5.34,0a3.13,3.13,0,0,0,3.14-3.06l.22-10.54a3.13,3.13,0,0,0-3.23-3.19l-5.66.21c-3.24.11-5.79,2.3-5.85,5L26,207.64C26,210.52,28.76,212.89,32.21,212.91Z"/><path class="cls-7" d="M135.82,272.09,123.28,272a4.12,4.12,0,0,0-4.17,4l-.28,13.37a3.91,3.91,0,0,0,3.74,4l12.75.54a3.9,3.9,0,0,0,4.07-3.82l.3-14A3.9,3.9,0,0,0,135.82,272.09Z"/><path class="cls-7" d="M145.92,195.78l-.3,14a3.72,3.72,0,0,0,3.7,3.8l13.13.07A3.72,3.72,0,0,0,166.2,210l.3-14.54a3.71,3.71,0,0,0-3.85-3.79l-13.14.47A3.72,3.72,0,0,0,145.92,195.78Z"/><path class="cls-7" d="M145.32,223.86,145,237.3a3.72,3.72,0,0,0,3.6,3.8l13.12.43a3.72,3.72,0,0,0,3.84-3.64l.3-13.89a3.72,3.72,0,0,0-3.73-3.8l-13.13,0A3.73,3.73,0,0,0,145.32,223.86Z"/><path class="cls-1" d="M30.75,185l.6,4.43A2.93,2.93,0,0,0,34.18,192h.21a2.91,2.91,0,0,0,3-2.84l.09-4.54a2.9,2.9,0,0,0-3.22-3l-.91.1A2.91,2.91,0,0,0,30.75,185Z"/><path class="cls-1" d="M51.32,183.88l.6,4.43a2.91,2.91,0,0,0,2.82,2.52H55a2.9,2.9,0,0,0,3-2.84l.1-4.54a2.9,2.9,0,0,0-3.23-2.95l-.91.1A2.89,2.89,0,0,0,51.32,183.88Z"/><path class="cls-1" d="M76.62,184.23l.6,4.43a2.93,2.93,0,0,0,2.83,2.52h.21a2.91,2.91,0,0,0,3-2.85l.09-4.53a2.91,2.91,0,0,0-3.22-3l-.91.1A2.92,2.92,0,0,0,76.62,184.23Z"/><path class="cls-1" d="M101.27,183.13l.61,4.43a2.9,2.9,0,0,0,2.82,2.51h.21a2.91,2.91,0,0,0,3-2.85l.1-4.54a2.92,2.92,0,0,0-3.23-2.95l-.91.1A2.91,2.91,0,0,0,101.27,183.13Z"/><path class="cls-1" d="M126.59,179.91l.61,4.43a2.9,2.9,0,0,0,2.82,2.51h.21a2.91,2.91,0,0,0,3-2.85l.1-4.54a2.91,2.91,0,0,0-3.23-2.95l-.91.1A2.91,2.91,0,0,0,126.59,179.91Z"/><path class="cls-1" d="M153.42,180.48l.6,4.43a2.92,2.92,0,0,0,2.83,2.51h.2a2.92,2.92,0,0,0,3-2.85l.09-4.54a2.91,2.91,0,0,0-3.23-2.95l-.91.1A2.91,2.91,0,0,0,153.42,180.48Z"/><path class="cls-1" d="M176.06,180l.6,4.43a2.92,2.92,0,0,0,2.83,2.52h.21a2.91,2.91,0,0,0,3-2.85l.09-4.53a2.91,2.91,0,0,0-3.22-3l-.91.1A2.92,2.92,0,0,0,176.06,180Z"/><path class="cls-3" d="M167.46,178.78a1.07,1.07,0,0,0-1.79-.79c-2.08,1.64-2.93,4.19-3.95,6.56-1.2,2.77-2.34,5.56-3.36,8.4a76.36,76.36,0,0,0-2.68,9.13,65.71,65.71,0,0,0-5-10.71,1,1,0,0,0-1.76.7c1.76,6.26,3.93,12.39,5.58,18.68.59,2.22,3.62,1.69,3.85-.44a71.27,71.27,0,0,1,4-16.9c.95-2.61,2-5.19,3.11-7.74C166.42,183.4,167.61,181.29,167.46,178.78Z"/><path class="cls-3" d="M170.32,183.42a1.42,1.42,0,0,0-.81,2.71c11,4.83,12.42,18.45,4.49,26.7-3.67,3.81-8.54,6.77-13.15,9.32s-9.9,4.55-15.33,4c-12.58-1.26-14.29-14.06-10.53-23.94a35.35,35.35,0,0,1,20.85-20.36c1.23-.46.75-2.45-.5-2a39.89,39.89,0,0,0-21.17,17.73c-4.32,7.57-6.91,18.26-1.26,25.87,5.85,7.87,17,8,25.31,4.73,9.2-3.61,20.65-10.3,24.31-20C186.37,198,181.63,185.54,170.32,183.42Z"/><path class="cls-8" d="M215.47,305.15a.47.47,0,0,1-.48-.47l-.58-83.61a.47.47,0,0,1,.47-.47h0a.47.47,0,0,1,.47.47l.58,83.6a.48.48,0,0,1-.47.48Z"/><path class="cls-8" d="M214.75,202.35a.47.47,0,0,1-.47-.47l-.2-29.2a.47.47,0,0,1,.47-.48h0a.48.48,0,0,1,.48.47l.2,29.2a.47.47,0,0,1-.47.48Z"/><circle class="cls-9" cx="35.82" cy="172.74" r="5.09"/><circle class="cls-9" cx="77.55" cy="172.35" r="5.09"/><circle class="cls-9" cx="119.68" cy="170.98" r="5.09"/><circle class="cls-9" cx="161.42" cy="169.02" r="5.09"/><path class="cls-10" d="M165.29,133.72c-8.57,1.87-7.76,24.43-7.07,33.58a4.13,4.13,0,0,0,4.12,3.82,2.1,2.1,0,0,0,1.57-.71,2.12,2.12,0,0,0,.53-1.64c-.74-6.92-2.32-26.85,4-27.91,0,0,4.53-.8,5.29,8h4.9S176.07,131.37,165.29,133.72Z"/><path class="cls-10" d="M123.56,134.88c-8.58,1.87-7.77,24.43-7.08,33.59a4.14,4.14,0,0,0,4.12,3.82,2.11,2.11,0,0,0,2.1-2.34c-.74-6.92-2.32-26.87,4-27.93,0,0,4.52-.63,5.28,7.95h4.9S134.33,132.53,123.56,134.88Z"/><path class="cls-10" d="M81.82,136.05c-8.57,1.87-7.76,24.43-7.07,33.59a4.12,4.12,0,0,0,4.11,3.82,2.11,2.11,0,0,0,1.58-.7,2.09,2.09,0,0,0,.52-1.64c-.74-6.92-2.31-26.87,4-27.94,0,0,4.52-.51,5.28,8.11l4.9-.17S92.6,133.7,81.82,136.05Z"/><path class="cls-10" d="M40.08,137.4c-8.57,1.87-7.76,24.44-7.07,33.6a4.14,4.14,0,0,0,4.12,3.83,2.09,2.09,0,0,0,1.57-.7,2.14,2.14,0,0,0,.53-1.64c-.74-6.92-2.32-26.9,4-28,0,0,4.53-.66,5.29,7.92h4.9S50.86,135,40.08,137.4Z"/><path class="cls-4" d="M63.77,56.23c0,22.56,19,40.85,42.4,40.85S149.61,78,149.61,55.43s-20-40-43.44-40S63.77,33.67,63.77,56.23Z"/><path class="cls-11" d="M146.28,46.3h.08a.27.27,0,0,0,.2-.34,34,34,0,0,0-1.73-4.87.29.29,0,0,0-.38-.15.28.28,0,0,0-.16.37A34.6,34.6,0,0,1,146,46.09.28.28,0,0,0,146.28,46.3Z"/><path class="cls-11" d="M139.8,33.53a.28.28,0,0,0,.24-.45c-7.86-10-20.51-16-33.85-16a41.74,41.74,0,0,0-16.37,3.3.27.27,0,0,0-.15.37.29.29,0,0,0,.38.15,41.16,41.16,0,0,1,16.14-3.26,42.5,42.5,0,0,1,33.38,15.8A.27.27,0,0,0,139.8,33.53Z"/><path class="cls-12" d="M69.54,56.23c0,19.53,16.43,35.36,36.7,35.36s37.6-16.52,37.6-36.05-17.34-34.67-37.6-34.67S69.54,36.7,69.54,56.23Z"/><path class="cls-13" d="M69.54,56.23c0-19.53,16.43-35.36,36.7-35.36a39.13,39.13,0,0,1,28.05,11.62L106,55.15l-5.82,36C82.81,88.35,69.54,73.78,69.54,56.23Z"/><path class="cls-14" d="M134.46,54.4a2.79,2.79,0,0,0,3,2.56,2.75,2.75,0,0,0,2.65-2.88,2.83,2.83,0,0,0-5.64.32Z"/><path class="cls-14" d="M73.43,57.82A2.83,2.83,0,1,0,76.08,55,2.75,2.75,0,0,0,73.43,57.82Z"/><path class="cls-14" d="M111.75,82.25a2.74,2.74,0,0,0-2.27,3.17,2.82,2.82,0,0,0,3.29,2.19A2.74,2.74,0,0,0,115,84.44,2.82,2.82,0,0,0,111.75,82.25Z"/><path class="cls-14" d="M100.76,24.3a2.73,2.73,0,0,0-2.27,3.16,2.83,2.83,0,0,0,3.29,2.19,2.73,2.73,0,0,0,2.27-3.16A2.82,2.82,0,0,0,100.76,24.3Z"/><path class="cls-14" d="M91.66,83.81c-.28.7-.21,1.35.16,1.46s.92-.37,1.2-1.07.22-1.35-.16-1.46S92,83.11,91.66,83.81Z"/><path class="cls-14" d="M116.22,28.84c-.29.7-.22,1.35.16,1.46s.91-.37,1.2-1.07.22-1.35-.16-1.46S116.51,28.14,116.22,28.84Z"/><path class="cls-14" d="M78.84,73.36c-.62.45-.91,1-.65,1.33s1,.14,1.6-.32.92-1,.65-1.32S79.46,72.91,78.84,73.36Z"/><path class="cls-14" d="M129.45,38.66c-.62.46-.91,1.05-.65,1.33s1,.14,1.6-.31.91-1,.65-1.33S130.07,38.21,129.45,38.66Z"/><path class="cls-14" d="M77.23,42.23c-.7-.32-1.38-.29-1.52.06s.32.9,1,1.22,1.38.3,1.52,0S77.94,42.56,77.23,42.23Z"/><path class="cls-14" d="M132.51,69.52c-.7-.32-1.39-.3-1.52.06s.32.9,1,1.22,1.39.3,1.52,0S133.21,69.85,132.51,69.52Z"/><path class="cls-14" d="M88.91,30.61c-.43-.63-1-.95-1.33-.72s-.21.94.22,1.56,1,.95,1.33.72S89.34,31.23,88.91,30.61Z"/><path class="cls-14" d="M121.45,81.58c-.43-.62-1-.94-1.33-.71s-.21.93.21,1.56,1,.95,1.33.71S121.88,82.21,121.45,81.58Z"/><path class="cls-15" d="M106.31,54.08l33.79,18c11.4-26.55-4.72-49.26-33.38-52Z"/><path class="cls-3" d="M107.38,55.14,130.08,66a.64.64,0,0,0,.94-.58l-.09-2.81a.65.65,0,0,1,1.08-.49l16.41,13.92a.63.63,0,0,1-.57,1.08l-21.14-4.34a.63.63,0,0,1-.32-1.06l2.48-2.35a.62.62,0,0,0-.13-1l-22-12.18a.61.61,0,0,1-.25-.84h0A.66.66,0,0,1,107.38,55.14Z"/><path class="cls-16" d="M145.86,76a.56.56,0,0,0,.5-.31.5.5,0,0,0-.15-.65l-3.59-2.86a.3.3,0,0,0-.41,0,.29.29,0,0,0,0,.4l3.59,2.86c-4.78-1.06-16-3.41-16.22-3.43a.28.28,0,1,0-.07.56c.34.05,8.93,1.85,16.19,3.37Z"/><path class="cls-3" d="M105,54.06l0-21.38a.66.66,0,0,0-1-.54l-2.55,1.37a.64.64,0,0,1-1-.69l5.28-20.45a.66.66,0,0,1,1.26,0l5.71,20.08a.63.63,0,0,1-.82.76l-3.31-1a.64.64,0,0,0-.85.56l-1.55,21.35a.64.64,0,0,1-.66.6h0A.65.65,0,0,1,105,54.06Z"/><path class="cls-16" d="M111.09,30.48l.11,0a.29.29,0,0,0,.17-.36c-.11-.31-2.4-8.48-4.34-15.4a.53.53,0,0,0-.55-.4.56.56,0,0,0-.54.43l-1,4.38a.28.28,0,0,0,.22.34.29.29,0,0,0,.35-.22l1-4.39c1.23,4.58,4.21,15.25,4.3,15.46A.28.28,0,0,0,111.09,30.48Z"/><ellipse class="cls-17" cx="106.43" cy="55.21" rx="3.02" ry="2.91"/><g class="cls-18"><path class="cls-8" d="M251.11,208.77a1.07,1.07,0,0,1,1.42-.56c1.07.46,2.17.89,3.28,1.26a1.08,1.08,0,0,1,.68,1.35v0a1.09,1.09,0,0,1-1.38.68c-1.16-.39-2.32-.84-3.44-1.33a1.07,1.07,0,0,1-.6-1.32A.42.42,0,0,1,251.11,208.77Zm10.21,2.15c1.15.22,2.31.39,3.47.51a1.08,1.08,0,0,1,1,1.19,1.09,1.09,0,0,1-1.19,1c-1.22-.12-2.45-.3-3.66-.53a1.1,1.1,0,0,1-.86-1.27.65.65,0,0,1,0-.13A1.07,1.07,0,0,1,261.32,210.92Zm9.17.7c1.16,0,2.34-.13,3.49-.27a1.08,1.08,0,0,1,1.21.94,1.09,1.09,0,0,1-.94,1.21c-1.22.15-2.46.24-3.69.29a1.09,1.09,0,0,1-.07-2.17Zm9.09-1.36c1.12-.3,2.25-.66,3.35-1a1.08,1.08,0,0,1,.73,2c-1.15.41-2.34.78-3.52,1.1a1.09,1.09,0,0,1-1.33-.76,1.14,1.14,0,0,1,0-.61A1.1,1.1,0,0,1,279.58,210.26Zm8.56-3.36c1-.54,2.05-1.13,3-1.76a1.08,1.08,0,1,1,1.17,1.82c-1,.66-2.11,1.29-3.19,1.86a1.08,1.08,0,0,1-1.46-.45,1.1,1.1,0,0,1-.08-.83A1.12,1.12,0,0,1,288.14,206.9Zm7.61-5.16c.88-.76,1.74-1.56,2.56-2.39a1.08,1.08,0,0,1,1.53,0,1.09,1.09,0,0,1,0,1.54c-.86.87-1.77,1.72-2.7,2.51a1.09,1.09,0,0,1-1.53-.11,1.1,1.1,0,0,1-.21-1A1.12,1.12,0,0,1,295.75,201.74Zm15-37.32a1.09,1.09,0,0,1,1.21.94c.14,1.22.24,2.46.28,3.69a1.09,1.09,0,1,1-2.17.07c0-1.17-.13-2.34-.27-3.5a1.12,1.12,0,0,1,.05-.45A1.05,1.05,0,0,1,310.75,164.42ZM302,195c.69-.94,1.35-1.91,2-2.9a1.08,1.08,0,1,1,1.85,1.13c-.65,1.05-1.34,2.08-2.08,3.06a1.08,1.08,0,0,1-1.51.23A1.07,1.07,0,0,1,302,195Zm9-21.17a1.08,1.08,0,0,1,1,1.19c-.12,1.22-.31,2.45-.54,3.66a1.08,1.08,0,0,1-2.13-.41c.22-1.15.4-2.32.52-3.47a1.43,1.43,0,0,1,0-.22A1.1,1.1,0,0,1,311.06,173.85Zm-4.44,13.22c.47-1.07.9-2.17,1.27-3.27a1.09,1.09,0,0,1,1.38-.68,1.08,1.08,0,0,1,.68,1.35v0c-.39,1.16-.84,2.32-1.33,3.44a1.09,1.09,0,0,1-1.43.56,1.1,1.1,0,0,1-.6-1.32A.49.49,0,0,0,306.62,187.07Z"/><path class="cls-8" d="M308.26,157.73a1.07,1.07,0,0,0,0,.64c.17.54.33,1.08.47,1.63a1.09,1.09,0,0,0,1.33.76,1.06,1.06,0,0,0,.76-1.32c-.15-.57-.31-1.15-.49-1.71A1.07,1.07,0,0,0,309,157,1.05,1.05,0,0,0,308.26,157.73Z"/></g><g class="cls-18"><path class="cls-8" d="M286.92,132.52a1.09,1.09,0,0,0,.54,1.3l1.5.78a1.08,1.08,0,1,0,1.05-1.89c-.52-.29-1.05-.57-1.57-.83a1.09,1.09,0,0,0-1.46.48A.52.52,0,0,0,286.92,132.52Z"/><path class="cls-8" d="M228.44,155.43a1.08,1.08,0,0,1,1.4-.63,1.07,1.07,0,0,1,.63,1.39c-.39,1.07-.75,2.17-1.06,3.28a1.08,1.08,0,1,1-2.09-.58c.14-.48.28-1,.43-1.44C228,156.77,228.2,156.1,228.44,155.43Zm-1.1,8.32a1.08,1.08,0,0,1,.93,1.22c-.16,1.13-.27,2.29-.33,3.43a1.09,1.09,0,0,1-1.14,1,1.07,1.07,0,0,1-1-1.14c.06-1.2.18-2.42.34-3.62a1.16,1.16,0,0,1,0-.18A1.08,1.08,0,0,1,227.34,163.75Zm3.53-13.7c.57-1.06,1.19-2.11,1.85-3.12a1.08,1.08,0,1,1,1.82,1.18c-.63,1-1.22,2-1.76,3a1.08,1.08,0,0,1-2-.84C230.81,150.18,230.84,150.12,230.87,150.05Zm-4,23a1.09,1.09,0,0,1,1.17,1c.09,1.14.24,2.3.43,3.43a1.08,1.08,0,1,1-2.13.36c-.21-1.19-.36-2.4-.46-3.61a1.12,1.12,0,0,1,0-.41A1.1,1.1,0,0,1,226.86,173Zm9.41-30.8c.79-.91,1.63-1.8,2.5-2.65a1.09,1.09,0,0,1,1.51,1.56c-.82.8-1.62,1.64-2.37,2.51a1.08,1.08,0,0,1-1.53.1,1.06,1.06,0,0,1-.32-1.14A1,1,0,0,1,236.27,142.22Zm7-6.47c1-.71,2-1.4,3-2a1.08,1.08,0,0,1,1.14,1.84c-1,.6-1.94,1.25-2.86,1.94a1.09,1.09,0,0,1-1.68-1.2A1.12,1.12,0,0,1,243.26,135.75Zm8.23-4.78c1.11-.49,2.25-.94,3.39-1.33a1.08,1.08,0,0,1,.71,2c-1.09.38-2.17.8-3.22,1.27a1.08,1.08,0,0,1-1.47-1.32A1.07,1.07,0,0,1,251.49,131Zm9.09-2.88c1.18-.24,2.39-.42,3.59-.56a1.08,1.08,0,1,1,.24,2.15c-1.14.13-2.29.31-3.41.53a1.08,1.08,0,0,1-1.28-.85,1.18,1.18,0,0,1,0-.53A1.08,1.08,0,0,1,260.58,128.09Zm9.49-.81c1.21,0,2.43.11,3.63.25a1.08,1.08,0,0,1-.24,2.15c-1.14-.13-2.3-.21-3.45-.24a1.08,1.08,0,0,1-1.05-1.11,1,1,0,0,1,.05-.3A1.09,1.09,0,0,1,270.07,127.28Zm9.43,1.29c.87.22,1.73.46,2.58.73l.91.3a1.06,1.06,0,0,1,.67,1.37,1.08,1.08,0,0,1-1.37.68l-.87-.29c-.8-.25-1.62-.48-2.44-.69a1.08,1.08,0,0,1-.79-1.31.64.64,0,0,0,0-.07A1.08,1.08,0,0,1,279.5,128.57Z"/><path class="cls-8" d="M227.73,182.91a1.06,1.06,0,0,0,0,.66c.17.55.36,1.12.57,1.68a1.08,1.08,0,1,0,2-.74c-.19-.53-.37-1.07-.54-1.6a1.08,1.08,0,0,0-1.36-.7A1.06,1.06,0,0,0,227.73,182.91Z"/></g><path class="cls-17" d="M244.2,191.49a.48.48,0,0,0,.54.21l6-1.51a26.94,26.94,0,0,0,7.18,4.9l.78,6.11a.51.51,0,0,0,.4.43l7.24,1.51a.5.5,0,0,0,.53-.24l3.16-5.29a26.9,26.9,0,0,0,8.54-1.62l4.87,3.77a.51.51,0,0,0,.59,0l6.18-4.05a.52.52,0,0,0,.22-.55l-1.52-6a26.71,26.71,0,0,0,4.9-7.18l6.11-.78a.5.5,0,0,0,.43-.4l1.51-7.24a.51.51,0,0,0-.24-.54l-5.29-3.15a26.62,26.62,0,0,0-1.62-8.54l3.77-4.87a.53.53,0,0,0,0-.59l-4.06-6.18a.48.48,0,0,0-.54-.22l-6,1.51a26.9,26.9,0,0,0-7.18-4.89L280,140a.5.5,0,0,0-.4-.43l-7.24-1.51a.49.49,0,0,0-.53.23l-3.16,5.29a26.91,26.91,0,0,0-8.54,1.63l-4.87-3.77a.5.5,0,0,0-.59,0l-6.18,4.05a.52.52,0,0,0-.22.55l1.52,6a26.92,26.92,0,0,0-4.9,7.19l-6.11.78a.51.51,0,0,0-.43.4l-1.51,7.23a.51.51,0,0,0,.24.54l5.29,3.15a26.74,26.74,0,0,0,1.62,8.55l-3.77,4.87a.51.51,0,0,0,0,.59Z"/><path class="cls-19" d="M262.63,167.36a7.43,7.43,0,0,1,13.71.83,7.35,7.35,0,0,1-.34,5.67,7.43,7.43,0,0,1-13.77-5.48A8,8,0,0,1,262.63,167.36Zm12.07,1.39a5.7,5.7,0,1,0-.26,4.35,5.28,5.28,0,0,0,.31-.78A5.66,5.66,0,0,0,274.7,168.75Z"/><path class="cls-19" d="M252,165c-.18.59-.34,1.2-.47,1.81h0c0,.2-.08.39-.11.59a19,19,0,0,0-.28,2.91v.37a.42.42,0,0,0,.3.41.34.34,0,0,0,.14,0,.43.43,0,0,0,.43-.43,17,17,0,0,1,.37-3.69A17.42,17.42,0,0,1,273,153.5c.59.12,1.17.28,1.73.45a17.4,17.4,0,0,1-8.82,33.62c-.58-.12-1.15-.27-1.72-.44a17.38,17.38,0,0,1-6.53-3.79.39.39,0,0,0-.16-.1.43.43,0,0,0-.45.12.44.44,0,0,0,0,.61,18.09,18.09,0,0,0,6.86,4,15.86,15.86,0,0,0,1.8.47,18.26,18.26,0,0,0,19-27.89,18.06,18.06,0,0,0-9.73-7.4,18.72,18.72,0,0,0-1.82-.48A18.29,18.29,0,0,0,252,165Z"/><g class="cls-18"><path class="cls-8" d="M212.7,235.51a.67.67,0,0,0,.27.76c.47.32,1,.62,1.45.91a.67.67,0,0,0,.67-1.15c-.46-.28-.93-.57-1.38-.87a.65.65,0,0,0-.92.18A.56.56,0,0,0,212.7,235.51Z"/><path class="cls-8" d="M217.24,237.91a.67.67,0,0,1,.88-.34,27.71,27.71,0,0,0,2.63,1l.57.17a.67.67,0,0,1,.45.83.68.68,0,0,1-.83.45c-.2-.05-.39-.11-.59-.18a27.79,27.79,0,0,1-2.76-1,.66.66,0,0,1-.37-.81A.64.64,0,0,0,217.24,237.91Zm7.39,1.57a27.44,27.44,0,0,0,3.38.34.67.67,0,0,1,0,1.34,30.28,30.28,0,0,1-3.55-.36.68.68,0,0,1-.55-.77l0-.1A.65.65,0,0,1,224.63,239.48Zm6.78.27a27.51,27.51,0,0,0,3.36-.5.67.67,0,0,1,.79.52.66.66,0,0,1-.51.79,28.07,28.07,0,0,1-3.53.52.66.66,0,0,1-.72-.61.57.57,0,0,1,0-.26A.66.66,0,0,1,231.41,239.75Zm6.63-1.41a25.31,25.31,0,0,0,3.14-1.3.68.68,0,0,1,.9.31.67.67,0,0,1-.31.89,29.62,29.62,0,0,1-3.29,1.37.67.67,0,0,1-.86-.83A.73.73,0,0,1,238,238.34Zm6.1-3a28.26,28.26,0,0,0,2.72-2,.68.68,0,0,1,.95.08.67.67,0,0,1-.08.94,29.46,29.46,0,0,1-2.86,2.13.68.68,0,0,1-.93-.2.72.72,0,0,1-.08-.57A.64.64,0,0,1,244.14,235.37Zm5.18-4.37a27.09,27.09,0,0,0,2.15-2.63.66.66,0,0,1,.93-.15.67.67,0,0,1,.16.93,28.33,28.33,0,0,1-2.26,2.76.67.67,0,0,1-1.13-.66A.64.64,0,0,1,249.32,231Zm4-5.5a28.76,28.76,0,0,0,1.44-3.08.67.67,0,1,1,1.24.49,27.86,27.86,0,0,1-1.51,3.23.67.67,0,0,1-1.22-.53A.37.37,0,0,1,253.28,225.5Zm3.89-10.22a.66.66,0,0,1,.57.75,29.46,29.46,0,0,1-.56,3l-.12.45a.67.67,0,1,1-1.29-.33c0-.15.07-.29.1-.43a26.61,26.61,0,0,0,.55-2.91.36.36,0,0,1,0-.11A.66.66,0,0,1,257.17,215.28Z"/></g><g class="cls-18"><path class="cls-8" d="M201.66,203.18a29.35,29.35,0,0,1,1.3-3.25.67.67,0,0,1,.89-.32.68.68,0,0,1,.32.89,28.61,28.61,0,0,0-1.24,3.1.67.67,0,1,1-1.27-.41Zm-.11,2.87a.66.66,0,0,1,.52.79,28,28,0,0,0-.46,3.31.67.67,0,0,1-.72.61.66.66,0,0,1-.61-.72,29,29,0,0,1,.48-3.47s0,0,0-.07A.66.66,0,0,1,201.55,206.05Zm3.09-9.19a30.74,30.74,0,0,1,2.05-2.85.67.67,0,0,1,1,.85,27.34,27.34,0,0,0-1.95,2.71.67.67,0,0,1-1.21-.56A1,1,0,0,1,204.64,196.86Zm-3.79,16a.66.66,0,0,1,.7.64,28.3,28.3,0,0,0,.35,3.32.67.67,0,1,1-1.32.22,29.13,29.13,0,0,1-.37-3.48.93.93,0,0,1,0-.24A.68.68,0,0,1,200.85,212.85Zm8.22-21.41a30.47,30.47,0,0,1,2.67-2.27.66.66,0,0,1,.93.14.65.65,0,0,1-.13.93,27.81,27.81,0,0,0-2.55,2.17.67.67,0,0,1-1.1-.69A.61.61,0,0,1,209.07,191.44Zm5.59-4.2a30.57,30.57,0,0,1,3.14-1.56.67.67,0,0,1,.52,1.23,29.73,29.73,0,0,0-3,1.49.67.67,0,0,1-.92-.24.68.68,0,0,1,0-.54A.66.66,0,0,1,214.66,187.24Zm6.44-2.73a28.64,28.64,0,0,1,3.42-.77.67.67,0,0,1,.21,1.32,28.37,28.37,0,0,0-3.26.73.67.67,0,0,1-.83-.45.64.64,0,0,1,0-.39A.63.63,0,0,1,221.1,184.51Z"/><path class="cls-8" d="M201.38,220.09a.65.65,0,0,0,0,.39c.16.55.34,1.09.53,1.62a.67.67,0,0,0,1.26-.45c-.18-.51-.36-1-.51-1.55a.66.66,0,0,0-.83-.45A.64.64,0,0,0,201.38,220.09Z"/></g><path class="cls-17" d="M212.5,226.3a.34.34,0,0,0,.37.14l4-1a18,18,0,0,0,4.81,3.28l.52,4.09a.34.34,0,0,0,.27.28l4.84,1a.33.33,0,0,0,.36-.16l2.11-3.54a17.75,17.75,0,0,0,5.72-1.08l3.26,2.52a.33.33,0,0,0,.39,0l4.14-2.71a.34.34,0,0,0,.14-.37l-1-4a18,18,0,0,0,3.28-4.8l4.08-.53a.32.32,0,0,0,.29-.26l1-4.84a.32.32,0,0,0-.16-.36l-3.54-2.11a18,18,0,0,0-1.08-5.72l2.52-3.26a.33.33,0,0,0,0-.39l-2.71-4.14a.34.34,0,0,0-.37-.14l-4,1a17.89,17.89,0,0,0-4.81-3.28l-.52-4.09a.34.34,0,0,0-.26-.29l-4.85-1a.37.37,0,0,0-.36.16l-2.11,3.54a18,18,0,0,0-5.71,1.09l-3.26-2.52a.35.35,0,0,0-.4,0l-4.13,2.71a.36.36,0,0,0-.15.37l1,4a18,18,0,0,0-3.28,4.81l-4.09.52a.35.35,0,0,0-.29.27l-1,4.84a.34.34,0,0,0,.16.36l3.54,2.11a18,18,0,0,0,1.09,5.72l-2.53,3.26a.35.35,0,0,0,0,.39Z"/><path class="cls-19" d="M224.76,210.12a5.06,5.06,0,1,1,9.1,4.42,5.06,5.06,0,0,1-9.38-3.73A4.53,4.53,0,0,1,224.76,210.12Zm6.18-1.14a3.76,3.76,0,0,0-2.85-.17A3.68,3.68,0,0,0,226,210.7h0a3.73,3.73,0,1,0,6.7,3.26,5.38,5.38,0,0,0,.2-.51A3.75,3.75,0,0,0,230.94,209Z"/><path class="cls-19" d="M217.39,208.47a12.54,12.54,0,0,0-.33,1.24,13.71,13.71,0,0,0-.27,2.55v.12a.67.67,0,0,0,.47.63.76.76,0,0,0,.21,0,.66.66,0,0,0,.66-.67,12,12,0,0,1,.24-2.39h0l0-.13a11.12,11.12,0,0,1,2.47-4.93,10.94,10.94,0,0,1,2.27-2h0l.07,0a11.19,11.19,0,0,1,8.47-1.61c.38.08.75.18,1.12.29a11.27,11.27,0,0,1-5.72,21.77c-.37-.08-.74-.18-1.1-.29a11.19,11.19,0,0,1-4.23-2.46.94.94,0,0,0-.26-.14.67.67,0,0,0-.69.18.68.68,0,0,0,0,1,12.43,12.43,0,0,0,4.73,2.74c.41.13.82.24,1.24.33a12.6,12.6,0,0,0,6.39-24.35,12.58,12.58,0,0,0-15.83,8.2Z"/><path class="cls-20" d="M71.4,205.21c-.1.19-6.35,4.79-6.35,4.79s1.38,9.88,7,13.78c6.16,4.28,14.86-3.53,14.86-3.53s6.93,1.64,10.61-12.78c.85-3.3-4-3.58-9.92-3C80,205.28,71.4,205.21,71.4,205.21Z"/><path class="cls-21" d="M59.72,238.91a26.39,26.39,0,0,1,8-3.73c1.08-.29,6.89,1.39,10.49,1.31,4.93-.11,10-2.36,14-1.34a29.1,29.1,0,0,1,9.25,3.68c5.71,4.06,9.07,11.64,11.11,19.14a26,26,0,0,1-8.74,5.74l-.9,36.48-21.57,11L56.77,298.87l.88-35.65s-7.82-3.64-8.39-5S52.82,243.65,59.72,238.91Z"/><path class="cls-22" d="M49.62,258.09s-10.48,29.05,13.41,41c5-.66,3.06-8.9,3.06-8.9s-10.38-2.3-7.27-26.53C56,261.29,49.62,258.09,49.62,258.09Z"/><path class="cls-23" d="M112.1,258.09s7.21,30.32-13.42,41c-5-.66-3.05-8.9-3.05-8.9s8.37-4.12,7.26-26.53C105.76,261.29,112.1,258.09,112.1,258.09Z"/><rect class="cls-4" x="56.48" y="269.17" width="47.31" height="31.95" rx="4.05"/><path class="cls-24" d="M124.54,310.59c-5.42-1.24-17.93-.57-17.93-.57l-.51,1.37-.84,6.85s11.91,2.15,17.79,2.15a5.44,5.44,0,0,0,1.65-.25c.17-.16.35-.33.51-.51C127.71,316.91,127,312.91,124.54,310.59Z"/><path class="cls-9" d="M125.07,310.73l-.53-.14c2.45,2.32,3.17,6.32.67,9-.16.18-.34.35-.51.51C129.1,318.77,129.62,312,125.07,310.73Z"/><path class="cls-25" d="M103,309.63l2.12.09a4.08,4.08,0,0,1,3,1.54,5,5,0,0,1,1.09,3.43,4,4,0,0,1-1.14,2.62,3.28,3.28,0,0,1-2.48.94l-3.25-.23Z"/><path class="cls-24" d="M31.77,309.93c5.44-1.08,17.93,0,17.93,0l.48,1.39.67,6.87s-12,1.78-17.84,1.6a5.68,5.68,0,0,1-1.64-.3c-.17-.16-.34-.34-.5-.52A6.44,6.44,0,0,1,31.77,309.93Z"/><path class="cls-9" d="M31.23,310.05l.54-.12a6.44,6.44,0,0,0-.9,9c.16.18.33.36.5.52C27,318,26.65,311.19,31.23,310.05Z"/><path class="cls-26" d="M53.31,309.63l-2.12,0a4.05,4.05,0,0,0-3,1.44A5,5,0,0,0,47,314.5a4,4,0,0,0,1.08,2.65,3.19,3.19,0,0,0,2.45,1l3.25-.13Z"/><path class="cls-24" d="M126.05,289.11c-2.46-5.65-8.46-6.56-13.57-3.92-.09.12-32.46,16.7-61,24a30.86,30.86,0,0,1,1.33,8.15c0,.61,0,1.21,0,1.81,21.89-1.13,45.64-8.43,66.06-14.84A11.29,11.29,0,0,0,126.05,289.11Z"/><path class="cls-3" d="M103.17,317.74a18.8,18.8,0,0,1,1.84-8.82l.12-.37c-1.63-.5-3.73-1.19-6.5-2.12a311.72,311.72,0,0,1-50.49-22c-5.73-3.13-12.25-1-14.08,5.75-1.64,6.06,1.95,11.23,7.42,13.05,16.33,5.43,7.83,3.92,13.16,5.64,14.33,4.43,32.16,8.47,48.56,9.57Z"/><path class="cls-27" d="M67.73,235.18a12.51,12.51,0,0,0,12.77,9.25c10.78-.2,11.74-9.28,11.74-9.28l-7-1.51-.58-7.85-10.6.79L73.82,234Z"/><path class="cls-28" d="M75.5,203.56s-12.14,23.52,2.26,29.22c10.16,4,16.53-15.61,14.63-20.93-2.94-8.23-4.87-7.25-4.87-7.25Z"/><path class="cls-4" d="M95.31,201.42c6,1.65.87,14.66-8.16,11.58s-12.57-3-14-.55-1.71,11.28-4.76,6.93C65.06,214.61,63.19,205,67.3,202c3.66-2.76,4.52-7,8.92-6.89,5.84.2,10.35-2.39,13-.52C92.23,196.68,90.9,200.21,95.31,201.42Z"/><path class="cls-29" d="M72.61,214.47s-2.59-2.78-3,.58.92,7.68,2.47,5.31S72.61,214.47,72.61,214.47Z"/><path class="cls-9" d="M82.92,277.82a2.88,2.88,0,0,1-2.35,3.49,3.1,3.1,0,0,1-3.52-2.62c-.25-1.69.52-3.38,2.22-3.63A3.34,3.34,0,0,1,82.92,277.82Z"/></g></g></svg>