<svg xmlns="http://www.w3.org/2000/svg" viewBox="0 0 175.75 175.83"><defs><style>.cls-1{fill:#c98b5f;}</style></defs><g id="Capa_2" data-name="Capa 2"><g id="Capa_1-2" data-name="Capa 1"><path class="cls-1" d="M73.89,0q20.72,0,41.44,0c9.1,0,15,6,15,15.09,0,7.08.11,14.17-.05,21.25-.06,2.5.46,3.26,3.21,3.48,5,.39,8.77-1,11.95-5A87.61,87.61,0,0,1,154,26.32a12.83,12.83,0,0,1,18.17,18.11c-1.92,2.08-3.93,4.08-6,6-1.17,1.1-1.14,1.88.2,2.73,2.42,1.53,4.31,4.17,7.75,3.54,1.52-.27,1.67.77,1.67,2q0,12.23,0,24.44c0,1,.05,2-1.37,1.92-5.51-.34-10.3,2.25-15.28,3.9-8.82,2.92-17.15,2.26-25.19-2.4-3.12-1.81-3.5-1.58-3.51,2.08q0,24.45,0,48.88c0,9.83-5.77,15.59-15.61,15.59-18.89,0-37.78.06-56.67-.06-2.6,0-3.73.69-4.9,3.17-2.56,5.41-2.25,11-2.14,16.62.05,2.25-.51,3-2.9,3q-17-.2-34,0c-2.42,0-3.07-.8-2.85-3,.69-7.07-.8-13.67-3.67-20.2-3.6-8.17-3.86-17.19-5.48-25.86A116.05,116.05,0,0,1,.05,112.06C-.43,103,2.47,94.76,9.38,88.9c6.17-5.23,8-11.08,7.77-19C16.59,51.75,17,33.56,17,15.37,17,5.8,22.81,0,32.45,0ZM34,107.45l.58,0c.35-1.35.64-2.71,1.06-4a9.49,9.49,0,0,1,18.54.91,30.81,30.81,0,0,1,.44,6c0,2.46,1,3.12,3.42,3.11,15.7-.11,31.41-.06,47.11-.06,8.69,0,8.62,0,8.25-8.58-.1-2.2-.73-2.28-2.51-1.5-3.35,1.45-6.77,2.74-10.2,4a7,7,0,0,1-7.54-1.61c-2.18-2-3.29-4.69-2.2-7.37,2.8-6.89,4.06-14.67,10.54-19.59,1.42-1.08,1.35-1.95.22-3.43C97.82,70.22,98.3,65,102.85,60.38c2.8-2.87,5.61-5.74,8.53-8.49a5.61,5.61,0,0,0,2-4.59c-.14-5.31-.19-10.63,0-15.94.1-2.62-.87-3.09-3.23-3.05-7,.15-13.94.06-20.9.06q-26,0-52.08,0c-1.54,0-3.27-.6-3.26,2.22C34,56.22,34,81.84,34,107.45ZM119,43.8c5.65-2.91,5.65-2.91,5.65-8.55q0-9.55,0-19.12c0-7.28-3.1-10.44-10.26-10.44q-40.73,0-81.46,0c-7.18,0-10.31,3.16-10.31,10.38q0,54.72,0,109.44c0,.83,0,1.66,0,2.48a2.45,2.45,0,0,0,1.91,2.29,2.25,2.25,0,0,0,2.61-1.38c.77-1.45,1.41-3,2.09-4.47,1.29-2.85,2.95-5.64-.26-8.45-1-.87-.74-2.42-.74-3.72q0-41.43,0-82.88c0-4.61,2.08-6.68,6.7-6.69q38.61,0,77.21,0c4.78,0,6.78,2.08,6.8,7C119.05,34.24,119,38.83,119,43.8ZM17,89.26C8.35,96.82,4.14,105.19,6.2,116.07c.64,3.35,1,6.75,1.62,10.11,1.83,10.18,2.73,20.57,7.22,30.12.79,1.69,1.54,2.54,3.59,2.51,8.37-.14,16.75-.11,25.13,0a3.06,3.06,0,0,0,3.39-2.24,49.94,49.94,0,0,0,3.71-22.81q-.69-8.82-1.37-17.63c-.26-3.41-.46-6.83-.84-10.23-.23-2.06-1.36-3.61-3.58-3.73s-3.45,1.23-4,3.29c-.27,1-.51,2-.76,3.08a106.65,106.65,0,0,1-7.14,21.39,10.79,10.79,0,0,1-3.25,4.55,7.73,7.73,0,0,1-8.34.82A7.94,7.94,0,0,1,17,127.56C17,115.07,17,102.58,17,89.26Zm107.71,3c-3.68,3-6.41,5.47-5.74,10.24.48,3.36.14,6.84.08,10.27-.07,4.14-2.2,6.23-6.37,6.31-2.25,0-4.49,0-6.73,0-15.83,0-31.65,0-47.47,0-2.47,0-3.38.48-2.85,3.13a66.07,66.07,0,0,1,.59,7.83c1.4-3.05,3-5.28,6.32-5.26,7.43,0,14.87-.06,22.31,0,3.8,0,6,2.67,5.85,6.46a11.37,11.37,0,0,1-10.58,10.5c-2.36.13-4.73-.09-7.09.06-6.77.43-12.93-.35-16.23-8.71-.23,4.91.21,8.6-.68,12.2-.46,1.85.45,2.16,2.06,2.16,19.37,0,38.73,0,58.1-.06a8.24,8.24,0,0,0,8.39-8.33C124.75,123.7,124.68,108.35,124.68,92.25Zm24.44-25.08.41.87a28.44,28.44,0,0,0,3.81,0c2.47-.35,2.55,1,2.6,2.92.06,2.06-.45,2.67-2.69,2.88-8.23.78-15.53-.49-21.39-7-2.39-2.67-5.9-3.82-9.5-4.3-2.55-.33-4.82.19-5.82,2.86s.53,4.44,2.75,5.77c6.07,3.62,12.07,7.38,18.21,10.89a21.6,21.6,0,0,0,17.07,2.29c4.64-1.32,9.17-3,13.77-4.45a2.21,2.21,0,0,0,1.74-2.56c-.09-4.25,0-8.5,0-12.75,0-.88.12-1.65-1-2.33a69.2,69.2,0,0,1-6.85-5c-1.11-.87-1.86-1-3,.12C155.93,60.67,152.5,63.89,149.12,67.17Zm-19.33-8.69a61.88,61.88,0,0,1,10,7.18c1,.8,1.76,1.45,3,.22,8.54-8.64,17.22-17.13,25.64-25.88,2.72-2.82,2.18-6.92-.55-9.56s-6.78-3-9.6-.26C148.68,39.46,139.34,48.93,129.79,58.48ZM113.36,95a12.19,12.19,0,0,0,1.15-.9c3.58-3.56,7.12-7.17,10.74-10.7,1.22-1.19.51-1.72-.52-2.34-3.23-1.92-6.46-3.83-9.63-5.84a1.62,1.62,0,0,0-2.4.37c-2.71,2.78-5.44,5.53-8.23,8.22-1,1-1,1.63,0,2.58,2.62,2.53,5.16,5.14,7.75,7.71A12,12,0,0,0,113.36,95ZM31.23,170.09c4,0,8-.11,12,0,2.23.08,2.16-1.19,2.08-2.68s.56-3.1-2.06-3.06q-12,.18-24,0c-2.39,0-2.28,1.24-2.27,2.87s-.17,3,2.25,2.88C23.22,170,27.23,170.09,31.23,170.09ZM135,45.63c-5.89-.71-10,.75-13.48,4.17C116.7,54.52,112,59.29,107.22,64a6.4,6.4,0,0,0-2.31,4.22c-.07,1.88.56,4.1,2.4,4.13,1.37,0,3-1.71,3.28-3.67a7.45,7.45,0,0,0,0-1c.1-7,3.85-10.73,11-10.92a4.14,4.14,0,0,0,3.16-1.13C127.83,52.44,131.08,49.37,135,45.63ZM73.86,130.42c-2.58,0-5.17-.09-7.75,0-1.19.06-3-.78-3.46.56-.52,1.64.84,3.05,2.24,4a5.57,5.57,0,0,0,3.3,1c3.65,0,7.29,0,10.93,0a5.59,5.59,0,0,0,5.32-3.37c.79-1.6.57-2.35-1.41-2.29C80,130.49,76.92,130.42,73.86,130.42ZM108.68,98c-2.66-2.43-4.93-4.4-7.08-6.51-1.27-1.24-1.72-.49-2.16.63-.91,2.27-1.78,4.57-2.72,6.83a2,2,0,0,0,.38,2.55,2,2,0,0,0,2.27.28Z"/><path class="cls-1" d="M73.5,51C63.23,51,53,51,42.7,51.11c-2.54,0-3.23-.73-3.1-3.18.2-3.88.11-7.79,0-11.68,0-1.65.46-2.26,2.19-2.26q31.86.07,63.73,0c1.73,0,2.22.61,2.18,2.26-.09,4-.19,8,0,12,.14,2.57-1,2.82-3.11,2.8C94.27,51,83.88,51,73.5,51Zm-.2-5.68c8.61,0,17.22-.08,25.82,0,2.32,0,3-.62,3-2.95,0-2.09-.5-2.82-2.75-2.81q-25.65.15-51.29,0c-2.19,0-2.79.59-2.8,2.76s.55,3,2.93,3C56.55,45.27,64.93,45.36,73.3,45.36Z"/><path class="cls-1" d="M74.76,62.38c-5.19,0-10.38-.13-15.57.06-2.46.09-2.53-1.07-2.59-3-.06-2.08.44-2.86,2.71-2.83q15.75.18,31.5,0c2.2,0,2.79.61,2.79,2.78s-.49,3.09-2.91,3C85.39,62.26,80.07,62.38,74.76,62.38Z"/><path class="cls-1" d="M75.05,85.06c-5.31,0-10.62-.14-15.93.06-2.58.1-2.47-1.24-2.5-3s.15-2.79,2.41-2.76q15.93.17,31.85,0c2.3,0,2.75.79,2.7,2.85s-.16,3-2.61,3C85.67,84.93,80.36,85.06,75.05,85.06Z"/><path class="cls-1" d="M72.16,90.72c4.48,0,9,.12,13.44,0,2.41-.09,2.28,1.25,2.27,2.88s.19,2.93-2.24,2.9q-13.45-.2-26.9,0c-2.23,0-2.16-1.21-2.07-2.69s-.59-3.16,2.05-3.07C63.19,90.83,67.67,90.72,72.16,90.72Z"/><path class="cls-1" d="M72.26,107.74c-4.37,0-8.74-.16-13.09.06-2.52.12-2.57-1.14-2.55-3S56.68,102,59,102q13.26.19,26.54,0c2.31,0,2.35,1.09,2.36,2.81s0,3.11-2.54,3C81,107.58,76.62,107.74,72.26,107.74Z"/><path class="cls-1" d="M69.11,73.72c-3.42,0-6.84-.13-10.25,0-2.48.13-2.18-1.36-2.22-2.92s-.07-2.9,2.3-2.85c7.07.14,14.15.13,21.23,0,2.65,0,1.9,1.72,2,3.1s.09,2.75-2.1,2.66C76.43,73.61,72.77,73.72,69.11,73.72Z"/><path class="cls-1" d="M93.46,71.07c.68,2.79-1.14,2.56-3,2.71-2.4.19-2.57-.94-2.66-2.89-.11-2.39.76-2.89,3-2.94C93.25,67.9,93.92,68.84,93.46,71.07Z"/><path class="cls-1" d="M73.75,17c-2.83,0-5.67-.14-8.49,0-2.26.14-3-.52-3-2.9s.85-2.92,3.05-2.87c5.77.13,11.56.19,17.33,0,2.68-.09,2.33,1.41,2.43,3.1.12,1.87-.3,2.82-2.46,2.69C79.65,16.9,76.7,17,73.75,17Z"/><path class="cls-1" d="M104.84,11.34c1.74.23,2.87,1.15,2.79,3A2.55,2.55,0,0,1,104.89,17a2.58,2.58,0,0,1-2.81-2.91C102.12,12.4,103.21,11.56,104.84,11.34Z"/><path class="cls-1" d="M119,14.13c-.21,1.74-1.11,2.88-2.94,2.84a2.56,2.56,0,0,1-2.68-2.7,2.59,2.59,0,0,1,2.87-2.86C117.93,11.43,118.79,12.51,119,14.13Z"/></g></g></svg>