<svg xmlns="http://www.w3.org/2000/svg" viewBox="0 0 51.31 49.27"><defs><style>.cls-1{fill:#c98b5f;}</style></defs><g id="Capa_2" data-name="Capa 2"><g id="Capa_1-2" data-name="Capa 1"><path class="cls-1" d="M36.78,36.13H24.91c-2.05,0-2.76-.81-2.43-2.86.07-.42-.09-.46-.39-.46-.78,0-1.55,0-2.32,0s-1.21-.31-1.15-1.14c0-.2,0-.41,0-.61.13-.76-.14-1.2-.93-1.31a2.11,2.11,0,0,1-.85-.3c-1.28-.79-2.46-1.21-3.5.39-.28.44-.8.27-1.15-.07C11,28.59,9.82,27.41,8.65,26.21c-.53-.55-.3-1.09.21-1.46a1.49,1.49,0,0,0,.42-2.46A1.24,1.24,0,0,1,9,21.74c-.27-1.4-.87-2.28-2.53-1.95-.6.12-.89-.4-.9-1,0-1.6,0-3.21,0-4.82A.92.92,0,0,1,6.7,13c.3,0,.6,0,.9,0,.62.09.86-.18,1-.77a12,12,0,0,1,1-2.39c.3-.53.24-.84-.2-1.18-.21-.17-.37-.39-.57-.56a1,1,0,0,1,0-1.7q1.62-1.58,3.2-3.2c.57-.59,1.13-.62,1.6,0,.73,1,1.52,1.24,2.54.42a1.74,1.74,0,0,1,.74-.31A1.79,1.79,0,0,0,18.64,1C18.53.34,19,0,19.55,0h4.93c.79,0,1.06.52,1,1.21-.15,1.13.14,1.88,1.41,2a1.08,1.08,0,0,1,.46.18c1.22.8,2.34,1.15,3.32-.38a.71.71,0,0,1,1.15,0c1.22,1.2,2.43,2.4,3.63,3.62.44.45.32.89-.08,1.32s-1.19.78-1.13,1.33a7.94,7.94,0,0,0,.93,2.1c.17.38.33.14.53,0,1.3-.72,2.09-.53,2.85.73Q44.7,22.4,50.85,32.7c1.1,1.85.17,3.43-2,3.43Zm.06-23.64c-.2.28-.3.41-.38.55Q30.37,23.2,24.29,33.35c-.6,1-.49,1.16.72,1.16,7.83,0,15.67,0,23.5,0,.38,0,.87.22,1.09-.26s-.18-.75-.38-1.08Q45.58,27,41.91,20.94C40.25,18.16,38.58,15.38,36.84,12.49Zm-10,13.35C19.66,28.91,13.6,24.77,12,19.62a10.54,10.54,0,0,1,7.31-13.4,10.09,10.09,0,0,1,8,1.08,10.71,10.71,0,0,1,5.3,9,15.75,15.75,0,0,1,.94-1.57,2,2,0,0,0,.25-2.23,16.06,16.06,0,0,0-1.3-2.71,1,1,0,0,1,0-1.36c.36-.41,1.11-.72,1-1.24s-.73-.83-1.12-1.24A4.36,4.36,0,0,1,32,5.48c-.52-.73-1-.77-1.57,0-.42.56-.93,1-1.7.48a12,12,0,0,0-4.06-1.67.92.92,0,0,1-.84-.86c-.06-.57.34-1.35-.24-1.66a4.32,4.32,0,0,0-1.78-.11,2.67,2.67,0,0,1-.4,0c-1-.19-1.31.25-1.17,1.2.09.64,0,1.25-.79,1.41A12.93,12.93,0,0,0,15.21,6,.92.92,0,0,1,14,5.87c-.42-.36-.71-1.11-1.25-1S11.94,5.6,11.53,6a3.41,3.41,0,0,1-.43.42c-.77.54-.72,1,0,1.59.51.39,1,.86.52,1.61a12.32,12.32,0,0,0-1.73,4.15.93.93,0,0,1-1,.83c-1.69.12-1.69.14-1.69,1.89a1.77,1.77,0,0,1,0,.4c-.16,1,.19,1.49,1.28,1.32.65-.1,1.22,0,1.38.81a12.3,12.3,0,0,0,1.72,4.15.94.94,0,0,1-.06,1.19c-.35.46-1.19.73-1,1.33s.78.88,1.2,1.31a4.08,4.08,0,0,1,.36.36c.5.73,1,.74,1.51,0,.41-.54.9-1.06,1.69-.55a12.3,12.3,0,0,0,4.15,1.72.91.91,0,0,1,.81.89c0,.56-.28,1.33.18,1.61s1.17.1,1.77.11c.3,0,.6,0,.9,0a.89.89,0,0,0,.9-.49C24.91,29.12,25.84,27.58,26.88,25.84Zm-4.83-.54a8.9,8.9,0,1,0-8.94-8.94A8.84,8.84,0,0,0,22.05,25.3Z"/><path class="cls-1" d="M23.87,40.54c3.21-.87,6.34-1.7,9.45-2.55a3.6,3.6,0,0,1,3.87,1,3.51,3.51,0,0,1-1.78,5.81c-4.48,1.24-9,2.42-13.45,3.62-.81.22-1.62.41-2.42.64a6,6,0,0,1-4.67-.51L9.55,45.7a4.63,4.63,0,0,0-3.5-.36c-.43.12-.67.25-.73.77a1.34,1.34,0,0,1-1.51,1.28H1.7C.52,47.38.07,46.94,0,45.76c0-.61,0-1.21,0-1.81,0-3.62,0-7.24,0-10.86,0-1.64.39-2,2-2h1.3c1.46,0,1.7.18,2.15,1.58,1-.39,1.91-.8,2.88-1.17a5.53,5.53,0,0,1,5.1.4c2.5,1.48,5,3,7.55,4.38C22.71,37.2,23.89,38.4,23.87,40.54ZM5.35,39.06c0,1.37,0,2.74,0,4.12,0,.5.14.63.64.51a6.34,6.34,0,0,1,4.64.72c1.68.91,3.37,1.79,5,2.69a4.47,4.47,0,0,0,3.4.36L34.67,43.3c1.41-.38,2.07-1.33,1.75-2.45s-1.34-1.64-2.74-1.27q-4.93,1.31-9.87,2.65a2.37,2.37,0,0,0-1.12.6,3.7,3.7,0,0,1-4.69.56c-1.49-.84-2.95-1.71-4.43-2.57-.48-.28-1-.58-.65-1.24s.92-.49,1.46-.18c1.41.83,2.82,1.67,4.24,2.48s2.57.52,3.25-.59.33-2.4-1-3.2C18.92,37,17,35.83,15.05,34.7c-4.54-2.67-3.9-2.62-9-.56a1,1,0,0,0-.75,1.1C5.39,36.51,5.35,37.78,5.35,39.06Zm-1.62.17c0-1.94,0-3.89,0-5.83,0-.84-.46-.74-1-.71s-1.17-.29-1.16.72c0,3.88,0,7.77,0,11.65,0,1,.67.67,1.16.71s1,.12,1-.72C3.69,43.11,3.73,41.17,3.73,39.23Z"/><path class="cls-1" d="M36.31,29.68c-1.16-.48-1.37-1.41-1.42-2.53-.13-2.81-.41-5.61-.55-8.42a2.41,2.41,0,0,1,3.24-2.54,2.26,2.26,0,0,1,1.75,2.39c-.18,3.11-.41,6.22-.64,9.33a1.94,1.94,0,0,1-1.53,1.78,2.7,2.7,0,0,1,1.56,1.18,2.15,2.15,0,0,1,.13,1.75,2.19,2.19,0,0,1-2.08,1.46,2.21,2.21,0,0,1-2-1.65C34.47,31.28,34.91,30.5,36.31,29.68Zm1.35-10.84a.84.84,0,0,0-.3-1,1,1,0,0,0-1.06,0c-.49.26-.37.74-.35,1.16q.28,4.16.59,8.31c0,.24-.1.66.25.66s.3-.44.32-.72Q37.39,23,37.66,18.84Zm-.32,13.08a.51.51,0,0,0-.52-.53.45.45,0,0,0-.5.49c0,.36.19.57.54.54A.5.5,0,0,0,37.34,31.92Z"/><path class="cls-1" d="M22,24.29a7.89,7.89,0,1,1,7.9-7.9A7.86,7.86,0,0,1,22,24.29Zm0-1.63a6.26,6.26,0,1,0-6.23-6.27A6.24,6.24,0,0,0,22,22.66Z"/><path class="cls-1" d="M21.94,21.22c-.05,0-.3,0-.34-.14-.32-.82-1.14-1.12-1.69-1.71A.8.8,0,0,1,21,18.25a1.31,1.31,0,0,0,1.09.37c.43,0,.71-.21.73-.66a.65.65,0,0,0-.65-.74c-.16,0-.33,0-.5,0a2.24,2.24,0,0,1-2.06-1.64,2.18,2.18,0,0,1,.79-2.51A2.1,2.1,0,0,0,21.37,12a.7.7,0,0,1,1.27-.06,2.67,2.67,0,0,0,1.14,1.14c.47.33.81.81.43,1.37s-.9.42-1.36,0a.79.79,0,0,0-.43-.23c-.49,0-1.09-.16-1.2.55s.37.81.94.85a2.29,2.29,0,0,1,2.33,2.64A2.12,2.12,0,0,1,24,19.33c-.43.6-1.33.78-1.47,1.66C22.54,21.17,22.27,21.23,21.94,21.22Z"/></g></g></svg>