<svg xmlns="http://www.w3.org/2000/svg" viewBox="0 0 309.21 201.21"><defs><style>.cls-1{isolation:isolate;}.cls-2,.cls-36,.cls-46,.cls-6{fill:#fff;}.cls-2{mix-blend-mode:soft-light;}.cls-3{fill:#e6e6e7;}.cls-21,.cls-3,.cls-49{mix-blend-mode:multiply;}.cls-4{fill:none;stroke:#9b8579;stroke-miterlimit:10;stroke-width:16px;}.cls-5{fill:#e0dace;}.cls-7{fill:#443530;}.cls-8{fill:#5b4a43;}.cls-40,.cls-9{fill:#c9e8f6;}.cls-10,.cls-36{mix-blend-mode:overlay;}.cls-10,.cls-26,.cls-36,.cls-46{opacity:0.5;}.cls-11{fill:#333531;}.cls-12{fill:#eac47b;}.cls-13{fill:#af9e7d;}.cls-14{fill:#fffdfe;}.cls-15{fill:#929596;}.cls-16{fill:#fdce75;}.cls-17{fill:#976536;}.cls-18{fill:#bd8d62;}.cls-19{fill:#786861;}.cls-20{fill:#4b3c32;}.cls-21{fill:#d8d9e2;}.cls-22{fill:#82cde1;}.cls-23{fill:#f5b9ae;}.cls-24{fill:#967e6c;}.cls-25{fill:#424042;}.cls-26,.cls-37{fill:#e27f88;}.cls-27{fill:#6c2910;}.cls-28{fill:#c88a5e;}.cls-29{fill:#cfca9d;}.cls-30{fill:#b2d4e4;}.cls-31{fill:#63c0bc;}.cls-32{fill:#32b5ae;}.cls-33{fill:#50779f;}.cls-34{fill:#c0d5f0;}.cls-35{fill:#9bb9e2;}.cls-38{fill:#333233;}.cls-39{fill:#dedede;}.cls-40{opacity:0.4;}.cls-41{fill:#e8f3fd;}.cls-42{fill:#eb5d2c;}.cls-43{fill:#c03937;}.cls-44{fill:#fbba00;}.cls-45{fill:#a9c7e7;}.cls-47{fill:#b3d9f0;}.cls-48{fill:#bbe1e8;}.cls-49{fill:#b5dddb;}.cls-50{fill:#5a595b;}.cls-51{fill:#383737;}.cls-52{fill:#359fc0;}.cls-53{fill:#81cbe1;}</style></defs><g class="cls-1"><g id="Capa_2" data-name="Capa 2"><g id="Capa_1-2" data-name="Capa 1"><path class="cls-2" d="M309.2,155.81C307.71,177,212,188.1,138,185.51c-61.58-2.16-92.81-3.73-114.64-27.92C-4.18,127-8.44,73.11,16.32,37.45,49.94-11,122-3.63,160.53,10.93a67,67,0,0,1,11.13,5.19c59.82,35.85,60,73.55,121.87,123.1C304.32,147.88,309.55,150.74,309.2,155.81Z"/><path class="cls-3" d="M110.6,195.69a329.43,329.43,0,0,1-40.33,2.49,329.43,329.43,0,0,1-40.33-2.49,329.17,329.17,0,0,1,80.66,0Z"/><path class="cls-3" d="M274.53,189.5a322.11,322.11,0,0,1-85.09,11.71,322,322,0,0,1-85.09-11.71,322.27,322.27,0,0,1,85.09-11.7A322.36,322.36,0,0,1,274.53,189.5Z"/><path class="cls-4" d="M217.28,56.93V86.22H162.45V56.93h54.83M224,50.26H155.77V92.9H224V50.26Z"/><rect class="cls-5" x="159.11" y="53.6" width="61.51" height="35.97"/><path class="cls-6" d="M217.28,56.93V86.22H162.45V56.93h54.83M224,50.26H155.77V92.9H224V50.26Z"/><rect class="cls-7" x="34.54" y="106.69" width="52.13" height="5.45"/><path class="cls-8" d="M86.36,39v72.74H34.54V39H86.36m4-3.75H30.58v80.24H90.32V35.27Z"/><rect class="cls-9" x="36.01" y="40.49" width="48.83" height="64.47"/><g class="cls-10"><polygon class="cls-6" points="60.74 40.49 36.01 100.21 36.01 84.03 54.04 40.49 60.74 40.49"/><polygon class="cls-6" points="67.56 40.49 40.86 104.96 37.51 104.96 64.21 40.49 67.56 40.49"/><polygon class="cls-6" points="84.84 40.49 84.84 53.57 63.56 104.96 56.86 104.96 83.56 40.49 84.84 40.49"/><polygon class="cls-6" points="84.84 61.94 84.84 70.02 70.38 104.96 67.03 104.96 84.84 61.94"/></g><path class="cls-11" d="M34.54,38.75v67.94H86.66V38.75ZM84.85,105H36.35V40.49h48.5Z"/><rect class="cls-11" x="59.62" y="39.61" width="1.83" height="66.34"/><path class="cls-12" d="M98.92,123.63a6.8,6.8,0,0,0-2-.73A3.89,3.89,0,0,0,95,123h0c-1,.33-1.79,1-2.76.82a5.48,5.48,0,0,1-1.64-.53c-.51-.21-.93-.28-2,.27A8,8,0,0,1,84,124l4.59-44.22C70.41,62.35,66.48,35.27,66.48,35.27h30.3l-.19,44.87Z"/><path class="cls-13" d="M90.59,123.3c-.51-.21-.93-.28-2,.27,0,0,1.67-27,1.93-32.46C90.5,95.9,90.57,117.48,90.59,123.3Z"/><path class="cls-13" d="M96.87,122.89A3.88,3.88,0,0,0,95,123h0L93.47,83.74Z"/><path class="cls-13" d="M89.43,79S80,69.46,75.7,52.3c0,0,7.11,18.6,15.28,26.72Z"/><path class="cls-13" d="M95,78.46s-5.86-12.07-4.48-29.71c0,0,.8,19.9,6,30.2Z"/><path class="cls-13" d="M91.42,78.75s-10-12.7-13-33.86c0,0,6.1,23.25,14.85,34.06Z"/><path class="cls-13" d="M93,78.37S84.31,63.83,84.15,41.5c0,0,3.14,24.93,10.73,37.33Z"/><polygon class="cls-14" points="96.98 77.03 87.25 79.24 87.94 82.04 96.98 79.53 96.98 77.03"/><path class="cls-12" d="M22,123.63a6.76,6.76,0,0,1,2-.73,3.93,3.93,0,0,1,1.88.11h0c1.06.33,1.79,1,2.76.82a5.67,5.67,0,0,0,1.65-.53c.5-.21.93-.28,2,.27a8,8,0,0,0,4.59.39L32.27,79.74C50.49,62.35,54.42,35.27,54.42,35.27H24.11l.2,44.87Z"/><path class="cls-13" d="M30.31,123.3c.5-.21.93-.28,2,.27,0,0-1.68-27-1.93-32.46C30.4,95.9,30.33,117.48,30.31,123.3Z"/><path class="cls-13" d="M24,122.89a3.92,3.92,0,0,1,1.88.12h0l1.52-39.27Z"/><path class="cls-13" d="M31.47,79s9.4-9.56,13.73-26.72c0,0-7.11,18.6-15.29,26.72Z"/><path class="cls-13" d="M25.88,78.46s5.87-12.07,4.49-29.71c0,0-.8,19.9-6,30.2Z"/><path class="cls-13" d="M29.48,78.75s10-12.7,13-33.86c0,0-6.11,23.25-14.85,34.06Z"/><path class="cls-13" d="M27.92,78.37s8.66-14.54,8.83-36.87c0,0-3.15,24.93-10.73,37.33Z"/><polygon class="cls-14" points="23.91 77.03 33.65 79.24 32.96 82.04 23.91 79.53 23.91 77.03"/><rect class="cls-11" x="22.86" y="34.62" width="74.61" height="1.15"/><rect class="cls-11" x="269.12" y="113.83" width="1.26" height="20.79" transform="translate(-0.84 1.84) rotate(-0.39)"/><rect class="cls-11" x="265.02" y="133.82" width="9.59" height="1.9" transform="translate(-0.92 1.85) rotate(-0.39)"/><rect class="cls-15" x="265.37" y="116.16" width="0.34" height="13.17" transform="translate(-0.83 1.81) rotate(-0.39)"/><path class="cls-15" d="M265.59,130.42a.68.68,0,1,1,.68-.68A.68.68,0,0,1,265.59,130.42Zm0-1a.34.34,0,0,0-.34.34.35.35,0,0,0,.34.33.32.32,0,0,0,.33-.34A.33.33,0,0,0,265.59,129.41Z"/><polygon class="cls-16" points="279.4 124.84 260.45 124.97 262.4 109.31 277.24 109.21 279.4 124.84"/><path class="cls-3" d="M275.67,124.87l-15.22.1,1.95-15.66,2.37,0S266.63,119.75,275.67,124.87Z"/><path class="cls-3" d="M287.68,176.39a84.83,84.83,0,0,1-36.35,0,84.41,84.41,0,0,1,36.35,0Z"/><polygon class="cls-17" points="257.45 176.39 259.14 176.39 262.12 162.65 258.39 162.65 257.45 176.39"/><polygon class="cls-17" points="282.36 176.39 280.66 176.39 277.69 162.65 281.42 162.65 282.36 176.39"/><path class="cls-17" d="M256.36,135.66v35.6h27.13v-35.6Z"/><rect class="cls-18" x="257.2" y="138.87" width="25.45" height="14.96"/><polygon class="cls-18" points="257.2 156.3 257.2 170.03 282.65 170.03 282.65 156.3 282.65 155.07 257.2 155.07 257.2 156.3"/><rect class="cls-17" x="254.26" y="135.66" width="31.32" height="2.32"/><rect class="cls-17" x="263.36" y="142.09" width="13.13" height="1.43"/><rect class="cls-17" x="263.36" y="158.12" width="13.13" height="1.43"/><path class="cls-19" d="M169,117.33h44a23.39,23.39,0,0,1,23.39,23.39V155a0,0,0,0,1,0,0H145.6a0,0,0,0,1,0,0V140.72A23.39,23.39,0,0,1,169,117.33Z"/><path class="cls-20" d="M169,119.33h44a23.39,23.39,0,0,1,23.39,23.39V157a0,0,0,0,1,0,0H145.6a0,0,0,0,1,0,0V142.72A23.39,23.39,0,0,1,169,119.33Z"/><path class="cls-6" d="M244.7,156.32v30.54H137.92V156.32a8.14,8.14,0,0,1,8.15-8.14h90.49A8.14,8.14,0,0,1,244.7,156.32Z"/><rect class="cls-16" x="148.75" y="147.48" width="84.42" height="18.2"/><rect class="cls-21" x="137.92" y="157.16" width="106.78" height="29.7"/><polygon class="cls-11" points="138.58 199.08 140.28 199.08 146.93 185.27 143.18 185.27 138.58 199.08"/><polygon class="cls-11" points="244.05 199.08 242.34 199.08 235.7 185.27 239.44 185.27 244.05 199.08"/><rect class="cls-19" x="133.73" y="169.07" width="115.16" height="2.5"/><path class="cls-20" d="M133.73,171.44H248.89a0,0,0,0,1,0,0v0a19.7,19.7,0,0,1-19.7,19.7H153.43a19.7,19.7,0,0,1-19.7-19.7v0A0,0,0,0,1,133.73,171.44Z"/><path class="cls-6" d="M184.61,149.35c.07.92-.63,1.05-1.76.87-.73-.11-1.66-.35-2.69-.59h0l-1.33-.28a52.66,52.66,0,0,0-7.4-.35h0c-1.33,0-2.63,0-3.73.12a18.81,18.81,0,0,0-2.24.23c-1.18.22-2.29.52-3.21.72a4.35,4.35,0,0,1-2.15.13.7.7,0,0,1-.42-.52v0a1.53,1.53,0,0,1,0-.31c.07-.82.42-2.39.77-4.18.19-1,.39-2.12.53-3.18a19.87,19.87,0,0,0,.22-3c0-.43,0-.9,0-1.38h0c0-.67,0-1.4,0-2.13,0-1.3-.08-2.64-.17-3.87q-.06-1-.18-1.89a9.18,9.18,0,0,0-.44-2c-.79-2.07.73-1.68,2.43-.82a14.41,14.41,0,0,0,2.86.65,44.74,44.74,0,0,0,4.67.37,56.37,56.37,0,0,0,7-.16,25.43,25.43,0,0,0,2.7-.38,6.65,6.65,0,0,0,1.58-.48,8,8,0,0,1,1.66-.65c.84-.17,1.28.14.77,1.47a9.9,9.9,0,0,0-.44,2c-.1.79-.17,1.7-.23,2.65h0c-.05.8-.08,1.65-.1,2.48s-.05,1.86-.06,2.72h0c0,.49,0,1,0,1.39a18,18,0,0,0,.17,2.66c.09.67.19,1.35.31,2,.22,1.27.48,2.51.69,3.54.15.76.27,1.42.32,1.89C184.6,149.21,184.6,149.29,184.61,149.35Z"/><path class="cls-3" d="M184.61,149.35c.13,1.78-2.56.6-5.78,0a63.66,63.66,0,0,0-13.38,0c-3,.56-5.54,1.62-5.78.33v0a22.83,22.83,0,0,1,2.27-7.1c18.26,2.54,21.34-10.15,21.34-10.15h0c-.13,2.25-.15,4.77-.18,6.6C183,142.44,184.48,147.58,184.61,149.35Z"/><path class="cls-6" d="M223,149.35c.07.92-.63,1.05-1.75.87-.74-.11-1.67-.35-2.69-.59h0l-1.33-.28a52.66,52.66,0,0,0-7.4-.35h0c-1.33,0-2.63,0-3.73.12a19,19,0,0,0-2.24.23c-1.18.22-2.29.52-3.21.72a4.35,4.35,0,0,1-2.15.13.67.67,0,0,1-.41-.52v0a.79.79,0,0,1,0-.31c.06-.82.41-2.39.76-4.18.19-1,.39-2.12.53-3.18a19.87,19.87,0,0,0,.22-3c0-.43,0-.9,0-1.38h0c0-.67,0-1.4,0-2.13,0-1.3-.08-2.64-.17-3.87-.05-.68-.11-1.31-.19-1.89a9.9,9.9,0,0,0-.43-2c-.79-2.07.72-1.68,2.43-.82a14.13,14.13,0,0,0,2.85.65,45,45,0,0,0,4.67.37,56.32,56.32,0,0,0,7-.16,26,26,0,0,0,2.71-.38,6.7,6.7,0,0,0,1.57-.48,8,8,0,0,1,1.66-.65c.84-.17,1.28.14.78,1.47a8.7,8.7,0,0,0-.44,2c-.11.79-.18,1.7-.23,2.65h0c-.06.8-.09,1.65-.11,2.48s-.05,1.86-.06,2.72h0c0,.49,0,1,0,1.39a19.49,19.49,0,0,0,.17,2.66c.09.67.2,1.35.31,2,.22,1.27.48,2.51.69,3.54.15.76.27,1.42.32,1.89A1.65,1.65,0,0,1,223,149.35Z"/><path class="cls-3" d="M223,149.35c.13,1.78-2.56.6-5.78,0a63.66,63.66,0,0,0-13.38,0c-3,.56-5.54,1.62-5.77.33v0a22.64,22.64,0,0,1,2.26-7.1c18.27,2.54,21.34-10.15,21.34-10.15h0c-.14,2.25-.16,4.77-.19,6.6C221.38,142.44,222.83,147.58,223,149.35Z"/><path class="cls-22" d="M157.84,116.43s-2.42,1.45-1.1,1.73,5-.45,7.88,0,7.3.56,6.92.07c-1.69-2.19-8.61-2.84-8.61-2.84Z"/><path class="cls-6" d="M157.45,117.27l-.26-2.33a28.73,28.73,0,0,1,3.61-.6c1.6.1,6,2.53,6,2.53s.19.62-1.35.4-3.72-.57-3.72-.57,1,.37.81.88C162.42,117.89,157.45,117.27,157.45,117.27Z"/><polygon class="cls-23" points="157.45 117.27 157.45 114.89 143.23 115.63 141.93 121.37 157.45 117.27"/><path class="cls-24" d="M155.62,118.44l.07-3.65-12.46.84s-2.44,5.43-1.42,6.27S155.62,118.44,155.62,118.44Z"/><path class="cls-24" d="M143.23,115.63l-9.88-15L130,110.24a129.29,129.29,0,0,0,11.84,11.66Z"/><path class="cls-23" d="M117.71,151.73l-.23,6.12-.09,2.31-.2,5.12-2,18.39c-1.92.21-2.47-.08-4.4,0l-.09-7.27h0l0-2.92h0l-.16-13.3-.26-4.72-.16-2.8,0-.62-.26-4.73-.1-1.8h0Z"/><path class="cls-23" d="M121,186.46s-4.52-2.94-5.82-3.49-4.19.19-4.19.19l-.42,3.08s10,2.88,11.74,2.41S121,186.46,121,186.46Z"/><path class="cls-25" d="M110.49,182.51a14.54,14.54,0,0,0-.72,4c.17,1.11.44,2.42.44,2.42l13.64.57s.23-2.56-3.1-3.68c0,0-1.94,1.83-3.55,1.22C113.2,186.17,113,182.63,110.49,182.51Z"/><path class="cls-26" d="M112.55,147a19.17,19.17,0,0,0-2.78.28L110,152l0,.62.16,2.8.26,4.72.16,13.3.62-12.22v-8.66a41,41,0,0,0,6.44-.85S112.93,147.18,112.55,147Z"/><path class="cls-23" d="M130.28,154.38,129.21,160l-.47,2.47-6.55,23c-1.92,0-2.44,0-4.37,0l1.41-8.25.21-1.22h0L122,161.2s0-2.31.11-5.76c0-1.5.07-3.22.11-5.06.1-4.4,9.12-1.33,9.12-1.33Z"/><path class="cls-26" d="M122.18,150.38c1.49-.23,6-.91,9.12-1.33l-1,5.33a61.38,61.38,0,0,1-7-.34l-.34,7.32L119.44,176,122,161.2s0-2.31.11-5.76C122.1,153.94,122.14,152.22,122.18,150.38Z"/><path class="cls-23" d="M128.11,188.15s-4.52-2.94-5.83-3.49-4.18.19-4.18.19l-.43,3.09s10.06,2.87,11.75,2.41S128.11,188.15,128.11,188.15Z"/><path class="cls-25" d="M117.6,184.2a14.62,14.62,0,0,0-.72,4c.17,1.11.44,2.43.44,2.43l13.64.57s.23-2.56-3.1-3.68c0,0-1.94,1.83-3.55,1.21C120.31,187.87,120.13,184.32,117.6,184.2Z"/><path class="cls-27" d="M131.67,153s-.5.13-1.41.29h0a51.21,51.21,0,0,1-21.15-1.32l-.08-.56,0-.17c0-.38-.12-.91-.19-1.57,0-.14,0-.3,0-.45s0-.22,0-.33c-.47-4.75-.86-14.09,2.07-21.42a.1.1,0,0,1,0-.05h0a19.87,19.87,0,0,1,.87-1.93l.21,0,2.77.52,12.52,2.57,3.13.64Z"/><polygon class="cls-23" points="134.62 87.97 135.32 92.08 134.37 93.94 133.03 96.58 132.38 96.39 126.4 94.67 129.24 87.97 129.47 88.02 134.62 87.97"/><polygon class="cls-23" points="122.88 89.34 122.72 89.09 122.8 88.61 122.88 89.34"/><path class="cls-26" d="M135.18,92.2l-.81,1.74-1,1.91c-1.53-2.46-1.29-5.18-1.29-8.12Z"/><path class="cls-28" d="M137.7,108.9c-.13.42-2.85,6.06-4.08,8.3a31.46,31.46,0,0,0-1.24,5.47c-.72,4-1.4,8.68-1.4,8.68l-1,0c-3.44,0-15.13-.29-18.72-6.29A59.55,59.55,0,0,1,120,114.23c1.51-3.65.69-8.62.76-11.37.17-5.8,5.57-10,5.57-10s.94-1.12,4.79.69C134.24,95.05,138.72,105.82,137.7,108.9Z"/><path class="cls-29" d="M134.82,119.78c-.64,1.37-1.17,2.51-1.41,3.22a23.17,23.17,0,0,0-.62,2.26h0c-2.2,9.76-.22,24.79-.22,24.79s-12.25-9.09-11.68-22l.47-4.89-6-3.82.74-.91.59.42s8.24,6.61,13.18-.19c2.19-3,3.73-8.62,3.62-18.59,0-1.32-.05-2.72-.12-4.19l.8,1.25s-.22,5.29,3.36,8.38C140.32,107.87,137,115.15,134.82,119.78Z"/><path class="cls-3" d="M130.26,153.25a51.21,51.21,0,0,1-21.15-1.32l-.08-.56,0-.17c0-.38-.12-.91-.19-1.57,0-.14,0-.3,0-.45s0-.22,0-.33c-.47-4.75-.86-14.09,2.07-21.42a.1.1,0,0,1,0-.05h0c.09-.26.77-1.76.77-1.76s.34,1.89.45,3.28C112.67,136.18,115.83,149.42,130.26,153.25Z"/><path class="cls-3" d="M134.82,119.78c-.64,1.37-1.17,2.51-1.41,3.22a23.17,23.17,0,0,0-.62,2.26c0-.09-1.4-2.94-2.89-6.63-1.65-4.08-3.46-9.19-3.81-12.65-.47-4.69,2.27-7.42,4.59-7.76,1.23-.18,2.19.8,2.84,1.82a10,10,0,0,1,1,2.07Z"/><path class="cls-30" d="M153.69,111.36l-3.11-1.19s-8.65,6.39-5.24,11.19l4.68,1.78s3.28-1.2,2.65-6C152.36,114.91,155.38,113.89,153.69,111.36Z"/><path class="cls-31" d="M145.49,117.17a6,6,0,0,0,.24,3.69l4,1.68c.63-.32,2.8-1.69,2.32-5.28-.16-1.17,0-1.18,0-1.18a39.79,39.79,0,0,0-4.56,1.41A1.67,1.67,0,0,1,145.49,117.17Z"/><path class="cls-32" d="M145.49,117.17s.55,1.25,4.72-.22a12.51,12.51,0,0,0,1.88-.87s-.86-1.07-3.6.17C146.09,117.33,145.49,117.17,145.49,117.17Z"/><rect class="cls-33" x="150.6" y="110.06" width="3.33" height="0.73" transform="translate(49.17 -46.9) rotate(20.81)"/><path class="cls-33" d="M155.05,109.51a4.39,4.39,0,0,0-.09,3.7,3.59,3.59,0,0,1-.45-3.81Z"/><path class="cls-34" d="M150.84,109.49l2.87,1.1c.31-1.46,1.93-.85,1.93-.85l.37-1-3.89-1.47a1.89,1.89,0,0,0-.77,0,1.06,1.06,0,0,0-.78.66A1.5,1.5,0,0,0,150.84,109.49Z"/><path class="cls-35" d="M150.84,109.49l2.87,1.1s-3.21-1.89-2.36-3.29a1.06,1.06,0,0,0-.78.66A1.5,1.5,0,0,0,150.84,109.49Z"/><rect class="cls-33" x="155.81" y="108.82" width="0.57" height="1.05" transform="translate(49.04 -48.33) rotate(20.82)"/><path class="cls-36" d="M145.29,121c0-.19-2.36-3.62,5.15-10.27l.87.29c-7.31,6.14-5.41,9.74-5.41,9.75l3.93,1.88Z"/><path class="cls-36" d="M152.93,111.63l.68.28a2.44,2.44,0,0,1-.2,2.16A3.53,3.53,0,0,0,152.93,111.63Z"/><path class="cls-36" d="M151,116.46l.68.27s.62,4-2,5.28C149.66,122,152.22,119,151,116.46Z"/><path class="cls-6" d="M156.74,109.59a5.41,5.41,0,0,1,.58.12l-.11.25C157.05,109.83,156.89,109.72,156.74,109.59Z"/><path class="cls-6" d="M158.53,110.13c.4.17.78.35,1.16.55l-.24.5c-.39-.17-.78-.35-1.15-.55Z"/><path class="cls-6" d="M160.78,111.35c.15.13.32.24.47.37a5.6,5.6,0,0,1-.59-.12Z"/><path class="cls-6" d="M156.53,110a5.45,5.45,0,0,1,.47.37l-.21.17A5.36,5.36,0,0,1,156.53,110Z"/><path class="cls-6" d="M157.9,111.23c.28.32.55.65.8,1l-.43.35c-.28-.32-.55-.66-.8-1Z"/><path class="cls-6" d="M159.38,113.3a5.36,5.36,0,0,1,.26.54,5.45,5.45,0,0,1-.47-.37Z"/><path class="cls-6" d="M157.07,109.15c.2,0,.4,0,.6,0l0,.26A5.38,5.38,0,0,1,157.07,109.15Z"/><path class="cls-6" d="M159,109.25a11.06,11.06,0,0,1,1.25.25l-.11.54c-.42-.07-.84-.15-1.25-.26Z"/><path class="cls-6" d="M161.42,109.89c.18.08.36.14.54.24a4,4,0,0,1-.6,0Z"/><path class="cls-23" d="M146.33,111.61c-1.71,1.26-8.36,4.3-12.28,6.92l1.67,3.86a29.22,29.22,0,0,0,12.53-8.55A5.65,5.65,0,0,1,146.33,111.61Z"/><path class="cls-28" d="M144.5,112.28c-2.72,1.49-7.57,3.76-10.49,5.71l1.06,5.14c3.51-1.34,8.39-3.3,12.5-7.43C146.65,114.88,145.39,113.14,144.5,112.28Z"/><path class="cls-6" d="M155,112.69c-.67.12-3.08.44-3.27.48s2.84.29,3.1.33.65.49-.18.67a17,17,0,0,1-3.23,0,11.85,11.85,0,0,1,1.89.63c.21.18.47.5,0,.55a19,19,0,0,1-2.6-.38c-.14,0-2.47.26-3.52-.55-.6-.11-.95-2.33-.81-2.82a4.83,4.83,0,0,1,1.83-1.7c.66-.23,1.61-.82,2.33-1.13a1.49,1.49,0,0,0,.35.71l-.23.61a6.73,6.73,0,0,1-.61.33,5.91,5.91,0,0,0,1.13.34c.12,0,.46,0,.88,0s1.19-.1,1.74-.12a3,3,0,0,1,1,.06c.52.2.31.49-.53.74s-2.86.56-2.88.59a19.63,19.63,0,0,0,2.5,0,5.19,5.19,0,0,1,2,0C156.13,112.11,155.63,112.56,155,112.69Z"/><path class="cls-28" d="M135.14,104.29c-1.43-8.57-6.85-7.67-6.86-.48.47,6.32,5.15,19.19,6.79,19.32l1.8-4.73Z"/><polygon class="cls-3" points="134.96 106.89 134.53 102.48 135.6 107.65 136.63 116.46 136.16 117.37 134.96 106.89"/><path class="cls-23" d="M136.28,96.5A11.7,11.7,0,0,1,133.92,95a52.69,52.69,0,0,1-1.84-6.71c0-1-2.59-8.15-2.59-8.15,3.61-6.32,9-4.35,9-4.35h0c3.55.84,6.33,5.83,5.34,11C142.48,92.38,139.34,97.8,136.28,96.5Z"/><path class="cls-25" d="M141.05,75.76c-3.85-2.52-9.89-1.94-12.43,2.57-.1,3.88-5.9,8.52-.61,12.55.92.71,5.59-2.33,6.86-3.89,1.07.56,6.2-5.12,6.2-5.12l-3.51,5.53s10.32-5.64,9.95-8.66C147.25,76.63,145.06,75.57,141.05,75.76Z"/><path class="cls-23" d="M142.67,92.51h.05c.2,0,1-.16,1.11-1.38a5.27,5.27,0,0,0-.48-2.82s0-.42,0-.4a.13.13,0,0,0-.1.16s-1.47,2.59-1.55,2.6a.76.76,0,0,0-.29.39A1.56,1.56,0,0,0,142.67,92.51Z"/><path class="cls-23" d="M134.86,88.15l-.26.87c-2.14.52-3.61-1.68-3.75-3.38-.06-.85.21-1.57.91-1.76,1.48-.38,2.41,1.12,2.83,2A4.7,4.7,0,0,1,134.86,88.15Z"/><path class="cls-37" d="M132.24,85.38A2.89,2.89,0,0,1,134.4,87a.12.12,0,0,1-.05.16h-.07a.1.1,0,0,1-.09-.06,3.31,3.31,0,0,0-.78-.94c-.53.27-.36,1.14-.36,1.15a.12.12,0,0,1-.09.14h0a.12.12,0,0,1-.11-.09s-.18-1,.39-1.35a2,2,0,0,0-.94-.35h0a.13.13,0,0,1-.11-.13A.12.12,0,0,1,132.24,85.38Z"/><path class="cls-38" d="M142.19,87.91c.21-.65.25-1.22.08-1.27l-.83-.24s.05.29.51.5a3.64,3.64,0,0,0-.37.81c-.21.64-.25,1.21-.08,1.27S142,88.55,142.19,87.91Z"/><path class="cls-6" d="M133.34,92.32l.24.37a3.32,3.32,0,0,0,3-.76c1-1.15.39-3.07.37-3.15h0l-2.27-2.64.06.25,2.06,2.44c0,.18.55,2-.35,3-.54.63-1.6.79-2.93.64l-1.1-3.82-.23-.2Z"/><path class="cls-6" d="M133.34,92.32s1.73,4.86,4.76,4.78a6.68,6.68,0,0,0,2.44-.94l.26-.17a7.53,7.53,0,0,0,1.79-1.82,1.07,1.07,0,0,0,.15-.22,7.61,7.61,0,0,0,.87-1.7,1.17,1.17,0,0,0,.09-.24c.42-1.25.52-1.6.14-1.78-1-.49-7.49-2.14-7.49-2.14s.18,2.17-.43,2.89A7.45,7.45,0,0,1,133.34,92.32Z"/><path class="cls-39" d="M139.67,91.26c.61.16,1.22.29,1.83.43s1.22.26,1.81.44l.2.07a.31.31,0,0,1,.1,0,1.17,1.17,0,0,0,.09-.24.33.33,0,0,0-.1-.06l-.24-.08-.53-.15c-.44-.1-.88-.17-1.32-.24C140.9,91.38,140.28,91.3,139.67,91.26Z"/><path class="cls-39" d="M137.86,93.39a13.36,13.36,0,0,0,1.11,1.4A8,8,0,0,0,140.32,96l.22.13.26-.17a1.83,1.83,0,0,1-.34-.18,11,11,0,0,1-1.33-1.16Z"/><path class="cls-39" d="M139.37,92.94c.5.22,1,.42,1.52.62l1.54.56.16,0a1.07,1.07,0,0,0,.15-.22l-.24-.09c-.51-.18-1-.35-1.55-.5S139.9,93.06,139.37,92.94Z"/><path class="cls-25" d="M139.74,86c-.16-.14.73-1.35,1.8-1.39a2.6,2.6,0,0,1,1.91.81.38.38,0,0,1,0,.54.39.39,0,0,1-.54,0,1.88,1.88,0,0,0-1.37-.61A6.71,6.71,0,0,0,139.74,86Z"/><path class="cls-25" d="M131,76.33a4.35,4.35,0,0,1-5,2.19c-1.66-.64-1.72-2.85-1.08-4.51a3.23,3.23,0,0,1,6,2.32Z"/><polygon class="cls-34" points="140.19 83.27 127.79 80.95 128.47 79.35 141.19 81.72 140.19 83.27"/><path class="cls-40" d="M140.48,81.59l-3.12,18.08s3.61,1.75,6.14,1.13l3.61-19.21Z"/><path class="cls-30" d="M62.05,135.64a3.08,3.08,0,0,0,3.34,3,3.28,3.28,0,0,0,2.9-1.45h0a3.46,3.46,0,0,0,.42-1.59c.16-3.24-2.27-2.84-2.27-5.08v-1H64.32v1C64.32,132.8,61.9,132.4,62.05,135.64Z"/><path class="cls-31" d="M68.39,135.07a5.22,5.22,0,0,1,0,.57c-.15,2.76-3,2.58-3,2.58s-2.87.18-3-2.58a4,4,0,0,1,0-.61C64.38,135.13,66.39,135.12,68.39,135.07Z"/><path class="cls-36" d="M63.82,137.66a2.72,2.72,0,0,0,1,.27,3.91,3.91,0,0,1-1.59-3.08,7.61,7.61,0,0,1,1.5-2.89l-.84.5a3.39,3.39,0,0,0-.1,5.2Z"/><rect class="cls-33" x="64.02" y="129.69" width="2.71" height="0.59" transform="translate(129.6 260.53) rotate(-179.49)"/><path class="cls-33" d="M63.54,128.47a3.55,3.55,0,0,1-1,2.82A2.89,2.89,0,0,0,64,128.54Z"/><path class="cls-41" d="M66.73,129.7l-2.5,0c.2-1.2-1.21-1.21-1.21-1.21v-.86l3.38,0a1.8,1.8,0,0,1,.58.24.87.87,0,0,1,.4.73A1.24,1.24,0,0,1,66.73,129.7Z"/><path class="cls-3" d="M66.73,129.7l-2.5,0s3-.48,2.76-1.8a.87.87,0,0,1,.4.73A1.24,1.24,0,0,1,66.73,129.7Z"/><rect class="cls-33" x="62.57" y="127.61" width="0.46" height="0.85" transform="translate(124.46 256.61) rotate(-179.49)"/><path class="cls-42" d="M60.64,125.12a1.56,1.56,0,0,0-1.5-1.16H54.2a1.54,1.54,0,0,0-1.14.51l-3.7,4.08a1.56,1.56,0,0,0-.4,1V137a1.54,1.54,0,0,0,1.55,1.54h8.63A1.54,1.54,0,0,0,60.69,137V125.51A1.67,1.67,0,0,0,60.64,125.12Zm-9.35,3.23,1.85-2.06a.85.85,0,0,1,1.2-.07.84.84,0,0,1,.06,1.2l-1.85,2.06a.85.85,0,0,1-1.48-.56A.87.87,0,0,1,51.29,128.35Z"/><rect class="cls-43" x="55.35" y="122.47" width="3.79" height="1.49"/><rect class="cls-44" x="48.96" y="131.85" width="11.72" height="3.09"/><path class="cls-3" d="M60.69,125.51V137a1.54,1.54,0,0,1-1.55,1.54H50.51c9.12-3.27,10.13-13.45,10.13-13.45A1.67,1.67,0,0,1,60.69,125.51Z"/><path class="cls-3" d="M59.14,122.47V124H55.35S58.93,123.38,59.14,122.47Z"/><rect class="cls-45" x="70.26" y="119.87" width="5.33" height="18.7"/><rect class="cls-41" x="70.27" y="127.61" width="5.32" height="4.24"/><rect class="cls-46" x="71.39" y="119.87" width="0.57" height="18.36"/><rect class="cls-33" x="70.26" y="124.63" width="5.34" height="0.49"/><rect class="cls-3" x="74.57" y="119.87" width="1.02" height="18.7"/><path class="cls-41" d="M80.57,130.12v1.15H78v-1.15a.34.34,0,0,1,.34-.34h1.95A.33.33,0,0,1,80.57,130.12Z"/><rect class="cls-47" x="78.24" y="130.64" width="0.18" height="0.63"/><rect class="cls-47" x="78.72" y="130.64" width="0.18" height="0.63"/><rect class="cls-47" x="79.21" y="130.64" width="0.18" height="0.63"/><rect class="cls-47" x="79.69" y="130.64" width="0.18" height="0.63"/><rect class="cls-47" x="80.18" y="130.64" width="0.18" height="0.63"/><path class="cls-44" d="M81.71,132.42v5a1.14,1.14,0,0,1-1.15,1.15H78.12a1.16,1.16,0,0,1-.82-.34,1.19,1.19,0,0,1-.33-.81v-5a1.15,1.15,0,0,1,1.15-1.15h2.44a1.2,1.2,0,0,1,.57.14A1.18,1.18,0,0,1,81.71,132.42Z"/><rect class="cls-41" x="76.97" y="133.38" width="4.74" height="2.45"/><path class="cls-3" d="M81.71,132.42v5a1.14,1.14,0,0,1-1.15,1.15H78.12a1.16,1.16,0,0,1-.82-.34c3.49-1.72,3.82-6.82,3.82-6.82h0A1.18,1.18,0,0,1,81.71,132.42Z"/><path class="cls-3" d="M78,131.27h0Z"/><path class="cls-3" d="M80.57,130.12v1.15h-2.1a1.83,1.83,0,0,0,1.85-1.48A.33.33,0,0,1,80.57,130.12Z"/><path class="cls-48" d="M93.67,136.49a2.12,2.12,0,0,1-1.11,2,8.19,8.19,0,0,1-2.86.16,5.17,5.17,0,0,1-2.11-.21c-1-.38-1.12-1-.28-2.28l0-.06h0a4,4,0,0,0,.45-.95c.21-.46.52-.76,1.9-.76a5.13,5.13,0,0,1,3.47,1.1h0A1.47,1.47,0,0,1,93.67,136.49Z"/><path class="cls-48" d="M93.18,135.46l-.74-.13a7.77,7.77,0,0,0-5.09.74h0a6.66,6.66,0,0,0-1.26.89L86,137a13.65,13.65,0,0,1-1.64,1.51,4.06,4.06,0,0,1-2.08.16l-.38-.07-.21-.05c2.2-.51,2.62-2.62,5.06-3.88,4.38-2.26,6.3.64,6.4.77Z"/><path class="cls-49" d="M92.44,137.48c-1.59.36-4.07.89-4.26,0s1.33-2,2.35-1.79.16,1.23.16,1.23-.77-1.2-1.46-.25.93,1.08,2.92.43c.49-.16.21-1.53-.69-1.67a6.32,6.32,0,0,0-4.15.71l0-.06a6.66,6.66,0,0,0-1.26.89L86,137c-.83.7-1.37,1.38-1.64,1.5a4.83,4.83,0,0,1-2.08.17l-.52-.06h.14c.53-.05,2.6-.42,5.16-3a2.35,2.35,0,0,1,.72-.49,5.86,5.86,0,0,1,4.28,0,1.91,1.91,0,0,1,.36.25C93.23,136,93.11,137.33,92.44,137.48Z"/><path class="cls-48" d="M85,132.58c0,1.18,1.72,2.16,3.92,2.2s4-.89,4-2.07-1.72-2.17-3.91-2.2S85,131.4,85,132.58Z"/><path class="cls-49" d="M88.12,131.82c-1,.18-.19,1.24-.19,1.24s.8-1.19,1.47-.24-1,1.07-2.93.39c-.49-.16-.18-1.53.73-1.66,2-.28,5.85.51,3.08,2.42,0,0,2.75-.66,1.07-2.32-1-1-4.21-.72-4.76-.46-1.19.58-1.17,2.21-.42,2.4,1.58.38,4,.95,4.26.07S89.15,131.65,88.12,131.82Z"/><rect class="cls-50" x="49.18" y="187.93" width="2.42" height="3.87"/><ellipse class="cls-51" cx="50.41" cy="193.08" rx="3.54" ry="3.59"/><path class="cls-50" d="M52.11,193.08a1.7,1.7,0,1,1-1.7-1.72A1.71,1.71,0,0,1,52.11,193.08Z"/><rect class="cls-50" x="89.16" y="187.93" width="2.42" height="3.87"/><ellipse class="cls-51" cx="90.39" cy="193.08" rx="3.54" ry="3.59"/><path class="cls-50" d="M92.09,193.08a1.7,1.7,0,1,1-1.7-1.72A1.71,1.71,0,0,1,92.09,193.08Z"/><rect class="cls-52" x="45.7" y="139.69" width="49.1" height="47.65"/><rect class="cls-53" x="47.17" y="141.43" width="46.16" height="10.25"/><rect class="cls-53" x="71.31" y="155.94" width="22.03" height="30.38"/><rect class="cls-53" x="47.17" y="155.94" width="22.2" height="30.38"/><rect class="cls-41" x="65.46" y="145.95" width="9.58" height="1.77"/><rect class="cls-41" x="62.03" y="169.37" width="9.58" height="1.77" transform="translate(237.07 103.44) rotate(90)"/><rect class="cls-41" x="68.98" y="169.37" width="9.58" height="1.77" transform="translate(244.03 96.48) rotate(90)"/><path class="cls-41" d="M45.8,190.25h-2v-66a1.54,1.54,0,0,1,1-1.58h0c.57-.09,1,.48,1,1.27Z"/><rect class="cls-41" x="69.58" y="113.39" width="1.37" height="51.73" transform="translate(209.53 68.99) rotate(90)"/><rect class="cls-41" x="69.58" y="127.91" width="1.37" height="51.73" transform="translate(224.04 83.5) rotate(90)"/><rect class="cls-41" x="69.58" y="162.2" width="1.37" height="51.73" transform="translate(258.34 117.8) rotate(90)"/><rect class="cls-41" x="94.69" y="136.07" width="1.96" height="53.69"/><rect class="cls-3" x="45.8" y="138.57" width="2.01" height="50.18"/><rect class="cls-3" x="92.68" y="138.57" width="2.01" height="50.18"/></g></g></g></svg>