<svg xmlns="http://www.w3.org/2000/svg" viewBox="0 0 48.68 49.09"><defs><style>.cls-1{fill:#c98b5f;}</style></defs><g id="Capa_2" data-name="Capa 2"><g id="Capa_1-2" data-name="Capa 1"><path class="cls-1" d="M8.46,29.24c1.24-.51,2.43-1,3.61-1.49a6.73,6.73,0,0,1,6.57.45c3.23,1.95,6.51,3.83,9.79,5.71a4.69,4.69,0,0,1,2.7,4.37c0,.86.54.43.84.35q5.52-1.46,11-3a4.36,4.36,0,0,1,3.89.48,4.14,4.14,0,0,1-1.34,7.42c-3,.83-6,1.62-9.07,2.43-3.46.93-6.92,1.85-10.38,2.8a7.49,7.49,0,0,1-5.8-.67C18.21,47,16.08,45.88,14,44.76a6,6,0,0,0-4.88-.4c-.43.14-.68.3-.69.84,0,1.53-.72,2.17-2.23,2.19-1.32,0-2.65,0-4,0-1.5,0-2.18-.7-2.18-2.22q0-8.34,0-16.69c0-1.59.64-2.22,2.25-2.23,1.26,0,2.52,0,3.78,0,1.73,0,2.34.62,2.38,2.33C8.42,28.76,8.44,29,8.46,29.24Zm0,7.55c0,1.78,0,3.56,0,5.34,0,.49,0,.82.67.61a7.42,7.42,0,0,1,6,.81c2,1.09,4.06,2.14,6.08,3.22a5.47,5.47,0,0,0,4.12.6q9.91-2.64,19.82-5.32a2.56,2.56,0,0,0,2-3.26,2.6,2.6,0,0,0-3.35-1.65L31,40.52a2,2,0,0,0-1,.56,4.37,4.37,0,0,1-5.72.78c-1.83-1-3.64-2.11-5.46-3.16-.51-.29-1-.63-.62-1.28s.92-.37,1.42-.08c1.78,1,3.57,2.1,5.36,3.12a2.93,2.93,0,1,0,2.95-5q-5.26-3.09-10.55-6.14A4.32,4.32,0,0,0,14,28.79c-1.81.49-3.47,1.38-5.22,2-.41.16-.33.51-.33.82C8.41,33.36,8.42,35.07,8.42,36.79Zm-6.84.09c0,2.69,0,5.37,0,8.06,0,.59.13.9.8.88,1.23,0,2.46,0,3.69,0,.56,0,.8-.19.8-.8,0-5.46,0-10.93,0-16.4,0-.67-.26-.83-.86-.81-1.17,0-2.33.05-3.5,0-.72,0-.95.2-.94.93C1.6,31.45,1.58,34.16,1.58,36.88Z"/><path class="cls-1" d="M27.38,22.93c.46-.71.9-1.42,1.37-2.11.2-.31,0-.54-.09-.8a6.12,6.12,0,0,1,1.16-7.09c2.31-2.63,5.41-3.79,8.72-4.48A29.75,29.75,0,0,1,45,7.88c.51,0,1,0,1.19.61s-.25.81-.62,1.07a5.76,5.76,0,0,0-1.67,2.23c-.91,1.79-1.49,3.71-2.26,5.55a15.59,15.59,0,0,1-1.91,3.58,5.54,5.54,0,0,1-6.51,2.14A11.41,11.41,0,0,1,30.65,22c-.41-.23-.64-.27-.93.18a14.75,14.75,0,0,0-2.47,7,4.91,4.91,0,0,1-.06.67.74.74,0,0,1-.85.63.68.68,0,0,1-.67-.79,6.54,6.54,0,0,1,.11-1.54,9.28,9.28,0,0,0-.08-5,33,33,0,0,0-2.31-7c-.22-.47-.43-.61-1-.39A8.76,8.76,0,0,1,20,16.4,5.64,5.64,0,0,1,13.69,13a30.22,30.22,0,0,1-2-6.06c-.25-.91-.5-1.81-.8-2.7A5.89,5.89,0,0,0,9.18,1.4.75.75,0,0,1,8.87.55.72.72,0,0,1,9.6,0c5.51.5,10.77,1.66,14.64,6.07a6.24,6.24,0,0,1,.5,8.25.65.65,0,0,0-.12.79,34.26,34.26,0,0,1,2.63,7.67S27.32,22.86,27.38,22.93ZM11.67,1.81c.41,1.11.81,2.13,1.14,3.17s.55,2.12.85,3.17a34.64,34.64,0,0,0,1.06,3.32c1.34,3.32,3.57,4.22,6.93,2.92.56-.21.57-.42.25-.88a12.27,12.27,0,0,0-4-4c-.47-.26-.93-.59-.56-1.21s.86-.41,1.35-.14a12.38,12.38,0,0,1,3.74,3.32c.42.52.8,1.07,1.22,1.64a3.62,3.62,0,0,0,.29-.37c1.05-1.87.67-4-1-5.95a15,15,0,0,0-6.64-4A20.64,20.64,0,0,0,11.67,1.81ZM30.15,19.38a6.11,6.11,0,0,1,.62-.94,15.32,15.32,0,0,1,4.76-3.27c.56-.23,1.16-.51,1.48.26s-.3.94-.82,1.16A14,14,0,0,0,31.49,20c-.23.24-.49.44,0,.7,3.42,1.81,5.79,1.69,7.72-1.86.43-.8.78-1.63,1.13-2.47a41.54,41.54,0,0,1,3-6.83,21.14,21.14,0,0,0-9.51,2.24,8.39,8.39,0,0,0-3.76,3.53A4.2,4.2,0,0,0,30.15,19.38Z"/></g></g></svg>