<svg xmlns="http://www.w3.org/2000/svg" viewBox="0 0 49.12 49.1"><defs><style>.cls-1{fill:#c98b5f;}</style></defs><g id="Capa_2" data-name="Capa 2"><g id="Capa_1-2" data-name="Capa 1"><path class="cls-1" d="M39.6,34.82c0,2.6,0,5,0,7.34,0,.5.2.63.64.6s.93,0,1.39,0c.86,0,1.2.36,1.15,1.19a9.37,9.37,0,0,1-.18,2.36,3.89,3.89,0,0,1-3.69,2.78q-14.34,0-28.69,0a3.9,3.9,0,0,1-3.86-4.15q0-16.32,0-32.65c0-1-.29-1.27-1.25-1.21-1.32.08-2.64,0-4,0C.3,11.12,0,10.74,0,9.91,0,8,0,6.08,0,4.17A4,4,0,0,1,4.16,0H33.85A5.53,5.53,0,0,1,39.6,5.72c0,4.52,0,9,0,13.56A2.13,2.13,0,0,0,40.31,21c1.22,1.16,2.38,2.38,3.58,3.55a.94.94,0,0,1,0,1.59c-.6.56-1.18,1.16-1.76,1.75s-.88.94-1.58.35c-.27-.22-.4.08-.56.21s-.15.4,0,.58.33.32.49.49c2.66,2.66,5.32,5.31,8,8,.83.83.82,1,0,1.85L47.3,40.53c-.89.88-1,.89-1.92,0q-2.46-2.44-4.9-4.9ZM7.12,1.59A5.11,5.11,0,0,1,7.94,5q0,19.7,0,39.38c0,2,.83,3.12,2.33,3.15s2.41-1.12,2.42-3.16c0-1.55,0-1.59,1.63-1.59,7.55,0,15.1,0,22.66,0,.89,0,1.08-.25,1.06-1.09-.05-2.61-.06-5.22,0-7.82,0-1-.75-1.31-1.24-1.88-.15-.17-.31,0-.42.08s-.44.3-.21.57c.59.7.1,1.13-.36,1.58-.61.6-1.22,1.2-1.82,1.82a.87.87,0,0,1-1.44,0L27.3,30.79a.84.84,0,0,1,0-1.37c.73-.71,1.45-1.44,2.17-2.16.31-.31.68-.51,1-.21s.62.13.89-.15c1.06-1.08,2.14-2.14,3.21-3.22.35-.35.87-.63.32-1.27-.23-.26,0-.63.25-.88.77-.76,1.49-1.59,2.33-2.27A1.26,1.26,0,0,0,38,18.13q0-6,0-12.07c0-2.88-1.59-4.47-4.45-4.47H7.12ZM13.55,47.5H34.64c1.35,0,2.71,0,4.06,0a2.45,2.45,0,0,0,2.47-2.1c.12-.77-.06-1.08-.94-1.08-8.34,0-16.68,0-25,0a2.67,2.67,0,0,1-.4,0c-.43-.05-.6.14-.56.57A4.63,4.63,0,0,1,13.55,47.5ZM6.34,6.4c0-.83,0-1.65,0-2.47A2.39,2.39,0,0,0,4,1.59,2.37,2.37,0,0,0,1.61,4c0,1.65,0,3.29,0,4.94,0,.47.15.62.62.61,1.12,0,2.24,0,3.35,0,.7,0,.83-.25.79-.86S6.34,7.15,6.34,6.4ZM34.76,31.22c.27,0,.38-.18.51-.31.59-.57,1.19-1.14,1.75-1.74.71-.77,2.09-1.45,2-2.27s-1.38-1.56-2.11-2.36c-.35-.39-.58-.37-.94,0-1.14,1.18-2.31,2.35-3.49,3.49-.36.35-.4.58,0,.94.68.62,1.31,1.3,2,1.94C34.54,31,34.66,31.13,34.76,31.22Zm12.32,7.12c-.09-.11-.2-.24-.31-.35-2.58-2.59-5.18-5.17-7.75-7.77-.36-.36-.56-.26-.87.05s-.35.47,0,.8c2.62,2.59,5.23,5.21,7.84,7.82.15.15.31.41.56.16S47,38.69,47.08,38.34Zm-4.67-13c-.19-.21-.32-.39-.47-.55-1.14-1.14-2.31-2.24-3.4-3.43-.53-.58-.79-.25-1.15.13s-.75.59-.15,1.15c1.17,1.06,2.24,2.21,3.37,3.32.19.18.35.61.68.41A8.07,8.07,0,0,0,42.41,25.39ZM30.07,28.87A8.11,8.11,0,0,0,29,30c-.24.34.2.5.38.68,1.12,1.15,2.3,2.26,3.39,3.43.53.57.78.15,1.07-.18s.83-.5.24-1.06c-1.24-1.18-2.43-2.41-3.63-3.61Z"/><path class="cls-1" d="M16.61,41.17a7.13,7.13,0,1,1,7.15-7.05A7.12,7.12,0,0,1,16.61,41.17Zm0-12.66A5.54,5.54,0,1,0,22.17,34,5.57,5.57,0,0,0,16.63,28.51Z"/><path class="cls-1" d="M23.37,6.34H11.3c-.58,0-1.05.08-1-.82s.42-.77,1-.77H35.48c.56,0,1-.06,1,.77s-.44.83-1,.82Z"/><path class="cls-1" d="M23.36,7.92H35.43c.58,0,1.06-.08,1,.82s-.42.78-1,.78H11.25c-.55,0-1,.07-1-.77s.43-.83,1-.83Z"/><path class="cls-1" d="M23.28,12.67c-4,0-8,0-12.06,0-.61,0-1,0-1-.81s.39-.79,1-.79H35.57c.56,0,.89,0,.89.76s-.26.85-.91.85C31.46,12.66,27.37,12.67,23.28,12.67Z"/><path class="cls-1" d="M23.27,15.84h-12c-.58,0-1.05.08-1-.82s.41-.77,1-.77H35.48c.56,0,1-.07,1,.77s-.44.83-1,.83Z"/><path class="cls-1" d="M23.27,19c-4,0-8,0-12.07,0-.64,0-.93-.08-.93-.83s.3-.78.88-.78q12.23,0,24.43,0c.59,0,.87.07.88.78s-.3.83-.93.83C31.44,19,27.35,19,23.27,19Z"/><path class="cls-1" d="M21.68,22.17c-3.49,0-7,0-10.48,0-.63,0-.93-.08-.93-.84s.3-.77.88-.77q10.63,0,21.27,0c.58,0,.87.06.88.78s-.3.83-.93.83C28.81,22.16,25.25,22.17,21.68,22.17Z"/><path class="cls-1" d="M21,25.34c-3.26,0-6.52,0-9.79,0-.62,0-.94-.06-.93-.83s.29-.78.88-.78q9.84,0,19.68,0c.58,0,.88.06.88.78s-.28.84-.92.83C27.52,25.33,24.26,25.34,21,25.34Z"/><path class="cls-1" d="M32.56,41.17A3.57,3.57,0,0,1,29.21,40c-.27-.33-.46-.07-.65.08a5.2,5.2,0,0,1-2.51,1.06c-.28,0-.77.21-.68-.35s-.43-1.06.38-1.2a4,4,0,0,0,2.83-1.93.77.77,0,0,1,.92-.4c.39.11.53.41.61.8.23,1.16.72,1.52,1.91,1.54.76,0,1.52,0,2.27,0s.53.48.56.86,0,.8-.59.74S33.28,41.17,32.56,41.17Z"/><path class="cls-1" d="M20.6,34.05a4,4,0,1,1-4-4A4,4,0,0,1,20.6,34.05Zm-1.59,0a2.37,2.37,0,1,0-2.42,2.35A2.41,2.41,0,0,0,19,34.07Z"/></g></g></svg>