<svg xmlns="http://www.w3.org/2000/svg" viewBox="0 0 342.4 198.4"><defs><style>.cls-1{fill:#f6f6f6;}.cls-2{fill:#8e5749;}.cls-3{fill:#747f2e;}.cls-4{fill:#c6e6ee;}.cls-5{fill:#d48c64;}.cls-6{fill:#a0a148;}.cls-7{fill:#c0bd99;}.cls-8{fill:#fdce75;}.cls-9{fill:#7f7f74;}.cls-10{fill:#6e4539;}.cls-11{fill:#713b24;}.cls-12{fill:#c88a5e;}.cls-13{fill:#a4856b;}.cls-14{fill:#945637;}.cls-15{fill:#dcc9bd;}.cls-16{fill:#92d2df;}.cls-17{fill:#66c4d4;}.cls-18{fill:#d7b87f;}.cls-19{fill:#fece46;}.cls-20{fill:#a0811f;}.cls-21{fill:#4d2922;}.cls-22{fill:#eac47b;}.cls-23{fill:#5ec2d4;}.cls-24{fill:#5cc1d4;}.cls-25{fill:#49bed2;}.cls-26{fill:#83933b;}.cls-27{fill:#c17c56;}.cls-28{fill:#dd9c6f;}.cls-29{fill:#bce1e6;}.cls-30{fill:#dbd59e;}.cls-31{fill:#9fad46;}.cls-32{fill:#9f553f;}.cls-33{fill:#5b2c1b;}</style></defs><g id="Capa_2" data-name="Capa 2"><g id="Capa_1-2" data-name="Capa 1"><path class="cls-1" d="M169.52,33.83c-7.76,3.89-8.07,14.79-13,22C147.41,69.15,125.65,66,113.82,77c-6.25,5.84-8.66,15.14-7.13,23.55s6.66,15.91,13.23,21.38c4.35,3.61,9.94,7.65,9.26,13.26-.24,2-1.3,3.79-2,5.67-3.33,8.38,0,18.33,6.23,24.85s14.89,10.16,23.56,12.7A126.53,126.53,0,0,0,180.24,183c4.35.43,8.81.66,12.83,2.37s7.31,4.78,11.18,6.82c9.24,4.87,20.42,3.28,30.71,1.52,13.25-2.28,26.51-4.65,39.48-8.21,4.86-1.34,9.81-2.91,13.68-6.14s6.41-8.53,5-13.37c-1.15-4.08-4.68-6.93-7.57-10s-5.36-7.47-3.8-11.41c1.83-4.63,7.78-5.63,12-8.2,4.55-2.75,7.41-7.72,8.69-12.88s1.13-10.55.83-15.85c-.26-4.71-.68-9.53-2.73-13.77-3.91-8.09-13.07-12.43-22-13.68-7.21-1-10.85-1.27-14.76-8.55-4.74-8.83-7.83-18.6-13.83-26.63s-16.2-14.17-25.84-11.44c-6.07,1.73-10.77,6.6-16.67,8.83-6.73,2.54-12.2,1.33-17.39-2.92C184.67,34.93,176.78,30.2,169.52,33.83Z"/><path class="cls-2" d="M65,47.36a2.33,2.33,0,0,0,1.46-3,2.4,2.4,0,0,0-3.21-.95,2.32,2.32,0,0,0-1.47,2.95A2.43,2.43,0,0,0,65,47.36Z"/><path class="cls-2" d="M68.65,39.94a2.33,2.33,0,0,0-1.07-3.12,2.4,2.4,0,0,0-3,1.52,2.32,2.32,0,0,0,1.06,3.12A2.4,2.4,0,0,0,68.65,39.94Z"/><path class="cls-3" d="M54.6,38.42a60.92,60.92,0,0,0-28.85-.06C22.58,37,4.6,31.12,4.6,31.12c17.81-8.59,42.22-3.8,51.5,6.15Z"/><path class="cls-3" d="M63.48,40.34c1-11-2-26.36-12.5-32.88-7.2-2.43-27.32,1.25-30.48,3,0,0,17.93,4,25.87,8.74,15.72,9.42,15.47,21.16,15.47,21.16Z"/><path class="cls-4" d="M187.28,178.52c38.42,0,48.77-3,49.08-7.25s-4.29-4.37-3.64-5.3c2.7-3.87,17.9,5.52,37.12,5.89,13.21.26,16.47-17.84,16.47-17.84l10.81,32.33Z"/><path class="cls-5" d="M156.14,126.43l2.08.13c1.11,2.1,3.59,8.6-4.4,16.25l-.66-.49C160.08,134.08,156.17,126.49,156.14,126.43Z"/><path class="cls-6" d="M99.78,178.79c-2.82-6.87-4-21.5,2.22-23s8.45,3,8.45,3a12,12,0,0,1,12.45-3.48c7.71,2.32,8.3,8.52,8.3,8.52s8.75-3.34,11.42.89a35.59,35.59,0,0,1,3.85,10.15Z"/><path class="cls-7" d="M142.39,179.78c-2.61-5.41-3.71-16.46,2.06-17s7.83,3,7.83,3,4.39-3.9,11.53-1.44,7.69,7.16,7.69,7.16,8.11-1.67,10.58,1.75a26.15,26.15,0,0,1,3.57,8Z"/><polygon class="cls-8" points="249.25 179.61 56.52 166.61 56.52 183.98 249.25 186.25 249.25 179.61"/><path class="cls-7" d="M42.08,177c-4.28-15-1.23-45.73,8.23-47.28s12.83,8.39,12.83,8.39,7.21-10.82,18.92-4S94.66,154,94.66,154,108,149.4,112,158.9,117.86,181,117.86,181Z"/><path class="cls-9" d="M72.53,166.38C56.81,156,48.27,140.65,51.21,129.63c-.3,0-.6.06-.9.11C40.85,131.29,37.8,162,42.08,177l75.78,4s-.61-4.23-1.91-9.64C106.86,178.81,88.65,177,72.53,166.38Z"/><path class="cls-10" d="M179.07,143.09l-.42.57c4.67,6.72,12.42,24.69,12.72,43l1.13.09C191.36,159.92,179.07,143.09,179.07,143.09Z"/><polygon class="cls-11" points="198.27 174.44 197.51 174.35 197.95 181.25 198.69 181.3 198.27 174.44"/><polygon class="cls-11" points="217.88 176.23 218.46 176.3 217.62 182.89 217.04 182.85 217.88 176.23"/><polygon class="cls-12" points="218.16 168.57 197.45 165.5 199.4 177.04 218.89 178.92 218.16 168.57"/><polygon class="cls-13" points="209.27 177.79 218.64 175.38 218.16 168.57 197.45 165.5 199.4 177.04 209.32 178 209.27 177.79"/><polygon class="cls-14" points="221.53 176.64 222.08 176.71 221.18 183.11 220.64 183.08 221.53 176.64"/><polygon class="cls-14" points="195.6 173.73 194.81 173.64 195.33 180.11 196.1 180.17 195.6 173.73"/><polygon class="cls-14" points="223.34 179.02 193.74 175.93 193.75 176.69 223.31 179.37 223.34 179.02"/><path class="cls-15" d="M194.17,171.73c4.6,1.58,21,2.62,26.73.43-1.56-6.26-12.46-13.55-15.41-14.9C202.93,157.55,194.78,164.51,194.17,171.73Z"/><path class="cls-12" d="M208,169.55c-4-2.59-6.61-6.24-7.08-9.48-3.07,2.74-6.39,7.15-6.77,11.66,4.6,1.58,21,2.62,26.73.43,0-.12-.07-.25-.11-.37C217.54,173.21,212.53,172.46,208,169.55Z"/><path class="cls-16" d="M203.38,182.1c17.53-2.27,27.38-6.54,37.79-4.35s19.21-11.65,26-12c17-.88,9.28-27.58,9.28-27.58L314.53,190Z"/><path class="cls-17" d="M207.57,185.41c17.87-2.9,24.51-8.28,35-6.29,10.34,1.95,22.72-11.14,29.27-11.05,23.79.33,31.69-32.91,31.69-32.91l11.65,54.66Z"/><polygon class="cls-18" points="289.03 184.65 40.28 168.15 40.28 192.19 289.03 193.1 289.03 184.65"/><polygon class="cls-19" points="135.64 174.07 40.28 172.3 40.28 166.26 135.64 174.07"/><path class="cls-10" d="M63.33,38.52l-1.47,2c14.62,20.72,38.57,79.2,36.84,141l3.94.34C102.7,91.15,63.33,38.52,63.33,38.52Z"/><polygon class="cls-20" points="102.92 174.77 103.37 168.69 96.24 169.5 97.06 174.34 102.92 174.77"/><polygon class="cls-12" points="145.86 129.84 73.91 133.45 76.55 170.87 151.75 170.87 145.86 129.84"/><polygon class="cls-13" points="103.27 166.19 148.61 148.99 145.86 129.84 73.91 133.45 76.55 170.87 105.11 170.87 103.27 166.19"/><polygon class="cls-21" points="132.74 151.99 116.01 151.47 115.6 159.65 134.4 159.65 132.74 151.99"/><polygon class="cls-21" points="98.68 152.25 87.37 153.43 87.36 169.59 100.42 169.59 98.68 152.25"/><path class="cls-15" d="M62.85,148.24c21,4.27,78.64.87,94.47-5.54-11-31.14-48.82-57.33-58.2-59.84C94.29,85.62,67,103.89,62.85,148.24Z"/><path class="cls-12" d="M104.05,127.41c-10.3-9.4-17-20.83-19.6-32-9,10.25-19.18,27.17-21.6,52.81,19.11,3.89,68.54,1.42,89.22-3.88C137,146.67,118.71,140.78,104.05,127.41Z"/><polygon class="cls-22" points="289.03 187.3 40.28 170.8 40.28 194.84 289.03 195.75 289.03 187.3"/><polygon class="cls-12" points="151.93 178.05 40.28 169.92 40.28 193.95 137.05 191.59 151.93 178.05"/><polygon class="cls-11" points="141.98 170.04 144.25 170.04 143.92 178.56 142.74 178.56 141.98 170.04"/><polygon class="cls-11" points="71.25 161.22 69.55 161.49 73.05 176.87 74.51 176.87 71.25 161.22"/><path class="cls-12" d="M237.58,195.06c-21.78-2.84-26.27-13.92-22.12-15.29l81.84,3.43Z"/><polygon class="cls-14" points="156.35 160.69 158.63 160.69 158.29 187.87 156.01 187.87 156.35 160.69"/><polygon class="cls-11" points="65.19 160.98 62.91 160.98 66.24 183.05 68.52 183.05 65.19 160.98"/><polygon class="cls-11" points="164.28 169.94 60.48 169.09 60.71 171.65 164.41 171.4 164.28 169.94"/><path class="cls-16" d="M167.11,188.34c-3.83-.06-.84,3.9-6.11,3.58-5.89-.36-5.62-2.39-13.63-4.43-9.27-2.35-6.77,3.83-14.52,2.72-8.79-1.26-14.78-5.42-22.65-6.68-8.78-1.39-8.53,3-12.26,3.69-11.16,2.17-27.56-11.83-49.43-7.11-9.26,2-7.43,15.46,48.44,17.6l91.13.28,0-10.65C180.71,193.54,170.64,188.39,167.11,188.34Z"/><path class="cls-16" d="M246.14,188.34c-3.83-.06-.84,3.9-6.11,3.58-5.89-.36-5.62-2.39-13.63-4.43-9.27-2.35-6.77,3.83-14.52,2.72-8.79-1.26-14.78-5.42-22.65-6.68-8.78-1.39-8.53,3-12.26,3.69-11.16,2.17-27.56-11.83-49.43-7.11-9.26,2-7.43,15.46,48.44,17.6l91.13.28,0-10.65C259.74,193.54,249.67,188.39,246.14,188.34Z"/><path class="cls-4" d="M267.07,187.45v-.11l-.47.38C266.76,187.63,266.92,187.55,267.07,187.45Z"/><path class="cls-4" d="M246.58,188.37l-.44,0c-3-.05-1.82,2.36-3.68,3.26C246.41,191.65,245.54,189.46,246.58,188.37Z"/><polygon class="cls-4" points="235.04 197.9 267.11 197.99 267.11 196.61 235.04 197.9"/><path class="cls-4" d="M129.48,184.65c21.64-5.65,38.65,7.62,49.7,5,3.69-.89,3.25-5.23,12.08-4.21,7.92.91,14.1,4.81,22.93,5.69,7,.69,5.48-4.11,11.86-3.7-8.85-2.1-6.52,3.89-14.17,2.8-8.79-1.26-14.93-6-22.8-7.23-8.78-1.4-8.5,3.11-12.23,3.83-11.16,2.17-27.66-12-49.54-7.29-4.12.89-5.81,4.64-1.76,8.06C126,186.25,127.45,185.18,129.48,184.65Z"/><path class="cls-23" d="M267.07,187.34a12.88,12.88,0,0,1-7.62,3v2.13c-73.83,5.27-106.39,5-135.79-7.15,2.28,4.72,15.68,11,52.31,12.39l91.13.28Z"/><path class="cls-16" d="M327.14,116.77c-30.51-43.34-102.19-11.51-80.34-10,47.47,3.38,82.14,60.37,16.13,78.75C188.1,206.4,40.28,181,40.28,181V198.4h301S348.34,146.91,327.14,116.77Z"/><path class="cls-24" d="M312.57,129c-30.5-43.35-106.68-23.76-84.83-22.21,47.46,3.38,82,64.68,15.68,81.84-38.16,9.87-106.62,7.71-154.16,4.54v5.21H322.2S333.78,159.15,312.57,129Z"/><path class="cls-25" d="M315.42,129c-30.5-43.35-106.68-23.76-84.83-22.21,47.46,3.38,82,64.68,15.68,81.84-62.48,16.16-206.28.08-206.28.08v9.67H325.05S336.63,159.15,315.42,129Z"/><path class="cls-23" d="M326.39,155.13c-15-15.3-32.14-20.65-48.53-16.88,5.13,10.26,5.56,21.45-1,31,15.29,4.36,25.92,18.12,32.22,29.11H326.8S330.85,174.37,326.39,155.13Z"/><path class="cls-26" d="M179,142.84c-1.81,2.59-6.53,6.31-15.76,6.55l5.95-4.58A25.77,25.77,0,0,0,179,142.84Z"/><path class="cls-26" d="M62.88,37.25C39.05,34,17.82,44.21,0,56.78l29.53-2c12.78-6.78,22.68-13.14,33-15.75Z"/><path class="cls-12" d="M64.94,109.86l-2.4-2.24c.05-.12,6.69-13.11,31.65-23.29l.29.26C69.49,95.88,65,109.74,64.94,109.86Z"/><path class="cls-27" d="M194.49,167.73l-.67-.45c0-.05,3-4.64,7-6.5l.19.3C197,163.22,194.53,167.68,194.49,167.73Z"/><path class="cls-27" d="M193.92,172.43l-.77-.28c0-.06,1.78-5.2,5.21-7.94l.25.25A18.22,18.22,0,0,0,193.92,172.43Z"/><path class="cls-28" d="M195.88,163.61l-.62-.63s3.92-3.79,8.38-4.56l.14.35A17,17,0,0,0,195.88,163.61Z"/><path class="cls-28" d="M205.33,155.55l.4-.57s3.62,2.39,4.94,5.67l-.26.16A13.34,13.34,0,0,0,205.33,155.55Z"/><path class="cls-28" d="M216.06,162.73l-.29.55a12.46,12.46,0,0,1-3.25-5.28l.18-.16A10.53,10.53,0,0,0,216.06,162.73Z"/><path class="cls-28" d="M205.26,170.56l-.54.57a15.39,15.39,0,0,1-2-7.49l.27-.13A13.08,13.08,0,0,0,205.26,170.56Z"/><path class="cls-28" d="M192.21,164l-.55.3a12.15,12.15,0,0,1,.35-6.16l.24,0A10.44,10.44,0,0,0,192.21,164Z"/><path class="cls-15" d="M102.63,78.64l0-1.13a50.91,50.91,0,0,1,21.7,13.37l-.22.33C113.17,80.92,102.73,78.67,102.63,78.64Z"/><path class="cls-15" d="M93.51,69.31l-1.71.16c0,.08-.38,9.48,11.33,16.54l.59-.25C92.58,78.08,93.5,69.4,93.51,69.31Z"/><path class="cls-15" d="M79.46,131.21l-2.2-.05c0-.22,1.36-24,18.13-44.39l.72.52C80,109.08,79.47,131,79.46,131.21Z"/><path class="cls-12" d="M48.72,102.63l1.5-2.12c.14.15,11.79,13.54,9.54,26.53l-.51.11C60.24,114.07,48.86,102.77,48.72,102.63Z"/><path class="cls-12" d="M66.52,129.41a125.51,125.51,0,0,0-4.73,22.75l2.25.11C64.21,145.73,66.52,129.41,66.52,129.41Z"/><path class="cls-12" d="M83.6,133.49a124.93,124.93,0,0,0-.41,23.21l2.23-.29C84.37,149.94,83.6,133.49,83.6,133.49Z"/><path class="cls-12" d="M71.89,129.51a125,125,0,0,0-.41,23.22l2.24-.3C72.67,146,71.89,129.51,71.89,129.51Z"/><path class="cls-12" d="M96.74,133.18a126.67,126.67,0,0,0,10.63,20.75l1.84-1.28C105.22,147.41,96.74,133.18,96.74,133.18Z"/><path class="cls-12" d="M117.66,132.32a127.14,127.14,0,0,0,14.25,18.54l1.57-1.58C128.6,144.82,117.66,132.32,117.66,132.32Z"/><path class="cls-15" d="M91.12,110.1a125.79,125.79,0,0,0,10.63,20.75l1.83-1.28C99.59,124.32,91.12,110.1,91.12,110.1Z"/><path class="cls-15" d="M91.76,118.08a125.57,125.57,0,0,0,7.55,22l2-1C98.12,133.33,91.76,118.08,91.76,118.08Z"/><path class="cls-15" d="M105.18,126a127.92,127.92,0,0,0,15.13,17.86l1.5-1.65C116.71,138,105.18,126,105.18,126Z"/><path class="cls-15" d="M136.48,128.89a127.92,127.92,0,0,0,15.13,17.86l1.49-1.65C148,140.87,136.48,128.89,136.48,128.89Z"/><path class="cls-12" d="M71.94,116.79C62.48,135.32,58.6,146.7,58.6,146.7l1.84.53C62.31,140.75,71.94,116.79,71.94,116.79Z"/><path class="cls-16" d="M264,79.37c-18.69-.22-17.56,7.73-17.56,7.73s-11.93-4-27,3.1-8.56,18.11-8.56,18.11c-9.23,6.41-8.68,15.41-5.62,20.55,8.55,14.36,22,7.22,26.79,3.75,11.26-8.17,7.55-30.42,34.67-29.6,26.37.8,48.64,20.1,57.86,44.7l12.78-8.87C321.85,91.08,282.67,79.59,264,79.37Z"/><path class="cls-29" d="M237.11,86a46.64,46.64,0,0,0-18.68,4.21c-15.74,7.06-8.93,18.11-8.93,18.11-9.63,6.41-9.07,15.41-5.87,20.55,6.57,10.58,21.54,15.08,33.49-2.19C246.12,113.68,244.09,96.81,237.11,86Z"/><path class="cls-16" d="M300.92,128.51c11.81,12.57,17,50.8-11.53,69.89H331C330,171.5,324,144.87,300.92,128.51Z"/><path class="cls-16" d="M296.1,146.68c.85,12.56-6.28,38.48-41.83,51.72h41.62C304.73,179.74,303.9,155.44,296.1,146.68Z"/><ellipse class="cls-10" cx="62.09" cy="53.89" rx="2.18" ry="2.5"/><path class="cls-26" d="M62.45,36.53c-7.72,6.24-11.72,9.06-19.34,12.4C41.58,51.51,32,69.38,32,69.38,51.71,63,63.47,46.56,64.07,36.54Z"/><path class="cls-30" d="M62.05,39C85.85,29.58,84.4-9.64,45.46,2.21c0,0,12.84,4.08,16.91,13.14,5.15,11.49-.54,22.57-.54,22.57Z"/><path class="cls-30" d="M64.68,39.23C43.43,39.4,29.9,27.58,20.2,14l23.86,5.27C51.94,27,57.6,33.93,65.14,37.52Z"/><path class="cls-3" d="M178.46,143.21c-.63-3.09-2.51-6.61-5.64-7.61-2-.23-7.39,1.35-8.28,1.87a38.45,38.45,0,0,1,7.55.95c5,1.63,5.87,4.87,5.87,4.87Z"/><path class="cls-26" d="M179,143c-6.48-3.55-13.86-3.11-20.55-1.63l8.76,2.75c4.52-.44,8.16-1.09,11.46-.65Z"/><path class="cls-31" d="M178.7,143.75c5.4-5.89,0-15.69-6.85-10.22a5.93,5.93,0,0,1,4.39,2c2.43,3.09,2.25,7.81,2.25,7.81Z"/><path class="cls-31" d="M177.73,143.43c4,3,10-.77,6.19-4.71a3.56,3.56,0,0,1-1,2.79,8.87,8.87,0,0,1-4.87,1.77Z"/><ellipse class="cls-10" cx="64.23" cy="39" rx="2.18" ry="2.5"/><path class="cls-23" d="M169,195.84c-62.29.35-129-7.11-129-7.11v9.67H175.16Q172,197.15,169,195.84Z"/><polygon class="cls-32" points="118.12 157.78 116.85 157.78 116.51 160.47 117.78 160.47 118.12 157.78"/><polygon class="cls-32" points="131.2 150.23 130.63 150.28 130.69 154.12 131.93 153.84 131.2 150.23"/><path class="cls-12" d="M123.42,126.08l1.09,2.47c-.22,0-18.73,2.79-29.21-6.33l.18-.5C106.75,129.78,123.22,126.13,123.42,126.08Z"/><path class="cls-5" d="M113.21,120l-.94,2.11c-.16-.1-12.77-9.88-13.09-21.69l.42-.18C101.06,111.86,113.06,119.85,113.21,120Z"/><path class="cls-33" d="M204.9,176.34l4.26.24s-.76-2.42-2.42-2.42S204.9,176.34,204.9,176.34Z"/><polygon class="cls-33" points="214.75 174.37 213.13 174.18 212.76 177.38 214.97 177.38 214.75 174.37"/><path class="cls-29" d="M291.9,89.75c0-4.11-17-12.26-30.62-11.37-7.79.5-15.65,4.22-15.65,8.34s6.33,7.45,14.13,7.45S291.9,93.87,291.9,89.75Z"/><path class="cls-29" d="M259.37,99.56c0-1-7.44-4.84-9.76-4.84s-5.78,2.21-5.78,4.92,3.46,4.92,5.78,4.92S259.37,100.58,259.37,99.56Z"/><path class="cls-16" d="M208.27,104.92l.35-.24a9.42,9.42,0,0,1-.53-1.09A13,13,0,0,0,208.27,104.92Z"/><path class="cls-16" d="M242,95.29a36.43,36.43,0,0,1-5.7,27.72c-12.18,17.23-27.09,12.77-33.62,2.29a13.39,13.39,0,0,1-1.1-2.21,14,14,0,0,0,2,5.86c6.53,10.47,21.43,14.93,33.6-2.25C244,117.07,244.86,105.26,242,95.29Z"/><path class="cls-16" d="M208.09,101.55a11.64,11.64,0,0,0,1.41,6.76,21.35,21.35,0,0,0-2.74,2.14c4.76,3.38,19.29,4.6,19.85-9.1C224.58,113.24,210.51,113,208.09,101.55Z"/><path class="cls-4" d="M179.89,182.29c0-.81-1.26-1.46-2.82-1.46s-2.81.65-2.81,1.46,1.26,1.46,2.81,1.46S179.89,183.1,179.89,182.29Z"/><path class="cls-4" d="M186.91,181c.25-.7-.44-1.57-1.53-2s-2.2-.13-2.45.56.43,1.57,1.53,2S186.65,181.7,186.91,181Z"/></g></g></svg>