<svg xmlns="http://www.w3.org/2000/svg" viewBox="0 0 49.18 49.18"><defs><style>.cls-1{fill:#c98b5f;}</style></defs><g id="Capa_2" data-name="Capa 2"><g id="Capa_1-2" data-name="Capa 1"><path class="cls-1" d="M21.23,4.55c.16-.6-.2-1.32.89-1.3s.82.62.83,1.3a6,6,0,0,1,4.25-.87A6.84,6.84,0,0,1,28.37,4,9.34,9.34,0,0,0,31.06,5.1a2.09,2.09,0,0,1,1.69,2,2.17,2.17,0,0,1-1.09,2.36c-.69.38-.59.66-.26,1.22.61,1.07,1.54,2,1.4,3.41a3.39,3.39,0,0,1-2.35,3A3.21,3.21,0,0,1,27,16a3.45,3.45,0,0,1-.33-3.82c.47-.79.92-1.6,1.43-2.36.39-.58.19-.84-.38-1a4,4,0,0,0-1.9-.26c-1.63.23-2,.59-1.82,2.17s.31,3.26.45,4.89a.83.83,0,0,0,.73.89A2.41,2.41,0,0,1,27,19.25a2.49,2.49,0,0,1-2.53,2.07c-1.57,0-3.14,0-4.71,0a2.49,2.49,0,0,1-2.55-2.06,2.41,2.41,0,0,1,1.87-2.77.82.82,0,0,0,.74-.88c.17-1.9.35-3.8.56-5.69A.75.75,0,0,0,20,9.07a3.86,3.86,0,0,0-3.63-.2c-.43.19-.54.43-.25.87A22.33,22.33,0,0,0,17.52,12c.9,1.07.49,3.33-.34,4.17a3.31,3.31,0,0,1-3.94.68A3.42,3.42,0,0,1,11.51,13a9.68,9.68,0,0,1,1.38-2.49c.27-.45.43-.72-.21-1.08a2.31,2.31,0,0,1-1.13-2.7,2.5,2.5,0,0,1,2.32-1.83,1.34,1.34,0,0,0,.77-.19A5.58,5.58,0,0,1,21.23,4.55ZM18,5.22a3.75,3.75,0,0,0-2.44.9,1.6,1.6,0,0,1-1.29.46,1,1,0,0,0-1.15.62.69.69,0,0,0,.29.81A1,1,0,0,0,14.76,8a5.36,5.36,0,0,1,6.56,0,1.29,1.29,0,0,0,1.59,0,5.39,5.39,0,0,1,6.65,0,1,1,0,0,0,1.22,0,.69.69,0,0,0,.32-.8.88.88,0,0,0-1-.64A2,2,0,0,1,28.51,6,3.75,3.75,0,0,0,24,5.93a3,3,0,0,1-3.79,0A4.12,4.12,0,0,0,18,5.22Zm4.18,12.83H19.86c-.55,0-1,.22-1,.8s.4.83.95.83h4.61c.56,0,.95-.27.93-.85a.8.8,0,0,0-.9-.78C23.72,18,23,18.05,22.22,18.05Zm0-7.61H22c-.17,1.81-.33,3.62-.52,5.43-.06.63.35.52.71.53s.65,0,.6-.54C22.59,14.06,22.43,12.25,22.26,10.44ZM14.77,14a1.34,1.34,0,0,0-.4,0c-.4.1-1.09-.3-1.17.29s.45,1,1,1.23a1.5,1.5,0,0,0,1.67-.41c.26-.25.55-.61.39-1s-.53-.12-.82-.15S15,14,14.77,14Zm14.77,0A4.34,4.34,0,0,0,29,14c-.37.07-1-.22-1.08.19s.32,1,.84,1.25A1.51,1.51,0,0,0,30.71,15c.23-.24.49-.57.35-.9s-.53-.12-.81-.15A5.63,5.63,0,0,0,29.54,14Zm-13.9-1.68c-.22-.55-.45-1.33-.85-1.33s-.68.78-.91,1.33Zm14.79,0c-.32-.53-.47-1.33-.92-1.31s-.69.76-.85,1.31Z"/><path class="cls-1" d="M38.42,1.66H11.26c-2.17,0-3.06.88-3.06,3q0,16.83,0,33.68c0,.82-.23,1.06-1,1-.47,0-.7-.15-.65-.65a4.12,4.12,0,0,0,0-.61V4.64c0-3,1.62-4.62,4.6-4.62,10.34,0,20.68,0,31,0,3.44,0,5.21,2.7,4.36,6.22a2.68,2.68,0,0,1-2.67,2c-1,0-1.91,0-2.87,0-.35,0-.93.2-.84-.51.06-.43-.4-1.2.62-1.13.22,0,.49-.08.31-.33-.29-.4.24-1.14-.48-1.29-.88-.18-.38-.81-.44-1.22-.08-.64.48-.42.8-.43,1.52,0,1.62.06,1.64,1.59,0,1.1.42,1.67,1.22,1.67S45.05,6,45.06,4.91c0-2.33-.86-3.28-3-3.25a2.49,2.49,0,0,0-2.68,2.68c0,2.9,0,5.8,0,8.7,0,.69-.14.93-.89.94s-.78-.36-.78-.93c0-2.94,0-5.87,0-8.8A5.68,5.68,0,0,1,38.42,1.66Z"/><path class="cls-1" d="M19.05,49.18H3.29C1.12,49.18,0,48.07,0,45.92c0-.65,0-1.3,0-2A2.82,2.82,0,0,1,3,41q14.28,0,28.56,0a3.21,3.21,0,0,1,2.85,4.34.84.84,0,0,1-.87.57,11.3,11.3,0,0,0-1.54,0c-.71.08-.83-.23-.84-.87s.18-.86.81-.8c.27,0,.68.19.81-.18a1,1,0,0,0-.37-1.1,1.12,1.12,0,0,0-1.14-.28,1.14,1.14,0,0,0-.87,1,18.16,18.16,0,0,0,0,2.76,1.17,1.17,0,0,0,1.29,1.06c1.23,0,2.46,0,3.68,0a2.43,2.43,0,0,0,2.35-2.59q0-3.12,0-6.24c0-.58-.06-1,.81-1s.87.31.86,1c0,2.12,0,4.24,0,6.35a4.06,4.06,0,0,1-4.2,4.19C29.77,49.19,24.41,49.18,19.05,49.18Zm9.8-6.56H4.74c-3.11,0-3.11,0-3.09,3.09,0,1.48.35,1.82,1.89,1.83H28.07c.57,0,.77,0,.68-.74A13.11,13.11,0,0,1,28.85,42.62Z"/><path class="cls-1" d="M33.58,38.35c.6-2.62.48-5.37,1.84-7.88,2.27-4.19,4.3-8.5,6.42-12.77.19-.39.75-.85-.09-1.22-.69-.3-1.27-.28-1.62.48-.48,1.05-1,2.1-1.37,3.18-.24.65-.55.6-1.08.38s-.76-.44-.46-1.05c.51-1,.9-2.13,1.38-3.18a2.56,2.56,0,0,1,3.64-1.36c.75.35,1,.09,1.27-.52,1.3-2.66,1-2.49,3.61-1.18s2.38,1.07,1.19,3.46c-2.85,5.73-5.74,11.43-8.56,17.17a15.08,15.08,0,0,1-2.83,3.32c-.6.65-1.25,1.26-1.88,1.88a.78.78,0,0,1-.93.21A.88.88,0,0,1,33.58,38.35Zm2.17-2.44a10.78,10.78,0,0,0,2.37-2.54q3.51-7.06,7.08-14.13c.36-.71.21-1-.46-1.28s-1-.42-1.38.39q-3.3,6.78-6.75,13.5A10.17,10.17,0,0,0,35.75,35.91Zm10.4-19a1.94,1.94,0,0,0,.9-1.52c0-.69-.89-.68-1.39-1-.19-.11-1.11,1.18-1,1.48C44.93,16.49,45.66,16.48,46.15,16.87Z"/><path class="cls-1" d="M16.9,31.15c2.05,0,4.1,0,6.14,0,.73,0,.74.33.74.87s0,.81-.69.81q-6.28,0-12.58,0c-.67,0-.68-.32-.69-.81s0-.88.74-.87C12.67,31.18,14.79,31.15,16.9,31.15Z"/><path class="cls-1" d="M31.14,24.6c1.36,0,2.73,0,4.09,0,.68,0,.86.21.85.86s-.15.82-.8.81q-4.14,0-8.28,0c-.65,0-.8-.19-.8-.81s.16-.89.85-.86C28.41,24.63,29.77,24.6,31.14,24.6Z"/><path class="cls-1" d="M29.4,29.52c-1.33,0-2.67,0-4,0-.69,0-.86-.21-.85-.86s.15-.82.8-.81q4.14,0,8.28,0c.65,0,.79.2.8.81s-.17.89-.85.86C32.19,29.48,30.79,29.52,29.4,29.52Z"/><path class="cls-1" d="M22.84,39.35c-1.33,0-2.66,0-4,0-.68,0-.85-.2-.84-.86s.15-.82.79-.81c2.76,0,5.53,0,8.29,0,.64,0,.79.2.79.81s-.16.89-.84.86C25.64,39.31,24.24,39.35,22.84,39.35Z"/><path class="cls-1" d="M18.85,29.52c-1.13,0-2.25-.05-3.37,0-.73,0-.75-.32-.74-.86s0-.82.68-.81q3.44.06,6.85,0c.67,0,.68.31.69.81s0,.9-.74.86C21.1,29.47,20,29.52,18.85,29.52Z"/><path class="cls-1" d="M18.84,36.07c-1.16,0-2.32,0-3.48,0-.62,0-.65-.32-.61-.76s-.19-.91.58-.9c2.35,0,4.7,0,7.06,0,.77,0,.51.53.56.91s0,.77-.63.75C21.16,36,20,36.07,18.84,36.07Z"/><path class="cls-1" d="M28.27,36.07c-1,0-2.05,0-3.07,0-.62,0-.66-.31-.62-.76s-.2-.91.58-.9q3.11,0,6.23,0c.78,0,.52.52.57.91s0,.78-.63.75C30.31,36,29.29,36.07,28.27,36.07Z"/><path class="cls-1" d="M13,26.24c-.79,0-1.57,0-2.35,0s-.88-.14-.88-.83.24-.85.88-.84c1.67,0,3.34.06,5,0,.76,0,.68.4.7.89s-.08.82-.71.78C14.81,26.2,13.92,26.24,13,26.24Z"/><path class="cls-1" d="M21.37,24.6c.82,0,1.64,0,2.45,0s.8.23.78.82,0,.88-.75.86c-1.7-.06-3.41-.06-5.11,0-.74,0-.72-.36-.72-.88s0-.84.69-.8C19.59,24.64,20.48,24.6,21.37,24.6Z"/><path class="cls-1" d="M13.11,39.35c-.85,0-1.71-.05-2.55,0s-.74-.33-.74-.86,0-.83.69-.81c1.74,0,3.48,0,5.21,0,.67,0,.68.32.68.81s0,.92-.73.86S14,39.35,13.11,39.35Z"/><path class="cls-1" d="M12.32,23a11.15,11.15,0,0,0-1.53,0c-.88.13-1-.3-1-1,0-.51.19-.64.66-.63,1.23,0,2.45,0,3.68,0,.76,0,.57.47.59.88s.06.83-.59.78S12.93,23,12.32,23Z"/><path class="cls-1" d="M11.47,29.52a5.61,5.61,0,0,0-.71,0c-.67.09-1-.09-1-.86s.32-.84.91-.79c.41,0,.82,0,1.23,0s1.2-.28,1.21.79-.59.83-1.17.85Z"/><path class="cls-1" d="M11.46,36.07a5.61,5.61,0,0,0-.71,0c-.68.1-.95-.1-.95-.86s.33-.83.92-.79c.41,0,.82,0,1.23,0s1.2-.27,1.2.8-.6.83-1.18.84Z"/></g></g></svg>