<svg xmlns="http://www.w3.org/2000/svg" viewBox="0 0 126.58 126.52"><defs><style>.cls-1{fill:#6c2910;}</style></defs><g id="Capa_2" data-name="Capa 2"><g id="Capa_1-2" data-name="Capa 1"><path class="cls-1" d="M52,.06c8.6,0,17.2.07,25.79-.06,2.06,0,2.49.63,2.41,2.52a20.48,20.48,0,0,1-4.74,12.81,4.39,4.39,0,0,0-1,4.24c1.68,7.6,3.26,15.23,5,22.83.69,3.08.32,5.76-2.22,7.85a3.5,3.5,0,0,0-1.25,3c-.06,5.94-2.07,7.85-8.18,7.92-3.67,0-5.88,1.76-6.12,4.77a5.16,5.16,0,0,0,5.12,5.74c6.08.44,8.2,4.59,4.93,9.75a10.22,10.22,0,0,1-8.75,5,48.5,48.5,0,0,1-12.55-.92c-1.36-.33-2,0-1.81,1.5a2.44,2.44,0,0,1,0,.27c0,3.41-1.09,7.55.45,10s6.08,2.35,9.32,3.33C69.66,104.06,76.25,113,76,124.46c0,1.66-.52,2.09-2.1,2-1.38-.06-2.17-.08-2.22-1.92-.31-11.06-5.07-17.08-15.64-20.18-12-3.53-24-7-36-10.67-1.88-.57-3-.32-4.25,1.23C8.86,103.42,6,113.17,6.5,124c.1,1.95-.42,2.6-2.44,2.5-1.57-.08-1.79-.64-1.85-2-.55-12.84,3-24.24,11.8-33.79a2.79,2.79,0,0,0,.87-2.34V88.1a18.83,18.83,0,0,0-4.43-14.82C3.22,64.52.1,53.88.18,42.48c0-6.65-.66-13.34.46-20A27.22,27.22,0,0,1,27,.06C35.36,0,43.69.06,52,.06Zm18.22,20.2c-6.52,2.87-7,3-14.24,3-1.67,0-3.33,0-5,0A14.92,14.92,0,0,0,36.12,35.58c-.3,1.48.73,3.55-.81,4.32-1.28.63-3.1.18-4.68.18a6.77,6.77,0,0,0-6.71,4.17c-1.29,2.91-.49,5.49,1.63,7.71C30,56.65,31.32,62.05,29,68.16a1.87,1.87,0,0,0,.56,2.47C39.2,79.1,50.5,82.76,63.23,82.15a6,6,0,0,0,4.92-3.1c1.35-2.25.93-3-1.72-3.16a9.41,9.41,0,0,1-9-10.46c.46-5,4.48-8.46,9.93-8.51,4.31,0,4.49-.13,4.37-4.46,0-1.9.28-3.43,1.88-4.57,1.92-1.37,2.14-3.12,1.51-5.33-.79-2.78-1.2-5.65-1.81-8.47C72.3,29.49,71.27,24.91,70.25,20.26Zm5.3-15.78a1.69,1.69,0,0,0-.49-.17c-16.31,0-32.62-.2-48.93.07C15.76,4.55,6.66,12.79,4.87,23,3.73,29.5,4.42,36.1,4.41,42.66a46.57,46.57,0,0,0,9.28,28.19c3.24,4.44,3.24,4.44,7.3.81,6.21-5.56,6.53-11.1,1.07-17.24C19,51,18.17,47,20,42.71a10.35,10.35,0,0,1,9.76-6.78c1.68-.06,2.16-.65,2.54-2.15,2-7.76,6.9-12.6,14.72-14.35,4.15-.93,8.39-.27,12.59-.42C67.89,18.71,75,12.25,75.55,4.48ZM44.37,90.53a35.91,35.91,0,0,1,0-4.07c.23-1.86-.5-2.69-2.28-3.33a44.37,44.37,0,0,1-14.76-8.85c-1.23-1.1-1.79-.77-3,0-4.18,2.76-6.24,6.33-5.25,11.4a3.84,3.84,0,0,1,0,1.31c-.29,1.65.53,2.23,2,2.65,5.72,1.61,11.39,3.38,17.08,5.06,1.92.56,4.56,2,5.62,1.3C45.35,95,44.08,92.17,44.37,90.53Z"/><path class="cls-1" d="M126.49,105.39c.29,1.52-.16,2.34-1.9,2.11-1.37-.18-2.52-.1-2.82,1.78-.25,1.58-1,3,1.22,3.78,1.82.59,1.47,1.63.7,3s-1.58,1.65-2.83.66-2.11-1.06-3.31.29-2.13,2.25-.67,3.89c1.18,1.32.43,2-.85,2.77s-2.24,1-2.82-.67c-.7-2-2-1.71-3.73-1.37-2,.4-2.1,1.54-1.89,3,.28,2-1,1.76-2.26,1.82s-2.16-.2-2-1.82c.12-1.27.34-2.55-1.63-3s-3.35-.8-4.12,1.54c-.57,1.75-1.66,1-2.67.39s-2.13-1-1-2.53c.79-1.08,1.62-2,.06-3.56s-2.66-2-4.36-.56c-1.31,1.12-1.8,0-2.31-.94s-1.58-2.06.22-2.72c2.14-.79,2.18-2.07,1.68-4.06-.45-1.83-1.5-2-2.86-1.76-1.79.26-2-.68-2-2.13s.2-2.38,2-2.12c1.37.19,2.45.07,2.85-1.78s.65-3.18-1.46-3.92c-1.89-.66-1-1.72-.46-2.86s1.3-1.81,2.59-.82,2.15,1.34,3.54-.13,1.91-2.52.53-4.13c-1.24-1.44,0-1.91,1-2.5s2.07-1.31,2.68.41c.72,2,1.94,2,3.86,1.6,2.26-.46,2-1.86,1.88-3.3-.15-2,1.23-1.45,2.27-1.51s2.3-.1,2,1.53c-.71,3.27,1.84,3.18,3.73,3.66,1.33.33,1.54-1,1.88-1.8.76-1.65,1.63-1.32,2.89-.62s2,1.43.84,2.78-1,2.22.3,3.52,2.39,1.8,3.92.5c1.26-1.09,1.94-.37,2.57.82s1.4,2.21-.47,2.86c-2.12.74-1.83,2.14-1.45,3.93s1.49,1.93,2.85,1.76C126.37,103,126.76,103.88,126.49,105.39ZM105.63,92.75a12.63,12.63,0,1,0,12.45,12.93A12.73,12.73,0,0,0,105.63,92.75Z"/><path class="cls-1" d="M81.94,58.85c-1.45.34-1.85-.39-1.72-1.4s-1.11-2.53,1.1-2.79c4.94-.59,9.87-1.29,14.81-1.91,5.12-.65,10.24-1.24,15.35-1.9,1.18-.16,2.33-.5,2.37,1.32,0,1.33.59,2.68-1.69,2.94C102,56.27,91.87,57.6,81.94,58.85Z"/><path class="cls-1" d="M108,71.78c0,3.19-1,4-3.33,3.36-8.31-2.38-16.61-4.8-24.94-7.11-1.62-.45-2.22-.91-1.72-2.78s1.54-1.8,3-1.37c8.39,2.45,16.78,4.84,25.17,7.26C107,71.36,108,71.38,108,71.78Z"/><path class="cls-1" d="M94.93,21a6.32,6.32,0,1,1-6.44-6.21A6.36,6.36,0,0,1,94.93,21Zm-4.21.06a2.11,2.11,0,0,0-1.92-2,1.93,1.93,0,0,0-2.23,2,1.91,1.91,0,0,0,1.85,2.1C89.74,23.28,90.45,22.44,90.72,21.07Z"/><path class="cls-1" d="M91.72,83.08a12.84,12.84,0,0,1-2.17,2.45c-.74.5-1.34-.52-1.89-1-3.19-2.6-6.27-5.36-9.54-7.85-1.7-1.29-.71-2,0-3.15s1.52-1.26,2.64-.28c3.32,2.86,6.73,5.62,10.09,8.43C91.28,82,91.79,82.29,91.72,83.08Z"/><path class="cls-1" d="M44.38,121.25a15.38,15.38,0,0,0,0,2.63c.4,2.38-.79,2.76-2.82,2.61-1.18-.09-1.47-.52-1.44-1.59.05-2.45.11-4.91,0-7.35-.1-1.82,1-1.65,2.16-1.66s2.3-.09,2.11,1.69C44.28,118.79,44.38,120,44.38,121.25Z"/><path class="cls-1" d="M111.92,6.42c2.07-.5,1.9.85,2,2.25.15,1.78-.7,1.91-2.15,2-1.77.08-2.14-.56-2.18-2.23C109.57,6.58,110.26,6.08,111.92,6.42Z"/><path class="cls-1" d="M103.43,14.85c2-.48,2,.69,2.09,2.19.15,2-.93,1.93-2.36,2-1.79.12-1.91-.72-2-2.16C101.13,15.16,101.69,14.46,103.43,14.85Z"/><path class="cls-1" d="M109.63,61.09c.4,1.77-.37,2.2-2.08,2.23s-2.15-.62-2.15-2.26.4-2.14,2-2.08S110.1,59.15,109.63,61.09Z"/><path class="cls-1" d="M111.92,40.12c2.07-.5,1.9.85,2,2.26.15,1.78-.7,1.9-2.15,2-1.77.08-2.14-.56-2.18-2.23C109.57,40.28,110.26,39.78,111.92,40.12Z"/><path class="cls-1" d="M90.67,42.21c.45,1.89-.57,2.06-2.15,2.15-1.93.1-2-.82-2.07-2.33-.08-1.72.6-2,2.12-2C90.24,40,91.09,40.4,90.67,42.21Z"/><path class="cls-1" d="M122.26,35.81c.41,1.77-.36,2.2-2.07,2.23S118,37.42,118,35.78s.4-2.14,2-2.08S122.73,33.87,122.26,35.81Z"/><path class="cls-1" d="M118,73.83c1.77-.41,2.2.36,2.23,2.07s-.62,2.15-2.25,2.15-2.15-.4-2.08-2S116.11,73.36,118,73.83Z"/><path class="cls-1" d="M78,88.47c.4,1.77-.37,2.2-2.07,2.23s-2.15-.62-2.16-2.26.4-2.14,2.06-2.08S78.5,86.53,78,88.47Z"/><path class="cls-1" d="M67.47,94.77c.51,2.1-.65,2.13-2.15,2.24-2,.15-1.94-.91-2-2.36-.12-1.78.7-2,2.16-2C67.09,92.68,68.09,93,67.47,94.77Z"/><path class="cls-1" d="M99.1,33.86c.49,2-.75,1.94-2.21,2.06-2.06.18-1.9-1-2-2.38-.14-1.81.76-1.87,2.17-1.94C98.84,31.51,99.47,32.15,99.1,33.86Z"/><path class="cls-1" d="M107.46,25.38c1.72-.37,2.28.26,2.28,2s-.51,2.23-2.22,2.19c-1.51,0-2.22-.3-2.11-2C105.5,26.13,105.46,24.89,107.46,25.38Z"/><path class="cls-1" d="M116.13,19.06c2.08-.51,1.9.85,2,2.25.15,1.78-.69,1.91-2.14,2-1.78.08-2.15-.57-2.18-2.23C113.78,19.21,114.48,18.72,116.13,19.06Z"/><path class="cls-1" d="M78.07,103.22c-1.85.44-2.09-.51-2.16-2.12-.09-1.9.75-2,2.3-2.1s2,.55,2,2.1S79.92,103.66,78.07,103.22Z"/><path class="cls-1" d="M126.48,56.91c.42,1.83-.47,2.13-2.11,2.19-1.87.07-2.08-.71-2.12-2.29s.5-2.06,2.09-2S126.92,55,126.48,56.91Z"/><path class="cls-1" d="M56.39,30.16c.4.28.76.51,1.11.77,2.66,2,5.29,4,8,6,1,.73,1.32,1.23.11,2.09-2.77,2-5.53,4-8.17,6.15-1.51,1.23-1.89,0-2.55-.86s-1.5-1.61,0-2.69,4.31-2,4.2-3.78c-.08-1.27-2.76-2.37-4.27-3.56-.51-.4-1.37-.74-.64-1.61S55.25,30.65,56.39,30.16Z"/><path class="cls-1" d="M109.57,97c1.71-.38,2.28.25,2.28,2s-.51,2.23-2.22,2.19c-1.52,0-2.22-.29-2.12-2C107.6,97.74,107.56,96.5,109.57,97Z"/><path class="cls-1" d="M103.65,101.2c2.24-.53,1.68,1.12,1.84,2.37.28,2.25-1.28,1.68-2.5,1.83-2,.26-1.62-1.12-1.78-2.3C101,101,102.15,101,103.65,101.2Z"/><path class="cls-1" d="M112,111.62c-1.87.41-2.4-.26-2.41-2s.54-2.21,2.23-2.18,2.26.32,2.09,2C113.78,110.81,114.15,112.4,112,111.62Z"/><path class="cls-1" d="M103.28,111.51c.43,1.92-.36,2.32-2.06,2.36s-2.13-.64-2.14-2.27.42-2.17,2.06-2.06C102.59,109.64,104,109.47,103.28,111.51Z"/></g></g></svg>