<svg xmlns="http://www.w3.org/2000/svg" xmlns:xlink="http://www.w3.org/1999/xlink" viewBox="0 0 428.3 270.1"><defs><style>.cls-1,.cls-3,.cls-37{fill:#fff;}.cls-2{fill:url(#linear-gradient);}.cls-3{opacity:0.6;}.cls-4{fill:#867e6c;}.cls-5,.cls-6,.cls-7{fill:#c0bd99;}.cls-6{opacity:0.71;}.cls-7{opacity:0.5;}.cls-8{fill:#4b3c32;}.cls-9{fill:url(#linear-gradient-2);}.cls-10{fill:#6c2910;}.cls-11{fill:#e8d0bc;}.cls-12{fill:#a4856b;}.cls-13{fill:url(#linear-gradient-3);}.cls-14{fill:url(#linear-gradient-4);}.cls-15{fill:url(#linear-gradient-5);}.cls-16{fill:url(#linear-gradient-6);}.cls-17{fill:url(#linear-gradient-7);}.cls-18{fill:#c3ac7f;}.cls-19{fill:url(#linear-gradient-8);}.cls-20,.cls-28{fill:#fdce75;}.cls-21{fill:url(#linear-gradient-9);}.cls-22{fill:url(#linear-gradient-10);}.cls-23{fill:url(#linear-gradient-11);}.cls-24{fill:url(#linear-gradient-12);}.cls-25{fill:#c88a5e;}.cls-26{fill:url(#linear-gradient-13);}.cls-27{fill:#c98b5f;}.cls-28{stroke:#fff;stroke-miterlimit:10;}.cls-29{fill:url(#linear-gradient-14);}.cls-30{fill:url(#linear-gradient-15);}.cls-31{fill:url(#linear-gradient-16);}.cls-32{fill:url(#linear-gradient-17);}.cls-33{fill:url(#linear-gradient-18);}.cls-34{fill:url(#linear-gradient-19);}.cls-35{fill:url(#linear-gradient-20);}.cls-36{opacity:0.64;}.cls-37{opacity:0.56;}</style><linearGradient id="linear-gradient" x1="273.3" y1="183.95" x2="301.88" y2="183.95" gradientUnits="userSpaceOnUse"><stop offset="0" stop-color="#6cc9f0"/><stop offset="1" stop-color="#3c519f"/></linearGradient><linearGradient id="linear-gradient-2" x1="162.04" y1="71.54" x2="168.82" y2="165.82" gradientUnits="userSpaceOnUse"><stop offset="0" stop-color="#2a3780"/><stop offset="1" stop-color="#201d3f"/></linearGradient><linearGradient id="linear-gradient-3" x1="13149.7" y1="201.59" x2="13190.68" y2="201.59" gradientTransform="translate(-13062.16)" gradientUnits="userSpaceOnUse"><stop offset="0" stop-color="#232451"/><stop offset="1" stop-color="#2a307b"/></linearGradient><linearGradient id="linear-gradient-4" x1="13149.7" y1="222.93" x2="13190.68" y2="222.93" xlink:href="#linear-gradient-3"/><linearGradient id="linear-gradient-5" x1="13149.7" y1="244.28" x2="13190.68" y2="244.28" xlink:href="#linear-gradient-3"/><linearGradient id="linear-gradient-6" x1="13154.64" y1="194.3" x2="13158.04" y2="194.3" gradientTransform="translate(-13062.16)" gradientUnits="userSpaceOnUse"><stop offset="0" stop-color="#f6b2b2"/><stop offset="1" stop-color="#f2908f"/></linearGradient><linearGradient id="linear-gradient-7" x1="13171.8" y1="192.79" x2="13175.17" y2="192.79" xlink:href="#linear-gradient-6"/><linearGradient id="linear-gradient-8" x1="13194.39" y1="93.94" x2="13206.93" y2="93.94" xlink:href="#linear-gradient-6"/><linearGradient id="linear-gradient-9" x1="13222.8" y1="96.67" x2="13195.69" y2="130.4" xlink:href="#linear-gradient-6"/><linearGradient id="linear-gradient-10" x1="13227.94" y1="100.8" x2="13200.83" y2="134.53" xlink:href="#linear-gradient-6"/><linearGradient id="linear-gradient-11" x1="13192.3" y1="76.29" x2="13166.04" y2="124.53" xlink:href="#linear-gradient-6"/><linearGradient id="linear-gradient-12" x1="12618.61" y1="10326.24" x2="12607.01" y2="10341.59" gradientTransform="translate(-16142.69 -1074.21) rotate(-35.22)" xlink:href="#linear-gradient-6"/><linearGradient id="linear-gradient-13" x1="12601.61" y1="10338.39" x2="12610.92" y2="10328.84" gradientTransform="translate(-16142.69 -1074.21) rotate(-35.22)" xlink:href="#linear-gradient-6"/><linearGradient id="linear-gradient-14" x1="287.4" y1="149.12" x2="301.56" y2="181.35" gradientTransform="matrix(1, 0, 0, 1, 0, 0)" xlink:href="#linear-gradient-6"/><linearGradient id="linear-gradient-15" x1="303.77" y1="286.78" x2="313.13" y2="177.43" gradientTransform="matrix(1, 0, 0, 1, 0, 0)" xlink:href="#linear-gradient-6"/><linearGradient id="linear-gradient-16" x1="322.59" y1="288.41" x2="331.95" y2="179.03" gradientTransform="matrix(1, 0, 0, 1, 0, 0)" xlink:href="#linear-gradient-6"/><linearGradient id="linear-gradient-17" x1="302.75" y1="178.99" x2="304.5" y2="166.14" gradientTransform="matrix(1, 0, 0, 1, 0, 0)" xlink:href="#linear-gradient-6"/><linearGradient id="linear-gradient-18" x1="298.31" y1="162.42" x2="313.64" y2="135.12" gradientTransform="matrix(1, 0, 0, 1, 0, 0)" xlink:href="#linear-gradient-6"/><linearGradient id="linear-gradient-19" x1="283.59" y1="148.05" x2="293.37" y2="170.31" gradientTransform="matrix(1, 0, 0, 1, 0, 0)" xlink:href="#linear-gradient-6"/><linearGradient id="linear-gradient-20" x1="3537.11" y1="7487.91" x2="3559.38" y2="7487.91" gradientTransform="translate(8578.92 346.92) rotate(116.55)" xlink:href="#linear-gradient-6"/></defs><g id="Capa_2" data-name="Capa 2"><g id="Capa_1-2" data-name="Capa 1"><path class="cls-1" d="M260.64,44.28c-5.52,8.14,6.09,24.24,29.16,56.25,27.16,37.67,61.42,85.22,87.49,77.76,19.18-5.48,31.34-40,25.69-66.66C389.53,48.2,274,24.62,260.64,44.28Z"/><path class="cls-1" d="M383.43,223.11c-1.77,25.19-115.49,38.37-203.38,35.29C106.89,255.84,69.78,254,43.84,225.23,11.08,188.93,6,124.85,35.44,82.49,75.39,24.94,161,33.68,206.78,51A80.37,80.37,0,0,1,220,57.15c71.07,42.59,71.32,87.38,144.79,146.26C377.64,213.69,383.85,217.08,383.43,223.11Z"/><path class="cls-2" d="M299,186.8H276.14A2.85,2.85,0,0,1,273.3,184h0a2.85,2.85,0,0,1,2.84-2.85H299a2.86,2.86,0,0,1,2.85,2.85h0A2.86,2.86,0,0,1,299,186.8Z"/><path class="cls-3" d="M386,186.8H312.39a2.85,2.85,0,0,1-2.85-2.85h0a2.85,2.85,0,0,1,2.85-2.85H386A2.85,2.85,0,0,1,388.8,184h0A2.85,2.85,0,0,1,386,186.8Z"/><path class="cls-4" d="M416.39,237.61h-104a2.84,2.84,0,0,1-2.85-2.85h0a2.84,2.84,0,0,1,2.85-2.84h104a2.84,2.84,0,0,1,2.84,2.84h0A2.84,2.84,0,0,1,416.39,237.61Z"/><path class="cls-4" d="M394.8,198H321.23a2.85,2.85,0,0,1-2.85-2.85h0a2.84,2.84,0,0,1,2.85-2.84H394.8a2.84,2.84,0,0,1,2.84,2.84h0A2.85,2.85,0,0,1,394.8,198Z"/><path class="cls-4" d="M373.88,220.25H321.23a2.84,2.84,0,0,1-2.85-2.85h0a2.84,2.84,0,0,1,2.85-2.84h52.65a2.84,2.84,0,0,1,2.84,2.84h0A2.84,2.84,0,0,1,373.88,220.25Z"/><path class="cls-4" d="M403.05,209.1H329.48a2.84,2.84,0,0,1-2.85-2.85h0a2.84,2.84,0,0,1,2.85-2.84h73.57a2.84,2.84,0,0,1,2.84,2.84h0A2.84,2.84,0,0,1,403.05,209.1Z"/><path class="cls-5" d="M146.81,231.66l-.28-.24c-.53-.43-1.09-.92-1.7-1.49l-.63-.58.83.18c.65.14,1.31.25,2,.33l.27,0Zm-1.06-1.52.79.69.14-.54Q146.22,230.23,145.75,230.14Z"/><path class="cls-5" d="M43.09,70.14c7.38,8.19,18.13,13.53,28.62,17.61,13.72,5.33,28.39,9.68,39.2,19.67,11.3,10.43,16.83,25.72,19.73,40.82s3.55,30.6,7.11,45.56c3.39,14.23,9.89,28.42,21.34,37.38-9.91-1.33-18.06-9.62-22.1-18.92-4.3-9.92-5-21-6.25-31.71s-3.46-21.87-10.12-30.39c-13.08-16.71-38.22-17.71-55.16-30.49C56.7,113.05,50.52,103.5,46.3,93.36A140.72,140.72,0,0,1,39.67,72,2,2,0,0,1,43.09,70.14Z"/><path class="cls-5" d="M145.47,251.7a1,1,0,0,0-.43-1.62c-8.23-1.85-42.3-11.38-35.25-41.49,8-34.19,12.38-43.53-1.59-58.32-12.71-13.48-25.92-14.46-36.91-11.39a.76.76,0,0,0,.06,1.48c6.74,1.21,22,5.23,25.62,17.2,4.74,15.5-2.48,50.49,9.51,69.83,11.85,19.11,24.68,21,38.12,24.53a.92.92,0,0,0,.87-.22Z"/><path class="cls-5" d="M30.42,171a1.32,1.32,0,0,1-.13-2.2,31.11,31.11,0,0,0,8.84-10.73c3.11-5.9,11.38-18.74,29-15.61s23.77,34,27.61,64.46,38.34,41.15,38.34,41.15l9.26,3.48s-32.81-5-45.56-27.69-11.28-58-31.35-57.25C47.16,167.4,44.64,179,30.42,171Z"/><path class="cls-5" d="M27.44,205.78a1.13,1.13,0,0,1-1.39-1.62c3.11-5.39,10.32-15.32,21.24-15.13,15,.25,26.05,6.95,40.62,31.09,14.17,23.46,46.13,31.35,54.75,31.48a.83.83,0,0,1,.8.7h0a.84.84,0,0,1-.85,1c-6.05-.24-37.87-1.89-54-10.25C71.66,234.25,46.55,197.83,27.44,205.78Z"/><path class="cls-6" d="M36.07,198.19a24.07,24.07,0,0,1,7.6-2.08,28.33,28.33,0,0,1,7.91.17A34.09,34.09,0,0,1,66,202.55,46.66,46.66,0,0,1,72,207.76l1.35,1.44,1.28,1.5.64.75.6.78L77,213.79c.76,1.06,1.51,2.15,2.26,3.2l2.19,3.18,1.1,1.58c.39.52.78,1,1.17,1.53l2.35,3.06a82.29,82.29,0,0,0,10.7,11,54,54,0,0,0,13,8,78.45,78.45,0,0,0,14.73,4.43c5.05,1.07,10.17,1.86,15.27,2.71a.21.21,0,0,1-.05.42c-5.15-.61-10.29-1.27-15.41-2.17a74.94,74.94,0,0,1-15.06-4.15,52.63,52.63,0,0,1-13.52-8,84.13,84.13,0,0,1-11-11.13l-2.4-3.08c-.4-.52-.81-1-1.2-1.55L80,221.22l-4.46-6.34A54,54,0,0,0,65,203.93,38.64,38.64,0,0,0,58.52,200a30.68,30.68,0,0,0-7.18-2.36,31.64,31.64,0,0,0-3.76-.46,27.27,27.27,0,0,0-7.57.55,22.18,22.18,0,0,0-3.64,1.09h0a.33.33,0,0,1-.45-.18A.34.34,0,0,1,36.07,198.19Z"/><path class="cls-5" d="M359.58,80.48a89.07,89.07,0,0,0-7.72-15,1.87,1.87,0,0,0-3.43.69C347.26,73.36,342.55,80,337.07,85c-7,6.4-15.35,11.16-22,17.88-13.71,13.82-18.51,34.2-19.69,53.64s.66,39.1-2.46,58.32c-1.49,9.17-4.19,18.35-9.66,25.86s-13.73,12.95-22.82,13.36a.43.43,0,0,0-.41.51h0a.44.44,0,0,0,.29.33c10.8,3.77,23.21-2.65,29.48-12.25s7.67-21.73,7.83-33.29-.68-23.27,1.91-34.53a58.14,58.14,0,0,1,17.1-29.51c7.71-7.13,17.19-12,25.76-18.08s16.62-14,19.23-24.13C363.53,95.67,362.31,87.68,359.58,80.48Z"/><path class="cls-7" d="M349.66,81.47a31.47,31.47,0,0,1-2.07,6,45.55,45.55,0,0,1-3,5.6c-.53.91-1.16,1.77-1.75,2.65s-1.26,1.7-1.9,2.55-1.36,1.62-2,2.43l-2.17,2.33c-.75.74-1.53,1.46-2.29,2.2s-1.59,1.39-2.39,2.09c-1.6,1.38-3.25,2.64-4.85,4a114.4,114.4,0,0,0-9.28,8.28,59,59,0,0,0-7.69,9.65c-1.16,1.7-2.09,3.55-3.08,5.36s-1.78,3.73-2.47,5.68a97.31,97.31,0,0,0-3.7,11.88c-.47,2-.89,4.06-1.33,6.1l-1.09,6.16h0a.34.34,0,0,1-.4.28.34.34,0,0,1-.29-.38,106.86,106.86,0,0,1,5.48-24.55,58.49,58.49,0,0,1,13.32-21.41,119,119,0,0,1,9.38-8.46c1.6-1.35,3.25-2.65,4.82-4,.78-.68,1.59-1.32,2.34-2s1.51-1.41,2.25-2.13l2.15-2.22c.67-.78,1.37-1.55,2-2.33s1.32-1.59,1.93-2.42,1.23-1.65,1.79-2.52a53.55,53.55,0,0,0,3.19-5.3A37,37,0,0,0,349,81.32v0a.35.35,0,0,1,.44-.22A.34.34,0,0,1,349.66,81.47Z"/><path class="cls-5" d="M77.52,26.86a97.41,97.41,0,0,1,10-15.48A2,2,0,0,1,91.2,12.5c.51,7.93,4.93,15.65,10.36,21.71,6.91,7.72,15.54,13.81,22.08,21.85,13.47,16.53,16.52,39.25,15.72,60.57s-4.9,42.54-3.56,63.82c.64,10.15,2.61,20.44,7.76,29.21,5.06,8.61,13.58,15.59,23.44,17a.47.47,0,0,1,.39.6h0a.49.49,0,0,1-.34.33c-12.18,3-25-5.37-30.82-16.51s-6-24.51-5-37.12,3.24-25.29,1.63-37.84a63.76,63.76,0,0,0-15.48-34c-7.65-8.59-17.46-14.92-26.15-22.46s-16.61-17-18.37-28.35C71.58,43,73.77,34.42,77.52,26.86Z"/><path class="cls-7" d="M89,28.92a40.11,40.11,0,0,0,2,6.45,58.27,58.27,0,0,0,2.9,6.14c.51,1,1.11,2,1.68,2.94s1.23,1.9,1.83,2.85,1.32,1.84,2,2.76l2.11,2.65c.73.87,1.48,1.71,2.22,2.57s1.56,1.64,2.34,2.46c1.56,1.63,3.23,3.22,4.83,4.86a129.11,129.11,0,0,1,9.31,10.22,64,64,0,0,1,12.22,24.72,117.31,117.31,0,0,1,3.38,27.32.34.34,0,0,1-.34.36.35.35,0,0,1-.36-.32h0l-.51-6.83c-.26-2.27-.5-4.54-.79-6.8A107.86,107.86,0,0,0,131,97.91c-.54-2.21-1.36-4.32-2.08-6.47-.88-2.08-1.7-4.19-2.78-6.18a64.42,64.42,0,0,0-7.35-11.35,128.37,128.37,0,0,0-9.23-10l-2.44-2.41c-.81-.81-1.64-1.59-2.43-2.44s-1.62-1.66-2.37-2.54-1.52-1.75-2.26-2.64L98,51.09c-.66-1-1.33-1.9-2-2.87s-1.24-2-1.8-3-1.14-2-1.63-3.07a49.75,49.75,0,0,1-2.66-6.41A34.73,34.73,0,0,1,88.25,29a.35.35,0,0,1,.69-.12Z"/><path class="cls-6" d="M31.75,169.17a11.31,11.31,0,0,0,2.56-.47,10.43,10.43,0,0,0,1.23-.41c.41-.16.8-.34,1.19-.53a15,15,0,0,0,4.13-3,19.88,19.88,0,0,0,3-4.19c.2-.38.37-.78.55-1.17l.56-1.21.3-.64.33-.61a13,13,0,0,1,.71-1.2,25.67,25.67,0,0,1,3.44-4.33A26,26,0,0,1,54,147.79a21.84,21.84,0,0,1,5-2.47c.46-.13.9-.29,1.37-.39l1.4-.28,1.43-.13a4.33,4.33,0,0,1,.72,0l.72,0a8.66,8.66,0,0,1,1.43.14,8.55,8.55,0,0,1,1.41.27c.46.13.93.23,1.38.4l1.33.53A18.68,18.68,0,0,1,74.89,149a32.88,32.88,0,0,1,6.71,8.68c.22.4.45.79.66,1.19l.6,1.22c.39.81.82,1.61,1.15,2.45l1,2.5c.33.83.62,1.68.92,2.53.64,1.69,1.1,3.42,1.64,5.13s.91,3.47,1.36,5.2a.29.29,0,0,1-.21.34.27.27,0,0,1-.33-.18h0l-.86-2.53c-.3-.84-.54-1.69-.87-2.52-.64-1.66-1.21-3.34-1.93-5a69,69,0,0,0-4.69-9.48,32.44,32.44,0,0,0-6.51-8c-.33-.27-.64-.57-1-.82l-1-.71a7.93,7.93,0,0,0-1.08-.65l-.55-.29a2.62,2.62,0,0,0-.56-.27l-1.16-.47c-.39-.14-.8-.22-1.19-.33a7.29,7.29,0,0,0-1.22-.23,6.32,6.32,0,0,0-1.23-.11l-.61,0a4.24,4.24,0,0,0-.62,0l-1.24.11-1.22.23c-.41.08-.81.23-1.21.34a19,19,0,0,0-4.56,2.19,26.43,26.43,0,0,0-7.33,7.16,12.43,12.43,0,0,0-.7,1.08l-.32.55-.29.56-.61,1.2c-.22.41-.41.83-.64,1.23a21.21,21.21,0,0,1-3.44,4.34,14.39,14.39,0,0,1-10,4,.23.23,0,0,1-.23-.23.23.23,0,0,1,.22-.22Z"/><path class="cls-5" d="M387,122.88c-7.44,6.78-17.68,10.68-27.58,13.45C346.48,140,332.75,142.59,322,150.7c-11.2,8.48-17.59,21.88-21.57,35.35s-6,27.49-10.53,40.76c-4.35,12.63-11.53,24.94-22.74,32.06,9.13-.31,17.28-7.13,21.78-15.22,4.8-8.63,6.38-18.61,8.51-28.25s5.1-19.57,11.92-26.72c13.37-14,36.3-12.68,52.84-22.79,8.55-5.22,15-13.36,19.76-22.2A127.53,127.53,0,0,0,390,124.83,1.82,1.82,0,0,0,387,122.88Z"/><path class="cls-8" d="M93,161.5l2.48,77.12a25.09,25.09,0,0,0,25,24.23l184.69,1.09a18.1,18.1,0,0,0,18.05-15.41c2.88-19.47,6.56-54.32,2.42-87Z"/><path class="cls-1" d="M298.65,259.2h-1.34a.23.23,0,0,1-.23-.23.22.22,0,0,1,.23-.22h1.34a.22.22,0,1,1,0,.44Zm3.14,0a.21.21,0,0,1-.22-.21.22.22,0,0,1,.21-.24c.44,0,.88-.07,1.32-.13a.22.22,0,0,1,.25.19.23.23,0,0,1-.19.26c-.45.06-.9.1-1.35.13Zm-7.62,0h-1.35a.22.22,0,0,1-.22-.23.22.22,0,0,1,.22-.22h1.35a.22.22,0,0,1,.22.22A.22.22,0,0,1,294.17,259.18Zm-4.49,0h-1.34a.21.21,0,0,1-.22-.22.22.22,0,0,1,.22-.23h1.35a.23.23,0,0,1,0,.45Zm-4.48,0h-1.35a.22.22,0,0,1-.22-.23.24.24,0,0,1,.23-.22h1.34a.21.21,0,0,1,.22.22A.22.22,0,0,1,285.2,259.12Zm-4.48,0h-1.35a.22.22,0,0,1-.22-.23.22.22,0,0,1,.22-.22h1.35a.22.22,0,0,1,.22.23A.22.22,0,0,1,280.72,259.1Zm-4.49,0h-1.34a.22.22,0,1,1,0-.44h1.34a.23.23,0,0,1,.23.23A.22.22,0,0,1,276.23,259.07Zm-4.48,0H270.4a.22.22,0,0,1-.22-.23.23.23,0,0,1,.22-.22h1.35a.22.22,0,0,1,.22.22A.22.22,0,0,1,271.75,259.05Zm-4.49,0h-1.34a.23.23,0,1,1,0-.45h1.34a.23.23,0,1,1,0,.45Zm-4.48,0h-1.35a.22.22,0,1,1,0-.44h1.34a.23.23,0,0,1,.22.23A.22.22,0,0,1,262.78,259Zm-4.48,0H257a.21.21,0,0,1-.22-.23.22.22,0,0,1,.22-.22h1.35a.22.22,0,0,1,.22.22A.22.22,0,0,1,258.3,259Zm-4.49,0h-1.35a.23.23,0,1,1,0-.45h1.34a.21.21,0,0,1,.22.23A.22.22,0,0,1,253.81,258.94Zm-4.48,0H248a.24.24,0,0,1-.22-.23.22.22,0,0,1,.22-.22h1.35a.24.24,0,0,1,.22.23A.22.22,0,0,1,249.33,258.91Zm-4.49,0H243.5a.23.23,0,1,1,0-.45h1.34a.23.23,0,1,1,0,.45Zm-4.48,0H239a.22.22,0,0,1-.22-.22.22.22,0,0,1,.22-.23h1.35a.22.22,0,0,1,.22.23A.22.22,0,0,1,240.36,258.86Zm-4.49,0h-1.34a.23.23,0,1,1,0-.45h1.34a.22.22,0,1,1,0,.44Zm-4.48,0H230a.22.22,0,0,1-.22-.23.25.25,0,0,1,.23-.22h1.34a.22.22,0,0,1,.22.22A.22.22,0,0,1,231.39,258.81Zm-4.49,0h-1.34a.21.21,0,0,1-.22-.22.22.22,0,0,1,.22-.23h1.35a.23.23,0,0,1,0,.45Zm-4.48,0h-1.35a.23.23,0,0,1-.22-.23.24.24,0,0,1,.23-.22h1.34a.22.22,0,0,1,.23.22A.24.24,0,0,1,222.42,258.75Zm-4.48,0h-1.35a.22.22,0,0,1-.22-.23.22.22,0,0,1,.22-.22h1.35a.22.22,0,0,1,.22.23A.22.22,0,0,1,217.94,258.73Zm-4.49,0h-1.34a.22.22,0,0,1-.23-.22.22.22,0,0,1,.23-.22h1.34a.23.23,0,1,1,0,.45Zm-4.48,0h-1.35a.22.22,0,0,1-.22-.23.22.22,0,0,1,.22-.22H209a.22.22,0,0,1,.22.22A.22.22,0,0,1,209,258.68Zm-4.49,0h-1.34a.23.23,0,1,1,0-.45h1.34a.23.23,0,1,1,0,.45Zm-4.48,0h-1.35a.22.22,0,0,1-.22-.22.22.22,0,0,1,.23-.22H200a.23.23,0,0,1,.22.23A.22.22,0,0,1,200,258.62Zm-4.48,0h-1.35a.21.21,0,0,1-.22-.23.22.22,0,0,1,.22-.22h1.35a.22.22,0,0,1,.22.22A.22.22,0,0,1,195.52,258.6Zm-4.49,0h-1.35a.23.23,0,1,1,0-.45H191a.21.21,0,0,1,.22.23A.22.22,0,0,1,191,258.57Zm-4.48,0H185.2a.24.24,0,0,1-.22-.23.22.22,0,0,1,.22-.22h1.35a.24.24,0,0,1,.22.23A.22.22,0,0,1,186.55,258.54Zm-4.49,0h-1.34a.23.23,0,1,1,0-.45h1.34a.23.23,0,1,1,0,.45Zm-4.48,0h-1.35a.22.22,0,0,1-.22-.22.25.25,0,0,1,.22-.23h1.35a.22.22,0,0,1,.22.23A.22.22,0,0,1,177.58,258.49Zm-4.49,0h-1.34a.23.23,0,1,1,0-.45h1.34a.22.22,0,1,1,0,.44Zm-4.48,0h-1.35a.22.22,0,0,1-.22-.23.24.24,0,0,1,.23-.22h1.34a.22.22,0,0,1,.22.22A.22.22,0,0,1,168.61,258.44Zm-4.48,0h-1.35a.21.21,0,0,1-.22-.22.22.22,0,0,1,.22-.23h1.35a.22.22,0,0,1,.22.23A.22.22,0,0,1,164.13,258.41Zm-4.49,0h-1.35a.23.23,0,0,1-.22-.23.24.24,0,0,1,.23-.22h1.34a.21.21,0,0,1,.22.22A.22.22,0,0,1,159.64,258.38Zm-4.48,0h-1.35a.22.22,0,0,1-.22-.23.22.22,0,0,1,.22-.22h1.35a.22.22,0,0,1,.22.23A.22.22,0,0,1,155.16,258.36Zm151,0a.23.23,0,0,1-.21-.15.22.22,0,0,1,.14-.28c.42-.14.84-.3,1.24-.47a.22.22,0,0,1,.3.12.23.23,0,0,1-.12.29c-.42.18-.85.34-1.28.48Zm-155.51,0h-1.34a.22.22,0,0,1-.23-.22.22.22,0,0,1,.23-.22h1.34a.23.23,0,1,1,0,.45Zm-4.48,0h-1.35a.22.22,0,0,1-.22-.23.25.25,0,0,1,.22-.22h1.35a.22.22,0,0,1,.22.22A.22.22,0,0,1,146.19,258.31Zm-4.49,0h-1.34a.23.23,0,1,1,0-.45h1.34a.23.23,0,1,1,0,.45Zm-4.48,0h-1.35a.22.22,0,0,1-.22-.22.23.23,0,0,1,.23-.22h1.34a.23.23,0,0,1,.22.23A.22.22,0,0,1,137.22,258.25Zm-4.48,0h-1.35a.21.21,0,0,1-.22-.23.22.22,0,0,1,.22-.22h1.35a.22.22,0,0,1,.22.22A.22.22,0,0,1,132.74,258.23Zm-4.49,0H126.9a.22.22,0,0,1-.22-.22.23.23,0,0,1,.23-.23h1.34a.21.21,0,0,1,.22.23A.22.22,0,0,1,128.25,258.2Zm-4.48-.05h0c-.45,0-.91-.06-1.36-.11a.22.22,0,1,1,0-.44c.44,0,.89.08,1.33.1a.22.22,0,0,1,.21.24A.21.21,0,0,1,123.77,258.15Zm-4.43-.64h-.06l-1.31-.36a.24.24,0,0,1-.15-.28.23.23,0,0,1,.28-.15c.43.13.86.25,1.29.35a.22.22,0,0,1,.16.27A.21.21,0,0,1,119.34,257.51Zm190.87-1.12a.23.23,0,0,1-.19-.1.24.24,0,0,1,.06-.32c.37-.24.74-.5,1.08-.77a.25.25,0,0,1,.32,0,.23.23,0,0,1,0,.32c-.36.27-.73.54-1.11.79A.28.28,0,0,1,310.21,256.39Zm-195.11-.33-.09,0-1.22-.59a.23.23,0,0,1-.09-.31.22.22,0,0,1,.3-.09c.39.2.79.4,1.19.58a.22.22,0,0,1,.12.3A.23.23,0,0,1,115.1,256.06Zm-3.88-2.22a.2.2,0,0,1-.13,0c-.37-.26-.74-.53-1.09-.81a.21.21,0,0,1,0-.31.23.23,0,0,1,.32,0c.34.27.7.54,1.06.8a.22.22,0,0,1,.06.31A.21.21,0,0,1,111.22,253.84Zm202.38-.37a.25.25,0,0,1-.15-.05.23.23,0,0,1,0-.32c.29-.33.58-.67.85-1a.22.22,0,0,1,.31-.05.23.23,0,0,1,0,.32q-.4.54-.87,1.05A.2.2,0,0,1,313.6,253.47Zm-205.79-2.53a.23.23,0,0,1-.16-.06c-.32-.33-.63-.66-.92-1a.22.22,0,0,1,0-.32.22.22,0,0,1,.31,0c.29.34.6.67.91,1a.23.23,0,0,1,0,.32A.22.22,0,0,1,107.81,250.94Zm208.31-1.16a.18.18,0,0,1-.1,0,.23.23,0,0,1-.1-.3c.2-.39.39-.8.56-1.21a.22.22,0,1,1,.41.17c-.17.42-.36.84-.57,1.24A.21.21,0,0,1,316.12,249.78ZM105,247.46a.22.22,0,0,1-.18-.1c-.25-.38-.49-.77-.72-1.16a.22.22,0,0,1,.08-.3.23.23,0,0,1,.31.08c.22.38.46.76.7,1.13a.22.22,0,0,1-.06.31A.2.2,0,0,1,105,247.46Zm212.62-1.89h-.05a.21.21,0,0,1-.17-.26c.07-.33.13-.67.18-1l0-.3a.22.22,0,0,1,.26-.19.23.23,0,0,1,.19.25l-.05.31c-.05.34-.11.69-.18,1A.23.23,0,0,1,317.61,245.57Zm-214.73-2.06a.21.21,0,0,1-.2-.14c-.18-.42-.34-.84-.49-1.27a.22.22,0,0,1,.14-.28.22.22,0,0,1,.28.13c.15.42.31.84.48,1.25a.22.22,0,0,1-.12.29Zm215.4-2.38h0a.22.22,0,0,1-.19-.25l.18-1.33a.23.23,0,0,1,.25-.2.23.23,0,0,1,.19.26l-.18,1.33A.22.22,0,0,1,318.28,241.13Zm-216.72-1.9a.22.22,0,0,1-.22-.18c-.1-.44-.18-.89-.24-1.34a.22.22,0,0,1,.44-.06c.07.44.14.88.24,1.31a.23.23,0,0,1-.18.26Zm217.31-2.54h0a.22.22,0,0,1-.19-.25l.17-1.34a.22.22,0,1,1,.44.06l-.17,1.33A.22.22,0,0,1,318.87,236.69Zm-217.82-1.91a.22.22,0,0,1-.22-.22l0-1.34A.21.21,0,0,1,101,233a.22.22,0,0,1,.24.21l0,1.35a.22.22,0,0,1-.22.23Zm218.36-2.54h0a.22.22,0,0,1-.2-.24l.15-1.34a.23.23,0,1,1,.45,0l-.15,1.34A.24.24,0,0,1,319.41,232.24Zm-218.5-1.94a.22.22,0,0,1-.22-.22l0-1.34a.24.24,0,0,1,.22-.24.22.22,0,0,1,.23.22l0,1.35a.24.24,0,0,1-.22.23Zm219-2.52h0a.24.24,0,0,1-.2-.25c.05-.44.09-.89.14-1.34a.22.22,0,0,1,.24-.2.21.21,0,0,1,.2.25c0,.45-.09.89-.13,1.34A.24.24,0,0,1,319.9,227.78Zm-219.13-2a.24.24,0,0,1-.23-.22l0-1.35a.23.23,0,0,1,.22-.23.24.24,0,0,1,.23.22l0,1.34a.23.23,0,0,1-.22.24Zm219.57-2.51h0a.22.22,0,0,1-.2-.24l.12-1.34a.23.23,0,0,1,.45,0l-.12,1.34A.22.22,0,0,1,320.34,223.31Zm-219.72-2a.21.21,0,0,1-.22-.21l0-1.35a.22.22,0,0,1,.21-.23.21.21,0,0,1,.23.22l0,1.34a.22.22,0,0,1-.22.23Zm220.11-2.48h0a.22.22,0,0,1-.2-.24l.1-1.34a.21.21,0,0,1,.24-.2.22.22,0,0,1,.21.24l-.11,1.34A.22.22,0,0,1,320.73,218.85Zm-220.25-2a.23.23,0,0,1-.23-.22l0-1.34a.22.22,0,0,1,.22-.23.22.22,0,0,1,.23.22l0,1.34a.22.22,0,0,1-.21.23Zm220.58-2.48h0a.22.22,0,0,1-.21-.24l.09-1.34a.23.23,0,1,1,.45,0l-.09,1.34A.23.23,0,0,1,321.06,214.37Zm-220.73-2a.22.22,0,0,1-.22-.22l0-1.34a.21.21,0,0,1,.21-.23.22.22,0,0,1,.24.21l0,1.35a.22.22,0,0,1-.22.23Zm221-2.47h0a.23.23,0,0,1-.21-.24c0-.45.05-.89.07-1.34a.23.23,0,0,1,.24-.22.23.23,0,0,1,.21.24c0,.45-.05.9-.07,1.34A.24.24,0,0,1,321.34,209.9Zm-221.15-2a.22.22,0,0,1-.22-.22l0-1.34a.24.24,0,0,1,.22-.24.23.23,0,0,1,.23.22l0,1.35a.22.22,0,0,1-.21.23Zm221.37-2.47h0a.22.22,0,0,1-.21-.24l.06-1.34a.23.23,0,0,1,.23-.22.22.22,0,0,1,.21.24c0,.45,0,.9,0,1.34A.24.24,0,0,1,321.56,205.42Zm-221.51-2a.24.24,0,0,1-.23-.22l0-1.35a.22.22,0,0,1,.22-.23.24.24,0,0,1,.23.22l0,1.34a.23.23,0,0,1-.22.24Zm221.68-2.48h0a.22.22,0,0,1-.22-.23c0-.44,0-.89,0-1.34a.22.22,0,0,1,.23-.22.23.23,0,0,1,.22.23c0,.45,0,.9,0,1.35A.21.21,0,0,1,321.73,200.93Zm-221.83-2a.21.21,0,0,1-.22-.21l-.05-1.35a.23.23,0,0,1,.22-.23.21.21,0,0,1,.23.22l0,1.34a.22.22,0,0,1-.22.23Zm221.93-2.47h0a.22.22,0,0,1-.22-.23c0-.44,0-.89,0-1.34a.23.23,0,0,1,.23-.22.22.22,0,0,1,.22.22c0,.45,0,.9,0,1.35A.22.22,0,0,1,321.83,196.45Zm-222.07-2a.23.23,0,0,1-.23-.22l0-1.34a.23.23,0,0,1,.45,0l0,1.34a.22.22,0,0,1-.21.23ZM321.86,192a.22.22,0,0,1-.22-.23v-.1c0-.42,0-.83,0-1.24a.23.23,0,0,1,.23-.23h0a.22.22,0,0,1,.22.23c0,.41,0,.82,0,1.23v.11A.23.23,0,0,1,321.86,192ZM99.61,190a.22.22,0,0,1-.22-.22l0-1.34a.22.22,0,1,1,.44,0l0,1.35a.23.23,0,0,1-.22.23Zm222.22-2.48a.23.23,0,0,1-.23-.22c0-.44,0-.89,0-1.34a.23.23,0,0,1,.22-.23.22.22,0,0,1,.23.22c0,.45,0,.9,0,1.35a.22.22,0,0,1-.22.22Zm-222.36-2a.22.22,0,0,1-.22-.22l0-1.34a.24.24,0,0,1,.22-.24.23.23,0,0,1,.23.22l0,1.35a.22.22,0,0,1-.21.23ZM321.72,183a.22.22,0,0,1-.22-.22c0-.44,0-.89-.05-1.34a.23.23,0,0,1,.22-.23.22.22,0,0,1,.23.21c0,.45,0,.9.05,1.35a.23.23,0,0,1-.22.23ZM99.33,181a.23.23,0,0,1-.23-.22l0-1.35a.22.22,0,0,1,.22-.23.24.24,0,0,1,.23.22l0,1.34a.23.23,0,0,1-.22.24Zm222.21-2.48a.21.21,0,0,1-.22-.21c0-.45-.05-.9-.07-1.34a.23.23,0,0,1,.45,0c0,.45,0,.9.07,1.35a.22.22,0,0,1-.22.23Zm-222.36-2a.21.21,0,0,1-.22-.21l0-1.35a.23.23,0,0,1,.22-.23.21.21,0,0,1,.23.22l0,1.34a.22.22,0,0,1-.22.23Zm222.1-2.46a.23.23,0,0,1-.22-.21c0-.45-.06-.9-.1-1.34a.22.22,0,0,1,.21-.24.22.22,0,0,1,.24.2l.09,1.35a.21.21,0,0,1-.2.23ZM99,172a.23.23,0,0,1-.23-.22l0-1.34a.23.23,0,0,1,.45,0l0,1.34A.22.22,0,0,1,99,172Zm221.89-2.46a.22.22,0,0,1-.22-.2l-.12-1.34a.22.22,0,0,1,.2-.24.21.21,0,0,1,.24.2c.05.45.09.89.13,1.34a.22.22,0,0,1-.21.24Zm-222-2a.22.22,0,0,1-.22-.22l0-1.34a.22.22,0,1,1,.44,0l.05,1.35a.24.24,0,0,1-.22.23Zm221.6-2.44a.22.22,0,0,1-.22-.2l-.15-1.33a.22.22,0,0,1,.2-.25.22.22,0,0,1,.25.19l.15,1.34a.23.23,0,0,1-.2.25Zm-221.74-2a.22.22,0,0,1-.22-.22l-.06-1.58h.82a.22.22,0,0,1,.22.23.22.22,0,0,1-.22.22h-.35l0,1.12a.22.22,0,0,1-.21.23ZM319,161.72h-1.34a.23.23,0,1,1,0-.45H319a.23.23,0,1,1,0,.45Zm-4.48,0h-1.35a.22.22,0,0,1-.22-.22.22.22,0,0,1,.22-.23h1.35a.22.22,0,0,1,.22.23A.22.22,0,0,1,314.54,161.72Zm-4.49,0h-1.34a.23.23,0,1,1,0-.45h1.34a.23.23,0,1,1,0,.45Zm-4.48,0h-1.35a.22.22,0,0,1-.22-.22.22.22,0,0,1,.22-.23h1.35a.22.22,0,0,1,.22.23A.22.22,0,0,1,305.57,161.72Zm-4.49,0h-1.34a.22.22,0,0,1-.22-.22.22.22,0,0,1,.22-.23h1.34a.23.23,0,1,1,0,.45Zm-4.48,0h-1.35a.22.22,0,0,1-.22-.22.22.22,0,0,1,.22-.23h1.35a.22.22,0,0,1,.22.23A.22.22,0,0,1,296.6,161.72Zm-4.48,0h-1.35a.22.22,0,0,1-.22-.22.22.22,0,0,1,.22-.23h1.35a.22.22,0,0,1,.22.23A.22.22,0,0,1,292.12,161.72Zm-4.49,0h-1.34a.23.23,0,1,1,0-.45h1.34a.23.23,0,1,1,0,.45Zm-4.48,0H281.8a.22.22,0,0,1-.22-.22.22.22,0,0,1,.22-.23h1.35a.22.22,0,0,1,.22.23A.22.22,0,0,1,283.15,161.72Zm-4.49,0h-1.34a.23.23,0,1,1,0-.45h1.34a.23.23,0,1,1,0,.45Zm-4.48,0h-1.35a.22.22,0,0,1-.22-.22.22.22,0,0,1,.22-.23h1.35a.22.22,0,0,1,.22.23A.22.22,0,0,1,274.18,161.72Zm-4.49,0h-1.34a.23.23,0,1,1,0-.45h1.34a.23.23,0,1,1,0,.45Zm-4.48,0h-1.35a.22.22,0,0,1-.22-.22.22.22,0,0,1,.22-.23h1.35a.22.22,0,0,1,.22.23A.22.22,0,0,1,265.21,161.72Zm-4.48,0h-1.35a.22.22,0,0,1-.22-.22.22.22,0,0,1,.22-.23h1.35a.22.22,0,0,1,.22.23A.22.22,0,0,1,260.73,161.72Zm-4.49,0H254.9a.23.23,0,1,1,0-.45h1.34a.23.23,0,1,1,0,.45Zm-4.48,0h-1.35a.22.22,0,0,1-.22-.22.22.22,0,0,1,.22-.23h1.35a.22.22,0,0,1,.22.23A.22.22,0,0,1,251.76,161.72Zm-4.49,0h-1.34a.23.23,0,1,1,0-.45h1.34a.23.23,0,1,1,0,.45Zm-4.48,0h-1.35a.22.22,0,0,1-.22-.22.22.22,0,0,1,.22-.23h1.35a.22.22,0,0,1,.22.23A.22.22,0,0,1,242.79,161.72Zm-4.49,0H237a.23.23,0,1,1,0-.45h1.34a.23.23,0,1,1,0,.45Zm-4.48,0h-1.35a.22.22,0,0,1-.22-.22.22.22,0,0,1,.22-.23h1.35a.22.22,0,0,1,.22.23A.22.22,0,0,1,233.82,161.72Zm-4.49,0H228a.22.22,0,0,1-.22-.22.22.22,0,0,1,.22-.23h1.34a.23.23,0,1,1,0,.45Zm-4.48,0h-1.34a.23.23,0,1,1,0-.45h1.34a.22.22,0,0,1,.22.23A.22.22,0,0,1,224.85,161.72Zm-4.48,0H219a.22.22,0,0,1-.22-.22.22.22,0,0,1,.22-.23h1.35a.22.22,0,0,1,.22.23A.22.22,0,0,1,220.37,161.72Zm-4.49,0h-1.34a.23.23,0,1,1,0-.45h1.34a.23.23,0,1,1,0,.45Zm-4.48,0h-1.35a.22.22,0,0,1-.22-.22.22.22,0,0,1,.22-.23h1.35a.22.22,0,0,1,.22.23A.22.22,0,0,1,211.4,161.72Zm-4.49,0h-1.34a.23.23,0,1,1,0-.45h1.34a.23.23,0,1,1,0,.45Zm-4.48,0h-1.35a.22.22,0,0,1-.22-.22.22.22,0,0,1,.22-.23h1.35a.22.22,0,0,1,.22.23A.22.22,0,0,1,202.43,161.72Zm-4.49,0H196.6a.23.23,0,1,1,0-.45h1.34a.23.23,0,1,1,0,.45Zm-4.48,0h-1.35a.22.22,0,0,1-.22-.22.22.22,0,0,1,.22-.23h1.35a.22.22,0,0,1,.22.23A.22.22,0,0,1,193.46,161.72Zm-4.48,0h-1.35a.22.22,0,0,1-.22-.22.22.22,0,0,1,.22-.23H189a.22.22,0,0,1,.22.23A.22.22,0,0,1,189,161.72Zm-4.49,0h-1.34a.23.23,0,1,1,0-.45h1.34a.23.23,0,1,1,0,.45Zm-4.48,0h-1.35a.22.22,0,0,1-.22-.22.22.22,0,0,1,.22-.23H180a.22.22,0,0,1,.22.23A.22.22,0,0,1,180,161.72Zm-4.49,0h-1.34a.23.23,0,1,1,0-.45h1.34a.23.23,0,1,1,0,.45Zm-4.48,0h-1.35a.22.22,0,0,1-.22-.22.22.22,0,0,1,.22-.23H171a.22.22,0,0,1,.22.23A.22.22,0,0,1,171,161.72Zm-4.49,0h-1.34a.23.23,0,1,1,0-.45h1.34a.23.23,0,1,1,0,.45Zm-4.48,0h-1.35a.22.22,0,0,1-.22-.22.22.22,0,0,1,.22-.23h1.35a.22.22,0,0,1,.22.23A.22.22,0,0,1,162.07,161.72Zm-4.48,0h-1.35a.22.22,0,0,1-.22-.22.22.22,0,0,1,.22-.23h1.35a.22.22,0,0,1,.22.23A.22.22,0,0,1,157.59,161.72Zm-4.49,0h-1.34a.23.23,0,1,1,0-.45h1.34a.22.22,0,0,1,.22.23A.22.22,0,0,1,153.1,161.72Zm-4.48,0h-1.35a.22.22,0,0,1-.22-.22.22.22,0,0,1,.22-.23h1.35a.22.22,0,0,1,.22.23A.22.22,0,0,1,148.62,161.72Zm-4.49,0h-1.34a.23.23,0,1,1,0-.45h1.34a.23.23,0,1,1,0,.45Zm-4.48,0H138.3a.22.22,0,0,1-.22-.22.22.22,0,0,1,.22-.23h1.35a.22.22,0,0,1,.22.23A.22.22,0,0,1,139.65,161.72Zm-4.49,0h-1.34a.23.23,0,1,1,0-.45h1.34a.23.23,0,1,1,0,.45Zm-4.48,0h-1.35a.22.22,0,0,1-.22-.22.22.22,0,0,1,.22-.23h1.35a.22.22,0,0,1,.22.23A.22.22,0,0,1,130.68,161.72Zm-4.49,0h-1.34a.23.23,0,1,1,0-.45h1.34a.23.23,0,1,1,0,.45Zm-4.48,0h-1.35a.22.22,0,0,1-.22-.22.22.22,0,0,1,.22-.23h1.35a.22.22,0,0,1,.22.23A.22.22,0,0,1,121.71,161.72Zm-4.48,0h-1.35a.22.22,0,0,1-.22-.22.22.22,0,0,1,.22-.23h1.35a.22.22,0,0,1,.22.23A.22.22,0,0,1,117.23,161.72Zm-4.49,0H111.4a.23.23,0,1,1,0-.45h1.34a.23.23,0,1,1,0,.45Zm-4.48,0h-1.35a.22.22,0,0,1-.22-.22.22.22,0,0,1,.22-.23h1.35a.22.22,0,0,1,.22.23A.22.22,0,0,1,108.26,161.72Zm-4.49,0h-1.34a.23.23,0,1,1,0-.45h1.34a.23.23,0,1,1,0,.45Z"/><path class="cls-8" d="M147.17,105.51l.55-6a4.59,4.59,0,0,1,3.47-2.67c5.75-.91,20-2.52,26.89,2.61l1,6.91Z"/><path class="cls-9" d="M165.14,99.79a8.25,8.25,0,0,1-4,0,3.59,3.59,0,0,1-2.75-3.48V77.67h9.48V96.28A3.61,3.61,0,0,1,165.14,99.79Z"/><path class="cls-8" d="M239,105.51l.56-6A4.57,4.57,0,0,1,243,96.89c5.75-.91,20-2.52,26.89,2.61l1,6.91Z"/><path class="cls-8" d="M257,99.79a8.29,8.29,0,0,1-4,0,3.59,3.59,0,0,1-2.74-3.48V75.71h9.48V96.28A3.63,3.63,0,0,1,257,99.79Z"/><path class="cls-10" d="M157.45,82.24l101.94-3.38a4.9,4.9,0,0,0,4.69-4,41.6,41.6,0,0,0,.32-12.92A11.76,11.76,0,0,0,253,52c-19-.45-67.42-.44-94.11,10.11a9.31,9.31,0,0,0-5.62,6.47A22.47,22.47,0,0,0,153,78.89,4.39,4.39,0,0,0,157.45,82.24Z"/><path class="cls-1" d="M155.69,76.94a.45.45,0,0,1-.45-.4,24,24,0,0,1,.61-7.68A8.51,8.51,0,0,1,161.64,63c5.68-1.66,16.53-4.5,25.4-4.74a.45.45,0,1,1,0,.89c-8.76.25-19.53,3.06-25.17,4.71a7.6,7.6,0,0,0-5.17,5.26,23.46,23.46,0,0,0-.59,7.36.45.45,0,0,1-.4.49Z"/><path class="cls-10" d="M99.87,103.19c32.93-.42,175.39-1.92,216.78,3.08a8.42,8.42,0,0,1,7.24,6.52c2.44,11.06,7.36,36.74,6.78,62.19a7.38,7.38,0,0,1-6,7l-94.46,17.87H196.62L96,179.88a7.87,7.87,0,0,1-6.35-7.31c-.65-12.8-1.68-42.85,1.79-62.19A8.71,8.71,0,0,1,99.87,103.19Z"/><path class="cls-1" d="M229.39,192h-1.34a.23.23,0,1,1,0-.45h1.34a.23.23,0,1,1,0,.45Zm-4.48,0h-1.35a.22.22,0,0,1-.22-.22.22.22,0,0,1,.22-.23h1.35a.22.22,0,0,1,.22.23A.22.22,0,0,1,224.91,192Zm-4.49,0h-1.34a.23.23,0,1,1,0-.45h1.34a.23.23,0,1,1,0,.45Zm-4.48,0h-1.35a.22.22,0,0,1-.22-.22.22.22,0,0,1,.22-.23h1.35a.22.22,0,0,1,.22.23A.22.22,0,0,1,215.94,192Zm-4.48,0h-1.35a.22.22,0,0,1-.22-.22.22.22,0,0,1,.22-.23h1.35a.22.22,0,0,1,.22.23A.22.22,0,0,1,211.46,192ZM207,192h-1.34a.23.23,0,1,1,0-.45H207a.22.22,0,0,1,.22.23A.22.22,0,0,1,207,192Zm-4.48,0h-1.35a.22.22,0,0,1-.22-.22.22.22,0,0,1,.22-.23h1.35a.22.22,0,0,1,.22.23A.22.22,0,0,1,202.49,192ZM198,192h-.58l-1.37-.26a.23.23,0,0,1-.17-.27.21.21,0,0,1,.26-.17l1.32.26H198a.23.23,0,1,1,0,.45Zm34.48-.58a.22.22,0,0,1-.22-.18.21.21,0,0,1,.18-.26l1.32-.25a.21.21,0,0,1,.26.17.24.24,0,0,1-.18.27l-1.32.25ZM193,191.1H193l-1.32-.26a.21.21,0,0,1-.17-.26.23.23,0,0,1,.26-.18l1.32.26a.24.24,0,0,1,.18.27A.23.23,0,0,1,193,191.1Zm43.86-.54a.23.23,0,0,1,0-.45l1.32-.25a.24.24,0,0,1,.27.18.23.23,0,0,1-.18.26l-1.32.25Zm-48.26-.34h0l-1.32-.26a.24.24,0,0,1-.18-.27.21.21,0,0,1,.26-.17l1.32.26a.23.23,0,0,1,.18.26A.22.22,0,0,1,188.62,190.22Zm52.67-.5a.22.22,0,0,1-.22-.18.23.23,0,0,1,.18-.26l1.32-.25a.22.22,0,1,1,.08.44l-1.32.25Zm-57.07-.37h0l-1.32-.26a.23.23,0,0,1-.18-.26.24.24,0,0,1,.27-.18l1.32.26a.23.23,0,0,1,.17.27A.22.22,0,0,1,184.22,189.35Zm61.48-.46a.23.23,0,0,1-.22-.18.21.21,0,0,1,.17-.26l1.33-.25a.21.21,0,0,1,.26.17.24.24,0,0,1-.18.27l-1.32.25Zm-65.88-.42h0l-1.32-.26a.24.24,0,0,1-.18-.27.22.22,0,0,1,.27-.17l1.32.26a.21.21,0,0,1,.17.26A.22.22,0,0,1,179.82,188.47Zm70.28-.41a.23.23,0,0,1-.22-.19.23.23,0,0,1,.18-.26l1.32-.25a.23.23,0,0,1,.26.18.21.21,0,0,1-.17.26l-1.33.25Zm-74.68-.46h0l-1.32-.27a.21.21,0,0,1-.17-.26.23.23,0,0,1,.26-.18l1.32.27a.21.21,0,0,1,.17.26A.22.22,0,0,1,175.42,187.6Zm79.09-.38a.22.22,0,0,1-.22-.18.22.22,0,0,1,.18-.26l1.32-.25a.22.22,0,1,1,.08.44l-1.32.25ZM171,186.73H171l-1.32-.26a.22.22,0,0,1,.09-.44l1.32.26a.23.23,0,0,1,0,.45Zm87.88-.34a.23.23,0,0,1,0-.45l1.32-.25a.24.24,0,0,1,.27.18.24.24,0,0,1-.18.27l-1.32.25Zm-92.28-.54h0l-1.32-.26a.23.23,0,0,1-.17-.27.21.21,0,0,1,.26-.17l1.32.26a.23.23,0,0,1,.18.26A.22.22,0,0,1,166.63,185.85Zm96.69-.29a.23.23,0,0,1,0-.45l1.32-.25a.23.23,0,0,1,.26.18.21.21,0,0,1-.18.26l-1.32.25ZM162.23,185h0l-1.32-.26a.22.22,0,1,1,.08-.44l1.32.26a.23.23,0,0,1,0,.45Zm105.5-.26a.22.22,0,0,1-.22-.18.21.21,0,0,1,.18-.26L269,184a.22.22,0,0,1,.26.18.23.23,0,0,1-.18.26l-1.32.25Zm-109.9-.62h0l-1.32-.26a.24.24,0,0,1-.18-.27.22.22,0,0,1,.27-.17l1.32.26a.21.21,0,0,1,.17.26A.22.22,0,0,1,157.83,184.1Zm114.3-.21a.23.23,0,0,1,0-.45l1.32-.25a.24.24,0,0,1,.27.18.23.23,0,0,1-.18.26l-1.33.25Zm-118.7-.66h0l-1.32-.26a.23.23,0,0,1-.18-.26.24.24,0,0,1,.27-.18l1.32.26a.23.23,0,0,1,.17.27A.22.22,0,0,1,153.43,183.23Zm123.11-.18a.22.22,0,0,1-.22-.18.23.23,0,0,1,.18-.26l1.32-.25a.22.22,0,0,1,.08.44l-1.32.25Zm-127.5-.7h0l-1.32-.26a.22.22,0,0,1-.17-.27.21.21,0,0,1,.26-.17l1.32.26a.22.22,0,0,1,0,.44ZM281,182.22a.22.22,0,0,1-.22-.18.21.21,0,0,1,.17-.26l1.33-.25a.22.22,0,0,1,.26.18.23.23,0,0,1-.18.26l-1.32.25Zm-136.31-.74h0l-1.32-.27a.21.21,0,0,1-.17-.26.23.23,0,0,1,.26-.18l1.32.27a.23.23,0,0,1,.18.26A.22.22,0,0,1,144.64,181.48Zm140.71-.09a.23.23,0,0,1,0-.45l1.32-.25a.23.23,0,0,1,.26.18.21.21,0,0,1-.17.26l-1.33.25Zm-145.11-.78h-.05l-1.31-.26a.22.22,0,0,1,.08-.44l1.32.26a.23.23,0,0,1,0,.45Zm149.52-.06a.22.22,0,0,1-.22-.18.21.21,0,0,1,.18-.26l1.32-.25a.22.22,0,0,1,.08.44l-1.32.25Zm-153.92-.82h0l-1.32-.26a.24.24,0,0,1-.18-.27.21.21,0,0,1,.26-.17l1.32.26a.22.22,0,0,1,.18.26A.22.22,0,0,1,135.84,179.73Zm158.32,0a.22.22,0,0,1-.22-.18.23.23,0,0,1,.18-.26l1.32-.25a.22.22,0,0,1,.27.17.24.24,0,0,1-.18.27l-1.32.25Zm4.41-.83a.22.22,0,0,1-.22-.19.23.23,0,0,1,.18-.26l1.32-.25a.23.23,0,0,1,.26.18.21.21,0,0,1-.18.26l-1.32.25Zm-167.13,0h0l-1.32-.26a.23.23,0,0,1-.18-.26.24.24,0,0,1,.27-.18l1.32.26a.23.23,0,0,1-.05.45ZM303,178.05a.22.22,0,0,1-.22-.18.21.21,0,0,1,.17-.26l1.33-.25a.22.22,0,0,1,.08.44l-1.32.25ZM127,178h0l-1.32-.26a.24.24,0,0,1-.18-.27.23.23,0,0,1,.27-.17l1.32.26a.21.21,0,0,1,.17.26A.22.22,0,0,1,127,178Zm180.34-.76a.23.23,0,0,1-.22-.18.23.23,0,0,1,.18-.26l1.32-.25a.21.21,0,0,1,.26.17.22.22,0,0,1-.17.27l-1.33.25Zm-184.73-.11h-.05l-1.32-.26a.21.21,0,0,1-.17-.26.23.23,0,0,1,.26-.18l1.32.26a.23.23,0,0,1,.17.27A.21.21,0,0,1,122.65,177.11Zm189.14-.72a.23.23,0,0,1,0-.45l1.32-.25a.22.22,0,0,1,.08.44l-1.32.25Zm-193.54-.16h0l-1.32-.26a.22.22,0,0,1-.17-.27.21.21,0,0,1,.26-.17l1.32.26a.23.23,0,0,1,.18.26A.22.22,0,0,1,118.25,176.23Zm198-.68a.23.23,0,0,1-.23-.18.23.23,0,0,1,.18-.26l1.33-.25a.22.22,0,0,1,.26.18.23.23,0,0,1-.18.26l-1.32.25Zm-202.35-.19h0l-1.31-.27a.21.21,0,0,1-.18-.26.23.23,0,0,1,.26-.18l1.32.27a.23.23,0,0,1,.18.26A.22.22,0,0,1,113.85,175.36Zm206.75-.64a.23.23,0,0,1,0-.45l1.32-.25a.23.23,0,0,1,.26.18.21.21,0,0,1-.18.26l-1.32.25Zm-211.15-.23h0l-1.32-.26a.23.23,0,0,1-.18-.26.21.21,0,0,1,.26-.18l1.32.26a.23.23,0,0,1,.18.27A.23.23,0,0,1,109.45,174.49Zm-4.4-.88h0l-1.32-.26a.24.24,0,0,1-.18-.27.22.22,0,0,1,.27-.17l1.32.26a.21.21,0,0,1,.17.26A.22.22,0,0,1,105.05,173.61Zm-4.4-.87h0l-1.32-.26a.23.23,0,0,1-.18-.26.24.24,0,0,1,.27-.18l1.32.26a.23.23,0,0,1,0,.45Zm221.93-.89h0a.23.23,0,0,1-.22-.23v-1.34a.23.23,0,0,1,.23-.23h0a.22.22,0,0,1,.22.23v1.34A.22.22,0,0,1,322.58,171.85Zm-224.92-1.2a.22.22,0,0,1-.22-.22l-.06-1.34a.22.22,0,0,1,.21-.23.23.23,0,0,1,.24.21l.06,1.34a.23.23,0,0,1-.22.24Zm224.88-3.29a.22.22,0,0,1-.22-.22l0-1.34a.22.22,0,1,1,.44,0c0,.45,0,.89,0,1.34a.22.22,0,0,1-.22.23ZM97.47,166.17a.22.22,0,0,1-.22-.22l0-1.34a.22.22,0,0,1,.21-.24.22.22,0,0,1,.23.22l0,1.34a.22.22,0,0,1-.21.24Zm224.93-3.29a.23.23,0,0,1-.22-.21l-.06-1.34a.23.23,0,1,1,.45,0l.06,1.34a.22.22,0,0,1-.22.23Zm-225.08-1.2a.23.23,0,0,1-.23-.21l0-1.35a.23.23,0,0,1,.22-.23.22.22,0,0,1,.23.22l0,1.34a.22.22,0,0,1-.22.23Zm224.85-3.27a.24.24,0,0,1-.22-.21l-.09-1.35a.22.22,0,0,1,.21-.23.22.22,0,0,1,.24.2l.09,1.35a.23.23,0,0,1-.21.24Zm-225-1.21A.22.22,0,0,1,97,157l0-1.35a.23.23,0,0,1,.45,0l0,1.34a.21.21,0,0,1-.21.23Zm224.66-3.27a.23.23,0,0,1-.23-.2c0-.45-.07-.9-.11-1.34a.23.23,0,0,1,.21-.25.22.22,0,0,1,.24.21c0,.44.07.89.11,1.34a.22.22,0,0,1-.21.24ZM97.13,152.72a.23.23,0,0,1-.23-.23v-1.34a.22.22,0,0,1,.22-.23.25.25,0,0,1,.23.22v1.35a.24.24,0,0,1-.22.23Zm224.33-3.26a.23.23,0,0,1-.23-.2c0-.45-.08-.89-.13-1.34a.22.22,0,0,1,.2-.24.23.23,0,0,1,.25.2c0,.44.09.89.13,1.34a.22.22,0,0,1-.2.24ZM97.09,148.23a.22.22,0,0,1-.22-.22v-1.35a.22.22,0,0,1,.22-.22h0a.22.22,0,0,1,.23.22V148a.22.22,0,0,1-.23.22ZM321,145a.22.22,0,0,1-.22-.2c-.05-.44-.1-.89-.16-1.33a.23.23,0,0,1,.2-.25.21.21,0,0,1,.25.19c.05.45.11.89.16,1.34a.23.23,0,0,1-.2.25ZM97.11,143.75h0a.22.22,0,0,1-.22-.23c0-.45,0-.89,0-1.34a.22.22,0,0,1,.23-.22h0a.22.22,0,0,1,.22.22c0,.45,0,.9,0,1.35A.22.22,0,0,1,97.11,143.75Zm223.33-3.2a.22.22,0,0,1-.22-.2L320,139a.22.22,0,0,1,.19-.25.21.21,0,0,1,.25.19l.18,1.34a.22.22,0,0,1-.19.25ZM97.18,139.27h0A.22.22,0,0,1,97,139l0-1.35a.22.22,0,0,1,.23-.22.24.24,0,0,1,.22.23c0,.45,0,.9,0,1.35A.22.22,0,0,1,97.18,139.27Zm222.64-3.16a.23.23,0,0,1-.22-.2c-.06-.44-.13-.89-.19-1.33a.22.22,0,0,1,.18-.25.22.22,0,0,1,.26.19c.07.44.13.88.2,1.33a.23.23,0,0,1-.19.25ZM97.31,134.78h0a.22.22,0,0,1-.21-.23c0-.45,0-.9,0-1.35a.21.21,0,0,1,.23-.21.23.23,0,0,1,.22.23l-.06,1.35A.21.21,0,0,1,97.31,134.78Zm221.83-3.11a.23.23,0,0,1-.22-.19l-.21-1.33a.22.22,0,0,1,.44-.07c.07.44.14.88.22,1.33a.23.23,0,0,1-.19.26ZM97.51,130.3h0a.23.23,0,0,1-.22-.24c0-.45,0-.9.08-1.35a.22.22,0,0,1,.24-.21.24.24,0,0,1,.21.24c0,.45,0,.9-.08,1.35A.21.21,0,0,1,97.51,130.3Zm220.89-3.05a.22.22,0,0,1-.22-.19q-.12-.68-.24-1.32a.22.22,0,0,1,.19-.26.22.22,0,0,1,.26.18c.07.43.15.87.23,1.32a.23.23,0,0,1-.18.26ZM97.79,125.82h0a.22.22,0,0,1-.2-.24c0-.45.06-.9.1-1.34a.22.22,0,0,1,.24-.21.23.23,0,0,1,.21.24c0,.45-.07.89-.11,1.34A.22.22,0,0,1,97.79,125.82Zm219.8-3a.22.22,0,0,1-.22-.18c-.08-.45-.17-.89-.25-1.32a.22.22,0,0,1,.18-.26.21.21,0,0,1,.26.17c.08.43.17.87.25,1.33a.21.21,0,0,1-.17.26ZM98.17,121.35h0a.21.21,0,0,1-.2-.25c0-.45.09-.89.13-1.34a.23.23,0,1,1,.45,0c0,.44-.09.89-.14,1.34A.23.23,0,0,1,98.17,121.35Zm218.55-2.92a.22.22,0,0,1-.22-.18q-.13-.68-.27-1.32a.21.21,0,0,1,.17-.26.23.23,0,0,1,.27.17c.08.42.18.86.27,1.32a.23.23,0,0,1-.17.27Zm-218-1.54h0a.23.23,0,0,1-.2-.25l.18-1.34a.24.24,0,0,1,.26-.19.23.23,0,0,1,.19.26l-.18,1.33A.22.22,0,0,1,98.68,116.89Zm216.6-2.36h0l-1.34-.15a.22.22,0,1,1,.05-.44l1.34.15a.23.23,0,0,1,.2.25A.24.24,0,0,1,315.28,114.53Zm-4.46-.47h0l-1.34-.12a.23.23,0,0,1,0-.45l1.34.12a.23.23,0,0,1,0,.45Zm-4.47-.38h0l-1.34-.1a.22.22,0,0,1-.21-.24.22.22,0,0,1,.24-.2l1.34.1a.22.22,0,0,1,.21.24A.23.23,0,0,1,306.35,113.68Zm-4.47-.31h0l-1.35-.09a.23.23,0,0,1-.21-.24.22.22,0,0,1,.24-.21l1.34.09a.22.22,0,0,1,.21.24A.21.21,0,0,1,301.88,113.37Zm-4.48-.27h0l-1.34-.08a.22.22,0,0,1-.21-.24.22.22,0,0,1,.23-.21l1.35.08a.22.22,0,0,1,.21.23A.24.24,0,0,1,297.4,113.1Zm-4.47-.24h0l-1.34-.07a.22.22,0,0,1-.21-.23.22.22,0,0,1,.23-.22l1.35.07a.22.22,0,0,1,.21.23A.24.24,0,0,1,292.93,112.86Zm-4.48-.21h0l-1.35-.06a.22.22,0,0,1-.21-.23.22.22,0,0,1,.23-.22l1.35.06a.22.22,0,0,1,.21.23A.24.24,0,0,1,288.45,112.65Zm-4.49-.19h0l-1.35,0a.23.23,0,0,1,0-.45L284,112a.23.23,0,0,1,.22.24A.23.23,0,0,1,284,112.46Zm-184.62,0h0a.22.22,0,0,1-.19-.25l.08-.43a.79.79,0,0,1,.77-.66h.12a.23.23,0,0,1,.23.22.22.22,0,0,1-.22.22H100a.34.34,0,0,0-.34.29l-.08.42A.22.22,0,0,1,99.34,112.46Zm180.14-.17h0l-1.35,0a.24.24,0,0,1-.22-.24.22.22,0,0,1,.24-.21l1.34,0a.22.22,0,0,1,.22.23A.23.23,0,0,1,279.48,112.29Zm-4.48-.15h0l-1.34,0a.23.23,0,0,1,0-.45l1.35,0a.22.22,0,0,1,.21.24A.21.21,0,0,1,275,112.14Zm-4.48-.13h0l-1.34,0a.22.22,0,0,1-.22-.23.22.22,0,0,1,.23-.22l1.35,0a.22.22,0,0,1,.21.23A.22.22,0,0,1,270.52,112Zm-4.48-.13h0l-1.35,0a.22.22,0,0,1-.21-.23.22.22,0,0,1,.23-.22l1.34,0a.22.22,0,0,1,.22.23A.21.21,0,0,1,266,111.88Zm-4.49-.11h0l-1.35,0a.22.22,0,0,1-.22-.23.23.23,0,0,1,.23-.22l1.35,0a.22.22,0,0,1,.22.22A.23.23,0,0,1,261.55,111.77Zm-4.48-.1h0l-1.34,0a.24.24,0,0,1-.22-.23.22.22,0,0,1,.23-.22l1.34,0a.22.22,0,0,1,.22.23A.22.22,0,0,1,257.07,111.67Zm-4.48-.09h0l-1.34,0a.22.22,0,0,1-.22-.23.22.22,0,0,1,.22-.22l1.35,0a.24.24,0,0,1,.22.23A.22.22,0,0,1,252.59,111.58Zm-149.36-.07a.22.22,0,0,1-.22-.22.22.22,0,0,1,.22-.22l1.35,0a.22.22,0,0,1,.22.22.21.21,0,0,1-.22.23h-1.35Zm144.87,0h0l-1.35,0a.23.23,0,1,1,0-.45l1.35,0a.23.23,0,0,1,0,.45Zm-140.38,0a.23.23,0,0,1,0-.45h1.34a.22.22,0,0,1,.23.22.24.24,0,0,1-.22.23Zm135.9,0h0l-1.34,0a.23.23,0,0,1-.22-.23.21.21,0,0,1,.23-.22l1.34,0a.22.22,0,0,1,.22.23A.22.22,0,0,1,243.62,111.43Zm-131.41,0a.22.22,0,0,1-.23-.22.24.24,0,0,1,.23-.23h1.34a.23.23,0,1,1,0,.45Zm4.48,0a.22.22,0,0,1-.22-.23.22.22,0,0,1,.22-.22l1.35,0a.22.22,0,0,1,.22.23.21.21,0,0,1-.22.22l-1.34,0Zm122.44,0h0l-1.35,0a.22.22,0,0,1-.22-.22.23.23,0,0,1,.23-.22h1.35a.24.24,0,0,1,.22.23A.22.22,0,0,1,239.13,111.36Zm-117.95,0a.22.22,0,0,1-.22-.22.22.22,0,0,1,.22-.23h1.34a.23.23,0,0,1,.23.22.22.22,0,0,1-.22.23Zm113.47,0H233.3a.23.23,0,0,1-.22-.23.22.22,0,0,1,.22-.22h0l1.34,0a.22.22,0,0,1,0,.44Zm-109,0a.22.22,0,0,1-.23-.22.23.23,0,0,1,.22-.23H127a.26.26,0,0,1,.23.22.23.23,0,0,1-.23.23Zm104.5,0h-1.35a.22.22,0,0,1-.22-.23.22.22,0,0,1,.22-.22h1.35a.23.23,0,0,1,.22.23A.22.22,0,0,1,230.17,111.25Zm-100,0a.22.22,0,0,1-.22-.22.24.24,0,0,1,.22-.23h1.35a.23.23,0,0,1,.22.23.22.22,0,0,1-.22.22Zm4.49,0a.23.23,0,1,1,0-.45H136a.21.21,0,0,1,.23.22.22.22,0,0,1-.22.23Zm91,0h0l-1.35,0a.22.22,0,0,1-.22-.22.23.23,0,0,1,.23-.23h0l1.34,0a.22.22,0,0,1,.23.22A.24.24,0,0,1,225.68,111.21Zm-86.56,0a.22.22,0,0,1-.22-.23.22.22,0,0,1,.22-.22h1.35a.22.22,0,0,1,.22.22.23.23,0,0,1-.22.23h-1.35Zm82.08,0h-1.35a.22.22,0,0,1-.22-.22.22.22,0,0,1,.22-.22h1.35a.22.22,0,0,1,.22.22A.22.22,0,0,1,221.2,111.16Zm-77.59,0a.22.22,0,0,1-.22-.23.21.21,0,0,1,.22-.22H145a.23.23,0,1,1,0,.45Zm73.1,0h-1.34a.23.23,0,1,1,0-.45h1.34a.23.23,0,1,1,0,.45Zm-68.61,0a.23.23,0,0,1,0-.45h1.35a.22.22,0,0,1,.22.23.21.21,0,0,1-.22.22Zm64.13,0h-1.35a.22.22,0,0,1-.22-.22.23.23,0,0,1,.22-.23h1.35a.22.22,0,0,1,.22.23A.22.22,0,0,1,212.23,111.1Zm-59.65,0a.22.22,0,0,1-.22-.23.22.22,0,0,1,.22-.22h1.35a.22.22,0,0,1,.22.22.22.22,0,0,1-.22.23Zm55.16,0H206.4a.23.23,0,1,1,0-.45h1.34a.23.23,0,1,1,0,.45Zm-50.67,0a.22.22,0,1,1,0-.44h1.34a.23.23,0,1,1,0,.45Zm4.48,0a.22.22,0,0,1-.22-.23.22.22,0,0,1,.22-.22h1.35a.22.22,0,0,1,.22.23.22.22,0,0,1-.22.22Zm41.71,0h-1.35a.22.22,0,0,1-.22-.22.22.22,0,0,1,.22-.23h1.35a.22.22,0,0,1,.22.22A.22.22,0,0,1,203.26,111.06ZM166,111a.23.23,0,1,1,0-.45h1.34a.23.23,0,1,1,0,.45Zm32.73,0h-1.34a.23.23,0,0,1-.23-.23.24.24,0,0,1,.23-.22h1.34a.23.23,0,1,1,0,.45Zm-28.25,0a.22.22,0,0,1-.22-.22.22.22,0,0,1,.22-.23h1.35a.22.22,0,0,1,.22.22.22.22,0,0,1-.22.23Zm23.77,0h-1.35a.23.23,0,0,1-.22-.23.22.22,0,0,1,.22-.22h1.35a.22.22,0,0,1,.22.22A.22.22,0,0,1,194.29,111ZM175,111a.23.23,0,1,1,0-.45h1.34a.23.23,0,1,1,0,.45Zm14.8,0h-1.35a.22.22,0,0,1-.22-.23.22.22,0,0,1,.22-.22h1.35a.22.22,0,0,1,.22.23A.22.22,0,0,1,189.81,111Zm-10.32,0a.22.22,0,0,1-.22-.23.22.22,0,0,1,.22-.22h1.35a.22.22,0,0,1,.22.22.22.22,0,0,1-.22.23Zm5.83,0H184a.23.23,0,1,1,0-.45h1.34a.23.23,0,1,1,0,.45Z"/><path class="cls-1" d="M203.83,189.53a8.85,8.85,0,0,1-3.45-.68,6,6,0,0,1-3.85-5.09,17.39,17.39,0,0,1,1.2-7.43,1,1,0,0,0-.11-1,1,1,0,0,0-.86-.45h-12a.89.89,0,0,1-.89-.9v-11.9a.86.86,0,0,0-.42-.75.9.9,0,0,0-.9,0,12.67,12.67,0,0,1-5.85,1.46c-5,0-6.81-6-7.08-9.49a8.21,8.21,0,0,1,3.76-6.25c1.78-1.12,4.81-1.92,9.13.58a.89.89,0,0,0,1.33-.77V133.08a.89.89,0,0,1,.9-.89h12.52a.41.41,0,0,0,.35-.2.35.35,0,0,0,0-.35,11.06,11.06,0,0,1-1.06-6.09,8.41,8.41,0,0,1,4.11-6.8,5.49,5.49,0,0,1,5.29,0c2.75,1.49,4.41,3.34,4.93,5.5a8.28,8.28,0,0,1-1.64,6.6h0a.37.37,0,0,0,0,.39.38.38,0,0,0,.35.21H224a.9.9,0,0,1,.9.9v14a.7.7,0,0,0,1.1.57,7.24,7.24,0,0,1,4.59-1.35,8.64,8.64,0,0,1,6.11,2.59,6.92,6.92,0,0,1,1.73,5.12c-.14,2.53-1.29,5.86-3.55,7.56a4.6,4.6,0,0,1-3.9.87,17.49,17.49,0,0,1-5-2.21.66.66,0,0,0-.7,0,.69.69,0,0,0-.36.62V175a.9.9,0,0,1-.9.9H209.55a1,1,0,0,0-.89.5,1,1,0,0,0,0,1c1.52,3.07,3.82,7.72.54,10.39A8.52,8.52,0,0,1,203.83,189.53Zm-18.15-16.4h11.08a2.83,2.83,0,0,1,2.65,3.84,15.39,15.39,0,0,0-1.09,6.64,4.28,4.28,0,0,0,2.76,3.59,7.11,7.11,0,0,0,6.93-.83c2-1.64.67-4.81-1-8.2a2.78,2.78,0,0,1,.14-2.72,2.81,2.81,0,0,1,2.41-1.34h13.6v-14a2.49,2.49,0,0,1,3.79-2.13,16.06,16.06,0,0,0,4.49,2,2.8,2.8,0,0,0,2.41-.56c1.51-1.13,2.71-3.75,2.84-6.22a5.12,5.12,0,0,0-1.27-3.81,6.88,6.88,0,0,0-4.86-2,5.48,5.48,0,0,0-3.48,1,2.49,2.49,0,0,1-3.92-2V133.23H209.6a2.18,2.18,0,0,1-1.94-1.18,2.15,2.15,0,0,1,.13-2.24,6.71,6.71,0,0,0,1.37-5.16c-.39-1.64-1.75-3.11-4-4.35a3.72,3.72,0,0,0-3.6,0,6.72,6.72,0,0,0-3.16,5.39,9,9,0,0,0,.87,5.09,2.12,2.12,0,0,1-.08,2.11,2.19,2.19,0,0,1-1.88,1.06H185.65v12.91a2.65,2.65,0,0,1-1.33,2.32,2.63,2.63,0,0,1-2.68,0c-2.86-1.65-5.3-1.85-7.28-.61a6.54,6.54,0,0,0-2.93,4.59c0,.32.64,7.83,5.29,7.83a10.87,10.87,0,0,0,5-1.26,2.69,2.69,0,0,1,2.65.09,2.65,2.65,0,0,1,1.28,2.28Zm22.85-42.81Z"/><path class="cls-11" d="M208.53,130.32c1.8-2.61,3.56-7.26-3-10.81-3.41-1.84-7.61,1-8.09,6.13a10,10,0,0,0,1,5.58,1.29,1.29,0,0,1-1.16,1.86H184.76v13.81a1.78,1.78,0,0,1-2.68,1.54c-8.2-4.74-11.69,2.91-11.54,4.83.15,2.11,1.32,8.66,6.18,8.66a11.89,11.89,0,0,0,5.44-1.36,1.78,1.78,0,0,1,2.62,1.57V174h12a1.94,1.94,0,0,1,1.81,2.62,16.37,16.37,0,0,0-1.15,7c.42,5.07,7.53,6.34,11.16,3.38,2.68-2.18.74-6.23-.77-9.29a1.92,1.92,0,0,1,1.74-2.76H224V160.13a1.6,1.6,0,0,1,2.43-1.37,17,17,0,0,0,4.76,2.11c3.59.84,6.14-3.81,6.34-7.61s-2.54-6.55-7-6.76a6.37,6.37,0,0,0-4,1.19,1.6,1.6,0,0,1-2.51-1.31v-14H209.6A1.28,1.28,0,0,1,208.53,130.32Z"/><path class="cls-12" d="M143.13,270.1a1.39,1.39,0,0,1-1.41-.86l-22.3-95.83c-.14-.57.39-1.1,1.17-1.2a1.46,1.46,0,0,1,1.65.85l22.31,95.83c.13.57-.4,1.1-1.18,1.2Z"/><path class="cls-12" d="M68.86,270.1a1.32,1.32,0,0,1-.28,0c-.78-.11-1.28-.66-1.13-1.22l26.3-94.58a1.48,1.48,0,0,1,1.69-.82c.77.12,1.27.66,1.12,1.23L70.27,269.27A1.41,1.41,0,0,1,68.86,270.1Z"/><path class="cls-13" d="M127.09,202.87H89a1.29,1.29,0,1,1,0-2.56h38.12a1.29,1.29,0,1,1,0,2.56Z"/><path class="cls-12" d="M126.4,202.87H89.66a1.28,1.28,0,1,1,0-2.56H126.4a1.28,1.28,0,1,1,0,2.56Z"/><path class="cls-14" d="M127.09,224.21H89a1.29,1.29,0,1,1,0-2.56h38.12a1.29,1.29,0,1,1,0,2.56Z"/><path class="cls-12" d="M131.91,224.21H82.27a1.3,1.3,0,1,1,0-2.56h49.64a1.3,1.3,0,1,1,0,2.56Z"/><path class="cls-15" d="M127.09,245.56H89A1.29,1.29,0,1,1,89,243h38.12a1.29,1.29,0,1,1,0,2.56Z"/><path class="cls-12" d="M136.4,245.56H77.14a1.3,1.3,0,1,1,0-2.56H136.4a1.3,1.3,0,1,1,0,2.56Z"/><path class="cls-12" d="M92.8,195.24s-.93,1.47-1.17,5.57a.67.67,0,0,0,.67.71h7.27A.42.42,0,0,0,100,201a11.66,11.66,0,0,0-4.59-6.1Z"/><path class="cls-16" d="M92.48,192.46l.41,3.45a.65.65,0,0,0,.57.57,5.68,5.68,0,0,0,1.54,0,1.07,1.07,0,0,0,.88-1.06v-3.33Z"/><path class="cls-12" d="M110.8,194.86a10.15,10.15,0,0,0-1.37,5.14,1.29,1.29,0,0,0,1.3,1.25H122a.54.54,0,0,0,.31-1c-2.14-1.5-6.34-4.31-9.38-5.41Z"/><path class="cls-17" d="M109.63,191.14l.88,4.26a.89.89,0,0,0,1,.69,3.21,3.21,0,0,0,1-.42,1,1,0,0,0,.45-1l-.9-5.16Z"/><path class="cls-12" d="M94.09,131.89s-3,2.69-3.62,5.93,1.62,55.85,1.62,55.85,3.06.5,4.63-.45c0,0,1.87-34.14,3.28-42,0,0,7.44,35.37,9.5,41.76,0,0,2.94.35,3.89-.21,0,0-2-45.84-4.4-54Z"/><path class="cls-18" d="M124.21,101.49c-12.85-1.06-16.21,1.6-16.21,1.6l6.18,9.74s12.62-.25,21.66-7.22a22.4,22.4,0,0,1-3.62-5.4A17.1,17.1,0,0,1,124.21,101.49Z"/><path class="cls-19" d="M144.32,82.64a.39.39,0,0,0-.75-.15L141.94,86a3.65,3.65,0,0,0-.3,2.16l.58,2a3.53,3.53,0,0,1-.72,2.8,24.42,24.42,0,0,1-9.28,7.22,22.4,22.4,0,0,0,3.62,5.4,22.2,22.2,0,0,0,7.72-10.71,1.71,1.71,0,0,0,1.21-1.7Z"/><path class="cls-20" d="M128.44,107.14c-4.53-4.87-13.14-7.07-18.13-8a4.57,4.57,0,0,0-5.11,2.9c-2.24,6-8.35,21.73-9.53,24.42-1,2.22-2,4.38-2.63,5.73a1.62,1.62,0,0,0,.76,2.16c4.19,2,11.74,4.31,14.8,5.21a1.06,1.06,0,0,0,1.35-1,3.23,3.23,0,0,1,.47-1.68L122,117.57c7.22,8,13.55,8.74,18.41,7a37.39,37.39,0,0,1-1.61-7.59C131.63,115.74,128.44,107.14,128.44,107.14Z"/><path class="cls-21" d="M150.68,115.62l-1.29-1.73c-4.2,2.89-7.71,3.57-10.58,3.08a37.39,37.39,0,0,0,1.61,7.59C146.83,122.25,150.68,115.62,150.68,115.62Z"/><path class="cls-22" d="M149.77,115.65l7.3.29,6.72-3.76c-1-.6-6.42.63-6.42.63s-5.7-.86-7.25-.86c-1.28,0-1.1,1.84-1,2.47,0,.12,0,.2,0,.2Z"/><path class="cls-23" d="M117.17,90.22l-3.85,9.4s4.43,3.06,8,2.77l1.92-8.45Z"/><path class="cls-24" d="M123.68,83.81c.09.12,2.79,9.87,2.79,9.87l-5.6,1.42-3.93-8.86S122.2,81.72,123.68,83.81Z"/><path class="cls-25" d="M119.05,87.59l1.7,4.83a.56.56,0,0,0,.09.17c.23.33,1.11,1.4,2.15.43a6.41,6.41,0,0,1,2.63-1.8.72.72,0,0,1,.81.51,30.37,30.37,0,0,1,.94,4.71.71.71,0,0,1-.58.77,23.24,23.24,0,0,1-5.34.44.73.73,0,0,1-.61-.41c-.53-1.17-2.16-4.71-2.77-5.62s-2-.84-2.56-.79a.66.66,0,0,1-.52-.17,1.85,1.85,0,0,1-.12-3,.71.71,0,0,0,0-1,1.86,1.86,0,0,1-.24-2.76,2.63,2.63,0,0,1,3.13-.75.71.71,0,0,0,.86-.32.57.57,0,0,1,.59-.27.71.71,0,0,0,.75-.72,2.13,2.13,0,0,1,1.65-2.23c2.44-.76,4,1.6,4.12,3.37s-2.55,2.43-4.14,2.32c-1.2-.1-2.1,1.1-2.46,1.68A.69.69,0,0,0,119.05,87.59Z"/><path class="cls-26" d="M118.71,93.37s-.4-3.06-1.67-3.21-2.52.89-1.25,2.61C117.37,94.91,118.71,93.37,118.71,93.37Z"/><path class="cls-1" d="M159.21,113.3H147.09a.9.9,0,0,1-.9-.9V97.57a.83.83,0,0,0-1.21-.74,17.59,17.59,0,0,1-5.36,1.88,7,7,0,0,1-5.85-2.06,8.69,8.69,0,0,1-2.79-7,9.19,9.19,0,0,1,9.6-8,7.22,7.22,0,0,1,4.16,1.65.74.74,0,0,0,.82.08.83.83,0,0,0,.48-.76v-13a.9.9,0,0,1,.9-.9h12.61a1.81,1.81,0,0,1,1.35,3,6.55,6.55,0,0,0-1.51,5,5.2,5.2,0,0,0,2.39,4.39c1.59.91,3.79.81,6.05-.27a6.45,6.45,0,0,0,3.78-4.9,6.69,6.69,0,0,0-2.71-6,.9.9,0,0,1-.26-1,.88.88,0,0,1,.84-.59h15.64a.89.89,0,0,1,.89.89v13.2a.89.89,0,0,0,1.38.74,8.38,8.38,0,0,1,8.77-1,7.88,7.88,0,0,1,4.47,6.12,9.76,9.76,0,0,1-2.55,7.5,7,7,0,0,1-5.64,1.9,15.19,15.19,0,0,1-5.57-1.54.88.88,0,0,0-1.27.8v15a.89.89,0,0,1-.89.9H172a2.19,2.19,0,0,1-1.75-3.49,6.83,6.83,0,0,0,.87-5.82A5.91,5.91,0,0,0,168.7,100a6.92,6.92,0,0,0-5.47-.07,5.72,5.72,0,0,0-2.92,3.92,7.38,7.38,0,0,0,.75,6.08h0a2.19,2.19,0,0,1-1.85,3.36ZM148,111.5h11.23a.38.38,0,0,0,.34-.2.36.36,0,0,0,0-.4h0a9.16,9.16,0,0,1-1-7.5,7.5,7.5,0,0,1,3.87-5.07,8.73,8.73,0,0,1,7,0c1.41.62,2.77,2.56,3.38,4.83a8.62,8.62,0,0,1-1.15,7.35.4.4,0,0,0,0,.43.38.38,0,0,0,.34.2h11.86V97.13a2.67,2.67,0,0,1,3.86-2.4,13.33,13.33,0,0,0,4.91,1.35,5.21,5.21,0,0,0,4.25-1.39,8,8,0,0,0,2-6.12,6.09,6.09,0,0,0-3.47-4.6,6.71,6.71,0,0,0-7,.81,2.65,2.65,0,0,1-2.75.17,2.68,2.68,0,0,1-1.44-2.38V70.27H171.6a8,8,0,0,1,1.79,6,8.23,8.23,0,0,1-4.79,6.29c-2.8,1.34-5.61,1.42-7.71.21A7,7,0,0,1,157.6,77a8.36,8.36,0,0,1,2-6.34l-11.72,0V82.68a2.63,2.63,0,0,1-1.49,2.38,2.56,2.56,0,0,1-2.72-.3,5.45,5.45,0,0,0-3.13-1.26,7.45,7.45,0,0,0-7.72,6.38A6.84,6.84,0,0,0,135,95.35a5.26,5.26,0,0,0,4.34,1.58,15.8,15.8,0,0,0,4.81-1.69,2.62,2.62,0,0,1,2.57.09A2.58,2.58,0,0,1,148,97.57Z"/><path class="cls-27" d="M160.3,110.42a8.23,8.23,0,0,1-.85-6.79c1.58-5.92,7-5.6,9.61-4.44,2.22,1,4.82,6.76,1.86,10.83a1.29,1.29,0,0,0,1,2.06h12.76v-15a1.77,1.77,0,0,1,2.56-1.6A14.54,14.54,0,0,0,192.51,97c5.07.42,7.47-4,7.22-8.46-.21-3.84-5.81-8.65-11.83-4.48a1.77,1.77,0,0,1-2.78-1.47V69.37H169.48c4.86,4.09,3.59,10.07-1.27,12.39s-9.29.43-9.71-4.86a7.38,7.38,0,0,1,1.73-5.67.91.91,0,0,0-.68-1.51H146.94v13a1.72,1.72,0,0,1-2.76,1.38,6.3,6.3,0,0,0-3.64-1.45,8.33,8.33,0,0,0-8.67,7.18c-.42,4.23,3.6,8.66,7.61,8A17.13,17.13,0,0,0,144.57,96a1.72,1.72,0,0,1,2.52,1.53V112.4h12.12A1.29,1.29,0,0,0,160.3,110.42Z"/><path class="cls-1" d="M166.74,232.34h-.62c-2.94-.12-5-1.05-6.11-2.77-1.68-2.57-.79-6.23.25-8.85a.77.77,0,0,0-.08-.72.74.74,0,0,0-.63-.34H147.14a.9.9,0,0,1-.9-.9V204.24a2.58,2.58,0,0,1,1.3-2.25,2.62,2.62,0,0,1,2.64,0,8.91,8.91,0,0,0,4.35,1.3,6.35,6.35,0,0,0,4.54-2.41,7.56,7.56,0,0,0,2-5.86,7.83,7.83,0,0,0-3-5.38,3.94,3.94,0,0,0-3.22-.64,12.32,12.32,0,0,0-4.28,2.42,2.62,2.62,0,0,1-4.26-2V174a.89.89,0,0,1,.9-.89h11.3a1,1,0,0,0,.91-1.53,12.62,12.62,0,0,1-1.27-3.72c-.62-3.77,1.26-5.33,2.44-5.92,2.95-1.47,7.93-.27,10.66,2.57,1.8,1.87,1.9,4.38.3,7.07a1.07,1.07,0,0,0,0,1.08,1,1,0,0,0,.9.51h12.42a.9.9,0,0,1,.9.9v14.69a2.68,2.68,0,0,1-4,2.33c-3.08-1.73-6.13-2.07-8-.9s-2.48,3.51-2.22,7c.18,2.29.9,3.84,2.16,4.6,2.23,1.35,5.88.12,7.85-.73h0a2.63,2.63,0,0,1,2.52.22,2.66,2.66,0,0,1,1.21,2.24v13.71a.89.89,0,0,1-.9.89H172a.74.74,0,0,0-.68.42.8.8,0,0,0,.09.84c2.12,2.77,3.57,6.89,2,9.84C172.7,230.64,170.92,232.34,166.74,232.34ZM148,217.86h11.51a2.56,2.56,0,0,1,2.37,3.52c-.72,1.81-1.74,5.17-.41,7.2.78,1.21,2.36,1.87,4.68,1.95,2,.08,4.67-.23,5.68-2.19s.22-5.18-1.88-7.92a2.6,2.6,0,0,1-.27-2.72,2.54,2.54,0,0,1,2.29-1.42h11.42V203.47a.9.9,0,0,0-1.23-.82c-2.79,1.21-6.71,2.3-9.49.62-1.78-1.07-2.8-3.09-3-6-.4-5.28,1.43-7.61,3-8.63,2.44-1.55,6.11-1.24,9.82.85a.86.86,0,0,0,.89,0,.85.85,0,0,0,.44-.76V174.93H172.36a2.84,2.84,0,0,1-2.42-4.31c1.78-3,.4-4.43-.06-4.91-2.16-2.25-6.32-3.32-8.56-2.2-1.3.65-1.8,2-1.47,4a11,11,0,0,0,1.09,3.19,2.83,2.83,0,0,1-2.5,4.15H148v14.5a.79.79,0,0,0,.46.74.81.81,0,0,0,.88-.1,14,14,0,0,1,5-2.75,5.74,5.74,0,0,1,4.65.9,9.6,9.6,0,0,1,3.82,6.6,9.47,9.47,0,0,1-2.39,7.3,8.06,8.06,0,0,1-5.9,3,10.53,10.53,0,0,1-5.23-1.53.83.83,0,0,0-.86,0,.8.8,0,0,0-.4.7Z"/><path class="cls-27" d="M181.85,201.83c-3.79,1.64-10.65,3.44-11.26-4.63-.72-9.56,6-10,11.53-6.93a1.78,1.78,0,0,0,2.66-1.55V174H172.36a1.94,1.94,0,0,1-1.65-2.95c1.06-1.77,1.68-4.05-.18-6-3.65-3.8-12.78-4.8-11.56,2.58a11.66,11.66,0,0,0,1.18,3.45,1.93,1.93,0,0,1-1.71,2.84h-11.3v15.4a1.72,1.72,0,0,0,2.8,1.34,13.5,13.5,0,0,1,4.63-2.58c3.41-.85,6.72,2.32,7.36,6.76s-3.38,9.3-7.4,9.3a9.88,9.88,0,0,1-4.79-1.42,1.73,1.73,0,0,0-2.6,1.48v14.51h12.41a1.67,1.67,0,0,1,1.54,2.29c-1.42,3.57-2.89,10.08,5.06,10.39,8.9.34,8.1-6.92,4.56-11.56a1.66,1.66,0,0,1,1.3-2.69h12.31V203.47A1.78,1.78,0,0,0,181.85,201.83Z"/><path class="cls-1" d="M184.78,174.93H172.36a2.84,2.84,0,0,1-2.42-4.31c1.78-3,.4-4.43-.06-4.91-2.16-2.25-6.32-3.32-8.56-2.2-1.3.65-1.8,2-1.47,4a11,11,0,0,0,1.09,3.19h0a2.83,2.83,0,0,1-2.5,4.15h-11.3a.9.9,0,0,1-.9-.9V161.54a2.63,2.63,0,0,1,1.19-2.2,2.59,2.59,0,0,1,2.44-.23,13.64,13.64,0,0,0,4.74,1.07,6.08,6.08,0,0,0,4.86-1.93,7.17,7.17,0,0,0,1.63-5.93,5.93,5.93,0,0,0-2.55-4.43,4.75,4.75,0,0,0-3.69-.74,18.6,18.6,0,0,0-4.5,2.61,2.62,2.62,0,0,1-4.12-2.15V133.4a.9.9,0,0,1,.9-.9h12.12a.41.41,0,0,0,.35-.2.38.38,0,0,0,0-.4,9.16,9.16,0,0,1-1-7.5,7.5,7.5,0,0,1,3.87-5.07,8.81,8.81,0,0,1,7,0c1.41.62,2.77,2.56,3.38,4.83a8.62,8.62,0,0,1-1.15,7.35.4.4,0,0,0,0,.43.37.37,0,0,0,.34.21h12.76a.89.89,0,0,1,.89.89v13.81a2.65,2.65,0,0,1-1.33,2.32,2.63,2.63,0,0,1-2.68,0c-2.86-1.65-5.3-1.85-7.28-.61a6.54,6.54,0,0,0-2.93,4.59c0,.32.64,7.83,5.29,7.83a10.87,10.87,0,0,0,5-1.26,2.69,2.69,0,0,1,2.65.09,2.65,2.65,0,0,1,1.28,2.28V174A.9.9,0,0,1,184.78,174.93Zm-21.26-13.66a11.14,11.14,0,0,1,7.66,3.2c1.8,1.87,1.9,4.38.3,7.07a1.07,1.07,0,0,0,0,1.08,1,1,0,0,0,.9.51h11.53v-11a.86.86,0,0,0-.42-.75.9.9,0,0,0-.9,0,12.67,12.67,0,0,1-5.85,1.46c-5,0-6.81-6-7.08-9.49a8.21,8.21,0,0,1,3.76-6.25c1.78-1.12,4.81-1.92,9.13.58a.89.89,0,0,0,1.33-.77V134H172a2.19,2.19,0,0,1-1.75-3.49,6.83,6.83,0,0,0,.87-5.82,5.88,5.88,0,0,0-2.37-3.65,6.88,6.88,0,0,0-5.47-.07,5.7,5.7,0,0,0-2.92,3.91,7.37,7.37,0,0,0,.75,6.08,2.19,2.19,0,0,1-1.85,3.36H148v13.31a.81.81,0,0,0,.44.73.79.79,0,0,0,.85-.05,21.18,21.18,0,0,1,5-2.86,6.57,6.57,0,0,1,5.17,1,7.66,7.66,0,0,1,3.35,5.7,9,9,0,0,1-2.08,7.37,7.88,7.88,0,0,1-6.28,2.51,15.28,15.28,0,0,1-5.35-1.21.76.76,0,0,0-.75.08.82.82,0,0,0-.38.7v11.53h10.4a1,1,0,0,0,.91-1.53,12.62,12.62,0,0,1-1.27-3.72c-.62-3.77,1.26-5.33,2.44-5.92A6.74,6.74,0,0,1,163.52,161.27Z"/><path class="cls-27" d="M160.15,171.12a11.66,11.66,0,0,1-1.18-3.45c-1.22-7.38,7.91-6.38,11.56-2.58,1.86,1.94,1.24,4.22.18,6a1.94,1.94,0,0,0,1.65,2.95h12.42v-11.9a1.78,1.78,0,0,0-2.62-1.57,11.89,11.89,0,0,1-5.44,1.36c-4.86,0-6-6.55-6.18-8.66-.15-1.92,3.34-9.57,11.54-4.83a1.78,1.78,0,0,0,2.68-1.54V133.08H172a1.29,1.29,0,0,1-1-2.06c3-4.07.37-9.85-1.86-10.83-2.64-1.16-8-1.47-9.61,4.44a8.23,8.23,0,0,0,.85,6.79,1.29,1.29,0,0,1-1.09,2H147.14v14.21a1.72,1.72,0,0,0,2.7,1.41,22.37,22.37,0,0,1,4.77-2.73c2.19-.64,6.68.63,7.38,5.91s-2.81,9.09-7.42,8.88a14.85,14.85,0,0,1-5-1.14,1.73,1.73,0,0,0-2.38,1.6V174h11.3A1.93,1.93,0,0,0,160.15,171.12Z"/><path class="cls-8" d="M224,76c0-.49-.54-.91-1.39-1.25.92-.51,1.43-1,1.39-1.59-.13-1.61-5.25-2.52-11.43-2S201.51,73.33,201.64,75c0,.48.54.91,1.38,1.25-.92.51-1.43,1-1.38,1.58s.54.92,1.38,1.26c-.92.51-1.43,1-1.38,1.58s.54.92,1.38,1.26c-.92.5-1.43,1.05-1.38,1.58.05.72,1.09,1.29,2.75,1.67a15.15,15.15,0,0,0,.05,1.74c.24,3,3.59,5.31,8,5.31s8.26-3.18,8.3-6.17a16.37,16.37,0,0,0-.08-1.94c2.11-.71,3.4-1.57,3.34-2.41,0-.49-.54-.92-1.39-1.26.92-.5,1.43-1.05,1.39-1.58s-.54-.91-1.39-1.25C223.54,77.06,224.05,76.51,224,76Z"/><path class="cls-11" d="M209.73,85.77a27.1,27.1,0,0,1-4.9-.4.15.15,0,0,1-.12-.17.14.14,0,0,1,.17-.12,32.63,32.63,0,0,0,8.16.26,35.34,35.34,0,0,0,6.85-1.19.15.15,0,0,1,.18.11.14.14,0,0,1-.1.18,35.13,35.13,0,0,1-6.9,1.19C211.92,85.72,210.8,85.77,209.73,85.77Z"/><path class="cls-11" d="M209.76,82.93a23.66,23.66,0,0,1-6-.65.16.16,0,0,1-.1-.19.14.14,0,0,1,.18-.1A34.29,34.29,0,0,0,222,80.55a.14.14,0,0,1,.2.07.15.15,0,0,1-.07.19,29.07,29.07,0,0,1-9.07,2C211.94,82.88,210.82,82.93,209.76,82.93Z"/><path class="cls-11" d="M209.73,80.09a21.61,21.61,0,0,1-6.34-.76.16.16,0,0,1-.1-.19.14.14,0,0,1,.19-.09,27.27,27.27,0,0,0,9.56.61,29,29,0,0,0,9-2,.14.14,0,0,1,.2.07.16.16,0,0,1-.07.2,29.46,29.46,0,0,1-9.07,2C211.92,80.05,210.8,80.09,209.73,80.09Z"/><path class="cls-11" d="M209.75,77.25a25.81,25.81,0,0,1-5.35-.48.15.15,0,0,1,.07-.29,31.19,31.19,0,0,0,8.57.34A29.37,29.37,0,0,0,222,74.89a.14.14,0,0,1,.19.07.15.15,0,0,1-.07.2,29.73,29.73,0,0,1-9,2C211.93,77.21,210.81,77.25,209.75,77.25Z"/><path class="cls-28" d="M197.49,61.65a20.92,20.92,0,0,0-3.74-7.3,48.36,48.36,0,0,1-10.42-26.93C182.26,8.71,198.85-.66,214,.61s30.08,12.55,28.45,30c-1,10.71-7,18.83-11.47,23.5A24.87,24.87,0,0,0,225,64.61c-1.34,4.84-4.53,10.87-12.1,11.23C203.12,76.32,199.05,67.18,197.49,61.65Z"/><path class="cls-10" d="M215.43,72.11l5.3-34.46c.11-.71.46-1.19.78-1.07s.5.8.39,1.51v.06l-6,34.15c0,.25-.17.42-.29.36S215.39,72.36,215.43,72.11Z"/><path class="cls-10" d="M209.93,72.39l-5.3-34.47c-.11-.71-.46-1.19-.78-1.06s-.49.79-.39,1.51v.06l6,34.14c.05.26.18.42.29.36S210,72.64,209.93,72.39Z"/><path class="cls-1" d="M220.69,34.69a.54.54,0,0,0-.69-.18l-2.95,1.38L216,33a.61.61,0,0,0-.36-.36.72.72,0,0,0-.9.28h0l-2.42,4.42L210.07,31v0a.69.69,0,0,0-.34-.38.87.87,0,0,0-1.11.22l-3.4,4.67a.42.42,0,0,0,.12.59.57.57,0,0,0,.72-.08l3-3.33,2.69,6h0a.56.56,0,0,0,.24.24.57.57,0,0,0,.7-.19l2.6-4.16,1,2.11v0l0,0a.54.54,0,0,0,.69.18l3.5-1.64A.41.41,0,0,0,220.69,34.69Z"/><path class="cls-1" d="M231.1,49.63a.73.73,0,0,1-.4-.13.68.68,0,0,1-.14-1A39.3,39.3,0,0,0,233,44.82a.68.68,0,0,1,.92-.25.67.67,0,0,1,.24.92,40.18,40.18,0,0,1-2.54,3.87A.7.7,0,0,1,231.1,49.63Z"/><path class="cls-1" d="M235.46,42.15a.66.66,0,0,1-.27-.06.67.67,0,0,1-.35-.88,31.47,31.47,0,0,0,.72-23.83.68.68,0,0,1,.33-.89.66.66,0,0,1,.89.33c.22.46,5.13,11.48-.71,24.92A.66.66,0,0,1,235.46,42.15Z"/><path class="cls-1" d="M201.88,215.25l.66-1.18a.31.31,0,0,1,.42-.13.33.33,0,0,1,.13.43h0l-.65,1.16h0a.32.32,0,0,1-.43.12A.32.32,0,0,1,201.88,215.25Z"/><path class="cls-1" d="M204.2,211.38l.77-1.12a.32.32,0,0,1,.53.37h0l-.76,1.1h0a.32.32,0,0,1-.44.08A.31.31,0,0,1,204.2,211.38Z"/><path class="cls-1" d="M206.88,207.75l.87-1a.33.33,0,0,1,.46-.05.34.34,0,0,1,0,.46h0l-.86,1h0a.32.32,0,0,1-.5-.41Z"/><path class="cls-1" d="M209.87,204.37l.95-1a.33.33,0,1,1,.47.47h0l-.95,1h0a.33.33,0,0,1-.47,0A.32.32,0,0,1,209.87,204.37Z"/><path class="cls-1" d="M213.12,201.24l1-.88a.34.34,0,1,1,.45.51h0l-1,.87h0a.34.34,0,1,1-.44-.52Z"/><path class="cls-1" d="M216.6,198.38l1.08-.81a.35.35,0,1,1,.42.55h0l-1.07.8h0a.34.34,0,0,1-.41-.55Z"/><path class="cls-1" d="M220.27,195.76l1.13-.73a.34.34,0,0,1,.49.1.35.35,0,0,1-.1.49h0l-1.12.72h0a.36.36,0,0,1-.38-.6Z"/><path class="cls-1" d="M224.1,193.39l1.18-.67a.36.36,0,0,1,.49.14.37.37,0,0,1-.13.5h0l-1.17.66h0a.36.36,0,1,1-.36-.63Z"/><path class="cls-1" d="M228.07,191.25l1.21-.59a.37.37,0,1,1,.33.66h0l-1.2.58h0a.38.38,0,0,1-.49-.17A.37.37,0,0,1,228.07,191.25Z"/><path class="cls-1" d="M232.15,189.35l1.24-.53a.39.39,0,0,1,.5.2.37.37,0,0,1-.2.49h0l-1.23.52h0a.37.37,0,0,1-.29-.69Z"/><path class="cls-1" d="M236.33,187.66l1.27-.46a.38.38,0,0,1,.49.23.37.37,0,0,1-.23.49h0l-1.26.45h0a.38.38,0,1,1-.26-.72Z"/><path class="cls-1" d="M240.59,186.2l1.28-.4a.4.4,0,0,1,.5.26.41.41,0,0,1-.26.49h0l-1.28.39h0a.4.4,0,0,1-.49-.26A.38.38,0,0,1,240.59,186.2Z"/><path class="cls-1" d="M244.9,184.92l1.3-.34a.39.39,0,0,1,.49.28.4.4,0,0,1-.28.49h0l-1.3.34h0a.39.39,0,0,1-.48-.28A.4.4,0,0,1,244.9,184.92Z"/><path class="cls-1" d="M249.26,183.82l1.31-.31a.41.41,0,0,1,.49.31.4.4,0,0,1-.3.49h0l-1.31.3h0a.41.41,0,1,1-.18-.79Z"/><path class="cls-1" d="M253.65,182.85l1.32-.26a.41.41,0,0,1,.17.81h0l-1.31.26h0a.4.4,0,0,1-.48-.32A.41.41,0,0,1,253.65,182.85Z"/><path class="cls-1" d="M258.07,182l1.32-.23a.42.42,0,0,1,.15.83h0l-1.33.23h0a.42.42,0,1,1-.14-.83Z"/><path class="cls-1" d="M262.5,181.27l1.33-.21a.44.44,0,0,1,.49.36.43.43,0,0,1-.36.49h0l-1.33.2a.43.43,0,0,1-.49-.35A.42.42,0,0,1,262.5,181.27Z"/><path class="cls-1" d="M266.94,180.61l1.33-.19a.43.43,0,0,1,.49.37.44.44,0,0,1-.37.5h0l-1.33.18a.43.43,0,0,1-.49-.37A.42.42,0,0,1,266.94,180.61Z"/><path class="cls-1" d="M271.38,180l1.34-.17a.44.44,0,0,1,.5.38.45.45,0,0,1-.38.5h0l-1.33.17a.45.45,0,0,1-.5-.38A.44.44,0,0,1,271.38,180Z"/><path class="cls-1" d="M275.84,179.43l1.33-.17a.45.45,0,0,1,.51.39.46.46,0,0,1-.39.51h0l-1.33.16a.45.45,0,0,1-.11-.89Z"/><path class="cls-1" d="M280.29,178.87l1.33-.17a.46.46,0,1,1,.12.91h0l-1.34.17a.46.46,0,1,1-.11-.91Z"/><path class="cls-1" d="M284.74,178.3l1.33-.17a.46.46,0,0,1,.12.92h0l-1.34.17a.46.46,0,0,1-.52-.4A.47.47,0,0,1,284.74,178.3Z"/><path class="cls-1" d="M289.18,177.7l1.33-.19a.47.47,0,0,1,.54.4.49.49,0,0,1-.41.54h0l-1.33.19a.47.47,0,1,1-.13-.94Z"/><path class="cls-1" d="M293.61,177.05l1.32-.21h0a.49.49,0,0,1,.16,1h0l-1.33.2a.48.48,0,1,1-.15-.94Z"/><path class="cls-1" d="M298,176.31l1.32-.24h0a.49.49,0,0,1,.57.4.48.48,0,0,1-.39.56h0l-1.33.24a.49.49,0,0,1-.57-.39.5.5,0,0,1,.4-.57Z"/><path class="cls-1" d="M302.41,175.48l1.32-.28h0a.5.5,0,0,1,.2,1h0l-1.32.27a.51.51,0,0,1-.59-.39.49.49,0,0,1,.39-.58Z"/><path class="cls-1" d="M306.78,174.52l1.3-.31h0a.51.51,0,0,1,.61.38.5.5,0,0,1-.38.6h0l-1.31.31a.5.5,0,1,1-.23-1Z"/><path class="cls-1" d="M311.11,173.44l1.29-.36h0a.51.51,0,0,1,.63.36.52.52,0,0,1-.36.63h0l-1.3.35a.51.51,0,0,1-.63-.36.51.51,0,0,1,.36-.62Z"/><path class="cls-1" d="M315.4,172.19l1.28-.4h0a.53.53,0,0,1,.65.34.51.51,0,0,1-.33.65h0l-1.29.41a.52.52,0,1,1-.31-1Z"/><path class="cls-1" d="M319.63,170.77l1.25-.46h0a.53.53,0,0,1,.68.31.52.52,0,0,1-.31.67h0l-1.27.46a.52.52,0,0,1-.67-.31.53.53,0,0,1,.31-.68Z"/><path class="cls-1" d="M323.78,169.16l1.23-.53h0a.53.53,0,1,1,.42,1h0l-1.25.53a.53.53,0,0,1-.41-1Z"/><path class="cls-1" d="M327.85,167.33l1.19-.59h0a.55.55,0,0,1,.73.25.54.54,0,0,1-.25.72h0l-1.22.6a.54.54,0,1,1-.47-1Z"/><path class="cls-1" d="M331.79,165.27l1.16-.66h0a.55.55,0,0,1,.75.21.56.56,0,0,1-.2.75h0l-1.17.67a.55.55,0,0,1-.75-.21.54.54,0,0,1,.21-.74Z"/><path class="cls-1" d="M335.6,163l1.11-.74h0a.55.55,0,1,1,.62.92h0l-1.13.74a.56.56,0,0,1-.77-.15.57.57,0,0,1,.16-.77Z"/><path class="cls-1" d="M339.24,160.42l1.06-.81h0a.56.56,0,0,1,.79.1.57.57,0,0,1-.1.79h0l-1.08.83a.56.56,0,0,1-.78-.1.57.57,0,0,1,.1-.79Z"/><path class="cls-1" d="M342.68,157.61l1-.89h0a.57.57,0,0,1,.76.84h0l-1,.91a.57.57,0,1,1-.76-.84Z"/><path class="cls-1" d="M345.89,154.54l.92-1h0a.58.58,0,0,1,.84.8h0l-.93,1a.58.58,0,1,1-.84-.8Z"/><path class="cls-1" d="M348.87,151.25l.84-1h0a.58.58,0,0,1,.9.74h0l-.86,1.05a.59.59,0,0,1-.82.08.58.58,0,0,1-.08-.82Z"/><path class="cls-1" d="M351.59,147.74l.77-1.08h0a.6.6,0,0,1,.83-.15.6.6,0,0,1,.14.83h0l-.79,1.11a.59.59,0,1,1-1-.69Z"/><path class="cls-1" d="M354.06,144.05l.69-1.14h0a.6.6,0,0,1,1,.63h0l-.71,1.16a.6.6,0,0,1-.82.2.61.61,0,0,1-.2-.83Z"/><path class="cls-1" d="M356.27,140.2l.61-1.19h0a.61.61,0,1,1,1.08.56h0l-.63,1.21a.6.6,0,0,1-.81.25.59.59,0,0,1-.26-.81Z"/><path class="cls-1" d="M358.21,136.2l.53-1.23h0a.62.62,0,0,1,.81-.32.61.61,0,0,1,.32.81h0l-.54,1.25a.62.62,0,1,1-1.13-.49Z"/><path class="cls-1" d="M359.86,132.08l.45-1.26h0a.62.62,0,0,1,.79-.39.63.63,0,0,1,.39.8h0L361,132.5a.62.62,0,0,1-1.17-.41Z"/><path class="cls-1" d="M361.23,127.85l.36-1.29h0a.63.63,0,0,1,.77-.44.62.62,0,0,1,.44.78h0l-.36,1.31a.63.63,0,0,1-1.21-.34Z"/><path class="cls-1" d="M362.3,123.54l.27-1.31h0a.64.64,0,0,1,.75-.5.64.64,0,0,1,.5.75h0l-.27,1.34a.64.64,0,0,1-1.25-.26Z"/><path class="cls-1" d="M363.07,119.17l.17-1.32v0a.65.65,0,0,1,.73-.55.63.63,0,0,1,.55.72h0l-.17,1.35a.65.65,0,0,1-1.28-.17Z"/><path class="cls-1" d="M363.53,114.75l.07-1.32v0a.65.65,0,0,1,.69-.61.64.64,0,0,1,.61.68h0l-.08,1.35a.65.65,0,0,1-1.29-.07Z"/><path class="cls-1" d="M363.66,110.32l0-1.33h0a.66.66,0,0,1,.65-.67.65.65,0,0,1,.67.64h0l0,1.35a.66.66,0,1,1-1.31,0Z"/><path class="cls-1" d="M363.46,105.89l-.12-1.32v0a.67.67,0,0,1,.61-.72.66.66,0,0,1,.72.6h0l.13,1.36a.68.68,0,0,1-.61.72.67.67,0,0,1-.72-.6Z"/><path class="cls-1" d="M362.92,101.49l0-.2h0a.67.67,0,0,1,1.33-.22h0l0,.2a.67.67,0,0,1-.55.77.68.68,0,0,1-.78-.56Z"/><path class="cls-8" d="M307.76,148.35s2.59,1.26,3.06,2.71c.38,1.15,3.24,1.3,3.52,3.58a2.62,2.62,0,0,0,2.19,2.3c2.92.45,7.42,2,8.14,7,.55,3.87-1.42,5.34-3.49,5.85A2.92,2.92,0,0,0,319,173.2c.29,1.48-.15,3.18-2.7,4.52-5.71,3-11.42-7.14-11.42-7.14l-1.17-17.74Z"/><path class="cls-29" d="M280.86,139s7.35,20.05,19.88,26.31c0,0-4.17,6.81-6.34,7.22,0,0-13.39-17.13-14.75-31.17Z"/><path class="cls-27" d="M331.25,259.58l.37,3a1.25,1.25,0,0,0,1.1,1.1,19.62,19.62,0,0,0,4.07.07,1.08,1.08,0,0,0,.91-1.4,11.3,11.3,0,0,0-2-4h-3.38A1,1,0,0,0,331.25,259.58Z"/><path class="cls-30" d="M304.84,224l-.57,3.35s1.91,19.31,2.24,27a6,6,0,0,1-.89,3.44l-3.32,5.38,8.43-5,.17-1-1.38-1.89,1.8-21.63a6.58,6.58,0,0,0-.75-3.67l-1.74-3.28Z"/><path class="cls-27" d="M301.75,264h2.69a1.6,1.6,0,0,0,1.28-.63c.84-1.09,2.58-3.21,3.41-3.27,1.11-.07,1,3.9,1,3.9h.63l.79-4.93A2.93,2.93,0,0,0,310,256h0a4.17,4.17,0,0,1-1.64,2.73c-1.39.83-5.64,3.82-5.64,3.82a4,4,0,0,0-1.09,0A.71.71,0,0,0,301.75,264Z"/><path class="cls-31" d="M316.38,225.56s11.16,21.18,12.94,26a46.63,46.63,0,0,1,2.42,9.25c0,.6.78,1.17,2.83,1.17a2,2,0,0,0,1.82-.83,1.2,1.2,0,0,0,.05-1.16c-.65-1.3-2.7-5.48-3.46-7.38-.9-2.26-2.85-12.51-3.92-16.08s-2.28-7.43-6.94-11C322.12,225.56,318.93,222.43,316.38,225.56Z"/><path class="cls-25" d="M309.32,190.85c-2.88-12.2,4.42-19.11,4.42-19.11-4.61-4.42-13-6.43-13-6.43s-8,5.85-7.05,10.43c.56,2.69,5.63,16.09,5.63,16.09A11.11,11.11,0,0,0,309.32,190.85Z"/><path class="cls-20" d="M315.71,196.9c-1.17-3.54-6.39-6.05-6.39-6.05a11.11,11.11,0,0,1-10,1,19.92,19.92,0,0,0-.33,7.75c.73,3.74,5.28,27.74,5.28,27.74,7.17,1.45,18.21-1.46,18.21-1.46C317.91,217.74,316.88,200.43,315.71,196.9Z"/><path class="cls-32" d="M306,157.24l2.34,10.52c.22.93-.62.78-1.56.6-1.53-.29-3.51-.88-4.17-2.08a1,1,0,0,1-.12-.39l-1-7.3a1.3,1.3,0,0,1,.77-1.37l1.94-.87A1.32,1.32,0,0,1,306,157.24Z"/><path class="cls-33" d="M303.23,147.23a10.39,10.39,0,0,0-4.66,5.18c-1.89,4-.48,5.86,1.29,6.11a8.3,8.3,0,0,0,7.22-2.37C309.87,153.56,306.84,145.84,303.23,147.23Z"/><path class="cls-8" d="M305.19,154s2.1-5.87-3.1-5.94l-1.23.86s-1.9-3.25,1.23-4.8,6.79-.27,8.13,3.94,1.56,7.05-.66,9.06-3.13-.27-3.13-.27,1.21-1.88.71-2.89-1.62.2-1.62.2Z"/><path class="cls-34" d="M280.16,142.65c-.12.35,1.18.9,1.95-.56,0-.7.45-3.7,0-4.26-2.22-3-4.57-3.23-4.57-3.23a9.92,9.92,0,0,0-1.22,2.41,2.91,2.91,0,0,0,.29,2.16,24.8,24.8,0,0,0,1.34,2.19A2.9,2.9,0,0,0,280.16,142.65Z"/><path class="cls-1" d="M260.39,184.57a8.48,8.48,0,0,1-5.92-2.3,5.18,5.18,0,0,1-1.54-4.52,20.13,20.13,0,0,1,1.82-5.66.64.64,0,0,0,0-.6.62.62,0,0,0-.53-.29H244a3.93,3.93,0,0,1-3.92-3.93V158a1.67,1.67,0,0,1,1-1.53,1.71,1.71,0,0,1,1.82.24A4.71,4.71,0,0,0,248,157.8a7.53,7.53,0,0,0,4.19-5.82,2.83,2.83,0,0,0-1-2.77c-3.06-2-6.63-.54-8.48.51h0a1.7,1.7,0,0,1-2.54-1.48v-8.86a3.93,3.93,0,0,1,3.92-3.93h9.35a.62.62,0,0,0,.52-.27.59.59,0,0,0,.06-.57,22.17,22.17,0,0,1-1.17-4.24,7.42,7.42,0,0,1,1.57-6.29,8.29,8.29,0,0,1,6.2-3,7.08,7.08,0,0,1,5.28,2.57,7.91,7.91,0,0,1,1.94,6.27,13.21,13.21,0,0,1-2.14,5.34.63.63,0,0,0,.54,1l10.43-.38a3.35,3.35,0,0,1,3.47,3.34v8.41a8,8,0,0,1,5.74-1.38,5.89,5.89,0,0,1,4.45,2.66c1.09,1.8,1.15,4.25.18,6.92a5.89,5.89,0,0,1-3.88,3.7,6.76,6.76,0,0,1-6-1.29.3.3,0,0,0-.3,0,.27.27,0,0,0-.15.25v9.08a3.68,3.68,0,0,1-3.68,3.68H266.23a.6.6,0,0,0-.56.35.61.61,0,0,0,.07.66,9.77,9.77,0,0,1,2.18,4,7.55,7.55,0,0,1-1.63,5.24,7.14,7.14,0,0,1-4.72,3A9.36,9.36,0,0,1,260.39,184.57Zm-18.53-26.34v9A2.13,2.13,0,0,0,244,169.4h10.2a2.42,2.42,0,0,1,2.18,3.46A18.32,18.32,0,0,0,254.7,178a3.4,3.4,0,0,0,1,3,6.89,6.89,0,0,0,5.59,1.7,5.5,5.5,0,0,0,3.51-2.29,5.88,5.88,0,0,0,1.31-3.88,8,8,0,0,0-1.82-3.2,2.41,2.41,0,0,1,1.9-3.9h10.13a1.89,1.89,0,0,0,1.89-1.89v-9.08a2.07,2.07,0,0,1,3.32-1.64,5.05,5.05,0,0,0,4.45,1,4.07,4.07,0,0,0,2.71-2.59c.77-2.12.76-4.08,0-5.37a4.06,4.06,0,0,0-3.16-1.82,6.14,6.14,0,0,0-5.67,2.19.91.91,0,0,1-1,.32.9.9,0,0,1-.61-.85V139.23a1.51,1.51,0,0,0-.48-1.11,1.54,1.54,0,0,0-1.13-.44l-10.44.38a2.42,2.42,0,0,1-2.1-3.74,11.31,11.31,0,0,0,1.86-4.61,6.07,6.07,0,0,0-1.51-4.84,5.31,5.31,0,0,0-3.93-2,6.53,6.53,0,0,0-4.82,2.32,5.65,5.65,0,0,0-1.19,4.81,20.94,20.94,0,0,0,1.07,3.89,2.41,2.41,0,0,1-2.24,3.32H244a2.13,2.13,0,0,0-2.13,2.13v8.7c2.25-1.25,6.43-2.85,10.21-.37a4.49,4.49,0,0,1,1.85,4.44,9.3,9.3,0,0,1-5.29,7.31A6.53,6.53,0,0,1,241.86,158.23Zm.31-9.29Zm-.45-.78Z"/><path class="cls-27" d="M242.17,148.94c1.94-1.11,5.92-2.77,9.41-.48,4.56,3-2.26,14.86-9.29,9a.8.8,0,0,0-1.32.6v9.25a3,3,0,0,0,3,3h10.2a1.51,1.51,0,0,1,1.37,2.17,19.33,19.33,0,0,0-1.74,5.41c-.56,3.91,3.91,6.23,7.63,5.72s6-5,5.59-7.21a9.7,9.7,0,0,0-2-3.6,1.52,1.52,0,0,1,1.2-2.46h10.13a2.77,2.77,0,0,0,2.78-2.78v-9.08a1.18,1.18,0,0,1,1.89-.93c3.26,2.48,7.31,1.39,8.54-2,1.49-4.09.37-7.82-3.91-8.38a7.1,7.1,0,0,0-6.52,2.55V139.23a2.44,2.44,0,0,0-2.53-2.44l-10.44.37a1.51,1.51,0,0,1-1.32-2.35,12.48,12.48,0,0,0,2-5c.56-4.09-2.79-7.82-6.33-7.82a7,7,0,0,0-6.89,8.2,21,21,0,0,0,1.12,4.06,1.51,1.51,0,0,1-1.41,2.08H244a3,3,0,0,0-3,3v8.86A.8.8,0,0,0,242.17,148.94Z"/><path class="cls-35" d="M315,175s-21.42,26.16-37.42-3.62a3.72,3.72,0,0,1-.12-1.87A17.54,17.54,0,0,0,277,166a.56.56,0,0,1,.49-.67h0a.78.78,0,0,1,.67.29l2.92,3.72a1.57,1.57,0,0,1-.82,1.86h0a.76.76,0,0,0-.29,1.16c12.17,15.95,32.53-1.55,32.9-1.35C314.22,171.72,315.74,172.53,315,175Z"/><path class="cls-1" d="M224,218.08H209.46a2.56,2.56,0,0,1-2.33-3.63c1.57-3.42,1.88-5.92.85-6.86-1.49-1.36-4.77-1.92-7.31-1.26a3.86,3.86,0,0,0-2.82,2.14c-.61,1.85.3,4.19,1.18,5.83a2.56,2.56,0,0,1-2.26,3.77H184.32a.89.89,0,0,1-.89-.89V203.47a.9.9,0,0,0-1.23-.82c-2.79,1.21-6.71,2.3-9.49.62-1.78-1.07-2.8-3.09-3-6-.4-5.28,1.43-7.61,3-8.63,2.44-1.55,6.11-1.24,9.82.85a.86.86,0,0,0,.89,0,.85.85,0,0,0,.44-.76V174a.89.89,0,0,1,.89-.9h12a2.83,2.83,0,0,1,2.65,3.84,15.39,15.39,0,0,0-1.09,6.64,4.28,4.28,0,0,0,2.76,3.59,7.11,7.11,0,0,0,6.93-.83c2-1.64.67-4.81-1-8.2h0a2.78,2.78,0,0,1,.14-2.72,2.81,2.81,0,0,1,2.41-1.34H224a.89.89,0,0,1,.9.89v14.38a.69.69,0,0,0,.37.62.75.75,0,0,0,.75-.05c4-2.81,7-2.32,8.7-1.41a7,7,0,0,1,3.71,5.7c0,2.14-.64,6.8-3.13,9.19a4.93,4.93,0,0,1-3.73,1.43,12.22,12.22,0,0,1-5.6-1.68.73.73,0,0,0-.73,0,.69.69,0,0,0-.34.6v13.4A.9.9,0,0,1,224,218.08ZM203,204.25a9.51,9.51,0,0,1,6.2,2c1.7,1.55,1.56,4.64-.42,8.94a.76.76,0,0,0,.7,1.08h13.69v-12.5a2.5,2.5,0,0,1,3.75-2.15,10.56,10.56,0,0,0,4.79,1.44,3.11,3.11,0,0,0,2.41-.94c1.89-1.8,2.58-5.79,2.58-7.88a5.29,5.29,0,0,0-2.74-4.12c-1.87-1-4.24-.53-6.86,1.29a2.49,2.49,0,0,1-3.93-2V175.9h-13.6a1,1,0,0,0-.89.5,1,1,0,0,0,0,1c1.52,3.07,3.82,7.72.54,10.39a8.91,8.91,0,0,1-8.77,1.09,6,6,0,0,1-3.85-5.09,17.39,17.39,0,0,1,1.2-7.43,1,1,0,0,0-.11-1,1,1,0,0,0-.86-.45H185.68v13.79a2.68,2.68,0,0,1-4,2.33c-3.08-1.73-6.13-2.07-8-.9s-2.48,3.51-2.22,7c.18,2.29.9,3.84,2.16,4.6,2.23,1.35,5.88.12,7.85-.73a2.63,2.63,0,0,1,2.52.22,2.66,2.66,0,0,1,1.21,2.24v12.81h11.55a.76.76,0,0,0,.66-.37.77.77,0,0,0,0-.76c-1-2-2.12-4.79-1.3-7.24a5.42,5.42,0,0,1,4.07-3.32A11,11,0,0,1,203,204.25Z"/><path class="cls-27" d="M207.81,177.77c1.51,3.06,3.45,7.11.77,9.29-3.63,3-10.74,1.69-11.16-3.38a16.37,16.37,0,0,1,1.15-7,1.94,1.94,0,0,0-1.81-2.62h-12v14.69a1.78,1.78,0,0,1-2.66,1.55c-5.51-3.1-12.25-2.63-11.53,6.93.61,8.07,7.47,6.27,11.26,4.63a1.78,1.78,0,0,1,2.47,1.64v13.71h12.45a1.67,1.67,0,0,0,1.47-2.46c-1-1.84-2-4.4-1.24-6.53,1.27-3.8,8.79-3.8,11.58-1.27,1.79,1.63.51,5.41-.64,7.9a1.66,1.66,0,0,0,1.52,2.36H224v-13.4a1.6,1.6,0,0,1,2.42-1.37,11.53,11.53,0,0,0,5.19,1.56c4.65.21,5.93-6.77,5.92-9.72,0-2.67-3.77-8.58-11-3.57a1.6,1.6,0,0,1-2.53-1.3V175H209.55A1.92,1.92,0,0,0,207.81,177.77Z"/><g class="cls-36"><path class="cls-1" d="M52.17,166.23l-.17,0q-.86-.22-1.71-.42a.67.67,0,1,1,.29-1.31c.58.13,1.18.27,1.77.43a.66.66,0,0,1,.47.82A.67.67,0,0,1,52.17,166.23Z"/><path class="cls-1" d="M66.26,238.57a.68.68,0,0,1-.53-.27.66.66,0,0,1,.13-.94c.91-.69,1.8-1.42,2.65-2.18a.67.67,0,0,1,.95,0,.68.68,0,0,1,0,1c-.88.79-1.8,1.54-2.74,2.25A.7.7,0,0,1,66.26,238.57Zm6.65-6.29a.71.71,0,0,1-.44-.15.68.68,0,0,1-.08-.95c.74-.87,1.44-1.79,2.1-2.72a.68.68,0,0,1,.94-.16.67.67,0,0,1,.16.94c-.68,1-1.41,1.91-2.17,2.81A.68.68,0,0,1,72.91,232.28ZM78,224.69a.68.68,0,0,1-.6-1c.53-1,1-2,1.45-3.1a.68.68,0,0,1,.88-.37.66.66,0,0,1,.36.88c-.45,1.09-1,2.17-1.5,3.21A.65.65,0,0,1,78,224.69Zm3.28-8.53-.17,0a.69.69,0,0,1-.48-.83c.29-1.1.53-2.23.72-3.35a.67.67,0,1,1,1.33.23c-.2,1.16-.45,2.32-.75,3.46A.67.67,0,0,1,81.28,216.16Zm1.3-9h0a.67.67,0,0,1-.65-.7c0-.4,0-.81,0-1.22,0-.73,0-1.48-.06-2.21a.67.67,0,1,1,1.34-.07c0,.75.06,1.52.06,2.28,0,.42,0,.84,0,1.26A.67.67,0,0,1,82.58,207.11ZM81.84,198a.67.67,0,0,1-.66-.54c-.22-1.12-.49-2.24-.8-3.34a.68.68,0,0,1,1.3-.37c.32,1.14.6,2.3.82,3.45A.67.67,0,0,1,82,198Zm-2.73-8.72a.68.68,0,0,1-.62-.4c-.46-1.05-1-2.08-1.51-3.08a.67.67,0,0,1,.26-.91.68.68,0,0,1,.92.26c.56,1,1.09,2.11,1.56,3.19a.67.67,0,0,1-.61.94Zm-4.6-7.9a.68.68,0,0,1-.54-.27c-.68-.92-1.41-1.82-2.17-2.67a.68.68,0,0,1,.06-1,.67.67,0,0,1,1,.06c.78.88,1.53,1.81,2.24,2.75a.68.68,0,0,1-.54,1.08Zm-6.25-6.68a.66.66,0,0,1-.44-.16c-.86-.74-1.77-1.45-2.7-2.12a.68.68,0,0,1-.16-.94.67.67,0,0,1,.94-.15c1,.69,1.9,1.42,2.8,2.18a.68.68,0,0,1,.07.95A.65.65,0,0,1,68.26,174.69Zm-7.57-5.13a.58.58,0,0,1-.31-.08c-1-.53-2.06-1-3.11-1.47a.66.66,0,0,1-.35-.88.68.68,0,0,1,.88-.36c1.08.46,2.16,1,3.2,1.52a.67.67,0,0,1-.31,1.27Z"/><path class="cls-1" d="M59.91,242.49a.69.69,0,0,1-.61-.37.68.68,0,0,1,.31-.91c.52-.26,1-.53,1.56-.81a.66.66,0,0,1,.91.26.67.67,0,0,1-.26.91c-.53.29-1.07.58-1.61.85A.66.66,0,0,1,59.91,242.49Z"/></g><g class="cls-36"><path class="cls-1" d="M29.49,245a.69.69,0,0,1-.2,0c-.58-.18-1.16-.37-1.73-.58a.67.67,0,1,1,.46-1.26l1.67.56a.67.67,0,0,1-.2,1.31Z"/><path class="cls-1" d="M22.68,242.14a.71.71,0,0,1-.31-.08c-1-.53-2-1.12-3-1.74a.68.68,0,0,1-.21-.93.67.67,0,0,1,.93-.21c.95.6,1.93,1.17,2.93,1.69a.67.67,0,0,1-.32,1.27Zm-7.47-5a.66.66,0,0,1-.43-.16c-.89-.75-1.75-1.54-2.57-2.36a.67.67,0,0,1,0-1,.69.69,0,0,1,1,0c.79.79,1.63,1.56,2.49,2.28a.68.68,0,0,1,.08.95A.69.69,0,0,1,15.21,237.13ZM9,230.61a.65.65,0,0,1-.53-.27c-.71-.92-1.38-1.89-2-2.87a.67.67,0,0,1,.21-.92.68.68,0,0,1,.93.2c.6.95,1.25,1.89,1.93,2.78a.68.68,0,0,1-.13.94A.7.7,0,0,1,9,230.61Zm-4.62-7.72a.67.67,0,0,1-.61-.4c-.48-1.05-.92-2.14-1.32-3.23a.68.68,0,0,1,.41-.86.66.66,0,0,1,.86.4c.38,1.06.81,2.11,1.27,3.13a.66.66,0,0,1-.33.89A.55.55,0,0,1,4.39,222.89Zm-2.82-8.55a.67.67,0,0,1-.66-.53c-.24-1.13-.43-2.29-.58-3.44a.66.66,0,0,1,.58-.75.68.68,0,0,1,.76.58c.14,1.11.33,2.23.56,3.33a.68.68,0,0,1-.52.8Zm-.9-9h0a.67.67,0,0,1-.67-.68c0-1.16.07-2.33.18-3.48a.67.67,0,0,1,.73-.61.67.67,0,0,1,.61.73c-.11,1.12-.16,2.25-.17,3.37A.69.69,0,0,1,.67,205.39Zm1.08-8.93-.15,0a.67.67,0,0,1-.51-.81c.27-1.12.58-2.25.94-3.36a.68.68,0,0,1,.85-.43.67.67,0,0,1,.43.85c-.34,1.07-.65,2.16-.91,3.25A.67.67,0,0,1,1.75,196.46Zm3-8.48a.72.72,0,0,1-.29-.06.68.68,0,0,1-.32-.9c.51-1,1.07-2.08,1.66-3.07a.67.67,0,1,1,1.15.68c-.57,1-1.11,2-1.6,3A.67.67,0,0,1,4.76,188Zm4.78-7.61a.65.65,0,0,1-.41-.15.66.66,0,0,1-.11-.94c.72-.91,1.48-1.8,2.27-2.65a.69.69,0,0,1,1,0,.68.68,0,0,1,0,1c-.77.82-1.51,1.68-2.21,2.56A.67.67,0,0,1,9.54,180.37Zm6.33-6.4a.68.68,0,0,1-.42-1.2c.9-.73,1.84-1.43,2.8-2.08a.66.66,0,0,1,.93.18.68.68,0,0,1-.17.94c-.93.63-1.85,1.3-2.72,2A.66.66,0,0,1,15.87,174Z"/><path class="cls-1" d="M23.46,169.11a.68.68,0,0,1-.3-1.28c.55-.27,1.1-.53,1.65-.77a.68.68,0,0,1,.89.35.66.66,0,0,1-.34.88c-.54.24-1.07.49-1.6.75A.66.66,0,0,1,23.46,169.11Z"/></g><path class="cls-8" d="M32.65,175a.5.5,0,0,0-.39.41l-.89,5.92a26.2,26.2,0,0,0-7.09,4.59l-5.76-1.6a.52.52,0,0,0-.54.2l-4.07,5.91a.5.5,0,0,0,0,.57l3.55,4.81a26.2,26.2,0,0,0-1.75,8.26L10.51,207a.47.47,0,0,0-.24.51l1.3,7.06a.49.49,0,0,0,.41.4l5.92.89A26,26,0,0,0,22.49,223l-1.6,5.76a.47.47,0,0,0,.2.53L27,233.32a.48.48,0,0,0,.57,0l4.81-3.55a25.94,25.94,0,0,0,8.26,1.76l2.94,5.21a.5.5,0,0,0,.52.24l7.06-1.3a.51.51,0,0,0,.4-.41l.89-5.92a26,26,0,0,0,7.08-4.59l5.76,1.59a.49.49,0,0,0,.54-.19l4.07-5.91a.48.48,0,0,0,0-.57l-3.55-4.81a26.21,26.21,0,0,0,1.76-8.26l5.2-2.95a.5.5,0,0,0,.25-.52l-1.31-7a.49.49,0,0,0-.41-.4l-5.91-.89a26.23,26.23,0,0,0-4.6-7.09l1.6-5.76a.49.49,0,0,0-.19-.54l-5.92-4.06a.5.5,0,0,0-.57,0l-4.81,3.56a25.94,25.94,0,0,0-8.26-1.76l-2.94-5.21a.5.5,0,0,0-.52-.24Z"/><path class="cls-37" d="M41.9,213.05a7.86,7.86,0,0,1-2.68-.48,7.74,7.74,0,0,1-4.55-9.93h0a7.72,7.72,0,1,1,7.23,10.41Zm-4.71-9.47a5,5,0,1,0,6.47-3,5,5,0,0,0-6.47,3Z"/><path class="cls-37" d="M41.92,223.24A17.75,17.75,0,0,1,24.48,208.7a17.21,17.21,0,0,1-.31-3.26,17.69,17.69,0,0,1,3.14-10l.42-.58h0a16.69,16.69,0,0,1,1.55-1.8l.11-.11.06-.07,0,0h0l.27-.26a.44.44,0,0,1,.63,0,.43.43,0,0,1,.13.31.47.47,0,0,1-.14.33,16.46,16.46,0,0,0-2.34,2.72h0a16.87,16.87,0,1,0,15-7.27.45.45,0,0,1-.42-.45v0a.45.45,0,0,1,.47-.42,17.77,17.77,0,0,1-1.15,35.5Z"/><g class="cls-36"><path class="cls-1" d="M71.37,125.62l-.12,0c-.35-.1-.71-.18-1.07-.26a.45.45,0,0,1-.34-.54.46.46,0,0,1,.54-.34c.37.08.74.18,1.11.28a.45.45,0,0,1,.31.55A.44.44,0,0,1,71.37,125.62Z"/><path class="cls-1" d="M78.45,166.73a.45.45,0,0,1-.37-.2.44.44,0,0,1,.12-.62c.58-.41,1.15-.84,1.69-1.3a.45.45,0,0,1,.58.69c-.56.47-1.15.93-1.76,1.35A.5.5,0,0,1,78.45,166.73Zm3.32-2.81a.43.43,0,0,1-.31-.13.44.44,0,0,1,0-.63c.5-.51,1-1,1.42-1.59a.44.44,0,0,1,.63-.07.46.46,0,0,1,.07.63c-.47.57-1,1.13-1.48,1.66A.42.42,0,0,1,81.77,163.92Zm2.73-3.38a.42.42,0,0,1-.24-.07.45.45,0,0,1-.13-.63l.19-.28c.32-.5.63-1,.91-1.55a.44.44,0,0,1,.6-.18.46.46,0,0,1,.19.61c-.29.54-.61,1.08-1,1.6l-.19.3A.46.46,0,0,1,84.5,160.54Zm2.06-3.83-.18,0a.47.47,0,0,1-.24-.59,20.9,20.9,0,0,0,.74-2,.45.45,0,0,1,.56-.3.46.46,0,0,1,.29.57c-.22.7-.47,1.4-.76,2.08A.44.44,0,0,1,86.56,156.71Zm1.29-4.14h-.09a.46.46,0,0,1-.35-.54,18.74,18.74,0,0,0,.34-2.1.45.45,0,0,1,.9.1c-.09.73-.21,1.47-.36,2.19A.45.45,0,0,1,87.85,152.57Zm.49-4.32h0a.46.46,0,0,1-.44-.46c0-.13,0-.26,0-.4,0-.57,0-1.15-.07-1.73a.45.45,0,0,1,.41-.48.44.44,0,0,1,.48.41c0,.6.07,1.21.07,1.8v.42A.45.45,0,0,1,88.34,148.25ZM88,143.92a.44.44,0,0,1-.44-.38c-.12-.69-.28-1.4-.46-2.08a.44.44,0,0,1,.31-.55.45.45,0,0,1,.55.32c.19.71.36,1.44.48,2.16a.45.45,0,0,1-.37.52Zm-1.14-4.2a.45.45,0,0,1-.42-.29c-.25-.66-.53-1.32-.84-2a.44.44,0,0,1,.21-.6.44.44,0,0,1,.59.21,21.62,21.62,0,0,1,.88,2,.44.44,0,0,1-.26.57A.45.45,0,0,1,86.87,139.72Zm-1.9-3.9a.47.47,0,0,1-.39-.22,20.88,20.88,0,0,0-1.19-1.76.45.45,0,0,1,.72-.54c.44.59.86,1.21,1.24,1.83a.45.45,0,0,1-.15.62A.48.48,0,0,1,85,135.82Zm-2.61-3.48a.44.44,0,0,1-.33-.15c-.48-.52-1-1-1.51-1.51a.44.44,0,0,1,0-.63.44.44,0,0,1,.63,0c.55.5,1.07,1,1.57,1.57a.44.44,0,0,1,0,.63A.42.42,0,0,1,82.36,132.34Zm-3.22-2.92a.46.46,0,0,1-.27-.09c-.43-.33-.88-.64-1.34-.94l-.42-.26a.45.45,0,0,1-.15-.62.44.44,0,0,1,.61-.14l.44.27c.48.31.95.63,1.4,1a.45.45,0,0,1,.09.63A.44.44,0,0,1,79.14,129.42Zm-3.71-2.27a.45.45,0,0,1-.19-.05c-.64-.31-1.3-.59-2-.84a.45.45,0,1,1,.32-.84,21.44,21.44,0,0,1,2,.88.45.45,0,0,1-.2.85Z"/><path class="cls-1" d="M75.6,168.41a.45.45,0,0,1-.2-.85c.33-.16.65-.33,1-.51a.45.45,0,0,1,.44.78c-.33.19-.67.37-1,.53A.35.35,0,0,1,75.6,168.41Z"/></g><g class="cls-36"><path class="cls-1" d="M58.52,169.79a.3.3,0,0,1-.13,0c-.37-.11-.73-.23-1.09-.36a.45.45,0,0,1-.26-.58.44.44,0,0,1,.57-.26l1,.35a.44.44,0,0,1-.13.87Z"/><path class="cls-1" d="M55.32,168.53a.46.46,0,0,1-.2-.05c-.71-.34-1.4-.73-2.08-1.14a.45.45,0,0,1-.14-.62.44.44,0,0,1,.61-.14c.65.39,1.32.76,2,1.09a.44.44,0,0,1,.21.6A.46.46,0,0,1,55.32,168.53Zm-4-2.44a.46.46,0,0,1-.27-.09,22.27,22.27,0,0,1-1.81-1.54.45.45,0,0,1,.61-.65q.84.78,1.74,1.47a.45.45,0,0,1,.09.63A.44.44,0,0,1,51.36,166.09ZM48,162.91a.46.46,0,0,1-.34-.15c-.51-.6-1-1.23-1.46-1.87a.46.46,0,0,1,.11-.63.45.45,0,0,1,.62.11,22.34,22.34,0,0,0,1.41,1.8.45.45,0,0,1,0,.63A.48.48,0,0,1,48,162.91Zm-2.67-3.8a.43.43,0,0,1-.39-.23,21,21,0,0,1-1.06-2.12.45.45,0,0,1,.82-.36c.3.69.65,1.38,1,2a.45.45,0,0,1-.39.67Zm-1.86-4.26a.45.45,0,0,1-.43-.31c-.24-.75-.44-1.52-.61-2.29a.45.45,0,0,1,.35-.53.45.45,0,0,1,.53.34c.16.74.36,1.49.59,2.21a.45.45,0,0,1-.29.56A.36.36,0,0,1,43.44,154.85Zm-1-4.54a.44.44,0,0,1-.44-.4,23.54,23.54,0,0,1-.14-2.37.45.45,0,0,1,.44-.45h0a.46.46,0,0,1,.45.44,21.63,21.63,0,0,0,.13,2.28.45.45,0,0,1-.4.5Zm0-4.65h0a.45.45,0,0,1-.4-.49,23.14,23.14,0,0,1,.34-2.34.45.45,0,0,1,.53-.36.45.45,0,0,1,.35.53,21.21,21.21,0,0,0-.33,2.26A.44.44,0,0,1,42.44,145.66Zm.9-4.55-.14,0a.45.45,0,0,1-.29-.56,23.58,23.58,0,0,1,.8-2.23.45.45,0,0,1,.59-.24.44.44,0,0,1,.24.58c-.29.7-.55,1.42-.78,2.15A.44.44,0,0,1,43.34,141.11Zm1.8-4.29a.42.42,0,0,1-.22,0,.46.46,0,0,1-.18-.61c.27-.49.56-1,.87-1.46l.37-.56a.45.45,0,0,1,.74.5l-.36.55c-.29.45-.57.93-.83,1.4A.43.43,0,0,1,45.14,136.82ZM47.76,133a.46.46,0,0,1-.35-.74c.51-.6,1.06-1.19,1.62-1.73a.45.45,0,0,1,.64,0,.45.45,0,0,1,0,.63,22.34,22.34,0,0,0-1.56,1.67A.46.46,0,0,1,47.76,133Zm3.33-3.24a.43.43,0,0,1-.35-.17.45.45,0,0,1,.08-.63c.61-.48,1.27-.95,1.93-1.37a.45.45,0,1,1,.48.76q-1,.61-1.86,1.32A.47.47,0,0,1,51.09,129.75Z"/><path class="cls-1" d="M55,127.25a.45.45,0,0,1-.2-.85c.34-.17.69-.33,1-.48a.45.45,0,0,1,.59.23.46.46,0,0,1-.23.59c-.34.15-.67.3-1,.47A.45.45,0,0,1,55,127.25Z"/></g><path class="cls-8" d="M60.3,130.44a.28.28,0,0,0-.23.23l-.5,3.32a14.77,14.77,0,0,0-4,2.58l-3.23-.9a.27.27,0,0,0-.3.11l-2.29,3.32a.29.29,0,0,0,0,.32l2,2.7a14.48,14.48,0,0,0-1,4.64l-2.93,1.66a.28.28,0,0,0-.14.29l.74,4a.28.28,0,0,0,.23.22l3.32.5a14.46,14.46,0,0,0,2.58,4l-.9,3.24a.28.28,0,0,0,.11.3l3.32,2.28a.27.27,0,0,0,.32,0l2.7-2a14.5,14.5,0,0,0,4.64,1l1.65,2.92a.28.28,0,0,0,.3.14l4-.73a.29.29,0,0,0,.22-.23l.5-3.32a14.7,14.7,0,0,0,4-2.58l3.24.89a.26.26,0,0,0,.3-.11l2.28-3.32a.27.27,0,0,0,0-.32l-2-2.7a14.44,14.44,0,0,0,1-4.64l2.92-1.65a.27.27,0,0,0,.14-.29l-.73-4a.29.29,0,0,0-.23-.23l-3.33-.5a14.73,14.73,0,0,0-2.57-4l.89-3.23a.26.26,0,0,0-.11-.3l-3.32-2.29a.29.29,0,0,0-.32,0l-2.7,2a14.42,14.42,0,0,0-4.64-1l-1.65-2.93a.26.26,0,0,0-.29-.13Z"/><path class="cls-37" d="M65.49,151.5a4,4,0,0,1-3.66-2.35,4,4,0,0,1-.11-3.08h0a4,4,0,1,1,5.45,5.06A3.92,3.92,0,0,1,65.49,151.5Zm-2.93-5.12a3.13,3.13,0,1,0,1.63-1.75,3.12,3.12,0,0,0-1.63,1.75Z"/><path class="cls-37" d="M65.5,157.73a10.18,10.18,0,0,1-8.37-15.94l0,0a10.76,10.76,0,0,1,1.31-1.54l.07-.07a.46.46,0,0,1,.64,0,.47.47,0,0,1,.12.31.47.47,0,0,1-.14.33,9.28,9.28,0,0,0-1.29,1.5h0a9.29,9.29,0,1,0,8.23-4,.46.46,0,0,1-.42-.45v0a.45.45,0,0,1,.47-.42,10.17,10.17,0,0,1,9.53,10.17A10.17,10.17,0,0,1,65.5,157.73Z"/><g class="cls-36"><path class="cls-1" d="M384.79,163.62l.11,0c.37.21.74.4,1.11.59a.48.48,0,1,1-.43.85c-.38-.19-.76-.4-1.14-.61a.46.46,0,0,1-.18-.64A.45.45,0,0,1,384.79,163.62Z"/><path class="cls-1" d="M387.79,111.51a.46.46,0,0,1,.33.28.48.48,0,0,1-.26.62c-.75.31-1.49.66-2.2,1a.48.48,0,0,1-.44-.85c.74-.38,1.5-.74,2.27-1.06A.45.45,0,0,1,387.79,111.51Zm-5.66,3.15a.39.39,0,0,1,.27.18.46.46,0,0,1-.11.66c-.65.47-1.3,1-1.91,1.5a.48.48,0,1,1-.62-.73c.63-.54,1.3-1.06,2-1.54A.43.43,0,0,1,382.13,114.66ZM377.31,119a.54.54,0,0,1,.2.1.49.49,0,0,1,0,.68c-.54.6-1.06,1.23-1.54,1.87a.47.47,0,0,1-.67.1.49.49,0,0,1-.1-.67c.5-.66,1-1.32,1.6-1.94A.45.45,0,0,1,377.31,119Zm-3.75,5.28a.21.21,0,0,1,.11,0,.48.48,0,0,1,.19.65c-.39.7-.75,1.44-1.08,2.17a.48.48,0,0,1-.63.24.47.47,0,0,1-.24-.63c.34-.76.71-1.51,1.12-2.24A.45.45,0,0,1,373.56,124.26Zm-2.48,6h0a.47.47,0,0,1,.32.59c-.08.28-.15.56-.22.84-.13.5-.25,1-.35,1.52a.48.48,0,0,1-.56.38.47.47,0,0,1-.37-.56c.1-.53.22-1.06.35-1.58l.24-.86A.46.46,0,0,1,371.08,130.24ZM370,136.62a.48.48,0,0,1,.35.49c0,.81-.06,1.62,0,2.43a.49.49,0,0,1-.47.49.48.48,0,0,1-.49-.46c0-.84,0-1.68,0-2.51a.47.47,0,0,1,.51-.45Zm.34,6.47a.48.48,0,0,1,.36.38c.13.8.3,1.6.5,2.38a.48.48,0,0,1-.93.24c-.2-.81-.38-1.64-.51-2.46a.47.47,0,0,1,.39-.55A.41.41,0,0,1,370.34,143.09Zm1.77,6.23a.44.44,0,0,1,.33.28c.31.75.65,1.49,1,2.21a.48.48,0,1,1-.85.43c-.38-.74-.74-1.51-1.05-2.28a.47.47,0,0,1,.26-.62A.42.42,0,0,1,372.11,149.32Zm3.12,5.67a.44.44,0,0,1,.27.19c.47.66,1,1.31,1.49,1.93a.48.48,0,1,1-.73.61c-.54-.64-1.05-1.31-1.53-2a.48.48,0,0,1,.5-.74Zm4.3,4.85a.44.44,0,0,1,.2.11c.6.54,1.23,1.06,1.87,1.55a.48.48,0,0,1,.09.67.47.47,0,0,1-.66.09c-.67-.51-1.32-1-1.94-1.61a.47.47,0,0,1,0-.67A.49.49,0,0,1,379.53,159.84Z"/><path class="cls-1" d="M392.84,109.93a.48.48,0,0,1,0,.93c-.41.08-.82.18-1.22.29a.48.48,0,0,1-.24-.93l1.26-.29A.38.38,0,0,1,392.84,109.93Z"/></g><g class="cls-36"><path class="cls-1" d="M414.15,113.57l.13.05c.36.23.73.46,1.08.7a.48.48,0,0,1,.13.67.48.48,0,0,1-.66.12c-.34-.23-.7-.46-1.05-.67a.48.48,0,0,1,.37-.87Z"/><path class="cls-1" d="M418.33,116.69a.56.56,0,0,1,.2.11c.6.55,1.2,1.13,1.76,1.73a.47.47,0,0,1-.69.65c-.55-.58-1.12-1.14-1.71-1.67a.49.49,0,0,1,0-.68A.51.51,0,0,1,418.33,116.69Zm4.24,4.75a.47.47,0,0,1,.27.18c.48.67.94,1.37,1.36,2.07a.49.49,0,0,1-.17.66.48.48,0,0,1-.65-.17c-.41-.68-.85-1.35-1.31-2a.49.49,0,0,1,.11-.67A.5.5,0,0,1,422.57,121.44Zm3.12,5.56a.47.47,0,0,1,.32.28c.32.75.61,1.53.86,2.31a.47.47,0,1,1-.9.3c-.25-.76-.53-1.51-.84-2.24a.48.48,0,0,1,.26-.63A.51.51,0,0,1,425.69,127Zm1.81,6.11a.48.48,0,0,1,.36.38c.14.8.25,1.63.33,2.44a.46.46,0,0,1-.43.52.47.47,0,0,1-.52-.43c-.07-.79-.18-1.58-.32-2.37a.47.47,0,0,1,.38-.55A.44.44,0,0,1,427.5,133.11Zm.44,6.36a.47.47,0,0,1,.36.48c0,.82-.1,1.64-.2,2.46a.47.47,0,0,1-.53.41.48.48,0,0,1-.42-.53c.1-.79.17-1.59.2-2.38a.47.47,0,0,1,.5-.46Zm-.95,6.3h0a.48.48,0,0,1,.34.58c-.22.79-.46,1.59-.74,2.36a.48.48,0,0,1-.61.29.48.48,0,0,1-.29-.61c.27-.75.51-1.52.71-2.29A.47.47,0,0,1,427,145.77Zm-2.3,5.94.1,0a.47.47,0,0,1,.2.65c-.37.72-.79,1.45-1.23,2.14a.48.48,0,0,1-.66.15A.47.47,0,0,1,423,154c.42-.67.82-1.37,1.19-2.07A.47.47,0,0,1,424.69,151.71ZM421.14,157a.5.5,0,0,1,.19.1.47.47,0,0,1,.05.67c-.52.63-1.09,1.24-1.67,1.82a.47.47,0,0,1-.67-.67c.56-.56,1.11-1.16,1.62-1.76A.47.47,0,0,1,421.14,157Zm-4.62,4.39a.51.51,0,0,1,.26.18.48.48,0,0,1-.09.67c-.65.49-1.33,1-2,1.41a.48.48,0,0,1-.52-.8c.67-.43,1.33-.89,2-1.37A.51.51,0,0,1,416.52,161.38Zm-5.46,3.29a.45.45,0,0,1,.31.26.47.47,0,0,1-.23.63c-.75.34-1.52.66-2.29.94a.48.48,0,1,1-.32-.9c.75-.27,1.49-.57,2.21-.9A.45.45,0,0,1,411.06,164.67Z"/><path class="cls-1" d="M405,166.67a.48.48,0,0,1,.35.36.49.49,0,0,1-.37.57c-.42.09-.85.17-1.27.24a.48.48,0,0,1-.55-.39.48.48,0,0,1,.39-.55l1.23-.23A.41.41,0,0,1,405,166.67Z"/></g><path class="cls-8" d="M399.72,161a.35.35,0,0,0,.35-.21l1.64-3.9a18.53,18.53,0,0,0,5.67-1.91l3.67,2.1a.35.35,0,0,0,.41,0l3.82-3.34a.35.35,0,0,0,.1-.39l-1.6-3.93a18.4,18.4,0,0,0,2.66-5.36l4.09-1.11a.34.34,0,0,0,.25-.31l.35-5.07a.36.36,0,0,0-.22-.35l-3.9-1.64a18.53,18.53,0,0,0-1.91-5.67l2.11-3.67a.38.38,0,0,0,0-.41L413.82,122a.34.34,0,0,0-.39-.1l-3.93,1.6a18.27,18.27,0,0,0-5.36-2.66L403,116.74a.33.33,0,0,0-.31-.25l-5.07-.35a.34.34,0,0,0-.34.22l-1.65,3.9a18.62,18.62,0,0,0-5.67,1.91l-3.67-2.11a.38.38,0,0,0-.41,0l-3.82,3.35a.36.36,0,0,0-.1.39l1.6,3.93a18.27,18.27,0,0,0-2.66,5.36l-4.09,1.1a.35.35,0,0,0-.25.32l-.34,5.07a.33.33,0,0,0,.21.34l3.9,1.65a18.62,18.62,0,0,0,1.91,5.67l-2.1,3.67a.33.33,0,0,0,0,.4l3.34,3.83a.36.36,0,0,0,.39.1l3.93-1.6a18.12,18.12,0,0,0,5.36,2.65l1.11,4.1a.34.34,0,0,0,.31.25Z"/><path class="cls-37" d="M400,133.29a5.36,5.36,0,0,1,1.76.8,5.46,5.46,0,0,1,1.38,7.6h0a5.47,5.47,0,0,1-7.6,1.39,5.39,5.39,0,0,1-2.27-3.52,5.46,5.46,0,0,1,6.73-6.27Zm1.57,7.32a3.56,3.56,0,1,0-4.95.9,3.55,3.55,0,0,0,4.95-.9Z"/><path class="cls-37" d="M401.81,126.29a12.59,12.59,0,0,1,9.43,13,12.68,12.68,0,0,1-.37,2.3A12.45,12.45,0,0,1,407,148l-.39.33h0a12,12,0,0,1-1.37,1l-.1.06,0,0h0l-.23.13a.31.31,0,0,1-.43-.12.32.32,0,0,1,0-.23.28.28,0,0,1,.15-.2,12.51,12.51,0,0,0,2.09-1.47h0A12,12,0,1,0,395,149.84a.32.32,0,0,1,.21.38v0a.32.32,0,0,1-.4.21,12.58,12.58,0,0,1,7-24.16Z"/><g class="cls-36"><path class="cls-1" d="M364.5,188.12a.2.2,0,0,1,.08,0l.69.36a.33.33,0,0,1,.14.43.32.32,0,0,1-.43.14l-.71-.38a.31.31,0,0,1-.12-.43A.32.32,0,0,1,364.5,188.12Z"/><path class="cls-1" d="M366.84,158.67a.34.34,0,0,1,.22.2.32.32,0,0,1-.19.41,14,14,0,0,0-1.38.59.32.32,0,1,1-.28-.57c.47-.23,1-.43,1.44-.62A.41.41,0,0,1,366.84,158.67ZM364.07,160a.31.31,0,0,1,.09.57c-.43.26-.85.55-1.25.85a.32.32,0,1,1-.38-.51c.42-.31.85-.61,1.3-.88A.29.29,0,0,1,364.07,160Zm-2.46,1.84a.24.24,0,0,1,.15.09.32.32,0,0,1,0,.45l-.18.16c-.31.29-.61.6-.89.9a.32.32,0,0,1-.45,0,.31.31,0,0,1,0-.44c.3-.33.61-.64.93-.94a1.54,1.54,0,0,1,.19-.17A.29.29,0,0,1,361.61,161.86Zm-2.08,2.26a.3.3,0,0,1,.11.06.31.31,0,0,1,.06.44c-.3.4-.59.82-.85,1.25a.32.32,0,0,1-.44.1.31.31,0,0,1-.1-.43c.27-.45.57-.88.88-1.3A.34.34,0,0,1,359.53,164.12Zm-1.62,2.62.06,0a.31.31,0,0,1,.15.42,14.2,14.2,0,0,0-.6,1.39.33.33,0,0,1-.41.18.32.32,0,0,1-.19-.41q.29-.73.63-1.44A.32.32,0,0,1,357.91,166.74Zm-1.09,2.88h0a.33.33,0,0,1,.22.39,2.68,2.68,0,0,0-.07.27c-.11.4-.19.8-.26,1.21a.32.32,0,0,1-.63-.11c.08-.42.17-.84.27-1.25,0-.1.05-.19.08-.29A.31.31,0,0,1,356.82,169.62Zm-.53,3a.32.32,0,0,1,.24.33c0,.5-.06,1,0,1.51a.32.32,0,1,1-.64,0c0-.52,0-1.05.05-1.57a.33.33,0,0,1,.35-.29Zm0,3.08a.31.31,0,0,1,.23.27c.06.5.14,1,.24,1.49a.33.33,0,0,1-.25.38.31.31,0,0,1-.37-.25c-.11-.51-.19-1-.25-1.55a.32.32,0,0,1,.28-.35Zm.62,3a.32.32,0,0,1,.22.22c.15.48.32,1,.51,1.42a.3.3,0,0,1-.17.41.31.31,0,0,1-.41-.17,15.32,15.32,0,0,1-.53-1.48.3.3,0,0,1,.21-.39A.32.32,0,0,1,357,178.74Zm1.18,2.85a.29.29,0,0,1,.2.16c.24.44.5.88.77,1.29a.31.31,0,0,1-.09.44.31.31,0,0,1-.44-.09,14.09,14.09,0,0,1-.8-1.35.33.33,0,0,1,.13-.43A.36.36,0,0,1,358.14,181.59Zm1.7,2.56a.36.36,0,0,1,.16.11c.24.3.5.6.76.88a3,3,0,0,0,.25.25.32.32,0,0,1-.46.45l-.25-.27c-.27-.29-.54-.6-.79-.91a.31.31,0,0,1,.05-.44A.32.32,0,0,1,359.84,184.15Zm2.14,2.21a.24.24,0,0,1,.13.07c.38.32.78.63,1.19.92a.32.32,0,0,1-.36.52,14.62,14.62,0,0,1-1.24-1,.32.32,0,0,1,0-.45A.33.33,0,0,1,362,186.36Z"/><path class="cls-1" d="M369.1,158a.31.31,0,0,1,0,.61l-.75.19a.32.32,0,0,1-.39-.23.31.31,0,0,1,.22-.39L369,158A.26.26,0,0,1,369.1,158Z"/></g><g class="cls-36"><path class="cls-1" d="M381.06,160.06l.09,0c.23.14.45.28.68.44a.32.32,0,1,1-.36.52l-.66-.42a.32.32,0,0,1,.25-.58Z"/><path class="cls-1" d="M383,161.49a.25.25,0,0,1,.12.07,16.6,16.6,0,0,1,1.23,1.14.32.32,0,0,1-.46.44c-.37-.38-.77-.75-1.18-1.1a.33.33,0,0,1,0-.45A.34.34,0,0,1,383,161.49Zm2.28,2.37a.25.25,0,0,1,.17.11,14.8,14.8,0,0,1,1,1.37.31.31,0,0,1-.1.43.32.32,0,0,1-.44-.09,13.7,13.7,0,0,0-.94-1.32.33.33,0,0,1,.06-.45A.3.3,0,0,1,385.32,163.86Zm1.77,2.77a.32.32,0,0,1,.21.17c.25.5.47,1,.67,1.53a.31.31,0,0,1-.18.41.31.31,0,0,1-.41-.18c-.19-.5-.41-1-.65-1.48a.3.3,0,0,1,.14-.42A.29.29,0,0,1,387.09,166.63Zm1.17,3.08a.3.3,0,0,1,.23.22,15.44,15.44,0,0,1,.35,1.64.32.32,0,0,1-.26.37.31.31,0,0,1-.36-.26c-.09-.53-.2-1.06-.34-1.58a.31.31,0,0,1,.22-.39A.22.22,0,0,1,388.26,169.71Zm.53,3.24a.33.33,0,0,1,.24.29c0,.56,0,1.12,0,1.68a.33.33,0,0,1-.33.31.32.32,0,0,1-.31-.33,14.59,14.59,0,0,0,0-1.62.32.32,0,0,1,.3-.33Zm-.13,3.29a.31.31,0,0,1,.23.35,15,15,0,0,1-.32,1.65.32.32,0,0,1-.38.24h0a.33.33,0,0,1-.23-.39,14.19,14.19,0,0,0,.3-1.58.32.32,0,0,1,.36-.27Zm-.79,3.2h0a.31.31,0,0,1,.19.4,16.27,16.27,0,0,1-.64,1.55.32.32,0,0,1-.43.15.31.31,0,0,1-.15-.42,16.13,16.13,0,0,0,.62-1.49A.32.32,0,0,1,387.87,179.44Zm-1.42,3a.32.32,0,0,1,.09,0,.32.32,0,0,1,.11.44,16.24,16.24,0,0,1-.95,1.39.31.31,0,0,1-.44.06.32.32,0,0,1-.06-.45,15.49,15.49,0,0,0,.9-1.33A.31.31,0,0,1,386.45,182.41Zm-2,2.62a.33.33,0,0,1,.13.07.32.32,0,0,1,0,.45c-.27.29-.56.58-.85.85l-.35.32a.32.32,0,1,1-.42-.47l.34-.31c.28-.26.55-.54.82-.82A.3.3,0,0,1,384.47,185ZM382,187.2a.32.32,0,0,1,.18.13.31.31,0,0,1-.08.44c-.45.32-.93.63-1.41.91a.32.32,0,0,1-.32-.56,12.06,12.06,0,0,0,1.36-.87A.37.37,0,0,1,382,187.2Zm-2.86,1.64a.29.29,0,0,1,.21.18.32.32,0,0,1-.16.42c-.51.22-1,.42-1.57.6a.32.32,0,0,1-.19-.61,13.66,13.66,0,0,0,1.5-.58A.3.3,0,0,1,379.14,188.84Z"/><path class="cls-1" d="M376,189.86a.31.31,0,0,1,.23.24.32.32,0,0,1-.24.38c-.27.06-.53.11-.8.15a.31.31,0,0,1-.36-.26.32.32,0,0,1,.26-.36c.26,0,.51-.09.76-.15A.38.38,0,0,1,376,189.86Z"/></g><path class="cls-8" d="M373,186.76a.21.21,0,0,0,.19-.12l.92-2.2a10.27,10.27,0,0,0,3.19-1.07l2.06,1.19a.2.2,0,0,0,.23,0l2.15-1.88a.2.2,0,0,0,.05-.22l-.9-2.2a10.19,10.19,0,0,0,1.49-3l2.3-.62a.18.18,0,0,0,.14-.18l.19-2.85a.19.19,0,0,0-.11-.19l-2.2-.92a10.27,10.27,0,0,0-1.07-3.19l1.18-2.06a.18.18,0,0,0,0-.23l-1.88-2.15a.2.2,0,0,0-.22-.05l-2.2.9a10.19,10.19,0,0,0-3-1.49l-.62-2.3a.2.2,0,0,0-.18-.14l-2.85-.2a.21.21,0,0,0-.19.12l-.93,2.2a10.3,10.3,0,0,0-3.18,1.07l-2.06-1.18a.18.18,0,0,0-.23,0L363,165.66a.2.2,0,0,0-.05.22l.9,2.2a10.19,10.19,0,0,0-1.49,3l-2.3.62a.2.2,0,0,0-.14.18l-.2,2.85a.21.21,0,0,0,.12.19l2.19.93a10.32,10.32,0,0,0,1.08,3.18L362,181.1a.2.2,0,0,0,0,.23l1.88,2.15a.2.2,0,0,0,.22.05l2.2-.9a10.19,10.19,0,0,0,3,1.49l.62,2.3a.18.18,0,0,0,.18.14Z"/><path class="cls-37" d="M373.07,171.39a2.83,2.83,0,0,1,.92.42,2.86,2.86,0,0,1,.72,4h0a2.79,2.79,0,0,1-1.84,1.18,2.84,2.84,0,0,1-2.13-.46,2.77,2.77,0,0,1-1.18-1.83,2.85,2.85,0,0,1,2.29-3.32A2.78,2.78,0,0,1,373.07,171.39Zm1.12,4A2.22,2.22,0,0,0,372,172a2.22,2.22,0,1,0,.79,4.37,2.27,2.27,0,0,0,1.43-.92Z"/><path class="cls-37" d="M374.16,167.12a7.19,7.19,0,0,1,5.18,8.77,7.16,7.16,0,0,1-2.24,3.63l0,0a7.3,7.3,0,0,1-1.17.83l-.06,0a.31.31,0,0,1-.43-.12.32.32,0,0,1,0-.23.28.28,0,0,1,.15-.2,7,7,0,0,0,1.15-.81h0a6.57,6.57,0,1,0-8.65-9.89,6.56,6.56,0,0,0-.62,9.27,6.63,6.63,0,0,0,2.92,1.93.31.31,0,0,1,.21.38v0a.32.32,0,0,1-.4.2,7.2,7.2,0,0,1-4.75-8.65,7.07,7.07,0,0,1,2.23-3.63A7.21,7.21,0,0,1,374.16,167.12Z"/></g></g></svg>