<svg xmlns="http://www.w3.org/2000/svg" viewBox="0 0 49.5 49.52"><defs><style>.cls-1{fill:#c98b5f;}</style></defs><g id="Capa_2" data-name="Capa 2"><g id="Capa_1-2" data-name="Capa 1"><path class="cls-1" d="M0,31.31v-15c0-2.08.69-2.86,2.75-3,.49-.05.57-.23.56-.64,0-.58,0-1.17,0-1.75a2.26,2.26,0,0,1,1.08-2.1A1.15,1.15,0,0,0,5,7.58c0-2.1,0-4.2,0-6.29C4.92.36,5.27,0,6.21,0,7.59,0,9,0,10.34,0c.88,0,1.24.34,1.22,1.23,0,2.13,0,4.26,0,6.39,0,.31-.15.68.27.91a2.79,2.79,0,0,1,1.38,3c0,.31,0,.63,0,.93-.09.65.18.79.8.8a2.4,2.4,0,0,1,2.5,2.56q0,15.57,0,31.14a2.44,2.44,0,0,1-2.6,2.57c-3.75,0-7.49,0-11.24,0A2.49,2.49,0,0,1,0,46.78Zm1.66.07c0,5,0,10,0,15.06,0,1.25.16,1.41,1.44,1.41,3.47,0,6.94,0,10.41,0,1,0,1.35-.34,1.35-1.33q0-15.15,0-30.31c0-1.19-.19-1.36-1.39-1.36H3.15c-1.35,0-1.49.14-1.49,1.46C1.65,21.35,1.66,26.37,1.66,31.38ZM8.25,13.21H9.48c2.18,0,2.17,0,2.08-2.19,0-.78-.38-1.12-1.14-1.11-1.45,0-2.89,0-4.33,0-.48,0-1,.09-1.06.6a5.66,5.66,0,0,0,.07,2.62c0,.08.38.07.58.08ZM6.61,5a12.51,12.51,0,0,0,0,2.67C7,9,8.14,8,8.9,8.23c.39.13,1.06.27,1-.64-.05-1.16,0-2.33,0-3.49,0-2.51,0-2.48-2.54-2.45-.68,0-.79.25-.77.84C6.63,3.31,6.6,4.13,6.61,5Z"/><path class="cls-1" d="M49.5,14c0,.25,0,.49,0,.73a.85.85,0,0,1-.55.9.72.72,0,0,1-1-.36.69.69,0,0,0-1.29.48c.15.32.38.65.89.43s.72,0,.94.4a.76.76,0,0,1-.19,1c-.36.38-.72.75-1.1,1.1a.76.76,0,0,1-.94.17c-.36-.21-.61-.54-.44-.93a.62.62,0,0,0-.37-.91.67.67,0,0,0-.87.32.62.62,0,0,0,.31.93.74.74,0,0,1,.41,1,.85.85,0,0,1-.88.58H42.91a.82.82,0,0,1-.79-.56.68.68,0,0,1,.3-.9.69.69,0,0,0,.42-1A.66.66,0,0,0,42,17a.68.68,0,0,0-.38,1c.13.35-.12.65-.44.84a.74.74,0,0,1-.94-.15,16.14,16.14,0,0,1-1.17-1.17.74.74,0,0,1-.15-.94c.22-.36.54-.59.94-.42a.61.61,0,0,0,.89-.4.65.65,0,0,0-.34-.85.64.64,0,0,0-.93.34.72.72,0,0,1-1,.38.85.85,0,0,1-.56-.9c0-.34,0-.68,0-1s-.06-1,.49-1.24.89.07,1.16.54a.58.58,0,0,0,.82.14.68.68,0,0,0,.31-.87c-.11-.25-.32-.59-.71-.43a.79.79,0,0,1-1.12-.4c-.28-.51.08-.83.39-1.15s.63-.64,1-.94a.73.73,0,0,1,.94-.12c.32.2.56.51.41.85a.68.68,0,0,0,.41,1,.7.7,0,0,0,.8-.31.65.65,0,0,0-.33-1,.69.69,0,0,1-.37-.87.82.82,0,0,1,.83-.64h1.55a.81.81,0,0,1,.84.62.69.69,0,0,1-.35.88.66.66,0,0,0-.35,1,.68.68,0,0,0,.79.32.65.65,0,0,0,.42-1c-.15-.35.08-.66.4-.86a.71.71,0,0,1,.94.1c.43.39.84.81,1.24,1.24a.7.7,0,0,1,.08.94c-.21.32-.52.54-.86.38a.65.65,0,0,0-1,.45.66.66,0,0,0,.33.78.68.68,0,0,0,1-.37.68.68,0,0,1,.88-.34.83.83,0,0,1,.61.85C49.49,13.52,49.5,13.76,49.5,14Zm-5.81,1.68A1.64,1.64,0,1,0,42.08,14,1.68,1.68,0,0,0,43.69,15.68Z"/><path class="cls-1" d="M38.35,26.06a1.2,1.2,0,0,1-.48.77.63.63,0,0,0-.2.8.61.61,0,0,0,.7.43c.59,0,1.18.06,1.2.78s-.58.91-1.22.87A.69.69,0,0,0,37.88,31c.44.41.77.87.24,1.41s-1,.2-1.4-.23a.62.62,0,0,0-.79-.24.67.67,0,0,0-.46.79c0,.62-.13,1.15-.85,1.13s-.82-.51-.8-1.09c0-.34,0-.63-.42-.81s-.63,0-.87.26c-.39.42-.84.68-1.33.21s-.26-1,.19-1.4a.67.67,0,0,0,.22-.88c-.17-.4-.43-.4-.73-.38-.62,0-1.16-.12-1.16-.84s.57-.85,1.17-.82c.32,0,.56,0,.72-.4a.67.67,0,0,0-.23-.88c-.43-.4-.65-.85-.17-1.33s.93-.27,1.32.16a.68.68,0,0,0,.88.24c.45-.18.42-.48.41-.82,0-.58.16-1.06.81-1.07s.85.45.85,1c0,.32-.09.64.37.84s.7,0,1-.28a.83.83,0,0,1,1.1-.26A.85.85,0,0,1,38.35,26.06Zm-2.06,2.81a1.64,1.64,0,1,0-1.63,1.66A1.68,1.68,0,0,0,36.29,28.87Z"/><path class="cls-1" d="M43.15,27.33c-.79-.21-1.83.21-1.86-.87s1.06-.75,1.77-.94c-.12-.72-1.49-1.22-.51-2.06.78-.67,1.22.37,1.9.71.26-.69-.26-1.88.95-1.85s.67,1.13.88,1.86c.7-.33,1.21-1.51,2-.61s-.28,1.24-.71,1.86c.69.36,2-.22,1.87,1.08-.09,1-1.12.6-1.81.79.22.71,1.46,1.2.58,2S47,29,46.29,28.65c-.24.72.24,1.83-.9,1.85s-.7-1.1-.92-1.78c-.7.14-1.17,1.44-2,.57S42.79,28,43.15,27.33Zm3.05-.95a.84.84,0,0,0-.76-.77.77.77,0,0,0-.87.78.75.75,0,0,0,.73.82C45.82,27.25,46.09,26.92,46.2,26.38Z"/><path class="cls-1" d="M34.67,16.51A2.48,2.48,0,1,1,32.17,19,2.49,2.49,0,0,1,34.67,16.51Zm0,1.66c-.46.08-.78.33-.78.79a.75.75,0,0,0,.83.82.74.74,0,0,0,.77-.77C35.46,18.49,35.12,18.23,34.63,18.17Z"/><path class="cls-1" d="M40.51,0A2.51,2.51,0,0,1,42.9,2.57,2.48,2.48,0,0,1,38,2.41,2.49,2.49,0,0,1,40.51,0Zm.73,2.49a.81.81,0,0,0-.77-.81.75.75,0,0,0-.84.8.74.74,0,0,0,.75.8A.81.81,0,0,0,41.24,2.5Z"/><path class="cls-1" d="M44.55,36.32a2.48,2.48,0,1,1-2.46-2.49A2.49,2.49,0,0,1,44.55,36.32Zm-2.5.81c.49-.07.83-.33.82-.84a.74.74,0,0,0-.77-.78.76.76,0,0,0-.83.82C41.28,36.8,41.59,37,42.05,37.13Z"/><path class="cls-1" d="M21.83,6.4c.53.21,1.39.06,1.46,1,0,.53-.32.8-.83.83-.86,0-1.67-.5-1.61-1.08S21.23,6.39,21.83,6.4Z"/><path class="cls-1" d="M17.89,5.35c.57.17,1.41.12,1.43,1.05a.74.74,0,0,1-.89.77c-.6-.14-1.47,0-1.52-1C16.87,5.54,17.27,5.33,17.89,5.35Z"/><path class="cls-1" d="M19.76,13c.57,0,1.51,1,1.47,1.45s-.38.89-.88.77A1.68,1.68,0,0,1,19,13.86C18.92,13.35,19.32,13.08,19.76,13Z"/><path class="cls-1" d="M14.46,3.31c-.64,0-1.25-.06-1.23-.86s.6-.8,1.19-.79,1.25.07,1.23.86S15.05,3.35,14.46,3.31Z"/><path class="cls-1" d="M22.71,3.31c-.64,0-1.25-.06-1.23-.85s.59-.81,1.19-.8,1.25.06,1.23.86S23.31,3.35,22.71,3.31Z"/><path class="cls-1" d="M26.85,3.31c-.62,0-1.24,0-1.25-.82s.55-.84,1.16-.83,1.26,0,1.26.83S27.47,3.35,26.85,3.31Z"/><path class="cls-1" d="M30.91,1.66c.64,0,1.25.06,1.24.86s-.59.8-1.19.8-1.25-.06-1.24-.86S30.31,1.63,30.91,1.66Z"/><path class="cls-1" d="M35.08,1.66c.6,0,1.17.07,1.19.79s-.59.87-1.22.87-1.18-.07-1.2-.79S34.44,1.63,35.08,1.66Z"/><path class="cls-1" d="M30.22,10.34c-.5-.16-1.3-.08-1.34-1a.73.73,0,0,1,.93-.8c.61.11,1.41.13,1.46,1C31.3,10.11,30.9,10.4,30.22,10.34Z"/><path class="cls-1" d="M18.59,1.66c.59,0,1.16.07,1.18.79s-.59.87-1.22.87-1.18-.07-1.2-.8S17.94,1.63,18.59,1.66Z"/><path class="cls-1" d="M16.8,10.12c.59,0,1.55.91,1.51,1.41s-.38.9-.86.8A1.68,1.68,0,0,1,16.1,11,.73.73,0,0,1,16.8,10.12Z"/><path class="cls-1" d="M24.14,17.27c-.07.57-.35.95-.86.87a1.61,1.61,0,0,1-1.35-1.36.71.71,0,0,1,.83-.82A1.87,1.87,0,0,1,24.14,17.27Z"/><path class="cls-1" d="M26.26,9.29c-.51-.2-1.33-.09-1.36-1a.73.73,0,0,1,.92-.81c.62.13,1.48.11,1.44,1.1C27.23,9.12,26.84,9.33,26.26,9.29Z"/><path class="cls-1" d="M15.44,8.54c-.13.59-.44,1-.93.87A1.58,1.58,0,0,1,13.21,8a.68.68,0,0,1,.86-.76C14.81,7.38,15.15,8,15.44,8.54Z"/><path class="cls-1" d="M34.34,11.43c-.66-.15-1.44-.15-1.5-1a.74.74,0,0,1,.95-.79c.6.1,1.39.09,1.45,1C35.29,11.21,34.85,11.42,34.34,11.43Z"/><path class="cls-1" d="M29.94,23.2a.72.72,0,0,1-.76.78c-.54,0-1.47-.87-1.43-1.4a.76.76,0,0,1,.78-.79A1.78,1.78,0,0,1,29.94,23.2Z"/><path class="cls-1" d="M14.45,6.12C13.83,5.9,13,6,13,5.08c0-.61.4-.85.95-.76s1.38.1,1.37,1C15.3,5.91,14.89,6.07,14.45,6.12Z"/><path class="cls-1" d="M27,20.31a.74.74,0,0,1-.73.75c-.53.06-1.49-.83-1.45-1.37a.79.79,0,0,1,.78-.8C26.13,18.85,27,19.7,27,20.31Z"/><path class="cls-1" d="M13.2,26.47v.72c0,1.64,0,1.7-1.65,1.68-.7,0-.84.23-.84.88,0,1.57-.05,1.61-1.62,1.61-.68,0-1.37,0-2,0-.94.05-1.39-.36-1.25-1.28s-.2-1.36-1.21-1.21-1.34-.3-1.29-1.24a20.82,20.82,0,0,0,0-2.37c0-.95.31-1.48,1.3-1.33s1.33-.26,1.19-1.23.35-1.31,1.27-1.26a20.64,20.64,0,0,0,2.36,0c1-.06,1.44.36,1.31,1.33s.19,1.3,1.15,1.16,1.42.3,1.34,1.29C13.18,25.64,13.2,26.06,13.2,26.47Zm-1.67,0c.12-.61-.07-.85-.74-.85-1.65,0-1.7,0-1.69-1.73,0-.72-.34-.72-.87-.74s-.82.15-.82.8c0,1.65,0,1.68-1.65,1.67-.6,0-.85.13-.83.79s.11.91.84.89c1.62,0,1.65,0,1.64,1.68,0,.65.2.79.82.8s.87-.18.86-.86c0-1.61,0-1.64,1.6-1.62C11.32,27.25,11.7,27.14,11.53,26.42Z"/><path class="cls-1" d="M8.21,38H4.4c-.59,0-1.07-.16-1.07-.81s.45-.85,1-.85c2.57,0,5.15,0,7.72,0,.59,0,1.07.17,1.08.82s-.46.85-1,.84Z"/><path class="cls-1" d="M8.25,33c1.27,0,2.54,0,3.82,0,.57,0,1.08.13,1.11.78s-.49.89-1.12.89q-3.81,0-7.62,0c-.63,0-1.15-.17-1.11-.89S3.86,33,4.44,33C5.71,33,7,33,8.25,33Z"/><path class="cls-1" d="M8.24,41.26c-.55,0-1.1,0-1.65,0a.82.82,0,0,1,0-1.63c1.1,0,2.19,0,3.29,0a.76.76,0,0,1,.8.78.77.77,0,0,1-.82.85C9.34,41.28,8.79,41.26,8.24,41.26Z"/><path class="cls-1" d="M8.27,5.77c-.7.16-.86-.15-.87-.82s.25-.83.89-.84.83.17.81.81S9,6,8.27,5.77Z"/></g></g></svg>