<svg xmlns="http://www.w3.org/2000/svg" viewBox="0 0 405.88 196.31"><defs><style>.cls-1{isolation:isolate;}.cls-2,.cls-34,.cls-40{fill:#fff;}.cls-2{mix-blend-mode:soft-light;}.cls-3{fill:#f28e7d;}.cls-4{fill:#253662;}.cls-5{fill:#484c7c;}.cls-6{fill:#2f3764;}.cls-7{fill:#f2907e;}.cls-8{fill:#de7c6f;}.cls-9{fill:#fdce75;}.cls-10{fill:#fdee64;}.cls-11,.cls-46{fill:#7f7f74;}.cls-12{fill:#6a5948;}.cls-13,.cls-50{fill:#6c2910;}.cls-14{fill:#218b37;}.cls-15{fill:#7c2e25;}.cls-16{fill:#250f0e;}.cls-17{fill:#f7f6ec;}.cls-18{fill:#29315d;}.cls-19{fill:#f7b598;}.cls-20{fill:#fab200;}.cls-21{fill:#494d7e;}.cls-22{fill:#3cbac6;}.cls-23{fill:#ebdbd7;}.cls-24{fill:#fcbf00;}.cls-25{fill:#dd997c;}.cls-26{fill:#fdece9;}.cls-27{fill:#fab400;}.cls-28{fill:#fee100;}.cls-29{fill:#f9b100;}.cls-30{fill:#fab300;}.cls-31{fill:#91362b;}.cls-32,.cls-48{fill:#b2b095;}.cls-33{fill:#f9fbfb;}.cls-35{fill:#d9dc3b;}.cls-36,.cls-47{fill:#3c3020;}.cls-37{fill:#b8d8d5;}.cls-38{fill:#ddefed;}.cls-38,.cls-40,.cls-42,.cls-44,.cls-45,.cls-46,.cls-47,.cls-48,.cls-49,.cls-50,.cls-51,.cls-52,.cls-53{fill-rule:evenodd;}.cls-39,.cls-53{fill:#c88a5e;}.cls-41,.cls-42{fill:#00837c;}.cls-43,.cls-49{fill:#f2a61c;}.cls-44{fill:#a1a08b;}.cls-45{fill:#4b3c32;}.cls-51{fill:none;stroke:#2fb5ae;stroke-miterlimit:22.93;stroke-width:1.2px;}.cls-52{fill:#967e6c;}.cls-54{fill:#776b61;}</style></defs><g class="cls-1"><g id="Capa_2" data-name="Capa 2"><g id="Capa_1-2" data-name="Capa 1"><path class="cls-2" d="M106.33,187.69a31,31,0,0,1-13.71-3.15,98.2,98.2,0,0,1-9.5-5.36C64.63,167,49.45,145.85,56.43,124,60.58,111,72,103.46,82.86,95.68c3.85-2.75,7.45-6.27,7-11.21s-4.18-9.48-6.35-14a61,61,0,0,1-5.17-15.4c-2.49-13.5.69-27.9,10.29-38.35C97,7.56,110.25,1.27,123.84.16A50.3,50.3,0,0,1,144.75,3c13.56,4.82,24.12,13.82,35.42,21.53a111.64,111.64,0,0,0,40,17.1,127.06,127.06,0,0,0,21.78,2.63c12.7.43,25.38-1.81,38,.16,16.88,2.63,33.66,10.67,45.08,23s14.05,30,9.14,45.41c-2.24,7-5.9,13.57-5.17,21.15a31,31,0,0,0,4.51,13c3.2,5.27,7.06,10.53,6.89,16.89q0,.56-.06,1.11c-.95,12.86-13.42,22.7-28,22.7Z"/><path class="cls-3" d="M169.68,189.57c.13-1.73.3-3.44.59-5.15l11-.36c-.29,1.85-.63,3.68-1,5.5Z"/><path class="cls-3" d="M193.38,189.55l.48-6.13q5.07-.3,10.14-.63c0,2.25,0,4.5-.14,6.75C200.37,189.53,196.88,189.55,193.38,189.55Z"/><path class="cls-4" d="M193.4,188.14c-.83.56-.6,1.27-.76,2.07a19.92,19.92,0,0,0-.72,3.5c0,.65.26.81,1.46.79,5.86-.09,13.19.13,19,.38,1.39.06,1.86.07,1.78-.89-.15-1.71-1.73-2.34-3.25-2.64-2.88-.57-5.28-1.26-6.63-4a1.3,1.3,0,0,0-.57-.17A52.28,52.28,0,0,0,193.4,188.14Z"/><path class="cls-4" d="M169.81,188.08c-.4,1.94-1,3.71-1.39,5.71-.09.53.26.66,1.13.67,5.75.11,12.49.35,18.18.5,1.14,0,1.68.06,1.61-.84-.15-1.91-2.22-2.57-3.88-3-2.2-.5-4.22-1.13-4.86-3.51.22-.53-.4-.58-.86-.56A47.45,47.45,0,0,0,169.81,188.08Z"/><path class="cls-5" d="M181.9,100.32a2.24,2.24,0,0,1-.7-.3,91,91,0,0,0-4.9,18.75c-.7,5-1.24,9-1.83,13.68-.54,4.33-1,8.43-1.45,12.67s-.75,8.33-1.1,12.53c-.4,4.82-.8,9.59-1.16,14.41-.31,4.24-.55,8.43-.86,12.75,4.16-.79,7.19,1.45,12.06-1.27,2.46-8,14.33-42.62,15.43-45.47,6.73-17.43,6.1-15.35,9.78-26.44,1.46-4.39,1.58-5.48,2.82-9.56.06-.18,0-.18.12-.41C199.47,102.81,192.38,102.71,181.9,100.32Z"/><path class="cls-5" d="M193,183.83H193q2-22.8,3.91-45.57c.13-.4.23-.8.39-1.18,2.69-6.45,5.3-12.87,7.62-19.48,1.94-5.51,3.55-11.17,5.14-16.79a30.59,30.59,0,0,1,5.92-1,.72.72,0,0,1,.64.23c.21.16.21.28.28.55s.09.67.15,1a110.07,110.07,0,0,1,1.65,29.47A159,159,0,0,1,213,159.8c-2.27,8.15-4.8,16-7.47,24Z"/><path class="cls-6" d="M192,105.56c-3.34,3.5-6.82,4.59-11.6,4.2C184.48,111.71,189.75,109.15,192,105.56Z"/><path class="cls-7" d="M204.94,53c-.69,2.07-2.24,2.08-3.59,2.09a11,11,0,0,1-7-2.54c1.08-.1,1.43-.88,1.4-2.18s.08-2.66.13-4c.42-.08.62.33.85.65a14.64,14.64,0,0,0,5.38,4.62,3.54,3.54,0,0,1,1,.82Z"/><path class="cls-8" d="M205.23,49.8a12.65,12.65,0,0,1-9.43-5.47c0,.77,0,1.54.07,2.3a16.25,16.25,0,0,0,9.07,7.07A21.87,21.87,0,0,1,205.23,49.8Z"/><path class="cls-3" d="M247.4,52.55l-.36.11c-5.39,1.94-9,4.33-15.9,5a27.43,27.43,0,0,1-11.56-1.5,11.75,11.75,0,0,0-2.45,8.74,11.6,11.6,0,0,0,3.48,6.69,97.06,97.06,0,0,0,29.81-13.49A32.15,32.15,0,0,0,247.4,52.55Z"/><path class="cls-9" d="M264,50.64c-1.29.25-2.37,1-3.63,1.38,8.59-5.09,7.7-6.72-1.57-2.16,1.78-1.82,4.49-2.55,5.55-4.54.41-2.75-6.34,2.37-8.17,2.82-1.13-.81.53-3.26.11-4.48h0c-.07-1.18-.3-1-.61-1.21-1.28.48-.8,1.52-1.55,2.46-1.31,2.41-2.74,4.87-4.65,6.4-2.16.46-14.39,1.32-16.08,5.08,1.51,3.23,3.53,6.35,4.56,9.75,1.28-.13,2.82-1.12,4.87-2.19,3.53-1.76,7.32-3.76,9.69-6.66a66.15,66.15,0,0,0,11.59-1.75c2.37-1.48-2.24-1.42-3-1.28,1.49-1,3.48-1.6,4.55-2.63C267.79,50.12,264.71,50.07,264,50.64Z"/><path class="cls-10" d="M253.78,47.37v0S253.78,47.36,253.78,47.37Z"/><path class="cls-10" d="M250.37,55.69h0Z"/><path class="cls-11" d="M224.71,57.57s-1.49-1.22-5.39-2c-3.33-.91-10.64-.18-12.85-.55-1-.16-.24-1.3-1.52-2.05-2.93.36-6.12.68-8.85-.61-3.17-1.43-2.61-3.08-4.3.54-8.21,1.26-16.77,6.34-18.36,15.51-10.4,21-5.88,12,8.71,18.71-.94,3.85-3.56,16.18-1,15.48a100.59,100.59,0,0,0,33.65-.15c4,.34,1.72-3.74,1.89-8-.62-9.54-1-14.68-1.2-17.59,0-1.4-.43-2.45-.24-4.08.35,1.45,4.25-.41,5.3-.39,1.88-.79,5.2-1,6.86-1.74C227.73,68.71,228.86,61,224.71,57.57Z"/><path class="cls-12" d="M181.44,90.25l-.07-.27a3,3,0,0,1,.64-2.87,54.52,54.52,0,0,0,1-6.73c.08-.81.06-1.62.21-2.44a7,7,0,0,0-.9-4.59,4,4,0,0,1-.64-2.33l1.49,3.3c.3-1.4-.16-2.64-.08-3.87.45,0,.43.28.44.48A64.75,64.75,0,0,1,182,89.13C181.87,89.55,181.84,90,181.44,90.25Z"/><path class="cls-3" d="M196,46.06l-.18-.26a.48.48,0,0,1-.23-.19c-.95-1.68-1.77-3.37-3.79-4.23a2.65,2.65,0,0,1-1.15-2.92A1.51,1.51,0,0,1,191.92,37a1.48,1.48,0,0,1,1.66,1c.27.56.32,1.25,1,1.71-1-2.37-.09-4.31,1-6.27a5.27,5.27,0,0,0,.49-2.35c.05-1.08.57-1.58,1.68-1.36a19.31,19.31,0,0,0,5.26,0c1.26-.14,2.15-1.42,3.51-1.53.54-.05,1-.44,1.61-.2,1.26,1.57,4.53,13.75,2.91,17.73a5.75,5.75,0,0,1-5.2,3.92c-2.51.42-5,.53-7.26-.92A6.29,6.29,0,0,1,196,46.06Z"/><path class="cls-13" d="M210.6,24.08c-.54-.13-.75.62-1.32.33a5.12,5.12,0,0,0-1.19-4c-.57,2.17-2.24,2.29-4,2.09-1.93-.23-3.85-.61-5.78-.92h0a5.09,5.09,0,0,0-5.8,3.06c-.17.33-.3.68-.78.83-2.94.88-3.75,1.91-3.73,4.92a20.5,20.5,0,0,0,2.2,9.48,12.85,12.85,0,0,0,5.53,6c-.21-.51-.42-1-.62-1.54-.46-1.21-.08-4.65-.17-5.06-.4-1.64-.63-3.13.64-4.62a4.64,4.64,0,0,0,.85-3.46c-.1-1.05.37-1.2,1.2-1.06l.14,0,.34.08a23.72,23.72,0,0,0,5.46.16c1,0,.82-1.25,1.77-1.29a7.15,7.15,0,0,0,2.82-1C209.62,27.12,210.72,26,210.6,24.08Z"/><path class="cls-14" d="M265.48,63.42a16.8,16.8,0,0,1-7.33-.11c-4.58-1.29-8-7.57-6.21-11.93a8.59,8.59,0,0,0-.48-7.8c-3.33-6.15-.69-12.41,6-14.07,1.44-.36,2.93-.9,4.49-.4,6.3,1.62,8.86,7.7,6.92,13.3a7.94,7.94,0,0,0,.74,6.75A10.16,10.16,0,0,1,265.48,63.42Z"/><path class="cls-9" d="M265.48,63.42c1.95-2.1,4.09-4,4.79-7.07a8.59,8.59,0,0,0-.93-6.53,8.4,8.4,0,0,1-1-7.69,9.33,9.33,0,0,0-5.3-12.1c-.43-.17-1.06-.23-1.1-.92a8.89,8.89,0,0,1,9.44,3.13c2.56,3.08,2.95,6.53,1.45,10.3a7.08,7.08,0,0,0,.84,6.31A9.46,9.46,0,0,1,275,56.24C273.85,60.6,270.54,63.06,265.48,63.42Z"/><path class="cls-15" d="M205.63,36.18a2.74,2.74,0,0,0,1.13,2.09c.94.64.7,1.56-.39,1.95-.19.07-.5,0-.48.33s.34.31.57.33a1.36,1.36,0,0,0,1.29-.75,1.34,1.34,0,0,0,0-1.72,6.45,6.45,0,0,1-2-3.66c0-.14-.1-.31-.3-.28a.28.28,0,0,0-.2.36C205.39,35.28,205.52,35.73,205.63,36.18Z"/><path class="cls-16" d="M206.59,32.71c-.28.09-.65.09-.6.47s.41.27.67.27l1.84-.07c.23,0,.55.07.58-.29s-.24-.38-.5-.42A7.77,7.77,0,0,0,206.59,32.71Z"/><path class="cls-16" d="M201.2,34.79q.57-.16,1.14-.36a.3.3,0,0,0,.24-.34.3.3,0,0,0-.41-.25c-.77.17-1.55.36-2.32.55a.37.37,0,0,0-.32.4c0,.27.29.31.5.27.39-.07.78-.19,1.16-.28Z"/><path class="cls-15" d="M208.07,42a4,4,0,0,1-3.51.61A2.11,2.11,0,0,0,208.07,42Z"/><path class="cls-16" d="M201.8,36c-.49.17-.71.47-.6.93a.74.74,0,0,0,1.44-.32A.73.73,0,0,0,201.8,36Z"/><path class="cls-16" d="M206.92,35.51a.69.69,0,0,0,.85.52.72.72,0,0,0-.28-1.41A.7.7,0,0,0,206.92,35.51Z"/><circle class="cls-3" cx="193.13" cy="41.81" r="2.81"/><path class="cls-8" d="M194.05,40.45c0,.15-.12.15-.23.11a2.13,2.13,0,0,0-1.82.24c-.08,0-.21.13-.28,0s.06-.19.15-.24a2.31,2.31,0,0,1,2-.32C193.93,40.28,194,40.32,194.05,40.45Z"/><path class="cls-17" d="M211.61,41.5a6.68,6.68,0,0,1-.46,5,6.92,6.92,0,0,1-4.32,3.06c-5,1.52-10.89-1.09-11-3.2,0-.76.74-.81.93-1.87.46-2.65-3.84-5.24-3.24-6.18a.56.56,0,0,1,.41-.22c1.94,1.18,3.61,3,5.79,4.4,2.66-1.49,6.06-4.95,9.72-2.53.29.07.31-.12.47-.87C211.45,29.16,210.82,38.77,211.61,41.5Z"/><path class="cls-18" d="M207,110.86c-.69,6.4-2.92,12.35-5.4,18.22-.79,1.87-1.7,3.68-2.55,5.51a.39.39,0,0,1-.07.16c-.27.3-.41.94-1,.63s-.11-.76.05-1.08a89.82,89.82,0,0,0,5.49-13,46,46,0,0,0,2.39-9.89c0-.42.08-1,.81-.82Z"/><path class="cls-9" d="M175.31,107.9c0-3.7-.13-7.06,1.31-11.72a24.84,24.84,0,0,1,5.3-9.18,10.76,10.76,0,0,0-6.48-5.1,10.48,10.48,0,0,0-6.83.59,90,90,0,0,0,.13,25.38C170.92,108,173.11,107.94,175.31,107.9Z"/><path class="cls-10" d="M169.92,127.39c.46,1.87.42,4.14,1.11,5.59.79,2.78,1.92-.37,1.59-1.31.19-1.41-.24-2.8-.15-4.21,2.22,10.6,4.2,10.26,2.77-.85,1.24,2.43,1,5.48,2.71,7.28,2.69,1.39-.21-7.34,0-9.37,1.22-.88,3.16,1.69,4.56,1.68h0c2.87.47.93-1.47-.14-2.25-2.16-2.29-4.35-4.76-5.33-7.42a81.71,81.71,0,0,1,1.71-10.46c.9-3.89,1.55-5.34.66-6.81-1.88-3.09-8.19-2.28-9.33-2.13-1.74.22-3.05.38-3.82,1.43-1,1.34-.36,3.59.13,6.71.57,4.24,1.3,8.84,3.45,12.29a70.46,70.46,0,0,0-2.26,12.51C168.23,133,169.79,128.26,169.92,127.39Zm9.63-5.06h0S179.56,122.34,179.55,122.33Zm-7.35-6.41h0Z"/><path class="cls-19" d="M170.46,75c-.76,1.62-1.32,1.64-2.38.21-3.37-4.58-6.84-9.08-10.26-13.61a7.18,7.18,0,0,0-3.43-2.87c-.08.52-.19,1.29-.28,2.22a35.46,35.46,0,0,0,3.36,19.49c2.84,5.63,8,11.68,12.49,12a8.68,8.68,0,0,0,3.43-.51,8.85,8.85,0,0,0,4.06-3.77,48.57,48.57,0,0,0,4.41-10.11c-2.44-3.89-5-7.73-7.24-11.72Q172.52,70.66,170.46,75Z"/><path class="cls-9" d="M185.87,64.74A3.38,3.38,0,0,1,188,62.19c4.57-2,5.29-4.4,2.68-8.7a18,18,0,0,0-2.54-3.17c-2.21-2.25-3.38-2.31-5.68-.17-.93.87-1.51,1-2.26-.07a6.49,6.49,0,0,0-1-1c-.47-.42-1-1-1.66-.73-.85.35-.72,1.21-.58,1.9A32.09,32.09,0,0,1,178,57.8a5.52,5.52,0,0,1-.38,2.3c-1,2.07-2,4.15-3,6.23,2.25,4,4.8,7.83,7.24,11.72.1-.3.21-.6.3-.89C183.52,73.06,184.75,68.91,185.87,64.74Z"/><path class="cls-20" d="M185.85,55.15c-.84-.5-1.66,1.4-2.26-.1-.81-2,1.45-2.09,2.21-3.33-1.36-.35-2.33,2-3.82.12,0,2.75,2.33,4.95.23,7.37a1,1,0,0,0,1.27-.78c.32-1.26.78-.81,1.41-.24,1,.86,1.66,2.1,3.65,2.58-3.28-3.09.64-3.45,1.18-5.18-1.09-.19-1.41.8-2,1.22s-1.07,1.84-2.31.87S185.45,55.94,185.85,55.15Z"/><path class="cls-13" d="M154.69,58.32c-.05,3.71-.58,13.07-.46,15.78.4,8.44,3.29,14.29,8.46,18.57,2.6,2.15,3.39,3.37,6.06,2.32,5.28-2.06,5.61-11.47,5.43-17.1,0-.52-.23-7.66-2.9-7.69-1.22,0-3.15,3.06-3.38,4.45a21.1,21.1,0,0,0-4.29-9A23.19,23.19,0,0,0,154.69,58.32Z"/><path class="cls-19" d="M119.54,190.05l12.18-1.79c.24-2.47.41-5.09.49-7.85,0-1.86,0-3.66,0-5.39l-11.65.75Q120.06,182.91,119.54,190.05Z"/><path class="cls-4" d="M120.32,189c-1.14.54-.55,1.22-.8,1.83a27.3,27.3,0,0,0-.8,3c-.13.48,0,.75,1.44.74,6.76-.07,13.51.1,20.23.38,1.61.07,1.92-.22,1.78-.8-.25-1-1.13-2.07-3.5-2.34-4.5-.51-6.11-1.86-6.95-3.56a1.82,1.82,0,0,0-.6-.15A58.39,58.39,0,0,0,120.32,189Z"/><path class="cls-19" d="M126.28,88a52.46,52.46,0,0,1-8.43-7c-1.6-1.56-3.14-3.17-4.66-4.8-.85,2.87-1.42,5.84-2.21,8.77,1.25,1.54,2.55,3.06,3.9,4.54A49,49,0,0,0,122.81,97a6.25,6.25,0,0,0,3.45-2.73A6.78,6.78,0,0,0,126.28,88Z"/><path class="cls-19" d="M153.21,189.9l12.19-1.79c.24-2.48.41-5.1.48-7.85.06-1.87.06-3.67,0-5.4l-11.65.75Z"/><path class="cls-21" d="M121.05,144c1.68,1.3,3.72,1.8,5.65,2.57a117.22,117.22,0,0,0,12.21,4.06,8.39,8.39,0,0,1,.84.3c-.71,4.67-1.39,9.35-2.11,14-.7,4.5-1.43,9-2.15,13.51-.15,1-.29,2-.43,2.94-.35.49-.88.39-1.37.4a63.49,63.49,0,0,1-12.23-1.06,30.63,30.63,0,0,1-3.95-.92c-.43-.13-.83-.25-1-.71.31-.18.3-.47.33-.78.5-4.47,2.94-30.61,3.36-33.11C120.29,144.71,120.44,144.22,121.05,144Z"/><path class="cls-21" d="M147.43,150.58c2.11-.14,4.25-.11,6.33-.46a21.29,21.29,0,0,0,9-3.47,20.42,20.42,0,0,1,3.5-2.05,12.21,12.21,0,0,1,.49,3.23c.65,5.15,1.23,10.32,1.85,15.47.42,3.48.84,7,1.29,10.44a6.37,6.37,0,0,1-.05,2.75c-2.09,1.43-4.57,1.64-6.94,2.12a37.63,37.63,0,0,1-11.11.4c-.57-1.2-.43-2.52-.65-3.79-.58-3.22-1-6.47-1.48-9.71Q148.52,158,147.43,150.58Z"/><path class="cls-13" d="M149,57.58c1.21,4.43,2.11,7.88,2.74,9.94a28.09,28.09,0,0,1,.53,4.78c.09.69-.08,1-.86,1.07-4.11.27-8.21.14-12.31,0a2.52,2.52,0,0,1-2.61-1.86q-.79-2-1.62-4s-.11-.41-4.67-11.07a26.2,26.2,0,0,1,2.74-.65A29.57,29.57,0,0,1,149,57.58Z"/><path class="cls-17" d="M118.93,130.62a59.75,59.75,0,0,0-1.32,11.19c13.54,11.12,37.45,13.32,51,1.2q-.66-5.22-1.24-10.55c-.65-6-10.18-64-12.65-74.18a11.37,11.37,0,0,0-5.73-.7q.36,6.56.7,13.11s-7.64,2.6-11.15-.23l-4.44-14.88-5.6,1.13a71.65,71.65,0,0,1-2.87,30.84c.33,5.17.45,10.07-1,15.09C123.46,108,119.94,125.86,118.93,130.62Z"/><path class="cls-22" d="M121.89,127.57s0,0,0-.19c0,.08,0,.17,0,.25Z"/><path class="cls-23" d="M137.51,86.12a19.94,19.94,0,0,1,.18-3.44,1.05,1.05,0,0,1,1-1,65.28,65.28,0,0,1,9.58-.58c1,0,1.89-.28,2.86-.21.69,0,1.19.34,1.27,1a36.79,36.79,0,0,1,.29,8.19,2.93,2.93,0,0,1-2.36,2.53,18.56,18.56,0,0,1-9.3.41,4.27,4.27,0,0,1-3.54-4.42C137.5,87.86,137.51,87.1,137.51,86.12Z"/><path class="cls-4" d="M154,188.84c-1.14.54-.55,1.22-.8,1.83a27.9,27.9,0,0,0-.8,3c-.14.48,0,.75,1.44.74,6.76-.06,13.51.1,20.23.38,1.61.07,1.92-.22,1.78-.8-.25-1-1.13-2.07-3.5-2.34-4.5-.51-6.11-1.86-6.95-3.55a1.61,1.61,0,0,0-.6-.16A58.39,58.39,0,0,0,154,188.84Z"/><path class="cls-24" d="M105.57,65c-.78-.93-1.94-1.7-2.18-2.9a12.74,12.74,0,0,1,.07-6.46c.1-.34.4-.65,0-1s-.74-.09-1.11.14A4.61,4.61,0,0,0,100.87,57c-.47-.06-.55-.42-.71-.67-1.06-1.63-2.11-3.28-3.17-4.91-.17-.26-.31-.66-.7-.53s-.3.6-.22.94c.13.56.3,1.11.45,1.67-1-.92-1.41-2.21-2.78-3.15.4,1.66,1.28,2.86,1.41,4.42-1.07-.57-1.41-1.81-2.61-2.16.07,1.43,1,2.45,1.22,3.79-.68-.26-.83-1.11-1.58-1.07a1.9,1.9,0,0,0,.42,1.26c2.82,5,5.36,10.1,8.12,15.1a108.82,108.82,0,0,0,10.83,15.86c1.11-4.1,1.91-8.26,3.1-12.29Q110,70.29,105.57,65Z"/><path class="cls-13" d="M128.49,56.71a143.2,143.2,0,0,1,2,16c.85,12.74-.59,17.14-2.77,20.3-1.1,1.6-2.69,3.91-4.9,4-4.36.11-8-8.64-9-14.74-.09-.55-1.24-7.86.81-8.6.93-.34,2.42.6,4.64,3.58a20.46,20.46,0,0,1,9.19-20.48Z"/><path class="cls-9" d="M148.67,52.33a8.28,8.28,0,0,0,5.38-2.53c.22-.23.56-.46.28-.84-1.34-1.86-1.07-3.91-.69-6,.25-1.3.55-2.59.72-3.92a10.33,10.33,0,0,0-9.29-11.58A11.68,11.68,0,0,0,137.4,29a.84.84,0,0,1-.27.13c-4,1.05-4.87,4.21-5,7.69-.1,2.36-.06,4.66-1.62,6.63a3.77,3.77,0,0,1-1.74,1.45c-.71.21-.58.52-.29,1a12.2,12.2,0,0,0,7.19,5.37c.54.16,1.09.27,1.64.41a.73.73,0,0,0,.58-.72,13,13,0,0,0-.28-4.4c-1.58-1-1.44-2.6-1.44-4.16,0-.26,2.33-.88,2.77-1s.53-.62.59-1.06c.1-.79.2-1.58.33-2.37a2.32,2.32,0,0,0-.26-1.91c.59.84,1.37,1,2.61.45a14.19,14.19,0,0,1,3.37-1.18,6.64,6.64,0,0,1,4.07.6,3.6,3.6,0,0,1,1.88,3.59,28.53,28.53,0,0,1-.46,6.45,12.85,12.85,0,0,1-2.12,5.32C148.7,51.53,148.43,51.89,148.67,52.33Z"/><path class="cls-19" d="M136.44,58.43a8.38,8.38,0,0,0,9.47,2.5,2.42,2.42,0,0,0,1.3-3.57,4.12,4.12,0,0,1-.55-1.6.13.13,0,0,0,0-.06c-2.37-.21-6.77-1-9.32-3.62,0,1-.25,1.87-.28,2.82a5,5,0,0,1-.73,1.88C135.79,57.42,136,57.87,136.44,58.43Z"/><path class="cls-25" d="M137.29,51.65c0,.15,0,.29,0,.43,2.55,2.66,6.95,3.41,9.32,3.62-.11-.85-.52-1.69-.18-2.57-2.27.14-3.89-1.28-5.63-2.39A7,7,0,0,1,138,47.31c-.12-.33-.24-.71-.67-.79A20.48,20.48,0,0,1,137.29,51.65Z"/><path class="cls-19" d="M148.67,52.33c3.35-4.24,3.51-9.17,3-14.23a3.41,3.41,0,0,0-2.6-3,7.9,7.9,0,0,0-6.12.44c-.33.15-.65.34-1,.5-1.34.61-1.82.46-2.6-.82a1.05,1.05,0,0,0-.83-.66,4.48,4.48,0,0,1,.82,3.2c-.24,1.08-.31,2.21-.45,3.31-.3,0-3.3,2.74-3,4a1.74,1.74,0,0,0,1.33,1.46.63.63,0,0,1,.34.47c.29,2.17,1.84,3.38,3.49,4.47a13.7,13.7,0,0,0,3.58,1.91,1.85,1.85,0,0,0,1.78-.23C147.34,53.23,148,52.62,148.67,52.33Z"/><path class="cls-25" d="M147.11,41.9a3,3,0,0,0,.63,2.49c.81.92.32,1.81-.92,1.94-.22,0-.54-.09-.59.21s.28.41.51.49a1.75,1.75,0,0,0,2-2.23,7,7,0,0,1-1.1-4.34c0-.15,0-.36-.23-.37a.31.31,0,0,0-.31.32C147.1,40.91,147.11,41.41,147.11,41.9Z"/><path class="cls-21" d="M149,38.53c-.31,0-.7-.07-.75.34s.35.39.63.45c.65.15,1.29.29,1.94.42.25,0,.55.22.68-.15s-.15-.46-.41-.57A8.58,8.58,0,0,0,149,38.53Z"/><path class="cls-21" d="M142.85,39.29l1.29-.07a.34.34,0,0,0,.34-.3c0-.25-.15-.37-.36-.37-.86,0-1.72,0-2.58,0a.41.41,0,0,0-.44.33c0,.3.23.4.46.42.43,0,.86,0,1.29,0Z"/><path class="cls-25" d="M148.13,48.57a4.26,4.26,0,0,1-3.82-.28A2.27,2.27,0,0,0,148.13,48.57Z"/><path class="cls-21" d="M143.15,40.73c-.56,0-.87.31-.87.82a.8.8,0,0,0,1.59,0A.77.77,0,0,0,143.15,40.73Z"/><path class="cls-21" d="M148.64,41.54a.74.74,0,0,0,.74.78.73.73,0,0,0,.82-.79.73.73,0,0,0-.74-.77C149,40.74,148.7,41.06,148.64,41.54Z"/><circle class="cls-19" cx="136.01" cy="44.04" r="3.24"/><path class="cls-25" d="M137.07,42.47c0,.18-.14.18-.27.13a2.45,2.45,0,0,0-2.09.27c-.1.05-.24.16-.33,0s.07-.22.17-.29a2.7,2.7,0,0,1,2.26-.36C136.93,42.27,137.05,42.32,137.07,42.47Z"/><path class="cls-26" d="M135.72,45.45a.6.6,0,0,0,.71.57c.33,0,.6-.17.58-.54a.59.59,0,0,0-.64-.61A.66.66,0,0,0,135.72,45.45Z"/><path class="cls-17" d="M152.47,47.79c-4.24,9-14,6.4-12-1.4-.39-.75-5-8-2.43-6.52,1.37,2,2.5,4.09,4,6,3.23-1.07,6-2.14,8.88.27.39-.33.29-.24.54-1,.37-1.12,1-3.23,1.47-4.55C154,41,152.06,46.1,152.47,47.79Z"/><path class="cls-20" d="M93.37,51.78c-1.41,1.25-2.3,3-4,4a1.21,1.21,0,0,0,0-.19,1.15,1.15,0,0,1,.32-.58c1.32-1.22,1-1.4-.17-2.47C88.67,51.72,88,50.73,87,50a.84.84,0,0,1-.18-1.19c-.17-1.31.56-1.64,1.67-1.56a.82.82,0,0,1,.93.22q1.91,1.73,3.64,3.63A1.16,1.16,0,0,1,93.37,51.78Z"/><path class="cls-27" d="M85.42,59.75a5.32,5.32,0,0,1-2.14,2c-1.51-1.6-3.3-2.94-4.5-4.83-.07-1.27.59-1.77,1.8-1.7a.79.79,0,0,1,.92.21C82.78,56.54,84,57.76,85.15,59A1.16,1.16,0,0,1,85.42,59.75Z"/><path class="cls-9" d="M103.41,41.73l-2.08,2.09a1,1,0,0,1-.53-.17,33.19,33.19,0,0,1-4.31-4.4,8.43,8.43,0,0,1,2.34-2.37C100.5,38.36,102.31,39.71,103.41,41.73Z"/><path class="cls-9" d="M93.37,51.78l-3.94-4a1.68,1.68,0,0,0-.9-.62c0-.06.12-.12.13-.18a1.8,1.8,0,0,1,1.86-1.93c.12,0,.22-.18.34-.27a37,37,0,0,1,4.22,4.09,1,1,0,0,1,.22.94Z"/><path class="cls-9" d="M99.43,45.72,97.35,47.8a.88.88,0,0,1-.53-.17,31.1,31.1,0,0,1-4.27-4.39c.09-.19.28-.39.27-.59,0-.95.36-1.45,1.37-1.41.22,0,.45-.23.67-.36C96.55,42.34,98.33,43.71,99.43,45.72Z"/><path class="cls-20" d="M89.4,55.79l-2.06,2a1.66,1.66,0,0,1-1.07-.56c-1-1-2-2-3-3-.41-.42-.76-.86-.37-1.48,0-1.39,0-1.39,1.7-1.55a.77.77,0,0,1,.92.23c1.27,1.16,2.5,2.37,3.65,3.65a.88.88,0,0,1,.24.62Z"/><path class="cls-28" d="M89.4,55.71c-1.28-1.26-2.55-2.53-3.83-3.78-.29-.29-.52-.66-1-.72a2.1,2.1,0,0,0,.28-.71c0-.8.27-1.3,1.18-1.21.37,0,.58-.28.81-.52a1.16,1.16,0,0,0,.36,1C88.34,50.83,89.39,52,90.53,53c.64.59.72,1,0,1.6A14.33,14.33,0,0,0,89.4,55.71Z"/><path class="cls-28" d="M82.89,52.76a1.2,1.2,0,0,0,.51,1.14q2,2,3.94,3.92l-1.92,1.93-3.94-4a1.61,1.61,0,0,0-.9-.61c.1-.2.3-.4.28-.59-.08-1,.38-1.37,1.31-1.34C82.51,53.26,82.68,53,82.89,52.76Z"/><path class="cls-20" d="M92.55,43.24a15.24,15.24,0,0,1,2.84,2.6c.68.62,1.31,1.3,2,2l-2,2.06c-.89-1.53-2.38-2.51-3.52-3.81-.34-.39-.81-.67-.92-1.22C90.93,43.32,90.93,43.32,92.55,43.24Z"/><path class="cls-29" d="M99.43,45.72l-4-3.94a1.68,1.68,0,0,1-.62-.9c0-1.55.06-1.6,1.63-1.63,1,.39,1.5,1.29,2.23,2,.9.83,1.74,1.73,2.61,2.59Z"/><path class="cls-30" d="M103.41,41.73l-4-3.94a1.72,1.72,0,0,1-.61-.91c.13-.52-.31-1.29.53-1.51a2.05,2.05,0,0,1,2.15.54c1.26,1.31,2.56,2.59,3.84,3.89Z"/><path class="cls-14" d="M82.45,63.19c.79.4,2-.14,3-.23,1.88,1.73,3.46,4.32,6.24,4.63,4.52.6,7.75-3,10.17-6.38,1.54-1.82,3.4-3.74,4.26-6.11,1.82-4.53,3.54-7.87,2.16-12.48.22-1.2.22-2.38-.9-3.09-.56-.6-1.19-.82-1.67,0-.37.43-.84.28-1.37.76l-9.29,9.34C90,55.2,82.53,61.4,82.45,63.19ZM101.35,50a53,53,0,0,1,3.79-3.7c-.41,5.07-3.67,9.64-6.69,13.45-2.76,3.77-5.79,6.19-9.22,2.17C93.43,58.31,97.32,53.92,101.35,50Z"/><path class="cls-31" d="M74.07,49.13c0-.74.06-1.48.08-2.22s0-.74.84-.86c.12-.19.36-.17.56-.18a18.68,18.68,0,0,0,7.94-2.08A.57.57,0,0,1,84,43.7c0,1.54,0,3.08-.08,4.62,0,.31,0,.62,0,.93,0,0,.09.07.09.11A5,5,0,0,1,84,51.72a2.85,2.85,0,0,1-1.46,1.46,8.48,8.48,0,0,1-6.15.39,7.15,7.15,0,0,1-1.46-.74,2.18,2.18,0,0,1-1-1.4A4.19,4.19,0,0,1,74.07,49.13Z"/><path class="cls-15" d="M84,43.88A16.62,16.62,0,0,1,75,46.8c-.82-.06-.82-.06-.8-.92,0-1.52.09-3,.14-4.56A10.26,10.26,0,0,0,83.92,41a.66.66,0,0,1,.17.55Z"/><path class="cls-31" d="M109.94,191.72a36.75,36.75,0,0,0-.5-4.74l-11.07-.55c.25,1.76.57,3.44,1,5.07Z"/><path class="cls-31" d="M86,191.21c-.12-1.87-.25-3.75-.37-5.63l-10.22-.77c0,2.07-.12,4.14,0,6.18Z"/><path class="cls-4" d="M86,189.92c1.09.59.51,1.29.73,1.94a29.16,29.16,0,0,1,.71,3.15c.11.5-.07.79-1.41.74-6.51-.2-13-.17-19.49,0-1.55,0-1.84-.27-1.69-.87.27-1.08,1.14-2.14,3.42-2.37,4.35-.45,5.93-1.82,6.78-3.58a1.46,1.46,0,0,1,.58-.14A52.87,52.87,0,0,1,86,189.92Z"/><path class="cls-4" d="M109.84,190.35c.43,1.75.85,3.5,1.32,5.25.13.47-.16.62-1.1.62q-9.28,0-18.57.09c-1.23,0-1.64-.22-1.57-.81.16-1.26,1.59-2.31,4-2.64,3.26-.45,4.63-1.56,5-3.12-.34-.43.4-.53.87-.5C103.21,189.44,106.71,189.44,109.84,190.35Z"/><path class="cls-31" d="M59.29,76.26a12.83,12.83,0,0,0-7-7,29.6,29.6,0,0,1-10.14,7.56c-5.85,2.59-10.11,2.73-15,3.34.08.34.17.68.25,1,.52,2.19,1,4.39,1.43,6.6a107.19,107.19,0,0,0,30.68-3.37A12.56,12.56,0,0,0,59.29,76.26Z"/><path class="cls-31" d="M96.69,75.76a12.79,12.79,0,0,1,7-7,12.47,12.47,0,0,1,8.17-.27c4.53,17.86,4.2,33.12,1.59,45.87-.07.35-.14.68-.22,1-.52-.27-.29-.9-.64-1.35-.36,1-.17,2.05-.68,3-.67-.71-.41-1.68-.91-2.49-.53,1.1-.41,2.26-.81,3.53-.55-1.17-.32-2.21-.62-3.23-.12.44-.22.88-.36,1.31-.08.26-.15.62-.52.54s-.25-.39-.26-.63c-.06-1.52-.11-3-.18-4.58,0-.23.08-.5-.21-.73a3.59,3.59,0,0,1-1.85.88c-.34,0-.64,0-.81-.34s.17-.47.37-.65a10,10,0,0,0,2.62-4.33c.32-.91-.16-1.89-.31-2.82-1-6.12-.7-10.8-3.76-17.67A29.85,29.85,0,0,0,96.69,75.76Z"/><path class="cls-9" d="M6.41,92.51A72,72,0,0,0,18.31,88c3.78,1.48,8.44,1.36,12.7,1.15h0c5-.13,8,.47,7.35-5.1-.17-1.58-.31-3.85-1.48-5.52-1.17-5.8-16.27,1.38-18.87,2.2-2.61-.44-5.27-2-7.79-3.59-1.21-.5-1.31-1.74-2.77-1.52-.16.4-.49.33.06,1.48h0c.25,1.37,3.12,2.82,2.48,4.18C8,81.84-1.08,80.57.77,83c2.05,1.31,5,.57,7.65,1.34-11.18.61-11.16,2.62-.33,2.88-1.38.34-2.82.18-4.17.62h0c-1-.16-3.87,1.53-1,1.8,1.55.41,3.78,0,5.7.07C7.78,90,3.39,92.36,6.41,92.51Zm5.42-13.25s0,0,0,0S11.8,79.31,11.83,79.26Zm7.67,6.1v0Z"/><path class="cls-31" d="M87.77,28.2a9.92,9.92,0,0,1,.28,1.63c0,.24.11.29.37.26a3.42,3.42,0,0,1,3.36,1.22,3.22,3.22,0,0,1-.68,4.44,4.37,4.37,0,0,1-3,1,.45.45,0,0,0-.53.32,28.56,28.56,0,0,1-1.88,3.06c-.76,1.4-3.43,3.23-6.54,3.23-2.87,0-6-1.61-6.71-3.55a39.19,39.19,0,0,1-1.36-4c0-.37-.19-.3-.43-.22a3.32,3.32,0,0,1-4.15-2.21,3.35,3.35,0,0,1,3.81-4.07l.39,0c.19,0,.28.14.4.23.27.2.35.18.44-.16,0-.11,0-.23.06-.34a9.31,9.31,0,0,1,1.21-3.26,2.2,2.2,0,0,1,.17-.25c.27-.3.43-.3.65,0a6.27,6.27,0,0,0,.62.84,7.45,7.45,0,0,0,4.4,2.22A18.53,18.53,0,0,0,81,29c.3,0,4.5-.19,5.23-.38a6.81,6.81,0,0,0,1.08-.35C87.44,28.15,87.6,28.06,87.77,28.2Z"/><path class="cls-16" d="M89,28.88c-1.23.54-6.69.95-7.81,1-3-.18-6.38-.88-8-4-2.16,1.95-1.36,9-3.92,1.77-2.79-1.41.56-7.07,3.36-7.79A6.63,6.63,0,0,1,75.76,16c2.52-1.31,5.93-.62,8.31,1.84,2-1.56,5.53-.49,4.93,2.87C97.18,18.28,93.86,26.9,89,28.88Z"/><path class="cls-16" d="M69.15,32a1.58,1.58,0,0,1,1,.32c.1.07.2.15.1.28s-.19.07-.27,0a1.82,1.82,0,0,0-1.79-.11c-.12,0-.28.15-.34,0s.11-.21.23-.26A2.73,2.73,0,0,1,69.15,32Z"/><path class="cls-16" d="M90.47,33.1c0,.17-.14.17-.26.12a2.28,2.28,0,0,0-2,.21c-.1,0-.23.14-.31,0s.07-.2.17-.26a2.51,2.51,0,0,1,2.13-.3C90.34,32.91,90.45,33,90.47,33.1Z"/><path class="cls-14" d="M115.11,123.17c-.07.37-.27.45-.61.35a3.88,3.88,0,0,0-3.92,1.21c-.46.42-.87,1-1.54.26-.24-.27-.44,0-.64.11a2.16,2.16,0,0,1-3.09-2.85,7.63,7.63,0,0,0,.4-3.19,22.49,22.49,0,0,1,.34-5.56,3.24,3.24,0,0,1,1.48-2.1c.53.44.42,1.08.54,1.65.07.33.05.79.52.8s.43-.41.52-.71c.15-.47.16-1,.29-1.44.09-.31.22-.67.59-.66s.44.33.54.59a13.69,13.69,0,0,1,.59,3.1,1.77,1.77,0,0,1,0,.32c.12,2,.35,2.27,2.52,1.48.22-.08.42-.31.65,0a3,3,0,0,1,.18,1.65,8.94,8.94,0,0,0,.59,4A.93.93,0,0,1,115.11,123.17Z"/><path class="cls-9" d="M103.57,83c-.14,3.23.2,6.44.37,9.66.16,2.94.44,5.86.73,8.79s.68,6,1.09,8.95c.11.74-.14.84-.74.78-1-.1-2-.17-2.93-.26a2.44,2.44,0,0,1-3.64-1.22c-.43-.87-.82-1.77-1.27-2.79A13.4,13.4,0,0,0,96,109.6a2,2,0,0,1-2,1.48,136.54,136.54,0,0,1-14.73-.3c-1.58-.11-3.16-.08-4.73-.16a7.23,7.23,0,0,1-3-.54,3.71,3.71,0,0,1-.4-2c-.1-2.45-.25-4.9-.35-7.35-.22-5.32.08-10.62.2-15.92.06-2.94.42-5.87.74-8.8.35-3.31.79-6.6,1.32-9.89.7-4.37,1.61-8.69,2.66-13,.09-.35.12-.87.58-.92s.67.44.87.81c.33.61.6,1.27.93,1.89.22.4.52.71,1,.52,2.23-.82,4.21-2,5.25-4.27a3.39,3.39,0,0,0-.07-3.24c-.18-.32-.47-.66-.14-1.06a56.34,56.34,0,0,1,9.51,2.57,29.2,29.2,0,0,1,9.65,6.08,64.65,64.65,0,0,1,5.24,5.61c.12.43-.2.65-.46.86-4.59,3.83-9.09,7.77-13.69,11.58-1.71,1.41-1.71,1.39-.28,3.12C95,77.82,96,79,97,80.13a1,1,0,0,0,1.61.07c.44-.38.77-.94,1.45-1a13.85,13.85,0,0,1,3.45,3.25A.44.44,0,0,1,103.57,83Z"/><path class="cls-32" d="M72.76,119.54c2.91,7,5.93,14,9,21,.49,1.15,15.54,44.15,16.35,46.47l11.72.25c-.21-3.89-.4-7.78-.65-11.67-.28-4.41-.61-8.82-.92-13.23-.28-3.85-.53-7.7-.87-11.55s-.74-7.82-1.18-11.72c-.47-4.18-1-8.35-1.51-12.52-.71-5.27-1.59-10.52-2.57-15.75a10.45,10.45,0,0,0-1.48,0,1.45,1.45,0,0,1-1.72-1.1c-.5-1.26-1.13-2.47-1.79-3.89-.4.94-.72,1.7-1,2.46-1,2.44-1,2.49-3.61,2.51-7,0-14-.29-20.95-.85a1,1,0,0,0-.48-.26,3,3,0,0,0-1.76.09c-.49.46-.14.93,0,1.35Q71,115.35,72.76,119.54Z"/><path class="cls-11" d="M86.47,186h.08Q85,165,83.47,144c-.12-.37-.22-.74-.37-1.1C80.53,137,77.92,131,75.39,125c-2.11-5-4.14-10-6.2-15a57.1,57.1,0,0,0-6.28-.71,1,1,0,0,0-.62.24A.89.89,0,0,0,62,110c0,.31,0,.63-.09.94a98.3,98.3,0,0,0-.45,26.43,152.32,152.32,0,0,0,5.33,26.23C69,171,71.23,178.43,73.88,185.7Z"/><path class="cls-9" d="M69.19,110l-6.08-.37c-.43,0-.86-.09-1.08.41-.13-.61-.64-.47-1-.45-.69,0-1-.22-.88-.92q.51-4.64,1-9.26a1.52,1.52,0,0,0,0-.21c.09-4.31.55-8.61.49-12.93a2.78,2.78,0,0,0-.17-.59c-.45-.41-.33-1-.36-1.47-.21-3.71,0-7.42,0-11.12a63,63,0,0,1,2.48-11.61A20.45,20.45,0,0,1,70.73,51c.32-.23.6-.79,1.15-.33A2.76,2.76,0,0,1,72.06,52a4.67,4.67,0,0,0,.37,1.85c.16.35.3.78.73.84s.58-.42.81-.71.42-.65.68-.94.44-.55.78-.39.29.55.21.84c-.24.81-.37,1.64-.56,2.46-.81,3.36-1.43,6.77-2,10.18q-.69,4-1.16,8.09c-.25,2.12-.48,4.25-.63,6.39-.28,3.82-.47,7.65-.54,11.48-.07,3.65-.08,7.31.11,11a51.47,51.47,0,0,0,.44,6.07.94.94,0,0,1-.2.89Z"/><path class="cls-17" d="M113,68.39l-12.9,11c-.63.5-1.26,1-1.87,1.52-.36.3-.64.34-1,0-1.5-1.76-3-3.5-4.54-5.25-.37-.43-.22-.72.16-1q3.65-3.09,7.28-6.22l8.37-7.19c1.09-.83,1.06-.78,1.94.32,1.22,1.53,2.49,3,3.82,4.48.52.56.66.91,0,1.39C113.77,67.62,113.38,68,113,68.39Z"/><path class="cls-17" d="M60.57,85.82,51.36,73.43c-.91-1.19-1.81-2.39-2.73-3.57-.32-.42-.33-.72.11-1,1.66-1.22,3.29-2.47,4.95-3.69,1.17-.86,1.18-.84,2.07.35.47.06.7.43,1,.76,1.43,1.86,2.79,3.77,4.22,5.62a1.2,1.2,0,0,1,.37.94,1.45,1.45,0,0,1,.21.91c-.25,4,0,8,0,12,0,.3,0,.59-.08.92C60.94,86.46,60.77,86.12,60.57,85.82Z"/><path class="cls-17" d="M74.13,47.45a5.11,5.11,0,0,0,.13,1.64,3.22,3.22,0,0,0,1.13,2,2.6,2.6,0,0,0,1.68.43,7.6,7.6,0,0,0,6.52-4.46.52.52,0,0,1,.49-.24c0,.52.46.76.64,1.18.79,1.89.1,3.46-1.08,4.86a10.59,10.59,0,0,1-4.65,3,.76.76,0,0,1-1.15-.48c-.46-1-1-2.07-1.57-3.35-.87,3.05-1.43,5.88-2,8.7-.78,3.81-1.39,7.65-1.89,11.5-.38,2.89-.6,5.79-.87,8.68C71,86,71.06,91.11,71,96.2a117.44,117.44,0,0,0,.55,12.72c0,.34,0,.7,0,1h-.42c-.51-5.35-.57-10.72-.67-16.08-.07-4,.31-8.07.58-12.1.15-2.25.37-4.48.61-6.71.35-3.31.83-6.6,1.38-9.89.68-4,1.49-8,2.46-11.93a.67.67,0,0,0-.17-.58l-1.37,2c-.59.88-.77.89-1.4,0a6.08,6.08,0,0,1-.79-4.15,6.95,6.95,0,0,1,2.41-3.14Z"/><path class="cls-9" d="M72.11,49.63l-.39,1a19.34,19.34,0,0,0-7,8.76,44,44,0,0,0-3,12,2.48,2.48,0,0,1-.44,1.47l-5.54-7.32c.58-1.52,1.88-2.49,2.9-3.67A65.4,65.4,0,0,1,65.55,55C67.17,53.55,69.36,51.68,72.11,49.63Z"/><path class="cls-33" d="M87.05,58.87a21.65,21.65,0,0,0,4.82,13.06C89,70.3,86.05,62,87.05,58.87Z"/><path class="cls-34" d="M84.05,68.12c0-.6-.22-.81-.8-.8-1,0-2.11,0-3.16-.06-.64,0-1.27,0-1.9,0-2.24,0-1.94-.54-2,2.09,0,.66.22.86.85.86,1.65,0,3.31.06,5,.1C84.13,70.31,84.11,70.31,84.05,68.12Zm-1.33,1.75c-.91-.08-1.83-.05-2.74-.07s-1.76-.07-2.64,0-.72-.62-.74-1.15,0-1,.83-1c1.79.08,3.58.13,5.37.12.9,0,.8.52.81,1.1S83.57,70,82.72,69.87Z"/><path class="cls-9" d="M118.71,116.52A72,72,0,0,0,115,104.36c1.72-3.68,1.9-8.33,2-12.6.12-3.16.47-5.47-.66-6.69-.89-.95-2.21-.95-4-1-1.14,0-7.5-.07-9,3.22-.72,1.56.1,2.93,1.45,6.69a81.41,81.41,0,0,1,2.94,10.18c-.67,2.76-2.54,5.47-4.43,8-1,.9-2.66,3.06.14,2.26h0c1.38-.16,3-2.94,4.32-2.21.42,2-1.43,11,1.08,9.31,1.46-2,.89-5,1.84-7.55-.12,11.2,1.89,11.31,2.85.52.25,1.39,0,2.82.35,4.19-.23,1,1.27,4,1.72,1.12.52-1.52.21-3.77.44-5.68C116.27,115,118.38,119.53,118.71,116.52Zm-12.88-6.25,0,0S105.88,110.3,105.83,110.27Zm6.58-7.27h0Z"/><path class="cls-16" d="M73.61,19.91c.08-2.15,1.08-4.4,3.34-4.93,2.83-.68,5.71,1.15,7.31,3.36.43.59,1.43,0,1-.58a9.3,9.3,0,0,0-6.71-4.05A5.35,5.35,0,0,0,73,17.13a8.21,8.21,0,0,0-.57,2.78c0,.74,1.12.74,1.15,0Z"/><path class="cls-16" d="M88.94,20.31h0l.49.29v0l.08.29c-.12.24-.12.31,0,.2l.07-.06.25-.18c.16-.11.34-.22.52-.32a6.24,6.24,0,0,1,1-.46,6.47,6.47,0,0,1,2.31-.33.58.58,0,1,0,0-1.15,7.22,7.22,0,0,0-3,.52,6.76,6.76,0,0,0-1.36.71c-.47.31-1.18.73-.85,1.39a.57.57,0,0,0,.5.29h0a.58.58,0,0,0,0-1.15Z"/><path class="cls-16" d="M84.55,18a5.25,5.25,0,0,1,2.63-1.74,3,3,0,0,1,2.35.67,3.15,3.15,0,0,1-.11,4.72c-.55.5.27,1.31.82.82a4.44,4.44,0,0,0,1-5.16,4.14,4.14,0,0,0-4.59-2.12,6.77,6.77,0,0,0-3,2c-.53.52.29,1.34.82.82Z"/><path class="cls-16" d="M72.61,25.16a5.64,5.64,0,0,0,.73,3.76.59.59,0,0,0,.79.2.57.57,0,0,0,.2-.78c-.07-.13-.14-.25-.2-.38L74,27.78c0-.06,0-.06,0,0L74,27.66a6.61,6.61,0,0,1-.22-.76,1.29,1.29,0,0,0,0-.19.28.28,0,0,0,0-.09c0,.06,0,.06,0,0s0-.27,0-.4v-.39c0-.08,0-.16,0-.23s0-.24,0-.13a.57.57,0,1,0-1.11-.3Z"/><path class="cls-16" d="M73.12,19.27a10.52,10.52,0,0,0-4.07,1.34.59.59,0,0,0-.2.79.58.58,0,0,0,.79.2,9.22,9.22,0,0,1,3.48-1.18.6.6,0,0,0,.58-.58c0-.28-.26-.61-.58-.57Z"/><path class="cls-15" d="M77.76,33.07a2.84,2.84,0,0,1-.64,2.33c-.78.84-.34,1.7.82,1.84.21,0,.51-.08.56.21s-.28.38-.5.45a1.64,1.64,0,0,1-1.85-2.13,6.63,6.63,0,0,0,1.12-4.07c0-.14,0-.33.23-.34a.29.29,0,0,1,.28.31C77.79,32.14,77.77,32.6,77.76,33.07Z"/><path class="cls-16" d="M76,29.86c.29,0,.66-.05.7.33s-.34.37-.61.42L74.28,31c-.23,0-.52.2-.63-.15s.15-.44.39-.53A8.14,8.14,0,0,1,76,29.86Z"/><path class="cls-16" d="M81.82,30.7l-1.21-.1a.32.32,0,0,1-.32-.28c0-.24.15-.34.35-.34.8,0,1.61,0,2.42,0a.38.38,0,0,1,.41.31c0,.28-.23.38-.44.39-.4,0-.81,0-1.21,0Z"/><path class="cls-15" d="M76.66,39.32a4,4,0,0,0,3.6-.19A2.13,2.13,0,0,1,76.66,39.32Z"/><path class="cls-16" d="M81.5,32c.53.06.81.31.81.79a.75.75,0,0,1-1.5,0A.75.75,0,0,1,81.5,32Z"/><path class="cls-16" d="M76.32,32.7a.73.73,0,1,1-.75-.75C76.05,31.94,76.28,32.25,76.32,32.7Z"/><path class="cls-18" d="M73,116.86c1.39,6.28,4.25,12,7.35,17.51,1,1.78,2.09,3.48,3.14,5.21a.75.75,0,0,0,.09.15c.3.27.51.89,1,.52s0-.77-.17-1.07a88.9,88.9,0,0,1-6.86-12.28,45.51,45.51,0,0,1-3.46-9.56c-.09-.42-.18-1-.89-.73A2.62,2.62,0,0,0,73,116.86Z"/><path class="cls-17" d="M71.57,38.43c4.46,10,15.31,7.38,13.28-1.26.45-.82,5.67-8.63,2.84-7.12-1.56,2.14-2.86,4.45-4.55,6.49-3.52-1.25-6.59-2.5-9.78.08-.42-.36-.31-.26-.57-1.08-.38-1.23-1.05-3.58-1.51-5C70,30.9,72.06,36.58,71.57,38.43Z"/><path class="cls-35" d="M28.72,75.35c.5-2.17,1.57-4.43,1-6.82a2.4,2.4,0,0,0-3-1.3c-.15-.14-.3-.27-.47-.4-1.2-.63-2.39-1.28-3.77-.47a6.41,6.41,0,0,0-1,1.85c-.63,4.17-3.88,5.53-7.23,6.43a11.28,11.28,0,0,0-6.5,4.62C4.34,84.15,2.74,89.83,1.3,95.52c-.61,2.42,1,4,3.17,4.87a42.56,42.56,0,0,0,5.84,1.74c2.92.65,5.59,2.37,8.74,2,2.8,0,3.62-2.11,4.45-4.24C26.59,92,26.82,83.51,28.72,75.35Z"/><path class="cls-35" d="M19.21,53.48l-.4-.39A2.91,2.91,0,0,1,19.9,49.6c4.13,1.29,8.4,2.15,12.28,4.15a11.32,11.32,0,0,1,2,1.27c2.5,2.09,2.35,3.1-.56,4.46-.88.41-2,.46-2.44,1.58l-.39.3A7.27,7.27,0,0,1,26.2,60.3l-1-.92C23.05,57.37,22.05,56.25,19.21,53.48Z"/><path class="cls-34" d="M20.38,54.06a1.1,1.1,0,0,1,.75.34c1.5,1.38,3.53,2.24,4.18,4.42a1.07,1.07,0,0,1-1.83.25c-2.09-1.17-3.64-1-4.77,1.43-.61,1.3-1.64,2.52-4.24,3.06C15.18,61.48,17.93,53.74,20.38,54.06Z"/><path class="cls-14" d="M19.9,49.6c-.36,1.16-.72,2.33-1.09,3.49-1.57-.32-4.1.63-3.53-2.57C15.74,47.9,17,47.67,19.9,49.6Z"/><path class="cls-14" d="M23.85,81.84c-.56,4.84-2.19,9.41-3.45,14.09-.62,2.33-1.83,3.5-4.28,3.23-2.6-.84-5.17-1.79-7.8-2.49C6.5,96.18,5.53,95,5.93,93.38c1.41-5.72,3-11.36,9-14.28C19.05,77.07,21.8,77.86,23.85,81.84Z"/><path class="cls-14" d="M31.23,61.07l-.2,0L26,59.7h0l-.65-.88-1.83.25c-.07,2.46-2.51,4.62-.92,7.29l3.58,1.13,3.62,1C32.49,66.47,33.24,62.67,31.23,61.07Z"/><rect class="cls-11" x="110.59" y="104.41" width="71.81" height="80.38"/><rect class="cls-36" x="102.56" y="99.63" width="303.32" height="6.03"/><rect class="cls-9" x="113.9" y="108.52" width="65.2" height="13.18"/><rect class="cls-37" x="113.9" y="130.12" width="65.2" height="43.95"/><polygon class="cls-38" points="113.9 174.07 179.1 130.12 113.9 130.12 113.9 174.07"/><rect class="cls-9" x="182.41" y="105.66" width="35.91" height="79.13"/><rect class="cls-11" x="326.03" y="105.66" width="35.91" height="79.13"/><rect class="cls-39" x="254.22" y="105.66" width="71.81" height="26.38"/><rect class="cls-9" x="218.31" y="105.66" width="35.91" height="79.13"/><rect class="cls-11" x="361.94" y="105.66" width="35.91" height="79.13"/><circle class="cls-34" cx="210.86" cy="113.66" r="2.99"/><path class="cls-40" d="M225.58,116.66a3,3,0,1,0-3-3A3,3,0,0,0,225.58,116.66Z"/><rect class="cls-36" x="119.6" y="134.86" width="53.8" height="4.52" rx="2.26"/><circle class="cls-41" cx="120.84" cy="115.07" r="3.5"/><circle class="cls-41" cx="131.56" cy="115.07" r="3.5" transform="translate(-25.09 192.58) rotate(-67.5)"/><circle class="cls-41" cx="142.28" cy="115.07" r="3.5"/><path class="cls-42" d="M153,118.57a3.5,3.5,0,1,0-3.51-3.5A3.5,3.5,0,0,0,153,118.57Z"/><circle class="cls-41" cx="170.84" cy="115.07" r="3.5"/><circle class="cls-34" cx="290.13" cy="113.66" r="2.99"/><rect class="cls-39" x="254.22" y="132.03" width="71.81" height="26.38"/><circle class="cls-34" cx="290.13" cy="140.04" r="2.99"/><rect class="cls-39" x="254.22" y="158.41" width="71.81" height="26.38"/><circle class="cls-34" cx="290.13" cy="166.42" r="2.99"/><path class="cls-40" d="M354.64,116.66a3,3,0,1,0-3-3A3,3,0,0,0,354.64,116.66Z"/><circle class="cls-34" cx="369.36" cy="113.66" r="2.99"/><rect class="cls-36" x="117.9" y="184.79" width="272.65" height="10.05"/><rect class="cls-36" x="181.86" y="99.63" width="1.1" height="91.19"/><rect class="cls-36" x="110.05" y="99.63" width="1.1" height="85.16"/><rect class="cls-36" x="217.77" y="99.63" width="1.1" height="91.19"/><rect class="cls-36" x="253.67" y="99.63" width="1.1" height="91.19"/><rect class="cls-36" x="325.48" y="99.63" width="1.1" height="91.19"/><rect class="cls-36" x="253.67" y="131.49" width="72.91" height="1.1"/><rect class="cls-36" x="253.67" y="157.86" width="72.91" height="1.1"/><rect class="cls-36" x="397.3" y="105.66" width="1.1" height="79.13"/><rect class="cls-36" x="361.39" y="99.63" width="1.1" height="85.16"/><rect class="cls-43" x="120.43" y="110.96" width="1.04" height="4.1"/><rect class="cls-43" x="131.04" y="110.96" width="1.04" height="4.1"/><rect class="cls-43" x="141.77" y="110.96" width="1.04" height="4.1"/><rect class="cls-43" x="152.49" y="110.96" width="1.04" height="4.1"/><rect class="cls-43" x="170.33" y="110.96" width="1.04" height="4.1"/><path class="cls-44" d="M124.37,80.75h8.68a1.51,1.51,0,0,1,1.51,1.5h0a1.52,1.52,0,0,1-1.51,1.51h-8.68a1.52,1.52,0,0,1-1.51-1.51h0A1.51,1.51,0,0,1,124.37,80.75Z"/><path class="cls-44" d="M160,80.75h8.69a1.51,1.51,0,0,1,1.5,1.5h0a1.51,1.51,0,0,1-1.5,1.51H160a1.51,1.51,0,0,1-1.5-1.51h0A1.5,1.5,0,0,1,160,80.75Z"/><path class="cls-44" d="M164.29,78.75v18a2.84,2.84,0,0,1-2.84,2.84h-29.9a2.85,2.85,0,0,1-2.84-2.84v-18Z"/><path class="cls-45" d="M146.5,76.24a2.84,2.84,0,1,0-2.84-2.84A2.84,2.84,0,0,0,146.5,76.24Z"/><path class="cls-45" d="M146.5,73.4c9.83,0,17.79,2.39,17.79,5.35H128.71C128.71,75.79,136.67,73.4,146.5,73.4Z"/><path class="cls-46" d="M134.05,97.57h-1.71a1.64,1.64,0,0,1-1.63-1.63V80.76h3.34Z"/><rect class="cls-11" x="305.05" y="25.13" width="87.88" height="2.86" rx="1.43"/><circle class="cls-11" cx="305.05" cy="26.56" r="2.99" transform="translate(3.67 80.7) rotate(-15.16)"/><path class="cls-46" d="M392.93,23.57a3,3,0,1,1-3,3A3,3,0,0,1,392.93,23.57Z"/><path class="cls-47" d="M322.48,28h0a2.09,2.09,0,0,1,2,2l-.86,19.71h-1.16V31.34h0a1.17,1.17,0,0,0,0-2.33h0V28Zm0,21.73h-1.16L320.46,30a2.09,2.09,0,0,1,2-2v1a1.17,1.17,0,0,0,0,2.33Z"/><rect class="cls-32" x="321.75" y="49.72" width="1.46" height="20.17"/><path class="cls-48" d="M323.21,69.88a6.52,6.52,0,1,1-13,0Z"/><path class="cls-48" d="M317,75.31a5.44,5.44,0,0,1-.82.07,4.78,4.78,0,0,1-4.77-4.77h1.65A4.77,4.77,0,0,0,317,75.31Z"/><path class="cls-49" d="M322.48,24.49h0a.44.44,0,0,1,.43.43v4.9a.43.43,0,0,1-.43.43h0a.43.43,0,0,1-.43-.43v-4.9A.44.44,0,0,1,322.48,24.49Z"/><rect class="cls-13" x="332.51" y="46.56" width="1.46" height="17.23"/><path class="cls-50" d="M338.65,73.53v-4l.1.06a4.51,4.51,0,0,0-.05-.54l-.05,0V66.24a6.54,6.54,0,0,1,0,7.29Zm0-7.29v2.89a.32.32,0,0,0-.1.22.33.33,0,0,0,.1.23v4a6.24,6.24,0,0,1-.5.65V72.4l.06-.12h-.06V70.71a.3.3,0,0,0,.3-.3.31.31,0,0,0-.3-.3V68.55a.3.3,0,0,0,.3-.3.31.31,0,0,0-.3-.3V65.59A5.34,5.34,0,0,1,338.65,66.24Zm-.5-.65V68a.3.3,0,0,0-.3.3.29.29,0,0,0,.3.3v1.56a.3.3,0,0,0-.3.3.29.29,0,0,0,.3.3v1.56a.3.3,0,0,0-.3.3.27.27,0,0,0,.09.21l.21-.38v1.78a6.51,6.51,0,0,1-.7.69V73.45l.06-.07h-.06V71.81a.3.3,0,1,0,0-.59V69.65a.3.3,0,1,0,0-.59V67.49a.3.3,0,1,0,0-.59v-2A6.51,6.51,0,0,1,338.15,65.59Zm-.7-.69v2a.3.3,0,1,0,0,.59v1.57a.3.3,0,1,0,0,.59v1.57a.3.3,0,1,0,0,.59v1.57a.29.29,0,0,0-.3.3.19.19,0,0,0,0,.08c.1-.1.2-.2.29-.31v1.42a7,7,0,0,1-.7.51V72.87a.3.3,0,0,0,.3-.3.31.31,0,0,0-.3-.3V70.71a.3.3,0,0,0,.3-.3.31.31,0,0,0-.3-.3V68.55a.3.3,0,0,0,.3-.3.31.31,0,0,0-.3-.3V66.39a.3.3,0,0,0,.3-.3.31.31,0,0,0-.3-.3V64.38A7,7,0,0,1,337.45,64.9Zm-.7-.52v1.41a.3.3,0,0,0-.3.3.29.29,0,0,0,.3.3V68a.3.3,0,0,0-.3.3.29.29,0,0,0,.3.3v1.56a.3.3,0,0,0-.3.3.29.29,0,0,0,.3.3v1.56a.3.3,0,0,0-.3.3.29.29,0,0,0,.3.3v2.51a6.86,6.86,0,0,1-.75.42V74h.05a.3.3,0,0,0,0-.59H336V71.81h.05a.3.3,0,0,0,0-.59H336V69.65h.05a.3.3,0,0,0,0-.59H336V67.49h.05a.3.3,0,0,0,0-.59H336V65.33h.05a.37.37,0,0,0,.2-.07L336,65.1V64A6.79,6.79,0,0,1,336.75,64.38ZM336,64V65.1l-.25-.13V65a.3.3,0,0,0,.25.3V66.9a.3.3,0,0,0,0,.59v1.57a.3.3,0,0,0,0,.59v1.57a.3.3,0,0,0,0,.59v1.57a.3.3,0,0,0,0,.59V75.8c-.22.1-.43.18-.66.26V75a1.31,1.31,0,0,0,.27-.12.28.28,0,0,0,0-.13.3.3,0,0,0-.3-.3V72.87a.29.29,0,0,0,.3-.3.3.3,0,0,0-.3-.3V70.71a.29.29,0,0,0,.3-.3.3.3,0,0,0-.3-.3V68.55a.29.29,0,0,0,.3-.3.3.3,0,0,0-.3-.3V66.39a.29.29,0,0,0,.3-.3.3.3,0,0,0-.3-.3V63.71A5.32,5.32,0,0,1,336,64Zm-.66-.26v2.08a.3.3,0,0,0-.29.3.29.29,0,0,0,.29.3V68a.3.3,0,0,0-.29.3.29.29,0,0,0,.29.3v1.56a.3.3,0,0,0-.29.3.29.29,0,0,0,.29.3v1.56a.3.3,0,0,0-.29.3.29.29,0,0,0,.29.3v1.56a.3.3,0,0,0-.29.3.3.3,0,0,0,.21.29l.08,0v1.08a5.13,5.13,0,0,1-.7.19V74a.3.3,0,1,0,0-.59V71.81a.3.3,0,1,0,0-.59V69.65a.3.3,0,1,0,0-.59V67.49a.3.3,0,1,0,0-.59V65.33a.29.29,0,0,0,.3-.3.3.3,0,0,0-.3-.3V63.51A7.15,7.15,0,0,1,335.34,63.71Zm-.7-.2v1.22a.31.31,0,0,0-.3.3.3.3,0,0,0,.3.3V66.9a.3.3,0,1,0,0,.59v1.57a.3.3,0,1,0,0,.59v1.57a.3.3,0,1,0,0,.59v1.57a.3.3,0,1,0,0,.59v2.28c-.23,0-.46.09-.7.12V75a.29.29,0,0,0,.3-.3.3.3,0,0,0-.3-.3V72.87a.29.29,0,0,0,.3-.3.3.3,0,0,0-.3-.3V70.71a.29.29,0,0,0,.3-.3.3.3,0,0,0-.3-.3V68.55a.29.29,0,0,0,.3-.3.3.3,0,0,0-.3-.3V66.39a.29.29,0,0,0,.3-.3.3.3,0,0,0-.3-.3V63.4A5.37,5.37,0,0,1,334.64,63.51Zm-.7-.11v2.39a.31.31,0,0,0-.3.3.3.3,0,0,0,.3.3V68a.31.31,0,0,0-.3.3.3.3,0,0,0,.3.3v1.56a.31.31,0,0,0-.3.3.3.3,0,0,0,.3.3v1.56a.31.31,0,0,0-.3.3.3.3,0,0,0,.3.3v1.56a.31.31,0,0,0-.3.3.3.3,0,0,0,.3.3v1.34c-.23,0-.46,0-.7,0V74a.3.3,0,1,0,0-.59V71.81a.3.3,0,1,0,0-.59V69.65a.3.3,0,1,0,0-.59V67.49a.3.3,0,1,0,0-.59V65.33a.29.29,0,0,0,.3-.3.3.3,0,0,0-.3-.3V63.36A5.37,5.37,0,0,1,333.94,63.4Zm-.7,0v1.37a.31.31,0,0,0-.3.3.3.3,0,0,0,.3.3V66.9a.3.3,0,1,0,0,.59v1.57a.3.3,0,1,0,0,.59v1.57a.3.3,0,1,0,0,.59v1.57a.3.3,0,1,0,0,.59v2.44c-.23,0-.47,0-.7,0V75h0a.29.29,0,0,0,.3-.3.3.3,0,0,0-.3-.3h0V72.87h0a.29.29,0,0,0,.3-.3.3.3,0,0,0-.3-.3h0V70.71h0a.29.29,0,0,0,.3-.3.3.3,0,0,0-.3-.3h0V68.55h0a.29.29,0,0,0,.3-.3.3.3,0,0,0-.3-.3h0V66.39h0a.29.29,0,0,0,.3-.3.3.3,0,0,0-.3-.3h0V63.4A5.48,5.48,0,0,1,333.24,63.36Zm-.7,0v2.39a.31.31,0,0,0-.3.3.3.3,0,0,0,.3.3V68a.31.31,0,0,0-.3.3.3.3,0,0,0,.3.3v1.56a.31.31,0,0,0-.3.3.3.3,0,0,0,.3.3v1.56a.31.31,0,0,0-.3.3.3.3,0,0,0,.3.3v1.56a.31.31,0,0,0-.3.3.3.3,0,0,0,.3.3v1.34c-.24,0-.47-.07-.7-.12V74a.3.3,0,1,0,0-.59V71.81a.3.3,0,1,0,0-.59V69.65a.3.3,0,1,0,0-.59V67.49a.3.3,0,1,0,0-.59V65.33a.3.3,0,0,0,.3-.3.31.31,0,0,0-.3-.3V63.51A5.37,5.37,0,0,1,332.54,63.4Zm-.7.11v1.22a.3.3,0,0,0-.3.3.29.29,0,0,0,.3.3V66.9a.3.3,0,1,0,0,.59v1.57a.3.3,0,1,0,0,.59v1.57a.3.3,0,1,0,0,.59v1.57a.3.3,0,1,0,0,.59v2.28a5.56,5.56,0,0,1-.7-.19V75l.09,0a.3.3,0,0,0,.21-.29.31.31,0,0,0-.3-.3V72.87a.3.3,0,0,0,.3-.3.31.31,0,0,0-.3-.3V70.71a.3.3,0,0,0,.3-.3.31.31,0,0,0-.3-.3V68.55a.3.3,0,0,0,.3-.3.31.31,0,0,0-.3-.3V66.39a.3.3,0,0,0,.3-.3.31.31,0,0,0-.3-.3V63.71C331.37,63.63,331.6,63.57,331.84,63.51ZM330.73,65s0,0,0,.06a.31.31,0,0,1-.25.3V66.9a.3.3,0,0,1,0,.59v1.57a.3.3,0,0,1,0,.59v1.57a.3.3,0,0,1,0,.59v1.57a.3.3,0,0,1,0,.59V75.8c.21.1.43.18.65.26V75a1.59,1.59,0,0,1-.27-.12.28.28,0,0,1,0-.13.3.3,0,0,1,.3-.3V72.87a.29.29,0,0,1-.3-.3.3.3,0,0,1,.3-.3V70.71a.29.29,0,0,1-.3-.3.3.3,0,0,1,.3-.3V68.55a.29.29,0,0,1-.3-.3.3.3,0,0,1,.3-.3V66.39a.29.29,0,0,1-.3-.3.3.3,0,0,1,.3-.3V63.71a5.18,5.18,0,0,0-.65.26V65.1Zm-.24.36h-.05a.32.32,0,0,1-.2-.07l.25-.16V64a6.79,6.79,0,0,0-.75.41v1.41a.31.31,0,0,1,.3.3.3.3,0,0,1-.3.3V68a.31.31,0,0,1,.3.3.3.3,0,0,1-.3.3v1.56a.31.31,0,0,1,.3.3.3.3,0,0,1-.3.3v1.56a.31.31,0,0,1,.3.3.3.3,0,0,1-.3.3v2.51a6.86,6.86,0,0,0,.75.42V74h-.05a.3.3,0,1,1,0-.59h.05V71.81h-.05a.3.3,0,1,1,0-.59h.05V69.65h-.05a.3.3,0,1,1,0-.59h.05V67.49h-.05a.3.3,0,1,1,0-.59h.05Zm-.75-1v1.41a.3.3,0,0,0-.3.3.29.29,0,0,0,.3.3V68a.3.3,0,0,0-.3.3.29.29,0,0,0,.3.3v1.56a.3.3,0,0,0-.3.3.29.29,0,0,0,.3.3v1.56a.3.3,0,0,0-.3.3.29.29,0,0,0,.3.3v2.51a6,6,0,0,1-.7-.51V73.45a4.12,4.12,0,0,0,.28.31.19.19,0,0,0,0-.08.29.29,0,0,0-.29-.3V71.81a.3.3,0,0,0,0-.59V69.65a.3.3,0,0,0,0-.59V67.49a.3.3,0,0,0,0-.59v-2A6,6,0,0,1,329.74,64.38Zm-.7.52v2a.3.3,0,1,0,0,.59v1.57a.3.3,0,1,0,0,.59v1.57a.3.3,0,1,0,0,.59v1.57H329l.06.07v1.42a6.6,6.6,0,0,1-.71-.69V72.4c.07.13.14.26.22.38a.3.3,0,0,0-.22-.51V70.71a.29.29,0,0,0,.3-.3.3.3,0,0,0-.3-.3V68.55a.29.29,0,0,0,.3-.3.3.3,0,0,0-.3-.3V65.59A6.6,6.6,0,0,1,329,64.9Zm-.71.69V68a.3.3,0,0,0-.29.3.29.29,0,0,0,.29.3v1.56a.3.3,0,0,0-.29.3.29.29,0,0,0,.29.3v1.56h-.06l.06.12v1.78a8,8,0,0,1-.5-.65v-4a.33.33,0,0,0,.1-.23.32.32,0,0,0-.1-.22V66.24A6.57,6.57,0,0,1,328.33,65.59Zm-.5.65v2.89l-.05,0c0,.17,0,.35,0,.54l.1-.06v4a6.54,6.54,0,0,1,0-7.29Z"/><path class="cls-47" d="M333.24,28h0a2.09,2.09,0,0,1,2,2l-.85,19.71h-1.17V31.34h0a1.17,1.17,0,1,0,0-2.33h0V28Zm0,21.73h-1.16L331.22,30a2.09,2.09,0,0,1,2-2v1a1.17,1.17,0,0,0,0,2.33Z"/><rect class="cls-43" x="332.82" y="24.49" width="0.85" height="5.76" rx="0.43"/><rect class="cls-32" x="347.08" y="46.56" width="1.46" height="17.23"/><path class="cls-47" d="M347.81,28h0a2.09,2.09,0,0,1,2,2L349,49.72h-1.17V31.34h0a1.17,1.17,0,1,0,0-2.33h0V28Zm0,21.73h-1.16L345.79,30a2.09,2.09,0,0,1,2-2v1a1.17,1.17,0,0,0,0,2.33Z"/><path class="cls-48" d="M350.66,64.19a4.51,4.51,0,0,1,1.92,3.68V74.7a1.72,1.72,0,0,1-1.71,1.71h-.21V75h0a.32.32,0,0,0,.32-.32v-7a.32.32,0,0,0-.32-.32h0Zm-1.42-.67a4.42,4.42,0,0,1,1.42.67v3.08a.32.32,0,0,0-.31.32v7a.31.31,0,0,0,.31.32v1.46h-1.42V75h0a.32.32,0,0,0,.32-.32v-7a.33.33,0,0,0-.32-.32h0Zm-1.43-.16h.26a4.59,4.59,0,0,1,1.17.16v3.75a.32.32,0,0,0-.32.32v7a.32.32,0,0,0,.32.32v1.46h-1.43V75h0a.32.32,0,0,0,.32-.32v-7a.32.32,0,0,0-.32-.32h0Zm-.25,0h.25v3.91a.32.32,0,0,0-.31.32v7a.31.31,0,0,0,.31.32v1.46h-1.42V75h0a.32.32,0,0,0,.32-.32v-7a.33.33,0,0,0-.32-.32h0V63.52A4.47,4.47,0,0,1,347.56,63.36Zm-1.17,13H345V75h0a.32.32,0,0,0,.32-.32v-7a.32.32,0,0,0-.32-.32h0V64.19a4.57,4.57,0,0,1,1.43-.67v3.75a.32.32,0,0,0-.32.32v7a.32.32,0,0,0,.32.32Zm-1.43,0h-.2a1.72,1.72,0,0,1-1.71-1.71V67.87A4.53,4.53,0,0,1,345,64.19v3.08a.32.32,0,0,0-.31.32v7A.31.31,0,0,0,345,75Z"/><rect class="cls-43" x="347.39" y="24.49" width="0.85" height="5.76" rx="0.43"/><path class="cls-51" d="M364.52,32.32c-.39-1.23-1.28-3.27,0-3.27S364.92,31.09,364.52,32.32Z"/><path class="cls-52" d="M358.31,40.81l-3.7-.76-1.7,8.32a1.9,1.9,0,0,0,1.48,2.23h0a1.9,1.9,0,0,0,2.23-1.47Z"/><path class="cls-53" d="M364.52,32.32,353,38.58,360,51.31a6.57,6.57,0,0,0,8.88,2.62h0a6.56,6.56,0,0,0,2.61-8.88Z"/><rect class="cls-54" x="353.23" y="36.52" width="13.09" height="1.54" transform="translate(25.97 176.6) rotate(-28.57)"/><path class="cls-49" d="M364.54,24.49h0a.43.43,0,0,1,.43.43v4.9a.43.43,0,0,1-.43.43h0a.42.42,0,0,1-.42-.43v-4.9A.43.43,0,0,1,364.54,24.49Z"/><rect class="cls-13" x="378.34" y="46.56" width="1.46" height="17.23"/><path class="cls-50" d="M378.92,63.36h.31c.89,0,3.53-.34,2.76,4.51-.15.92-1,8.54-1.75,8.54h-.56c.05-1.27,2.32-10.77-.6-10.77s-.66,9.53-.61,10.77h-.57c-.7,0-1.59-7.62-1.74-8.54C375.39,63,378,63.36,378.92,63.36Z"/><path class="cls-47" d="M379.07,28h0a2.09,2.09,0,0,1,2,2l-.85,19.71h-1.17V31.34h0a1.17,1.17,0,1,0,0-2.33h0V28Zm0,21.73h-1.16L377.05,30a2.09,2.09,0,0,1,2-2v1a1.17,1.17,0,0,0,0,2.33Z"/><path class="cls-49" d="M379.07,24.49h0a.43.43,0,0,1,.43.43v4.9a.43.43,0,0,1-.43.43h0a.42.42,0,0,1-.42-.43v-4.9A.43.43,0,0,1,379.07,24.49Z"/></g></g></g></svg>