<svg xmlns="http://www.w3.org/2000/svg" viewBox="0 0 165.26 131.86"><defs><style>.cls-1{fill:#fdce75;}</style></defs><g id="Capa_2" data-name="Capa 2"><g id="Capa_1-2" data-name="Capa 1"><path class="cls-1" d="M100.82,101.5c0,7.21,0,14.1,0,21,0,6.72-2.64,9.34-9.4,9.35-1.51,0-3,0-4.53,0-4.82-.1-7.74-2.7-7.93-7.44-.08-1.89-.7-2.31-2.44-2.28-5.28.09-10.55,0-15.83.05-1.86,0-3.22.13-3.2-2.56s1.64-2.46,3.35-2.46c10.56,0,21.12-.1,31.67.07,2.77,0,3.55-.83,3.32-3.45s0-5.15,0-8.21c-4.71,2.57-9.55,1.85-14.3,2-1.86.06-2.7-.38-2.65-2.48.05-2.31,1.1-5.31-.54-6.78s-4.54-.44-6.89-.45c-15.29,0-30.59,0-45.88-.08-2.72,0-3.76.51-3.65,3.5.23,6.25.05,6.27-6.19,6.25a38.4,38.4,0,0,1-5.48-.23A43.47,43.47,0,0,1,5,105.76v9.75c0,2.14,1.63,1.6,2.8,1.6q16.31.06,32.63,0c1.67,0,2.87,0,2.89,2.32s-.62,2.79-2.75,2.74c-5.38-.14-10.77,0-16.16-.08-1.67,0-2.37.28-2.5,2.23-.35,5-3.23,7.43-8.28,7.49-2.16,0-4.32.1-6.46,0A7.16,7.16,0,0,1,0,124.47C0,115.1,0,105.73,0,96.36A4.1,4.1,0,0,1,.68,93.6c7.18-9,8.85-20.06,11.06-30.89.17-.84.38-1.68.62-2.5,1.23-4.17,3.62-6,8-6,18.63,0,37.27-.06,55.9.06,2.64,0,4-.77,5.11-3.14,2.32-5.08,4.89-10,7.43-15s5.35-6.34,10.72-5c7.61,1.89,15.2,3.84,22.82,5.69,1.68.42,2.59.82,1.95,3-.56,1.88-1.08,2.41-3.07,1.88-7.58-2-15.25-3.7-22.81-5.77-2.63-.72-4.07,0-5.18,2.28C90.9,43,88.44,47.78,86.1,52.62c-.38.79-1.75,2,0,2.58,1.27.39,2.87,1.79,4.16-.45a13.87,13.87,0,0,1,10.56-7.12c7.74-1.11,15.14,4,16.16,11.79.42,3.19,1.8,4.1,4.64,4.77,10.66,2.49,21.27,5.23,31.87,8,2.4.63,3.09.17,3.06-2.41-.05-5.17.25-10.34.49-15.5.12-2.69-.92-4-3.69-4.66-7.43-1.69-14.78-3.74-22.2-5.52-1.81-.43-3-.76-2.39-3.09.53-2.15,1.41-2.27,3.37-1.75,7.57,2,15.2,3.84,22.8,5.78,5.21,1.33,6.9,3.53,6.87,8.93,0,4,.09,8-.26,11.94a44.31,44.31,0,0,0,3.08,20.51,9.15,9.15,0,0,1,.22,5.94c-2.22,8.41-4.25,16.87-6.43,25.3-1.25,4.87-4.51,6.84-9.42,5.81-1.9-.39-3.77-.87-5.64-1.35-4.95-1.26-7.12-4.27-6.17-9.26.38-1.94-.23-2.39-1.79-2.77C124.05,107.29,112.7,104.46,100.82,101.5ZM50.66,59c-9.8,0-19.61.05-29.41,0-2.45,0-3.85.83-4.38,3.25-1.2,5.56-2.47,11.11-3.69,16.67-.11.51-.26,1.2,0,1.55.81,1.19,6.69,0,7.26-1.38,2.74-6.77,7.78-10.5,14-10.42S45.81,72.48,48.21,79c.51,1.38,1.07,1.79,2.46,1.78q17.61-.06,35.22,0c1.46,0,2.11-.13,1.66-2C86.21,73.43,85.1,68,83.94,62.48,83.42,60,82.08,59,79.42,59,69.84,59.11,60.25,59,50.66,59ZM95.29,85.1c1.67,4.19,4.6,7,5.61,10.8.19.7.94.81,1.57,1q25.47,6.34,50.95,12.72c1.25.32,2,.28,2.37-1.2.57-2.63,1.28-5.22,1.92-7.83.28-1.13.11-2-1.37-1.61-2.85.8-5.53,0-8.25-.67-6.75-1.68-6.88-1.7-5.12-8.46.6-2.35-.08-2.84-2.18-3.36-15.23-3.72-30.42-7.61-45.65-11.36-1-.25-2.52-1.44-3.14-.2-.47.92.17,2.51.56,3.71.45,1.36,1.92,1.19,3,1.46q19.7,5,39.39,9.86c1.49.37,3,.36,2.33,3s-2,2.22-3.75,1.74c-3.53-1-7.08-1.82-10.62-2.7C113.86,89.71,104.81,87.46,95.29,85.1ZM6.9,92.78H93.84c-1.19-2-2.26-3.59-3.12-5.29a3,3,0,0,0-3.11-1.71q-37.29.06-74.57,0c-1.11,0-2.09.07-2.72,1.23C9.3,88.88,8.17,90.66,6.9,92.78ZM159.29,86a33.24,33.24,0,0,1-1.18-4.28c-.4-3-2.17-4.11-5-4.81C132.53,72,112,66.78,91.5,61.67c-.88-.22-1.79-.74-2.71,0a26.8,26.8,0,0,1,.58,3.21c.21,3.16,1.87,4.45,5,5C100,71,105.42,72.6,110.94,74ZM94.42,57.34c5.62,1.41,10.83,2.68,16,4,1.84.48,2.32,0,1.79-1.84a9.81,9.81,0,0,0-8-7.11C100.17,51.93,97,53.48,94.42,57.34ZM34.06,80.78c2.58,0,5.16,0,7.73,0,1.69,0,1.82-.68,1.11-2a9.29,9.29,0,0,0-8.64-5.17A9.31,9.31,0,0,0,25.71,79c-.85,1.54-.15,1.83,1.25,1.81C29.33,80.75,31.69,80.78,34.06,80.78Zm116.38,38.07c2.19.18,2.91-.95,3.33-2.4.49-1.7-.64-1.92-1.91-2.2-2.3-.5-4.55-1.26-6.87-1.71-1-.19-2.46-1.44-2.94.92-.36,1.77-.13,3,1.65,3.58C146.06,117.77,148.46,118.33,150.44,118.85ZM11.19,122.13c-1.28,0-2.57,0-3.86,0s-2.5-.31-2.39,1.62c.09,1.51.36,2.9,2.2,3,2.47.1,4.94.08,7.4,0,2-.05,2.34-1.45,2.36-3.13,0-2-1.44-1.42-2.49-1.48S12.27,122.13,11.19,122.13Zm78.84,0c-1.28,0-2.57,0-3.86,0-1,0-2.32-.45-2.31,1.33,0,1.44,0,3.07,1.89,3.19a59.52,59.52,0,0,0,8.34-.06c1.66-.13,1.63-1.69,1.68-3,.07-1.75-1.17-1.44-2.19-1.46C92.4,122.11,91.21,122.13,90,122.13ZM11.13,97.82c-1.07,0-2.15,0-3.22,0-.7,0-1.67-.3-2,.58s.48,1.36,1,1.9c2,2.18,4.62,2.4,7.38,2.43,1.82,0,2.71-.27,2.67-2.42s-.67-2.72-2.61-2.53A31.41,31.41,0,0,1,11.13,97.82Zm75.79,4.88c3.09.11,5.59-.58,7.4-2.92.88-1.13,1-2-.85-2-2.58,0-5.15,0-7.73,0-1.37,0-1.78.58-1.95,1.91C83.43,102.58,84.85,103.1,86.92,102.7Zm72.52-11.5-9.57-2.49c-.94-.25-1.73-.23-1.85,1s-1.4,2.35.06,3.43C151.06,95.32,156.33,94.55,159.44,91.2Z"/><path class="cls-1" d="M69,0c5.59,5.87,10.62,11,15.48,16.33C86,18,87,18,88.66,16.69c3.79-2.93,7.75-5.64,12.34-8.94,0,5.22,0,9.68,0,14.14,0,2-1.59,1.27-2.62,1.38s-2.21.12-2.12-1.54c.07-1.25,0-2.5,0-4.43-2.45,1.71-4.36,3-6.24,4.38-4.27,3.06-4.27,3.07-8-.82-3-3.19-6-6.39-9.58-10.13-.73,5.24-1.41,9.84-2,14.45s-.57,4.62-5.11,4.61H56.92c3.18,4.55,5.87,8.78,9,12.69,1.94,2.46.73,3.4-1.22,4.59-1,.63-1.46.31-2-.51C57.74,39.51,52.81,32.49,47.57,25c5.28,0,10.07-.17,14.85.06,2.59.13,3.28-.87,3.56-3.23C66.82,14.82,67.9,7.83,69,0Z"/><path class="cls-1" d="M50.47,102.7c7,0,14,0,21,0,1.74,0,2.81.13,2.78,2.35,0,2.07-.85,2.51-2.71,2.5q-21.12-.07-42.23,0c-1.76,0-2.73-.25-2.75-2.41s.86-2.46,2.68-2.44C36.28,102.75,43.37,102.7,50.47,102.7Z"/><path class="cls-1" d="M50.58,122c-2.07.42-2.82-.27-2.76-2.32,0-1.84.4-2.71,2.47-2.66,1.86,0,2.74.48,2.65,2.53C52.87,121.38,52.68,122.67,50.58,122Z"/><path class="cls-1" d="M141.55,52.75c-1.05,1,.16,3.59-2.2,3.3-1.15-.13-3.52.35-3.26-1.87.12-1.08-.49-3.47,1.91-3.29C139.28,51,141,50.81,141.55,52.75Z"/><path class="cls-1" d="M145.55,55.71c.77-.69-.25-3.15,2.1-2.5,1.23.34,3.74-.12,2.92,2.54-.31,1,.31,3.23-2,2.64C147.26,58.06,145,58.56,145.55,55.71Z"/><path class="cls-1" d="M69.17,66.5c.42,2-.73,2.19-2.38,2.26-2.06.09-2.45-.8-2.52-2.65-.08-2.37,1.31-2.11,2.87-2.23C69.31,63.71,69.35,65,69.17,66.5Z"/><path class="cls-1" d="M78.84,66.43c.45,2.17-.81,2.24-2.39,2.33-2.12.11-2.41-.9-2.48-2.7-.09-2.41,1.4-2,2.91-2.18C79.09,63.7,79,65,78.84,66.43Z"/></g></g></svg>