<svg xmlns="http://www.w3.org/2000/svg" viewBox="0 0 315.77 218.99"><defs><style>.cls-1{fill:#c7c6c6;}.cls-2{fill:#f6f6f6;}.cls-3{fill:#c88a5e;}.cls-4{fill:#a4856b;}.cls-5{fill:#403f3d;}.cls-6{fill:#71716e;}.cls-7{fill:#efdbcd;}.cls-8{fill:#693015;}.cls-9{fill:#b16751;}.cls-10{fill:#6c2910;}.cls-11{fill:#f6cfb1;}.cls-12{fill:#e5be52;}.cls-13{fill:#fdce75;}.cls-14{fill:#c0bd99;}.cls-15{opacity:0.06;}.cls-16{fill:#010101;}.cls-17{opacity:0.34;}.cls-18{fill:#fff;}.cls-19{fill:#d02848;}.cls-20{fill:#90d0e1;}.cls-21{opacity:0.05;}.cls-22{fill:#00679c;}.cls-23{opacity:0.57;}.cls-24{opacity:0.1;}.cls-25{opacity:0.04;}.cls-26{fill:#776b61;}</style></defs><g id="Capa_2" data-name="Capa 2"><g id="Capa_1-2" data-name="Capa 1"><path class="cls-1" d="M314.11,216.48c-2.41-.16-4.82-.28-7.27-.35-.67,0-21.23.08-25.77,0h-.27c-.68,0-172-.06-172-.06h-.63l-25.42,0h-.44l-.55,0-50.1,0h-.63l-25.41,0H5.19c-1.06,0-2.11.1-3.16.17-2.71.17-2.71,2.37,0,2.54,1.06.07,2.1.13,3.16.18l.42,0L31,219h.2l.41,0,50.11-.05.57,0,.41,0,25.43,0h.21l.41,0,172-.07h.28c4.53-.08,25.08,0,25.77,0,2.44-.07,4.85-.19,7.25-.35C316.32,218.42,316.33,216.63,314.11,216.48Z"/><path class="cls-2" d="M189.75,50.09c7.62,3.81,7.92,14.52,12.73,21.54,9,13.12,30.32,10,41.93,20.85,6.13,5.73,8.5,14.85,7,23.1s-6.52,15.62-13,21c-4.27,3.55-9.75,7.51-9.09,13,.24,2,1.28,3.72,2,5.56,3.27,8.23,0,18-6.11,24.39s-14.62,10-23.12,12.46a125.54,125.54,0,0,1-22.88,4.44c-4.27.42-8.65.64-12.59,2.32s-7.18,4.69-11,6.69c-9.07,4.78-20,3.22-30.14,1.49-13-2.23-26-4.56-38.74-8.05-4.77-1.31-9.63-2.86-13.42-6s-6.29-8.37-4.94-13.12c1.13-4,4.6-6.8,7.43-9.84s5.26-7.33,3.73-11.2c-1.8-4.54-7.64-5.52-11.82-8.05-4.46-2.7-7.27-7.57-8.53-12.63s-1.11-10.36-.81-15.56c.26-4.62.66-9.35,2.68-13.51C65,101,73.93,96.74,82.67,95.52c7.07-1,10.65-1.26,14.48-8.39,4.65-8.67,7.69-18.26,13.58-26.14s15.89-13.9,25.35-11.22c6,1.69,10.57,6.47,16.36,8.66,6.6,2.49,12,1.3,17.07-2.86C174.88,51.17,182.62,46.53,189.75,50.09Z"/><polygon class="cls-3" points="153.68 69.56 161.09 70.78 182.78 92.24 182.78 101.33 174.62 101.33 150.83 82.67 153.68 69.56"/><polygon class="cls-4" points="137.18 67.09 115.64 62.9 101.29 43.1 96.53 45.59 109.12 71.62 131.9 79.52 137.18 67.09"/><polygon class="cls-5" points="201.14 155.26 199.03 155.26 199.03 112.21 180.85 112.21 180.85 155.26 178.73 155.26 178.73 110.09 201.14 110.09 201.14 155.26"/><rect class="cls-3" x="168.32" y="150.85" width="43.94" height="61.93" rx="5.48"/><rect class="cls-5" x="174.15" y="212.78" width="6" height="1.06"/><rect class="cls-6" x="176.79" y="149.79" width="6" height="1.06"/><rect class="cls-5" x="186.85" y="109.03" width="6" height="1.06"/><polygon class="cls-6" points="175.09 213.84 175.73 217.72 177.15 217.72 178.88 217.73 179.53 213.84 175.09 213.84"/><rect class="cls-5" x="199.55" y="212.78" width="6" height="1.06" transform="translate(405.11 426.62) rotate(-180)"/><rect class="cls-6" x="197.26" y="149.79" width="6" height="1.06" transform="translate(400.52 300.64) rotate(-180)"/><polygon class="cls-6" points="204.61 213.84 203.97 217.72 202.55 217.72 201.14 217.72 200.5 213.84 204.61 213.84"/><rect class="cls-6" x="177.85" y="110.09" width="24.17" height="3.71"/><polygon class="cls-6" points="183.85 147.14 183.85 150.85 185.63 150.85 185.63 148.91 194.25 148.91 194.25 150.85 196.03 150.85 196.03 147.14 183.85 147.14"/><path class="cls-7" d="M205.55,152.44H194.08a21.52,21.52,0,0,1,16.77,21v-15.7A5.29,5.29,0,0,0,205.55,152.44Z"/><path class="cls-7" d="M175.72,154.73a1.06,1.06,0,0,0-2.09,0h0v54.52a1.06,1.06,0,1,0,2.11,0V154.73Z"/><path class="cls-7" d="M180.84,154.73a1.06,1.06,0,0,0-2.09,0h0v54.52a1.06,1.06,0,0,0,2.12,0V154.73Z"/><path class="cls-7" d="M186,154.73a1.05,1.05,0,0,0-2.08,0h0v54.52a1.06,1.06,0,0,0,2.12,0V154.73Z"/><path class="cls-7" d="M191.07,154.73a1.06,1.06,0,0,0-2.09,0h0v54.52a1.06,1.06,0,0,0,2.12,0V154.73Z"/><path class="cls-7" d="M196.19,154.73a1.06,1.06,0,0,0-2.09,0h0v54.52a1.06,1.06,0,0,0,2.12,0V154.73Z"/><path class="cls-7" d="M201.3,154.73a1.05,1.05,0,0,0-2.08,0h0v54.52a1.06,1.06,0,0,0,2.12,0V154.73Z"/><path class="cls-7" d="M206.42,154.73a1.06,1.06,0,0,0-2.09,0h0v54.52a1.06,1.06,0,0,0,2.12,0V154.73Z"/><path class="cls-8" d="M135,43.37s-2.58,2.11-1.37,9.87a48.2,48.2,0,0,1,.49,12.86s2.66,1.21,4.61,0,2.66-1.46,1.94-4.61-2.19-18.19-2.19-18.19Z"/><polygon class="cls-9" points="160.37 211.88 160.63 214.47 155.93 217.7 153.19 215.43 155.41 212.52 160.11 209.29 160.37 211.88"/><polygon class="cls-10" points="160.25 132.65 161.05 140.52 154 167.56 160.54 211.01 155.73 212.68 143.02 170.25 141.01 157.91 141.08 131.79 160.25 132.65"/><polygon class="cls-10" points="123.2 141.43 133.33 214.23 137.94 214.23 138.77 167.56 147.15 134.81 123.2 141.43"/><polygon class="cls-9" points="137.91 213.66 137.91 216.27 132.93 218.89 130.44 216.27 132.93 213.66 137.91 213.66"/><path class="cls-3" d="M135.7,67.4c.09-.16.19-.32.29-.47,3.62-5.48,11.81-2,17.17-2,1.47,15.48,5.53,30.23,8.15,45.42q4.17,24.21,9.39,48.22c.2.9-13.82.45-15.14.47-13.48.23-31.14.18-44.15-3.9,8.31-22.33,11.34-46.36,17.88-69.27,1.44-5,3-10,4.85-14.91A22.16,22.16,0,0,1,135.7,67.4Z"/><path class="cls-8" d="M141.42,46a7.83,7.83,0,0,0-5.59,6.58,6.92,6.92,0,0,1,1.52-11.2,8,8,0,0,1,3.85,4.67Z"/><path class="cls-11" d="M135.42,50c1.53-8.05,11.57-6.66,14.45-.14,1.64,3.71,1.25,10.95-3.36,12.16-.07.72-.16,2-.7,2.53s-2.45,0-3.17-.15a1,1,0,0,1-.56-.25,2,2,0,0,1-.22-1.22,7.09,7.09,0,0,1-1.64-.32,7.81,7.81,0,0,1-4.72-5.3A15.7,15.7,0,0,1,135.42,50Z"/><polygon class="cls-12" points="151.43 60 157.38 70.06 131.25 79.13 129.96 72.21 151.43 60"/><polygon class="cls-13" points="137.87 62.77 144.15 64.34 154.28 71.2 158.51 114.68 140.84 113.44 142.25 76.18 132.6 71.24 129.89 68.47 137.87 62.77"/><path class="cls-8" d="M137.54,41.36s-1,4.36,4.61,5.58,9.2,5.57,8.24,10.18-5.09,8-2.9,9.22,10.18,0,10.18,0,4.85-16.25-1.7-23.28S140,35.78,137.54,41.36Z"/><path class="cls-10" d="M161.17,68.9c-15.62,13-28.78,9.58-30.61,9,0,0-.09-.11-.11,0s0,.11,0,.11c-.58,1.83-5.27,14.58-24.84,20,0,0,13.7,32.7,30.64,40.09,18.1,7.89,29.5,7.17,29.53,7.11s7.26-8.91,10.95-28.32C180.15,98.75,161.17,68.9,161.17,68.9Z"/><path class="cls-14" d="M160.28,73.47c-14.2,11.71-26.07,8.76-27.72,8.27,0,0-.08-.09-.1,0s0,.1,0,.1c-.54,1.64-4.87,13.08-22.59,18.09,0,0,12.15,29.14,27.41,35.62,16.29,6.93,27,7,27,6.9s6.25-8.77,9.72-26.15C177.22,100,160.28,73.47,160.28,73.47Z"/><g class="cls-15"><path class="cls-16" d="M133.86,84.56s0-.12,0-.1.11,0,.11,0c1.69.5,13.68,3.48,28.17-8-1.57-2.8-2.65-4.5-2.65-4.5-14.21,11.72-26.08,8.77-27.73,8.28,0,0-.07-.09-.09,0s0,.1,0,.1c-.54,1.63-4.87,13.07-22.59,18.08,0,0,.78,1.86,2.18,4.74C128.93,97.8,133.31,86.24,133.86,84.56Z"/></g><g class="cls-17"><path class="cls-18" d="M159.61,83.69c-10.71,8.9-21.32,7-22.57,6.65,0,0-.06-.08-.08,0s0,.08,0,.08c-.4,1.25-4.83,11-18.25,14.71,0,0,10.61,21.44,22.23,26.51,12.4,5.41,20.22,4.92,20.24,4.88s5-6.12,7.51-19.42C171,104.62,159.61,83.69,159.61,83.69Z"/></g><path class="cls-19" d="M159.88,121.75l-5-8.74-.47-.82,6.37-3.64,3.19-1.82a.75.75,0,0,0,.28-1l-3.1-5.43a.75.75,0,0,0-1-.28l-8.74,5-.82.47-3.63-6.37-1.82-3.19a.78.78,0,0,0-1-.28l-5.44,3.1a.69.69,0,0,0-.35.45.68.68,0,0,0,.07.58l5,8.74.47.82-6.37,3.63-3.19,1.82a.78.78,0,0,0-.29,1l3.1,5.43a.72.72,0,0,0,.45.35.68.68,0,0,0,.58-.07l8.75-5,.81-.46,3.64,6.36,1.82,3.2a.77.77,0,0,0,1,.28l5.43-3.1A.77.77,0,0,0,159.88,121.75Z"/><path class="cls-18" d="M75.15,48.67l14.37-5.61-8.91,9.15a31.25,31.25,0,0,1-9.08,6.2L60.74,62.65Z"/><path class="cls-18" d="M147,9.52a52.46,52.46,0,0,0,2.68-4.82A3.17,3.17,0,0,0,146.91.11L141.44,0a32.17,32.17,0,0,0-18.61,5.27L83.15,33.73A40,40,0,0,0,72.32,45.4L70.73,48a3,3,0,0,0,0,3.14A3,3,0,0,0,74,52.5l8.58-2.27c5-2.73,11.21-5.42,16.19-8.15l25.47-14,7.36-4a46,46,0,0,0,12.52-10.6A33.72,33.72,0,0,0,147,9.52Z"/><path class="cls-20" d="M122,31.23l-5,2.58a1.55,1.55,0,0,0-.72,2l.68,1.52a1.57,1.57,0,0,0,2,.81l5.36-2.06a1.53,1.53,0,0,0,1-1.27,3.93,3.93,0,0,0-1.58-3.43A1.57,1.57,0,0,0,122,31.23Z"/><g class="cls-21"><path class="cls-16" d="M120,32.4l-.81,5.68,5.55-2.17s-3.47,1.17-4.29-3.74Z"/></g><path class="cls-22" d="M122.74,32.78A9.18,9.18,0,0,1,124,36.09a.53.53,0,0,1,0,.13l.51-.19a1.4,1.4,0,0,0,.9-1.21,4.21,4.21,0,0,0-1.6-3.43,1.42,1.42,0,0,0-1.61-.22l-.39.2A11.86,11.86,0,0,1,122.74,32.78Z"/><path class="cls-20" d="M117.74,42.11l-5.21,2.15a1.57,1.57,0,0,0-.89,2l.56,1.57a1.55,1.55,0,0,0,1.91,1l5.52-1.61a1.56,1.56,0,0,0,1.1-1.17,4,4,0,0,0-1.3-3.56A1.57,1.57,0,0,0,117.74,42.11Z"/><path class="cls-22" d="M118.59,43.6a9.42,9.42,0,0,1,.93,3.4v.13L120,47a1.39,1.39,0,0,0,1-1.13,4.24,4.24,0,0,0-1.31-3.55,1.43,1.43,0,0,0-1.59-.35l-.4.16A13.4,13.4,0,0,1,118.59,43.6Z"/><g class="cls-21"><path class="cls-16" d="M115.57,43.06l-1.28,5.6L120,47s-3.56.88-4-4.08Z"/></g><path class="cls-18" d="M126.79,20,110.5,59.14a13.39,13.39,0,0,1-10.13,8l-1.71.29L103.1,31l23.64-12Z"/><g class="cls-23"><path class="cls-18" d="M140.9,0s-.65,2.41-5.1,4.54l2,2.49s5.44-2.9,6.84-7Z"/></g><polygon class="cls-18" points="85.62 40.26 85.23 39.84 60.12 32.71 51.56 38.81 71.09 53.45 85.62 40.26"/><g class="cls-24"><rect class="cls-16" x="118.74" y="18.14" width="2.19" height="3.83" rx="1.1" transform="translate(9.89 71.76) rotate(-34.69)"/><rect class="cls-16" x="121.85" y="15.98" width="2.19" height="3.83" rx="1.1" transform="translate(11.67 73.15) rotate(-34.69)"/><rect class="cls-16" x="125.33" y="13.57" width="2.19" height="3.83" rx="0.58" transform="translate(13.66 74.71) rotate(-34.69)"/></g><g class="cls-25"><path class="cls-26" d="M95.32,42.6c5.79-3.29,11.59-6.57,17.21-10.16,9.62-6.13,20.57-11.83,29-19.55,1-1,7.71-7.56,8.39-9.06a0,0,0,0,1,.05,0c0,1-2.49,4.86-2.93,5.68-1.36,2.54-3.68,4.63-5.15,6.31a37.59,37.59,0,0,1-5.39,4.93c-9.53,6.71-20.58,11.51-30.76,17.2-4.13,2.3-8.12,4.85-12.32,7Q91,46.16,88.65,47.22c-1,.44-2.8,1.69-3.82,1.35C88.2,46.41,91.84,44.58,95.32,42.6Z"/></g><polygon class="cls-11" points="100.66 43.66 101.58 40.36 99.7 35.95 98.22 36.93 99.08 39.48 97.05 42.39 95.9 43.86 97.13 45.33 100.66 43.66"/><polygon class="cls-3" points="182.78 92.24 174.68 92.89 153.4 111.36 157.36 117.19 182.78 102.73 182.78 92.24"/><polygon class="cls-11" points="154.07 112.35 148.5 113.69 147.1 119.06 148.97 120.69 153.16 117.19 156.58 116.04 154.07 112.35"/></g></g></svg>