<svg xmlns="http://www.w3.org/2000/svg" viewBox="0 0 138.5 138.49"><defs><style>.cls-1{fill:#6c2910;}</style></defs><g id="Capa_2" data-name="Capa 2"><g id="Capa_1-2" data-name="Capa 1"><path class="cls-1" d="M128.69,54.87c1.09,6.05,2.56,11.82,2.23,17.84a4.9,4.9,0,0,0,5,4.76c2.52-.24,2.57,1.26,2.57,3.08q0,23.9,0,47.78c0,2.56-.05,5.12,0,7.69,0,1.74-.7,2.56-2.45,2.46-.46,0-.92,0-1.37,0H4c-3.93,0-3.93,0-3.93-4C0,116,.06,97.52,0,79a5,5,0,0,1,2-4.42q25-20.2,49.84-40.5c1.33-1.08,2-2,1-3.63A13,13,0,0,1,51.7,27.7c-1.2-3.8-2.35-7-7.71-6.63-3.36.26-6.31-2.23-8.16-5.31a2.86,2.86,0,0,0-2.58-1.52,12.3,12.3,0,0,1-11.48-11C21.5,1.1,22,0,24.47,0,48.91.05,73.35,0,97.79,0c2.81,0,3.42.93,2.27,3.57a11.69,11.69,0,0,1-10.55,7.52,3.82,3.82,0,0,0-3.36,1.76,10.69,10.69,0,0,1-7.74,4.69c-1.51.18-2,.9-2.25,2.2-.78,3.47-1.62,6.93-2.56,10.36a2.55,2.55,0,0,0,.88,3.07c2.46,2,4.88,4.15,7.14,6.41,1.34,1.33,2,.9,3-.33,1.91-2.46,4-4.74,5.84-7.27,1.39-2,2.81-2.1,4.91-1.26,12,4.75,24,9.4,35.95,14.08,3.9,1.53,5.42,3.54,4.76,6.27C135.33,54.13,133.25,55.24,128.69,54.87Zm-67.62,80.3H132.9c1.16,0,2.32.3,2.31-1.66q-.09-21.13,0-42.28c0-1.66-.66-1.77-2-1.53-5.92,1.09-11.85,2.17-17.79,3.18-1.57.26-1.93.68-.81,2,2.26,2.65,4.42,5.38,6.67,8,1.16,1.36,1.23,2.51-.16,3.77-1.76,1.61-3.38,3.36-5.13,5-.91.83-1.1,1.42-.15,2.42,1.45,1.52,2.7,3.22,4,4.86.71.88,1,1.83,0,2.65s-1.86.19-2.55-.61c-1.32-1.52-2.65-3-3.88-4.63-.75-1-1.29-1-2.15-.12-1.72,1.78-3.53,3.46-5.3,5.17-.92.89-1.91,2.14-3.23.89s-.05-2.28.84-3.15c4.23-4.18,8.43-8.4,12.78-12.46,1.54-1.44,2-2.37.32-4.1a80.68,80.68,0,0,1-5.94-7.19,2.61,2.61,0,0,0-3-1.09C98.87,95.91,90,97.41,81.06,99c-6,1.06-11.9,2.17-18.37,3.35,2.3,1.71,4.1,3.09,5.94,4.42,1.66,1.2,1.7,2.41.22,3.81s-3.12,3.09-4.66,4.65c-1.73,1.76-4.46,3.33-4.88,5.37-.47,2.2,2,4.48,3.14,6.72C64.74,131.65,64.77,131.63,61.07,135.17ZM73.68,52.48a15.41,15.41,0,0,1-3.74-.65c-2.72-1.3-5.25-2-7.84.37a3.31,3.31,0,0,1-2.62.44c-1.56-.39-2.33.4-3.18,1.42-3.45,4.15-6.94,8.27-10.41,12.4-.83,1-1.63,2.16-3.12,1.84-4.62-1-7.58,1.47-10.27,4.66-.95,1.12-2.06,2.08-3.1,3.11-.77.77-1.65,1.37-2.6.43s-.52-2,.35-2.85c2-2,4.14-3.9,6-6a7,7,0,0,1,6.47-2.69c1.27.12,2.74.54,3.84-.77,3.59-4.27,7.21-8.52,10.81-12.78,1.27-1.51-.26-2.62-.83-3.58-.74-1.27-1.57.2-2.1.65-4,3.42-8.59,4.28-13.61,3.35A4.22,4.22,0,0,0,34,52.92c-5.36,4.43-10.78,8.78-16.17,13.17-4.4,3.58-8.75,7.22-13.23,10.7a3.19,3.19,0,0,0-1.2,3.35c.2,1.47,1.49,1,2.39,1.19,2.34.4,4.69.74,7,1.1C23.11,84,33.39,85.64,43.69,87.18c1.94.29,2.91,1.14,2.28,3.1a11.74,11.74,0,0,0,2.36,11.93c.59.69.94,1.57,1.48,2.3a3.32,3.32,0,0,1,0,4.27c-2,3-3.81,6.23-5.84,9.27-.94,1.39-.76,2.1.65,3,3.07,2,6,4.18,9,6.22,1.46,1,1.7,2,.7,3.42s-1.8,2.7-2.79,4.22c3.45,1,5.16-1.61,7.44-2.82,1.35-.72,1.51-1.49.73-2.79-1.4-2.35-2.56-4.85-4-7.19a2.67,2.67,0,0,1,.55-3.84c2.77-2.65,5.41-5.46,8.19-8.11,1.11-1.06,1-1.62-.23-2.48-3.51-2.48-6.93-5.08-10.39-7.63-1-.73-2.22-1.59-1.13-2.85,2.49-2.9,4.5-6.24,9.13-6.66,5.38-.48,10.69-1.81,16.49-2.86-2.69-2.91-1.78-5.92-1.26-8.86A3.93,3.93,0,0,0,77,76.19c-1.2-2.36-2.34-4.75-3.56-7.26-.72.6-1.3,1.17-2,1.62a4.93,4.93,0,0,1-7.61-2.93,5.39,5.39,0,0,1,1.4-4.8C68,59.47,70.75,56.07,73.68,52.48ZM16.61,94.77C12.68,94.15,9.25,93.71,5.87,93c-2.16-.45-2.58.25-2.57,2.31q.14,18.66,0,37.33c0,2.08.55,2.58,2.59,2.56,12.35-.1,24.71-.21,37.05.05,3.53.07,5.57-1.05,7.13-4,.71-1.37.72-2-.57-2.81-2.83-1.85-5.51-3.93-8.37-5.73-2-1.28-2.61-2.53-1.07-4.63,1.41-1.9,2.29-4.23,3.84-6,3.34-3.79,3.22-7.31-.11-10.93-.83-.9-1-2.46-2.52-2.69-6.5-1-13-1.95-19.51-2.87-1.18-.17-4.56,3-4.53,4.1,0,1.31,4.2,5.65,5.57,5.83,2.53.34,5.06.72,7.6,1.06A1.55,1.55,0,0,1,32,108.41c-.11,1.14-.9,1.54-1.93,1.45s-1.8-.37-2.71-.39c-1.3,0-3.43-1.19-2.79,1.9.1.47-.71,1.21-1.21,1.73-1.57,1.66-3.13,3.34-4.82,4.88-1.17,1.06-1.08,1.84-.06,2.93,1.25,1.33,2.34,2.81,3.49,4.23.71.88,1,1.87,0,2.64s-1.91.32-2.63-.58a40.32,40.32,0,0,1-2.92-3.63c-1.1-1.73-2-1.69-3.24-.15-.74.92-1.74,1.94-3,.68s-.25-2.16.62-3c2.56-2.61,5-5.37,7.74-7.78,2.07-1.83,2.24-3.26.36-5.28-1.47-1.59-2.58-4.82-3.95-4.88-2-.08-3,3-4.5,4.67-.86.92-1.62,2.32-3.09,1.08s-.23-2.29.55-3.26C10.67,102.12,13.49,98.65,16.61,94.77Zm113.3-16.23c-.6-1.84-2.54-2.74-2.38-4.72.51-6.38-1.07-12.51-2.17-18.71A3.33,3.33,0,0,0,123,52.22q-12.66-4.84-25.23-9.87c-1.63-.66-2.57-.49-3.69.92-4.38,5.51-8.5,11.31-13.45,16.26-4.5,4.5-5.24,8.52-1.48,13.59a7.43,7.43,0,0,1,1.21,7,6.25,6.25,0,0,0,.6,5.75c1.58,2.26,3.48.69,5.17.41,1.93-.32.61-1.78.44-2.6-.61-2.85-1.34-5.68-2.2-8.47-.64-2.07,0-3,2.06-3.54,4.08-1,8.16-2,12.19-3.16,1.9-.55,2.7.11,3.14,1.87q1.33,5.44,2.84,10.86c.21.76.17,1.9,1.64,1.63C114.08,81.39,122,80,129.91,78.54ZM96.16,3.75c-.31-.2-.44-.36-.58-.37q-34.41,0-68.82-.06c-1.59,0-1.57.63-1.13,1.84a9,9,0,0,0,9.08,5.75,2.93,2.93,0,0,1,3.35,1.94,8.76,8.76,0,0,0,14.2,2.77c1.75-1.6,2.91-2,4.17.46a6,6,0,0,0,6.43,3.22,5.85,5.85,0,0,0,5.39-4.37c.73-2.45,1.84-2.62,4-1.49A8.63,8.63,0,0,0,84.07,9.93c1-1.89,2.13-2.31,4.1-2.14A8.06,8.06,0,0,0,96.16,3.75ZM39.3,48.63l2.47.13c4.36.19,7.14-2.89,10.32-5.08,3-2,3.68-1.81,4.46,1.78.07.36.06.74.16,1.09.73,2.64,2.92,3.48,5.29,2A19.29,19.29,0,0,0,64.22,47c1.16-1,2.14-.9,3.4,0,4.35,3.16,8.52,2.49,12-1.66,1.06-1.26,1.34-2.07-.17-3.27A99,99,0,0,1,71.9,35.3c-1.59-1.57-2.83-1.43-4.47-.09-4.11,3.36-4.64,3.35-9.22.77-1-.54-1.85-1.19-3-.27C50.15,39.86,45,44,39.3,48.63ZM59.73,99.45l.81-.13,49.36-8.77c1.94-.35,4.09,0,3-3.58-.49-1.63-.5-1.94-2-1.68q-24.81,4.42-49.63,8.82A4.61,4.61,0,0,0,58.17,96c-.45.64-1.66,1.14-1.18,1.94A2.72,2.72,0,0,0,59.73,99.45Zm73.06-49.31c-.25-1.47-1.43-1.69-2.42-2.08C118.73,43.51,107.08,39,95.46,34.4a2.52,2.52,0,0,0-3.42,1c-7.9,9.73-15.86,19.4-23.79,29.09-.81,1-2,2-.53,3.23s2.28-.32,3-1.25c7.33-8.88,14.68-17.76,21.91-26.72,1.33-1.65,2.49-2,4.43-1.19,7.61,3.07,15.27,6,22.92,9,3.31,1.3,6.63,2.58,9.94,3.89C131.42,52,132.45,51.73,132.79,50.14ZM68.66,27.5h-.07a3.23,3.23,0,0,0,0,.82c.14.78-.83,2.05.59,2.25s1.17-1.13,1.39-2c.79-3.09,1.56-6.19,2.33-9.29.19-.77.63-1.62-.46-2.12s-1.4.24-1.93.94c-4.23,5.54-10.27,6.18-15.41,1.65-.64-.57-1-1.19-2-.47s-.62,1.32-.29,2.11c1,2.44,1.93,4.94,3,7.34.51,1.09.54,3.22,1.87,3,1.5-.29.33-2.16.46-3.31.1-1,.2-1.87,1.39-2s1.7.63,1.86,1.6c.22,1.35.17,2.75.44,4.08.16.78-.24,2.22,1,2.16a2.22,2.22,0,0,0,2.1-2.43c0-2.1.29-4.19.41-6.3.07-1,.36-1.84,1.54-1.87s1.75.78,1.78,1.94C68.68,26.22,68.66,26.86,68.66,27.5ZM91.24,85.44l9.17-1.62c1-.18,1.28-.64,1-1.72q-1.31-4.34-2.31-8.74c-.29-1.22-.75-1.39-1.9-1-2.53.76-5.12,1.34-7.69,2-1.1.28-1.8.7-1.39,2.08.75,2.54,1.41,5.1,2,7.67C90.35,85,90.68,85.59,91.24,85.44ZM18.61,91.63C25.81,92.75,32.93,93.81,40,95c2,.35,2-1,2.2-2.23s.67-2.59-1.5-2.7c-1.81-.1-3.6-.57-5.41-.84-5.36-.81-10.73-1.6-17-2.53C20.53,88.74,18.8,90.05,18.61,91.63Zm116.51-8c.24-1.45.24-2.67-2-2.24-4.9,1-9.83,1.86-14.76,2.68-1.92.32-2,1.83-1.9,3.07s1.12,2.14,2.76,1.81c4.55-.91,9.1-1.83,13.69-2.48C134.85,86.16,135.54,85.47,135.12,83.59ZM3.39,87.05c-.3,1.66.14,2.52,2.05,2.62a49.36,49.36,0,0,1,7,1c1.65.34,3.16.14,3.27-1.67a3,3,0,0,0-2.9-3.29c-2.25-.26-4.5-.62-6.74-1C4.15,84.38,2.81,84.59,3.39,87.05Z"/><path class="cls-1" d="M19.55,31.83c3.79,0,5.25,2.25,3.8,5.81a14.8,14.8,0,0,1-4.68,6c-2.75,2.2-5.84,1-6.66-2.48C10.69,35.58,13.77,31.78,19.55,31.83ZM15.1,39.41c.18.47-.07,1.34.72,1.72a1.12,1.12,0,0,0,1-.31,16.92,16.92,0,0,0,3.3-4c.52-1.08.46-1.66-1-1.68C16.61,35.1,15.08,36.59,15.1,39.41Z"/><path class="cls-1" d="M18.49,21.49c-3.31.21-5.65-1.5-7.13-4.59a2.69,2.69,0,0,1,0-2.85c.65-.94,6.66-2.6,7.87-2.2a7.63,7.63,0,0,1,4.42,6.38C23.6,20.61,22.18,21.54,18.49,21.49Zm1.75-3.41C19,15,19,15,15,16.41,16.21,18.49,18.13,18.21,20.24,18.08Z"/><path class="cls-1" d="M107.57,22c3.14-.3,5.34,1.38,6.91,4.1.58,1,1,2.39,0,3-2.25,1.43-4.83,2.83-7.49,2.47s-4.06-2.68-4.72-5.15C101.5,23.48,103.28,22,107.57,22ZM111,26.82c-2.12-1.78-2.29-1.81-5.26-1.14C107,28.57,107,28.57,111,26.82Z"/><path class="cls-1" d="M104.56,16.65c-3.48-.06-5.13-1.21-5.09-3.55,0-2.81,2.72-6,5-6,2.07,0,4.42,3.47,4.42,6.45C108.91,16,107.88,16.71,104.56,16.65Z"/><path class="cls-1" d="M38.73,22.87l5.15.71a1.5,1.5,0,0,1,1.45,1.66,1.58,1.58,0,0,1-1.83,1.6c-1.82-.15-3.63-.39-5.43-.68-1.06-.18-2-.71-1.72-2S37.64,22.77,38.73,22.87Z"/><path class="cls-1" d="M78.62,28.72c2.11-.11,5.55,1.8,5.54,3a1.51,1.51,0,0,1-1.51,1.6c-1.71.2-5.55-1.72-5.52-2.79A1.68,1.68,0,0,1,78.62,28.72Z"/><path class="cls-1" d="M47.89,31.93c-.3,1.58-2,1.65-3.17,2.35-.89.53-1.88.87-2.77.12a1.27,1.27,0,0,1-.24-1.93,7.27,7.27,0,0,1,5-2.28C47.52,30.18,47.9,30.89,47.89,31.93Z"/><path class="cls-1" d="M80.94,25.88c-1.56.06-2.56-.38-2.29-1.65.53-2.45,2.91-1.64,4.49-2.15a1.39,1.39,0,0,1,1.79,1.52C84.55,26.21,82,25.08,80.94,25.88Z"/><path class="cls-1" d="M90.76,22.46c-.08,1.25-1,1.65-2,1.71s-2-.5-1.86-1.75S88,20.88,89,20.85A1.48,1.48,0,0,1,90.76,22.46Z"/><path class="cls-1" d="M39.25,35.93a2,2,0,0,1-2.1,1.78,1.4,1.4,0,0,1-1.53-1.55,1.92,1.92,0,0,1,2.2-1.92C38.77,34.25,39.2,35,39.25,35.93Z"/><path class="cls-1" d="M75.92,121.13a1.4,1.4,0,0,1-1.47,1.56,1.44,1.44,0,0,1-1.67-1.38,1.46,1.46,0,0,1,1.63-1.7A1.39,1.39,0,0,1,75.92,121.13Z"/><path class="cls-1" d="M94,128.27a1.42,1.42,0,0,1-1.55,1.46,1.43,1.43,0,0,1-1.65-1.43,1.55,1.55,0,0,1,1.7-1.71A1.52,1.52,0,0,1,94,128.27Z"/><path class="cls-1" d="M102.22,101.38c.9.18,1.59.62,1.58,1.59a1.47,1.47,0,0,1-1.79,1.55,1.4,1.4,0,0,1-1.41-1.64C100.67,101.88,101.36,101.52,102.22,101.38Z"/><path class="cls-1" d="M82.37,109.88c-1.09-.11-1.64-.63-1.66-1.59a1.42,1.42,0,0,1,1.4-1.65,1.5,1.5,0,0,1,1.7,1.67A1.6,1.6,0,0,1,82.37,109.88Z"/><path class="cls-1" d="M128.47,130.71c-1.07-.13-1.64-.64-1.68-1.58a1.41,1.41,0,0,1,1.39-1.65,1.45,1.45,0,0,1,1.7,1.63A1.62,1.62,0,0,1,128.47,130.71Z"/><path class="cls-1" d="M129.89,106.54c-.06.89-.48,1.58-1.43,1.64a1.46,1.46,0,0,1-1.66-1.66,1.41,1.41,0,0,1,1.53-1.53C129.3,105,129.75,105.61,129.89,106.54Z"/><path class="cls-1" d="M36.84,102.26a1.51,1.51,0,0,1-1.53,1.57,1.59,1.59,0,1,1-.19-3.18A1.57,1.57,0,0,1,36.84,102.26Z"/><path class="cls-1" d="M9.94,116.6a1.49,1.49,0,0,1-1.56,1.48,1.6,1.6,0,1,1,.19-3.19A1.51,1.51,0,0,1,9.94,116.6Z"/><path class="cls-1" d="M32,121.15a1.41,1.41,0,0,1-1.49,1.54,1.42,1.42,0,0,1-1.65-1.4,1.46,1.46,0,0,1,1.65-1.68A1.4,1.4,0,0,1,32,121.15Z"/><path class="cls-1" d="M123.05,73c.23,1.87-.43,2.49-1.54,2.78-2.65.7-5.3,1.38-7.94,2.1-1.68.46-2.63-.17-3-1.81-.65-2.57-1.25-5.15-2-7.68-.47-1.58,0-2.51,1.52-2.93,2.72-.75,5.46-1.45,8.2-2.16,1.1-.29,2.14-.09,2.48,1.06C121.64,67.45,122.4,70.55,123.05,73Zm-3.5-1c-1.27-1.64-.17-4.56-2.46-4.76-1.47-.12-4.43-.21-4.67,1.94-.16,1.46-.33,4.49,2.17,4.76A5.39,5.39,0,0,0,119.55,72.06Z"/><path class="cls-1" d="M91.68,54.78a7.34,7.34,0,1,1,7.45,7.36A7.19,7.19,0,0,1,91.68,54.78Zm7.38-4.06a4.05,4.05,0,0,0-4,3.94,3.93,3.93,0,0,0,4,4.15,4,4,0,0,0,4-4A4.16,4.16,0,0,0,99.06,50.72Z"/></g></g></svg>