<svg xmlns="http://www.w3.org/2000/svg" viewBox="0 0 190.55 181.5"><defs><style>.cls-1{fill:#c98b5f;}</style></defs><g id="Capa_2" data-name="Capa 2"><g id="Capa_1-2" data-name="Capa 1"><path class="cls-1" d="M172.32,163.35c.47-.91-.16-1.52-.32-2.22-.36-1.61-.13-3,1.56-3.7a2.49,2.49,0,0,1,3.57,1.65c1.15,3.36,3.26,4.51,6.81,4.83,4,.37,6.84,4.86,6.6,9.08a9.15,9.15,0,0,1-8,8.41,26.56,26.56,0,0,1-3.34.07h-113c-7.16,0-9.54-1.73-11.4-8.49-.29-1.08-.5-2-1.8-1.76-7.41,1.14-9.45-4.33-11.73-9.5-.24-.56-.46-1.13-.71-1.69,0-.1-.18-.16-.57-.48-5.32,5.74-10.63,11.53-16,17.25-3.89,4.13-8.59,5.73-14.15,4-9.65-3-13.11-15.09-5.83-22.09,13.4-12.88,27.21-25.33,40.86-37.95,1.49-1.37,3.12-1.71,4.51,0,1.66,2.06,0,3.41-1.34,4.69Q28.82,143.16,9.69,160.8c-1.56,1.43-3.09,2.86-3.6,5a8,8,0,0,0,3.7,8.94,8,8,0,0,0,9.82-1.69c5.55-5.85,11-11.8,16.44-17.71,11-11.93,22-23.91,33.09-35.75,1.82-1.94,2.11-3,0-4.95-4.57-4.28-4.46-4.42-9.11-.31-1.54,1.36-3.22,2.93-5.11,1-2.14-2.16-.26-3.77,1.33-5.23,2.57-2.36,4.92-4.31,4.63-8.75C60.54,96.14,65.42,92.51,71,93a5.39,5.39,0,0,0,5.29-2.33c3.61-4.55,7.4-9,11.23-13.53-4.81-2.55-5.49-7.32-6.88-11.58-.68-2.08.41-4.09,1.6-5.92.66-1,3.11-1.76,1.07-3.46-1.64-1.38-2.4-4.4-5.93-2.49-4.45,2.41-9.29.76-12.43-3.45a9.47,9.47,0,0,1,.87-12.57Q83,20.19,100.49,3A9.28,9.28,0,0,1,113,2c4.32,3.09,6,8.14,3.46,12.73-2,3.65,1.53,4.09,2.74,5.76,1.43,2,2.2-.31,3-1a8.68,8.68,0,0,1,7-1.62c7.08,1.06,10.65,6.55,14.55,11.57.91,1.18.34,2.4-.66,3.3s-2.45,1.13-3.35.06c-1.81-2.11-2.94-1.06-4.4.41Q115.76,53,96,72.65c-1.6,1.58-2.09,2.53-.15,4.27,3.23,2.88,6.25,6,9.21,9.18,1.36,1.44,2.17,1.28,3.49-.06q20.06-20.17,40.23-40.23c1.43-1.41,1.77-2.35.14-3.82a2.58,2.58,0,0,1-.05-4,2.32,2.32,0,0,1,3.36-.34c4.61,3.94,10.11,7.18,11.37,13.91.55,3,.28,5.63-1.77,8-.67.77-2.53,1.62-.68,2.8,1.69,1.09,2.12,4.69,5.44,2.79a9,9,0,0,1,9.51.17c6.36,3.75,7.31,10.91,2,16.3-9.22,9.36-18.57,18.59-27.84,27.9-.91.92-2.17,1.61-2.58,3.47h18.59c5.2,0,10.41-.08,15.61,0a8.82,8.82,0,0,1,8.68,8.45,8.72,8.72,0,0,1-8.18,9.28c-2.63.08-3.67,1.25-4.59,3.33a29.58,29.58,0,0,0-2.84,11.44c0,2-.24,3.94-2.72,4.09s-3.22-1.67-3-3.73c.28-2.63-1.35-2.35-3-2.34h-29c-.87,0-1.74,0-2.6,0-2,0-3.54-.55-3.56-2.8s1.75-2.74,3.6-2.74c7.93,0,15.87,0,23.8,0h5.2c6.8,0,6.8,0,8.83-6.73-1.23-.74-2.6-.35-3.89-.35-31.73,0-63.46.16-95.19-.19-6-.07-9.89,1.67-12.73,6.69,1.09,1.08,2.52.54,3.78.55,14.37,0,28.75,0,43.13,0a30.47,30.47,0,0,1,3.7.19,2.35,2.35,0,0,1,2.11,2.62,2.41,2.41,0,0,1-2.13,2.63,23.07,23.07,0,0,1-3.33.12c-15.74,0-31.48.08-47.22-.07-2.9,0-3.54.92-3.49,3.58a36.35,36.35,0,0,0,2.89,14.45,2.88,2.88,0,0,0,3,2.05q53.91-.12,107.83-.1A10.35,10.35,0,0,0,172.32,163.35ZM122.4,175.69q29,0,58,0c2.33,0,4.38-.4,4.39-3.25s-2-3.4-4.33-3.43H66.73a16.87,16.87,0,0,0-3.34.12c-1.89.38-3.17,1.51-3,3.61a3,3,0,0,0,3.25,2.9c1,0,2,0,3,0ZM71.9,125.1c1.69.1,2.55.19,3.41.19h104c.62,0,1.24,0,1.85,0,2.14-.1,3.59-1,3.58-3.35,0-2.16-1.41-3.06-3.33-3.25a35.34,35.34,0,0,0-3.71-.08q-41.8,0-83.6,0c-4,0-8.15-.67-11.87,1.81a4.24,4.24,0,0,1-3.24.47C75.26,119.65,74.14,122.48,71.9,125.1ZM108,113c5.82,0,11.63,0,17.45,0,1.37,0,2.51,0,1.84-1.93a9.52,9.52,0,0,1,.94-7.85c1.47-2.74-1.57-3.13-2.47-4.62-.46-.75-1.08-1.46-2.41-.67-6.91,4.11-12.94,3.2-18-2.71-.76-.87-1.07-1-2-.3q-6.93,5.88-13.93,11.68c-2,1.66-.72,3.75-.54,5.52s2,.81,3.14.82C97.38,113.09,102.7,113,108,113Zm3.82-102.61a4.35,4.35,0,0,0-2.73-4.16c-2-1-3.76-.27-5.34,1.31Q87.12,24.32,70.39,41c-2.08,2.08-2.54,4.2-.36,6.47s4.5,2.1,6.74-.14q16.67-16.72,33.38-33.4A4.35,4.35,0,0,0,111.84,10.43Zm59.5,59.31a4.23,4.23,0,0,0-3.3,1.39Q151,88.23,133.88,105.31a3.83,3.83,0,0,0-.31,5.65c2.14,2.68,4.5,2.76,7.24,0,7.31-7.23,14.56-14.53,21.83-21.8,3.86-3.86,7.69-7.74,11.57-11.57,1.49-1.47,2-3.19,1.17-5A4.54,4.54,0,0,0,171.34,69.74ZM116.25,95.27c2.31.06,3-1.23,4-2.16C132,81.41,143.6,69.61,155.47,58c2.54-2.48,2.92-4.5,1.63-7.72-1.39-3.5-2.43-2.64-4.43-.63C140.31,62.16,127.86,74.55,115.45,87c-1.4,1.4-2.83,2.77-4.18,4.22-.5.54-1.64,1.25-.17,1.93C113,94,114.94,94.73,116.25,95.27Zm-27-23.92c1-.95,2-1.85,3-2.8q18.38-18.34,36.73-36.72c1.4-1.4,2.81-2.78,4.19-4.2.57-.6,1.35-1.15.33-2.12a6.9,6.9,0,0,0-9.41.29L90.15,59.64C85.3,64.49,85.24,65.08,89.2,71.35Zm27.09-46c-1.55-1.38-3-2.79-4.52-4-1-.77-1.48.51-2,1-8.15,8.09-16.2,16.28-24.42,24.29-2,1.94-.78,2.91.55,4.07s2,3.3,4.32.95C98.33,43.36,106.6,35.21,114.8,27,115.21,26.59,115.58,26.12,116.29,25.3Zm16.35,72.82c1.27-1.09,2-1.68,2.71-2.36C143.22,87.91,151,80,159,72.25c2.09-2,1.08-3-.4-4.22-1.32-1.13-2.07-3.35-4.48-.84-7.78,8.1-15.84,15.94-23.76,23.92-.69.7-2.21,1.28-1.3,2.64A53.08,53.08,0,0,0,132.64,98.12Zm-48.37,5.22c1-.67,1.39-.92,1.76-1.23,4.46-3.72,8.88-7.5,13.39-11.17,1.31-1.06.84-1.69-.09-2.59-2-1.88-3.94-3.76-5.76-5.79-1.32-1.47-2.13-1.44-3.39.14-3.16,4-6.55,7.74-9.74,11.69-.73.91-2.56,1.74-1.3,3.32C80.73,99.7,82.57,101.5,84.27,103.34Zm-1,8a4.59,4.59,0,0,0-.51-1.56,58.77,58.77,0,0,0-11-10.89c-1.66-1.21-3.34-.35-4.54,1.13a3.35,3.35,0,0,0,.07,4.73c3.15,3.31,6.4,6.52,9.7,9.69a3.33,3.33,0,0,0,4.13.39A4.33,4.33,0,0,0,83.22,111.32Zm-31.9,36.46c-7,5.35-7.64,9.79-2.62,16.49,1.65,2.2,3.79,1.35,5.77,1.35,1.15,0,.85-1.07.55-1.69C52.57,158.87,51.93,153.38,51.32,147.78Z"/><path class="cls-1" d="M111,156.27H80.87c-.87,0-1.74,0-2.6,0a2.66,2.66,0,0,1-2.85-2.78,2.56,2.56,0,0,1,2.6-2.63c.86-.08,1.73-.09,2.59-.09h60.22c.61,0,1.23,0,1.85,0,1.82.07,3.26.74,3.18,2.8s-1.44,2.71-3.29,2.7H111Z"/></g></g></svg>