<svg xmlns="http://www.w3.org/2000/svg" viewBox="0 0 226.02 173.77"><defs><style>.cls-1{fill:#c88a5e;}</style></defs><g id="Capa_2" data-name="Capa 2"><g id="Capa_1-2" data-name="Capa 1"><path class="cls-1" d="M127.06,149.23l.22.28c.95,1.22,2.25,2.91,4.69,2.18,2.14-.63,2.63-2.47,3-3.94l.13-.49c4.14-14.6-2.37-31-15.47-39l-.52-.31c-2.38-1.43-3.3-2.1-2.23-4.48a3.35,3.35,0,0,0-1.9-4.43c-1.64-.77-3.14-.3-4.48,1.41-1.55,2-3.29,3-5,3h0c-1.84,0-3.71-1.12-5.42-3.24-5.56-6.93-11.18-11-17.66-12.84-3.76-1.06-7.49-.73-11.66-.16a68.78,68.78,0,0,1,13.64-10l.64-.34c1.4-.71,3.31-1.69,3.05-4.29-.34-3.21-3.15-3.48-4.83-3.63l-.44,0a87,87,0,0,0-12.59-.67c-14.86.58-23.3,6.27-26.45,17.88C31.85,81,21.58,80.9,5.1,85.72L4.19,86c-1.64.39-3.88.93-4.16,3.61-.33,3.14,2.22,4,3.91,4.58l.83.29C10.39,96.61,16,98.72,21.92,101l4.64,1.75c-15,7.73-15.06,20.88-13.35,31.61,0,.3.08.62.12,1,.21,1.87.53,4.7,3.58,5.37s4.18-1.54,5-3.16a10.71,10.71,0,0,1,.69-1.19c5.8-8.45,12.52-17,22.34-22,1.13-.58,1.86-.77,2.36-.6s1,.75,1.49,1.79c7.15,14.81,10,29.07,8.71,43.62-.32,3.57-1.52,4.32-5,4.77-3.95.52-7.93,1.3-11.77,2.05l-3.37.65a4.09,4.09,0,0,0-2.82,1.7,3.59,3.59,0,0,0-.35,2.92c.5,1.92,2,2.74,4.53,2.46l.31,0c.7-.08,1.42-.16,2.14-.3,26.92-5.28,49-5.26,69.54.08a10,10,0,0,0,2.44.39,3.65,3.65,0,0,0,1.93-.49,3.47,3.47,0,0,0,1.55-2.32,3.26,3.26,0,0,0-1.2-3.66,8.39,8.39,0,0,0-3-1.15c-3.89-.92-7.74-1.74-11.81-2.6l-3.83-.81,1.81-5.33q2.46-7.31,4.94-14.55c.88-2.59,1.36-3.05,1.56-3.09s.79.12,2.71,2.24c2.83,3.12,5.55,4,9.7,3.09C122,144.15,125.16,146.82,127.06,149.23ZM19.89,127c-.14-7,1.44-11.32,5.21-14.56a16.86,16.86,0,0,1,11.27-4.35,17.86,17.86,0,0,1,2.89.23C32.08,113,26.32,119.07,19.89,127ZM16.6,91C27,88.86,36,89.85,41.54,93.79a13.76,13.76,0,0,1,5.72,8.79Zm81.3,20.22a60.89,60.89,0,0,0-9.18,14.87c-.37.89-.61,1-.66,1s-.29.07-1-.48a19.54,19.54,0,0,0-8.78-3.14C82.72,116.05,90.45,111.26,97.9,111.19Zm-28,11.25-8.35-12a89.54,89.54,0,0,1,19.93-1.6A43.35,43.35,0,0,0,69.91,122.44Zm5-28.09c.32,0,.63,0,1,0,5.11,0,10.21,2.41,14.87,7-10.24-.29-20.35-.26-30.79,1.79C64.34,97.68,69.48,94.67,74.91,94.35ZM53.75,96.58c-2.27-3.94-2.93-7.74-1.9-11s3.94-6.2,8.29-8a29.89,29.89,0,0,1,11.5-2.1l1.49,0C64.64,82,58.42,88.73,53.75,96.58ZM73,161.66c-.23.24-.77.36-1.68.36-1.51,0-2.73,0-3.71.08a10.82,10.82,0,0,1-2.76,0,9.33,9.33,0,0,1,.06-2.56c.08-.89.17-2,.24-3.3a86.67,86.67,0,0,0-5.48-34.77C67.57,132.19,72,144.88,73.18,160A2.45,2.45,0,0,1,73,161.66ZM96.4,141.1c-.61,1.77-1.24,3.53-1.87,5.3-1.38,3.89-2.81,7.91-4,11.94-.62,2.09-1.26,3.17-2.13,3.62a4,4,0,0,1-3.09-.11l-.29-.1-.3.09c-1.58.48-2.7.5-3.31.06-1-.68-1.1-2.73-1.17-4.77a67.83,67.83,0,0,0-5.37-23.55c-.73-1.74-.53-2.18-.48-2.25S75,131,76.78,131c3.6.06,6.35,1.25,8.18,3.54,2.41,3,4.93,3.26,8,2.7s4-.36,4.19-.11S97.19,138.81,96.4,141.1Zm15-6.12a26.31,26.31,0,0,0-14.46-5.17c-1.34-.06-1.51-.31-1.51-.32s-.11-.26.32-1.12c2.49-5.07,5.29-10.33,9.77-14.18,1.67-1.44,3.16-2.19,4.28-2.19a2.09,2.09,0,0,1,.72.12c1.14.42,1.94,2,2.31,4.54A42.06,42.06,0,0,1,111.36,135Zm11.73,3.17c-2,.1-3.21-.19-3.75-.84-.78-1-.3-3.14.21-5.12a42.56,42.56,0,0,0,1.08-13.64,27.69,27.69,0,0,1,8.33,19.7c.06,1.89-.32,2.17-.32,2.18s-.44.15-1.86-.89a6.59,6.59,0,0,0-3.53-1.39Z"/><path class="cls-1" d="M225.88,156.76c-1.61-11.37-3.09-22.94-4.53-34.14q-.75-5.79-1.49-11.57l-2-15.43c-3.22-24.76-6.54-50.36-9.76-75.55-.53-4.12-2.54-5.92-6.55-5.76-4.25.14-8.59.12-12.79.09-2.62,0-5.24,0-7.87,0-2,0-2.93-.18-3.71-2.28-2.84-7.67-9-12.07-17-12.08h0c-8,0-14.18,4.37-17,12-.77,2.07-1.58,2.4-3.65,2.38h-.26c-5.76-.09-11.72-.18-17.58,0-2.66.1-3.64-.58-4.6-3.15C114.64,4.79,109.62.94,102.58.16c-8.19-.91-14.5,2.09-16.91,8C83.05,14.63,79,14.83,73.19,14.4c-.93-.07-1.86-.05-2.76,0a23.86,23.86,0,0,1-2.54,0c-3.85-.28-5.75,1.42-6.13,5.49-1,10.46-2.16,21.07-3.31,31.33L57.57,59c-.23,1.9-.61,5.08,2.92,5.62a3.73,3.73,0,0,0,3.15-.69c1.34-1.16,1.32-3.27,1.3-4.81a4.08,4.08,0,0,1,.78-2.94c.6-.6,1.7-.88,3.52-.86,15.28.14,30.82.12,45.84.1h31.27c15.25,0,31,0,46.55-.08,1.58,0,2.48.18,2.84.59s.41,1.27.2,2.59c-.5,3.18-.77,6.44-1,9.59-.14,1.76-.29,3.52-.47,5.28q-1.16,10.88-2.33,21.75c-2,18.39-4,37.42-5.84,56.15-.36,3.74-1.24,4.53-4.74,4.49-13.08-.17-26.38-.14-39.24-.1l-11.77,0h-.28c-1.47,0-3.3,0-4.44,1.13a3.55,3.55,0,0,0-.94,2.59,3.48,3.48,0,0,0,.93,2.59c1.08,1.06,2.72,1,4.16,1h26c21.15,0,43,0,64.54,0h0c2.27,0,3.67-.44,4.55-1.45S226.21,159.1,225.88,156.76ZM194,48.27h-.12c-16-.06-32.21-.05-47.91,0H116c-15.13,0-30.77,0-46.15.07-1.56,0-2.7-.08-3.11-.56s-.41-1.32-.18-2.74c1.2-7.42,1.76-14.92,2.12-20.62.14-2.36.79-2.79,2.9-2.79h.26c6.8.1,13.71.08,20.39.06l6.06,0h.59c1.91,0,5.09.07,5.15-3.53a3.46,3.46,0,0,0-.89-2.57c-1.07-1.11-2.76-1.12-4.25-1.14h-.48c-.62,0-1.24,0-1.86,0a27.39,27.39,0,0,1-2.88-.05,7.82,7.82,0,0,0-1.37.07c-1.35.15-1.45,0-1.58-.38-.23-.75.56-1.66,1.32-2.53l.28-.33a10.56,10.56,0,0,1,12.38-3,10.86,10.86,0,0,1,6.39,10.63,10.4,10.4,0,0,1-7.9,9.46c-.43.11-.87.19-1.31.26l-.68.13c-1.4.25-3,.54-3.83,1.77a3.42,3.42,0,0,0-.43,2.67c.65,3.43,3.88,3,5.62,2.8h.13c7.14-.9,12-4.63,14.2-10.8,1.07-3.07,2.43-3.58,5.78-3.55,9.57.14,19.3.11,28.71.08l7.35,0c.26,0,.51,0,.77,0,1.84.06,4.93.14,5.09-3.36a3.65,3.65,0,0,0-.86-2.77c-1.05-1.09-2.68-1.09-4.12-1.1h-.9c-.81,0-1.61,0-2.39,0-1,0-1.93,0-2.86,0a7.19,7.19,0,0,0-1.31.06c-1.31.14-1.48,0-1.63-.42-.22-.72.35-1.44,1.25-2.46l.33-.39a10.45,10.45,0,0,1,12-3.06,10.69,10.69,0,0,1-1.24,20.28,9.44,9.44,0,0,1-1.63.26c-1.51.18-3.22.37-4.07,1.64a3.5,3.5,0,0,0-.29,3,4.07,4.07,0,0,0,1.87,2.63c1.71.94,3.93.26,5.72-.29l1-.29a16.32,16.32,0,0,0,11.7-11.09c.74-2.27,1.67-2.66,3.91-2.59,6.15.16,11.21.16,15.92,0,1.29,0,2.08.11,2.42.48a3,3,0,0,1,.28,2.22C198.7,32,198,39,197.4,45.8,197.23,47.94,196.51,48.27,194,48.27Zm23.82,106.9c-.46.52-2.39.52-5.39.53h-5.88c-3.65,0-7.31,0-11,0-.88,0-1.76,0-2-.34-.13-.14-.33-.56-.2-1.75,3.07-28.36,6.11-57.2,9-85.1l2-18.77.57,4.25q1.2,8.79,2.36,17.57,1.69,12.82,3.37,25.65c2.25,17.19,4.57,35,6.92,52.45l.07.51C218,152.77,218.24,154.66,217.79,155.17Z"/><path class="cls-1" d="M133.51,75.4c-5.09,0-10.19,0-15.29,0-2.59,0-4.15,1.4-4.15,3.7s1.53,3.67,4.11,3.79c1,0,2.09.06,3.12.06l2.29,0c1.52,0,3,0,4.55,0,1.77,0,3.59,0,5.4,0,2.53-.07,4.16-1.56,4.16-3.77S136.05,75.41,133.51,75.4Z"/><path class="cls-1" d="M155.43,109c1,0,2.09,0,3.13,0h4.54l.87,0h1.66c2,0,4.07,0,6.11,0a3.58,3.58,0,0,0,3.58-3.78,3.51,3.51,0,0,0-3.37-3.48c-5.69-.16-11.32-.17-16.75,0a3.75,3.75,0,0,0-2.68,1.16,3.75,3.75,0,0,0,2.91,6.19Z"/><path class="cls-1" d="M163.53,83c2.71,0,5.33,0,7.91-.1a4.14,4.14,0,0,0,3-1.33,3.54,3.54,0,0,0,.82-2.82,3.79,3.79,0,0,0-4-3.3H156c-2.6,0-4.18,1.27-4.34,3.49a3.55,3.55,0,0,0,.88,2.71,4.27,4.27,0,0,0,3.11,1.27C158.36,82.92,161,83,163.53,83Z"/><path class="cls-1" d="M151.62,131.9c.25,2,1.7,3.18,4,3.18h9.78c2,0,4,0,6,0a3.58,3.58,0,0,0,4-3.31,3.5,3.5,0,0,0-.84-2.68,3.68,3.68,0,0,0-2.72-1.18c-6-.12-11.49-.11-16.72,0a3.42,3.42,0,0,0-3.43,4Z"/><path class="cls-1" d="M126.18,101.7a3.5,3.5,0,0,0-3.18,3.64,3.55,3.55,0,0,0,3.18,3.55A15.71,15.71,0,0,0,129,109h.22l.92,0,1.16,0h1.2c.52,0,1,0,1.56-.06a3.63,3.63,0,0,0,3.65-3.7,3.68,3.68,0,0,0-3.73-3.69A55.09,55.09,0,0,0,126.18,101.7Z"/><path class="cls-1" d="M95.15,83h0c1.39,0,5.09-.09,5.16-3.73a3.64,3.64,0,0,0-.92-2.7c-1.1-1.12-2.87-1.16-4.33-1.16s-3.13.11-4.18,1.21a3.53,3.53,0,0,0-.87,2.7c.18,3.56,3.62,3.64,5.09,3.68Z"/><path class="cls-1" d="M80.43,29a3.33,3.33,0,0,0-3.71,2.9,3.49,3.49,0,0,0,.57,2.71,3.62,3.62,0,0,0,2.55,1.34,3.86,3.86,0,0,0,.58,0c1.78,0,3-1.08,3.52-3.1l0-.15v-.15A3.52,3.52,0,0,0,80.43,29Z"/><path class="cls-1" d="M186.48,29a3.22,3.22,0,0,0-3.65,2.93,3.68,3.68,0,0,0,.67,2.79,3.42,3.42,0,0,0,2.44,1.22l.52,0a3.38,3.38,0,0,0,3.47-3.11l0-.09v-.1A3.42,3.42,0,0,0,186.48,29Z"/></g></g></svg>