<svg xmlns="http://www.w3.org/2000/svg" viewBox="0 0 142.54 157.42"><defs><style>.cls-1{fill:#c88a5e;}</style></defs><g id="Capa_2" data-name="Capa 2"><g id="Capa_1-2" data-name="Capa 1"><path class="cls-1" d="M125.12,57.77a25.71,25.71,0,0,0-4.72,7.32c-1,2-1.92,4.06-3,6-2.12,4-5.33,6.09-10,5.79-1.63-.1-3.28,0-4.91-.09C94.49,76.14,90,79,86.65,88.93c-.66,2-.32,5.32-3.7,4.3-3.14-1-1.56-3.85-1-5.8,2.24-7.24,5.92-13.36,14-15.21,3.62-.83,7.36-.38,11-.19a6.2,6.2,0,0,0,6.38-3.79c2.44-4.82,4.29-10,8.07-14,.79-.86.25-1.41-.3-2.07a55.48,55.48,0,0,0-7.71-7.46c-1-.81-1.63-.76-2.51.2-4.12,4.47-8.9,6.28-14.9,3.86a5.65,5.65,0,0,0-6,1.26,18.6,18.6,0,0,1-5.52,3.25c-7.57,3-13.37,1.69-18.86-4.33a32.43,32.43,0,0,1-3-3.88c-3.14-4.66-3.15-4.73-7.81-1.21-2.12,1.59-4,3.48-6.08,5.16-1.64,1.35-1.83,2.33.21,3.59a34.94,34.94,0,0,1,6.93,6.05A13,13,0,0,1,59.05,72C58,75.73,55.86,79,54.32,82.56a2.43,2.43,0,0,1-4.42-2c.76-1.89,1.69-3.72,2.62-5.54,3.63-7.1,3.2-10.5-2.93-15.56C42.7,53.72,44.16,53.64,40,61a45.4,45.4,0,0,0-5.64,22.37c0,1.91-.21,3.75-2.56,3.7-2.1,0-2.37-1.76-2.41-3.57-.57-26,20.66-50.39,46.62-53.4.3,0,.68,0,.9-.12,1.27-.87,3.76.89,4.12-1.88s-1.33-6.2-3.23-7.22c-.89-.47-1.27,0-1.8.46-5.49,4.89-11.56,5-18,2.24a29.21,29.21,0,0,1-6.46-3.5C48.83,18,46,17.21,42.64,18.23a2.43,2.43,0,0,1-3-1A2.33,2.33,0,0,1,40,14.13C45.2,8.09,50.84,2.61,58.87.54,68.06-1.82,76.69,3.74,78,13.09c.48,3.42,3.59,3.89,5.3,5.88.56.64,5.28-4.07,5.57-5.64C90.46,4.57,96.67-.39,105.51.07a17.62,17.62,0,0,1,7,2,45.38,45.38,0,0,1,14.15,11.62c.9,1.06,1.61,2.2.62,3.57-.83,1.14-1.9,1.24-3.26.87a8.89,8.89,0,0,0-8.1,1.65,30.33,30.33,0,0,1-9.55,4.8c-5.44,1.65-10.6,1.05-14.91-2.89C90,20.29,89.06,20.75,88,22a8.9,8.9,0,0,0-1.36,2c-1.78,3.84-.89,5.5,3.16,6,23,3,40.61,18.53,46.19,40.8.47,1.88,1.95,4.59-1.16,5.42s-3-2.13-3.55-4.11A45.2,45.2,0,0,0,125.12,57.77ZM64.43,38.37c.91,1.53,1.55,2.69,2.27,3.8,5.76,8.85,12,10.07,20.5,3.71a11.39,11.39,0,0,1,11.55-1.52c3,1.14,5.33,0,7.57-1.79,1.22-1,1.55-1.7-.2-2.57C92.55,33.27,78.77,32.7,64.43,38.37Zm7.41-20.13c-2-.86-3.8-1.56-5.53-2.34-1.48-.67-2.79-1.59-2-3.5s2.32-1.62,3.89-1.12S71.15,13,73,12.81c-.75-4.43-3.61-6.33-7.47-7.29C58,3.63,53.36,8.46,48,12.71c5.2,1.95,9.05,5.68,14.11,7.15C65.48,20.85,68.66,20.83,71.84,18.24Zm23.31,0c3.36,2.52,6.54,2.58,9.93,1.54,5-1.53,8.83-5.15,13.79-7.09a34,34,0,0,0-9.22-6.54c-4.07-1.9-8-1.33-11.73.7a6.88,6.88,0,0,0-3.77,6.3c1.9-.76,3.48-1.46,5.1-2s2.9-.33,3.53,1.37-.31,2.54-1.64,3.15C99.3,16.52,97.42,17.3,95.15,18.28Z"/><path class="cls-1" d="M77,135.29c-6,0-12.09,0-18.13,0a7.41,7.41,0,0,0-4.65,1.24c-1.22.91-2.67,1.84-3.32,3.11-.92,1.81,1.33,2.37,2.18,3.44,1.16,1.46,1.32,2.7,0,4q-4.65,4.68-9.34,9.34c-1.85,1.84-3.24.74-4.67-.69Q26.35,143,13.61,130.34c-4-4.06-8.06-8.16-12.18-12.15-1.9-1.83-1.92-3.34,0-5.15,2.75-2.6,5.47-5.25,8-8,2-2.2,3.8-2.16,5.55.13,1.45,1.9,2.59,1.88,4.24.05,2.81-3.11,5.86-6,8.87-8.93A26.83,26.83,0,0,1,66,96.43a6.34,6.34,0,0,0,5.08,2c8.09-.1,16.18,0,24.27,0a9.31,9.31,0,0,1,7.84,3.47c1.25,1.62,1.88,1.08,3,0,5.83-5.9,11.66-11.8,17.61-17.58a10.72,10.72,0,0,1,12.49-1.92,11.05,11.05,0,0,1,6.25,10.74,10.75,10.75,0,0,1-3.2,7.11c-9.55,9.56-19,19.18-28.71,28.63a22.69,22.69,0,0,1-16.12,6.47C88.64,135.34,82.8,135.29,77,135.29Zm-.84-4.93c5.94,0,11.88,0,17.82,0a18,18,0,0,0,12.91-4.86q14.64-14.25,28.92-28.86a6.1,6.1,0,0,0-3.43-10.38c-2.57-.44-4.51.79-6.26,2.54q-9.2,9.27-18.47,18.47a9.71,9.71,0,0,0-2.58,4,9.37,9.37,0,0,1-9.24,6.74c-11.16.06-22.33,0-33.49,0-1.72,0-3.23-.39-3.31-2.33-.09-2.15,1.47-2.62,3.33-2.62q16.13,0,32.26,0c3.84,0,6.13-1.89,6.11-4.94s-2.29-4.87-6.16-4.87c-8.61,0-17.21-.07-25.81,0a6.06,6.06,0,0,1-5-2.18c-8.87-9.89-22.95-10.32-32.46-1.08C28.29,103,25.5,106,22.5,108.75c-1.52,1.41-1.7,2.25-.09,3.82Q33.74,123.63,44.78,135c1.61,1.65,2.49,1.4,3.81-.14,2.86-3.33,6.57-4.6,10.94-4.48C65.06,130.48,70.6,130.36,76.13,130.36ZM47.76,144.93c-.59-.63-1.2-1.31-1.84-2L16.41,113.46c-4.2-4.2-4.07-4.06-8.36-.15-2.14,2-1.66,2.94.14,4.71,9.85,9.68,19.57,19.49,29.34,29.26,4.22,4.22,4.22,4.23,8.5-.14C46.65,146.51,47.51,146,47.76,144.93Z"/></g></g></svg>