<svg xmlns="http://www.w3.org/2000/svg" viewBox="0 0 290.77 267.53"><defs><style>.cls-1{fill:#fff;}.cls-2{fill:#c88a5e;}.cls-3{fill:#6c2910;}.cls-4{fill:#7f7f74;}.cls-5{fill:#fcc467;}.cls-6{fill:#f7a949;}.cls-7{fill:#fdd79e;}.cls-8{fill:#be8a64;}.cls-9{fill:#29151a;}.cls-10{fill:#fdce75;}.cls-11{fill:#c0bd99;}.cls-12{fill:#4b3c32;}.cls-13{fill:#dbd59e;}</style></defs><g id="Capa_2" data-name="Capa 2"><g id="Capa_1-2" data-name="Capa 1"><ellipse class="cls-1" cx="145.38" cy="247.18" rx="145.38" ry="20.35"/><path class="cls-2" d="M98.78,46.83V37.38H92a23.89,23.89,0,0,0-.73-2.67l5.88-3.4-4.72-8.19-5.9,3.41a22.43,22.43,0,0,0-2-2l3.4-5.9L79.8,14l-3.4,5.89a23.48,23.48,0,0,0-2.68-.73V12.33H64.27V19.1a22,22,0,0,0-2.68.72L58.2,14,50,18.68l3.38,5.86a22.89,22.89,0,0,0-2,2l-5.85-3.38-4.73,8.19,5.83,3.36a22.57,22.57,0,0,0-.74,2.71H39.22v9.45h6.7a21.11,21.11,0,0,0,.73,2.73l-5.81,3.35,4.73,8.18,5.81-3.35a23.36,23.36,0,0,0,2,2L50,65.54l8.18,4.72,3.35-5.8a21,21,0,0,0,2.72.73v6.7h9.45V65.18a22.73,22.73,0,0,0,2.72-.74l3.36,5.82L88,65.54l-3.37-5.85a22.89,22.89,0,0,0,2-2l5.86,3.38,4.72-8.18-5.86-3.39A21.71,21.71,0,0,0,92,46.83Zm-12.6-4.68A17.22,17.22,0,1,1,69,24.93,17.23,17.23,0,0,1,86.18,42.15Z"/><path class="cls-3" d="M287.14,219.61v-9.45h-6.78a23.89,23.89,0,0,0-.73-2.67l5.89-3.4-4.73-8.18-5.9,3.4a22.43,22.43,0,0,0-1.95-1.95l3.4-5.9-8.18-4.73-3.4,5.89a23.89,23.89,0,0,0-2.67-.73v-6.78h-9.45v6.77a21.71,21.71,0,0,0-2.69.72l-3.39-5.87-8.18,4.73,3.38,5.86a22.89,22.89,0,0,0-2,2l-5.85-3.37-4.72,8.18,5.82,3.36a25.22,25.22,0,0,0-.74,2.71h-6.71v9.45h6.7a24.91,24.91,0,0,0,.73,2.73l-5.8,3.35,4.72,8.18,5.81-3.35a23.36,23.36,0,0,0,2,2l-3.35,5.81,8.18,4.72,3.35-5.8a22.89,22.89,0,0,0,2.73.74v6.69h9.45V238a22.57,22.57,0,0,0,2.71-.74l3.36,5.82,8.18-4.72L273,232.47a24.54,24.54,0,0,0,2-2l5.85,3.38,4.73-8.18-5.87-3.39a23.65,23.65,0,0,0,.73-2.69Zm-12.59-4.68a17.22,17.22,0,1,1-17.22-17.22A17.25,17.25,0,0,1,274.55,214.93Z"/><path class="cls-4" d="M238.46,39.89V32.34H233a19.28,19.28,0,0,0-.58-2.14l4.7-2.71L233.38,21l-4.71,2.72a19.14,19.14,0,0,0-1.56-1.56l2.72-4.71-6.54-3.77-2.71,4.7a17.32,17.32,0,0,0-2.14-.58V12.33h-7.55v5.4a19.28,19.28,0,0,0-2.14.58L206,13.63,199.5,17.4l2.71,4.68a18,18,0,0,0-1.58,1.57L196,21l-3.77,6.54,4.65,2.69a17.18,17.18,0,0,0-.59,2.16h-5.36v7.55h5.35a19.21,19.21,0,0,0,.58,2.17l-4.63,2.68L196,51.28l4.64-2.68a19.88,19.88,0,0,0,1.59,1.59l-2.68,4.64L206,58.61,208.72,54a17.81,17.81,0,0,0,2.17.59v5.35h7.55V54.55a22.36,22.36,0,0,0,2.17-.59l2.68,4.65,6.54-3.78-2.7-4.67a19.63,19.63,0,0,0,1.58-1.58l4.67,2.7,3.78-6.54L232.48,42a19.41,19.41,0,0,0,.57-2.15Zm-10.07-3.74a13.75,13.75,0,1,1-13.75-13.76A13.77,13.77,0,0,1,228.39,36.15Z"/><path class="cls-3" d="M42.07,118.38c-1-1.26-2-2.69-1.92-4.29S42,111,43.41,111.75a23.48,23.48,0,0,1-9.13-8c-.92-1.37-1.72-3-1.3-4.61s2.64-2.66,3.79-1.47a26.35,26.35,0,0,1-9.84-15.62c-.57-2.8-.21-6.45,2.46-7.45,2.12-.8,4.38.61,6.16,2a92.06,92.06,0,0,1,8.11,7.18c.14-1.89-.57-4,.63-5.51,1-1.25,3-1.24,4.43-.43a10.43,10.43,0,0,1,3.19,3.59l7.54,11.77c.51-1.83-.58-4.34,1-5.35s3.26.89,4.11,2.49a247.06,247.06,0,0,1,13.26,29.29c1.21,3.23,2.36,6.56,2.37,10s-1.23,7-4.07,9c-2.25,1.57-5.79,1.71-8.37.89-2.28-.74-4.36-2.51-6.36-3.78a77.91,77.91,0,0,1-19.35-17.37Z"/><rect class="cls-5" x="20.11" y="228.16" width="69.35" height="12.14"/><rect class="cls-6" x="20.11" y="236.91" width="69.35" height="3.39"/><rect class="cls-6" x="65.84" y="228.16" width="8.95" height="11.01"/><rect class="cls-6" x="57.64" y="228.16" width="3.49" height="11.01"/><rect class="cls-7" x="25.61" y="228.16" width="16.03" height="8.75"/><rect class="cls-7" x="43.35" y="228.16" width="5.5" height="8.75"/><rect class="cls-5" x="15.92" y="216.02" width="69.35" height="12.14"/><rect class="cls-6" x="15.92" y="224.77" width="69.35" height="3.39"/><rect class="cls-6" x="61.66" y="216.02" width="8.95" height="11.01"/><rect class="cls-6" x="53.46" y="216.02" width="3.49" height="11.01"/><rect class="cls-7" x="21.43" y="216.02" width="16.03" height="8.75"/><rect class="cls-7" x="39.17" y="216.02" width="5.5" height="8.75"/><rect class="cls-5" x="20.11" y="203.88" width="69.35" height="12.14"/><rect class="cls-6" x="20.11" y="212.63" width="69.35" height="3.39"/><rect class="cls-6" x="65.84" y="203.88" width="8.95" height="11.01"/><rect class="cls-6" x="57.64" y="203.88" width="3.49" height="11.01"/><rect class="cls-7" x="25.61" y="203.88" width="16.03" height="8.75"/><rect class="cls-7" x="43.35" y="203.88" width="5.5" height="8.75"/><rect class="cls-5" x="16.96" y="191.74" width="69.35" height="12.14"/><rect class="cls-6" x="16.96" y="200.49" width="69.35" height="3.39"/><rect class="cls-6" x="62.69" y="191.74" width="8.95" height="11.01"/><rect class="cls-6" x="54.5" y="191.74" width="3.49" height="11.01"/><rect class="cls-7" x="22.46" y="191.74" width="16.03" height="8.75"/><rect class="cls-7" x="40.21" y="191.74" width="5.5" height="8.75"/><rect class="cls-5" x="19.82" y="179.6" width="69.35" height="12.14"/><rect class="cls-6" x="19.82" y="188.35" width="69.35" height="3.39"/><rect class="cls-6" x="65.56" y="179.6" width="8.95" height="11.01"/><rect class="cls-6" x="57.36" y="179.6" width="3.49" height="11.01"/><rect class="cls-7" x="25.33" y="179.6" width="16.03" height="8.75"/><rect class="cls-7" x="43.07" y="179.6" width="5.5" height="8.75"/><rect class="cls-5" x="15.92" y="167.46" width="69.35" height="12.14"/><rect class="cls-6" x="15.92" y="176.21" width="69.35" height="3.39"/><rect class="cls-6" x="61.66" y="167.46" width="8.95" height="11.01"/><rect class="cls-6" x="53.46" y="167.46" width="3.49" height="11.01"/><rect class="cls-7" x="21.43" y="167.46" width="16.03" height="8.75"/><rect class="cls-7" x="39.17" y="167.46" width="5.5" height="8.75"/><rect class="cls-5" x="21.92" y="155.32" width="69.35" height="12.14"/><rect class="cls-6" x="21.92" y="164.07" width="69.35" height="3.39"/><rect class="cls-6" x="67.66" y="155.32" width="8.95" height="11.01"/><rect class="cls-6" x="59.46" y="155.32" width="3.49" height="11.01"/><rect class="cls-7" x="27.43" y="155.32" width="16.03" height="8.75"/><rect class="cls-7" x="45.17" y="155.32" width="5.5" height="8.75"/><rect class="cls-5" x="18.79" y="143.17" width="69.35" height="12.14"/><rect class="cls-6" x="18.79" y="151.92" width="69.35" height="3.39"/><rect class="cls-6" x="64.52" y="143.17" width="8.95" height="11.01"/><rect class="cls-6" x="56.33" y="143.17" width="3.49" height="11.01"/><rect class="cls-7" x="24.29" y="143.17" width="16.03" height="8.75"/><rect class="cls-7" x="42.04" y="143.17" width="5.5" height="8.75"/><rect class="cls-5" x="21.65" y="131.03" width="69.35" height="12.14"/><rect class="cls-6" x="21.65" y="139.78" width="69.35" height="3.39"/><rect class="cls-6" x="67.39" y="131.03" width="8.95" height="11.01"/><rect class="cls-6" x="59.19" y="131.03" width="3.49" height="11.01"/><rect class="cls-7" x="27.16" y="131.03" width="16.03" height="8.75"/><rect class="cls-7" x="44.9" y="131.03" width="5.5" height="8.75"/><rect class="cls-5" x="16.96" y="118.89" width="69.35" height="12.14"/><rect class="cls-6" x="16.96" y="127.64" width="69.35" height="3.39"/><rect class="cls-6" x="62.69" y="118.89" width="8.95" height="11.01"/><rect class="cls-6" x="54.5" y="118.89" width="3.49" height="11.01"/><rect class="cls-7" x="22.46" y="118.89" width="16.03" height="8.75"/><rect class="cls-7" x="40.21" y="118.89" width="5.5" height="8.75"/><path class="cls-1" d="M51.63,185.06c-1.59-4.3-.56-3.27-4.86-4.87,4.3-1.59,3.27-.56,4.86-4.86,1.6,4.3.57,3.27,4.87,4.86C52.2,181.79,53.23,180.76,51.63,185.06Z"/><path class="cls-1" d="M55.94,175c-1-2.8-.37-2.13-3.16-3.17,2.79-1,2.12-.36,3.16-3.16,1,2.8.37,2.13,3.16,3.16C56.31,172.87,57,172.2,55.94,175Z"/><path class="cls-1" d="M20.11,223.56c-1-2.8-.37-2.13-3.17-3.16,2.8-1,2.13-.37,3.17-3.17,1,2.8.36,2.13,3.16,3.17C20.47,221.43,21.14,220.76,20.11,223.56Z"/><path class="cls-3" d="M220.08,75.47c.93-1.3,2-2.66,3.59-3s3.52.93,3.15,2.49A23.58,23.58,0,0,1,232,64c1.06-1.25,2.43-2.48,4.07-2.51s3.29,1.81,2.47,3.23a26.34,26.34,0,0,1,12.3-13.75c2.53-1.32,6.14-2,7.84.31,1.35,1.81.62,4.38-.23,6.47a94.09,94.09,0,0,1-4.67,9.77c1.85-.38,3.73-1.66,5.46-.91,1.49.64,2,2.58,1.64,4.14a10.47,10.47,0,0,1-2.57,4.06l-9.24,10.49c1.9,0,4-1.75,5.43-.48s0,3.37-1.27,4.63a245.58,245.58,0,0,1-24.5,20.82c-2.77,2-5.65,4.07-9,5s-7.08.75-9.77-1.45c-2.12-1.73-3.23-5.08-3.15-7.8.07-2.39,1.21-4.88,1.88-7.15a77.64,77.64,0,0,1,11.37-23.39Z"/><path class="cls-3" d="M228.12,95c1.31-.92,2.81-1.83,4.4-1.65s3,2.06,2.13,3.4a23.58,23.58,0,0,1,8.54-8.61c1.43-.83,3.12-1.52,4.69-1s2.48,2.81,1.23,3.88a26.33,26.33,0,0,1,16.2-8.84c2.83-.39,6.45.19,7.29,2.92.66,2.16-.89,4.33-2.39,6a90.77,90.77,0,0,1-7.68,7.64c1.87.26,4.07-.31,5.46,1a3.56,3.56,0,0,1,.15,4.45,10.29,10.29,0,0,1-3.78,3l-12.22,6.8c1.79.62,4.37-.31,5.27,1.36s-1.09,3.19-2.74,3.94a246.59,246.59,0,0,1-30.06,11.4c-3.3,1-6.7,2-10.14,1.74s-6.92-1.66-8.71-4.63c-1.42-2.34-1.35-5.88-.36-8.4.87-2.24,2.78-4.2,4.17-6.12A78.12,78.12,0,0,1,228.12,95Z"/><rect class="cls-3" x="267.2" y="154.81" width="9.62" height="15.49"/><polygon class="cls-3" points="261.88 156.33 272.01 146.2 282.14 156.33 261.88 156.33"/><rect class="cls-2" x="103.04" y="8.88" width="9.62" height="15.49"/><polygon class="cls-2" points="97.72 10.41 107.85 0.28 117.98 10.41 97.72 10.41"/><rect class="cls-8" x="17.88" y="101.66" width="7.09" height="11.42"/><polygon class="cls-8" points="13.96 102.78 21.43 95.31 28.9 102.78 13.96 102.78"/><rect class="cls-4" x="169.48" y="6.34" width="7.09" height="11.42"/><polygon class="cls-4" points="165.56 7.47 173.03 0 180.5 7.47 165.56 7.47"/><rect class="cls-3" x="64.68" y="38.49" width="159.05" height="208.26"/><rect class="cls-9" x="73.74" y="49.71" width="140.93" height="191.15"/><rect class="cls-1" x="73.74" y="47.04" width="140.93" height="191.15"/><path class="cls-2" d="M108,120.58h0a36.25,36.25,0,0,1,72.49,0h15.63a51.88,51.88,0,0,0-103.75,0H108Z"/><path class="cls-10" d="M186.66,90.82s9.49,10.93,9.42,29.76H180.45A36.42,36.42,0,0,0,174,100Z"/><path class="cls-4" d="M200.68,121.65H87.73a1.07,1.07,0,1,1,0-2.14h113a1.07,1.07,0,1,1,0,2.14Z"/><path class="cls-4" d="M145.38,121.65a1.05,1.05,0,0,1-.86-.44,1.07,1.07,0,0,1,.24-1.5l55.29-39.86a1.07,1.07,0,0,1,1.25,1.73L146,121.45A1.12,1.12,0,0,1,145.38,121.65Z"/><rect class="cls-11" x="111.72" y="31.1" width="64.98" height="25.56"/><circle class="cls-11" cx="144.41" cy="32.78" r="20.45"/><path class="cls-12" d="M156.26,31.1a12.07,12.07,0,0,0-24.11,0Z"/><rect class="cls-4" x="120.07" y="167.42" width="59.68" height="4.24"/><rect class="cls-4" x="120.07" y="175.95" width="79.96" height="4.24"/><path class="cls-13" d="M97.49,185h0A3.13,3.13,0,0,1,95,183.72l-6.18-8.53a2.14,2.14,0,0,1,3.46-2.51l5.26,7.26,12.21-16.48a2.14,2.14,0,0,1,3.44,2.55L100,183.75A3.12,3.12,0,0,1,97.49,185Z"/><rect class="cls-4" x="120.07" y="135.2" width="59.68" height="4.24"/><rect class="cls-4" x="120.07" y="143.74" width="79.96" height="4.24"/><path class="cls-13" d="M97.49,152.8h0A3.15,3.15,0,0,1,95,151.51L88.78,143a2.14,2.14,0,1,1,3.46-2.51l5.26,7.26,12.21-16.48a2.14,2.14,0,1,1,3.44,2.54L100,151.53A3.13,3.13,0,0,1,97.49,152.8Z"/><rect class="cls-4" x="120.07" y="199.63" width="59.68" height="4.24"/><rect class="cls-4" x="120.07" y="208.17" width="79.96" height="4.24"/><path class="cls-13" d="M97.49,217.23h0A3.15,3.15,0,0,1,95,215.94l-6.18-8.53a2.14,2.14,0,1,1,3.46-2.51l5.26,7.26,12.21-16.48a2.14,2.14,0,1,1,3.44,2.54L100,216A3.1,3.1,0,0,1,97.49,217.23Z"/><rect class="cls-5" x="191.16" y="242.38" width="69.35" height="12.14"/><rect class="cls-6" x="191.16" y="251.13" width="69.35" height="3.39"/><rect class="cls-6" x="236.9" y="242.38" width="8.95" height="11.01"/><rect class="cls-6" x="228.7" y="242.38" width="3.49" height="11.01"/><rect class="cls-7" x="196.67" y="242.38" width="16.03" height="8.75"/><rect class="cls-7" x="214.41" y="242.38" width="5.5" height="8.75"/><rect class="cls-5" x="186.98" y="230.24" width="69.35" height="12.14"/><rect class="cls-6" x="186.98" y="238.99" width="69.35" height="3.39"/><rect class="cls-6" x="232.72" y="230.24" width="8.95" height="11.01"/><rect class="cls-6" x="224.52" y="230.24" width="3.49" height="11.01"/><rect class="cls-7" x="192.48" y="230.24" width="16.03" height="8.75"/><rect class="cls-7" x="210.23" y="230.24" width="5.5" height="8.75"/><rect class="cls-5" x="191.16" y="218.1" width="69.35" height="12.14"/><rect class="cls-6" x="191.16" y="226.85" width="69.35" height="3.39"/><rect class="cls-6" x="236.9" y="218.1" width="8.95" height="11.01"/><rect class="cls-6" x="228.7" y="218.1" width="3.49" height="11.01"/><rect class="cls-7" x="196.67" y="218.1" width="16.03" height="8.75"/><rect class="cls-7" x="214.41" y="218.1" width="5.5" height="8.75"/><rect class="cls-5" x="188.02" y="205.96" width="69.35" height="12.14"/><rect class="cls-6" x="188.02" y="214.71" width="69.35" height="3.39"/><rect class="cls-6" x="233.75" y="205.96" width="8.95" height="11.01"/><rect class="cls-6" x="225.55" y="205.96" width="3.49" height="11.01"/><rect class="cls-7" x="193.52" y="205.96" width="16.03" height="8.75"/><rect class="cls-7" x="211.26" y="205.96" width="5.5" height="8.75"/><rect class="cls-5" x="190.88" y="193.82" width="69.35" height="12.14"/><rect class="cls-6" x="190.88" y="202.57" width="69.35" height="3.39"/><rect class="cls-6" x="236.62" y="193.82" width="8.95" height="11.01"/><rect class="cls-6" x="228.42" y="193.82" width="3.49" height="11.01"/><rect class="cls-7" x="196.38" y="193.82" width="16.03" height="8.75"/><rect class="cls-7" x="214.13" y="193.82" width="5.5" height="8.75"/><rect class="cls-5" x="186.98" y="181.68" width="69.35" height="12.14"/><rect class="cls-6" x="186.98" y="190.43" width="69.35" height="3.39"/><rect class="cls-6" x="232.72" y="181.68" width="8.95" height="11.01"/><rect class="cls-6" x="224.52" y="181.68" width="3.49" height="11.01"/><rect class="cls-7" x="192.48" y="181.68" width="16.03" height="8.75"/><rect class="cls-7" x="210.23" y="181.68" width="5.5" height="8.75"/><rect class="cls-5" x="192.98" y="169.54" width="69.35" height="12.14"/><rect class="cls-6" x="192.98" y="178.29" width="69.35" height="3.39"/><rect class="cls-6" x="238.71" y="169.54" width="8.95" height="11.01"/><rect class="cls-6" x="230.52" y="169.54" width="3.49" height="11.01"/><rect class="cls-7" x="198.48" y="169.54" width="16.03" height="8.75"/><rect class="cls-7" x="216.23" y="169.54" width="5.5" height="8.75"/><circle class="cls-5" cx="224.52" cy="135.16" r="35.89"/><path class="cls-6" d="M224.53,167.07h-.43a31.91,31.91,0,0,1,.41-63.82h.43a31.91,31.91,0,0,1-.41,63.82Zm0-61.93a30,30,0,0,0-.38,60.05,30,30,0,0,0,30.41-29.64h0a30,30,0,0,0-29.63-30.41Z"/><path class="cls-6" d="M222.73,160.19v-3.35l-.73.07a4.45,4.45,0,0,1-.73,0q-4.94,0-7.53-2a7.44,7.44,0,0,1-2.9-5.37,6.28,6.28,0,0,1,.83-3.85,3.85,3.85,0,0,1,3.14-1.94c.37,0,.56.07.58.31a.64.64,0,0,1-.26.52,3.75,3.75,0,0,0-.48,1.05,4.92,4.92,0,0,0-.28,1.27,1.8,1.8,0,0,0,0,.46l0,.39a6.06,6.06,0,0,0,2.76,4.77,11.65,11.65,0,0,0,5.59,1.89l.23-16.65q-2-1-4-2.19a19.22,19.22,0,0,1-3.4-2.55,11.37,11.37,0,0,1-2.3-3.14,9.93,9.93,0,0,1-1-3.5,10.8,10.8,0,0,1,1.18-5.93,12.75,12.75,0,0,1,4.46-4.89,15.68,15.68,0,0,1,5.34-2.14l0-3.1a1,1,0,0,1,.3-.76,1.08,1.08,0,0,1,.64-.31,1.21,1.21,0,0,1,.72.18.73.73,0,0,1,.33.7l-.07,3.12a9.36,9.36,0,0,1,6,1.58q2.44,1.73,2.83,5.89a3.59,3.59,0,0,1-.58,2.58,2.36,2.36,0,0,1-1.58,1,1.42,1.42,0,0,1-1.1-.36,1.93,1.93,0,0,1-.59-1.37l0-.4a1.71,1.71,0,0,1,0-.45,8.17,8.17,0,0,0,0-1.71,6.4,6.4,0,0,0-1.39-3.53,4.44,4.44,0,0,0-3.58-1.5L225,133.48l3.32,1.64a58.15,58.15,0,0,1,5.29,2.86,10.4,10.4,0,0,1,3.06,2.74,7.26,7.26,0,0,1,1.21,3.57,2.37,2.37,0,0,1,0,.46,3.54,3.54,0,0,0,0,.45,9.77,9.77,0,0,1-3.35,7.32q-3.36,3.16-9.8,4.07l-.05,3.42a1,1,0,0,1-.93,1.06,1.1,1.1,0,0,1-.72-.21A.72.72,0,0,1,222.73,160.19Zm.29-27.81.2-17a7.53,7.53,0,0,0-3.34,2.1,10.18,10.18,0,0,0-2.09,3.46,9.1,9.1,0,0,0-.51,4,8.8,8.8,0,0,0,.67,2.62,6.58,6.58,0,0,0,1.61,2.29,12.54,12.54,0,0,0,1.62,1.34C221.76,131.6,222.38,132,223,132.38Zm1.74,22.08.72-.07a16.89,16.89,0,0,0,2.26-.36,9.71,9.71,0,0,0,2-.7,6.8,6.8,0,0,0,2.93-2.28,6,6,0,0,0,1.13-2.61,5.55,5.55,0,0,0,0-1.4,5.45,5.45,0,0,0-1.46-3.28,15.31,15.31,0,0,0-3.26-2.62c-1.31-.81-2.71-1.6-4.2-2.35Z"/><path class="cls-1" d="M245.85,210.75c-1.94-5.24-.69-4-5.93-5.92,5.24-1.94,4-.69,5.93-5.93,1.94,5.24.68,4,5.92,5.93C246.53,206.77,247.79,205.51,245.85,210.75Z"/><path class="cls-1" d="M200.71,137.84c-1.6-4.3-.57-3.27-4.87-4.87,4.3-1.59,3.27-.56,4.87-4.86,1.59,4.3.56,3.27,4.86,4.86C201.27,134.57,202.3,133.54,200.71,137.84Z"/><path class="cls-1" d="M239.75,155.75c-1-2.61-.34-2-2.95-2.95,2.61-1,2-.34,2.95-3,1,2.61.34,2,2.95,3C240.09,153.76,240.72,153.14,239.75,155.75Z"/><path class="cls-1" d="M200,212.56c-1.44-3.88-.51-2.95-4.4-4.39,3.89-1.44,3-.51,4.4-4.4,1.44,3.89.51,3,4.39,4.4C200.52,209.61,201.45,208.68,200,212.56Z"/><path class="cls-1" d="M249.26,218.12c-1.11-3-.39-2.29-3.41-3.41,3-1.12,2.3-.4,3.41-3.42,1.12,3,.4,2.3,3.42,3.42C249.66,215.83,250.38,215.1,249.26,218.12Z"/></g></g></svg>