<svg xmlns="http://www.w3.org/2000/svg" viewBox="0 0 150.25 155.61"><defs><style>.cls-1{fill:#c88a5e;}</style></defs><g id="Capa_2" data-name="Capa 2"><g id="Capa_1-2" data-name="Capa 1"><path class="cls-1" d="M72.15,153.21c-5.49-.65-10.8-2.32-16.13-3.87-6.75-2-13.47-4-20.18-6.06a13.06,13.06,0,0,0-4.33-.63c-3.88.14-4.42.78-3.58,4.48.55,2.44-.26,4.25-2.61,5-3.9,1.23-7.85,2.28-11.81,3.28-2.67.68-4.37-.28-5.17-3.11C5.74,143,3,133.78.32,124.51c-.89-3.1.06-4.73,3.2-5.68,3.51-1.06,7-2,10.59-3,2.06-.54,4.06-.47,5.12,1.78.81,1.7,1.71.58,2.51.18a79.32,79.32,0,0,1,16.64-6.55c8.23-2.05,16.3-.22,24.31,1.39,7.09,1.42,14.08,3.29,21.12,5a.74.74,0,0,1,.3.08C88,120.61,91.57,119,95.23,117a22.93,22.93,0,0,1,6.55-2.16c5.25-1,6.52-.41,8.89,4.34a3.46,3.46,0,0,0,1,1.07c3.49,3,3.73,5.1.54,8.4a46.89,46.89,0,0,1-6.72,5.7q-10.14,7.2-20.48,14.11A25.71,25.71,0,0,1,72.15,153.21ZM46.56,114.16c-9.18.11-16.87,4-24.56,7.87-1.11.55-1,1.46-.7,2.43,1.32,4.52,2.68,9,3.92,13.58.38,1.41,1,2,2.43,1.45,3.55-1.32,7-.58,10.46.46,8.93,2.68,18,5,26.81,8,6.85,2.33,12.76,1,18.43-2.85,7.12-4.84,14.41-9.42,21.19-14.75,1.65-1.3,3.23-2.68,4.77-4.1.58-.53,1.47-1.18,1-2.1-.41-.75-1.33-.89-2.22-1a12.49,12.49,0,0,0-6.35,1.53c-7.58,3.6-14.8,7.87-22,12.08-1.43.83-2.67,1.76-4.2.32C70.59,132.51,65.26,129,58.23,129c-1.29,0-2.33-.7-2.11-2.14s1.29-1.8,2.61-1.64l5.93.74,17.5,2.13c2.1.25,3.87-.36,4.43-2.56s-.79-3.33-2.73-3.88c-1.72-.48-3.44-.91-5.17-1.32C68,117.83,57.36,114.89,46.56,114.16ZM24,147.55a2.47,2.47,0,0,1-.13-.33c-2.57-8.83-5.15-17.65-7.67-26.49-.37-1.33-1-1.23-2.05-.9-2.79.86-5.62,1.6-8.45,2.34-1.33.34-1.93.89-1.48,2.42Q8,137.2,11.61,149.87c.39,1.37.94,2,2.41,1.55,2.91-.85,5.84-1.64,8.75-2.48C23.46,148.74,24.25,148.55,24,147.55Zm82.37-28.38a1.68,1.68,0,0,0-1.69-.88c-4.87.53-9.18,2.67-13.45,4.85-1.24.62-.71,1.66-.46,2.81C95.88,123.13,100.74,120.32,106.4,119.17Z"/><path class="cls-1" d="M42.36,0c15.08,0,26.5,11.37,26.57,26.54C69,40.76,57,52.64,42.45,52.65A26.26,26.26,0,0,1,16,26.61C16,11.34,27.19,0,42.36,0Zm0,48.75C55.22,48.77,65,39,65.08,26,65.14,13.93,54.8,3.69,42.48,3.63A22.6,22.6,0,0,0,19.83,25.88C19.79,38.94,29.43,48.73,42.33,48.75Z"/><path class="cls-1" d="M123.8,52.65a26.25,26.25,0,0,1-26.45-26C97.32,11.35,108.51,0,123.67,0s26.5,11.36,26.58,26.52C150.33,40.76,138.31,52.63,123.8,52.65Zm-.2-3.9c12.91,0,22.65-9.63,22.79-22.66C146.52,14,136.23,3.75,123.87,3.63a22.59,22.59,0,0,0-22.7,22.19C101.13,38.92,110.7,48.71,123.6,48.75Z"/><path class="cls-1" d="M81.92,113.14A25.21,25.21,0,0,1,57.08,87.86c0-13.68,11.56-25.26,25-25.17,14.4.09,25.4,11.11,25.36,25.38S96.45,113.18,81.92,113.14Zm21.81-25.28A21.54,21.54,0,0,0,82.47,66.52c-11.55-.09-21.5,9.65-21.56,21.1a21.41,21.41,0,1,0,42.82.24Z"/><path class="cls-1" d="M51.17,87.19c-9-.29-14.31-5-15.92-14.34-.35-2-.87-3-3-2.66A2.23,2.23,0,0,1,29.55,69c-.5-1.07.2-1.82.78-2.54,2.76-3.44,5.56-6.86,8.33-10.29,1.4-1.74,2.74-1.67,4.12,0q4.15,5.14,8.34,10.27c.62.75,1.17,1.55.73,2.57a2,2,0,0,1-2.35,1.16c-3.29-.54-3,1.39-2.53,3.53.84,3.79,3.49,6.38,6,9,.86.9,2,1.72,1.44,3.2S52.41,87.18,51.17,87.19ZM47.5,82.53a19.1,19.1,0,0,1-4.82-11.72c-.16-2.25-.35-4.55,3-4.6-6.34-8.25-3.88-7.38-9.62-.67a2.73,2.73,0,0,0-.25.76c2.64-.1,2.9,1.56,3,3.68C39,76.94,41.63,80.85,47.5,82.53Z"/><path class="cls-1" d="M113.2,87.2c-1,.07-2.22.12-2.87-1.1-.78-1.48.42-2.33,1.27-3.21,2.77-2.88,5.58-5.68,6.34-9.88.33-1.85.42-3.14-2.07-2.82-1.15.15-2.37.14-3-1.18s.44-2.16,1.12-3c2.55-3.21,5.18-6.33,7.7-9.56,1.55-2,2.94-2.07,4.53-.07,2.67,3.37,5.4,6.69,8.12,10,.69.85,1.27,1.74.7,2.84a2.15,2.15,0,0,1-2.47,1c-2.34-.37-2.86.64-3.15,2.89C128.29,81.9,122.27,87.05,113.2,87.2Zm15.85-20.93c-4.93-7.22-4.93-7.23-9.69-.68a2,2,0,0,0-.18.63c1.08.27,2.55.26,2.71,1.62a18.31,18.31,0,0,1-4.79,14.82c6-1.84,8.47-5.55,8.73-12.22C125.92,68.33,126,66.32,129.05,66.27Z"/><path class="cls-1" d="M42.27,41.2c-4.1,0-8.2-.05-12.29,0-2.06,0-3.07-.87-2.64-2.85.58-2.68-1.13-6,2.91-7.82,1.18-.52.33-3.55.34-5.42s.44-3.48-1.93-4.92c-1.87-1.15-.86-4.11.85-5.43,3.72-2.89,7.72-5.43,11.64-8.06,1.26-.85,2.39-.16,3.46.58,3.29,2.27,6.61,4.48,9.87,6.77,2.93,2.05,3.14,4.45.58,6.93a2,2,0,0,0-.51,1.68c0,2.2,0,4.41,0,6.62,0,.85,0,1.6,1.15,1.86S57,32.6,57.1,33.68c.8,7.79,2,7.62-6.64,7.52C47.73,41.17,45,41.2,42.27,41.2ZM33,16.94H51.82l-8.24-5.7a1.74,1.74,0,0,0-2.27,0C38.77,13,36.19,14.72,33,16.94Zm9.33,20.45H52c.76,0,1.53,0,1.4-1.11-.08-.78-.2-1.43-1.23-1.43q-9.75,0-19.5,0c-1.09,0-1.46.58-1.44,1.58,0,1.18.93.93,1.59.94C36,37.41,39.14,37.39,42.29,37.39Zm8.43-11.27h0c0-1.25,0-2.5,0-3.75s-.51-1.46-1.53-1.4c-.77.05-1.51.1-1.51,1.12,0,2.61,0,5.22,0,7.82,0,1,.75,1.09,1.53,1.1s1.47-.12,1.47-1.13C50.73,28.63,50.72,27.38,50.72,26.12ZM43.83,26c0-1.26,0-2.52,0-3.78,0-.94-.43-1.3-1.34-1.25S40.93,21,40.92,22q-.06,3.93,0,7.86c0,1,.74,1.1,1.54,1.13s1.39-.29,1.38-1.24C43.82,28.52,43.83,27.27,43.83,26Zm-9.37-.52c0,1.19-.07,2.14,0,3.08S34,30.9,35.66,31c2,.06,1.18-1.56,1.31-2.53a7.43,7.43,0,0,0,0-2.82c-.4-1.53,1.23-4.39-1.12-4.39C33,21.21,35.2,24.24,34.46,25.49Z"/><path class="cls-1" d="M123.68,40.58c-4.41,0-8.83-.09-13.24,0-2.36.06-3.51-.71-3.48-3.22.06-7,0-14.07,0-21.11,0-1.43.13-2.94,2-2.9s1.78,1.72,1.79,3c0,6,0,12,0,18,0,1.1-.33,2.39,1.57,2.4s1.46-1.35,1.5-2.4c.06-1.68,0-3.36.07-5,.08-1.13.64-2,2-2s1.78.93,1.8,2.1c0,1.79.09,3.57,0,5.36-.07,1.47.44,2,2,2s2.28-.44,2.2-2.13c-.1-2.52,0-5,0-7.56,0-1.16.34-2.19,1.65-2.27s2.09.92,2.13,2.2c.08,2.52.11,5,0,7.56,0,1.58.37,2.23,2.1,2.21s1.84-.8,1.83-2.14c-.06-3.57,0-7.14,0-10.71,0-1.43,0-2.94,2-2.94s1.83,1.62,1.84,3c0,3.26.13,6.52,0,9.77-.12,2.23.36,3.46,2.87,3a10.39,10.39,0,0,1,1.25,0c1.46-.05,2.63.48,2.56,2-.06,1.38-1.19,1.78-2.51,1.77C132.92,40.55,128.3,40.58,123.68,40.58Z"/><path class="cls-1" d="M134.54,12.46c-.11,1.81.25,4.56-3.72,2.64-1-.5-1.67,1-2.22,1.75-1.8,2.45-3.7,4-6.75,1.86-1-.71-1.74,0-2.38.76-1,1.23-2,2.46-3,3.62a1.79,1.79,0,0,1-2.55.26,1.64,1.64,0,0,1-.36-2.49c1.66-2.15,3.32-4.32,5.16-6.32,1.17-1.28,2.56-.35,3.74.25s2.41.94,3.25-.46c.66-1.09,3-1.73,1-3.7a1.7,1.7,0,0,1,.7-2.66C130.74,6.1,134.47,8.15,134.54,12.46Z"/><path class="cls-1" d="M80.77,93.52c.64-3.15-.37-5.08-3.59-6.12a5.42,5.42,0,0,1-3.71-5.65A7.57,7.57,0,0,1,77.88,75c1.37-.75,2.91-1.08,2.64-3.25-.12-1,.78-1.68,1.9-1.63s1.88.71,1.75,1.78c-.24,2,1.13,2.18,2.42,2.54a11.47,11.47,0,0,1,4.66,2.5,1.83,1.83,0,0,1,.32,2.77c-.73.86-1.6.73-2.55.28-4.81-2.24-4.73-2.22-4.67,3.17a3.46,3.46,0,0,0,2.49,3.7c3.14,1.33,5.57,3.54,5.51,7.31s-2.47,5.88-5.7,7.11c-1.38.53-2,1.19-1.92,2.69a1.81,1.81,0,0,1-2,1.94A1.71,1.71,0,0,1,81,104c.12-1.62-.71-2.08-2.15-2.43a11.87,11.87,0,0,1-5.65-3.27c-.88-.89-1.5-1.87-.38-3a1.85,1.85,0,0,1,2.79.06,6.12,6.12,0,0,0,.48.41c1.34,1,2.81,2.62,4.34,1.79C81.6,97,80.66,94.89,80.77,93.52ZM85,97.66a4.29,4.29,0,0,0,3-2.06,2.56,2.56,0,0,0-.25-3.43c-.65-.8-1.56-1.9-2.5-1.55-1.33.5-.52,2-.55,3A8.56,8.56,0,0,0,85,97.66ZM80.52,84.58c0-1.33.07-2.45,0-3.56-.07-.84.49-2.21-.58-2.42s-2,1.05-2.34,2.09C76.69,83.14,78.27,84,80.52,84.58Z"/></g></g></svg>