<svg xmlns="http://www.w3.org/2000/svg" viewBox="0 0 139.39 139.42"><defs><style>.cls-1{fill:#c98b5f;}</style></defs><g id="Capa_2" data-name="Capa 2"><g id="Capa_1-2" data-name="Capa 1"><path class="cls-1" d="M18,49.54c0-10.34.37-20.07-.12-29.77C17.51,12.82,23.38,6.64,31.32,10c.13-3.2,1-6.07,3.66-8.07A8.84,8.84,0,0,1,40.72,0c5,.14,8,3.38,9,9.9C57.88,7.47,63,11.22,63,19.7v8.14c7.07-1.67,9.32-.79,13.48,5.34,0-8.5,0-16.7,0-24.91,0-5.82,2.39-8.26,8.1-8.26h46.91c5.38,0,7.93,2.53,7.93,7.87q0,14.75,0,29.49c0,5-2.67,7.84-7.64,7.51-3.52-.23-5.7.88-7.48,3.89C122.37,52,120,54.89,117.8,58c-1.55,2.2-3.57,3.38-6.25,2.49s-3.74-2.9-3.66-5.66c.07-2.25-.14-4.51.06-6.74s-.37-3.23-3-3.14C98.51,45.13,92,45,85.58,45c-5.1,0-5.63-.22-9.13-4.17,0,4.08,0,7.88,0,11.68,0,2.17,1.54,1.44,2.56,1.45a33.51,33.51,0,0,1,31.17,21.74c4.58,12.47,2.62,24.11-6.12,34.08-9,10.22-20.43,13.72-33.72,10.49-2.32-.56-3-.41-2.93,2.19.21,5,0,9.93.1,14.89,0,1.53-.36,2.1-2,2.1q-25-.09-50,0c-1.65,0-2-.56-2-2.1.08-5,0-10.11,0-15.17a5.76,5.76,0,0,0-1.27-3.84A57.77,57.77,0,0,1,0,81.81c.05-9.65,0-19.29,0-28.94C0,47,3.76,44,9.57,45.19A18.4,18.4,0,0,1,18,49.54ZM55.44,63c-5.32,0-10.19,0-15,0A31.74,31.74,0,0,0,25.1,67c-3.26,1.78-3.72,4.9-1.18,7.71a29.22,29.22,0,0,1,7.52,17.45c.09,1,.47,2.46-1.44,2.23-1.27-.15-3,.85-3.13-1.82a23.93,23.93,0,0,0-7.16-15.73A5.83,5.83,0,0,1,18,72.32q.11-5.76,0-11.51A11.29,11.29,0,0,0,8.74,49.65c-3-.62-4.21.29-4.22,3.37,0,10.39-.16,20.79.06,31.18A53.12,53.12,0,0,0,15.26,115a4.32,4.32,0,0,0,4,2c13.11-.09,26.22,0,39.33-.07.76,0,1.65.38,2.34-.38C43,104.83,38.86,80.14,55.44,63ZM107.9,87.62a29.21,29.21,0,1,0-29.29,29.27A29.32,29.32,0,0,0,107.9,87.62ZM108,4.51c-7.77,0-15.53,0-23.3,0C81.44,4.53,81,5,81,8.27q0,14.18,0,28.35c0,3.4.45,3.84,3.93,3.84,8.33,0,16.65.09,25-.05,2.15,0,2.7.6,2.6,2.67-.17,3.45-.08,6.92,0,10.38,0,.86-.53,2.14.63,2.47.88.25,1.25-.94,1.73-1.6,2.07-2.88,4.43-5.61,6.12-8.7,2.3-4.21,5.37-5.87,10.17-5.25,3.24.42,3.79-.4,3.79-3.61,0-9.54,0-19.08,0-28.62,0-2.64-.95-3.7-3.63-3.67C123.52,4.58,115.75,4.51,108,4.51ZM40.77,121.4c-6.83,0-13.65.06-20.48,0-1.85,0-2.41.52-2.32,2.35.14,3.08.09,6.17,0,9.25,0,1.42.35,1.95,1.87,1.94q20.61-.08,41.23,0c1.48,0,1.94-.45,1.9-1.91-.1-3-.16-6,0-9,.12-2-.42-2.73-2.59-2.68C53.86,121.5,47.32,121.4,40.77,121.4ZM36,32.84V52.21c0,6.29,0,6.2,6.35,6.29,2,0,2.7-.4,2.68-2.58-.1-15.25-.05-30.5-.06-45.75,0-3.53-1.68-5.62-4.45-5.64S36,6.59,36,10.1C36,17.68,36,25.26,36,32.84ZM22.5,63a68.77,68.77,0,0,1,6.93-2.77c1.71-.48,2.09-1.33,2.08-3-.06-12.71,0-25.42,0-38.13,0-3.53-1.67-5.62-4.43-5.65s-4.53,2.05-4.53,5.55q0,15.42,0,30.84Zm27-25.62V52c0,6.55,0,6.47,6.53,6.52,2,0,2.52-.48,2.5-2.47-.09-12.33,0-24.66,0-37,0-3.46-1.79-5.58-4.57-5.52s-4.39,2.12-4.4,5.67C49.46,25.26,49.47,31.34,49.47,37.41ZM63,57.62c2.81-1,5.23-2.23,7.88-2.76a1.25,1.25,0,0,0,1-1.41c0-6,.11-12-.1-18-.09-2.41-1.85-3.91-4.32-4S63.16,33,63.09,35.35C62.87,42.69,63,50,63,57.62Z"/><path class="cls-1" d="M89.93,80.75c0,.75-.05,1.51,0,2.25.16,1.62-.1,2.52-2.17,2.52s-2.63-.78-2.35-2.61a2.72,2.72,0,0,0,0-.28c.7-10.87-4.51-10.95-11.92-10.71-1.26,0-1.62.49-1.57,1.66.06,1.69,0,3.38,0,5.06a6.82,6.82,0,0,0,6.52,6.78C86,86,89.92,90.33,89.93,97.88c0,2.81,0,5.62,0,8.42,0,1.21-.37,1.71-1.61,1.63s-2.25,0-3.37,0c-2.47-.18-4.6-.28-4.12,3.39.25,1.87-1.61.93-2.54,1.08s-2.1.25-1.84-1.25c.44-2.6-.8-3.61-3.07-4.65-3.85-1.78-5.75-5.21-5.94-9.48-.07-1.49.12-3,0-4.49-.25-2.11.5-2.81,2.62-2.64,1.37.11,2.06.34,2,1.89a44.64,44.64,0,0,0,0,4.77c.14,3.94,2.83,6.89,6.71,6.84,8.46-.13,6.58,1.79,6.7-6.79,0-3.64-2.72-6.28-6.34-6.63-7.78-.73-11.58-4.87-11.59-12.61,0-2.71.06-5.43,0-8.14,0-1.33.4-1.87,1.76-1.76,1.11.08,2.25,0,3.37,0,2.34.15,4.53.37,4-3.25-.31-1.94,1.5-1.11,2.42-1.22s2.32-.25,2,1.4c-.51,2.57.87,3.44,3,4.41C88.18,70.77,89.93,74.58,89.93,80.75Z"/><path class="cls-1" d="M120.45,13c-.44.49-.84,1-1.3,1.44-6.46,6.47-13,12.89-19.36,19.45-1.46,1.51-2.12.86-3.31-.19-1.4-1.24-1-2,.11-3.1,6.52-6.42,13-12.92,19.45-19.36.53-.53,1-1.69,2-1A6.35,6.35,0,0,1,120.45,13Z"/><path class="cls-1" d="M107.91,16.15A6.75,6.75,0,1,1,101.57,9,6.78,6.78,0,0,1,107.91,16.15Zm-6.6-2.63a2.23,2.23,0,0,0-2.32,2,2.18,2.18,0,1,0,4.35.26C103.41,14.5,102.53,13.8,101.31,13.52Z"/><path class="cls-1" d="M107.91,29a6.75,6.75,0,1,1,6.52,7A6.76,6.76,0,0,1,107.91,29Zm6.89-2a2.21,2.21,0,0,0-2.32,2,2.17,2.17,0,1,0,4.34.25C116.9,28,116,27.29,114.8,27Z"/></g></g></svg>