<svg xmlns="http://www.w3.org/2000/svg" xmlns:xlink="http://www.w3.org/1999/xlink" viewBox="0 0 381.04 207.1"><defs><style>.cls-1{fill:none;}.cls-2{isolation:isolate;}.cls-3{fill:#f6f6f6;}.cls-4{fill:#0f2e35;}.cls-5{fill:#f7ad70;}.cls-6{fill:#dbd59e;}.cls-7{fill:#ceb1a0;}.cls-8{fill:#bd9883;}.cls-32,.cls-9{fill:#fff;}.cls-20,.cls-9{mix-blend-mode:soft-light;}.cls-10{clip-path:url(#clip-path);}.cls-11{fill:#041c22;}.cls-12{fill:#7f7f74;}.cls-13{fill:#1d363c;}.cls-14,.cls-23,.cls-35{mix-blend-mode:multiply;}.cls-15{fill:#05708b;}.cls-16{fill:#c0bd99;}.cls-17{fill:#e95314;}.cls-18{fill:#f9be83;}.cls-19{fill:#4b3c32;}.cls-20{fill:#a4a096;}.cls-21{fill:#6c2910;}.cls-22{fill:#a1a08b;}.cls-23{fill:url(#linear-gradient);}.cls-24{fill:#c88a5e;}.cls-25{fill:#fdce75;}.cls-26{fill:#cde2e9;}.cls-27{fill:#b2b095;}.cls-28{fill:#68a9b9;}.cls-29{fill:#fbcda1;}.cls-30{fill:#f49a53;}.cls-31{fill:#010101;}.cls-33{fill:#f9b03b;}.cls-34{fill:#596274;opacity:0.5;}.cls-35{fill:url(#linear-gradient-2);}.cls-36{fill:#898d8f;}.cls-37{fill:#ed6f32;}.cls-38{fill:#313131;}.cls-39{fill:#efe5de;}.cls-40{fill:#2b879d;}</style><clipPath id="clip-path"><circle class="cls-1" cx="183.11" cy="104.46" r="93.34" transform="translate(-20.23 160.07) rotate(-45)"/></clipPath><linearGradient id="linear-gradient" x1="2808.51" y1="1205.59" x2="2776.94" y2="1226.16" gradientTransform="translate(-2751.33 963.36) rotate(-40.56)" gradientUnits="userSpaceOnUse"><stop offset="0" stop-color="#b4b4b4"/><stop offset="0.16" stop-color="#c3c3c3"/><stop offset="0.44" stop-color="#d7d6d6"/><stop offset="0.72" stop-color="#e3e2e2"/><stop offset="1" stop-color="#e7e6e6"/></linearGradient><linearGradient id="linear-gradient-2" x1="98.86" y1="127.73" x2="77.93" y2="141.36" gradientTransform="matrix(1, 0, 0, 1, 0, 0)" xlink:href="#linear-gradient"/></defs><g class="cls-2"><g id="Capa_2" data-name="Capa 2"><g id="Capa_1-2" data-name="Capa 1"><path class="cls-3" d="M271,5.28c-51.19-3-104.87,12.46-97,34.81s-42.18-7.94-62.16.12C97.59,46,103.28,63.42,96.4,70.46c-15.78,16.14-31.92-4.19-52,8s-11.74,126.22-3.56,126.2l309.71-.56,3.7.12s22.71-32.76,2.15-51.88-6.44-27.88-3.94-35.27c2.87-8.49,9.56-23.31-19.61-34.19s-21.63-34.55-20.92-39.45,10.22-35.2-41-38.16Z"/><rect class="cls-4" y="203.48" width="381.04" height="2.17"/><circle class="cls-3" cx="183.11" cy="104.46" r="93.34" transform="translate(-20.23 160.07) rotate(-45)"/><path class="cls-5" d="M283,109a.69.69,0,0,1-.66-.7.68.68,0,1,1,.66.7Z"/><path class="cls-5" d="M282.77,113a.67.67,0,0,1-.62-.72.68.68,0,0,1,.72-.62.67.67,0,0,1-.1,1.34Z"/><path class="cls-5" d="M282.37,117a.66.66,0,0,1-.58-.74.68.68,0,0,1,.75-.59.66.66,0,0,1,.59.74A.69.69,0,0,1,282.37,117Z"/><path class="cls-5" d="M281.82,121a.65.65,0,0,1-.54-.76.66.66,0,0,1,.75-.57.68.68,0,0,1,.58.77A.69.69,0,0,1,281.82,121Z"/><path class="cls-5" d="M281.11,125a.7.7,0,0,1-.54-.79.68.68,0,0,1,.78-.54.69.69,0,0,1,.54.8A.66.66,0,0,1,281.11,125Z"/><path class="cls-5" d="M280.22,128.89a.67.67,0,1,1,.3-1.3.66.66,0,0,1,.5.81A.65.65,0,0,1,280.22,128.89Z"/><path class="cls-5" d="M279.17,132.78a.67.67,0,0,1-.47-.82.67.67,0,0,1,1.3.36A.66.66,0,0,1,279.17,132.78Z"/><path class="cls-5" d="M278,136.63a.66.66,0,0,1-.42-.84.68.68,0,0,1,.85-.43.66.66,0,0,1,.42.84A.67.67,0,0,1,278,136.63Z"/><path class="cls-5" d="M276.63,140.43a.66.66,0,0,1-.39-.86.69.69,0,0,1,.87-.39.65.65,0,0,1,.39.86A.68.68,0,0,1,276.63,140.43Z"/><path class="cls-5" d="M275.13,144.17a.68.68,0,0,1-.36-.88.67.67,0,0,1,.87-.36.68.68,0,0,1,.37.88A.66.66,0,0,1,275.13,144.17Z"/><path class="cls-5" d="M273.47,147.84a.69.69,0,0,1-.33-.89.67.67,0,0,1,.89-.33.69.69,0,0,1,.33.9A.66.66,0,0,1,273.47,147.84Z"/><path class="cls-5" d="M271.66,151.44a.68.68,0,0,1-.29-.91.67.67,0,0,1,1.19.62A.66.66,0,0,1,271.66,151.44Z"/><path class="cls-5" d="M269.71,155a.67.67,0,1,1,.92-.25A.68.68,0,0,1,269.71,155Z"/><path class="cls-5" d="M267.62,158.41a.67.67,0,0,1-.21-.92.7.7,0,0,1,.94-.21.66.66,0,0,1,.2.92A.67.67,0,0,1,267.62,158.41Z"/><path class="cls-5" d="M265.4,161.78a.66.66,0,0,1-.16-.93.68.68,0,0,1,.93-.18.67.67,0,0,1,.18.94A.7.7,0,0,1,265.4,161.78Z"/><path class="cls-5" d="M263.06,165.05a.68.68,0,0,1-.14-.94.66.66,0,0,1,.93-.14.68.68,0,0,1,.15.94A.66.66,0,0,1,263.06,165.05Z"/><path class="cls-5" d="M260.57,168.22a.68.68,0,0,1-.11-.95.67.67,0,1,1,1,.84A.65.65,0,0,1,260.57,168.22Z"/><path class="cls-5" d="M257.94,171.28a.69.69,0,0,1-.06-.95.66.66,0,0,1,.94-.06.67.67,0,1,1-.88,1Z"/><path class="cls-5" d="M255.21,174.24a.67.67,0,0,1,.92-1,.66.66,0,0,1,0,1A.68.68,0,0,1,255.21,174.24Z"/><path class="cls-5" d="M252.36,177.09a.67.67,0,0,1,0-1,.68.68,0,0,1,1,0,.65.65,0,0,1,0,.94A.68.68,0,0,1,252.36,177.09Z"/><path class="cls-5" d="M249.4,179.82a.66.66,0,0,1,.06-.94.69.69,0,0,1,.95.06.65.65,0,0,1,0,.94A.68.68,0,0,1,249.4,179.82Z"/><path class="cls-5" d="M246.34,182.44a.68.68,0,0,1,.09-.94.67.67,0,0,1,.94.08.68.68,0,0,1-.08,1A.66.66,0,0,1,246.34,182.44Z"/><path class="cls-5" d="M243.17,184.93a.69.69,0,0,1,.12-1,.67.67,0,0,1,.82,1.07A.66.66,0,0,1,243.17,184.93Z"/><path class="cls-5" d="M239.9,187.28a.68.68,0,0,1,.16-.94.67.67,0,0,1,.77,1.1A.65.65,0,0,1,239.9,187.28Z"/><path class="cls-5" d="M236.54,189.5a.67.67,0,1,1,.92.2A.66.66,0,0,1,236.54,189.5Z"/><path class="cls-5" d="M233.09,191.59a.67.67,0,0,1,.24-.92.68.68,0,0,1,.92.25.65.65,0,0,1-.24.91A.67.67,0,0,1,233.09,191.59Z"/><path class="cls-5" d="M229.56,193.54a.67.67,0,0,1,.28-.9.7.7,0,0,1,.92.28.65.65,0,0,1-.28.9A.7.7,0,0,1,229.56,193.54Z"/><path class="cls-5" d="M226,195.35a.67.67,0,0,1,.31-.89.66.66,0,0,1,.89.3.68.68,0,0,1-.3.91A.67.67,0,0,1,226,195.35Z"/><path class="cls-5" d="M222.29,197a.69.69,0,0,1,.35-.89.66.66,0,0,1,.88.34.67.67,0,0,1-.35.89A.66.66,0,0,1,222.29,197Z"/><path class="cls-5" d="M218.55,198.5a.68.68,0,0,1,.38-.87.67.67,0,1,1-.38.87Z"/><path class="cls-5" d="M214.75,199.85a.67.67,0,0,1,.42-.85.69.69,0,0,1,.86.42.67.67,0,0,1-.42.85A.68.68,0,0,1,214.75,199.85Z"/><path class="cls-5" d="M210.91,201.05a.66.66,0,0,1,.45-.83.68.68,0,0,1,.84.46.67.67,0,0,1-.46.83A.68.68,0,0,1,210.91,201.05Z"/><path class="cls-5" d="M207,202.09a.65.65,0,0,1,.49-.8.68.68,0,0,1,.81.49.65.65,0,0,1-.48.81A.67.67,0,0,1,207,202.09Z"/><path class="cls-5" d="M203.09,203a.69.69,0,0,1,.52-.8.66.66,0,0,1,.79.51.69.69,0,0,1-.52.81A.66.66,0,0,1,203.09,203Z"/><path class="cls-5" d="M199.12,203.7a.68.68,0,0,1,.55-.78.66.66,0,0,1,.77.55.68.68,0,0,1-.55.78A.67.67,0,0,1,199.12,203.7Z"/><path class="cls-5" d="M195.13,204.25a.68.68,0,0,1,.58-.75.67.67,0,1,1-.58.75Z"/><path class="cls-5" d="M191.12,204.65a.66.66,0,0,1,.61-.72.68.68,0,0,1,.73.62.66.66,0,0,1-.61.72A.68.68,0,0,1,191.12,204.65Z"/><path class="cls-5" d="M187.1,204.9a.66.66,0,0,1,.64-.69.68.68,0,0,1,.7.64.65.65,0,0,1-.64.7A.68.68,0,0,1,187.1,204.9Z"/><path class="cls-5" d="M183.07,205a.69.69,0,0,1,.67-.69.65.65,0,0,1,.67.66.66.66,0,0,1-.66.68A.65.65,0,0,1,183.07,205Z"/><path class="cls-5" d="M179,204.9a.69.69,0,0,1,.7-.66.67.67,0,0,1,.65.69.68.68,0,0,1-.7.66A.67.67,0,0,1,179,204.9Z"/><path class="cls-5" d="M175,204.65a.67.67,0,1,1,1.34.1.66.66,0,0,1-.72.62A.67.67,0,0,1,175,204.65Z"/><path class="cls-5" d="M171,204.25a.67.67,0,0,1,.75-.58.68.68,0,0,1,.59.75.66.66,0,0,1-.75.58A.68.68,0,0,1,171,204.25Z"/><path class="cls-5" d="M167,203.7a.66.66,0,0,1,.77-.55.68.68,0,0,1,.56.76.67.67,0,0,1-.77.57A.68.68,0,0,1,167,203.7Z"/><path class="cls-5" d="M163.06,203a.68.68,0,0,1,.79-.54.66.66,0,0,1,.53.78.68.68,0,0,1-.79.54A.65.65,0,0,1,163.06,203Z"/><path class="cls-5" d="M159.13,202.09a.68.68,0,0,1,.81-.5.67.67,0,0,1,.5.81.68.68,0,0,1-.81.5A.67.67,0,0,1,159.13,202.09Z"/><path class="cls-5" d="M155.24,201.05a.67.67,0,1,1,.46.83A.67.67,0,0,1,155.24,201.05Z"/><path class="cls-5" d="M151.39,199.85a.68.68,0,0,1,.85-.43.69.69,0,0,1,.42.86.66.66,0,0,1-.84.42A.67.67,0,0,1,151.39,199.85Z"/><path class="cls-5" d="M147.59,198.5a.66.66,0,0,1,.86-.38.7.7,0,0,1,.4.87.66.66,0,0,1-.87.39A.7.7,0,0,1,147.59,198.5Z"/><path class="cls-5" d="M143.85,197a.69.69,0,0,1,.88-.36.66.66,0,0,1,.36.87.68.68,0,0,1-.88.37A.66.66,0,0,1,143.85,197Z"/><path class="cls-5" d="M140.18,195.35a.69.69,0,0,1,.89-.33.65.65,0,0,1,.33.88.67.67,0,0,1-.89.34A.66.66,0,0,1,140.18,195.35Z"/><path class="cls-5" d="M136.58,193.54a.67.67,0,1,1,1.2.61.68.68,0,0,1-.91.29A.67.67,0,0,1,136.58,193.54Z"/><path class="cls-5" d="M133.06,191.59a.66.66,0,0,1,.91-.26.69.69,0,0,1,.25.93.67.67,0,0,1-.92.24A.66.66,0,0,1,133.06,191.59Z"/><path class="cls-5" d="M129.61,189.5a.67.67,0,0,1,.92-.21.69.69,0,0,1,.21.93.66.66,0,0,1-.92.21A.67.67,0,0,1,129.61,189.5Z"/><path class="cls-5" d="M126.25,187.28a.66.66,0,0,1,.92-.17.7.7,0,0,1,.18.94.67.67,0,0,1-.94.18A.69.69,0,0,1,126.25,187.28Z"/><path class="cls-5" d="M123,184.93a.7.7,0,0,1,.94-.14.66.66,0,0,1,.15.93.68.68,0,0,1-1,.15A.66.66,0,0,1,123,184.93Z"/><path class="cls-5" d="M119.8,182.44a.7.7,0,0,1,1-.11.67.67,0,0,1,.11.94.68.68,0,0,1-1,.11A.66.66,0,0,1,119.8,182.44Z"/><path class="cls-5" d="M116.74,179.82a.67.67,0,0,1,1,.88.68.68,0,0,1-1,.07A.67.67,0,0,1,116.74,179.82Z"/><path class="cls-5" d="M113.78,177.09a.67.67,0,0,1,1,.92.67.67,0,0,1-1,0A.68.68,0,0,1,113.78,177.09Z"/><path class="cls-5" d="M110.94,174.24a.66.66,0,0,1,.94,0,.68.68,0,0,1,0,1,.66.66,0,0,1-.94,0A.67.67,0,0,1,110.94,174.24Z"/><path class="cls-5" d="M108.2,171.28a.66.66,0,0,1,.94.06.69.69,0,0,1-.06.95.65.65,0,0,1-.94,0A.68.68,0,0,1,108.2,171.28Z"/><path class="cls-5" d="M105.58,168.22a.67.67,0,0,1,.86,1,.69.69,0,0,1-1-.08A.67.67,0,0,1,105.58,168.22Z"/><path class="cls-5" d="M103.09,165.05a.69.69,0,0,1,1,.12.67.67,0,0,1-.12.94.69.69,0,0,1-1-.12A.66.66,0,0,1,103.09,165.05Z"/><path class="cls-5" d="M100.74,161.78a.68.68,0,0,1,.94.16.66.66,0,0,1-.16.93.67.67,0,0,1-.94-.16A.66.66,0,0,1,100.74,161.78Z"/><path class="cls-5" d="M98.52,158.41a.67.67,0,1,1,.73,1.13.66.66,0,0,1-.93-.2A.68.68,0,0,1,98.52,158.41Z"/><path class="cls-5" d="M96.44,155a.66.66,0,0,1,.91.24.67.67,0,1,1-.91-.24Z"/><path class="cls-5" d="M94.49,151.44a.67.67,0,0,1,.9.28.71.71,0,0,1-.29.92.66.66,0,0,1-.9-.28A.69.69,0,0,1,94.49,151.44Z"/><path class="cls-5" d="M92.67,147.84a.67.67,0,0,1,.89.32.66.66,0,0,1-.3.89.69.69,0,0,1-.91-.3A.68.68,0,0,1,92.67,147.84Z"/><path class="cls-5" d="M91,144.17a.7.7,0,0,1,.9.35.67.67,0,0,1-.35.88.69.69,0,0,1-.89-.35A.66.66,0,0,1,91,144.17Z"/><path class="cls-5" d="M89.52,140.43a.68.68,0,0,1,.87.38.67.67,0,0,1-.38.87.68.68,0,0,1-.87-.38A.66.66,0,0,1,89.52,140.43Z"/><path class="cls-5" d="M88.17,136.63a.67.67,0,1,1,.43,1.27.66.66,0,0,1-.85-.42A.67.67,0,0,1,88.17,136.63Z"/><path class="cls-5" d="M87,132.78a.68.68,0,0,1,.83.46.69.69,0,0,1-.47.84.65.65,0,0,1-.82-.46A.67.67,0,0,1,87,132.78Z"/><path class="cls-5" d="M85.93,128.89a.67.67,0,0,1,.8.49.69.69,0,0,1-.49.82.66.66,0,0,1-.81-.49A.68.68,0,0,1,85.93,128.89Z"/><path class="cls-5" d="M85,125a.68.68,0,0,1,.8.51.66.66,0,0,1-.51.8.69.69,0,0,1-.81-.52A.66.66,0,0,1,85,125Z"/><path class="cls-5" d="M84.32,121a.68.68,0,0,1,.78.55.67.67,0,1,1-.78-.55Z"/><path class="cls-5" d="M83.77,117a.67.67,0,1,1-.58.75A.66.66,0,0,1,83.77,117Z"/><path class="cls-5" d="M83.37,113a.67.67,0,0,1,.73.61.69.69,0,0,1-.62.73.67.67,0,0,1-.73-.61A.68.68,0,0,1,83.37,113Z"/><path class="cls-5" d="M83.12,109a.64.64,0,0,1,.69.64.68.68,0,0,1-.64.7.65.65,0,0,1-.7-.64A.68.68,0,0,1,83.12,109Z"/><path class="cls-5" d="M83,105a.69.69,0,0,1,.69.67.65.65,0,0,1-.65.67.68.68,0,0,1-.69-.66A.65.65,0,0,1,83,105Z"/><path class="cls-5" d="M83.12,100.92a.68.68,0,0,1,.66.69.67.67,0,0,1-1.34,0A.66.66,0,0,1,83.12,100.92Z"/><path class="cls-5" d="M83.37,96.9a.67.67,0,1,1-.72.62A.67.67,0,0,1,83.37,96.9Z"/><path class="cls-5" d="M83.77,92.89a.68.68,0,0,1,.59.74.69.69,0,0,1-.76.59.65.65,0,0,1-.58-.74A.68.68,0,0,1,83.77,92.89Z"/><path class="cls-5" d="M84.32,88.9a.66.66,0,0,1,.55.76.67.67,0,0,1-.76.57.67.67,0,1,1,.21-1.33Z"/><path class="cls-5" d="M85,84.93a.69.69,0,0,1,.54.79.67.67,0,0,1-.78.54.7.7,0,0,1-.54-.8A.67.67,0,0,1,85,84.93Z"/><path class="cls-5" d="M85.93,81a.68.68,0,0,1,.5.82.66.66,0,0,1-.8.49.67.67,0,1,1,.3-1.31Z"/><path class="cls-5" d="M87,77.11a.68.68,0,0,1-.37,1.3.66.66,0,0,1-.46-.83A.67.67,0,0,1,87,77.11Z"/><path class="cls-5" d="M88.17,73.27a.66.66,0,0,1,.43.84.69.69,0,0,1-.86.43.66.66,0,0,1-.42-.84A.67.67,0,0,1,88.17,73.27Z"/><path class="cls-5" d="M89.52,69.47a.65.65,0,0,1,.38.86.69.69,0,0,1-.87.39.65.65,0,0,1-.39-.86A.69.69,0,0,1,89.52,69.47Z"/><path class="cls-5" d="M91,65.73a.68.68,0,0,1,.36.88.66.66,0,0,1-.87.36.68.68,0,0,1-.37-.88A.66.66,0,0,1,91,65.73Z"/><path class="cls-5" d="M92.67,62.06A.67.67,0,0,1,93,63a.66.66,0,0,1-.88.33.67.67,0,0,1-.33-.9A.65.65,0,0,1,92.67,62.06Z"/><path class="cls-5" d="M94.49,58.46a.67.67,0,1,1-.62,1.19.67.67,0,1,1,.62-1.19Z"/><path class="cls-5" d="M96.44,54.93a.67.67,0,1,1-.67,1.17.66.66,0,0,1-.25-.92A.68.68,0,0,1,96.44,54.93Z"/><path class="cls-5" d="M98.52,51.49a.66.66,0,0,1,.21.92.69.69,0,0,1-.93.21.66.66,0,0,1-.21-.92A.67.67,0,0,1,98.52,51.49Z"/><path class="cls-5" d="M100.74,48.12a.67.67,0,0,1,.17.93.68.68,0,0,1-.94.17.65.65,0,0,1-.17-.93A.68.68,0,0,1,100.74,48.12Z"/><path class="cls-5" d="M103.09,44.85a.68.68,0,0,1,.14.94.66.66,0,0,1-.93.14.67.67,0,0,1-.15-.94A.66.66,0,0,1,103.09,44.85Z"/><path class="cls-5" d="M105.58,41.68a.68.68,0,0,1,.11,1,.67.67,0,0,1-.94.11.68.68,0,0,1-.11-1A.65.65,0,0,1,105.58,41.68Z"/><path class="cls-5" d="M108.2,38.62a.68.68,0,0,1,.07,1,.67.67,0,0,1-1,.06.68.68,0,0,1-.07-1A.67.67,0,0,1,108.2,38.62Z"/><path class="cls-5" d="M110.94,35.66a.68.68,0,0,1,0,1,.67.67,0,0,1-1-.92A.69.69,0,0,1,110.94,35.66Z"/><path class="cls-5" d="M113.78,32.81a.67.67,0,0,1,0,.95.69.69,0,0,1-1,0,.66.66,0,0,1,0-.94A.68.68,0,0,1,113.78,32.81Z"/><path class="cls-5" d="M116.74,30.08a.66.66,0,0,1-.06.94.69.69,0,0,1-1-.06.66.66,0,0,1,0-.94A.68.68,0,0,1,116.74,30.08Z"/><path class="cls-5" d="M119.8,27.46a.67.67,0,0,1-1,.86.69.69,0,0,1,.08-1A.66.66,0,0,1,119.8,27.46Z"/><path class="cls-5" d="M123,25a.69.69,0,0,1-.12,1,.68.68,0,0,1-.94-.12.69.69,0,0,1,.12-.95A.66.66,0,0,1,123,25Z"/><path class="cls-5" d="M126.25,22.62a.67.67,0,1,1-.94-.16A.66.66,0,0,1,126.25,22.62Z"/><path class="cls-5" d="M129.61,20.4a.67.67,0,0,1-1.13.73.67.67,0,0,1,.2-.93A.68.68,0,0,1,129.61,20.4Z"/><path class="cls-5" d="M133.06,18.31a.67.67,0,0,1-1.17.67.66.66,0,0,1,.24-.91A.68.68,0,0,1,133.06,18.31Z"/><path class="cls-5" d="M136.58,16.36a.66.66,0,0,1-.28.9.7.7,0,0,1-.92-.28.66.66,0,0,1,.28-.9A.68.68,0,0,1,136.58,16.36Z"/><path class="cls-5" d="M140.18,14.55a.67.67,0,0,1-.32.89.66.66,0,0,1-.89-.3.69.69,0,0,1,.31-.91A.67.67,0,0,1,140.18,14.55Z"/><path class="cls-5" d="M143.85,12.89a.68.68,0,0,1-.34.89.65.65,0,0,1-.88-.34.67.67,0,0,1,.34-.89A.65.65,0,0,1,143.85,12.89Z"/><path class="cls-5" d="M147.59,11.4a.68.68,0,0,1-.38.87.67.67,0,0,1-.87-.38.68.68,0,0,1,.39-.87A.65.65,0,0,1,147.59,11.4Z"/><path class="cls-5" d="M151.39,10.05a.67.67,0,1,1-.85-.42A.67.67,0,0,1,151.39,10.05Z"/><path class="cls-5" d="M155.24,8.85a.67.67,0,0,1-.46.83.69.69,0,0,1-.84-.46.68.68,0,0,1,.46-.83A.69.69,0,0,1,155.24,8.85Z"/><path class="cls-5" d="M159.13,7.81a.65.65,0,0,1-.49.8.69.69,0,0,1-.82-.49.65.65,0,0,1,.49-.81A.68.68,0,0,1,159.13,7.81Z"/><path class="cls-5" d="M163.06,6.91a.69.69,0,0,1-.52.8.67.67,0,0,1-.8-.51.7.7,0,0,1,.52-.81A.67.67,0,0,1,163.06,6.91Z"/><path class="cls-5" d="M167,6.2a.67.67,0,0,1-.55.78.66.66,0,0,1-.77-.55.68.68,0,0,1,.55-.78A.66.66,0,0,1,167,6.2Z"/><path class="cls-5" d="M171,5.65a.66.66,0,0,1-.58.75.67.67,0,0,1-.75-.58A.67.67,0,1,1,171,5.65Z"/><path class="cls-5" d="M175,5.25a.66.66,0,0,1-.61.72.69.69,0,0,1-.73-.62.66.66,0,0,1,.61-.72A.67.67,0,0,1,175,5.25Z"/><path class="cls-5" d="M179,5a.66.66,0,0,1-.64.69.68.68,0,0,1-.7-.64.66.66,0,0,1,.64-.7A.67.67,0,0,1,179,5Z"/><path class="cls-5" d="M183.07,4.9a.69.69,0,0,1-.66.69.66.66,0,0,1-.68-.66.67.67,0,0,1,.67-.68A.65.65,0,0,1,183.07,4.9Z"/><path class="cls-5" d="M187.1,5a.68.68,0,0,1-.69.66.67.67,0,0,1-.65-.69.68.68,0,0,1,.69-.66A.66.66,0,0,1,187.1,5Z"/><path class="cls-5" d="M191.12,5.25a.67.67,0,0,1-.72.62.69.69,0,0,1-.62-.72.67.67,0,0,1,1.34.1Z"/><path class="cls-5" d="M195.13,5.65a.66.66,0,0,1-.74.58.68.68,0,0,1-.59-.75.65.65,0,0,1,.74-.58A.67.67,0,0,1,195.13,5.65Z"/><path class="cls-5" d="M199.12,6.2a.66.66,0,0,1-.76.55.67.67,0,0,1,.2-1.33A.68.68,0,0,1,199.12,6.2Z"/><path class="cls-5" d="M203.09,6.91a.7.7,0,0,1-.79.54.66.66,0,0,1-.53-.78.68.68,0,0,1,.79-.54A.65.65,0,0,1,203.09,6.91Z"/><path class="cls-5" d="M207,7.81a.68.68,0,0,1-.81.5.66.66,0,0,1-.5-.81.67.67,0,1,1,1.31.31Z"/><path class="cls-5" d="M210.91,8.85a.67.67,0,1,1-1.3-.36.67.67,0,0,1,.83-.47A.68.68,0,0,1,210.91,8.85Z"/><path class="cls-5" d="M214.75,10.05a.67.67,0,0,1-.84.43.69.69,0,0,1-.43-.86.66.66,0,0,1,.85-.42A.67.67,0,0,1,214.75,10.05Z"/><path class="cls-5" d="M218.55,11.4a.66.66,0,0,1-.86.38.69.69,0,0,1-.39-.87.65.65,0,0,1,.86-.39A.69.69,0,0,1,218.55,11.4Z"/><path class="cls-5" d="M222.29,12.89a.67.67,0,0,1-.87.36.66.66,0,0,1-.37-.87.69.69,0,0,1,.89-.37A.65.65,0,0,1,222.29,12.89Z"/><path class="cls-5" d="M226,14.55a.7.7,0,0,1-.9.33.66.66,0,0,1-.33-.88.69.69,0,0,1,.9-.34A.66.66,0,0,1,226,14.55Z"/><path class="cls-5" d="M229.56,16.36a.67.67,0,1,1-.28-.9A.66.66,0,0,1,229.56,16.36Z"/><path class="cls-5" d="M233.09,18.31a.67.67,0,0,1-.92.25.68.68,0,0,1-.25-.92.67.67,0,0,1,1.17.67Z"/><path class="cls-5" d="M236.54,20.4a.68.68,0,0,1-.93.21.69.69,0,0,1-.21-.93.67.67,0,0,1,.93-.21A.69.69,0,0,1,236.54,20.4Z"/><path class="cls-5" d="M239.9,22.62a.67.67,0,0,1-.93.17.68.68,0,0,1-.17-.94.66.66,0,0,1,.93-.18A.7.7,0,0,1,239.9,22.62Z"/><path class="cls-5" d="M243.17,25a.7.7,0,0,1-.94.14.66.66,0,0,1-.14-.93A.68.68,0,0,1,243,24,.66.66,0,0,1,243.17,25Z"/><path class="cls-5" d="M246.34,27.46a.7.7,0,0,1-1,.11.67.67,0,0,1-.1-.94.68.68,0,0,1,1-.11A.66.66,0,0,1,246.34,27.46Z"/><path class="cls-5" d="M249.4,30.08a.68.68,0,0,1-1,.06.66.66,0,0,1-.06-.94.68.68,0,0,1,1-.07A.67.67,0,0,1,249.4,30.08Z"/><path class="cls-5" d="M252.36,32.81a.68.68,0,0,1-1,0,.68.68,0,1,1,1,0Z"/><path class="cls-5" d="M255.21,35.66a.68.68,0,0,1-1,0,.7.7,0,0,1,0-1,.67.67,0,0,1,.95,0A.68.68,0,0,1,255.21,35.66Z"/><path class="cls-5" d="M257.94,38.62a.66.66,0,0,1-.94-.06.69.69,0,0,1,.06-1,.66.66,0,0,1,.95,0A.69.69,0,0,1,257.94,38.62Z"/><path class="cls-5" d="M260.57,41.68a.69.69,0,0,1-.95-.09.67.67,0,0,1,.08-.94.69.69,0,0,1,1,.08A.67.67,0,0,1,260.57,41.68Z"/><path class="cls-5" d="M263.06,44.85a.69.69,0,0,1-.95-.12.66.66,0,0,1,.12-.94.68.68,0,0,1,.95.12A.67.67,0,0,1,263.06,44.85Z"/><path class="cls-5" d="M265.4,48.12a.68.68,0,0,1-.94-.16.67.67,0,0,1,.16-.93.66.66,0,0,1,.94.16A.65.65,0,0,1,265.4,48.12Z"/><path class="cls-5" d="M267.62,51.49a.67.67,0,1,1-.72-1.13.65.65,0,0,1,.92.2A.67.67,0,0,1,267.62,51.49Z"/><path class="cls-5" d="M269.71,54.93a.67.67,0,0,1-.92-.24.68.68,0,0,1,.25-.92A.66.66,0,0,1,270,54,.67.67,0,0,1,269.71,54.93Z"/><path class="cls-5" d="M271.66,58.46a.66.66,0,0,1-.9-.28.69.69,0,0,1,.29-.92.66.66,0,0,1,.9.28A.69.69,0,0,1,271.66,58.46Z"/><path class="cls-5" d="M273.47,62.06a.67.67,0,0,1-.89-.32.66.66,0,0,1,.3-.89.67.67,0,1,1,.59,1.21Z"/><path class="cls-5" d="M275.13,65.73a.69.69,0,0,1-.89-.35.67.67,0,0,1,.34-.88.68.68,0,0,1,.89.35A.65.65,0,0,1,275.13,65.73Z"/><path class="cls-5" d="M276.63,69.47a.69.69,0,0,1-.88-.38.68.68,0,0,1,.38-.87.67.67,0,1,1,.5,1.25Z"/><path class="cls-5" d="M278,73.27a.67.67,0,0,1-.43-1.27.66.66,0,0,1,.85.41A.68.68,0,0,1,278,73.27Z"/><path class="cls-5" d="M279.17,77.11a.66.66,0,0,1-.83-.45.69.69,0,0,1,.46-.84.66.66,0,0,1,.83.46A.68.68,0,0,1,279.17,77.11Z"/><path class="cls-5" d="M280.22,81a.66.66,0,0,1-.81-.48.69.69,0,0,1,.49-.82.67.67,0,0,1,.82.49A.68.68,0,0,1,280.22,81Z"/><path class="cls-5" d="M281.11,84.93a.69.69,0,0,1-.8-.51.67.67,0,0,1,.51-.8.68.68,0,0,1,.81.52A.65.65,0,0,1,281.11,84.93Z"/><path class="cls-5" d="M281.82,88.9a.69.69,0,0,1-.78-.55.67.67,0,0,1,.55-.77.68.68,0,0,1,.78.55A.66.66,0,0,1,281.82,88.9Z"/><path class="cls-5" d="M282.37,92.89a.67.67,0,1,1,.58-.75A.67.67,0,0,1,282.37,92.89Z"/><path class="cls-5" d="M282.77,96.9a.66.66,0,0,1-.72-.61.69.69,0,0,1,.62-.73.66.66,0,0,1,.72.61A.67.67,0,0,1,282.77,96.9Z"/><path class="cls-5" d="M283,100.92a.66.66,0,0,1-.69-.64.69.69,0,0,1,.64-.7.65.65,0,0,1,.7.64A.68.68,0,0,1,283,100.92Z"/><path class="cls-5" d="M283.12,105a.69.69,0,0,1-.69-.67.66.66,0,0,1,.66-.67.68.68,0,0,1,.69.66A.66.66,0,0,1,283.12,105Z"/><polygon class="cls-6" points="282.75 86.29 264.59 86.29 261.83 49.48 285.51 49.48 282.75 86.29"/><path class="cls-7" d="M286.94,50.75H260.4l.92-2.4v-.72a.77.77,0,0,1,.77-.77h23.16a.76.76,0,0,1,.77.77v.72Z"/><path class="cls-8" d="M261.93,50.75h23.48l-2.66,35.54H264.59l-.09-1.19s13.09-.54,14.57-3.34,2.11-26.41,1.36-26.75-18.33-2-18.33-2Z"/><path class="cls-8" d="M269.7,44H264a.8.8,0,0,0-.78.61l-.58,2.21h8.46l-.58-2.21A.81.81,0,0,0,269.7,44Z"/><path class="cls-9" d="M284.12,48.11H262.34a.5.5,0,0,1-.5-.5h0a.5.5,0,0,1,.5-.51h21.78a.51.51,0,0,1,.5.51h0A.51.51,0,0,1,284.12,48.11Z"/><g class="cls-10"><polygon class="cls-11" points="230.79 157.96 234.94 154.14 236.09 73.76 234.01 70.76 230.79 157.96"/><path class="cls-12" d="M230.76,58.67H186.25a3.43,3.43,0,0,0-3.43,3.44l2.89,99.48a3.44,3.44,0,0,0,3.43,3.44H228.4a3.44,3.44,0,0,0,3.44-3.44l2.36-99.48A3.44,3.44,0,0,0,230.76,58.67Z"/><rect class="cls-11" x="187.54" y="77.03" width="42.26" height="43.21"/><rect class="cls-13" x="190.54" y="83.57" width="36.47" height="24.58"/><g class="cls-14"><path class="cls-15" d="M190.94,124h7.51a1.71,1.71,0,0,1,1.71,1.71v2.68a1.72,1.72,0,0,1-1.72,1.72h-7.51a1.72,1.72,0,0,1-1.72-1.72v-2.68A1.72,1.72,0,0,1,190.94,124Z"/><path class="cls-15" d="M204.75,124h7.51a1.71,1.71,0,0,1,1.71,1.71v2.68a1.72,1.72,0,0,1-1.72,1.72h-7.51a1.72,1.72,0,0,1-1.72-1.72v-2.68A1.72,1.72,0,0,1,204.75,124Z"/><path class="cls-15" d="M218.56,124h7.51a1.71,1.71,0,0,1,1.71,1.71v2.68a1.72,1.72,0,0,1-1.72,1.72h-7.51a1.71,1.71,0,0,1-1.71-1.71v-2.68A1.72,1.72,0,0,1,218.56,124Z"/><path class="cls-15" d="M190.94,132.76h7.51a1.71,1.71,0,0,1,1.71,1.71v2.68a1.72,1.72,0,0,1-1.72,1.72h-7.51a1.72,1.72,0,0,1-1.72-1.72v-2.68A1.72,1.72,0,0,1,190.94,132.76Z"/><path class="cls-15" d="M204.75,132.76h7.51a1.71,1.71,0,0,1,1.71,1.71v2.68a1.72,1.72,0,0,1-1.72,1.72h-7.51a1.72,1.72,0,0,1-1.72-1.72v-2.68A1.72,1.72,0,0,1,204.75,132.76Z"/><path class="cls-15" d="M218.56,132.76h7.51a1.71,1.71,0,0,1,1.71,1.71v2.68a1.72,1.72,0,0,1-1.72,1.72h-7.51a1.71,1.71,0,0,1-1.71-1.71v-2.68A1.72,1.72,0,0,1,218.56,132.76Z"/><path class="cls-15" d="M190.94,141.55h7.51a1.71,1.71,0,0,1,1.71,1.71v2.68a1.72,1.72,0,0,1-1.72,1.72h-7.51a1.72,1.72,0,0,1-1.72-1.72v-2.68A1.72,1.72,0,0,1,190.94,141.55Z"/><path class="cls-15" d="M204.75,141.55h7.51a1.71,1.71,0,0,1,1.71,1.71v2.68a1.72,1.72,0,0,1-1.72,1.72h-7.51a1.72,1.72,0,0,1-1.72-1.72v-2.68A1.72,1.72,0,0,1,204.75,141.55Z"/><path class="cls-15" d="M218.56,141.55h7.51a1.71,1.71,0,0,1,1.71,1.71v2.68a1.72,1.72,0,0,1-1.72,1.72h-7.51a1.71,1.71,0,0,1-1.71-1.71v-2.68A1.72,1.72,0,0,1,218.56,141.55Z"/><path class="cls-15" d="M190.94,150.62h7.51a1.71,1.71,0,0,1,1.71,1.71V155a1.71,1.71,0,0,1-1.71,1.71h-7.51a1.72,1.72,0,0,1-1.72-1.72v-2.68A1.71,1.71,0,0,1,190.94,150.62Z"/><path class="cls-15" d="M204.75,150.62h7.51a1.71,1.71,0,0,1,1.71,1.71V155a1.71,1.71,0,0,1-1.71,1.71h-7.51A1.72,1.72,0,0,1,203,155v-2.68A1.71,1.71,0,0,1,204.75,150.62Z"/><rect class="cls-15" x="216.85" y="150.62" width="10.94" height="6.11" rx="1.71"/></g><path class="cls-11" d="M190.75,123.67h7.51a1.71,1.71,0,0,1,1.71,1.71v2.68a1.72,1.72,0,0,1-1.72,1.72h-7.51a1.72,1.72,0,0,1-1.72-1.72v-2.68A1.72,1.72,0,0,1,190.75,123.67Z"/><path class="cls-16" d="M197,114.23c-.49-.81-1.07-1.61-1.93-1.61H190.6a1.65,1.65,0,0,0-1.56,1.72V117a1.65,1.65,0,0,0,1.56,1.72h6.85c.86,0,1.29-.88,1-1.77A15.64,15.64,0,0,0,197,114.23Z"/><path class="cls-16" d="M214.91,112.62h-3.5c-.67,0-1.13.8-1.52,1.61a18.2,18.2,0,0,0-1.13,2.74c-.25.89.08,1.77.76,1.77h5.39c.68,0,1.24-.77,1.24-1.72v-2.68C216.15,113.39,215.59,112.62,214.91,112.62Z"/><path class="cls-16" d="M208,112.62h-5.29c-.67,0-1.21.77-1.21,1.72V117c0,1,.54,1.72,1.21,1.72h3.43c.67,0,1.11-.8,1.49-1.61a17.64,17.64,0,0,0,1.12-2.74C209,113.5,208.64,112.62,208,112.62Z"/><path class="cls-16" d="M226.73,112.62h-6.84c-.87,0-1.3.88-1,1.77a16.1,16.1,0,0,0,1.45,2.74c.49.81,1.07,1.61,1.93,1.61h4.44A1.65,1.65,0,0,0,228.3,117v-2.68A1.65,1.65,0,0,0,226.73,112.62Z"/><path class="cls-11" d="M204.57,123.67h7.51a1.71,1.71,0,0,1,1.71,1.71v2.68a1.72,1.72,0,0,1-1.72,1.72h-7.51a1.72,1.72,0,0,1-1.72-1.72v-2.68A1.72,1.72,0,0,1,204.57,123.67Z"/><path class="cls-11" d="M218.38,123.67h7.51a1.72,1.72,0,0,1,1.72,1.72v2.68a1.71,1.71,0,0,1-1.71,1.71h-7.51a1.72,1.72,0,0,1-1.72-1.72v-2.68A1.72,1.72,0,0,1,218.38,123.67Z"/><path class="cls-11" d="M190.75,132.47h7.51a1.71,1.71,0,0,1,1.71,1.71v2.68a1.72,1.72,0,0,1-1.72,1.72h-7.51a1.72,1.72,0,0,1-1.72-1.72v-2.68A1.72,1.72,0,0,1,190.75,132.47Z"/><path class="cls-11" d="M204.57,132.47h7.51a1.71,1.71,0,0,1,1.71,1.71v2.68a1.72,1.72,0,0,1-1.72,1.72h-7.51a1.72,1.72,0,0,1-1.72-1.72v-2.68A1.72,1.72,0,0,1,204.57,132.47Z"/><path class="cls-11" d="M218.38,132.47h7.51a1.71,1.71,0,0,1,1.71,1.71v2.68a1.72,1.72,0,0,1-1.72,1.72h-7.51a1.72,1.72,0,0,1-1.72-1.72v-2.68A1.72,1.72,0,0,1,218.38,132.47Z"/><path class="cls-11" d="M190.75,141.26h7.51A1.71,1.71,0,0,1,200,143v2.68a1.72,1.72,0,0,1-1.72,1.72h-7.51a1.72,1.72,0,0,1-1.72-1.72V143A1.72,1.72,0,0,1,190.75,141.26Z"/><path class="cls-11" d="M204.57,141.26h7.51a1.71,1.71,0,0,1,1.71,1.71v2.68a1.72,1.72,0,0,1-1.72,1.72h-7.51a1.72,1.72,0,0,1-1.72-1.72V143A1.72,1.72,0,0,1,204.57,141.26Z"/><path class="cls-11" d="M218.38,141.26h7.51A1.71,1.71,0,0,1,227.6,143v2.68a1.72,1.72,0,0,1-1.72,1.72h-7.51a1.72,1.72,0,0,1-1.72-1.72V143A1.72,1.72,0,0,1,218.38,141.26Z"/><path class="cls-17" d="M190.76,150.33h7.51A1.71,1.71,0,0,1,200,152v2.68a1.72,1.72,0,0,1-1.72,1.72h-7.51a1.72,1.72,0,0,1-1.72-1.72V152A1.72,1.72,0,0,1,190.76,150.33Z"/><path class="cls-18" d="M204.57,150.33h7.51a1.71,1.71,0,0,1,1.71,1.71v2.68a1.72,1.72,0,0,1-1.72,1.72h-7.51a1.72,1.72,0,0,1-1.72-1.72V152A1.72,1.72,0,0,1,204.57,150.33Z"/><path class="cls-15" d="M218.38,150.33h7.51A1.71,1.71,0,0,1,227.6,152v2.68a1.72,1.72,0,0,1-1.72,1.72h-7.51a1.72,1.72,0,0,1-1.72-1.72V152A1.72,1.72,0,0,1,218.38,150.33Z"/><rect class="cls-15" x="195.48" y="113.45" width="80.52" height="0.86" transform="translate(119.44 348.44) rotate(-89.41)"/><polygon class="cls-19" points="191.19 160.78 189.12 165.03 228.2 165.03 226.58 160.78 191.19 160.78"/><rect class="cls-16" x="187.78" y="62.39" width="41.45" height="12.73" rx="1.63"/><path class="cls-20" d="M187.54,108.12l1.33,0c22.6,0,40.92-13.65,40.92-30.49,0-.21,0-.42,0-.63H187.54Z"/><path class="cls-18" d="M139.47,68.52s-11.59,26.23-12.39,38.35,6.79,32.35,6.79,32.35h24s5.46-20.5,4.4-24-11-42.47-12.42-42.74S139.47,68.52,139.47,68.52Z"/><path class="cls-5" d="M135.47,83.22s.61,12.55,2.64,17,5,5.07,6.65,3.94S150.19,89,150.19,89Z"/><path class="cls-5" d="M148.73,92.65l14.72,10.56a5.08,5.08,0,0,0,7.06-1.17h0A5.08,5.08,0,0,0,169.35,95L154.63,84.43a5.08,5.08,0,0,0-7.06,1.16h0A5.08,5.08,0,0,0,148.73,92.65Z"/><path class="cls-5" d="M151.93,83.86l14.71,10.56a5.08,5.08,0,0,0,7.06-1.16h0a5.07,5.07,0,0,0-1.16-7.06L157.83,75.64a5.08,5.08,0,0,0-7.06,1.16h0A5.08,5.08,0,0,0,151.93,83.86Z"/><polygon class="cls-18" points="157.55 195.21 127.37 195.21 132.24 132.16 159.41 132.16 157.55 195.21"/><rect class="cls-21" x="130.74" y="51.12" width="61.56" height="35.78" rx="1.99" transform="translate(-6.07 121.61) rotate(-40.56)"/><path class="cls-22" d="M171.75,36.7,128,74.14a2,2,0,0,0-.68,1.74,1.93,1.93,0,0,1,.62-1l43.74-37.44a2,2,0,0,1,2.8.22l20.68,24.16a2,2,0,0,1,.47,1.07,2,2,0,0,0-.4-1.85L174.56,36.92A2,2,0,0,0,171.75,36.7Z"/><path class="cls-23" d="M151.35,100.54a2,2,0,0,1-2.81-.22L127.87,76.16a1.92,1.92,0,0,1-.47-1.07,2,2,0,0,0,.4,1.86l20.67,24.15a2,2,0,0,0,2.81.22L195,63.89a2,2,0,0,0,.68-1.74,2,2,0,0,1-.61,1Z"/><path class="cls-24" d="M127.8,77l20.67,24.15a2,2,0,0,0,1.11.65,48,48,0,0,0,5.61-50.87L128,74.14A2,2,0,0,0,127.8,77Z"/><path class="cls-25" d="M168.67,54.59a1.46,1.46,0,1,1,.16-2.06A1.46,1.46,0,0,1,168.67,54.59Z"/><path class="cls-25" d="M172.19,49.66A4.69,4.69,0,0,0,167.91,48a1.1,1.1,0,0,0-.86,1.28,1.13,1.13,0,0,0,.24.49,1.09,1.09,0,0,0,1,.36,2.67,2.67,0,0,1,2.78,3.27,1.11,1.11,0,0,0,.2,1.07,1.21,1.21,0,0,0,.45.31,1.09,1.09,0,0,0,1.4-.65A4.69,4.69,0,0,0,172.19,49.66Z"/><path class="cls-25" d="M175.75,46.61a8.22,8.22,0,0,0-7.53-2.93,1.08,1.08,0,0,0-.85,1.26,1,1,0,0,0,.24.5,1.1,1.1,0,0,0,1,.37,6.41,6.41,0,0,1,6.81,7.95,1.08,1.08,0,0,0,.19,1.07,1.09,1.09,0,0,0,1.85-.33A8.25,8.25,0,0,0,175.75,46.61Z"/><path class="cls-26" d="M143.84,89.57c-.82-1-.92-1.77-.35-2.26s1.36-.27,2.18.69.93,1.78.36,2.27S144.66,90.52,143.84,89.57Zm1.47-1.26c-.72-.84-1.23-1-1.56-.71s-.27.82.45,1.66,1.24,1,1.58.71S146,89.14,145.31,88.31Z"/><path class="cls-26" d="M147.19,88.66l.65-.56L146,86l-.52.44-.2-.24a2.12,2.12,0,0,0,.42-.72l.29-.24,2.18,2.55.59-.51.26.3L147.45,89Z"/><path class="cls-26" d="M148.29,85.76c-.82-1-.92-1.77-.34-2.26s1.35-.27,2.17.69.93,1.78.36,2.27S149.11,86.71,148.29,85.76Zm1.47-1.26c-.71-.84-1.23-1-1.56-.71s-.27.82.45,1.66,1.24,1,1.58.71S150.48,85.33,149.76,84.5Z"/><path class="cls-26" d="M150.52,83.85c-.82-1-.92-1.77-.35-2.26s1.36-.26,2.18.69.93,1.79.36,2.27S151.34,84.81,150.52,83.85ZM152,82.59c-.72-.84-1.23-1-1.56-.7s-.27.82.44,1.65,1.25,1,1.59.72S152.7,83.43,152,82.59Z"/><path class="cls-26" d="M155.57,81.49l.65-.56-1.8-2.1-.52.44-.2-.24a2.12,2.12,0,0,0,.42-.72l.28-.24,2.19,2.55.59-.51.26.3-1.61,1.38Z"/><path class="cls-26" d="M157.79,79.58l.66-.56-1.8-2.1-.52.45-.21-.24a2.2,2.2,0,0,0,.43-.73l.28-.24,2.18,2.55.59-.5.26.3-1.61,1.38Z"/><path class="cls-26" d="M160,77.68l.65-.56-1.8-2.1-.52.44-.2-.24a2.12,2.12,0,0,0,.42-.72l.29-.24L161,76.81l.59-.51.26.3L160.28,78Z"/><path class="cls-26" d="M162.24,75.77l.66-.56-1.8-2.1-.52.45-.2-.24a2.33,2.33,0,0,0,.42-.73l.28-.24,2.19,2.55.59-.51.26.31-1.61,1.38Z"/><path class="cls-26" d="M165.05,71.42c-.82-1-.92-1.77-.35-2.26s1.36-.27,2.18.69.93,1.78.36,2.27S165.87,72.37,165.05,71.42Zm1.47-1.26c-.72-.84-1.23-1-1.56-.71s-.27.82.44,1.66,1.25,1,1.58.71S167.23,71,166.52,70.16Z"/><path class="cls-26" d="M167.27,69.51c-.82-1-.91-1.77-.34-2.26s1.35-.26,2.17.69.93,1.79.36,2.27S168.09,70.47,167.27,69.51Zm1.47-1.26c-.71-.84-1.23-1-1.56-.7s-.27.82.45,1.65,1.25,1,1.58.72S169.46,69.09,168.74,68.25Z"/><path class="cls-26" d="M170.62,68.6l.66-.56-1.8-2.1-.52.44-.21-.23a2.2,2.2,0,0,0,.43-.73l.28-.24,2.18,2.55.59-.51.26.31-1.61,1.38Z"/><path class="cls-26" d="M171.72,65.7c-.82-1-.91-1.77-.34-2.26s1.35-.26,2.17.69.93,1.79.37,2.27S172.54,66.66,171.72,65.7Zm1.48-1.26c-.72-.84-1.23-1-1.57-.7s-.26.82.45,1.65,1.25,1,1.58.72S173.91,65.28,173.2,64.44Z"/><path class="cls-26" d="M176.77,63.34l.66-.56-1.8-2.1-.52.44-.21-.24a2.16,2.16,0,0,0,.43-.72l.28-.25,2.18,2.55.59-.5.26.3L177,63.64Z"/><path class="cls-26" d="M177.87,60.43c-.81-1-.91-1.76-.34-2.25s1.35-.27,2.17.69.93,1.78.37,2.27S178.69,61.39,177.87,60.43Zm1.48-1.26c-.72-.83-1.23-1-1.57-.7s-.26.82.45,1.66,1.25,1,1.58.71S180.06,60,179.35,59.17Z"/><path class="cls-26" d="M181.23,59.53l.65-.56-1.8-2.11-.52.45-.2-.24a2.15,2.15,0,0,0,.42-.73l.28-.24,2.19,2.55.59-.5.26.3-1.61,1.38Z"/><path class="cls-26" d="M182.33,56.62c-.82-.95-.92-1.76-.35-2.25s1.36-.27,2.18.69.93,1.78.36,2.27S183.15,57.58,182.33,56.62Zm1.47-1.26c-.72-.83-1.23-1-1.56-.7s-.27.82.44,1.66,1.25,1,1.59.71S184.51,56.2,183.8,55.36Z"/><path class="cls-26" d="M160.07,85.46c-.45-.52-.5-1-.19-1.23s.74-.15,1.18.38.51,1,.2,1.23S160.51,86,160.07,85.46Zm.8-.69c-.39-.45-.67-.53-.85-.38s-.15.45.24.9.68.55.86.39S161.26,85.23,160.87,84.77Z"/><path class="cls-26" d="M161.89,85l.36-.3-1-1.15-.29.25-.11-.13a1.62,1.62,0,0,0,.24-.4l.15-.13,1.19,1.39.32-.28.14.17-.88.75Z"/><path class="cls-26" d="M162.25,82l.14-.13,1.17,2.68-.15.12Z"/><path class="cls-26" d="M164,83.19l.35-.3-1-1.14-.28.24-.11-.13a1.2,1.2,0,0,0,.23-.4l.16-.13,1.18,1.39.33-.28.14.17-.88.75Z"/><path class="cls-26" d="M165.13,82a.45.45,0,0,0,.37-.09c.21-.19.25-.52-.16-1a.63.63,0,0,1-.2.51.55.55,0,0,1-.85-.1.62.62,0,0,1,0-.89c.31-.26.75-.21,1.18.29s.45,1.1.14,1.37a.65.65,0,0,1-.51.16Zm.07-1.26c-.29-.28-.55-.34-.74-.17s-.16.36,0,.57a.37.37,0,0,0,.57.08A.55.55,0,0,0,165.2,80.76Z"/><rect class="cls-27" x="175.88" y="63.99" width="13.7" height="4.51" rx="0.81" transform="translate(0.83 134.73) rotate(-40.56)"/><rect class="cls-28" x="157.08" y="85.7" width="2.55" height="2.42" rx="0.26" transform="translate(-18.46 123.84) rotate(-40.56)"/><path class="cls-18" d="M158.77,133.5s6.39-11.46,6.39-18.65S159,97.22,158.77,92c-.15-3,.68-9-.27-13.6s-3.07-6.7-5.44-6.7c-2.21,0-4.16,2.63-4.75,6.85-.69,4.93.51,9.69.34,12.39-.38,6.37-5.59,14.38-6.12,23.43s1.86,17.58,4,17.58S153.45,138.29,158.77,133.5Z"/><rect class="cls-29" x="149.84" y="71.21" width="7.22" height="9.59" rx="2.5"/><path class="cls-30" d="M150.37,86.87a6.07,6.07,0,0,1,3.19-.7,5.56,5.56,0,0,1,3,1,11.61,11.61,0,0,0-6.22-.31Z"/><path class="cls-30" d="M150.32,87.86a6.07,6.07,0,0,1,3.19-.7,5.61,5.61,0,0,1,3,1,9.17,9.17,0,0,0-3.09-.58A9.31,9.31,0,0,0,150.32,87.86Z"/><path class="cls-5" d="M165.16,114.87c0-.31,0-.63,0-1l-.14,0s-2.17,11.77-8.25,16.43-13.34,3.94-13.9,5.53,12.08,2.22,12.23,4.38-4.71,53.37-4.87,55h7.36l1.85-62.61C161,129.47,165.16,120.76,165.16,114.87Z"/></g><path class="cls-22" d="M100.78,154.13l12.46-16.84a1.31,1.31,0,0,0-.27-1.84l-30.5-22.56a1.31,1.31,0,0,0-1.83.27L68.17,130a1.31,1.31,0,0,0,.28,1.83L99,154.41A1.3,1.3,0,0,0,100.78,154.13Z"/><rect class="cls-31" x="91.85" y="108.46" width="4.98" height="40.56" transform="translate(-65.27 128.01) rotate(-53.5)"/><rect class="cls-32" x="83.57" y="121.18" width="4.13" height="19.85" transform="translate(-70.69 121.98) rotate(-53.51)"/><polygon class="cls-33" points="94.61 135.66 78.65 123.86 78.34 124.28 94.3 136.09 94.61 135.66"/><rect class="cls-33" x="85.66" y="120.8" width="0.52" height="19.85" transform="translate(-70.28 122.05) rotate(-53.51)"/><rect class="cls-33" x="85.1" y="121.56" width="0.52" height="19.85" transform="translate(-71.11 121.91) rotate(-53.51)"/><rect class="cls-33" x="84.54" y="122.31" width="0.52" height="19.85" transform="translate(-71.94 121.75) rotate(-53.5)"/><rect class="cls-32" x="93.63" y="136.16" width="3.34" height="4.2" transform="translate(-72.52 132.51) rotate(-53.46)"/><rect class="cls-34" x="88.88" y="133.8" width="1.88" height="0.78" transform="translate(-71.47 126.37) rotate(-53.43)"/><polygon class="cls-34" points="90.91 133.84 89.79 135.34 90.42 135.81 91.54 134.3 90.91 133.84"/><polygon class="cls-34" points="92.44 134.97 91.81 134.51 90.7 136.01 91.33 136.48 92.44 134.97"/><rect class="cls-34" x="91.54" y="135.77" width="1.88" height="0.79" transform="matrix(0.59, -0.8, 0.8, 0.59, -71.99, 129.7)"/><rect class="cls-34" x="93.83" y="137.34" width="1.41" height="0.68" transform="translate(-72.37 131.57) rotate(-53.43)"/><rect class="cls-34" x="94.62" y="137.93" width="1.41" height="0.68" transform="translate(-72.52 132.58) rotate(-53.48)"/><rect class="cls-34" x="95.41" y="138.51" width="1.41" height="0.68" transform="matrix(0.6, -0.8, 0.8, 0.6, -72.67, 133.31)"/><polygon class="cls-32" points="94.44 141.69 81.94 132.44 81.67 132.81 94.17 142.05 94.44 141.69"/><polygon class="cls-32" points="93.76 142.59 81.26 133.35 80.99 133.71 93.49 142.96 93.76 142.59"/><polygon class="cls-32" points="93.08 143.5 80.59 134.25 80.32 134.62 92.81 143.87 93.08 143.5"/><polygon class="cls-32" points="92.41 144.41 79.91 135.16 79.64 135.53 92.14 144.77 92.41 144.41"/><rect class="cls-25" x="94.97" y="144.65" width="7.04" height="4.83" transform="translate(-78.31 138.71) rotate(-53.48)"/><rect class="cls-21" x="69.27" y="121.84" width="40.82" height="23.73" rx="1.32"/><path class="cls-22" d="M108.77,121.84H70.59a1.29,1.29,0,0,0-1.09.59,1.25,1.25,0,0,1,.72-.22H108.4a1.32,1.32,0,0,1,1.32,1.32v21.09a1.3,1.3,0,0,1-.23.74,1.34,1.34,0,0,0,.6-1.11V123.17A1.33,1.33,0,0,0,108.77,121.84Z"/><path class="cls-35" d="M71,145.21a1.32,1.32,0,0,1-1.32-1.32V122.8a1.35,1.35,0,0,1,.23-.74,1.33,1.33,0,0,0-.6,1.11v21.08a1.32,1.32,0,0,0,1.32,1.32h38.18a1.3,1.3,0,0,0,1.09-.58,1.25,1.25,0,0,1-.72.22Z"/><path class="cls-24" d="M69.27,123.17v21.08a1.29,1.29,0,0,0,.28.8,31.79,31.79,0,0,0,24.76-23.21H70.59A1.33,1.33,0,0,0,69.27,123.17Z"/><path class="cls-25" d="M99.5,129.53a1,1,0,1,1,1-1A1,1,0,0,1,99.5,129.53Z"/><path class="cls-25" d="M103.4,128.56a3.13,3.13,0,0,0-1.44-2.68.72.72,0,0,0-1,.28.64.64,0,0,0-.1.35.71.71,0,0,0,.37.63,1.77,1.77,0,0,1,0,2.84.74.74,0,0,0-.36.63.64.64,0,0,0,.1.35.72.72,0,0,0,1,.28A3.13,3.13,0,0,0,103.4,128.56Z"/><path class="cls-25" d="M106.51,128.56a5.43,5.43,0,0,0-2.53-4.72.7.7,0,0,0-1,.27.64.64,0,0,0-.1.35.73.73,0,0,0,.36.63,4.24,4.24,0,0,1,0,6.94.73.73,0,0,0-.27,1,.71.71,0,0,0,1,.27A5.43,5.43,0,0,0,106.51,128.56Z"/><path class="cls-26" d="M71.91,136.44c0-.84.3-1.29.8-1.29s.8.45.8,1.29-.3,1.3-.8,1.3S71.91,137.28,71.91,136.44Zm1.28,0c0-.73-.19-1-.48-1s-.49.3-.49,1,.2,1,.49,1S73.19,137.17,73.19,136.44Z"/><path class="cls-26" d="M74,137.43h.57v-1.84h-.45v-.2a1.49,1.49,0,0,0,.52-.19h.25v2.23h.52v.26H74Z"/><path class="cls-26" d="M75.8,136.44c0-.84.3-1.29.8-1.29s.79.45.79,1.29-.3,1.3-.79,1.3S75.8,137.28,75.8,136.44Zm1.28,0c0-.73-.19-1-.48-1s-.49.3-.49,1,.19,1,.49,1S77.08,137.17,77.08,136.44Z"/><path class="cls-26" d="M77.74,136.44c0-.84.3-1.29.8-1.29s.8.45.8,1.29-.3,1.3-.8,1.3S77.74,137.28,77.74,136.44Zm1.28,0c0-.73-.19-1-.48-1s-.49.3-.49,1,.2,1,.49,1S79,137.17,79,136.44Z"/><path class="cls-26" d="M81.3,137.43h.57v-1.84h-.45v-.2a1.55,1.55,0,0,0,.53-.19h.24v2.23h.52v.26H81.3Z"/><path class="cls-26" d="M83.24,137.43h.58v-1.84h-.46v-.2a1.55,1.55,0,0,0,.53-.19h.25v2.23h.51v.26H83.24Z"/><path class="cls-26" d="M85.19,137.43h.57v-1.84h-.45v-.2a1.49,1.49,0,0,0,.52-.19h.25v2.23h.51v.26h-1.4Z"/><path class="cls-26" d="M87.13,137.43h.57v-1.84h-.45v-.2a1.64,1.64,0,0,0,.53-.19H88v2.23h.52v.26H87.13Z"/><path class="cls-26" d="M90.42,136.44c0-.84.3-1.28.8-1.28s.8.44.8,1.28-.3,1.3-.8,1.3S90.42,137.28,90.42,136.44Zm1.29,0c0-.73-.2-1-.49-1s-.49.3-.49,1,.2,1,.49,1S91.71,137.17,91.71,136.44Z"/><path class="cls-26" d="M92.36,136.44c0-.84.31-1.28.81-1.28s.79.44.79,1.28-.3,1.3-.79,1.3S92.36,137.28,92.36,136.44Zm1.29,0c0-.73-.2-1-.48-1s-.49.3-.49,1,.19,1,.49,1S93.65,137.17,93.65,136.44Z"/><path class="cls-26" d="M94.44,137.43H95v-1.84h-.45v-.2a1.55,1.55,0,0,0,.53-.19h.24v2.23h.52v.26H94.44Z"/><path class="cls-26" d="M96.25,136.44c0-.84.3-1.28.8-1.28s.8.44.8,1.28-.3,1.3-.8,1.3S96.25,137.28,96.25,136.44Zm1.29,0c0-.73-.2-1-.49-1s-.49.3-.49,1,.2,1,.49,1S97.54,137.17,97.54,136.44Z"/><path class="cls-26" d="M99.81,137.43h.57v-1.84h-.45v-.2a1.55,1.55,0,0,0,.53-.19h.24v2.23h.52v.26H99.81Z"/><path class="cls-26" d="M101.62,136.44c0-.84.3-1.29.8-1.29s.8.45.8,1.29-.3,1.3-.8,1.3S101.62,137.28,101.62,136.44Zm1.28,0c0-.73-.19-1-.48-1s-.49.3-.49,1,.2,1,.49,1S102.9,137.17,102.9,136.44Z"/><path class="cls-26" d="M103.7,137.43h.57v-1.84h-.45v-.2a1.49,1.49,0,0,0,.52-.19h.25v2.23h.52v.26H103.7Z"/><path class="cls-26" d="M105.51,136.44c0-.84.3-1.29.8-1.29s.79.45.79,1.29-.3,1.3-.79,1.3S105.51,137.28,105.51,136.44Zm1.28,0c0-.73-.19-1-.48-1s-.49.3-.49,1,.19,1,.49,1S106.79,137.17,106.79,136.44Z"/><path class="cls-26" d="M81.86,141.37c0-.46.16-.7.43-.7s.44.24.44.7-.17.71-.44.71S81.86,141.82,81.86,141.37Zm.7,0c0-.4-.11-.56-.27-.56s-.26.16-.26.56.1.57.26.57S82.56,141.77,82.56,141.37Z"/><path class="cls-26" d="M83,141.91h.31v-1h-.25v-.12a.66.66,0,0,0,.29-.1h.14v1.22h.28v.14H83Z"/><path class="cls-26" d="M84.47,140.54h.13L84,142.39H83.9Z"/><path class="cls-26" d="M84.79,141.91h.31v-1h-.24v-.12a.76.76,0,0,0,.29-.1h.13v1.22h.28v.14h-.77Z"/><path class="cls-26" d="M85.89,141.82a.29.29,0,0,0,.22.11c.2,0,.36-.15.36-.58a.4.4,0,0,1-.32.17c-.23,0-.38-.14-.38-.42a.41.41,0,0,1,.4-.43c.27,0,.47.22.47.65s-.25.76-.52.76a.43.43,0,0,1-.33-.15Zm.58-.61c0-.26-.13-.4-.3-.4a.26.26,0,0,0-.24.29c0,.18.09.29.25.29A.37.37,0,0,0,86.47,141.21Z"/><rect class="cls-27" x="97.01" y="139.97" width="9.08" height="2.99" rx="0.54"/><rect class="cls-25" x="79.52" y="140.56" width="1.69" height="1.61" rx="0.17"/><path class="cls-36" d="M93.72,42.76l-3.4-23.24h46.09l-6.95,20.73h-.19ZM91,20.1l3.21,22L129,39.69,135.6,20.1Z"/><path class="cls-36" d="M127.48,56.93H90.81l0-4.31,2.64-10.15L88.62,12.05l1.14-.18,4.89,30.65-2.5,9.66,34.33,2a1.84,1.84,0,0,1,1.07.41l.59.47a1.06,1.06,0,0,1,.32,1.17A1,1,0,0,1,127.48,56.93ZM92,55.77h35.17l-.33-.27a.76.76,0,0,0-.41-.15L92,53.33Z"/><path class="cls-17" d="M82,12.25l7.28,1.68a1.17,1.17,0,0,0,1.39-.87h0a1.17,1.17,0,0,0-.87-1.4L82.56,10a1.16,1.16,0,0,0-1.39.87h0A1.17,1.17,0,0,0,82,12.25Z"/><path class="cls-37" d="M82.42,11.42l6.27,1.45a.6.6,0,0,0,.71-.45h0a.6.6,0,0,0-.44-.71l-6.27-1.44a.6.6,0,0,0-.71.44h0A.6.6,0,0,0,82.42,11.42Z"/><path class="cls-38" d="M122.7,59.48a2.35,2.35,0,1,0,2.35-2.35A2.35,2.35,0,0,0,122.7,59.48Z"/><path class="cls-38" d="M94.4,59.48a2.35,2.35,0,1,0,2.34-2.35A2.35,2.35,0,0,0,94.4,59.48Z"/><rect class="cls-36" x="89.41" y="19.08" width="47.42" height="1.09" rx="0.34" transform="translate(226.24 39.25) rotate(180)"/><rect class="cls-36" x="117.43" y="29.77" width="20.79" height="0.58" transform="translate(71.64 148.74) rotate(-77.9)"/><polygon class="cls-36" points="121.37 40.55 120.79 40.45 124.6 19.76 125.17 19.86 121.37 40.55"/><rect class="cls-36" x="107.63" y="30.05" width="21.12" height="0.58" transform="translate(70.52 142.67) rotate(-81.4)"/><polygon class="cls-36" points="112.5 41.2 111.92 41.14 114.37 19.78 114.95 19.84 112.5 41.2"/><rect class="cls-36" x="98.12" y="30.39" width="21.63" height="0.58" transform="translate(69.84 136.89) rotate(-85.52)"/><rect class="cls-36" x="93.89" y="30.52" width="21.29" height="0.58" transform="translate(71.32 134.61) rotate(-88.68)"/><rect class="cls-36" x="100.05" y="19.89" width="0.58" height="22.1" transform="translate(-0.6 2.01) rotate(-1.15)"/><rect class="cls-36" x="95.76" y="19.84" width="0.58" height="22.44" transform="translate(-2.57 9.49) rotate(-5.58)"/><rect class="cls-36" x="90.96" y="22.78" width="43.95" height="0.58"/><rect class="cls-36" x="91.36" y="25.84" width="42.53" height="0.58"/><rect class="cls-36" x="91.75" y="28.91" width="41.11" height="0.58"/><rect class="cls-36" x="92.15" y="31.97" width="39.68" height="0.58"/><rect class="cls-36" x="92.54" y="35.03" width="38.26" height="0.58"/><rect class="cls-36" x="92.94" y="38.1" width="37.06" height="0.58"/><path class="cls-32" d="M90,19.08h45.84a.2.2,0,0,1,.2.21h0a.2.2,0,0,1-.2.2H90a.2.2,0,0,1-.2-.2h0A.2.2,0,0,1,90,19.08Z"/><path class="cls-36" d="M125.06,60.37h0a1.2,1.2,0,0,0,1.19-1.2V56.91a1.2,1.2,0,0,0-1.19-1.19h0a1.2,1.2,0,0,0-1.2,1.19v2.26A1.2,1.2,0,0,0,125.06,60.37Z"/><path class="cls-36" d="M96.74,60.37h0a1.2,1.2,0,0,0,1.2-1.2V56.91a1.2,1.2,0,0,0-1.2-1.19h0a1.2,1.2,0,0,0-1.2,1.19v2.26A1.2,1.2,0,0,0,96.74,60.37Z"/><path class="cls-38" d="M124.67,59.48a.38.38,0,0,0,.38.38.38.38,0,0,0,0-.76A.38.38,0,0,0,124.67,59.48Z"/><path class="cls-38" d="M96.37,59.48a.37.37,0,0,0,.37.38.38.38,0,1,0,0-.76A.37.37,0,0,0,96.37,59.48Z"/><path class="cls-21" d="M280.74,144.65H254.53A3.55,3.55,0,0,0,251,148.2v16.88a3.56,3.56,0,0,0,3.56,3.56h26.21a3.56,3.56,0,0,0,3.56-3.56V148.2A3.55,3.55,0,0,0,280.74,144.65Zm-24.4,20.29a1,1,0,0,1-2.07,0V153.23a1,1,0,0,1,2.07,0Zm6.17,0a1,1,0,0,1-2.08,0V153.23a1,1,0,0,1,2.08,0Zm6.16,0a1,1,0,0,1-2.07,0V153.23a1,1,0,0,1,2.07,0Zm6.17,0a1,1,0,0,1-2.08,0V153.23a1,1,0,0,1,2.08,0Zm6.16,0a1,1,0,0,1-2.07,0V153.23a1,1,0,0,1,2.07,0Z"/><rect class="cls-24" x="249.71" y="144.65" width="35.84" height="5.48" rx="0.88"/><path class="cls-21" d="M284.34,146.52H250.92a.69.69,0,0,1-.69-.69h0a.69.69,0,0,1,.69-.69h33.42a.69.69,0,0,1,.69.69h0A.69.69,0,0,1,284.34,146.52Z"/><path class="cls-13" d="M264.19,135.64,254.81,145a1.32,1.32,0,0,0,1.86,1.86l9.39-9.38a1.32,1.32,0,0,0-1.87-1.86Z"/><path class="cls-13" d="M271.08,135.64a1.32,1.32,0,0,0-1.87,1.86l9.39,9.38a1.3,1.3,0,0,0,1.86,0,1.32,1.32,0,0,0,0-1.86Z"/><path class="cls-19" d="M206.81,0a17.64,17.64,0,0,1-4,.51A17.7,17.7,0,0,1,198.7,0l-.22,5.25,8.66-.33Z"/><path class="cls-7" d="M198.7,0a4.31,4.31,0,0,0,4.06,2.88A4.32,4.32,0,0,0,206.81,0L213,2.38V33.11H192.36V2.38Z"/><path class="cls-28" d="M205.92,1.48A4.34,4.34,0,0,0,206.81,0l.44.17A4.28,4.28,0,0,1,205.92,1.48Z"/><path class="cls-39" d="M193.28,25.87a6.73,6.73,0,0,0,6.47,6.73l13.25.51H192.36V2.38Z"/><rect class="cls-21" x="225.78" y="17.46" width="2.05" height="3.25" transform="translate(399.02 167.91) rotate(-143.98)"/><path class="cls-24" d="M227.22,17.91l.87.63a.12.12,0,0,0,.15,0h0a.11.11,0,0,0,0-.15l-.87-.63a.11.11,0,0,0-.14,0h0A.12.12,0,0,0,227.22,17.91Z"/><path class="cls-24" d="M227,18.2l.87.64a.11.11,0,0,0,.14,0h0a.12.12,0,0,0,0-.15l-.87-.63a.12.12,0,0,0-.15,0h0A.1.1,0,0,0,227,18.2Z"/><path class="cls-24" d="M226.79,18.5l.87.64a.1.1,0,0,0,.14,0h0a.11.11,0,0,0,0-.14l-.87-.63a.11.11,0,0,0-.14,0h0A.09.09,0,0,0,226.79,18.5Z"/><path class="cls-24" d="M226.57,18.8l.87.64a.1.1,0,0,0,.14,0h0a.09.09,0,0,0,0-.14l-.87-.63a.11.11,0,0,0-.14,0h0A.11.11,0,0,0,226.57,18.8Z"/><path class="cls-24" d="M226.35,19.1l.87.64a.11.11,0,0,0,.15,0h0a.1.1,0,0,0,0-.14l-.87-.63a.11.11,0,0,0-.14,0h0A.11.11,0,0,0,226.35,19.1Z"/><path class="cls-24" d="M226.14,19.4,227,20a.09.09,0,0,0,.14,0h0a.11.11,0,0,0,0-.14l-.87-.63a.1.1,0,0,0-.15,0h0A.1.1,0,0,0,226.14,19.4Z"/><path class="cls-24" d="M225.92,19.7l.87.63a.09.09,0,0,0,.14,0h0a.11.11,0,0,0,0-.14l-.87-.63a.09.09,0,0,0-.14,0h0A.09.09,0,0,0,225.92,19.7Z"/><path class="cls-24" d="M225.7,20l.87.63a.09.09,0,0,0,.14,0h0a.09.09,0,0,0,0-.14l-.87-.63a.09.09,0,0,0-.14,0h0A.11.11,0,0,0,225.7,20Z"/><path class="cls-24" d="M192.36,2.38,198.7,0a4.31,4.31,0,0,0,4.06,2.88A4.32,4.32,0,0,0,206.81,0L213,2.38V25.93c-10.93,0-19.88-10-20.64-22.62Z"/><path class="cls-21" d="M213,2.38l13.88,13.49a1.28,1.28,0,0,1,.14,1.66l-1.62,2.21a1.27,1.27,0,0,1-1.77.27L213,12.33a16.63,16.63,0,0,1-.93-5.6C212.07,3.48,213,2.38,213,2.38Z"/><path class="cls-21" d="M192.35,2.38l-8.62,9.78.45,4.44,8.17-4.27a16.63,16.63,0,0,0,.93-5.6C193.28,3.48,192.35,2.38,192.35,2.38Z"/><path class="cls-19" d="M192.35,12.33l-8.17,4.27L184,15.22l1.23-3.72s3.79-.18,5.51-1a9.29,9.29,0,0,0,2.4-1.89A15.66,15.66,0,0,1,192.35,12.33Z"/><path class="cls-40" d="M198.61,0A4.41,4.41,0,0,0,202.76,3,4.4,4.4,0,0,0,206.9.06l1.27.49a5.53,5.53,0,0,1-5.49,3.92A5.5,5.5,0,0,1,197.2.56Z"/><path class="cls-24" d="M198.7,0a4.31,4.31,0,0,0,4.06,2.88A4.32,4.32,0,0,0,206.81,0l1.24.47a5.42,5.42,0,0,1-5.37,3.84A5.39,5.39,0,0,1,197.32.52Z"/><rect class="cls-21" x="195.75" y="12.81" width="2.05" height="3.25" transform="translate(393.54 28.88) rotate(180)"/><path class="cls-24" d="M196.42,13.24h1.07a.1.1,0,0,0,.11-.1h0a.1.1,0,0,0-.11-.1h-1.07a.09.09,0,0,0-.1.1h0A.09.09,0,0,0,196.42,13.24Z"/><path class="cls-24" d="M196.42,13.61h1.07a.1.1,0,0,0,.11-.1h0a.1.1,0,0,0-.11-.1h-1.07a.09.09,0,0,0-.1.1h0A.09.09,0,0,0,196.42,13.61Z"/><path class="cls-24" d="M196.42,14h1.07a.1.1,0,0,0,.11-.1h0a.1.1,0,0,0-.11-.1h-1.07a.09.09,0,0,0-.1.1h0A.09.09,0,0,0,196.42,14Z"/><path class="cls-24" d="M196.42,14.35h1.07a.1.1,0,0,0,.11-.1h0a.1.1,0,0,0-.11-.1h-1.07a.09.09,0,0,0-.1.1h0A.09.09,0,0,0,196.42,14.35Z"/><path class="cls-24" d="M196.42,14.72h1.07a.1.1,0,0,0,.11-.1h0a.1.1,0,0,0-.11-.1h-1.07a.09.09,0,0,0-.1.1h0A.09.09,0,0,0,196.42,14.72Z"/><path class="cls-24" d="M196.42,15.09h1.07a.1.1,0,0,0,.11-.1h0a.1.1,0,0,0-.11-.1h-1.07a.09.09,0,0,0-.1.1h0A.09.09,0,0,0,196.42,15.09Z"/><path class="cls-24" d="M196.42,15.46h1.07a.1.1,0,0,0,.11-.1h0a.1.1,0,0,0-.11-.1h-1.07a.09.09,0,0,0-.1.1h0A.09.09,0,0,0,196.42,15.46Z"/><path class="cls-24" d="M196.42,15.83h1.07a.1.1,0,0,0,.11-.1h0a.1.1,0,0,0-.11-.1h-1.07a.09.09,0,0,0-.1.1h0A.09.09,0,0,0,196.42,15.83Z"/><path class="cls-19" d="M212.07,6.73a12.34,12.34,0,0,1,.16-2.11c0,.06.79,4.89,1.75,6.7s9.58,7.67,10.23,7.9c1.16.42,3-1.53,3-2.77a1.27,1.27,0,0,1-.2,1.08l-1.62,2.21a1.27,1.27,0,0,1-1.77.27L213,12.33A16.63,16.63,0,0,1,212.07,6.73Z"/><path class="cls-21" d="M196.25,15.46a1.17,1.17,0,0,1-1.06,1.2l-10.37.64a1.33,1.33,0,0,1-1.16-.7,4,4,0,0,1-.59-2.42,4.05,4.05,0,0,1,.62-2,1.36,1.36,0,0,1,1.16-.68l10.34.6a1.17,1.17,0,0,1,1.06,1.2Z"/><path class="cls-19" d="M183.66,16.6a4,4,0,0,1-.59-2.42,3,3,0,0,1,0-.31,3.74,3.74,0,0,0,1.79,2.2c.55.11,9.91.07,10.48-.34s.47-3.37.47-3.37a1.22,1.22,0,0,1,.41.92v2.18a1.17,1.17,0,0,1-1.06,1.2l-10.37.64A1.33,1.33,0,0,1,183.66,16.6Z"/><path class="cls-24" d="M203.19,204.52a7.87,7.87,0,0,1-2.55-.38,5.19,5.19,0,0,1-1.82-1.07,4.76,4.76,0,0,1-1.11-1.64,6.12,6.12,0,0,1-.4-2.09h1.75a3.77,3.77,0,0,0,.42,1.5,3.29,3.29,0,0,0,.89,1.06,3.69,3.69,0,0,0,1.24.61,5.48,5.48,0,0,0,1.49.2,5.13,5.13,0,0,0,1.41-.18,3.39,3.39,0,0,0,1.08-.52,2.49,2.49,0,0,0,.7-.82,2.39,2.39,0,0,0,.24-1.09,2.28,2.28,0,0,0-.22-1.06,2.1,2.1,0,0,0-.73-.76,5.38,5.38,0,0,0-1.33-.59c-.56-.17-1.23-.35-2-.53a13,13,0,0,1-2-.66,4.89,4.89,0,0,1-1.38-.88,3.11,3.11,0,0,1-.8-1.15,3.93,3.93,0,0,1-.26-1.5,4,4,0,0,1,.35-1.7,3.92,3.92,0,0,1,1-1.34,4.61,4.61,0,0,1,1.55-.88,6,6,0,0,1,2-.32,6.69,6.69,0,0,1,2.12.32,4.86,4.86,0,0,1,1.65.9,4.24,4.24,0,0,1,1.09,1.45,4.67,4.67,0,0,1,.43,1.92H206.2q-.27-2.76-3.43-2.76a3.88,3.88,0,0,0-2.37.63,2,2,0,0,0-.83,1.7,1.92,1.92,0,0,0,.16.83,1.4,1.4,0,0,0,.52.6,3.65,3.65,0,0,0,1,.47,15.73,15.73,0,0,0,1.53.42l1.27.31a10.43,10.43,0,0,1,1.27.4,7.91,7.91,0,0,1,1.17.57,3.76,3.76,0,0,1,1,.81,3.46,3.46,0,0,1,.66,1.12,4.48,4.48,0,0,1-1.21,4.81,5.14,5.14,0,0,1-1.63,1A5.84,5.84,0,0,1,203.19,204.52Z"/><rect class="cls-24" x="200.68" y="186.15" width="1.62" height="20.95"/><rect class="cls-24" x="203.56" y="186.15" width="1.62" height="20.95"/></g></g></g></svg>