<svg xmlns="http://www.w3.org/2000/svg" viewBox="0 0 181.99 202.44"><defs><style>.cls-1{fill:#c88a5e;}</style></defs><g id="Capa_2" data-name="Capa 2"><g id="Capa_1-2" data-name="Capa 1"><path class="cls-1" d="M90.75,83.76a44,44,0,0,0,7.35-.62A41.61,41.61,0,0,0,132.36,49c.23-1.38.52-3.09-.38-4.34a3.34,3.34,0,0,0-2.3-1.29c-3.22-.55-3.73,2.39-4.05,4.18a36.73,36.73,0,0,1-6.35,15.17c-.37.51-.82,1.1-1.14,1.15-.16,0-.54,0-1.42-.67-16.49-12-34.78-12-51.5.06-.84.61-1.18.66-1.31.64s-.54-.36-1-1c-4.72-6.61-7-13.43-6.85-20.86v0A32.44,32.44,0,0,1,57.47,31.8,35.14,35.14,0,0,1,88.68,6.88c13.9-1.19,27.59,6.91,34.06,20.14.13.28.25.58.38.89.44,1.12,1,2.51,2.27,3a3.26,3.26,0,0,0,2.58-.13,3.54,3.54,0,0,0,2.12-2c.51-1.4-.24-2.88-.85-4.06-.13-.24-.25-.48-.35-.71A42,42,0,0,0,82,1C60.24,5.81,45.5,28,49.77,49.44,53.86,70,70.83,83.76,90.75,83.76ZM69.07,69.1s0-.32,1.09-1.13A34.17,34.17,0,0,1,91,61.28a34.33,34.33,0,0,1,20.82,6.65c1.11.86,1.14,1.16,1.14,1.17s-.07.33-1.22,1.14a36.77,36.77,0,0,1-20.88,6.83,36.51,36.51,0,0,1-20.5-6.81C69.28,69.49,69.09,69.2,69.07,69.1Z"/><path class="cls-1" d="M104.24,144.53a6.61,6.61,0,0,0,4.18-1.56,6.38,6.38,0,0,0,2.14-7.54c-2.67-7.3-.89-12.88,5.42-17.06a6.35,6.35,0,0,0,3.11-5.76c0-4.32-2.78-6.75-7.69-6.83-7.44-.13-11.55-3-13.33-9.36-1.4-5-4.6-6-7-6h0c-2.44,0-5.63,1-7,6-1.85,6.52-6.08,9.5-13.28,9.33-3.61-.08-6.24,1.5-7.35,4.45-1.23,3.26-.11,6.42,3,8.45,6.14,4,7.77,9.36,5.13,16.78a6.73,6.73,0,0,0,10.37,7.67c6.3-4.82,12.13-4.82,18.34,0A6.66,6.66,0,0,0,104.24,144.53ZM78.1,137c.05-.18.1-.37.13-.54h0c.13-.83.23-1.66.33-2.5a27,27,0,0,1,.93-5.15c1.32-4.06.29-7.25-3.24-10a39,39,0,0,1-3.77-3.55c-.62-.63-1.24-1.26-1.88-1.87a3.94,3.94,0,0,1-.53-.61,3.67,3.67,0,0,1,.76-.17,11.07,11.07,0,0,1,1.44-.11c9.61.14,15.36-4,17.52-12.48l0-.1c.17-.67.56-2.23,1.11-2.25s.9.68,1.25,2.1l.09.36c2.13,8.34,7.87,12.39,17.56,12.39h.61c1.23-.06,1.48,0,1.57.35s-.83.91-1.22,1.17l-.18.12c-7.86,5.29-10.24,12.39-7.06,21.1.06.14.12.31.19.47.39,1,.54,1.5.26,1.72s-.84-.09-1.68-.78l-.23-.19c-7.24-5.86-14.83-5.77-22.56.26l-.22.17c-.82.67-1.06.71-1.31.55C78,137.26,78.07,137.08,78.1,137Z"/><path class="cls-1" d="M82.26,164h-.07c-8.55.07-13.56-3.6-16.27-12a5.61,5.61,0,0,0-5.44-3.78h-.07a7,7,0,0,0-7.15,5.5c-2,7-6.46,10.21-14.09,10a6.6,6.6,0,0,0-6.88,4.53,6.39,6.39,0,0,0,2.61,7.84c6.52,4.2,8.25,9.85,5.46,17.79-.92,2.59,0,5.18,2.39,7.1a6.1,6.1,0,0,0,3.84,1.38,7.75,7.75,0,0,0,3.57-1l2.2-1.12c1.84-.93,3.74-1.9,5.56-3a3.53,3.53,0,0,1,4.12-.05,72.34,72.34,0,0,0,8.56,4.43,7.21,7.21,0,0,0,7.59-1.22,5.27,5.27,0,0,0,1.55-5.63c-2.73-8.4-.88-14.28,6.17-19.65a6.16,6.16,0,0,0,2-7A6,6,0,0,0,82.26,164Zm-2.64,8-.35.25c-7.7,5.53-9.92,12.11-6.78,20.11a4.68,4.68,0,0,1,.46,2.85l-1.26-.59a25.36,25.36,0,0,1-4.5-2.44c-4.8-3.52-9.42-3.54-14.12-.07A19.68,19.68,0,0,1,49.64,194c-.69.32-1.38.64-2,1a4.15,4.15,0,0,1-.51.24c0-.13,0-.31.07-.55.15-.89.25-1.79.35-2.67a24.06,24.06,0,0,1,.93-5c1.47-4.3.36-7.71-3.49-10.73a36.73,36.73,0,0,1-3.64-3.46c-.56-.58-1.12-1.15-1.69-1.71a5,5,0,0,1-.53-.6,4.28,4.28,0,0,1,.7-.11c.39,0,.78-.11,1.18-.18a5.69,5.69,0,0,1,1.41-.17c8.31.5,13.69-3.51,16.42-12.24.05-.15.09-.32.14-.49.3-1,.58-1.86,1.07-1.9s.78.67,1.1,1.91l.06.24c2.26,8.44,8,12.72,17.08,12.72h.35a7.61,7.61,0,0,0,.79,0c1.45-.13,1.55,0,1.63.36S80.09,171.71,79.62,172Z"/><path class="cls-1" d="M142.8,163.75c-7.93-.26-12-3.08-13.73-9.41-1-3.93-3.55-6.1-7-6.11h0c-3.49,0-5.93,2.09-7,6.05-1.85,6.55-6,9.53-13.25,9.39h-.26c-3.54,0-6,1.52-7.1,4.4-1.25,3.24-.15,6.4,3,8.47,6.11,4.07,7.78,9.29,5.24,16.4a6.7,6.7,0,0,0,2.4,8.2,6.55,6.55,0,0,0,8.23-.33c6-4.7,11.64-4.71,17.63,0a7.21,7.21,0,0,0,4.43,1.67,6.41,6.41,0,0,0,3.79-1.28,6.69,6.69,0,0,0,2.45-8.18c-2.52-7.23-.87-12.45,5.2-16.41a6.8,6.8,0,0,0,3.4-6.2C150.05,166.38,147.33,163.9,142.8,163.75Zm.22,6.87c.08.24-.63.7-1,.93l-.1.06c-8.14,5.39-10.59,12.85-7.29,22.16a3.12,3.12,0,0,0,.15.39c.2.53.37,1,.22,1.13s-.38.21-1.3-.58l-.19-.16Q128.08,190,122.28,190t-12,4.67l-.19.15c-.66.51-.88.6-1.07.52a5,5,0,0,1,.22-.94l0-.16a3.63,3.63,0,0,0,0-.39,3.1,3.1,0,0,1,.13-.77c3.25-8.68.9-15.79-7-21.12l-.15-.1c-.37-.25-1.36-.92-1.28-1.23s.09-.39,1.35-.28a6.9,6.9,0,0,0,.75,0c9.82,0,15.7-4.31,18-13.15l.07-.25c.33-1.35.54-1.56.93-1.54s.64,1.05.79,1.6l0,.11c2.41,9,8.53,13.45,18.33,13.24.17,0,.36,0,.56,0C142.87,170.3,143,170.4,143,170.62Z"/><path class="cls-1" d="M41.31,155.3a6.68,6.68,0,0,0,4.15-1.58A6,6,0,0,0,47.74,147c-2.74-7.82-.87-13.64,6-18.87a6.15,6.15,0,0,0,2.39-6.82,6.44,6.44,0,0,0-6-4.4c-8.58-.38-13.4-3.9-16.13-11.75a6.31,6.31,0,0,0-5.94-4.41h0a6.24,6.24,0,0,0-5.87,4.42c-2.7,8-7.55,11.61-15.69,11.61H6A5.74,5.74,0,0,0,.39,121a6.6,6.6,0,0,0,1.81,7.2c.74.71,1.46,1.43,2.19,2.15,1.32,1.32,2.69,2.68,4.14,3.94a3.45,3.45,0,0,1,1.32,3.87c-.62,2.66-1.12,5.54-1.58,9.06a7.08,7.08,0,0,0,1.59,5.64,6.93,6.93,0,0,0,5.24,2.35h.17l.16,0c.15-.05.34-.09.55-.14a5.44,5.44,0,0,0,2.34-.94c6.51-5.26,12.75-5.25,19.64,0A5.41,5.41,0,0,0,41.31,155.3ZM15.2,147.17a6,6,0,0,0,.28-1c.08-.5.14-1,.21-1.51a20.93,20.93,0,0,1,.72-3.78c1.67-5.15.33-9.21-4.1-12.39a34.82,34.82,0,0,1-4.1-3.67L6.84,123.5l2.71-.43c2.47-.4,5-.82,7.53-1.06a7.08,7.08,0,0,0,6.51-4.66c1-2.33,2.14-4.58,3.48-7.17l1-2c.31.62.62,1.21.92,1.79,1.23,2.4,2.3,4.47,3.19,6.64,1.5,3.63,3.88,5.33,7.7,5.49a51.73,51.73,0,0,1,7,1l2,.37a34.8,34.8,0,0,1-6,5.91l-.16.13c-3.29,2.74-4.29,5.83-3.24,10l.09.39a29.23,29.23,0,0,1,1.21,8A47.46,47.46,0,0,1,34,144.38l-2.05-1.16a6.93,6.93,0,0,0-7.63,0c-1.92,1.17-4,2.21-6,3.21l-1.29.66c-.25.13-.51.29-.77.46-.64.42-.94.57-1.13.46L15,148A2.55,2.55,0,0,1,15.2,147.17Z"/><path class="cls-1" d="M182,123.41c0-4.09-2.26-6.5-6.08-6.61-8.88-.25-13.73-3.75-15.73-11.36a6.14,6.14,0,0,0-6.09-4.47,6.24,6.24,0,0,0-6.43,4.57c-2.28,7.81-7,11.34-15,11.1a6.42,6.42,0,0,0-6.65,4.83,6.31,6.31,0,0,0,2.8,7.38c6.47,4.27,8.25,9.8,5.59,17.41a6.33,6.33,0,0,0,2.21,7.51,6.57,6.57,0,0,0,4.06,1.49,6.66,6.66,0,0,0,4.15-1.54c6.2-4.87,12-4.87,18.26,0a6.29,6.29,0,0,0,8.2,0,6.71,6.71,0,0,0,2.16-7.93c-2.6-7.23-1-12.46,5.12-16.44C180.92,127.83,182.16,125.66,182,123.41Zm-16.91,14.1c.5,2.11.85,4.31,1.19,6.44.15,1,.3,1.9.47,2.84,0,.21.09.41.14.62a2.36,2.36,0,0,1,.13.62l-.08.06c-.14,0-.49-.2-.69-.31l-.34-.19-1.75-.89c-2.19-1.12-4.45-2.27-6.58-3.55a7,7,0,0,0-3.59-1.09,7.1,7.1,0,0,0-3.69,1.14c-1.93,1.15-4,2.21-6,3.23-.79.4-1.57.8-2.35,1.22a4.25,4.25,0,0,1-.89.36,4,4,0,0,1,.1-1c.16-.79.25-1.59.34-2.37a14.8,14.8,0,0,1,.61-3.33c1.91-5.4.43-9.78-4.55-13.4a37.92,37.92,0,0,1-3.77-3.29c-.39-.37-.78-.74-1.18-1.1.83-.14,1.67-.3,2.5-.46a47,47,0,0,1,6.83-1c4-.15,6.44-1.92,8-5.74.84-2.09,1.88-4.09,3.08-6.41.3-.57.61-1.15.92-1.76l1,2c1.36,2.66,2.54,5,3.59,7.35a6.81,6.81,0,0,0,6.24,4.41c2,.19,4.11.52,6.11.84,1.08.17,2.16.34,3.24.49a3.71,3.71,0,0,1,.7.16,3.77,3.77,0,0,1-.54.6l-2.53,2.5c-1.56,1.56-3.18,3.17-4.83,4.67A5.82,5.82,0,0,0,165.07,137.51Z"/><path class="cls-1" d="M79.31,18.36a16.73,16.73,0,0,0-5.21,11.9A16.74,16.74,0,0,0,91,47.51h0a16.72,16.72,0,0,0,16.93-16.76A17.13,17.13,0,0,0,91.27,13.56,16.73,16.73,0,0,0,79.31,18.36Zm18.82,5.05a10.39,10.39,0,0,1,3,7.41A9.88,9.88,0,0,1,91,40.65h-.1a10,10,0,0,1-10-10.07A10.35,10.35,0,0,1,91,20.4,10.06,10.06,0,0,1,98.13,23.41Z"/><path class="cls-1" d="M127,34.52a3.34,3.34,0,0,0-1.09,2.5A3,3,0,0,0,129,40.26h.2a3.11,3.11,0,0,0,3.26-2.74V37.4a3.23,3.23,0,0,0-2.94-3.62A3.38,3.38,0,0,0,127,34.52Z"/></g></g></svg>