<svg xmlns="http://www.w3.org/2000/svg" viewBox="0 0 209.17 210.23"><defs><style>.cls-1{fill:#c88a5e;}</style></defs><g id="Capa_2" data-name="Capa 2"><g id="Capa_1-2" data-name="Capa 1"><path class="cls-1" d="M208.73,101.94c-1.46-14.16-5.34-28.21-9.08-41.78l-.74-2.67c-3.52-12.78-10.21-19.35-21-20.49,7.73-7.76,8.58-13.86,3.89-24.79C178,3.23,170.7-.83,160.23.14c-5.54.52-10.75,2.37-15.8,4.17-1.79.64-3.64,1.3-5.48,1.89S136.18,8,136.46,9.41c.18.9.3,1.81.44,2.78C137.43,16,138,20.4,142.14,23c1.65,1,2,1.93,2.18,3.94.69,7.54,4.05,13,10,16.29,1.79,1,2,1.56,1.31,3.47-2.58,7-1.71,14.31-.95,20.72.06.51.15,1,.23,1.54a14.68,14.68,0,0,1,.29,3.62,11.43,11.43,0,0,0-1.42-.84c-2.89-1.38-4-2.1-2.46-5.85A19.6,19.6,0,0,0,150.19,49c-.08-.14-.16-.3-.24-.46-.52-1-1.16-2.27-2.25-2.6a1.85,1.85,0,0,0-1.5.17c-1.53.83-1.91.33-2.84-.86a8.71,8.71,0,0,0-1-1.18c-6.42-5.84-13.76-7.44-21.84-4.77-8.61,2.86-13.43,8.61-13.95,16.64a6.52,6.52,0,0,1-.91,2.85c.21-4.29-.87-7.68-3.19-9.91-2.8-2.69-7.2-3.49-12.73-2.31a3.59,3.59,0,0,1-3-.76l-.74-.44c-5.63-3.11-11-3-14.78.43a39.85,39.85,0,0,1-13.6,8.41,3.7,3.7,0,0,0-1.41,1.12,4,4,0,0,1-.49.51,2.26,2.26,0,0,1-.34-.47.93.93,0,0,1-.21-.63c.08-.29.77-.68,1.27-1l.54-.31c4.57-2.75,7.45-6.44,8.57-11a9.39,9.39,0,0,1,3.3-5.1,14.43,14.43,0,0,0,4.6-12.87,14.84,14.84,0,0,0-8-11.53c-1.82-.89-3.58-1.82-5.23-2.76a24.09,24.09,0,0,0-30.87,6.39c-4.39,5.73-5.16,12.21-5.61,18.89-.3,4.41.28,9.12,6.86,10.65A11.05,11.05,0,0,1,34.79,48C24.22,53.81,18.45,63.65,18.48,75.87c.07,23.77-8.63,44.52-16.21,59.93-4,8.14-2.77,14.41,4.14,20.94.21.2.41.42.62.64a8,8,0,0,0,1.77,1.53c2.55,1.46,3.15,3.76,3.27,6.76.18,4.71.41,9.5.64,14.14.32,6.65.66,13.53.84,20.29.06,2.27.57,3.73,1.61,4.61a5.22,5.22,0,0,0,4.23.84,25,25,0,0,1,5.11,0c3.74.25,7.6.52,11-2.39,3,3.34,6.8,2.87,10.13,2.45a19.23,19.23,0,0,1,4.36-.22A6.72,6.72,0,0,0,55.37,204a6.52,6.52,0,0,0,2-5c0-4.18-2.45-6.62-7-6.86h-.75c-.43,0-1.17,0-1.32-.16s-.11-.27-.06-.76c.37-3.06.52-6.19.67-9.21.08-1.71.16-3.44.28-5.17.69,3.1,2.88,4.91,6.62,5.52,1.81.3,2.12,1.44,2.38,4,.32,3,.73,6,1.12,8.95.37,2.75.75,5.6,1.05,8.4.42,3.84,2.29,5.51,6.15,5.37s7.51-.11,11.18-.09c2.55,0,5.19,0,7.79,0a9,9,0,0,1,1,.09c1.26.16,3.61.46,4.26-2a.29.29,0,0,0,0-.09C92.25,209,95.2,210,99.65,210c.37,0,.79,0,1.18,0a9.43,9.43,0,0,1,2.14.05,9.78,9.78,0,0,0,1.79.18,4.94,4.94,0,0,0,3-.89c1.64-1.21,2.11-3.45,2.37-5.69.49-4.15,1.29-8.34,2-12.4.1-.5.19-1,.29-1.5,1,3.37,1.66,6.73,2.31,10l.07.37c2,10,2.44,10.32,12.78,9.89.35,0,.69,0,1,0,3.63-.25,5.9-2.15,6.57-5.48.56-2.8-.17-5.19-1.91-6.65a10.58,10.58,0,0,0,1.08.1c.44,0,.88.08,1.33.14-.69,4.11-.26,6.95,1.34,8.88,1.73,2.1,4.8,3,9.62,3l1.57,0a20.73,20.73,0,0,0,4.08-.18,15.21,15.21,0,0,1,3.39,0c3,.18,6.82.38,8.88-4.12a11.49,11.49,0,0,1,1.56-.07l1.51,0c2.28,0,4.63-.1,6.91,0a5.61,5.61,0,0,0,4.19-1.09,4.2,4.2,0,0,0,1.13-1.78c2.22,2.5,4.92,2.88,7.57,2.85l2,0c3.1,0,6.31-.08,9.44,0,1.92.09,3.18-.26,4.05-1.09s1.3-2.16,1.31-4.2c0-12.62,1-25.42,1.89-37.8.59-7.86,1.19-16,1.56-24,.15-3.37.39-6.82.63-10.15C209,119.66,209.63,110.67,208.73,101.94Zm-77.22,94.88a6.37,6.37,0,0,0-.66-.21c-2.3-.6-2.67-1.63-2.6-3.58a56.79,56.79,0,0,0-.54-8.59c-.58-5.11-1.13-9.93.69-15,1.12-3.1.6-6.7.11-10.18-.22-1.52-.44-3.1-.52-4.57,0-.23,0-.46,0-.7-.11-1.47-.13-2.41.73-3.16.4-.34.8-.69,1.18-1.05a2.65,2.65,0,0,0,.6,1.8c1,1.16,2.8,1.25,4.56,1.33a16.35,16.35,0,0,1,1.75.14,9.71,9.71,0,0,0,1.77.1c.28,0,.56,0,.84,0,7.6.37,14.46-1.83,19.82-4v9c0,10.56,0,20.54,0,30.75,0,.36,0,.74,0,1.13,0,1,.11,2.28-.35,2.69a2.41,2.41,0,0,1-1.83.16,11.36,11.36,0,0,0-3.48.14c-2.89.4-4.8.66-5.41-3.44-1-6.7-2.24-13.47-3.45-20q-.7-3.76-1.38-7.54c0-.21-.06-.45-.09-.69a3.77,3.77,0,0,0-1-2.71,2.28,2.28,0,0,0-1.76-.45,2.63,2.63,0,0,0-1.95,1,3.79,3.79,0,0,0-.14,3.14c.05.23.1.44.14.64.6,3.53,1.26,7.1,1.9,10.57.56,3,1.12,6.05,1.64,9.08.18,1,.45,2.06.72,3.09.64,2.43,1.29,4.94.54,6.46-.67,1.35-2.32,1.28-5,1a15.27,15.27,0,0,0-3.87-.09,4.63,4.63,0,0,1-.54,0c-.79,0-2.45.1-2.72,2A2.58,2.58,0,0,0,131.51,196.82ZM17.65,178.05a99.86,99.86,0,0,1-.5-13.74c3.36.75,5.23,1.19,5.86,2.08s.42,2.92,0,6.58c-.35,2.95-.69,5.89-1,8.84l-.77,6.54c0,.28-.05.57-.07.87-.12,1.81-.29,2.14-1.57,2.11-1.13,0-1.31-.36-1.29-2.25v-.43C18.24,185.09,17.94,181.52,17.65,178.05Zm1,20.64q0-.47,0-.9a1.43,1.43,0,0,1,.28-1.1,1.73,1.73,0,0,1,1.17-.31h.35l3.09.23c1.88.15,3.82.3,5.75.39,2.4.11,2.8.67,2.77,1.87,0,.79-.23,1.56-2.57,1.68-1.1.06-2.25.05-3.35,0H24.61l-1.61,0c-1.13,0-2.19,0-3.26,0S18.61,200.24,18.65,198.69ZM30,192.13c-1.71.31-2.86.2-3.41-.33-.81-.77-.67-2.71-.43-4.5.75-5.51,1.57-12,2-18.43.19-2.57,1.23-2.64,3.74-2.83l.41,0a2.31,2.31,0,0,1,1.53.24c.32.29.33,1.11.34,1.9,0,.23,0,.47,0,.7.28,6.45.59,12.91.91,19.65l.26,5.6-.42-.28c-1.4-.94-2.63-1.77-4.17-1.77A3.83,3.83,0,0,0,30,192.13Zm78.44-118.2a7.16,7.16,0,0,0-.29-1.26c1.15,1.13,2.39,2.18,3.61,3.21,1,.88,2.12,1.79,3.09,2.71.65.62,1.62,1.56,1.61,2,0,.2-.22.64-1.27,1.58-3.5,3.14-4.66,7.49-5.65,12.16a14.24,14.24,0,0,0-8.4-5.1A33.25,33.25,0,0,0,104,84a24.93,24.93,0,0,1,2.9-5.07A6.58,6.58,0,0,0,108.46,73.93ZM191.88,200.5l-1.95,0c-1.46,0-3,0-4.43,0a2,2,0,0,1-2.08-1.81c0-.46-.13-1.87,2.17-2.17a20.92,20.92,0,0,1,2.55-.13c2.81,0,6-.06,8.18-3.53a3.41,3.41,0,0,1,1.79-.09,1.15,1.15,0,0,1,.65.3c1,1.53.74,3.43.5,5.45-.06.55-.13,1.11-.16,1.65,0,.32,0,.44-1.34.44h-.45c-1.26,0-2.55,0-3.8,0h-.63v-.12Zm-7.32-49.78q1.81,11.42,3.61,22.83.44,2.85.84,5.7c.43,3,.87,6.09,1.41,9.12.24,1.34.17,2.22-.19,2.63a3.09,3.09,0,0,1-2.25.46,10.52,10.52,0,0,0-7.59,1.92c.3-15.21,2-30.35,3.79-45.06Zm15.17,33.6v.25a9.15,9.15,0,0,0,0,1.17c.09,1.68,0,2.13-1.2,2.28-2.23.3-3.17.16-3.55-2.49-1.78-12.46-3.79-25.1-5.72-37.32q-1.08-6.75-2.13-13.49c0-.18,0-.36-.06-.54a6.59,6.59,0,0,0-.13-1c-.06-.23-.11-.46-.15-.7-.27-1.37-.73-3.67-3.47-3.68h0c-3,0-3.18,2.56-3.25,3.93,0,.22,0,.43,0,.63q-1.25,13.65-2.47,27.3l-.31,3.54-.51,5.55c-.49,5.36-1,10.9-1.4,16.36-.08,1-.24,1.56-.51,1.79a1.9,1.9,0,0,1-1.33.22l-.94,0c-1.62,0-2.05-.09-2.14-1.45-.26-3.95-.58-8-.89-11.83-1.53-19-3.1-38.7,1.73-58,11,3.17,21.44,1.6,31.84-4.79,0,1.94,0,3.86.06,5.78.07,5.42.14,11-.14,16.46C202.13,151,200.91,167.91,199.73,184.32ZM175,199.38a1.28,1.28,0,0,1-.15.86c-.33.35-1.39.36-1.84.37h-3.67a6.38,6.38,0,0,0-2.58,0c-.94.11-1.92.22-2.32-.17-.2-.19-.51-.77-.36-2.42a2.45,2.45,0,0,0,0-.27s0-.06,0-.06h0c.69-1.4,8.76-4.94,10.33-4.56,1,.92.89,2.05.69,3.8A12,12,0,0,0,175,199.38ZM100.32,205c-.41,0-.83,0-1.24,0A20,20,0,0,1,96.5,205,1.63,1.63,0,0,1,95,203.21a1.74,1.74,0,0,1,1.61-2.09,22.71,22.71,0,0,1,8,.7c.57.12.65.14.55,1.36l0,.26c-.1,1.44-.39,1.53-.88,1.56-.86.06-1.73.05-2.65,0h-.22V205Zm-34.4-28.86c0-1.36,0-2.77,0-4.13.1-4.22.21-8.58-1.52-12.81l-1.74-4.25-.23,5.63c-.22,5.24-.45,10.66,1.52,15.94l1.12,3c-2.55-.6-5.13-1.33-7.77-2.23-2.26-.77-3-1.77-3-4.1-.13-6-.42-12.4-.91-20-.1-1.5.11-1.78.12-1.8a.52.52,0,0,1,.15,0,5,5,0,0,1,1.67.46c1.37.55,2.69,1,4,1.5l-3.49.25.05,1c.07,1.56.11,3.11.15,4.67.15,5.17.3,10.52,1.55,15.75l.19.83,3.17-.23-1.53-22.21c12.81,4.49,23.31,5.06,33.57,1.89a2.6,2.6,0,0,1,.79-.15h.14a3.93,3.93,0,0,1,.08,1.55c-.16,2.46-.34,4.92-.54,7.69l-.26,3.7v.5c0,.61,0,1.62,0,2.62-.11,4.8-.17,7.44-1.24,8.53s-3.7,1.24-8.5,1.49l-.52,0A62.74,62.74,0,0,1,66,179.66ZM43.53,158.32c-14.7,6.73-30,2.38-38-10.82-.13-.22-.29-.45-.44-.68-.69-1-1.07-1.65-.71-2.51.15-.36.29-.73.44-1.1s.32-.81.49-1.21l15.36-37.24c7.46,6.92,15.8,8.91,25.47,6.07.21-.06.44-.11.69-.16a4,4,0,0,0,2.82-1.47,3,3,0,0,0-1.07-3.81,3.44,3.44,0,0,0-2.9.4,5.33,5.33,0,0,1-.76.3c-7.48,2-13.8.87-19.32-3.58-3.16-2.54-4.23-4.93-3.51-8l6.06,2.31q8.31,3.18,16.68,6.35c3.74,1.41,6,2.27,6.4,3.3s-.75,3.35-2.68,7.16c-.32.64-.63,1.3-.93,2a32.42,32.42,0,0,1-1.7,3.33c-1.3,2.16-2.59,5.29,1.3,7.66,1.11.67,1,1.55.81,3.17,0,.29-.08.57-.11.85l-.1,1c-.63,6.06-1.27,12.33.26,18.6C49,154,47.66,156.42,43.53,158.32ZM56.92,66.86l0-.25C56.45,61,59.54,57.29,65,56.83c3-.25,4.42-1.62,5.69-3.74a9.45,9.45,0,0,1,6.23-4.64,8.58,8.58,0,0,1,1.6-.15,9.58,9.58,0,0,1,5.72,2c2.22,1.67,3.9,2.64,7.07,1.07s6.3-.7,8.45,2.3a6,6,0,0,1,0,7.65c-2.21,3-5.28,3.87-8.44,2.28s-5.13-.78-7.16,1.14a4.44,4.44,0,0,1-2.7,1.34c-2.46-.33-4.41.67-6.3,1.64s-3.46,1.77-5.48,1.45a3.24,3.24,0,0,0-3,1.08,5.89,5.89,0,0,0-.83,5.43l.54,1.93L67.57,76c1.17-1.53,1.6-2.1,2.45-2.43l0,.05a16.53,16.53,0,0,0-1.73,3.24c-.69,1.9-1.54,4.27,1.91,6a3.55,3.55,0,0,1,2,2.06,4,4,0,0,1-.4,2.95A3.6,3.6,0,0,1,67.44,90c-1.65-.37-3.55-1.42-3.22-4.36s-1-4-3.4-4.78c-4.31-1.37-5.62-4-4.23-8.48A13.85,13.85,0,0,0,56.92,66.86Zm70.16-23.7c5.1,0,10.87,2.49,13,5.94.76,1.22.62,1.58.62,1.58s-.16.24-1.12.32c-3.9.32-8.31,1.52-7.81,8,0,.7-.13,1.13-.34,1.25s-.67.08-1.39-.39c-3.31-2.14-6.63-1.88-9.86.77a2,2,0,0,1-1.45.56,2.36,2.36,0,0,1-1.46-1,7.35,7.35,0,0,0-4.66-3.14,1.63,1.63,0,0,1-1.12-.47,1.75,1.75,0,0,1,0-1.29l0-.15c.71-5.7,5.55-10.21,12.64-11.75A13.34,13.34,0,0,1,127.08,43.16Zm63.51,6.64a10.91,10.91,0,0,1,1.34,3l.21.61c4.58,13,7.39,26.69,10.11,39.93.6,2.94,1.2,5.88,1.83,8.81a3.4,3.4,0,0,1-1.32,3.47c-7.41,6.76-16.4,9.11-27.49,7.16-1.68-.29-2.92-1-3.15-1.69s.31-1.62,1.45-2.74c2.19-2.16.59-4.26-.37-5.52l-.12-.16q-1.56-2.07-3.12-4.17c-1.82-2.43-3.7-5-5.61-7.4-.92-1.18-.9-1.56-.91-1.56s.26-.31,1.81-.48c4.55-.5,9.15-1.15,13.61-1.77l3.73-.52c2-.27,4.94-.67,5.44-4.45.34-2.59.78-5.22,1.21-7.76C190.57,66.54,192,58.31,190.59,49.8ZM165,191.3a1,1,0,0,1-.65-.09c-.05-.05-.22-.26-.22-1.06q0-9.12,0-18.22V171l.08.85q.78,9,1.58,18.07C165.93,191.21,165.56,191.25,165,191.3ZM43,55.5a3.33,3.33,0,0,1-1.31-2.36,19.05,19.05,0,0,0,4.75,2.1C44.91,55.82,43.74,55.91,43,55.5Zm4.21,5.14a21,21,0,0,0,3.38-1.19l.57-.23c.07.46.13.92.2,1.37.6,4,1.17,7.68,0,11.42a5.31,5.31,0,0,0-.15,3.64c1.15,2.62.29,5-.62,7.5a19.8,19.8,0,0,0-1.24,4.48C49.26,88.75,49,89,48.92,89s-.4.16-1.44-.37a7.55,7.55,0,0,0-.93-.38l-.12,0c-5.52-2-8.29-3-9.3-4.67s-.53-4.58.41-10.37c.16-1,.25-2,.34-2.9a31.3,31.3,0,0,1,.46-3.49c1.25-6-.55-9.72-5.5-11.43,1.07-1,2.16-1.95,2.75-1.82.24.06.88.44,1.68,2.69C38.64,60.07,42.36,61.73,47.21,60.64Zm127.94-15c.37-1.73,1-2.84,1.75-3.3,1.17-.68,3-.09,4.93.54l.53.17a3.19,3.19,0,0,1,.48.19c-5.68,1.82-6.92,3.95-7.54,10.89l-.06.66c-.44,4.84-.9,9.84-1.13,14.79-.11,2.38-.84,3.16-3.25,3.49l-.24,0c-5.38.75-8.34,1.16-9.59.14s-1.48-4.35-1.82-9.82c0-.57-.08-1.13-.11-1.7-.31-4.44-.61-8.66,1.09-12.74.55.2,1.11.46,1.68.72a11.13,11.13,0,0,0,4.87,1.35C171.44,51,174.42,49,175.15,45.64Zm-7.28,58.24c1.19,1.51,1.2,2.14,0,3.35-4.31,4.52-8.54,9.25-12.64,13.82l-.86,1c-.89,1-1.32,1.13-1.5,1.1s-.54-.3-.86-.79a7.23,7.23,0,0,0-1.23-1.3c-.51-.45-1-.92-1-1.3a2.17,2.17,0,0,1,.79-1.28c2.82-2.81,5.51-5.83,8.11-8.74l1.09-1.22a7,7,0,0,1,.55-.53c.83-.75,2.36-2.13,1.13-4-2.37-3.52-5-6.94-7.51-10.25l-.79-1a2.1,2.1,0,0,0-1.52-.81,2.32,2.32,0,0,0-1.76.66c-.56.56-1.32,1.75-.06,3.54l.89,1.29a47.69,47.69,0,0,0,3.64,4.83c1.7,1.9,1.66,3-.25,5.38-4.45,5.68-10.21,10-15.78,14.28-1.61,1.22-3.21,2.44-4.79,3.69a18.94,18.94,0,0,0-3.1,3.37c-1.42,1.82-2.76,3.55-5,4.35a.65.65,0,0,1,0-.13,25.81,25.81,0,0,0-.79-2.81,14.1,14.1,0,0,0-7.63-8.16h.18a2.41,2.41,0,0,0,1.81-.66,3.34,3.34,0,0,0,.62-2.56l0-.38c0-2.09-.07-4.19-.1-6.29-.11-6-.22-12.12-.24-18.18a21.11,21.11,0,0,1,.76-6.11c.55-1.85,1.17-2.88,1.89-3.13s1.87.15,3.53,1.27c5.11,3.43,9.08,2.93,14.67-2.07.77,3.28,1.52,5.4,3.17,6.44,2,1.29,5,.68,10.16-.52,2.41-.56,4.26.06,5.48,1.84C161.72,96,164.88,100.1,167.87,103.88ZM92.23,145.23c-.25-.11-.56-.22-.9-.33-.74-.25-1.76-.59-2-1.12a2,2,0,0,1,.36-1.52c1.44-2.62,2.59-3.62,5.26-2.23l1.14.58a18.12,18.12,0,0,1,5.54,3.72,13.51,13.51,0,0,0,10.76,4.47A13.69,13.69,0,0,0,122.65,143a28.08,28.08,0,0,1,5.81-5.61c1.58-1.25,2.17-1.2,3.5.32a2.5,2.5,0,0,1,.84,1.71c-.06.47-.51,1-1.41,1.65-6.76,4.87-9.4,11.28-8.32,20.18.49,4.07,0,6.71-1.42,8.33-1.65,1.83-4.74,2.62-10.09,2.53l-.37,0a15.37,15.37,0,0,1-1.54-.1c-8.3-1.15-9.35-2.34-9.35-10.59,0-.18,0-.35,0-.53a3.32,3.32,0,0,1,0-.78C101.61,153.05,99,148.2,92.23,145.23ZM129.7,82.8,135.81,81a5.25,5.25,0,0,1-2.72,2.41A5,5,0,0,1,129.7,82.8Zm-15.36,32.13a27.46,27.46,0,0,0,.36,4.12l0,.34a3.57,3.57,0,0,0,1,2.32,13.49,13.49,0,0,0-5.42-.59A13.17,13.17,0,0,0,98.1,132.91c-.15,1.91-.53,2.4-.74,2.53-.51.31-2.1-.38-2.63-.6a15.5,15.5,0,0,1-4.81-3.78l-.29-.3A8.07,8.07,0,0,0,84,127.93a7.11,7.11,0,0,0-4.94,2.29c-1.54,1.49-2.42,1.47-4.12-.07a44.15,44.15,0,0,0-4.47-3.45c-3-2.15-5.88-4.17-6.76-6.76-.75-2.21,1.11-4.77,3.08-7.47A27.12,27.12,0,0,0,70,107.2c.3-.72.67-1.43,1.06-2.18,1.31-2.52,2.79-5.38,1.28-8.89a1.14,1.14,0,0,1-.11-.43.61.61,0,0,1,.29-.13c.22-.07.27-.08.81.58l.11.14c3.46,4.18,6.15,6,9,6.1,2.65.1,5.28-1.36,8.67-4.79,3.42,4.73,4,10.18,4.67,15.92.13,1.12.26,2.24.4,3.36a9.45,9.45,0,0,1-.07,1.94c-.16,1.59-.32,3.23.68,4.27a2.83,2.83,0,0,0,2.33.76,2.63,2.63,0,0,0,2-1c.88-1.13.58-2.79.28-4.41a10.07,10.07,0,0,1-.26-2,46.13,46.13,0,0,0-2.77-16.56,14.16,14.16,0,0,1,2.55,5.37,47.8,47.8,0,0,1,1.16,4.9c.28,1.41.57,2.88,1,4.3a6.08,6.08,0,0,1,.06,1.41c0,1.14-.06,2.44.86,3.25a2.81,2.81,0,0,0,2.41.5,2.2,2.2,0,0,0,1.48-.87c.68-1,.43-2.27.2-3.53a8.75,8.75,0,0,1-.2-1.45,6,6,0,0,0-.32-1.65,3.58,3.58,0,0,1-.23-1.17,5.4,5.4,0,0,0-.36-2.13c-.45-1.4-.5-1.71.67-2.15a3,3,0,0,1,1-.23s.06,0,.06,0a3.24,3.24,0,0,1,.2,1,4.19,4.19,0,0,0,.47,1.88,2.43,2.43,0,0,0,2.44,1.49c2.19-.27,2.21-2.19,2.22-3.12v-.11c0-1.17,0-2.34,0-3.51,0-2,0-4,.09-6a15.5,15.5,0,0,1,.2-2.2v1.25C114.32,103.5,114.31,109.22,114.34,114.93Zm29.92,8.94c2.37.1,3.59,1.22,3.61,3.31a3.76,3.76,0,0,1-1.05,2.77,3.39,3.39,0,0,1-2.57.93,4.18,4.18,0,0,1-3.82-4.33C140.42,126,140.41,124.4,144.26,123.87ZM74,139a2,2,0,0,1,1.42-1.68l.3-.06a3,3,0,0,1,.18.65,5.37,5.37,0,0,0,.29,1c.47,1,.95,2.07,1.44,3.13l.49,1.08a.35.35,0,0,1-.08.15,1.29,1.29,0,0,1-.81,0,4.18,4.18,0,0,1-2.88-1.45A3.75,3.75,0,0,1,74,139Zm28.83-3.92a8.84,8.84,0,0,1,8.58-9h.2a8.64,8.64,0,0,1,6,2.42,9,9,0,0,1-5.87,15.37,8.52,8.52,0,0,1-6.15-2.42A8.91,8.91,0,0,1,102.79,135.09ZM84,133.45h.15c1.26,0,2.1,1.22,3,2.45l.43.58c-1.12,2.29-2.27,3.17-3.94,3.1a2.53,2.53,0,0,1-1.85-.75,2.92,2.92,0,0,1-.6-2.17C81.27,135.05,82.19,133.45,84,133.45Zm51.21-3a.42.42,0,0,1,.29-.13.45.45,0,0,1,.16,0c.93.27,1.79,1.34,2.62,2.38.3.37.59.73.89,1.06-.07.8-.46,1-1.37,1.16a2.5,2.5,0,0,1-3.19-2.2A2.88,2.88,0,0,1,135.2,130.4ZM81.58,97.64a3.34,3.34,0,0,1-2-1.24l.91.17a25.94,25.94,0,0,0,3.15.46A3.43,3.43,0,0,1,81.58,97.64Zm24.21,4.28c-.23.12-.39.15-.45.12s-.3-.2-.64-1.09a23.21,23.21,0,0,0-4.34-6.56c3.46.26,5.12,2.45,6.42,5.62C107.08,100.75,107,101.28,105.79,101.92ZM85,74.16a2.84,2.84,0,0,1,2.08.75,3,3,0,0,1,.8,2.31c0,2.11-1.57,2.72-2.88,2.86-2.46-.16-2.86-1.61-2.94-2.69A3.12,3.12,0,0,1,82.72,75a3,3,0,0,1,2.17-.85ZM92.69,71c-1.32.49-2.9-.29-4.58-1.1-.55-.27-1.11-.54-1.68-.78,1.41-1.16,3-.81,5-.36a15,15,0,0,0,3.21.47A4.18,4.18,0,0,1,92.69,71ZM74,76.31a3.12,3.12,0,0,1,2.11-1h0c.85,0,1,1,1,1.46.12,5.3,3.11,8.28,8.07,8.21,3,0,6.7-1.35,7.81-7.06a8.69,8.69,0,0,0,5.63,4.83,2.09,2.09,0,0,1,.62.25h0a3.45,3.45,0,0,1-.38,1l-.22.46c-1.7,3.77-6.06,7-10.85,8-3.57.77-6.68.18-8.76-1.66-2.45-2.17-3.47-6.31-4.46-10.32-.29-1.18-.59-2.4-.92-3.53C73.58,76.89,73.63,76.66,74,76.31ZM54.35,97.08a3.44,3.44,0,0,1,2.4-.84h.19c2.43.09,3.36.83,3.37,2.72-.11.33-.2.69-.3,1-.52,2-.89,3-2.79,3h-.11A4,4,0,0,1,54.18,102a3.36,3.36,0,0,1-.81-2.51A3.32,3.32,0,0,1,54.35,97.08Zm93.06-10h-.08c-2,.19-2.37-1-2.72-4l-.05-.42a2.69,2.69,0,0,1,.42-2.18,3.38,3.38,0,0,1,2.52-.74h.24c2.82.07,4.22,1.34,4.16,3.76S150.34,87.08,147.41,87.11ZM125.83,68.54a2.72,2.72,0,0,1-2-.6,2.64,2.64,0,0,1-.67-2,2.26,2.26,0,0,1,2.52-2.41h0a2.52,2.52,0,0,1,.17,5Zm-9.48,1.14a5.63,5.63,0,0,0,1.83-2.24c1.31,4.29,3.85,6.29,7.71,6.12a7.28,7.28,0,0,0,7.26-6.22,17.85,17.85,0,0,0,6.69,3.77,15.65,15.65,0,0,1-10.19,6.48,15.87,15.87,0,0,1-12.88-3.65c-.9-.77-2.15-1.83-2.09-2.55C114.72,70.92,115.31,70.31,116.35,69.68Zm-16,2.31c1.07,0,2.51.29,2.88,2.71-.09,2.07-1.1,3.13-3,3.15h-.05a2.67,2.67,0,0,1-2.85-2.78,2.69,2.69,0,0,1,3-3.08ZM61.1,92.66c-2.38-.27-4.27-.49-6.1-.87-.42-.08-1.3-.27-.85-2.4.29-1.45.61-2.89.93-4.37l.24-1.1c2.75.57,3.6,2.53,4.64,5A18.76,18.76,0,0,0,62,92.76ZM165.31,78.79c2.25-.34,4.57-.7,6.86-.88,4.69-.39,6.81-2.58,6.86-7.11,0-3.87.43-7.81.8-11.63.12-1.24.25-2.48.36-3.72s.35-2.58.59-3.85l.18-1a2.76,2.76,0,0,1,2.55-2.37,1.94,1.94,0,0,1,.33,0c.78,0,1.07.5,1.6,2l.16.46a14.88,14.88,0,0,1,.6,5.05c0,.77,0,1.56.06,2.38a158.34,158.34,0,0,1-2.42,18.61l-.44,2.62c-.3,1.8-.88,2.39-2.56,2.6-8,1-14.61,2-20.77,2.94-2.08.33-2.63-.11-3.06-2.52a3,3,0,0,1,.13-2.1c.27-.36,1-.59,2.19-.71C161.34,79.39,163.36,79.09,165.31,78.79ZM51.2,120.11c1.56-2.92,3.07-5.92,4.54-8.83l1.11-2.2c.48-1,.74-1.41,1.35-1.52,4.27-.71,5.32-4.07,6.25-7l.15-.5c.09-.26.15-.54.22-.82.26-1.12.39-1.65,1.63-1.77a1.61,1.61,0,0,1,1.07.82,3.31,3.31,0,0,1-.4,2.64c-2,4.09-4.31,8.39-7.25,13.53l-.11.19c-3.64,6.37-3.53,6.91,2.39,11.75.7.58,1.38,1.17,2.07,1.76a48.31,48.31,0,0,0,4.57,3.64c.8.54,1.24,1.05,1.32,1.52.13.69-.47,1.58-1.32,2.76-.44.62-.79.85-1,.86s-.8-.5-1.18-.89a8.16,8.16,0,0,0-.75-.71c-2-1.63-4-3.33-5.91-5-2.67-2.28-5.44-4.64-8.25-6.86C50.33,122.37,50.37,121.67,51.2,120.11Zm40.92,71.07a14.29,14.29,0,0,0,.28-2.24c.19-2.54.41-3.89,3.08-4.29A2.66,2.66,0,0,0,97,184c0,2.53,0,5,0,7.52a1.92,1.92,0,0,1-.31,1.25c-.31.3-1.09.28-1.84.28a11,11,0,0,0-1.28,0,1.74,1.74,0,0,1-1.34-.24A2.08,2.08,0,0,1,92.12,191.18Zm77.1-145.77a4.35,4.35,0,0,1-5.05-.25,15.72,15.72,0,0,0,7-3.11A3.48,3.48,0,0,1,169.22,45.41Zm7.36-13.93a1.31,1.31,0,0,1-.28.24,3.73,3.73,0,0,1,.73-1.46,9.66,9.66,0,0,0,.7-1.18,8.81,8.81,0,0,0-1.1-9.95,6.25,6.25,0,0,0-4.82-2.47,7.1,7.1,0,0,0-3.63,1.09c-.85.5-.93.46-1.71-.86a7,7,0,0,0-4.25-3.56c-1.86-.45-4,.09-6.47,1.66a20.61,20.61,0,0,0-3,2.16c-2.6,2.39-5.08,3-7.58,1.89-2.13-.94-2.5-3-2.93-5.29-.11-.57-.21-1.13-.34-1.68-.36-1.49.08-1.74.79-2,1.82-.54,3.64-1.17,5.4-1.78,5.49-1.91,10.66-3.7,16.42-3.32,6.46.43,10.67,3.64,12.88,9.82C179.55,20.75,181.56,26.35,176.58,31.48Zm-27.41-5.67c.15-1.2.32-1.36.67-1.43a13.23,13.23,0,0,0,5.76-3.17c.6-.48,1.16-.93,1.76-1.34,1.59-1.11,2.65-1.63,3.35-1.63a1.12,1.12,0,0,1,.32,0c.67.2,1.35,1.21,2.21,3.27a19.87,19.87,0,0,1,.7,2.1c.17.54.33,1.09.52,1.62l.09.26c.28.85.82,2.42,2.67,2.42h0c2.23,0,2.43-2,2.53-3,.22-2.16.44-3,1.91-3.11.26,0,1-.08,1.63,1.32.39.91,1.13,3.13-.54,4.11-2.6,1.52-2.36,3.2-2.1,5,0,.22.07.45.1.69a5.22,5.22,0,0,1-1.5,4,10.25,10.25,0,0,1-7.36,3.26h-.06c-3.15,0-6.58-1.8-9.17-4.75S148.78,28.92,149.17,25.81Zm-6.5,50.7c.59-1.9,1.77-3.14,2.87-3.33a5,5,0,0,1,.76-.06A6.63,6.63,0,0,1,151,75.54C148.11,75,145.33,74.86,142.67,76.51ZM145.16,66c-.24-1.47-.14-2.56.32-3.1,1.78-2.09,1.86-3.95.24-6a4.55,4.55,0,0,0-2.63-1.73,9.06,9.06,0,0,0,3.17-1.76C148.17,58.07,147.7,63.19,145.16,66Zm-31.69-1.38c-.06,1.65-.87,2.49-2.43,2.42a2.72,2.72,0,0,1-2-.78,2.59,2.59,0,0,1-.53-2A2.38,2.38,0,0,1,111.11,62,2.29,2.29,0,0,1,113.47,64.59Zm-71.1-19c-1.35-4-2.19-7.38.09-10.55A2.72,2.72,0,0,1,45,33.93c.4,0,.84,0,1.33.08a10.15,10.15,0,0,0,1.82.07c3.12.41,6.68.65,9.73-1.45a2.2,2.2,0,0,1,1.42-.55c.43.12.87,1,1.16,1.63,1.55,3.4.94,7.78-1.58,11.43S52.58,50.79,49,50.55A6.81,6.81,0,0,1,42.37,45.63Zm13-17.4c-1.59,1.52-3.78,1.28-6.08,1-.61-.07-1.21-.13-1.8-.17-7.39-.44-10.88,2.63-11.34,10a9.58,9.58,0,0,0,.13,1.81,6.55,6.55,0,0,1,.09,1.83h-.08c-3.15-.26-6.83-.89-7.21-3.54-1.31-9.15.6-16.15,5.84-21.4a17.89,17.89,0,0,1,12.9-5.62,20.49,20.49,0,0,1,5.87.9,41.59,41.59,0,0,1,11.2,5.56,8.22,8.22,0,0,1,3.45,6.19,12,12,0,0,1-2.64,8.49.61.61,0,0,0,0-.12,23.58,23.58,0,0,0-1.22-2.61c-1-1.82-2.33-4.08-4.47-4.39C58.55,26,57.05,26.63,55.37,28.23ZM31.91,60.55a1.43,1.43,0,0,1,.39.06c1.2.3,1.57,1.14,1.51,3.43-.24,1.69-.47,3.39-.71,5.08-.54,4-1.11,8.06-1.83,12-.61,3.4-.5,7.07,4.92,8.51a61.46,61.46,0,0,1,7.45,2.7c1.33.55,2.71,1.11,4.08,1.62,1,.35,1.51.69,1.62,1A1.56,1.56,0,0,1,49,96.13a9,9,0,0,0-.56,1.23c-.23.59-.47,1.19-.79,1.33-.16.07-.56.12-1.45-.26-4.67-2-9.48-3.76-14.14-5.49L27.18,91.1c-1.37-.52-1.59-1-1.53-1.87.15-1.89.25-3.78.36-5.67.33-6.06.67-12.33,2.54-18.24a12.11,12.11,0,0,1,1.13-2.5l.14-.23C30.61,61.26,31.13,60.55,31.91,60.55Zm21,75.83c.17-1.32.37-2.77.57-4.43l4.43,3.6c4.62,3.75,9,7.3,13.48,10.8,1.63,1.27,6.58,5.13,10.66.4,1.33-1.54,1.66-1.26,3.31.09a17.23,17.23,0,0,0,2.34,1.55,14.36,14.36,0,0,1,2.72,1.89c-6.2,2-12.81,2.14-20.66.48a38,38,0,0,1-5.14-1.44c-2.09-.75-3.83-1.32-5.36-1.83-3.89-1.29-5.85-1.93-6.54-3.13S52.29,140.74,52.87,136.38Zm29.21,56.69c-2.09,0-2.61,0-2.67-2.16,0-1.76.27-2.95,1-3.66.88-.91,2.54-1.11,4.75-1.12.69,0,1.83,0,2.08.27,0,.07.22.36,0,1.33a19.57,19.57,0,0,0-.23,2c-.12,1.39-.25,2.83-.9,3.31a2.49,2.49,0,0,1-2,.12h-.11a14.8,14.8,0,0,0-1.72-.07Zm-19-7.64a7,7,0,0,1,.15-.75,2.32,2.32,0,0,1,.84.11c.45.1.9.22,1.36.34a18.24,18.24,0,0,0,5.24.8c1.71-.07,2.88.21,3.46.85s.8,2.11.44,4.6a2.49,2.49,0,0,1-.67,1.64c-.38.28-1.1.16-1.86,0a9.23,9.23,0,0,0-1.4-.15,2.74,2.74,0,0,0-1.13.21c-2.63,0-4.4-.6-5.39-1.72S62.75,188.26,63.09,185.43Zm2.06,12.92c.22-.26.91-.31,1.65-.31h.62c1.27,0,2.55,0,3.83,0h.68v.15h1l2.16,0a47,47,0,0,1,4.75.07c2,.17,3.09,1.35,2.93,3.24a2.7,2.7,0,0,1-3,2.65h0c-3.59,0-7.44-.08-12.48-.18-1.83,0-2-.71-2-2.66a11.62,11.62,0,0,0-.14-1.66A1.79,1.79,0,0,1,65.15,198.35Zm40.62-1.61a2.05,2.05,0,0,1-1.39,0l-.59-.13c-1.67-.35-2.15-.52-2.06-2,.37-6,.5-12.09.62-17.5,0-1.35.28-1.58.33-1.62a.54.54,0,0,1,.29-.05,4.47,4.47,0,0,1,1.38.31,22.25,22.25,0,0,0,15.85,0c.92-.35,1.36-.33,1.47-.25.28.18.37,1.41.41,1.87.25,3.55.54,7.1.83,10.65l.34,4.27c0,.4.06.8.1,1.21.2,2.07.29,3-2.08,3.25-1.78.18-2.08,0-2.3-1.5-.49-3.22-1.14-6.46-1.76-9.59-.25-1.23-.49-2.45-.73-3.68-.28-1.48-.8-4.25-4-4.06-2.81.16-3.27,2.62-3.52,3.94s-.55,2.83-.84,4.25c-.58,2.94-1.19,6-1.67,9C106.27,196,106.06,196.54,105.77,196.74ZM136.89,148a9.05,9.05,0,0,1-1.81-.46,10.53,10.53,0,0,0-2.34-.58c.52-.53,1-1.06,1.53-1.59a56.11,56.11,0,0,1,7.65-7.1,25.56,25.56,0,0,1,3.59-2.05,19.45,19.45,0,0,0,5.74-3.84,110.94,110.94,0,0,1,8.71-8l2.22-1.9a103.68,103.68,0,0,1-.6,13.51c-.16,1.76-.31,3.53-.43,5.3-.06.76-.51,1.05-1.6,1.58l-.54.27A41.93,41.93,0,0,1,136.89,148ZM104.7,68.22a13.85,13.85,0,0,1-2.39-2c0-.22.52-.65,1.17-1.18a13.66,13.66,0,0,0,1.25,3.2ZM45.62,200.57h-1v0h-.07c-.81,0-1.63,0-2.46,0a1.91,1.91,0,0,1-1.36-.29c-.4-.38-.44-1.37-.45-2.27a1.84,1.84,0,0,1,.36-1.35,1.93,1.93,0,0,1,1.31-.33l.47,0c1.09.07,2.18.17,3.27.28,1.36.12,2.76.26,4.15.33,2.07.1,2.49.69,2.55,1.73,0,.85-.1,1.68-2.35,1.82-1,.06-2,0-3,0Zm-2.9-36.71a16.37,16.37,0,0,0,2.49-.65l-.42,5.93c-.51,7.21-1,14.08-1.45,21-.07,1-.31,1.34-1.55,1.3s-1.56-.37-1.6-1.33c-.1-2.49-.24-5-.38-7.46-.29-5.23-.6-10.65-.52-15.94C39.32,164.65,40.37,164.35,42.72,163.86Zm81.94,41.25a8.42,8.42,0,0,0-1.81,0c-1.07.09-1.69.11-2.13-.4a2.22,2.22,0,0,1-.24-2.81c.54-.55,3.11-.85,5.43-.85,1.8,0,3.45.18,3.91.57a1.84,1.84,0,0,1,.13,2.68c-.77.88-1.72.87-3.22.79A11,11,0,0,0,124.66,205.11Zm15.62-3.51a3.33,3.33,0,0,1,.82-2.53,4.64,4.64,0,0,1,3.24-1h.14c1.49,0,3,0,4.47,0h3.53c1,0,2,0,3,0h.45c1.19,0,2.33-.08,2.81.41a3.24,3.24,0,0,1,.44,2.18c-.09,1.73-.22,3.11-.92,3.73a3.55,3.55,0,0,1-2.55.54c-2.6-.14-5.23,0-7.77.06-1.08,0-2.16.09-3.23.11C141.87,205.12,140.34,204,140.28,201.6ZM90,204.5a4.58,4.58,0,0,0-1.75-.45,5.35,5.35,0,0,1-.78-.12v-.27a4.17,4.17,0,0,0,0-.5c-.13-2.17-.26-4.42.22-4.84s2-.14,3.7.18A11.36,11.36,0,0,0,90,204.5Z"/><polygon class="cls-1" points="157.3 168.79 154.34 168.84 154.34 189.68 157.3 189.42 157.3 168.79"/></g></g></svg>