<svg xmlns="http://www.w3.org/2000/svg" xmlns:xlink="http://www.w3.org/1999/xlink" viewBox="0 0 381.04 206.91"><defs><style>.cls-1{fill:none;}.cls-2{isolation:isolate;}.cls-3{fill:#f6f6f6;}.cls-4{fill:#0f2e35;}.cls-5{fill:#68a9b9;}.cls-6{fill:#cde2e9;}.cls-7{fill:#6c2910;}.cls-25,.cls-8{fill:#fff;}.cls-26,.cls-9{fill:#05708b;}.cls-34,.cls-38,.cls-42,.cls-9{mix-blend-mode:multiply;}.cls-10{fill:#f7f9fd;}.cls-11{fill:#1d363c;}.cls-12{fill:#e95314;}.cls-13{fill:#ddd;}.cls-13,.cls-25,.cls-40{mix-blend-mode:soft-light;}.cls-14{clip-path:url(#clip-path);}.cls-15{fill:#bacfed;}.cls-16{fill:#f8bc96;}.cls-17{fill:#cfdff4;}.cls-18{fill:#f9be83;}.cls-19{fill:#f7ad70;}.cls-20{fill:#b1c9ea;}.cls-21{fill:#1a1a1a;}.cls-22{fill:#313131;}.cls-23{fill:#f3fafc;}.cls-24{fill:#c88a5e;}.cls-27{fill:#3b91a5;}.cls-28{fill:#258399;}.cls-29{fill:#b08868;}.cls-30{fill:#f4e7dd;}.cls-31{fill:#a4856b;}.cls-32{fill:#4b3c32;}.cls-33{clip-path:url(#clip-path-2);}.cls-34{fill:url(#linear-gradient);}.cls-35{fill:#041c22;}.cls-36{fill:#83b9c6;}.cls-37{fill:#7f7f74;}.cls-39{fill:#c0bd99;}.cls-40{fill:#a4a096;}.cls-41{fill:#a1a08b;}.cls-42{fill:url(#linear-gradient-2);}.cls-43{fill:#fdce75;}.cls-44{fill:#b2b095;}.cls-45{fill:#fbcda1;}.cls-46{fill:#f49a53;}</style><clipPath id="clip-path"><rect class="cls-1" x="224.94" y="165.29" width="8.74" height="11.17"/></clipPath><clipPath id="clip-path-2"><circle class="cls-1" cx="184.85" cy="104.2" r="93.22" transform="translate(-19.54 161.23) rotate(-45)"/></clipPath><linearGradient id="linear-gradient" x1="-2039.04" y1="67.18" x2="-2027.6" y2="62.19" gradientTransform="matrix(-1, 0, 0, 1, -1813.23, 0)" gradientUnits="userSpaceOnUse"><stop offset="0" stop-color="#b5bfbf"/><stop offset="1" stop-color="#fff"/></linearGradient><linearGradient id="linear-gradient-2" x1="2646.9" y1="692.54" x2="2620.33" y2="709.85" gradientTransform="translate(-2317.06 1279.06) rotate(-40.56)" gradientUnits="userSpaceOnUse"><stop offset="0" stop-color="#b4b4b4"/><stop offset="0.16" stop-color="#c3c3c3"/><stop offset="0.44" stop-color="#d7d6d6"/><stop offset="0.72" stop-color="#e3e2e2"/><stop offset="1" stop-color="#e7e6e6"/></linearGradient></defs><g class="cls-2"><g id="Capa_2" data-name="Capa 2"><g id="Capa_1-2" data-name="Capa 1"><path class="cls-3" d="M117,11.19c49.51-2.86,101.43,12.06,93.8,33.68s40.8-7.68,60.12.11c13.76,5.55,8.26,22.45,14.92,29.26,15.26,15.61,30.87-4,50.29,7.74s11.35,122.09,3.44,122.07L40,203.5l-3.58.12s-22-31.68-2.08-50.18,6.23-27,3.81-34.11c-2.77-8.21-9.25-22.55,19-33.07S78.06,52.85,77.37,48.11s-9.89-34,39.63-36.92Z"/><rect class="cls-4" y="204.74" width="381.04" height="2.17"/><circle class="cls-3" cx="184.85" cy="104.2" r="93.22" transform="translate(-19.54 161.23) rotate(-45)"/><path class="cls-5" d="M284.24,108.22a.68.68,0,0,1-.66-.69.67.67,0,1,1,1.34,0A.65.65,0,0,1,284.24,108.22Z"/><path class="cls-5" d="M284,112.24a.67.67,0,0,1-.62-.72.68.68,0,0,1,.72-.62.67.67,0,0,1-.1,1.34Z"/><path class="cls-5" d="M283.59,116.24a.65.65,0,0,1-.58-.74.68.68,0,0,1,.75-.59.65.65,0,0,1,.58.74A.67.67,0,0,1,283.59,116.24Z"/><path class="cls-5" d="M283,120.23a.66.66,0,0,1-.55-.76.67.67,0,1,1,.55.76Z"/><path class="cls-5" d="M282.33,124.19a.69.69,0,0,1-.54-.79.66.66,0,0,1,.78-.53.68.68,0,0,1,.54.79A.65.65,0,0,1,282.33,124.19Z"/><path class="cls-5" d="M281.44,128.11a.69.69,0,0,1-.51-.81.67.67,0,0,1,1.31.32A.65.65,0,0,1,281.44,128.11Z"/><path class="cls-5" d="M280.39,132a.68.68,0,0,1-.47-.83.69.69,0,0,1,.84-.46.67.67,0,0,1-.37,1.29Z"/><path class="cls-5" d="M279.19,135.84a.66.66,0,0,1-.42-.84.68.68,0,0,1,.85-.43.65.65,0,0,1,.43.84A.68.68,0,0,1,279.19,135.84Z"/><path class="cls-5" d="M277.85,139.63a.65.65,0,0,1-.38-.86.68.68,0,0,1,.86-.39.66.66,0,0,1,.4.86A.69.69,0,0,1,277.85,139.63Z"/><path class="cls-5" d="M276.36,143.37a.69.69,0,0,1-.36-.88.66.66,0,0,1,.87-.36.68.68,0,0,1,.37.88A.66.66,0,0,1,276.36,143.37Z"/><path class="cls-5" d="M274.7,147a.69.69,0,0,1-.33-.9.66.66,0,0,1,.88-.32.67.67,0,0,1,.34.89A.66.66,0,0,1,274.7,147Z"/><path class="cls-5" d="M272.89,150.63a.67.67,0,1,1,.61-1.19.67.67,0,0,1-.61,1.19Z"/><path class="cls-5" d="M270.94,154.15a.67.67,0,0,1-.25-.91.68.68,0,0,1,.92-.25.67.67,0,1,1-.67,1.16Z"/><path class="cls-5" d="M268.86,157.59a.66.66,0,0,1-.21-.92.69.69,0,0,1,.93-.21.66.66,0,0,1,.21.92A.67.67,0,0,1,268.86,157.59Z"/><path class="cls-5" d="M266.64,161a.65.65,0,0,1-.16-.92.68.68,0,0,1,.93-.18.66.66,0,0,1,.18.93A.69.69,0,0,1,266.64,161Z"/><path class="cls-5" d="M264.3,164.22a.68.68,0,0,1-.14-.94.66.66,0,0,1,.93-.14.69.69,0,0,1,.15,1A.67.67,0,0,1,264.3,164.22Z"/><path class="cls-5" d="M261.81,167.39a.69.69,0,0,1-.11-.95.67.67,0,0,1,.94-.11.68.68,0,0,1,.11.95A.67.67,0,0,1,261.81,167.39Z"/><path class="cls-5" d="M259.19,170.44a.69.69,0,0,1-.06-.95.67.67,0,1,1,.06.95Z"/><path class="cls-5" d="M256.46,173.4a.67.67,0,0,1,.93-1,.66.66,0,0,1,0,.94A.68.68,0,0,1,256.46,173.4Z"/><path class="cls-5" d="M253.62,176.24a.66.66,0,0,1,0-.94.68.68,0,0,1,1,0,.66.66,0,0,1,0,.94A.67.67,0,0,1,253.62,176.24Z"/><path class="cls-5" d="M250.66,179a.67.67,0,0,1,.06-.94.69.69,0,0,1,.95.06.65.65,0,0,1,0,.94A.68.68,0,0,1,250.66,179Z"/><path class="cls-5" d="M247.61,181.59a.67.67,0,0,1,1-.86.7.7,0,0,1-.08,1A.67.67,0,0,1,247.61,181.59Z"/><path class="cls-5" d="M244.44,184.08a.69.69,0,0,1,.12-1,.67.67,0,0,1,.94.12.69.69,0,0,1-.12.95A.67.67,0,0,1,244.44,184.08Z"/><path class="cls-5" d="M241.17,186.42a.68.68,0,0,1,.16-.94.66.66,0,0,1,.93.17.67.67,0,0,1-1.09.77Z"/><path class="cls-5" d="M237.81,188.64a.67.67,0,0,1,1.13-.73.67.67,0,0,1-.2.93A.68.68,0,0,1,237.81,188.64Z"/><path class="cls-5" d="M234.37,190.72a.67.67,0,1,1,.92.25A.68.68,0,0,1,234.37,190.72Z"/><path class="cls-5" d="M230.85,192.67a.66.66,0,0,1,.28-.9.68.68,0,0,1,.91.29.65.65,0,0,1-.28.9A.68.68,0,0,1,230.85,192.67Z"/><path class="cls-5" d="M227.26,194.48a.67.67,0,0,1,1.2-.59.68.68,0,0,1-.3.91A.67.67,0,0,1,227.26,194.48Z"/><path class="cls-5" d="M223.59,196.14a.68.68,0,0,1,.34-.89.66.66,0,0,1,.88.34.67.67,0,0,1-.34.89A.66.66,0,0,1,223.59,196.14Z"/><path class="cls-5" d="M219.85,197.63a.68.68,0,0,1,.38-.87.67.67,0,1,1-.38.87Z"/><path class="cls-5" d="M216.06,199a.67.67,0,0,1,1.27-.43.66.66,0,0,1-.42.85A.67.67,0,0,1,216.06,199Z"/><path class="cls-5" d="M212.22,200.17a.67.67,0,0,1,.45-.83.69.69,0,0,1,.84.46.66.66,0,0,1-.46.83A.68.68,0,0,1,212.22,200.17Z"/><path class="cls-5" d="M208.33,201.22a.67.67,0,0,1,.49-.81.7.7,0,0,1,.82.49.67.67,0,0,1-.49.82A.69.69,0,0,1,208.33,201.22Z"/><path class="cls-5" d="M204.41,202.11a.69.69,0,0,1,.52-.8.66.66,0,0,1,.79.51.69.69,0,0,1-.52.81A.66.66,0,0,1,204.41,202.11Z"/><path class="cls-5" d="M200.45,202.82a.67.67,0,1,1,.77.55A.66.66,0,0,1,200.45,202.82Z"/><path class="cls-5" d="M196.46,203.37a.68.68,0,0,1,.58-.75.67.67,0,1,1-.58.75Z"/><path class="cls-5" d="M192.46,203.77a.66.66,0,0,1,.61-.72.69.69,0,0,1,.73.62.67.67,0,0,1-.62.72A.68.68,0,0,1,192.46,203.77Z"/><path class="cls-5" d="M188.44,204a.66.66,0,0,1,.64-.69.68.68,0,0,1,.7.64.65.65,0,0,1-.64.7A.69.69,0,0,1,188.44,204Z"/><path class="cls-5" d="M184.42,204.12a.69.69,0,0,1,.67-.69.66.66,0,0,1,.67.65.68.68,0,0,1-.67.69A.65.65,0,0,1,184.42,204.12Z"/><path class="cls-5" d="M180.4,204a.68.68,0,0,1,.69-.66.67.67,0,1,1-.05,1.34A.65.65,0,0,1,180.4,204Z"/><path class="cls-5" d="M176.38,203.77a.67.67,0,0,1,.72-.62.69.69,0,0,1,.62.72.67.67,0,0,1-1.34-.1Z"/><path class="cls-5" d="M172.38,203.37a.65.65,0,0,1,.74-.58.68.68,0,0,1,.59.75.65.65,0,0,1-.74.58A.67.67,0,0,1,172.38,203.37Z"/><path class="cls-5" d="M168.39,202.82a.67.67,0,1,1,.56.78A.68.68,0,0,1,168.39,202.82Z"/><path class="cls-5" d="M164.43,202.11a.69.69,0,0,1,.79-.54.66.66,0,0,1,.53.78.68.68,0,0,1-.79.54A.64.64,0,0,1,164.43,202.11Z"/><path class="cls-5" d="M160.51,201.22a.68.68,0,0,1,.81-.51A.67.67,0,0,1,161,202,.65.65,0,0,1,160.51,201.22Z"/><path class="cls-5" d="M156.62,200.17a.67.67,0,0,1,.83-.47.69.69,0,0,1,.46.84.67.67,0,0,1-1.29-.37Z"/><path class="cls-5" d="M152.78,199a.66.66,0,0,1,.84-.42.68.68,0,0,1,.43.85.65.65,0,0,1-.84.43A.68.68,0,0,1,152.78,199Z"/><path class="cls-5" d="M149,197.63a.64.64,0,0,1,.85-.38.68.68,0,0,1,.4.86.66.66,0,0,1-.86.4A.68.68,0,0,1,149,197.63Z"/><path class="cls-5" d="M145.25,196.14a.68.68,0,0,1,.88-.36.66.66,0,0,1,.36.87.68.68,0,0,1-.88.37A.66.66,0,0,1,145.25,196.14Z"/><path class="cls-5" d="M141.58,194.48a.69.69,0,0,1,.9-.33.66.66,0,0,1,.32.88.67.67,0,0,1-.89.34A.66.66,0,0,1,141.58,194.48Z"/><path class="cls-5" d="M138,192.67a.67.67,0,1,1,.29.9A.65.65,0,0,1,138,192.67Z"/><path class="cls-5" d="M134.47,190.72a.67.67,0,0,1,.91-.25.68.68,0,0,1,.25.92.67.67,0,1,1-1.16-.67Z"/><path class="cls-5" d="M131,188.64a.66.66,0,0,1,.92-.21.68.68,0,0,1,.2.93.65.65,0,0,1-.92.21A.68.68,0,0,1,131,188.64Z"/><path class="cls-5" d="M127.67,186.42a.65.65,0,0,1,.92-.16.68.68,0,0,1,.18.93.66.66,0,0,1-.93.18A.69.69,0,0,1,127.67,186.42Z"/><path class="cls-5" d="M124.4,184.08a.67.67,0,0,1,.93-.14.66.66,0,0,1,.15.93.68.68,0,0,1-1,.15A.66.66,0,0,1,124.4,184.08Z"/><path class="cls-5" d="M121.23,181.59a.69.69,0,0,1,1-.11.67.67,0,0,1,.11.94.68.68,0,0,1-1,.11A.66.66,0,0,1,121.23,181.59Z"/><path class="cls-5" d="M118.18,179a.69.69,0,0,1,.95-.06.67.67,0,1,1-.95.06Z"/><path class="cls-5" d="M115.22,176.24a.67.67,0,1,1,1,.93.66.66,0,0,1-.94,0A.68.68,0,0,1,115.22,176.24Z"/><path class="cls-5" d="M112.38,173.4a.66.66,0,0,1,.94,0,.68.68,0,0,1,0,1,.66.66,0,0,1-.94,0A.67.67,0,0,1,112.38,173.4Z"/><path class="cls-5" d="M109.64,170.44a.66.66,0,0,1,.94.06.69.69,0,0,1,0,.95.66.66,0,0,1-1,0A.7.7,0,0,1,109.64,170.44Z"/><path class="cls-5" d="M107,167.39a.67.67,0,0,1,.86,1,.7.7,0,0,1-1-.08A.67.67,0,0,1,107,167.39Z"/><path class="cls-5" d="M104.54,164.22a.69.69,0,0,1,.95.12.67.67,0,0,1-.12.94.69.69,0,0,1-1-.12A.66.66,0,0,1,104.54,164.22Z"/><path class="cls-5" d="M102.2,161a.68.68,0,0,1,.94.16.68.68,0,1,1-.94-.16Z"/><path class="cls-5" d="M100,157.59a.67.67,0,1,1,.72,1.13.66.66,0,0,1-.92-.2A.68.68,0,0,1,100,157.59Z"/><path class="cls-5" d="M97.9,154.15a.67.67,0,0,1,.91.24.69.69,0,0,1-.24.92.66.66,0,0,1-.92-.24A.68.68,0,0,1,97.9,154.15Z"/><path class="cls-5" d="M96,150.63a.66.66,0,0,1,.9.28.69.69,0,0,1-.29.91.65.65,0,0,1-.9-.28A.68.68,0,0,1,96,150.63Z"/><path class="cls-5" d="M94.14,147a.66.66,0,0,1,.88.31.65.65,0,0,1-.3.89.68.68,0,0,1-.91-.3A.67.67,0,0,1,94.14,147Z"/><path class="cls-5" d="M92.48,143.37a.69.69,0,0,1,.89.34.66.66,0,0,1-.34.88.67.67,0,0,1-.89-.34A.65.65,0,0,1,92.48,143.37Z"/><path class="cls-5" d="M91,139.63a.68.68,0,0,1,.87.38.67.67,0,1,1-.87-.38Z"/><path class="cls-5" d="M89.64,135.84a.67.67,0,1,1,.43,1.27.67.67,0,1,1-.43-1.27Z"/><path class="cls-5" d="M88.45,132a.67.67,0,0,1,.83.45.69.69,0,0,1-.46.84.66.66,0,0,1-.83-.46A.67.67,0,0,1,88.45,132Z"/><path class="cls-5" d="M87.4,128.11a.67.67,0,0,1,.81.49.71.71,0,0,1-.49.82.67.67,0,0,1-.82-.49A.69.69,0,0,1,87.4,128.11Z"/><path class="cls-5" d="M86.5,124.19a.7.7,0,0,1,.81.52.66.66,0,0,1-.51.79A.68.68,0,0,1,86,125,.65.65,0,0,1,86.5,124.19Z"/><path class="cls-5" d="M85.8,120.23a.68.68,0,0,1,.78.55.67.67,0,0,1-.55.77.68.68,0,0,1-.78-.55A.66.66,0,0,1,85.8,120.23Z"/><path class="cls-5" d="M85.25,116.24a.68.68,0,0,1,.75.58.67.67,0,1,1-.75-.58Z"/><path class="cls-5" d="M84.85,112.24a.66.66,0,0,1,.72.61.69.69,0,0,1-.62.73.66.66,0,0,1-.72-.61A.67.67,0,0,1,84.85,112.24Z"/><path class="cls-5" d="M84.6,108.22a.66.66,0,0,1,.69.64.68.68,0,0,1-.64.7.65.65,0,0,1-.7-.64A.69.69,0,0,1,84.6,108.22Z"/><path class="cls-5" d="M84.5,104.2a.69.69,0,0,1,.69.67.66.66,0,0,1-.66.67.67.67,0,0,1-.68-.67A.65.65,0,0,1,84.5,104.2Z"/><path class="cls-5" d="M84.6,100.18a.68.68,0,0,1,.66.69.67.67,0,0,1-.69.65.68.68,0,0,1-.66-.7A.66.66,0,0,1,84.6,100.18Z"/><path class="cls-5" d="M84.85,96.16a.67.67,0,0,1,.62.72.69.69,0,0,1-.72.62.67.67,0,0,1,.1-1.34Z"/><path class="cls-5" d="M85.25,92.16a.65.65,0,0,1,.58.74.68.68,0,0,1-.75.59.65.65,0,0,1-.58-.74A.67.67,0,0,1,85.25,92.16Z"/><path class="cls-5" d="M85.8,88.17a.65.65,0,0,1,.54.76.67.67,0,1,1-1.32-.2A.68.68,0,0,1,85.8,88.17Z"/><path class="cls-5" d="M86.5,84.21a.69.69,0,0,1,.55.79.67.67,0,0,1-.78.53.68.68,0,0,1-.54-.79A.64.64,0,0,1,86.5,84.21Z"/><path class="cls-5" d="M87.4,80.29a.68.68,0,0,1,.51.81.68.68,0,0,1-.81.49.66.66,0,0,1-.5-.81A.65.65,0,0,1,87.4,80.29Z"/><path class="cls-5" d="M88.45,76.4a.67.67,0,0,1,.46.83.67.67,0,0,1-1.29-.37A.67.67,0,0,1,88.45,76.4Z"/><path class="cls-5" d="M89.64,72.56a.66.66,0,0,1,.43.84.69.69,0,0,1-.86.43.66.66,0,0,1-.42-.84A.67.67,0,0,1,89.64,72.56Z"/><path class="cls-5" d="M91,68.77a.64.64,0,0,1,.38.85.69.69,0,0,1-.87.4.66.66,0,0,1-.39-.86A.68.68,0,0,1,91,68.77Z"/><path class="cls-5" d="M92.48,65a.68.68,0,0,1,.36.88.66.66,0,0,1-.87.36.68.68,0,0,1-.37-.88A.66.66,0,0,1,92.48,65Z"/><path class="cls-5" d="M94.14,61.36a.69.69,0,0,1,.33.9.67.67,0,0,1-.89.32.68.68,0,0,1-.33-.89A.66.66,0,0,1,94.14,61.36Z"/><path class="cls-5" d="M96,57.77a.67.67,0,1,1-.9.29A.66.66,0,0,1,96,57.77Z"/><path class="cls-5" d="M97.9,54.25a.67.67,0,0,1,.25.91.68.68,0,0,1-.92.25.67.67,0,1,1,.67-1.16Z"/><path class="cls-5" d="M100,50.81a.67.67,0,0,1,.21.92.69.69,0,0,1-.93.21.67.67,0,0,1-.21-.93A.68.68,0,0,1,100,50.81Z"/><path class="cls-5" d="M102.2,47.45a.65.65,0,0,1,.16.92.68.68,0,0,1-.93.18.66.66,0,0,1-.18-.93A.69.69,0,0,1,102.2,47.45Z"/><path class="cls-5" d="M104.54,44.18a.67.67,0,0,1,.14.93.66.66,0,0,1-.93.15.68.68,0,0,1-.15-.95A.66.66,0,0,1,104.54,44.18Z"/><path class="cls-5" d="M107,41a.7.7,0,0,1,.11,1,.67.67,0,0,1-.94.11.68.68,0,0,1-.11-1A.66.66,0,0,1,107,41Z"/><path class="cls-5" d="M109.64,38a.67.67,0,1,1-.87,1,.67.67,0,0,1-.07-.95A.66.66,0,0,1,109.64,38Z"/><path class="cls-5" d="M112.38,35a.68.68,0,0,1,0,1,.67.67,0,0,1-1,0,.66.66,0,0,1,0-.94A.68.68,0,0,1,112.38,35Z"/><path class="cls-5" d="M115.22,32.16a.66.66,0,0,1,0,.94.68.68,0,0,1-1,0,.66.66,0,0,1,0-.94A.67.67,0,0,1,115.22,32.16Z"/><path class="cls-5" d="M118.18,29.42a.66.66,0,0,1-.06.94.7.7,0,0,1-1-.05.67.67,0,0,1,.06-.95A.7.7,0,0,1,118.18,29.42Z"/><path class="cls-5" d="M121.23,26.81a.67.67,0,0,1-1,.86.69.69,0,0,1,.08-1A.67.67,0,0,1,121.23,26.81Z"/><path class="cls-5" d="M124.4,24.32a.69.69,0,0,1-.12.95.67.67,0,0,1-.94-.12.68.68,0,0,1,.12-.95A.66.66,0,0,1,124.4,24.32Z"/><path class="cls-5" d="M127.67,22a.68.68,0,0,1-.16.94.68.68,0,0,1-.94-.17.68.68,0,0,1,.16-.94A.67.67,0,0,1,127.67,22Z"/><path class="cls-5" d="M131,19.76a.69.69,0,0,1-.21.93.66.66,0,0,1-.92-.21.65.65,0,0,1,.2-.92A.68.68,0,0,1,131,19.76Z"/><path class="cls-5" d="M134.47,17.68a.67.67,0,0,1-.24.91.7.7,0,0,1-.93-.24.67.67,0,0,1,.25-.92A.68.68,0,0,1,134.47,17.68Z"/><path class="cls-5" d="M138,15.73a.66.66,0,0,1-.28.9.7.7,0,0,1-.92-.29.66.66,0,0,1,.28-.9A.69.69,0,0,1,138,15.73Z"/><path class="cls-5" d="M141.58,13.92a.68.68,0,0,1-.31.89.66.66,0,0,1-.89-.31.67.67,0,1,1,1.2-.58Z"/><path class="cls-5" d="M145.25,12.26a.69.69,0,0,1-.35.89.66.66,0,0,1-.87-.34.67.67,0,0,1,.34-.89A.66.66,0,0,1,145.25,12.26Z"/><path class="cls-5" d="M149,10.77a.68.68,0,0,1-.38.87.67.67,0,1,1,.38-.87Z"/><path class="cls-5" d="M152.78,9.43a.67.67,0,0,1-.42.85A.68.68,0,0,1,151.93,9,.67.67,0,0,1,152.78,9.43Z"/><path class="cls-5" d="M156.62,8.23a.67.67,0,0,1-.45.83.69.69,0,0,1-.84-.46.65.65,0,0,1,.45-.83A.68.68,0,0,1,156.62,8.23Z"/><path class="cls-5" d="M160.51,7.18A.68.68,0,0,1,160,8a.7.7,0,0,1-.82-.49.67.67,0,0,1,.49-.82A.69.69,0,0,1,160.51,7.18Z"/><path class="cls-5" d="M164.43,6.28a.7.7,0,0,1-.52.81.66.66,0,0,1-.79-.51.68.68,0,0,1,.52-.81A.66.66,0,0,1,164.43,6.28Z"/><path class="cls-5" d="M168.39,5.58a.69.69,0,0,1-.55.78.67.67,0,0,1-.77-.55.68.68,0,0,1,.55-.78A.66.66,0,0,1,168.39,5.58Z"/><path class="cls-5" d="M172.38,5a.68.68,0,0,1-.58.75.67.67,0,1,1,.58-.75Z"/><path class="cls-5" d="M176.38,4.63a.66.66,0,0,1-.61.72.69.69,0,0,1-.73-.62.66.66,0,0,1,.61-.72A.67.67,0,0,1,176.38,4.63Z"/><path class="cls-5" d="M180.4,4.38a.67.67,0,0,1-.64.69.68.68,0,0,1-.7-.64.65.65,0,0,1,.63-.7A.69.69,0,0,1,180.4,4.38Z"/><path class="cls-5" d="M184.42,4.28a.69.69,0,0,1-.67.69.66.66,0,0,1-.67-.66.67.67,0,0,1,.66-.68A.65.65,0,0,1,184.42,4.28Z"/><path class="cls-5" d="M188.44,4.38a.68.68,0,0,1-.69.66.67.67,0,0,1-.65-.69.68.68,0,0,1,.69-.66A.66.66,0,0,1,188.44,4.38Z"/><path class="cls-5" d="M192.46,4.63a.67.67,0,0,1-.72.62.68.68,0,0,1-.62-.72.67.67,0,0,1,1.34.1Z"/><path class="cls-5" d="M196.46,5a.65.65,0,0,1-.74.58.68.68,0,0,1-.59-.75.65.65,0,0,1,.74-.58A.67.67,0,0,1,196.46,5Z"/><path class="cls-5" d="M200.45,5.58a.66.66,0,0,1-.77.54.67.67,0,1,1,.21-1.32A.68.68,0,0,1,200.45,5.58Z"/><path class="cls-5" d="M204.41,6.28a.69.69,0,0,1-.79.55.67.67,0,0,1-.53-.78.68.68,0,0,1,.79-.54A.65.65,0,0,1,204.41,6.28Z"/><path class="cls-5" d="M208.33,7.18a.69.69,0,0,1-.81.51.67.67,0,0,1,.32-1.31A.65.65,0,0,1,208.33,7.18Z"/><path class="cls-5" d="M212.22,8.23a.67.67,0,0,1-1.29-.37.66.66,0,0,1,.82-.46A.67.67,0,0,1,212.22,8.23Z"/><path class="cls-5" d="M216.06,9.43a.66.66,0,0,1-.84.42.68.68,0,0,1-.43-.85.65.65,0,0,1,.84-.43A.67.67,0,0,1,216.06,9.43Z"/><path class="cls-5" d="M219.85,10.77a.65.65,0,0,1-.86.38.69.69,0,0,1-.39-.86.65.65,0,0,1,.86-.4A.69.69,0,0,1,219.85,10.77Z"/><path class="cls-5" d="M223.59,12.26a.69.69,0,0,1-.88.36.66.66,0,0,1-.36-.87.68.68,0,0,1,.88-.37A.66.66,0,0,1,223.59,12.26Z"/><path class="cls-5" d="M227.26,13.92a.69.69,0,0,1-.9.33.68.68,0,0,1-.33-.89.69.69,0,0,1,.9-.33A.66.66,0,0,1,227.26,13.92Z"/><path class="cls-5" d="M230.85,15.73a.67.67,0,1,1-1.19-.61.67.67,0,0,1,1.19.61Z"/><path class="cls-5" d="M234.37,17.68a.67.67,0,0,1-.91.25.68.68,0,0,1-.25-.92.67.67,0,1,1,1.16.67Z"/><path class="cls-5" d="M237.81,19.76a.67.67,0,0,1-.92.21.69.69,0,0,1-.21-.93.66.66,0,0,1,.92-.21A.67.67,0,0,1,237.81,19.76Z"/><path class="cls-5" d="M241.17,22a.65.65,0,0,1-.92.16.68.68,0,0,1-.18-.93A.66.66,0,0,1,241,21,.69.69,0,0,1,241.17,22Z"/><path class="cls-5" d="M244.44,24.32a.68.68,0,0,1-.94.14.66.66,0,0,1-.14-.93.67.67,0,0,1,.94-.15A.66.66,0,0,1,244.44,24.32Z"/><path class="cls-5" d="M247.61,26.81a.7.7,0,0,1-1,.11.67.67,0,0,1-.11-.94.68.68,0,0,1,.95-.11A.67.67,0,0,1,247.61,26.81Z"/><path class="cls-5" d="M250.66,29.42a.67.67,0,1,1-1-.87.67.67,0,0,1,.95-.07A.66.66,0,0,1,250.66,29.42Z"/><path class="cls-5" d="M253.62,32.16a.67.67,0,0,1-1,0,.68.68,0,0,1,0-.95.67.67,0,0,1,1,0A.68.68,0,0,1,253.62,32.16Z"/><path class="cls-5" d="M256.46,35a.66.66,0,0,1-.94,0,.68.68,0,0,1,0-1,.66.66,0,0,1,.94,0A.67.67,0,0,1,256.46,35Z"/><path class="cls-5" d="M259.19,38a.67.67,0,0,1-.94-.06.7.7,0,0,1,.06-1,.66.66,0,0,1,.94.06A.68.68,0,0,1,259.19,38Z"/><path class="cls-5" d="M261.81,41a.67.67,0,0,1-.86-1,.7.7,0,0,1,1,.08A.67.67,0,0,1,261.81,41Z"/><path class="cls-5" d="M264.3,44.18a.69.69,0,0,1-.95-.12.67.67,0,0,1,.12-.94.68.68,0,0,1,.95.12A.67.67,0,0,1,264.3,44.18Z"/><path class="cls-5" d="M266.64,47.45a.68.68,0,0,1-.94-.16.67.67,0,0,1,1.1-.78A.66.66,0,0,1,266.64,47.45Z"/><path class="cls-5" d="M268.86,50.81a.69.69,0,0,1-.93-.2.68.68,0,0,1,.2-.93.66.66,0,0,1,.93.2A.68.68,0,0,1,268.86,50.81Z"/><path class="cls-5" d="M270.94,54.25A.67.67,0,0,1,270,54a.69.69,0,0,1,.24-.93.67.67,0,0,1,.92.25A.68.68,0,0,1,270.94,54.25Z"/><path class="cls-5" d="M272.89,57.77a.66.66,0,0,1-.9-.28.69.69,0,0,1,.29-.92.67.67,0,0,1,.9.28A.69.69,0,0,1,272.89,57.77Z"/><path class="cls-5" d="M274.7,61.36a.68.68,0,0,1-.89-.31.66.66,0,0,1,.3-.89.67.67,0,1,1,.59,1.2Z"/><path class="cls-5" d="M276.36,65a.69.69,0,0,1-.89-.34.65.65,0,0,1,.34-.88.67.67,0,0,1,.89.34A.66.66,0,0,1,276.36,65Z"/><path class="cls-5" d="M277.85,68.77a.68.68,0,0,1-.87-.38.67.67,0,1,1,.87.38Z"/><path class="cls-5" d="M279.19,72.56a.67.67,0,0,1-.43-1.27.66.66,0,0,1,.85.42A.67.67,0,0,1,279.19,72.56Z"/><path class="cls-5" d="M280.39,76.4a.67.67,0,0,1-.83-.45.69.69,0,0,1,.46-.84.65.65,0,0,1,.83.45A.69.69,0,0,1,280.39,76.4Z"/><path class="cls-5" d="M281.44,80.29a.68.68,0,0,1-.81-.49.7.7,0,0,1,.49-.82.67.67,0,0,1,.82.49A.69.69,0,0,1,281.44,80.29Z"/><path class="cls-5" d="M282.33,84.21a.69.69,0,0,1-.8-.52.66.66,0,0,1,.51-.79.69.69,0,0,1,.81.52A.66.66,0,0,1,282.33,84.21Z"/><path class="cls-5" d="M283,88.17a.68.68,0,0,1-.78-.55.67.67,0,0,1,.55-.77.68.68,0,0,1,.78.55A.66.66,0,0,1,283,88.17Z"/><path class="cls-5" d="M283.59,92.16a.68.68,0,0,1-.75-.58.67.67,0,1,1,.75.58Z"/><path class="cls-5" d="M284,96.16a.66.66,0,0,1-.72-.61.69.69,0,0,1,.62-.73.67.67,0,0,1,.72.61A.68.68,0,0,1,284,96.16Z"/><path class="cls-5" d="M284.24,100.18a.66.66,0,0,1-.69-.64.68.68,0,0,1,.64-.7.65.65,0,0,1,.7.63A.69.69,0,0,1,284.24,100.18Z"/><path class="cls-5" d="M284.34,104.2a.69.69,0,0,1-.69-.67.65.65,0,0,1,.65-.67.68.68,0,0,1,.69.66A.65.65,0,0,1,284.34,104.2Z"/><rect class="cls-5" x="219.17" y="146.24" width="32.1" height="43.72" rx="1.42"/><rect class="cls-6" x="218.89" y="146.54" width="32.1" height="43.72" rx="1.42"/><rect class="cls-7" x="218.45" y="146.72" width="32.1" height="43.72" rx="1.42"/><path class="cls-8" d="M222.06,152.77h1.2c.86,0,1.44.29,1.44,1.15s-.59,1.21-1.44,1.21h-.7v1.54h-.5Zm1.14,1.95c.68,0,1-.25,1-.8s-.34-.75-1-.75h-.64v1.55Z"/><path class="cls-8" d="M226.94,155.48h-1.42l-.37,1.19h-.51l1.32-3.9h.56l1.32,3.9h-.52Zm-.12-.4-.19-.59c-.14-.43-.26-.86-.38-1.31h0c-.12.45-.25.88-.38,1.31l-.2.59Z"/><path class="cls-8" d="M228.37,155.82a1.53,1.53,0,0,0,1.08.49c.51,0,.81-.26.81-.64s-.28-.52-.65-.69l-.56-.24a1.1,1.1,0,0,1-.79-1,1.11,1.11,0,0,1,1.23-1,1.64,1.64,0,0,1,1.15.48l-.27.32a1.24,1.24,0,0,0-.88-.36c-.44,0-.73.21-.73.57s.34.51.65.64l.55.24a1.09,1.09,0,0,1,.81,1,1.18,1.18,0,0,1-1.33,1.11,1.89,1.89,0,0,1-1.37-.57Z"/><path class="cls-8" d="M231.43,155.82a1.53,1.53,0,0,0,1.08.49c.51,0,.81-.26.81-.64s-.28-.52-.65-.69l-.56-.24a1.1,1.1,0,0,1-.79-1,1.11,1.11,0,0,1,1.23-1,1.64,1.64,0,0,1,1.15.48l-.26.32a1.28,1.28,0,0,0-.89-.36c-.44,0-.73.21-.73.57s.34.51.65.64l.56.24a1.09,1.09,0,0,1,.8,1,1.18,1.18,0,0,1-1.33,1.11,1.89,1.89,0,0,1-1.37-.57Z"/><path class="cls-8" d="M234.56,152.77h1.2c.86,0,1.44.29,1.44,1.15s-.59,1.21-1.44,1.21h-.7v1.54h-.5Zm1.13,1.95c.69,0,1-.25,1-.8s-.34-.75-1-.75h-.63v1.55Z"/><path class="cls-8" d="M237.72,154.7c0-1.24.69-2,1.67-2s1.67.76,1.67,2-.69,2-1.67,2S237.72,156,237.72,154.7Zm2.83,0c0-1-.46-1.56-1.16-1.56s-1.16.6-1.16,1.56.46,1.61,1.16,1.61S240.55,155.68,240.55,154.7Z"/><path class="cls-8" d="M244,156.67l-.94-1.64h-.71v1.64h-.49v-3.9h1.22c.79,0,1.36.29,1.36,1.1a1.06,1.06,0,0,1-.87,1.1l1,1.7Zm-1.65-2H243c.6,0,.94-.25.94-.75s-.34-.7-.94-.7h-.66Z"/><path class="cls-8" d="M246,153.19H244.8v-.42h2.86v.42h-1.18v3.48H246Z"/><path class="cls-8" d="M227.37,183h.69c.5,0,.84.17.84.66s-.34.7-.84.7h-.4v.9h-.29Zm.66,1.13c.39,0,.58-.15.58-.47s-.19-.43-.58-.43h-.37v.9Z"/><path class="cls-8" d="M230.2,184.53h-.83l-.22.69h-.29l.77-2.26H230l.77,2.26h-.31Zm-.08-.23L230,184c-.08-.25-.16-.5-.23-.76h0c-.07.26-.15.51-.23.76l-.11.35Z"/><path class="cls-8" d="M231,184.72a.91.91,0,0,0,.63.29c.29,0,.47-.15.47-.37s-.17-.31-.38-.4l-.32-.14a.6.6,0,0,1,.25-1.18.92.92,0,0,1,.67.28l-.16.18a.7.7,0,0,0-.51-.21c-.25,0-.42.12-.42.33s.2.3.37.37l.33.14a.63.63,0,0,1,.46.6.68.68,0,0,1-.77.65,1.07,1.07,0,0,1-.79-.34Z"/><path class="cls-8" d="M232.8,184.72a.87.87,0,0,0,.62.29c.3,0,.47-.15.47-.37s-.16-.31-.38-.4l-.32-.14a.6.6,0,0,1,.25-1.18.92.92,0,0,1,.67.28l-.15.18a.74.74,0,0,0-.52-.21c-.25,0-.42.12-.42.33s.2.3.38.37l.32.14a.63.63,0,0,1,.46.6.68.68,0,0,1-.77.65,1.09,1.09,0,0,1-.79-.34Z"/><path class="cls-8" d="M234.61,183h.69c.5,0,.84.17.84.66s-.35.7-.84.7h-.4v.9h-.29Zm.65,1.13c.4,0,.59-.15.59-.47s-.2-.43-.59-.43h-.36v.9Z"/><path class="cls-8" d="M236.44,184.08c0-.73.4-1.16,1-1.16s1,.44,1,1.16-.4,1.18-1,1.18S236.44,184.8,236.44,184.08Zm1.64,0c0-.56-.27-.91-.67-.91s-.67.35-.67.91.26.93.67.93S238.08,184.64,238.08,184.08Z"/><path class="cls-8" d="M240.08,185.22l-.54-1h-.41v1h-.29V183h.71c.46,0,.79.16.79.63a.62.62,0,0,1-.51.64l.58,1Zm-1-1.19h.38c.35,0,.54-.15.54-.44s-.19-.4-.54-.4h-.38Z"/><path class="cls-8" d="M241.23,183.2h-.69V183h1.66v.24h-.69v2h-.28Z"/><path class="cls-8" d="M234.68,176.2a7.62,7.62,0,1,1,7.61-7.62A7.62,7.62,0,0,1,234.68,176.2Zm0-14.61a7,7,0,1,0,7,7A7,7,0,0,0,234.68,161.59Z"/><rect class="cls-8" x="234.36" y="161.27" width="0.62" height="14.61"/><path class="cls-8" d="M234.68,176.21c-2.32,0-4.13-3.31-4.13-7.55s1.81-7.55,4.13-7.55,4.12,3.31,4.12,7.55S237,176.21,234.68,176.21Zm0-14.45c-1.89,0-3.48,3.16-3.48,6.9s1.59,6.9,3.48,6.9,3.47-3.16,3.47-6.9S236.56,161.76,234.68,161.76Z"/><rect class="cls-8" x="227.37" y="168.26" width="14.61" height="0.65"/><rect class="cls-8" x="228.38" y="164.54" width="12.63" height="0.65"/><rect class="cls-8" x="228.5" y="172.05" width="12.63" height="0.65"/><path class="cls-9" d="M222.66,160.8h28.61a0,0,0,0,1,0,0V187.5a0,0,0,0,1,0,0H222.66a2,2,0,0,1-2-2V162.77A2,2,0,0,1,222.66,160.8Z"/><rect class="cls-6" x="221.29" y="160.2" width="41.27" height="25.99" rx="1.97"/><rect class="cls-10" x="224.94" y="165.29" width="8.74" height="11.17"/><rect class="cls-11" x="235.86" y="168.02" width="2.26" height="0.65"/><rect class="cls-11" x="235.86" y="166.47" width="9.47" height="0.65"/><rect class="cls-11" x="238.55" y="168.02" width="4.4" height="0.65"/><rect class="cls-11" x="235.86" y="169.57" width="4.09" height="0.65"/><rect class="cls-11" x="235.86" y="171.12" width="7.57" height="0.65"/><rect class="cls-11" x="235.86" y="172.67" width="0.88" height="0.65"/><rect class="cls-11" x="237.12" y="172.67" width="0.88" height="0.65"/><rect class="cls-11" x="238.37" y="172.67" width="0.88" height="0.65"/><rect class="cls-11" x="239.63" y="172.67" width="0.88" height="0.65"/><rect class="cls-11" x="235.86" y="174.22" width="5.74" height="0.65"/><rect class="cls-11" x="235.86" y="175.77" width="1.91" height="0.65"/><rect class="cls-11" x="224.85" y="181.22" width="33.72" height="0.93"/><rect class="cls-11" x="224.85" y="179.21" width="33.72" height="0.93"/><rect class="cls-11" x="224.85" y="183.09" width="33.72" height="0.93"/><circle class="cls-12" cx="253.06" cy="174.94" r="1.22"/><path class="cls-12" d="M253.06,170a3.9,3.9,0,0,0-3.38,1.83.89.89,0,0,0,.79,1.35.88.88,0,0,0,.79-.46,2.14,2.14,0,0,1,1.8-.9,2.1,2.1,0,0,1,1.8.91.91.91,0,0,0,.79.45.87.87,0,0,0,.44-.11.91.91,0,0,0,.35-1.24A3.92,3.92,0,0,0,253.06,170Z"/><path class="cls-12" d="M253.06,166.08a6.89,6.89,0,0,0-6,3.19.91.91,0,1,0,1.58.9,5.37,5.37,0,0,1,8.77,0,.93.93,0,0,0,.79.46.89.89,0,0,0,.45-.12.91.91,0,0,0,.35-1.24A6.93,6.93,0,0,0,253.06,166.08Z"/><path class="cls-13" d="M251.13,160.2H223.71a2.42,2.42,0,0,0-2.42,2.42v21.15a2.41,2.41,0,0,0,2.09,2.38A29.25,29.25,0,0,0,251.13,160.2Z"/><g class="cls-14"><rect class="cls-15" x="227.78" y="173.79" width="3.7" height="1.29"/><path class="cls-16" d="M233.33,181.88c.67-2,2.39-5.54,1.39-6.15-1.31-.79-5.08-1.28-5.08-1.28v.06s-3.8.31-5.12,1.11c-1,.6.74,4.27,1.4,6.31a27.58,27.58,0,0,1,.08,4.63c0,.48,7.26.42,7.25-.06A27.45,27.45,0,0,1,233.33,181.88Z"/><path class="cls-16" d="M224.77,176.21c-.76-.14-1.52.63-1.75,2s-.23,2.41-.28,2.78-.52,2.57-.55,3.18.29,1.41.9,1.51,1.24-.94,1.6-1.92S226.81,176.57,224.77,176.21Z"/><path class="cls-16" d="M233.43,175.45c.68-.37,1.65.13,2.3,1.4s1,2.23,1.13,2.56,1.29,2.29,1.5,2.85a1.14,1.14,0,0,1-.43,1.5c-.45.24-1.43-.29-2.07-1.11S231.6,176.42,233.43,175.45Z"/><path class="cls-17" d="M234.82,175.67c.45.05.88.68,1.25,1.47l1.9,4s0,.2-.71,1a4.78,4.78,0,0,1-1.23,1s-3.1-3.75-3.22-4.74C232.77,178.12,233.56,175.56,234.82,175.67Z"/><path class="cls-17" d="M224.33,175.56a2.67,2.67,0,0,0-1.26,1.1c-.34.73-1.13,7-1.13,7l2.91.13c.13,0,1.33-4,1.33-4S225.52,175.84,224.33,175.56Z"/><path class="cls-18" d="M231.22,173.84c-.09-.38-.3-2.3-.3-2.3h-1.28v.07h-1.27s-.22,1.92-.31,2.3-1.13,1-1.13,1h2.71v-.06h2.71S231.3,174.23,231.22,173.84Z"/><path class="cls-19" d="M231.13,173.3c-.08-.59-.18-1.42-.2-1.68l-.09-.08h-1.2v.07h-1.27s-.22,1.92-.31,2.3-1.13,1-1.13,1h.13l2.57-.69a10.35,10.35,0,0,0,1.5-.89Z"/><path class="cls-20" d="M235.05,175.77c-.17-.28-1.09-.52-1.93-.78s-1.42-.52-1.42-.52l-2.07,1.18-2.06-1.19s-.67.29-1.42.52-1.79.48-1.93.78a56.92,56.92,0,0,0,1.53,6.6c.17.5-.27,3.95.16,5l3.7.12h0l3.71-.11c.34-1.19,0-4.56.16-5.05S235.33,176.25,235.05,175.77Z"/><polygon class="cls-15" points="229.47 175.01 229.63 175.7 228.39 175.23 229.11 174.89 229.47 175.01"/><polygon class="cls-15" points="229.78 175.01 229.62 175.7 230.87 175.23 230.15 174.89 229.78 175.01"/><polygon class="cls-21" points="229.03 175.19 230.25 175.19 229.91 176.25 229.42 176.25 229.03 175.19"/><polygon class="cls-21" points="229.42 176.25 228.77 186.83 229.64 187.78 230.43 186.79 229.91 176.25 229.42 176.25"/><polygon class="cls-22" points="229.91 176.25 230.43 186.79 229.64 187.78 229.64 176.16 229.91 176.25"/><polygon class="cls-23" points="227.06 174.63 227.78 173.79 229.47 175.01 228.86 176.16 227.06 174.63"/><polygon class="cls-23" points="232.2 174.63 231.48 173.79 229.78 175.01 230.4 176.16 232.2 174.63"/><path class="cls-18" d="M231.85,169.9c0,1.61-1.22,3.21-2.25,3.21s-2.24-1.61-2.24-3.21,1-2.91,2.25-2.91S231.85,168.3,231.85,169.9Z"/><path class="cls-11" d="M227.36,170.22A2.78,2.78,0,0,1,227,169a6.63,6.63,0,0,1,.6-1.28,4.9,4.9,0,0,1,1.47-.82,4.77,4.77,0,0,1,1,0,1.92,1.92,0,0,1,1.15.6c.14.29.5.63.62.86a3.12,3.12,0,0,1,.29.92c0,.09-.19.82-.2.87a2.17,2.17,0,0,1-.12.23s-.61-1.54-.62-1.68a13.41,13.41,0,0,0-3.26-.09A6.91,6.91,0,0,0,227.36,170.22Z"/></g><rect class="cls-5" x="168.14" y="0.27" width="27.71" height="26.88" rx="2.7"/><rect class="cls-24" x="167.86" width="27.71" height="26.88" rx="2.7"/><path class="cls-8" d="M183.66,21.82l-2.06.38-2-.38v-.53a.53.53,0,0,1,.53-.53h3a.54.54,0,0,1,.54.53Z"/><path class="cls-8" d="M181.6,25.28A11.64,11.64,0,0,1,180.91,2l.66,0h.06l.66,0a11.64,11.64,0,0,1-.69,23.26ZM180.41,2.43a11.28,11.28,0,1,0,2.38,0,1.43,1.43,0,0,1,.28.86,1.47,1.47,0,1,1-2.94,0A1.43,1.43,0,0,1,180.41,2.43ZM181.6,2l-.58.36a1.08,1.08,0,0,0-.52.93,1.11,1.11,0,1,0,2.21,0,1.09,1.09,0,0,0-.53-.93Z"/><path class="cls-8" d="M181.6,24.54a10.91,10.91,0,0,1-2-21.62l.24,0,0,.24a1,1,0,0,0,0,.17,1.84,1.84,0,1,0,3.68,0,1,1,0,0,0,0-.17l0-.24.24,0a10.91,10.91,0,0,1-2.05,21.62ZM179.39,3.33a10.54,10.54,0,1,0,4.42,0,2.21,2.21,0,0,1-4.42,0Z"/><path class="cls-8" d="M181.6,23.8a10.17,10.17,0,0,1-2.71-20l.17-.05.05.18a2.58,2.58,0,0,0,5,0l0-.18.18.05a10.17,10.17,0,0,1-2.72,20ZM178.81,4.24a9.8,9.8,0,1,0,5.58,0,2.95,2.95,0,0,1-5.58,0Z"/><path class="cls-8" d="M181.6,23.07a9.44,9.44,0,0,1-3.16-18.33l.15,0,.08.14a3.31,3.31,0,0,0,5.87,0l.07-.14.15,0a9.44,9.44,0,0,1-3.16,18.33ZM178.42,5.14a9.07,9.07,0,1,0,6.36,0,3.68,3.68,0,0,1-6.36,0Z"/><path class="cls-8" d="M181.6,22.33a8.7,8.7,0,0,1-3.46-16.68l.13-.05.09.11a4,4,0,0,0,6.49,0l.08-.11.14.05a8.7,8.7,0,0,1-3.47,16.68ZM178.15,6.05a8.33,8.33,0,1,0,6.9,0,4.42,4.42,0,0,1-6.9,0Z"/><circle class="cls-8" cx="181.6" cy="3.27" r="0.74"/><circle class="cls-8" cx="181.6" cy="17.05" r="0.93"/><path class="cls-8" d="M181.6,13.29A3,3,0,0,0,179,14.68a.7.7,0,0,0,.27,1,.69.69,0,0,0,.34.09.68.68,0,0,0,.6-.36,1.66,1.66,0,0,1,1.37-.68,1.59,1.59,0,0,1,1.37.69.72.72,0,0,0,.61.35.66.66,0,0,0,.33-.09.69.69,0,0,0,.27-1A3,3,0,0,0,181.6,13.29Z"/><path class="cls-8" d="M181.6,10.29a5.28,5.28,0,0,0-4.55,2.44.69.69,0,0,0,.26.94.72.72,0,0,0,.34.09.7.7,0,0,0,.61-.35,4.09,4.09,0,0,1,6.68,0,.7.7,0,0,0,.61.35.62.62,0,0,0,.34-.09.69.69,0,0,0,.26-.94A5.24,5.24,0,0,0,181.6,10.29Z"/><path class="cls-8" d="M184.67,7.38l-3.59-3.59a.73.73,0,0,1,0-1h0a.75.75,0,0,1,1,0l3.59,3.59a.73.73,0,0,1,0,1h0A.73.73,0,0,1,184.67,7.38Z"/><path class="cls-25" d="M191.94,0H171.16a3.31,3.31,0,0,0-3.3,3.31V23.57h0A25.41,25.41,0,0,0,191.94,0Z"/><path class="cls-5" d="M274.61,102.76a2.43,2.43,0,1,0,2-2.81A2.43,2.43,0,0,0,274.61,102.76Zm.88-.15a1.54,1.54,0,1,1,1.78,1.25A1.54,1.54,0,0,1,275.49,102.61Z"/><circle class="cls-5" cx="279.29" cy="115.79" r="12.02" transform="translate(-21.11 81.55) rotate(-16.02)"/><path class="cls-24" d="M279.28,127a11.18,11.18,0,0,1-1.86-22.21,10.88,10.88,0,0,1,1.89-.16,11.18,11.18,0,0,1,1.86,22.21,12.05,12.05,0,0,1-1.89.16Z"/><path class="cls-26" d="M266.92,107.45h0a6.59,6.59,0,1,1,3.85-1.25A6.51,6.51,0,0,1,266.92,107.45Zm0-12.62a6,6,0,0,0-4.89,9.56,6,6,0,0,0,4.9,2.5,5.94,5.94,0,0,0,3.52-1.14,6,6,0,0,0-3.53-10.92Z"/><path class="cls-27" d="M276.75,100.84a1.37,1.37,0,0,0-.36.11.32.32,0,0,1,0,.09,1.27,1.27,0,0,1-1.25.67,2.49,2.49,0,0,1-.95-.2c-.94-.39-1.5-1.24-1.23-1.89a1.3,1.3,0,0,1,1.26-.66,2.41,2.41,0,0,1,.94.2,2.33,2.33,0,0,1,1.1.88h0a2.22,2.22,0,0,1,.37-.09l.19,0a1.51,1.51,0,0,0-.09-.18,2.82,2.82,0,0,0-1.35-1.11,3.21,3.21,0,0,0-1.16-.24,1.81,1.81,0,0,0-1.77,1A2.18,2.18,0,0,0,274,102a2.94,2.94,0,0,0,1.16.24,1.82,1.82,0,0,0,1.77-1,1.5,1.5,0,0,0,.1-.43A.9.9,0,0,0,276.75,100.84Z"/><path class="cls-5" d="M266.72,106.92h0a6.59,6.59,0,1,1,5.34-10.44,6.59,6.59,0,0,1-5.34,10.44Zm0-12.62a6,6,0,0,0,0,12.06h0a6,6,0,0,0,4.88-9.56A6.06,6.06,0,0,0,266.71,94.3Z"/><path class="cls-7" d="M279.31,104.61a10.88,10.88,0,0,0-1.89.16A11.18,11.18,0,0,0,274,106a11.08,11.08,0,0,0-.8,4.16,11.29,11.29,0,0,0,16.4,10.1,11.17,11.17,0,0,0-10.24-15.63Z"/><path class="cls-28" d="M276.91,105.39a12.05,12.05,0,0,1,1.89-.16,11.17,11.17,0,0,1,8.87,18,11.17,11.17,0,0,0-8.36-18.58,10.88,10.88,0,0,0-1.89.16,11.07,11.07,0,0,0-6.95,4.18A11.09,11.09,0,0,1,276.91,105.39Z"/><path class="cls-25" d="M278.44,119.72a11.45,11.45,0,0,0,2.34,1.12,1.66,1.66,0,0,0-1.62-1.29A1.59,1.59,0,0,0,278.44,119.72Z"/><path class="cls-28" d="M281.48,125.89a10.85,10.85,0,0,1-1.88.16h0a11.18,11.18,0,0,1-10.71-14.31A11.17,11.17,0,0,0,279.28,127h0a12.05,12.05,0,0,0,1.89-.16,11.18,11.18,0,0,0,8.85-7.89A11.16,11.16,0,0,1,281.48,125.89Z"/><circle class="cls-3" cx="279.16" cy="121.21" r="1.66"/><path class="cls-3" d="M279.16,114.51a5.32,5.32,0,0,0-4.6,2.49,1.22,1.22,0,0,0,.47,1.68,1.21,1.21,0,0,0,.61.16,1.25,1.25,0,0,0,1.08-.63,2.84,2.84,0,0,1,2.44-1.23,2.91,2.91,0,0,1,2.45,1.24,1.24,1.24,0,0,0,1.68.46,1.24,1.24,0,0,0,.47-1.68A5.34,5.34,0,0,0,279.16,114.51Z"/><path class="cls-3" d="M279.16,109.16a9.39,9.39,0,0,0-8.12,4.35,1.23,1.23,0,0,0,.46,1.68,1.26,1.26,0,0,0,.61.16,1.24,1.24,0,0,0,1.08-.62,7.3,7.3,0,0,1,11.93,0,1.25,1.25,0,0,0,1.08.63,1.35,1.35,0,0,0,.61-.16,1.25,1.25,0,0,0,.47-1.69A9.39,9.39,0,0,0,279.16,109.16Z"/><path class="cls-3" d="M279.16,109.16a9.57,9.57,0,0,0-6,2,11.18,11.18,0,0,0,.6,2.79,7.07,7.07,0,0,1,5.36-2.29,6.92,6.92,0,0,1,6,3.09,1.25,1.25,0,0,0,1.08.63,1.35,1.35,0,0,0,.61-.16,1.25,1.25,0,0,0,.47-1.69A9.39,9.39,0,0,0,279.16,109.16Z"/><path class="cls-3" d="M279.16,114.51a5.36,5.36,0,0,0-4.14,1.86,11.2,11.2,0,0,0,1.62,1.94l.08-.1a2.84,2.84,0,0,1,2.44-1.23,2.91,2.91,0,0,1,2.45,1.24,1.24,1.24,0,0,0,1.68.46,1.24,1.24,0,0,0,.47-1.68A5.34,5.34,0,0,0,279.16,114.51Z"/><rect class="cls-7" x="97.84" y="24.77" width="20.9" height="42.95" rx="1.89"/><rect class="cls-29" x="87.4" y="36.38" width="41.78" height="19.74" rx="1.42" transform="translate(154.54 -62.04) rotate(90)"/><path class="cls-18" d="M115.64,56.72a7.27,7.27,0,1,1-7.27-7.26A7.28,7.28,0,0,1,115.64,56.72Z"/><path class="cls-12" d="M109.4,59.92a1,1,0,1,1-2.05,0,1,1,0,0,1,2.05,0Z"/><path class="cls-12" d="M108.37,55.79a3.28,3.28,0,0,0-2.83,1.53.76.76,0,0,0,.29,1,.69.69,0,0,0,.37.1.76.76,0,0,0,.67-.39,1.74,1.74,0,0,1,1.5-.75,1.76,1.76,0,0,1,1.51.76.77.77,0,0,0,.66.38.69.69,0,0,0,.37-.1.77.77,0,0,0,.3-1A3.32,3.32,0,0,0,108.37,55.79Z"/><path class="cls-12" d="M108.37,52.5a5.82,5.82,0,0,0-5,2.67.78.78,0,0,0,.29,1,.75.75,0,0,0,.38.1.77.77,0,0,0,.66-.38,4.5,4.5,0,0,1,7.36,0,.77.77,0,0,0,.66.38.75.75,0,0,0,.38-.1.77.77,0,0,0,.29-1A5.82,5.82,0,0,0,108.37,52.5Z"/><path class="cls-25" d="M118.16,33.91V27.09a1.74,1.74,0,0,0-1.74-1.74H100.16a1.74,1.74,0,0,0-1.74,1.74V64.36A45.07,45.07,0,0,0,118.16,33.91Z"/><path class="cls-30" d="M111.81,33.23a7.25,7.25,0,1,1-10,2.38A7.25,7.25,0,0,1,111.81,33.23Z"/><path class="cls-31" d="M112.47,39.41A4.47,4.47,0,1,1,108,34.94,4.45,4.45,0,0,1,112.47,39.41Z"/><path class="cls-25" d="M103,37.59a7.25,7.25,0,0,1,11.73-.86,7.25,7.25,0,1,0-12.28,7.34A7.21,7.21,0,0,1,103,37.59Z"/><path class="cls-27" d="M108.2,43.73a4.45,4.45,0,0,1-2.68-8A4.46,4.46,0,0,0,108,43.87a4.39,4.39,0,0,0,2.68-.9A4.44,4.44,0,0,1,108.2,43.73Z"/><path class="cls-31" d="M104.53,39.79l3.58,6.86a7.24,7.24,0,0,0,5.74-2.95l-4.06-7.31Z"/><path class="cls-30" d="M122.33,35.35a98.9,98.9,0,0,0-14.9.61,3.45,3.45,0,0,0-2.89,3.25,3.35,3.35,0,0,0,3.12,3.68c1,0,3.23-.92,4.71-1.4,3.36-1.1,8.37-2.5,11.54-2.31,5.14.3,11.42,3.41,11.42,3.41l3.15-4.85A112.87,112.87,0,0,0,122.33,35.35Z"/><path class="cls-29" d="M120.39,36.91a60,60,0,0,0-12.83-.3,2.83,2.83,0,0,0,.14,5.62c.34,0,3.5-.58,4.67-.74,3.37-1.1,8.37-2.5,11.54-2.31,5.14.3,11.42,3.41,11.42,3.41l.44-.68A49,49,0,0,0,120.39,36.91Z"/><path class="cls-29" d="M104.79,39.54a3.45,3.45,0,0,1,2.89-3.25,99,99,0,0,1,14.9-.61A110.61,110.61,0,0,1,138.32,38l.16-.24a112.87,112.87,0,0,0-16.15-2.39,98.9,98.9,0,0,0-14.9.61,3.45,3.45,0,0,0-2.89,3.25,3.65,3.65,0,0,0,.87,2.6A3.69,3.69,0,0,1,104.79,39.54Z"/><path class="cls-32" d="M135.71,39.41c-.83,1.38-1,2.78-.38,3.18s1.89-.32,2.72-1.7,1-2.76.58-3.08S136.54,38,135.71,39.41Z"/><g class="cls-33"><path class="cls-26" d="M177.44,51.06a1.33,1.33,0,0,1-.92-.62c-.27-.52-.09-1.27-.36-1.65a3.9,3.9,0,0,0-4.4-.33c-1.84.94-1.81,2-1.81,2.17s-.09,2,3.73,2.31a8.57,8.57,0,0,0,3.1-.24Z"/><path class="cls-27" d="M176.52,50.44c-.27-.52-.09-1.27-.36-1.65a3.9,3.9,0,0,0-4.4-.33,3.34,3.34,0,0,0-1.64,1.47,4.24,4.24,0,0,1,1.27-.93,3.9,3.9,0,0,1,4.4.33c.26.38.09,1.13.35,1.66a1.37,1.37,0,0,0,.93.61l-.46,1.16.17-.06.66-1.64A1.33,1.33,0,0,1,176.52,50.44Z"/><path class="cls-26" d="M227.83,51.06a1.36,1.36,0,0,0,.93-.62c.26-.52.09-1.27.35-1.65a3.9,3.9,0,0,1,4.4-.33c1.84.94,1.81,2,1.81,2.17s.09,2-3.73,2.31a8.62,8.62,0,0,1-3.1-.24Z"/><path class="cls-27" d="M228.76,50.44c.26-.52.09-1.27.35-1.65a3.9,3.9,0,0,1,4.4-.33,3.34,3.34,0,0,1,1.64,1.47,4.05,4.05,0,0,0-1.26-.93,3.89,3.89,0,0,0-4.4.33c-.27.38-.09,1.13-.36,1.66a1.34,1.34,0,0,1-.92.61l.46,1.16-.18-.06-.66-1.64A1.36,1.36,0,0,0,228.76,50.44Z"/><path class="cls-34" d="M226.9,51.16H202.77V73.63h11.59s1.91-7.79,3.82-11.35C220.53,57.89,226.9,51.16,226.9,51.16Z"/><rect class="cls-35" x="224.94" y="70.19" width="8.64" height="17" rx="1.59"/><path class="cls-27" d="M202.77,35.4c3.43.05,6.44.14,8.54.31,2.64.21,8.25.58,10.4,2.24,3,2.33,4.95,10.21,6.78,13.68,1.14,2.16,4.73,5.91,4.93,8.39.46,5.68-.1,19.38-1.5,20.88-1,1-14.94,1.08-29.15.84Z"/><path class="cls-26" d="M226.23,65.62a21.1,21.1,0,0,0-8.52,3.62,9.34,9.34,0,0,0-2.87,4.39h-.47l2.31-7.79Z"/><rect class="cls-35" x="171.98" y="70.19" width="8.64" height="17" rx="1.59"/><path class="cls-27" d="M202.79,35.4c-3.43.05-6.44.14-8.54.31-2.64.21-8.24.58-10.39,2.24-3,2.33-5,10.21-6.79,13.68-1.13,2.16-4.73,5.91-4.93,8.39-.46,5.68.1,19.38,1.5,20.88,1,1,15,1.08,29.15.84Z"/><path class="cls-26" d="M179.34,65.62a21.17,21.17,0,0,1,8.53,3.62,9.37,9.37,0,0,1,2.86,4.39h.47l-2.31-7.79Z"/><path class="cls-35" d="M218.18,73.63H187.25A1.09,1.09,0,0,0,186.19,75l.36,1.39a1.08,1.08,0,0,0,1.06.82h30.11a1.1,1.1,0,0,0,1-.74l.46-1.4A1.09,1.09,0,0,0,218.18,73.63Z"/><rect class="cls-36" x="193.55" y="73.39" width="18.59" height="4.06"/><rect class="cls-12" x="193.55" y="73.39" width="1.76" height="4.06"/><path class="cls-35" d="M221.27,39.46s-13.69-1-18.48-1h0c-4.78,0-18.47,1-18.47,1l-5.64,11.7H226.9Z"/><path class="cls-35" d="M202.48,38.67h0c4.78,0,18.47,1,18.47,1l5.52,11.45h.41l-5.63-11.7s-13.69-1-18.48-1h0c-4.78,0-18.47,1-18.47,1l-.12.23C185.79,39.58,198,38.69,202.48,38.67Z"/><path class="cls-35" d="M220.31,76.46l3.07-2.68a5.31,5.31,0,0,1,3.48-1.3h2.87a.43.43,0,0,1,.39.61l-.47,1a5.46,5.46,0,0,1-4.94,3.13H220.6A.43.43,0,0,1,220.31,76.46Z"/><path class="cls-35" d="M185.14,76.46l-3.08-2.68a5.26,5.26,0,0,0-3.47-1.3h-2.87a.43.43,0,0,0-.39.61l.47,1a5.46,5.46,0,0,0,4.94,3.13h4.11A.43.43,0,0,0,185.14,76.46Z"/><path class="cls-5" d="M178.66,51.16,186.47,60c.3.34,1.65,3.1,1.65,3.1H202.8V51.16Z"/><path class="cls-5" d="M226.91,51.16,219,60.08c-.23.26-1.78,3-1.78,3H202.77V51.16Z"/><path class="cls-11" d="M202.79,63.43H193c-.83,0-1.5.42-1.5.93v4.9c0,.52.67.93,1.49.93,2.83,0,8.76,0,9.77,0s6.95,0,9.77,0c.83,0,1.49-.41,1.49-.93v-4.9c0-.51-.67-.93-1.5-.93Z"/><path class="cls-35" d="M206.31,69.84H193c-.56,0-1-.26-1-.57v-4.9c0-.31.48-.57,1-.57h19.52c.57,0,1,.26,1,.57v4.9c0,.31-.47.57-1,.57Z"/><path class="cls-5" d="M216.68,65.84s12,.37,14.1-1.27c1-.77,1.42-3.22.79-4-.79-.93-3.5-.65-4.67-.58-1.32.07-4.63.63-6.64,1a3.11,3.11,0,0,0-2.3,1.84Z"/><path class="cls-6" d="M224.43,62.56a2,2,0,1,0,1.95-2.09A2,2,0,0,0,224.43,62.56Z"/><path class="cls-6" d="M219.84,63.06a2,2,0,1,0,2-2.1A2,2,0,0,0,219.84,63.06Z"/><path class="cls-5" d="M188.83,65.84s-11.93.37-14.05-1.27c-1-.77-1.42-3.21-.79-4,.79-.93,3.5-.65,4.67-.58,1.39.07,5,.69,6.91,1a2.48,2.48,0,0,1,1.85,1.48Z"/><path class="cls-6" d="M181.14,62.56a2,2,0,1,1-1.95-2.09A2,2,0,0,1,181.14,62.56Z"/><path class="cls-6" d="M185.72,63.06a2,2,0,1,1-1.95-2.1A2,2,0,0,1,185.72,63.06Z"/><path class="cls-13" d="M176.31,59.58a48.07,48.07,0,0,0,41.13-23.16,58.85,58.85,0,0,0-6.13-.71c-2.1-.17-5.1-.26-8.52-.31h0c-3.42.05-6.42.14-8.52.31-2.64.21-8.24.58-10.39,2.24-3,2.33-5,10.21-6.79,13.68-1,2-4.16,5.32-4.81,7.77C173.6,59.51,174.94,59.58,176.31,59.58Z"/><polygon class="cls-35" points="198.47 172.37 201.96 169.16 202.93 101.51 201.18 98.98 198.47 172.37"/><path class="cls-37" d="M198.44,88.81H161a2.89,2.89,0,0,0-2.89,2.89l2.44,83.73a2.89,2.89,0,0,0,2.89,2.89h33a2.89,2.89,0,0,0,2.89-2.89l2-83.73A2.89,2.89,0,0,0,198.44,88.81Z"/><rect class="cls-35" x="162.06" y="104.26" width="35.57" height="36.37"/><rect class="cls-11" x="164.59" y="109.76" width="30.7" height="20.69"/><g class="cls-38"><path class="cls-26" d="M164.93,143.76h6.32a1.44,1.44,0,0,1,1.44,1.44v2.26a1.44,1.44,0,0,1-1.44,1.44h-6.32a1.45,1.45,0,0,1-1.45-1.45V145.2A1.45,1.45,0,0,1,164.93,143.76Z"/><path class="cls-26" d="M176.55,143.76h6.32a1.44,1.44,0,0,1,1.44,1.44v2.26a1.44,1.44,0,0,1-1.44,1.44h-6.32a1.45,1.45,0,0,1-1.45-1.45V145.2A1.44,1.44,0,0,1,176.55,143.76Z"/><rect class="cls-26" x="186.73" y="143.76" width="9.21" height="5.15" rx="1.44"/><path class="cls-26" d="M164.93,151.16h6.32a1.44,1.44,0,0,1,1.44,1.44v2.26a1.44,1.44,0,0,1-1.44,1.44h-6.32a1.45,1.45,0,0,1-1.45-1.45V152.6A1.44,1.44,0,0,1,164.93,151.16Z"/><path class="cls-26" d="M176.55,151.16h6.32a1.44,1.44,0,0,1,1.44,1.44v2.26a1.44,1.44,0,0,1-1.44,1.44h-6.32a1.45,1.45,0,0,1-1.45-1.45V152.6A1.44,1.44,0,0,1,176.55,151.16Z"/><rect class="cls-26" x="186.73" y="151.16" width="9.21" height="5.15" rx="1.44"/><path class="cls-26" d="M164.93,158.56h6.32a1.44,1.44,0,0,1,1.44,1.44v2.26a1.44,1.44,0,0,1-1.44,1.44h-6.32a1.45,1.45,0,0,1-1.45-1.45V160A1.45,1.45,0,0,1,164.93,158.56Z"/><path class="cls-26" d="M176.55,158.56h6.32a1.44,1.44,0,0,1,1.44,1.44v2.26a1.44,1.44,0,0,1-1.44,1.44h-6.32a1.45,1.45,0,0,1-1.45-1.45V160A1.44,1.44,0,0,1,176.55,158.56Z"/><rect class="cls-26" x="186.73" y="158.56" width="9.21" height="5.15" rx="1.44"/><path class="cls-26" d="M164.93,166.19h6.32a1.44,1.44,0,0,1,1.44,1.44v2.26a1.44,1.44,0,0,1-1.44,1.44h-6.32a1.45,1.45,0,0,1-1.45-1.45v-2.26A1.44,1.44,0,0,1,164.93,166.19Z"/><path class="cls-26" d="M176.55,166.19h6.32a1.44,1.44,0,0,1,1.44,1.44v2.26a1.44,1.44,0,0,1-1.44,1.44h-6.32a1.45,1.45,0,0,1-1.45-1.45v-2.26A1.44,1.44,0,0,1,176.55,166.19Z"/><rect class="cls-26" x="186.73" y="166.19" width="9.21" height="5.14" rx="1.44"/></g><path class="cls-35" d="M164.77,143.52h6.32a1.44,1.44,0,0,1,1.44,1.44v2.26a1.44,1.44,0,0,1-1.44,1.44h-6.32a1.45,1.45,0,0,1-1.45-1.45V145A1.44,1.44,0,0,1,164.77,143.52Z"/><path class="cls-39" d="M170,135.57c-.41-.68-.9-1.35-1.63-1.35h-3.74a1.39,1.39,0,0,0-1.31,1.44v2.26a1.38,1.38,0,0,0,1.31,1.44h5.77c.72,0,1.08-.73.82-1.49A13.8,13.8,0,0,0,170,135.57Z"/><path class="cls-39" d="M185.1,134.22h-2.94c-.57,0-.95.67-1.28,1.35a15.42,15.42,0,0,0-1,2.3c-.21.76.07,1.49.65,1.49h4.53c.58,0,1-.64,1-1.44v-2.26C186.14,134.87,185.68,134.22,185.1,134.22Z"/><path class="cls-39" d="M179.26,134.22h-4.45c-.56,0-1,.65-1,1.44v2.26c0,.8.46,1.44,1,1.44h2.89c.56,0,.93-.67,1.25-1.35a15.12,15.12,0,0,0,.94-2.3C180.1,135,179.82,134.22,179.26,134.22Z"/><path class="cls-39" d="M195.05,134.22h-5.76c-.73,0-1.09.74-.82,1.49a13.8,13.8,0,0,0,1.22,2.3c.41.68.9,1.35,1.62,1.35h3.74a1.38,1.38,0,0,0,1.32-1.44v-2.26A1.39,1.39,0,0,0,195.05,134.22Z"/><path class="cls-35" d="M176.4,143.52h6.32a1.44,1.44,0,0,1,1.44,1.44v2.26a1.44,1.44,0,0,1-1.44,1.44H176.4a1.45,1.45,0,0,1-1.45-1.45V145A1.44,1.44,0,0,1,176.4,143.52Z"/><path class="cls-35" d="M188,143.52h6.32a1.44,1.44,0,0,1,1.44,1.44v2.26a1.44,1.44,0,0,1-1.44,1.44H188a1.45,1.45,0,0,1-1.45-1.45V145A1.44,1.44,0,0,1,188,143.52Z"/><path class="cls-35" d="M164.77,150.92h6.32a1.44,1.44,0,0,1,1.44,1.44v2.26a1.44,1.44,0,0,1-1.44,1.44h-6.32a1.45,1.45,0,0,1-1.45-1.45v-2.25A1.45,1.45,0,0,1,164.77,150.92Z"/><path class="cls-35" d="M176.4,150.92h6.32a1.44,1.44,0,0,1,1.44,1.44v2.26a1.44,1.44,0,0,1-1.44,1.44H176.4a1.45,1.45,0,0,1-1.45-1.45v-2.26A1.44,1.44,0,0,1,176.4,150.92Z"/><path class="cls-35" d="M188,150.92h6.32a1.44,1.44,0,0,1,1.44,1.44v2.26a1.44,1.44,0,0,1-1.44,1.44H188a1.45,1.45,0,0,1-1.45-1.45v-2.26A1.44,1.44,0,0,1,188,150.92Z"/><path class="cls-35" d="M164.77,158.32h6.32a1.44,1.44,0,0,1,1.44,1.44V162a1.44,1.44,0,0,1-1.44,1.44h-6.32a1.45,1.45,0,0,1-1.45-1.45v-2.26A1.44,1.44,0,0,1,164.77,158.32Z"/><path class="cls-35" d="M176.4,158.32h6.32a1.44,1.44,0,0,1,1.44,1.44V162a1.44,1.44,0,0,1-1.44,1.44H176.4A1.45,1.45,0,0,1,175,162v-2.26A1.44,1.44,0,0,1,176.4,158.32Z"/><path class="cls-35" d="M188,158.32h6.32a1.44,1.44,0,0,1,1.44,1.44V162a1.44,1.44,0,0,1-1.44,1.44H188a1.45,1.45,0,0,1-1.45-1.45v-2.26A1.44,1.44,0,0,1,188,158.32Z"/><path class="cls-12" d="M164.77,166h6.32a1.44,1.44,0,0,1,1.44,1.44v2.26a1.45,1.45,0,0,1-1.45,1.45h-6.32a1.45,1.45,0,0,1-1.45-1.45V167.4A1.45,1.45,0,0,1,164.77,166Z"/><path class="cls-18" d="M176.4,166h6.32a1.44,1.44,0,0,1,1.44,1.44v2.26a1.45,1.45,0,0,1-1.45,1.45H176.4a1.45,1.45,0,0,1-1.45-1.45V167.4A1.45,1.45,0,0,1,176.4,166Z"/><path class="cls-26" d="M188,166h6.32a1.44,1.44,0,0,1,1.44,1.44v2.26a1.45,1.45,0,0,1-1.45,1.45H188a1.45,1.45,0,0,1-1.45-1.45V167.4A1.45,1.45,0,0,1,188,166Z"/><rect class="cls-26" x="168.75" y="134.91" width="67.77" height="0.72" transform="translate(65.28 336.5) rotate(-89.41)"/><polygon class="cls-32" points="165.13 174.74 163.39 178.32 196.28 178.32 194.92 174.74 165.13 174.74"/><rect class="cls-39" x="162.27" y="91.94" width="34.88" height="10.71" rx="1.63"/><path class="cls-40" d="M162.06,130.43l1.13,0c19,0,34.44-11.49,34.44-25.66,0-.18,0-.35,0-.53H162.06Z"/><path class="cls-18" d="M121.61,97.1s-9.75,22.07-10.42,32.27,5.71,27.23,5.71,27.23h20.17s4.6-17.26,3.7-20.17-9.24-35.75-10.45-36S121.61,97.1,121.61,97.1Z"/><path class="cls-19" d="M118.25,109.47s.51,10.56,2.22,14.29,4.18,4.27,5.59,3.31,4.57-12.77,4.57-12.77Z"/><path class="cls-19" d="M129.41,117.41l12.38,8.88a4.26,4.26,0,0,0,5.94-1h0a4.26,4.26,0,0,0-1-5.94l-12.38-8.88a4.26,4.26,0,0,0-5.94,1h0A4.26,4.26,0,0,0,129.41,117.41Z"/><path class="cls-19" d="M132.1,110l12.38,8.88a4.26,4.26,0,0,0,5.94-1h0a4.27,4.27,0,0,0-1-6l-12.38-8.88a4.28,4.28,0,0,0-5.94,1h0A4.26,4.26,0,0,0,132.1,110Z"/><polygon class="cls-18" points="136.83 203.73 111.43 203.73 115.53 150.66 138.39 150.66 136.83 203.73"/><rect class="cls-7" x="114.26" y="82.46" width="51.81" height="30.11" rx="1.68" transform="translate(-29.73 114.57) rotate(-40.56)"/><path class="cls-41" d="M148.78,70.32,112,101.83a1.67,1.67,0,0,0-.58,1.46,1.69,1.69,0,0,1,.52-.81L148.72,71a1.69,1.69,0,0,1,2.37.18l17.4,20.33a1.69,1.69,0,0,1,.39.9,1.66,1.66,0,0,0-.33-1.55L151.14,70.5A1.68,1.68,0,0,0,148.78,70.32Z"/><path class="cls-42" d="M131.61,124.05a1.67,1.67,0,0,1-2.36-.19l-17.41-20.33a1.73,1.73,0,0,1-.39-.9,1.69,1.69,0,0,0,.34,1.56l17.4,20.33a1.68,1.68,0,0,0,2.36.19L168.36,93.2a1.68,1.68,0,0,0,.58-1.46,1.66,1.66,0,0,1-.52.8Z"/><path class="cls-24" d="M111.79,104.19l17.4,20.33a1.72,1.72,0,0,0,.93.55,40.38,40.38,0,0,0,4.72-42.82L112,101.83A1.67,1.67,0,0,0,111.79,104.19Z"/><path class="cls-43" d="M146.19,85.38a1.23,1.23,0,1,1,.13-1.74A1.24,1.24,0,0,1,146.19,85.38Z"/><path class="cls-43" d="M149.15,81.22a3.93,3.93,0,0,0-3.6-1.38.91.91,0,1,0,.35,1.79,2.24,2.24,0,0,1,2.34,2.75.91.91,0,0,0,.17.9.84.84,0,0,0,.38.26A.91.91,0,0,0,150,85,4,4,0,0,0,149.15,81.22Z"/><path class="cls-43" d="M152.15,78.66a6.94,6.94,0,0,0-6.34-2.47.9.9,0,0,0-.51,1.49.89.89,0,0,0,.86.3,5.4,5.4,0,0,1,5.73,6.7.89.89,0,0,0,.17.9.74.74,0,0,0,.38.26.91.91,0,0,0,1.17-.54A7,7,0,0,0,152.15,78.66Z"/><path class="cls-6" d="M125.29,114.81c-.69-.8-.77-1.49-.29-1.9s1.14-.22,1.83.58.78,1.51.3,1.91S126,115.62,125.29,114.81Zm1.23-1.06c-.6-.7-1-.83-1.31-.59s-.23.69.38,1.39,1,.85,1.33.61S127.13,114.45,126.52,113.75Z"/><path class="cls-6" d="M128.11,114.05l.55-.47-1.52-1.77-.44.37-.17-.2a1.73,1.73,0,0,0,.36-.61l.24-.2,1.84,2.14.49-.42.22.25-1.35,1.16Z"/><path class="cls-6" d="M129,111.6c-.69-.8-.77-1.48-.29-1.9s1.14-.22,1.83.59.79,1.5.31,1.91S129.72,112.41,129,111.6Zm1.24-1.06c-.6-.7-1-.83-1.31-.59s-.23.69.37,1.4,1,.84,1.34.6S130.87,111.25,130.27,110.54Z"/><path class="cls-6" d="M130.91,110c-.69-.81-.77-1.49-.29-1.9s1.14-.22,1.83.58.78,1.5.3,1.91S131.6,110.81,130.91,110Zm1.24-1.06c-.61-.7-1-.83-1.32-.59s-.22.69.38,1.39,1,.85,1.33.61S132.75,109.64,132.15,108.94Z"/><path class="cls-6" d="M135.16,108l.55-.47-1.52-1.77-.43.38-.18-.2a1.82,1.82,0,0,0,.36-.61l.24-.21,1.84,2.15.49-.43.22.26-1.35,1.16Z"/><path class="cls-6" d="M137,106.41l.55-.47-1.51-1.77-.44.37-.17-.2a2.1,2.1,0,0,0,.36-.61l.23-.2,1.84,2.15.5-.43.22.26-1.36,1.16Z"/><path class="cls-6" d="M138.9,104.81l.55-.47-1.51-1.77-.44.37-.17-.2a1.9,1.9,0,0,0,.36-.61l.24-.2,1.83,2.14.5-.42.22.25-1.36,1.16Z"/><path class="cls-6" d="M140.78,103.2l.55-.47L139.81,101l-.43.38-.17-.2a2,2,0,0,0,.35-.61l.24-.21,1.84,2.15.49-.43.22.26L141,103.46Z"/><path class="cls-6" d="M143.14,99.54c-.69-.81-.78-1.49-.29-1.9s1.14-.23,1.83.58.78,1.5.3,1.91S143.83,100.34,143.14,99.54Zm1.23-1.06c-.6-.71-1-.83-1.31-.6s-.23.69.38,1.4,1.05.84,1.33.6S145,99.18,144.37,98.48Z"/><path class="cls-6" d="M145,97.93c-.69-.8-.77-1.49-.29-1.9s1.14-.22,1.83.58.78,1.51.3,1.92S145.7,98.74,145,97.93Zm1.24-1.06c-.61-.7-1-.83-1.32-.59s-.22.69.38,1.39,1.05.85,1.33.61S146.85,97.58,146.25,96.87Z"/><path class="cls-6" d="M147.83,97.17l.55-.47-1.52-1.77-.43.37-.17-.2a1.85,1.85,0,0,0,.35-.61l.24-.2,1.84,2.14.49-.42.22.25-1.35,1.16Z"/><path class="cls-6" d="M148.76,94.72c-.69-.8-.77-1.48-.29-1.89s1.14-.23,1.83.58.78,1.5.3,1.91S149.45,95.53,148.76,94.72ZM150,93.66c-.6-.7-1-.82-1.31-.59s-.23.69.38,1.4,1.05.84,1.33.6S150.6,94.37,150,93.66Z"/><path class="cls-6" d="M153,92.74l.55-.47L152,90.5l-.44.37-.17-.2a1.73,1.73,0,0,0,.36-.61l.24-.2L153.86,92l.5-.42.22.25L153.22,93Z"/><path class="cls-6" d="M153.93,90.29c-.69-.8-.77-1.48-.29-1.9s1.14-.22,1.83.59.79,1.5.31,1.91S154.62,91.1,153.93,90.29Zm1.24-1.06c-.6-.7-1-.83-1.31-.59s-.23.69.37,1.4,1.05.84,1.33.6S155.77,89.94,155.17,89.23Z"/><path class="cls-6" d="M156.75,89.53l.55-.47-1.51-1.77-.44.37-.17-.2a1.9,1.9,0,0,0,.36-.61l.23-.2,1.84,2.15.5-.43.22.26L157,89.79Z"/><path class="cls-6" d="M157.68,87.09c-.69-.81-.77-1.49-.29-1.9s1.14-.23,1.83.58.78,1.5.3,1.91S158.37,87.89,157.68,87.09ZM158.92,86c-.6-.71-1-.83-1.32-.6s-.22.69.38,1.4,1.05.84,1.33.6S159.52,86.73,158.92,86Z"/><path class="cls-6" d="M138.94,111.35c-.37-.43-.41-.81-.15-1s.62-.12,1,.32.43.81.17,1S139.32,111.79,138.94,111.35Zm.68-.57c-.33-.39-.56-.45-.72-.32s-.12.37.21.75.57.46.72.33S140,111.16,139.62,110.78Z"/><path class="cls-6" d="M140.48,110.94l.3-.26-.82-1-.24.2-.1-.11a1,1,0,0,0,.2-.33l.13-.11,1,1.17.27-.23.12.14-.74.63Z"/><path class="cls-6" d="M140.78,108.4l.12-.1,1,2.25-.13.1Z"/><path class="cls-6" d="M142.22,109.45l.3-.26-.82-1-.24.2-.1-.11a.91.91,0,0,0,.2-.33l.13-.11,1,1.17.27-.23.12.14-.74.63Z"/><path class="cls-6" d="M143.21,108.46a.36.36,0,0,0,.3-.08c.19-.15.22-.43-.13-.85a.57.57,0,0,1-.16.43.47.47,0,0,1-.72-.09.52.52,0,0,1,0-.75c.25-.22.63-.18,1,.24s.38.94.12,1.16a.53.53,0,0,1-.43.13Zm0-1.06c-.24-.24-.45-.29-.62-.15a.34.34,0,0,0,0,.49.32.32,0,0,0,.48.07A.48.48,0,0,0,143.26,107.4Z"/><rect class="cls-44" x="152.25" y="93.29" width="11.53" height="3.8" rx="0.81" transform="translate(-23.93 125.62) rotate(-40.56)"/><rect class="cls-5" x="136.43" y="111.55" width="2.15" height="2.04" rx="0.26" transform="translate(-40.16 116.45) rotate(-40.56)"/><path class="cls-18" d="M137.86,151.78s5.38-9.63,5.38-15.69-5.16-14.84-5.38-19.27c-.13-2.56.57-7.56-.23-11.45s-2.59-5.64-4.58-5.64-3.5,2.21-4,5.77c-.58,4.14.43,8.15.29,10.42-.33,5.37-4.71,12.11-5.15,19.73s1.56,14.79,3.36,14.79S133.37,155.82,137.86,151.78Z"/><rect class="cls-45" x="130.34" y="99.37" width="6.08" height="8.07" rx="1.93"/><path class="cls-46" d="M130.79,112.54a5,5,0,0,1,2.68-.59,4.72,4.72,0,0,1,2.55.85,9.69,9.69,0,0,0-5.23-.26Z"/><path class="cls-46" d="M130.74,113.38a5.05,5.05,0,0,1,2.69-.59,4.72,4.72,0,0,1,2.55.85,9.72,9.72,0,0,0-5.24-.26Z"/><path class="cls-19" d="M143.24,136.11c0-.26,0-.53,0-.8l-.12,0s-1.83,9.91-7,13.83-11.22,3.31-11.69,4.66,10.16,1.87,10.29,3.69-4,44.91-4.1,46.28h6.2l1.55-52.7C139.73,148.39,143.24,141.07,143.24,136.11Z"/></g><path class="cls-7" d="M258.31,52a.14.14,0,0,0,.09.16l1.59.37H260a.13.13,0,0,0,.1-.1l.37-1.54a7.21,7.21,0,0,0,1.74-.07l.44,1.49a.13.13,0,0,0,.16.09l.66-.2.9-.27a.13.13,0,0,0,.09-.16L264,50.22a7,7,0,0,0,1.47-.93l1.14,1.07a.13.13,0,0,0,.18,0l.3-.32.81-.86a.13.13,0,0,0,0-.18l-1.15-1.09a6.5,6.5,0,0,0,.8-1.55l.48.12,1,.25h.05a.16.16,0,0,0,.11-.1h0l.37-1.58a.09.09,0,0,0,0,0,.13.13,0,0,0-.1-.1L268,44.53a7.19,7.19,0,0,0-.07-1.74l.11,0,1.38-.41a.1.1,0,0,0,.06-.05.11.11,0,0,0,0-.11l-.47-1.56a.05.05,0,0,0,0-.05.12.12,0,0,0-.13,0l-1.52.45a7.29,7.29,0,0,0-.93-1.47l.14-.15.93-1a.25.25,0,0,0,0-.07.15.15,0,0,0,0-.11l-1.18-1.12-.05,0a.11.11,0,0,0-.13,0l-1.09,1.15a7.06,7.06,0,0,0-1.54-.81l.06-.27.3-1.25a.1.1,0,0,0,0-.09.1.1,0,0,0-.08-.06l-1.58-.38h-.05a.13.13,0,0,0-.1.1L261.68,37a7.21,7.21,0,0,0-1.74.07l-.06-.21-.38-1.28a.11.11,0,0,0-.06-.07.12.12,0,0,0-.1,0l-1.56.46,0,0a.12.12,0,0,0,0,.13l.45,1.53a6.51,6.51,0,0,0-1.47.93l-.18-.18-1-.9a.11.11,0,0,0-.08,0,.13.13,0,0,0-.1,0l-1.12,1.18,0,0a.12.12,0,0,0,0,.13L255.4,40a7.06,7.06,0,0,0-.81,1.54l-.13,0-1.39-.33a.12.12,0,0,0-.08,0,.11.11,0,0,0-.07.08l-.38,1.59a.12.12,0,0,0,.05.12h0l1.54.37a7.21,7.21,0,0,0,.07,1.74l-1.49.44a.13.13,0,0,0-.09.16l.33,1.11.14.45a.05.05,0,0,0,0,0h0a.13.13,0,0,0,.13.05l1.53-.46a6.29,6.29,0,0,0,.93,1.47l-1.08,1.14a.05.05,0,0,0,0,0h0a.14.14,0,0,0,0,.13l.86.81.32.3a.13.13,0,0,0,.18,0l1.09-1.15a7,7,0,0,0,1.54.8Zm.65-8.53a2.2,2.2,0,1,1,1.62,2.65A2.19,2.19,0,0,1,259,43.43Z"/><path class="cls-7" d="M246.44,37.15a.09.09,0,0,0,.07.11l1.13.28h0a.12.12,0,0,0,.07-.07l.26-1.11a4.73,4.73,0,0,0,1.25,0l.32,1.07a.08.08,0,0,0,.11.06l.47-.14.65-.19a.09.09,0,0,0,.06-.11l-.33-1.09a5.12,5.12,0,0,0,1.06-.67l.81.77a.09.09,0,0,0,.13,0l.21-.23.59-.62a.09.09,0,0,0,0-.13l-.82-.78a4.58,4.58,0,0,0,.57-1.1l.35.08.74.18h0a.1.1,0,0,0,.07-.07h0l.27-1.13v0a.08.08,0,0,0-.07-.07l-1.1-.26a4.73,4.73,0,0,0,0-1.25l.08,0,1-.3s0,0,0,0a.08.08,0,0,0,0-.08L254.13,29l0,0a.1.1,0,0,0-.1,0l-1.08.33a4.8,4.8,0,0,0-.67-1l.1-.11.67-.71a.08.08,0,0,0,0-.05.09.09,0,0,0,0-.07l-.84-.8,0,0a.08.08,0,0,0-.1,0l-.78.82a5,5,0,0,0-1.1-.57l0-.2.22-.89a.17.17,0,0,0,0-.07l-.06,0-1.13-.27h0a.07.07,0,0,0-.07.07l-.27,1.1a4.66,4.66,0,0,0-1.24.05l-.05-.15-.27-.92,0-.05a.09.09,0,0,0-.07,0l-1.12.33,0,0a.1.1,0,0,0,0,.1l.32,1.09a5,5,0,0,0-1,.66l-.13-.12-.68-.65-.06,0a.11.11,0,0,0-.07,0l-.8.84s0,0,0,0a.1.1,0,0,0,0,.09l.83.78a4.88,4.88,0,0,0-.58,1.11l-.09,0-1-.23h-.06a.06.06,0,0,0,0,.06l-.27,1.14a.09.09,0,0,0,0,.09h0l1.11.27a4.66,4.66,0,0,0,0,1.24l-1.07.32a.09.09,0,0,0-.06.11l.23.8.1.32,0,0h0a.08.08,0,0,0,.09,0l1.09-.32a5.05,5.05,0,0,0,.67,1l-.77.81s0,0,0,0h0a.1.1,0,0,0,0,.09l.62.58.23.22a.11.11,0,0,0,.13,0l.78-.83a4.61,4.61,0,0,0,1.1.58Zm.47-6.1a1.57,1.57,0,1,1,1.16,1.9A1.57,1.57,0,0,1,246.91,31.05Z"/><path class="cls-7" d="M259.37,34a.05.05,0,0,0,.05.07l.82.2h0a.06.06,0,0,0,.06-.05l.19-.8a3.38,3.38,0,0,0,.9,0l.23.77a.07.07,0,0,0,.08,0l.34-.1.47-.14a.06.06,0,0,0,0-.08l-.23-.79a3.36,3.36,0,0,0,.76-.48l.59.56a.06.06,0,0,0,.09,0l.16-.16.42-.45s0-.07,0-.09l-.6-.57a3.73,3.73,0,0,0,.42-.79l.25.05.54.13s0,0,0,0a.06.06,0,0,0,.06-.05h0l.19-.82v0a0,0,0,0,0-.05,0l-.8-.2a3.4,3.4,0,0,0,0-.9h.05l.72-.22,0,0a0,0,0,0,0,0-.06l-.24-.81s0,0,0,0a.06.06,0,0,0-.07,0l-.79.23a3.36,3.36,0,0,0-.48-.76l.08-.08.48-.51a0,0,0,0,0,0,0s0,0,0-.06l-.61-.58h0a.06.06,0,0,0-.07,0l-.57.6a3.73,3.73,0,0,0-.79-.42l0-.14.15-.64s0,0,0-.05a.05.05,0,0,0-.05,0l-.81-.2h0a0,0,0,0,0-.05,0l-.2.8a3.4,3.4,0,0,0-.9,0l0-.11-.2-.67s0,0,0,0a.07.07,0,0,0-.06,0l-.81.24h0a.07.07,0,0,0,0,.07l.23.79a3.75,3.75,0,0,0-.76.48l-.09-.09-.49-.46a.07.07,0,0,0-.1,0l-.58.61s0,0,0,0a0,0,0,0,0,0,.06l.59.57a3.58,3.58,0,0,0-.42.8l-.06,0-.72-.17h0a.07.07,0,0,0,0,.05l-.2.82a.11.11,0,0,0,0,.06h0l.8.19a3.38,3.38,0,0,0,0,.9l-.78.23a.07.07,0,0,0,0,.08l.17.58.07.23s0,0,0,0h0a.06.06,0,0,0,.07,0l.79-.23a3.75,3.75,0,0,0,.48.76l-.55.59,0,0h0a.06.06,0,0,0,0,.07l.45.42.16.16a.06.06,0,0,0,.09,0l.57-.6a3.58,3.58,0,0,0,.8.42Zm.34-4.42a1.14,1.14,0,1,1,.84,1.37A1.14,1.14,0,0,1,259.71,29.59Z"/><path class="cls-7" d="M112.69,140.09A12.69,12.69,0,0,0,100,152.78c0,7,12.69,28.92,12.69,28.92s12.69-21.91,12.69-28.92A12.69,12.69,0,0,0,112.69,140.09Zm0,20.08a7,7,0,1,1,7-7A7,7,0,0,1,112.69,160.17Z"/><path class="cls-24" d="M112.69,144.67a8.53,8.53,0,1,0,8.53,8.53A8.52,8.52,0,0,0,112.69,144.67Zm0,15.5a7,7,0,1,1,7-7A7,7,0,0,1,112.69,160.17Z"/></g></g></g></svg>