<svg xmlns="http://www.w3.org/2000/svg" viewBox="0 0 199.18 199.03"><defs><style>.cls-1{fill:#c88a5e;}</style></defs><g id="Capa_2" data-name="Capa 2"><g id="Capa_1-2" data-name="Capa 1"><path class="cls-1" d="M99.6,79.58c0,5.18,0,10.36,0,15.55,0,2.88-1.28,4.33-4.2,4.33-10.49,0-21,0-31.48,0a5.45,5.45,0,0,1-4.07-1.9q-29-29-58-58c-2.18-2.17-2.32-4.08-.09-6.3Q17.61,17.55,33.37,1.69c2.16-2.17,4.07-2.31,6.3-.08q29.1,29.17,58.26,58.27a5.83,5.83,0,0,1,1.7,4.54C99.55,69.47,99.6,74.52,99.6,79.58Zm-6.73-1.24c0-3.88,0-7.77,0-11.66a4.85,4.85,0,0,0-1.42-3.83q-26.58-26.47-53-53.06c-1.46-1.48-2.31-1.4-3.72,0Q22.41,22.28,10,34.56c-1.48,1.46-1.41,2.3,0,3.72Q36.43,64.6,62.78,91.05a4.83,4.83,0,0,0,3.71,1.66c7.91,0,15.81-.07,23.72,0,2,0,2.74-.71,2.69-2.71C92.79,86.12,92.86,82.23,92.87,78.34Z"/><path class="cls-1" d="M123.71,165.66c10,0,19.94-.12,29.91.07,2.72.05,3.75-.93,4.63-3.36,6.55-18.09,13.39-36.08,19.83-54.21,1.52-4.28,3.73-6,8.22-5.6a74.79,74.79,0,0,0,10.48,0c3.16-.14,2.25,2.07,2.35,3.7s.26,3.55-2.42,3.2a4,4,0,0,0-.77,0c-3.72.25-8.3-1.5-10.94.74-2.41,2.05-2.81,6.47-4.06,9.86-5.82,15.75-11.75,31.46-17.37,47.28-1.33,3.77-3.16,5.74-7.25,5.15a7.71,7.71,0,0,0-2.71,0c-1.43.34-3.92-1.23-4.08,1.34-.15,2.27-1.37,5,1.79,6.86a9.57,9.57,0,0,1,4.15,11.49A10.19,10.19,0,0,1,146,199a9.86,9.86,0,0,1-9.36-6.87,9.26,9.26,0,0,1,3.89-11.19c3.28-2.11,2.09-5,1.84-7.59-.14-1.41-2-.8-3-.81-7.25,0-14.51-.1-21.76,0-1.56,0-4.19-1.18-4.53,1.23s-1.23,5,2,7.12a9.7,9.7,0,0,1-.28,16.55,9.91,9.91,0,0,1-11.23-16.31c1.17-.92,2.57-1.4,2.71-3.41.33-4.93.19-5.24-4.77-5.24-3.11,0-6.22-.16-9.32,0-2.92.18-2.6-1.65-2.63-3.5s-.11-3.49,2.71-3.45C102.72,165.74,113.21,165.66,123.71,165.66ZM109.6,192.11c1.9-.13,3.12-1.17,3.12-3.11a2.92,2.92,0,0,0-3.13-3.15,2.85,2.85,0,0,0-3.11,3.12C106.45,191,107.55,192,109.6,192.11Zm39.72-3c-.26-1.88-1.19-3.17-3.16-3.23A2.84,2.84,0,0,0,143,188.9a2.76,2.76,0,0,0,3,3.18C148,192.12,148.94,190.92,149.32,189.08Z"/><path class="cls-1" d="M122.53,106c12.44,0,24.88,0,37.31,0,5.93,0,6.89,1.34,5.12,7-4.28,13.82-8.67,27.6-12.84,41.45-1,3.38-2.66,4.85-6.31,4.82-15.55-.15-31.09-.13-46.64,0-3.36,0-5.17-1.09-6.14-4.46C89,140.7,84.62,126.63,80.42,112.51,79,107.59,80.1,106,85.22,106,97.66,106,110.09,106,122.53,106Zm.46,6.7c-10.48,0-21,.16-31.44-.09-3.74-.09-3.89,1-2.92,4.13,3.4,10.83,6.6,21.72,9.73,32.63.63,2.21,1.51,3.11,3.94,3.08q20.19-.18,40.37,0c2.38,0,3.35-.76,4-3q5.06-16.86,10.48-33.61c.87-2.68.31-3.22-2.37-3.19C144.2,112.77,133.59,112.7,123,112.7Z"/><path class="cls-1" d="M140.73,73c-3.36,0-6.73,0-10.1,0-3,0-4.58-1.39-4.57-4.47,0-7,0-14,0-21a6.3,6.3,0,0,1,2.25-4.73q20.34-20.32,40.64-40.69c2.51-2.52,4.54-2.84,7.17-.14Q186.38,12.56,197,22.85c2.64,2.57,2.62,4.58,0,7.16q-20.43,20.24-40.68,40.67A7.27,7.27,0,0,1,150.45,73C147.22,72.88,144,73,140.73,73Zm1.62-6.85c2.2,0,4.41-.09,6.61,0a5,5,0,0,0,4.09-1.7q18-18.06,36-36c1.54-1.52,1.69-2.43.06-4-4.86-4.66-9.67-9.39-14.28-14.3-1.84-2-2.87-1.66-4.58.08-10.29,10.43-20.44,21-31.14,31-4.76,4.45-6.75,9-6.37,15.49C133.29,66.11,132.89,66.13,142.35,66.13Z"/><path class="cls-1" d="M66.38,149.48c2.4,7.82-2.18,14.11-8.89,20.2-9.4,8.52-18.06,17.86-27,26.82-3.38,3.37-4.29,3.36-7.65,0Q12.61,186.38,2.45,176.18c-3.22-3.24-3.26-4.24-.15-7.37,11.25-11.3,22.55-22.54,33.78-33.85a7.09,7.09,0,0,1,5.47-2.35c6.61.09,13.23.13,19.83,0,3.68-.07,5.2,1.48,5,5.12C66.26,141.08,66.38,144.45,66.38,149.48ZM49.65,139.2c-2.91.84-6.84-1.54-10.08,1.75Q25,155.77,10.14,170.35c-1.82,1.78-1.5,2.72.14,4.29,4.76,4.58,9.46,9.23,14,14,1.74,1.84,2.76,1.88,4.57,0C37,180.35,45.07,171.9,53.65,164c4.65-4.28,6.74-8.67,6.34-15.11C59.4,139.22,59.84,139.2,49.65,139.2Z"/><path class="cls-1" d="M70.09,112.64c-2.35.31-4,.2-3.88-3,.14-2.36.27-3.9,3.27-3.73,2.27.13,4,.07,3.73,3.21C73,111.38,73.24,113.42,70.09,112.64Z"/><path class="cls-1" d="M123,82.78c-.77-3.26,1.07-3.34,3.44-3.44,2.85-.13,3,1.34,3.08,3.54.16,2.76-.87,3.4-3.5,3.44C123,86.36,122.36,85.18,123,82.78Z"/><path class="cls-1" d="M125.9,99.38c-3.33.83-2.94-1.38-3.1-3.54-.2-2.66.91-3.15,3.3-3.23,2.85-.09,3.35,1.1,3.41,3.62C129.57,99,128.55,100,125.9,99.38Z"/><path class="cls-1" d="M69.79,125.86c-2.75.63-3.55-.5-3.59-3.23,0-2.94,1.24-3.33,3.71-3.38s3.32.76,3.31,3.31S72.69,126.59,69.79,125.86Z"/><path class="cls-1" d="M35.14,45.54c2.18-3.62-.08-6.28-3-9-2.17-2,.79-2.67,1.57-3.79s1.85-2.69,3.27-.71c2.39,3.34,5.33,4.35,9.27,3,1-.33,2.31.17,3.38.57,1.59.58,4.47,1.13,3.71,2.91S51.17,43.49,47.53,42a3.85,3.85,0,0,0-5,2,4.2,4.2,0,0,0,.53,5c1.57,1.94,3.38,1.43,5.24.55s3.92-2,6-2.76a9.49,9.49,0,0,1,10.42,2.12c2.88,2.77,4.52,6.25,3.3,10.15-.87,2.79,0,4.46,2,6,2.22,1.65,1.62,2.94-.13,4.58-1.59,1.5-2.87,2.72-4.55.27S61.75,66.89,59,68a6.7,6.7,0,0,1-5.3-.48c-1.48-.66-4.36-1-3.38-3.09.79-1.65,2.12-4.66,5.55-3.3a3.88,3.88,0,0,0,5-1.81,4.15,4.15,0,0,0-.36-5c-1.5-1.93-3.3-1.63-5.21-.7a56.38,56.38,0,0,1-6,2.75C42.38,58.82,35.14,53.57,35.14,45.54Z"/><path class="cls-1" d="M73.11,77.44A4.57,4.57,0,0,1,78,73c3.12-.07,4.73,1.9,5,4.78.28,2.49-2.34,5-4.87,5.1S73.17,80.54,73.11,77.44Z"/><path class="cls-1" d="M122.94,129.25c-5.69,0-11.39-.13-17.07.05-2.75.09-3.15-1.13-3.14-3.46s.44-3.22,3-3.19q17.05.18,34.13,0c2.57,0,2.94,1,3,3.23,0,2.36-.47,3.53-3.19,3.43C134.06,129.12,128.5,129.25,122.94,129.25Z"/><path class="cls-1" d="M123.12,136c4.54,0,9.08.13,13.61-.06,2.48-.1,2.78,1.1,2.64,3-.13,1.73.53,3.68-2.49,3.64q-14-.17-28,0c-2.82,0-2.63-1.6-2.73-3.51-.11-2.23.41-3.3,3-3.19C113.78,136.1,118.46,136,123.12,136Z"/><path class="cls-1" d="M169.92,41.84c-2-1.91-4.67-3.13-4.32-6.71.16-1.55-1.4-2.08-2.83-1.72s-2,1.45-1.32,3c.6,1.29,1.25,2.56,1.8,3.86,1.74,4.09,1.11,7.55-1.81,10.27A9.31,9.31,0,0,1,151,51.92a9,9,0,0,1-4.69-9.78c.3-1.71.75-4.39,2.66-4s4.05,2.18,4,4.57c0,1.65,0,2.76,1.59,3.4a2,2,0,0,0,2.42-.72c.91-1.24.14-2.44-.41-3.62-1.19-2.56-2.64-5.06-2-8.08a9.39,9.39,0,0,1,7.72-7.21,9.28,9.28,0,0,1,9.14,4.61C173.45,34.65,173,37.94,169.92,41.84Z"/><path class="cls-1" d="M48.23,158.83c-.09,2.12-.4,4.95-2.36,5.24s-3.53-2.17-4.44-4.12c-.46-1-.13-2.73-1.85-2s-.54,2,0,2.94c1.57,2.71,2.3,5.44.9,8.46a8.13,8.13,0,0,1-14.94-6.4c1-2.57,2.17-3,4-.71.92,1.17,2.48,1.88,2.37,3.77-.06.93.69,1.37,1.59,1.12,1.05-.28.92-1.14.63-1.86-.49-1.19-1.2-2.29-1.65-3.49a7.52,7.52,0,0,1,1.93-8.52,7.44,7.44,0,0,1,8.53-1.81A8.26,8.26,0,0,1,48.23,158.83Z"/></g></g></svg>