<svg xmlns="http://www.w3.org/2000/svg" viewBox="0 0 162.54 162.58"><defs><style>.cls-1{fill:#c98b5f;}</style></defs><g id="Capa_2" data-name="Capa 2"><g id="Capa_1-2" data-name="Capa 1"><path class="cls-1" d="M147.14,66.15c3-3.12,6-6.26,9-9.34,1-1,.75-2.16.62-3.27-1.47-13.55-3-27.1-4.46-40.65-.2-1.87-1.12-2.45-2.84-2.64Q129.3,8.08,109.14,5.78a4.83,4.83,0,0,0-4.44,1.69C100,12.33,95.08,17,90.4,21.9c-1.49,1.57-2.28,1.32-3.67-.07s-1.93-2.29-.18-4C92.06,12.6,97.41,7.17,102.73,1.72A5.31,5.31,0,0,1,107.57.1c15.12,1.71,30.24,3.42,45.37,5,3,.31,4.2,1.64,4.51,4.56,1.58,15,3.22,30.05,5,45.05.35,2.89-.89,4.65-2.83,6.22A4.44,4.44,0,0,0,158,66.13c1.63,6.55,2.89,13.19,4.28,19.8,1.2,5.72-1.95,10.54-7.52,11.51-5,.88-9.65-2.7-10.52-8.19-.55-3.44-1-6.9-1.51-10.42-1.39-.49-2.11,2.56-4,.53s-2.87-3.33-.12-5.06c4.25-2.66,2.36-6.27,1.9-9.67l-.91-.63c-2.1,2.34-4.26,4.64-6.3,7-1.66,2-2.44.22-3.42-.69s-2.19-1.69-.49-3.23,4.32-2.88,4.25-4.8c-.07-2.08-2.82-3.45-4.45-5.08-8.94-9-18-17.92-26.87-27-1.73-1.77-2.64-1.64-4.18.08-2.55,2.82-5.46,5.32-8,8.15-1.64,1.83-2.44.56-3.49-.48s-2.2-1.84-.44-3.48c3.8-3.53,7.36-7.31,11-11,2.63-2.61,3.37-2.62,6,0Q120,40.25,136.7,57c.81.81,1.65,1.58,3.13,3-.62-4.46-1.1-8.12-1.64-11.78-.51-3.45-1.17-6.87-1.59-10.33-.37-3-.79-5.61-3.79-7.66-3.73-2.57-3.64-8.24-.5-11.53a8.17,8.17,0,1,1,11.36,11.73c-1.07.95-2.44,1.44-2.13,3.43,1.66,10.61,3.18,21.24,4.75,31.87Zm5.64,1.5c-1.86,1.95-3.28,3.48-4.74,5a2.08,2.08,0,0,0-.44,2q1.1,6.87,2.11,13.76c.38,2.48,1.77,4,4.29,3.54s3.35-2.38,2.86-4.79C155.59,80.89,154.25,74.65,152.78,67.65Zm-11.9-43.48c-.37-1.35-1.18-2.49-2.73-2.42a2.49,2.49,0,0,0-2.56,2.9A2.4,2.4,0,0,0,138.37,27C139.9,26.86,140.72,25.81,140.88,24.17Z"/><path class="cls-1" d="M140.9,105.21c-.19,7.63-1.7,14.5-5.2,20.8-.9,1.62-.71,2.47.56,3.71,5.91,5.76,11.71,11.62,17.52,17.47,4.13,4.15,4.44,9.32.84,12.9s-8.66,3.28-12.87-.91c-5.55-5.52-11.11-11-16.57-16.63-1.39-1.42-2.31-1.74-4.2-.54A43.31,43.31,0,0,1,54.75,113.1c-4.19-23,11.21-45.2,34.77-50,22.41-4.58,45.36,10.58,50.22,33.15A59.83,59.83,0,0,1,140.9,105.21ZM97.59,67.85a37.84,37.84,0,1,0,37.75,37.86A37.71,37.71,0,0,0,97.59,67.85Zm54.1,86.43c0-1.57-1-2.5-2-3.47-5.15-5.15-10.44-10.17-15.39-15.51-2.2-2.38-3.45-2.45-5.41.13-1,1.39-1.26,2.06.06,3.28,2.55,2.36,4.95,4.9,7.42,7.36,3.21,3.21,6.43,6.4,9.62,9.63a3.45,3.45,0,0,0,4,1A2.91,2.91,0,0,0,151.69,154.28Z"/><path class="cls-1" d="M40.65,0C49.53,0,58.41,0,67.3,0c8.17,0,14,5.81,14,14q0,18.56,0,37.12C81.25,59,75.8,64.68,67.83,65c-4.43.16-8.88.1-13.32,0-1.75,0-2.53.29-1.94,2.31a54.29,54.29,0,0,1,1.36,6.83c.23,1.43.57,3-1,4s-2.8.1-4-.76c-5-3.56-10-7.08-14.94-10.72A8.13,8.13,0,0,0,28.69,65c-4.76.11-9.52.09-14.28,0C5.45,64.87,0,59.38,0,50.49Q0,32.4,0,14.32C0,5.74,5.73,0,14.32,0,23.09,0,31.87,0,40.65,0Zm6.14,69.12c.56-1.85-.19-3.22-.41-4.65-.6-3.88.14-4.81,4-4.83,5.39,0,10.79,0,16.18,0,6,0,9.19-3.12,9.22-9.17q.09-17.91,0-35.83c0-6.18-3-9.1-9.17-9.12q-26-.06-52,0c-6,0-9,3-9.06,8.9q-.09,18.08,0,36.15c0,6,3.21,9,9.32,9.06,5.29,0,10.57.06,15.86,0a7.64,7.64,0,0,1,5,1.58C39.29,63.9,43,66.45,46.79,69.13Z"/><path class="cls-1" d="M72.54,147.9c-.72.82-1.05,1.24-1.42,1.61-3.88,3.89-7.8,7.76-11.66,11.68-1.79,1.82-3.4,1.73-5.16,0q-26.46-26.51-53-53c-1.81-1.81-1.64-3.41.12-5.16C11.58,93,21.71,82.88,31.73,72.7c1.61-1.64,2.35-.86,3.47.32s2.21,1.94.38,3.73c-9.08,8.86-17.95,18-27,26.83-1.76,1.72-1.58,2.59.06,4.21q23.21,23,46.23,46.24c1.75,1.77,2.67,1.59,4.21-.1,2.55-2.82,5.33-5.43,8-8.1.55-.54,1-1.58,2.06-.79S71.41,146.94,72.54,147.9Z"/><path class="cls-1" d="M41,91.78c-.43.47-.83,1-1.27,1.4-4.84,4.85-9.77,9.61-14.48,14.57-1.62,1.71-2.4.77-3.45-.37s-2.39-1.76-.6-3.49c5-4.82,9.86-9.8,14.79-14.71.55-.55,1.13-1.56,2.06-.71A10.47,10.47,0,0,1,41,91.78Z"/><path class="cls-1" d="M49.54,99.9c-.5.57-.87,1-1.3,1.48-4.92,4.94-10,9.78-14.74,14.84-1.74,1.84-2.4.44-3.41-.52s-2.21-1.83-.47-3.49c5-4.74,9.74-9.68,14.62-14.51.53-.53,1-1.68,2-.94A38.13,38.13,0,0,1,49.54,99.9Z"/><path class="cls-1" d="M40,126a37.64,37.64,0,0,1-2.85-3.37c-.78-1.17.57-1.63,1.13-2.22,2.4-2.51,5-4.87,7.32-7.41,1.46-1.57,2.24-.32,3,.6s2.83,1.41,1.08,3.16c-2.75,2.75-5.5,5.51-8.26,8.25A14.4,14.4,0,0,1,40,126Z"/><path class="cls-1" d="M48.13,134.45c-.8-1-1.73-2.15-2.56-3.35s.56-1.57,1.07-2.16c1-1.2,2.19-2.26,3.3-3.37,2.26-2.25,4.16-1.93,5.59.87a1,1,0,0,1-.13,1.38c-1.93,1.92-3.85,3.86-5.79,5.77A11,11,0,0,1,48.13,134.45Z"/><path class="cls-1" d="M62.23,137.08c0,.85-4.42,5.47-5,5.25a7.31,7.31,0,0,1-3.53-3.39c-.23-.4,4.49-5.2,5-5C60.34,134.55,61.26,136,62.23,137.08Z"/><path class="cls-1" d="M130.12,105.67A32.59,32.59,0,1,1,97.63,73.08,32.78,32.78,0,0,1,130.12,105.67Zm-5.6.06a27,27,0,1,0-27,27A26.78,26.78,0,0,0,124.52,105.73Z"/><path class="cls-1" d="M40.89,29c-2.74,4.11-5.29,8-7.9,11.83-2.27,3.35-3.82,3.39-6.3.21-1.36-1.76-2.68-3.54-4-5.33-.63-.84-1.21-1.13-1.94-.1-2.19,3.14-5.13,5.78-4.52,10.36.32,2.41,1,2.91,3.2,2.89,16.09-.08,32.17,0,48.26-.09,2.17,0,2.91.52,2.88,2.79s-.72,2.64-2.74,2.64q-26.51-.11-53,0c-3.06,0-4.07-1.31-4.05-4.24q.13-16.81,0-33.65c0-2.15.49-3,2.79-2.92s2.91.74,2.85,2.93c-.13,5,0,9.91,0,14.84,1.24.22,1.39-.72,1.8-1.23,3-3.74,4.14-3.76,7-.05a47.07,47.07,0,0,1,3,4.08c1.23,2,2,1.47,3-.18,2.14-3.4,4.39-6.73,6.66-10,1.87-2.71,3.39-2.82,5.52-.35,3.44,4,6.78,8.1,10.39,12.43,3.49-6.25,6.88-12.2,10.12-18.22,1-1.85,1.66-2.67,4-1.42s1.81,2.39.82,4.13C64.8,27.1,61.06,34,57.24,40.78c-1.86,3.32-3.53,3.48-6,.56C47.8,37.34,44.46,33.27,40.89,29Z"/><path class="cls-1" d="M102.88,112.08c.26-2.55-1-3.76-3.71-3.61-.74,0-1.48,0-2.22,0-8.73.42-11.68-5.66-9.78-13.58a6.58,6.58,0,0,1,5.23-5c2.16-.41,2.55-1.44,2.31-3.2-.31-2.29.73-2.8,2.88-2.84,2.32,0,3,.81,2.72,2.94-.27,1.86.33,2.75,2.4,3.09a6.2,6.2,0,0,1,4.54,3.65c.58,1.23,2,3,.39,3.82-1.32.63-3.58,1.29-5-.88-1.11-1.66-6.18-2.31-8.55-1.38s-2,3-1.93,4.85a2.72,2.72,0,0,0,3,3c1.59,0,3.18,0,4.76,0,4.64.13,7.82,2.91,8.51,7.38.87,5.6-1.18,9.92-5.84,11.2-2.09.58-2.45,1.57-2.2,3.27.3,2.12-.6,2.73-2.66,2.72s-3.32-.36-3-2.77c.28-1.8-.24-2.89-2.31-3.22A6.38,6.38,0,0,1,88,118.12c-.74-1.28-2.17-3.18-.51-4.1,1.24-.69,3.56-1.28,5,.87,1.2,1.75,7.81,2.21,9.42.89C103.08,114.83,102.87,113.51,102.88,112.08Z"/></g></g></svg>