<svg xmlns="http://www.w3.org/2000/svg" viewBox="0 0 159.35 159.38"><defs><style>.cls-1{fill:#c88a5e;}</style></defs><g id="Capa_2" data-name="Capa 2"><g id="Capa_1-2" data-name="Capa 1"><path class="cls-1" d="M33.52,77.1c-2.07-3.55-4.13-5.58-8.29-5.24-5.64.46-11.34.15-17,.1-5,0-8.18-3.18-8.19-8.25Q0,35.93,0,8.14C0,3.26,3.19,0,8,0Q41.1,0,74.18,0c4.87,0,8,3.18,8.06,8.06.05,3,.19,6,0,9-.21,2.73.48,3.6,3.43,3.58,21.31-.15,42.61-.08,63.92-.08,7.23,0,9.79,2.58,9.79,9.88q0,26.49,0,53c0,6.16-2.89,9.08-9,9.09-7.71,0-15.42.07-23.13,0a4.83,4.83,0,0,0-4.33,2c-2.78,3.52-5.75,6.9-8.59,10.39-1.91,2.35-4.2,3.75-7.26,2.72s-4.39-3.49-4.27-6.75c.08-2-.1-4.08,0-6.1s-.65-2.24-2.38-2.33c-2.3-.12-2.85.65-2.83,2.88.11,13.06.06,26.12,0,39.18,0,6.6-2.78,9.4-9.31,9.4-7.92,0-15.85.12-23.77-.06-2.5-.05-3.15.75-2.93,3.08.19,2,0,4.06,0,6.1a5.84,5.84,0,0,1-4,5.92c-2.74,1-5.06.13-6.89-2-2.92-3.42-5.85-6.84-8.59-10.39a6.22,6.22,0,0,0-5.65-2.7c-7.6.18-15.2.09-22.81.06-5.46,0-8.54-3.08-8.54-8.55q0-24.89,0-49.78c0-5.44,3.1-8.46,8.61-8.48C20.19,77.08,26.61,77.1,33.52,77.1ZM10.3,110.49v23.42c0,4.54.34,4.86,5,4.86,7.81,0,15.62.17,23.42-.08a6.79,6.79,0,0,1,6.16,3c3,3.78,6.13,7.42,9.22,11.1.46.55.86,1.42,1.75,1.11s.69-1.22.69-1.95c0-3.42.17-6.85,0-10.26-.17-2.47.68-3,3-3,9.63.13,19.26,0,28.88.09,2.77,0,4.17-.86,4.15-3.86q-.1-20.05,0-40.11c0-1.81-.51-2.39-2.34-2.35-4.92.12-9.84.06-14.76,0-5.42,0-8.36-2.74-8.59-8.14-.07-1.66-.5-2.22-2.18-2.17-3.85.11-7.7.07-11.55,0a2.25,2.25,0,0,0-2.25,1.31c-3,5-7.31,5.29-11,.67a4.83,4.83,0,0,0-4.32-2c-7.06.1-14.12.13-21.18,0-3.07,0-4.17,1.21-4.13,4.21C10.38,94.44,10.3,102.47,10.3,110.49ZM41.2,5.16c-10.6,0-21.2.06-31.8,0-2.95,0-4.29.93-4.28,4.07q.12,26.82,0,53.64c0,2.87,1.08,4.07,4,4,6.64-.1,13.28.08,19.91-.08a5.7,5.7,0,0,1,5.13,2.44c3.05,3.87,6.26,7.6,9.43,11.37.53.62.95,1.7,1.95,1.38s.71-1.43.71-2.24c0-3.43.14-6.86,0-10.28-.11-2.13.61-2.69,2.69-2.66,7.92.11,15.85,0,23.77,0,3.91,0,4.42-.52,4.42-4.49q0-26.34,0-52.68c0-4-.51-4.48-4.42-4.48Q56.94,5.14,41.2,5.16Zm76.43,20.56c-10.82,0-21.63.08-32.44-.06-2.43,0-3,.64-3,3,.12,11.56.07,23.12,0,34.69,0,5.41-2.72,8.32-8.18,8.55-1.72.07-2.19.6-2.13,2.23.11,3,0,6,0,9,0,3.68.57,4.23,4.34,4.24,9.42,0,18.85.14,28.26-.08,3-.08,3.62.88,3.42,3.58-.22,3.2-.06,6.42,0,9.63,0,.72-.24,1.63.64,2s1.32-.5,1.77-1c3.37-4,6.78-8,10-12.1a4.93,4.93,0,0,1,4.36-2c8.24.1,16.48,0,24.72,0,4.24,0,4.69-.44,4.69-4.54q0-26.34,0-52.67c0-3.94-.51-4.44-4.45-4.45ZM59,77.1c1.92,0,3.85-.13,5.75,0,2.13.19,2.15-1,2.1-2.54s.24-2.76-2-2.65c-3.4.15-6.82.09-10.23,0-1.94,0-3.36-.14-3.31,2.7s1.45,2.52,3.21,2.46C56,77.06,57.5,77.1,59,77.1Z"/><path class="cls-1" d="M61.28,104.9c1.35,0,1.26-1.27,1.71-2a10.23,10.23,0,0,1,13.9-4A10,10,0,0,1,80.81,113c-1,1.75-.73,2.37.71,3.48,5.23,4,6.29,9.63,5.88,15.8-.13,2-1.61,1.31-2.6,1.32s-2.56.67-2.55-1.36c0-1.39,0-2.79,0-4.17-.4-6.61-6.9-11.34-12.84-9.45-1.31.41-1.84.78-1.5,2.43.69,3.34.91,6.77,1.37,10.16.17,1.3.21,2.53-1.56,2.36-1.32-.12-3.36,1.32-3.61-1.57s-.67-5.73-1.06-8.59a11.68,11.68,0,0,0-23.2,0c-.39,2.86-.82,5.72-1.07,8.6s-2.29,1.43-3.61,1.55c-1.78.17-1.72-1.08-1.54-2.37.45-3.39.67-6.82,1.37-10.16.34-1.67-.23-2-1.52-2.43-5.82-1.84-12.28,2.73-12.82,9.15a17.31,17.31,0,0,0,0,2.88c.16,1.92,0,3.12-2.59,3.11s-2.54-1.17-2.63-3.09c-.27-6,1.53-11,6.42-14.6,1-.78,1.23-1.25.53-2.5-3.21-5.79-1.67-11.76,3.6-14.63s11-1,14.32,4.82c.31.55.4,1.27,1.26,1.18-.25,2.12-.49,4.21-.74,6.38,2.51-.74,3.18-1.9,1.49-4a7.48,7.48,0,0,1-.78-2.35c-.82-4.66.67-8.48,4.34-10.78a9.89,9.89,0,0,1,11.17,0c3.66,2.28,5.19,6.21,4.35,10.79a7.33,7.33,0,0,1-.79,2.38c-1.72,2.23-1,3.32,1.78,3.89C61.14,109.12,62.22,106.88,61.28,104.9Zm-4.75-2.08a5.12,5.12,0,1,0-5.14,5.1A5.23,5.23,0,0,0,56.53,102.82ZM25.74,107.7a5.12,5.12,0,1,0,5.36-4.87A5.25,5.25,0,0,0,25.74,107.7ZM72,113.06A5.12,5.12,0,1,0,66.85,108,5.23,5.23,0,0,0,72,113.06Z"/><path class="cls-1" d="M66.89,31C66.78,36.83,65,41.2,61.27,44.61c-6.18,5.62-12.47,11.1-18.66,16.7-1.09,1-1.77,1.07-2.91,0C33.44,55.67,27,50.2,20.83,44.41c-5-4.71-6.57-10.69-4.75-17.32A15,15,0,0,1,27.6,15.8a14.05,14.05,0,0,1,11.87,2.39,2.34,2.34,0,0,0,3.28,0c5-3.46,10.36-3.91,15.73-1A15.73,15.73,0,0,1,66.89,31Zm-46.31.58a12.18,12.18,0,0,0,4.32,9.63c4.75,4.32,9.66,8.45,14.34,12.84,1.64,1.54,2.6,1.08,4-.17,3.94-3.61,8-7.13,12-10.68,1.84-1.63,3.76-3.18,5-5.4,2.83-5.19,1.64-11.85-2.72-15.1s-9.71-2.76-14,2c-2.36,2.61-3.42,1-4.94-.52-3.19-3.3-6.95-4.51-11.36-2.79A11,11,0,0,0,20.58,31.56Z"/><path class="cls-1" d="M87.38,64.37c0-4.17,0-8.34,0-12.51,0-3.58,2-5.63,5.56-5.55,4,.09,8.12-.67,12.1.51,1.21.36,1.76-.49,2.37-1.2a21.83,21.83,0,0,0,4.38-7.75C113.57,32.36,117,30,121.64,31a10.3,10.3,0,0,1,8.1,10.82,3.69,3.69,0,0,1-.13,1c-1.31,3.27.38,3.6,3.12,3.54,6.14-.11,10.68,3.68,11.13,9.18.2,2.45.06,4.92.06,7.38,0,3.21.1,6.42,0,9.62a10,10,0,0,1-9.67,9.7c-8.5,0-17.16,1.1-25.23-2.77-1.06-.5-1.51-.1-2.07.69-1.23,1.74-3,2.21-5.06,2.16-2.67-.07-5.34,0-8,0-4.63,0-6.43-1.78-6.46-6.33C87.36,72.07,87.38,68.22,87.38,64.37ZM108,62.62a40.16,40.16,0,0,1-.06,6.4c-.61,3.66,1.31,5,4.32,6.19,7.26,2.74,14.78,1.93,22.21,1.71,2.88-.08,4.34-2.47,4.35-5.43,0-4.82.06-9.63,0-14.44-.05-3.55-2.05-5.52-5.58-5.62-2.57-.07-5.14-.1-7.7,0-1.84.08-2.78-.19-2.21-2.4a70.36,70.36,0,0,0,1.2-6.94,5.06,5.06,0,0,0-3.63-6c-3-.69-3.52,1.48-4.18,3.62-.93,3-2.09,6.11-4.44,8.06-4.15,3.44-4.78,7.7-4.27,12.54A21.1,21.1,0,0,1,108,62.62Zm-5.15,2V58.82c0-7.59,0-7.52-7.77-7.45-1.91,0-2.6.44-2.55,2.48.15,5.22,0,10.46,0,15.69,0,7.83,0,7.77,7.93,7.6,1.77,0,2.45-.44,2.38-2.31C102.7,71.42,102.8,68,102.8,64.58Z"/></g></g></svg>