<svg xmlns="http://www.w3.org/2000/svg" viewBox="0 0 374.47 262.85"><defs><style>.cls-1{isolation:isolate;}.cls-2,.cls-23{opacity:0.5;}.cls-3{fill:#7f7f74;}.cls-4{fill:#a0d5d6;}.cls-5{fill:#a1a08b;}.cls-6{font-size:19.73px;font-family:Montserrat-Black, Montserrat Black;font-weight:800;}.cls-6,.cls-7{fill:#fff;}.cls-8{fill:#6c2910;}.cls-9{fill:#dbd59e;opacity:0.88;}.cls-10{fill:#c88a5e;}.cls-11{fill:#b9ccda;}.cls-11,.cls-13{opacity:0.8;}.cls-12,.cls-21{fill:#d0d2d3;}.cls-13{fill:#839dbb;}.cls-14{fill:#e6e6e7;}.cls-14,.cls-21{mix-blend-mode:multiply;}.cls-15{fill:#776b61;}.cls-16{fill:#c3ac7f;}.cls-17{fill:#6d6f71;}.cls-18{fill:#a6a7aa;}.cls-19{fill:#613a14;}.cls-20{fill:#4b3c32;}.cls-22{fill:#f5b9ae;}.cls-23,.cls-25{fill:#e27f88;}.cls-24{fill:#5b4a43;}.cls-26{fill:#424042;}.cls-27{fill:#efa99f;}.cls-28{fill:#e19189;}.cls-29{fill:#fdce75;}.cls-30{fill:#818284;}.cls-31{fill:#5a595b;}.cls-32{fill:#8bc9df;opacity:0.4;}.cls-33{fill:#b2b095;}</style></defs><g class="cls-1"><g id="Capa_2" data-name="Capa 2"><g id="Capa_1-2" data-name="Capa 1"><g class="cls-2"><path class="cls-3" d="M344.39,166.4a8,8,0,0,0,.77-2.4v0l-1.34-.21a6.72,6.72,0,0,0,0-2.1l1.33-.22a7.82,7.82,0,0,0-.79-2.39l-1.21.62A6.82,6.82,0,0,0,341.9,158l1-1a7.85,7.85,0,0,0-2.05-1.47l-.61,1.21a6.85,6.85,0,0,0-2-.63h0l.21-1.34a7.89,7.89,0,0,0-2.52,0l.22,1.34a6.85,6.85,0,0,0-2,.66l-.63-1.2a8.24,8.24,0,0,0-2,1.49l1,1a6.55,6.55,0,0,0-1.23,1.7l-1.21-.61a8,8,0,0,0-.76,2.39h0l1.34.2a6.72,6.72,0,0,0,0,2.1l-1.34.22a8.16,8.16,0,0,0,.79,2.4l1.21-.63a6.47,6.47,0,0,0,1.24,1.69l-1,1a8.2,8.2,0,0,0,2.05,1.47l.61-1.21a6.63,6.63,0,0,0,2,.64h0l-.21,1.34a8.26,8.26,0,0,0,2.53,0l-.22-1.34a6.85,6.85,0,0,0,2-.66l.62,1.21a8.06,8.06,0,0,0,2-1.49l-1-1a6.9,6.9,0,0,0,1.23-1.7Zm-7.74-.13a3.54,3.54,0,1,1,4-3A3.54,3.54,0,0,1,336.65,166.27Z"/><path class="cls-4" d="M188.6,18a12.22,12.22,0,0,0,1.18-3.7v0L187.73,14a10.28,10.28,0,0,0,0-3.23l2.06-.34a12.36,12.36,0,0,0-1.22-3.68l-1.86,1a10.83,10.83,0,0,0-1.91-2.6l1.46-1.48a12.39,12.39,0,0,0-3.15-2.27l-.94,1.87a10,10,0,0,0-3-1h0l.31-2.06a12.62,12.62,0,0,0-3.88,0l.34,2.06a10.41,10.41,0,0,0-3.06,1l-1-1.85a12.4,12.4,0,0,0-3.13,2.3l1.49,1.47a10.07,10.07,0,0,0-1.89,2.62l-1.86-.94a12.38,12.38,0,0,0-1.18,3.68v0l2.06.3a10.34,10.34,0,0,0,0,3.24l-2.06.34a12.36,12.36,0,0,0,1.22,3.68l1.86-1a10.37,10.37,0,0,0,1.91,2.61l-1.47,1.48a12.57,12.57,0,0,0,3.15,2.27l.94-1.87a10.17,10.17,0,0,0,3.06,1h0l-.31,2.06a12.62,12.62,0,0,0,3.88,0l-.34-2.06a10.39,10.39,0,0,0,3.06-1l1,1.85a12.61,12.61,0,0,0,3.13-2.29l-1.48-1.47a10.56,10.56,0,0,0,1.89-2.62Zm-11.91-.2a5.45,5.45,0,1,1,6.22-4.56A5.45,5.45,0,0,1,176.69,17.8Z"/><path class="cls-3" d="M117.31,193.4a13,13,0,0,0,1.19-3.73v0l-2.07-.32a10.4,10.4,0,0,0,0-3.25l2.08-.34a12.39,12.39,0,0,0-1.24-3.71l-1.87,1a10.15,10.15,0,0,0-1.93-2.62l1.48-1.5a12.17,12.17,0,0,0-3.18-2.28l-.94,1.88a10.41,10.41,0,0,0-3.07-1h0l.32-2.07a12.5,12.5,0,0,0-3.91,0l.34,2.08a10.44,10.44,0,0,0-3.08,1l-1-1.87A12.64,12.64,0,0,0,97.25,179l1.5,1.48a10.38,10.38,0,0,0-1.9,2.64L95,182.16a12.31,12.31,0,0,0-1.18,3.7v0l2.08.31a10.18,10.18,0,0,0,0,3.26l-2.08.34A12.46,12.46,0,0,0,95,193.5l1.87-1a10.32,10.32,0,0,0,1.93,2.62l-1.48,1.49a12.33,12.33,0,0,0,3.17,2.29l1-1.88a10.17,10.17,0,0,0,3.09,1h0l-.31,2.07a12.44,12.44,0,0,0,3.9,0l-.33-2.08a10.06,10.06,0,0,0,3.08-1l1,1.87a12.72,12.72,0,0,0,3.15-2.31l-1.5-1.48a10.24,10.24,0,0,0,1.91-2.64Zm-12-.2a5.49,5.49,0,1,1,6.27-4.59A5.5,5.5,0,0,1,105.3,193.2Z"/></g><path class="cls-5" d="M313.49,226.59a15.64,15.64,0,0,1-8.75,4.19v5.63h-7.16V231a33.85,33.85,0,0,1-7.28-1.16,22.49,22.49,0,0,1-5.76-2.39l3.86-8.73a24,24,0,0,0,5.68,2.36,21.93,21.93,0,0,0,6,.89,9.37,9.37,0,0,0,3.55-.48,1.55,1.55,0,0,0,1.07-1.45c0-.74-.47-1.3-1.4-1.67a30.22,30.22,0,0,0-4.59-1.22,51.41,51.41,0,0,1-6.85-1.85,11.6,11.6,0,0,1-4.77-3.25,8.8,8.8,0,0,1-2-6.11,10.43,10.43,0,0,1,3.22-7.66q3.23-3.19,9.26-4.06v-5.53h7.16v5.43A25.37,25.37,0,0,1,315,197.09l-3.6,8.68a22,22,0,0,0-9.89-2.64q-4.62,0-4.62,2.23c0,.71.46,1.25,1.37,1.6a28,28,0,0,0,4.52,1.14,46.91,46.91,0,0,1,6.85,1.75,12,12,0,0,1,4.84,3.22,8.65,8.65,0,0,1,2.06,6.09A10.36,10.36,0,0,1,313.49,226.59Z"/><path class="cls-5" d="M15.24,79.13a8.17,8.17,0,0,1-4.61,2.21v3H6.87V81.47A18.33,18.33,0,0,1,3,80.86,11.61,11.61,0,0,1,0,79.6L2,75a12.78,12.78,0,0,0,3,1.25,11.81,11.81,0,0,0,3.18.46,4.89,4.89,0,0,0,1.87-.25.8.8,0,0,0,.56-.76c0-.39-.24-.69-.73-.88a15.3,15.3,0,0,0-2.42-.64,28.64,28.64,0,0,1-3.61-1,6.19,6.19,0,0,1-2.51-1.71A4.64,4.64,0,0,1,.29,68.27a5.47,5.47,0,0,1,1.7-4A8.4,8.4,0,0,1,6.87,62.1V59.19h3.76v2.86a13.29,13.29,0,0,1,5.43,1.55l-1.9,4.56A11.64,11.64,0,0,0,9,66.78q-2.43,0-2.43,1.17,0,.57.72.84a14.42,14.42,0,0,0,2.38.6,24.61,24.61,0,0,1,3.61.93A6.21,6.21,0,0,1,15.78,72a4.58,4.58,0,0,1,1.08,3.21A5.44,5.44,0,0,1,15.24,79.13Z"/><text class="cls-6" transform="translate(331.19 32.58)">$</text><polygon class="cls-7" points="74.05 165.94 63.06 181.48 95.29 166.19 74.05 165.94"/><path class="cls-7" d="M317.93,20.21V160.57a9.57,9.57,0,0,1-9.58,9.58H48.71a9.58,9.58,0,0,1-9.59-9.58V20.21a9.58,9.58,0,0,1,9.59-9.58H308.35A9.57,9.57,0,0,1,317.93,20.21Z"/><path class="cls-3" d="M317.93,20.21v8.52H39.12V20.21a9.58,9.58,0,0,1,9.59-9.58H308.35A9.57,9.57,0,0,1,317.93,20.21Z"/><circle class="cls-7" cx="50.08" cy="19.68" r="3.27"/><path class="cls-7" d="M65.87,19.68a3.28,3.28,0,1,1-3.28-3.27A3.27,3.27,0,0,1,65.87,19.68Z"/><path class="cls-7" d="M78.38,19.68a3.27,3.27,0,1,1-3.27-3.27A3.26,3.26,0,0,1,78.38,19.68Z"/><polygon class="cls-8" points="57.38 155.08 78.38 133.89 101.7 147.33 128.85 112.87 174.46 143.39 226.41 75.52 293.39 107.29 293.39 155.08 57.38 155.08"/><polygon class="cls-9" points="57.38 155.08 100.23 128.96 122.57 137.49 159.13 85.49 179.91 111.73 204.01 82.55 235.31 96.22 293.39 50.24 293.39 155.08 57.38 155.08"/><polygon class="cls-10" points="56.58 133.98 55.15 131.61 98.57 105.28 120.54 113.68 157.55 61.04 178.42 87.39 202.09 58.73 233.59 72.48 282.16 34.02 283.88 36.19 234 75.68 202.9 62.1 178.37 91.8 157.68 65.67 121.57 117.03 98.85 108.35 56.58 133.98"/><polygon class="cls-10" points="270.77 37.13 278.06 45.69 288.36 31.32 270.77 37.13"/><rect class="cls-11" x="61.19" y="48.39" width="7.18" height="7.18"/><rect class="cls-12" x="73.08" y="51.17" width="31.19" height="1.85" rx="0.86"/><rect class="cls-13" x="61.19" y="58.74" width="7.18" height="7.18"/><rect class="cls-12" x="73.08" y="61.52" width="31.19" height="1.85" rx="0.86"/><polygon class="cls-8" points="306.68 155.91 49.25 155.91 49.25 48.39 50.91 48.39 50.91 154.25 306.68 154.25 306.68 155.91"/><path class="cls-14" d="M127.52,139.94h68a4.57,4.57,0,0,1,4.57,4.57v67a4.58,4.58,0,0,1-4.58,4.58h-68a4.58,4.58,0,0,1-4.58-4.58v-67A4.58,4.58,0,0,1,127.52,139.94Z"/><path class="cls-7" d="M133.52,133.94h68a4.57,4.57,0,0,1,4.57,4.57v67a4.58,4.58,0,0,1-4.58,4.58h-68a4.58,4.58,0,0,1-4.58-4.58v-67A4.58,4.58,0,0,1,133.52,133.94Z"/><path class="cls-3" d="M206.12,138.52v4.07H128.94v-4.07a4.58,4.58,0,0,1,4.58-4.58h68A4.58,4.58,0,0,1,206.12,138.52Z"/><path class="cls-7" d="M135.73,138.27a1.56,1.56,0,1,1-1.56-1.57A1.56,1.56,0,0,1,135.73,138.27Z"/><path class="cls-7" d="M141.71,138.27a1.56,1.56,0,1,1-1.56-1.57A1.56,1.56,0,0,1,141.71,138.27Z"/><path class="cls-7" d="M147.69,138.27a1.57,1.57,0,1,1-1.56-1.57A1.56,1.56,0,0,1,147.69,138.27Z"/><path class="cls-15" d="M165.76,171.73l8.42-21.32a22.92,22.92,0,1,0,14.5,21.32,23.86,23.86,0,0,0-.31-3.8Z"/><path class="cls-16" d="M192.35,165.06a23,23,0,0,0-14.18-17.53l-8.42,21.33Z"/><rect class="cls-17" x="143.25" y="201.06" width="3.43" height="3.43"/><path class="cls-12" d="M163.38,203.27h-14a.44.44,0,0,1-.44-.44h0a.45.45,0,0,1,.44-.45h14a.45.45,0,0,1,.44.45h0A.44.44,0,0,1,163.38,203.27Z"/><rect class="cls-18" x="171.23" y="201.11" width="3.43" height="3.43"/><path class="cls-12" d="M191.36,203.32h-14a.45.45,0,0,1-.45-.44h0a.45.45,0,0,1,.45-.44h14a.45.45,0,0,1,.45.44h0A.45.45,0,0,1,191.36,203.32Z"/><path class="cls-8" d="M249.11,259.39H227.59a8.14,8.14,0,0,1-.06-1.53c.22-6.49,7.75-4.77,8.42-4.77s5.18-2,5.18-2l.32-1.79h7l.55,8.59Z"/><path class="cls-19" d="M249.11,259.87H227.59a14,14,0,0,1-.06-2H249Z"/><path class="cls-14" d="M292.65,258.26a187.79,187.79,0,0,1-82.53,0,187.79,187.79,0,0,1,82.53,0Z"/><path class="cls-8" d="M269.75,259.39c-4,3.52-12.36.72-12.36.72v-2a52.17,52.17,0,0,1,2.24-5.89v-2.56l6.33-1.58.76,4.47a9,9,0,0,1,2.83,4.83A7.72,7.72,0,0,1,269.75,259.39Z"/><path class="cls-19" d="M269.75,259.39c-4,3.52-12.36.72-12.36.72v-2s7.15,2.18,12.16-.73A7.72,7.72,0,0,1,269.75,259.39Z"/><polygon class="cls-20" points="238.77 174.17 240.66 250.38 250.59 250.38 252.65 188.68 258.35 250.38 267.28 249.58 266.62 173.41 238.77 174.17"/><polygon class="cls-21" points="248.27 184.53 249.9 189.95 250.97 238.88 252.65 188.68 248.27 184.53"/><path class="cls-10" d="M267.28,155.25,268.7,177c-3.83,3.72-23,5.83-30.55.46l.26-2.92,1.69-19.77-2.76-19.35,2.13-6.19s3.88.58,12.36-1c9.12,1.51,17.66,9.44,17.66,9.44l-2.08,16.45Z"/><path class="cls-14" d="M268.7,177c-3.83,3.72-23,5.83-30.55.46l.26-2.92c29.22,3.37,27-20,27-20L262.94,148l4.5,6-.16,1.3Z"/><path class="cls-22" d="M257.84,130.33s-6,7.42-9.55,7.42c-2.21,0-3.41-6.6-3.41-6.6l0-3.78.05-4.7,5.51.88,4.9-6.1,1,5.53.81,4.54Z"/><polygon class="cls-7" points="244.87 128.61 247.77 137.62 242.66 141.56 242.6 129.15 244.87 128.61"/><polygon class="cls-7" points="257.4 128.54 247.77 137.62 252.09 143.21 259.59 130.67 257.4 128.54"/><path class="cls-23" d="M256.35,123c-3.46,3.41-7.94,6.17-11.25,5.34l-.14-5.65,5.51.88,4.9-6.1Z"/><path class="cls-24" d="M242.83,103.69l-1.47-.63s-2.93,1.11-3.26,7.19c0,6.27,1.37,7.92,1.37,7.92.91,0,.31-.07.4-.12s-.25-6.44,1-9A30.29,30.29,0,0,0,242.83,103.69Z"/><path class="cls-22" d="M246.37,103.3h0s6.62-1.67,10.12,6.3a14.5,14.5,0,0,1-.07,10.14s-4.63,6.62-10.05,8.49c-3.8,1.17-6.87-5.67-7.73-12.49C238.1,109.45,242,103.86,246.37,103.3Z"/><path class="cls-25" d="M244.62,122.69a3.33,3.33,0,0,1-2.28-.89.21.21,0,0,1,.28-.32c2.23,2,5.08-.43,5.11-.46a.22.22,0,0,1,.3,0,.21.21,0,0,1,0,.3A6,6,0,0,1,244.62,122.69Z"/><path class="cls-22" d="M256,117.07v3.09c2.61.94,4.75-1.64,5.14-3.74.2-1.06-.05-2-.91-2.32-1.8-.67-3.16,1.08-3.81,2.17A8.68,8.68,0,0,0,256,117.07Z"/><path class="cls-23" d="M256.38,116.27l.31,0a3.08,3.08,0,0,1,2.35-1,2.09,2.09,0,0,1,2.06,1.19c.2-1.06-.05-2-.91-2.32C258.39,113.43,257,115.18,256.38,116.27Z"/><path class="cls-24" d="M246.91,112.58l-2.29-3.29s5.68,3.41,10.64,2.13c0,0-1.34,5.65.33,8.78,0,0,.62-4.14,1.67-5.13a4,4,0,0,1,1.82-1.12s3.52-6.24-.91-12-12.42-6.3-19.58,1.59C231.5,105.53,240.53,111,246.91,112.58Z"/><path class="cls-25" d="M259.39,115.9a3.68,3.68,0,0,0-2.91,1.69.15.15,0,0,0,0,.21l.08,0a.15.15,0,0,0,.13-.07,3.76,3.76,0,0,1,1.09-1.07c.63.41.31,1.47.3,1.48a.17.17,0,0,0,.1.2h0a.15.15,0,0,0,.14-.1c0-.05.36-1.17-.3-1.75a2.65,2.65,0,0,1,1.22-.3h.05a.15.15,0,0,0,.15-.15A.15.15,0,0,0,259.39,115.9Z"/><path class="cls-25" d="M250.49,118.41c0,.14.4.21.84.15s.79-.24.77-.38-.4-.22-.84-.15S250.47,118.26,250.49,118.41Z"/><path class="cls-25" d="M250.42,119.28c0-.15.39-.21.84-.15s.78.23.76.38-.4.21-.84.15S250.4,119.43,250.42,119.28Z"/><path class="cls-25" d="M239.71,119.28c0-.15-.4-.21-.84-.15s-.79.23-.77.38.4.21.84.15S239.73,119.43,239.71,119.28Z"/><path class="cls-25" d="M239.78,118.41c0,.14-.39.21-.84.15s-.78-.24-.76-.38.4-.22.84-.15S239.8,118.26,239.78,118.41Z"/><path class="cls-26" d="M247.87,116.18c0,1.17.24,2.11.54,2.11s.55-.94.55-2.11-.25-2.11-.55-2.11S247.87,115,247.87,116.18Z"/><path class="cls-26" d="M241,116.38c0,1,.21,1.88.48,1.88s.49-.84.49-1.88-.22-1.87-.49-1.87S241,115.35,241,116.38Z"/><path class="cls-25" d="M244.38,120.44h-.06c-.23,0-.77-.21-.83-1.59a12,12,0,0,1,.29-3.55.16.16,0,0,1,.19-.11.15.15,0,0,1,.1.19,12.16,12.16,0,0,0-.27,3.46c0,.92.31,1.28.55,1.3s.88-.57,1.1-1.59a.15.15,0,0,1,.18-.11.16.16,0,0,1,.12.18C245.51,119.69,244.94,120.44,244.38,120.44Z"/><path class="cls-24" d="M239,114.38c.17,0,.67-1.09,1.38-1.42a2,2,0,0,1,1.58,0,.4.4,0,0,0,.52-.24.41.41,0,0,0-.25-.52,2.72,2.72,0,0,0-2.21,0C239,112.72,238.93,114.38,239,114.38Z"/><path class="cls-24" d="M251.31,114.5c.24-.08-.14-1.83-1.29-2.39a3.14,3.14,0,0,0-2.49,0,.47.47,0,0,0-.28.59.46.46,0,0,0,.59.27,2.28,2.28,0,0,1,1.78,0A7.88,7.88,0,0,1,251.31,114.5Z"/><path class="cls-22" d="M266.19,180.22s-4.46,2.6-5.36,3.37c-1.31,1.26-2.33,4.06-2.52,4.49a6.59,6.59,0,0,0,.52,3.59c.3.8,1.12,1.42,1.41.24a36.19,36.19,0,0,0-.12-3.63l1.19-2.42a21.9,21.9,0,0,0-.82,2.43c-.1.59,1.09,4.48,1.59,4.75s1.26-.67.94-1.57c0,0,.41.84.78.87s.63-.31.37-1.56c0,0,.59.52,1,.33.72-.51-.24-3-.16-3.24s3.26-.82,3.67-4A3,3,0,0,0,266.19,180.22Z"/><path class="cls-25" d="M263,191.47a8.81,8.81,0,0,1-.58-1.47,5.55,5.55,0,0,1-.27-1.56A27.67,27.67,0,0,1,263,191.47Z"/><path class="cls-25" d="M264.17,190.78a5.9,5.9,0,0,1-.43-1.22,4,4,0,0,1-.12-1.29A17.82,17.82,0,0,1,264.17,190.78Z"/><path class="cls-22" d="M220.41,124.18c-6-4.42-16.83-15.93-16.83-15.93l-2.84,4.23s8.89,10.28,14.58,16.67C217.22,126.83,218.45,126.43,220.41,124.18Z"/><path class="cls-27" d="M202.22,114.08s-3.11,1-4.47.47a5.18,5.18,0,0,1-2-1.59l3-6.84a8.64,8.64,0,0,1,1.95-.31l2.59,5Z"/><polygon class="cls-26" points="201.86 115.73 200.21 116.22 189.59 79.38 190.41 79.13 201.86 115.73"/><path class="cls-22" d="M199.31,106.4c-.13-.1-.67-.31-.82-.4l0,0h0a6,6,0,0,0-2.34-.69,1.36,1.36,0,0,0-1.06,1.61,3.34,3.34,0,0,0-.35,2.24,3.16,3.16,0,0,0,0,2.23,2.9,2.9,0,0,0,.48,1.49,3,3,0,0,0,2.59.51h.07l.23,0a2.05,2.05,0,0,0,1.19-.57c.29-.46-.4-.81-.39-.83s.82-.15,1.1-.58-.47-1.19-.47-1.19a1.19,1.19,0,0,0,.88-.45c.25-.43-.61-1-.59-1.13s.81-.06.92-.57S200.3,106.87,199.31,106.4Z"/><path class="cls-22" d="M203.63,109.11s0-3.61-2.5-5c-1-.41-3.68,1.19-4.2,2.18s1.4,1.59,2.83.53a3.72,3.72,0,0,0,2.81,4.56C205.5,112.19,203.63,109.11,203.63,109.11Z"/><path class="cls-28" d="M196.94,106.94c1,1,2.27-.07,3.2-.6l-.15.59a3.83,3.83,0,0,0,1.24,3.88,3.33,3.33,0,0,1-1.7-4l.36.28c-.83.53-2.39,1-2.95-.11Z"/><path class="cls-28" d="M198.89,111.91a4.92,4.92,0,0,1-2.22-.24,4.93,4.93,0,0,1,2.22.24Z"/><path class="cls-28" d="M199.52,110.14a9.41,9.41,0,0,1-3-.53,9.45,9.45,0,0,1,3,.53Z"/><path class="cls-28" d="M199.81,108.56a5.55,5.55,0,0,1-2.29-.62,5.71,5.71,0,0,1,2.29.62Z"/><path class="cls-10" d="M241.88,130.93s.83-1.06.78-1.08l-17.19-3.49L206.6,109.61l-4.74,5.22h0c.23.32,19.1,20.69,19.31,20.86a135.47,135.47,0,0,0,17.43,7.47A56.17,56.17,0,0,0,241.88,130.93Z"/><path class="cls-10" d="M261,145.58c.24,1.19,8.67,10.41,12,16,.7,1.62-8.7,19-8.7,19l5.2,3.69s12.16-19.46,11.79-23.88c.08-2.71-11.95-23-11.95-23s-2.44-2.39-8.28.55C260.3,138.63,260.63,144.07,261,145.58Z"/><rect class="cls-14" x="298.64" y="65.05" width="69.83" height="81.6" rx="4.9"/><rect class="cls-7" x="304.64" y="59.05" width="69.83" height="81.6" rx="4.9"/><path class="cls-3" d="M374.47,64v4.36H304.64V64a4.9,4.9,0,0,1,4.9-4.91h60A4.9,4.9,0,0,1,374.47,64Z"/><path class="cls-7" d="M311.92,63.69A1.68,1.68,0,1,1,310.24,62,1.68,1.68,0,0,1,311.92,63.69Z"/><path class="cls-7" d="M318.32,63.69A1.68,1.68,0,1,1,316.64,62,1.68,1.68,0,0,1,318.32,63.69Z"/><path class="cls-7" d="M324.72,63.69A1.68,1.68,0,1,1,323.05,62,1.67,1.67,0,0,1,324.72,63.69Z"/><rect class="cls-8" x="310.89" y="109.86" width="4.73" height="21.86"/><rect class="cls-29" x="319.65" y="101.68" width="4.73" height="30.04"/><rect class="cls-8" x="328.42" y="93.16" width="4.73" height="38.56"/><rect class="cls-29" x="337.19" y="99.86" width="4.73" height="31.87"/><rect class="cls-8" x="345.96" y="84.75" width="4.73" height="46.97"/><rect class="cls-29" x="354.72" y="91.7" width="4.73" height="40.02"/><rect class="cls-8" x="363.49" y="73.97" width="4.73" height="57.75"/><line class="cls-17" x1="40.03" y1="86.64" x2="30.79" y2="96.22"/><rect class="cls-30" x="28.76" y="88.93" width="13.31" height="5" transform="translate(-54.96 53.41) rotate(-46.01)"/><path class="cls-26" d="M35.48,100.19l-24.18,25a3.6,3.6,0,0,1-5.08.2l-1.31-1.28L3.68,123,2.46,121.8a3.61,3.61,0,0,1,0-5.09l24.18-25a3.6,3.6,0,0,1,5.08-.2l.82.8,1.71,1.64h0l1.22,1.19A3.6,3.6,0,0,1,35.48,100.19Z"/><path class="cls-31" d="M32.56,92.26,3.68,123,2.46,121.8a3.61,3.61,0,0,1,0-5.09l24.18-25a3.6,3.6,0,0,1,5.08-.2Z"/><path class="cls-32" d="M72.48,84.62A22.46,22.46,0,0,1,69,87.53a22,22,0,0,1-27.59-2.36,22,22,0,0,1-.54-31c.44-.46.91-.89,1.37-1.3A21.94,21.94,0,0,1,78.06,74.32a21.47,21.47,0,0,1-2.62,6.44A20.76,20.76,0,0,1,72.48,84.62Z"/><path class="cls-33" d="M75.4,50a26.95,26.95,0,1,0,.68,38.1A26.94,26.94,0,0,0,75.4,50ZM40.9,54.15a21.94,21.94,0,1,1,.54,31A22,22,0,0,1,40.9,54.15Z"/></g></g></g></svg>