<svg xmlns="http://www.w3.org/2000/svg" viewBox="0 0 127.57 166.31"><defs><style>.cls-1{fill:#c98b5f;}</style></defs><g id="Capa_2" data-name="Capa 2"><g id="Capa_1-2" data-name="Capa 1"><path class="cls-1" d="M79.38,20.45c3.21,11.15,6.3,21.91,9.39,32.66q11.49,39.84,23,79.68c2.68,9.33-.73,16-9.78,19.2-.86.31-2.36.29-1.64,1.68s.16,3.59,2.49,3.62a108,108,0,0,0,12.34-.15c4.65-.49,7.45-4.43,7.48-9.88.06-9.1,0-18.19,0-27.29,0-1,0-2,.07-2.92a2.34,2.34,0,0,1,2.48-2.46,2.38,2.38,0,0,1,2.33,2.61c0,.43,0,.87,0,1.3,0,9.75,0,19.49,0,29.24-.07,8.65-5.77,14.42-14.41,14.64-4.11.11-8.23,0-12.35,0-2.4,0-4-.64-4.09-3.39a11.52,11.52,0,0,0-.93-3.09c-.51-1.45-1.36-2.08-3-1.34-.86.41-1.89.46-2.79.81-2.25.87-3.82.26-4.58-2-.9-2.74-2.4-2.22-4.12-.86a9.74,9.74,0,0,0-3.78,6.93c-.19,2-1.14,3-3.12,2.85-6.71-.43-13.1,1.19-19.41,3.14-9.09,2.79-16.49-1.11-19.11-10.22Q18.35,94.35.85,33.49C-1.87,24,2,17,11.46,14.3c2.91-.85,5.85-1.58,8.7-2.58s4.25-.37,5.46,2.52A9.45,9.45,0,0,0,42,16.35,8.41,8.41,0,0,0,43.81,9c-.71-2.8.25-4.3,3-5C51.09,2.93,55.34,1.66,59.6.48a13.31,13.31,0,0,1,11.14,2c1.69,1.08,3,2.73,5.25,2.94,1.36.13,1.35,1.69,1.52,2.9.79,5.5,4.72,9.17,9.66,9.14S96,13.8,96.73,8.19C97,5.81,98.09,5,100.28,5c4.23,0,8.45,0,12.68,0,9,.15,14.55,5.73,14.57,14.7q.07,41.91,0,83.82c0,.33,0,.65,0,1,.08,1.77-.61,3.07-2.51,3-1.71,0-2.35-1.3-2.36-2.91,0-1,0-2,0-2.92V21.5c0-8.38-3.21-11.59-11.56-11.6a18.11,18.11,0,0,1-2,0c-4.44-.44-7.65,0-9.76,5.28C96.84,21.5,89,23.77,82.44,21.56,81.56,21.26,80.68,20.92,79.38,20.45ZM107.77,138c-.08-.38-.16-1-.33-1.65q-8-28-16-56c-.42-1.49-1.09-1.77-2.57-1.3-4.33,1.35-8.76,2.38-13.06,3.81-2.8.93-4.06-.14-4.76-2.65C70,76.43,68.9,72.7,67.82,69c-.7-2.4,0-3.93,2.56-4.59,4.08-1,8.13-2.2,12.14-3.48,1-.33,3.32-.09,2.56-2s.53-5.19-3.14-5.38a2.43,2.43,0,0,1-2.34-1.9,2.09,2.09,0,0,1,1.09-2.49c1.27-.61,1.39-1.37,1-2.59-3.39-11.6-6.65-23.24-10.15-34.82C70,6.38,65.5,4.08,60.11,5.46c-2.93.75-5.8,1.73-8.73,2.46-1.83.45-2.5,1.29-2.54,3.3a13.82,13.82,0,0,1-9.49,13C33.45,26.32,27.8,25.31,24,20.51c-2.72-3.46-5.06-3.78-8.55-2.24a26.44,26.44,0,0,1-3.1.93c-6.19,1.91-8.6,6.24-6.82,12.49Q10.29,48.35,15.12,65c.36,1.25.42,2.79,2.57,2.33.92-.2,1.78.65,2.11,1.71A2,2,0,0,1,19,71.58c-1.57.77-1.45,1.76-1,3.17q11.53,39.81,23,79.64c1.64,5.66,6.12,8,11.82,6.54,2.19-.58,4.34-1.31,6.55-1.83,1.78-.42,2.53-1.21,2.78-3.22.8-6.59,4.25-11.28,10.91-13s11.67.72,15.62,5.94c.74,1,1.31,1.47,2.63,1,3.39-1.1,6.87-1.93,10.25-3A9.16,9.16,0,0,0,107.77,138ZM85.84,65.18c-3.85,1.09-7.69,2.17-11.53,3.28-1.16.33-1,1.21-.79,2.09.49,1.77,1,3.53,1.49,5.3.34,1.25.94,1.8,2.33,1.36,3.4-1.06,6.82-2.08,10.26-3,1.13-.3,1.82-.72,1.46-2-.58-2.08-1.24-4.13-1.81-6.21C87,65.22,86.59,65,85.84,65.18ZM78.74,148c-5.48-1.09-9.84,1.44-11.35,6.33-.3,1-1,2.59.2,2.79,1.7.27,4.29,1.41,5.24-.69A22.8,22.8,0,0,1,78.74,148Z"/><path class="cls-1" d="M117.29,37.6c0,4-.11,8,0,12,.11,3-1.14,4.1-4,3.91-2.37-.15-4.76-.07-7.13,0s-3.4-.94-3.39-3.28q0-12.81,0-25.62c0-2.36,1.17-3.29,3.42-3.25,2.6.06,5.19.08,7.79,0,2.33-.07,3.36,1,3.33,3.28C117.25,29,117.28,33.27,117.29,37.6Zm-9.43-.19c0,3,.07,6,0,9.06-.06,1.74.64,2.22,2.28,2.19s2.35-.4,2.33-2.18q-.12-9.06,0-18.11c0-1.77-.72-2.18-2.32-2.2s-2.35.43-2.29,2.18C107.93,31.37,107.86,34.39,107.86,37.41Z"/><path class="cls-1" d="M112,76.08c0,4.21,0,8.42,0,12.64,0,1.7-.45,3.07-2.47,3s-2.39-1.49-2.39-3.14c0-8.21,0-16.42,0-24.63,0-1.69.47-3.2,2.34-3.26,2.09-.06,2.56,1.53,2.55,3.35C112,68.09,112,72.08,112,76.08Z"/><path class="cls-1" d="M70.26,108.3c1.83,7.4,3.42,14.67,5.49,21.8.85,2.9.66,4.64-2.16,6.06S68,139.4,65.17,141c-1,.55-1.92,1-3,.25a2.76,2.76,0,0,1-1.07-3.15,3.19,3.19,0,0,1,.1-.63c4.07-8.93-2.21-16.13-4-24.06-.39-1.66-1.44-.72-2.21-.18-3.44,2.43-6.86,4.91-10.32,7.31-3.13,2.18-4.16,1.53-5.65-1.94-2.26-5.27-1.65-9.46,3.16-12.88,1.22-.86,2-2.26,3.18-3.24C49.58,98.86,52,95.19,49.15,89,47.26,85,50,80.89,52.87,77.6A2.33,2.33,0,0,1,55.55,77c4.54,1.67,8.43,4,9.52,9.22.2.95.53,1.88.67,2.83.3,2.06,1.31,3,3.48,3.51,4.85,1,9.6,2.53,14.43,3.65,2.17.5,3.43,1.54,3.88,3.73.32,1.58.92,3.11,1.32,4.67.88,3.39-.17,4.61-3.75,4.39-4.31-.26-8.63-.55-12.95-.8A15.62,15.62,0,0,0,70.26,108.3Zm-2.39,25c1.3-.83,3.35-.54,2.6-3.23-1.83-6.54-3.2-13.2-4.77-19.81C63.84,102.54,62,94.78,60.09,87c-.58-2.39-2.31-4.73-4.51-4.1-2,.58-2,3.53-1.51,5.76.25,1,.65,2,1,3.07,3.45,10.1,7,20.17,10.31,30.31C66.56,125.67,69,129.07,67.87,133.34Zm8.75-29.89v-.09c1.39.11,2.78.28,4.17.29.82,0,2.16.82,2.29-.73a2.08,2.08,0,0,0-1.89-2.2C78.07,100,75,99,71.87,98.34c-1.19-.24-2.73-1.53-3.56-.4s.33,2.61.59,4c.22,1.16,1.09,1.2,1.94,1.26C72.76,103.28,74.7,103.35,76.62,103.45ZM43.5,115.21c2.69-1.91,5.31-3.75,7.91-5.61,4.07-2.89,4.1-3.07,1.25-7.67-3.13,3.31-6.21,6.59-9.32,9.84C42.27,112.89,42.82,113.89,43.5,115.21Z"/><path class="cls-1" d="M22.39,27.33c2.47-.12,3.2.91,3.58,2.24,2.26,7.88,4.46,15.78,6.77,23.64.59,2-.13,3.22-1.91,3.8-3,1-6,1.79-9,2.63-1.84.5-2.95-.46-3.43-2.11-2.31-8-4.55-16-6.87-23.94-.43-1.48-.2-2.81,1.16-3.29C16.14,29.09,19.68,28.15,22.39,27.33Zm-2.07,5.85c-.71,1-3.81-.58-2.93,2.57,1.55,5.59,3.24,11.14,4.74,16.74.57,2.1,1.72,1.32,3,1s2.55-.32,1.88-2.41c-1.71-5.43-3.21-10.92-4.76-16.4C22,33.76,21.76,33,20.32,33.18Z"/><path class="cls-1" d="M98.13,136.65c0,1.64-.69,2.6-2,2.92a2.37,2.37,0,0,1-3-1.87c-1-3.08-1.83-6.21-2.73-9.32s-1.77-6-2.56-9a2.37,2.37,0,0,1,1.49-3.16,2.1,2.1,0,0,1,3,1.2C94.38,123.88,96.27,130.4,98.13,136.65Z"/><path class="cls-1" d="M53.52,19.29a2.62,2.62,0,0,1,1.88-2.86,2.2,2.2,0,0,1,2.87,1.48c1.43,4.53,2.75,9.08,4,13.66a2.28,2.28,0,0,1-1.65,2.8,2.17,2.17,0,0,1-3-1.29C56.19,28.47,54.86,23.8,53.52,19.29Z"/><path class="cls-1" d="M70.84,29.11c0,1.46-.52,2.46-1.86,2.79a2.18,2.18,0,0,1-2.88-1.43Q64,23.69,62.16,16.84A2.27,2.27,0,0,1,63.78,14a2.1,2.1,0,0,1,2.92,1.28C68.2,19.92,69.5,24.58,70.84,29.11Z"/><path class="cls-1" d="M51.8,57.22c2.08-.16,3.1.34,3.44,1.68a2.24,2.24,0,0,1-1.53,2.84,63.33,63.33,0,0,1-6.78,2,2.15,2.15,0,0,1-2.65-1.78,2.19,2.19,0,0,1,1.46-2.84C48,58.34,50.24,57.69,51.8,57.22Z"/><path class="cls-1" d="M34.12,62.31c2-.17,3,.32,3.42,1.61a2.2,2.2,0,0,1-1.42,2.88,54.75,54.75,0,0,1-6.76,2A2.43,2.43,0,0,1,28,64.22C30.18,63.43,32.46,62.82,34.12,62.31Z"/><path class="cls-1" d="M69.75,52c1.81-.07,2.74.37,3.08,1.58s.07,2.5-1.24,3a66.69,66.69,0,0,1-7.1,2,2.16,2.16,0,0,1-2.59-1.87,2.11,2.11,0,0,1,1.38-2.61C65.59,53.24,68,52.59,69.75,52Z"/></g></g></svg>