<svg xmlns="http://www.w3.org/2000/svg" viewBox="0 0 197.31 197.31"><defs><style>.cls-1{fill:#c88a5e;}</style></defs><g id="Capa_2" data-name="Capa 2"><g id="Capa_1-2" data-name="Capa 1"><path class="cls-1" d="M98.6,35.77h-.16a62.89,62.89,0,1,0,.2,125.77h.07A62.89,62.89,0,1,0,98.6,35.77Zm27.91,98.5c.27-.75.58-1.08,1.14-1.08a2.75,2.75,0,0,1,.81.15A87.38,87.38,0,0,1,140,137.57a55.44,55.44,0,0,1-23.72,15.08A61.76,61.76,0,0,0,126.51,134.27Zm28.59-39a2.14,2.14,0,0,1-1.65.4c-2.21-.08-4.45-.06-6.62,0H144c-.81,0-1.61,0-2.42,0a43.83,43.83,0,0,0-5.37.1c-1.62.17-2.66,0-3.28-.57S132,93.62,132,92a83.16,83.16,0,0,0-3.35-21.8c-.51-1.77-.1-2.51,1.68-3a95.64,95.64,0,0,0,10.42-3.61,3.65,3.65,0,0,1,1.4-.36c.84,0,1.41.53,2.13,1.5a58.32,58.32,0,0,1,11.06,28.74A2.32,2.32,0,0,1,155.1,95.31ZM135.52,59.06c-2.53.83-4.92,1.61-7.23,2.46-1.58.59-2.25.51-2.86-1.13a54,54,0,0,0-9.21-15.69,55.56,55.56,0,0,1,22.19,13.41ZM118.36,70.2a12.91,12.91,0,0,0,2.66-.51,1.07,1.07,0,0,1,.92,0,2.14,2.14,0,0,1,.76,1.41c.17.84.38,1.65.6,2.51a29,29,0,0,1,1.11,6.45,37.14,37.14,0,0,0-9.94-8.86A10.46,10.46,0,0,1,118.36,70.2Zm-16.76,62c0-1.4.34-1.84,1.89-2.27,4.15-1.13,8.24-.35,12.19.41,1.38.27,2.8.54,4.21.73.45.06.74.19.85.38a1.42,1.42,0,0,1-.11,1.09c-3,7.66-6.89,16.25-15.35,21.17-1.13.65-2.49,1.37-3,1.06s-.62-1.86-.62-3.33c0-2.06,0-4.13,0-6.19v-2.81c0-1,0-1.92,0-2.88C101.65,137.17,101.66,134.67,101.6,132.22ZM118,124.43l6.15-5.85c.29,3,0,4.62-.91,5.45S120.76,125,118,124.43Zm11.23.58a102.17,102.17,0,0,0,2.9-21,2.68,2.68,0,0,1,.62-1.95,2.24,2.24,0,0,1,1.59-.45h.32c2.21.11,4.44.09,6.61.06,1.82,0,3.64,0,5.47,0,2.07,0,4.21,0,6.31,0,1.07,0,1.69.09,2,.43a2.36,2.36,0,0,1,.28,1.85,59.37,59.37,0,0,1-9.66,26.74c-1,1.45-1.63,2.05-3.41,1.26a113.48,113.48,0,0,0-11.5-4.16C129.18,127.22,128.86,126.66,129.27,125Zm-27.7-79.89c0-1.35.15-2.21.57-2.47a.81.81,0,0,1,.45-.11,5.93,5.93,0,0,1,2.26.8c6,3.12,9.49,8.42,12.09,13.18l.43.79A19.72,19.72,0,0,1,120,63.58a90.3,90.3,0,0,1-15.77,2.14,2.77,2.77,0,0,1-2.09-.43,2.84,2.84,0,0,1-.5-2.14C101.7,57.4,101.77,51.24,101.57,45.12Zm-5.89,94.6c0,1,0,2,0,3s0,1.93,0,2.9c0,2.14-.07,4.36.07,6.53.09,1.35-.08,2.21-.49,2.49-.57.37-1.84-.19-2.75-.64a24.63,24.63,0,0,1-8.39-7.36,59.58,59.58,0,0,1-7-12.76c-.48-1.1-.6-1.81-.36-2.22s.93-.69,2.17-.83,2.66-.39,3.95-.62a39.62,39.62,0,0,1,6.77-.79,16.1,16.1,0,0,1,4.08.5c1.77.46,2.06,1,2,2.57C95.65,134.9,95.66,137.35,95.68,139.72ZM73,80A22.62,22.62,0,0,1,74,73.48c.27-1,.51-1.85.7-2.78a1.27,1.27,0,0,1,.51-.89,1.48,1.48,0,0,1,.83-.21,3.76,3.76,0,0,1,.7.08l4.71,1,1.57.34A39.65,39.65,0,0,0,73,80Zm1.45,44.51c-1-.76-1.28-2.78-1.44-6.94a8.28,8.28,0,0,1,1.87,1.91,11.48,11.48,0,0,0,1.4,1.56c.88.75,1.72,1.54,2.69,2.46l.9.84C76.88,125,75.28,125.17,74.41,124.5ZM71.74,60.62c-.48,1.25-1,1.47-2.21,1-2.47-.92-5-1.74-7.67-2.61L59,58.07A56.07,56.07,0,0,1,81.07,44.63,59.2,59.2,0,0,0,71.74,60.62Zm-10,75.09c2.53-1.14,5.15-2.32,7.49-2.07s2.88,2.42,3.55,4.94a14,14,0,0,0,1.44,3.9l.85,1.36c1.74,2.78,3.53,5.64,5.61,8.4-7.32-1.58-17.37-7.9-23.14-14.65l.12-.08a3.32,3.32,0,0,1,.66-.37C59.49,136.74,60.65,136.21,61.77,135.71Zm34-90.26a59.77,59.77,0,0,0-.08,6c0,.88,0,1.76,0,2.64s0,1.77,0,2.66c0,2.08,0,4.23,0,6.35,0,1.17-.09,1.83-.47,2.2a2.67,2.67,0,0,1-2,.45A109.5,109.5,0,0,1,78.7,63.91c-.57-.11-1.13-.24-1.27-.49a1.38,1.38,0,0,1,.17-1c3.63-8.53,7.54-15,14.81-19.07a5.35,5.35,0,0,1,2.27-.82.94.94,0,0,1,.52.14C95.67,43,95.86,43.94,95.74,45.45ZM59.31,64.65a19.14,19.14,0,0,0,4,1.15c2.33.51,4.53,1,5.21,2.57s0,4.25-.81,6.69a31.45,31.45,0,0,0-.9,3.24,94.34,94.34,0,0,0-1.65,15.06,2.63,2.63,0,0,1-.62,1.91,2.66,2.66,0,0,1-2,.45c-1.26-.06-2.54-.08-3.81-.08l-2.8,0c-1.83,0-3.65,0-5.48,0-2.08,0-4.22,0-6.33,0-1,0-1.6-.09-1.91-.43A2.45,2.45,0,0,1,42,93.34a59.29,59.29,0,0,1,10.9-28.43C54.24,63,55.29,62.7,57,63.72a6.51,6.51,0,0,0,1.37.57A7.82,7.82,0,0,1,59.31,64.65ZM42.27,102a2.09,2.09,0,0,1,1.55-.44h.4c2.09.12,4.22.09,6.29.07l2.71,0,2.73,0c2.06,0,4.19.07,6.28-.08a2.91,2.91,0,0,1,2.24.47,3.18,3.18,0,0,1,.71,2.36,97.11,97.11,0,0,0,2.87,20.64c.41,1.68.1,2.23-1.52,2.71l-1.23.36a43.08,43.08,0,0,0-8.42,3.08c-3.27,1.75-4.62.73-6.4-2.22A62.21,62.21,0,0,1,42,104.29C41.84,103.09,41.92,102.39,42.27,102Zm82-3.43a26,26,0,0,1-25.57,25.7h-.11A25.92,25.92,0,0,1,73,98.72,26,26,0,0,1,98.59,73h.11a25.9,25.9,0,0,1,25.59,25.57Z"/><path class="cls-1" d="M168.61,57.32h0A28.66,28.66,0,0,0,168.87,0h-.11a28.65,28.65,0,0,0-20.35,8.37,28.72,28.72,0,0,0,0,40.58A28.44,28.44,0,0,0,168.61,57.32ZM146,28.53A22.78,22.78,0,0,1,168.58,6.07h.1a22.73,22.73,0,0,1,22.54,22.36,22.2,22.2,0,0,1-6.49,16,22.45,22.45,0,0,1-16.06,6.86h0A22.86,22.86,0,0,1,146,28.53Z"/><path class="cls-1" d="M29.23,140a29,29,0,0,0-20.82,8.36A28.35,28.35,0,0,0,0,168.59a28.67,28.67,0,0,0,28.33,28.72h.2A28.71,28.71,0,0,0,48.85,189a28.3,28.3,0,0,0,8.47-20.11A28.61,28.61,0,0,0,29.23,140Zm-.75,51.25a22.63,22.63,0,0,1-16.13-7.05,22.07,22.07,0,0,1-6.28-16A22.59,22.59,0,0,1,28.71,146h.15a23,23,0,0,1,22.46,22.61,22.46,22.46,0,0,1-6.8,16.06A22.14,22.14,0,0,1,28.48,191.24Z"/><path class="cls-1" d="M191.44,99.54l-.42-.42-.72-.73-.15-.14-2.09-2.11c-2.45-2.51-3.68-3.76-5.05-3.76h0c-1.4,0-2.69,1.32-5.26,4L176,98.12c-.3.3-.66.6-1.05.92-1.52,1.28-3.62,3-1.58,5.54a3,3,0,0,0,2,1.26c1.11.11,2.08-.7,3.11-1.55a12.87,12.87,0,0,1,1.46-1.12c-.07.8-.13,1.59-.19,2.35-.16,2-.31,4-.59,5.82-5.81,38.51-37.12,66.89-76.13,69a15.07,15.07,0,0,1-1.62,0c-1.58-.09-3.37-.18-4.42.83a3.18,3.18,0,0,0-.82,2.47,3.23,3.23,0,0,0,1,2.48,3.77,3.77,0,0,0,2.53.74,18.75,18.75,0,0,0,2.11-.17c.5-.06,1-.12,1.4-.13,34.75-1.48,66-24.6,77.78-57.54a93.33,93.33,0,0,0,5.14-25.84l.11,0a2.56,2.56,0,0,1,.61.36l.4.38c.93.89,2,1.91,3.22,1.91h.05a2.93,2.93,0,0,0,2-1C194.56,102.64,192.76,100.85,191.44,99.54Z"/><path class="cls-1" d="M7.14,96c1,1,1.88,1.9,2.63,2.67,2.44,2.52,3.67,3.78,5,3.79h0c1.39,0,2.66-1.3,5.2-3.87.7-.71,1.5-1.53,2.43-2.44.24-.24.52-.47.8-.71,1.37-1.18,3.26-2.79,1.24-5.17a3,3,0,0,0-2-1.22c-1.13-.1-2.07.71-3,1.48-.33.28-.65.55-1,.77l-.09,0C21.2,57.45,47.34,27.69,80.72,20.44a113.7,113.7,0,0,1,17.76-2.09c2.2-.13,3.38-1.23,3.31-3.1s-1.25-3-3.34-3h-.1c-.39,0-.78,0-1.17,0-.7,0-1.41,0-2.12,0-27.36,1.78-49.55,13.54-65.93,35C19.35,60.07,13.76,74.73,12,92.08L9.9,90.17C8.3,88.74,6.68,88.69,5.35,90c-.92.92-1.61,2.45.34,4.53C6.16,95,6.65,95.52,7.14,96Z"/><path class="cls-1" d="M112.44,90.12a3.7,3.7,0,0,0-3.76.33c-3.43,2.09-6.64,4.24-9.54,6.38l-.33.24c-2.21,1.64-4.3,3.18-6.35,2.83-1.29-.22-2.51-1.18-3.72-3a2.55,2.55,0,0,0-2-1.18A3.24,3.24,0,0,0,84.21,97a2.84,2.84,0,0,0,.39,4.19c.9.86,1.81,1.7,2.72,2.53s1.79,1.65,2.67,2.49a4,4,0,0,0,2.81,1.3,5.1,5.1,0,0,0,2.83-1c3.34-2.28,6.76-4.58,10.08-6.79l5.9-4c1-.7,2.21-1.49,2.19-3.13A2.74,2.74,0,0,0,112.44,90.12Z"/><path class="cls-1" d="M168.61,31.81c2,.17,3.1,1,3.4,2.73.27,1.49.11,3.4-2.2,4a3.76,3.76,0,0,1-3-.2,3.85,3.85,0,0,1-1.57-2.64,4.18,4.18,0,0,0-1.68-2.94,2.93,2.93,0,0,0-2.45-.11c-2.57.84-2.17,3-1.82,4.86.52,2.83,2.48,4.44,4.38,6a11.91,11.91,0,0,1,3.58,3.92c.18.36.6.45,1,.54l.3.08.1,0,.1,0a3,3,0,0,0,2.85-2.19,3.91,3.91,0,0,1,2.1-2.37c3.74-2.4,5.3-5.78,4.53-9.78a9.52,9.52,0,0,0-8.27-8c-.31-.06-.63-.09-.95-.12a7,7,0,0,1-1.42-.24,3.2,3.2,0,0,1-2.37-3.65,3,3,0,0,1,2.64-3,3.35,3.35,0,0,1,4,1.91,3.45,3.45,0,0,1,.27,1,6.77,6.77,0,0,0,.19.87c.58,1.83,1.82,2.66,3.49,2.34,1.88-.35,2.81-1.77,2.5-3.82a10.09,10.09,0,0,0-4.32-7c-.22-.15-.45-.29-.68-.43a4.69,4.69,0,0,1-1.88-1.75c-.92-1.71-1.87-2.54-2.88-2.54h0c-1,0-1.95.82-2.88,2.52l-.1.18a3.1,3.1,0,0,1-1.19,1.43c-4.39,2.52-6.17,6.2-5.14,10.64C160.25,28.69,163.51,31.38,168.61,31.81Z"/><path class="cls-1" d="M31.17,166c-.57-.14-1.14-.22-1.7-.3s-1-.15-1.52-.26a3.19,3.19,0,0,1-2.72-3.75,3,3,0,0,1,2.65-3,3.26,3.26,0,0,1,4.06,2.25,5.14,5.14,0,0,1,.22.86c.05.23.09.47.16.69a2.87,2.87,0,0,0,3.48,2.35c1.89-.34,2.82-1.77,2.48-3.83-.42-2.63-2-4.41-3.63-6.3l-.85-1c-1.83-2.16-3.42-3.61-5.2-3.61h0c-1.52,0-3,1.08-4.93,3.43-.32.4-.65.79-1,1.18-2.18,2.61-4.24,5.08-3.55,9,.77,4.32,3.8,7.1,8.77,8.06.29.05.59.08.89.11a5.2,5.2,0,0,1,1.09.16,3.08,3.08,0,0,1,2.27,3.34c0,1.83-.77,2.89-2.3,3.26A3.44,3.44,0,0,1,25.68,177a4.79,4.79,0,0,1-.43-1.34,9.28,9.28,0,0,0-.22-.91c-.58-1.79-1.82-2.61-3.52-2.29-1.13.22-2.47,1-2.43,3.35-.09,4.43,2.78,6.71,5.57,8.91a24.73,24.73,0,0,1,3,2.61,2.13,2.13,0,0,0,1.53.87h.15c.91-.1,1.45-1.11,2-2.16a5,5,0,0,1,1.41-1.9l.41-.23c.34-.19.69-.38,1-.61a9,9,0,0,0,4.11-9.22C37.63,169.71,35.17,166.9,31.17,166Z"/></g></g></svg>