<svg xmlns="http://www.w3.org/2000/svg" xmlns:xlink="http://www.w3.org/1999/xlink" viewBox="0 0 278.14 277.21"><defs><style>.cls-1{fill:#c0bd99;}.cls-2{fill:#ceb1a0;}.cls-3{fill:#a1a08b;}.cls-4,.cls-9{fill:#fff;}.cls-4{opacity:0.57;}.cls-5{fill:#6c2910;}.cls-6{fill:#c88a5e;}.cls-7{fill:#dbd59e;}.cls-8{fill:#fdce75;}.cls-10{fill:url(#Degradado_sin_nombre_11);}.cls-11{fill:url(#Degradado_sin_nombre_11-2);}.cls-12{fill:url(#Degradado_sin_nombre_11-3);}.cls-13{fill:url(#Degradado_sin_nombre_11-4);}.cls-14{fill:url(#Degradado_sin_nombre_11-5);}.cls-15{fill:url(#Degradado_sin_nombre_11-6);}.cls-16{fill:url(#Degradado_sin_nombre_11-7);}.cls-17{fill:url(#Degradado_sin_nombre_11-8);}.cls-18{fill:url(#Degradado_sin_nombre_11-9);}.cls-19{fill:url(#linear-gradient);}.cls-20{fill:url(#Degradado_sin_nombre_11-10);}.cls-21{fill:url(#linear-gradient-2);}.cls-22{fill:#07130e;}.cls-23{fill:url(#linear-gradient-3);}.cls-24{fill:#eeaa4d;}.cls-25{fill:url(#linear-gradient-4);}.cls-26{fill:url(#linear-gradient-5);}.cls-27{fill:url(#linear-gradient-6);}.cls-28{fill:#f5a571;}.cls-29{fill:url(#linear-gradient-7);}.cls-30{fill:url(#Degradado_sin_nombre_17);}.cls-31{fill:url(#Degradado_sin_nombre_17-2);}</style><linearGradient id="Degradado_sin_nombre_11" x1="311.24" y1="93.87" x2="119.38" y2="304.91" gradientUnits="userSpaceOnUse"><stop offset="0" stop-color="#fdce75"/><stop offset="1" stop-color="#6c2910"/></linearGradient><linearGradient id="Degradado_sin_nombre_11-2" x1="202.49" y1="267.25" x2="129.55" y2="166.18" xlink:href="#Degradado_sin_nombre_11"/><linearGradient id="Degradado_sin_nombre_11-3" x1="144.26" y1="156.65" x2="57.92" y2="307.19" xlink:href="#Degradado_sin_nombre_11"/><linearGradient id="Degradado_sin_nombre_11-4" x1="75.03" y1="255.04" x2="-17.21" y2="159.85" xlink:href="#Degradado_sin_nombre_11"/><linearGradient id="Degradado_sin_nombre_11-5" x1="897.42" y1="572.63" x2="914.36" y2="552.96" gradientTransform="matrix(0.58, 0.82, -0.82, 0.58, 106.17, -1005.16)" xlink:href="#Degradado_sin_nombre_11"/><linearGradient id="Degradado_sin_nombre_11-6" x1="919.74" y1="557.26" x2="947.38" y2="525.18" gradientTransform="matrix(0.99, 0.15, -0.15, 0.99, -646.06, -627.77)" xlink:href="#Degradado_sin_nombre_11"/><linearGradient id="Degradado_sin_nombre_11-7" x1="933.14" y1="604.25" x2="961.58" y2="571.23" gradientTransform="translate(277.94 -1040.7) rotate(61.8)" xlink:href="#Degradado_sin_nombre_11"/><linearGradient id="Degradado_sin_nombre_11-8" x1="965.43" y1="562.18" x2="988.18" y2="535.78" gradientTransform="translate(692.56 -994.97) rotate(84.49)" xlink:href="#Degradado_sin_nombre_11"/><linearGradient id="Degradado_sin_nombre_11-9" x1="44.27" y1="269.24" x2="67.8" y2="269.24" xlink:href="#Degradado_sin_nombre_11"/><linearGradient id="linear-gradient" x1="46.45" y1="258.2" x2="53.07" y2="258.2" gradientUnits="userSpaceOnUse"><stop offset="0" stop-color="#f9b877"/><stop offset="1" stop-color="#ef7a62"/></linearGradient><linearGradient id="Degradado_sin_nombre_11-10" x1="2.28" y1="275.08" x2="11.29" y2="275.08" xlink:href="#Degradado_sin_nombre_11"/><linearGradient id="linear-gradient-2" x1="9.22" y1="254.74" x2="17.14" y2="254.74" xlink:href="#linear-gradient"/><linearGradient id="linear-gradient-3" x1="118.17" y1="87.9" x2="86.8" y2="128.71" xlink:href="#linear-gradient"/><linearGradient id="linear-gradient-4" x1="48.24" y1="114.27" x2="51.68" y2="96.26" xlink:href="#linear-gradient"/><linearGradient id="linear-gradient-5" x1="57.53" y1="81.22" x2="37.95" y2="96.2" xlink:href="#linear-gradient"/><linearGradient id="linear-gradient-6" x1="55.1" y1="78.04" x2="35.52" y2="93.03" xlink:href="#linear-gradient"/><linearGradient id="linear-gradient-7" x1="66.58" y1="127.07" x2="52.88" y2="147.63" xlink:href="#linear-gradient"/><linearGradient id="Degradado_sin_nombre_17" x1="-9736.78" y1="-93.79" x2="-9767.74" y2="-85.3" gradientTransform="matrix(-1, -0.05, -0.05, 1, -9687.17, -235.43)" gradientUnits="userSpaceOnUse"><stop offset="0" stop-color="#a1a08b"/><stop offset="1" stop-color="#5f5e56"/></linearGradient><linearGradient id="Degradado_sin_nombre_17-2" x1="-9418.63" y1="132.13" x2="-9440.47" y2="155.22" gradientTransform="matrix(-1, 0, 0, 1, -9334.08, 0)" xlink:href="#Degradado_sin_nombre_17"/></defs><g id="Capa_2" data-name="Capa 2"><g id="Capa_1-2" data-name="Capa 1"><path class="cls-1" d="M240,234.36A98.73,98.73,0,0,1,225,247C176,282.14,118,271.9,105.71,269.4c-18.19-3.7-53.35-10.84-78.77-40.73C-11.51,183.44-5.53,112.19,24.3,65.16c5.46-8.61,34.28-56.36,92.87-64C152.62-3.49,194,5.86,223.87,30.93,286.69,83.56,282.22,189.89,240,234.36Z"/><path class="cls-2" d="M77.52,17.8a.36.36,0,0,1-.31-.14c-.29-.37-.6-.75-.91-1.11a.36.36,0,0,1,0-.51.37.37,0,0,1,.52,0c.31.37.63.75.92,1.14a.36.36,0,0,1-.06.51A.37.37,0,0,1,77.52,17.8Z"/><path class="cls-2" d="M55.45,67.09c-.54,0-1.11.06-1.67.07a.37.37,0,0,1,0-.73c.54,0,1.1,0,1.63-.07s.8-.06,1.2-.1a.35.35,0,0,1,.4.32.35.35,0,0,1-.32.4Zm5.79-1a.36.36,0,0,1-.37-.27.36.36,0,0,1,.26-.45c.88-.23,1.76-.52,2.62-.83l.08,0a.36.36,0,0,1,.46.22.35.35,0,0,1-.21.46l-.08,0c-.88.32-1.78.61-2.69.85Zm7-2.82a.36.36,0,0,1-.2-.68c.82-.46,1.63-1,2.41-1.49a.36.36,0,0,1,.41.6c-.79.54-1.62,1.06-2.47,1.53A.42.42,0,0,1,68.21,63.3Zm6.07-4.42a.38.38,0,0,1-.29-.12.36.36,0,0,1,0-.51c.69-.65,1.35-1.33,2-2a.38.38,0,0,1,.52,0,.36.36,0,0,1,0,.51c-.64.73-1.32,1.43-2,2.09A.37.37,0,0,1,74.28,58.88Zm4.8-5.78a.33.33,0,0,1-.22-.06.36.36,0,0,1-.11-.5c.5-.79,1-1.62,1.41-2.45a.36.36,0,1,1,.65.33c-.44.86-.93,1.7-1.45,2.51A.38.38,0,0,1,79.08,53.1Zm3.25-6.77a.34.34,0,0,1-.14,0,.37.37,0,0,1-.23-.46,28.37,28.37,0,0,0,.78-2.73.38.38,0,0,1,.44-.27.36.36,0,0,1,.27.44c-.22.94-.49,1.88-.8,2.79A.36.36,0,0,1,82.33,46.33ZM83.85,39h-.06a.36.36,0,0,1-.33-.39c.07-.94.1-1.89.09-2.83a.37.37,0,0,1,.73,0c0,1,0,1.94-.1,2.91A.35.35,0,0,1,83.85,39Zm-.34-7.51a.35.35,0,0,1-.38-.3c-.16-.93-.36-1.86-.61-2.77a.37.37,0,0,1,.26-.44.35.35,0,0,1,.44.25c.25.94.46,1.89.62,2.84a.35.35,0,0,1-.29.42Zm-2.15-7.2a.36.36,0,0,1-.36-.21c-.38-.87-.8-1.72-1.26-2.54a.37.37,0,0,1,.14-.5.38.38,0,0,1,.5.14c.46.84.9,1.72,1.28,2.61a.36.36,0,0,1-.18.47A.27.27,0,0,1,81.36,24.26Z"/><path class="cls-2" d="M49.14,66.87h-.08c-.48-.07-1-.15-1.45-.24a.36.36,0,0,1-.29-.42.36.36,0,0,1,.43-.29l1.41.23a.36.36,0,0,1,.31.41A.35.35,0,0,1,49.14,66.87Z"/><path class="cls-2" d="M28.47,54.4a.35.35,0,0,1-.32-.15c-.28-.39-.56-.8-.83-1.22a.36.36,0,0,1,.61-.39c.26.4.54.8.81,1.19a.35.35,0,0,1-.08.5A.34.34,0,0,1,28.47,54.4Z"/><path class="cls-2" d="M25.46,49.17A.37.37,0,0,1,25.1,49c-.3-.68-.59-1.38-.84-2.07-.08-.2-.14-.39-.21-.58a.35.35,0,0,1,.22-.46.37.37,0,0,1,.47.22c.06.19.13.38.2.56.25.69.53,1.37.83,2a.37.37,0,0,1-.18.48A.31.31,0,0,1,25.46,49.17Zm-2.22-7.05a.37.37,0,0,1-.38-.29c-.17-.94-.3-1.89-.39-2.83a.36.36,0,1,1,.72-.07c.09.92.22,1.85.39,2.76a.38.38,0,0,1-.29.43Zm-.45-7.38h-.05a.36.36,0,0,1-.34-.38c.05-1,.16-1.9.3-2.84a.36.36,0,1,1,.72.11c-.14.91-.24,1.85-.3,2.77A.35.35,0,0,1,22.79,34.74Zm1.33-7.27H24a.36.36,0,0,1-.24-.46c.28-.91.61-1.81,1-2.68a.36.36,0,0,1,.48-.2.37.37,0,0,1,.19.48c-.35.85-.67,1.73-.95,2.62A.38.38,0,0,1,24.12,27.47Zm3-6.74a.38.38,0,0,1-.21-.05.37.37,0,0,1-.13-.5c.49-.81,1-1.61,1.59-2.37a.36.36,0,0,1,.51-.08.37.37,0,0,1,.07.51c-.54.74-1.07,1.52-1.54,2.31A.39.39,0,0,1,27.15,20.73Zm4.55-5.82a.35.35,0,0,1-.28-.11.36.36,0,0,1,0-.51c.67-.67,1.38-1.32,2.11-1.92a.36.36,0,1,1,.46.56c-.71.59-1.4,1.22-2.05,1.87A.38.38,0,0,1,31.7,14.91Zm5.82-4.55a.36.36,0,0,1-.33-.18.36.36,0,0,1,.12-.5c.81-.49,1.66-.94,2.51-1.36a.37.37,0,1,1,.32.66,27.53,27.53,0,0,0-2.45,1.33A.48.48,0,0,1,37.52,10.36Zm6.75-3a.35.35,0,0,1-.37-.25.36.36,0,0,1,.24-.46C45,6.34,46,6.1,46.9,5.9a.36.36,0,0,1,.43.28.36.36,0,0,1-.28.43c-.91.2-1.81.43-2.7.71ZM54.36,6h0c-.92,0-1.86,0-2.78,0a.38.38,0,0,1-.39-.35.36.36,0,0,1,.34-.38h0c.95-.06,1.91-.07,2.86,0a.37.37,0,0,1,.35.38A.36.36,0,0,1,54.36,6Z"/><path class="cls-2" d="M60.36,6.77a.2.2,0,0,1-.11,0c-.46-.11-.94-.21-1.41-.29A.38.38,0,0,1,58.55,6,.37.37,0,0,1,59,5.75c.48.09,1,.19,1.44.31a.36.36,0,0,1,.27.43A.37.37,0,0,1,60.36,6.77Z"/><path class="cls-3" d="M61.54,14.18a.37.37,0,0,0-.42.06l-3.19,3.13a19.47,19.47,0,0,0-6.29-.46l-2.72-3.55a.36.36,0,0,0-.4-.12l-5.09,1.69a.36.36,0,0,0-.25.34l0,4.47a19.18,19.18,0,0,0-4.77,4.13l-4.43-.59a.37.37,0,0,0-.38.2l-2.4,4.79a.36.36,0,0,0,.06.42l3.13,3.2a19.45,19.45,0,0,0-.46,6.29l-3.55,2.71a.38.38,0,0,0-.12.41l1.69,5.09a.35.35,0,0,0,.34.25l4.47,0a19.33,19.33,0,0,0,4.13,4.77l-.59,4.43a.36.36,0,0,0,.2.37l4.79,2.41a.37.37,0,0,0,.42-.07l3.2-3.12a19.45,19.45,0,0,0,6.29.45l2.71,3.55a.37.37,0,0,0,.41.13l5.09-1.69a.38.38,0,0,0,.25-.35l0-4.46A19.75,19.75,0,0,0,68.43,49l4.43.59a.36.36,0,0,0,.37-.2l2.41-4.79a.38.38,0,0,0-.07-.43L72.45,41a19.45,19.45,0,0,0,.45-6.29L76.45,32a.38.38,0,0,0,.13-.4l-1.69-5.09a.37.37,0,0,0-.35-.25l-4.47-.05A19.32,19.32,0,0,0,66,21.39L66.54,17a.37.37,0,0,0-.2-.38Z"/><path class="cls-4" d="M53.76,41.72a5.51,5.51,0,0,1-1.51-.12A5.3,5.3,0,0,1,50.54,32a5.29,5.29,0,0,1,7.32,1.62,5.21,5.21,0,0,1,.71,4,5.29,5.29,0,0,1-4.81,4.15Zm-.66-9.5a4.08,4.08,0,0,0-2,.65,4.22,4.22,0,0,0-1.28,5.82,4.15,4.15,0,0,0,2.64,1.85,4.21,4.21,0,0,0,5-3.21,4.23,4.23,0,0,0-3.21-5A4.08,4.08,0,0,0,53.1,32.22Z"/><path class="cls-4" d="M54.25,50a13.53,13.53,0,0,1-13.7-9.21,13.91,13.91,0,0,1-.66-3.35,13.53,13.53,0,0,1,9.21-13.7l.27-.08a13.49,13.49,0,0,1,2.25-.49l.28,0L52,24.21a12.13,12.13,0,0,0-2.58.56h0a12.33,12.33,0,0,0-6.92,5.74c-.09.15-.17.31-.25.47A12.36,12.36,0,0,0,41,37.36a12.12,12.12,0,0,0,.61,3.07,12.39,12.39,0,0,0,24.12-4.76,12.67,12.67,0,0,0-.6-3.05,12.38,12.38,0,0,0-3.67-5.48l.71-.83A13.51,13.51,0,0,1,54.25,50Z"/><path class="cls-2" d="M44.65,64.15a.45.45,0,0,1-.4-.19c-.33-.47-.69-.93-1.06-1.37a.43.43,0,0,1,.05-.62.44.44,0,0,1,.62,0c.4.46.77,1,1.12,1.44a.45.45,0,0,1-.11.62A.37.37,0,0,1,44.65,64.15Z"/><path class="cls-2" d="M33,94a.46.46,0,0,1-.46-.35.45.45,0,0,1,.34-.53,20.35,20.35,0,0,0,2.5-.73l.86-.34a.44.44,0,0,1,.58.24.45.45,0,0,1-.24.58l-.89.35a20.6,20.6,0,0,1-2.62.77Zm8.41-4.17a.46.46,0,0,1-.37-.15.44.44,0,0,1,.05-.63,18.32,18.32,0,0,0,2.45-2.53.45.45,0,1,1,.7.56,20.12,20.12,0,0,1-2.57,2.65A.44.44,0,0,1,41.42,89.86Zm5.43-7.65a.41.41,0,0,1-.19,0,.45.45,0,0,1-.25-.58,19,19,0,0,0,1-3.39.45.45,0,0,1,.88.17,19.88,19.88,0,0,1-1,3.54A.42.42,0,0,1,46.85,82.21ZM48,72.91a.46.46,0,0,1-.47-.39,19.38,19.38,0,0,0-.75-3.44.44.44,0,1,1,.84-.27,19.28,19.28,0,0,1,.79,3.6.45.45,0,0,1-.38.5Z"/><path class="cls-2" d="M27.16,94.38h-.07c-.6-.06-1.21-.14-1.8-.25a.45.45,0,0,1,.16-.88,16.93,16.93,0,0,0,1.72.24.45.45,0,0,1,0,.89Z"/><path class="cls-2" d="M13.32,86.45a.44.44,0,0,1-.39-.19c-.35-.49-.69-1-1-1.52a.44.44,0,1,1,.76-.45c.3.5.61,1,1,1.45a.46.46,0,0,1-.1.63A.49.49,0,0,1,13.32,86.45Z"/><path class="cls-2" d="M10.22,79.62a.45.45,0,0,1-.46-.35,19.4,19.4,0,0,1-.48-3.13c0-.15,0-.31,0-.46a.46.46,0,0,1,.42-.47.44.44,0,0,1,.46.43l0,.44a18.94,18.94,0,0,0,.45,3,.43.43,0,0,1-.33.53Zm.12-9.23a.39.39,0,0,1-.15,0,.44.44,0,0,1-.31-.54,19.84,19.84,0,0,1,1.23-3.41.45.45,0,0,1,.59-.21.45.45,0,0,1,.22.59,19,19,0,0,0-1.18,3.26A.45.45,0,0,1,10.34,70.39Zm4.4-8.11a.41.41,0,0,1-.33-.12.43.43,0,0,1,0-.62,18.87,18.87,0,0,1,2.68-2.45.44.44,0,0,1,.53.71A19.51,19.51,0,0,0,15,62.13.43.43,0,0,1,14.74,62.28Zm7.67-5.12a.45.45,0,0,1-.45-.29.45.45,0,0,1,.27-.57,19.51,19.51,0,0,1,3.51-.92.43.43,0,0,1,.51.37.45.45,0,0,1-.37.51,18.76,18.76,0,0,0-3.35.87Z"/><path class="cls-2" d="M33.35,56.53h-.13a17.17,17.17,0,0,0-1.71-.33.45.45,0,0,1-.38-.5.45.45,0,0,1,.5-.38c.6.09,1.2.2,1.79.34a.45.45,0,0,1-.07.88Z"/><path class="cls-3" d="M34.08,61a.25.25,0,0,0-.26,0l-2,2a12.15,12.15,0,0,0-3.95-.29l-1.71-2.23a.22.22,0,0,0-.25-.08l-3.2,1.06a.24.24,0,0,0-.16.22l0,2.81a12.06,12.06,0,0,0-3,2.59l-2.78-.37a.25.25,0,0,0-.24.12l-1.51,3a.25.25,0,0,0,0,.26l2,2a12.13,12.13,0,0,0-.29,4l-2.23,1.7a.24.24,0,0,0-.08.26l1.06,3.2a.27.27,0,0,0,.22.16l2.81,0a12,12,0,0,0,2.59,3l-.37,2.79a.23.23,0,0,0,.13.23l3,1.51a.21.21,0,0,0,.26,0l2-2a12.13,12.13,0,0,0,3.95.28l1.71,2.23a.22.22,0,0,0,.25.08l3.2-1.06a.24.24,0,0,0,.16-.22l0-2.8a12.26,12.26,0,0,0,3-2.6l2.79.38a.23.23,0,0,0,.23-.13l1.51-3a.23.23,0,0,0,0-.27l-2-2a12.47,12.47,0,0,0,.29-4l2.23-1.7a.25.25,0,0,0,.07-.26l-1.06-3.19a.22.22,0,0,0-.21-.16l-2.81,0a12.48,12.48,0,0,0-2.59-3l.37-2.78a.24.24,0,0,0-.13-.24Z"/><path class="cls-4" d="M29.22,78.59A3.66,3.66,0,0,1,27,71.85h0A3.66,3.66,0,0,1,30.93,78,3.78,3.78,0,0,1,29.22,78.59ZM27.71,73a2.32,2.32,0,1,0,3.21.71A2.33,2.33,0,0,0,27.71,73Z"/><path class="cls-4" d="M29.52,83.78a8.84,8.84,0,0,1-9.37-8.19,8.86,8.86,0,0,1,.92-4.53,8.72,8.72,0,0,1,5.09-4.4,8.93,8.93,0,0,1,1.83-.4l.14,1.33a7.65,7.65,0,0,0-1.55.33,7.4,7.4,0,0,0-4.2,3.51.3.3,0,0,1,0,.08,1.09,1.09,0,0,1-.08.15,7.37,7.37,0,0,0-.77,3.84,7.41,7.41,0,0,0,4.1,6.17A7.46,7.46,0,0,0,36.38,74.5a7.53,7.53,0,0,0-2.58-5.15l.87-1a8.86,8.86,0,0,1,2.61,3.89,8.77,8.77,0,0,1,.43,2.18,8.81,8.81,0,0,1-8.19,9.37Z"/><path class="cls-2" d="M121.7,183.37l.9.14c45.75,7.24,88.76-24.39,96.07-70.63L134.94,99.63Z"/><path class="cls-5" d="M135.33,99.53,79.05,163a84.37,84.37,0,0,0,42,20.14l1.53.25Z"/><path class="cls-6" d="M134.94,99.63l-83.06-17c-.11.52-.21,1-.31,1.57a84.73,84.73,0,0,0,27.09,78.83Z"/><path class="cls-3" d="M145.29,92.66l82.21,16a84.83,84.83,0,0,0-45.68-92.18L145,92A.45.45,0,0,0,145.29,92.66Z"/><path class="cls-7" d="M135.24,99.82l35.16-77a74.85,74.85,0,0,0-20.35-6.33A84.8,84.8,0,0,0,62.32,56.58Z"/><path class="cls-8" d="M62.36,55.82A84.52,84.52,0,0,0,51.82,82.75h0l83,17.06Z"/><path class="cls-9" d="M76.88,43.35a.67.67,0,0,1-.47-.2.68.68,0,0,1,0-.95,82,82,0,0,1,70.9-23c1.16.18,2.34.39,3.49.62a.67.67,0,0,1-.27,1.32c-1.13-.23-2.28-.44-3.43-.62A80.75,80.75,0,0,0,77.36,43.15.69.69,0,0,1,76.88,43.35Z"/><path class="cls-9" d="M78.37,160.11a.65.65,0,0,1-.46-.19A82.31,82.31,0,0,1,52.32,99a.67.67,0,1,1,1.34,0A81,81,0,0,0,78.84,159a.67.67,0,0,1-.47,1.16Z"/><path class="cls-9" d="M154.73,180a.67.67,0,0,1-.17-1.32,80.55,80.55,0,0,0,41.49-25.94.68.68,0,0,1,.95-.07.67.67,0,0,1,.08.94,81.94,81.94,0,0,1-42.18,26.37A.52.52,0,0,1,154.73,180Z"/><path class="cls-9" d="M165,60a.67.67,0,0,1-.6-1l19.19-38.78.63.38a116.16,116.16,0,0,1,18.3,14,.67.67,0,0,1-.91,1A114.43,114.43,0,0,0,184.1,22.16L165.56,59.63A.66.66,0,0,1,165,60Z"/><path class="cls-9" d="M193.49,98.9h-.12L150.08,90.8a1,1,0,0,1-.72-.54,1,1,0,0,1,0-.91l3.9-7.89a.68.68,0,0,1,1.21.6l-3.72,7.5,42.87,8a.67.67,0,0,1-.13,1.33Z"/><path class="cls-10" d="M177.66,248.85l51.27-98.23h-10.5a2.3,2.3,0,0,1-1.78-3.75L271.3,80.26a3.85,3.85,0,0,1,6.83,2.67l-3.84,65.14a6.52,6.52,0,0,1-7.24,6.08l-7.32-.84L208.85,263.49a8.08,8.08,0,0,1-7.35,4.7H183.86Z"/><path class="cls-11" d="M135.26,180l36.2,80.41a13.28,13.28,0,0,0,12.11,7.82h18.66a6.81,6.81,0,0,0,6-3.5l.66-1.2h0a5.33,5.33,0,0,1-4.75-2.91l-48.23-94.5Z"/><path class="cls-12" d="M160.74,175.62h0a7.93,7.93,0,0,0-11.5,1.83L96,257.41a23,23,0,0,1-19.14,10.26H69.39l-6.1-17.56s49.48-75.87,62.24-87.35c0,0,12.7-11.44,25.22-2.79a20.86,20.86,0,0,1,7.35,9.27Z"/><path class="cls-13" d="M5.41,202.89S14.32,191.75,31.58,190c0,0,8.2,2.79,24.54,32.06S83.29,264.7,96,257.41l-1,1.75a19.19,19.19,0,0,1-16.44,9.29h-7c-7.75,0-14.48-11.93-19-18.22C39.78,232.55,13.22,205.63,5.41,202.89Z"/><path class="cls-9" d="M272,103.52h0a.51.51,0,0,1-.45-.56l.36-3.18a.51.51,0,0,1,.56-.44.49.49,0,0,1,.44.56l-.36,3.18A.5.5,0,0,1,272,103.52Z"/><path class="cls-9" d="M226.34,143.67a.5.5,0,0,1-.3-.11.5.5,0,0,1-.09-.7l45.12-58.64a1.89,1.89,0,0,1,3.38,1.37l-.8,7a.5.5,0,1,1-1-.11l.8-7a.85.85,0,0,0-.55-.91.85.85,0,0,0-1,.28l-45.13,58.63A.51.51,0,0,1,226.34,143.67Z"/><path class="cls-9" d="M124,205.14a.47.47,0,0,1-.28-.09.51.51,0,0,1-.14-.7l23.34-34.59a4.11,4.11,0,0,1,7.12.54.5.5,0,0,1-.91.43,3.07,3.07,0,0,0-2.57-1.77,3.11,3.11,0,0,0-2.81,1.36l-23.33,34.6A.52.52,0,0,1,124,205.14Z"/><path class="cls-9" d="M117.9,214.13a.51.51,0,0,1-.28-.09.5.5,0,0,1-.13-.7l1.49-2.21a.5.5,0,0,1,.7-.14.51.51,0,0,1,.14.7l-1.5,2.22A.52.52,0,0,1,117.9,214.13Z"/><circle class="cls-14" cx="181.59" cy="60.77" r="12.63" transform="translate(32.07 180.4) rotate(-57.17)"/><circle class="cls-8" cx="181.59" cy="60.77" r="12.21" transform="translate(-7.08 93.5) rotate(-28.35)"/><path class="cls-9" d="M171.34,56.52l-.18,0A.41.41,0,0,1,171,56a11.64,11.64,0,0,1,10.16-6.85,12.33,12.33,0,0,1,2.11.1.41.41,0,1,1-.11.81,10.92,10.92,0,0,0-11.41,6.27A.4.4,0,0,1,171.34,56.52Z"/><circle class="cls-6" cx="181.87" cy="61.02" r="10.33" transform="translate(27.83 175.35) rotate(-55.13)"/><path class="cls-8" d="M181.17,68.74l0-1.12a9.13,9.13,0,0,1-3.18-.56.65.65,0,0,1-.39-.75l.25-1.06a.64.64,0,0,1,.87-.46,7.67,7.67,0,0,0,2.93.49c1.13,0,2-.46,1.92-1.25s-.69-1.1-2.28-1.45c-2.26-.52-3.91-1.43-4-3.4-.07-1.78,1.17-3.19,3.42-3.65l0-1.12a.65.65,0,0,1,.63-.68l.66,0a.66.66,0,0,1,.68.63l0,1a8.64,8.64,0,0,1,2.52.34.66.66,0,0,1,.44.77l-.23,1a.65.65,0,0,1-.84.48,6.78,6.78,0,0,0-2.47-.35c-1.34.06-1.7.63-1.68,1.13s.85,1,2.61,1.46c2.52.64,3.59,1.63,3.67,3.49.07,1.7-1.13,3.28-3.56,3.76l0,1.26a.66.66,0,0,1-.63.68l-.66,0A.66.66,0,0,1,181.17,68.74Z"/><circle class="cls-15" cx="213.65" cy="31.39" r="20.61" transform="translate(-2.09 40.86) rotate(-10.87)"/><circle class="cls-8" cx="213.65" cy="31.39" r="19.92" transform="translate(179.12 244.55) rotate(-89.16)"/><path class="cls-9" d="M196.91,24.18a.57.57,0,0,1-.18,0,.39.39,0,0,1-.19-.51,18.71,18.71,0,0,1,16.33-11,19.28,19.28,0,0,1,3.4.17.38.38,0,0,1,.33.43.39.39,0,0,1-.44.33,17.62,17.62,0,0,0-3.25-.16A17.92,17.92,0,0,0,197.24,24,.39.39,0,0,1,196.91,24.18Z"/><circle class="cls-6" cx="214.1" cy="31.81" r="16.86" transform="translate(11.98 109.25) rotate(-29.42)"/><path class="cls-8" d="M213,44.4l-.08-1.83a14.86,14.86,0,0,1-5.19-.91,1.05,1.05,0,0,1-.63-1.22l.39-1.73a1.07,1.07,0,0,1,1.42-.76,12.57,12.57,0,0,0,4.79.81c1.84-.08,3.19-.76,3.14-2s-1.14-1.8-3.72-2.38c-3.69-.85-6.38-2.33-6.51-5.54-.12-2.9,1.91-5.21,5.57-5.95L212.06,21a1.06,1.06,0,0,1,1-1.11l1.08-.05a1.07,1.07,0,0,1,1.11,1l.07,1.64a13.63,13.63,0,0,1,4.11.57,1,1,0,0,1,.71,1.25L219.8,26a1.08,1.08,0,0,1-1.38.78,11,11,0,0,0-4-.57c-2.19.09-2.77,1-2.74,1.83,0,1,1.38,1.64,4.25,2.39,4.11,1.05,5.86,2.67,6,5.69.11,2.78-1.85,5.36-5.81,6.15l.08,2.05a1.06,1.06,0,0,1-1,1.11l-1.08,0A1.07,1.07,0,0,1,213,44.4Z"/><circle class="cls-16" cx="229.74" cy="76.8" r="21.21" transform="translate(60.46 250.07) rotate(-64.15)"/><circle class="cls-8" cx="229.74" cy="76.8" r="20.5" transform="translate(66.53 255.8) rotate(-66.13)"/><path class="cls-9" d="M212.51,69.37a.33.33,0,0,1-.17,0,.37.37,0,0,1-.19-.5,19.22,19.22,0,0,1,16.79-11.32,19.46,19.46,0,0,1,3.5.17.38.38,0,0,1,.32.43.38.38,0,0,1-.43.33,18.72,18.72,0,0,0-3.35-.17,18.49,18.49,0,0,0-16.14,10.87A.38.38,0,0,1,212.51,69.37Z"/><circle class="cls-6" cx="230.2" cy="77.23" r="17.35" transform="translate(101.87 283.35) rotate(-76.64)"/><path class="cls-8" d="M229,90.19,229,88.3a15.41,15.41,0,0,1-5.34-.93,1.09,1.09,0,0,1-.65-1.26l.4-1.78a1.11,1.11,0,0,1,1.47-.78,12.81,12.81,0,0,0,4.93.83c1.89-.08,3.28-.78,3.22-2.1s-1.17-1.85-3.83-2.44c-3.8-.88-6.56-2.4-6.7-5.71-.12-3,2-5.35,5.73-6.12l-.07-1.88a1.1,1.1,0,0,1,1-1.15l1.11,0a1.09,1.09,0,0,1,1.14,1l.07,1.69a14.37,14.37,0,0,1,4.23.58,1.1,1.1,0,0,1,.73,1.3l-.37,1.64a1.1,1.1,0,0,1-1.42.8,11.38,11.38,0,0,0-4.14-.58c-2.25.09-2.85,1-2.82,1.88,0,1,1.42,1.68,4.38,2.46,4.22,1.08,6,2.74,6.16,5.86.11,2.85-1.9,5.51-6,6.32l.09,2.11a1.11,1.11,0,0,1-1.06,1.15l-1.11,0A1.1,1.1,0,0,1,229,90.19Z"/><circle class="cls-17" cx="254.75" cy="40.43" r="16.96" transform="translate(200.34 292.56) rotate(-86.84)"/><circle class="cls-8" cx="254.75" cy="40.43" r="16.4" transform="translate(126.57 264.26) rotate(-69.22)"/><path class="cls-9" d="M241,34.6a.39.39,0,0,1-.18,0,.41.41,0,0,1-.21-.55,15.55,15.55,0,0,1,16.34-9,.42.42,0,0,1,.36.47.41.41,0,0,1-.47.35,15.88,15.88,0,0,0-2.67-.13,14.66,14.66,0,0,0-12.8,8.63A.43.43,0,0,1,241,34.6Z"/><circle class="cls-6" cx="255.12" cy="40.77" r="13.88" transform="translate(5.51 107.43) rotate(-24.03)"/><path class="cls-8" d="M254.18,51.13l-.06-1.5a12.26,12.26,0,0,1-4.27-.75.88.88,0,0,1-.53-1l.33-1.42a.88.88,0,0,1,1.17-.62,10.28,10.28,0,0,0,3.94.66c1.52-.06,2.62-.62,2.58-1.68s-.93-1.48-3.06-2c-3-.7-5.25-1.92-5.36-4.57-.1-2.38,1.57-4.28,4.58-4.89l-.06-1.51a.88.88,0,0,1,.84-.92l.89,0a.88.88,0,0,1,.92.84l.05,1.36a11,11,0,0,1,3.38.46.87.87,0,0,1,.59,1l-.3,1.32a.88.88,0,0,1-1.13.64,9.17,9.17,0,0,0-3.32-.46c-1.79.07-2.28.83-2.25,1.5s1.14,1.34,3.5,2c3.38.86,4.82,2.19,4.93,4.68.09,2.29-1.52,4.41-4.78,5.06l.07,1.69a.88.88,0,0,1-.85.91l-.88,0A.88.88,0,0,1,254.18,51.13Z"/><path class="cls-18" d="M67.14,268.11c-4,.34-11,.91-16.54,1.15a15.87,15.87,0,0,1-6.33-.62c0,.13,0,.25,0,.35a1.15,1.15,0,0,0,1.09,1.08,193.92,193.92,0,0,0,21.66,0,.81.81,0,0,0,.66-1.22A7.67,7.67,0,0,0,67.14,268.11Z"/><path class="cls-6" d="M50.6,269.26c5.51-.24,12.51-.81,16.54-1.15-4-4.87-16.54-8.14-16.54-8.14H47a15,15,0,0,0-2.77,8.67A15.87,15.87,0,0,0,50.6,269.26Z"/><path class="cls-19" d="M46.45,254.17l.33,6.58a1.49,1.49,0,0,0,1.28,1.41,6,6,0,0,0,2.67-.22,1.77,1.77,0,0,0,1.19-1.37l1.15-6.4Z"/><path class="cls-20" d="M5.21,275.7A3.47,3.47,0,0,1,2.34,273v0a3.1,3.1,0,0,0,1.53,3.34,7.89,7.89,0,0,0,4.23.86,3.91,3.91,0,0,0,3.18-1.89v0C10,276.12,8.13,276.22,5.21,275.7Z"/><path class="cls-6" d="M13.45,256.19H10.52c-4.46-.11-7.26,12.05-8.18,16.76a3.47,3.47,0,0,0,2.87,2.75c2.92.52,4.77.42,6.08-.42,2.41-4.1,3.61-10.11,4.18-13.61C16.13,257.68,13.45,256.19,13.45,256.19Z"/><path class="cls-21" d="M10.9,250.09l-1.63,6.47a1.75,1.75,0,0,0,.92,2,6.13,6.13,0,0,0,3.37.81,1.44,1.44,0,0,0,1.19-1l2.39-6.81Z"/><path class="cls-5" d="M68.13,164.87s-14.54,90.87-14.3,91.37a12.07,12.07,0,0,1-8.39.24s1.31-48.58,4.39-67.21c0,0-24.81,43.42-32.69,65.06a19.67,19.67,0,0,1-7.51-2.73S36.35,173.44,43.47,163Z"/><path class="cls-22" d="M50.41,188.8a.38.38,0,0,1-.22-.07.43.43,0,0,1-.14-.59l5.43-8.68a.45.45,0,0,1,.28-.19l4-.81a.43.43,0,1,1,.17.85l-3.82.76-5.33,8.52A.44.44,0,0,1,50.41,188.8Z"/><path class="cls-23" d="M134.85,75.88S125,78,119.07,80.8a5.4,5.4,0,0,0-2.67,2.68c-1.78,3.91-7.12,13.71-17.48,18.39,1.49,2,3.89,6.1,4.94,13,6.22-4.63,11.59-12.36,14.17-25a5,5,0,0,0,4.41-.12c1.29-.63,2.78-1.52,3.91-2.22a5.2,5.2,0,0,0,2.27-3.05,18,18,0,0,0,.17-4.73l5.05-1.56A1.8,1.8,0,0,0,134.85,75.88Z"/><path class="cls-8" d="M103.86,114.89c-1-6.92-3.45-11-4.94-13-6.43,2.91-14.8,3.84-25.45.14a11.3,11.3,0,0,0-3-.6c-5.67-.33-24.36-.94-39.83,4.17a12.07,12.07,0,0,0-7.25,6.6c-4.18,9.6-11,31.47,7.85,42.51a46.07,46.07,0,0,1,4.54-8.59c-3-5.11-3.93-12.08,1.45-21.17,3.91,10.58,5.75,26,6.14,32.85a14.85,14.85,0,0,1-1.15,6.58l-.1.22a.77.77,0,0,0,.55,1.06A88.73,88.73,0,0,0,67.5,167.1a1.33,1.33,0,0,0,1.21-1c5.15-21.69,5.16-36.49,3.9-45.84C77.43,121.3,92.15,123.6,103.86,114.89Z"/><path class="cls-24" d="M72.63,120.81a.42.42,0,0,1-.42-.37c-1.21-9.13-3.67-13.12-3.7-13.16a.42.42,0,0,1,.13-.59.44.44,0,0,1,.6.13c.1.17,2.58,4.16,3.82,13.51a.43.43,0,0,1-.37.48Z"/><path class="cls-25" d="M46.51,88.78s-1.07,11.32-2,14.67a1.16,1.16,0,0,0,.54,1.31c1.6.91,5.44,2.4,10.69-.17A2.38,2.38,0,0,0,57,102.35l-.46-10.94Z"/><path class="cls-26" d="M56.81,74.29s3.43,7.87,3.66,12,1.12,6.81-3.66,7.64-8.8-1.55-11-5.66c0,0-3.41-6.34-2.64-8.94S56.81,74.29,56.81,74.29Z"/><path class="cls-22" d="M47.47,85.31l.27-.12a.66.66,0,0,0,.32-.9c-.68-1.3-2-4.28-.29-5,2.18-.89,10.84-2.66,12.71-5.73a5.73,5.73,0,0,0-2.19-7.85.34.34,0,0,0-.43.14l-.2.38a.33.33,0,0,1-.6-.06.32.32,0,0,0-.58-.08c-.57.91-2.12,2.4-6.27,3.17-5.89,1.09-9.79,3.47-9.88,7.54a.33.33,0,0,1-.51.27c-.43-.27-1.13-.39-2.06.39-1.61,1.36-.95,4.89,2.59,7.79a.32.32,0,0,1,0,.52c-.64.42-1.6,1.42.88,2.75a8.31,8.31,0,0,0,5.23,1.13.32.32,0,0,0,.26-.39l-.79-3.57a.33.33,0,0,1,.32-.4Z"/><path class="cls-27" d="M47.61,86.07s-1.3-5-3.56-3.62,1.17,5.63,3,5.82Z"/><path class="cls-28" d="M120.64,88.68a.41.41,0,0,1-.27-.1.43.43,0,0,1-.06-.6c.37-.46,3.66-4.48,4.93-5.2.46-.26.74-.53.8-.78a.74.74,0,0,0-.06-.4l-3.87.77-2.19,1.89a.43.43,0,1,1-.56-.66l2.28-1.95a.44.44,0,0,1,.19-.1l4.28-.85a.4.4,0,0,1,.44.18,1.61,1.61,0,0,1,.32,1.32,2.2,2.2,0,0,1-1.21,1.33c-1,.54-3.7,3.79-4.68,5A.43.43,0,0,1,120.64,88.68Z"/><path class="cls-29" d="M47.45,160.13l15.14.19-5.3-5a4,4,0,0,0-4.85-.45,11.32,11.32,0,0,0-2.69,2.4s-9.44-3.46-14-11.18a46.07,46.07,0,0,0-4.54,8.59A47.22,47.22,0,0,0,47.45,160.13Z"/><path class="cls-30" d="M49.08,162.08h.09l38.43,0a1.72,1.72,0,0,0,1.72-1.71,1.7,1.7,0,0,0-1.72-1.7l-38.44,0a1.7,1.7,0,0,0-.08,3.4Z"/><path class="cls-31" d="M122.15,127.56h-32A6.09,6.09,0,0,0,84.63,131l-14.8,31H109.6a3.7,3.7,0,0,0,3.45-2.32L124.53,131A2.54,2.54,0,0,0,122.15,127.56Z"/><ellipse class="cls-8" cx="102" cy="144.24" rx="4.06" ry="2.52" transform="translate(-66.92 195.96) rotate(-71.76)"/></g></g></svg>