<svg xmlns="http://www.w3.org/2000/svg" viewBox="0 0 387.88 214.82"><defs><style>.cls-1{isolation:isolate;}.cls-2{fill:#f6f6f6;}.cls-3{fill:#dbd59e;}.cls-4{fill:#c0bd99;mix-blend-mode:multiply;opacity:0.3;}.cls-5{fill:#6c2910;}.cls-6{fill:#3c8f7c;}.cls-7{fill:#9ad1c5;}.cls-8{fill:#56baa3;}.cls-9{fill:#3e907c;}.cls-10{fill:#0f2e35;}.cls-11{fill:#e6a03a;}.cls-12{fill:#e9af55;}.cls-13{fill:#f7cc7f;}.cls-14{fill:#f4a392;}.cls-15{fill:#603b25;}.cls-16{fill:#c88a5e;}.cls-17{fill:#fdce75;}.cls-18{fill:#7f7f74;}.cls-19,.cls-22{fill:#fff;}.cls-20{fill:#a4856b;}.cls-21{fill:#ee745a;}.cls-22{opacity:0.8;}</style></defs><g class="cls-1"><g id="Capa_2" data-name="Capa 2"><g id="Capa_1-2" data-name="Capa 1"><path class="cls-2" d="M100.69.39C155.49-2.78,213,13.73,204.5,37.66s45.16-8.5,66.55.13c15.23,6.14,9.14,24.84,16.51,32.37,16.89,17.28,34.16-4.48,55.66,8.58s12.56,135.12,3.81,135.1l-331.54-.6-4,.12s-24.31-35.06-2.3-55.54,6.9-29.83,4.22-37.75c-3.07-9.08-10.24-24.95,21-36.6s23.16-37,22.39-42.23S45.88,3.56,100.69.39Z"/><rect class="cls-3" x="269.62" y="18.87" width="25.12" height="194.4"/><rect class="cls-3" x="234.54" y="78.17" width="25.11" height="135.1"/><rect class="cls-3" x="305.19" y="60.99" width="25.11" height="152.28"/><rect class="cls-3" x="199.47" y="55" width="25.12" height="158.27"/><rect class="cls-3" x="164.39" y="101.93" width="25.12" height="111.34"/><rect class="cls-4" x="269.62" y="63.67" width="25.12" height="149.59"/><rect class="cls-4" x="234.54" y="109.3" width="25.11" height="103.96"/><rect class="cls-4" x="305.19" y="96.09" width="25.11" height="117.18"/><rect class="cls-4" x="199.47" y="91.48" width="25.12" height="121.79"/><rect class="cls-4" x="164.39" y="127.59" width="25.12" height="85.68"/><polygon class="cls-5" points="342.52 20.36 322.5 35.49 330.14 35.98 282.37 120.06 255.91 80.4 218.5 167.68 194.43 133.5 164.43 175.9 166.32 183.49 194.42 143.97 219.86 180.1 257.14 93.14 282.8 131.62 335.69 38.53 340.6 43.81 342.52 20.36"/><path class="cls-6" d="M141.55,157.06c-28.72-22.87-52.85-52.45-71.12-87.18l-39.5,31.73c21.13,40.16,49,74.36,82.23,100.8Z"/><path class="cls-7" d="M64.25,78.17l-24.54,20c1.95,3.63,1.24,8.53-1.66,11,18.57,32.84,41.84,61.37,68.94,84.52a6.29,6.29,0,0,1,9.4-1.54q8.94-14.08,17.9-28.16c-2.76-2.24-3.16-6.82-.94-10.14A275.67,275.67,0,0,1,72.8,79.67,5.35,5.35,0,0,1,64.25,78.17Z"/><path class="cls-8" d="M97.3,153.23c6.13-7.91,6.07-19.58.29-26.57s-15.71-7.29-22.57-.25-7.49,19.52-1,27.36S91.18,161.13,97.3,153.23Z"/><path class="cls-9" d="M96.89,130.78l-2.31,2.56c1.84,3.38,1.45,6.87-.53,9.16s-4.26,2.5-7.68.48c-2.49-1.41-3.68-1.82-4.44-1s-.86,2,.5,3.67a9.5,9.5,0,0,0,2.13,2,2.3,2.3,0,0,1,.61,2.92h0a1.65,1.65,0,0,1-2.45.72,12.62,12.62,0,0,1-2.24-2.09l-2,2.21c-.7-.87-1.4-1.75-2.09-2.64.73-.78,1.46-1.57,2.18-2.36-1.76-3.4-1.41-6.78.63-8.92,2.26-2.37,4.87-1.64,7.86.23,2.07,1.29,3.27,1.5,4.13.54s.61-2.54-.53-4a9.94,9.94,0,0,0-2.59-2.32,2.2,2.2,0,0,1-.52-2.92l.06-.12a1.67,1.67,0,0,1,2.35-.72,14.17,14.17,0,0,1,2.83,2.53L95,128.33Z"/><path class="cls-8" d="M119.92,173.6q-9.81-8.41-18.9-17.8l-3.11,4q9.21,9.51,19.17,18Q118.51,175.75,119.92,173.6Z"/><path class="cls-6" d="M135.69,147.84A279.37,279.37,0,0,1,31.43,112.27L12.71,156.12C50.66,178,91.56,192,133.27,197.25Q134.49,172.55,135.69,147.84Z"/><path class="cls-7" d="M30.12,121.77,18.65,149.26c3.46,2,5.25,6.18,4,9.53a320.34,320.34,0,0,0,101.08,34.48,6.31,6.31,0,0,1,7.39-5.66l1.74-30.81a7.06,7.06,0,0,1-5.78-7.6,281.64,281.64,0,0,1-88.76-30.28A5.56,5.56,0,0,1,30.12,121.77Z"/><path class="cls-8" d="M95.47,165.72a19.59,19.59,0,0,0-12.74-21.23A15.15,15.15,0,0,0,63.05,155c-2.49,8.81,3,19,12.54,22.18S94,174.88,95.47,165.72Z"/><path class="cls-9" d="M84.14,148.09l-.75,3.13c3.25,1.81,4.62,4.76,4,7.51s-2.45,4-6.41,4c-2.85.06-4.09.3-4.34,1.31-.22.85.21,1.95,2.23,2.67a9.88,9.88,0,0,0,2.82.58,2.13,2.13,0,0,1,2,2h0a1.64,1.64,0,0,1-1.78,1.73,14.24,14.24,0,0,1-3-.59l-.66,2.69q-1.55-.54-3.09-1.11c.24-1,.49-1.93.73-2.9-3.19-1.87-4.54-4.72-3.81-7.38.79-3,3.41-3.6,6.92-3.53,2.43,0,3.57-.36,3.85-1.52s-.72-2.31-2.42-2.93a10.92,10.92,0,0,0-3.38-.62,2,2,0,0,1-1.88-2.07V151a1.63,1.63,0,0,1,1.68-1.68,14.47,14.47,0,0,1,3.69.66l.72-2.9Z"/><path class="cls-10" d="M119.13,75a21.8,21.8,0,0,1-2.57-1,12.62,12.62,0,0,0-2.93-1.1c-1.62-.25-4.4-.09-5.94,1.58-1.91,2.07-5.31.37-4.63,11.21.78,12.27,7.63,10.92,7.79,10.72L117,88.58S119,93.1,119,92.94,129.64,78.57,119.13,75Z"/><path class="cls-6" d="M126.35,155.94C98,167.15,66.65,172.28,34.05,171q3.26,20.81,6.49,41.62c37.69,1.42,73.9-4.51,106.71-17.47Z"/><path class="cls-7" d="M37.47,178.94q2.13,13,4.25,26c3.43.1,6.66,2.64,7.25,5.76A260.8,260.8,0,0,0,138.44,196a5.23,5.23,0,0,1,2.79-7.4l-12.87-24.57c-2.76,1.06-6.22-.55-7.7-3.53a228.83,228.83,0,0,1-78.57,12.86A4.45,4.45,0,0,1,37.47,178.94Z"/><path class="cls-8" d="M105.25,186.23c-3.16-7.69-11.6-12.49-19-11.22s-11.76,8.3-9.53,16.16,11,13.49,19.31,12S108.41,193.92,105.25,186.23Z"/><path class="cls-9" d="M88.9,177.22c.3.91.59,1.82.89,2.73a6.56,6.56,0,0,1,6.37,4.18c.83,2.39,0,4.1-2.83,5.73-2,1.21-2.84,1.9-2.56,2.78s1,1.43,2.85,1.16a7.88,7.88,0,0,0,2.32-.71,1.92,1.92,0,0,1,2.36.78h0a1.38,1.38,0,0,1-.5,2.06,11.16,11.16,0,0,1-2.43.75c.25.79.5,1.57.76,2.36l-2.77.4c-.26-.85-.53-1.69-.8-2.54-3.18-.14-5.47-1.8-6.16-4.16-.78-2.61.83-4.18,3.42-5.56,1.79-1,2.44-1.74,2.1-2.75s-1.58-1.5-3.1-1.28a8.41,8.41,0,0,0-2.74.9,1.84,1.84,0,0,1-2.33-.83l0-.09a1.38,1.38,0,0,1,.45-2,11.48,11.48,0,0,1,3-1l-.81-2.54Z"/><path class="cls-8" d="M129.3,178.37q-10.13,3.6-20.66,6.25c.54,1.3,1.08,2.61,1.63,3.92q10.67-2.7,20.94-6.33C130.58,180.93,129.94,179.65,129.3,178.37Z"/><path class="cls-11" d="M79.52,201.68v10.16c0,1.65,18.33,3,40.93,3s40.93-1.33,40.93-3V201.68Z"/><path class="cls-12" d="M109.14,214.7v-13H79.52v10.16C79.52,213.2,92,214.35,109.14,214.7Z"/><path class="cls-12" d="M110.52,214.73c3.18.06,6.51.09,9.93.09,5.11,0,10-.07,14.5-.19V201.68H110.52Z"/><path class="cls-12" d="M136.59,214.58c14.58-.46,24.79-1.51,24.79-2.74V201.68H136.59Z"/><ellipse class="cls-11" cx="120.45" cy="201.57" rx="40.93" ry="2.97"/><path class="cls-13" d="M154.16,201.57c0,1.14-15.09,2.07-33.71,2.07s-33.7-.93-33.7-2.07,15.09-2.06,33.7-2.06S154.16,200.43,154.16,201.57Z"/><path class="cls-11" d="M72.52,190.93v10.16c0,1.64,18.32,3,40.93,3s40.93-1.33,40.93-3V190.93Z"/><path class="cls-12" d="M102.14,204v-13H72.52v10.16C72.52,202.45,85,203.59,102.14,204Z"/><path class="cls-12" d="M103.52,204c3.18.05,6.5.08,9.93.08,5.1,0,10-.06,14.49-.19V190.93H103.52Z"/><path class="cls-12" d="M129.58,203.82c14.59-.45,24.8-1.5,24.8-2.73V190.93h-24.8Z"/><ellipse class="cls-11" cx="113.45" cy="190.82" rx="40.93" ry="2.97"/><path class="cls-13" d="M147.15,190.82c0,1.14-15.09,2.06-33.7,2.06s-33.71-.92-33.71-2.06,15.09-2.06,33.71-2.06S147.15,189.68,147.15,190.82Z"/><path class="cls-11" d="M77.18,179.89v10.16c0,1.64,18.33,3,40.93,3s40.94-1.34,40.94-3V179.89Z"/><path class="cls-12" d="M106.8,192.91v-13H77.18v10.16C77.18,191.41,89.7,192.55,106.8,192.91Z"/><path class="cls-12" d="M108.18,192.94c3.18.06,6.51.09,9.93.09,5.11,0,10-.07,14.5-.2V179.89H108.18Z"/><path class="cls-12" d="M134.25,192.79c14.58-.46,24.8-1.51,24.8-2.74V179.89h-24.8Z"/><ellipse class="cls-11" cx="118.11" cy="179.78" rx="40.93" ry="2.97"/><path class="cls-13" d="M151.82,179.78c0,1.14-15.09,2.07-33.71,2.07s-33.7-.93-33.7-2.07,15.09-2.06,33.7-2.06S151.82,178.64,151.82,179.78Z"/><path class="cls-11" d="M72.52,169v10.17c0,1.64,18.32,3,40.93,3s40.93-1.33,40.93-3V169Z"/><path class="cls-12" d="M102.14,182V169H72.52v10.17C72.52,180.52,85,181.67,102.14,182Z"/><path class="cls-12" d="M103.52,182.05c3.18.06,6.5.09,9.93.09,5.1,0,10-.07,14.49-.19V169H103.52Z"/><path class="cls-12" d="M129.58,181.9c14.59-.46,24.8-1.51,24.8-2.73V169h-24.8Z"/><ellipse class="cls-11" cx="113.45" cy="168.9" rx="40.93" ry="2.97"/><path class="cls-13" d="M147.15,168.9c0,1.14-15.09,2.06-33.7,2.06S79.74,170,79.74,168.9s15.09-2.07,33.71-2.07S147.15,167.76,147.15,168.9Z"/><path class="cls-11" d="M359.1,200.81v9.77c0,1.58-17.63,2.87-39.37,2.87s-39.36-1.29-39.36-2.87v-9.77Z"/><path class="cls-12" d="M330.61,213.33V200.81H359.1v9.77C359.1,211.89,347.06,213,330.61,213.33Z"/><path class="cls-12" d="M329.28,213.36c-3,.06-6.25.09-9.55.09-4.9,0-9.6-.07-13.93-.19V200.81h23.48Z"/><path class="cls-12" d="M304.22,213.21c-14-.43-23.85-1.45-23.85-2.63v-9.77h23.85Z"/><ellipse class="cls-11" cx="319.73" cy="200.71" rx="39.36" ry="2.86"/><path class="cls-13" d="M287.32,200.71c0,1.09,14.51,2,32.41,2s32.42-.89,32.42-2-14.51-2-32.42-2S287.32,199.61,287.32,200.71Z"/><path class="cls-11" d="M365.83,190.47v9.77c0,1.58-17.62,2.87-39.36,2.87s-39.36-1.29-39.36-2.87v-9.77Z"/><path class="cls-12" d="M337.34,203V190.47h28.49v9.77C365.83,201.55,353.79,202.65,337.34,203Z"/><path class="cls-12" d="M336,203c-3.06.06-6.26.09-9.55.09-4.91,0-9.61-.07-13.94-.19V190.47H336Z"/><path class="cls-12" d="M311,202.87c-14-.43-23.84-1.45-23.84-2.63v-9.77H311Z"/><ellipse class="cls-11" cx="326.47" cy="190.37" rx="39.36" ry="2.86"/><ellipse class="cls-13" cx="326.47" cy="190.37" rx="32.41" ry="1.98"/><path class="cls-11" d="M361.34,179.86v9.77c0,1.58-17.62,2.86-39.36,2.86s-39.36-1.28-39.36-2.86v-9.77Z"/><path class="cls-12" d="M332.86,192.38V179.86h28.48v9.77C361.34,190.94,349.31,192,332.86,192.38Z"/><path class="cls-12" d="M331.53,192.41c-3.06.05-6.25.08-9.55.08-4.91,0-9.6-.07-13.94-.18V179.86h23.49Z"/><path class="cls-12" d="M306.47,192.26c-14-.44-23.85-1.45-23.85-2.63v-9.77h23.85Z"/><ellipse class="cls-11" cx="321.98" cy="179.75" rx="39.36" ry="2.86"/><ellipse class="cls-13" cx="321.98" cy="179.75" rx="32.41" ry="1.98"/><path class="cls-11" d="M365.83,169.39v9.77c0,1.58-17.62,2.86-39.36,2.86s-39.36-1.28-39.36-2.86v-9.77Z"/><path class="cls-12" d="M337.34,181.91V169.39h28.49v9.77C365.83,180.47,353.79,181.57,337.34,181.91Z"/><path class="cls-12" d="M336,181.94c-3.06.05-6.26.08-9.55.08-4.91,0-9.61-.06-13.94-.18V169.39H336Z"/><path class="cls-12" d="M311,181.79c-14-.44-23.84-1.45-23.84-2.63v-9.77H311Z"/><ellipse class="cls-11" cx="326.47" cy="169.29" rx="39.36" ry="2.86"/><ellipse class="cls-13" cx="326.47" cy="169.29" rx="32.41" ry="1.98"/><path class="cls-11" d="M384.14,157.51l-2.36,8.26c-.38,1.33-15.58-1.85-33.94-7.11s-32.95-10.61-32.56-11.94l2.36-8.25Z"/><path class="cls-12" d="M357.05,161.2l3-10.58,24.06,6.89-2.36,8.26C381.46,166.87,371,164.89,357.05,161.2Z"/><path class="cls-12" d="M355.92,160.9c-2.59-.69-5.3-1.44-8.08-2.24-4.15-1.19-8.1-2.38-11.73-3.53l3-10.51L359,150.3Z"/><path class="cls-12" d="M334.78,154.71c-11.74-3.76-19.79-7-19.5-8l2.36-8.25,20.14,5.77Z"/><path class="cls-11" d="M317.67,138.38c-.39,1.33,14.19,6.68,32.56,11.94s33.56,8.44,33.94,7.11-14.2-6.68-32.56-11.94S318.05,137,317.67,138.38Z"/><path class="cls-13" d="M323.53,140.06c-.26.92,11.78,5.19,26.91,9.52s27.59,7.09,27.86,6.17-11.78-5.19-26.9-9.52S323.8,139.13,323.53,140.06Z"/><path class="cls-11" d="M362.64,100.7l2.52,8.21c.4,1.33-14.07,6.94-32.34,12.54s-33.4,9.07-33.8,7.74L296.5,121Z"/><path class="cls-12" d="M341.93,118.56,338.71,108l23.93-7.34,2.52,8.21C365.49,110,355.66,114,341.93,118.56Z"/><path class="cls-12" d="M340.83,118.92c-2.56.84-5.24,1.69-8,2.53-4.12,1.27-8.08,2.42-11.75,3.44l-3.21-10.46,19.73-6.05Z"/><path class="cls-12" d="M319.73,125.26c-11.9,3.24-20.41,4.92-20.71,3.93L296.5,121l20-6.14Z"/><path class="cls-11" d="M296.47,120.9c.41,1.32,15.55-2.14,33.81-7.74s32.74-11.22,32.33-12.55-15.54,2.14-33.81,7.74S296.07,119.57,296.47,120.9Z"/><path class="cls-13" d="M302.31,119.11c.28.92,12.7-2.08,27.74-6.69s27-9.1,26.72-10-12.7,2.08-27.74,6.69S302,118.19,302.31,119.11Z"/><path class="cls-14" d="M146.82,202.84l1,5.17a27.85,27.85,0,0,0,.18,3c.54,2.21,9.83-3.15,7.39-3.59a9.9,9.9,0,0,1-2.18-2.34,20.06,20.06,0,0,1-1.22-3.41Z"/><path class="cls-5" d="M154.91,207.06a35.45,35.45,0,0,1-3.62.72c-1.22.12-2.78-1.78-3.66-1.42s-1.48,6.41-1.48,6.41,15.31.7,18.93-.3C166.52,212.07,159.68,208.89,154.91,207.06Z"/><path class="cls-14" d="M168.18,202.6l1,5.18c.06.67,0,2.37.18,3,.55,2.21,9.66-2.81,7.23-3.24a14.06,14.06,0,0,1-2-2.69,21,21,0,0,1-1.22-3.41Z"/><path class="cls-5" d="M176,207.06a35.07,35.07,0,0,1-3.61.72c-1.22.12-2.79-1.78-3.66-1.42s-1.49,6.41-1.49,6.41,15.31.7,18.93-.3C187.64,212.07,180.8,208.89,176,207.06Z"/><path class="cls-15" d="M115.07,150.92l27.87-6.46s12.49-3.3,15.51.57,15.82,57.4,15.82,57.4-6.6.58-7,.29l-15.47-27.45a23.91,23.91,0,0,1-2.85-8.44l-1.1-7.86-11.34,3.3s-13.07,2.87-18.39-.43S115.07,150.92,115.07,150.92Z"/><path class="cls-16" d="M125.78,102.88c.44,0,1.64.42,3.4,3.75,2.26,4.24,5.55,17.05,5.55,17.05l-9.83,3.65-1.26-2.68-2.08-20.59S125.65,102.88,125.78,102.88Z"/><path class="cls-17" d="M112.79,101a59.7,59.7,0,0,1,13,1.85s2.38,20.3-2.13,35.73c-1,3.45.83,14.31.83,14.31l-29.11-.38s3.45-26.26,2.15-30.5-1.33-19-1.33-19l6.54-1.12A65.38,65.38,0,0,1,112.79,101Z"/><path class="cls-14" d="M95.86,105.28c2.73-1,4.06,23.42,4.42,33.49a118.64,118.64,0,0,0,15.32-.16c1-.07,3.25-.9,4.23-1a9.58,9.58,0,0,1,2.4-.11,44.65,44.65,0,0,1,5.64,2.53c.53.55,2,2,1.73,2.57s-2.77-1.7-2.77-1.7l-1.24-.69c1.54,1.5,4.48,3.47,4,4.19s-3.06-1.3-4.94-2.66c1.62,1.45,3.63,4.06,3.16,4.46s-2.7-2.65-5.14-3.52c-.91-.32-1.81.57-2.52.68a5,5,0,0,1-1.85.1l-2.45-.23a13.06,13.06,0,0,0-2,.29c-1.05.23-2.79.46-4.13.79C102,146.17,99.4,147,97,147,89.85,147,89.43,107.68,95.86,105.28Z"/><path class="cls-16" d="M90.7,128.23c-.51-10.31-.44-23,5.36-25.18,2.29-.85,6.32,4.29,5.59,25.39A43.84,43.84,0,0,1,90.7,128.23Z"/><path class="cls-18" d="M155.26,121.93l-27.43,1.79a1.8,1.8,0,0,0-1.58,1.22l-7.1,21.15-15.12,1a.77.77,0,0,0-.72.81h0a.79.79,0,0,0,.82.72l43-2.81a3,3,0,0,0,2.62-2l7.27-19.5A1.79,1.79,0,0,0,155.26,121.93Z"/><path class="cls-19" d="M141.59,135a1.51,1.51,0,1,1-3-.17,1.51,1.51,0,1,1,3,.17Z"/><path class="cls-20" d="M95.38,151.89l30.36-5.25s13.13-2,16.15,1.88,11.77,54.15,11.77,54.15-6.6.57-7,.29-8.34-17-11.93-24.54a28.49,28.49,0,0,1-2.38-7.55L131.16,164l-3.82,1.31a46.57,46.57,0,0,1-20.91,2.24c-3-.37-5.71-1-7.42-2.06C93.7,162.22,95.38,151.89,95.38,151.89Z"/><path class="cls-14" d="M113.93,97.33l.59,4.39s1.33,6.31-.38,7.53-7.24-7.71-7.24-7.71l.59-11.11Z"/><path class="cls-21" d="M107.3,94a12.58,12.58,0,0,0,7.13,7l-.5-3.72-6.44-6.9Z"/><path class="cls-14" d="M113.58,78.34a5.86,5.86,0,0,1,6.76,5.91,43.68,43.68,0,0,1-.5,5.62c-.78,5.07-4.24,9.52-6.54,9.12s-8-4.76-7-12C106.89,82.58,109.8,79,113.58,78.34Z"/><path class="cls-14" d="M107.85,87.89a1.71,1.71,0,1,1-3.29-.58,1.7,1.7,0,1,1,3.29.58Z"/><path class="cls-10" d="M106.55,85.59s2.77.68,3.8-1.09,4.71-5.61,9.38-4-4.11-3.87-4.49-3.87l-4.86,0s-3.45,2.84-3.58,3.15-1.12,3.71-1.12,3.71Z"/><rect class="cls-8" x="242.3" y="187.9" width="68.96" height="25.1" transform="translate(553.55 400.9) rotate(180)"/><rect class="cls-7" x="242.3" y="191.56" width="68.96" height="3.23" transform="translate(553.55 386.35) rotate(180)"/><rect class="cls-7" x="242.3" y="197.87" width="68.96" height="3.23" transform="translate(553.55 398.96) rotate(180)"/><rect class="cls-7" x="242.3" y="204.17" width="68.96" height="3.23" transform="translate(553.55 411.58) rotate(180)"/><rect class="cls-7" x="242.3" y="209.77" width="68.96" height="3.23" transform="translate(553.55 422.77) rotate(180)"/><rect class="cls-13" x="267.97" y="187.9" width="14.34" height="25.1" transform="translate(550.27 400.9) rotate(180)"/><rect class="cls-6" x="310.42" y="187.9" width="10.41" height="25.1" transform="translate(631.24 400.9) rotate(180)"/><rect class="cls-10" x="6.84" y="212.64" width="381.04" height="2.17"/><path class="cls-22" d="M168.69,24.21A6.83,6.83,0,0,0,162,18.9a7,7,0,0,0-1.72.22,10.08,10.08,0,0,0-9.13-5.81,10.22,10.22,0,0,0-3,.45,12.42,12.42,0,0,0-22.31,2.18,8.44,8.44,0,0,0-4.15-1.08,8.53,8.53,0,0,0-8.52,8.52c0,.28,0,.56,0,.83Z"/><path class="cls-22" d="M193.69,58a5.18,5.18,0,0,0-6.36-3.85,7.62,7.62,0,0,0-6.91-4.4,7.32,7.32,0,0,0-2.26.35,9.4,9.4,0,0,0-16.89,1.64,6.45,6.45,0,0,0-9.58,5.63c0,.22,0,.42,0,.63Z"/><path class="cls-22" d="M76.81,53.28a4.53,4.53,0,0,1,4.41-3.51,4.35,4.35,0,0,1,1.14.15,6.63,6.63,0,0,1,6-3.84,6.83,6.83,0,0,1,2,.3,8.2,8.2,0,0,1,14.72,1.44,5.62,5.62,0,0,1,8.36,4.91,5.07,5.07,0,0,1,0,.55Z"/><path class="cls-5" d="M154.29,81.91l.49,5.94L158.24,84l11.17-9.15-9.53,3s-4.69,2.28-4.9,2.58A11.86,11.86,0,0,0,154.29,81.91Z"/><polygon class="cls-16" points="149.23 79.35 169.41 74.81 154.29 81.91 149.23 79.35"/><polygon class="cls-16" points="162.05 86.31 155.84 83.21 169.41 74.81 162.05 86.31"/><path class="cls-6" d="M151.94,85.21a7.58,7.58,0,0,1,1.62-.43l0-.43a7.37,7.37,0,0,0-1.73.45Z"/><path class="cls-6" d="M142,120.35a16.91,16.91,0,0,0,2.19-2.39l.35.26a17.87,17.87,0,0,1-2.25,2.46Zm3.87-5.15c.21-.45.41-.92.58-1.39a16.91,16.91,0,0,0,.52-1.66l.42.11c-.15.58-.33,1.15-.53,1.7s-.38,1-.6,1.42Zm1.76-9.51H148a27.24,27.24,0,0,1-.11,3.31l-.43,0A28.53,28.53,0,0,0,147.61,105.69ZM147,99.17l.43-.06c.18,1.27.31,2.31.41,3.27l-.44.05C147.3,101.47,147.17,100.44,147,99.17Zm-.49-3.27a15.68,15.68,0,0,1-.16-3.3l.43,0a15.45,15.45,0,0,0,.16,3.2v0l-.43.06Zm.55-6.57a7.83,7.83,0,0,1,1.88-2.77l.3.32a7.34,7.34,0,0,0-1.78,2.62Z"/></g></g></g></svg>