<svg xmlns="http://www.w3.org/2000/svg" viewBox="0 0 298.03 283.9"><defs><style>.cls-1{fill:#867e6c;}.cls-2{fill:#edf7f8;}.cls-3{fill:#69a2d2;}.cls-4{fill:#3b507a;}.cls-5{fill:#f4e7dd;}.cls-16,.cls-17,.cls-6{fill:#6c2910;}.cls-7{fill:#ceb1a0;}.cls-8{fill:#efdbcd;}.cls-9{opacity:0.57;}.cls-10{fill:#fff;}.cls-11{fill:#4b3c32;}.cls-12{fill:#e8d0bc;}.cls-13{fill:#dbd59e;}.cls-14{fill:#c88a5e;}.cls-15{fill:#fdce75;}.cls-16,.cls-17{stroke:#6c2910;}.cls-16,.cls-20,.cls-21,.cls-22{stroke-miterlimit:10;}.cls-17,.cls-20,.cls-21,.cls-22{stroke-linecap:round;}.cls-17{stroke-linejoin:round;}.cls-18{fill:#a1a08b;}.cls-19{fill:#f4a292;}.cls-20,.cls-21,.cls-22{fill:none;}.cls-20{stroke:#cd565f;}.cls-21{stroke:#472e2c;}.cls-22{stroke:#dbab69;}.cls-23{fill:#d4c8a5;}.cls-24{fill:#fffbe2;}.cls-25{fill:#ef7a76;}.cls-26{fill:#7c3349;}.cls-27{fill:#a44b55;}.cls-28{fill:#28304a;}</style></defs><g id="Capa_2" data-name="Capa 2"><g id="Capa_1-2" data-name="Capa 1"><path class="cls-1" d="M38.59,214.44v-126a5.94,5.94,0,0,1,5.94-5.94H260.42a5.94,5.94,0,0,1,5.94,5.94v126a5.94,5.94,0,0,1-5.94,5.94H44.53A5.94,5.94,0,0,1,38.59,214.44Z"/><path class="cls-2" d="M261.84,92.74V201.3a5.94,5.94,0,0,1-5.93,5.94H49a5.93,5.93,0,0,1-5.94-5.94V92.74A5.93,5.93,0,0,1,49,86.81H255.91A5.94,5.94,0,0,1,261.84,92.74Z"/><path class="cls-3" d="M147.11,87.05V84.71h10.73V87.5a4.13,4.13,0,0,1-4.13,4.13h-2A4.58,4.58,0,0,1,147.11,87.05Z"/><circle class="cls-4" cx="152.47" cy="87.85" r="1.04"/><path class="cls-5" d="M91.1,167.15V106.79a7.25,7.25,0,0,1,7.25-7.26h37.41a7.26,7.26,0,0,1,7.26,7.26v60.36a7.25,7.25,0,0,1-7.26,7.25H98.35A7.24,7.24,0,0,1,91.1,167.15Z"/><path class="cls-6" d="M98,112.1h0a2.62,2.62,0,0,1,2.63-2.63h32.86a2.63,2.63,0,0,1,2.63,2.63h0a2.63,2.63,0,0,1-2.63,2.63H100.63A2.63,2.63,0,0,1,98,112.1Z"/><path class="cls-6" d="M98,128.23h0a2.62,2.62,0,0,1,2.63-2.63h32.86a2.63,2.63,0,0,1,2.63,2.63h0a2.63,2.63,0,0,1-2.63,2.63H100.63A2.63,2.63,0,0,1,98,128.23Z"/><path class="cls-6" d="M98,144.35h0a2.63,2.63,0,0,1,2.63-2.63h32.86a2.63,2.63,0,0,1,2.63,2.63h0a2.63,2.63,0,0,1-2.63,2.63H100.63A2.62,2.62,0,0,1,98,144.35Z"/><path class="cls-6" d="M98,160.47h0a2.63,2.63,0,0,1,2.63-2.63h32.86a2.63,2.63,0,0,1,2.63,2.63h0a2.63,2.63,0,0,1-2.63,2.63H100.63A2.62,2.62,0,0,1,98,160.47Z"/><path class="cls-7" d="M161.91,193.56V162.61a3.22,3.22,0,0,1,3.22-3.22h62.1a3.22,3.22,0,0,1,3.22,3.22v30.95a3.22,3.22,0,0,1-3.22,3.22h-62.1A3.23,3.23,0,0,1,161.91,193.56Z"/><path class="cls-2" d="M167.11,178.09h0A13.86,13.86,0,0,1,181,164.23h0a13.86,13.86,0,0,1,13.85,13.86h0A13.86,13.86,0,0,1,181,191.94h0A13.86,13.86,0,0,1,167.11,178.09Z"/><rect class="cls-2" x="198.6" y="166.71" width="27" height="1.38"/><rect class="cls-2" x="198.6" y="172.05" width="27" height="1.38"/><rect class="cls-2" x="198.6" y="177.39" width="27" height="1.38"/><rect class="cls-2" x="198.6" y="182.73" width="27" height="1.38"/><rect class="cls-2" x="198.6" y="188.07" width="27" height="1.38"/><path class="cls-8" d="M156.51,147.82V114.74a4.92,4.92,0,0,1,4.92-4.92h70.2a4.92,4.92,0,0,1,4.92,4.92v33.08a4.92,4.92,0,0,1-4.92,4.92h-70.2A4.92,4.92,0,0,1,156.51,147.82Z"/><path class="cls-6" d="M165,131.81V118.47a1.56,1.56,0,0,1,1.56-1.56h26.65a1.56,1.56,0,0,1,1.56,1.56v13.34a1.56,1.56,0,0,1-1.56,1.56H166.6A1.56,1.56,0,0,1,165,131.81Z"/><path class="cls-6" d="M165,140.6v-.35a1.55,1.55,0,0,1,1.56-1.55h26.65a1.55,1.55,0,0,1,1.56,1.55v.35a1.56,1.56,0,0,1-1.56,1.56H166.6A1.56,1.56,0,0,1,165,140.6Z"/><path class="cls-6" d="M198.6,143.64V130.3a1.56,1.56,0,0,1,1.56-1.56h26.65a1.56,1.56,0,0,1,1.56,1.56v13.34a1.56,1.56,0,0,1-1.56,1.56H200.16A1.56,1.56,0,0,1,198.6,143.64Z"/><path class="cls-6" d="M198.6,122.27h0a1.56,1.56,0,0,1,1.56-1.55h26.65a1.56,1.56,0,0,1,1.56,1.55h0a1.56,1.56,0,0,1-1.56,1.56H200.16A1.56,1.56,0,0,1,198.6,122.27Z"/><g class="cls-9"><path class="cls-10" d="M261.84,175.43V201.3a5.94,5.94,0,0,1-5.93,5.94h-19.4Z"/><polygon class="cls-10" points="261.84 108.8 261.84 146.44 213.42 207.24 183.45 207.24 261.84 108.8"/><path class="cls-10" d="M67.61,86.81l-24.52,30.8V92.74A5.93,5.93,0,0,1,49,86.81Z"/><polygon class="cls-10" points="88.48 86.81 43.09 143.8 43.09 134.04 80.7 86.81 88.48 86.81"/></g><rect class="cls-4" x="116.8" y="211.54" width="87.23" height="9.69"/><rect class="cls-4" x="207.49" y="211.54" width="16.61" height="9.69"/><rect class="cls-4" x="225.73" y="211.54" width="16.61" height="9.69"/><rect class="cls-4" x="244.43" y="211.54" width="16.61" height="9.69"/><rect class="cls-4" x="97.66" y="211.54" width="16.61" height="9.69"/><path class="cls-11" d="M25.18,214.87h0a1.62,1.62,0,0,1,1.63-1.62H278.12a1.62,1.62,0,0,1,1.63,1.62h0a14.34,14.34,0,0,1-14.35,14.35H39.54A14.35,14.35,0,0,1,25.18,214.87Z"/><rect class="cls-1" x="17.77" y="136.34" width="3.12" height="27" transform="translate(-31.2 7.46) rotate(-12.19)"/><path class="cls-6" d="M21.69,176.3l-4-18.72a1.51,1.51,0,0,1,1.15-1.79l3.48-.75a1.51,1.51,0,0,1,1.79,1.15l4,18.72A1.49,1.49,0,0,1,27,176.69l-3.49.76A1.49,1.49,0,0,1,21.69,176.3Z"/><circle class="cls-1" cx="14.88" cy="129.24" r="14.88"/><path class="cls-2" d="M26.39,126.75a11.77,11.77,0,0,1-9,14l-.67.13a11.78,11.78,0,0,1-9.07-2.36A11.57,11.57,0,0,1,4,133.7a10.84,10.84,0,0,1-.61-2,11.75,11.75,0,0,1,7.88-13.67,11.35,11.35,0,0,1,1.14-.32,11.47,11.47,0,0,1,4.88,0,11.82,11.82,0,0,1,7.66,5.4A11.56,11.56,0,0,1,26.39,126.75Z"/><path class="cls-10" d="M11.26,118.05,4,133.7a10.84,10.84,0,0,1-.61-2A11.74,11.74,0,0,1,11.26,118.05Z"/><path class="cls-10" d="M24.94,123.13,16.7,140.87a11.78,11.78,0,0,1-9.07-2.36l9.66-20.78A11.71,11.71,0,0,1,24.94,123.13Z"/><path class="cls-12" d="M298,18.15V67.87A5.16,5.16,0,0,1,292.88,73H205.57a5.16,5.16,0,0,1-5.16-5.15V18.15a.76.76,0,0,1,0-.15,5.14,5.14,0,0,1,5.15-5h87.31A5.15,5.15,0,0,1,298,18,.76.76,0,0,1,298,18.15Z"/><path class="cls-13" d="M241.2,32.22,227.58,45l17.88,5.15a17.87,17.87,0,0,0,.75-5.2A18.56,18.56,0,0,0,241.2,32.22Z"/><path class="cls-14" d="M207.92,40.37A18.63,18.63,0,0,0,234,62L225.9,45.23Z"/><path class="cls-6" d="M234,62h0a18.68,18.68,0,0,0,9.8-11.58L225.9,45.23Z"/><path class="cls-15" d="M239.52,32.47a18.61,18.61,0,0,0-31.6,7.9l18,4.86Z"/><circle class="cls-16" cx="252.93" cy="28.45" r="1.09"/><line class="cls-17" x1="258.28" y1="28.45" x2="288.99" y2="28.45"/><line class="cls-17" x1="258.28" y1="32.27" x2="288.99" y2="32.27"/><circle class="cls-16" cx="252.93" cy="36.13" r="1.09"/><line class="cls-17" x1="258.28" y1="36.13" x2="288.99" y2="36.13"/><line class="cls-17" x1="258.28" y1="39.95" x2="288.99" y2="39.95"/><circle class="cls-16" cx="252.93" cy="43.81" r="1.09"/><line class="cls-17" x1="258.28" y1="43.81" x2="288.99" y2="43.81"/><line class="cls-17" x1="258.28" y1="47.63" x2="288.99" y2="47.63"/><circle class="cls-16" cx="252.93" cy="51.5" r="1.09"/><line class="cls-17" x1="258.28" y1="51.5" x2="288.99" y2="51.5"/><line class="cls-17" x1="258.28" y1="55.31" x2="288.99" y2="55.31"/><circle class="cls-16" cx="252.93" cy="59.18" r="1.09"/><line class="cls-17" x1="258.28" y1="59.18" x2="288.99" y2="59.18"/><line class="cls-17" x1="258.28" y1="63" x2="288.99" y2="63"/><path class="cls-4" d="M298,18h-97.6a5.15,5.15,0,0,1,5.16-5h87.3A5.15,5.15,0,0,1,298,18Z"/><circle class="cls-10" cx="278.3" cy="15.5" r="1.45"/><circle class="cls-10" cx="283.98" cy="15.5" r="1.45"/><circle class="cls-10" cx="289.66" cy="15.5" r="1.45"/><path class="cls-12" d="M183.05,5.3V56.42a5.31,5.31,0,0,1-5.3,5.3H88a5.3,5.3,0,0,1-5.3-5.3V5.3a.81.81,0,0,1,0-.16A5.28,5.28,0,0,1,88,0h89.78A5.28,5.28,0,0,1,183,5.14.81.81,0,0,1,183.05,5.3Z"/><path class="cls-4" d="M183,5.14H82.68A5.28,5.28,0,0,1,88,0h89.78A5.28,5.28,0,0,1,183,5.14Z"/><circle class="cls-10" cx="162.77" cy="2.57" r="1.49"/><circle class="cls-10" cx="168.61" cy="2.57" r="1.49"/><circle class="cls-10" cx="174.45" cy="2.57" r="1.49"/><rect class="cls-6" x="98.77" y="13.07" width="2.6" height="38.42"/><rect class="cls-15" x="105.92" y="19.49" width="2.6" height="32"/><rect class="cls-6" x="113.07" y="26.95" width="2.6" height="24.53"/><rect class="cls-15" x="120.23" y="32.28" width="2.6" height="19.21"/><rect class="cls-6" x="127.39" y="23.23" width="2.6" height="28.26"/><rect class="cls-15" x="134.54" y="26.95" width="2.6" height="24.53"/><rect class="cls-6" x="141.7" y="30.85" width="2.6" height="20.64"/><rect class="cls-15" x="148.86" y="37.38" width="2.6" height="14.11"/><rect class="cls-6" x="156.01" y="30.85" width="2.6" height="20.64"/><rect class="cls-15" x="163.17" y="42.57" width="2.6" height="8.92"/><rect class="cls-17" x="95.12" y="10.22" width="0.74" height="40.53"/><rect class="cls-17" x="95.13" y="50.74" width="75.47" height="0.74"/><path class="cls-18" d="M284.83,113.6a13.9,13.9,0,0,0-.68-3.7,14.49,14.49,0,0,0-14.56-10.05,13.9,13.9,0,0,0-3.7.68,14.56,14.56,0,0,0-6.33,4.09,13.47,13.47,0,0,0-2.14,3.1,13.73,13.73,0,0,0-1.28,3.58,14.27,14.27,0,0,0,.38,7.49,14.51,14.51,0,0,0,4.08,6.33,14.3,14.3,0,0,0,6.68,3.42,14,14,0,0,0,3.79.3,14.46,14.46,0,0,0,3.71-.67,14.61,14.61,0,0,0,6.33-4.1,14.47,14.47,0,0,0,3.72-10.47Zm-15.74,6.56a3.58,3.58,0,0,1-.56-.16,5.89,5.89,0,0,1-2.84-2,6.7,6.7,0,0,1-.63-1,5.78,5.78,0,0,1-.62-3.4,3.75,3.75,0,0,1,.09-.57,5.12,5.12,0,0,1,.15-.56,5.89,5.89,0,0,1,2-2.85,5.08,5.08,0,0,1,1-.62,5.87,5.87,0,0,1,3.4-.62,3.75,3.75,0,0,1,.57.09,4.94,4.94,0,0,1,.55.15,5.82,5.82,0,0,1,2.84,2,5.48,5.48,0,0,1,.63,1,5.89,5.89,0,0,1,.63,3.4,5.62,5.62,0,0,1-.09.57,4.58,4.58,0,0,1-.15.56,5.82,5.82,0,0,1-2,2.84,6,6,0,0,1-1,.63,5.84,5.84,0,0,1-3.39.63A5.4,5.4,0,0,1,269.09,120.16Z"/><path class="cls-18" d="M278.38,94.82,275,110.66a5.76,5.76,0,0,0-2.84-2,5.12,5.12,0,0,0-.56-.15,3.44,3.44,0,0,0-.56-.09,5.78,5.78,0,0,0-3.4.62L271,93.24Z"/><path class="cls-18" d="M273.06,119.62l-3.4,15.84-7.37-1.58,3.4-15.83a5.89,5.89,0,0,0,2.84,2,3.58,3.58,0,0,0,.56.16,5.4,5.4,0,0,0,.58.09A5.84,5.84,0,0,0,273.06,119.62Z"/><path class="cls-18" d="M264.44,113.67a5.78,5.78,0,0,0,.62,3.4l-15.84-3.4,1.59-7.37,15.84,3.4a5.85,5.85,0,0,0-2,2.84,3.56,3.56,0,0,0-.15.56A2.84,2.84,0,0,0,264.44,113.67Z"/><path class="cls-18" d="M291.45,115l-1.58,7.37L274,119a5.76,5.76,0,0,0,2-2.84,4.58,4.58,0,0,0,.15-.56,5.62,5.62,0,0,0,.09-.57,5.89,5.89,0,0,0-.63-3.4Z"/><path class="cls-18" d="M271,108.46a5.78,5.78,0,0,0-3.4.62,5.16,5.16,0,0,0-1,.62,5.87,5.87,0,0,0-2,2.85l-2.45-3.8-2.67-4.13-3.68-5.68,6.33-4.1,3.67,5.69,2.67,4.13Z"/><path class="cls-18" d="M284.78,129.76l-6.32,4.1L272.11,124l-2.45-3.79a5.76,5.76,0,0,0,3.39-.62,4.75,4.75,0,0,0,1-.63,5.8,5.8,0,0,0,2-2.84l2.45,3.79Z"/><path class="cls-18" d="M268.53,120l-3.79,2.45-4.14,2.68-5.68,3.67-4.08-6.32,5.68-3.68,4.13-2.67,3.8-2.45a5.78,5.78,0,0,0,.62,3.4,5,5,0,0,0,.63,1A5.77,5.77,0,0,0,268.53,120Z"/><path class="cls-18" d="M289.83,106.23,276.23,115a5.89,5.89,0,0,0-.63-3.4,5.48,5.48,0,0,0-.63-1,5.76,5.76,0,0,0-2.84-2l3.79-2.45,4.14-2.67,5.69-3.68Z"/><path class="cls-18" d="M218.22,241.37a10.76,10.76,0,0,0-.52-2.79,10.92,10.92,0,0,0-3.08-4.77,10.61,10.61,0,0,0-2.34-1.62,10.81,10.81,0,0,0-2.7-1,10.64,10.64,0,0,0-2.86-.23,10.83,10.83,0,0,0-2.79.51,11,11,0,0,0-4.77,3.09,11,11,0,0,0-2.58,5,11,11,0,0,0,.28,5.65,10.89,10.89,0,0,0,3.08,4.78,10.61,10.61,0,0,0,2.34,1.62,11.11,11.11,0,0,0,2.7,1,10.7,10.7,0,0,0,2.86.23,10.9,10.9,0,0,0,7.57-3.6,10.62,10.62,0,0,0,1.61-2.33,11.11,11.11,0,0,0,1-2.7A10.42,10.42,0,0,0,218.22,241.37Zm-11.88,4.94c-.14,0-.28-.07-.42-.12a4.49,4.49,0,0,1-2.14-1.47,4,4,0,0,1-.47-.74,4.45,4.45,0,0,1-.47-2.56,3.21,3.21,0,0,1,.07-.43,3.31,3.31,0,0,1,.12-.42,4.42,4.42,0,0,1,1.48-2.15,4,4,0,0,1,.73-.47,4.45,4.45,0,0,1,2.56-.47l.43.07a2.77,2.77,0,0,1,.41.12,4.44,4.44,0,0,1,2.62,2.21,4.38,4.38,0,0,1,.47,2.56,3.21,3.21,0,0,1-.07.43,2.9,2.9,0,0,1-.12.42,4.44,4.44,0,0,1-2.21,2.62,4.53,4.53,0,0,1-2.56.47A3.49,3.49,0,0,1,206.34,246.31Z"/><path class="cls-18" d="M213.35,227.2l-2.56,11.94a4.4,4.4,0,0,0-2.15-1.48c-.13,0-.27-.08-.41-.12l-.43-.07a4.3,4.3,0,0,0-2.56.48L207.8,226Z"/><path class="cls-18" d="M209.33,245.91l-2.56,11.94-5.56-1.19,2.57-11.94a4.46,4.46,0,0,0,2.13,1.47c.14.05.28.08.43.12l.43.07A4.35,4.35,0,0,0,209.33,245.91Z"/><path class="cls-18" d="M202.84,241.42a4.37,4.37,0,0,0,.47,2.56l-11.95-2.56,1.19-5.56,11.95,2.56a4.42,4.42,0,0,0-1.48,2.15c-.05.14-.08.28-.12.42S202.85,241.28,202.84,241.42Z"/><path class="cls-18" d="M223.21,242.44,222,248l-11.94-2.56a4.51,4.51,0,0,0,1.48-2.15c0-.13.08-.28.11-.42a2.14,2.14,0,0,0,.07-.43,4.37,4.37,0,0,0-.47-2.56Z"/><path class="cls-18" d="M207.8,237.49a4.37,4.37,0,0,0-2.56.47,4,4,0,0,0-.73.47,4.33,4.33,0,0,0-1.48,2.15l-1.85-2.86-2-3.12-2.76-4.28,4.77-3.09,2.77,4.29,2,3.12Z"/><path class="cls-18" d="M218.18,253.55l-4.77,3.09-4.79-7.41-1.85-2.85a4.37,4.37,0,0,0,2.56-.47,4,4,0,0,0,.74-.47,4.45,4.45,0,0,0,1.48-2.15l1.85,2.86Z"/><path class="cls-18" d="M205.92,246.2l-2.85,1.85-3.12,2-4.29,2.77-3.08-4.78,4.29-2.77,3.11-2,2.86-1.85a4.37,4.37,0,0,0,.47,2.56,4,4,0,0,0,.47.74A4.58,4.58,0,0,0,205.92,246.2Z"/><path class="cls-18" d="M222,235.81l-10.26,6.63a4.37,4.37,0,0,0-.47-2.56,4.32,4.32,0,0,0-.47-.73,4.4,4.4,0,0,0-2.15-1.48l2.86-1.85,3.12-2,4.29-2.78Z"/><path class="cls-19" d="M125.34,155.45a4.7,4.7,0,0,0-.52-2.38,2,2,0,0,0-2.07-1,7,7,0,0,0-.63-2.11,1.45,1.45,0,0,0-1.7-.69,2.22,2.22,0,0,0-1.26-1.77,2.84,2.84,0,0,0-1.22-.25,49.25,49.25,0,0,0,2.83-6.9,2.68,2.68,0,0,0,.18-1.24.93.93,0,0,0-.82-.82c-.44,0-.76.42-1,.79-3.74,5.7-11.84,17.65-12.48,18.49,2.26,1.78,3.3,3.54,5.59,5,3.69-.35,8.28-3.88,9.85-7.37.87-.08.72,2.18.63,2.9a5.63,5.63,0,0,0-.1.92,1,1,0,0,0,.4.79c.49.29,1.1-.11,1.42-.58A6.2,6.2,0,0,0,125.34,155.45Z"/><path class="cls-20" d="M111.1,152.81l5.84-3.17a1.41,1.41,0,0,1,1.19-.23.88.88,0,0,1,.46.78,1.88,1.88,0,0,1-.23.92,8.61,8.61,0,0,1-2.29,2.9,4.9,4.9,0,0,1-1.87,5.07"/><path class="cls-20" d="M120.44,149.85a13,13,0,0,1-.44,2.4,4.18,4.18,0,0,1-1.32,2,2.49,2.49,0,0,1-2.3.44"/><path class="cls-20" d="M122.72,152.62a7.61,7.61,0,0,1-.71,2.79,4.07,4.07,0,0,1-2,2c-.41.17-1,.2-1.2-.17a1.08,1.08,0,0,1-.09-.69c.07-.68.13-1.36.18-2"/><path class="cls-19" d="M111.41,156.26l-4.66,1.18L88.94,169.22l-5.5.66L81,180.36s5.8,3.72,8.8,3.17c3.35-.62,23-21.43,23-21.43Z"/><path class="cls-15" d="M73.11,153.44c1,.66,1.93,1.27,3,1.93a32.09,32.09,0,0,1,6.9,5.71c2.21,2.43,4.46,4.87,6.87,7.39A28.91,28.91,0,0,1,81.26,183c-1.62-.59-8.71-4.32-8.71-4.32s.38-3.65.33-4.66A149.11,149.11,0,0,1,73.11,153.44Z"/><path class="cls-6" d="M59.94,266.2a67.58,67.58,0,0,1-3.73-16.43A6,6,0,0,1,58,247.69c-.92,0-1.69-.11-2.61-.15a13.36,13.36,0,0,1-.78-8,51.54,51.54,0,0,1,14.33-1.46,83.84,83.84,0,0,1,1.48,10.8,24.72,24.72,0,0,0-4.1,6.32c.11,1.84,0,3.41.12,5.06a5.88,5.88,0,0,1-1.84,4.57C63.27,266,61.87,266.76,59.94,266.2Z"/><path class="cls-14" d="M69.46,196.9s36.48,5.2,37.06,13c1,13.67-36.61,40.62-36.61,40.62l-7.59-13.13L83,215.75,63.85,205.29Z"/><path class="cls-6" d="M93.34,283.9a68.52,68.52,0,0,1-13.08-10.63,6.08,6.08,0,0,1,.11-2.73c-.75.54-1.4.95-2.15,1.49a13.28,13.28,0,0,1-5.56-5.83,51.24,51.24,0,0,1,10.39-10,84.86,84.86,0,0,1,7.82,7.6,24.51,24.51,0,0,0,.67,7.49c1.21,1.38,2.14,2.65,3.21,3.91A5.88,5.88,0,0,1,96.12,280,4.55,4.55,0,0,1,93.34,283.9Z"/><path class="cls-14" d="M43.38,189.29l-6.68,8.46s-2,10.21,4.63,13.52,41.3,8.33,41.3,8.33l-4.94,40.12L92,265.06s10.76-52.44,8.87-56.69-37.84-11-37.84-11Z"/><path class="cls-21" d="M70.24,199a147.59,147.59,0,0,1,28.3,7.71,3.94,3.94,0,0,1,2.54,3.83c-.11,2.7-1,10.51-1.47,13.18"/><path class="cls-21" d="M79.81,242.5c.92-7,2.1-15.88,2.86-22.82l-2.48-.43"/><path class="cls-15" d="M60.92,146.52s-10.61,2.44-14.5,7.8-11.05,48.34-11.05,48.34c6,4.09,25.11,3.54,33.51-2.31l2-2.8,4.45.67s-1.66-5.92-1.51-7.72c.47-5.36,4.43-27.61,3.14-32.95C75.81,152.71,60.92,146.52,60.92,146.52Z"/><path class="cls-22" d="M69.91,159.14a129,129,0,0,1-.79,27.07c-.56,4.14-1.19,8.79,1.36,12.1"/><path class="cls-22" d="M77,160.5c-.17,6.52-.26,11.85-1.76,19.4"/><path class="cls-19" d="M75,200.94s-31.92.58-34.13-3.84.82-24.45.82-24.45l12.68,1.55-1.8,14,22.79,5.36Z"/><path class="cls-19" d="M74.25,193.63c4-.49,8.13-1.51,12.73-1.32a2.94,2.94,0,0,1,1.38.4,18.67,18.67,0,0,1,6.34,6.4,3.33,3.33,0,0,1,.6,1.72c0,.63-.43,1.3-1,1.26s-.82-.57-1.11-1a9.35,9.35,0,0,0-4.38-3.67,15.71,15.71,0,0,1,2.77,5,3,3,0,0,1,.18,2c-.22.63-1,1-1.44.52a1.49,1.49,0,0,1-.69,1.45,1.17,1.17,0,0,1-1.43-.26c0,.94-.75,1.38-1.5,1-1.62-.89-1.78-3.59-3.83-4.3a12.07,12.07,0,0,1-9-1.68A44,44,0,0,0,74.25,193.63Z"/><path class="cls-20" d="M90.27,204.42a20.42,20.42,0,0,0-2.66-5.67"/><path class="cls-20" d="M88,205.65a14.67,14.67,0,0,0-2.9-5.86"/><path class="cls-15" d="M52.83,149.7c-.8.34-1.57.72-2.34,1.13-4.12,2.24-7.78,6.14-8.85,10.7a83,83,0,0,0-2.12,15.19,75.29,75.29,0,0,0,17.17,2.63,89.09,89.09,0,0,0,1.24-13"/><path class="cls-22" d="M56.41,159.4a68.85,68.85,0,0,1,.7,19.89l-2.82,0"/><path class="cls-23" d="M74.29,155.26a9.71,9.71,0,0,1,.71,3.53,20.65,20.65,0,0,0-4.93-2.93,26.39,26.39,0,0,0,2.62-4,8.66,8.66,0,0,1,1.5,2.2"/><path class="cls-24" d="M69.27,158.2c1.14-1.06,2.84-3.69,3.94-4.79.86,1.24,1.12,3,1.81,5.26a15.65,15.65,0,0,0-1.56-6.82,17.69,17.69,0,0,0-5.94-4.07A24.37,24.37,0,0,0,69.27,158.2Z"/><path class="cls-19" d="M68.49,150.6c.27,2.72.21,3.39.79,7.53A70.34,70.34,0,0,1,54.94,149a32,32,0,0,0,2.49-6.71,27,27,0,0,0,.55-3.09c4.31,1.2,8.27,2.43,12.24,3.66-.4,2-1,4.56-1.51,6.7C68.62,149.94,68.56,150.28,68.49,150.6Z"/><path class="cls-25" d="M70.22,142.9c-.4,2-1,4.56-1.51,6.7a17.95,17.95,0,0,1-11.28-7.27,27,27,0,0,0,.55-3.09C62.29,140.44,66.25,141.67,70.22,142.9Z"/><path class="cls-23" d="M67.77,156.76l1.61,1.52a39.62,39.62,0,0,0-5.42-.94,13.34,13.34,0,0,0,2.76-1.73A5.45,5.45,0,0,0,67.77,156.76Z"/><path class="cls-24" d="M49.61,150a14.07,14.07,0,0,1,5.81-4.43,36.81,36.81,0,0,0,11.7,9,12,12,0,0,0,2.18,3.6,15,15,0,0,1-2.61-1.55A16.1,16.1,0,0,0,62,160.85,35.43,35.43,0,0,1,49.61,150Z"/><path class="cls-25" d="M75.48,127.22c-.2-1.65,1.85-3.75,3.36-4.34a4.2,4.2,0,0,1,4.47.88,4.61,4.61,0,0,1,.11,5.74A7.28,7.28,0,0,1,78,132.15"/><path class="cls-19" d="M53.42,138c5.83,8.87,21.33,11.25,25.48.34a12.93,12.93,0,0,0,0-10c.32-19.14-15.28-21.8-27.5-12.29a7,7,0,0,0-2.72,5.76C49,128.2,53.42,138,53.42,138Z"/><path class="cls-26" d="M49.91,135.33c1,.4,1.77.17,2.67.71,1.22-5,2.37-9.63,1.11-14.72,2,1.66,4.8,1,7.05,0s4.74-2.13,7.09-1.15A4.9,4.9,0,0,0,66,117.31a25.67,25.67,0,0,1,9.34,3.26,5.76,5.76,0,0,0-.44-4.37A11.77,11.77,0,0,1,80,121.69a5.83,5.83,0,0,0-2.19-7.62,2.84,2.84,0,0,1,3.37,1,13.15,13.15,0,0,0-11.29-9.42,3.34,3.34,0,0,0,.61-3.08c-1.76,1.79-4.31,2.49-6.79,2.8s-5,.43-7.43.95c-6.3,1.37-9.43,4.24-8.82,9.54a5.7,5.7,0,0,0-2.66,2.28,3.5,3.5,0,0,0-.62,1.56,9.59,9.59,0,0,0,.53,3.5A63,63,0,0,0,49.91,135.33Z"/><path class="cls-27" d="M44.84,118.16a7.41,7.41,0,0,1,4.19-2c-.81-2.58,1-5.37,3.46-6.6s5.2-1.31,7.9-1.48,5.53-.49,7.71-2.1l-1,2.25A15,15,0,0,1,79.88,112a12.88,12.88,0,0,0-9.95-6.33,3.34,3.34,0,0,0,.61-3.08c-1.76,1.79-4.31,2.48-6.79,2.79s-5,.43-7.43,1c-6.3,1.37-9.43,4.24-8.82,9.53A5.83,5.83,0,0,0,44.84,118.16Z"/><path class="cls-19" d="M53.86,132c-.75-1.49-3.62-2.09-5.2-1.75a4.19,4.19,0,0,0-3.23,3.21,4.58,4.58,0,0,0,3.09,4.83,7.27,7.27,0,0,0,6-.81"/><path class="cls-26" d="M72.63,124.05a3.25,3.25,0,0,1,6.13-1.14A9.18,9.18,0,0,0,72.63,124.05Z"/><path class="cls-26" d="M66.39,125.92a3.68,3.68,0,0,0-6,3A10.73,10.73,0,0,1,66.39,125.92Z"/><circle class="cls-28" cx="66.58" cy="131.88" r="0.92"/><circle class="cls-28" cx="75.38" cy="129.4" r="0.92"/><path class="cls-10" d="M73.3,136.45a14.36,14.36,0,0,1-7.63-.15C65.94,141.63,73.13,141.64,73.3,136.45Z"/><path class="cls-25" d="M73.56,132.43a4.79,4.79,0,0,1-1.45,2.49,1.53,1.53,0,0,0,1.48-.61A1.66,1.66,0,0,0,73.56,132.43Z"/></g></g></svg>