<svg xmlns="http://www.w3.org/2000/svg" viewBox="0 0 206.66 186.35"><defs><style>.cls-1{fill:#c88a5e;}</style></defs><g id="Capa_2" data-name="Capa 2"><g id="Capa_1-2" data-name="Capa 1"><path class="cls-1" d="M97.91,149.72H73.68q-27.23,0-54.46,0c-7.5,0-12-4.31-12-11.52,0-15.6,0-31.47-.06-46.81q0-21.36,0-42.73a2.91,2.91,0,0,1,.53-2.07c.38-.37,1-.5,2.28-.47,3.52.09,7.1.07,10.57,0h4.3c2,0,5.13,0,5.2-3.52a3.58,3.58,0,0,0-.87-2.68c-1.07-1.09-2.89-1.07-4.49-1.09H14.18c-3.64,0-5.65,0-6.45-.83S7,35.13,7.16,31.39c.3-7.31,4.7-11.56,12.07-11.65,1.37,0,2.73,0,4.09,0,2.22,0,4.51.05,6.77-.07a3.14,3.14,0,0,1,2.31.45A3.22,3.22,0,0,1,33,22.46c0,5.84,4.08,10.08,9.67,10.08h0c5.52,0,9.6-4.25,9.71-10.09,0-1.28.12-2.09.56-2.48a2.44,2.44,0,0,1,1.88-.28,13.67,13.67,0,0,0,1.42,0c1.73,0,2.78,0,2.8,2.76A10.16,10.16,0,0,0,62,29.81a9.68,9.68,0,0,0,6.86,2.72c5.57,0,9.53-4.21,9.63-10.15,0-2.62,1-2.63,2.75-2.65.39,0,.79,0,1.19-.05a2.83,2.83,0,0,1,2.18.38c.43.38.62,1.15.63,2.48a10.23,10.23,0,0,0,2.93,7.32,9.48,9.48,0,0,0,6.71,2.68h.11c5.49-.06,9.53-4.34,9.62-10.17,0-1.36.2-2.08.6-2.42a2.39,2.39,0,0,1,1.91-.24,9.25,9.25,0,0,0,1.58,0c.88,0,1.7-.08,2.12.36a2.7,2.7,0,0,1,.36,2,8.87,8.87,0,0,0,2,6.36c2.77,3.42,6.16,4.67,10.07,3.72,4.83-1.18,7.41-4.62,7.46-9.94a3.07,3.07,0,0,1,.58-2.15,3,3,0,0,1,2.14-.41c.42,0,.86,0,1.3,0a2.83,2.83,0,0,1,2.15.35,2.93,2.93,0,0,1,.58,2.17,10.7,10.7,0,0,0,3,7.73,9.42,9.42,0,0,0,6.79,2.58c5.55-.11,9.47-4.33,9.53-10.25,0-1.17.18-1.85.55-2.19a2.9,2.9,0,0,1,2.11-.41c2.15.1,4.34.08,6.45.06,1.84,0,3.74,0,5.6,0,6.3.22,10.73,4.65,11,11,0,.58,0,1.15,0,1.73a15.61,15.61,0,0,0,.08,2.73c.2,1.43.07,2.34-.39,2.87s-1.46.81-3.11.81h-.12c-17.18-.12-34.64-.1-51.52-.09H95.21q-26.2,0-52.4,0l-1.15,0c-1.58-.07-3.38-.16-4.47.91a3.64,3.64,0,0,0-.93,2.83,3.63,3.63,0,0,0,1,2.73c1.11,1,2.89.94,4.46.84.42,0,.83,0,1.22,0h0c40.93,0,88.59.07,136.11,0,1.55,0,2.39.2,2.87.68s.66,1.31.63,2.81c-.14,8.64-.11,17.42-.08,25.91q0,3.91,0,7.83c0,1.53,0,4.72,3.54,4.79a3.32,3.32,0,0,0,2.58-.87,5.19,5.19,0,0,0,1.11-3.75q0-8.34,0-16.67c0-11.91,0-24.22-.09-36.33A17.66,17.66,0,0,0,173.61,13a105.41,105.41,0,0,0-12.8-.35h-1.29c-2.11,0-2.73-.31-2.78-2.58-.1-6-4-10-9.63-10H147c-5.67,0-9.54,4-9.66,9.92,0,1.23-.21,1.95-.62,2.32a2.71,2.71,0,0,1-2,.37c-.4,0-.8,0-1.19,0-1.74,0-2.79,0-2.91-2.63C130.36,3.81,126.65,0,121,0h-.06c-5.75,0-9.47,3.86-9.69,10-.1,2.58-1.09,2.56-2.74,2.54a11,11,0,0,0-1.4,0,2.47,2.47,0,0,1-1.88-.28c-.47-.41-.59-1.29-.62-2.49C104.41,4,100.42,0,94.84,0H94.7c-5.53.07-9.44,4.07-9.51,9.72,0,1.29-.21,2-.64,2.43a3.1,3.1,0,0,1-2.25.48l-.56,0c-2.11-.08-3.17-.12-3.32-2.89A10.23,10.23,0,0,0,74.83,2a9.94,9.94,0,0,0-8-1.76C62,1,59.24,4.59,59,10.24c-.11,2.44-1.09,2.4-2.69,2.33-.4,0-.82,0-1.24,0a3,3,0,0,1-2.16-.31,2.62,2.62,0,0,1-.56-1.84C52.14,4,48.45,0,42.7,0S33.25,3.94,33,10.33c-.08,1.81-.51,2.28-2.18,2.28h-.11l-2.14,0A106.18,106.18,0,0,0,17,12.82C6.85,13.76,0,21.3,0,31.57,0,66.67,0,102.46,0,138c0,10.73,7.82,18.88,18.17,19,12,.08,24.06.11,36,.11l20,0q12,0,23.9,0c1.31,0,4.75,0,4.83-3.52a3.5,3.5,0,0,0-.87-2.61C101.06,149.86,99.41,149.72,97.91,149.72ZM45.25,16.91v1.33c0,1.36,0,2.76,0,4.14-.06,1.93-.88,2.84-2.6,2.84h0a2.3,2.3,0,0,1-2.53-2.49C40,18.39,40,14,40.09,9.61a2.41,2.41,0,0,1,2.53-2.54h0a2.44,2.44,0,0,1,2.53,2.59c.07,1.56.05,3.15,0,4.7,0,.68,0,1.37,0,2.05v.5ZM71.47,18c0,1.41,0,2.86,0,4.28-.07,1.9-1,2.87-2.66,2.89s-2.65-.93-2.68-2.8c0-3.82,0-7.7,0-11.45V10c0-1.83,1-2.89,2.64-2.92h.06c1.62,0,2.58,1,2.65,2.86,0,1.48,0,3,0,4.44,0,.65,0,1.3,0,1.95h0C71.46,16.9,71.46,17.46,71.47,18Zm23.32-11a2.42,2.42,0,0,1,2.58,2.51c.07,1.56,0,3.15,0,4.7,0,.51,0,1,0,1.55l0,.5c0,.68,0,1.36,0,2,0,1.54,0,3.14-.05,4.7-.07,1.4-.89,2.12-2.43,2.15s-2.48-.72-2.52-2c-.15-4.59-.16-9.26,0-13.9a2.29,2.29,0,0,1,2.44-2.23Zm23.5,8.5c0-.48,0-1,0-1.45,0-1.46,0-3,0-4.44a2.49,2.49,0,0,1,2.56-2.61,2.68,2.68,0,0,1,1.94.64,2.41,2.41,0,0,1,.75,1.77c.17,5.19.16,9.5,0,13.56a2.17,2.17,0,0,1-.72,1.59,2.78,2.78,0,0,1-2.13.58,2.33,2.33,0,0,1-2.35-2.37c-.08-1.56-.06-3.17,0-4.73,0-.68,0-1.36,0-2v-.5Zm31.28,2.73c0,1.55,0,3.15,0,4.71a2.15,2.15,0,0,1-2.38,2.21c-.58,0-2.5,0-2.57-1.95-.18-4.93-.2-9.48-.06-13.9a2.3,2.3,0,0,1,.75-1.72,2.49,2.49,0,0,1,1.67-.58h.3a2.37,2.37,0,0,1,2.31,2.42c.06,1.57,0,3.17,0,4.72,0,.51,0,1,0,1.54l0,.5C149.55,16.94,149.56,17.62,149.57,18.3Z"/><path class="cls-1" d="M206.57,132C205,106.1,182.39,85.1,156.18,85.1h-.29a50.72,50.72,0,0,0-43.08,24.11c-.64,1-2.32,3.75.46,5.59a3.52,3.52,0,0,0,2.71.64,4.92,4.92,0,0,0,2.94-2.5l.34-.56c.23-.38.46-.76.71-1.12a43.44,43.44,0,0,1,79.47,23.34c.66,23-16.61,42.1-40.18,44.54-21.1,2.2-41.7-13.45-45.89-34.88a45.3,45.3,0,0,1,0-17.33c0-.26.11-.52.17-.79.29-1.34.62-2.86-.13-4a3.38,3.38,0,0,0-2.27-1.37c-3.43-.74-4,1.86-4.51,3.75-.09.39-.18.78-.3,1.15a7.34,7.34,0,0,0-.18.84A50.84,50.84,0,0,0,156,186.35a52.39,52.39,0,0,0,7.15-.49C189.13,182.31,208.19,158.62,206.57,132Z"/><path class="cls-1" d="M147.31,120.75l-.53-.63c-.27-.32-.55-.61-.83-.91l-.21-.22c-1-1.07-2-2.18-3.41-2.21a3.61,3.61,0,0,0-2.41,1.14c-2.5,2.44-.36,4.78.67,5.9.39.42.75.86,1.12,1.3a21,21,0,0,0,2.13,2.31c1.85,1.66,2.23,3.16,1.46,5.72a10.2,10.2,0,0,0,1.6,9.1,11.32,11.32,0,0,0,9.09,4.5h0a11.76,11.76,0,0,0,8.68-3.76,9,9,0,0,0,2.35-7c-.4-3.68.63-5.83,3.78-7.92A4.5,4.5,0,0,0,173,125.2a3.23,3.23,0,0,0-.74-2.57,3.42,3.42,0,0,0-2.55-1.52,4.5,4.5,0,0,0-3.38,1.61c-3,3.08-5.42,3.67-8.41,2a2.07,2.07,0,0,0-1.6-.11C152,126.34,149.71,123.63,147.31,120.75ZM152,135.86a4.12,4.12,0,0,1,1-3.06,4,4,0,0,1,2.88-1.15h.16c2.37,0,3.79,1.44,3.91,4-.1,2.58-1.56,4.05-4,4.05h-.06A3.64,3.64,0,0,1,152,135.86Z"/><path class="cls-1" d="M29.55,86.08c-.73,0-1.46,0-2.18,0-6.29.06-8.86,2.69-8.89,9.07,0,.69,0,1.37,0,2.06,0,1.83-.06,3.73.06,5.6.25,3.94,2.47,6.5,5.95,6.84,2,.2,4,.31,6,.31a58.52,58.52,0,0,0,6.08-.32c4.06-.42,6.07-3.73,6-9.82,0-.81,0-1.67,0-2.5.15-4.3.32-9.17-5.85-11a11.81,11.81,0,0,0-4.24-.19l-1.39.08v-.13ZM30.83,93c2.28,0,3.54,0,4,.56s.51,2,.5,4.68c0,2.4,0,3.73-.53,4.24s-1.92.51-4.44.51-3.69,0-4.22-.53-.57-2.09-.56-4.86c0-2.33,0-3.61.55-4.09S28,93,30.21,93Z"/><path class="cls-1" d="M18.42,130.63a17.5,17.5,0,0,0,.49,4.69c1.07,3.69,4,5.51,8.37,5.13a28.31,28.31,0,0,1,3.89.07c.89.06,1.8.12,2.7.12,3.18,0,6.27-.75,7.89-4.94a20,20,0,0,0-.07-14.55c-2.15-5.2-6.57-4.88-10.47-4.59a23.89,23.89,0,0,1-4.13.07,7.27,7.27,0,0,0-8.15,4.85,10.86,10.86,0,0,0-.5,4.48,22.16,22.16,0,0,1-.05,3v.08C18.42,129.54,18.42,130.07,18.42,130.63ZM26.16,133c-.57-.57-.56-2.08-.56-4.84,0-2.32,0-3.59.55-4.08s1.79-.5,4-.5h.65c2.29,0,3.55,0,4,.55s.51,2,.5,4.66c0,2.4,0,3.72-.53,4.23s-1.91.53-4.43.51S26.69,133.5,26.16,133Z"/><path class="cls-1" d="M36.87,55.76a10.73,10.73,0,0,0-2.52-.21H34q-3.21,0-6.43,0c-5,0-7.91,1.87-8.88,5.59-1.78,6.79,0,15.2,3.59,17.31a7.61,7.61,0,0,0,3.68.92c1.08,0,2.17,0,3.22,0h1.22l1.55,0,1.44,0c.62,0,1.24,0,1.85-.06,4.44-.33,7-3,7.34-7.85C43.28,61.45,41.64,56.89,36.87,55.76ZM35.35,68.05c0,2.22,0,3.44-.55,3.9s-2.07.5-4.77.49c-2.24,0-3.47,0-3.94-.55s-.49-2.08-.49-4.78c0-2.35,0-3.64.55-4.13s1.8-.51,4.05-.51h.58c2.3,0,3.58,0,4.06.59S35.36,65.23,35.35,68.05Z"/><path class="cls-1" d="M50.56,131.7c.07,6.12,2.61,8.67,8.78,8.78,1.15,0,2.37,0,3.62,0,1.46,0,3,0,4.44-.13,4.09-.26,6.64-2.74,7-6.79a62.92,62.92,0,0,0,0-10.09c-.33-4.2-3-6.71-7.32-6.87-3.23-.12-6.34-.12-9.26,0-4.31.19-7,2.95-7.22,7.4,0,1,0,2,0,3,0,.49,0,1,0,1.47v.6C50.56,130,50.55,130.83,50.56,131.7Zm7-3.4c0-2.4,0-3.72.55-4.23s1.82-.52,4.14-.52h.43c2.42,0,3.75,0,4.26.54s.52,2,.52,4.5,0,3.84-.56,4.37-2,.54-4.71.54c-2.34,0-3.63,0-4.12-.55S57.55,130.93,57.55,128.3Z"/><path class="cls-1" d="M74.29,92.4c-.53-3.84-3-6.08-7-6.29-1.12,0-2.25,0-3.34,0H63l-1.39,0q-1,0-1.92,0c-6.61,0-9.07,2.55-9.1,9.23v1.77c0,1.79,0,3.65,0,5.47.19,4.31,2.76,7,6.89,7.28,1.56.09,3.16.14,4.83.14s3.42,0,5.25-.14a6.71,6.71,0,0,0,6.71-6.1A40.18,40.18,0,0,0,74.29,92.4Zm-6.84,5.88c0,2.37,0,3.68-.58,4.18S64.73,103,62,103c-2.22,0-3.45,0-3.91-.56s-.49-2.13-.49-4.89c0-2.29,0-3.56.57-4s1.82-.5,4.08-.5h.7c2.3,0,3.57,0,4.05.56S67.46,95.61,67.45,98.28Z"/><path class="cls-1" d="M57.66,79.32c1.52.09,3.08.13,4.7.13s3.24,0,5-.12c4.11-.2,6.68-2.65,7-6.73a62.82,62.82,0,0,0,0-10.09c-.32-4.23-2.9-6.69-7.26-6.94-1-.06-2.07,0-3.07,0l-.87,0-1.51,0H59.47c-6.37.07-8.87,2.6-8.91,9V66c0,1.88,0,3.84,0,5.76C50.74,76.33,53.32,79.07,57.66,79.32Zm-.11-11.76c0-2.56,0-4,.56-4.53s1.81-.56,4.12-.56h.51c2.38,0,3.69,0,4.2.55s.51,2,.51,4.57,0,3.81-.53,4.33-1.91.52-4.41.52-3.89,0-4.42-.52S57.55,70,57.55,67.56Z"/><path class="cls-1" d="M82.63,71.4c.16,5.21,2.74,7.81,7.9,8,1.29,0,2.68.08,4.12.08,1.67,0,3.41,0,5.15-.18,3.83-.28,6.2-2.58,6.51-6.29a69.3,69.3,0,0,0,0-10.88c-.29-3.9-2.76-6.26-6.77-6.48a94,94,0,0,0-10.07,0c-3.92.21-6.53,2.86-6.81,6.91-.08,1.12-.06,2.25,0,3.35,0,.33,0,.66,0,1l0,1.76C82.61,69.56,82.61,70.48,82.63,71.4Zm6.93-4.12c0-2.43,0-3.77.54-4.28s1.85-.53,4.24-.53h.22c2.51,0,3.89,0,4.43.56s.54,2,.54,4.64c0,2.41,0,3.74-.53,4.26s-1.92.51-4.44.51-3.91,0-4.45-.55S89.56,69.89,89.56,67.28Z"/><path class="cls-1" d="M157.53,55.53c-.83,0-1.66,0-2.49,0-5.57.12-8.14,2.58-8.34,8a84.22,84.22,0,0,0,.08,8.87c.28,4.09,2.84,6.67,6.82,6.91q2.53.15,5.07.15t5-.15a6.85,6.85,0,0,0,6.83-6.89,88.21,88.21,0,0,0,0-10.08c-.26-3.89-2.59-6.27-6.56-6.7a27.83,27.83,0,0,0-3.65-.07l-1.11,0v-.05Zm1.52,6.94c2.31,0,3.59,0,4.07.56s.51,2,.51,4.67c0,2.4,0,3.72-.54,4.23s-1.92.52-4.49.51-3.86,0-4.39-.55-.54-2-.54-4.64c0-2.41,0-3.74.57-4.25S156.33,62.47,159.05,62.47Z"/><path class="cls-1" d="M106.35,92.75c-.27-3.92-2.91-6.4-7.06-6.64-1.12-.06-2.25,0-3.34,0l-1,0-1.39,0c-.64,0-1.28,0-1.92,0-6.43,0-9,2.54-9,8.89l0,1.65c0,2.1-.06,4.27.09,6.41.27,4,2.64,6.44,6.49,6.74,1.7.14,3.45.2,5.28.2,1.66,0,3.39,0,5.2-.16,4-.24,6.4-2.64,6.68-6.58A74.8,74.8,0,0,0,106.35,92.75Zm-6.82,5.58c0,2.35,0,3.65-.54,4.14s-2,.53-4.56.51-3.81,0-4.33-.56-.54-2.06-.54-4.74c0-2.37,0-3.67.55-4.17s2-.52,4.58-.52,3.79,0,4.31.57S99.53,95.64,99.53,98.33Z"/><path class="cls-1" d="M138.52,66.46q0-1.09,0-2.19c-.1-6.14-2.64-8.67-8.78-8.73H128.4c-2.2,0-4.48-.06-6.72.07a6.88,6.88,0,0,0-6.92,6.79,94.14,94.14,0,0,0,0,10.08c.22,4,2.57,6.48,6.47,6.77,1.78.14,3.56.2,5.33.2s3.72-.07,5.55-.22c3.63-.29,5.93-2.66,6.31-6.48a29.71,29.71,0,0,0,.06-3.65c0-.37,0-.74,0-1.11h.06Zm-6.93,1.24c0,2.4,0,3.72-.54,4.23s-1.94.51-4.48.51-3.89,0-4.43-.55-.54-2-.54-4.63c0-2.42,0-3.75.54-4.26s1.94-.53,4.47-.53,3.9,0,4.44.57S131.59,65.06,131.59,67.7Z"/><path class="cls-1" d="M122.76,139.33h0a5.28,5.28,0,0,0,3.9-1.27,3.36,3.36,0,0,0,.82-2.6c-.13-2.37-1.78-3.52-4.92-3.43a5.19,5.19,0,0,0-3.69,1.22,3.48,3.48,0,0,0-.79,2.63c.18,3.35,3.21,3.42,4.67,3.45Z"/><path class="cls-1" d="M178.23,116.55a2.92,2.92,0,0,0,.51,0c2.39-.33,4.14-2,5.33-5.1l.07-.17-.06-.17c-.39-1.18-1.21-3.62-3.82-3.19a5.84,5.84,0,0,0-5.08,5.15,3.09,3.09,0,0,0,.83,2.64A3.14,3.14,0,0,0,178.23,116.55Z"/><path class="cls-1" d="M188.58,139.32H189c1.88,0,4.58-.2,4.88-3.29a3.44,3.44,0,0,0-.74-2.73,4.7,4.7,0,0,0-3.56-1.26c-1.5,0-4.64-.11-5,3.26a3.5,3.5,0,0,0,.71,2.72,4.41,4.41,0,0,0,3.24,1.3Z"/><path class="cls-1" d="M175.18,158.23a5.8,5.8,0,0,0,5,5.22,3.66,3.66,0,0,0,.65.06,3,3,0,0,0,2.08-.79,3.12,3.12,0,0,0,1-2.62c-.29-3.12-2.92-4.57-4.88-5.38l-.12-.06-.14,0C175.36,155.16,175.06,157.11,175.18,158.23Z"/><path class="cls-1" d="M133.26,116.5a3.23,3.23,0,0,0,.53,0,3,3,0,0,0,2.08-.8,3.17,3.17,0,0,0,.9-2.72c-.26-2.43-1.81-4.17-4.62-5.18l-.17,0a4.17,4.17,0,0,0-3.15,1.16,2.88,2.88,0,0,0-.67,2.34A5.82,5.82,0,0,0,133.26,116.5Z"/><path class="cls-1" d="M128.79,162.32a4.05,4.05,0,0,0,3.12,1.22H132l.08,0c2.8-.95,4.38-2.68,4.69-5.14a3.17,3.17,0,0,0-.86-2.74,3,3,0,0,0-2.59-.81,5.9,5.9,0,0,0-5.15,5.15A2.85,2.85,0,0,0,128.79,162.32Z"/><path class="cls-1" d="M153.39,172.64a3.33,3.33,0,0,0,2.61,1h0a3.19,3.19,0,0,0,2.39-.89c.78-.79,1.12-2,1.09-3.92,0-1.66-.09-4.78-3.53-4.7a3.31,3.31,0,0,0-2.46,1c-1,1-1,2.71-.95,4.07A4.35,4.35,0,0,0,153.39,172.64Z"/><path class="cls-1" d="M156,107.17h.22c3.26-.13,3.29-3,3.31-4.89a5,5,0,0,0-1.15-3.81,3.23,3.23,0,0,0-2.52-.81,3.33,3.33,0,0,0-2.43,1.07,4.83,4.83,0,0,0-.84,3.7c-.07,1.84.27,3.12,1.05,3.89A3.2,3.2,0,0,0,156,107.17Z"/></g></g></svg>