<svg xmlns="http://www.w3.org/2000/svg" viewBox="0 0 207.76 201.73"><defs><style>.cls-1{fill:#c88a5e;}</style></defs><g id="Capa_2" data-name="Capa 2"><g id="Capa_1-2" data-name="Capa 1"><path class="cls-1" d="M132.5,98.51c5.66-1.76,10.83-3.33,16.28-4C176,91.28,203,111.61,207.05,138.65c4.57,30.1-13.54,56.67-43.46,62.06-22.13,4-40.28-3.87-53.53-22.17-2-2.79-4-3.83-7.34-3.82-31.89.12-63.78.08-95.67.07-6.68,0-7-.39-7-7.17V33.85c0-7.09.32-7.41,7.25-7.42a8,8,0,0,1,1.3,0c4.06.71,5.44-.71,5.28-5-.4-11.28-.7-10.72,10.37-10.64,3.6,0,7.22-.12,10.82,0,2.49.11,3.69-.52,3.63-3.31-.07-3.15-1-7.62,4-7.49,4.62.12,3.62,4.43,3.56,7.43-.06,2.72,1,3.45,3.55,3.38,5.63-.16,11.26.07,16.89-.09,3.82-.11,5.57,1.37,5.51,5.31-.05,3.28-1.37,7.36.6,9.64s6,.49,9.09.77c2.86.26,4,1.88,4,4.62,0,3.89.08,7.79,0,11.69-.06,2,.53,2.77,2.66,2.79,2.29,0,2.6-1,2.53-2.9-.09-2.6,0-5.2,0-7.8-.09-3.47,1.6-5,5-4.94a30.68,30.68,0,0,1,3.46,0c3.06.42,4.59-.48,4.24-3.91-.25-2.44,1-4.39,3.62-4.46,2.86-.07,4.19,2,3.9,4.59-.4,3.66,1.54,3.84,4.37,3.8,7.94-.09,8.24.31,8.25,8.28a33.62,33.62,0,0,1,0,3.89c-.31,2.62.61,3.67,3.34,3.4,4.28-.43,5.43,2.11,5.41,5.9-.07,14,0,28,0,42Zm-54.44,2.17c0-20.92,0-41.84,0-62.76,0-2.61-.4-3.8-3.46-3.78q-31.82.21-63.63,0c-2.82,0-3.3,1-3.29,3.51q.09,63,0,126c0,2.52.53,3.73,3.32,3.54a67.11,67.11,0,0,1,9.08,0c2.75.18,3.39-.95,3.34-3.51-.14-7.5,0-15-.07-22.51,0-3.45,1.48-5.11,4.87-5.12q14.73,0,29.44,0c3.14,0,4.76,1.59,4.72,4.84-.06,4.91-.11,9.82,0,14.72.1,3.71-1.63,8.54.77,10.82s7.17.36,10.87.75c3.34.35,4.06-1,4-4.15C78,142.24,78.06,121.46,78.06,100.68ZM154.11,194a46,46,0,1,0-45.9-45.9A46,46,0,0,0,154.11,194Zm-44-77.33c-5.32,0-9.92.1-14.51,0-3.33-.09-5.21-2.36-4.24-4.88.85-2.21,2.71-2.81,4.88-2.81,6.06,0,12.11,0,18.17,0,4.95,0,10.33-5.39,10.33-10.21,0-13.84-.11-27.69.09-41.53.05-3.32-.95-4.08-4.12-4-10.23.2-20.48.23-30.71,0-3.5-.09-4.24,1-4.23,4.34.11,33.6.07,67.19.07,100.79,0,8.82,0,8.88,8.78,8.78,2.83,0,6.5,1.31,8.27-.7,1.39-1.59-1-4.74-1.41-7.27-.06-.43-.12-.86-.14-1.29-.15-3-1.25-4.74-4.76-4.31-2.85.36-5.46-.74-5.37-4.09.08-3.17,2.63-3.73,5.33-3.56,2.27.13,4.27.25,4.13-3.17-.11-2.4,1.6-5.27.76-7.15-1-2.33-4.37-.52-6.63-1.09s-3.8-1.76-3.62-4.14,1.72-3.52,4.12-3.5c2.16,0,4.33-.1,6.49,0,1.91.1,3.2-.32,4.06-2.29C106.91,122.06,108.4,119.77,110.1,116.67ZM42.83,26.43c6.2,0,12.4-.16,18.59.07,3.21.11,3-1.73,3-3.82s.6-4.29-3-4.24c-12.25.17-24.5.19-36.75,0-3.49-.05-3.16,1.88-3.19,4.1s-.19,4.17,3.25,4C30.71,26.22,36.78,26.43,42.83,26.43Zm11.8,129.33c0-3-.15-6.07,0-9.08.18-2.71-1.21-3.29-3.39-3-1.95.3-5-1.38-5,2.68,0,6.06,0,12.11,0,18.16,0,1.23.21,2.14,1.73,2.52,4.76,1.19,6.63-.11,6.63-4.85Q54.65,159,54.63,155.76Zm-16.05-.51c0-2.73-.16-5.46.05-8.18.23-3.15-1.5-3.39-4-3.43s-3.61.57-3.51,3.34c.2,5.45.15,10.91,0,16.36-.06,2.54.33,3.95,3.42,3.86,2.79-.07,4.32-.57,4.05-3.78C38.41,160.72,38.58,158,38.58,155.25ZM107.86,37.7c-2.29,0-4.58,0-6.87,0-3.3-.09-2.15,2.39-2.19,4s-1,4,2.3,3.86c4.15-.12,8.31-.09,12.46,0,1.83,0,2.38-.63,2.55-2.47.34-3.7-.22-6.19-4.82-5.37A20.63,20.63,0,0,1,107.86,37.7Z"/><path class="cls-1" d="M43.15,45.45c7.22,0,14.44.06,21.65,0,2.83,0,5.17.75,5.13,3.83s-2.36,4-5.17,4q-21.86,0-43.73,0c-2.8,0-5.11-1-5.13-4s2.36-3.82,5.17-3.79C28.43,45.5,35.79,45.45,43.15,45.45Z"/><path class="cls-1" d="M42.65,95.79c-7.22,0-14.44-.06-21.65,0-2.84,0-5.16-.8-5.1-3.87S18.3,88,21.1,88q21.87,0,43.74,0c2.8,0,5.1,1,5.09,4s-2.4,3.8-5.2,3.76C57.37,95.73,50,95.79,42.65,95.79Z"/><path class="cls-1" d="M42.81,109.56c7.36,0,14.72,0,22.08,0,2.86,0,5.11.89,5,3.94-.05,2.71-2.15,3.86-4.82,3.86q-22.3,0-44.6,0c-2.68,0-4.67-1.31-4.61-4s2.13-3.75,4.83-3.72C28.09,109.6,35.45,109.56,42.81,109.56Z"/><path class="cls-1" d="M43.22,66.77c7.06,0,14.13,0,21.19,0,2.82,0,5.58.48,5.52,3.93S67,74.47,64.25,74.47q-21.42,0-42.83,0c-2.81,0-5.58-.47-5.51-3.93s2.9-3.77,5.67-3.76C28.79,66.79,36,66.77,43.22,66.77Z"/><path class="cls-1" d="M145.85,167.61c-1.61,0-2.63-1.05-3.61-2.12-5.56-6.05-11.09-12.12-16.67-18.15-1.81-2-2.53-4-.4-6s4.2-1.19,6,.76c3.61,3.92,7.24,7.83,10.85,11.75,4.22,4.6,4.19,4.58,8.62.49q12.24-11.28,24.54-22.5c.85-.78,1.7-1.57,2.6-2.28,1.83-1.42,3.78-1.59,5.43.13s1.45,3.67-.19,5.37c-1.3,1.34-2.68,2.61-4.07,3.87Q164.6,152,150.23,165.16C149,166.32,147.8,167.68,145.85,167.61Z"/><path class="cls-1" d="M105,71.45c3,0,6,0,9.07,0,2.67,0,4.61.91,4.64,3.84,0,2.69-1.82,3.86-4.24,3.89-6.33.1-12.67.09-19,0-2.47,0-4.28-1.41-4.27-3.93s1.71-3.82,4.29-3.8C98.63,71.47,101.8,71.45,105,71.45Z"/><path class="cls-1" d="M105.27,97.61c-3.3,0-6.61,0-9.92,0-2.36,0-4-1.13-4.17-3.44-.21-2.6,1.53-4.12,3.95-4.17,6.61-.15,13.23-.16,19.84,0a3.55,3.55,0,0,1,3.72,3.91c-.1,2.43-1.58,3.61-3.93,3.65-3.16,0-6.32,0-9.49,0Z"/></g></g></svg>