<svg xmlns="http://www.w3.org/2000/svg" viewBox="0 0 213.06 216.34"><defs><style>.cls-1{fill:#c88a5e;}</style></defs><g id="Capa_2" data-name="Capa 2"><g id="Capa_1-2" data-name="Capa 1"><path class="cls-1" d="M44.71,88c-9.44,0-17.86,0-26.29,0-7,0-11.9-3-14.07-8.64S3.57,68.41,8.72,63.8A8.73,8.73,0,0,0,11,59.89c2.55-6.76,8.76-10.34,15.77-8.76a5.53,5.53,0,0,0,4.63-.92c9.74-6.05,21.12-2.26,25.18,8.56a5.49,5.49,0,0,0,4.1,3.68c2.05.56,2.41-1.6,3.2-2.75C71,49.27,78.09,38.77,85.23,28.31c5.61-8.22,13.37-8.27,18.94-.11C111.63,39.12,119.11,50,126.44,61c1.64,2.48,2.55,2.82,4.18,0,1.93-3.26,4.24-6.3,6.37-9.45,6.44-9.5,13.83-9.57,20.2-.18,11.85,17.46,23.75,34.89,35.5,52.41,1.65,2.45,3.1,4.07,6.37,3.15,1.39-.39,3.07.06,4.58.31,5.24.87,6.09,1.91,6.05,7.16-.35,48.66-38.1,92.26-86.9,100.37C68,224,16.77,190.55,3.11,136.71A107.45,107.45,0,0,1,0,113.35c-.1-3.36,1.43-5,4.35-5.7a19.06,19.06,0,0,1,16.44,3c5.63,4.06,5.81,4,9.67-1.7C35,102.22,39.58,95.5,44.71,88Zm59.94,121.68c14.24,0,29.21-3,42-9.44,33.88-17.07,52.44-44.71,56.16-82.43.32-3.31-.77-4.33-3.93-3.9a14.24,14.24,0,0,0-6.18,2.48c-7.93,5.34-15.32,5.33-23.16.07-5.57-3.74-9.69-3.71-15.11.09-7.72,5.42-15.26,5.39-23-.08-5.45-3.85-9.54-3.83-15.06.06q-11.44,8.07-23,0c-5.43-3.8-9.52-3.79-15.08,0-7.71,5.3-15.33,5.26-23.11-.12-5.26-3.64-9.64-3.66-14.76,0-8.26,5.82-15.09,5.88-23.26.1a13.11,13.11,0,0,0-6.58-2.56c-2.6-.24-4.06.42-3.58,3.45.45,2.78.51,5.61.92,8.39C15.08,173.81,56.29,209.54,104.65,209.63Zm-65-102c8-2.36,14.44-.55,20.7,4a10.54,10.54,0,0,0,13-.14c8.36-6.11,16.42-6.19,24.78,0,4.26,3.17,8.91,3,13.37.06,9.72-6.38,15.19-6.41,24.68,0a11.6,11.6,0,0,0,12,.94c2.62-1.19,3.4-2.44,1.44-5.27C139,91.77,128.58,76.26,118.08,60.79c-3.76-5.53-3.79-5.56-8.1-.43-1.91,2.28-4.19,4.19-6.65,1.51-6-6.5-11.45-6.28-17.27.09-1.66,1.83-3.72,1.41-5.54-.41s-3.12-5.83-5.34-5.28-3.4,4.13-5,6.39c-.74,1-1.34,2.16-2.15,3.12a5.09,5.09,0,0,0-.89,5.06c2.16,8.42-3,16-11.64,17-1.41.18-2.62.14-3.58,1.59C47.9,95.57,43.76,101.57,39.68,107.6ZM35.34,81.16c6.18,0,12.36.09,18.54,0,3.88-.08,6.59-2.56,7-6a6.51,6.51,0,0,0-5.59-7.26c-3.42-.42-4.29-2.07-4.71-5.17A10,10,0,0,0,41,54.15c-4.75-.17-6,1.47-4.53,5.73a12,12,0,0,1,.53,1.6c.49,2.45.79,5.15-2.23,6S30.84,66,30.34,63.32a6.55,6.55,0,0,0-6.78-5.75c-3.42-.06-6.11,2.52-6.48,6.47-.19,2.07-.85,3.41-2.71,4.29-3.18,1.52-4.73,4.13-3.9,7.55.92,3.78,3.74,5.34,7.58,5.3C23.81,81.12,29.58,81.17,35.34,81.16Zm125.5,25.7a19.48,19.48,0,0,1,12.72,4,12.13,12.13,0,0,0,12.35,1.63c2.46-.94,3.23-2,1.4-4.58-5.78-8.15-11.27-16.5-16.87-24.76-3.73-5.5-3.88-5.61-8.07-.35-2.52,3.17-4.83,3.36-7.77.81-1.7-1.47-3.65-2.64-5.37-4.09-3.3-2.79-4.69.9-6.72,2-2.37,1.29-.25,2.63.46,3.71,4.36,6.56,8.87,13,13.19,19.6C157.4,106.71,158.64,107.85,160.84,106.86ZM105.39,54.93c1.24-1.44,2.42-2.92,3.73-4.28s.57-2.24-.18-3.33c-3.57-5.23-7.07-10.51-10.71-15.69-2.43-3.45-4.64-3.36-7.15.23-3.3,4.73-6.24,9.73-9.84,14.22-2.79,3.47-.39,5.19,1.46,7.37,2.47,2.89,3.69-.32,5-1.27,7.08-5.12,7-5.2,14.25.24C103,53.18,104,53.91,105.39,54.93Zm56.9,16.63a6.22,6.22,0,0,0-.55-1.17c-3.86-5.71-7.64-11.47-11.65-17.06-2-2.77-4.34-2.31-6.17.3-3.4,4.83-6.65,9.75-10,14.63-2.48,3.64,1.38,5.25,2.7,7.44,1.21,2,2.57-.43,3.58-1.15,7.84-5.61,5.9-5.79,13.79,0l.68.5C157.46,77.13,161.68,75.35,162.29,71.56Z"/><path class="cls-1" d="M176.84,0c1.56,0,2.69.83,3.88,1.58,3.56,2.24,7.08,2.11,10.71,0,4.81-2.82,7.47-1.73,9,3.59a10.31,10.31,0,0,0,7.7,7.56c5,1.41,6.17,4.25,3.44,8.81a9.88,9.88,0,0,0,0,11.08c2.74,4.52,1.59,7.49-3.39,8.83a10.3,10.3,0,0,0-7.86,7.88c-1.27,4.79-4.38,6.14-8.5,3.57s-7.76-2.45-11.79.07-7.2,1.12-8.34-3.34-3.86-7.17-8.46-8.28c-4.19-1-5.55-4.46-3.22-8.12,2.65-4.16,2.71-8,0-12.15-2.43-3.84-1-7.13,3.5-8.28s7.16-3.66,8.07-8.12A5.46,5.46,0,0,1,176.84,0Zm15.62,45.43c1.65.55,2-.3,2.33-1.06a17,17,0,0,1,8.47-8.45c1.62-.74,1.4-1.64.9-3-1.12-3.07-2-6.34-.6-9.45,1.53-3.42.67-5.4-2.72-6.59a4,4,0,0,1-1-.75c-2.53-1.92-3.5-5.57-5.73-7S188,11.21,185,10c-5.16-2.08-7.4.3-10.93,3.9-4.06,4.13-7.62,7-5.12,13.38.6,1.53-.45,3.84-1.06,5.68-.48,1.4-.65,2.28.94,3a16.83,16.83,0,0,1,8.44,8.47c.37.78.78,1.63,1.85,1.16C183.74,43.59,188.35,43.47,192.46,45.43Z"/><path class="cls-1" d="M31.42,3.4A16.33,16.33,0,0,1,42,8c1.53,1.5,2.4,1.69,4,.07A15.93,15.93,0,0,1,56.55,3.43c2.25-.15,4,.63,4.29,3s-1.24,3.4-3.54,3.79c-6.5,1.13-8.52,3.22-9.87,10.07C47,22.38,46,23.71,43.86,23.64a3.23,3.23,0,0,1-3.21-3.27c-.6-6.22-4-9.6-10.23-10.21C28.3,10,27,8.66,27.2,6.52,27.43,4.14,29.15,3.3,31.42,3.4Z"/><path class="cls-1" d="M6.41,20.26c3.8.15,6.37,1,8.44,2.75,1.56,1.32,2.56,1.52,4.2.06a11.54,11.54,0,0,1,7.37-2.75c2.11-.07,3.66.77,4,2.9a3.11,3.11,0,0,1-3,3.81c-4.27.47-6.6,2.69-7,7A3.2,3.2,0,0,1,17,37.17a3.15,3.15,0,0,1-3.38-3.08c-.45-4.27-2.69-6.58-7-7-2.12-.23-3.4-1.59-3.11-3.74S5.27,20.17,6.41,20.26Z"/><path class="cls-1" d="M55,131.82a29.81,29.81,0,0,1,20.13,8.09c2.58,2.32,4.26,2.16,6.64.06a90.24,90.24,0,0,1,7.41-5.58c2.26-1.6,4.1-1.12,5.69,1.18,4.35,6.25,4.32,17.06-.07,23.18-1.65,2.3-3.53,2.59-5.74,1-3-2.15-5.93-4.28-8.77-6.58-1.5-1.21-2.62-1.25-4,.17a23.55,23.55,0,0,1-2.93,2.4c-16.06,12.17-30.6,5.89-41.76-6.07-1.44-1.55-1.64-3.28-.16-4.9C38,137.59,45.62,132.4,55,131.82Zm.77,23.76c6.23-.24,11.18-3.29,15.83-7.06,1.42-1.16.94-1.91-.16-3-9-8.83-22.87-8.77-31.31.15-.93,1-1.38,1.67-.13,2.7C44.6,152.19,49.55,155.25,55.76,155.58Zm34.51-3.75a10.66,10.66,0,0,0,0-9.55c-2.21,1.6-5.75,2.6-5.7,5C84.58,149.13,88,150.58,90.27,151.83Z"/><path class="cls-1" d="M159,173.35a22.71,22.71,0,0,1-3.2,12.16c-1.55,2.6-3.58,3-6,1.23-2.84-2.07-5.71-4.12-8.44-6.33-1.55-1.26-2.57-1.37-4.29,0-12.94,10.28-25.77,9.2-37-2.79-2.29-2.43-2.43-4.34-.1-6.85,11.15-12,24.37-13.16,37.05-3,1.62,1.31,2.64,1.55,4.28.19,2.71-2.23,5.6-4.26,8.43-6.35,2.61-1.93,4.69-1.36,6.26,1.4A21.15,21.15,0,0,1,159,173.35Zm-38.92,7.42a24,24,0,0,0,12.26-5.15c1.34-1.08,1.32-1.94,0-3-8.61-6.62-15.85-6.59-24.48,0-1.36,1-1.31,1.91,0,3A23.77,23.77,0,0,0,120.09,180.77Zm31.07-11.43c-7.39,5.26-8.57,3.95,0,9.47C152.68,175.71,152.54,172.68,151.16,169.34Z"/><path class="cls-1" d="M186,40.61a13.53,13.53,0,0,1-.1-27,13.53,13.53,0,1,1,.1,27.05Zm0-6.79A6.89,6.89,0,0,0,192.73,27a6.73,6.73,0,1,0-6.65,6.81Z"/></g></g></svg>