<svg xmlns="http://www.w3.org/2000/svg" viewBox="0 0 217.72 217.41"><defs><style>.cls-1{fill:#c88a5e;}</style></defs><g id="Capa_2" data-name="Capa 2"><g id="Capa_1-2" data-name="Capa 1"><path class="cls-1" d="M80.59,134.06c-3.82,0-7.64,0-11.47,0-3.64,0-5.51-1.71-5.5-5.42,0-4.24-.12-8.49,0-12.73.1-2.47-.83-3.15-3.18-3.08-5.09.15-10.19,0-15.28.06-3.52,0-5.29-1.6-5.26-5.11s-.25-6.85.27-10.17c1.25-8,6-13.23,13.54-15.89A50.45,50.45,0,0,1,60.3,80c2.37-.49,2.92-1.07,1-3.12-7-7.31-9.18-23.38-4.68-32.48a18.79,18.79,0,0,1,26.69-7.9c2.34,1.37,3,1,4.29-1.15,10.07-16.8,32.85-16.79,42.88,0,1.4,2.34,2.1,2.3,4.29,1.05,12.88-7.37,28.18,1.39,28.56,16.23.08,3.39,0,6.79,0,10.18a18.18,18.18,0,0,1-6.36,13.82c-2.1,1.86-2.11,2.81.81,3.36a53.56,53.56,0,0,1,5.74,1.45c8.63,2.62,13.87,9.3,14.44,18.34.82,13.06.82,13-12.1,13.1-3.74,0-8.73-1.74-10.88.88-1.84,2.23-.58,7-.68,10.67,0,1.42,0,2.83,0,4.25,0,3.45-1.67,5.3-5.15,5.31-8.07,0-16.13.06-24.19,0-2.9,0-5-1.34-4.91-4.57.13-3,2.28-4.18,5-3.88,3.42.38,4.12-1.23,3.89-4.18a24,24,0,0,1,.28-5.48,3.66,3.66,0,0,1,3.82-3.3,3.72,3.72,0,0,1,4.18,3.36,45.58,45.58,0,0,1,.31,5.49,4.89,4.89,0,0,0,7.3,3.91c1.07-.62.88-1.69.89-2.65,0-3,.06-5.94-.07-8.91-.36-7.93-5-13.87-12.61-16.23-12-3.74-12-3.74-17,7.55-.91,2.06-1.83,4.13-2.71,6.21s-2,3.35-4.39,3.31-3.47-1.53-4.3-3.47c-2-4.53-4.14-9-5.89-13.59-1-2.64-2.52-3.06-4.87-2.28a16.13,16.13,0,0,1-2,.54c-19.2,3.53-20,12.69-19.62,27,.11,3.7,2.57,2.51,4.44,2.67,2.07.18,4.06.25,3.84-2.86a37.87,37.87,0,0,1,.12-5.93c.21-2.4,1.5-4,4-4.09,2.75-.06,4.06,1.64,4.35,4.22A11.59,11.59,0,0,1,89,119c-.29,3.82-.61,7.37,5.23,6.82,2.11-.2,3.38,2,3.24,4.22a4,4,0,0,1-4.19,4c-4.24.15-8.49,0-12.73,0Zm44.57-74a9.91,9.91,0,0,0-7.86-9.73,2,2,0,0,0-1.89.49,27.41,27.41,0,0,1-19.79,5.95c-2.24-.14-2.83.67-2.9,2.87-.3,10,6.38,17.56,15.85,17.79C118.28,77.69,125.08,70.57,125.16,60.08Zm8,28.59c6.22,1.66,12,3.74,14.48,8.66,3.7,7.38,9.37,7.62,16,7a20.2,20.2,0,0,1,3.39,0c1.79.14,2.4-.57,2.5-2.41.31-5.89-2.61-10.39-8.37-12.16-3-.91-6-1.68-9-2.3-2.67-.54-4.75-1.43-5.47-4.44-.65-2.77-4.18-1.52-4.21-1.2C142,87.39,137.11,87,133.13,88.67Zm-48.49,0C80.92,86.94,76,87.43,75.51,82c-.05-.48-3.52-1.52-4,.66-.87,3.94-3.74,4.5-6.82,5.19-2.87.66-5.79,1.26-8.58,2.2a11.44,11.44,0,0,0-7.63,12.28c.16,1.71.85,2.11,2.36,2.1,4.24,0,8.47-.07,12.7,0a2.87,2.87,0,0,0,3-1.83C70.19,95.17,76.37,90.87,84.64,88.66Zm40-44.11c-1.75-8.39-8.78-13.73-16.63-13.16-7.66.55-14.5,7-15.09,14.17-.12,1.45-.32,2.71,1.93,2.78,5.5.19,10.69-.49,15.13-4.09,5.79-4.69,5.79-4.69,12.28-1C122.81,43.62,123.42,43.93,124.59,44.55ZM83.84,57.8a48.73,48.73,0,0,1-15.26,2.76c-1.79,0-4.37-1.23-5.28,1.08-.82,2.11.24,4.46,1.49,6.37A10.08,10.08,0,0,0,74,73C81.13,72.73,85,66.91,83.84,57.8ZM134,57.67a18.82,18.82,0,0,0,.25,7.39,10.28,10.28,0,0,0,10.64,7.88,10.61,10.61,0,0,0,9.82-9c.3-2,.31-3.6-2.57-3.49A43.24,43.24,0,0,1,134,57.67ZM68.73,51.79A31.2,31.2,0,0,0,80.1,50c3.46-1.11,2.94-2.63.83-4.68a10.31,10.31,0,0,0-13.81-.65c-2,1.66-4.18,4-3.43,6.32C64.38,53.16,67.43,51.4,68.73,51.79Zm79.67.12a26.38,26.38,0,0,1,2.95,0c3.77.43,3.53-1.39,2.28-3.89a10.52,10.52,0,0,0-16.8-2.59c-2,2-2.28,3.44.83,4.47A32,32,0,0,0,148.4,51.91ZM109,99.78c1.58-3.55,2.74-6.08,3.85-8.64,2.14-4.91,2-5.09-3.44-5a14.46,14.46,0,0,1-2.94-.22c-2.79-.54-2.91,1.15-2.23,2.93C105.48,92.2,107.05,95.47,109,99.78Zm-14.86-18c-2.18-2.45-3.6-4-5-5.58-.69-.81-1.37-1-2.08-.17s-2.33,1.4-2.34,2.8c0,1.08,1.23.91,2,1.1C88.85,80.45,91,81,94.09,81.73Zm29.76,0L132,79.75c.9-.21,1.64-.43,1.14-1.64a2.93,2.93,0,0,0-5-1C126.89,78.44,125.68,79.74,123.85,81.69Z"/><path class="cls-1" d="M189.2,130.71c0-11.94,0-23.38,0-34.83,0-5.52-.16-11.06.25-16.55a13.9,13.9,0,0,1,14.54-13,14.39,14.39,0,0,1,13.65,14.15c.15,8.63,0,17.26,0,25.89,0,13.17-.05,26.33,0,39.49a40.42,40.42,0,0,1-7.26,23.94C200,184.7,189.34,199.52,178.8,214.4c-1.73,2.44-3.73,4.17-6.67,2s-2-4.59-.31-7c9.83-13.83,19.56-27.74,29.53-41.47a39.72,39.72,0,0,0,7.88-24.52c-.19-20-.06-39.91-.06-59.86a19.28,19.28,0,0,0-.13-3.81c-.6-3-2.6-4.87-5.6-4.81a5.14,5.14,0,0,0-5.43,4.9,39.86,39.86,0,0,0-.17,4.24c0,15.28-.13,30.57,0,45.85.1,10-3.1,18.46-10.27,25.56-5.93,5.88-11.49,12.12-17.19,18.22-2.13,2.28-4.52,3.91-7.24,1.26-2.54-2.47-1.15-4.89.87-7,6.11-6.48,12.21-13,18.35-19.45,2.57-2.71,3.83-5.72,1.82-9.2-1.76-3-4.84-4.76-7.89-2.88C163,144.65,149.27,152.48,142,167.54c-4.14,8.54-5.44,17.77-7.48,26.83-1.34,5.92-2.42,11.9-3.7,17.83-.63,2.93-1.76,5.85-5.49,4.93-3.52-.86-3.6-3.67-2.91-6.81,2.32-10.47,4.4-21,6.68-31.48,3.74-17.15,13.19-30.38,27.77-40,3.18-2.11,6.33-4.27,9.49-6.41C175.79,126,178.46,125.79,189.2,130.71Z"/><path class="cls-1" d="M28.69,131.3c8.22-5.88,15.14-4.61,22,.46,4.43,3.28,9.17,6.13,13.63,9.37a60.83,60.83,0,0,1,24.18,36.23c2.62,11.13,4.69,22.39,7.14,33.56.68,3.14,0,5.56-3.2,6.26s-4.54-1.57-5.13-4.34c-2.42-11.32-4.62-22.69-7.28-34a51.46,51.46,0,0,0-20.23-30.42c-5.24-3.84-10.69-7.42-16.11-11-3.58-2.36-6.83-2.06-9.17.6s-2.47,6.53.3,9.63c4.06,4.53,8.3,8.9,12.47,13.33,2.14,2.27,4.29,4.52,6.44,6.78s3.67,4.76.86,7.32-5.16.67-7.24-1.55q-9.42-10.08-18.9-20.11C22.36,147,20,139.27,20,130.57c.06-15.43,0-30.86,0-46.28,0-1.42,0-2.84-.15-4.24A5.14,5.14,0,0,0,14.64,75c-3.22-.14-5.26,1.82-5.83,5a22.07,22.07,0,0,0-.09,3.82c0,19.39.21,38.78-.09,58.17-.16,10.06,2.32,19,8.57,26.85,1.84,2.32,3.46,4.82,5.09,7.3,1.51,2.29,1.05,4.5-1.15,5.91a4,4,0,0,1-5.69-1C6.65,169.75-.5,158.09,0,142.68c.71-20.64.12-41.32.21-62,0-7.37,4.91-12.87,12.14-14.19,6.25-1.13,12.81,2.7,15.26,8.87a21.16,21.16,0,0,1,1,7.93q0,21.24,0,42.47Z"/><path class="cls-1" d="M37.18,199.93a4.36,4.36,0,0,1,3.24,1.74c2.15,3,4.31,5.9,6.36,8.92,1.5,2.22,1.09,4.33-1.05,5.9s-4.32,1-5.87-1.08a98.86,98.86,0,0,1-6.31-8.95C31.68,203.31,33.79,199.77,37.18,199.93Z"/><path class="cls-1" d="M113.11,7.3a22.92,22.92,0,0,1,0,3.8,3.84,3.84,0,0,1-4.13,3.46,3.76,3.76,0,0,1-4.11-3.46,46.33,46.33,0,0,1-.13-6.35c0-2.8,1.37-4.75,4.24-4.75s4.2,2,4.25,4.76c0,.85,0,1.69,0,2.54Z"/><path class="cls-1" d="M90.09,21c-2.57-.13-8.37-6.15-8.37-8.69A4,4,0,0,1,88,8.83a16.68,16.68,0,0,1,5.87,6A4.22,4.22,0,0,1,90.09,21Z"/><path class="cls-1" d="M132,8.31a4,4,0,0,1,3.59,5.94,18.38,18.38,0,0,1-6.21,6.22,4,4,0,0,1-6-3.48C123.26,14,129,8.25,132,8.31Z"/><path class="cls-1" d="M28.33,187.53c2.6.3,4.15,1.78,4.05,4.39a3.93,3.93,0,0,1-4.05,4,4,4,0,0,1-4.27-4.2C24,189.07,25.66,187.71,28.33,187.53Z"/><path class="cls-1" d="M113.24,129.46c-.43,2.85-1.89,4.55-4.51,4.43a3.89,3.89,0,0,1-4-4.17c.06-2.64,1.65-4.17,4.37-4.11S112.73,127.45,113.24,129.46Z"/></g></g></svg>