<svg xmlns="http://www.w3.org/2000/svg" viewBox="0 0 219.17 219.17"><defs><style>.cls-1{fill:#c88a5e;}</style></defs><g id="Capa_2" data-name="Capa 2"><g id="Capa_1-2" data-name="Capa 1"><path class="cls-1" d="M113,21.1c0,3.57-1.21,7.82.33,10.5s6.43,1.8,9.79,2.72c23.32,6.39,38.93,28.29,37.74,53.17-1.13,23.65-19.82,43.79-44.49,47.56-3.08.47-3.53,1.53-3.55,4.22a16.12,16.12,0,0,0,8,14.64c2,1.26,4.31,2.43,2.59,5.25-1.83,3-4.16,1.4-6.24.13a18.14,18.14,0,0,1-5.73-5.08c-1.28-1.89-2.07-2.12-3.69-.14-5.93,7.29-13.76,10.09-22.87,8.16-9.31-2-15.27-8-17.72-17.15-.56-2.13-1.35-3-3.53-3.19-1.95-.19-4.14-.88-5.33-2.46-3.5-4.61-8.73-7-13-10.53-6.48-5.44-8.3-12.72-6-20.87.51-1.84.47-3.08-1.08-4.45a21.6,21.6,0,0,1-5.08-7.32c-.89-2-.36-3.47,1.31-4.36a3,3,0,0,1,4.35,1.41c3.05,6.23,8,9.8,14.77,11.1,2,.38,3,1.75,2.62,3.71a3,3,0,0,1-3.51,2.44,20.72,20.72,0,0,1-3-.4c-4.19-1-5.3-.1-4.93,4.31A14.53,14.53,0,0,0,47.56,122c3.07,4.14,4.3,4.11,6.67-.23a12.88,12.88,0,0,1,.91-1.44c1.29-1.77,2.83-3,5-1.5,1.9,1.32,1.66,3,.63,4.86-2.52,4.65-2.14,7.75,1,10.3s6.75,2.23,10.61-1.36c1.53-1.43,3-2.3,4.84-.75s1.69,3.71.07,4.84c-4.72,3.3-4.82,7.05-1.94,11.47,3.66,5.6,8.83,8.5,15.5,8,9.6-.69,15.81-8.22,15.44-18-.08-2.22-.8-2.71-2.92-3-23.57-3.32-40.46-19.6-44.82-43-3.57-19.14,6-40.74,22.85-51.35,2-1.26,4.14-2.63,5.93,0S86.88,45,85,46.28C62.9,61.8,57.82,89.75,73.27,110.78a45,45,0,1,0,27.86-71c-2.48.46-4.82.81-5.39-2.25s1.8-3.77,4.23-4.13a21.82,21.82,0,0,1,3.36-.56c2.45,0,3-1.16,3-3.43-.14-5.84-.13-11.7,0-17.54,0-2.24-1-3.34-2.83-4.2A12.88,12.88,0,0,0,89.9,9.81c-3.78,3.49-4.61,7.08-2.53,12.38.87,2.22.85,4-1.42,5s-3.73-.53-4.62-2.55a20.17,20.17,0,0,1-.92-2.38c-1.53-4.82-2.47-5.16-6.58-2A16.2,16.2,0,0,0,70.38,24c-1.77,2.64-2.86,5.17,1.16,7.17,2,1,3.2,3.17,4,5.36a3,3,0,0,1-1.31,4c-1.62,1-3,.48-4.13-.89-.71-.88-1.18-2-2-2.78-2.18-2.19-4.74-3.08-7.77-1.86s-5.13,3.29-4.66,6.41c.66,4.45-1.09,6.63-4.89,8.58s-5.39,5.71-6,9.87c-.36,2.51,0,4,3.06,2.63a17.66,17.66,0,0,1,4.56-1,3,3,0,0,1,3.75,2.63c.29,2-.88,3.19-2.86,3.56l-.84.16c-6.71,1.57-11.49,5.41-14,11.92-.78,2-2,3.68-4.44,2.73a3.05,3.05,0,0,1-1.58-4.9C36.92,71,39.77,64,39.15,55.88a2.28,2.28,0,0,1,.22-.82c1.48-4.48,4.55-7.62,8-10.81,3.24-3,1.71-8.82,5.56-11.92.67-.53,1.22-1.46,2-1.62,5.91-1.28,8-6,10.53-10.72s7.37-7.47,12.74-8.53a5.86,5.86,0,0,0,4.31-2.75,18.5,18.5,0,0,1,24.39-6.54,5.06,5.06,0,0,0,5.4.09c9.09-4.66,18.85-1.95,24.66,6.68a5,5,0,0,0,3.59,2.43c8.1,1.53,13.56,6.32,16.07,14.2a3.67,3.67,0,0,0,3,2.93c6.32,1.69,9.81,6.07,10.56,12.5a4.84,4.84,0,0,0,2.15,3.81c6.75,4.89,9.32,11.69,8.22,19.82a5.39,5.39,0,0,0,1.35,4.88c8.95,10.43,8.6,23.85-.86,34a4,4,0,0,0-1.17,4.42c2.95,10.82-1.6,20.15-12,24.74a6.13,6.13,0,0,0-3.14,2.64,12.82,12.82,0,0,1-9.49,6.61c-2.15.33-2.65,1.21-3.13,3.08a22.79,22.79,0,0,1-13.6,16c-2.16.95-4.32,1.43-5.48-1.12s.53-3.9,2.75-4.82a16.37,16.37,0,0,0,10-11.45c.5-1.86.56-3.23-1.35-4.32a8,8,0,0,1-3.13-3.44,3,3,0,0,1,.94-4.14,2.81,2.81,0,0,1,3.89.25c.64.57,1.15,1.28,1.81,1.81,3,2.5,6.32,2.65,9.39.28s3.67-5.62,1.94-9.16c-.37-.77-.94-1.43-1.31-2.2a2.89,2.89,0,0,1,1-3.78,2.72,2.72,0,0,1,3.88.09,13.54,13.54,0,0,1,2.45,3.44c1.91,3.72,2.7,3.91,5.48.66A13.4,13.4,0,0,0,174,111.23c-.38-1.93-1.09-2.24-2.86-1.65a22.13,22.13,0,0,1-5,1,2.92,2.92,0,0,1-3.29-2.69,3,3,0,0,1,2.13-3.31,25.47,25.47,0,0,1,2.88-.78c8.34-2.29,13.63-9,13.72-17.41.09-8.66-5.1-15.55-13.56-18A18.44,18.44,0,0,0,166,67.8c-2.16-.37-3.5-1.64-3.05-3.81s2.26-2.76,4.35-2.38a28.47,28.47,0,0,1,2.92.59c4.51,1.26,4.72,1,3.75-3.73A12.84,12.84,0,0,0,166.69,49c-2.55-1.22-3.75-2.65-3.26-5.6.66-4-.92-7-4.88-8.4s-6.86.37-8.92,3.8c-1.15,1.91-2.67,3.16-4.9,1.65s-1.59-3.4-.55-5.27a10.48,10.48,0,0,1,4.3-4.65c2.53-1.21,2.26-2.84,1.27-4.86a14.73,14.73,0,0,0-4.21-5.3c-4.2-3.21-5.18-2.9-6.82,2.08a16.69,16.69,0,0,1-1.14,2.76c-1,1.83-2.5,2.94-4.55,1.88s-2.34-2.72-1.26-4.7c4.42-8.09-3.67-17.47-13.43-15.54-3.64.72-6,2.25-5.47,6.54a65.72,65.72,0,0,1,.06,7.69Z"/><path class="cls-1" d="M24,134.07c7.36-2.91,12.42-.36,17.13,4.41,11.21,11.36,22.62,22.54,34,33.75A33.54,33.54,0,0,1,85.66,197.5c-.07,5.41,0,10.83,0,16.25,0,2.49.15,5.36-3.29,5.29s-3.12-3.07-3.14-5.47q-.06-7.9,0-15.82a28.32,28.32,0,0,0-9-21.37c-11.53-11.24-22.92-22.64-34.36-34-.31-.3-.6-.62-.92-.9-2.88-2.61-6.45-2.89-8.83-.69-2.68,2.46-2.67,5.81.3,9.07,7.49,8.22,15.06,16.35,22.6,24.52.87,1,1.78,1.86,2.55,2.88,1.18,1.54,1.36,3.28-.18,4.59s-3.17,1-4.61-.34c-.71-.69-1.4-1.42-2.08-2.15-7.14-7.76-14.13-15.67-21.48-23.23-4.09-4.19-5.67-8.83-5.57-14.61.25-13.39.12-26.8.05-40.2,0-5.53-2.38-9.21-6.49-10.43-2.69-.8-4.67-.74-4.64,3.09.1,19.67.08,39.35,0,59,0,3.86,2,6.69,4.26,9.5q16.44,20.24,32.81,40.53a30.37,30.37,0,0,1,6,11.7,3.2,3.2,0,0,1-2,4.17,2.83,2.83,0,0,1-4-2.09c-2.05-8-8-13.33-12.85-19.43-8.55-10.85-17.33-21.53-26.07-32.24a19.62,19.62,0,0,1-4.6-13c.09-19.53,0-39.06,0-58.59,0-7.8,4.88-11.32,12.43-9A15.57,15.57,0,0,1,24,99.75C24.11,111,24,122.23,24,134.07Z"/><path class="cls-1" d="M109,117.36c-19.24-.47-37.73-18.56-38.73-37.92-.28-5.2,2.71-8.24,8.09-7.81,1.87.16,2.67-.27,2.84-2,.08-.85.15-1.71.31-2.54,1.82-9.54,6.28-11.76,14.73-6.87,3,1.73,4.24,1.56,6.07-1.51,4.54-7.61,9.75-7.54,14.41.08,1.68,2.75,3,3.51,5.82,1.5,2.15-1.51,4.64-3,7.5-2.63,4.77.7,6.39,4.18,7.09,8.43.52,3.15.34,6.53,5.68,5.61,3.3-.56,6.34,3.52,6,7-2.46,22.58-18.23,36.6-38.91,38.7A8.22,8.22,0,0,1,109,117.36Zm9.25-32c.14-8.2-2.44-15.58-6.47-22.62-2-3.42-3-2.67-4.64.16-8.66,15-8.59,29.88.07,44.87,2,3.43,3,2.63,4.66-.18C115.83,100.73,118.31,93.45,118.21,85.39Zm-18,23.52c-3.24-6.45-6-12.39-5.7-18.54.35-7.09-3.76-9-8.94-10.6-1.62-.51-3.35-.69-4.94-1.27-3.63-1.32-4.21.28-3.53,3.4C79.94,94.57,87,103.66,100.25,108.91Zm18.44,0c13.65-5.4,20.61-15,23.21-28,.25-1.28.85-3.2-1.69-2.77a39.19,39.19,0,0,0-14,4.9,2.65,2.65,0,0,0-1.31,2.48A54.17,54.17,0,0,1,118.69,108.86Zm13.13-37.28c-1.6-2.32.29-6.68-3.25-6.84-2.13-.1-6.47,1.11-6.19,4.76.16,2.1-.42,6.26,3,6.27C127.38,75.77,130.87,74.94,131.82,71.58ZM87.39,70.8c-.08,2.38,3.18,5.51,6.22,5.1s2-4.21,3-6.39c.59-1.26-4.41-5.47-6.39-5C86.78,65.34,88.55,69,87.39,70.8Z"/><path class="cls-1" d="M195.13,133.6c0-11.3-.07-22.54,0-33.79a15.76,15.76,0,0,1,15.67-15.87c4.8.06,8.12,3.11,8.27,7.9.15,4.42,0,8.85.06,13.27,0,2.29-.67,4.21-3.07,4.31-2.77.11-3.42-2.09-3.44-4.44,0-3.56,0-7.13,0-10.69-.07-3.76-1.19-4.52-4.74-3.34-4.06,1.34-6.32,4.94-6.34,10.55-.06,13-.3,26,.09,38.93a21.31,21.31,0,0,1-6.57,16.82c-6.93,7-13.36,14.44-20.1,21.61-1.9,2-3.88,5.89-7.15,2.8-3-2.85.48-5.07,2.27-7,7.29-8,14.68-15.94,22-23.91,3.53-3.84,3.91-7,1.19-9.74s-6.33-2.08-9.75,1.3C172,153.69,160.5,165.2,148.86,176.55a28,28,0,0,0-8.89,21c0,5.56,0,11.13,0,16.69,0,2.41-.26,4.95-3.42,4.81-2.77-.13-3.11-2.43-3-4.75.33-8-.72-16,.63-23.9a32.13,32.13,0,0,1,9.5-17.78q16.72-16.55,33.43-33.13C184.2,132.44,185.32,132.08,195.13,133.6Z"/><path class="cls-1" d="M219.14,138.59c-.21,23.75,2.22,18.07-13,36.91-7.87,9.75-15.72,19.53-23.64,29.24-2.81,3.44-5.43,6.93-6.57,11.34-.56,2.14-1.91,3.73-4.36,2.79s-2.43-2.87-1.78-5A31.89,31.89,0,0,1,175.61,203c10.68-13.16,21.2-26.45,32-39.48,3.48-4.19,5.27-8.48,5.07-14-.31-8.25-.08-16.53-.08-24.79,0-1,0-2,.05-3,.17-2,.87-3.72,3.3-3.61s3.14,1.62,3.14,3.75Q219.13,130.26,219.14,138.59Z"/></g></g></svg>