<svg xmlns="http://www.w3.org/2000/svg" viewBox="0 0 236.07 271.59"><defs><style>.cls-1{fill:#c98b5f;}.cls-2{fill:#6c2912;}.cls-3{fill:#693115;}</style></defs><g id="Capa_2" data-name="Capa 2"><g id="Capa_1-2" data-name="Capa 1"><rect class="cls-1" width="236.07" height="271.59" rx="35.2"/><path class="cls-2" d="M171.83,190.43c0-2.63,0-5.26,0-7.89a3.54,3.54,0,0,1,1.11-2.84c.59-.53.65-.92,0-1.48a3.62,3.62,0,0,1-1.13-3c0-2.87,0-5.74,0-8.61a4.19,4.19,0,0,1,1.38-3.32c.94-.88,1.84-1.82,2.75-2.73.23-.24.53-.46.45-.84s-.53-.31-.82-.31c-1,0-1.46-.51-1.45-1.51q0-3.09,0-6.17c0-1.11.52-1.53,1.59-1.53q6.45,0,12.91,0c1.07,0,1.6.42,1.59,1.53,0,2.06,0,4.11,0,6.17,0,1-.43,1.51-1.46,1.51-.29,0-.72-.19-.81.31s.22.61.46.84c.94.95,1.88,1.91,2.84,2.84a3.94,3.94,0,0,1,1.27,3.07q0,4.38,0,8.76a3.67,3.67,0,0,1-1.14,3c-.64.56-.54,1,0,1.47a3.73,3.73,0,0,1,1.1,3c0,5.12,0,10.24,0,15.35a4,4,0,0,1-1.21,3.24c-.52.45-.51.78,0,1.26a3.39,3.39,0,0,1,.86,4.17,3.68,3.68,0,0,1-3.75,2.1q-6.24-.06-12.49,0a3.67,3.67,0,0,1-3.74-2.11,3.4,3.4,0,0,1,.88-4.17c.52-.49.48-.82,0-1.26a3.92,3.92,0,0,1-1.2-3.24C171.86,195.5,171.83,193,171.83,190.43Zm16.56-12.55H175.94a1.4,1.4,0,0,1-.3,2.31A4.1,4.1,0,0,0,174.1,184c.09,4.54.06,9.08,0,13.62a3.27,3.27,0,0,0,1.08,2.65c1.73,1.65,1.7,1.69,0,3.39l-.4.41c-.46.45-.86.94-.56,1.64s.93.85,1.65.84c1.77,0,3.54,0,5.31,0h7.46a1.42,1.42,0,0,0,1.41-.79c.3-.62,0-1.09-.39-1.55a2.76,2.76,0,0,0-2.45-1.13c-2.48.1-5,0-7.46.05-1,0-1.08-.36-1.08-1.17s.12-1.2,1.08-1.18c2.48.07,5,0,7.46,0a2.63,2.63,0,0,0,3-3c0-4.73,0-9.47,0-14.2a3.68,3.68,0,0,0-1.38-3.25C188.06,179.73,187.41,179,188.39,177.88ZM182,175.5c2.38,0,4.77,0,7.16,0,.83,0,1-.26,1-1.06,0-2.39,0-4.78,0-7.16,0-.73-.17-1-1-1q-7.09,0-14.18,0c-.77,0-1,.24-1,1,0,2.39.06,4.78,0,7.16,0,1,.38,1.08,1.18,1.06C177.53,175.47,179.77,175.5,182,175.5Zm0-18.37h2.43c3.51,0,3.47,0,3.43-3.52,0-.93-.33-1.1-1.16-1.08-2.29,0-4.58,0-6.87,0-3.62,0-3.59,0-3.5,3.59,0,.86.32,1,1.09,1C179,157.1,180.54,157.13,182.07,157.13Zm6.22,6.78c-.85-1.53-2.9-2.08-2.72-4.13,0-.32-.28-.34-.51-.34h-5.73c-.4,0-.67.13-.6.57.16,1-.53,1.55-1.12,2.18s-1.23,1-1.55,1.84H187.8A2.81,2.81,0,0,0,188.29,163.91Z"/><path class="cls-2" d="M128.05,172.06c-1.1-3-1.93-5.76.9-8a4.37,4.37,0,0,1,5.23-.12c3,2.25,2.15,5.15,1.08,8.14,2.11,0,4.11,0,6.11,0a1.63,1.63,0,0,1,1.89,1.46,26.61,26.61,0,0,1,1.05,7.33q-.13,9.88,0,19.78a26.77,26.77,0,0,1-1.14,7,1.38,1.38,0,0,1-1.53,1.17q-7.66,0-15.34,0a1.45,1.45,0,0,1-1.61-1.26,26.56,26.56,0,0,1-1.11-7.17c.09-7,.07-14,0-21.07,0-2.21.73-4.21,1.19-6.3a1.15,1.15,0,0,1,1.25-.95Zm-2.14,18.31q0,5.22,0,10.46c0,.48-.18,1,.68,1.1,3.74.43,3.9.33,3.9-3.35,0-.39,0-.77,0-1.15a13.33,13.33,0,0,1,4-10.36,10.35,10.35,0,0,0,2.91-7c.05-.82-.1-1.19-1.06-1.17-3.1.06-6.21,0-9.31,0-.88,0-1.14.22-1.13,1.12C125.94,183.49,125.91,186.93,125.91,190.37Zm6.89,7.92c0,.91.06,1.82,0,2.72s.55.89,1.18.9,1.16,0,1.15-.93a12.73,12.73,0,0,1,3.9-9.24,10.18,10.18,0,0,0,2.77-5.39c.38-2.09.08-4.2.21-6.29.06-.88-.21-1.15-1.1-1.14s-1.23.19-1.23,1.17a11.3,11.3,0,0,1-3.1,8.1A12.16,12.16,0,0,0,132.8,198.29Zm1.08-21.64c2.15,0,4.3,0,6.44,0,.4,0,1.24.42,1.13-.46-.09-.7.19-1.86-1.21-1.82s-3.06,0-4.58,0c-2.58,0-5.16.08-7.74,0-1.53-.07-1.45,1-1.49,1.86s.87.42,1.29.43C129.77,176.69,131.83,176.65,133.88,176.65Zm.14,27.56c-2.3,0-4.59,0-6.88,0-.29,0-.88-.25-.74.47.18.93.11,2,1.68,1.84s3,0,4.58,0c2.38,0,4.78-.11,7.15,0,1.57.1,1.66-.93,1.64-1.85s-.94-.44-1.42-.46C138,204.17,136,204.21,134,204.21Zm8-12.15c-2.46,2.2-4.13,4.61-4.54,7.74-.27,2.11-.28,2.11,1.77,2.11.66,0,1.33,0,2,0s.78-.15.77-.72C142,198.2,142,195.21,142,192.06Zm-12.56-24.6c1.31,0,2.53,0,3.74,0,.81,0,.74-.36.45-.85a2.11,2.11,0,0,0-2.13-1.14A2.2,2.2,0,0,0,129.42,167.46Zm2.26,2.23c-.57.35-1.68-.43-1.7.51a1.68,1.68,0,1,0,3.34,0C133.3,169.19,132.2,170.09,131.68,169.69Z"/><path class="cls-2" d="M158,208.8c-1.87,0-3.73,0-5.6,0-3.85-.06-6.75-3.62-5.32-7.16,1.89-4.67,1.53-9.31,1-14.08-.57-5.46-1-10.94-1.42-16.42a10.86,10.86,0,0,1,.58-3.95c1.52-5.17,3-10.34,4.57-15.5a11,11,0,0,0,.5-3.37c0-.91.1-1.75-1.27-1.56-.51.08-.86-.37-1-.86-1.06-3.49.81-6,4.48-6,2.63,0,5.26,0,7.89,0a3.44,3.44,0,0,1,3.67,3.68c0,.53,0,1,0,1.58.05,1-.34,1.69-1.47,1.63-.6,0-.86.14-.84.79a14.13,14.13,0,0,0,.38,3.82c1.53,5,2.92,10.07,4.51,15.07a19.55,19.55,0,0,1,.51,7.79c-.57,6.52-1.07,13-1.73,19.56-.28,2.76.88,5.13,1.6,7.63a5.57,5.57,0,0,1-5.48,7.34Zm0-2.3h5c3.32,0,4.66-1.89,3.61-5.08-.71-2.17-1.73-4.29-1.56-6.64.35-4.62.71-9.24,1.22-13.84.71-6.43,1.35-12.83-1.39-19a3.41,3.41,0,0,1-.23-.68c-1-4.62-3.4-8.94-3.18-13.85,0-.67-.44-.61-.87-.61-1.67,0-3.35,0-5,0-.87,0-1.06.34-1,1.1a12.76,12.76,0,0,1-.62,4.78c-1.51,5-3,10-4.43,14.94a11.3,11.3,0,0,0-.47,4.37c.62,6.61,1.13,13.23,1.76,19.84a16.85,16.85,0,0,1-1.06,8.69,12.52,12.52,0,0,0-.49,1.5,3.26,3.26,0,0,0,3.25,4.49C154.37,206.52,156.18,206.5,158,206.5Zm.05-62c1.63,0,3.25,0,4.88,0,.7,0,.92-.22.87-.9-.05-.85-.42-1.36-1.3-1.39s-1.53,0-2.29,0c-2.2,0-4.4,0-6.6,0-1,0-1.27.63-1.3,1.52,0,1.13.78.73,1.29.75C155.08,144.53,156.57,144.5,158.05,144.5Z"/><path class="cls-2" d="M181.32,190.48a15.05,15.05,0,0,1-2.26,7.83c-.29.46-.53,1-1.15.39-.44-.44-1.53-.47-.83-1.65a12.22,12.22,0,0,0,0-13.27c-.71-1.2.45-1.2.88-1.64.64-.65.87,0,1.13.43A15.11,15.11,0,0,1,181.32,190.48Z"/><path class="cls-2" d="M183,190.36a15,15,0,0,1,2.26-7.82c.29-.46.54-1,1.15-.39.45.45,1.53.48.83,1.66a12.22,12.22,0,0,0,0,13.27c.71,1.2-.45,1.2-.88,1.64-.64.65-.87,0-1.13-.44A15,15,0,0,1,183,190.36Z"/><path class="cls-2" d="M153.51,175.52c-.8-.14-1.24-.54-1.17-1.28a1.13,1.13,0,0,1,2.25.08C154.61,175.08,154.1,175.39,153.51,175.52Z"/><path class="cls-2" d="M158.08,173.2c.64.1,1.09.44,1.1,1.11a1.13,1.13,0,1,1-2.25-.05A1.11,1.11,0,0,1,158.08,173.2Z"/><path class="cls-2" d="M162.73,173.21a1.1,1.1,0,0,1,1,1.14,1.12,1.12,0,1,1-2.24-.13A1.1,1.1,0,0,1,162.73,173.21Z"/><path class="cls-2" d="M154.63,178.83c-.1.81-.48,1.27-1.22,1.24a1,1,0,0,1-1.07-1.1,1.05,1.05,0,0,1,1.17-1.15A1.17,1.17,0,0,1,154.63,178.83Z"/><path class="cls-2" d="M159.21,178.88c-.06.72-.42,1.19-1.16,1.19a1,1,0,0,1-1.12-1.06,1.05,1.05,0,0,1,1.13-1.19C158.73,177.81,159.08,178.24,159.21,178.88Z"/><path class="cls-2" d="M163.8,178.92c-.08.71-.45,1.17-1.19,1.15a1,1,0,0,1-1.09-1.09,1,1,0,0,1,1.16-1.16A1.12,1.12,0,0,1,163.8,178.92Z"/><path class="cls-2" d="M154.61,183.56c-.1.69-.48,1.15-1.22,1.1a1,1,0,0,1-1-1.13,1,1,0,0,1,1.2-1.12A1.12,1.12,0,0,1,154.61,183.56Z"/><path class="cls-2" d="M158,182.39a1.11,1.11,0,0,1,1.17,1,1.13,1.13,0,1,1-2.25.07A1.1,1.1,0,0,1,158,182.39Z"/><path class="cls-2" d="M163.8,183.59c-.13.69-.52,1.14-1.26,1.07a1,1,0,0,1-1-1.15,1.05,1.05,0,0,1,1.23-1.09A1.11,1.11,0,0,1,163.8,183.59Z"/><path class="cls-2" d="M154.61,188.09c-.07.71-.43,1.18-1.17,1.17a1.13,1.13,0,1,1,.05-2.25C154.15,187,154.5,187.44,154.61,188.09Z"/><path class="cls-2" d="M156.9,188.18a1.11,1.11,0,0,1,1-1.17,1.13,1.13,0,1,1,.08,2.25A1.12,1.12,0,0,1,156.9,188.18Z"/><path class="cls-2" d="M163.8,188.15c-.11.7-.49,1.15-1.23,1.11a1.13,1.13,0,0,1,.15-2.25C163.38,187,163.72,187.48,163.8,188.15Z"/><path class="cls-2" d="M178.55,57.09c-.74-7-7.87-11.81-15.15-10.21-.77.17-1.51.35-1.79-.57-.33-1.1.5-1.36,1.35-1.57A14.44,14.44,0,0,1,180.3,54.81a8.76,8.76,0,0,0,3.43,5.13A13.65,13.65,0,0,1,189,74.14a14,14,0,0,1-9.72,11,2.05,2.05,0,0,0-1.51,1.79,92.11,92.11,0,0,1-3,9.37,4.73,4.73,0,0,1-2.56,2.24,14.45,14.45,0,0,0-3.7,2.71,5.84,5.84,0,0,1-5.36,1.82,17.83,17.83,0,0,0-5.31,0,5.35,5.35,0,0,1-4.66-1.39c-1.5-1.45-3.4-2.37-4.93-3.69s-2.83-1.4-4.79-.77c-5.57,1.79-11.27-2.86-11-8.74a1.43,1.43,0,0,0-.93-1.65,6.45,6.45,0,0,1-3.92-5.46,10.69,10.69,0,0,0-1.3-3.78,6.22,6.22,0,0,1,0-6.07,14.22,14.22,0,0,0,1.44-4.49,6.28,6.28,0,0,1,4-4.93c1.24-.56,1.9-1.13,1.57-2.8-.41-2,.7-3.6,2.48-4.64a9.4,9.4,0,0,1,3.77-1.32c.75-.07,1.11-.29,1.19-1.2a4.88,4.88,0,0,1,5.67-4.4,10.74,10.74,0,0,1,6.61,3.18c.67.69.9.46,1.32-.2a12.78,12.78,0,0,1,2.8-3.07c.57-.45,1.16-.83,1.76-.17s.27,1.31-.36,1.84a12.49,12.49,0,0,0,.33,19.51c.35.28.86,1,1.25.46a1.51,1.51,0,0,0-.06-2c-.93-1-1.77-2-2.63-3.06a2.84,2.84,0,0,1-.68-2.93,1.3,1.3,0,0,0-.25-1.32,3,3,0,0,1-.33-3c.39-1,.76-2.07,1.13-3.11.19-.55.4-1.29.91-1.41,2-.45,2.55-2.9,4.52-3.36a16.68,16.68,0,0,1,3.54-.59c2.42,0,4.54,1.22,6.61,2.23,1.22.6,2,2.18,2.89,3.34a1.16,1.16,0,0,1,.34.77C175.68,56.92,177.08,57,178.55,57.09Zm-4.08,1.78a10,10,0,0,0-3.35.47,12.45,12.45,0,0,0-6.92,18.73c.41.66,1,1.38.09,2s-1.48-.11-1.94-.82a14.55,14.55,0,0,1-2-4.88c-.55-2.38-.64-2.47-3.12-2.51-.24,0-.48,0-.72,0a2.76,2.76,0,0,0-2.6,3.34,8.59,8.59,0,0,1-4,9c-.64.43-.78.73-.5,1.48a8.54,8.54,0,0,1-.68,7.6c-.95,1.6-.91,2.08.75,3a24.24,24.24,0,0,1,5.09,3.73,3.73,3.73,0,0,0,3.5.84,13,13,0,0,1,4.86,0,4.07,4.07,0,0,0,3.95-1.18,16.55,16.55,0,0,1,4.41-3.2,3.15,3.15,0,0,0,1.9-2,33.32,33.32,0,0,1,2.31-7.08c.51-1.12.09-1.46-1.13-1.47a13.92,13.92,0,0,1-7-1.92c-.69-.39-1.47-.82-1-1.76s1.27-.63,2-.19c.25.15.5.29.76.42a12.44,12.44,0,1,0,5.33-23.6Zm-31.6,9.39a5.63,5.63,0,0,1-.8-3.49c.05-.51.64-1.06-.11-1.54s-1.25-.14-1.88.14a4.57,4.57,0,0,1-4.42-.17,1.26,1.26,0,0,0-1.66.06,9.32,9.32,0,0,1-1.73,1,4.09,4.09,0,0,0-2.45,3.31,16,16,0,0,1-1.72,5.16,3.72,3.72,0,0,0,0,3.59,16.28,16.28,0,0,1,1.74,5.3,4.15,4.15,0,0,0,2.41,3.18c.66.37,1,.31,1.33-.37a7.27,7.27,0,0,1,3-3.07c.74-.41.72-.81.43-1.49a7.93,7.93,0,0,1-.55-3.24,1.09,1.09,0,0,1,.89-1.16,1,1,0,0,1,1.11.5c.25.38.13.83.16,1.26a6.68,6.68,0,0,0,7.17,6.16,6.58,6.58,0,0,0,6.07-6.8,6.3,6.3,0,0,0-4-5.84,6.38,6.38,0,0,0-7.3,1.41c-.57.52-1.11,1.27-1.92.47s-.14-1.47.44-2.07A10.47,10.47,0,0,1,142.87,68.26Zm4.95,20.51a6.5,6.5,0,0,0-.49-2.39,1,1,0,0,0-1.24-.81,8.18,8.18,0,0,1-6.64-2.14,1.33,1.33,0,0,0-2-.1,6.64,6.64,0,0,0-2.39,8,6.57,6.57,0,0,0,7.06,4A6.68,6.68,0,0,0,147.82,88.77Zm-6.58-33.35a7.74,7.74,0,0,0-4.52,1.21,2.65,2.65,0,0,0-1.06,3.61,2.58,2.58,0,0,0,3.46,1.15,4.31,4.31,0,0,1,4.11,0,2.54,2.54,0,0,0,3.44-1.16,2.63,2.63,0,0,0-1.06-3.61A7.73,7.73,0,0,0,141.24,55.42Zm1.59-2.88c-.14.72.4.82,1,1,2.16.62,4.2,1.45,5.09,3.78.11.3.25.52.61.44.77-.16,2,0,2.2-.61.27-1.2,1.3-2.51.46-3.69a7.85,7.85,0,0,0-7-3.49A2.53,2.53,0,0,0,142.83,52.54ZM152.89,65a18.53,18.53,0,0,1-1.1-4.57c0-.36-.14-.69-.58-.63-1,.11-2,.06-2.5,1.25a4.34,4.34,0,0,1-3.17,2.66,1.48,1.48,0,0,0-1.26,1.61,2.45,2.45,0,0,0,1.56,2.64,2.38,2.38,0,0,0,3.09-.75A4.48,4.48,0,0,1,152.89,65Zm17.74-13c-.22.14-.5.23-.58.41a17.29,17.29,0,0,0-1.33,3.59,1.34,1.34,0,0,0,1.42,1.39,25,25,0,0,0,3.05-.71c.77-.2,1.06-.73.57-1.39-.77-1-1.63-2-2.48-3A2.07,2.07,0,0,0,170.63,51.94Zm-3.9-1.29c-1.18.22-2.36.4-3.53.66-.88.2-1.07.8-.56,1.5a13.2,13.2,0,0,0,2.05,2.41,1.2,1.2,0,0,0,2-.41,20.32,20.32,0,0,0,1-2.83C167.94,51.18,167.64,50.67,166.73,50.65ZM159,59.16c1.18-.21,2.23-.35,3.26-.59a1.4,1.4,0,0,0,.62-2A28.54,28.54,0,0,0,161,54.3c-.59-.61-1.25-.6-1.61.23a35.57,35.57,0,0,0-1.22,3.37C157.85,58.78,158.37,59.12,159,59.16Zm-2.74,10.38c-1.38-1-1.72-3-4-2.36-1.19.34-1.52,1.29-2.08,2-.34.46.67.74,1,1.19.75,1.13,1.53,1.35,2.54.25A5.72,5.72,0,0,1,156.29,69.54Zm4.86-4.13a20.39,20.39,0,0,1,2.23-3.48c.19-.23.33-.44.11-.75a.83.83,0,0,0-1-.43c-.93.2-1.89.29-2.82.5s-1.3.82-.66,1.67S160.39,64.51,161.15,65.41Zm4.37-5.63c.38-.26.83-.54,1.24-.85s.85-.26.65-.77a1.05,1.05,0,0,0-1.2-.58A1.37,1.37,0,0,0,165,59.19C165,59.43,165.05,59.78,165.52,59.78Z"/><path class="cls-2" d="M156,38.6c-16,.06-30.79,12.75-33,29.77-1.85,14.47,3.51,25.9,15.56,34.17.23.16.49.29.72.47.54.4,1,.86.5,1.56a1.09,1.09,0,0,1-1.64.27,26.82,26.82,0,0,1-4.45-3.17c-11.47-10.2-15.88-22.92-12-37.75,3.84-14.65,13.78-23.77,28.61-26.83,20.6-4.25,40.37,10,43.56,30.9a37,37,0,0,1-50.18,39.64,2.35,2.35,0,0,1-1.21-.72,1,1,0,0,1,0-1.21,1.2,1.2,0,0,1,1.57-.29,38.19,38.19,0,0,0,6.87,2c18.1,3.7,36.89-8.88,40.38-27.07a34.72,34.72,0,0,0-26.23-40.92A37.93,37.93,0,0,0,156,38.6Z"/><path class="cls-2" d="M164.34,71.31c-.11-1.8-.23-3.61,1.69-4.68.13-.07.2-.3.25-.47.62-2.18,3.81-5.13,6.06-5.07,1.52,0,3,0,4.54,0,2.24-.07,5.56,2.91,6.08,5a1,1,0,0,0,.47.65A3.46,3.46,0,0,1,185,70.11c0,1.15.28,2.44-.13,3.43a20.49,20.49,0,0,1-3.08,5.36,7.53,7.53,0,0,1-4.18,2.41,16.65,16.65,0,0,1-5.89,0,7.75,7.75,0,0,1-4.3-2.48,23.51,23.51,0,0,1-3-5.25A5.77,5.77,0,0,1,164.34,71.31Zm9.16-5.49h0V64.67c0-1.51-.52-1.79-1.85-1.06-.83.47-1.67.93-2.48,1.45s-.92,1.2,0,1.78a24.59,24.59,0,0,0,2.48,1.44c.93.45,1.56-.07,1.85-.89A4.83,4.83,0,0,0,173.5,65.82Zm2.24-.14c.12.73-.27,1.55.2,2.13.81,1,1.69.49,2.62,0,2.92-1.62,3-2.09,0-3.61-.73-.38-1.41-1.3-2.31-.84S176,64.92,175.74,65.68Zm-2.19,11.13c-.17-.67.24-1.48-.23-2.06-.84-1-1.71-.45-2.63,0-3,1.62-2.89,2.1,0,3.61.73.37,1.4,1.31,2.31.81S173.33,77.64,173.55,76.81Zm2.21,0c0,.34,0,.67,0,1,0,1.52.51,1.83,1.81,1.11.84-.46,1.68-.92,2.48-1.44s.93-1.25,0-1.87c-.76-.49-1.55-.94-2.36-1.36a1.31,1.31,0,0,0-1.9,1A13.87,13.87,0,0,0,175.76,76.86Zm-9.23-5.62v1.29c0,1.57.48,1.84,1.83,1.11.71-.39,1.43-.78,2.11-1.22a1.32,1.32,0,0,0,0-2.28c-.32-.21-.67-.38-1-.59C167.08,68.05,166.35,67.92,166.53,71.24Zm16.2.17c0-.55,0-1,0-1.42,0-1.52-.49-1.78-1.86-1-.72.39-1.41.83-2.13,1.21-.87.46-.64,1.29-.4,1.85s.88.72,1.4.94c.83.35,1.55,1.47,2.55.87S182.52,72.14,182.73,71.41Zm-8,1.32A1.42,1.42,0,0,0,176,71.31a1.3,1.3,0,0,0-1.44-1.42,1.31,1.31,0,0,0-1.36,1.51A1.43,1.43,0,0,0,174.68,72.73Z"/><path class="cls-2" d="M158.77,80.12c0,.71-.2,1.16-.82,1.29a1,1,0,0,1-1.29-.81,14.45,14.45,0,0,1-.41-2.24,1.07,1.07,0,0,1,2.1-.37C158.56,78.73,158.65,79.49,158.77,80.12Z"/><path class="cls-2" d="M163.38,87.48c.05.77-.21,1.25-.87,1.37a1,1,0,0,1-1.24-.89c-.15-.69-.32-1.39-.4-2.09a1.07,1.07,0,0,1,.9-1.26,1,1,0,0,1,1.25.89C163.2,86.18,163.28,86.89,163.38,87.48Z"/><path class="cls-2" d="M154.86,94.93c-.84,0-1.15-.19-1.35-.63a.88.88,0,0,1,.25-1.15,6.76,6.76,0,0,1,2.76-1.06c.52-.1.89.31,1,.79a.87.87,0,0,1-.41,1.11C156.32,94.4,155.42,94.71,154.86,94.93Z"/><path class="cls-2" d="M163.08,93.49a1.16,1.16,0,0,1,1.14,1,5.53,5.53,0,0,1-1.78,3,1,1,0,0,1-1.26-.4,1.41,1.41,0,0,1,.21-1.61C161.9,94.75,162,93.69,163.08,93.49Z"/><path class="cls-2" d="M156.79,87.31c0,.65-.27,1.06-.71,1.1a4.69,4.69,0,0,1-3.15-1,.93.93,0,0,1-.06-1.31.87.87,0,0,1,.58-.36,4.93,4.93,0,0,1,3.14,1.12C156.75,86.93,156.76,87.23,156.79,87.31Z"/><path class="cls-2" d="M168.73,90.85c-.52-.11-2.06.34-1.85-1.3.19-1.48,1.52-.82,2.46-.75.14,0,.28,0,.42,0,.77,0,1.4.35,1.29,1.17C170.9,91.11,170,91,168.73,90.85Z"/><path class="cls-2" d="M64.27,208.49H33.61c-3.08,0-4.39-1.32-4.4-4.41,0-1.16,0-2.32,0-3.47s.48-2,1.77-1.78c1.68.26,2-.5,1.9-2a30.94,30.94,0,0,1,24.48-31.13,4.5,4.5,0,0,1,.73-.15c1.54-.17,2.9-.19,2.73-2.56-.13-1.73,2-3,3.79-2.88a3.54,3.54,0,0,1,3.28,3.66c-.06,1.07.14,1.38,1.29,1.55a31.19,31.19,0,0,1,26.17,25.51,28.87,28.87,0,0,1,.37,6.63c-.06,1,.19,1.4,1.3,1.37,2.3-.07,2.35,0,2.35,2.39,0,1.11,0,2.22,0,3.32a3.64,3.64,0,0,1-4,3.93Zm0-9.68h3.48c8,0,16,0,24,0,1.29,0,1.63-.36,1.54-1.6-.12-1.6-.07-3.21-.26-4.82-1.9-16.17-17.59-27.49-34-24.59a28.83,28.83,0,0,0-23.87,29.42c0,1.21.26,1.6,1.55,1.59C46,198.78,55.12,198.81,64.28,198.81Zm0,2.42c-10.33,0-20.65,0-31,0-1.43,0-1.88.43-1.67,1.75a1.51,1.51,0,0,1,0,.3c0,2.81,0,2.81,2.74,2.81H93.61c3.33,0,3.27,0,3.36-3.28,0-1.25-.3-1.59-1.57-1.58C85,201.26,74.65,201.23,64.28,201.23Zm1.2-37.5a1.19,1.19,0,0,0-1.17-1.16,1.09,1.09,0,0,0-1.19,1.11,1.1,1.1,0,0,0,1.21,1.23A1.18,1.18,0,0,0,65.48,163.73Z"/><path class="cls-2" d="M45,131.09a13.83,13.83,0,0,1,7.59,3.13c.54.43,1,.89.75,1.65s-1,.81-1.76.76a9,9,0,1,0-.08,18c.75-.06,1.47-.13,1.81.67s-.29,1.37-.89,1.85c-8.21,6.53-20.87,1.84-22.88-8.47C27.73,139.44,34.45,131.09,45,131.09Zm2.91,3.29a11.83,11.83,0,0,0-14.19,4.48,12.17,12.17,0,0,0,1.21,15c3.18,3.46,9.19,4.91,12.77,2.82-5.14-1.93-8.21-5.47-8.25-11S42.5,136.46,47.89,134.38Z"/><path class="cls-2" d="M39.71,188.08c.08-.23.18-.57.3-.9A25.59,25.59,0,0,1,50.94,174c.76-.46,1.57-1,2.23,0s-.12,1.55-.89,2a23.08,23.08,0,0,0-10.1,12.35c-.25.72-.63,1.29-1.52,1.15C39.92,189.38,39.7,188.87,39.71,188.08Z"/><path class="cls-2" d="M186.32,38.33a9.11,9.11,0,1,1,9.12-9.09A9.12,9.12,0,0,1,186.32,38.33Zm0-16.56a7.46,7.46,0,1,0,7.44,7.48A7.51,7.51,0,0,0,186.35,21.77Z"/><path class="cls-2" d="M182.3,28.3a.93.93,0,0,1,.7.32c.61.61,1.23,1.21,1.83,1.84.18.19.28.19.47,0,1.43-1.45,2.88-2.88,4.32-4.33a.91.91,0,0,1,.87-.35.82.82,0,0,1,.49,1.33,2.34,2.34,0,0,1-.22.23l-4.95,4.95c-.54.53-.95.54-1.48,0-.84-.83-1.68-1.66-2.51-2.51a.82.82,0,0,1,.26-1.43A1.56,1.56,0,0,1,182.3,28.3Z"/><path class="cls-2" d="M99.43,38.33a9.11,9.11,0,1,1,9.13-9.09A9.12,9.12,0,0,1,99.43,38.33Zm0-16.56a7.46,7.46,0,1,0,7.44,7.48A7.51,7.51,0,0,0,99.46,21.77Z"/><path class="cls-2" d="M95.41,28.3a.93.93,0,0,1,.7.32c.61.61,1.23,1.21,1.83,1.84.19.19.28.19.47,0,1.43-1.45,2.88-2.88,4.32-4.33a.91.91,0,0,1,.87-.35.82.82,0,0,1,.49,1.33,2.34,2.34,0,0,1-.22.23l-5,4.95a.88.88,0,0,1-1.48,0c-.84-.83-1.68-1.66-2.51-2.51a.82.82,0,0,1,.26-1.43Z"/><path class="cls-2" d="M186.32,139.27a9.11,9.11,0,1,1,9.12-9.09A9.12,9.12,0,0,1,186.32,139.27Zm0-16.56a7.46,7.46,0,1,0,7.44,7.48A7.51,7.51,0,0,0,186.35,122.71Z"/><path class="cls-2" d="M182.3,129.24a.93.93,0,0,1,.7.32c.61.61,1.23,1.21,1.83,1.84.18.19.28.19.47,0,1.43-1.45,2.88-2.88,4.32-4.33a.91.91,0,0,1,.87-.35.82.82,0,0,1,.49,1.33,2.34,2.34,0,0,1-.22.23l-4.95,4.95a.88.88,0,0,1-1.48,0c-.84-.83-1.68-1.66-2.51-2.51a.82.82,0,0,1,.26-1.43A1.56,1.56,0,0,1,182.3,129.24Z"/><path class="cls-2" d="M99.43,139.27a9.11,9.11,0,1,1,9.13-9.09A9.12,9.12,0,0,1,99.43,139.27Zm0-16.56a7.46,7.46,0,1,0,7.44,7.48A7.51,7.51,0,0,0,99.46,122.71Z"/><path class="cls-2" d="M95.41,129.24a.93.93,0,0,1,.7.32c.61.61,1.23,1.21,1.83,1.84.19.19.28.19.47,0,1.43-1.45,2.88-2.88,4.32-4.33a.91.91,0,0,1,.87-.35.82.82,0,0,1,.49,1.33,2.34,2.34,0,0,1-.22.23l-5,4.95a.88.88,0,0,1-1.48,0c-.84-.83-1.68-1.66-2.51-2.51a.82.82,0,0,1,.26-1.43Z"/><path class="cls-3" d="M64.84,224.77v11.7H63.29v-11.7Zm5.8,0V226H64.53v-1.27Zm-.74,5v1.26H64.53V229.8Zm.82,5.41v1.26H64.53v-1.26Z"/><path class="cls-3" d="M74,224.12v12.35H72.54V224.12Z"/><path class="cls-3" d="M76.43,225.47a.89.89,0,0,1,.22-.62.86.86,0,0,1,.66-.24.85.85,0,0,1,.65.24.9.9,0,0,1,.23.62.92.92,0,0,1-1.54.59A.85.85,0,0,1,76.43,225.47Zm1.61,2.3v8.7h-1.5v-8.7Z"/><path class="cls-3" d="M80.07,232.22v-.17a6.35,6.35,0,0,1,.24-1.81,4.4,4.4,0,0,1,.68-1.41,3.1,3.1,0,0,1,1.08-.9,3.2,3.2,0,0,1,1.43-.32,3.39,3.39,0,0,1,1.44.29,2.7,2.7,0,0,1,1,.83,3.91,3.91,0,0,1,.68,1.3,7.78,7.78,0,0,1,.35,1.73v.74a7.71,7.71,0,0,1-.34,1.72,4.12,4.12,0,0,1-.69,1.3,2.8,2.8,0,0,1-1,.83,3.47,3.47,0,0,1-1.45.28,3,3,0,0,1-1.41-.33,3.28,3.28,0,0,1-1.08-.92,4.42,4.42,0,0,1-.69-1.41A6.07,6.07,0,0,1,80.07,232.22Zm6-4.45h1.35v8.52a3.89,3.89,0,0,1-.46,2,3.14,3.14,0,0,1-1.3,1.23,4.24,4.24,0,0,1-1.92.42,4.48,4.48,0,0,1-1.06-.14,4.4,4.4,0,0,1-1.19-.47,2.88,2.88,0,0,1-1-.9l.78-.88a3,3,0,0,0,1.14.91,2.88,2.88,0,0,0,1.19.26,2.71,2.71,0,0,0,1.22-.26,1.9,1.9,0,0,0,.8-.79,2.59,2.59,0,0,0,.28-1.27v-6.67Zm-4.5,4.28v.17a5.31,5.31,0,0,0,.13,1.22,3.23,3.23,0,0,0,.41,1,2,2,0,0,0,.71.68,2,2,0,0,0,1,.25,2.27,2.27,0,0,0,1.22-.31,2.36,2.36,0,0,0,.77-.83,5.25,5.25,0,0,0,.45-1.12v-1.94a4.2,4.2,0,0,0-.27-.85,2.67,2.67,0,0,0-.47-.74,2,2,0,0,0-.7-.52,2.32,2.32,0,0,0-1-.19,2,2,0,0,0-1.05.25,2.16,2.16,0,0,0-.72.69,3.4,3.4,0,0,0-.41,1A5.4,5.4,0,0,0,81.56,232.05Z"/><path class="cls-3" d="M93.28,236.63a4.1,4.1,0,0,1-1.64-.31,3.64,3.64,0,0,1-1.27-.87,3.77,3.77,0,0,1-.8-1.34,4.78,4.78,0,0,1-.29-1.68v-.34a5.27,5.27,0,0,1,.32-1.89,4.12,4.12,0,0,1,.85-1.41,3.69,3.69,0,0,1,1.22-.88,3.52,3.52,0,0,1,1.42-.3,3.79,3.79,0,0,1,1.61.32,3.07,3.07,0,0,1,1.11.9,3.67,3.67,0,0,1,.64,1.35,6.47,6.47,0,0,1,.21,1.69v.67H90.17v-1.21h5v-.12a3.62,3.62,0,0,0-.24-1.12,2,2,0,0,0-.65-.9,1.83,1.83,0,0,0-1.2-.36,2,2,0,0,0-.94.22,2.07,2.07,0,0,0-.73.63,3.2,3.2,0,0,0-.47,1,5.23,5.23,0,0,0-.17,1.39v.34a4,4,0,0,0,.17,1.16,3,3,0,0,0,.51.95,2.3,2.3,0,0,0,.81.64,2.39,2.39,0,0,0,1.09.24,2.59,2.59,0,0,0,1.33-.32,3.42,3.42,0,0,0,1-.86l.9.71a3.82,3.82,0,0,1-.71.81,3.4,3.4,0,0,1-1.07.63A4.19,4.19,0,0,1,93.28,236.63Z"/><path class="cls-3" d="M104.1,224.12v12.35h-1.5V224.12Z"/><path class="cls-3" d="M111.87,231.2l0,1h-1.5a6.36,6.36,0,0,0-1.14.1,2.77,2.77,0,0,0-.83.3,1.5,1.5,0,0,0-.52.51,1.32,1.32,0,0,0-.17.7,1.6,1.6,0,0,0,.18.75,1.31,1.31,0,0,0,.56.53,2,2,0,0,0,.92.2,2.45,2.45,0,0,0,1.2-.29,2.56,2.56,0,0,0,.84-.71,1.62,1.62,0,0,0,.33-.81l.64.72a2.14,2.14,0,0,1-.31.74,3.7,3.7,0,0,1-.66.79,3.89,3.89,0,0,1-1,.62,3.28,3.28,0,0,1-1.28.24,3.34,3.34,0,0,1-1.55-.34,2.56,2.56,0,0,1-1-.93,2.38,2.38,0,0,1-.37-1.31,2.65,2.65,0,0,1,.27-1.23,2.53,2.53,0,0,1,.79-.9,4.15,4.15,0,0,1,1.24-.54,6.67,6.67,0,0,1,1.61-.18Zm-.25,3.78v-4.47a1.81,1.81,0,0,0-.21-.9,1.39,1.39,0,0,0-.61-.59,2.26,2.26,0,0,0-1-.21,2.32,2.32,0,0,0-1,.19,1.72,1.72,0,0,0-.66.51,1.08,1.08,0,0,0-.24.67h-1.49a2,2,0,0,1,.25-.92,2.68,2.68,0,0,1,.69-.83,3.57,3.57,0,0,1,1.09-.6,4.61,4.61,0,0,1,1.43-.22,4.23,4.23,0,0,1,1.68.32,2.63,2.63,0,0,1,1.14,1,2.91,2.91,0,0,1,.41,1.62v4a6.26,6.26,0,0,0,.08.93,3.51,3.51,0,0,0,.23.84v.13h-1.55a2.44,2.44,0,0,1-.18-.69A5.7,5.7,0,0,1,111.62,235Z"/><path class="cls-3" d="M123,235.41a2.17,2.17,0,0,0,1-.22,2,2,0,0,0,.74-.6,1.65,1.65,0,0,0,.33-.87h1.41a2.61,2.61,0,0,1-.52,1.44,3.63,3.63,0,0,1-1.25,1.07,3.57,3.57,0,0,1-1.69.4,3.92,3.92,0,0,1-1.71-.34,3.35,3.35,0,0,1-1.21-.95,4.16,4.16,0,0,1-.71-1.39,5.65,5.65,0,0,1-.24-1.66V232a5.7,5.7,0,0,1,.24-1.66,4.11,4.11,0,0,1,.71-1.38,3.25,3.25,0,0,1,1.21-.95,3.92,3.92,0,0,1,1.71-.35,3.63,3.63,0,0,1,1.78.42,3.09,3.09,0,0,1,1.2,1.12,3.17,3.17,0,0,1,.48,1.61h-1.41a2.25,2.25,0,0,0-.3-1,2,2,0,0,0-1.75-1,2.25,2.25,0,0,0-1.15.27,2,2,0,0,0-.73.73,3.26,3.26,0,0,0-.39,1,6,6,0,0,0-.11,1.12v.34a5.35,5.35,0,0,0,.11,1.13,3.24,3.24,0,0,0,.38,1,2.1,2.1,0,0,0,.73.72A2.29,2.29,0,0,0,123,235.41Z"/><path class="cls-3" d="M127.75,232.22V232a5.53,5.53,0,0,1,.27-1.75,4.28,4.28,0,0,1,.79-1.4,3.5,3.5,0,0,1,1.25-.93,3.76,3.76,0,0,1,1.64-.34,3.84,3.84,0,0,1,1.65.34,3.5,3.5,0,0,1,1.25.93,4.1,4.1,0,0,1,.79,1.4,5.26,5.26,0,0,1,.28,1.75v.19a5.16,5.16,0,0,1-.28,1.74,4.06,4.06,0,0,1-.79,1.41,3.68,3.68,0,0,1-1.24.93,4.29,4.29,0,0,1-3.3,0,3.82,3.82,0,0,1-1.25-.93A4.22,4.22,0,0,1,128,234,5.42,5.42,0,0,1,127.75,232.22Zm1.49-.19v.19a4.8,4.8,0,0,0,.15,1.22,3.18,3.18,0,0,0,.46,1,2.27,2.27,0,0,0,.78.7,2.46,2.46,0,0,0,2.16,0,2.21,2.21,0,0,0,.76-.7,3.19,3.19,0,0,0,.47-1,4.8,4.8,0,0,0,.15-1.22V232a4.72,4.72,0,0,0-.15-1.21,3.35,3.35,0,0,0-.47-1,2.34,2.34,0,0,0-.77-.7,2.37,2.37,0,0,0-2.16,0,2.44,2.44,0,0,0-.77.7,3.34,3.34,0,0,0-.46,1A4.72,4.72,0,0,0,129.24,232Z"/><path class="cls-3" d="M139,229.5v7h-1.49v-8.7h1.41Zm-.3,2.29-.7,0a6.08,6.08,0,0,1,.24-1.65,3.88,3.88,0,0,1,.67-1.33,3,3,0,0,1,1.1-.87,3.86,3.86,0,0,1,2.65-.14,2.34,2.34,0,0,1,.89.55,2.44,2.44,0,0,1,.59.95,4.07,4.07,0,0,1,.21,1.39v5.8h-1.49v-5.72a2.31,2.31,0,0,0-.23-1.1,1.4,1.4,0,0,0-.65-.6,2.42,2.42,0,0,0-1-.18,2.3,2.3,0,0,0-1.1.23,1.9,1.9,0,0,0-.71.64,3.14,3.14,0,0,0-.38.94A5,5,0,0,0,138.71,231.79Zm5.63-.82-1,.31a4.54,4.54,0,0,1,.24-1.38,3.57,3.57,0,0,1,.67-1.17,3.16,3.16,0,0,1,1.08-.82,3.45,3.45,0,0,1,1.47-.3,3.63,3.63,0,0,1,1.24.19,2.26,2.26,0,0,1,.92.56,2.49,2.49,0,0,1,.57,1,4.58,4.58,0,0,1,.19,1.41v5.72h-1.5v-5.73a2.26,2.26,0,0,0-.23-1.14,1.23,1.23,0,0,0-.64-.57,2.61,2.61,0,0,0-1-.16,2.14,2.14,0,0,0-.87.16,2,2,0,0,0-.64.47,2,2,0,0,0-.39.67A2.63,2.63,0,0,0,144.34,231Z"/><path class="cls-3" d="M152,225.47a.89.89,0,0,1,.22-.62.85.85,0,0,1,.65-.24.86.86,0,0,1,.66.24.9.9,0,0,1,.23.62.92.92,0,0,1-1.54.59A.85.85,0,0,1,152,225.47Zm1.61,2.3v8.7h-1.5v-8.7Z"/><path class="cls-3" d="M155.6,232.22v-.17a6.33,6.33,0,0,1,.25-1.81,4.23,4.23,0,0,1,.7-1.41,3.05,3.05,0,0,1,2.49-1.22,3.39,3.39,0,0,1,1.44.29,2.7,2.7,0,0,1,1,.83,3.91,3.91,0,0,1,.68,1.3,7.78,7.78,0,0,1,.35,1.73v.74a7.71,7.71,0,0,1-.34,1.72,4.12,4.12,0,0,1-.69,1.3,2.8,2.8,0,0,1-1,.83,3.47,3.47,0,0,1-1.45.28,3,3,0,0,1-1.4-.33,3.28,3.28,0,0,1-1.08-.92,4.43,4.43,0,0,1-.7-1.41A6.06,6.06,0,0,1,155.6,232.22Zm1.5-.17v.17a5.31,5.31,0,0,0,.13,1.22,3,3,0,0,0,.42,1,1.93,1.93,0,0,0,.71.68,2,2,0,0,0,1,.25,2.27,2.27,0,0,0,1.22-.31,2.43,2.43,0,0,0,.76-.83,4.38,4.38,0,0,0,.45-1.12v-1.94a4.2,4.2,0,0,0-.27-.85,2.67,2.67,0,0,0-.47-.74,2,2,0,0,0-.7-.52,2.29,2.29,0,0,0-1-.19,2.09,2.09,0,0,0-1,.25,2,2,0,0,0-.71.69,3.16,3.16,0,0,0-.42,1A5.4,5.4,0,0,0,157.1,232.05Zm4.36,2.73V224.12H163v12.35h-1.37Z"/><path class="cls-3" d="M170.64,231.2l0,1h-1.5a6.45,6.45,0,0,0-1.14.1,2.77,2.77,0,0,0-.83.3,1.5,1.5,0,0,0-.52.51,1.42,1.42,0,0,0-.17.7,1.6,1.6,0,0,0,.18.75,1.31,1.31,0,0,0,.56.53,2,2,0,0,0,.92.2,2.49,2.49,0,0,0,1.21-.29,2.63,2.63,0,0,0,.83-.71,1.54,1.54,0,0,0,.33-.81l.64.72a2.14,2.14,0,0,1-.31.74,3.42,3.42,0,0,1-.66.79,3.72,3.72,0,0,1-1,.62,3.6,3.6,0,0,1-2.82-.1,2.52,2.52,0,0,1-1-.93,2.38,2.38,0,0,1-.37-1.31,2.65,2.65,0,0,1,.27-1.23,2.53,2.53,0,0,1,.79-.9,4.27,4.27,0,0,1,1.24-.54,6.69,6.69,0,0,1,1.62-.18Zm-.25,3.78v-4.47a1.81,1.81,0,0,0-.21-.9,1.34,1.34,0,0,0-.61-.59,2.23,2.23,0,0,0-1-.21,2.32,2.32,0,0,0-1,.19,1.72,1.72,0,0,0-.66.51,1.08,1.08,0,0,0-.24.67h-1.48a2,2,0,0,1,.24-.92,2.68,2.68,0,0,1,.69-.83,3.63,3.63,0,0,1,1.1-.6,4.5,4.5,0,0,1,1.42-.22,4.19,4.19,0,0,1,1.68.32,2.63,2.63,0,0,1,1.14,1,2.91,2.91,0,0,1,.41,1.62v4a6.26,6.26,0,0,0,.08.93,3.51,3.51,0,0,0,.23.84v.13h-1.55a2.44,2.44,0,0,1-.18-.69A5.7,5.7,0,0,1,170.39,235Z"/><path class="cls-3" d="M56.7,246.19V246a6,6,0,0,1,.25-1.81,4.05,4.05,0,0,1,.7-1.41,3.05,3.05,0,0,1,2.49-1.22,3.39,3.39,0,0,1,1.44.29,2.77,2.77,0,0,1,1,.82A4.07,4.07,0,0,1,63.3,244a8.39,8.39,0,0,1,.35,1.73v.74a7.71,7.71,0,0,1-.34,1.72,4.12,4.12,0,0,1-.69,1.3,2.73,2.73,0,0,1-1,.82,3.25,3.25,0,0,1-1.44.29,3,3,0,0,1-1.4-.33,3.28,3.28,0,0,1-1.08-.92,4.24,4.24,0,0,1-.7-1.41A5.78,5.78,0,0,1,56.7,246.19Zm1.5-.17v.17a5.31,5.31,0,0,0,.13,1.22,3.33,3.33,0,0,0,.41,1,2,2,0,0,0,1.76.93,2.19,2.19,0,0,0,1.22-.32,2.31,2.31,0,0,0,.76-.82,4.38,4.38,0,0,0,.45-1.12v-1.94a4.2,4.2,0,0,0-.27-.85,2.92,2.92,0,0,0-.47-.74,2,2,0,0,0-.7-.52,2.28,2.28,0,0,0-1-.2,2.1,2.1,0,0,0-1,.26,2.16,2.16,0,0,0-.72.69,3.4,3.4,0,0,0-.41,1A5.4,5.4,0,0,0,58.2,246Zm4.35,2.73V238.09h1.5v12.35H62.68Z"/><path class="cls-3" d="M70,250.6a4.15,4.15,0,0,1-1.65-.31,3.74,3.74,0,0,1-1.26-.87,3.94,3.94,0,0,1-.81-1.34A5,5,0,0,1,66,246.4v-.34a5.51,5.51,0,0,1,.31-1.89,4.28,4.28,0,0,1,.86-1.42,3.7,3.7,0,0,1,1.22-.87,3.47,3.47,0,0,1,1.41-.3,3.84,3.84,0,0,1,1.62.32,3.07,3.07,0,0,1,1.11.9,3.84,3.84,0,0,1,.64,1.35,6.47,6.47,0,0,1,.21,1.69v.67H66.86v-1.22h5v-.11a3.92,3.92,0,0,0-.23-1.12,2.06,2.06,0,0,0-.65-.9,1.88,1.88,0,0,0-1.21-.36,2,2,0,0,0-1.66.85,3.2,3.2,0,0,0-.47,1,4.85,4.85,0,0,0-.17,1.39v.34a3.66,3.66,0,0,0,.17,1.16,2.64,2.64,0,0,0,.51.95,2.3,2.3,0,0,0,.81.64,2.39,2.39,0,0,0,1.09.24,2.52,2.52,0,0,0,1.33-.33,3.25,3.25,0,0,0,1-.86l.9.72a4.46,4.46,0,0,1-.72.81,3.35,3.35,0,0,1-1.06.63A4.19,4.19,0,0,1,70,250.6Z"/><path class="cls-3" d="M82.81,241.74v1.14h-4.7v-1.14Zm-3.11-2.11h1.49v8.66a1.2,1.2,0,0,0,.14.66.64.64,0,0,0,.35.3,1.41,1.41,0,0,0,.47.07l.39,0,.3-.06v1.21a4,4,0,0,1-.46.11,4.44,4.44,0,0,1-.69,0,2.22,2.22,0,0,1-1-.22,1.54,1.54,0,0,1-.73-.72,3,3,0,0,1-.27-1.38Z"/><path class="cls-3" d="M90.16,246.6l.62,0a6.7,6.7,0,0,1-.18,1.6,3.58,3.58,0,0,1-.58,1.28,2.68,2.68,0,0,1-1.06.84,3.74,3.74,0,0,1-1.58.3,3.57,3.57,0,0,1-1.16-.18,2.41,2.41,0,0,1-.91-.58,2.56,2.56,0,0,1-.58-1,4.65,4.65,0,0,1-.21-1.49v-5.61H86v5.63a3.3,3.3,0,0,0,.13,1,1.5,1.5,0,0,0,.37.6,1.23,1.23,0,0,0,.51.31,2,2,0,0,0,.59.09,2.62,2.62,0,0,0,1.5-.37,2,2,0,0,0,.8-1A3.57,3.57,0,0,0,90.16,246.6Zm-.28,1.83v-6.69h1.49v8.7H90Z"/><path class="cls-3" d="M99.2,243.41v10.37H97.71v-12h1.37Zm5.86,2.61v.17a6.5,6.5,0,0,1-.22,1.75,4.37,4.37,0,0,1-.66,1.41,2.94,2.94,0,0,1-2.49,1.25,3.78,3.78,0,0,1-1.47-.27,2.93,2.93,0,0,1-1.07-.8,4.12,4.12,0,0,1-.71-1.25,7.17,7.17,0,0,1-.35-1.65v-.9a7.24,7.24,0,0,1,.36-1.73,4.54,4.54,0,0,1,.7-1.31,2.87,2.87,0,0,1,1.07-.82,3.46,3.46,0,0,1,1.44-.29,3.23,3.23,0,0,1,1.46.32,3,3,0,0,1,1.07.9,4,4,0,0,1,.65,1.41A6.75,6.75,0,0,1,105.06,246Zm-1.49.17V246a5.39,5.39,0,0,0-.14-1.23,3.16,3.16,0,0,0-.42-1,2.1,2.1,0,0,0-.73-.69,2,2,0,0,0-1-.26,2.28,2.28,0,0,0-1,.2,2.14,2.14,0,0,0-.7.52,2.67,2.67,0,0,0-.47.74,4.2,4.2,0,0,0-.27.85v2.08a4.76,4.76,0,0,0,.45,1.06,2.13,2.13,0,0,0,2,1.1,2.16,2.16,0,0,0,1-.25,2.19,2.19,0,0,0,.72-.7,3.13,3.13,0,0,0,.42-1A5.3,5.3,0,0,0,103.57,246.19Z"/><path class="cls-3" d="M108.45,243.11v7.33H107v-8.7h1.45Zm2.72-1.42v1.39l-.35-.06h-.38a2.49,2.49,0,0,0-.9.16,1.88,1.88,0,0,0-.67.45,2.12,2.12,0,0,0-.43.69,3.46,3.46,0,0,0-.21.87l-.41.24a7.07,7.07,0,0,1,.15-1.48,4,4,0,0,1,.49-1.22,2.41,2.41,0,0,1,.84-.84,2.35,2.35,0,0,1,1.22-.3,1.8,1.8,0,0,1,.37,0A1.52,1.52,0,0,1,111.17,241.69Z"/><path class="cls-3" d="M116,250.6a4.15,4.15,0,0,1-1.65-.31,3.74,3.74,0,0,1-1.26-.87,3.94,3.94,0,0,1-.81-1.34,4.78,4.78,0,0,1-.28-1.68v-.34a5.51,5.51,0,0,1,.31-1.89,4.28,4.28,0,0,1,.86-1.42,3.7,3.7,0,0,1,1.22-.87,3.47,3.47,0,0,1,1.41-.3,3.84,3.84,0,0,1,1.62.32,3.07,3.07,0,0,1,1.11.9,3.84,3.84,0,0,1,.64,1.35,6.47,6.47,0,0,1,.21,1.69v.67h-6.49v-1.22h5v-.11a3.92,3.92,0,0,0-.23-1.12,2.06,2.06,0,0,0-.65-.9,1.88,1.88,0,0,0-1.21-.36,2,2,0,0,0-1.66.85,3.2,3.2,0,0,0-.47,1,4.85,4.85,0,0,0-.17,1.39v.34a3.66,3.66,0,0,0,.17,1.16,2.64,2.64,0,0,0,.51.95,2.3,2.3,0,0,0,.81.64,2.39,2.39,0,0,0,1.09.24,2.52,2.52,0,0,0,1.33-.33,3.25,3.25,0,0,0,1-.86l.9.72a4.46,4.46,0,0,1-.72.81,3.35,3.35,0,0,1-1.06.63A4.19,4.19,0,0,1,116,250.6Z"/><path class="cls-3" d="M125.18,241.74v1.14h-4.71v-1.14Zm-1.84,8.7h-1.49v-9.61a3.34,3.34,0,0,1,.34-1.59,2.29,2.29,0,0,1,1-1,3.13,3.13,0,0,1,1.52-.34,3,3,0,0,1,.52,0,4.17,4.17,0,0,1,.51.09l-.08,1.22a2,2,0,0,0-.38-.06l-.42,0a1.74,1.74,0,0,0-.82.19,1.26,1.26,0,0,0-.52.55,2,2,0,0,0-.17.9Z"/><path class="cls-3" d="M130.26,250.6a4.15,4.15,0,0,1-1.65-.31,3.74,3.74,0,0,1-1.26-.87,3.94,3.94,0,0,1-.81-1.34,5,5,0,0,1-.28-1.68v-.34a5.27,5.27,0,0,1,.32-1.89,4.1,4.1,0,0,1,.85-1.42,3.7,3.7,0,0,1,1.22-.87,3.47,3.47,0,0,1,1.41-.3,3.84,3.84,0,0,1,1.62.32,3.07,3.07,0,0,1,1.11.9,3.84,3.84,0,0,1,.64,1.35,6.47,6.47,0,0,1,.21,1.69v.67h-6.49v-1.22h5v-.11a3.92,3.92,0,0,0-.23-1.12,2.06,2.06,0,0,0-.65-.9,1.86,1.86,0,0,0-1.21-.36,2,2,0,0,0-1.66.85,3.2,3.2,0,0,0-.47,1,4.85,4.85,0,0,0-.17,1.39v.34a3.66,3.66,0,0,0,.17,1.16,2.8,2.8,0,0,0,.51.95,2.3,2.3,0,0,0,.81.64,2.39,2.39,0,0,0,1.09.24,2.52,2.52,0,0,0,1.33-.33,3.14,3.14,0,0,0,1-.86l.9.72a4.46,4.46,0,0,1-.72.81,3.35,3.35,0,0,1-1.06.63A4.19,4.19,0,0,1,130.26,250.6Z"/><path class="cls-3" d="M136.86,243.11v7.33h-1.48v-8.7h1.44Zm2.72-1.42v1.39l-.35-.06h-.37a2.55,2.55,0,0,0-.91.16,1.93,1.93,0,0,0-.66.45,2.14,2.14,0,0,0-.44.69,3.45,3.45,0,0,0-.2.87l-.42.24a6.46,6.46,0,0,1,.16-1.48,4,4,0,0,1,.48-1.22,2.27,2.27,0,0,1,2.06-1.14,1.73,1.73,0,0,1,.37,0A1.34,1.34,0,0,1,139.58,241.69Z"/><path class="cls-3" d="M144.41,250.6a4.13,4.13,0,0,1-1.64-.31,3.74,3.74,0,0,1-1.26-.87,3.94,3.94,0,0,1-.81-1.34,4.78,4.78,0,0,1-.28-1.68v-.34a5.28,5.28,0,0,1,.31-1.89,4.26,4.26,0,0,1,.85-1.42,3.73,3.73,0,0,1,1.23-.87,3.43,3.43,0,0,1,1.41-.3,3.79,3.79,0,0,1,1.61.32,3,3,0,0,1,1.12.9,3.84,3.84,0,0,1,.64,1.35,6.47,6.47,0,0,1,.21,1.69v.67h-6.5v-1.22h5v-.11a3.62,3.62,0,0,0-.24-1.12,2,2,0,0,0-.64-.9,1.88,1.88,0,0,0-1.21-.36,1.93,1.93,0,0,0-.93.22,1.91,1.91,0,0,0-.73.63,3,3,0,0,0-.48,1,5.23,5.23,0,0,0-.17,1.39v.34a3.66,3.66,0,0,0,.18,1.16,2.78,2.78,0,0,0,.5.95,2.5,2.5,0,0,0,.81.64,2.42,2.42,0,0,0,1.09.24,2.56,2.56,0,0,0,1.34-.33,3.22,3.22,0,0,0,.95-.86l.91.72a4.46,4.46,0,0,1-.72.81,3.29,3.29,0,0,1-1.07.63A4.16,4.16,0,0,1,144.41,250.6Z"/><path class="cls-3" d="M151,243.6v6.84h-1.49v-8.7h1.41Zm-.35,2.16-.62,0a5.2,5.2,0,0,1,.26-1.66,4.44,4.44,0,0,1,.73-1.32,3.35,3.35,0,0,1,1.11-.87,3.24,3.24,0,0,1,1.44-.31,3.75,3.75,0,0,1,1.15.17,2.16,2.16,0,0,1,.88.55,2.47,2.47,0,0,1,.56,1,4.77,4.77,0,0,1,.2,1.46v5.7h-1.5v-5.72a2.56,2.56,0,0,0-.2-1.09,1.3,1.3,0,0,0-.59-.61,2.23,2.23,0,0,0-1-.19,2.15,2.15,0,0,0-1,.24,2.39,2.39,0,0,0-.78.64,3.25,3.25,0,0,0-.5.94A3.4,3.4,0,0,0,150.67,245.76Z"/><path class="cls-3" d="M162.11,249.38a2.17,2.17,0,0,0,1-.22,2,2,0,0,0,.74-.6,1.65,1.65,0,0,0,.33-.87h1.41a2.64,2.64,0,0,1-.52,1.44,3.5,3.5,0,0,1-1.25,1.06,3.58,3.58,0,0,1-1.69.41,3.92,3.92,0,0,1-1.71-.35,3.32,3.32,0,0,1-1.21-.94,4.25,4.25,0,0,1-.71-1.39,5.65,5.65,0,0,1-.24-1.66v-.34a5.65,5.65,0,0,1,.24-1.66,4.11,4.11,0,0,1,.71-1.38,3.25,3.25,0,0,1,1.21-.95,3.92,3.92,0,0,1,1.71-.35,3.74,3.74,0,0,1,1.78.41,3.19,3.19,0,0,1,1.2,1.13,3.14,3.14,0,0,1,.48,1.61h-1.41a2.25,2.25,0,0,0-.3-1,2,2,0,0,0-1.75-1,2.25,2.25,0,0,0-1.15.27,2,2,0,0,0-.73.73,3.26,3.26,0,0,0-.39,1,6,6,0,0,0-.11,1.12v.34a5.25,5.25,0,0,0,.11,1.12,3.3,3.3,0,0,0,.38,1,2.1,2.1,0,0,0,.73.72A2.29,2.29,0,0,0,162.11,249.38Z"/><path class="cls-3" d="M167.25,239.43a.93.93,0,0,1,.22-.61,1,1,0,0,1,1.31,0,.85.85,0,0,1-.65,1.45.86.86,0,0,1-.66-.24A.92.92,0,0,1,167.25,239.43Zm1.61,2.31v8.7h-1.5v-8.7Z"/><path class="cls-3" d="M176.63,245.17l0,1h-1.5a5.56,5.56,0,0,0-1.14.1,2.77,2.77,0,0,0-.83.3,1.41,1.41,0,0,0-.52.51,1.32,1.32,0,0,0-.17.7,1.6,1.6,0,0,0,.18.75,1.31,1.31,0,0,0,.56.53,2,2,0,0,0,.92.2,2.45,2.45,0,0,0,1.2-.29,2.56,2.56,0,0,0,.84-.71,1.62,1.62,0,0,0,.33-.81l.64.71a2.1,2.1,0,0,1-.31.75,3.7,3.7,0,0,1-.66.79,3.6,3.6,0,0,1-1,.61,3.11,3.11,0,0,1-1.28.25,3.34,3.34,0,0,1-1.55-.35,2.61,2.61,0,0,1-1-.92A2.38,2.38,0,0,1,171,248a2.65,2.65,0,0,1,.27-1.23,2.53,2.53,0,0,1,.79-.9,3.91,3.91,0,0,1,1.24-.54,6.67,6.67,0,0,1,1.61-.18Zm-.25,3.78v-4.48a1.8,1.8,0,0,0-.21-.89,1.39,1.39,0,0,0-.61-.59,2.26,2.26,0,0,0-1-.21,2.32,2.32,0,0,0-1,.19,1.72,1.72,0,0,0-.66.51,1.08,1.08,0,0,0-.24.67h-1.49a2,2,0,0,1,.25-.92,2.68,2.68,0,0,1,.69-.83,3.57,3.57,0,0,1,1.09-.6,4.33,4.33,0,0,1,1.43-.22,4.23,4.23,0,0,1,1.68.32,2.63,2.63,0,0,1,1.14,1,3,3,0,0,1,.41,1.62v4a6.26,6.26,0,0,0,.08.93,3.65,3.65,0,0,0,.23.84v.13h-1.55a2.44,2.44,0,0,1-.18-.69A5.7,5.7,0,0,1,176.38,249Z"/><path class="cls-2" d="M93.38,76a25,25,0,0,1-3.26,10.51A62.26,62.26,0,0,1,80.76,99a13.56,13.56,0,0,1-3,2.26c-.64.37-1.3.56-1.78-.18s-.08-1.31.58-1.67c3.42-1.9,5.43-5.2,7.86-8,2-2.31,1.47-5.89-.78-8-1.44-1.38-2.74-2.87-4.12-4.29a12.86,12.86,0,0,0-13.13-3.73c-2.38.6-4.72,1.39-7,2.17A6.26,6.26,0,0,0,55,84.9c.56,3,0,4.1-2.76,5.34-3.06,1.36-3.92,4.8-1.92,7.65a6.3,6.3,0,0,0,7.06,2.44,14.32,14.32,0,0,1,8.28.19,11.43,11.43,0,0,0,5.85.58c.74-.15,1.41,0,1.54.89s-.54,1.26-1.34,1.34a15.19,15.19,0,0,1-6.59-.65,12.22,12.22,0,0,0-7.4-.19c-6.34,1.7-11.44-3.87-10.58-8.83,0-.23.13-.56,0-.71-1.29-1.67-2.3-4-4-4.81-3.43-1.64-4.64-4.38-4.92-7.61-.91-10.58,2.44-19.89,9-28.13a12.86,12.86,0,0,1,4.88-3.81,4.3,4.3,0,0,1,2.95-.54c2,.66,3.74-.45,5.6-.74.7-.11.65-.6.65-1.08,0-1.06,0-2.13,0-3.19a2.28,2.28,0,0,1,1.51-2.26,2.34,2.34,0,0,1,2.67.54c.39.36.78.73,1.14,1.12a22.74,22.74,0,0,0,9.46,6.21C86.59,52.28,93.39,62.62,93.38,76ZM87.66,86.45A24.93,24.93,0,0,0,91.11,72c0-.8-.37-.9-1.07-.9-5.32,0-10.64,0-16,0-3.24,0-6.48,0-9.73,0-2.2,0-3-.77-3-2.93,0-.92,0-1.84,0-2.76,0-5,0-10,0-14.95,0-.35.15-.92-.4-.92a3.7,3.7,0,0,0-1.66.41c-.38.19,0,.58.09.87a5.6,5.6,0,0,1-.62,5.37A63.09,63.09,0,0,0,49.49,83a5.32,5.32,0,0,1-2.73,4.5c-.71.38-.64.68-.2,1.17a8.89,8.89,0,0,1,.71.91c.58.84,1.1,1.25,1.9.14a4.23,4.23,0,0,1,2.27-1.5c1.46-.44,1.8-1.33,1.47-2.77a8.35,8.35,0,0,1,5.6-10c2.15-.74,4.32-1.39,6.49-2,6.68-2,12.27-.23,16.87,4.93a30.88,30.88,0,0,0,2.28,2.43A9.61,9.61,0,0,1,87.66,86.45ZM77,69c4.12,0,8.23,0,12.34,0,.32,0,.75.18.92-.22s-.25-.58-.47-.8Q77.18,55.74,64.59,43.5c-.25-.25-.48-.73-.94-.48s-.16.61-.16.93c0,7.93,0,15.87,0,23.81,0,1,.32,1.31,1.32,1.3C68.84,69,72.91,69,77,69Zm-36.74,8c0,.58,0,1.17,0,1.74.19,2.13.44,4.26,1.89,6a2.67,2.67,0,0,0,3.1,1,2.81,2.81,0,0,0,2-2.6,13.89,13.89,0,0,1,.31-2.59c.37-1.32,0-1.94-1.34-2.35a2.64,2.64,0,0,1-1.56-3.46A2.68,2.68,0,0,1,47.71,73c1,.31,1.42.11,1.73-.91.37-1.25-.54-1.22-1.2-1.5-.26-.11-.55-.18-.81-.3A2.77,2.77,0,0,1,49,65a5.8,5.8,0,0,1,1.25.36c.76.33,1.26.42,1.67-.58s.22-1.28-.71-1.66a2.7,2.7,0,0,1-1.41-3.42c.39-1.19,1.84-2.29,2.93-1.8,1.95.89,2.64-.17,3.32-1.61A11.35,11.35,0,0,1,57,54.79a2.78,2.78,0,0,0,0-3.5,2.86,2.86,0,0,0-3.4-.89,9.93,9.93,0,0,0-4.43,3.16C43.33,60.31,40.79,68.32,40.23,77.07ZM89,64.19A22.09,22.09,0,0,0,75.43,51ZM48.76,67.12c-.51-.08-.87.15-.81.48.17,1.05,1.23.83,1.9,1.16a.52.52,0,0,0,.74-.57C50.37,67.16,49.24,67.59,48.76,67.12Zm4.86-6.31c.12-.64-.47-.58-.81-.7s-.83,0-.89.44.47.62.86.79S53.45,61.22,53.62,60.81ZM47.46,75.17c-.41,0-.78.09-.76.5,0,.71.7.7,1.17.85s.44-.25.47-.54C48.43,75.27,47.87,75.28,47.46,75.17Z"/><path class="cls-2" d="M65.53,38.75a34.13,34.13,0,0,0-22.18,8.63c-.3.25-.59.51-.89.75A1,1,0,0,1,41,48.08a1,1,0,0,1,0-1.55c.85-.79,1.72-1.56,2.64-2.27C65.55,27.11,98.51,40,103,67.45a37.18,37.18,0,0,1-29.49,42.8C53.28,114.38,33.06,100.42,29.73,80A36.78,36.78,0,0,1,36.65,51.4c.5-.69,1-2.07,2.19-1.22s.1,1.79-.45,2.52c-15.67,20.84-3.58,51.24,22.11,55.54a35,35,0,0,0,11.74-69A41.22,41.22,0,0,0,65.53,38.75Z"/><path class="cls-2" d="M69.83,96.43a8,8,0,0,1-8.12-8.07,8.14,8.14,0,1,1,8.12,8.07Zm5.89-8a5.91,5.91,0,1,0-11.81-.1,5.91,5.91,0,1,0,11.81.1Z"/><path class="cls-2" d="M75.4,58.47a1.35,1.35,0,0,1-.55,1.09q-1.69,1.68-3.37,3.38c-.58.58-1.2.91-1.86.2s-.24-1.24.28-1.76l3.47-3.48a1.25,1.25,0,0,1,1.44-.37A.93.93,0,0,1,75.4,58.47Z"/><path class="cls-2" d="M67,59.84c-.5,0-.87-.08-1.07-.47A1.11,1.11,0,0,1,66,58c1.32-1.34,2.64-2.68,4-4a1,1,0,0,1,1.43,0c.38.36.59.87.2,1.29-1.38,1.47-2.81,2.89-4.24,4.32C67.29,59.81,67.05,59.81,67,59.84Z"/><path class="cls-2" d="M79.09,62.12a1.74,1.74,0,0,1-.55,1L75.07,66.6c-.54.54-1.19.78-1.77.2S73,65.57,73.5,65c1.19-1.19,2.38-2.39,3.59-3.57a1.07,1.07,0,0,1,1.29-.33A1.17,1.17,0,0,1,79.09,62.12Z"/></g></g></svg>