<svg xmlns="http://www.w3.org/2000/svg" xmlns:xlink="http://www.w3.org/1999/xlink" viewBox="0 0 234.32 180.25"><defs><style>.cls-1{fill:none;}.cls-2{fill:#c7c6c6;}.cls-3{fill:#f6f6f6;}.cls-4{fill:#fdce76;}.cls-5{fill:#dd9a40;}.cls-6{fill:#fed068;}.cls-7{fill:#967f6d;}.cls-8{fill:#f3986c;}.cls-9{fill:#ec783e;}.cls-10{fill:#c98b5f;}.cls-11{fill:#010101;opacity:0.2;}.cls-12{fill:#4b3c32;}.cls-13{fill:#6c2912;}.cls-14{fill:#1e3444;}.cls-15{fill:#fdce75;}.cls-16{fill:#895e23;}.cls-17{fill:#86152f;}.cls-18{fill:#e9446b;}.cls-19{fill:#ebd096;}.cls-20{fill:#fff1b3;}.cls-21{clip-path:url(#clip-path);}.cls-22{fill:#5cbeba;}.cls-23{fill:#11b1a7;}.cls-24{fill:#cdbd87;}.cls-25{fill:#dbd69f;}.cls-26{fill:#008276;}</style><clipPath id="clip-path"><path class="cls-1" d="M6.61,71.43c7-5,13.62-9.56,17.79-13.74,9.65,9.65,25.88,25.15,35,34.25,1,5.27,2.14,18.19,2.14,18.19s-4.66,4.75-9.49,9.58C48.6,116.51,20.23,88.57,6.61,71.43Z"/></clipPath></defs><g id="Capa_2" data-name="Capa 2"><g id="Capa_1-2" data-name="Capa 1"><path class="cls-2" d="M233.11,178.42c-1.77-.12-3.53-.2-5.31-.26-.5,0-15.51.06-18.83,0h-.2l-125.63,0h-.46l-18.56,0h-.33l-.4,0-36.59,0h-.46l-18.57,0H7.45c-.77,0-1.55.07-2.31.12-2,.13-2,1.73,0,1.86l2.31.13h.3l18.58,0h.45l36.6,0,.41,0h.31l18.57,0h.45l125.66-.05h.2c3.31-.05,18.32,0,18.83,0,1.78,0,3.54-.14,5.3-.25C234.72,179.84,234.73,178.53,233.11,178.42Z"/><path class="cls-3" d="M145.85,40.5c6.35,3.17,6.6,12.1,10.61,18,7.48,10.94,25.29,8.32,35,17.38,5.11,4.78,7.08,12.38,5.83,19.26s-5.45,13-10.83,17.49c-3.56,3-8.13,6.27-7.57,10.86a18.76,18.76,0,0,0,1.67,4.63c2.72,6.87,0,15-5.1,20.34s-12.19,8.31-19.28,10.39a104.85,104.85,0,0,1-19.07,3.7c-3.56.35-7.21.54-10.5,1.93s-6,3.92-9.15,5.59c-7.56,4-16.7,2.68-25.13,1.24-10.84-1.87-21.69-3.81-32.3-6.72-4-1.09-8-2.38-11.19-5s-5.25-7-4.12-10.94c1-3.34,3.83-5.67,6.19-8.21s4.39-6.11,3.12-9.33c-1.5-3.79-6.37-4.61-9.86-6.71C40.42,122.09,38.08,118,37,113.8s-.92-8.63-.68-13c.22-3.85.56-7.8,2.24-11.27,3.2-6.62,10.69-10.17,18-11.19,5.89-.83,8.88-1,12.07-7,3.88-7.23,6.41-15.23,11.32-21.8S93.21,38,101.1,40.23c5,1.41,8.82,5.39,13.64,7.22,5.51,2.08,10,1.08,14.23-2.39C133.45,41.4,139.91,37.52,145.85,40.5Z"/><path class="cls-4" d="M157.47,43.66c9.92,0,29.1,3.45,29.1,11.38s5.21,19.24,1.24,19.24c0,7.14.26,22.76-2.91,35.46s-3.18,28.07-18.53,20C161.08,110,158.66,64.3,157.47,43.66Z"/><path class="cls-5" d="M183,102.42c-1.24,6-2.38,14.55-4.06,16.23s-10.23-2.16-12.24-3.28c0-6.07.42-12.6,1.65-16.66C173.43,100.12,177.09,101.3,183,102.42Z"/><path class="cls-6" d="M181.81,103.82c-2.6,1.05-5,2.5-7.54,3.65-1.38.63-2.75,1.28-4.1,2-.22.12-3,1.59-3,1.65s2.9-1.3,3.13-1.41c1.4-.66,2.78-1.37,4.14-2.11s2.75-1.33,4.13-2c.65-.31,1.3-.64,1.94-1l.95-.52.31-.17S181.85,103.8,181.81,103.82Z"/><path class="cls-6" d="M181.2,107.05c-2.38,1-4.56,2.3-6.9,3.35-1.29.57-2.57,1.18-3.83,1.82-.21.11-2.87,1.53-2.85,1.57a30.77,30.77,0,0,0,2.89-1.29c1.3-.61,2.59-1.28,3.85-2s2.62-1.26,3.93-1.9c.6-.29,1.2-.6,1.79-.92l.81-.45C181,107.22,181.18,107.05,181.2,107.05Z"/><path class="cls-6" d="M178.32,102.37c-1.95.74-3.69,1.87-5.59,2.7q-1.6.69-3.15,1.5c-.16.08-2.23,1.19-2.2,1.23a20.29,20.29,0,0,0,2.32-1c1.08-.5,2.14-1.06,3.19-1.64s2.08-1,3.12-1.5c.48-.24,1-.49,1.43-.75l.66-.38Z"/><path class="cls-6" d="M174.41,101.21a10.59,10.59,0,0,0-1.27.52c-.67.32-1.27.75-2,1s-1.41.59-2.09.94c-.11.06-1.51.85-1.48.89a7.35,7.35,0,0,0,1.52-.6c.72-.34,1.41-.73,2.1-1.13s1.41-.62,2.1-1c.29-.15.57-.31.85-.49A1.78,1.78,0,0,0,174.41,101.21Z"/><path class="cls-6" d="M180.58,110.67c-1.88.7-3.55,1.8-5.39,2.6a55.28,55.28,0,0,0-5.15,2.64,18.65,18.65,0,0,0,2.26-1c1-.47,2-1,3-1.52s2-1,3-1.46c.49-.23,1-.49,1.44-.75l.64-.37A1.58,1.58,0,0,0,180.58,110.67Z"/><path class="cls-6" d="M179.69,114.3a8.23,8.23,0,0,0-1.21.48c-.63.3-1.2.71-1.85,1s-1.31.54-1.94.87a14.75,14.75,0,0,0-1.44.87,6.45,6.45,0,0,0,1.48-.58c.67-.31,1.31-.68,2-1s1.34-.58,2-.92a8.69,8.69,0,0,0,.77-.46A1.58,1.58,0,0,0,179.69,114.3Z"/><path class="cls-6" d="M178.85,117c-.63.07-1,.55-1.64.73a3.45,3.45,0,0,0-.92.41s-.54.36-.51.4.55-.15.62-.17a4.54,4.54,0,0,0,1-.54,6.24,6.24,0,0,1,.92-.4,2.31,2.31,0,0,0,.42-.27S178.89,117,178.85,117Z"/><path class="cls-6" d="M170.68,100.14c-.63.06-1.05.55-1.64.72a3.83,3.83,0,0,0-.92.42s-.54.36-.51.39.55-.14.62-.17a4.2,4.2,0,0,0,1-.53,6.36,6.36,0,0,1,.93-.4,3,3,0,0,0,.42-.27S170.72,100.13,170.68,100.14Z"/><path class="cls-6" d="M168.68,99.82c.64,1.15,1.34,2.27,2,3.37.9,1.4,1.88,2.74,2.76,4.15,1.69,2.72,3.36,5.44,5.19,8.07.06.08.67,1,.69,1a35.87,35.87,0,0,0-1.85-3.09c-.86-1.4-1.76-2.77-2.68-4.13s-1.89-2.78-2.77-4.22-1.69-2.71-2.6-4c-.18-.27-.37-.55-.57-.82l-.17-.23S168.66,99.78,168.68,99.82Z"/><path class="cls-6" d="M172.84,100.91c1.06,2,2.48,3.75,3.61,5.7.64,1.09,1.3,2.16,2,3.2.11.17,1.57,2.29,1.62,2.25a24.77,24.77,0,0,0-1.4-2.4c-.68-1.09-1.4-2.17-2.16-3.22s-1.32-2.12-2-3.17c-.31-.5-.64-1-1-1.46l-.48-.67-.17-.21S172.82,100.87,172.84,100.91Z"/><path class="cls-6" d="M177,102.39a7.27,7.27,0,0,0,.58,1.06c.34.55.79,1,1.11,1.59a14.67,14.67,0,0,0,1,1.69,9.48,9.48,0,0,0,.86,1.08c.09-.09-.58-1.12-.64-1.22a18.65,18.65,0,0,0-1.21-1.7c-.4-.52-.65-1.12-1-1.66a7.84,7.84,0,0,0-.5-.64A1.83,1.83,0,0,0,177,102.39Z"/><path class="cls-6" d="M180.06,102.56c0,.46.42.71.53,1.12a2,2,0,0,0,.3.6s.29.36.33.32-.09-.39-.12-.46a2.17,2.17,0,0,0-.4-.6,2,2,0,0,1-.27-.57,1.1,1.1,0,0,0-.22-.31S180.06,102.52,180.06,102.56Z"/><path class="cls-6" d="M167.62,103.84c1.42,2.48,3.2,4.72,4.7,7.15.83,1.35,1.7,2.69,2.59,4,.15.21,2.08,3,2.12,2.93a35.08,35.08,0,0,0-1.84-3c-.88-1.36-1.8-2.69-2.74-4s-1.77-2.7-2.66-4.06c-.41-.62-.84-1.24-1.27-1.85l-.6-.81a3.15,3.15,0,0,0-.22-.29S167.6,103.8,167.62,103.84Z"/><path class="cls-6" d="M169.54,112.06a7.51,7.51,0,0,0,.72,1.08c.38.49.85.9,1.2,1.42a18.5,18.5,0,0,0,1.16,1.59,15.53,15.53,0,0,0,1.08,1.14c.08-.09-.72-1.13-.81-1.24-.41-.55-.87-1-1.33-1.56s-.75-1.06-1.17-1.57c-.2-.23-.4-.46-.62-.68Z"/><path class="cls-7" d="M187.81,74.67a.39.39,0,0,0,.4-.39.4.4,0,0,0-.4-.4c-2.5,0-8.24-4-21.18-14.86a.4.4,0,1,0-.51.61C179.39,70.74,185.07,74.67,187.81,74.67Z"/><path class="cls-7" d="M187.2,96.32a1.32,1.32,0,0,0,.27-2.62c-.08,0-8.87-1.91-15.31-5.33a1.32,1.32,0,0,0-1.25,2.33,70.71,70.71,0,0,0,16,5.59A1.24,1.24,0,0,0,187.2,96.32Z"/><path class="cls-7" d="M182.19,122c0,4.6-6.2,17.93-18.07,7.74-1.28-8.61-2.25-13.38-2.25-13.38S174.9,122,182.19,122Z"/><path class="cls-7" d="M168.62,52.44c7.68,6.22,17.61,17.8,17.87,11.56C187.54,68.32,187.81,74.94,168.62,52.44Z"/><path class="cls-8" d="M123.5,80.4c-2.12-1.23-2.51,0-4.23,1.68s0,2.64,0,3.61-.8,1.59-.27,3.09-.84,3.31.18,4.32,3.44.62,6,.62C124.65,90,123.85,85.08,123.5,80.4Z"/><path class="cls-9" d="M123.81,83.64a5.71,5.71,0,0,0-2.56-.64A5.67,5.67,0,0,0,123.81,83.64Z"/><path class="cls-9" d="M124.11,86.17a8,8,0,0,0-1.36-.36,8.11,8.11,0,0,0-1.39-.16A5.23,5.23,0,0,0,124.11,86.17Z"/><path class="cls-9" d="M124.47,88.87a8.35,8.35,0,0,0-1.39-.36,8.6,8.6,0,0,0-1.42-.17A5.56,5.56,0,0,0,124.47,88.87Z"/><path class="cls-9" d="M124.86,91.53a10.89,10.89,0,0,0-1.5-.35,9.7,9.7,0,0,0-1.52-.18A6,6,0,0,0,124.86,91.53Z"/><path class="cls-10" d="M169.73,133.12c2.2,9.17.31,29.28,1.89,45.95H124.86c1.13-15.61.49-29.9,2.35-43.4C133.56,129.32,164,127.43,169.73,133.12Z"/><polygon class="cls-11" points="134.88 136.73 143.88 179.07 138.06 179.07 134.88 136.73"/><path class="cls-12" d="M134.88,136.73c1,6.1,2.21,12.16,3.48,18.21,1.36,6.54,2.78,13.08,4.37,19.57.38,1.52.76,3.05,1.15,4.56-1-6-2.17-11.95-3.41-17.9-1.39-6.64-2.82-13.28-4.44-19.88C135.65,139.77,135.27,138.25,134.88,136.73Z"/><path class="cls-13" d="M150,40.4c4.36,1.36,8.82,2.56,13.4,10s8.38,18,10.52,24.9c-8.56,8.55-6.46,19.74-8.75,22-.88,9.17,2.64,22.58,4.59,35.82-5.61,7.92-18.79,7.92-25.85,12.16s-14.3,0-18.44-6c-2.13-3.08,0-6.88,0-14.64a341.35,341.35,0,0,0-1.94-36.52c-1.59-13.41-2.85-25.21,8.79-38.27C136,44.86,144.5,40.4,150,40.4Z"/><path class="cls-10" d="M163.68,50.88a10.11,10.11,0,0,0-3.64,1A20,20,0,0,0,156,54.38a25.4,25.4,0,0,0-3.3,3.34A23.08,23.08,0,0,0,150.54,61c.84-.91,1.64-1.86,2.48-2.77a36.71,36.71,0,0,1,3.35-3.13,25.36,25.36,0,0,1,3.76-2.59A15.07,15.07,0,0,1,163.68,50.88Z"/><path class="cls-10" d="M167.62,58.49a56.78,56.78,0,0,0-7.81,4c-1.36.81-2.7,1.64-4,2.55-.57.4-1.15.8-1.71,1.23,0,0-.71.56-.72.55a4.39,4.39,0,0,0,.77-.36c.62-.3,1.24-.62,1.85-1,1.42-.75,2.81-1.55,4.2-2.34s2.78-1.63,4.15-2.49C165.46,60,166.56,59.26,167.62,58.49Z"/><path class="cls-10" d="M171,66.8a72,72,0,0,0-7.66,3.45c-1.39.7-2.78,1.4-4.15,2.13-.62.33-1.22.67-1.82,1-.19.1-.37.21-.54.32a1,1,0,0,0-.2.12s.7-.23.75-.25c.65-.22,1.3-.46,1.94-.71,1.49-.58,2.93-1.23,4.37-1.92A52.75,52.75,0,0,0,171,66.8Z"/><path class="cls-10" d="M160,45.89l-5.75,2.71c-3.06,1.42-6.12,2.85-9.29,4a30.28,30.28,0,0,1-4.05,1.19,12.58,12.58,0,0,1-4.22.44c-.69-.1-1.37-.28-2-.44s-1.35-.28-2-.4c-1-.17-1.9-.28-2.86-.39,1.17.27,2.33.55,3.48.86a18.59,18.59,0,0,0,4.51,1,16.15,16.15,0,0,0,2.59-.28,23.71,23.71,0,0,0,2.48-.51,40.94,40.94,0,0,0,4.76-1.71c2.44-1,4.83-2.2,7.16-3.46C156.5,48,158.27,47,160,45.89Z"/><path class="cls-10" d="M149.57,59.32c-2.38.37-4.76.74-7.15,1a42,42,0,0,1-5,.34,43.5,43.5,0,0,1-4.95-.52c-1.31-.16-2.62-.28-3.94-.33a28.85,28.85,0,0,0-2.94.06c.5.06,1,.1,1.5.15.76.07,1.5.19,2.26.28,1.6.19,3.19.52,4.78.79a18.11,18.11,0,0,0,2.44.33,23.57,23.57,0,0,0,2.52,0,39.34,39.34,0,0,0,4.94-.67A42.64,42.64,0,0,0,149.57,59.32Z"/><path class="cls-10" d="M153,65.92a68,68,0,0,0-8.56.19c-1.67.15-3.32.42-5,.59s-3.42.27-5.14.37a76.76,76.76,0,0,1-11,.05,40.62,40.62,0,0,0,9,.73A66.4,66.4,0,0,0,142.5,67C146,66.49,149.48,66.26,153,65.92Z"/><path class="cls-10" d="M156.07,72.59c-2.72.52-5.44,1-8.19,1.42-1.64.23-3.29.4-4.95.47s-3.42,0-5.12-.09c-2.77-.1-5.53-.19-8.29-.16a33.77,33.77,0,0,0-7,.66,57.1,57.1,0,0,1,8.87,0c3.39.15,6.79.37,10.19.4a35.73,35.73,0,0,0,8.16-1C151.85,73.8,154,73.27,156.07,72.59Z"/><path class="cls-10" d="M160.5,80.28c-2.94.42-5.92.7-8.89.83-1.65.08-3.32.16-5,.1s-3.42-.16-5.14-.22a90,90,0,0,0-9.85.19,38.64,38.64,0,0,0-8.76,1.37,52.86,52.86,0,0,1,9-.78q5.12-.17,10.22,0c1.65.06,3.31.21,4.95.16l2.42-.09c.83,0,1.65-.12,2.48-.18,1.55-.12,3.1-.35,4.64-.61C157.9,80.85,159.2,80.6,160.5,80.28Z"/><path class="cls-10" d="M128.27,89.53a7.87,7.87,0,0,0-2.32-.2,14.65,14.65,0,0,0-2.29.2,3.72,3.72,0,0,0,2.22.59A4.56,4.56,0,0,0,128.27,89.53Z"/><path class="cls-10" d="M165,99.81a83.63,83.63,0,0,0-8.64-.72,50.69,50.69,0,0,0-10.08.54,36.52,36.52,0,0,1-5,.62,43.22,43.22,0,0,1-5.09-.17c-3.14-.28-6.24-.82-9.34-1.33-.8-.13-1.59-.25-2.39-.36,5.66,1.36,11.46,2.9,17.33,2.61a35.44,35.44,0,0,0,4.92-.65,38.21,38.21,0,0,1,5-.54c3.27-.21,6.55-.19,9.82-.12Z"/><path class="cls-10" d="M157.11,106.48c-2.71,0-5.42.06-8.13,0-1.71,0-3.42-.06-5.12-.21s-3.39-.35-5.09-.39a70,70,0,0,0-7.66.22c-2,.16-4.08.38-6.13.54,2.83.1,5.65,0,8.48-.06,1.69,0,3.38,0,5.07.06s3.38.25,5.07.38a59.33,59.33,0,0,0,7.66,0C153.21,106.91,155.17,106.75,157.11,106.48Z"/><path class="cls-10" d="M149.57,114.3c-6.25-.55-12.53-.71-18.79-1-1.84-.1-3.69-.23-5.54-.3a67.71,67.71,0,0,0,8.64,1.18c3.37.27,6.75.37,10.13.36C145.86,114.48,147.72,114.44,149.57,114.3Z"/><path class="cls-10" d="M152.61,122c-5.64-.13-11.28,0-16.92-.13-1.88,0-3.75-.09-5.62-.21a21.43,21.43,0,0,1-4.65-.71,15.27,15.27,0,0,0,4,1.11,48.82,48.82,0,0,0,5,.5c3.42.2,6.85.19,10.27.05C147.34,122.54,150,122.38,152.61,122Z"/><path class="cls-10" d="M168.82,127.48c-2.69.18-5.37.44-8,.72-1.67.18-3.33.38-5,.62-1.35.2-2.68.45-4,.68a31.6,31.6,0,0,1-4.12.31c-1.7.06-3.41.08-5.11.07-3.33,0-6.66-.17-10-.44a52.82,52.82,0,0,1-7.31-1.09,44.43,44.43,0,0,0,8.7,1.75,92.66,92.66,0,0,0,10.13.56c1.72,0,3.44,0,5.16-.14.86-.06,1.72-.13,2.57-.26s1.67-.32,2.5-.49c3.23-.64,6.51-1.06,9.77-1.56Z"/><path class="cls-10" d="M169.73,133.12c-2.81.57-5.61,1.21-8.39,1.9-3.28.82-6.54,1.75-9.79,2.69a28.71,28.71,0,0,1-10.1,1,23.42,23.42,0,0,1-4.91-.88l-4.75-1.39c-2.39-.69-4.82-1.27-7.24-1.86,2.72.9,5.46,1.76,8.17,2.66,1.6.54,3.18,1.12,4.81,1.56a23.68,23.68,0,0,0,5,.74,30,30,0,0,0,10.12-1.41q4.8-1.47,9.62-2.89Z"/><path class="cls-14" d="M143.68,31.44c2.2-8.12,8.23-13.39,5-20.8S141.44.55,132.12.17s-20.83-.51-21,4.33,3.14,9.1,7.53,11.15C123.19,20.59,137.39,30.06,143.68,31.44Z"/><path class="cls-8" d="M115,9.83c-1,6.12-.84,34,14.73,29,2.72,2.94,3.54,6.49,3.32,11.9,0,3.68,6.68-7,16.92-10.35-3.58-3.88-6.63-8.27-7.68-14.66,1.78-.61,3.17-2.69,2.18-5.9S139.72,16.74,139,21a9.49,9.49,0,0,1-2.45-6.34c.08-1.86-2.22-5.2-5.59-6.07C128.4,7.92,117.45,7.57,115,9.83Z"/><path class="cls-9" d="M140.21,22c.63-1.72,1.58-2.88,2.46-1.93s0,4.27-1.77,3.85C140.94,22.88,141.53,22.06,140.21,22Z"/><path class="cls-9" d="M123.35,26.94a4.27,4.27,0,0,1-2.07,0,1.34,1.34,0,0,1-.85-1.79,1.88,1.88,0,0,1,.29-.39,3.53,3.53,0,0,0,.72-1.17,5.54,5.54,0,0,0,.27-2.29,7.8,7.8,0,0,1-.78,2.36,6.59,6.59,0,0,1-.7.88,1.68,1.68,0,0,0-.36.62A1.74,1.74,0,0,0,121,27.32,3.32,3.32,0,0,0,123.35,26.94Z"/><path class="cls-9" d="M126.06,30.36a4.87,4.87,0,0,1-2.69,1,7.66,7.66,0,0,1-3-.77,4.18,4.18,0,0,0,2.91,1.3,3.74,3.74,0,0,0,1.78-.51,3.94,3.94,0,0,0,.64-.52C125.79,30.74,126.06,30.5,126.06,30.36Z"/><path class="cls-14" d="M118.09,21.55a.77.77,0,1,0,.8-.84A.83.83,0,0,0,118.09,21.55Z"/><path class="cls-9" d="M119.62,20.3a1.44,1.44,0,0,0-1.29-.6,1.91,1.91,0,0,0-.82.17c-.08,0-.5.22-.5.32S119.39,20.26,119.62,20.3Z"/><path class="cls-14" d="M120.62,18.74c.34-.87-1.05-1.67-2.63-1.4-1.11.19-2.35.55-2.25,1.48.07.62,1.22,0,2.43.07S120.34,19.48,120.62,18.74Z"/><path class="cls-14" d="M129.58,21.18a.83.83,0,0,1-.73.91.88.88,0,0,1-.08-1.75A.83.83,0,0,1,129.58,21.18Z"/><path class="cls-9" d="M127,19.93c.22,0,2.6-.09,2.6-.12s-.42-.28-.5-.32a1.91,1.91,0,0,0-.82-.16A1.4,1.4,0,0,0,127,19.93Z"/><path class="cls-14" d="M126,18.38c-.34-.87,1-1.67,2.63-1.41,1.11.18,2.65.66,2.56,1.59-.07.63-1.53-.1-2.74,0S126.26,19.12,126,18.38Z"/><path class="cls-9" d="M137.25,32.34c-1,3.57-3.59,6.7-5.8,8.9a11.84,11.84,0,0,0-1.72-2.39A18.32,18.32,0,0,0,137.25,32.34Z"/><path class="cls-15" d="M149.53,128.35c-2.61,4.94-4.86,22.61-3.8,36.63a8,8,0,0,1-3.84-3c0-6.62,1.45-24.18,4.6-36.4C147.65,125.33,149.11,126.72,149.53,128.35Z"/><path class="cls-15" d="M136.07,96c4.1,5.69,8.57,11.77,14.94,16.67-.78,2.65-1.48,4.63-1.48,4.63S140.72,111,133.43,96Z"/><path class="cls-10" d="M166.37,102.77c5.77,1.09,6,22,.89,23.64s-14,.18-17.73,1.94c-1.34-1.29-2-1.73-3-2.74C148.25,118.81,148.73,99.42,166.37,102.77Z"/><path class="cls-6" d="M151.42,115.1c13,0,17.92-2.71,18.13-2.82a.8.8,0,0,0-.79-1.38c-.06,0-4.84,2.61-17.34,2.61a.79.79,0,0,0-.79.8A.79.79,0,0,0,151.42,115.1Z"/><path class="cls-16" d="M170.61,119.6a23.78,23.78,0,0,0,.18-8.82,29.25,29.25,0,0,0-1.26-4.89,7.13,7.13,0,0,0-.52-1.2,4.42,4.42,0,0,0-1.69-1.58,4.85,4.85,0,0,0-2.27-.55,4.75,4.75,0,0,1,3.47,2.07,5.46,5.46,0,0,1,.52,1.22c.24.78.47,1.55.67,2.34a32,32,0,0,1,1,9.6C170.7,118.39,170.65,119,170.61,119.6Z"/><path class="cls-4" d="M158.71,44.64c-.8-3.27-7.77-5.65-15.8,2.38S128.57,69.46,127.34,80c3.75,10.63,5.67,5.58,8.73,2.51C137.09,72.25,141.41,40.87,158.71,44.64Z"/><path class="cls-5" d="M155.58,42.8a.28.28,0,0,0,.26-.23.27.27,0,0,0-.22-.3,4.66,4.66,0,0,0-.57,0h0a.27.27,0,1,0,0,.53c.31,0,.48,0,.49,0Z"/><path class="cls-5" d="M131.16,81a.25.25,0,0,1-.21-.31c.07-.34.13-.68.2-1a.27.27,0,1,1,.52.11c-.07.33-.13.67-.2,1a.27.27,0,0,1-.26.22Zm.4-2a.26.26,0,0,1-.2-.31c.07-.34.14-.68.22-1a.25.25,0,0,1,.31-.2.26.26,0,0,1,.2.31c-.07.34-.14.67-.21,1a.28.28,0,0,1-.26.21Zm.44-2a.28.28,0,0,1-.2-.32c.08-.34.15-.68.23-1a.26.26,0,0,1,.32-.19.26.26,0,0,1,.2.31c-.08.34-.16.68-.23,1a.27.27,0,0,1-.26.2Zm.47-2a.27.27,0,0,1-.2-.32c.08-.34.17-.68.25-1a.26.26,0,1,1,.51.12l-.24,1a.28.28,0,0,1-.26.21Zm.5-2a.26.26,0,0,1-.19-.33c.08-.34.17-.67.26-1a.27.27,0,0,1,.33-.19.26.26,0,0,1,.18.32c-.09.33-.17.67-.26,1a.27.27,0,0,1-.26.2Zm.53-2a.27.27,0,0,1-.18-.33c.09-.34.19-.67.28-1a.26.26,0,0,1,.33-.18.26.26,0,0,1,.18.32c-.09.33-.19.66-.28,1a.28.28,0,0,1-.26.2Zm.57-2a.25.25,0,0,1-.17-.32l.3-1a.28.28,0,0,1,.33-.18.28.28,0,0,1,.18.34c-.1.32-.2.65-.31,1a.26.26,0,0,1-.25.19Zm.62-2a.28.28,0,0,1-.17-.34l.33-1a.26.26,0,0,1,.5.17q-.16.48-.33,1a.26.26,0,0,1-.25.18Zm.66-2a.26.26,0,0,1-.16-.34c.12-.33.23-.66.35-1a.26.26,0,0,1,.34-.16.27.27,0,0,1,.16.34c-.12.32-.24.65-.35,1a.27.27,0,0,1-.25.18Zm.71-2a.27.27,0,0,1-.15-.35c.12-.33.25-.65.38-1a.27.27,0,0,1,.34-.15.27.27,0,0,1,.15.35c-.13.31-.25.64-.38,1a.26.26,0,0,1-.25.17Zm.76-1.94a.27.27,0,0,1-.14-.35l.41-1a.28.28,0,0,1,.35-.14.27.27,0,0,1,.13.35c-.13.32-.27.63-.4,1a.26.26,0,0,1-.25.16Zm.82-1.91a.27.27,0,0,1-.13-.35l.44-1a.27.27,0,1,1,.48.23l-.44.94a.27.27,0,0,1-.24.15Zm.89-1.89a.26.26,0,0,1-.12-.35q.24-.48.48-.93a.27.27,0,1,1,.47.25c-.16.3-.32.6-.47.92a.27.27,0,0,1-.24.14Zm1-1.84a.27.27,0,0,1-.11-.36l.52-.91a.26.26,0,1,1,.46.26l-.51.9a.27.27,0,0,1-.23.14A.28.28,0,0,1,139.49,55.33Zm1-1.81a.26.26,0,0,1-.08-.36c.18-.3.37-.6.56-.89a.26.26,0,0,1,.36-.07.25.25,0,0,1,.08.36c-.18.29-.37.58-.55.88a.27.27,0,0,1-.23.12A.27.27,0,0,1,140.52,53.52Zm1.13-1.75a.27.27,0,0,1-.07-.37c.2-.29.41-.57.61-.85a.27.27,0,0,1,.37-.06.26.26,0,0,1,.05.37l-.59.85a.29.29,0,0,1-.22.11A.27.27,0,0,1,141.65,51.77Zm1.22-1.68a.26.26,0,0,1-.05-.37c.22-.28.44-.55.67-.82a.26.26,0,1,1,.4.34c-.22.26-.44.53-.65.8a.25.25,0,0,1-.21.1A.24.24,0,0,1,142.87,50.09Zm1.32-1.6a.28.28,0,0,1,0-.38c.23-.26.48-.51.72-.76a.27.27,0,0,1,.37,0,.26.26,0,0,1,0,.37c-.24.24-.48.49-.71.75a.27.27,0,0,1-.2.09A.34.34,0,0,1,144.19,48.49Zm1.45-1.5a.27.27,0,0,1,0-.37c.26-.24.53-.48.79-.7a.27.27,0,0,1,.37,0,.26.26,0,0,1,0,.37L146,47a.29.29,0,0,1-.18.07A.25.25,0,0,1,145.64,47Zm1.57-1.36a.27.27,0,0,1,0-.37c.29-.21.57-.42.86-.61a.27.27,0,0,1,.3.44c-.28.18-.56.38-.84.59a.23.23,0,0,1-.16.06A.26.26,0,0,1,147.21,45.63Zm1.71-1.18a.28.28,0,0,1,.09-.37c.31-.18.62-.35.93-.5a.26.26,0,1,1,.24.47c-.3.15-.6.32-.9.49a.22.22,0,0,1-.13,0A.28.28,0,0,1,148.92,44.45Zm1.84-1a.26.26,0,0,1,.15-.34c.33-.14.66-.26,1-.37a.26.26,0,0,1,.33.17.25.25,0,0,1-.17.33c-.31.11-.63.22-.95.36l-.1,0A.27.27,0,0,1,150.76,43.48Zm2-.68a.26.26,0,0,1,.2-.31,10.1,10.1,0,0,1,1-.19.27.27,0,0,1,.06.53c-.32,0-.66.1-1,.17h0A.27.27,0,0,1,152.73,42.8Z"/><path class="cls-5" d="M130.91,82.55a.26.26,0,0,0,.26-.22l.1-.52a.28.28,0,0,0-.21-.31.27.27,0,0,0-.31.21l-.1.52a.26.26,0,0,0,.21.31Z"/><path class="cls-11" d="M165,101.66c-8.24-2.25-22.86-2.37-29-4.49a74.92,74.92,0,0,1,16.81-7.64c1.45-4.06,1.19-17.11-1.46-26.63,1.06,2.25,5.82,12,7.94,16.93,4.71,4.71,6.36,11.13,6.58,15.81a3.73,3.73,0,0,1-.8,1.66,36.38,36.38,0,0,0-.12,4.36Z"/><path class="cls-17" d="M159.36,79.83c-.91-2.67-2-5.27-3.16-7.85-1.34-3-2.77-6.06-4.38-9-.58-1.06-1.19-2.1-1.85-3.11,1.12,2.72,2.31,5.44,3.56,8.11,1.41,3,2.82,6.08,4.35,9,.34.68.7,1.35,1.06,2C159,79.15,159.28,79.83,159.36,79.83Z"/><path class="cls-8" d="M173.89,75.27c1.87,5.74,3.33,12.45,3.33,15.23s-2.29,7.41-3.88,7.41-28.14-.74-34.75-.74-11,.13-12.31-2.78,0-3.31,0-4.9-.59-3.3-.59-4.63-.6-4,1.65-4.89c2,2,4.63,4.63,8.73,2.51,2.05,2,3.57,2.25,2.78,6.75,3.57,0,17.47-2.25,23-3.71-.59-1.47-1.92-4-2.51-5.69C165.18,77.85,168.42,76.9,173.89,75.27Z"/><path class="cls-9" d="M161.87,85.52c.77.24,1.56.38,2.34.57.43.1.86.21,1.28.29s.59.16.88.21a4.74,4.74,0,0,0-2-1A5.25,5.25,0,0,0,161.87,85.52Z"/><path class="cls-14" d="M80.25,51.29c1.46-4.26,3.15-9.59,1.8-13.81-2.31-7.21-8-9.76-16-9.32C60,28.5,55,34.47,55.78,41c4.94,6.51,21.64,21,27.71,25.41a35.73,35.73,0,0,1,5.35-6.9C84.8,57,80.25,56.35,80.25,51.29Z"/><path class="cls-18" d="M80.25,51.29a6.53,6.53,0,0,1-4.71,1.05,22.19,22.19,0,0,1,.67,3.18s3-.15,4.53-1.72C80.74,52.72,81,52,80.25,51.29Z"/><path class="cls-8" d="M63.75,32.6c-2.25,0-8.11,1.35-8,9.51.22,13.21,3.91,17.21,9.65,16.82A38.35,38.35,0,0,1,69,67.24c3.37-.68,8.75-2.81,13-2.81-3.48-3.48-5.73-6.85-5.73-16.84,1.91,0,2.74-2,2.74-3.89,0-2.77-2.87-4.55-3.88-1.18-1.72,1-2.51-2.23-2.94-3.86C71.37,35.33,70.34,32.6,63.75,32.6Z"/><path class="cls-9" d="M75.73,44c.37-.9,1.12-1.76,1.6-.71s.19,3-1.38,2.06A.78.78,0,0,0,75.73,44Z"/><path class="cls-9" d="M65.43,58.93a9.15,9.15,0,0,0,7.13-4.66,10.41,10.41,0,0,1-6,6.67C66.2,60.26,65.83,59.58,65.43,58.93Z"/><path class="cls-9" d="M62.27,48.53a3.79,3.79,0,0,1-1.57.07,1,1,0,0,1-.6-1.46,3.78,3.78,0,0,1,.55-.66,2.32,2.32,0,0,0,.4-.82,5.12,5.12,0,0,0,.12-1.51,6.64,6.64,0,0,1-.41,1.59c-.28.63-1,1-1.1,1.66a1.17,1.17,0,0,0,.92,1.43A2.77,2.77,0,0,0,62.27,48.53Z"/><path class="cls-9" d="M64.23,51.69a7.64,7.64,0,0,1-2.49.56,4.62,4.62,0,0,1-1.11-.2,6.56,6.56,0,0,1-1.08-.48,2.58,2.58,0,0,0,2.19,1.35A3,3,0,0,0,64.23,51.69Z"/><path class="cls-14" d="M57.9,44.34a.66.66,0,1,0,.71-.69A.71.71,0,0,0,57.9,44.34Z"/><path class="cls-9" d="M59.24,43.34c-.43-.72-1.62-.56-2.21-.17A11.69,11.69,0,0,1,59.24,43.34Z"/><path class="cls-14" d="M67.74,44.42a.66.66,0,1,1-1.31,0,.66.66,0,1,1,1.31,0Z"/><path class="cls-9" d="M65.57,43.3a11.77,11.77,0,0,1,2.22,0C67.23,42.86,66.06,42.62,65.57,43.3Z"/><path class="cls-14" d="M64.62,41.59c-.26-.74.88-1.1,2.41-.88.94.14,2.13.6,2.12,1.07s-1.44-.17-2.47-.16S64.84,42.23,64.62,41.59Z"/><path class="cls-14" d="M60.18,41.79c.26-.75-.88-1.11-2.41-.88-.94.13-1.52.56-1.51,1s.83-.13,1.86-.12S60,42.42,60.18,41.79Z"/><path class="cls-19" d="M62.65,112.66c-5,5-9.29,7.9-12.6,11.21-7.39-7.4-15.86-17.05-19.44-20.63C28.43,101.06,9.11,82.51.05,73.45a73.27,73.27,0,0,0,2.7-7.64C4,67.28,5,69.23,6,70.61c3.22-3.22,13.05-8.23,18.18-14.86C32.84,64.36,49.28,80.9,60,89.84,61.06,97.21,63.67,108.9,62.65,112.66Z"/><path class="cls-20" d="M6.61,71.43c7-5,13.62-9.56,17.79-13.74,9.65,9.65,25.88,25.15,35,34.25,1,5.27,2.14,18.19,2.14,18.19s-4.66,4.75-9.49,9.58C48.6,116.51,20.23,88.57,6.61,71.43Z"/><g class="cls-21"><path class="cls-22" d="M38.53,68.53c-5.78-5.77-15-14.26-15-14.26L4.84,71.43l2.55,4s4.34,1.21,5.09-.82,3-.85,3.89,0,2.44,2.63,3.89,1.18.75-3.36,3-4.33,3.07,1.66,4.56,3.15,3,3,4.25,1.73.77-3.61,2.71-3.61S38.53,68.53,38.53,68.53Z"/><path class="cls-22" d="M48.85,78.54s-3.85,3.4-3.24,8.3c.34,2.8,2.45,6.56-.91,8.91-1.85,1.31-5.57-10.51-14.84-9.28-4.81.64-8.85-1-10.5.6C22.21,89.92,51.1,120.9,51.1,120.9l13.48-11.66S64.72,85.87,48.85,78.54Z"/><path class="cls-23" d="M36.43,68.53s-6.35,3.76-9.26.85-3.33-7.1-6.31-4.13-5.69,5.65-12.13,2c4.38-4.38,13.85-13,13.85-13Z"/><path class="cls-23" d="M51.1,120.9,23.57,91.49a12.11,12.11,0,0,0,6.29,0c3-1,6.94-3.07,7.48,0s6,12.5,9,11.75,1.6-2.81,3.71-4.91,8.15-.77,5.66-3.25-2.08-8.29.55-10.92c4.27,3.21,17.41,21.66,17.41,21.66Z"/></g><path class="cls-24" d="M53.32,120.9q-5.07-4.82-10-9.77c-4.11-4.11-8.14-8.3-12.13-12.52s-8.06-8.57-12-12.92c-1.92-2.1-3.84-4.21-5.73-6.34S9.73,75.25,8,73.12c-.67-.83-1.32-1.66-1.95-2.51,1.33,1.93,2.81,3.75,4.32,5.55Q13,79.37,15.82,82.5c3.82,4.35,7.73,8.62,11.68,12.86s8.08,8.53,12.24,12.67c3.9,3.88,7.83,7.72,11.93,11.39Z"/><path class="cls-24" d="M1.62,69.38c-.42,1-.83,2.06-1.24,3.1l-.29.72s-.13.24-.08.29l.14.13,2.77,2.76,5.24,5.23,6.27,6.24,5.85,5.83q2,2,4,4l2.17,2.17q3.16,3.15,6.31,6.31l4.6,4.61c1.37,1.37,2.73,2.77,4.09,4.15,1.92,2,3.84,3.92,5.72,5.91,1,1,1.94,2,2.9,3.07-2-2.2-3.91-4.45-6-6.57l-4.6-4.82q-1.95-2-3.93-4.06l-4.13-4.2c-2-2-4-4-6-6-1.39-1.38-2.77-2.77-4.16-4.14l-4-4c-1.48-1.46-2.95-2.93-4.44-4.38l-5-4.91-4-3.91L.09,73.41s0,0,0,.06C.61,72.11,1.11,70.74,1.62,69.38Z"/><path class="cls-8" d="M61.06,84.3c-3.49-2.36-4.44-3.55-5.51-4.08-3.89-1.91-4.91-3.8-8.66-2.21.61.62,1,1,1,1s2.7-.85,4.61,2.29c-3,.15-5.56-1.14-6.06-.64-.74.74,2,2.1,5,3.11s1,4,8.2,4.94A14.33,14.33,0,0,1,61.06,84.3Z"/><path class="cls-13" d="M93.17,136.29c2.24,9.54-.23,13.58-3.15,23.91,2,8.53,3.15,13.7,4.94,18H62.18c1.12-13.24,2-28.5,1-37C66.44,134.83,84.63,133,93.17,136.29Z"/><path class="cls-12" d="M83,178.16c1.13-2.1,2.06-4.33,3-6.54,1.09-2.63,2.12-5.3,3-8,.38-1.12.75-2.26,1-3.41A71.8,71.8,0,0,0,87,166.8c-1.11,2.62-2.12,5.3-3,8C83.62,175.93,83.27,177,83,178.16Z"/><path class="cls-10" d="M82.05,64.43c4.83,7.75,8.31,17.18,6.79,29.53s.51,30.1,4.33,42.33c-6.46,6.45-24.8,2.58-30,4.82-1.86-7.86-.52-17.42-1.87-28S56.5,96.43,58.78,87.67s8-18.13,10.25-20.43C71.72,64.54,78.35,63,82.05,64.43Z"/><path class="cls-13" d="M87.43,115.53s-1,1.48-4.29,2.08v10.33a32.29,32.29,0,0,0,4.53-2.45S87.43,119.14,87.43,115.53Z"/><path class="cls-13" d="M64.58,121.73v4.45a4,4,0,0,1-2.6-.79c-.86-.85-.32-3.45-.08-3.66C62.39,121.32,63.06,121.73,64.58,121.73Z"/><path class="cls-13" d="M87.55,108.48A26.32,26.32,0,0,1,75,105.82c-.57,1.69-1.06,2.65-1.32,3.48,4.83,1.57,10.26,4,13.83,3.18C87.53,110.72,87.54,110.14,87.55,108.48Z"/><path class="cls-25" d="M84,115.8c1.62.32,1.28,13.38-2,15s-16,.5-17.47-.92-1.18-11.76-.15-12.59C66.17,115.91,80.37,115.07,84,115.8Z"/><path class="cls-13" d="M65.32,121.35a179.61,179.61,0,0,0,18.35-.8.45.45,0,0,0,.4-.5.44.44,0,0,0-.5-.39c-.07,0-7.07.79-18.25.79a.45.45,0,0,0-.45.45A.45.45,0,0,0,65.32,121.35Z"/><path class="cls-13" d="M82.05,64.43C84,60.5,89.12,50,95,52.2s18,15.71,16,19.75-4.27,4.79-4.27,8.68c3.82,7.49,6.51,12.49,6.51,21.55s.34,21.76-4.27,26.36-17.57,1.18-20-1.29-1.29-4.42-1.29-20.43S91.14,83.63,82.05,64.43Z"/><path class="cls-11" d="M83.88,68.53c.76.86,1.52,1.72,2.35,2.52,1,1,2,1.88,3.06,2.76a38.92,38.92,0,0,0,3.47,2.53,18.89,18.89,0,0,0,2,1.23A29.23,29.23,0,0,0,100.6,80a18.68,18.68,0,0,0,6,.64,25.74,25.74,0,0,1-7.32-1.85c-1.32-.55-2.58-1.17-3.84-1.84-.53-.28-1-.61-1.55-.9a58.5,58.5,0,0,1-5.44-3.77C86.91,71.08,85.42,69.77,83.88,68.53Z"/><path class="cls-25" d="M106,77.39a.58.58,0,0,0,.53-.39.57.57,0,0,0-.36-.71c-.11,0-10.9-3.54-18.24-10.87a.56.56,0,0,0-.79.79c7.53,7.53,18.57,11.11,18.68,11.15A.57.57,0,0,0,106,77.39Z"/><path class="cls-25" d="M106.52,95.08a43.17,43.17,0,0,0,5.84-.34.79.79,0,0,0-.23-1.56,57.91,57.91,0,0,1-23.9-2.59,4.26,4.26,0,0,0,0,1.58A57.36,57.36,0,0,0,106.52,95.08Z"/><path class="cls-25" d="M113.16,105.69a.79.79,0,0,0,.07-1.57c-.13,0-13.77-1.57-25.19-9a4.09,4.09,0,0,0-.12,1.79,59.49,59.49,0,0,0,25.16,8.75Z"/><path class="cls-10" d="M109.89,107.88c0,7.75.19,14.61-.89,15.69a16.78,16.78,0,0,1-9.43,3.4c-3.93,0-7.81-2-8.87-4.38s-.57-10.67-.57-14.71Z"/><path class="cls-13" d="M90.13,108.44h19.76a.56.56,0,1,0,0-1.12H90.13a.56.56,0,0,0,0,1.12Z"/><path class="cls-13" d="M104.32,108.69a22.16,22.16,0,0,0-3,1.57c-.61.37-1.18.8-1.78,1.19a20.81,20.81,0,0,1-1.84,1c-1.26.64-2.5,1.33-3.71,2.08-.58.36-1.14.73-1.7,1.12-.25.17-.5.34-.74.52l-.26.2s-.13.12,0,.09.38-.17.44-.2l.89-.44c.62-.31,1.22-.64,1.81-1,1.23-.69,2.41-1.48,3.59-2.28a20.6,20.6,0,0,1,1.8-1.1c.63-.33,1.28-.63,1.9-1s1.13-.69,1.68-1.07L104,109l.25-.2S104.4,108.66,104.32,108.69Z"/><path class="cls-13" d="M98.8,108.55a7.24,7.24,0,0,0-1.39.63c-.57.31-1.06.73-1.6,1.09s-1.21.6-1.81.93-1.19.64-1.75,1a15.17,15.17,0,0,0-1.36,1c-.14.13.19,0,.22,0,.27-.11.54-.23.8-.36a14.62,14.62,0,0,0,1.73-1c.59-.39,1.14-.82,1.73-1.21s1.39-.66,2-1.07c.31-.2.62-.41.92-.64l.35-.28S98.88,108.52,98.8,108.55Z"/><path class="cls-13" d="M92.75,108.45a.88.88,0,0,0-.63.17c-.11.09-.16.23-.28.31a.75.75,0,0,1-.36.13,1.52,1.52,0,0,0-.71.34s-.39.45-.29.45.54-.09.64-.13a2.63,2.63,0,0,0,.64-.56c.2-.19.47-.12.69-.27C92.48,108.86,92.86,108.48,92.75,108.45Z"/><path class="cls-13" d="M108.87,109.6c-1,.46-2,1-2.9,1.53-1.2.69-2.33,1.46-3.49,2.2s-2.51,1.43-3.78,2.13-2.43,1.37-3.62,2.1-2.19,1.37-3.25,2.11l-.53.37c-.1.07,0,.08,0,0l1.46-.74c2.44-1.29,4.8-2.71,7.1-4.23.82-.54,1.65-1.07,2.5-1.56s1.72-.89,2.56-1.38,1.57-.94,2.33-1.44l.88-.58.49-.35.18-.13S108.94,109.56,108.87,109.6Z"/><path class="cls-13" d="M108.87,113.21c-1,.47-2,1-3,1.58-1.2.69-2.33,1.52-3.52,2.24s-2.5,1.37-3.74,2.07-2.44,1.4-3.63,2.16c-.22.14-2.67,1.74-2.62,1.8a6,6,0,0,0,1.13-.54c.57-.3,1.14-.6,1.7-.91,1.23-.68,2.43-1.41,3.63-2.15s2.38-1.59,3.61-2.32,2.5-1.31,3.71-2.06c.54-.33,1.08-.67,1.61-1l.67-.46.3-.22.15-.1S108.93,113.18,108.87,113.21Z"/><path class="cls-13" d="M108.87,116.82a22.37,22.37,0,0,0-2.87,1.5c-.6.35-1.16.76-1.73,1.15a18.78,18.78,0,0,1-1.83,1.09,51.37,51.37,0,0,0-6.9,4.16l-.18.13s-.06.08,0,.06l.54-.25c.56-.27,1.11-.56,1.66-.86,1.21-.66,2.38-1.37,3.54-2.11.61-.39,1.19-.81,1.8-1.2a18.48,18.48,0,0,1,1.84-1,29.58,29.58,0,0,0,3.38-2l.57-.42.17-.12S108.94,116.79,108.87,116.82Z"/><path class="cls-13" d="M108.87,120.43a12.19,12.19,0,0,0-3,1.66,32.32,32.32,0,0,1-3.58,2,21.09,21.09,0,0,0-3.14,2.08c-.11.09-.09.12,0,.07s.5-.21.74-.33c.6-.28,1.18-.59,1.75-.92s1.34-.81,2-1.26a15,15,0,0,1,2-1.25,18,18,0,0,0,2-1.08c.29-.19.56-.38.83-.58l.36-.28S109,120.4,108.87,120.43Z"/><path class="cls-13" d="M95.45,108.73a21.66,21.66,0,0,0,2.8,1.87c.62.36,1.27.65,1.9,1a20.63,20.63,0,0,1,1.79,1.12c1.17.8,2.37,1.56,3.6,2.26.59.34,1.19.66,1.8,1l.81.4.3.13s.17,0,.1,0-.33-.25-.39-.29c-.27-.2-.54-.38-.81-.57-.56-.39-1.14-.77-1.72-1.12-1.2-.76-2.46-1.42-3.71-2.07a20.9,20.9,0,0,1-1.84-1.06c-.59-.4-1.16-.83-1.77-1.19s-1.16-.66-1.75-1l-.7-.35-.3-.13S95.39,108.68,95.45,108.73Z"/><path class="cls-13" d="M101,108.59a7.72,7.72,0,0,0,1.21.92c.56.35,1.17.58,1.75.9s1.14.8,1.73,1.18a16.64,16.64,0,0,0,1.72,1,12.08,12.08,0,0,0,1.51.69s.06,0,0,0l-.23-.2c-.23-.18-.46-.36-.7-.53a14.71,14.71,0,0,0-1.68-1c-.61-.33-1.25-.6-1.86-.93s-1.22-.89-1.87-1.26a10.46,10.46,0,0,0-1-.51l-.42-.17S100.92,108.53,101,108.59Z"/><path class="cls-13" d="M107,108.49a.88.88,0,0,0,.44.47c.13.05.28,0,.42.09a1,1,0,0,1,.28.26,1.41,1.41,0,0,0,.64.46s.58.13.54,0-.34-.44-.43-.5a2.28,2.28,0,0,0-.8-.3c-.26-.09-.33-.36-.56-.47C107.52,108.53,107,108.38,107,108.49Z"/><path class="cls-13" d="M90.9,109.63c.88.65,1.8,1.26,2.74,1.83,1.17.72,2.39,1.34,3.6,2s2.45,1.53,3.67,2.3,2.36,1.49,3.57,2.19,2.26,1.26,3.41,1.84l.58.29c.11.06.08,0,0-.06q-.67-.48-1.35-.93c-2.3-1.53-4.68-2.93-7.11-4.22-.86-.47-1.73-.94-2.56-1.46s-1.61-1.08-2.43-1.59-1.58-.92-2.38-1.36l-.93-.48-.54-.27-.2-.1S90.84,109.59,90.9,109.63Z"/><path class="cls-13" d="M90.9,113.25c.91.67,1.86,1.28,2.82,1.88,1.21.74,2.5,1.34,3.72,2.06s2.4,1.56,3.62,2.31,2.39,1.47,3.62,2.15c.56.31,1.13.61,1.7.9l.74.38.23.11s.15,0,.08,0-.26-.19-.3-.22l-.76-.53c-.54-.36-1.07-.72-1.62-1.06-1.19-.76-2.41-1.47-3.63-2.16s-2.53-1.33-3.74-2.07-2.32-1.55-3.52-2.24c-.55-.32-1.11-.63-1.67-.92l-.74-.37-.33-.16-.16-.08S90.85,113.21,90.9,113.25Z"/><path class="cls-13" d="M90.9,116.86a23.46,23.46,0,0,0,2.7,1.8c.59.36,1.21.66,1.83,1a17,17,0,0,1,1.83,1.09,52.59,52.59,0,0,0,6.95,4.07l.21.1s.09,0,0,0l-.47-.35c-.51-.37-1-.72-1.55-1.06-1.15-.75-2.34-1.44-3.54-2.1-.63-.35-1.29-.66-1.92-1a20.63,20.63,0,0,1-1.79-1.12,29.63,29.63,0,0,0-3.39-2l-.64-.3-.19-.08S90.84,116.81,90.9,116.86Z"/><path class="cls-13" d="M90.9,120.47a12.52,12.52,0,0,0,2.91,1.86,32,32,0,0,1,3.56,2.22,19.86,19.86,0,0,0,3.29,1.73c.17.07,0,0,0-.11l-.66-.5c-.54-.39-1.09-.76-1.65-1.1s-1.36-.79-2.06-1.13a14.39,14.39,0,0,1-2-1.11,16.8,16.8,0,0,0-1.88-1.22c-.3-.16-.6-.31-.91-.45l-.41-.18S90.84,120.41,90.9,120.47Z"/><path class="cls-13" d="M84.38,69.78c0-3.07-.57-9.22-8.84-6.89S60,70,66,89.84c.67-5.82,1.38-11.57,1.38-11.57s.16-8.79,8.24-10.36C80.92,66.87,83.27,68.66,84.38,69.78Z"/><path class="cls-26" d="M83.88,66.68a.23.23,0,0,0,.2-.13.22.22,0,0,0-.11-.3l-.42-.19a.23.23,0,0,0-.29.13.22.22,0,0,0,.12.29c.26.1.4.17.4.17A.19.19,0,0,0,83.88,66.68Z"/><path class="cls-10" d="M66,84.43c-.05-.3-.09-.59-.13-.88a.22.22,0,0,1,.2-.25.22.22,0,0,1,.25.19l.12.88a.22.22,0,0,1-.19.25h0A.22.22,0,0,1,66,84.43Zm-.23-1.77-.09-.89a.23.23,0,0,1,.45,0c0,.29,0,.59.09.88a.23.23,0,0,1-.2.25h0A.22.22,0,0,1,65.78,82.66Zm-.15-1.78c0-.3,0-.6,0-.89a.23.23,0,0,1,.22-.24A.25.25,0,0,1,66,80c0,.29,0,.59,0,.88a.23.23,0,0,1-.21.24h0A.22.22,0,0,1,65.63,80.88Zm.17-1.56a.24.24,0,0,1-.22-.23c0-.3,0-.6,0-.9a.23.23,0,0,1,.45,0c0,.29,0,.59,0,.88a.23.23,0,0,1-.23.23Zm.06-1.78a.22.22,0,0,1-.21-.24c0-.31.06-.61.1-.9a.22.22,0,0,1,.25-.19.22.22,0,0,1,.19.25c0,.28-.07.58-.09.88a.23.23,0,0,1-.22.2Zm.21-1.76a.22.22,0,0,1-.18-.26c0-.3.11-.6.18-.89a.22.22,0,0,1,.27-.16.23.23,0,0,1,.17.27c-.07.28-.13.57-.18.86a.23.23,0,0,1-.22.18ZM66.46,74a.22.22,0,0,1-.15-.28c.09-.28.18-.57.29-.85a.22.22,0,0,1,.29-.13.23.23,0,0,1,.13.29c-.1.27-.2.55-.28.83a.24.24,0,0,1-.22.16Zm.6-1.67a.22.22,0,0,1-.12-.29c.13-.28.26-.55.4-.81a.23.23,0,0,1,.31-.09.22.22,0,0,1,.09.3c-.14.25-.27.52-.39.78a.2.2,0,0,1-.2.13A.15.15,0,0,1,67.06,72.37Zm.81-1.57a.22.22,0,0,1-.07-.31,7.52,7.52,0,0,1,.5-.75.22.22,0,0,1,.31-.06.24.24,0,0,1,0,.32q-.25.36-.48.72a.24.24,0,0,1-.19.11A.24.24,0,0,1,67.87,70.8Zm1-1.47a.22.22,0,0,1,0-.31c.19-.23.39-.46.59-.68a.22.22,0,1,1,.33.3c-.19.22-.39.44-.57.66a.2.2,0,0,1-.17.08A.19.19,0,0,1,68.88,69.33ZM70.05,68a.23.23,0,0,1,0-.31c.21-.21.43-.42.66-.62a.23.23,0,0,1,.3.34c-.22.19-.44.4-.64.6a.23.23,0,0,1-.16.06A.21.21,0,0,1,70.05,68Zm1.32-1.19a.21.21,0,0,1,0-.31,7.66,7.66,0,0,1,.76-.5.23.23,0,0,1,.31.09.23.23,0,0,1-.08.3c-.25.15-.5.3-.73.47a.24.24,0,0,1-.13,0A.22.22,0,0,1,71.37,66.81Zm11.19-.64c-.27-.1-.55-.19-.83-.27a.22.22,0,0,1-.15-.28.21.21,0,0,1,.27-.15l.86.28a.22.22,0,0,1,.14.28.23.23,0,0,1-.21.15Zm-9.68-.28a.23.23,0,0,1,.12-.3,7.83,7.83,0,0,1,.85-.32.22.22,0,0,1,.28.14.22.22,0,0,1-.14.28c-.28.09-.55.2-.81.31a.15.15,0,0,1-.09,0A.23.23,0,0,1,72.88,65.89Zm8-.22L80,65.48a.23.23,0,0,1-.18-.26.24.24,0,0,1,.27-.18c.29.06.58.12.88.2a.22.22,0,0,1,.16.27.23.23,0,0,1-.22.17Zm-6.33-.38a.22.22,0,0,1,.17-.26c.29-.07.59-.12.9-.17a.23.23,0,0,1,.25.2.22.22,0,0,1-.19.25c-.29,0-.58.09-.86.15h0A.23.23,0,0,1,74.55,65.29Zm4.61,0-.87-.09a.23.23,0,1,1,0-.45c.3,0,.6.06.9.1a.22.22,0,0,1,0,.44ZM76.31,65a.22.22,0,0,1,.21-.23,9,9,0,0,1,.9,0,.22.22,0,0,1,.22.23.23.23,0,0,1-.22.22,8.55,8.55,0,0,0-.88,0h0A.22.22,0,0,1,76.31,65Z"/><path class="cls-26" d="M66.44,86h0a.22.22,0,0,0,.18-.26c0-.14,0-.29-.07-.44a.23.23,0,0,0-.45.08c0,.14,0,.29.08.44A.22.22,0,0,0,66.44,86Z"/><path class="cls-11" d="M71.72,113.72A180.72,180.72,0,0,0,82.05,84.3c-2.87,22.23-7.67,31.65-10.33,34.31-2.42,2.42-5.44,1.22-9.9,1-.1-2.11-.26-4.28-.55-6.5-.06-.54-.14-1.07-.22-1.59Z"/><path class="cls-8" d="M64.58,102.64c-8.69,0-22.63-4.32-25-6.72S32.93,92,28.72,90.59c-2.62-.88-4.72-2.12-4.25-.51.34,1.15,5.82,2.42,7.39,4-3,1.43-5.22,2.64-4.69,4.26a1.46,1.46,0,0,0,.65,2.14c0,1,.5,1.71,1.28,1.71,0,.73.83,1.06,1.51,1.06,0-1.91,2.26-1.2,4.06-1.2s4.83,1.35,6.85,1.35c1.49,0,14.71,9,24,11.91,3.22,1,5.26.5,6.16-1.58A29.43,29.43,0,0,0,64.58,102.64Z"/><path class="cls-9" d="M31.89,96.15a15.81,15.81,0,0,0-2.51.77,4.54,4.54,0,0,0-2.21,1.41,7,7,0,0,1,2.29-1.21C30.27,96.81,31.1,96.52,31.89,96.15Z"/><path class="cls-9" d="M31.89,98.11a8.58,8.58,0,0,0-2.32.73c-.69.34-1.56.82-1.75,1.63A3.68,3.68,0,0,1,29.67,99C30.39,98.67,31.15,98.42,31.89,98.11Z"/><path class="cls-9" d="M32.07,99.92a4.75,4.75,0,0,0-1.9.63,1.8,1.8,0,0,0-1.07,1.63C29.33,100.83,31,100.4,32.07,99.92Z"/><path class="cls-13" d="M64.58,102.64q.49-3.35.9-6.71c.35-2.9.72-5.81,1-8.72.37-3.38.72-6.77,1-10.17-.81,5.12-1.46,10.27-2,15.42C65.08,95.85,64.81,99.24,64.58,102.64Z"/><path class="cls-13" d="M83.14,80.63Q80.94,88,78.53,95.28c-.91,2.77-1.87,5.53-2.9,8.26-.5,1.32-1,2.65-1.46,4s-1,2.46-1.46,3.69l-1,2.52c.9-2,1.83-3.94,2.65-6,1.09-2.63,2.1-5.29,3.06-8,1.89-5.32,3.59-10.72,5-16.2C82.67,82.62,82.91,81.63,83.14,80.63Z"/></g></g></svg>