<svg xmlns="http://www.w3.org/2000/svg" viewBox="0 0 236.07 271.59"><defs><style>.cls-1{fill:#c88a5f;}.cls-2{fill:#6c2912;}.cls-3{fill:none;stroke:#6c2912;stroke-miterlimit:10;stroke-width:2px;}</style></defs><g id="Capa_2" data-name="Capa 2"><g id="Capa_1-2" data-name="Capa 1"><rect class="cls-1" width="236.07" height="271.59" rx="35.2"/><path class="cls-2" d="M67.45,62.55H86.12c4.92,0,7.31,2.39,7.31,7.29,0,3,0,6,0,9.06,0,.72.19,1,.94,1.13a6,6,0,0,1,5.26,6.08c.06,6.45,0,12.9,0,19.35,0,1.09-.48,1.68-1.63,1.66-1.4,0-2.8,0-4.19,0a1.55,1.55,0,0,1-1.72-1.36c-.07-.3-.15-.61-.23-.91-.67-2.65-.67-2.65-3.32-2.65-14.43,0-28.86,0-43.29,0-1.17,0-1.68.23-2,1.48-.94,3.87-.32,3.43-4.36,3.45-3.73,0-3.69.26-3.67-3.69,0-5.42,0-10.83,0-16.24,0-4.25,1.41-6.11,5.55-7.19.7-.19.66-.6.66-1.1,0-3.16,0-6.32,0-9.47,0-4.33,2.52-6.86,6.91-6.88C54.73,62.53,61.09,62.55,67.45,62.55Zm0,29.69h3.11c8.39,0,16.77,0,25.15,0,1.23,0,1.56-.34,1.47-1.51-.1-1.43,0-2.88,0-4.32-.07-2.58-1.49-4-4.07-4q-25.64,0-51.26,0c-2.58,0-4,1.43-4.07,4,0,1.44.07,2.89,0,4.33-.09,1.17.25,1.51,1.47,1.5C48.61,92.22,58,92.24,67.45,92.24Zm0,2.49c-9.47,0-18.94,0-28.41,0-1,0-1.42.25-1.37,1.34.08,2.25,0,4.51,0,6.77,0,1.94,0,1.91,1.9,1.85.67,0,1-.22,1.07-.89s.32-1.22.47-1.83c.55-2.25.55-2.25,2.89-2.25H86.54c1.58,0,3.16.08,4.73,0a2,2,0,0,1,2.4,1.92,19.15,19.15,0,0,0,.57,2.35c.4,1.34,1.5.57,2.28.69s.63-.58.63-1c0-2.43-.05-4.87,0-7.3,0-1.22-.28-1.6-1.56-1.59C86.26,94.75,76.88,94.73,67.5,94.73ZM67.41,65.1c-6.45,0-12.9,0-19.35,0-2.45,0-4,1.29-4.09,3.55-.1,3.47,0,6.94,0,10.41,0,.31,0,.61.37.76,1.21.47,2.06-.08,2.07-1.37,0-.72,0-1.44,0-2.16A6.21,6.21,0,0,1,52.93,70c2.43,0,4.87,0,7.31,0a6,6,0,0,1,5.89,5.58,19.67,19.67,0,0,1,.06,3c-.07,1,.28,1.32,1.3,1.31s1.27-.31,1.21-1.25a22.7,22.7,0,0,1,.07-3,6,6,0,0,1,6-5.64q3.86-.08,7.71,0a6.06,6.06,0,0,1,5.92,5.13,15.86,15.86,0,0,1,.14,3.23c0,.86-.09,1.53,1.2,1.51S91,79.41,91,78.46c0-2.93,0-5.86,0-8.8,0-3.24-1.34-4.56-4.62-4.56ZM56.29,79.86h3.79c3.79,0,3.79,0,3.6-3.76a3.58,3.58,0,0,0-3.5-3.59c-2.56-.08-5.13-.07-7.7,0A3.51,3.51,0,0,0,49,75.8c-.11,1,0,2.07-.09,3.1,0,.81.33,1,1,1C52.06,79.84,54.17,79.86,56.29,79.86Zm22.25,0c2.17,0,4.33,0,6.49,0,.66,0,1-.16,1-.9-.05-1,0-2.08-.08-3.11a3.55,3.55,0,0,0-3.58-3.36c-2.52-.06-5-.06-7.57,0a3.58,3.58,0,0,0-3.56,3.66c0,.9,0,1.8,0,2.7s.23,1,1,1C74.31,79.84,76.42,79.86,78.54,79.86Z"/><path class="cls-2" d="M67.45,57.61a9.89,9.89,0,1,1,9.92-9.84A9.89,9.89,0,0,1,67.45,57.61Zm7.37-9.89a7.37,7.37,0,1,0-7.32,7.43A7.4,7.4,0,0,0,74.82,47.72Z"/><path class="cls-2" d="M92.19,88.53c-.31-1.32.56-1.13,1.34-1.21,1.14-.13,1.14.48,1.21,1.35.08,1.21-.61,1.1-1.41,1.15C92.24,89.9,91.94,89.45,92.19,88.53Z"/><path class="cls-2" d="M88.54,89.76c-1.06.23-1.38-.13-1.37-1.16s.23-1.32,1.26-1.3,1.35.2,1.3,1.25S89.62,90.11,88.54,89.76Z"/><path class="cls-2" d="M66.17,45.48V44.26c0-1.41.78-1.95,2.11-1.5a.65.65,0,0,1,.43.86c-.67,2.89.88,4.28,3.37,5,1,.32.67.88.36,1.53s-.58,1.29-1.55.7A16.57,16.57,0,0,0,68,49.44a2.51,2.51,0,0,1-1.83-3A7.37,7.37,0,0,0,66.17,45.48Z"/><path class="cls-2" d="M185.46,57.09c-.75-7-7.87-11.81-15.15-10.21-.77.17-1.51.35-1.79-.57-.33-1.1.5-1.36,1.35-1.57a14.44,14.44,0,0,1,17.34,10.07,8.76,8.76,0,0,0,3.43,5.13,13.65,13.65,0,0,1,5.24,14.2,14,14,0,0,1-9.72,11,2.05,2.05,0,0,0-1.51,1.79,94.67,94.67,0,0,1-3,9.37,4.73,4.73,0,0,1-2.56,2.24,14.45,14.45,0,0,0-3.7,2.71,5.84,5.84,0,0,1-5.36,1.82,17.83,17.83,0,0,0-5.31,0A5.34,5.34,0,0,1,160,101.7c-1.5-1.45-3.4-2.37-4.93-3.69s-2.83-1.4-4.79-.77c-5.57,1.79-11.27-2.86-11-8.74a1.43,1.43,0,0,0-.94-1.65,6.46,6.46,0,0,1-3.91-5.46,10.69,10.69,0,0,0-1.3-3.78,6.19,6.19,0,0,1,0-6.07,14.22,14.22,0,0,0,1.44-4.49,6.28,6.28,0,0,1,4-4.93c1.23-.56,1.9-1.13,1.57-2.8-.41-2,.7-3.6,2.48-4.64a9.4,9.4,0,0,1,3.77-1.32c.74-.07,1.11-.29,1.18-1.2a4.89,4.89,0,0,1,5.68-4.4,10.77,10.77,0,0,1,6.61,3.18c.67.69.9.46,1.32-.2a12.58,12.58,0,0,1,2.8-3.07c.57-.45,1.16-.83,1.76-.17s.27,1.31-.36,1.84a12.47,12.47,0,0,0,.33,19.51c.34.28.86,1,1.25.46a1.51,1.51,0,0,0-.06-2c-.93-1-1.77-2-2.63-3.06a2.82,2.82,0,0,1-.68-2.93,1.28,1.28,0,0,0-.26-1.32,3.06,3.06,0,0,1-.32-3c.39-1,.76-2.07,1.13-3.11.19-.55.4-1.29.91-1.41,2-.45,2.55-2.9,4.52-3.36a16.68,16.68,0,0,1,3.54-.59c2.42,0,4.54,1.22,6.6,2.23,1.22.6,2,2.18,2.9,3.34a1.16,1.16,0,0,1,.34.77C182.59,56.92,184,57,185.46,57.09Zm-4.08,1.78a9.92,9.92,0,0,0-3.35.47,12.45,12.45,0,0,0-6.92,18.73c.4.66,1,1.38.09,2s-1.48-.11-1.95-.82a15,15,0,0,1-2-4.88c-.54-2.38-.63-2.47-3.11-2.51-.24,0-.48,0-.72,0a2.75,2.75,0,0,0-2.6,3.34,8.59,8.59,0,0,1-4,9c-.64.43-.78.73-.5,1.48a8.54,8.54,0,0,1-.68,7.6c-.95,1.6-.91,2.08.75,3a23.92,23.92,0,0,1,5.08,3.73,3.74,3.74,0,0,0,3.5.84,13.07,13.07,0,0,1,4.87,0,4.07,4.07,0,0,0,3.95-1.18,16.55,16.55,0,0,1,4.41-3.2,3.18,3.18,0,0,0,1.9-2,33.32,33.32,0,0,1,2.31-7.08c.51-1.12.09-1.46-1.13-1.47a14,14,0,0,1-7-1.92c-.68-.39-1.46-.82-1-1.76s1.27-.63,2-.19c.24.15.5.29.76.42a12.44,12.44,0,1,0,5.33-23.6Zm-31.6,9.39a5.63,5.63,0,0,1-.8-3.49c.05-.51.64-1.06-.12-1.54s-1.24-.14-1.87.14a4.57,4.57,0,0,1-4.42-.17,1.26,1.26,0,0,0-1.66.06,9.32,9.32,0,0,1-1.73,1,4.12,4.12,0,0,0-2.46,3.31A15.69,15.69,0,0,1,135,72.74a3.72,3.72,0,0,0,0,3.59,16.52,16.52,0,0,1,1.74,5.3,4.15,4.15,0,0,0,2.41,3.18c.66.37,1,.31,1.33-.37a7.27,7.27,0,0,1,3-3.07c.74-.41.72-.81.42-1.49a8.1,8.1,0,0,1-.54-3.24,1.08,1.08,0,0,1,.89-1.16,1,1,0,0,1,1.11.5c.25.38.13.83.16,1.26a6.68,6.68,0,0,0,7.17,6.16,6.57,6.57,0,0,0,6.06-6.8,6.28,6.28,0,0,0-4-5.84,6.38,6.38,0,0,0-7.3,1.41c-.57.52-1.12,1.27-1.92.47s-.14-1.47.44-2.07A10.39,10.39,0,0,1,149.78,68.26Zm4.94,20.51a6.48,6.48,0,0,0-.48-2.39c-.22-.61-.47-.9-1.25-.81a8.17,8.17,0,0,1-6.63-2.14,1.33,1.33,0,0,0-2-.1,6.64,6.64,0,0,0-2.4,8,6.58,6.58,0,0,0,7.07,4A6.66,6.66,0,0,0,154.72,88.77Zm-6.57-33.35a7.74,7.74,0,0,0-4.52,1.21,2.65,2.65,0,0,0-1.06,3.61A2.57,2.57,0,0,0,146,61.39a4.33,4.33,0,0,1,4.12,0,2.55,2.55,0,0,0,3.44-1.16,2.63,2.63,0,0,0-1.06-3.61A7.73,7.73,0,0,0,148.15,55.42Zm1.58-2.88c-.13.72.4.82,1,1,2.16.62,4.2,1.45,5.09,3.78.11.3.25.52.61.44.77-.16,2,0,2.19-.61.28-1.2,1.31-2.51.47-3.69a7.86,7.86,0,0,0-7-3.49A2.54,2.54,0,0,0,149.73,52.54ZM159.79,65a19,19,0,0,1-1.09-4.57c0-.36-.14-.69-.59-.63-1,.11-2,.06-2.49,1.25a4.34,4.34,0,0,1-3.17,2.66,1.48,1.48,0,0,0-1.26,1.61,2.43,2.43,0,0,0,1.56,2.64,2.37,2.37,0,0,0,3.08-.75A4.5,4.5,0,0,1,159.79,65Zm17.75-13c-.22.14-.51.23-.58.41a17.29,17.29,0,0,0-1.33,3.59A1.33,1.33,0,0,0,177,57.33a24.68,24.68,0,0,0,3.06-.71c.77-.2,1.06-.73.57-1.39-.77-1-1.63-2-2.48-3A2.07,2.07,0,0,0,177.54,51.94Zm-3.9-1.29c-1.18.22-2.36.4-3.53.66-.88.2-1.07.8-.56,1.5a13.55,13.55,0,0,0,2,2.41,1.21,1.21,0,0,0,2-.41,20.32,20.32,0,0,0,1-2.83C174.85,51.18,174.55,50.67,173.64,50.65Zm-7.7,8.51c1.18-.21,2.23-.35,3.25-.59a1.4,1.4,0,0,0,.63-2,28.54,28.54,0,0,0-1.95-2.3c-.59-.61-1.25-.6-1.61.23A33,33,0,0,0,165,57.9C164.76,58.78,165.27,59.12,165.94,59.16ZM163.2,69.54c-1.38-1-1.72-3-4-2.36-1.19.34-1.52,1.29-2.08,2-.34.46.67.74,1,1.19.75,1.13,1.53,1.35,2.54.25A5.72,5.72,0,0,1,163.2,69.54Zm4.86-4.13a20.36,20.36,0,0,1,2.22-3.48c.2-.23.34-.44.11-.75a.82.82,0,0,0-.94-.43c-.94.2-1.89.29-2.82.5s-1.3.82-.66,1.67S167.3,64.51,168.06,65.41Zm4.37-5.63c.38-.26.82-.54,1.24-.85s.84-.26.64-.77a1,1,0,0,0-1.19-.58,1.37,1.37,0,0,0-1.25,1.61C171.89,59.43,172,59.78,172.43,59.78Z"/><path class="cls-2" d="M162.9,38.6c-16,.06-30.79,12.75-33,29.77-1.85,14.47,3.51,25.9,15.55,34.17.24.16.5.29.73.47.54.4,1,.86.5,1.56a1.09,1.09,0,0,1-1.64.27,26.82,26.82,0,0,1-4.45-3.17c-11.47-10.2-15.88-22.92-12-37.75,3.84-14.65,13.77-23.77,28.61-26.83,20.6-4.25,40.36,10,43.55,30.9a37,37,0,0,1-50.17,39.64,2.42,2.42,0,0,1-1.22-.72,1,1,0,0,1,0-1.21,1.19,1.19,0,0,1,1.56-.29,38.54,38.54,0,0,0,6.88,2c18.1,3.7,36.89-8.88,40.38-27.07A34.72,34.72,0,0,0,172,39.46,38,38,0,0,0,162.9,38.6Z"/><path class="cls-2" d="M171.25,71.31c-.12-1.8-.23-3.61,1.69-4.68.13-.07.2-.3.25-.47C173.8,64,177,61,179.25,61.09c1.52,0,3,0,4.53,0,2.25-.07,5.56,2.91,6.09,5a1,1,0,0,0,.47.65,3.46,3.46,0,0,1,1.56,3.34c0,1.15.28,2.44-.13,3.43a20.49,20.49,0,0,1-3.08,5.36,7.53,7.53,0,0,1-4.18,2.41,16.65,16.65,0,0,1-5.89,0,7.75,7.75,0,0,1-4.3-2.48,23.94,23.94,0,0,1-3-5.25A6,6,0,0,1,171.25,71.31Zm9.16-5.49h0c0-.38,0-.76,0-1.15,0-1.51-.51-1.79-1.84-1.06-.84.47-1.67.93-2.48,1.45s-.93,1.2,0,1.78a23.53,23.53,0,0,0,2.48,1.44c.93.45,1.55-.07,1.85-.89A5.12,5.12,0,0,0,180.41,65.82Zm2.23-.14c.13.73-.26,1.55.21,2.13.81,1,1.69.49,2.61,0,2.93-1.62,3-2.09,0-3.61-.73-.38-1.41-1.3-2.31-.84S182.85,64.92,182.64,65.68Zm-2.19,11.13c-.16-.67.25-1.48-.23-2.06-.83-1-1.7-.45-2.62,0-3,1.62-2.89,2.1,0,3.61.73.37,1.4,1.31,2.3.81S180.24,77.64,180.45,76.81Zm2.22,0c0,.34,0,.67,0,1,0,1.52.51,1.83,1.81,1.11.84-.46,1.68-.92,2.48-1.44s.93-1.25,0-1.87c-.76-.49-1.55-.94-2.36-1.36a1.31,1.31,0,0,0-1.9,1A13.87,13.87,0,0,0,182.67,76.86Zm-9.23-5.62c0,.43,0,.86,0,1.29,0,1.57.48,1.84,1.83,1.11.71-.39,1.43-.78,2.11-1.22a1.32,1.32,0,0,0,0-2.28c-.32-.21-.66-.38-1-.59C174,68.05,173.26,67.92,173.44,71.24Zm16.2.17c0-.55,0-1,0-1.42,0-1.52-.5-1.78-1.86-1-.72.39-1.41.83-2.13,1.21-.87.46-.65,1.29-.4,1.85s.87.72,1.39.94c.84.35,1.55,1.47,2.56.87S189.43,72.14,189.64,71.41Zm-8,1.32a1.42,1.42,0,0,0,1.35-1.42,1.4,1.4,0,1,0-2.8.09A1.43,1.43,0,0,0,181.59,72.73Z"/><path class="cls-2" d="M165.68,80.12c0,.71-.2,1.16-.82,1.29a1,1,0,0,1-1.29-.81,15.77,15.77,0,0,1-.42-2.24,1.08,1.08,0,0,1,2.11-.37C165.47,78.73,165.56,79.49,165.68,80.12Z"/><path class="cls-2" d="M170.29,87.48c.05.77-.21,1.25-.88,1.37a1,1,0,0,1-1.23-.89c-.15-.69-.32-1.39-.4-2.09a1.06,1.06,0,0,1,.9-1.26,1,1,0,0,1,1.25.89C170.11,86.18,170.19,86.89,170.29,87.48Z"/><path class="cls-2" d="M161.77,94.93c-.84,0-1.15-.19-1.36-.63a.89.89,0,0,1,.26-1.15,6.7,6.7,0,0,1,2.76-1.06c.52-.1.89.31,1,.79a.87.87,0,0,1-.41,1.11C163.23,94.4,162.33,94.71,161.77,94.93Z"/><path class="cls-2" d="M170,93.49a1.14,1.14,0,0,1,1.13,1,5.51,5.51,0,0,1-1.77,3,1,1,0,0,1-1.26-.4,1.38,1.38,0,0,1,.21-1.61C168.81,94.75,168.94,93.69,170,93.49Z"/><path class="cls-2" d="M163.7,87.31c0,.65-.27,1.06-.71,1.1a4.67,4.67,0,0,1-3.15-1,.93.93,0,0,1-.06-1.31.87.87,0,0,1,.57-.36,4.93,4.93,0,0,1,3.15,1.12C163.66,86.93,163.67,87.23,163.7,87.31Z"/><path class="cls-2" d="M175.63,90.85c-.51-.11-2,.34-1.84-1.3.19-1.48,1.52-.82,2.45-.75.15,0,.29,0,.43,0,.77,0,1.4.35,1.29,1.17C177.81,91.11,176.9,91,175.63,90.85Z"/><path class="cls-2" d="M175.51,190.43c0-2.63,0-5.26,0-7.89a3.54,3.54,0,0,1,1.11-2.84c.59-.53.65-.92,0-1.48a3.62,3.62,0,0,1-1.13-3c0-2.87,0-5.74,0-8.61a4.19,4.19,0,0,1,1.38-3.32c.94-.88,1.83-1.82,2.75-2.73.23-.24.53-.46.45-.84s-.53-.31-.82-.31c-1,0-1.46-.51-1.45-1.51q0-3.09,0-6.17c0-1.11.52-1.53,1.59-1.53q6.45,0,12.91,0c1.07,0,1.6.42,1.59,1.53,0,2.06,0,4.11,0,6.17,0,1-.43,1.51-1.46,1.51-.29,0-.72-.19-.82.31s.23.61.47.84c.94.95,1.88,1.91,2.84,2.84a4,4,0,0,1,1.27,3.07q0,4.38,0,8.76a3.67,3.67,0,0,1-1.14,3c-.64.56-.54,1,0,1.47a3.73,3.73,0,0,1,1.1,3q0,7.68,0,15.35a4,4,0,0,1-1.21,3.24c-.52.45-.52.78,0,1.26a3.39,3.39,0,0,1,.86,4.17,3.68,3.68,0,0,1-3.75,2.1q-6.24-.06-12.49,0a3.67,3.67,0,0,1-3.74-2.11,3.39,3.39,0,0,1,.88-4.17c.52-.49.48-.82,0-1.26a4,4,0,0,1-1.21-3.24C175.54,195.5,175.51,193,175.51,190.43Zm16.56-12.55H179.62a1.41,1.41,0,0,1-.3,2.31,4.1,4.1,0,0,0-1.54,3.76c.08,4.54.06,9.08,0,13.62a3.27,3.27,0,0,0,1.08,2.65c1.73,1.65,1.7,1.69,0,3.39l-.4.41c-.46.45-.86.94-.57,1.64a1.54,1.54,0,0,0,1.66.84c1.77,0,3.54,0,5.31,0h7.46a1.42,1.42,0,0,0,1.41-.79c.3-.62,0-1.09-.39-1.55a2.76,2.76,0,0,0-2.45-1.13c-2.49.1-5,0-7.46.05-1,0-1.08-.36-1.08-1.17s.11-1.2,1.08-1.18c2.48.07,5,0,7.46,0a2.63,2.63,0,0,0,3-3c0-4.73,0-9.47,0-14.2a3.68,3.68,0,0,0-1.38-3.25C191.74,179.73,191.08,179,192.07,177.88Zm-6.37-2.38c2.38,0,4.77,0,7.16,0,.83,0,1-.26,1-1.06q-.06-3.59,0-7.16c0-.73-.18-1-.95-1q-7.09,0-14.18,0c-.77,0-1,.24-1,1,0,2.39.06,4.78,0,7.16,0,1,.37,1.08,1.17,1.06C181.21,175.47,183.45,175.5,185.7,175.5Zm.05-18.37h2.43c3.51,0,3.47,0,3.43-3.52,0-.93-.33-1.1-1.16-1.08-2.29,0-4.58,0-6.87,0-3.62,0-3.59,0-3.5,3.59,0,.86.32,1,1.09,1C182.69,157.1,184.22,157.13,185.75,157.13Zm6.21,6.78c-.85-1.53-2.89-2.08-2.71-4.13,0-.32-.28-.34-.51-.34H183c-.4,0-.67.13-.6.57.16,1-.53,1.55-1.12,2.18a5.43,5.43,0,0,0-1.55,1.84h11.73A2.81,2.81,0,0,0,192,163.91Z"/><path class="cls-2" d="M131.73,172.06c-1.1-3-1.93-5.76.9-8a4.37,4.37,0,0,1,5.23-.12c3,2.25,2.15,5.15,1.08,8.14,2.11,0,4.11,0,6.11,0a1.64,1.64,0,0,1,1.89,1.46,27,27,0,0,1,1.05,7.33q-.13,9.88,0,19.78a26.77,26.77,0,0,1-1.14,7,1.38,1.38,0,0,1-1.53,1.17q-7.66,0-15.34,0a1.45,1.45,0,0,1-1.61-1.26,27,27,0,0,1-1.12-7.17c.1-7,.08-14,0-21.07,0-2.21.74-4.21,1.2-6.3a1.15,1.15,0,0,1,1.25-.95Zm-2.14,18.31c0,3.48,0,7,0,10.46,0,.48-.17,1,.69,1.1,3.74.43,3.9.33,3.9-3.35,0-.39,0-.77,0-1.15a13.33,13.33,0,0,1,4-10.36,10.35,10.35,0,0,0,2.91-7c.05-.82-.1-1.19-1.06-1.17-3.1.06-6.21,0-9.31,0-.88,0-1.15.22-1.13,1.12C129.62,183.49,129.59,186.93,129.59,190.37Zm6.89,7.92c0,.91.06,1.82,0,2.72s.55.89,1.18.9,1.16,0,1.15-.93a12.73,12.73,0,0,1,3.9-9.24,10.1,10.1,0,0,0,2.76-5.39c.39-2.09.08-4.2.22-6.29.06-.88-.21-1.15-1.11-1.14s-1.22.19-1.22,1.17a11.3,11.3,0,0,1-3.1,8.1A12.16,12.16,0,0,0,136.48,198.29Zm1.08-21.64c2.15,0,4.3,0,6.44,0,.39,0,1.24.42,1.13-.46-.09-.7.19-1.86-1.21-1.82s-3.06,0-4.59,0c-2.57,0-5.15.08-7.73,0-1.53-.07-1.45,1-1.49,1.86s.87.42,1.29.43C133.45,176.69,135.51,176.65,137.56,176.65Zm.13,27.56c-2.29,0-4.58,0-6.87,0-.29,0-.88-.25-.74.47.18.93.11,2,1.68,1.84s3.05,0,4.57,0c2.39,0,4.79-.11,7.16,0,1.56.1,1.65-.93,1.64-1.85s-.94-.44-1.42-.46C141.7,204.17,139.7,204.21,137.69,204.21Zm8-12.15c-2.45,2.2-4.12,4.61-4.53,7.74-.27,2.11-.28,2.11,1.76,2.11.67,0,1.34,0,2,0s.78-.15.77-.72C145.64,198.2,145.65,195.21,145.65,192.06Zm-12.55-24.6c1.31,0,2.53,0,3.74,0,.81,0,.74-.36.45-.85a2.12,2.12,0,0,0-2.13-1.14A2.2,2.2,0,0,0,133.1,167.46Zm2.26,2.23c-.57.35-1.68-.43-1.7.51a1.67,1.67,0,1,0,3.33,0C137,169.19,135.88,170.09,135.36,169.69Z"/><path class="cls-2" d="M161.67,208.8c-1.87,0-3.73,0-5.6,0-3.85-.06-6.75-3.62-5.32-7.16,1.89-4.67,1.53-9.31,1-14.08-.58-5.46-1-10.94-1.42-16.42a10.86,10.86,0,0,1,.58-3.95c1.52-5.17,3-10.34,4.57-15.5a11.65,11.65,0,0,0,.5-3.37c0-.91.1-1.75-1.27-1.56-.52.08-.86-.37-1-.86-1.06-3.49.81-6,4.48-6,2.63,0,5.26,0,7.89,0a3.45,3.45,0,0,1,3.67,3.68c0,.53,0,1,0,1.58,0,1-.34,1.69-1.47,1.63-.6,0-.86.14-.84.79a14.13,14.13,0,0,0,.38,3.82c1.53,5,2.92,10.07,4.51,15.07a19.55,19.55,0,0,1,.51,7.79c-.57,6.52-1.07,13-1.73,19.56-.28,2.76.88,5.13,1.6,7.63a5.57,5.57,0,0,1-5.48,7.34Zm0-2.3h5c3.32,0,4.66-1.89,3.61-5.08-.72-2.17-1.73-4.29-1.56-6.64.34-4.62.7-9.24,1.21-13.84.72-6.43,1.36-12.83-1.38-19a3.41,3.41,0,0,1-.23-.68c-1-4.62-3.4-8.94-3.18-13.85,0-.67-.44-.61-.87-.61-1.68,0-3.35,0-5,0-.87,0-1.06.34-1,1.1a12.55,12.55,0,0,1-.61,4.78c-1.51,5-2.95,10-4.43,14.94a11.3,11.3,0,0,0-.47,4.37c.62,6.61,1.13,13.23,1.76,19.84a16.85,16.85,0,0,1-1.06,8.69A12.52,12.52,0,0,0,153,202a3.26,3.26,0,0,0,3.25,4.49C158,206.52,159.86,206.5,161.68,206.5Zm0-62c1.62,0,3.25,0,4.87,0,.71,0,.92-.22.88-.9-.06-.85-.42-1.36-1.3-1.39s-1.53,0-2.29,0c-2.2,0-4.4,0-6.6,0-1,0-1.28.63-1.3,1.52,0,1.13.78.73,1.29.75C158.76,144.53,160.25,144.5,161.73,144.5Z"/><path class="cls-2" d="M185,190.48a15.15,15.15,0,0,1-2.26,7.83c-.29.46-.54,1-1.15.39-.45-.44-1.53-.47-.83-1.65a12.24,12.24,0,0,0,0-13.27c-.71-1.2.45-1.2.88-1.64.64-.65.87,0,1.13.43A15.11,15.11,0,0,1,185,190.48Z"/><path class="cls-2" d="M186.69,190.36a15,15,0,0,1,2.26-7.82c.28-.46.53-1,1.15-.39.45.45,1.52.48.83,1.66a12.2,12.2,0,0,0,0,13.27c.71,1.2-.45,1.2-.88,1.64-.64.65-.87,0-1.13-.44A15,15,0,0,1,186.69,190.36Z"/><path class="cls-2" d="M157.19,175.52c-.8-.14-1.24-.54-1.17-1.28a1.13,1.13,0,0,1,2.25.08C158.29,175.08,157.78,175.39,157.19,175.52Z"/><path class="cls-2" d="M161.76,173.2a1.12,1.12,0,0,1,1.1,1.11,1.13,1.13,0,1,1-2.25-.05A1.11,1.11,0,0,1,161.76,173.2Z"/><path class="cls-2" d="M166.41,173.21a1.11,1.11,0,0,1,1,1.14,1.12,1.12,0,1,1-2.24-.13A1.1,1.1,0,0,1,166.41,173.21Z"/><path class="cls-2" d="M158.3,178.83c-.1.81-.47,1.27-1.21,1.24A1,1,0,0,1,156,179a1,1,0,0,1,1.17-1.15A1.15,1.15,0,0,1,158.3,178.83Z"/><path class="cls-2" d="M162.88,178.88c0,.72-.41,1.19-1.15,1.19a1,1,0,0,1-1.12-1.06,1,1,0,0,1,1.13-1.19C162.41,177.81,162.76,178.24,162.88,178.88Z"/><path class="cls-2" d="M167.48,178.92c-.09.71-.45,1.17-1.19,1.15A1,1,0,0,1,165.2,179a1,1,0,0,1,1.16-1.16A1.12,1.12,0,0,1,167.48,178.92Z"/><path class="cls-2" d="M158.29,183.56a1.11,1.11,0,0,1-1.23,1.1,1,1,0,0,1-1.05-1.13,1.06,1.06,0,0,1,1.2-1.12A1.12,1.12,0,0,1,158.29,183.56Z"/><path class="cls-2" d="M161.69,182.39a1.11,1.11,0,0,1,1.17,1,1.05,1.05,0,0,1-1.1,1.23,1,1,0,0,1-1.15-1.16A1.1,1.1,0,0,1,161.69,182.39Z"/><path class="cls-2" d="M167.48,183.59c-.13.69-.52,1.14-1.26,1.07a1,1,0,0,1-1-1.15,1.05,1.05,0,0,1,1.23-1.09A1.12,1.12,0,0,1,167.48,183.59Z"/><path class="cls-2" d="M158.29,188.09c-.07.71-.43,1.18-1.17,1.17a1.13,1.13,0,0,1,0-2.25A1.11,1.11,0,0,1,158.29,188.09Z"/><path class="cls-2" d="M160.58,188.18a1.11,1.11,0,0,1,1-1.17,1.13,1.13,0,1,1,.08,2.25A1.12,1.12,0,0,1,160.58,188.18Z"/><path class="cls-2" d="M167.48,188.15c-.11.7-.49,1.15-1.23,1.11a1.13,1.13,0,0,1,.15-2.25C167.06,187,167.4,187.48,167.48,188.15Z"/><path class="cls-2" d="M71.18,208.39H40.52c-3.08,0-4.39-1.32-4.4-4.4,0-1.16,0-2.32,0-3.48s.48-2,1.77-1.78c1.68.26,1.94-.5,1.89-2a31,31,0,0,1,24.48-31.14c.25-.05.49-.12.74-.15,1.54-.17,2.9-.19,2.73-2.55-.13-1.74,2-3,3.78-2.89a3.56,3.56,0,0,1,3.29,3.66c-.06,1.07.14,1.38,1.28,1.55a31.21,31.21,0,0,1,26.18,25.52,28.75,28.75,0,0,1,.37,6.62c-.06,1,.19,1.4,1.3,1.37,2.3-.06,2.34,0,2.35,2.39,0,1.11,0,2.22,0,3.33a3.64,3.64,0,0,1-4,3.93Q86.75,208.41,71.18,208.39Zm0-9.68h3.48c8,0,16,0,24,0,1.3,0,1.64-.36,1.55-1.59-.12-1.6-.07-3.21-.26-4.82-1.91-16.17-17.59-27.5-34-24.59a28.81,28.81,0,0,0-23.87,29.41c0,1.22.26,1.6,1.55,1.59C52.86,198.68,62,198.71,71.19,198.71Zm0,2.43c-10.32,0-20.65,0-31,0-1.43,0-1.88.43-1.67,1.75a1.5,1.5,0,0,1,0,.3c0,2.82,0,2.82,2.74,2.82h59.24c3.33,0,3.27,0,3.35-3.29,0-1.25-.29-1.58-1.56-1.58C91.94,201.16,81.56,201.14,71.18,201.14Zm1.21-37.51a1.2,1.2,0,0,0-1.17-1.16,1.17,1.17,0,1,0,0,2.34C71.93,164.8,72.3,164.31,72.39,163.63Z"/><path class="cls-2" d="M51.88,131a13.78,13.78,0,0,1,7.6,3.14c.54.42,1,.89.75,1.64s-1,.81-1.76.76a9,9,0,1,0-.08,18c.75-.06,1.47-.13,1.81.67s-.29,1.37-.9,1.86c-8.2,6.53-20.86,1.83-22.87-8.48C34.64,139.35,41.36,131,51.88,131Zm2.92,3.3a11.85,11.85,0,0,0-14.2,4.48,12.19,12.19,0,0,0,1.21,15c3.19,3.46,9.2,4.92,12.78,2.83-5.14-1.94-8.22-5.48-8.25-11.05S49.41,136.36,54.8,134.29Z"/><path class="cls-2" d="M46.62,188c.08-.23.18-.57.3-.89a25.58,25.58,0,0,1,10.93-13.24c.75-.46,1.57-1,2.22,0s-.11,1.54-.88,2a23.13,23.13,0,0,0-10.1,12.36c-.25.71-.63,1.28-1.52,1.14S46.6,188.78,46.62,188Z"/><line class="cls-3" x1="36.14" y1="238.5" x2="196.21" y2="238.5"/></g></g></svg>