<svg xmlns="http://www.w3.org/2000/svg" viewBox="0 0 234.19 164.52"><defs><style>.cls-1{fill:#f6f6f6;}.cls-2{fill:#967f6d;}.cls-3{fill:#af8868;}.cls-4{fill:#f5a784;}.cls-5{fill:#e0855c;}.cls-6{fill:#c7c6c6;}.cls-7{fill:#3b2645;}.cls-8{fill:#fff;}.cls-9{fill:#c98b5f;}.cls-10{fill:#dbd69f;}.cls-11{fill:#a1a08c;}.cls-12{fill:#6c2912;}.cls-13{fill:#4c3c32;}.cls-14{fill:#fdce76;}.cls-15{fill:#291b30;}</style></defs><g id="Capa_2" data-name="Capa 2"><g id="Capa_1-2" data-name="Capa 1"><path class="cls-1" d="M36.79,13.77c-3.48,4.57-4.94,10.34-6.14,16s-2.26,11.4-5.11,16.39C20.88,54.25,12.07,59.2,6.81,67c-3.39,5-5.16,10.92-6.15,16.87C-.25,89.31-.5,95.15,1.77,100.24c2.64,5.9,8.46,10.24,9.94,16.54.82,3.48.19,7.11.11,10.68s.56,7.49,3.24,9.85a11,11,0,0,0,7.34,2.3c6.55,0,13.09-3.28,19.45-1.71,5,1.25,8.85,5.28,12.93,8.51s9.6,5.86,14.37,3.77c3.58-1.56,5.62-5.31,8.54-7.91,4-3.55,9.55-4.83,13.86-8a22.44,22.44,0,0,0,8.37-14,33.64,33.64,0,0,0-1.47-16.48c-2-6-5.19-11.6-5.76-17.85-.7-7.69,2.7-15.08,4.48-22.6a38.21,38.21,0,0,0,.49-17.08,24.09,24.09,0,0,0-9-14.29c-5.17-3.74-12-5-16.5-9.55-2.8-2.86-4.37-6.8-7.35-9.48C61.3,9.72,55.13,8.14,50.49,7.3,45.3,6.37,39.84,9.77,36.79,13.77Z"/><path class="cls-2" d="M98.18,144.27a17.58,17.58,0,0,1-17.59,17.59,16.68,16.68,0,0,1-3.09-.28,14.5,14.5,0,0,1-2-.45,18.06,18.06,0,0,1-4.27-1.92c-.53-.34-1-.69-1.52-1.07a17.21,17.21,0,0,1-3.52-3.71,17.6,17.6,0,0,1,18.93-27.15,14.94,14.94,0,0,1,1.75.58,17.74,17.74,0,0,1,4.65,2.67c.21.16.4.32.59.49a14.6,14.6,0,0,1,1.32,1.29A17.48,17.48,0,0,1,98.18,144.27Z"/><path class="cls-3" d="M94.81,140.69a17.58,17.58,0,0,1-17.59,17.59,16.6,16.6,0,0,1-3.09-.27,16.24,16.24,0,0,1-1.95-.46,17.67,17.67,0,0,1-4.27-1.92c-.53-.34-1-.69-1.52-1.07a.61.61,0,0,1-.15-.13,17.6,17.6,0,0,1,18.93-27.15,14.94,14.94,0,0,1,1.75.58,17.58,17.58,0,0,1,4.65,2.67A17.51,17.51,0,0,1,94.81,140.69Z"/><path class="cls-4" d="M63.1,54.54a2.14,2.14,0,0,1-.28,1,2.37,2.37,0,0,1-1.15.78c-2,.81-4.17-.07-5.74-1.35a13.92,13.92,0,0,1-3.12-3.78c-.07-.13-.15-.26-.23-.38A3.31,3.31,0,0,1,52,48.34a1.37,1.37,0,0,1,.13-.31c0-.1.09-.2.14-.3a3,3,0,0,0,.17-.37c.6-1.52-.24-4.1-.61-5.65-.49-2-1.05-3.91-1.59-5.86s-1-4.09-1.69-6.09c-.24-.74-.51-1.48-.82-2.19-1.17-2.75-10.3-16.81-10.3-16.81-.23-2.89,2.87-3.86,2.87-3.86l1,1c2.58,2.7,9.68,10.39,12.74,15.81a32.31,32.31,0,0,1,1.46,3.22c1.43,3.53,3.35,8.94,4.89,13.88.17.54.34,1.07.49,1.6.59,2,1.31,4.11,1.8,6.29A18.43,18.43,0,0,1,63.1,54.54Z"/><path class="cls-4" d="M41.2,7.85s-.9-1.08-1.87-2.53S36.24.64,35.1.06A2.93,2.93,0,0,0,34.48,0h-.17A3.22,3.22,0,0,0,33.14.3L33,.34a3.37,3.37,0,0,0-.91.67l-.07.08a4.77,4.77,0,0,0-.63.87A23.84,23.84,0,0,1,34,6.47s-1.83-1.58-2.54-1.31l-.32.4s1.78,1.93,2.49,2.85a7.27,7.27,0,0,0,4.73,2.5S41.37,9.89,41.2,7.85Z"/><path class="cls-5" d="M32.12,1l-.07.08A39.54,39.54,0,0,1,35,5.47s.07,0,.06,0A12.68,12.68,0,0,0,32.12,1Z"/><path class="cls-5" d="M33.14.3,33,.34a40.58,40.58,0,0,1,2.91,4.38s.07,0,.05,0A12.46,12.46,0,0,0,33.14.3Z"/><path class="cls-5" d="M34.48,0h-.17A40.14,40.14,0,0,1,37,4.16s.07,0,.06,0A11.48,11.48,0,0,0,34.48,0Z"/><path class="cls-6" d="M110.2,164c-1.25.14-2.51.24-3.79.3-.36,0-103.44.07-103.44.07l-.21,0-1.65-.15a1.1,1.1,0,0,1,0-2.19c.54-.07,1.09-.11,1.65-.15l.23,0s103.06,0,103.42.06c1.27.06,2.53.16,3.79.3A.9.9,0,0,1,110.2,164Z"/><path class="cls-7" d="M38.41,44.62a7.66,7.66,0,0,0-.85-.72,5.25,5.25,0,0,1-2.15-4.61A6.39,6.39,0,0,1,37,36.21a5.84,5.84,0,0,1,3.92-2.52,1.4,1.4,0,0,0,.41-.06,1.58,1.58,0,0,0,.44-.34c2.05-1.87,4.8.38,5.83,2.24a4.86,4.86,0,0,1,.39,3.94,10.46,10.46,0,0,1-2.08,2.92,5.91,5.91,0,0,0-1.45,2.48A1.88,1.88,0,0,1,42.84,46a5.19,5.19,0,0,1-3-.36A5.12,5.12,0,0,1,38.41,44.62Z"/><path class="cls-4" d="M74.77,82.88a3.32,3.32,0,0,1-.3,1.49,4.39,4.39,0,0,1-2.38,1.87,15.23,15.23,0,0,1-9.35,1.05c-3.73-.89-5.65-3.88-7-7.07-.37-.85-.71-1.71-1-2.55-1.83-4.75-4.77-8-8.67-11.18l-.4-.34c-2.83-2.39-5-5.07-7.75-7.66a.5.5,0,0,1-.07-.65,13.67,13.67,0,0,1,1.16-1.47,20.69,20.69,0,0,1,6-4.63s0,0,.07,0a3.68,3.68,0,0,1,.44-.23l.15-.07c.21-.1-2.25-4.08-2.52-4.41a2.08,2.08,0,0,1-.69-1.23.29.29,0,0,1,0-.16l.05-.06a.23.23,0,0,1,.11,0,.46.46,0,0,1,.17,0l.22.06.21,0,.44,0,.42,0c.26,0,.56,0,.88,0h.37a.15.15,0,0,0,.09,0,1.73,1.73,0,0,0,.32,0l.54-.07a5,5,0,0,0,.56-.11l.68-.18a7.89,7.89,0,0,1,1.14-.44.76.76,0,0,1,.26,0c.48.09.91.7,1.18,1.06l.86,1.13a3.39,3.39,0,0,0,.73.78,1.1,1.1,0,0,0,.45.2h.2a2.23,2.23,0,0,0,.64-.18,43.2,43.2,0,0,1,4.72-1.77c1.34-.4,3.13-1.32,3.51-.54.5,1,1,2.1,1.43,3.15,1.91,4.43,3.55,8.91,5.67,13.26A74.3,74.3,0,0,1,74.6,81.44,11.55,11.55,0,0,1,74.77,82.88Z"/><path class="cls-5" d="M50.65,46.72a5.76,5.76,0,0,1-8.2-1.17s-.05,0-.06-.07l.17,0,.39.07.21,0a8.47,8.47,0,0,0,.86.09c.26,0,.56,0,.88,0a9.19,9.19,0,0,0,1.32-.13,7.38,7.38,0,0,0,1.24-.29,9.51,9.51,0,0,0,1.14-.44.76.76,0,0,1,.26,0c.48.09.91.7,1.18,1.06Z"/><path class="cls-4" d="M45.75,34.91c1,.23,1.85,1.53,2.84,3,3,4.36,2.56,6.6.44,8.3S44,48.54,40.84,44.72c-1.57-1.9-3.05-3.64-2.87-5C38.24,37.66,42.84,34.21,45.75,34.91Z"/><path class="cls-4" d="M40.78,43.93s-1.88-1.4-2.35.28,2.83,3.49,4.37,2.21C42.8,46.42,41.72,44.21,40.78,43.93Z"/><path class="cls-5" d="M39.48,44.72a1.67,1.67,0,0,1,.94,0,2.1,2.1,0,0,1,.89.31c.08.05,0,.16-.08.15s-.44-.13-.66-.18a1.1,1.1,0,0,1-.16.46c-.08.1-.23,0-.24-.09a1,1,0,0,1,.1-.43,5.16,5.16,0,0,1-.79-.05A.09.09,0,0,1,39.48,44.72Z"/><path class="cls-7" d="M46.57,39s.48-.1,0-.74-.66-.32-.66-.32-.27.17.11.68S46.57,39,46.57,39Z"/><path class="cls-7" d="M42.67,41.52s.48-.1,0-.74-.66-.32-.66-.32-.27.17.11.68S42.67,41.52,42.67,41.52Z"/><path class="cls-5" d="M46,42c.17-.15.7-.32.65-.59s-1-1.06-1.17-1.21c-.57-.54-1-.86-1.63-1.55,0,0,0-.09.06-.07A26.76,26.76,0,0,1,47,41.33a.11.11,0,0,1,0,.18c-.29.18-.52.42-.81.61C46,42.18,45.9,42,46,42Z"/><path class="cls-7" d="M44.82,37.23c.19-.32.68-.69,1.06-.53a.1.1,0,0,1,0,.17c-.14.08-.3.1-.45.17a1.54,1.54,0,0,0-.38.34C45,37.51,44.74,37.37,44.82,37.23Z"/><path class="cls-7" d="M41,40.16c-.09-.49.57-1,1-.91.1,0,.12.15.07.21s-.36.22-.53.35a2.66,2.66,0,0,0-.34.4A.13.13,0,0,1,41,40.16Z"/><path class="cls-8" d="M47.84,42.72a4.91,4.91,0,0,1-2.71,1.14,2.45,2.45,0,0,0,2,.36C48.09,43.91,47.84,42.72,47.84,42.72Z"/><path class="cls-4" d="M16.51,162.24c2.31.57,5.39,0,7.77,0l5.38,0c1.72,0,3.69.84,4.05-1.49a16.84,16.84,0,0,0-.16-3.75.28.28,0,0,1,0-.09c-.12-1.89.83-3.82,2-5.62,1-1.47,2.12-2.85,3-4a69.71,69.71,0,0,0,8-14c2.16-5.24,3.9-10.68,6.76-15.62,2.74-4.74,6.59-10,9.47-15.54.14-.26.27-.52.4-.79,2.84-5.68,4.58-11.64,3-17.64a6.31,6.31,0,0,0-1.62-3c-.27-.27-.55-.57-.82-.9-.45-.52-.88-1.11-1.31-1.7-2-2.8-4-5.78-6.07-3.67a10.67,10.67,0,0,0-1.77,3c-1.58,3.47-3.18,8.65-3.85,10.55-5.23,15-9.61,30.22-15.09,45-.23.62-.55,1.52-.93,2.61-1.25,3.56-3.19,9.16-4.91,13.48a33.42,33.42,0,0,1-2.75,5.83c-.09.11-.18.23-.28.34a11.88,11.88,0,0,1-4.33,3c-1.75.78-3.59,1.36-5.32,2.17C16.77,160.61,15.33,162,16.51,162.24Z"/><path class="cls-4" d="M63.2,101.31c1.3,5.25,3.06,10.39,4.18,15C68.79,122,69,128,69.59,133.8a73.62,73.62,0,0,0,3.92,16.31c.21.6.41,1.18.57,1.76a29.34,29.34,0,0,1,1.2,5.19q.16,1.09.24,2.28a3.11,3.11,0,0,0,.36,1.48,3,3,0,0,0,2.35,1c4.25,0,8.45.16,12.72,0a1.14,1.14,0,0,0,.73-.2.77.77,0,0,0-.07-1.06,2.25,2.25,0,0,0-1.06-.49c-1.93-.5-3.65-1.32-5.55-1.83a6.87,6.87,0,0,1-2.45-1,4.31,4.31,0,0,1-1.38-2,13.22,13.22,0,0,1-.58-4c0-.35-.68-22.22-.93-28.28-.28-7-.35-14-1-21-.41-4.7-.62-9.72-1.52-14.49a38.71,38.71,0,0,0-1.54-5.83,9.4,9.4,0,0,0-3.17-4.76,4.94,4.94,0,0,0-.67-.4c-2.75-1.37-5.29-.77-7,1.56a6.1,6.1,0,0,0-.43.65c-.22.37-.42.74-.6,1.12C60.53,86.29,61.39,93.9,63.2,101.31Z"/><path class="cls-9" d="M80.59,151.21a2.93,2.93,0,0,1-.58.31,5.2,5.2,0,0,1-1.32.32,8.24,8.24,0,0,1-1.11,0c-1.75,0-3.5,0-3.5,0-.16-.58-.36-1.16-.57-1.76a73.62,73.62,0,0,1-3.92-16.31c-.28-2.66-.49-5.35-.75-8a67.26,67.26,0,0,0-1.46-9.5c-1.12-4.57-2.88-9.71-4.18-15l-.4.79c-2.88,5.55-6.73,10.8-9.47,15.54-2.86,4.94-4.6,10.38-6.76,15.62a69.71,69.71,0,0,1-8,14c-.83,1.18-2,2.56-3,4-2.23.12-5.71-2.25-5.71-2.25,1.72-4.32,3.66-9.92,4.91-13.48.38-1.09.7-2,.93-2.61,5.48-14.82,9.86-30.06,15.09-45,.67-1.9,2.27-7.08,3.85-10.55a42.34,42.34,0,0,0,7.84.69c.82,0,1.6,0,2.34-.07,1.12-.07,2.16-.17,3.09-.29l.36,0c.64-.09,1.23-.19,1.77-.29l.59-.11c.74-.16,1.36-.3,1.84-.42a9.66,9.66,0,0,1,3.17,4.76,38.71,38.71,0,0,1,1.54,5.83c.9,4.77,1.11,9.79,1.52,14.49.61,7,.68,14,1,21C79.91,129,80.59,150.86,80.59,151.21Z"/><path class="cls-7" d="M33.71,160.77c-.36,2.33-2.33,1.48-4.05,1.49l-5.38,0c-2.38,0-5.46.53-7.77,0-1.18-.28.26-1.63.67-1.82,1.73-.81,3.57-1.39,5.32-2.17a11.88,11.88,0,0,0,4.33-3,2.27,2.27,0,0,1,.25-.06,2.41,2.41,0,0,1,2.66,2c1,.83,2.55-.2,3.81-.11A16.84,16.84,0,0,1,33.71,160.77Z"/><path class="cls-7" d="M91.68,161.6a1.14,1.14,0,0,1-.73.2c-4.27.16-8.47,0-12.72,0a3,3,0,0,1-2.35-1,3.11,3.11,0,0,1-.36-1.48q-.08-1.18-.24-2.28c1.29-.28,3,1,4.07.07a2.44,2.44,0,0,1,1.82-1.92,4.31,4.31,0,0,0,1.38,2,6.87,6.87,0,0,0,2.45,1c1.9.51,3.62,1.33,5.55,1.83a2.25,2.25,0,0,1,1.06.49A.77.77,0,0,1,91.68,161.6Z"/><path class="cls-4" d="M62.3,90.54A2.42,2.42,0,0,0,60,89.09a5.84,5.84,0,0,0-1.71.24l-1.1.31a5.59,5.59,0,0,1-2.45.14c-3.22-.52-6-2.39-8.57-4.31-1.32-1-2.55-2.11-3.91-3s-1.82-1.25-1.19-3.12c0-.06,0-.12.07-.18,1.47-4.33,4.55-13.34,4.61-13.53a11.88,11.88,0,0,0,.82-3.46c.14-3.69-4.42-8.38-7.66-5.77a4.68,4.68,0,0,0-.94,1,9.7,9.7,0,0,0-1.21,2.93c-1.13,3.94-2.14,7.93-3,11.94-.33,1.49-.64,3-.86,4.48-.11.68-.19,1.36-.26,2.05-.15,1.77-.46,4.37.35,6,1.33,2.67,5.12,4.35,7.75,5.32,2.9,1.07,5.87,1.94,8.85,2.79,1.95.57,3.95,1.12,6,1.54.73.16,1.51.29,2.26.4.46.06.93.12,1.39.16C61.21,95.18,62.93,92.46,62.3,90.54Zm-6.8.11a.06.06,0,0,1,.07,0Z"/><path class="cls-10" d="M74,77.77a1.92,1.92,0,0,1-.18.35,3.52,3.52,0,0,1-2.22,1.23,32.43,32.43,0,0,1-7.69.5A34.63,34.63,0,0,1,55.56,79a3.29,3.29,0,0,1-1.33-.6,2.68,2.68,0,0,1-.71-1c-.11-.26-.21-.56-.31-.83A21.77,21.77,0,0,0,46,66.49l-.4-.34q-2.22,6.48-4.43,13a27.15,27.15,0,0,1-7-1.83,11.33,11.33,0,0,1-1.23-.56c.22-1.5.53-3,.86-4.48.89-4,1.9-8,3-11.94A9.7,9.7,0,0,1,38,57.39a4.68,4.68,0,0,1,.94-1,20.69,20.69,0,0,1,6-4.63s0,0,.07,0a3.68,3.68,0,0,1,.44-.23c1.45.6,2.45,1.59,4.12,1.84,1.12.18,2.5,0,3-1a2.17,2.17,0,0,0,.23-1.13,6.27,6.27,0,0,0-.13-1.06c-.13-.7-.44-2.3-.46-2.4a3,3,0,0,0,.17-.37c.6-1.52-.24-4.1-.61-5.65-.49-2-1.05-3.91-1.59-5.86s-1-4.09-1.69-6.09a6.14,6.14,0,0,1,3.59-2.39,9.81,9.81,0,0,1,3.31-.45c1.43,3.53,3.35,8.94,4.89,13.88.17.54.34,1.07.49,1.6a130.62,130.62,0,0,0,7.36,18.05A105.1,105.1,0,0,1,73.9,75.71,3.4,3.4,0,0,1,74,77.77Z"/><path class="cls-9" d="M26.74,18.93c-7.6,8.59-16.47,19.68-16.54,31.76,0,.23.37.29.41.05a48.26,48.26,0,0,1,5.86-16.9C19.51,28.6,23.39,24,27,19.13,27.12,19,26.87,18.78,26.74,18.93Z"/><path class="cls-9" d="M22.57,38.33c-3.51,4.25-5.66,9.94-7,15.23a41.19,41.19,0,0,0-.93,16.79c.05.26.47.19.46-.07a60.94,60.94,0,0,1,1.25-16.5c1.32-5.53,3.82-10.3,6.39-15.31C22.82,38.36,22.66,38.22,22.57,38.33Z"/><path class="cls-11" d="M53.52,77.4c-.12-.26-.21-.56-.31-.83A21.77,21.77,0,0,0,46,66.49l-.4-.34,1-4S52.53,66.6,53.52,77.4Z"/><path class="cls-2" d="M68.84,125.75a66,66,0,0,0-1.46-9.48c-1.12-4.57-2.88-9.71-4.18-15l1.07-5.18s4.51,9.68,5,18.23A76,76,0,0,1,68.84,125.75Z"/><path class="cls-9" d="M38.48,70.11a7.74,7.74,0,0,0-1.25.79,11,11,0,0,0-1.12.81c-.29.24.08.63.38.49a13.68,13.68,0,0,0,1.28-.74,7.53,7.53,0,0,0,1.16-.77C39.27,70.39,38.84,70,38.48,70.11Z"/><path class="cls-9" d="M40.44,62.65c-.27-.49-.57-.95-.88-1.41-.11-.17-.42-.07-.34.14.17.48.36,1,.57,1.42a3.63,3.63,0,0,0,.76,1.34c.16.13.47.06.46-.19A3.22,3.22,0,0,0,40.44,62.65Z"/><path class="cls-9" d="M49.75,56.71a10.08,10.08,0,0,0-3.14-.41.21.21,0,0,0-.06.41,9.86,9.86,0,0,0,3.11.68A.35.35,0,0,0,49.75,56.71Z"/><path class="cls-9" d="M51.91,66.46a9,9,0,0,0-1,.06c-.34,0-.69,0-1,0-.5,0-.49.73,0,.77a5.42,5.42,0,0,0,2.16-.1A.36.36,0,0,0,51.91,66.46Z"/><path class="cls-9" d="M57.76,72.2c-.09-.48-.14-1-.26-1.44a.21.21,0,0,0-.4,0,4.43,4.43,0,0,0,0,1.58c.06.48.06,1,.46,1.28.15.11.34,0,.4-.17C58.08,73.06,57.84,72.6,57.76,72.2Z"/><path class="cls-9" d="M59.28,60.73a3.68,3.68,0,0,0-1.31-.3,6.16,6.16,0,0,1-1.51-.53c-.24-.11-.53.2-.3.39.73.6,2.2,1.43,3.12.82A.22.22,0,0,0,59.28,60.73Z"/><path class="cls-9" d="M66.13,67.39c-.15-.55-.26-1.11-.39-1.66a.32.32,0,0,0-.63.09,6.06,6.06,0,0,0,.15,1.7c.1.44.19,1.07.65,1.27a.26.26,0,0,0,.35-.1C66.49,68.27,66.25,67.82,66.13,67.39Z"/><path class="cls-9" d="M66.8,74.17a2.73,2.73,0,0,0-2-.54c-.21,0-1.24,0-1,.52s.79.32,1.14.38a5.75,5.75,0,0,0,1.57.31A.4.4,0,0,0,66.8,74.17Z"/><path class="cls-9" d="M60.5,54.5a3.11,3.11,0,0,0-1.32-.85l-.74-.34c-.12-.05-.63-.15-.68-.28a.09.09,0,0,0-.17,0c-.08.46.36.7.71.93s.67.44,1,.65a1.72,1.72,0,0,0,.91.36A.32.32,0,0,0,60.5,54.5Z"/><path class="cls-9" d="M56.44,44.45A6.48,6.48,0,0,0,55.5,47a.24.24,0,0,0,.47.13q.21-.61.45-1.23a7.82,7.82,0,0,0,.46-1.22C56.91,44.48,56.62,44.22,56.44,44.45Z"/><path class="cls-9" d="M55.07,38.53a2.66,2.66,0,0,0-1-.78,4.67,4.67,0,0,0-1.27-.57.18.18,0,0,0-.17.29,4.63,4.63,0,0,0,1.09.88,2.65,2.65,0,0,0,1.17.59A.27.27,0,0,0,55.07,38.53Z"/><path class="cls-9" d="M54.86,32.45c-.07-.61-.13-1.23-.18-1.85,0-.43-.71-.44-.69,0,0,.67.07,1.33.14,2a3.67,3.67,0,0,0,.31,1.59.28.28,0,0,0,.51-.06A4.24,4.24,0,0,0,54.86,32.45Z"/><path class="cls-6" d="M233.42,162.6c-1.11-.12-2.23-.21-3.36-.26-.32,0-9.83.06-11.93,0H218c-.31,0-79.62-.05-79.62-.05h-.29l-11.77,0h-.2l-.26,0-23.19,0h-.29l-11.77,0h-.2l-1.47.13a1,1,0,0,0,0,1.94c.49.06,1,.1,1.47.14h.19l11.77,0h.29l23.19,0,.27,0h.19l11.77,0h.29l79.64-.05h.12c2.1-.05,11.61,0,11.93,0,1.14-.05,2.25-.14,3.36-.27A.8.8,0,0,0,233.42,162.6Z"/><path class="cls-1" d="M186.23,45.21c5.44,2.72,5.66,10.36,9.09,15.38,6.4,9.36,21.64,7.13,29.93,14.88,4.38,4.09,6.06,10.6,5,16.49a26,26,0,0,1-9.27,15c-3,2.53-7,5.36-6.48,9.29a16.49,16.49,0,0,0,1.43,4c2.33,5.88,0,12.85-4.36,17.41s-10.44,7.12-16.51,8.9a89.78,89.78,0,0,1-16.33,3.17c-3,.3-6.17.46-9,1.65s-5.12,3.36-7.83,4.78c-6.47,3.42-14.3,2.3-21.51,1.07-9.28-1.6-18.57-3.26-27.65-5.75-3.41-.94-6.88-2-9.58-4.3s-4.5-6-3.53-9.37c.81-2.85,3.28-4.85,5.3-7s3.76-5.23,2.67-8c-1.29-3.24-5.45-3.94-8.44-5.74a14.48,14.48,0,0,1-6.09-9,37.57,37.57,0,0,1-.58-11.11c.19-3.29.48-6.67,1.91-9.64,2.75-5.67,9.16-8.71,15.4-9.58,5-.71,7.6-.9,10.33-6,3.32-6.19,5.49-13,9.69-18.66s11.35-9.92,18.1-8c4.25,1.21,7.55,4.62,11.68,6.18,4.71,1.78,8.54.93,12.18-2C175.62,46,181.15,42.67,186.23,45.21Z"/><path class="cls-4" d="M160.47,127.65c14.85,3.14,33.36,5,33.36,5-.43,1.85-.07,5.43.61,9.36,1.37,7.9,4,17.28,4,17.28a5.63,5.63,0,0,0,4.73-.8c-.38-8.07,1.78-30.1-2.35-32.65-6.89-4.25-31.79-11.21-36-11.51-2.89-.2-5.71.27-7,2.43a6.22,6.22,0,0,0-.63,3.73c0,.19,0,.39.07.58C158.19,126.33,153.64,126.21,160.47,127.65Z"/><path class="cls-7" d="M164,77.38c-.13.33-.36.59-.49.9s-.15.85-.31,1.25c-.05.11-.41.9-.54.43l-.26,0c-2.22-.14-4.44-.3-6.65-.53-.62-.07-1.25-.1-1.87-.2a1.23,1.23,0,0,1-1-.58,1.07,1.07,0,0,1-.13-.21,6,6,0,0,1-.74-3.11,4.19,4.19,0,0,1,.17-1.27,4.06,4.06,0,0,1,.63-1.2,7.42,7.42,0,0,1,3.3-2.38c-.06-.36-.66-.58-.88-.87a1.88,1.88,0,0,1-.38-1.25,2.13,2.13,0,0,1,.3-.92A3,3,0,0,1,157.31,66a2.69,2.69,0,0,1,2.2.85,2.39,2.39,0,0,1,.28,2.86c-.14.22-.32.5-.16.71a.53.53,0,0,0,.28.16,8.47,8.47,0,0,1,2.41,1.19,5,5,0,0,1,1.86,3A5.11,5.11,0,0,1,164,77.38Z"/><path class="cls-5" d="M162.85,78.13a1.11,1.11,0,0,1,1.8,0c.91,1.09-.63,3.16-1.8,3.25A24.88,24.88,0,0,1,162.85,78.13Z"/><path class="cls-4" d="M169.21,98l-.06,1c-.46,6.49-1.13,13.6-1.37,16.08,0,.18-.08.92-.08.92a32.15,32.15,0,0,1-3.78.68,34,34,0,0,1-12.87-.68s0-.08,0-.22c-.17-1.61-1.21-11.85-1.56-14,0-.31-.11-.62-.17-.94-.11-.54-.23-1.08-.37-1.62A65.09,65.09,0,0,0,146,90.71a.44.44,0,0,1,.19-.55,17.1,17.1,0,0,1,4.95-1.89l.52-.1c.5-.09,1-.17,1.57-.22.31,0,.63-.06,1-.07h.07a5.49,5.49,0,0,1,.58,0s0-.65,0-1.54c0-.52-.05-1.11-.09-1.71,0-.87-.14-1.75-.22-2.43a1.06,1.06,0,0,0,0-.19c0-.07,0,0,.11,0l.19.13.06,0a6.14,6.14,0,0,0,.53.33,6.86,6.86,0,0,0,1.12.56l.22.09.07,0,.27.1c.3.09.62.19,1,.26l.61.1.45.05c.31,0,.63,0,.95,0a5.42,5.42,0,0,0,.81-.08l.41-.07.28,2.94.11,1.21h.46c.39,0,1,0,1.75.06s1.35.09,2.06.17l.64.08c1.23.17,3,.09,3,.86C169.62,91,169.46,94.34,169.21,98Z"/><path class="cls-5" d="M154.47,81.88a5.15,5.15,0,0,0,7,3.81l-.2-2.15A8.44,8.44,0,0,1,154.47,81.88Z"/><path class="cls-4" d="M162.64,75c.6.62.65,2,.7,3.57.15,4.69-1.25,6.15-3.65,6.41s-4.9-.66-5.41-5c-.26-2.17-.53-4.18.26-5.12C155.72,73.45,160.8,73.08,162.64,75Z"/><path class="cls-4" d="M154.61,79.35s-.73-1.95-1.89-.92.44,4,2.21,3.75C154.93,82.18,155.18,80,154.61,79.35Z"/><path class="cls-5" d="M153.26,79.32a1.56,1.56,0,0,1,.71.46,2,2,0,0,1,.51.65c0,.08-.08.13-.13.08s-.27-.31-.41-.46a.89.89,0,0,1-.34.27.12.12,0,0,1-.14-.18.91.91,0,0,1,.28-.27,4.54,4.54,0,0,1-.56-.42A.08.08,0,0,1,153.26,79.32Z"/><path class="cls-5" d="M159.44,80.37c.21,0,.68.09.77-.13a6.4,6.4,0,0,0-.29-1.46,16.26,16.26,0,0,1-.47-1.94s.05,0,.07,0a23.33,23.33,0,0,1,.94,3.54.1.1,0,0,1-.1.12c-.3,0-.59.06-.89.06C159.37,80.55,159.34,80.39,159.44,80.37Z"/><path class="cls-7" d="M160.84,76.28a.89.89,0,0,1,1,.12.09.09,0,0,1-.08.13,3,3,0,0,1-.41-.09,1.43,1.43,0,0,0-.46.07C160.8,76.56,160.71,76.35,160.84,76.28Z"/><path class="cls-7" d="M156.57,76.64c.16-.41.88-.45,1.19-.2a.12.12,0,0,1,0,.19,2.61,2.61,0,0,1-.56,0,1.73,1.73,0,0,0-.44.14A.11.11,0,0,1,156.57,76.64Z"/><path class="cls-7" d="M158,77.93a2,2,0,0,0-1-.11,1.2,1.2,0,0,0-.85.28s0,.07,0,.07a3.44,3.44,0,0,0,.84-.1,6.2,6.2,0,0,1,1,.07C158.09,78.14,158.15,78,158,77.93Z"/><path class="cls-7" d="M161.61,77.63a1.37,1.37,0,0,0-.89.3c-.14.12,0,.31.19.24a1.52,1.52,0,0,1,.75-.19,3.63,3.63,0,0,0,.64.13.11.11,0,0,0,.1-.17C162.27,77.68,161.88,77.63,161.61,77.63Z"/><path class="cls-5" d="M160.68,81.68a3.61,3.61,0,0,1-1.35.17,5.76,5.76,0,0,1-1.14-.49c-.08,0-.14.07-.1.14a2.06,2.06,0,0,0,2.71.39C160.9,81.81,160.79,81.66,160.68,81.68Z"/><path class="cls-4" d="M220.12,87.35a70.52,70.52,0,0,0-11.41.22c-2.17.46-14.44,3-16.85,3.1-2,.07-10.12-.81-15.9-1.45l-3.17-.36c-.51,0-5.59-.83-5.59-.83-3.3-.37-2,1.45-2.25,3.85a3.75,3.75,0,0,0,.14,1.53,3.47,3.47,0,0,0,1.9,2.17c1,.49,4.42.9,8.42,1.19l1.49.1c6.45.42,13.95.54,16.16.21,5.44-.8,14-4.19,17.08-5.47l.1,0c2.61-.88,5.08-.37,7.75-.66.11,0,.24,0,.28-.14a.25.25,0,0,0,0-.17c-.23-.65-1.23-.34-1.65-.71a6.53,6.53,0,0,1,1.41-.58,22.38,22.38,0,0,0,2.27-1.45c.1-.07.2-.15.2-.27S220.28,87.38,220.12,87.35Z"/><path class="cls-4" d="M99.46,87.35a70.48,70.48,0,0,1,11.41.22c2.17.46,14.44,3,16.85,3.1,2,.07,10.13-.81,15.9-1.45l3.17-.36c.51,0,5.59-.83,5.59-.83,3.3-.37,2,1.45,2.25,3.85a3.91,3.91,0,0,1-.13,1.53,3.51,3.51,0,0,1-1.91,2.17c-1.05.49-4.42.9-8.42,1.19l-1.49.1c-6.45.42-14,.54-16.16.21-5.44-.8-14-4.19-17.08-5.47l-.1,0c-2.6-.88-5.08-.37-7.74-.66a.34.34,0,0,1-.29-.14.25.25,0,0,1,0-.17c.23-.65,1.23-.34,1.65-.71a6.32,6.32,0,0,0-1.41-.58,22.38,22.38,0,0,1-2.27-1.45c-.09-.07-.2-.15-.2-.27S99.3,87.38,99.46,87.35Z"/><path class="cls-4" d="M164.28,115.46c.05.21-4.84,23.85-18.29,30.63a105.75,105.75,0,0,1-28.08,9.11l-1.2.2a7.1,7.1,0,0,0,.59,3.39,3.49,3.49,0,0,0,1.71,1.87,1.51,1.51,0,0,1,.45.2.8.8,0,0,1-.16,1.18,2.27,2.27,0,0,1-1.31.3c-1.54,0-3.28.17-4-1.36a23.15,23.15,0,0,1-1.14-3c-.52-1.58-2.08-5.83,0-6.4,7.13-1.88,25.16-11.35,28.18-13.07,2.73-1.56,5.5-17.81,10-22.79S163.5,112,164.28,115.46Z"/><path class="cls-4" d="M198,157.76c.06.49.1,1,.12,1.46.07,1.17-.83,2.57.36,3.42a4.18,4.18,0,0,0,2.24.44c1.61.09,3.23,0,4.85,0,1.06,0,2.12-.08,3.18-.14.88,0,2.26.11,3-.36a.39.39,0,0,0,.21-.24A.36.36,0,0,0,212,162a1.63,1.63,0,0,0-.93-.61c-1.62-.57-3.35-.76-5-1.36a6.17,6.17,0,0,1-3.15-2.37c-.5-.82-.54-1.73-1.51-2.17A2.35,2.35,0,0,0,198,157.76Z"/><path class="cls-9" d="M169.15,99c-.46,6.49-1.13,13.6-1.37,16.08-1,.44-2.33,1-3.86,1.6a34,34,0,0,1-12.87-.68s0-.08,0-.22c-.17-1.61-1.21-11.85-1.56-14,0-.31-.11-.62-.17-.94-.11-.54-.23-1.08-.37-1.62,1-1.45,2.57-4.7,2.23-11l.52-.1c.5-.09,1-.17,1.57-.22.28,2.45,1.43,9,5.43,8.87,4.58-.11,5.13-5.78,5.17-9.06.63,0,1.35.09,2.06.17C165.92,90.33,166.2,97,169.15,99Z"/><path class="cls-12" d="M203.21,151.23c-2.72,1.73-6.76.29-6.76.29-3.47-6.43-3.74-18.13-3.74-18.13s-19.91-1.47-27.79-1.47a7.89,7.89,0,0,0-4.08,1c-3.87,2.22-4.8,7.9-11.61,13.21-8.69,6.78-24.87,7.73-24.87,7.73-2.35-1.74-2.21-5.79-2.21-5.79a29.46,29.46,0,0,1,9.78-7,46.94,46.94,0,0,0,9.3-5.13C144.28,125.57,151,115,151,115a29.74,29.74,0,0,0,16.91-.79c4.2,0,30.68,8.54,34.15,11.32S205.93,149.48,203.21,151.23Z"/><path class="cls-13" d="M192.71,133.39s-19.91-1.47-27.79-1.47a7.89,7.89,0,0,0-4.08,1c0-.21.89-4.64,8.75-4.41C177.64,128.7,192.71,133.39,192.71,133.39Z"/><path class="cls-9" d="M131.59,146.54a10.14,10.14,0,0,0-2.06,0,5.2,5.2,0,0,0-1.78.14c-.08,0-.12.12,0,.16a4.11,4.11,0,0,0,1.81.21,6.76,6.76,0,0,0,2.13-.16C131.9,146.81,131.84,146.6,131.59,146.54Z"/><path class="cls-9" d="M141.38,143.38c-.68-.09-1.22,1-1.54,1.44a5.55,5.55,0,0,0-.91,2.29c0,.32.45.43.59.16.36-.67.64-1.37,1.06-2,.31-.47,1.12-1,1-1.63A.26.26,0,0,0,141.38,143.38Z"/><path class="cls-9" d="M146.34,135.5c-.57-.16-1.09.24-1.6.47a11.29,11.29,0,0,0-1.89,1.06.28.28,0,0,0,.22.51,10.72,10.72,0,0,0,1.9-.67c.52-.22,1.29-.39,1.54-.93A.3.3,0,0,0,146.34,135.5Z"/><path class="cls-9" d="M153.65,132.37a10.91,10.91,0,0,0-.94,1.71,16.18,16.18,0,0,0-.75,1.64c-.16.43.52.7.74.31a17.25,17.25,0,0,0,.73-1.65,10.77,10.77,0,0,0,.68-1.82A.25.25,0,0,0,153.65,132.37Z"/><path class="cls-9" d="M150.7,122.73a.22.22,0,0,0-.42,0,18,18,0,0,0-.48,4.4c0,.59.88.59.92,0A18,18,0,0,0,150.7,122.73Z"/><path class="cls-9" d="M158.8,121c-.25-.59-.94-1-1.46-1.3s-1.14-.83-1.69-.66a.23.23,0,0,0-.15.27c.12.5.8.83,1.2,1.11s1,1,1.6,1.08C158.56,121.55,158.93,121.3,158.8,121Z"/><path class="cls-9" d="M168.37,124.33a19.72,19.72,0,0,0-4.26.54.28.28,0,0,0,.07.55,19.35,19.35,0,0,0,4.3-.26C169,125.09,168.84,124.32,168.37,124.33Z"/><path class="cls-9" d="M172.53,117.72a3.53,3.53,0,0,0-1.86-.27,8.11,8.11,0,0,0-2,0,.21.21,0,0,0,0,.38,5.57,5.57,0,0,0,2,.51,3.07,3.07,0,0,0,1.92-.06A.33.33,0,0,0,172.53,117.72Z"/><path class="cls-9" d="M178.65,124.26a5.71,5.71,0,0,0-.84-1.53,8.34,8.34,0,0,0-1-1.41.32.32,0,0,0-.53.3,8.29,8.29,0,0,0,.75,1.56,5.52,5.52,0,0,0,.93,1.48A.42.42,0,0,0,178.65,124.26Z"/><path class="cls-9" d="M188.14,124.07a6.25,6.25,0,0,0-3.68-.15.28.28,0,0,0,.08.55,25.06,25.06,0,0,1,3.35.5A.47.47,0,0,0,188.14,124.07Z"/><path class="cls-9" d="M192,130.46c-.25-.47-.87-.74-1.31-1a10.26,10.26,0,0,0-1.52-.84c-.29-.11-.47.3-.28.49a9.62,9.62,0,0,0,1.36,1.1,3.3,3.3,0,0,0,1.44.81C191.94,131,192.07,130.68,192,130.46Z"/><path class="cls-9" d="M199,127.84c-.27-.57-1.12-.71-1.68-.91a7.62,7.62,0,0,0-2.23-.61.22.22,0,0,0-.16.37,7.11,7.11,0,0,0,1.9,1c.59.25,1.4.79,2,.53A.24.24,0,0,0,199,127.84Z"/><path class="cls-9" d="M198.32,132.79c-.54,1.29-1.38,3.06-1,4.49a.24.24,0,0,0,.43.06,6.28,6.28,0,0,0,.59-2.05c.16-.79.32-1.57.52-2.35C199,132.58,198.46,132.46,198.32,132.79Z"/><path class="cls-9" d="M198.41,146.19a4.89,4.89,0,0,0-1-1.43A10,10,0,0,0,196,143.3a.24.24,0,0,0-.37.29,9.81,9.81,0,0,0,1.11,1.66,4.76,4.76,0,0,0,1.16,1.32A.34.34,0,0,0,198.41,146.19Z"/><path class="cls-9" d="M202.52,139.42c0-.91-.07-1.82-.16-2.72a.26.26,0,0,0-.52,0c-.09.91-.14,1.81-.16,2.72a7.42,7.42,0,0,0,.13,2.4.3.3,0,0,0,.58,0A7.15,7.15,0,0,0,202.52,139.42Z"/><path class="cls-13" d="M136.25,142a27.17,27.17,0,0,1-7.06.39,26.92,26.92,0,0,1,2.74-1.38,46.94,46.94,0,0,0,9.3-5.13A6.17,6.17,0,0,1,136.25,142Z"/><path class="cls-14" d="M223.07,148.49v3a1.91,1.91,0,0,1-.22.88c-.18.34-.36.67-.52.94a3,3,0,0,0,.33,3.07,1.89,1.89,0,0,1,.41,1.13v4.65a1,1,0,0,1-1,1h-7a1,1,0,0,1-1-1v-4.63a2,2,0,0,1,.42-1.15,3,3,0,0,0,.33-3.07c-.16-.27-.35-.62-.53-1a1.82,1.82,0,0,1-.22-.88v-3a6.72,6.72,0,0,1,.09-1.13,6,6,0,0,1,3-4.23v-1.3H220v1.3a6,6,0,0,1,3,4.19A6.15,6.15,0,0,1,223.07,148.49Z"/><path class="cls-9" d="M219.11,142.57H218a1.28,1.28,0,0,1,0-2.56h1.1a1.28,1.28,0,0,1,0,2.56Z"/><path class="cls-9" d="M223.07,148.49v2.45h-9v-2.45a6.72,6.72,0,0,1,.09-1.13,10.19,10.19,0,0,1,8.83,0A6.15,6.15,0,0,1,223.07,148.49Z"/><path class="cls-9" d="M223.07,157.81v.47c-1.24,0-2.48-.05-3.71,0s-4.7.16-5.31.18v-.35l1.69-.07C216.9,158,221.78,157.81,223.07,157.81Z"/><path class="cls-9" d="M223.07,159.33v.41c-1.38,0-2.76,0-4.13,0-1.64,0-3.26,0-4.89-.08v-.29C215.68,159.41,221.69,159.35,223.07,159.33Z"/><path class="cls-12" d="M133.85,74.9c-3.74-.52-7.49-.83-11.22-1.48-1.81-.31-3.61-.67-5.4-1.06a16.37,16.37,0,0,0-5-.68c-.19,0-.27.32-.05.36,7.17,1.26,14.3,3.3,21.63,3.56C134.15,75.61,134.25,75,133.85,74.9Z"/><path class="cls-12" d="M140.25,69.35c-2.34-1.72-4.9-3.22-7.38-4.74-.28-.17-.5.24-.25.42,2.37,1.69,4.75,3.47,7.26,5C140.3,70.23,140.62,69.62,140.25,69.35Z"/><path class="cls-12" d="M180.34,60.19a45.46,45.46,0,0,0-4.69,4c-1.45,1.31-3.25,2.64-4.28,4.32a.17.17,0,0,0,.24.23A27.39,27.39,0,0,0,176,64.94c1.57-1.4,3.3-2.69,4.78-4.19C181,60.47,180.68,60,180.34,60.19Z"/><path class="cls-12" d="M195.5,72.46c-3.28.18-6.55.36-9.83.56a76.69,76.69,0,0,0-9.21.71c-.29,0-.19.47.07.49a81.09,81.09,0,0,0,9.48-.31l9.49-.5C196.1,73.38,196.11,72.43,195.5,72.46Z"/><path class="cls-15" d="M156.56,68.23c-.27,1.35,1.18,2.12,1.38,2.22a4.51,4.51,0,0,0-1.89,0c-.06-.36-.66-.58-.88-.87a1.88,1.88,0,0,1-.38-1.25,2.13,2.13,0,0,1,.3-.92A3,3,0,0,1,157.31,66a2.69,2.69,0,0,1,2.2.85C158,66.5,156.83,66.9,156.56,68.23Z"/><path class="cls-14" d="M161.74,106.77a4.06,4.06,0,0,0-1.6.4c-.33.13-.64.29-1,.43l-.9.35c-.82-.49-1-1-.51-1.45.62-1.3,2.55-2,3.64-2.91,1.31-1,2.6-3.08.13-3.53s-6.46.9-7.82,3c-.07.1.06.21.16.16a32.32,32.32,0,0,1,3.64-2,10.12,10.12,0,0,1,1.55-.42c.68-.13,3.76-.75,2.89,1.45-.32.8-1.64,1.39-2.33,1.86a10.33,10.33,0,0,0-2,1.67c-.49.58-1.33,1.83-.58,2.52.54.51,1.31.17,1.89-.06.34-.13.66-.31,1-.45,1-.73,1.74-.34,2.18,1.18a5.85,5.85,0,0,1-1.12.86c-.27.16,0,.59.24.42.72-.46,2.1-1.36,2-2.38A1.34,1.34,0,0,0,161.74,106.77Z"/></g></g></svg>