<svg xmlns="http://www.w3.org/2000/svg" viewBox="0 0 236.07 271.59"><defs><style>.cls-1{fill:#fdce76;}.cls-2{fill:#6c2912;}.cls-3{fill:none;stroke:#6c2912;stroke-miterlimit:10;stroke-width:2px;}</style></defs><g id="Capa_2" data-name="Capa 2"><g id="Capa_1-2" data-name="Capa 1"><rect class="cls-1" width="236.07" height="271.59" rx="35.2"/><path class="cls-2" d="M164.45,162.11h18.67c4.92,0,7.31,2.4,7.31,7.29,0,3,0,6,0,9.06,0,.72.19,1,.94,1.14a6,6,0,0,1,5.26,6.08c.07,6.45,0,12.89,0,19.34,0,1.1-.48,1.69-1.63,1.67-1.4,0-2.8,0-4.19,0a1.55,1.55,0,0,1-1.72-1.36c-.07-.31-.15-.61-.23-.92-.67-2.64-.67-2.64-3.32-2.64q-21.65,0-43.29,0c-1.17,0-1.68.23-2,1.49-.93,3.87-.32,3.42-4.36,3.45-3.73,0-3.69.25-3.67-3.7,0-5.41,0-10.82,0-16.23,0-4.26,1.41-6.12,5.55-7.2.71-.18.66-.6.66-1.1V169c0-4.32,2.52-6.85,6.91-6.87C151.74,162.09,158.09,162.11,164.45,162.11Zm0,29.7h3.11c8.39,0,16.77,0,25.16,0,1.22,0,1.55-.34,1.46-1.51-.1-1.44,0-2.88,0-4.33-.07-2.57-1.49-4-4.07-4q-25.64,0-51.26,0c-2.58,0-4,1.44-4.07,4,0,1.44.07,2.89,0,4.32-.09,1.18.25,1.52,1.47,1.51C145.61,191.78,155,191.81,164.45,191.81Zm.05,2.48c-9.47,0-18.94,0-28.41,0-1,0-1.42.25-1.37,1.35.08,2.25,0,4.51,0,6.76,0,2,0,1.92,1.9,1.86.67,0,1-.22,1.07-.9s.32-1.21.47-1.82c.55-2.26.55-2.26,2.89-2.26h42.47c1.58,0,3.16.08,4.74,0a2,2,0,0,1,2.39,1.91,19.3,19.3,0,0,0,.57,2.36c.4,1.34,1.5.57,2.28.68s.63-.57.63-1c0-2.44-.05-4.88,0-7.31,0-1.21-.28-1.6-1.55-1.59C183.26,194.32,173.88,194.29,164.5,194.29Zm-.09-29.63c-6.45,0-12.9,0-19.34,0-2.46,0-4,1.3-4.1,3.55-.1,3.47,0,6.95,0,10.42,0,.31,0,.6.37.76,1.21.47,2.06-.08,2.07-1.37,0-.72,0-1.45,0-2.17a6.22,6.22,0,0,1,6.54-6.27c2.44,0,4.87,0,7.31,0a6,6,0,0,1,5.89,5.58,19.62,19.62,0,0,1,.06,3c-.07,1,.28,1.32,1.3,1.3s1.27-.3,1.22-1.24a21,21,0,0,1,.06-3,6,6,0,0,1,6-5.64q3.85-.08,7.71,0a6.06,6.06,0,0,1,5.92,5.12,16.76,16.76,0,0,1,.15,3.24c0,.86-.1,1.53,1.19,1.51S188,179,188,178c-.05-2.93,0-5.86,0-8.79,0-3.24-1.34-4.56-4.62-4.57Zm-11.12,14.77h3.79c3.79,0,3.79,0,3.6-3.77a3.57,3.57,0,0,0-3.5-3.58c-2.56-.08-5.13-.07-7.7,0a3.52,3.52,0,0,0-3.5,3.29c-.11,1,0,2.07-.09,3.1,0,.8.33,1,1.05,1C149.06,179.41,151.17,179.43,153.29,179.43Zm22.25,0c2.17,0,4.33,0,6.49,0,.66,0,1-.17,1-.91,0-1,0-2.07-.08-3.1a3.55,3.55,0,0,0-3.58-3.36c-2.52-.06-5-.07-7.57,0a3.58,3.58,0,0,0-3.56,3.66c0,.9,0,1.81,0,2.71s.23,1,1,1C171.31,179.4,173.43,179.43,175.54,179.43Z"/><path class="cls-2" d="M164.45,157.18a9.89,9.89,0,1,1,9.92-9.84A9.89,9.89,0,0,1,164.45,157.18Zm7.37-9.89a7.37,7.37,0,1,0-7.32,7.43A7.39,7.39,0,0,0,171.82,147.29Z"/><path class="cls-2" d="M189.19,188.1c-.31-1.33.56-1.13,1.34-1.22,1.14-.12,1.14.49,1.21,1.36.08,1.21-.61,1.09-1.41,1.15C189.24,189.47,188.94,189,189.19,188.1Z"/><path class="cls-2" d="M185.54,189.33c-1,.23-1.38-.14-1.36-1.17s.22-1.31,1.25-1.29,1.35.2,1.3,1.25S186.62,189.67,185.54,189.33Z"/><path class="cls-2" d="M163.18,145.05c0-.41,0-.81,0-1.22,0-1.42.77-2,2.1-1.51a.66.66,0,0,1,.43.87c-.67,2.88.88,4.28,3.37,5,1,.31.67.88.36,1.52s-.58,1.3-1.55.7A16.53,16.53,0,0,0,165,149a2.52,2.52,0,0,1-1.83-3A7.37,7.37,0,0,0,163.18,145.05Z"/><path class="cls-2" d="M184.27,57.09c-.74-7-7.87-11.81-15.15-10.21-.77.17-1.51.35-1.79-.57-.33-1.1.5-1.36,1.35-1.57A14.44,14.44,0,0,1,186,54.81a8.76,8.76,0,0,0,3.43,5.13,13.65,13.65,0,0,1,5.24,14.2,14,14,0,0,1-9.72,11,2.05,2.05,0,0,0-1.51,1.79,92.11,92.11,0,0,1-3,9.37,4.73,4.73,0,0,1-2.56,2.24,14.45,14.45,0,0,0-3.7,2.71,5.84,5.84,0,0,1-5.36,1.82,17.83,17.83,0,0,0-5.31,0,5.35,5.35,0,0,1-4.66-1.39c-1.5-1.45-3.4-2.37-4.93-3.69s-2.83-1.4-4.79-.77c-5.57,1.79-11.27-2.86-11-8.74a1.43,1.43,0,0,0-.93-1.65,6.45,6.45,0,0,1-3.92-5.46,10.69,10.69,0,0,0-1.3-3.78,6.22,6.22,0,0,1,0-6.07,14.22,14.22,0,0,0,1.44-4.49,6.28,6.28,0,0,1,4-4.93c1.24-.56,1.9-1.13,1.57-2.8-.41-2,.7-3.6,2.48-4.64a9.4,9.4,0,0,1,3.77-1.32c.75-.07,1.11-.29,1.19-1.2a4.88,4.88,0,0,1,5.67-4.4,10.74,10.74,0,0,1,6.61,3.18c.67.69.9.46,1.32-.2a12.78,12.78,0,0,1,2.8-3.07c.57-.45,1.16-.83,1.76-.17s.27,1.31-.36,1.84a12.49,12.49,0,0,0,.33,19.51c.35.28.86,1,1.25.46a1.51,1.51,0,0,0-.06-2c-.93-1-1.77-2-2.63-3.06a2.84,2.84,0,0,1-.68-2.93,1.3,1.3,0,0,0-.25-1.32,3,3,0,0,1-.33-3c.39-1,.76-2.07,1.13-3.11.19-.55.4-1.29.91-1.41,2-.45,2.55-2.9,4.52-3.36a16.68,16.68,0,0,1,3.54-.59c2.42,0,4.54,1.22,6.61,2.23,1.22.6,2,2.18,2.89,3.34a1.16,1.16,0,0,1,.34.77C181.4,56.92,182.8,57,184.27,57.09Zm-4.08,1.78a10,10,0,0,0-3.35.47,12.45,12.45,0,0,0-6.92,18.73c.41.66,1,1.38.09,2s-1.48-.11-1.94-.82a14.55,14.55,0,0,1-2-4.88c-.55-2.38-.64-2.47-3.12-2.51-.24,0-.48,0-.72,0a2.76,2.76,0,0,0-2.6,3.34,8.59,8.59,0,0,1-4,9c-.64.43-.78.73-.5,1.48a8.54,8.54,0,0,1-.68,7.6c-.95,1.6-.91,2.08.75,3a24.24,24.24,0,0,1,5.09,3.73,3.73,3.73,0,0,0,3.5.84,13,13,0,0,1,4.86,0,4.07,4.07,0,0,0,3.95-1.18,16.55,16.55,0,0,1,4.41-3.2,3.15,3.15,0,0,0,1.9-2,33.32,33.32,0,0,1,2.31-7.08c.51-1.12.09-1.46-1.13-1.47a13.92,13.92,0,0,1-7-1.92c-.69-.39-1.47-.82-1-1.76s1.27-.63,2-.19c.25.15.5.29.76.42a12.44,12.44,0,1,0,5.33-23.6Zm-31.6,9.39a5.63,5.63,0,0,1-.8-3.49c.05-.51.64-1.06-.11-1.54s-1.25-.14-1.88.14a4.57,4.57,0,0,1-4.42-.17,1.26,1.26,0,0,0-1.66.06,9.32,9.32,0,0,1-1.73,1,4.09,4.09,0,0,0-2.45,3.31,16,16,0,0,1-1.72,5.16,3.72,3.72,0,0,0,0,3.59,16.28,16.28,0,0,1,1.74,5.3A4.15,4.15,0,0,0,138,84.81c.66.37,1,.31,1.33-.37a7.27,7.27,0,0,1,3-3.07c.74-.41.72-.81.43-1.49a7.93,7.93,0,0,1-.55-3.24,1.09,1.09,0,0,1,.89-1.16,1,1,0,0,1,1.11.5c.25.38.13.83.16,1.26a6.68,6.68,0,0,0,7.17,6.16,6.58,6.58,0,0,0,6.07-6.8,6.3,6.3,0,0,0-4-5.84,6.38,6.38,0,0,0-7.3,1.41c-.57.52-1.11,1.27-1.92.47s-.14-1.47.44-2.07A10.47,10.47,0,0,1,148.59,68.26Zm4.95,20.51a6.5,6.5,0,0,0-.49-2.39c-.22-.61-.47-.9-1.24-.81a8.18,8.18,0,0,1-6.64-2.14,1.33,1.33,0,0,0-2-.1,6.64,6.64,0,0,0-2.39,8,6.57,6.57,0,0,0,7.06,4A6.68,6.68,0,0,0,153.54,88.77ZM147,55.42a7.74,7.74,0,0,0-4.52,1.21,2.65,2.65,0,0,0-1.06,3.61,2.58,2.58,0,0,0,3.46,1.15,4.31,4.31,0,0,1,4.11,0,2.54,2.54,0,0,0,3.44-1.16,2.63,2.63,0,0,0-1.06-3.61A7.73,7.73,0,0,0,147,55.42Zm1.59-2.88c-.14.72.4.82,1,1,2.16.62,4.2,1.45,5.09,3.78.11.3.25.52.61.44.77-.16,2,0,2.2-.61.27-1.2,1.3-2.51.46-3.69a7.85,7.85,0,0,0-7-3.49A2.53,2.53,0,0,0,148.55,52.54ZM158.61,65a18.53,18.53,0,0,1-1.1-4.57c0-.36-.14-.69-.58-.63-1,.11-2,.06-2.5,1.25a4.34,4.34,0,0,1-3.17,2.66A1.48,1.48,0,0,0,150,65.28a2.45,2.45,0,0,0,1.56,2.64,2.38,2.38,0,0,0,3.09-.75A4.48,4.48,0,0,1,158.61,65Zm17.74-13c-.22.14-.5.23-.58.41a17.29,17.29,0,0,0-1.33,3.59,1.34,1.34,0,0,0,1.41,1.39,24.68,24.68,0,0,0,3.06-.71c.77-.2,1.06-.73.57-1.39-.77-1-1.63-2-2.48-3A2.07,2.07,0,0,0,176.35,51.94Zm-3.9-1.29c-1.18.22-2.36.4-3.53.66-.88.2-1.07.8-.56,1.5a13.2,13.2,0,0,0,2,2.41,1.2,1.2,0,0,0,2-.41,20.32,20.32,0,0,0,1-2.83C173.66,51.18,173.36,50.67,172.45,50.65Zm-7.7,8.51c1.18-.21,2.23-.35,3.26-.59a1.4,1.4,0,0,0,.62-2,28.54,28.54,0,0,0-1.95-2.3c-.59-.61-1.25-.6-1.61.23a35.57,35.57,0,0,0-1.22,3.37C163.57,58.78,164.09,59.12,164.75,59.16ZM162,69.54c-1.38-1-1.72-3-4-2.36-1.19.34-1.52,1.29-2.08,2-.34.46.67.74,1,1.19.75,1.13,1.53,1.35,2.54.25A5.72,5.72,0,0,1,162,69.54Zm4.86-4.13a20.39,20.39,0,0,1,2.23-3.48c.19-.23.33-.44.11-.75a.83.83,0,0,0-1-.43c-.93.2-1.89.29-2.82.5s-1.3.82-.66,1.67S166.11,64.51,166.87,65.41Zm4.37-5.63c.38-.26.83-.54,1.24-.85s.85-.26.65-.77a1.05,1.05,0,0,0-1.2-.58,1.37,1.37,0,0,0-1.25,1.61C170.7,59.43,170.77,59.78,171.24,59.78Z"/><path class="cls-2" d="M161.71,38.6c-16,.06-30.79,12.75-33,29.77-1.85,14.47,3.51,25.9,15.56,34.17.23.16.49.29.72.47.54.4,1,.86.5,1.56a1.09,1.09,0,0,1-1.64.27,26.82,26.82,0,0,1-4.45-3.17c-11.47-10.2-15.88-22.92-12-37.75,3.84-14.65,13.78-23.77,28.61-26.83,20.6-4.25,40.37,10,43.56,30.9a37,37,0,0,1-50.18,39.64,2.35,2.35,0,0,1-1.21-.72,1,1,0,0,1,0-1.21,1.2,1.2,0,0,1,1.57-.29,38.19,38.19,0,0,0,6.87,2c18.1,3.7,36.89-8.88,40.38-27.07a34.72,34.72,0,0,0-26.23-40.92A37.93,37.93,0,0,0,161.71,38.6Z"/><path class="cls-2" d="M170.06,71.31c-.11-1.8-.23-3.61,1.69-4.68.13-.07.2-.3.25-.47.62-2.18,3.81-5.13,6.06-5.07,1.52,0,3,0,4.54,0,2.24-.07,5.56,2.91,6.08,5a1,1,0,0,0,.47.65,3.46,3.46,0,0,1,1.56,3.34c0,1.15.28,2.44-.13,3.43a20.49,20.49,0,0,1-3.08,5.36,7.53,7.53,0,0,1-4.18,2.41,16.65,16.65,0,0,1-5.89,0,7.75,7.75,0,0,1-4.3-2.48,23.51,23.51,0,0,1-3-5.25A5.77,5.77,0,0,1,170.06,71.31Zm9.16-5.49h0V64.67c0-1.51-.52-1.79-1.85-1.06-.83.47-1.67.93-2.48,1.45s-.92,1.2,0,1.78a24.59,24.59,0,0,0,2.48,1.44c.93.45,1.56-.07,1.85-.89A4.83,4.83,0,0,0,179.22,65.82Zm2.24-.14c.12.73-.27,1.55.2,2.13.81,1,1.69.49,2.62,0,2.92-1.62,3-2.09,0-3.61-.73-.38-1.41-1.3-2.31-.84S181.66,64.92,181.46,65.68Zm-2.19,11.13c-.17-.67.24-1.48-.23-2.06-.84-1-1.71-.45-2.63,0-3,1.62-2.89,2.1,0,3.61.73.37,1.4,1.31,2.31.81S179.05,77.64,179.27,76.81Zm2.21,0c0,.34,0,.67,0,1,0,1.52.51,1.83,1.81,1.11.84-.46,1.68-.92,2.48-1.44s.93-1.25,0-1.87c-.76-.49-1.55-.94-2.36-1.36a1.31,1.31,0,0,0-1.9,1A13.87,13.87,0,0,0,181.48,76.86Zm-9.23-5.62c0,.43,0,.86,0,1.29,0,1.57.48,1.84,1.83,1.11.71-.39,1.43-.78,2.11-1.22a1.32,1.32,0,0,0,0-2.28c-.32-.21-.67-.38-1-.59C172.8,68.05,172.07,67.92,172.25,71.24Zm16.2.17c0-.55,0-1,0-1.42,0-1.52-.49-1.78-1.86-1-.72.39-1.41.83-2.13,1.21-.87.46-.64,1.29-.4,1.85s.88.72,1.4.94c.83.35,1.55,1.47,2.55.87S188.24,72.14,188.45,71.41Zm-8,1.32a1.42,1.42,0,0,0,1.35-1.42,1.4,1.4,0,1,0-2.8.09A1.43,1.43,0,0,0,180.4,72.73Z"/><path class="cls-2" d="M164.49,80.12c0,.71-.2,1.16-.82,1.29a1,1,0,0,1-1.29-.81,14.45,14.45,0,0,1-.41-2.24,1.07,1.07,0,0,1,2.1-.37C164.28,78.73,164.37,79.49,164.49,80.12Z"/><path class="cls-2" d="M169.1,87.48c.05.77-.21,1.25-.87,1.37A1,1,0,0,1,167,88c-.15-.69-.32-1.39-.4-2.09a1.07,1.07,0,0,1,.9-1.26,1,1,0,0,1,1.25.89C168.92,86.18,169,86.89,169.1,87.48Z"/><path class="cls-2" d="M160.58,94.93c-.84,0-1.15-.19-1.35-.63a.88.88,0,0,1,.25-1.15,6.76,6.76,0,0,1,2.76-1.06c.52-.1.89.31,1,.79a.87.87,0,0,1-.41,1.11C162,94.4,161.14,94.71,160.58,94.93Z"/><path class="cls-2" d="M168.8,93.49a1.16,1.16,0,0,1,1.14,1,5.59,5.59,0,0,1-1.78,3,1,1,0,0,1-1.26-.4,1.41,1.41,0,0,1,.21-1.61C167.62,94.75,167.75,93.69,168.8,93.49Z"/><path class="cls-2" d="M162.51,87.31c0,.65-.27,1.06-.71,1.1a4.69,4.69,0,0,1-3.15-1,.93.93,0,0,1-.06-1.31.87.87,0,0,1,.58-.36,4.93,4.93,0,0,1,3.14,1.12C162.47,86.93,162.48,87.23,162.51,87.31Z"/><path class="cls-2" d="M174.45,90.85c-.52-.11-2.06.34-1.85-1.3.19-1.48,1.52-.82,2.46-.75.14,0,.28,0,.42,0,.77,0,1.4.35,1.29,1.17C176.62,91.11,175.71,91,174.45,90.85Z"/><path class="cls-2" d="M70,208.49H39.33c-3.08,0-4.39-1.32-4.4-4.41,0-1.16,0-2.32,0-3.47s.48-2,1.77-1.78c1.68.26,2-.5,1.9-2a30.94,30.94,0,0,1,24.48-31.13,4.5,4.5,0,0,1,.73-.15c1.54-.17,2.9-.19,2.73-2.56-.13-1.73,2-3,3.79-2.88a3.54,3.54,0,0,1,3.28,3.66c-.06,1.07.14,1.38,1.29,1.55a31.19,31.19,0,0,1,26.17,25.51,28.87,28.87,0,0,1,.37,6.63c-.06,1,.19,1.4,1.3,1.37,2.3-.07,2.35,0,2.35,2.39,0,1.11,0,2.22,0,3.32a3.64,3.64,0,0,1-4,3.93Zm0-9.68h3.48c8,0,16,0,24,0,1.29,0,1.63-.36,1.54-1.6-.12-1.6-.07-3.21-.26-4.82-1.9-16.17-17.59-27.49-34-24.59A28.83,28.83,0,0,0,41,197.25c0,1.21.26,1.6,1.55,1.59C51.67,198.78,60.84,198.81,70,198.81Zm0,2.42c-10.33,0-20.65,0-31,0-1.43,0-1.88.43-1.67,1.75a1.51,1.51,0,0,1,0,.3c0,2.81,0,2.81,2.74,2.81H99.33c3.33,0,3.27,0,3.36-3.28,0-1.25-.3-1.59-1.57-1.58C90.75,201.26,80.37,201.23,70,201.23Zm1.2-37.5A1.19,1.19,0,0,0,70,162.57a1.09,1.09,0,0,0-1.19,1.11,1.1,1.1,0,0,0,1.21,1.23A1.18,1.18,0,0,0,71.2,163.73Z"/><path class="cls-2" d="M50.7,131.09a13.83,13.83,0,0,1,7.59,3.13c.54.43,1,.89.75,1.65s-1,.81-1.76.76a9,9,0,1,0-.08,18c.75-.06,1.47-.13,1.81.67s-.29,1.37-.89,1.85c-8.21,6.53-20.87,1.84-22.88-8.47C33.45,139.44,40.17,131.09,50.7,131.09Zm2.91,3.29a11.83,11.83,0,0,0-14.19,4.48,12.17,12.17,0,0,0,1.21,15c3.18,3.46,9.19,4.91,12.77,2.82-5.14-1.93-8.21-5.47-8.25-11S48.22,136.46,53.61,134.38Z"/><path class="cls-2" d="M45.43,188.08c.08-.23.18-.57.3-.9A25.59,25.59,0,0,1,56.66,174c.76-.46,1.57-1,2.23,0s-.12,1.55-.89,2a23.08,23.08,0,0,0-10.1,12.35c-.25.72-.63,1.29-1.52,1.15S45.42,188.87,45.43,188.08Z"/><path class="cls-2" d="M192,38.33a9.11,9.11,0,1,1,9.12-9.09A9.12,9.12,0,0,1,192,38.33Zm0-16.56a7.46,7.46,0,1,0,7.44,7.48A7.51,7.51,0,0,0,192.07,21.77Z"/><path class="cls-2" d="M188,28.3a.93.93,0,0,1,.7.32c.61.61,1.23,1.21,1.83,1.84.18.19.28.19.47,0,1.43-1.45,2.88-2.88,4.32-4.33a.91.91,0,0,1,.87-.35.82.82,0,0,1,.49,1.33,2.34,2.34,0,0,1-.22.23l-4.95,4.95c-.54.53-.95.54-1.48,0-.84-.83-1.68-1.66-2.51-2.51a.82.82,0,0,1,.26-1.43A1.56,1.56,0,0,1,188,28.3Z"/><path class="cls-2" d="M105.15,38.33a9.11,9.11,0,1,1,9.13-9.09A9.12,9.12,0,0,1,105.15,38.33Zm0-16.56a7.46,7.46,0,1,0,7.44,7.48A7.51,7.51,0,0,0,105.18,21.77Z"/><path class="cls-2" d="M101.13,28.3a.93.93,0,0,1,.7.32c.61.61,1.23,1.21,1.83,1.84.19.19.28.19.47,0,1.43-1.45,2.88-2.88,4.32-4.33a.91.91,0,0,1,.87-.35.82.82,0,0,1,.49,1.33,2.34,2.34,0,0,1-.22.23l-5,4.95a.88.88,0,0,1-1.48,0c-.84-.83-1.68-1.66-2.51-2.51a.82.82,0,0,1,.26-1.43Z"/><path class="cls-2" d="M192,139.27a9.11,9.11,0,1,1,9.12-9.09A9.12,9.12,0,0,1,192,139.27Zm0-16.56a7.46,7.46,0,1,0,7.44,7.48A7.51,7.51,0,0,0,192.07,122.71Z"/><path class="cls-2" d="M188,129.24a.93.93,0,0,1,.7.32c.61.61,1.23,1.21,1.83,1.84.18.19.28.19.47,0,1.43-1.45,2.88-2.88,4.32-4.33a.91.91,0,0,1,.87-.35.82.82,0,0,1,.49,1.33,2.34,2.34,0,0,1-.22.23l-4.95,4.95a.88.88,0,0,1-1.48,0c-.84-.83-1.68-1.66-2.51-2.51a.82.82,0,0,1,.26-1.43A1.56,1.56,0,0,1,188,129.24Z"/><path class="cls-2" d="M105.15,139.27a9.11,9.11,0,1,1,9.13-9.09A9.12,9.12,0,0,1,105.15,139.27Zm0-16.56a7.46,7.46,0,1,0,7.44,7.48A7.51,7.51,0,0,0,105.18,122.71Z"/><path class="cls-2" d="M101.13,129.24a.93.93,0,0,1,.7.32c.61.61,1.23,1.21,1.83,1.84.19.19.28.19.47,0,1.43-1.45,2.88-2.88,4.32-4.33a.91.91,0,0,1,.87-.35.82.82,0,0,1,.49,1.33,2.34,2.34,0,0,1-.22.23l-5,4.95a.88.88,0,0,1-1.48,0c-.84-.83-1.68-1.66-2.51-2.51a.82.82,0,0,1,.26-1.43Z"/><path class="cls-2" d="M99.1,76a25,25,0,0,1-3.26,10.51A62.26,62.26,0,0,1,86.48,99a13.79,13.79,0,0,1-3,2.26c-.64.37-1.3.56-1.78-.18s-.08-1.31.58-1.67c3.42-1.9,5.43-5.2,7.86-8,2-2.31,1.47-5.89-.78-8-1.44-1.38-2.74-2.87-4.12-4.29A12.86,12.86,0,0,0,72.1,75.32c-2.38.6-4.72,1.39-7,2.17a6.26,6.26,0,0,0-4.3,7.41c.56,3,0,4.1-2.76,5.34-3.06,1.36-3.92,4.8-1.92,7.65a6.3,6.3,0,0,0,7.06,2.44,14.32,14.32,0,0,1,8.28.19,11.43,11.43,0,0,0,5.85.58c.74-.15,1.41,0,1.54.89s-.54,1.26-1.34,1.34a15.19,15.19,0,0,1-6.59-.65,12.22,12.22,0,0,0-7.4-.19c-6.34,1.7-11.44-3.87-10.58-8.83,0-.23.13-.56,0-.71-1.29-1.67-2.3-4-4-4.81-3.43-1.64-4.64-4.38-4.92-7.61-.91-10.58,2.44-19.89,9-28.13a12.86,12.86,0,0,1,4.88-3.81,4.3,4.3,0,0,1,3-.54c2,.66,3.74-.45,5.6-.74.7-.11.65-.6.65-1.08,0-1.06,0-2.13,0-3.19a2.28,2.28,0,0,1,1.51-2.26,2.34,2.34,0,0,1,2.67.54c.39.36.78.73,1.14,1.12a22.74,22.74,0,0,0,9.46,6.21C92.31,52.28,99.11,62.62,99.1,76ZM93.38,86.45A24.93,24.93,0,0,0,96.83,72c0-.8-.37-.9-1.07-.9-5.32,0-10.64,0-16,0-3.24,0-6.49,0-9.73,0-2.2,0-3-.77-3-2.93,0-.92,0-1.84,0-2.76,0-5,0-10,0-14.95,0-.35.15-.92-.4-.92A3.7,3.7,0,0,0,65,50c-.38.19,0,.58.09.87a5.62,5.62,0,0,1-.62,5.37A63,63,0,0,0,55.21,83a5.32,5.32,0,0,1-2.73,4.5c-.71.38-.64.68-.2,1.17a8.89,8.89,0,0,1,.71.91c.58.84,1.1,1.25,1.9.14a4.23,4.23,0,0,1,2.27-1.5c1.46-.44,1.8-1.33,1.47-2.77a8.35,8.35,0,0,1,5.6-10c2.14-.74,4.32-1.39,6.49-2,6.68-2,12.27-.23,16.87,4.93a30.88,30.88,0,0,0,2.28,2.43A9.61,9.61,0,0,1,93.38,86.45ZM82.69,69c4.12,0,8.23,0,12.34,0,.32,0,.75.18.92-.22s-.25-.58-.47-.8Q82.9,55.74,70.31,43.5c-.25-.25-.48-.73-.94-.48s-.16.61-.16.93c0,7.93,0,15.87,0,23.81,0,1,.32,1.31,1.32,1.3C74.56,69,78.63,69,82.69,69ZM46,77.07c0,.58,0,1.17,0,1.74.19,2.13.44,4.26,1.89,6a2.67,2.67,0,0,0,3.1,1,2.81,2.81,0,0,0,2-2.6,13.89,13.89,0,0,1,.31-2.59c.37-1.32,0-1.94-1.34-2.35a2.64,2.64,0,0,1-1.56-3.46A2.68,2.68,0,0,1,53.43,73c1,.31,1.42.11,1.73-.91.37-1.25-.54-1.22-1.2-1.5-.26-.11-.55-.18-.81-.3A2.77,2.77,0,0,1,54.76,65a5.8,5.8,0,0,1,1.25.36c.76.33,1.26.42,1.67-.58s.22-1.28-.71-1.66a2.7,2.7,0,0,1-1.41-3.42c.39-1.19,1.84-2.29,2.93-1.8,1.95.89,2.64-.17,3.32-1.61a11.35,11.35,0,0,1,.93-1.47,2.78,2.78,0,0,0,0-3.5,2.86,2.86,0,0,0-3.4-.89,9.93,9.93,0,0,0-4.43,3.16C49.05,60.31,46.51,68.32,46,77.07ZM94.72,64.19A22.09,22.09,0,0,0,81.15,51ZM54.48,67.12c-.51-.08-.87.15-.81.48.17,1.05,1.23.83,1.9,1.16a.52.52,0,0,0,.74-.57C56.09,67.16,55,67.59,54.48,67.12Zm4.86-6.31c.12-.64-.47-.58-.81-.7s-.83,0-.89.44.47.62.86.79S59.17,61.22,59.34,60.81ZM53.18,75.17c-.41,0-.78.09-.76.5,0,.71.7.7,1.17.85s.44-.25.47-.54C54.15,75.27,53.59,75.28,53.18,75.17Z"/><path class="cls-2" d="M71.25,38.75a34.13,34.13,0,0,0-22.18,8.63c-.3.25-.59.51-.89.75a1,1,0,0,1-1.43-.05,1,1,0,0,1,0-1.55c.85-.79,1.72-1.56,2.64-2.27C71.27,27.11,104.23,40,108.73,67.45a37.18,37.18,0,0,1-29.49,42.8C59,114.38,38.78,100.42,35.45,80A36.78,36.78,0,0,1,42.37,51.4c.5-.69,1-2.07,2.19-1.22s.1,1.79-.45,2.52c-15.67,20.84-3.58,51.24,22.11,55.54A35,35,0,0,0,78,39.2,41.22,41.22,0,0,0,71.25,38.75Z"/><path class="cls-2" d="M75.55,96.43a8,8,0,0,1-8.12-8.07,8.17,8.17,0,0,1,8.2-8.2,8.25,8.25,0,0,1,8.07,8.2A8.12,8.12,0,0,1,75.55,96.43Zm5.89-8a5.91,5.91,0,1,0-11.81-.1,5.91,5.91,0,1,0,11.81.1Z"/><path class="cls-2" d="M81.12,58.47a1.35,1.35,0,0,1-.55,1.09q-1.69,1.68-3.37,3.38c-.58.58-1.2.91-1.86.2s-.24-1.24.28-1.76l3.47-3.48a1.25,1.25,0,0,1,1.44-.37A.93.93,0,0,1,81.12,58.47Z"/><path class="cls-2" d="M72.67,59.84c-.5,0-.87-.08-1.07-.47A1.11,1.11,0,0,1,71.75,58c1.32-1.34,2.64-2.68,4-4a1,1,0,0,1,1.43,0c.38.36.59.87.2,1.29-1.38,1.47-2.81,2.89-4.24,4.32C73,59.81,72.77,59.81,72.67,59.84Z"/><path class="cls-2" d="M84.81,62.12a1.74,1.74,0,0,1-.55,1L80.79,66.6c-.54.54-1.19.78-1.77.2s-.34-1.23.2-1.77c1.19-1.19,2.38-2.39,3.59-3.57a1.07,1.07,0,0,1,1.29-.33A1.17,1.17,0,0,1,84.81,62.12Z"/><line class="cls-3" x1="38" y1="238.5" x2="198.07" y2="238.5"/></g></g></svg>