<svg xmlns="http://www.w3.org/2000/svg" viewBox="0 0 156.87 181.35"><defs><style>.cls-1{fill:#f6f6f6;}.cls-2{fill:#dbd69f;}.cls-3{fill:#4b3c32;}.cls-4{fill:#c7c6c6;}.cls-5{fill:#5f4a50;}.cls-6{fill:#543f44;}.cls-7{fill:#ceb1a0;}.cls-8{fill:#de8f54;}.cls-9{fill:#a1a08b;}.cls-10{fill:#f6bb88;}.cls-11{fill:#c0bd99;}.cls-12{fill:#e8d9ba;}.cls-13{fill:#faedce;}.cls-14{fill:#56241d;}.cls-15{fill:#c98b5f;}.cls-16{fill:#b08868;}.cls-17{fill:#dbd59e;}.cls-18{fill:#b7a39d;}.cls-19{fill:#c8b5ae;}.cls-20{fill:#798f55;}.cls-21{fill:#717944;}</style></defs><g id="Capa_2" data-name="Capa 2"><g id="Capa_1-2" data-name="Capa 1"><path class="cls-1" d="M43.46,7.82C39.35,13.22,37.62,20,36.2,26.67s-2.66,13.47-6,19.36C24.66,55.64,14.26,61.49,8,70.64,4,76.53,2,83.53.78,90.56-.3,97.05-.59,104,2.09,110c3.12,7,10,12.1,11.74,19.54,1,4.11.22,8.4.13,12.62s.66,8.84,3.83,11.63c2.32,2,5.57,2.74,8.67,2.73,7.74,0,15.46-3.88,23-2,6,1.47,10.45,6.23,15.28,10.05s11.33,6.92,17,4.45c4.23-1.85,6.64-6.28,10.09-9.35,4.73-4.19,11.28-5.71,16.37-9.45A26.46,26.46,0,0,0,118,133.59a39.79,39.79,0,0,0-1.73-19.46c-2.32-7-6.13-13.71-6.8-21.08-.83-9.09,3.19-17.82,5.29-26.7a45.08,45.08,0,0,0,.57-20.17c-1.48-6.63-5.07-12.9-10.57-16.88C98.67,24.87,90.56,23.42,85.29,18c-3.31-3.39-5.15-8-8.67-11.2C72.41,3,65.12,1.17,59.64.18,53.5-.92,47.06,3.09,43.46,7.82Z"/><path class="cls-2" d="M136.73,105a18.84,18.84,0,0,1,.58-5.87c1.51-5.9,5.18-11.69,5.39-18.13.23-7.54-5.38-14.91-8.7-20.63a5.46,5.46,0,0,0-7.24-2.12c-2.79,1.38-3.68,4.75-4.57,8-1.13,4-3,7.71-4.17,11.81-2.06,7.47.78,13.28,1.25,20.56.28,4.38-1.47,7.57-2.79,11.41-4,11.57-.56,23.81,10,25.87,6.8,1.32,15-2.76,14.83-12.49a25.25,25.25,0,0,0-1.91-8.19C138.1,111.61,136.94,108.46,136.73,105Z"/><path class="cls-3" d="M128.61,168l1.9.61c1.66-14.31,1.4-31.11.78-45.5l8.45-7.08-.3-.81-.18-.49-8,6.74c-.24-5.15-.52-10-.76-14.19,0-.69-.08-1.37-.12-2l6.8-5.35c.06-.24.11-.48.17-.72q.18-.69.39-1.38l-7.45,5.86c-.17-3-.31-5.73-.39-8-.1-3.07-.14-6.22-.13-9.35l12.64-9c-.09-.46-.2-.92-.32-1.37l-12.31,8.78c0-4.54.16-9,.32-12.86l7.62-5.43L137,65.28l-6.87,4.9c.32-7.23.71-12.32.72-12.44l-1.95-.14c0,.12-.41,5.35-.73,12.73l-6-4.14h0c-.12.44-.25.87-.39,1.3l6.3,4.37c-.16,3.94-.28,8.38-.32,12.95L118,78c-.13.46-.23.91-.32,1.36l10.08,7c0,3.11,0,6.25.14,9.31.08,2.2.21,4.83.38,7.81l-9.21-7c.07.58.12,1.16.17,1.76l9.14,6.9c0,.69.08,1.4.12,2.12.24,4.24.52,9.06.75,14.22l-13.56-9c-.11.46-.21.91-.3,1.36l13.94,9.2C130,137.36,130.21,153.88,128.61,168Z"/><path class="cls-2" d="M36.84,100.71a19,19,0,0,1-.37-5.89c.54-6.06,3.24-12.36,2.4-18.76-1-7.47-7.7-13.85-11.89-19a5.46,5.46,0,0,0-7.49-.92C17,58,16.62,61.46,16.26,64.75c-.47,4.19-1.77,8.11-2.23,12.33-.83,7.71,2.91,13,4.54,20.09,1,4.28-.22,7.71-.92,11.71-2.09,12.07,3.28,23.59,14.07,23.93,6.93.21,14.42-5.15,12.63-14.72a25.22,25.22,0,0,0-3.2-7.78C39.26,107,37.6,104.1,36.84,100.71Z"/><path class="cls-3" d="M26.64,93c.43,2.16,1,4.74,1.63,7.65L18.06,95.22q.24.84.45,1.71l10.13,5.35c.15.67.31,1.36.46,2.06.92,4.15,2,8.86,3,13.91L17.31,111.6c0,.46-.07.93-.08,1.39l15.23,6.84c2.93,14.08,5.86,30.55,6.5,44.81l1.94-.31c-.67-14.36-3.6-30.85-6.53-44.92l7.2-8.34-.42-.76-.26-.45-6.85,8c-1.06-5-2.11-9.75-3-13.89-.15-.68-.3-1.34-.44-2l5.85-6.38c0-.24,0-.49,0-.74.05-.47.1-.94.17-1.42l-6.41,7c-.66-3-1.23-5.62-1.67-7.81-.6-3-1.14-6.12-1.64-9.21L38,72.45c-.16-.44-.34-.88-.54-1.3L26.67,81.79C26,77.3,25.4,72.93,24.93,69.05l6.64-6.58-.84-1-6,5.94c-.85-7.19-1.28-12.28-1.29-12.4l-1.94.18c0,.12.45,5.34,1.32,12.68l-6.56-3.13h0c-.05.46-.12.9-.18,1.35L23,69.4c.48,3.91,1.07,8.32,1.77,12.83L14,77.11c0,.47-.08.94-.1,1.39L25,83.79C25.5,86.86,26.05,90,26.64,93Z"/><path class="cls-2" d="M69.18,82.34c-2.6-7.85-.38-16.42-1.18-24.65a14.59,14.59,0,0,0-2-6.6,9.85,9.85,0,0,0-9.62-4.26,10.36,10.36,0,0,0-8,6.89,20.12,20.12,0,0,0-.5,7.62c.67,9.51,2,19.2-.26,28.47-1.34,5.58-3.94,10.9-4.37,16.63a33.08,33.08,0,0,0,2,12.71c3.2,9.68,10.67,18.43,21.86,14.57,5.52-1.9,6.89-6.89,7.49-12.14.66-5.75,2.57-11,3.3-16.65C78.93,96.8,71.75,90.12,69.18,82.34Z"/><path class="cls-3" d="M44.51,116.84,62.38,131c.7,10.75,1.31,21.83,1.78,32.77.8.05,1.59.12,2.39.18-.47-11-1.09-22.15-1.79-33l10.63-14.26c.27-1.28.57-2.55.87-3.82L64.6,128.51c-.42-6.31-.86-12.49-1.31-18.45L75.8,95.27q-.37-.76-.78-1.53l-11.9,14.07c-.67-8.62-1.34-16.74-2-24.08l6.75-9.5c0-.9,0-1.8,0-2.71l-7,9.78c-.64-7.33-1.25-13.8-1.77-19.11l8-8.66a13.33,13.33,0,0,0-.67-1.61L59,60.08c-.81-8.24-1.34-13.17-1.36-13.38L55.23,47c0,.21.56,5.23,1.38,13.61L48,55.48a16.62,16.62,0,0,0-.18,1.73l9,5.31c.51,5.3,1.12,11.75,1.76,19l-9.72-5.73c0,.62,0,1.24,0,1.85l9.88,5.82c.64,7.36,1.32,15.53,2,24.2L45.8,95.91c-.18.53-.35,1.07-.53,1.6l15.62,12.34c.47,6.13.92,12.49,1.35,19l-18.35-14.5C44.07,115.18,44.28,116,44.51,116.84Z"/><path class="cls-3" d="M76.91,163.58A5.36,5.36,0,0,0,72.53,160c-2.21-.15-4.42,1.42-6.54.75-1.76-.55-2.69-2.43-3.37-4.15-2.09-5.3-3.67-11-8.19-14.87a10.57,10.57,0,0,0-8.4-2.7c-8.35,1.25-10.42,13.06-18.15,15.94a3.18,3.18,0,0,1-2.36.15c-.86-.37-1.33-1.28-1.94-2-1.82-2.09-5.26-2.25-7.59-.75a8.87,8.87,0,0,0-3.67,7.11c-.12,3,.43,6.85-2.29,8-1.82.81-4.22-.3-5.71,1.41a3.41,3.41,0,0,0-.64,3.1A5.64,5.64,0,0,0,4.62,174a6.57,6.57,0,0,0,5.31,2.54l60,0a6.73,6.73,0,0,0,6.28-4.2,19.39,19.39,0,0,0,.88-2.84A10,10,0,0,0,76.91,163.58Z"/><path class="cls-3" d="M155.39,172.35a16.56,16.56,0,0,0-2.55-.25c-1.67-.33-2.74-2-3.2-3.65a43.84,43.84,0,0,0-1.14-5c-.64-1.58-2.17-3-3.86-2.74a13.59,13.59,0,0,0-2.23.88c-3.24,1.17-6.58-1.78-7.93-5-1.76-4.14-1.73-9-5.79-12.06A10.29,10.29,0,0,0,118,143.5c-3.68,1.84-5.77,5.66-7.93,9.12s-4.81,6.82-8.69,7.61c-3.27.66-7-.66-9.8,1.23-3,2-2.83,6.45-1.7,9.85.9,2.68,2.74,5.58,5.56,5.66l58.75.18c2.34,0,3.6-3,1.79-4.45A2,2,0,0,0,155.39,172.35Z"/><path class="cls-4" d="M147.54,176.25a4.4,4.4,0,0,0-1.09-1.68c-2.4-2.63-5.38-5.23-8.93-5.24a12.27,12.27,0,0,0-4.69,1.16,11.57,11.57,0,0,0-5.24,3.62c-1.24,1.76-1.42,4.44.14,5.93,1.71,1.64,4.38,1.28,6.54,1.26a50.51,50.51,0,0,0,8.33-.68C144.62,180.26,148.34,179.08,147.54,176.25Z"/><path class="cls-5" d="M101.46,36.08h8.65a1.74,1.74,0,0,1,1.74,1.74v1.52a0,0,0,0,1,0,0H99.72a0,0,0,0,1,0,0V37.82A1.74,1.74,0,0,1,101.46,36.08Z"/><path class="cls-6" d="M116.62,43a4.77,4.77,0,0,0-4.78-4.77H87.53A4.76,4.76,0,0,0,82.76,43V95.51a4.77,4.77,0,0,0,4.77,4.77h19.54a4.77,4.77,0,0,0,4.77-4.77V64.94h0a4.78,4.78,0,0,0,4.78-4.77Z"/><path class="cls-7" d="M123.24,43a4.77,4.77,0,0,0-4.77-4.77H107.61A4.77,4.77,0,0,0,102.84,43V95.51a4.78,4.78,0,0,0,4.77,4.77h6.08a4.78,4.78,0,0,0,4.78-4.77V64.94h0a4.78,4.78,0,0,0,4.77-4.77Z"/><path class="cls-6" d="M105.61,81.45H115a0,0,0,0,1,0,0V91.62A2.37,2.37,0,0,1,112.64,94H108a2.37,2.37,0,0,1-2.37-2.37V81.45A0,0,0,0,1,105.61,81.45Z"/><rect class="cls-5" x="102.84" y="64.92" width="15.63" height="5.57"/><rect class="cls-5" x="114.12" y="38.2" width="1.77" height="26.73"/><path class="cls-8" d="M68.9,128.57s-.27,1.35,2,5.84.12,28.42.4,36.73l6.19,2.49s.66-8.43,2.55-13.48,4-16.39,2.51-19.59,1.58-11.65,1.58-11.65Z"/><path class="cls-9" d="M93.33,95.45s-.91,15.38-5,24.49-3.64,12.66-3.64,12.66l-17.21-4.08s6.4-21.84,6-28.41Z"/><rect class="cls-3" x="65.69" y="129.03" width="19.96" height="4.52" rx="1.11" transform="translate(27.01 -12.22) rotate(11.23)"/><path class="cls-10" d="M84.8,128.57s-1,4.39-.16,7.42,16.69,33.75,16.69,33.75l6.08-2.59s-3.22-6.41-3.38-9-3.46-16.84-6.7-19.83c-3.47-3.2-.73-9.8-.73-9.8Z"/><path class="cls-11" d="M78.67,100.07,81,132.49l18.21-1.38s-1.89-9.75-.94-13.77c.68-2.92,2-8,2.67-12.07A3.69,3.69,0,0,0,97.46,101Z"/><rect class="cls-3" x="80.36" y="129.69" width="19.96" height="4.52" rx="1.11" transform="translate(-17.8 14.15) rotate(-8.15)"/><rect class="cls-12" x="70.73" y="165.4" width="7.7" height="4.8"/><rect class="cls-13" x="69.97" y="164.71" width="9.21" height="1.94" rx="0.47"/><rect class="cls-12" x="98.82" y="163.05" width="7.7" height="4.8" transform="translate(-64.17 65.05) rotate(-27.14)"/><rect class="cls-13" x="97.1" y="162.6" width="9.21" height="1.94" rx="0.47" transform="translate(-63.41 64.4) rotate(-27.14)"/><path class="cls-13" d="M99,166.37h8.93a0,0,0,0,1,0,0v1.41a.43.43,0,0,1-.43.43H99.44a.43.43,0,0,1-.43-.43v-1.41a0,0,0,0,1,0,0Z" transform="translate(268.89 273.73) rotate(154.49)"/><path class="cls-3" d="M111.57,172c-.06-.78-.32-2.45-1.47-2.7-1.53-.33-2.21-3.11-2.21-3.11l-8,3.84-2.43,3.71c-.66.26-1.62-.13-2.18,0-1.51.45-1.71,2.08-2.26,2.89l5.83,1.84,12.43-5.93A.6.6,0,0,0,111.57,172Z"/><path class="cls-13" d="M99,170.7a.34.34,0,0,1,.46-.14L102,172a.34.34,0,1,1-.33.59l-2.56-1.41A.34.34,0,0,1,99,170.7Z"/><path class="cls-13" d="M98.24,171.77a.34.34,0,0,1,.46-.13l2.56,1.41a.34.34,0,0,1,.13.46.33.33,0,0,1-.46.14l-2.56-1.42A.34.34,0,0,1,98.24,171.77Z"/><path class="cls-13" d="M97.49,172.85a.34.34,0,0,1,.46-.14l2.56,1.42a.34.34,0,0,1,.14.46.34.34,0,0,1-.46.13l-2.56-1.41A.34.34,0,0,1,97.49,172.85Z"/><path class="cls-13" d="M111.57,172a6.24,6.24,0,0,0-.12-.82l-14.31,6.88,1.69.51,12.4-6A.6.6,0,0,0,111.57,172Z"/><path class="cls-14" d="M97.68,178.17l13.84-6.6c0-.12,0-.24-.07-.37L97.17,178Z"/><path class="cls-13" d="M96.52,173.85h.09a5.13,5.13,0,0,1,2.25,4.36l0,.37-7.63-.17a.6.6,0,0,1-.57-.73A4.72,4.72,0,0,1,96.52,173.85Z"/><path class="cls-14" d="M98.84,177.62c0-.12,0-.26,0-.38h-8v.06c0,.09-.06.19-.08.27v0Z"/><path class="cls-13" d="M70.22,169.1h8.93a0,0,0,0,1,0,0v1.41a.43.43,0,0,1-.43.43H70.66a.43.43,0,0,1-.43-.43V169.1A0,0,0,0,1,70.22,169.1Z" transform="translate(149.42 340.02) rotate(179.98)"/><path class="cls-3" d="M58.9,177.44a4.72,4.72,0,0,1,5.81-4,3.17,3.17,0,0,0,1.72-.22l3.79-2.3h8.93s-.58,2.8.65,3.75c.93.73.45,2.34.16,3.08a.6.6,0,0,1-.55.37H59.49A.6.6,0,0,1,58.9,177.44Z"/><path class="cls-13" d="M64.71,173.47h.09a5.12,5.12,0,0,1,2.34,4.31c0,.12,0,.24,0,.37H59.49a.6.6,0,0,1-.59-.72A4.72,4.72,0,0,1,64.71,173.47Z"/><path class="cls-13" d="M80,177.78a.6.6,0,0,1-.55.37H59.49a.6.6,0,0,1-.59-.72q0-.21.12-.45H80.21A5.91,5.91,0,0,1,80,177.78Z"/><path class="cls-14" d="M59,177H80.21a3.29,3.29,0,0,1-.1.37H58.92C59,177.24,59,177.12,59,177Z"/><path class="cls-13" d="M69.17,171.17a.35.35,0,0,1,.48.07l1.7,2.38a.35.35,0,0,1-.08.48.34.34,0,0,1-.47-.08l-1.7-2.38A.33.33,0,0,1,69.17,171.17Z"/><path class="cls-13" d="M68,171.81a.35.35,0,0,1,.47.08l1.7,2.38a.34.34,0,0,1-.08.48.35.35,0,0,1-.47-.08L68,172.29A.35.35,0,0,1,68,171.81Z"/><path class="cls-13" d="M66.9,172.46a.36.36,0,0,1,.48.08l1.7,2.38a.34.34,0,0,1-.55.4l-1.71-2.38A.36.36,0,0,1,66.9,172.46Z"/><path class="cls-8" d="M82.76,59s-3.8,4.89-7.14,6.17S54.89,53.77,52.44,46.51c0,0-.95-1.87.6-2.63s2.42-1.85,3.22-.57S69.08,54.25,72.9,56.47s8.9-3.37,8.9-3.37Z"/><path class="cls-15" d="M86.83,106.17c5.06-.7,10.83.89,15.07-.68-1.6-6.67-5.19-15.34-4.57-23.27,1-12.55,9.11-31.17.82-35.39-6.05-3.09-15.51,2.35-18.42,7.87-5.62,10.67-9,11.8-4.72,18,.18,5.86,0,5.88-.15,11.74a83.84,83.84,0,0,1-.86,12c-.51,3-1.29,5.86-2,8.77A39.31,39.31,0,0,0,86.83,106.17Z"/><path class="cls-16" d="M90.79,64.23l2.53-4.54S86.44,68,82.76,69.12l4.6,1.57,3.85-4Z"/><path class="cls-16" d="M98.86,72.84c.52-2.47,1.09-5,1.6-7.41l-2,2.54-4.07,1.67L76,72.35l-1.06.22.09.13c0,1.69.08,2.9.08,3.89A31.23,31.23,0,0,0,98.86,72.84Z"/><path class="cls-8" d="M85,44.62a19.76,19.76,0,0,1-.08,6.53,2.14,2.14,0,0,0,1.36,2.43c1.73.64,4.57.94,7.72-1.73a49.8,49.8,0,0,1,1.2-9.09C96.23,38.69,85,44.62,85,44.62Z"/><path class="cls-10" d="M48.86,52.39l-.63-3.11a5.92,5.92,0,0,0-.4-1.44,3.41,3.41,0,0,0-1.38-1.55,1.17,1.17,0,0,0-1.34.09h0a1.14,1.14,0,0,0-.38.58A5.9,5.9,0,0,0,45,50.62a7.93,7.93,0,0,0,2.49,3.19,1.15,1.15,0,0,0,.64.3.82.82,0,0,0,.74-.66A2.39,2.39,0,0,0,48.86,52.39Z"/><path class="cls-3" d="M84.73,115.7h10.1a0,0,0,0,1,0,0v9.91a1.29,1.29,0,0,1-1.29,1.29H86a1.29,1.29,0,0,1-1.29-1.29V115.7a0,0,0,0,1,0,0Z" transform="translate(-14.07 11.8) rotate(-6.98)"/><rect class="cls-17" x="82.96" y="114.4" width="12.31" height="2.88" rx="0.83" transform="translate(-13.41 11.68) rotate(-6.98)"/><path class="cls-6" d="M97.48,48.13s-1.78-3-4.5-1.34c-5.72,3.5-12,26.06,9.46,32.33V73.29s-10.2-5.07-10.6-10.8C91.24,53.82,93.61,48,97.48,48.13Z"/><path class="cls-6" d="M79.73,54.7a17.4,17.4,0,0,1,6.45-6.32,2.86,2.86,0,0,0-3.48-1c-3.4,1.29-7.7,8-7.75,15.47C76.14,60.89,77.8,58.35,79.73,54.7Z"/><polygon class="cls-16" points="94.28 61.38 92.04 61.98 90.79 64.23 90.99 65.43 93.97 66.1 94.83 63.93 94.28 61.38"/><path class="cls-10" d="M75.26,29.06S77.83,33.5,77,37.82c-.43,2.28-.31,2.85.41,2.69,1.72-.4,1,5.59,2.62,6.3s13.46-1,14.94-10.89S90.71,19.8,85.07,20.54,75.26,29.06,75.26,29.06Z"/><path class="cls-14" d="M81.64,33.82l-.23-.14c-2.37-1.36-6-2.58-6.77-5.57C74,25.38,76.12,22.29,78,20.52a12.93,12.93,0,0,1,8.51-3.64c7.93-.25,11.84,6.51,15.19,12.6a33.38,33.38,0,0,0,5.72,7.69c2.07,2,6,3.33,6.53,6.26,1.62,8.15-5.61,3.26-9.18,9.76-4.06,7.42-8.68-.68-12.79.66s-11.08-2.6-8-8.67,3-8.25,3-8.25,2.91-1.49,1.27-4.23-5.52-.16-5.09,2.33C83.05,34.69,82.15,34.12,81.64,33.82Z"/><polygon class="cls-18" points="55.99 64.72 50.11 60.72 41.15 34.73 47.04 38.73 55.99 64.72"/><polygon class="cls-18" points="69.65 68.92 61.9 63.38 52.95 37.39 60.69 42.94 69.65 68.92"/><polygon class="cls-19" points="61.9 63.38 55.99 64.72 47.04 38.73 52.95 37.39 61.9 63.38"/><polygon class="cls-19" points="78.31 68.26 69.65 68.92 60.69 42.94 69.35 42.27 78.31 68.26"/><path class="cls-20" d="M54.68,51.61a3.39,3.39,0,0,1-.27-.39,2.71,2.71,0,0,1-.24-1.09L54,47.9a5.91,5.91,0,0,0-.43-2.13,2,2,0,0,0-1.68-1.22,4.51,4.51,0,0,0-1,.21,4.78,4.78,0,0,1-1.46.15,1.54,1.54,0,0,1-.7-.17c-.45-.25-.62-.81-.87-1.26A3,3,0,0,0,45.56,42a.51.51,0,0,0-.56.61l.39,1.78a.09.09,0,0,0,0,.05l.69,2.23a2.49,2.49,0,0,0,.47,1c.46.51,1.27.6,1.74,1.12a9.32,9.32,0,0,1,.64,1.06,1.77,1.77,0,0,0,1.11.67c.43.07.92,0,1.28.24a1.54,1.54,0,0,1,.47.72c.2.45.39.9.58,1.35a2.73,2.73,0,0,0,.39.71A1.32,1.32,0,0,0,55.08,53,1.68,1.68,0,0,0,54.68,51.61Z"/><path class="cls-20" d="M67.27,50.43a4.62,4.62,0,0,0-.58-1.63A11.52,11.52,0,0,0,65.62,47a5.71,5.71,0,0,0-5.33-2.09,1.16,1.16,0,0,0-.51.18,1.12,1.12,0,0,0-.36.54,4.93,4.93,0,0,0-.3,1.94c.07,1.8.07,3.6,0,5.39a4.22,4.22,0,0,1-.93,3,1.7,1.7,0,0,1-1,.47c-.79.07-1.56-.54-2.33-.36-.45.11-.83.47-1.29.47a1.78,1.78,0,0,1-1.22-.81L52,56a1.65,1.65,0,0,0,0,1.94,10.27,10.27,0,0,1,1.11,1.77,6.82,6.82,0,0,0,.31,1,1.36,1.36,0,0,0,1.48.65,2.31,2.31,0,0,0,1.28-1.22,2.17,2.17,0,0,1,.57-.76,1.53,1.53,0,0,1,.72-.23c1.56-.18,3.09.55,4.67.56a1.38,1.38,0,0,0,.72-.15c.56-.31.58-1.08.56-1.72a3.44,3.44,0,0,1,.42-2A5,5,0,0,1,65,54.78a6.83,6.83,0,0,0,2-2.92A3.35,3.35,0,0,0,67.27,50.43Z"/><path class="cls-21" d="M49.16,44.88a1.28,1.28,0,0,1-.43-.14c-.45-.25-.62-.81-.87-1.26A3,3,0,0,0,45.56,42a.51.51,0,0,0-.56.61l.39,1.78a.09.09,0,0,0,0,.05l.69,2.23a2.49,2.49,0,0,0,.47,1c.46.51,1.27.6,1.74,1.12a9.32,9.32,0,0,1,.64,1.06,1.77,1.77,0,0,0,1.11.67,5,5,0,0,1,1.11.16Z"/><path class="cls-21" d="M53.14,56.44a2.72,2.72,0,0,1-.78-.7L52,56a1.65,1.65,0,0,0,0,1.94,10.27,10.27,0,0,1,1.11,1.77,6.82,6.82,0,0,0,.31,1,1.36,1.36,0,0,0,1.42.66Z"/><path class="cls-21" d="M62.86,59.55c.56-.31.58-1.08.56-1.72a3.44,3.44,0,0,1,.42-2,4.21,4.21,0,0,1,1-1L61.34,44.82a5.29,5.29,0,0,0-1.05.06,1.16,1.16,0,0,0-.51.18,1.12,1.12,0,0,0-.36.54,4.93,4.93,0,0,0-.3,1.94c.07,1.8.07,3.6,0,5.39a7.63,7.63,0,0,1-.22,1.79l1.65,4.79a8.32,8.32,0,0,0,1.57.19A1.38,1.38,0,0,0,62.86,59.55Z"/><path class="cls-20" d="M74.61,62.57l-.43-.89a3.86,3.86,0,0,0-2.39-1.6,13,13,0,0,0-1.75.2,5.74,5.74,0,0,1-1.91-.34,4.12,4.12,0,0,0-1.93-.21A1.6,1.6,0,0,0,64.88,61a3.21,3.21,0,0,0,.62,1.69,6.43,6.43,0,0,0,1,1.76,3.65,3.65,0,0,0,1.51.79,1.73,1.73,0,0,0,1,.14,6.71,6.71,0,0,0,.84-.44,2.27,2.27,0,0,1,2,.49,2.62,2.62,0,0,0,2,.64,1.69,1.69,0,0,0,1.14-1.51A4.82,4.82,0,0,0,74.61,62.57Z"/><path class="cls-10" d="M68.07,63l.63-1.74a3.39,3.39,0,0,1-.24-2.57,5.47,5.47,0,0,0,.17-2.6c-.42-1.45-1.33-.8-2.28-1.78-.75-.77-1.8-3-2.68-3.48-1.94-1-3.81,2.21-3.92,3.56-.18,2,1.09,4.08,2.16,5.88,1,1.63,2.79,2.59,4.44,3.36a2,2,0,0,0,1.08.27A.82.82,0,0,0,68.07,63Z"/><path class="cls-10" d="M98.45,68l-7.66-3.74A12.12,12.12,0,0,1,78.71,69c-5.5-1-10.83-9.24-10.83-9.24l-3.65,2S67.9,73.13,74.86,75.51C88.65,80.23,98.45,68,98.45,68Z"/><rect class="cls-5" x="104.1" y="77.51" width="12.42" height="5.12" rx="1.14"/><path class="cls-4" d="M50.36,175.2a5.54,5.54,0,0,0-2.11-2.82A32.42,32.42,0,0,0,45,170.05c-2.39-1.51-5.58-2.67-7.93-1.1a14.94,14.94,0,0,0-1.85,1.71,12,12,0,0,1-5.4,2.88,11.39,11.39,0,0,0-3.33,1.07,2.52,2.52,0,0,0-1.18,3c.55,1.14,2.06,1.33,3.33,1.37C31.76,179.08,51.86,181.89,50.36,175.2Z"/><path class="cls-4" d="M61.21,175.49a6,6,0,0,0-1.86-1.57c-1.47-.92-3.1-1.87-4.82-1.64a7.3,7.3,0,0,0-2.33.87l-1.82.92a6.58,6.58,0,0,0-2,1.32c-.76.83-1.15,2.42.12,3a3.57,3.57,0,0,0,1.38.22c3,.1,6,.14,9.06,0a3,3,0,0,0,2.37-.83A2,2,0,0,0,61.21,175.49Z"/></g></g></svg>