<svg xmlns="http://www.w3.org/2000/svg" viewBox="0 0 697.07 409.55"><defs><style>.cls-1{fill:#d4bfb7;}.cls-2{fill:#010101;}.cls-3{fill:#d7b880;}.cls-4{fill:#b3b197;}.cls-5{fill:#bd9983;}.cls-6{fill:#6c2912;}.cls-7{fill:#dbd69f;}.cls-8{fill:#c98b5f;}.cls-9{fill:#fdce76;}.cls-10{fill:#a4856b;}.cls-11{fill:#7f8074;}</style></defs><g id="Capa_2" data-name="Capa 2"><g id="Capa_1-2" data-name="Capa 1"><path class="cls-1" d="M0,0H683.18c7.67,0,13.89,8,13.89,17.88V56.77H13.89C6.22,56.77,0,48.76,0,38.89Z"/><path class="cls-2" d="M58.56,16.14V40.92h-5V16.14Zm9.19,0v4.15H57V16.14Zm-1.41,10v4H57v-4Zm1.45,10.62v4.14H57V36.78Z"/><path class="cls-2" d="M75.44,14.77V40.92H70.66V14.77Z"/><path class="cls-2" d="M92.67,16.14V40.92h-5V16.14Z"/><path class="cls-2" d="M101.48,26.31V40.92h-4.8V22.5h4.48Zm-.68,4.77-1.32,0a14.44,14.44,0,0,1,.34-3.57A9,9,0,0,1,101,24.7a5.17,5.17,0,0,1,4.62-2.54,4.52,4.52,0,0,1,1.84.37,3.63,3.63,0,0,1,1.48,1.14,5.39,5.39,0,0,1,1,2,11.45,11.45,0,0,1,.34,2.95V40.92h-4.75V29.21a5.67,5.67,0,0,0-.24-1.88,1.68,1.68,0,0,0-.68-.92,2.07,2.07,0,0,0-1.09-.27,2,2,0,0,0-1.19.38,2.72,2.72,0,0,0-.83,1,6.12,6.12,0,0,0-.47,1.58A10,10,0,0,0,100.8,31.08Zm9-.48-1.7.22a13.67,13.67,0,0,1,.31-3.39,8.77,8.77,0,0,1,1.11-2.76,5.45,5.45,0,0,1,1.88-1.85,5.1,5.1,0,0,1,2.62-.66,5.42,5.42,0,0,1,2,.38,3.79,3.79,0,0,1,1.57,1.2,5.86,5.86,0,0,1,1,2.16,13.29,13.29,0,0,1,.34,3.27V40.92h-4.78V29.19a5.85,5.85,0,0,0-.23-1.9,1.57,1.57,0,0,0-.67-.9,2.2,2.2,0,0,0-1.07-.25,1.77,1.77,0,0,0-1.07.34,2.64,2.64,0,0,0-.75,1,5.19,5.19,0,0,0-.46,1.41A9.48,9.48,0,0,0,109.75,30.6Z"/><path class="cls-2" d="M127.28,26V48h-4.74V22.5h4.39Zm9.57,5v1.21a17.61,17.61,0,0,1-.38,3.83,8.69,8.69,0,0,1-1.11,2.81,5,5,0,0,1-1.85,1.74,5.46,5.46,0,0,1-2.58.59,4.23,4.23,0,0,1-2.38-.66,5.54,5.54,0,0,1-1.68-1.81,10.8,10.8,0,0,1-1.08-2.71,23,23,0,0,1-.63-3.32V30.84a25.27,25.27,0,0,1,.59-3.47,10.19,10.19,0,0,1,1.08-2.76,5.21,5.21,0,0,1,1.7-1.81,4.23,4.23,0,0,1,2.36-.64,5.77,5.77,0,0,1,2.61.55,4.66,4.66,0,0,1,1.86,1.65,8.16,8.16,0,0,1,1.11,2.78A18.21,18.21,0,0,1,136.85,31.08Zm-4.78,1.21V31.08a15.94,15.94,0,0,0-.14-2.26,5.05,5.05,0,0,0-.44-1.54,2,2,0,0,0-.8-.86,2.38,2.38,0,0,0-1.21-.28,2.5,2.5,0,0,0-1.22.28,2.12,2.12,0,0,0-.84.79,3.81,3.81,0,0,0-.49,1.26,7.6,7.6,0,0,0-.19,1.67V33.5a7.11,7.11,0,0,0,.3,1.94,2.79,2.79,0,0,0,.86,1.35,2.42,2.42,0,0,0,1.61.5,2.19,2.19,0,0,0,1.22-.31,2.22,2.22,0,0,0,.79-.91,4.76,4.76,0,0,0,.43-1.55A17.94,17.94,0,0,0,132.07,32.29Z"/><path class="cls-2" d="M148.47,29.67l0,2.86h-1.75a2.91,2.91,0,0,0-1.19.22,2.25,2.25,0,0,0-.84.62,2.46,2.46,0,0,0-.5.93,3.7,3.7,0,0,0-.16,1.12,3.06,3.06,0,0,0,.18,1.12,1.48,1.48,0,0,0,.57.7,1.59,1.59,0,0,0,.88.24,2.69,2.69,0,0,0,1.36-.33,2.19,2.19,0,0,0,.86-.78,1.06,1.06,0,0,0,.18-.85l1.09,1.86a8.36,8.36,0,0,1-.56,1.3,6.35,6.35,0,0,1-.88,1.26,4,4,0,0,1-1.28,1,4.31,4.31,0,0,1-1.84.37,5.53,5.53,0,0,1-2.71-.68A5.08,5.08,0,0,1,140,38.66a5.74,5.74,0,0,1-.71-2.9,6.8,6.8,0,0,1,.46-2.54,5.1,5.1,0,0,1,1.36-1.91,6.08,6.08,0,0,1,2.27-1.22,11.15,11.15,0,0,1,3.23-.42Zm-.58,7V28.17a3.71,3.71,0,0,0-.19-1.33,1.42,1.42,0,0,0-.58-.72,1.74,1.74,0,0,0-.93-.23,1.88,1.88,0,0,0-1,.25,1.53,1.53,0,0,0-.6.74,3,3,0,0,0-.2,1.14h-4.78a5.57,5.57,0,0,1,.46-2.26,5.24,5.24,0,0,1,1.35-1.87,6.6,6.6,0,0,1,2.14-1.27,7.85,7.85,0,0,1,2.79-.46,8.25,8.25,0,0,1,3.27.62,4.89,4.89,0,0,1,2.27,2,6.58,6.58,0,0,1,.82,3.49v8.2a17,17,0,0,0,.16,2.52,6.59,6.59,0,0,0,.49,1.67v.29h-4.8a7.75,7.75,0,0,1-.49-1.92A17.84,17.84,0,0,1,147.89,36.68Z"/><path class="cls-2" d="M162.85,37.29A2.33,2.33,0,0,0,164,37a1.75,1.75,0,0,0,.74-.89,4.28,4.28,0,0,0,.27-1.58h4.48a6.94,6.94,0,0,1-.88,3.58,6,6,0,0,1-2.35,2.32,6.73,6.73,0,0,1-3.31.81,8.13,8.13,0,0,1-3.25-.6,5.77,5.77,0,0,1-2.27-1.74,7.88,7.88,0,0,1-1.34-2.79,14.3,14.3,0,0,1-.45-3.76V31a14.36,14.36,0,0,1,.45-3.76,7.88,7.88,0,0,1,1.34-2.79,5.69,5.69,0,0,1,2.26-1.73,8,8,0,0,1,3.23-.6,6.88,6.88,0,0,1,3.45.83,5.7,5.7,0,0,1,2.29,2.42,8.55,8.55,0,0,1,.83,3.95H165a6.16,6.16,0,0,0-.24-1.75,2.3,2.3,0,0,0-.7-1.1,1.85,1.85,0,0,0-1.23-.38,2.24,2.24,0,0,0-1.29.33,2,2,0,0,0-.73.95,5.26,5.26,0,0,0-.33,1.54c-.06.61-.09,1.31-.09,2.09v1.33c0,.82,0,1.53.08,2.15a5.63,5.63,0,0,0,.32,1.54,1.9,1.9,0,0,0,.73.92A2.43,2.43,0,0,0,162.85,37.29Z"/><path class="cls-2" d="M180.26,22.5v3.59h-9.39V22.5ZM173,18h4.75V35.28a3.7,3.7,0,0,0,.15,1.19,1,1,0,0,0,.47.57,1.75,1.75,0,0,0,.82.17,4.61,4.61,0,0,0,.68-.05,3.37,3.37,0,0,0,.46-.09V40.8a7,7,0,0,1-1.18.34,7.79,7.79,0,0,1-1.47.12,5.37,5.37,0,0,1-2.48-.54A3.67,3.67,0,0,1,173.61,39a7.36,7.36,0,0,1-.58-3.17Z"/><path class="cls-2" d="M182,32.32V31.11a12.79,12.79,0,0,1,.52-3.84,7.71,7.71,0,0,1,1.49-2.8,6.3,6.3,0,0,1,2.34-1.72,7.74,7.74,0,0,1,3.07-.59,7.86,7.86,0,0,1,3.1.59,6.37,6.37,0,0,1,2.36,1.72,7.56,7.56,0,0,1,1.49,2.8,12.79,12.79,0,0,1,.52,3.84v1.21a12.77,12.77,0,0,1-.52,3.83A7.77,7.77,0,0,1,194.91,39a6.42,6.42,0,0,1-2.35,1.72,8.44,8.44,0,0,1-6.15,0A6.42,6.42,0,0,1,184.06,39a7.8,7.8,0,0,1-1.51-2.81A12.77,12.77,0,0,1,182,32.32Zm4.78-1.21v1.21a13,13,0,0,0,.17,2.23,5.21,5.21,0,0,0,.52,1.55,2.39,2.39,0,0,0,.85.9,2.19,2.19,0,0,0,1.14.29,2.31,2.31,0,0,0,1.15-.29,2.16,2.16,0,0,0,.84-.9,5.55,5.55,0,0,0,.49-1.55,13,13,0,0,0,.17-2.23V31.11a10.82,10.82,0,0,0-.19-2.19,5.4,5.4,0,0,0-.52-1.55,2.48,2.48,0,0,0-.85-.93,2.06,2.06,0,0,0-1.13-.31,2,2,0,0,0-1.11.31,2.64,2.64,0,0,0-.84.93,5.11,5.11,0,0,0-.52,1.55A12.65,12.65,0,0,0,186.81,31.11Z"/><path class="cls-2" d="M217.18,20.56l-5.35,20.36h-5.26l7.75-24.78h3.28Zm4.37,11.11v4.14H210.37V31.67Zm-.19,9.25L216,20.56l-.49-4.42h3.33l7.81,24.78Z"/><path class="cls-2" d="M233.58,26.31V40.92h-4.8V22.5h4.48Zm-.68,4.77-1.33,0a14.93,14.93,0,0,1,.34-3.57,9,9,0,0,1,1.14-2.84,5.17,5.17,0,0,1,4.62-2.54,4.55,4.55,0,0,1,1.84.37A3.7,3.7,0,0,1,241,23.67a5.23,5.23,0,0,1,1,2,11,11,0,0,1,.34,2.95V40.92h-4.74V29.21a5.67,5.67,0,0,0-.24-1.88,1.68,1.68,0,0,0-.68-.92,2.07,2.07,0,0,0-1.09-.27,1.94,1.94,0,0,0-1.19.38,2.72,2.72,0,0,0-.83,1,6.12,6.12,0,0,0-.47,1.58A10,10,0,0,0,232.9,31.08Zm8.95-.48-1.7.22a13.67,13.67,0,0,1,.31-3.39,8.53,8.53,0,0,1,1.1-2.76,5.63,5.63,0,0,1,1.88-1.85,5.14,5.14,0,0,1,2.63-.66,5.33,5.33,0,0,1,2,.38,3.75,3.75,0,0,1,1.58,1.2,5.7,5.7,0,0,1,1,2.16,12.78,12.78,0,0,1,.35,3.27V40.92h-4.78V29.19a6.14,6.14,0,0,0-.23-1.9,1.57,1.57,0,0,0-.67-.9,2.23,2.23,0,0,0-1.07-.25,1.77,1.77,0,0,0-1.07.34,2.77,2.77,0,0,0-.76,1,5.56,5.56,0,0,0-.45,1.41A8.69,8.69,0,0,0,241.85,30.6Z"/><path class="cls-2" d="M254.63,14.77h4.75V36.64L259,40.92h-4.41ZM269,31.1v1.2a20.39,20.39,0,0,1-.34,3.91,8,8,0,0,1-1.08,2.8,4.58,4.58,0,0,1-1.85,1.68,5.83,5.83,0,0,1-2.66.57,4.2,4.2,0,0,1-2.35-.65A5.17,5.17,0,0,1,259,38.79,11.35,11.35,0,0,1,257.91,36a22.42,22.42,0,0,1-.61-3.45V30.81a21.27,21.27,0,0,1,.59-3.43A11.77,11.77,0,0,1,259,24.63a5.17,5.17,0,0,1,1.67-1.82,4.25,4.25,0,0,1,2.35-.65,6,6,0,0,1,2.7.57,4.76,4.76,0,0,1,1.85,1.69,8.31,8.31,0,0,1,1.07,2.8A20.22,20.22,0,0,1,269,31.1Zm-4.75,1.2V31.1a19.71,19.71,0,0,0-.11-2.19,5,5,0,0,0-.37-1.54,2,2,0,0,0-.77-.92,2.58,2.58,0,0,0-1.32-.31,2.54,2.54,0,0,0-1.23.28,2.43,2.43,0,0,0-.84.82,3.74,3.74,0,0,0-.5,1.26,9.36,9.36,0,0,0-.19,1.59v3.22a7.55,7.55,0,0,0,.29,2.07,2.76,2.76,0,0,0,.88,1.39,2.42,2.42,0,0,0,1.62.5A2.66,2.66,0,0,0,263,37a1.86,1.86,0,0,0,.78-.87,4.58,4.58,0,0,0,.37-1.54A21.29,21.29,0,0,0,264.2,32.3Z"/><path class="cls-2" d="M271.87,17.72a2.47,2.47,0,0,1,.71-1.82,2.56,2.56,0,0,1,1.91-.72,2.49,2.49,0,0,1,1.89.72,2.46,2.46,0,0,1,.7,1.82,2.44,2.44,0,0,1-2.59,2.55,2.56,2.56,0,0,1-1.91-.72A2.51,2.51,0,0,1,271.87,17.72Zm5,4.78V40.92h-4.79V22.5Z"/><path class="cls-2" d="M288.07,41.26a9.13,9.13,0,0,1-3.34-.58A6.66,6.66,0,0,1,282.27,39a7.3,7.3,0,0,1-1.53-2.67,11.26,11.26,0,0,1-.53-3.57V31.25a13.7,13.7,0,0,1,.51-3.94,8.32,8.32,0,0,1,1.45-2.85,5.74,5.74,0,0,1,2.31-1.73,8,8,0,0,1,3.1-.57,7.66,7.66,0,0,1,3.06.57,5.47,5.47,0,0,1,2.19,1.71,7.7,7.7,0,0,1,1.31,2.81,15.35,15.35,0,0,1,.44,3.86v2.2H282.24V29.94h7.66v-.43a6.2,6.2,0,0,0-.24-1.87,2,2,0,0,0-2.11-1.51,2.38,2.38,0,0,0-1.21.29,2.07,2.07,0,0,0-.78.91,5.34,5.34,0,0,0-.43,1.59,17,17,0,0,0-.14,2.33v1.51a8.61,8.61,0,0,0,.23,2.13,3.88,3.88,0,0,0,.66,1.4,2.29,2.29,0,0,0,1.05.77,4.36,4.36,0,0,0,1.47.23,5.54,5.54,0,0,0,2.27-.45,5.28,5.28,0,0,0,1.74-1.23l1.91,2.89a6.93,6.93,0,0,1-1.38,1.28,7.74,7.74,0,0,1-2.07,1.06A8.54,8.54,0,0,1,288.07,41.26Z"/><path class="cls-2" d="M302,26.43V40.92h-4.78V22.5h4.46Zm-.71,4.65-1.28,0a13.83,13.83,0,0,1,.4-3.72,8.89,8.89,0,0,1,1.24-2.82,5.78,5.78,0,0,1,1.94-1.79,5.15,5.15,0,0,1,2.53-.62,5,5,0,0,1,2,.38,3.83,3.83,0,0,1,1.54,1.19,5.84,5.84,0,0,1,1,2.17,13,13,0,0,1,.36,3.31V40.92h-4.78V29.17a5.53,5.53,0,0,0-.24-1.84,1.63,1.63,0,0,0-.71-.92,2.37,2.37,0,0,0-1.2-.27,2.07,2.07,0,0,0-1.21.38,2.9,2.9,0,0,0-.87,1,5.75,5.75,0,0,0-.53,1.58A9.24,9.24,0,0,0,301.3,31.08Z"/><path class="cls-2" d="M322.52,22.5v3.59h-9.39V22.5ZM315.29,18H320V35.28a3.66,3.66,0,0,0,.16,1.19,1,1,0,0,0,.47.57,1.75,1.75,0,0,0,.82.17,4.61,4.61,0,0,0,.68-.05,3.37,3.37,0,0,0,.46-.09V40.8a7.33,7.33,0,0,1-1.18.34,7.94,7.94,0,0,1-1.47.12,5.34,5.34,0,0,1-2.48-.54A3.62,3.62,0,0,1,315.87,39a7.36,7.36,0,0,1-.58-3.17Z"/><path class="cls-2" d="M333.87,29.67l0,2.86h-1.75a2.91,2.91,0,0,0-1.19.22,2.25,2.25,0,0,0-.84.62,2.46,2.46,0,0,0-.5.93,3.7,3.7,0,0,0-.16,1.12,3.06,3.06,0,0,0,.18,1.12,1.48,1.48,0,0,0,.57.7,1.57,1.57,0,0,0,.88.24,2.69,2.69,0,0,0,1.36-.33,2.19,2.19,0,0,0,.86-.78,1.06,1.06,0,0,0,.18-.85l1.09,1.86a8.36,8.36,0,0,1-.56,1.3,6.35,6.35,0,0,1-.88,1.26,4,4,0,0,1-1.28,1,4.31,4.31,0,0,1-1.84.37,5.53,5.53,0,0,1-2.71-.68,5.08,5.08,0,0,1-1.93-1.92,5.74,5.74,0,0,1-.71-2.9,6.8,6.8,0,0,1,.46-2.54,5.1,5.1,0,0,1,1.36-1.91,6.08,6.08,0,0,1,2.27-1.22,11.15,11.15,0,0,1,3.23-.42Zm-.58,7V28.17a3.71,3.71,0,0,0-.19-1.33,1.42,1.42,0,0,0-.58-.72,1.74,1.74,0,0,0-.93-.23,1.88,1.88,0,0,0-1,.25,1.53,1.53,0,0,0-.6.74,3,3,0,0,0-.2,1.14H325a5.57,5.57,0,0,1,.46-2.26,5.24,5.24,0,0,1,1.35-1.87,6.6,6.6,0,0,1,2.14-1.27,7.85,7.85,0,0,1,2.79-.46,8.25,8.25,0,0,1,3.27.62,4.89,4.89,0,0,1,2.27,2,6.58,6.58,0,0,1,.82,3.49v8.2a17,17,0,0,0,.16,2.52,6.59,6.59,0,0,0,.49,1.67v.29h-4.8a7.75,7.75,0,0,1-.49-1.92A17.84,17.84,0,0,1,333.29,36.68Z"/><path class="cls-2" d="M346.6,14.77V40.92h-4.78V14.77Z"/><path class="cls-2" d="M357.78,32.35v-1.2a18.31,18.31,0,0,1,.38-3.95,8.31,8.31,0,0,1,1.15-2.81,4.93,4.93,0,0,1,1.88-1.68,5.85,5.85,0,0,1,2.57-.55,4.13,4.13,0,0,1,2.3.65,5.38,5.38,0,0,1,1.7,1.83,11.44,11.44,0,0,1,1.12,2.78,21,21,0,0,1,.59,3.51V32.7a22.42,22.42,0,0,1-.62,3.37,10.61,10.61,0,0,1-1.12,2.73A5.68,5.68,0,0,1,366,40.61a4.13,4.13,0,0,1-2.3.65,5.52,5.52,0,0,1-2.56-.58A5,5,0,0,1,359.31,39a8.46,8.46,0,0,1-1.15-2.79A17.48,17.48,0,0,1,357.78,32.35Zm4.77-1.2v1.2a17.48,17.48,0,0,0,.12,2.21,5,5,0,0,0,.43,1.52,2,2,0,0,0,.79.88,2.43,2.43,0,0,0,1.23.28,2.36,2.36,0,0,0,1.55-.49,2.92,2.92,0,0,0,.89-1.33,6.52,6.52,0,0,0,.33-2V30.21a8.26,8.26,0,0,0-.22-1.69,4.22,4.22,0,0,0-.53-1.27,2.53,2.53,0,0,0-.84-.82,2.55,2.55,0,0,0-2.38,0,2,2,0,0,0-.79.89,5.43,5.43,0,0,0-.44,1.55A16.4,16.4,0,0,0,362.55,31.15Zm4.78,5.7V14.77h4.78V40.92h-4.32Z"/><path class="cls-2" d="M383.11,41.26a9.15,9.15,0,0,1-3.35-.58A6.66,6.66,0,0,1,377.3,39a7.3,7.3,0,0,1-1.53-2.67,11.26,11.26,0,0,1-.53-3.57V31.25a13.7,13.7,0,0,1,.51-3.94,8.32,8.32,0,0,1,1.45-2.85,5.74,5.74,0,0,1,2.31-1.73,8,8,0,0,1,3.1-.57,7.66,7.66,0,0,1,3.06.57,5.41,5.41,0,0,1,2.19,1.71,7.7,7.7,0,0,1,1.31,2.81,15.35,15.35,0,0,1,.44,3.86v2.2H377.27V29.94h7.66v-.43a6.2,6.2,0,0,0-.24-1.87,2,2,0,0,0-2.11-1.51,2.38,2.38,0,0,0-1.21.29,2.07,2.07,0,0,0-.78.91,5.34,5.34,0,0,0-.43,1.59,17.2,17.2,0,0,0-.13,2.33v1.51a8.16,8.16,0,0,0,.23,2.13,3.72,3.72,0,0,0,.65,1.4,2.32,2.32,0,0,0,1.06.77,4.26,4.26,0,0,0,1.46.23,5.51,5.51,0,0,0,2.27-.45,5.33,5.33,0,0,0,1.75-1.23l1.9,2.89A6.93,6.93,0,0,1,388,39.78a7.74,7.74,0,0,1-2.07,1.06A8.52,8.52,0,0,1,383.11,41.26Z"/><path class="cls-2" d="M397.37,14.77V40.92h-4.78V14.77Z"/><path class="cls-2" d="M417.21,22.5v3.59h-9.39V22.5ZM410,18h4.75V35.28a3.7,3.7,0,0,0,.15,1.19,1,1,0,0,0,.47.57,1.75,1.75,0,0,0,.82.17,4.61,4.61,0,0,0,.68-.05,3.37,3.37,0,0,0,.46-.09V40.8a7.33,7.33,0,0,1-1.18.34,7.86,7.86,0,0,1-1.47.12,5.34,5.34,0,0,1-2.48-.54A3.62,3.62,0,0,1,410.56,39a7.36,7.36,0,0,1-.58-3.17Z"/><path class="cls-2" d="M424.63,26.6V40.92h-4.76V22.5h4.49ZM429,22.37l-.07,4.74a6.36,6.36,0,0,0-.77-.1l-.79,0a3.41,3.41,0,0,0-1.36.24,2.34,2.34,0,0,0-.93.74,3.32,3.32,0,0,0-.55,1.2,9.27,9.27,0,0,0-.23,1.63l-.9-.36a18.83,18.83,0,0,1,.28-3.31,10.08,10.08,0,0,1,.84-2.62,5.06,5.06,0,0,1,1.36-1.73,2.89,2.89,0,0,1,1.79-.61,4.78,4.78,0,0,1,.73.06A2.89,2.89,0,0,1,429,22.37Z"/><path class="cls-2" d="M439.42,29.67l0,2.86h-1.76a2.89,2.89,0,0,0-1.18.22,2.25,2.25,0,0,0-.84.62,2.33,2.33,0,0,0-.5.93,3.7,3.7,0,0,0-.16,1.12,3.06,3.06,0,0,0,.18,1.12,1.46,1.46,0,0,0,.56.7,1.62,1.62,0,0,0,.89.24,2.71,2.71,0,0,0,1.36-.33,2.19,2.19,0,0,0,.86-.78,1.06,1.06,0,0,0,.18-.85l1.09,1.86a9.44,9.44,0,0,1-.56,1.3,6.35,6.35,0,0,1-.88,1.26,4,4,0,0,1-1.28,1,4.34,4.34,0,0,1-1.84.37,5.53,5.53,0,0,1-2.71-.68,5,5,0,0,1-1.93-1.92,5.74,5.74,0,0,1-.71-2.9,6.8,6.8,0,0,1,.46-2.54A5.1,5.1,0,0,1,432,31.31a6.08,6.08,0,0,1,2.27-1.22,11.1,11.1,0,0,1,3.23-.42Zm-.58,7V28.17a3.71,3.71,0,0,0-.19-1.33,1.42,1.42,0,0,0-.58-.72,1.74,1.74,0,0,0-.93-.23,1.88,1.88,0,0,0-1,.25,1.54,1.54,0,0,0-.61.74,3,3,0,0,0-.19,1.14h-4.78a5.57,5.57,0,0,1,.46-2.26,5.24,5.24,0,0,1,1.35-1.87,6.5,6.5,0,0,1,2.14-1.27,7.85,7.85,0,0,1,2.79-.46,8.25,8.25,0,0,1,3.27.62,4.94,4.94,0,0,1,2.27,2,6.58,6.58,0,0,1,.82,3.49v8.2A15.71,15.71,0,0,0,443.8,39a6.59,6.59,0,0,0,.49,1.67v.29h-4.8A7.75,7.75,0,0,1,439,39,17.84,17.84,0,0,1,438.84,36.68Z"/><path class="cls-2" d="M451.83,26.43V40.92H447V22.5h4.46Zm-.72,4.65-1.27,0a13.44,13.44,0,0,1,.4-3.72,8.67,8.67,0,0,1,1.24-2.82,5.75,5.75,0,0,1,1.93-1.79,5.18,5.18,0,0,1,2.53-.62,5,5,0,0,1,2,.38,3.76,3.76,0,0,1,1.54,1.19,5.84,5.84,0,0,1,1,2.17,13.54,13.54,0,0,1,.35,3.31V40.92H456V29.17a5.53,5.53,0,0,0-.24-1.84,1.62,1.62,0,0,0-.7-.92,2.42,2.42,0,0,0-1.2-.27,2,2,0,0,0-1.21.38,2.92,2.92,0,0,0-.88,1,6.11,6.11,0,0,0-.53,1.58A9.24,9.24,0,0,0,451.11,31.08Z"/><path class="cls-2" d="M472.47,35.93a1.23,1.23,0,0,0-.32-.83,4.2,4.2,0,0,0-1-.79,16.81,16.81,0,0,0-1.86-.88A18.68,18.68,0,0,1,467,32.37a7.27,7.27,0,0,1-1.64-1.21,4.22,4.22,0,0,1-1-1.51,5.13,5.13,0,0,1-.34-1.94,5.36,5.36,0,0,1,.43-2.17,5.26,5.26,0,0,1,1.25-1.75,5.69,5.69,0,0,1,2-1.19,7.69,7.69,0,0,1,2.66-.44,8.12,8.12,0,0,1,3.57.72,5.51,5.51,0,0,1,2.29,2,5.64,5.64,0,0,1,.8,3h-4.77a3.08,3.08,0,0,0-.18-1.09,1.54,1.54,0,0,0-.61-.76,2,2,0,0,0-1.11-.27,1.8,1.8,0,0,0-.91.22,1.59,1.59,0,0,0-.86,1.44,1.35,1.35,0,0,0,.16.67,1.83,1.83,0,0,0,.53.56,6.77,6.77,0,0,0,.95.57,15.47,15.47,0,0,0,1.49.65,15.44,15.44,0,0,1,3,1.49,5.25,5.25,0,0,1,1.76,1.82,5.14,5.14,0,0,1,.58,2.57,5.27,5.27,0,0,1-.47,2.23,5,5,0,0,1-1.35,1.73,6.22,6.22,0,0,1-2.12,1.12,8.78,8.78,0,0,1-2.75.4,7.39,7.39,0,0,1-3.76-.89,6.07,6.07,0,0,1-2.31-2.27,5.75,5.75,0,0,1-.79-2.89h4.53a2.93,2.93,0,0,0,.35,1.44,1.66,1.66,0,0,0,.86.73,3.53,3.53,0,0,0,1.21.2,2.65,2.65,0,0,0,1.1-.19,1.33,1.33,0,0,0,.65-.56A1.72,1.72,0,0,0,472.47,35.93Z"/><path class="cls-2" d="M484.89,26V48h-4.74V22.5h4.39Zm9.57,5v1.21a17.61,17.61,0,0,1-.38,3.83A8.69,8.69,0,0,1,493,38.93a5,5,0,0,1-1.85,1.74,5.46,5.46,0,0,1-2.58.59,4.21,4.21,0,0,1-2.38-.66,5.54,5.54,0,0,1-1.68-1.81,10.8,10.8,0,0,1-1.08-2.71,23,23,0,0,1-.63-3.32V30.84a25.27,25.27,0,0,1,.59-3.47,10.19,10.19,0,0,1,1.08-2.76,5.21,5.21,0,0,1,1.7-1.81,4.23,4.23,0,0,1,2.36-.64,5.77,5.77,0,0,1,2.61.55A4.66,4.66,0,0,1,493,24.36a8.16,8.16,0,0,1,1.11,2.78A18.21,18.21,0,0,1,494.46,31.08Zm-4.78,1.21V31.08a15.94,15.94,0,0,0-.14-2.26,5.05,5.05,0,0,0-.44-1.54,2,2,0,0,0-.8-.86,2.38,2.38,0,0,0-1.21-.28,2.5,2.5,0,0,0-1.22.28,2.12,2.12,0,0,0-.84.79,3.81,3.81,0,0,0-.49,1.26,7.6,7.6,0,0,0-.19,1.67V33.5a7.11,7.11,0,0,0,.3,1.94,2.79,2.79,0,0,0,.86,1.35,2.42,2.42,0,0,0,1.61.5,2.19,2.19,0,0,0,1.22-.31,2.22,2.22,0,0,0,.79-.91,4.76,4.76,0,0,0,.43-1.55A17.94,17.94,0,0,0,489.68,32.29Z"/><path class="cls-2" d="M496.84,32.32V31.11a12.79,12.79,0,0,1,.52-3.84,7.71,7.71,0,0,1,1.49-2.8,6.3,6.3,0,0,1,2.34-1.72,7.74,7.74,0,0,1,3.07-.59,7.86,7.86,0,0,1,3.1.59,6.26,6.26,0,0,1,2.35,1.72,7.44,7.44,0,0,1,1.5,2.8,12.79,12.79,0,0,1,.52,3.84v1.21a12.77,12.77,0,0,1-.52,3.83,7.64,7.64,0,0,1-1.5,2.81,6.3,6.3,0,0,1-2.34,1.72,8.44,8.44,0,0,1-6.15,0A6.34,6.34,0,0,1,498.87,39a7.8,7.8,0,0,1-1.51-2.81A12.77,12.77,0,0,1,496.84,32.32Zm4.78-1.21v1.21a13,13,0,0,0,.17,2.23,5.21,5.21,0,0,0,.52,1.55,2.3,2.3,0,0,0,.84.9,2.25,2.25,0,0,0,1.14.29,2.32,2.32,0,0,0,1.16-.29,2.16,2.16,0,0,0,.84-.9,5.55,5.55,0,0,0,.49-1.55,13,13,0,0,0,.17-2.23V31.11a10.82,10.82,0,0,0-.19-2.19,5.1,5.1,0,0,0-.53-1.55,2.38,2.38,0,0,0-.84-.93,2.06,2.06,0,0,0-1.13-.31,2,2,0,0,0-1.11.31,2.55,2.55,0,0,0-.84.93,5.11,5.11,0,0,0-.52,1.55A12.65,12.65,0,0,0,501.62,31.11Z"/><path class="cls-2" d="M519.49,26.6V40.92h-4.76V22.5h4.49Zm4.34-4.23-.07,4.74A6.36,6.36,0,0,0,523,27l-.79,0a3.41,3.41,0,0,0-1.36.24,2.34,2.34,0,0,0-.93.74,3.32,3.32,0,0,0-.55,1.2,10.31,10.31,0,0,0-.23,1.63l-.9-.36a18.83,18.83,0,0,1,.28-3.31,9.71,9.71,0,0,1,.85-2.62,4.92,4.92,0,0,1,1.35-1.73,2.89,2.89,0,0,1,1.79-.61,4.78,4.78,0,0,1,.73.06A2.89,2.89,0,0,1,523.83,22.37Z"/><path class="cls-2" d="M535.15,22.5v3.59h-9.4V22.5ZM527.92,18h4.74V35.28a3.66,3.66,0,0,0,.16,1.19,1,1,0,0,0,.47.57,1.75,1.75,0,0,0,.82.17,4.61,4.61,0,0,0,.68-.05,3.37,3.37,0,0,0,.46-.09V40.8a7.33,7.33,0,0,1-1.18.34,7.94,7.94,0,0,1-1.47.12,5.34,5.34,0,0,1-2.48-.54A3.69,3.69,0,0,1,528.49,39a7.52,7.52,0,0,1-.57-3.17Z"/><path class="cls-2" d="M545.22,41.26a9.09,9.09,0,0,1-3.34-.58A6.66,6.66,0,0,1,539.42,39a7.3,7.3,0,0,1-1.53-2.67,11.26,11.26,0,0,1-.53-3.57V31.25a13.7,13.7,0,0,1,.51-3.94,8.15,8.15,0,0,1,1.45-2.85,5.77,5.77,0,0,1,2.3-1.73,8.06,8.06,0,0,1,3.11-.57,7.66,7.66,0,0,1,3.06.57A5.47,5.47,0,0,1,550,24.44a7.86,7.86,0,0,1,1.31,2.81,15.38,15.38,0,0,1,.43,3.86v2.2H539.39V29.94H547v-.43a6.23,6.23,0,0,0-.23-1.87,2,2,0,0,0-2.11-1.51,2.38,2.38,0,0,0-1.21.29,2.07,2.07,0,0,0-.78.91,5.34,5.34,0,0,0-.43,1.59,17,17,0,0,0-.14,2.33v1.51a8.61,8.61,0,0,0,.23,2.13,3.72,3.72,0,0,0,.66,1.4,2.29,2.29,0,0,0,1.05.77,4.36,4.36,0,0,0,1.47.23,5.54,5.54,0,0,0,2.27-.45,5.28,5.28,0,0,0,1.74-1.23l1.91,2.89a6.93,6.93,0,0,1-1.38,1.28A7.66,7.66,0,0,1,548,40.84,8.44,8.44,0,0,1,545.22,41.26Z"/><path class="cls-2" d="M571.74,20.56,566.4,40.92h-5.26l7.74-24.78h3.28Zm4.37,11.11v4.14H564.93V31.67Zm-.18,9.25-5.37-20.36-.49-4.42h3.34l7.81,24.78Z"/><path class="cls-2" d="M590.75,41.26a9.15,9.15,0,0,1-3.35-.58A6.66,6.66,0,0,1,584.94,39a7.45,7.45,0,0,1-1.53-2.67,11.27,11.27,0,0,1-.52-3.57V31.25a13.7,13.7,0,0,1,.51-3.94,8.3,8.3,0,0,1,1.44-2.85,5.87,5.87,0,0,1,2.31-1.73,8,8,0,0,1,3.1-.57,7.66,7.66,0,0,1,3.06.57,5.5,5.5,0,0,1,2.2,1.71,7.86,7.86,0,0,1,1.31,2.81,15.86,15.86,0,0,1,.43,3.86v2.2H584.91V29.94h7.66v-.43a6.2,6.2,0,0,0-.24-1.87,2,2,0,0,0-2.11-1.51,2.38,2.38,0,0,0-1.21.29,2.07,2.07,0,0,0-.78.91,5.66,5.66,0,0,0-.43,1.59,17.2,17.2,0,0,0-.13,2.33v1.51a8.16,8.16,0,0,0,.23,2.13,3.72,3.72,0,0,0,.65,1.4,2.37,2.37,0,0,0,1.06.77,4.34,4.34,0,0,0,1.46.23,5.51,5.51,0,0,0,2.27-.45,5.33,5.33,0,0,0,1.75-1.23L597,38.5a7.13,7.13,0,0,1-1.37,1.28,7.81,7.81,0,0,1-2.08,1.06A8.52,8.52,0,0,1,590.75,41.26ZM587.29,20l3.34-5.26H596L591.28,20Z"/><path class="cls-2" d="M604.77,26.6V40.92H600V22.5h4.49Zm4.34-4.23L609,27.11a6.36,6.36,0,0,0-.77-.1l-.79,0a3.41,3.41,0,0,0-1.36.24,2.34,2.34,0,0,0-.93.74,3.32,3.32,0,0,0-.55,1.2,10.31,10.31,0,0,0-.23,1.63l-.9-.36a18.83,18.83,0,0,1,.28-3.31,9.71,9.71,0,0,1,.85-2.62A4.92,4.92,0,0,1,606,22.77a2.89,2.89,0,0,1,1.79-.61,4.78,4.78,0,0,1,.73.06A2.89,2.89,0,0,1,609.11,22.37Z"/><path class="cls-2" d="M618.64,41.26a9.09,9.09,0,0,1-3.34-.58A6.66,6.66,0,0,1,612.84,39a7.3,7.3,0,0,1-1.53-2.67,11.26,11.26,0,0,1-.53-3.57V31.25a13.7,13.7,0,0,1,.51-3.94,8.15,8.15,0,0,1,1.45-2.85,5.77,5.77,0,0,1,2.3-1.73,8.06,8.06,0,0,1,3.11-.57,7.61,7.61,0,0,1,3.05.57,5.5,5.5,0,0,1,2.2,1.71,7.86,7.86,0,0,1,1.31,2.81,15.38,15.38,0,0,1,.43,3.86v2.2H612.8V29.94h7.66v-.43a6.2,6.2,0,0,0-.24-1.87,2.1,2.1,0,0,0-.74-1.13,2.2,2.2,0,0,0-1.37-.38,2.37,2.37,0,0,0-1.2.29,2.15,2.15,0,0,0-.79.91,5.69,5.69,0,0,0-.42,1.59,17,17,0,0,0-.14,2.33v1.51a8.61,8.61,0,0,0,.23,2.13,3.58,3.58,0,0,0,.66,1.4,2.29,2.29,0,0,0,1,.77,4.36,4.36,0,0,0,1.47.23,5.58,5.58,0,0,0,2.27-.45A5.39,5.39,0,0,0,623,35.61l1.91,2.89a6.93,6.93,0,0,1-1.38,1.28,7.66,7.66,0,0,1-2.08,1.06A8.44,8.44,0,0,1,618.64,41.26Z"/><path class="cls-2" d="M627.36,32.32V31.11a13.13,13.13,0,0,1,.51-3.84,7.87,7.87,0,0,1,1.49-2.8,6.3,6.3,0,0,1,2.34-1.72,8.36,8.36,0,0,1,6.17,0,6.29,6.29,0,0,1,2.36,1.72,7.73,7.73,0,0,1,1.5,2.8,13.11,13.11,0,0,1,.52,3.84v1.21a13.09,13.09,0,0,1-.52,3.83,7.94,7.94,0,0,1-1.5,2.81,6.34,6.34,0,0,1-2.35,1.72,8.41,8.41,0,0,1-6.14,0A6.37,6.37,0,0,1,629.38,39a7.8,7.8,0,0,1-1.51-2.81A13.11,13.11,0,0,1,627.36,32.32Zm4.78-1.21v1.21a12,12,0,0,0,.17,2.23,4.7,4.7,0,0,0,.52,1.55,2.3,2.3,0,0,0,.84.9,2.25,2.25,0,0,0,1.14.29A2.35,2.35,0,0,0,636,37a2.08,2.08,0,0,0,.83-.9,5.24,5.24,0,0,0,.49-1.55,12,12,0,0,0,.17-2.23V31.11a11.66,11.66,0,0,0-.18-2.19,5.39,5.39,0,0,0-.53-1.55,2.55,2.55,0,0,0-.84-.93,2.11,2.11,0,0,0-1.13-.31,2,2,0,0,0-1.12.31,2.62,2.62,0,0,0-.83.93,4.62,4.62,0,0,0-.52,1.55A11.73,11.73,0,0,0,632.14,31.11Z"/><path class="cls-3" d="M214.4,318.17l-53-36.55v36.55c0,40.56,52.85,74.94,126,86.88l56.75-86.88Z"/><path class="cls-4" d="M429.07,323.07l-84.93-4.9-26.55,40.65-30.2,9.68v36.55a352.76,352.76,0,0,0,56.75,4.5c93.85,0,171.16-35.38,181.55-80.91V292.09Z"/><path class="cls-5" d="M558.37,294a55.63,55.63,0,0,0,1.41-12.35c0-41.76-47.49-78-116.93-95.88l-98.71,95.88Z"/><path class="cls-6" d="M427.79,200.37c-25.07-6.47-53.51-10.12-83.65-10.12-40.67,0-78.23,6.64-108.59,17.88l108.59,73.49Z"/><path class="cls-7" d="M344.14,281.62,287.39,368.5a352.76,352.76,0,0,0,56.75,4.5c93.85,0,171.16-35.38,181.55-80.91Z"/><path class="cls-8" d="M235.55,208.13c-45,16.64-74.16,43.36-74.16,73.49H344.14Z"/><path class="cls-9" d="M161.39,281.62c0,40.56,52.85,74.94,126,86.88l56.75-86.88Z"/><polygon class="cls-10" points="558.37 330.52 558.37 293.97 525.69 292.09 525.69 328.64 558.37 330.52"/><path class="cls-11" d="M425,336.87c0,3.68-6,6.67-13.34,6.67s-13.33-3-13.33-6.67,6-6.67,13.33-6.67S425,333.19,425,336.87Z"/><path class="cls-11" d="M657.64,358h-116V313.3H413.16v23.57a1.53,1.53,0,1,1-3.06,0V310.23H544.74v44.7h112.9a1.53,1.53,0,1,1,0,3.06Z"/><path class="cls-11" d="M487.75,240.17c0,3.68-6,6.67-13.33,6.67s-13.34-3-13.34-6.67,6-6.67,13.34-6.67S487.75,236.49,487.75,240.17Z"/><path class="cls-11" d="M474.42,241.7a1.53,1.53,0,0,1-1.54-1.53V109.06H603.21a1.54,1.54,0,1,1,0,3.07H476v128A1.53,1.53,0,0,1,474.42,241.7Z"/><path class="cls-11" d="M348.53,216.17c0,3.68-6,6.67-13.33,6.67s-13.33-3-13.33-6.67,6-6.67,13.33-6.67S348.53,212.49,348.53,216.17Z"/><path class="cls-11" d="M335.2,217.7a1.52,1.52,0,0,1-1.53-1.53V115.59H210.94a1.54,1.54,0,0,1,0-3.07H336.73V216.17A1.52,1.52,0,0,1,335.2,217.7Z"/><path class="cls-11" d="M235.59,249.84c0,3.68-6,6.67-13.33,6.67s-13.34-3-13.34-6.67,6-6.67,13.34-6.67S235.59,246.16,235.59,249.84Z"/><path class="cls-11" d="M222.26,251.37a1.53,1.53,0,0,1-1.54-1.53V179.51H75.28a1.53,1.53,0,0,1,0-3.06H223.79v73.39A1.53,1.53,0,0,1,222.26,251.37Z"/><path class="cls-11" d="M250.12,317.78c0,3.68-6,6.67-13.33,6.67s-13.34-3-13.34-6.67,6-6.67,13.34-6.67S250.12,314.1,250.12,317.78Z"/><path class="cls-11" d="M236.79,319.31a1.53,1.53,0,0,1-1.54-1.53V294.21H37.4a1.54,1.54,0,1,1,0-3.07H238.32v26.64A1.53,1.53,0,0,1,236.79,319.31Z"/><path class="cls-2" d="M268.21,73.71v31.44h-6v-24l-6,2.31V78.38l11.38-4.67Z"/><path class="cls-2" d="M155.54,160.09v5H137.05v-4.29L145.54,150a24,24,0,0,0,1.92-2.95,12.26,12.26,0,0,0,1-2.32,6.91,6.91,0,0,0,.3-1.95,7.66,7.66,0,0,0-.32-2.38,3.18,3.18,0,0,0-1-1.54,2.31,2.31,0,0,0-1.56-.54,2.61,2.61,0,0,0-1.85.68,4,4,0,0,0-1.09,1.88,9.34,9.34,0,0,0-.36,2.7h-6.05a11.55,11.55,0,0,1,1.15-5.16,9.34,9.34,0,0,1,3.25-3.75,8.94,8.94,0,0,1,5.06-1.39,9.91,9.91,0,0,1,4.83,1.08,7.08,7.08,0,0,1,3,3.07,10.49,10.49,0,0,1,1,4.77,11.36,11.36,0,0,1-.41,3,15.25,15.25,0,0,1-1.16,2.93,22.91,22.91,0,0,1-1.87,3c-.74,1-1.56,2-2.46,3.13l-4.1,5.84Z"/><path class="cls-2" d="M91,268v-3.29h3.92a11.76,11.76,0,0,1,3.86.57,7.07,7.07,0,0,1,2.72,1.65,6.84,6.84,0,0,1,1.63,2.55,9.54,9.54,0,0,1,.54,3.29,9.93,9.93,0,0,1-.73,3.92,8.12,8.12,0,0,1-2,2.91,9,9,0,0,1-3.06,1.8,11.33,11.33,0,0,1-3.79.61,10.74,10.74,0,0,1-3.33-.53,8.55,8.55,0,0,1-2.92-1.66,7.8,7.8,0,0,1-2-2.83,9.92,9.92,0,0,1-.76-4h6a4.92,4.92,0,0,0,.42,2.08,3.66,3.66,0,0,0,1.13,1.44,2.69,2.69,0,0,0,1.62.51,3.13,3.13,0,0,0,1.83-.54A3.33,3.33,0,0,0,97.22,275a5.56,5.56,0,0,0,.41-2.24,7,7,0,0,0-.43-2.7A3,3,0,0,0,96,268.53a3.82,3.82,0,0,0-2-.49Zm0-4.89h3a2.88,2.88,0,0,0,2.93-2,7,7,0,0,0,.35-2.3,6,6,0,0,0-.33-2.05,3,3,0,0,0-1-1.42,2.85,2.85,0,0,0-3.13-.1,2.87,2.87,0,0,0-1.07,1.21,4.19,4.19,0,0,0-.39,1.89H85.28a8.49,8.49,0,0,1,1.18-4.51,8.07,8.07,0,0,1,3.18-3,9.17,9.17,0,0,1,4.44-1.07,10.84,10.84,0,0,1,4.8,1,7.54,7.54,0,0,1,3.24,3,9.68,9.68,0,0,1,1.16,4.92,7.72,7.72,0,0,1-.56,2.9,7.77,7.77,0,0,1-4.27,4.28,9,9,0,0,1-3.51.65H91Z"/><path class="cls-2" d="M618,335.41v5H598.85l-.28-3.95,10.67-20.65H614l-4.87,9.21-4.68,10.34Zm-2.67-19.55v31.39h-6.06V315.86Z"/><path class="cls-2" d="M537.48,90.93l-4.83-1.21,1.58-16h15.15V79h-10.2l-.58,6.72a8,8,0,0,1,1.48-.75,5.48,5.48,0,0,1,2.19-.41,7.92,7.92,0,0,1,3.46.71,6.81,6.81,0,0,1,2.53,2.07,9.56,9.56,0,0,1,1.57,3.32,16.67,16.67,0,0,1,.54,4.44,14,14,0,0,1-.56,4,9.91,9.91,0,0,1-1.72,3.36,8.38,8.38,0,0,1-2.88,2.33,8.94,8.94,0,0,1-4,.85,9.61,9.61,0,0,1-3.37-.6,8.56,8.56,0,0,1-2.89-1.8,9,9,0,0,1-2.86-6.76h6a6.91,6.91,0,0,0,.51,2.2,3.48,3.48,0,0,0,1.06,1.44,2.57,2.57,0,0,0,1.56.5,2.5,2.5,0,0,0,1.49-.44,3,3,0,0,0,1-1.24,6.79,6.79,0,0,0,.53-1.86,15.1,15.1,0,0,0,.16-2.3,11,11,0,0,0-.21-2.25,5.85,5.85,0,0,0-.67-1.75,3.09,3.09,0,0,0-1.17-1.13,3.49,3.49,0,0,0-1.67-.39,3.1,3.1,0,0,0-2,.55A6.44,6.44,0,0,0,537.48,90.93Z"/><path class="cls-2" d="M215.1,120.3v9.06H214V120.3Zm3.67,0v1H214.9v-1Zm-.47,3.9v1h-3.4v-1Zm.53,4.19v1H214.9v-1Z"/><path class="cls-2" d="M221.25,124v5.39h-1.1v-6.73h1Zm-.23,1.77-.51,0a5.18,5.18,0,0,1,.14-1.28,3.14,3.14,0,0,1,.43-1,2,2,0,0,1,1.75-.92,1.89,1.89,0,0,1,.72.14,1.49,1.49,0,0,1,.58.42,1.88,1.88,0,0,1,.39.73,3.45,3.45,0,0,1,.14,1.08v4.49h-1.1v-4.43a2.25,2.25,0,0,0-.14-.85.94.94,0,0,0-.39-.46,1.2,1.2,0,0,0-.61-.14,1.21,1.21,0,0,0-.68.18,1.29,1.29,0,0,0-.43.49,2.6,2.6,0,0,0-.22.73A4.76,4.76,0,0,0,221,125.74Zm3.63-.63-.73.23a3.71,3.71,0,0,1,.13-1.06,2.94,2.94,0,0,1,.43-.91,2,2,0,0,1,1.69-.87,2,2,0,0,1,.81.15,1.38,1.38,0,0,1,.6.44,1.82,1.82,0,0,1,.37.75,4,4,0,0,1,.13,1.1v4.42H227v-4.44a2.31,2.31,0,0,0-.14-.88.91.91,0,0,0-.4-.44,1.41,1.41,0,0,0-.61-.12.91.91,0,0,0-.5.13,1.06,1.06,0,0,0-.38.35,2.2,2.2,0,0,0-.22.52A2.59,2.59,0,0,0,224.65,125.11Z"/><path class="cls-2" d="M229.77,120.84a.75.75,0,0,1,.15-.47.68.68,0,0,1,.94,0,.76.76,0,0,1,.16.47.73.73,0,0,1-.16.46.68.68,0,0,1-.94,0A.73.73,0,0,1,229.77,120.84Zm1.15,1.79v6.73h-1.09v-6.73Z"/><path class="cls-2" d="M235.93,127.64a.84.84,0,0,0-.12-.45,1.26,1.26,0,0,0-.41-.37,5.79,5.79,0,0,0-.76-.39c-.31-.13-.59-.26-.84-.38a3,3,0,0,1-.62-.42,1.43,1.43,0,0,1-.39-.52,1.65,1.65,0,0,1-.14-.7,1.84,1.84,0,0,1,.59-1.35,1.89,1.89,0,0,1,.67-.41,2.42,2.42,0,0,1,.88-.15,2.35,2.35,0,0,1,1.17.27,1.82,1.82,0,0,1,.75.73,2.15,2.15,0,0,1,.26,1h-1.1a1.18,1.18,0,0,0-.12-.53,1,1,0,0,0-.37-.41,1,1,0,0,0-.59-.16,1.16,1.16,0,0,0-.6.13.83.83,0,0,0-.33.34,1,1,0,0,0-.1.46.8.8,0,0,0,.05.32.59.59,0,0,0,.18.25,2.53,2.53,0,0,0,.36.23c.15.08.34.18.58.28a8.4,8.4,0,0,1,1.15.54,2.12,2.12,0,0,1,.71.64,1.65,1.65,0,0,1,.24.91,2,2,0,0,1-.15.8,1.73,1.73,0,0,1-.46.61,1.9,1.9,0,0,1-.7.39,2.85,2.85,0,0,1-.91.14,2.45,2.45,0,0,1-1.28-.31,2,2,0,0,1-.8-.79,2.1,2.1,0,0,1-.27-1h1.1a1.27,1.27,0,0,0,.22.73,1.08,1.08,0,0,0,.47.36,1.62,1.62,0,0,0,.56.1,1.6,1.6,0,0,0,.62-.11.9.9,0,0,0,.38-.31A1,1,0,0,0,235.93,127.64Z"/><path class="cls-2" d="M238.5,120.84a.71.71,0,0,1,.16-.47.56.56,0,0,1,.47-.19.58.58,0,0,1,.47.19.75.75,0,0,1,.15.47.73.73,0,0,1-.15.46.58.58,0,0,1-.47.19.56.56,0,0,1-.47-.19A.68.68,0,0,1,238.5,120.84Zm1.16,1.79v6.73h-1.09v-6.73Z"/><path class="cls-2" d="M241.17,126.32v-.64a4.46,4.46,0,0,1,.2-1.38,2.79,2.79,0,0,1,.56-1,2.18,2.18,0,0,1,.82-.6,2.61,2.61,0,0,1,2.05,0,2.29,2.29,0,0,1,.83.6,2.77,2.77,0,0,1,.55,1,4.18,4.18,0,0,1,.2,1.38v.64a4.18,4.18,0,0,1-.2,1.38,2.79,2.79,0,0,1-.55,1,2.33,2.33,0,0,1-.83.6,2.61,2.61,0,0,1-1,.2,2.69,2.69,0,0,1-1-.2,2.33,2.33,0,0,1-.83-.6,3,3,0,0,1-.56-1A4.46,4.46,0,0,1,241.17,126.32Zm1.11-.64v.64a3.55,3.55,0,0,0,.11,1,2.15,2.15,0,0,0,.31.7,1.58,1.58,0,0,0,.48.42,1.39,1.39,0,0,0,.6.14,1.53,1.53,0,0,0,.66-.14,1.35,1.35,0,0,0,.47-.42,2.13,2.13,0,0,0,.28-.7,4.64,4.64,0,0,0,.09-1v-.64a4,4,0,0,0-.11-1,2.16,2.16,0,0,0-.32-.7,1.35,1.35,0,0,0-.48-.42,1.39,1.39,0,0,0-.6-.14,1.31,1.31,0,0,0-.59.14,1.27,1.27,0,0,0-.48.42,2.15,2.15,0,0,0-.31.7A3.55,3.55,0,0,0,242.28,125.68Z"/><path class="cls-2" d="M248.9,124.07v5.29h-1.1v-6.73h1Zm-.27,1.67-.44,0a4.36,4.36,0,0,1,.16-1.28,3.19,3.19,0,0,1,.47-1,2.18,2.18,0,0,1,.74-.68,1.89,1.89,0,0,1,.95-.24,2,2,0,0,1,.75.14,1.46,1.46,0,0,1,.57.42,2,2,0,0,1,.36.76,4.13,4.13,0,0,1,.13,1.13v4.41h-1.1v-4.42a2.44,2.44,0,0,0-.12-.85.82.82,0,0,0-.35-.47,1,1,0,0,0-.58-.14,1.11,1.11,0,0,0-.61.18,1.76,1.76,0,0,0-.49.49,2.69,2.69,0,0,0-.32.73A3,3,0,0,0,248.63,125.74Z"/><path class="cls-2" d="M256.38,129.49a3.16,3.16,0,0,1-1.09-.18,2.12,2.12,0,0,1-.82-.55,2.46,2.46,0,0,1-.53-.94,4.43,4.43,0,0,1-.18-1.34v-.76a4.68,4.68,0,0,1,.21-1.5,2.73,2.73,0,0,1,.56-1,2.14,2.14,0,0,1,.81-.54,2.43,2.43,0,0,1,.92-.18,2.54,2.54,0,0,1,1.08.21,1.8,1.8,0,0,1,.73.61,2.79,2.79,0,0,1,.41,1,6.21,6.21,0,0,1,.14,1.37v.64h-4.21v-.94h3.11v-.16a4.69,4.69,0,0,0-.14-.92,1.34,1.34,0,0,0-.38-.62,1.09,1.09,0,0,0-.74-.23,1.47,1.47,0,0,0-.56.1,1,1,0,0,0-.45.36,2,2,0,0,0-.28.69,5,5,0,0,0-.11,1.12v.76a3.59,3.59,0,0,0,.11.93,1.81,1.81,0,0,0,.3.64,1.33,1.33,0,0,0,.5.38,1.79,1.79,0,0,0,.68.12,1.7,1.7,0,0,0,.91-.22,2.19,2.19,0,0,0,.63-.55l.58.69a2.37,2.37,0,0,1-1.18.87A3,3,0,0,1,256.38,129.49Z"/><path class="cls-2" d="M263.22,127.64a.85.85,0,0,0-.13-.45,1.26,1.26,0,0,0-.41-.37,5.21,5.21,0,0,0-.76-.39c-.31-.13-.59-.26-.84-.38a3.35,3.35,0,0,1-.62-.42,1.43,1.43,0,0,1-.39-.52,1.65,1.65,0,0,1-.13-.7,1.86,1.86,0,0,1,.15-.75,1.7,1.7,0,0,1,.43-.6,2,2,0,0,1,.67-.41,2.5,2.5,0,0,1,.88-.15,2.42,2.42,0,0,1,1.18.27,1.86,1.86,0,0,1,.74.73,2.15,2.15,0,0,1,.26,1h-1.1A1.18,1.18,0,0,0,263,124a1,1,0,0,0-.37-.41,1,1,0,0,0-.59-.16,1.21,1.21,0,0,0-.6.13.83.83,0,0,0-.33.34,1,1,0,0,0-.1.46,1,1,0,0,0,0,.32.83.83,0,0,0,.18.25,2.53,2.53,0,0,0,.36.23c.15.08.35.18.58.28a9.2,9.2,0,0,1,1.16.54,2.08,2.08,0,0,1,.7.64,1.57,1.57,0,0,1,.25.91,2,2,0,0,1-.16.8,1.83,1.83,0,0,1-.45.61,2.08,2.08,0,0,1-.7.39,2.9,2.9,0,0,1-.91.14,2.47,2.47,0,0,1-1.29-.31,2,2,0,0,1-.8-.79,2.1,2.1,0,0,1-.27-1h1.11a1.27,1.27,0,0,0,.21.73,1.06,1.06,0,0,0,.48.36,1.68,1.68,0,0,0,1.17,0,.84.84,0,0,0,.38-.31A1,1,0,0,0,263.22,127.64Z"/><path class="cls-2" d="M268.45,126.32v-.63a5.42,5.42,0,0,1,.16-1.43,2.84,2.84,0,0,1,.46-1,1.91,1.91,0,0,1,.72-.58,2.29,2.29,0,0,1,.92-.19,1.72,1.72,0,0,1,.9.22,1.75,1.75,0,0,1,.63.61,3.45,3.45,0,0,1,.4,1,7.64,7.64,0,0,1,.2,1.28v.84a8.62,8.62,0,0,1-.2,1.28,3.27,3.27,0,0,1-.41,1,1.86,1.86,0,0,1-.63.62,1.81,1.81,0,0,1-.9.21,2.06,2.06,0,0,1-.91-.2,1.91,1.91,0,0,1-.71-.59,2.68,2.68,0,0,1-.47-1A5.26,5.26,0,0,1,268.45,126.32Zm1.1-.63v.63a5.42,5.42,0,0,0,.08,1,2,2,0,0,0,.26.69,1.06,1.06,0,0,0,.44.4,1.45,1.45,0,0,0,.65.13,1.29,1.29,0,0,0,.76-.22,1.68,1.68,0,0,0,.47-.6,4.71,4.71,0,0,0,.28-.8v-1.77a3.28,3.28,0,0,0-.18-.61,2.28,2.28,0,0,0-.3-.53,1.39,1.39,0,0,0-.43-.37,1.18,1.18,0,0,0-.58-.13,1.47,1.47,0,0,0-.66.13,1.11,1.11,0,0,0-.45.41,2.15,2.15,0,0,0-.25.69A4.74,4.74,0,0,0,269.55,125.69Zm2.67,2.37V119.8h1.09v9.56h-1Z"/><path class="cls-2" d="M277.42,129.49a3.12,3.12,0,0,1-1.09-.18,2.23,2.23,0,0,1-.83-.55,2.44,2.44,0,0,1-.52-.94,4.43,4.43,0,0,1-.18-1.34v-.76a4.68,4.68,0,0,1,.21-1.5,2.59,2.59,0,0,1,.56-1,2.1,2.1,0,0,1,.8-.54,2.47,2.47,0,0,1,.92-.18,2.55,2.55,0,0,1,1.09.21,1.77,1.77,0,0,1,.72.61,2.79,2.79,0,0,1,.42,1,6.25,6.25,0,0,1,.13,1.37v.64h-4.21v-.94h3.11v-.16a4,4,0,0,0-.14-.92,1.26,1.26,0,0,0-.38-.62,1.09,1.09,0,0,0-.74-.23,1.47,1.47,0,0,0-.56.1,1,1,0,0,0-.44.36,2,2,0,0,0-.29.69,5,5,0,0,0-.1,1.12v.76a3.63,3.63,0,0,0,.1.93,1.66,1.66,0,0,0,.31.64,1.3,1.3,0,0,0,.49.38,1.83,1.83,0,0,0,.68.12,1.74,1.74,0,0,0,.92-.22,2,2,0,0,0,.62-.55l.58.69a2.16,2.16,0,0,1-.47.49,2.28,2.28,0,0,1-.71.38A3,3,0,0,1,277.42,129.49Z"/><path class="cls-2" d="M288.6,126.48h1.14a3.94,3.94,0,0,1-.38,1.61,2.36,2.36,0,0,1-1,1,3.16,3.16,0,0,1-1.58.36,2.65,2.65,0,0,1-2.16-1,3.37,3.37,0,0,1-.59-1.2,5.54,5.54,0,0,1-.21-1.58V124a5.47,5.47,0,0,1,.21-1.57,3.71,3.71,0,0,1,.6-1.21,2.79,2.79,0,0,1,1-.77,3.13,3.13,0,0,1,1.29-.26,2.86,2.86,0,0,1,1.49.35,2.27,2.27,0,0,1,.95,1,4,4,0,0,1,.37,1.65H288.6a3.84,3.84,0,0,0-.23-1.17,1.39,1.39,0,0,0-.53-.67,1.75,1.75,0,0,0-.91-.21,1.79,1.79,0,0,0-.86.2,1.49,1.49,0,0,0-.6.57,2.76,2.76,0,0,0-.35.89A5.11,5.11,0,0,0,285,124v1.69a6.54,6.54,0,0,0,.1,1.11,3.17,3.17,0,0,0,.31.9,1.6,1.6,0,0,0,.57.61,1.5,1.5,0,0,0,.84.22,2,2,0,0,0,1-.21,1.22,1.22,0,0,0,.54-.65A4.13,4.13,0,0,0,288.6,126.48Z"/><path class="cls-2" d="M294.61,125.28v.81h-.77a2.65,2.65,0,0,0-.71.09,1.54,1.54,0,0,0-.55.25,1.07,1.07,0,0,0-.35.41,1.2,1.2,0,0,0-.12.55,1.44,1.44,0,0,0,.11.64.68.68,0,0,0,.34.35,1.31,1.31,0,0,0,.56.1,1.41,1.41,0,0,0,.74-.19,1.55,1.55,0,0,0,.49-.46,1,1,0,0,0,.17-.52l.24.52a1.75,1.75,0,0,1-.16.53,2.08,2.08,0,0,1-.37.54,2,2,0,0,1-.56.42,1.53,1.53,0,0,1-.72.17,2.19,2.19,0,0,1-1-.23,1.6,1.6,0,0,1-.68-.66,2.2,2.2,0,0,1-.24-1.07,2.36,2.36,0,0,1,.16-.9,2.08,2.08,0,0,1,.5-.71,2.31,2.31,0,0,1,.83-.47,3.73,3.73,0,0,1,1.16-.17Zm-.18,2.93v-3.65a1.43,1.43,0,0,0-.12-.64.74.74,0,0,0-.36-.36,1.5,1.5,0,0,0-.6-.11,1.27,1.27,0,0,0-.6.14,1.09,1.09,0,0,0-.39.38,1,1,0,0,0-.13.53h-1.1a1.68,1.68,0,0,1,.16-.72,2,2,0,0,1,.45-.64,2.07,2.07,0,0,1,.72-.46,2.4,2.4,0,0,1,1-.18,2.73,2.73,0,0,1,1.1.21,1.53,1.53,0,0,1,.75.65,2.38,2.38,0,0,1,.27,1.21v3.32a4.56,4.56,0,0,0,.06.72,2.71,2.71,0,0,0,.15.65v.1H294.6a2.47,2.47,0,0,1-.12-.53A4.69,4.69,0,0,1,294.43,128.21Z"/><path class="cls-2" d="M298.34,123.69v5.67h-1.1v-6.73h1.06Zm1.68-1.1v1.07l-.24,0h-.26a1.05,1.05,0,0,0-.54.13,1.19,1.19,0,0,0-.4.34,2,2,0,0,0-.27.54,3.3,3.3,0,0,0-.14.67l-.28.19a7,7,0,0,1,.09-1.15,4.23,4.23,0,0,1,.3-1,1.79,1.79,0,0,1,.53-.64,1.24,1.24,0,0,1,.77-.24l.25,0A.7.7,0,0,1,300,122.59Z"/><path class="cls-2" d="M301.12,119.8h1.1v8.26l-.09,1.3h-1Zm4.88,5.89v.63a6.34,6.34,0,0,1-.14,1.39,2.83,2.83,0,0,1-.44,1,1.85,1.85,0,0,1-.69.59,2.2,2.2,0,0,1-.94.2,1.67,1.67,0,0,1-1.54-.83,3.26,3.26,0,0,1-.4-1,6.61,6.61,0,0,1-.2-1.28v-.84a6.74,6.74,0,0,1,.2-1.28,3.17,3.17,0,0,1,.39-1,1.77,1.77,0,0,1,.64-.61,1.72,1.72,0,0,1,.9-.22,2.37,2.37,0,0,1,1,.19,1.78,1.78,0,0,1,.7.58,2.82,2.82,0,0,1,.43,1A6.52,6.52,0,0,1,306,125.69Zm-1.1.63v-.63a5.7,5.7,0,0,0-.07-1,2.43,2.43,0,0,0-.23-.69,1.08,1.08,0,0,0-.44-.41,1.48,1.48,0,0,0-.67-.13,1.18,1.18,0,0,0-.58.13,1.43,1.43,0,0,0-.44.37,2.28,2.28,0,0,0-.3.53,4.24,4.24,0,0,0-.17.61v1.77a3.11,3.11,0,0,0,.26.78,1.68,1.68,0,0,0,.48.6,1.19,1.19,0,0,0,.76.24,1.38,1.38,0,0,0,.64-.13,1.06,1.06,0,0,0,.44-.4,2,2,0,0,0,.24-.69A4.63,4.63,0,0,0,304.9,126.32Z"/><path class="cls-2" d="M307.18,126.32v-.64a4.18,4.18,0,0,1,.2-1.38,2.63,2.63,0,0,1,.55-1,2.21,2.21,0,0,1,.83-.6,2.44,2.44,0,0,1,1-.21,2.5,2.5,0,0,1,1,.21,2.21,2.21,0,0,1,.83.6,2.64,2.64,0,0,1,.56,1,4.46,4.46,0,0,1,.2,1.38v.64a4.46,4.46,0,0,1-.2,1.38,2.81,2.81,0,0,1-.56,1,2.29,2.29,0,0,1-.82.6,2.69,2.69,0,0,1-1,.2,2.61,2.61,0,0,1-1-.2,2.36,2.36,0,0,1-.84-.6,3,3,0,0,1-.55-1A4.18,4.18,0,0,1,307.18,126.32Zm1.1-.64v.64a4,4,0,0,0,.11,1,2.16,2.16,0,0,0,.32.7,1.58,1.58,0,0,0,.48.42,1.33,1.33,0,0,0,.6.14,1.48,1.48,0,0,0,.65-.14,1.27,1.27,0,0,0,.47-.42,1.94,1.94,0,0,0,.28-.7,4,4,0,0,0,.1-1v-.64a3.52,3.52,0,0,0-.12-1,2.15,2.15,0,0,0-.31-.7,1.3,1.3,0,0,0-.49-.42,1.33,1.33,0,0,0-1.19,0,1.25,1.25,0,0,0-.47.42,2.16,2.16,0,0,0-.32.7A4,4,0,0,0,308.28,125.68Z"/><path class="cls-2" d="M314.91,124.07v5.29h-1.1v-6.73h1Zm-.27,1.67-.45,0a4.72,4.72,0,0,1,.16-1.28,3.42,3.42,0,0,1,.47-1,2.38,2.38,0,0,1,.74-.68,1.94,1.94,0,0,1,.95-.24,2,2,0,0,1,.75.14,1.39,1.39,0,0,1,.57.42,2.16,2.16,0,0,1,.37.76,4.6,4.6,0,0,1,.12,1.13v4.41h-1.1v-4.42a2.74,2.74,0,0,0-.11-.85.87.87,0,0,0-.35-.47,1.19,1.19,0,0,0-1.19,0,1.63,1.63,0,0,0-.49.49,2.42,2.42,0,0,0-.32.73A3,3,0,0,0,314.64,125.74Z"/><path class="cls-2" d="M319.75,126.32v-.64a4.46,4.46,0,0,1,.2-1.38,2.77,2.77,0,0,1,.55-1,2.29,2.29,0,0,1,.83-.6,2.47,2.47,0,0,1,1-.21,2.5,2.5,0,0,1,1,.21,2.21,2.21,0,0,1,.83.6,2.64,2.64,0,0,1,.56,1,4.46,4.46,0,0,1,.2,1.38v.64a4.46,4.46,0,0,1-.2,1.38,3,3,0,0,1-.55,1,2.42,2.42,0,0,1-.83.6,2.69,2.69,0,0,1-1,.2,2.61,2.61,0,0,1-1-.2,2.24,2.24,0,0,1-.83-.6,2.81,2.81,0,0,1-.56-1A4.46,4.46,0,0,1,319.75,126.32Zm1.1-.64v.64a4,4,0,0,0,.11,1,2.16,2.16,0,0,0,.32.7,1.58,1.58,0,0,0,.48.42,1.33,1.33,0,0,0,.6.14,1.45,1.45,0,0,0,.65-.14,1.27,1.27,0,0,0,.47-.42,1.94,1.94,0,0,0,.28-.7,4,4,0,0,0,.1-1v-.64a4,4,0,0,0-.11-1,2.16,2.16,0,0,0-.32-.7,1.35,1.35,0,0,0-.48-.42,1.4,1.4,0,0,0-.61-.14,1.35,1.35,0,0,0-.59.14,1.25,1.25,0,0,0-.47.42,2.16,2.16,0,0,0-.32.7A4,4,0,0,0,320.85,125.68Z"/><path class="cls-2" d="M86.1,190.33h1.14a3.94,3.94,0,0,1-.38,1.61,2.42,2.42,0,0,1-1,1,3.16,3.16,0,0,1-1.58.36,2.65,2.65,0,0,1-2.16-1,3.45,3.45,0,0,1-.59-1.2,5.57,5.57,0,0,1-.21-1.59v-1.67a5.42,5.42,0,0,1,.21-1.57,3.71,3.71,0,0,1,.6-1.21,2.79,2.79,0,0,1,1-.77,3,3,0,0,1,1.29-.26,2.86,2.86,0,0,1,1.49.35,2.29,2.29,0,0,1,1,1,4.07,4.07,0,0,1,.37,1.66H86.1a3.84,3.84,0,0,0-.23-1.17,1.39,1.39,0,0,0-.53-.67,1.75,1.75,0,0,0-.91-.21,1.79,1.79,0,0,0-.86.2,1.49,1.49,0,0,0-.6.57,2.67,2.67,0,0,0-.35.89,5.14,5.14,0,0,0-.11,1.16v1.68a6.6,6.6,0,0,0,.09,1.12,3.29,3.29,0,0,0,.31.9,1.6,1.6,0,0,0,.57.61,1.5,1.5,0,0,0,.84.22,2,2,0,0,0,1-.21,1.22,1.22,0,0,0,.54-.65A4.13,4.13,0,0,0,86.1,190.33Z"/><path class="cls-2" d="M88.41,190.17v-.64a4.38,4.38,0,0,1,.19-1.38,2.79,2.79,0,0,1,.56-1,2.13,2.13,0,0,1,.83-.6,2.44,2.44,0,0,1,1-.21,2.53,2.53,0,0,1,1,.21,2.29,2.29,0,0,1,.83.6,2.79,2.79,0,0,1,.56,1,4.38,4.38,0,0,1,.19,1.38v.64a4.47,4.47,0,0,1-.19,1.38,3,3,0,0,1-.56,1,2.45,2.45,0,0,1-.83.6,2.61,2.61,0,0,1-1,.2,2.69,2.69,0,0,1-1-.2,2.55,2.55,0,0,1-.83-.6,3,3,0,0,1-.56-1A4.47,4.47,0,0,1,88.41,190.17Zm1.1-.64v.64a3.55,3.55,0,0,0,.11,1,2,2,0,0,0,.32.7,1.38,1.38,0,0,0,.48.42,1.31,1.31,0,0,0,.59.14,1.53,1.53,0,0,0,.66-.14,1.35,1.35,0,0,0,.47-.42,2.13,2.13,0,0,0,.28-.7,4.64,4.64,0,0,0,.09-1v-.64a3.55,3.55,0,0,0-.11-1,2,2,0,0,0-.32-.7,1.2,1.2,0,0,0-.48-.42,1.33,1.33,0,0,0-1.19,0,1.35,1.35,0,0,0-.48.42,2.15,2.15,0,0,0-.31.7A3.55,3.55,0,0,0,89.51,189.53Z"/><path class="cls-2" d="M96.13,187.82v5.39H95v-6.73h1Zm-.22,1.77-.51,0a5.18,5.18,0,0,1,.14-1.28,3.14,3.14,0,0,1,.43-1,2,2,0,0,1,1.75-.92,1.89,1.89,0,0,1,.72.14,1.49,1.49,0,0,1,.58.42,1.88,1.88,0,0,1,.39.73,3.78,3.78,0,0,1,.14,1.08v4.49h-1.1v-4.43a2.25,2.25,0,0,0-.14-.85,1,1,0,0,0-.4-.46,1.33,1.33,0,0,0-1.28,0,1.32,1.32,0,0,0-.43.5,2.31,2.31,0,0,0-.22.73A4.76,4.76,0,0,0,95.91,189.59Zm3.63-.64-.74.24a4.11,4.11,0,0,1,.14-1.06,2.94,2.94,0,0,1,.43-.91,2,2,0,0,1,1.69-.87,2.05,2.05,0,0,1,.81.15,1.44,1.44,0,0,1,.6.43,1.86,1.86,0,0,1,.37.76,4,4,0,0,1,.13,1.1v4.42h-1.1v-4.44a2.31,2.31,0,0,0-.14-.88.91.91,0,0,0-.4-.44,1.41,1.41,0,0,0-.61-.13,1.07,1.07,0,0,0-.51.13,1.27,1.27,0,0,0-.37.36,1.73,1.73,0,0,0-.22.52A2.11,2.11,0,0,0,99.54,189Z"/><path class="cls-2" d="M104.63,183.65h1.1v8.25l-.09,1.31h-1Zm4.88,5.89v.63a5.75,5.75,0,0,1-.15,1.39,2.82,2.82,0,0,1-.43,1,1.8,1.8,0,0,1-.7.59,2.13,2.13,0,0,1-.94.2,1.72,1.72,0,0,1-.9-.22,1.75,1.75,0,0,1-.63-.61,3.27,3.27,0,0,1-.41-1,8.62,8.62,0,0,1-.2-1.28v-.84a8.83,8.83,0,0,1,.2-1.28,3.45,3.45,0,0,1,.4-1,1.67,1.67,0,0,1,1.54-.83,2.4,2.4,0,0,1,.95.19,1.74,1.74,0,0,1,.69.58,2.69,2.69,0,0,1,.43,1A6.07,6.07,0,0,1,109.51,189.54Zm-1.1.63v-.63a6.93,6.93,0,0,0-.07-1,2,2,0,0,0-.24-.69,1.06,1.06,0,0,0-.43-.41,1.48,1.48,0,0,0-.67-.14,1.25,1.25,0,0,0-.59.14,1.39,1.39,0,0,0-.43.37,2.28,2.28,0,0,0-.3.53,2.64,2.64,0,0,0-.17.61v1.77a3.11,3.11,0,0,0,.26.78,1.56,1.56,0,0,0,.48.6,1.17,1.17,0,0,0,.76.24,1.41,1.41,0,0,0,.64-.13,1,1,0,0,0,.43-.4,1.81,1.81,0,0,0,.25-.69A5.42,5.42,0,0,0,108.41,190.17Z"/><path class="cls-2" d="M114.53,190.24l.43,0a6.92,6.92,0,0,1-.11,1.25,3.08,3.08,0,0,1-.38,1,1.77,1.77,0,0,1-.68.65,2.08,2.08,0,0,1-1,.24,1.79,1.79,0,0,1-.75-.15,1.41,1.41,0,0,1-.59-.44A2.19,2.19,0,0,1,111,192a4.29,4.29,0,0,1-.13-1.15v-4.34H112v4.35a3,3,0,0,0,.08.75,1.37,1.37,0,0,0,.22.47.82.82,0,0,0,.65.31,1.47,1.47,0,0,0,.93-.28,1.59,1.59,0,0,0,.5-.77A3.59,3.59,0,0,0,114.53,190.24Zm-.21,1.42v-5.18h1.1v6.73h-1Z"/><path class="cls-2" d="M120.34,191.49a.84.84,0,0,0-.12-.45,1.26,1.26,0,0,0-.41-.37,5.79,5.79,0,0,0-.76-.39c-.31-.13-.59-.26-.84-.38a3.35,3.35,0,0,1-.62-.42,1.52,1.52,0,0,1-.39-.52,1.65,1.65,0,0,1-.14-.7,1.84,1.84,0,0,1,.59-1.35,2,2,0,0,1,.67-.41,2.46,2.46,0,0,1,.88-.15,2.35,2.35,0,0,1,1.17.27,1.82,1.82,0,0,1,.75.73,2.14,2.14,0,0,1,.26,1h-1.1a1.17,1.17,0,0,0-.12-.52,1,1,0,0,0-.37-.41,1,1,0,0,0-.59-.16,1.16,1.16,0,0,0-.6.13.83.83,0,0,0-.33.34,1,1,0,0,0-.1.46.8.8,0,0,0,0,.32.69.69,0,0,0,.18.25,2.53,2.53,0,0,0,.36.23c.15.08.35.18.58.28a8.4,8.4,0,0,1,1.15.54,2.12,2.12,0,0,1,.71.64,1.65,1.65,0,0,1,.25.91,2.08,2.08,0,0,1-.16.8,1.83,1.83,0,0,1-.45.61,2.08,2.08,0,0,1-.7.39,3,3,0,0,1-.92.14,2.45,2.45,0,0,1-1.28-.31,2,2,0,0,1-.8-.79,2.11,2.11,0,0,1-.27-1.05H118a1.35,1.35,0,0,0,.22.74,1.08,1.08,0,0,0,.47.36,1.62,1.62,0,0,0,.56.1,1.6,1.6,0,0,0,.62-.11.84.84,0,0,0,.38-.31A1,1,0,0,0,120.34,191.49Z"/><path class="cls-2" d="M125.35,186.48v.88H122.2v-.88Zm-2.12-1.64h1.1v6.7a1.18,1.18,0,0,0,.09.52.4.4,0,0,0,.21.23.67.67,0,0,0,.28.06l.25,0,.19,0v.94l-.3.09a2.84,2.84,0,0,1-.47,0,1.35,1.35,0,0,1-.66-.17,1.17,1.17,0,0,1-.49-.57,2.39,2.39,0,0,1-.19-1.06Z"/><path class="cls-2" d="M126.69,184.69a.73.73,0,0,1,.15-.47.56.56,0,0,1,.47-.19.58.58,0,0,1,.47.19.74.74,0,0,1,.16.47.73.73,0,0,1-.16.46.58.58,0,0,1-.47.19.56.56,0,0,1-.47-.19A.73.73,0,0,1,126.69,184.69Zm1.15,1.79v6.73h-1.09v-6.73Z"/><path class="cls-2" d="M129.59,183.65h1.1v8.25l-.1,1.31h-1Zm4.87,5.89v.63a5.78,5.78,0,0,1-.14,1.39,2.82,2.82,0,0,1-.43,1,2,2,0,0,1-.7.59,2.2,2.2,0,0,1-.94.2,1.72,1.72,0,0,1-.9-.22,1.7,1.7,0,0,1-.64-.61,3.26,3.26,0,0,1-.4-1,7.48,7.48,0,0,1-.2-1.28v-.84a7.64,7.64,0,0,1,.2-1.28,3.18,3.18,0,0,1,.4-1,1.86,1.86,0,0,1,.63-.62,1.81,1.81,0,0,1,.9-.21,2.33,2.33,0,0,1,.95.19,1.7,1.7,0,0,1,.7.58,2.69,2.69,0,0,1,.43,1A6.11,6.11,0,0,1,134.46,189.54Zm-1.1.63v-.63a5.7,5.7,0,0,0-.07-1,2,2,0,0,0-.23-.69,1.06,1.06,0,0,0-.43-.41,1.54,1.54,0,0,0-.67-.14,1.22,1.22,0,0,0-.59.14,1.39,1.39,0,0,0-.43.37,2.28,2.28,0,0,0-.3.53,3.28,3.28,0,0,0-.18.61v1.77a3.57,3.57,0,0,0,.26.78,1.77,1.77,0,0,0,.48.6,1.21,1.21,0,0,0,.76.24,1.42,1.42,0,0,0,.65-.13,1.1,1.1,0,0,0,.43-.4,2,2,0,0,0,.24-.69A4.63,4.63,0,0,0,133.36,190.17Z"/><path class="cls-2" d="M137.05,183.65v9.56H136v-9.56Z"/><path class="cls-2" d="M141.2,193.34a3.06,3.06,0,0,1-1.08-.18,2.07,2.07,0,0,1-.83-.56,2.47,2.47,0,0,1-.53-.93,4.48,4.48,0,0,1-.18-1.34v-.76a4.78,4.78,0,0,1,.21-1.51,2.64,2.64,0,0,1,.57-1,2.17,2.17,0,0,1,.8-.55,2.63,2.63,0,0,1,.92-.17,2.54,2.54,0,0,1,1.08.21,1.8,1.8,0,0,1,.73.61,2.62,2.62,0,0,1,.41,1,6.21,6.21,0,0,1,.14,1.37v.64h-4.21v-.94h3.11v-.16a4.69,4.69,0,0,0-.14-.92,1.34,1.34,0,0,0-.38-.62,1,1,0,0,0-.74-.23,1.47,1.47,0,0,0-.56.1,1,1,0,0,0-.45.36,1.94,1.94,0,0,0-.28.69,5,5,0,0,0-.1,1.12v.76a3.63,3.63,0,0,0,.1.93,1.81,1.81,0,0,0,.3.64,1.21,1.21,0,0,0,.5.37,1.62,1.62,0,0,0,.68.13,1.78,1.78,0,0,0,.91-.22,2.36,2.36,0,0,0,.63-.55l.58.69a2.68,2.68,0,0,1-.47.49,2.28,2.28,0,0,1-.71.38A3,3,0,0,1,141.2,193.34Z"/><path class="cls-2" d="M148,191.49a.77.77,0,0,0-.13-.45,1.32,1.32,0,0,0-.4-.37,6,6,0,0,0-.77-.39c-.31-.13-.59-.26-.83-.38a3.13,3.13,0,0,1-.63-.42,1.52,1.52,0,0,1-.39-.52,1.65,1.65,0,0,1-.13-.7,1.86,1.86,0,0,1,.15-.75,1.84,1.84,0,0,1,.43-.6,2,2,0,0,1,.67-.41,2.5,2.5,0,0,1,.88-.15,2.39,2.39,0,0,1,1.18.27,1.86,1.86,0,0,1,.74.73,2.14,2.14,0,0,1,.26,1H148a1.18,1.18,0,0,0-.13-.52.92.92,0,0,0-.37-.41,1,1,0,0,0-.59-.16,1.15,1.15,0,0,0-.59.13.8.8,0,0,0-.34.34,1,1,0,0,0-.1.46,1,1,0,0,0,0,.32.72.72,0,0,0,.19.25,1.92,1.92,0,0,0,.35.23c.16.08.35.18.59.28a9,9,0,0,1,1.15.54,2.22,2.22,0,0,1,.71.64,1.65,1.65,0,0,1,.24.91,1.91,1.91,0,0,1-.16.8,1.83,1.83,0,0,1-.45.61,2.08,2.08,0,0,1-.7.39,2.9,2.9,0,0,1-.91.14,2.47,2.47,0,0,1-1.29-.31,2.09,2.09,0,0,1-1.06-1.84h1.1a1.28,1.28,0,0,0,.21.74,1.06,1.06,0,0,0,.48.36,1.68,1.68,0,0,0,1.17,0,.84.84,0,0,0,.38-.31A1,1,0,0,0,148,191.49Z"/><path class="cls-2" d="M156.59,185l-2.47,8.26H153l2.92-9.06h.73Zm2,4.91v1h-4.37v-1Zm0,3.35L156.12,185v-.8h.74l2.92,9.06Z"/><path class="cls-2" d="M162,183.65v9.56h-1.1v-9.56Z"/><path class="cls-2" d="M166.24,186.48v.88H163.1v-.88Zm-2.11-1.64h1.1v6.7a1.2,1.2,0,0,0,.08.52.45.45,0,0,0,.22.23.64.64,0,0,0,.28.06l.24,0,.19,0v.94l-.3.09a3.08,3.08,0,0,1-.48,0,1.41,1.41,0,0,1-.66-.17,1.22,1.22,0,0,1-.49-.57,2.56,2.56,0,0,1-.18-1.06Z"/><path class="cls-2" d="M170,193.34a3.16,3.16,0,0,1-1.09-.18,2,2,0,0,1-.82-.56,2.34,2.34,0,0,1-.53-.93,4.48,4.48,0,0,1-.18-1.34v-.76a4.78,4.78,0,0,1,.21-1.51,2.76,2.76,0,0,1,.56-1,2.29,2.29,0,0,1,.81-.55,2.63,2.63,0,0,1,.92-.17,2.54,2.54,0,0,1,1.08.21,1.8,1.8,0,0,1,.73.61,2.79,2.79,0,0,1,.41,1,6.21,6.21,0,0,1,.14,1.37v.64H168v-.94h3.11v-.16a4.69,4.69,0,0,0-.14-.92,1.34,1.34,0,0,0-.38-.62,1.06,1.06,0,0,0-.74-.23,1.43,1.43,0,0,0-.56.1,1,1,0,0,0-.45.36,1.94,1.94,0,0,0-.28.69,5,5,0,0,0-.11,1.12v.76a3.59,3.59,0,0,0,.11.93,1.81,1.81,0,0,0,.3.64,1.21,1.21,0,0,0,.5.37,1.62,1.62,0,0,0,.68.13,1.8,1.8,0,0,0,.91-.22,2.36,2.36,0,0,0,.63-.55l.58.69a2.68,2.68,0,0,1-.47.49,2.4,2.4,0,0,1-.71.38A3,3,0,0,1,170,193.34Z"/><path class="cls-2" d="M174.63,187.54v5.67h-1.1v-6.73h1.06Zm1.67-1.1v1.07l-.25,0h-.25a1.05,1.05,0,0,0-.54.13,1.09,1.09,0,0,0-.4.34,1.71,1.71,0,0,0-.27.54,3.3,3.3,0,0,0-.14.67l-.28.19a7,7,0,0,1,.09-1.15,4.23,4.23,0,0,1,.3-1,1.79,1.79,0,0,1,.53-.64,1.24,1.24,0,0,1,.77-.24l.24,0A.51.51,0,0,1,176.3,186.44Z"/><path class="cls-2" d="M178.51,187.92v5.29h-1.1v-6.73h1Zm-.26,1.67-.45,0a4.36,4.36,0,0,1,.16-1.28,3.19,3.19,0,0,1,.47-1,2.18,2.18,0,0,1,.74-.68,1.89,1.89,0,0,1,1-.24,2,2,0,0,1,.75.14,1.46,1.46,0,0,1,.57.42,2,2,0,0,1,.36.76,4.08,4.08,0,0,1,.13,1.13v4.41h-1.1v-4.42a2.44,2.44,0,0,0-.12-.85.82.82,0,0,0-.35-.47,1,1,0,0,0-.58-.15,1.11,1.11,0,0,0-.61.18,1.8,1.8,0,0,0-.49.5,2.92,2.92,0,0,0-.43,1.59Z"/><path class="cls-2" d="M187.06,189.13v.81h-.76a3.17,3.17,0,0,0-.72.08,1.86,1.86,0,0,0-.55.26,1.12,1.12,0,0,0-.35.4,1.28,1.28,0,0,0-.12.56,1.6,1.6,0,0,0,.11.64.72.72,0,0,0,.34.35,1.34,1.34,0,0,0,.56.1,1.38,1.38,0,0,0,.74-.19,1.47,1.47,0,0,0,.49-.47.84.84,0,0,0,.17-.51l.24.52a1.75,1.75,0,0,1-.16.53,2.26,2.26,0,0,1-.37.54,2,2,0,0,1-.56.42,1.52,1.52,0,0,1-.71.17,2.23,2.23,0,0,1-1-.23,1.6,1.6,0,0,1-.68-.66,2.49,2.49,0,0,1-.07-2,1.93,1.93,0,0,1,.49-.71,2.31,2.31,0,0,1,.83-.47,3.49,3.49,0,0,1,1.16-.17Zm-.18,2.93v-3.65a1.43,1.43,0,0,0-.12-.64.74.74,0,0,0-.36-.36,1.5,1.5,0,0,0-.6-.11,1.27,1.27,0,0,0-.6.14,1,1,0,0,0-.39.38,1.14,1.14,0,0,0-.13.52h-1.1a1.66,1.66,0,0,1,.16-.71,2,2,0,0,1,.46-.65,2.23,2.23,0,0,1,.71-.46,2.59,2.59,0,0,1,1-.17,2.73,2.73,0,0,1,1.1.21,1.53,1.53,0,0,1,.75.65,2.38,2.38,0,0,1,.28,1.21v3.32a4.51,4.51,0,0,0,0,.72,2.71,2.71,0,0,0,.15.65v.1h-1.14a2.47,2.47,0,0,1-.12-.53A4.69,4.69,0,0,1,186.88,192.06Z"/><path class="cls-2" d="M192.15,186.48v.88H189v-.88ZM190,184.84h1.1v6.7a1.18,1.18,0,0,0,.09.52.44.44,0,0,0,.21.23.67.67,0,0,0,.28.06l.25,0,.19,0v.94l-.3.09a2.84,2.84,0,0,1-.47,0,1.35,1.35,0,0,1-.66-.17,1.17,1.17,0,0,1-.49-.57,2.54,2.54,0,0,1-.19-1.06Z"/><path class="cls-2" d="M193.49,184.69a.73.73,0,0,1,.15-.47.68.68,0,0,1,.94,0,.69.69,0,0,1,.16.47.68.68,0,0,1-.16.46.68.68,0,0,1-.94,0A.73.73,0,0,1,193.49,184.69Zm1.15,1.79v6.73h-1.09v-6.73Z"/><path class="cls-2" d="M197,186.48l1.5,5.72.12,1h-.72l-2-6.73Zm1.16,5.69,1.44-5.69h1.12l-2,6.73H198Z"/><path class="cls-2" d="M201.52,190.17v-.64a4.38,4.38,0,0,1,.19-1.38,2.79,2.79,0,0,1,.56-1,2.13,2.13,0,0,1,.83-.6,2.44,2.44,0,0,1,1-.21,2.53,2.53,0,0,1,1,.21,2.29,2.29,0,0,1,.83.6,2.79,2.79,0,0,1,.56,1,4.38,4.38,0,0,1,.19,1.38v.64a4.47,4.47,0,0,1-.19,1.38,3,3,0,0,1-.56,1,2.45,2.45,0,0,1-.83.6,2.61,2.61,0,0,1-1,.2,2.69,2.69,0,0,1-1-.2,2.55,2.55,0,0,1-.83-.6,3,3,0,0,1-.56-1A4.47,4.47,0,0,1,201.52,190.17Zm1.1-.64v.64a3.55,3.55,0,0,0,.11,1,2,2,0,0,0,.32.7,1.38,1.38,0,0,0,.48.42,1.31,1.31,0,0,0,.59.14,1.53,1.53,0,0,0,.66-.14,1.35,1.35,0,0,0,.47-.42,2.13,2.13,0,0,0,.28-.7,4.64,4.64,0,0,0,.09-1v-.64a3.55,3.55,0,0,0-.11-1,2,2,0,0,0-.32-.7,1.2,1.2,0,0,0-.48-.42,1.33,1.33,0,0,0-1.19,0,1.35,1.35,0,0,0-.48.42,2.15,2.15,0,0,0-.31.7A3.55,3.55,0,0,0,202.62,189.53Z"/><path class="cls-2" d="M211.41,191.49a.84.84,0,0,0-.12-.45,1.37,1.37,0,0,0-.41-.37,5.79,5.79,0,0,0-.76-.39c-.32-.13-.59-.26-.84-.38a3.13,3.13,0,0,1-.63-.42,1.52,1.52,0,0,1-.39-.52,1.82,1.82,0,0,1-.13-.7,1.86,1.86,0,0,1,.15-.75,1.73,1.73,0,0,1,.44-.6,1.89,1.89,0,0,1,.67-.41,2.42,2.42,0,0,1,.88-.15,2.35,2.35,0,0,1,1.17.27,1.88,1.88,0,0,1,.75.73,2.13,2.13,0,0,1,.25,1h-1.09a1.06,1.06,0,0,0-.13-.52,1,1,0,0,0-.36-.41,1,1,0,0,0-.59-.16,1.16,1.16,0,0,0-.6.13.72.72,0,0,0-.33.34,1,1,0,0,0-.11.46.79.79,0,0,0,.06.32.59.59,0,0,0,.18.25,2.53,2.53,0,0,0,.36.23c.15.08.34.18.58.28a9,9,0,0,1,1.15.54,2.12,2.12,0,0,1,.71.64,1.65,1.65,0,0,1,.24.91,1.91,1.91,0,0,1-.16.8,1.59,1.59,0,0,1-.45.61,2,2,0,0,1-.7.39,2.85,2.85,0,0,1-.91.14A2.43,2.43,0,0,1,209,193a2,2,0,0,1-.8-.79,2.11,2.11,0,0,1-.27-1.05H209a1.28,1.28,0,0,0,.21.74,1.06,1.06,0,0,0,.48.36,1.58,1.58,0,0,0,.56.1,1.6,1.6,0,0,0,.62-.11.81.81,0,0,0,.37-.31A.86.86,0,0,0,211.41,191.49Z"/><path class="cls-2" d="M40.73,302.05v9.06H39.58v-9.06Zm.91,9.06H40.09l0-1h1.53a2.48,2.48,0,0,0,1.32-.32,1.86,1.86,0,0,0,.76-.93,4.24,4.24,0,0,0,.24-1.53v-1.55a5,5,0,0,0-.14-1.25,2.3,2.3,0,0,0-.41-.86,1.67,1.67,0,0,0-.69-.5,2.65,2.65,0,0,0-1-.16H40.06v-1h1.68a3.82,3.82,0,0,1,1.39.24,2.74,2.74,0,0,1,1,.72,3.18,3.18,0,0,1,.68,1.18,5.34,5.34,0,0,1,.23,1.63v1.54a5.39,5.39,0,0,1-.23,1.63,3.06,3.06,0,0,1-.68,1.17,2.68,2.68,0,0,1-1.09.71A4.08,4.08,0,0,1,41.64,311.11Z"/><path class="cls-2" d="M46.74,302.59a.75.75,0,0,1,.15-.47.56.56,0,0,1,.47-.19.57.57,0,0,1,.47.19.76.76,0,0,1,.16.47.71.71,0,0,1-.16.46.57.57,0,0,1-.47.19.56.56,0,0,1-.47-.19A.71.71,0,0,1,46.74,302.59Zm1.15,1.79v6.73H46.8v-6.73Z"/><path class="cls-2" d="M52.9,309.39a.84.84,0,0,0-.12-.45,1.26,1.26,0,0,0-.41-.37,5.79,5.79,0,0,0-.76-.39,8.36,8.36,0,0,1-.84-.38,3,3,0,0,1-.62-.41,1.62,1.62,0,0,1-.39-.52,1.68,1.68,0,0,1-.14-.7,1.71,1.71,0,0,1,.16-.75,1.74,1.74,0,0,1,.43-.61,2,2,0,0,1,.67-.41,2.66,2.66,0,0,1,.88-.14,2.47,2.47,0,0,1,1.17.26,1.84,1.84,0,0,1,.75.74,2.08,2.08,0,0,1,.26,1h-1.1a1.18,1.18,0,0,0-.12-.53,1.12,1.12,0,0,0-.37-.41,1.1,1.1,0,0,0-.59-.16,1.27,1.27,0,0,0-.6.13.83.83,0,0,0-.33.34,1,1,0,0,0-.11.46.79.79,0,0,0,.06.32.59.59,0,0,0,.18.25,2.48,2.48,0,0,0,.36.24c.15.08.34.17.58.27a8.4,8.4,0,0,1,1.15.54,2.23,2.23,0,0,1,.71.64,1.65,1.65,0,0,1,.24.91,2,2,0,0,1-.15.8,1.76,1.76,0,0,1-.46.62,1.9,1.9,0,0,1-.7.39,3.17,3.17,0,0,1-.91.13,2.55,2.55,0,0,1-1.28-.3,2.09,2.09,0,0,1-.8-.79,2.16,2.16,0,0,1-.27-1h1.1a1.27,1.27,0,0,0,.22.73,1,1,0,0,0,.47.36,1.62,1.62,0,0,0,.56.1,1.43,1.43,0,0,0,.62-.11.83.83,0,0,0,.38-.31A1,1,0,0,0,52.9,309.39Z"/><path class="cls-2" d="M57.86,311.24a3.08,3.08,0,0,1-1.09-.18,2.16,2.16,0,0,1-.83-.55,2.44,2.44,0,0,1-.52-.94,4.43,4.43,0,0,1-.18-1.34v-.76a5,5,0,0,1,.2-1.5,2.64,2.64,0,0,1,.57-1,2,2,0,0,1,.8-.55,2.46,2.46,0,0,1,.92-.17,2.67,2.67,0,0,1,1.08.2,1.74,1.74,0,0,1,.73.61,2.77,2.77,0,0,1,.42,1,6.16,6.16,0,0,1,.13,1.36v.64H55.88v-.94H59V307a4,4,0,0,0-.14-.92,1.25,1.25,0,0,0-.38-.63,1.09,1.09,0,0,0-.74-.23,1.47,1.47,0,0,0-.56.11.92.92,0,0,0-.44.35,1.84,1.84,0,0,0-.29.69,5,5,0,0,0-.1,1.12v.76a3.63,3.63,0,0,0,.1.93,1.6,1.6,0,0,0,.31.64,1.21,1.21,0,0,0,.49.38,1.83,1.83,0,0,0,.68.12,1.68,1.68,0,0,0,.91-.22,2.19,2.19,0,0,0,.63-.55l.58.69a2.4,2.4,0,0,1-.47.49,2.09,2.09,0,0,1-.71.38A3,3,0,0,1,57.86,311.24Z"/><path class="cls-2" d="M62.52,305.82v5.29h-1.1v-6.73h1Zm-.26,1.67-.45,0A4.29,4.29,0,0,1,62,306.2a3.15,3.15,0,0,1,.47-1,2.24,2.24,0,0,1,.74-.67,1.89,1.89,0,0,1,.95-.24,2,2,0,0,1,.75.13,1.39,1.39,0,0,1,.57.43,1.88,1.88,0,0,1,.36.75,4.13,4.13,0,0,1,.13,1.13v4.41h-1.1v-4.42a2.47,2.47,0,0,0-.12-.85.89.89,0,0,0-.34-.47,1.2,1.2,0,0,0-.59-.14,1.11,1.11,0,0,0-.61.18,1.54,1.54,0,0,0-.48.5,2.64,2.64,0,0,0-.33.72A3.43,3.43,0,0,0,62.26,307.49Zm2.61-5.81.72.07a1.92,1.92,0,0,1-.16.79,1.19,1.19,0,0,1-.42.53,1,1,0,0,1-.59.19.91.91,0,0,1-.43-.09,1.84,1.84,0,0,1-.31-.2,1.86,1.86,0,0,0-.28-.21.7.7,0,0,0-.37-.09.43.43,0,0,0-.35.2.79.79,0,0,0-.14.49l-.72,0a2,2,0,0,1,.15-.8,1.27,1.27,0,0,1,.42-.54,1,1,0,0,1,.59-.19.79.79,0,0,1,.38.09,1.73,1.73,0,0,1,.32.2,2.2,2.2,0,0,0,.32.21.75.75,0,0,0,.37.09.41.41,0,0,0,.35-.21A.79.79,0,0,0,64.87,301.68Z"/><path class="cls-2" d="M67.37,308.07v-.64a4.47,4.47,0,0,1,.19-1.38,2.88,2.88,0,0,1,.56-1,2.21,2.21,0,0,1,.83-.6,2.43,2.43,0,0,1,1-.2,2.52,2.52,0,0,1,1,.2,2.29,2.29,0,0,1,.83.6,2.88,2.88,0,0,1,.56,1,4.47,4.47,0,0,1,.19,1.38v.64a4.47,4.47,0,0,1-.19,1.38,2.79,2.79,0,0,1-.56,1,2.13,2.13,0,0,1-.83.6,2.61,2.61,0,0,1-1,.2,2.69,2.69,0,0,1-1-.2,2.29,2.29,0,0,1-.83-.6,2.79,2.79,0,0,1-.56-1A4.47,4.47,0,0,1,67.37,308.07Zm1.1-.64v.64a3.55,3.55,0,0,0,.11,1,2,2,0,0,0,.32.7,1.2,1.2,0,0,0,.48.42,1.31,1.31,0,0,0,.59.14,1.53,1.53,0,0,0,.66-.14,1.12,1.12,0,0,0,.47-.42,2.13,2.13,0,0,0,.28-.7,4.64,4.64,0,0,0,.09-1v-.64a3.55,3.55,0,0,0-.11-1,1.92,1.92,0,0,0-.32-.69,1.31,1.31,0,0,0-1.67-.43,1.49,1.49,0,0,0-.48.43,2.09,2.09,0,0,0-.31.69A3.55,3.55,0,0,0,68.47,307.43Z"/><path class="cls-2" d="M76.68,308.07v-.63a5.94,5.94,0,0,1,.16-1.43,3,3,0,0,1,.46-1,1.91,1.91,0,0,1,.72-.58,2.32,2.32,0,0,1,.92-.18,1.81,1.81,0,0,1,.9.21,1.75,1.75,0,0,1,.63.61,3.18,3.18,0,0,1,.4,1,6.72,6.72,0,0,1,.2,1.29v.84a7.36,7.36,0,0,1-.2,1.27,3.45,3.45,0,0,1-.4,1,1.86,1.86,0,0,1-.64.61,1.81,1.81,0,0,1-.9.21A2.09,2.09,0,0,1,78,311a1.89,1.89,0,0,1-.71-.59,2.85,2.85,0,0,1-.47-1A5.65,5.65,0,0,1,76.68,308.07Zm1.1-.63v.63a5.63,5.63,0,0,0,.08,1,2,2,0,0,0,.26.68,1.12,1.12,0,0,0,.44.4,1.5,1.5,0,0,0,.66.13A1.21,1.21,0,0,0,80,310a1.68,1.68,0,0,0,.47-.6,3.77,3.77,0,0,0,.28-.8v-1.76a3.17,3.17,0,0,0-.18-.62,3,3,0,0,0-.29-.53,1.69,1.69,0,0,0-.43-.37,1.25,1.25,0,0,0-.59-.13,1.5,1.5,0,0,0-.66.13,1.26,1.26,0,0,0-.45.41,2.13,2.13,0,0,0-.25.7A4.57,4.57,0,0,0,77.78,307.44Zm2.67,2.37v-8.25h1.09v9.55h-1Z"/><path class="cls-2" d="M85.65,311.24a3.12,3.12,0,0,1-1.09-.18,2.23,2.23,0,0,1-.83-.55,2.58,2.58,0,0,1-.52-.94,4.43,4.43,0,0,1-.18-1.34v-.76a4.68,4.68,0,0,1,.21-1.5,2.76,2.76,0,0,1,.56-1,2.09,2.09,0,0,1,.8-.55,2.47,2.47,0,0,1,.93-.17,2.7,2.7,0,0,1,1.08.2,1.8,1.8,0,0,1,.73.61,3,3,0,0,1,.41,1,6.16,6.16,0,0,1,.13,1.36v.64h-4.2v-.94h3.1V307a3.49,3.49,0,0,0-.14-.92,1.23,1.23,0,0,0-.37-.63,1.11,1.11,0,0,0-.74-.23,1.48,1.48,0,0,0-.57.11.92.92,0,0,0-.44.35,2,2,0,0,0-.29.69,5.73,5.73,0,0,0-.1,1.12v.76a4.14,4.14,0,0,0,.1.93,1.6,1.6,0,0,0,.31.64,1.17,1.17,0,0,0,.5.38,1.74,1.74,0,0,0,.67.12,1.72,1.72,0,0,0,.92-.22,2.19,2.19,0,0,0,.63-.55l.57.69a2.16,2.16,0,0,1-.47.49,2,2,0,0,1-.7.38A3,3,0,0,1,85.65,311.24Z"/><path class="cls-2" d="M95.23,302.86l-2.48,8.25H91.58l2.92-9.06h.73Zm2,4.9v1H92.86v-1Zm0,3.35-2.47-8.25,0-.81h.74l2.92,9.06Z"/><path class="cls-2" d="M101.9,311.24a3.12,3.12,0,0,1-1.09-.18,2.23,2.23,0,0,1-.83-.55,2.44,2.44,0,0,1-.52-.94,4.43,4.43,0,0,1-.18-1.34v-.76a4.68,4.68,0,0,1,.21-1.5,2.62,2.62,0,0,1,.56-1,2.09,2.09,0,0,1,.8-.55,2.47,2.47,0,0,1,.93-.17,2.7,2.7,0,0,1,1.08.2,1.8,1.8,0,0,1,.73.61,3,3,0,0,1,.41,1,6.16,6.16,0,0,1,.13,1.36v.64h-4.2v-.94H103V307a3.49,3.49,0,0,0-.14-.92,1.23,1.23,0,0,0-.37-.63,1.13,1.13,0,0,0-.74-.23,1.48,1.48,0,0,0-.57.11.92.92,0,0,0-.44.35,2,2,0,0,0-.29.69,5.73,5.73,0,0,0-.1,1.12v.76a4.14,4.14,0,0,0,.1.93,1.6,1.6,0,0,0,.31.64,1.17,1.17,0,0,0,.5.38,1.74,1.74,0,0,0,.67.12,1.72,1.72,0,0,0,.92-.22,2.19,2.19,0,0,0,.63-.55l.57.69a2.16,2.16,0,0,1-.47.49,2.09,2.09,0,0,1-.71.38A3,3,0,0,1,101.9,311.24Z"/><path class="cls-2" d="M106.57,305.44v5.67h-1.1v-6.73h1.06Zm1.67-1.1v1.07l-.25,0h-.25a1.13,1.13,0,0,0-.54.13,1.24,1.24,0,0,0-.41.35,1.64,1.64,0,0,0-.26.53,2.74,2.74,0,0,0-.14.67l-.29.19a5.83,5.83,0,0,1,.1-1.14,3.21,3.21,0,0,1,.3-.95,1.72,1.72,0,0,1,.53-.65,1.23,1.23,0,0,1,.77-.23l.24,0A.59.59,0,0,1,108.24,304.34Z"/><path class="cls-2" d="M109,308.07v-.64a4.46,4.46,0,0,1,.2-1.38,2.88,2.88,0,0,1,.56-1,2.18,2.18,0,0,1,.82-.6,2.73,2.73,0,0,1,2.05,0,2.29,2.29,0,0,1,.83.6,2.71,2.71,0,0,1,.55,1,4.18,4.18,0,0,1,.2,1.38v.64a4.18,4.18,0,0,1-.2,1.38,2.63,2.63,0,0,1-.55,1,2.21,2.21,0,0,1-.83.6,2.61,2.61,0,0,1-1,.2,2.69,2.69,0,0,1-1-.2,2.29,2.29,0,0,1-.83-.6,2.79,2.79,0,0,1-.56-1A4.46,4.46,0,0,1,109,308.07Zm1.11-.64v.64a3.55,3.55,0,0,0,.11,1,2,2,0,0,0,.32.7,1.25,1.25,0,0,0,.47.42,1.39,1.39,0,0,0,.6.14,1.53,1.53,0,0,0,.66-.14,1.18,1.18,0,0,0,.47-.42,2.13,2.13,0,0,0,.28-.7,4.64,4.64,0,0,0,.09-1v-.64a4,4,0,0,0-.11-1,2.1,2.1,0,0,0-.32-.69,1.4,1.4,0,0,0-.48-.43,1.36,1.36,0,0,0-.6-.14,1.31,1.31,0,0,0-.59.14,1.49,1.49,0,0,0-.48.43,2.09,2.09,0,0,0-.31.69A3.55,3.55,0,0,0,110.1,307.43Z"/><path class="cls-2" d="M116.72,305.82v5.29h-1.1v-6.73h1Zm-.26,1.67-.45,0a4.29,4.29,0,0,1,.16-1.27,3.15,3.15,0,0,1,.47-1,2.24,2.24,0,0,1,.74-.67,1.89,1.89,0,0,1,1-.24,2,2,0,0,1,.75.13,1.39,1.39,0,0,1,.57.43,1.88,1.88,0,0,1,.36.75,4.13,4.13,0,0,1,.13,1.13v4.41H119v-4.42a2.47,2.47,0,0,0-.12-.85.89.89,0,0,0-.34-.47,1.2,1.2,0,0,0-.59-.14,1.11,1.11,0,0,0-.61.18,1.54,1.54,0,0,0-.48.5,2.64,2.64,0,0,0-.33.72A3,3,0,0,0,116.46,307.49Z"/><path class="cls-2" d="M125.27,307v.81h-.76a2.68,2.68,0,0,0-.72.09,1.85,1.85,0,0,0-.55.25,1.15,1.15,0,0,0-.35.41,1.2,1.2,0,0,0-.12.55,1.65,1.65,0,0,0,.11.65.7.7,0,0,0,.34.34,1.33,1.33,0,0,0,.56.11,1.39,1.39,0,0,0,.74-.2,1.45,1.45,0,0,0,.49-.46.86.86,0,0,0,.17-.51l.24.51a1.68,1.68,0,0,1-.16.53,2.08,2.08,0,0,1-.37.54,2,2,0,0,1-.56.42,1.52,1.52,0,0,1-.71.17,2.37,2.37,0,0,1-1-.22,1.6,1.6,0,0,1-.68-.66,2.51,2.51,0,0,1-.07-2,1.93,1.93,0,0,1,.49-.71,2.31,2.31,0,0,1,.83-.47,3.77,3.77,0,0,1,1.16-.17Zm-.18,2.93v-3.65a1.43,1.43,0,0,0-.12-.64.78.78,0,0,0-.36-.36,1.5,1.5,0,0,0-.6-.11,1.16,1.16,0,0,0-.6.15,1,1,0,0,0-.39.38,1.11,1.11,0,0,0-.13.52h-1.1a1.71,1.71,0,0,1,.16-.72,2,2,0,0,1,.46-.64,2.08,2.08,0,0,1,.71-.46,2.4,2.4,0,0,1,.95-.17,2.73,2.73,0,0,1,1.1.2,1.5,1.5,0,0,1,.75.66,2.31,2.31,0,0,1,.28,1.2v3.33a4.47,4.47,0,0,0,0,.71,2.92,2.92,0,0,0,.15.66v.09h-1.14a2.47,2.47,0,0,1-.12-.53A4.69,4.69,0,0,1,125.09,310Z"/><path class="cls-2" d="M128.39,304.38l1.5,5.73.12,1h-.72l-2-6.73Zm1.16,5.7,1.44-5.7h1.12l-2,6.73h-.73Z"/><path class="cls-2" d="M135.59,311.24a3.08,3.08,0,0,1-1.09-.18,2.16,2.16,0,0,1-.83-.55,2.44,2.44,0,0,1-.52-.94,4.43,4.43,0,0,1-.18-1.34v-.76a4.68,4.68,0,0,1,.21-1.5,2.5,2.5,0,0,1,.56-1,2,2,0,0,1,.8-.55,2.46,2.46,0,0,1,.92-.17,2.72,2.72,0,0,1,1.09.2,1.77,1.77,0,0,1,.72.61,2.77,2.77,0,0,1,.42,1,6.16,6.16,0,0,1,.13,1.36v.64h-4.21v-.94h3.11V307a4,4,0,0,0-.14-.92,1.25,1.25,0,0,0-.38-.63,1.09,1.09,0,0,0-.74-.23,1.47,1.47,0,0,0-.56.11.92.92,0,0,0-.44.35,2,2,0,0,0-.29.69,5,5,0,0,0-.1,1.12v.76a3.63,3.63,0,0,0,.1.93,1.6,1.6,0,0,0,.31.64,1.21,1.21,0,0,0,.49.38,1.83,1.83,0,0,0,.68.12,1.68,1.68,0,0,0,.91-.22,2.19,2.19,0,0,0,.63-.55l.58.69a2.4,2.4,0,0,1-.47.49,2.09,2.09,0,0,1-.71.38A3,3,0,0,1,135.59,311.24Z"/><path class="cls-2" d="M142.42,309.39a.84.84,0,0,0-.12-.45,1.37,1.37,0,0,0-.41-.37,5.79,5.79,0,0,0-.76-.39,7.45,7.45,0,0,1-.84-.38,3.12,3.12,0,0,1-.63-.41,1.62,1.62,0,0,1-.39-.52,1.95,1.95,0,0,1,0-1.45,1.76,1.76,0,0,1,.44-.61,2,2,0,0,1,.67-.41,2.66,2.66,0,0,1,.88-.14,2.47,2.47,0,0,1,1.17.26,1.82,1.82,0,0,1,.74.74,2,2,0,0,1,.26,1h-1.09a1.07,1.07,0,0,0-.13-.53,1,1,0,0,0-.36-.41,1.13,1.13,0,0,0-.59-.16,1.27,1.27,0,0,0-.6.13.8.8,0,0,0-.34.34,1.15,1.15,0,0,0-.1.46.79.79,0,0,0,.06.32.59.59,0,0,0,.18.25,2.48,2.48,0,0,0,.36.24c.15.08.34.17.58.27a9,9,0,0,1,1.15.54,2.23,2.23,0,0,1,.71.64,1.65,1.65,0,0,1,.24.91,1.87,1.87,0,0,1-.16.8,1.63,1.63,0,0,1-.45.62,2,2,0,0,1-.7.39,3.17,3.17,0,0,1-.91.13,2.59,2.59,0,0,1-1.29-.3,2.07,2.07,0,0,1-.79-.79,2.16,2.16,0,0,1-.27-1h1.1a1.27,1.27,0,0,0,.21.73.93.93,0,0,0,.48.36,1.58,1.58,0,0,0,.56.1,1.43,1.43,0,0,0,.62-.11.76.76,0,0,0,.37-.31A.86.86,0,0,0,142.42,309.39Z"/><path class="cls-2" d="M556.82,366.49h1L558,372v3.53h-1.14Zm.36,0h1.11l2.37,7.39,2.36-7.39h1.11l-3,9.06h-.87Zm6.33,0h1v9.06h-1.13V372Z"/><path class="cls-2" d="M568.7,375.68a3.16,3.16,0,0,1-1.09-.18,2.12,2.12,0,0,1-.82-.55,2.46,2.46,0,0,1-.53-.94,4.43,4.43,0,0,1-.18-1.34v-.76a4.68,4.68,0,0,1,.21-1.5,2.76,2.76,0,0,1,.57-1,2,2,0,0,1,.8-.54,2.42,2.42,0,0,1,.92-.17,2.54,2.54,0,0,1,1.08.2,1.8,1.8,0,0,1,.73.61,2.76,2.76,0,0,1,.41,1,6.12,6.12,0,0,1,.14,1.36v.64h-4.21v-.94h3.11v-.15a4.8,4.8,0,0,0-.14-.93,1.34,1.34,0,0,0-.38-.62,1.09,1.09,0,0,0-.74-.23,1.69,1.69,0,0,0-.56.1,1,1,0,0,0-.45.36,2,2,0,0,0-.28.69,5,5,0,0,0-.1,1.12v.76a3.63,3.63,0,0,0,.1.93,1.73,1.73,0,0,0,.3.64,1.24,1.24,0,0,0,.5.38,1.79,1.79,0,0,0,.68.12,1.7,1.7,0,0,0,.91-.22,2.19,2.19,0,0,0,.63-.55l.58.69a2.4,2.4,0,0,1-.47.49,2.28,2.28,0,0,1-.71.38A3,3,0,0,1,568.7,375.68Z"/><path class="cls-2" d="M572.29,368.82h1.1v7.54a2.88,2.88,0,0,1-.16,1,1.26,1.26,0,0,1-.48.65,1.45,1.45,0,0,1-.83.22l-.32,0a1.67,1.67,0,0,1-.3-.07v-.93l.23,0,.2,0a.46.46,0,0,0,.31-.1.56.56,0,0,0,.19-.3,2,2,0,0,0,.06-.54Zm-.1-1.79a.76.76,0,0,1,.16-.47.68.68,0,0,1,.94,0,.76.76,0,0,1,.16.47.71.71,0,0,1-.16.46.68.68,0,0,1-.94,0A.71.71,0,0,1,572.19,367Z"/><path class="cls-2" d="M574.9,372.51v-.64a4.47,4.47,0,0,1,.19-1.38,2.88,2.88,0,0,1,.56-1,2.21,2.21,0,0,1,.83-.6,2.43,2.43,0,0,1,1-.2,2.52,2.52,0,0,1,1,.2,2.29,2.29,0,0,1,.83.6,2.88,2.88,0,0,1,.56,1,4.46,4.46,0,0,1,.2,1.38v.64a4.46,4.46,0,0,1-.2,1.38,2.79,2.79,0,0,1-.56,1,2.13,2.13,0,0,1-.83.6,2.61,2.61,0,0,1-1,.2,2.69,2.69,0,0,1-1-.2,2.29,2.29,0,0,1-.83-.6,2.79,2.79,0,0,1-.56-1A4.47,4.47,0,0,1,574.9,372.51Zm1.1-.64v.64a3.55,3.55,0,0,0,.11,1,2,2,0,0,0,.32.7,1.2,1.2,0,0,0,.48.42,1.31,1.31,0,0,0,.59.14,1.53,1.53,0,0,0,.66-.14,1.12,1.12,0,0,0,.47-.42,2.13,2.13,0,0,0,.28-.7,4.64,4.64,0,0,0,.09-1v-.64a3.55,3.55,0,0,0-.11-1,1.92,1.92,0,0,0-.32-.69,1.31,1.31,0,0,0-1.67-.43,1.49,1.49,0,0,0-.48.43,2.09,2.09,0,0,0-.31.69A3.55,3.55,0,0,0,576,371.87Z"/><path class="cls-2" d="M582.63,369.88v5.67h-1.11v-6.73h1.07Zm1.67-1.1v1.07l-.25,0h-.25a1.14,1.14,0,0,0-.95.48,1.88,1.88,0,0,0-.27.53,3.32,3.32,0,0,0-.13.67l-.29.19a5.83,5.83,0,0,1,.1-1.14,3.21,3.21,0,0,1,.3-.95,1.65,1.65,0,0,1,.53-.65,1.22,1.22,0,0,1,.76-.23l.25,0A.59.59,0,0,1,584.3,368.78Z"/><path class="cls-2" d="M588.63,371.47v.81h-.76a2.6,2.6,0,0,0-.71.09,1.8,1.8,0,0,0-.56.25,1.15,1.15,0,0,0-.35.41,1.2,1.2,0,0,0-.12.55,1.65,1.65,0,0,0,.11.65.7.7,0,0,0,.34.34,1.35,1.35,0,0,0,.57.11,1.38,1.38,0,0,0,.73-.2,1.59,1.59,0,0,0,.5-.46.94.94,0,0,0,.16-.51l.24.51a1.51,1.51,0,0,1-.16.53,1.86,1.86,0,0,1-.37.54,1.91,1.91,0,0,1-.55.42,1.59,1.59,0,0,1-.72.17,2.26,2.26,0,0,1-1-.23,1.5,1.5,0,0,1-.68-.66,2.17,2.17,0,0,1-.24-1.07,2.4,2.4,0,0,1,.17-.9,2,2,0,0,1,.5-.71,2.23,2.23,0,0,1,.83-.47,3.68,3.68,0,0,1,1.16-.17Zm-.17,2.93v-3.65a1.43,1.43,0,0,0-.12-.64.86.86,0,0,0-.37-.36,1.5,1.5,0,0,0-.6-.11,1.16,1.16,0,0,0-.6.15,1,1,0,0,0-.38.37,1.08,1.08,0,0,0-.14.53h-1.1a1.87,1.87,0,0,1,.16-.72,2.16,2.16,0,0,1,.46-.64,2.07,2.07,0,0,1,.72-.46,2.35,2.35,0,0,1,.94-.17,2.73,2.73,0,0,1,1.1.2,1.53,1.53,0,0,1,.75.65,2.28,2.28,0,0,1,.28,1.21v3.33a6.07,6.07,0,0,0,.05.71,4.2,4.2,0,0,0,.15.65v.1h-1.14a2.47,2.47,0,0,1-.12-.53A4.59,4.59,0,0,1,588.46,374.4Z"/><path class="cls-2" d="M594.53,373.83a.84.84,0,0,0-.12-.45A1.37,1.37,0,0,0,594,373a5.79,5.79,0,0,0-.76-.39c-.32-.13-.59-.25-.84-.38a3.12,3.12,0,0,1-.63-.41,1.62,1.62,0,0,1-.39-.52,1.95,1.95,0,0,1,0-1.45,1.9,1.9,0,0,1,.44-.61,2,2,0,0,1,.67-.41,2.43,2.43,0,0,1,.88-.14,2.47,2.47,0,0,1,1.17.26,2,2,0,0,1,.75.73,2.14,2.14,0,0,1,.25,1.05h-1.09a1.07,1.07,0,0,0-.13-.53,1,1,0,0,0-1-.57,1.27,1.27,0,0,0-.6.13.72.72,0,0,0-.33.34,1,1,0,0,0-.11.46.79.79,0,0,0,.06.32.59.59,0,0,0,.18.25,1.87,1.87,0,0,0,.36.23,4.55,4.55,0,0,0,.58.28,8.4,8.4,0,0,1,1.15.54,2.23,2.23,0,0,1,.71.64,1.65,1.65,0,0,1,.24.91,1.87,1.87,0,0,1-.16.8,1.63,1.63,0,0,1-.45.62,1.82,1.82,0,0,1-.7.38,2.85,2.85,0,0,1-.91.14,2.53,2.53,0,0,1-1.28-.3,2,2,0,0,1-.8-.79,2.16,2.16,0,0,1-.27-1h1.1a1.27,1.27,0,0,0,.21.73,1,1,0,0,0,.48.36,1.58,1.58,0,0,0,.56.1,1.43,1.43,0,0,0,.62-.11.76.76,0,0,0,.37-.31A.86.86,0,0,0,594.53,373.83Z"/><path class="cls-2" d="M606,370.24v1.57a6.58,6.58,0,0,1-.2,1.69,3.53,3.53,0,0,1-.61,1.21,2.73,2.73,0,0,1-1,.73,3.15,3.15,0,0,1-1.26.24,3.08,3.08,0,0,1-1.24-.24,2.76,2.76,0,0,1-1-.73,3.54,3.54,0,0,1-.62-1.21,5.77,5.77,0,0,1-.22-1.69v-1.57a5.66,5.66,0,0,1,.22-1.68,3.22,3.22,0,0,1,.62-1.21,2.64,2.64,0,0,1,1-.74,3.15,3.15,0,0,1,1.24-.24,3.23,3.23,0,0,1,1.27.24,2.64,2.64,0,0,1,1,.74,3.35,3.35,0,0,1,.6,1.21A6,6,0,0,1,606,370.24Zm-1.13,1.57v-1.58a6,6,0,0,0-.12-1.29,2.65,2.65,0,0,0-.37-.88,1.47,1.47,0,0,0-.6-.51,1.91,1.91,0,0,0-.82-.16,1.83,1.83,0,0,0-.79.16,1.47,1.47,0,0,0-.6.51,2.47,2.47,0,0,0-.39.88,5.4,5.4,0,0,0-.13,1.29v1.58a5.43,5.43,0,0,0,.13,1.3,2.55,2.55,0,0,0,.39.88,1.56,1.56,0,0,0,.61.51,1.83,1.83,0,0,0,.79.16,1.94,1.94,0,0,0,.82-.16,1.47,1.47,0,0,0,.6-.51,2.53,2.53,0,0,0,.36-.88A6.06,6.06,0,0,0,604.91,371.81Z"/><path class="cls-2" d="M608.76,370.11v8h-1.1v-9.32h1Zm3.77,1.77v.63a5.69,5.69,0,0,1-.15,1.39,2.65,2.65,0,0,1-.43,1,1.85,1.85,0,0,1-.69.59,2.16,2.16,0,0,1-.94.2,2,2,0,0,1-.92-.2,1.75,1.75,0,0,1-.65-.59,3.06,3.06,0,0,1-.42-.93,7,7,0,0,1-.21-1.23v-1a7.56,7.56,0,0,1,.21-1.29,3.46,3.46,0,0,1,.41-1,1.82,1.82,0,0,1,.66-.61,1.85,1.85,0,0,1,.91-.21,2.33,2.33,0,0,1,1,.18,1.78,1.78,0,0,1,.7.58,2.82,2.82,0,0,1,.43,1A6.59,6.59,0,0,1,612.53,371.88Zm-1.1.63v-.63a4.57,4.57,0,0,0-.09-1,1.93,1.93,0,0,0-.26-.7,1.13,1.13,0,0,0-.46-.41,1.45,1.45,0,0,0-.65-.13,1.25,1.25,0,0,0-.59.13,1.51,1.51,0,0,0-.43.37,2.5,2.5,0,0,0-.3.53,2.58,2.58,0,0,0-.17.62v1.88a3.52,3.52,0,0,0,.28.75,1.39,1.39,0,0,0,.47.57,1.17,1.17,0,0,0,.75.22,1.45,1.45,0,0,0,.65-.14,1.17,1.17,0,0,0,.45-.41,1.93,1.93,0,0,0,.26-.7A4.74,4.74,0,0,0,611.43,372.51Z"/><path class="cls-2" d="M616.36,375.68a3.08,3.08,0,0,1-1.09-.18,2.16,2.16,0,0,1-.83-.55,2.44,2.44,0,0,1-.52-.94,4.43,4.43,0,0,1-.18-1.34v-.76a5,5,0,0,1,.2-1.5,2.76,2.76,0,0,1,.57-1,2,2,0,0,1,.8-.54,2.46,2.46,0,0,1,.92-.17,2.51,2.51,0,0,1,1.08.2,1.74,1.74,0,0,1,.73.61,2.77,2.77,0,0,1,.42,1,6.16,6.16,0,0,1,.13,1.36v.64h-4.21v-.94h3.11v-.15a4.14,4.14,0,0,0-.14-.93,1.26,1.26,0,0,0-.38-.62,1.09,1.09,0,0,0-.74-.23,1.69,1.69,0,0,0-.56.1,1,1,0,0,0-.44.36,1.84,1.84,0,0,0-.29.69,5,5,0,0,0-.1,1.12v.76a3.63,3.63,0,0,0,.1.93,1.6,1.6,0,0,0,.31.64,1.21,1.21,0,0,0,.49.38,1.83,1.83,0,0,0,.68.12,1.68,1.68,0,0,0,.91-.22A2.19,2.19,0,0,0,618,374l.58.69a2.4,2.4,0,0,1-.47.49,2.28,2.28,0,0,1-.71.38A3,3,0,0,1,616.36,375.68Z"/><path class="cls-2" d="M621,369.88v5.67h-1.1v-6.73H621Zm1.68-1.1v1.07l-.24,0h-.25a1.14,1.14,0,0,0-1,.48,1.88,1.88,0,0,0-.27.53,3.32,3.32,0,0,0-.13.67l-.29.19a5.83,5.83,0,0,1,.1-1.14,3.21,3.21,0,0,1,.3-.95,1.72,1.72,0,0,1,.52-.65,1.25,1.25,0,0,1,.77-.23l.25,0A.59.59,0,0,1,622.7,368.78Z"/><path class="cls-2" d="M627,371.47v.81h-.76a2.73,2.73,0,0,0-.72.09,1.85,1.85,0,0,0-.55.25,1.15,1.15,0,0,0-.35.41,1.2,1.2,0,0,0-.12.55,1.65,1.65,0,0,0,.11.65.7.7,0,0,0,.34.34,1.33,1.33,0,0,0,.56.11,1.39,1.39,0,0,0,.74-.2,1.45,1.45,0,0,0,.49-.46.88.88,0,0,0,.17-.51l.24.51a1.75,1.75,0,0,1-.16.53,2.13,2.13,0,0,1-.92,1,1.59,1.59,0,0,1-.72.17,2.26,2.26,0,0,1-1-.23,1.5,1.5,0,0,1-.68-.66,2.17,2.17,0,0,1-.24-1.07,2.22,2.22,0,0,1,.17-.9,1.93,1.93,0,0,1,.49-.71,2.27,2.27,0,0,1,.84-.47,3.68,3.68,0,0,1,1.16-.17Zm-.17,2.93v-3.65a1.42,1.42,0,0,0-.13-.64.78.78,0,0,0-.36-.36,1.5,1.5,0,0,0-.6-.11,1.16,1.16,0,0,0-.6.15,1,1,0,0,0-.38.37,1.08,1.08,0,0,0-.14.53h-1.1a1.71,1.71,0,0,1,.16-.72,2.16,2.16,0,0,1,.46-.64,2.07,2.07,0,0,1,.72-.46,2.35,2.35,0,0,1,.94-.17,2.73,2.73,0,0,1,1.1.2,1.53,1.53,0,0,1,.75.65,2.28,2.28,0,0,1,.28,1.21v3.33a4.47,4.47,0,0,0,0,.71,4.2,4.2,0,0,0,.15.65v.1H627a2.47,2.47,0,0,1-.12-.53A4.59,4.59,0,0,1,626.86,374.4Z"/><path class="cls-2" d="M632.12,368.82v.88H629v-.88ZM630,367.18h1.11v6.71a1.15,1.15,0,0,0,.08.51.44.44,0,0,0,.21.23.71.71,0,0,0,.28.06l.25,0a.8.8,0,0,0,.19-.05v.94l-.29.09a3.08,3.08,0,0,1-.48,0,1.41,1.41,0,0,1-.66-.17,1.24,1.24,0,0,1-.49-.56,2.63,2.63,0,0,1-.19-1.07Z"/><path class="cls-2" d="M633.46,367a.75.75,0,0,1,.15-.47.68.68,0,0,1,.94,0,.71.71,0,0,1,.16.47.66.66,0,0,1-.16.46.68.68,0,0,1-.94,0A.71.71,0,0,1,633.46,367Zm1.16,1.79v6.73h-1.1v-6.73Z"/><path class="cls-2" d="M636.94,368.82l1.5,5.73.12,1h-.72l-2-6.73Zm1.16,5.69,1.45-5.69h1.12l-2,6.73h-.73Z"/><path class="cls-2" d="M645.19,371.47v.81h-.76a2.68,2.68,0,0,0-.72.09,1.85,1.85,0,0,0-.55.25,1.15,1.15,0,0,0-.35.41,1.2,1.2,0,0,0-.12.55,1.65,1.65,0,0,0,.11.65.7.7,0,0,0,.34.34,1.33,1.33,0,0,0,.56.11,1.39,1.39,0,0,0,.74-.2,1.45,1.45,0,0,0,.49-.46.88.88,0,0,0,.17-.51l.24.51a1.75,1.75,0,0,1-.16.53,2.08,2.08,0,0,1-.37.54,2,2,0,0,1-.56.42,1.52,1.52,0,0,1-.71.17,2.26,2.26,0,0,1-1-.23,1.5,1.5,0,0,1-.68-.66,2.17,2.17,0,0,1-.24-1.07,2.22,2.22,0,0,1,.17-.9,1.93,1.93,0,0,1,.49-.71,2.31,2.31,0,0,1,.83-.47,3.79,3.79,0,0,1,1.17-.17ZM645,374.4v-3.65a1.43,1.43,0,0,0-.12-.64.78.78,0,0,0-.36-.36,1.5,1.5,0,0,0-.6-.11,1.16,1.16,0,0,0-.6.15.91.91,0,0,0-.38.37,1.08,1.08,0,0,0-.14.53h-1.1a1.71,1.71,0,0,1,.16-.72,2,2,0,0,1,.46-.64,2.07,2.07,0,0,1,.72-.46,2.35,2.35,0,0,1,.94-.17,2.73,2.73,0,0,1,1.1.2,1.53,1.53,0,0,1,.75.65,2.28,2.28,0,0,1,.28,1.21v3.33a4.47,4.47,0,0,0,0,.71,3.29,3.29,0,0,0,.15.65v.1h-1.14a2.47,2.47,0,0,1-.12-.53A4.69,4.69,0,0,1,645,374.4Z"/><path class="cls-2" d="M651.09,373.83a.84.84,0,0,0-.12-.45,1.37,1.37,0,0,0-.41-.37,6,6,0,0,0-.77-.39c-.31-.13-.59-.25-.83-.38a3.12,3.12,0,0,1-.63-.41,1.62,1.62,0,0,1-.39-.52,1.68,1.68,0,0,1-.13-.7,1.83,1.83,0,0,1,.58-1.36,2.2,2.2,0,0,1,.68-.41,2.41,2.41,0,0,1,.87-.14,2.51,2.51,0,0,1,1.18.26,1.92,1.92,0,0,1,.74.73,2,2,0,0,1,.26,1.05H651a1.07,1.07,0,0,0-.13-.53,1,1,0,0,0-.36-.41,1.05,1.05,0,0,0-.6-.16,1.26,1.26,0,0,0-.59.13.8.8,0,0,0-.34.34,1.15,1.15,0,0,0-.1.46,1,1,0,0,0,.05.32.72.72,0,0,0,.19.25,1.4,1.4,0,0,0,.36.23,4.55,4.55,0,0,0,.58.28,9,9,0,0,1,1.15.54,2.23,2.23,0,0,1,.71.64,1.65,1.65,0,0,1,.24.91,1.87,1.87,0,0,1-.16.8,1.63,1.63,0,0,1-.45.62,1.82,1.82,0,0,1-.7.38,2.85,2.85,0,0,1-.91.14,2.56,2.56,0,0,1-1.29-.3,2.07,2.07,0,0,1-.79-.79,2.16,2.16,0,0,1-.27-1h1.1a1.27,1.27,0,0,0,.21.73.93.93,0,0,0,.48.36,1.58,1.58,0,0,0,.56.1,1.46,1.46,0,0,0,.62-.11.76.76,0,0,0,.37-.31A.86.86,0,0,0,651.09,373.83Z"/><path class="cls-2" d="M493.26,126.48h1.15a4.1,4.1,0,0,1-.38,1.61,2.36,2.36,0,0,1-1,1,3.16,3.16,0,0,1-1.58.36,2.77,2.77,0,0,1-1.23-.27,2.74,2.74,0,0,1-.93-.77,3.56,3.56,0,0,1-.6-1.2,5.94,5.94,0,0,1-.2-1.58V124a5.47,5.47,0,0,1,.21-1.57,3.71,3.71,0,0,1,.6-1.21,2.66,2.66,0,0,1,1-.77,3.14,3.14,0,0,1,1.3-.26,2.91,2.91,0,0,1,1.49.35,2.27,2.27,0,0,1,1,1,4.18,4.18,0,0,1,.37,1.65h-1.15A3.87,3.87,0,0,0,493,122a1.39,1.39,0,0,0-.53-.67,1.78,1.78,0,0,0-.91-.21,1.83,1.83,0,0,0-.87.2,1.53,1.53,0,0,0-.59.57,2.55,2.55,0,0,0-.35.89,5.11,5.11,0,0,0-.12,1.16v1.69a5.66,5.66,0,0,0,.1,1.11,2.89,2.89,0,0,0,.31.9,1.58,1.58,0,0,0,.56.61,1.56,1.56,0,0,0,.85.22,2,2,0,0,0,1-.21,1.22,1.22,0,0,0,.54-.65A3.84,3.84,0,0,0,493.26,126.48Z"/><path class="cls-2" d="M495.57,126.32v-.64a4.46,4.46,0,0,1,.2-1.38,2.64,2.64,0,0,1,.56-1,2.18,2.18,0,0,1,.82-.6,2.52,2.52,0,0,1,1-.21,2.45,2.45,0,0,1,1,.21,2.24,2.24,0,0,1,.84.6,2.77,2.77,0,0,1,.55,1,4.18,4.18,0,0,1,.2,1.38v.64a4.18,4.18,0,0,1-.2,1.38,2.79,2.79,0,0,1-.55,1,2.33,2.33,0,0,1-.83.6,2.61,2.61,0,0,1-1,.2,2.65,2.65,0,0,1-1-.2,2.33,2.33,0,0,1-.83-.6,2.81,2.81,0,0,1-.56-1A4.46,4.46,0,0,1,495.57,126.32Zm1.1-.64v.64a3.52,3.52,0,0,0,.12,1,2.15,2.15,0,0,0,.31.7,1.58,1.58,0,0,0,.48.42,1.36,1.36,0,0,0,.6.14,1.53,1.53,0,0,0,.66-.14,1.35,1.35,0,0,0,.47-.42,2.38,2.38,0,0,0,.28-.7,4.64,4.64,0,0,0,.09-1v-.64a4,4,0,0,0-.11-1,2.16,2.16,0,0,0-.32-.7,1.35,1.35,0,0,0-.48-.42,1.39,1.39,0,0,0-.6-.14,1.31,1.31,0,0,0-.59.14,1.27,1.27,0,0,0-.48.42,2.15,2.15,0,0,0-.31.7A3.52,3.52,0,0,0,496.67,125.68Z"/><path class="cls-2" d="M503.3,124v5.39h-1.09v-6.73h1Zm-.22,1.77-.51,0a5.19,5.19,0,0,1,.13-1.28,3.15,3.15,0,0,1,.44-1,2,2,0,0,1,.73-.68,2.08,2.08,0,0,1,1-.24,1.89,1.89,0,0,1,.72.14,1.57,1.57,0,0,1,.58.42,1.88,1.88,0,0,1,.39.73,3.78,3.78,0,0,1,.14,1.08v4.49h-1.1v-4.43a2.25,2.25,0,0,0-.14-.85,1,1,0,0,0-.4-.46,1.37,1.37,0,0,0-1.28,0,1.21,1.21,0,0,0-.43.49,2.6,2.6,0,0,0-.23.73A5.9,5.9,0,0,0,503.08,125.74Zm3.63-.63-.74.23a3.72,3.72,0,0,1,.14-1.06,2.93,2.93,0,0,1,.42-.91,2,2,0,0,1,.71-.63,2,2,0,0,1,1-.24,2.1,2.1,0,0,1,.82.15,1.38,1.38,0,0,1,.6.44,2,2,0,0,1,.37.75,4.37,4.37,0,0,1,.13,1.1v4.42H509v-4.44a2.13,2.13,0,0,0-.14-.88.85.85,0,0,0-.39-.44,1.41,1.41,0,0,0-.61-.12,1,1,0,0,0-.51.13,1,1,0,0,0-.37.35,2.22,2.22,0,0,0-.23.52A2.59,2.59,0,0,0,506.71,125.11Z"/><path class="cls-2" d="M512.9,123.92v8h-1.1v-9.32h1Zm3.76,1.77v.63a6.34,6.34,0,0,1-.14,1.39,2.82,2.82,0,0,1-.43,1,1.8,1.8,0,0,1-.7.59,2.13,2.13,0,0,1-.94.2,1.88,1.88,0,0,1-.91-.21,1.83,1.83,0,0,1-.66-.58,3.31,3.31,0,0,1-.41-.93,6.17,6.17,0,0,1-.21-1.23v-1a7.64,7.64,0,0,1,.2-1.28,3.19,3.19,0,0,1,.42-1,1.72,1.72,0,0,1,.65-.61,1.78,1.78,0,0,1,.91-.22,2.42,2.42,0,0,1,1,.19,1.75,1.75,0,0,1,.69.58,2.82,2.82,0,0,1,.43,1A6,6,0,0,1,516.66,125.69Zm-1.1.63v-.63a5.63,5.63,0,0,0-.08-1,2.16,2.16,0,0,0-.27-.69,1.17,1.17,0,0,0-.45-.41,1.47,1.47,0,0,0-.66-.13,1.21,1.21,0,0,0-.58.13,1.39,1.39,0,0,0-.43.37,2.28,2.28,0,0,0-.3.53,3.28,3.28,0,0,0-.18.61V127a4.16,4.16,0,0,0,.28.75,1.75,1.75,0,0,0,.47.57,1.28,1.28,0,0,0,.75.22,1.49,1.49,0,0,0,.66-.14,1.17,1.17,0,0,0,.45-.41,2.13,2.13,0,0,0,.26-.7A5.63,5.63,0,0,0,515.56,126.32Z"/><path class="cls-2" d="M520.49,129.49a3.16,3.16,0,0,1-1.09-.18,2.23,2.23,0,0,1-.83-.55,2.58,2.58,0,0,1-.52-.94,4.43,4.43,0,0,1-.18-1.34v-.76a4.68,4.68,0,0,1,.21-1.5,2.73,2.73,0,0,1,.56-1,2.14,2.14,0,0,1,.81-.54,2.39,2.39,0,0,1,.92-.18,2.54,2.54,0,0,1,1.08.21,1.8,1.8,0,0,1,.73.61,3,3,0,0,1,.41,1,6.21,6.21,0,0,1,.14,1.37v.64h-4.21v-.94h3.1v-.16a3.56,3.56,0,0,0-.14-.92,1.25,1.25,0,0,0-.37-.62,1.11,1.11,0,0,0-.74-.23,1.52,1.52,0,0,0-.57.1,1,1,0,0,0-.44.36,1.84,1.84,0,0,0-.28.69,5,5,0,0,0-.11,1.12v.76a3.59,3.59,0,0,0,.11.93,1.65,1.65,0,0,0,.3.64,1.33,1.33,0,0,0,.5.38,1.78,1.78,0,0,0,.67.12,1.72,1.72,0,0,0,.92-.22,2.19,2.19,0,0,0,.63-.55l.58.69a2.37,2.37,0,0,1-1.18.87A3,3,0,0,1,520.49,129.49Z"/><path class="cls-2" d="M525.16,124.07v5.29h-1.1v-6.73h1Zm-.27,1.67-.45,0a4.72,4.72,0,0,1,.16-1.28,3.42,3.42,0,0,1,.47-1,2.38,2.38,0,0,1,.74-.68,1.94,1.94,0,0,1,1-.24,2,2,0,0,1,.75.14,1.33,1.33,0,0,1,.57.42,2.16,2.16,0,0,1,.37.76,4.6,4.6,0,0,1,.12,1.13v4.41h-1.1v-4.42a2.47,2.47,0,0,0-.11-.85.87.87,0,0,0-.35-.47,1.08,1.08,0,0,0-.59-.14,1.11,1.11,0,0,0-.6.18,1.63,1.63,0,0,0-.49.49,2.42,2.42,0,0,0-.32.73A3,3,0,0,0,524.89,125.74Z"/><path class="cls-2" d="M533.5,127.64a.77.77,0,0,0-.13-.45,1.32,1.32,0,0,0-.4-.37,6,6,0,0,0-.77-.39c-.31-.13-.59-.26-.83-.38a3.13,3.13,0,0,1-.63-.42,1.43,1.43,0,0,1-.39-.52,1.65,1.65,0,0,1-.13-.7,1.86,1.86,0,0,1,.15-.75,1.84,1.84,0,0,1,.43-.6,1.93,1.93,0,0,1,.68-.41,2.66,2.66,0,0,1,2,.12,1.86,1.86,0,0,1,.74.73,2.15,2.15,0,0,1,.26,1h-1.09a1.19,1.19,0,0,0-.13-.53.92.92,0,0,0-.37-.41,1,1,0,0,0-.59-.16,1.15,1.15,0,0,0-.59.13.8.8,0,0,0-.34.34,1,1,0,0,0-.1.46,1,1,0,0,0,0,.32.72.72,0,0,0,.19.25,1.92,1.92,0,0,0,.35.23c.16.08.35.18.59.28a9,9,0,0,1,1.15.54,2.22,2.22,0,0,1,.71.64,1.65,1.65,0,0,1,.24.91,1.87,1.87,0,0,1-.16.8,1.7,1.7,0,0,1-.45.61,2.08,2.08,0,0,1-.7.39,2.9,2.9,0,0,1-.91.14,2.47,2.47,0,0,1-1.29-.31,2,2,0,0,1-.79-.79,2.1,2.1,0,0,1-.27-1h1.1a1.27,1.27,0,0,0,.21.73,1.06,1.06,0,0,0,.48.36,1.68,1.68,0,0,0,1.17,0,.79.79,0,0,0,.38-.31A.86.86,0,0,0,533.5,127.64Z"/><path class="cls-2" d="M539.52,125.28v.81h-.77a2.6,2.6,0,0,0-.71.09,1.54,1.54,0,0,0-.55.25,1.07,1.07,0,0,0-.35.41,1.2,1.2,0,0,0-.12.55,1.44,1.44,0,0,0,.11.64.71.71,0,0,0,.33.35,1.35,1.35,0,0,0,.57.1,1.41,1.41,0,0,0,.74-.19,1.55,1.55,0,0,0,.49-.46.87.87,0,0,0,.16-.52l.25.52a1.75,1.75,0,0,1-.16.53,2.08,2.08,0,0,1-.37.54,2,2,0,0,1-.56.42,1.53,1.53,0,0,1-.72.17,2.19,2.19,0,0,1-1-.23,1.6,1.6,0,0,1-.68-.66,2.2,2.2,0,0,1-.25-1.07,2.37,2.37,0,0,1,.17-.9,2.08,2.08,0,0,1,.5-.71,2.31,2.31,0,0,1,.83-.47,3.73,3.73,0,0,1,1.16-.17Zm-.18,2.93v-3.65a1.43,1.43,0,0,0-.12-.64.74.74,0,0,0-.36-.36,1.5,1.5,0,0,0-.6-.11,1.27,1.27,0,0,0-.6.14,1.09,1.09,0,0,0-.39.38,1,1,0,0,0-.13.53H536a1.68,1.68,0,0,1,.16-.72,1.87,1.87,0,0,1,.45-.64,2.07,2.07,0,0,1,.72-.46,2.39,2.39,0,0,1,.94-.18,2.75,2.75,0,0,1,1.11.21,1.53,1.53,0,0,1,.75.65,2.38,2.38,0,0,1,.27,1.21v3.32a4.56,4.56,0,0,0,.06.72,2.71,2.71,0,0,0,.15.65v.1h-1.14a2,2,0,0,1-.12-.53A4.69,4.69,0,0,1,539.34,128.21Z"/><path class="cls-2" d="M544.48,128.55a1.33,1.33,0,0,0,.6-.14,1.13,1.13,0,0,0,.45-.42,1.76,1.76,0,0,0,.2-.76h1a2.37,2.37,0,0,1-.34,1.18,2.22,2.22,0,0,1-.82.79,2.25,2.25,0,0,1-1.12.29,2.81,2.81,0,0,1-1.13-.21,2.14,2.14,0,0,1-.8-.62,2.63,2.63,0,0,1-.47-1,5.16,5.16,0,0,1-.16-1.31v-.75a5.16,5.16,0,0,1,.16-1.31,2.63,2.63,0,0,1,.47-1,2,2,0,0,1,.8-.61,2.65,2.65,0,0,1,1.13-.22,2.38,2.38,0,0,1,1.19.29,2,2,0,0,1,.78.84,3,3,0,0,1,.31,1.31h-1a2.37,2.37,0,0,0-.18-.83,1.25,1.25,0,0,0-.43-.5,1.19,1.19,0,0,0-.64-.16,1.54,1.54,0,0,0-.72.15,1.1,1.1,0,0,0-.44.44,1.93,1.93,0,0,0-.23.69,5.93,5.93,0,0,0-.06.89v.75a6.17,6.17,0,0,0,.06.9,1.93,1.93,0,0,0,.23.69,1,1,0,0,0,.44.43A1.42,1.42,0,0,0,544.48,128.55Z"/><path class="cls-2" d="M548.06,120.84a.71.71,0,0,1,.16-.47.55.55,0,0,1,.46-.19.56.56,0,0,1,.47.19.71.71,0,0,1,.16.47.68.68,0,0,1-.16.46.56.56,0,0,1-.47.19.55.55,0,0,1-.46-.19A.68.68,0,0,1,548.06,120.84Zm1.16,1.79v6.73h-1.1v-6.73Z"/><path class="cls-2" d="M550.73,126.32v-.64a4.46,4.46,0,0,1,.2-1.38,2.77,2.77,0,0,1,.55-1,2.29,2.29,0,0,1,.83-.6,2.58,2.58,0,0,1,2,0,2.21,2.21,0,0,1,.83.6,2.64,2.64,0,0,1,.56,1,4.46,4.46,0,0,1,.2,1.38v.64a4.46,4.46,0,0,1-.2,1.38,3,3,0,0,1-.55,1,2.42,2.42,0,0,1-.83.6,2.69,2.69,0,0,1-1,.2,2.61,2.61,0,0,1-1-.2,2.33,2.33,0,0,1-.83-.6,2.81,2.81,0,0,1-.56-1A4.46,4.46,0,0,1,550.73,126.32Zm1.1-.64v.64a4,4,0,0,0,.11,1,2.16,2.16,0,0,0,.32.7,1.58,1.58,0,0,0,.48.42,1.33,1.33,0,0,0,.6.14,1.45,1.45,0,0,0,.65-.14,1.27,1.27,0,0,0,.47-.42,1.94,1.94,0,0,0,.28-.7,4,4,0,0,0,.1-1v-.64a4,4,0,0,0-.11-1,2.16,2.16,0,0,0-.32-.7,1.35,1.35,0,0,0-.48-.42,1.39,1.39,0,0,0-.6-.14,1.36,1.36,0,0,0-.6.14,1.25,1.25,0,0,0-.47.42,2.16,2.16,0,0,0-.32.7A4,4,0,0,0,551.83,125.68Zm.8-4.05,1.21-1.83h1.39l-1.67,1.83Z"/><path class="cls-2" d="M558.46,124.07v5.29h-1.1v-6.73h1Zm-.27,1.67-.45,0a4.72,4.72,0,0,1,.16-1.28,3.21,3.21,0,0,1,.48-1,2.24,2.24,0,0,1,.73-.68,2,2,0,0,1,1.7-.1,1.42,1.42,0,0,1,.58.42,2.34,2.34,0,0,1,.36.76,4.56,4.56,0,0,1,.13,1.13v4.41h-1.1v-4.42a2.44,2.44,0,0,0-.12-.85.87.87,0,0,0-.35-.47,1.05,1.05,0,0,0-.59-.14,1.11,1.11,0,0,0-.6.18,1.63,1.63,0,0,0-.49.49,2.42,2.42,0,0,0-.32.73A3,3,0,0,0,558.19,125.74Z"/><path class="cls-2" d="M566.22,126.32v-.63a5.42,5.42,0,0,1,.16-1.43,2.84,2.84,0,0,1,.46-1,1.91,1.91,0,0,1,.72-.58,2.29,2.29,0,0,1,.92-.19,1.72,1.72,0,0,1,.9.22,1.75,1.75,0,0,1,.63.61,3.45,3.45,0,0,1,.4,1,7.64,7.64,0,0,1,.2,1.28v.84a8.62,8.62,0,0,1-.2,1.28,3.27,3.27,0,0,1-.41,1,1.86,1.86,0,0,1-.63.62,1.81,1.81,0,0,1-.9.21,2.09,2.09,0,0,1-.91-.2,1.91,1.91,0,0,1-.71-.59,2.85,2.85,0,0,1-.47-1A5.26,5.26,0,0,1,566.22,126.32Zm1.1-.63v.63a5.42,5.42,0,0,0,.08,1,2,2,0,0,0,.26.69,1.06,1.06,0,0,0,.44.4,1.45,1.45,0,0,0,.65.13,1.29,1.29,0,0,0,.76-.22,1.68,1.68,0,0,0,.47-.6,4.71,4.71,0,0,0,.28-.8v-1.77a3.28,3.28,0,0,0-.18-.61,2.28,2.28,0,0,0-.3-.53,1.28,1.28,0,0,0-.43-.37,1.18,1.18,0,0,0-.58-.13,1.47,1.47,0,0,0-.66.13,1.11,1.11,0,0,0-.45.41,2.15,2.15,0,0,0-.25.69A4.74,4.74,0,0,0,567.32,125.69Zm2.67,2.37V119.8h1.09v9.56h-1Z"/><path class="cls-2" d="M575.19,129.49a3.12,3.12,0,0,1-1.09-.18,2.23,2.23,0,0,1-.83-.55,2.44,2.44,0,0,1-.52-.94,4.43,4.43,0,0,1-.18-1.34v-.76a4.68,4.68,0,0,1,.21-1.5,2.59,2.59,0,0,1,.56-1,2.1,2.1,0,0,1,.8-.54,2.47,2.47,0,0,1,.92-.18,2.55,2.55,0,0,1,1.09.21,1.8,1.8,0,0,1,.73.61,3,3,0,0,1,.41,1,6.25,6.25,0,0,1,.13,1.37v.64h-4.2v-.94h3.1v-.16a4,4,0,0,0-.14-.92,1.26,1.26,0,0,0-.38-.62,1.09,1.09,0,0,0-.74-.23,1.47,1.47,0,0,0-.56.1,1,1,0,0,0-.44.36,2,2,0,0,0-.29.69,5,5,0,0,0-.1,1.12v.76a3.63,3.63,0,0,0,.1.93,1.66,1.66,0,0,0,.31.64,1.26,1.26,0,0,0,.5.38,2,2,0,0,0,1.59-.1,2,2,0,0,0,.62-.55l.58.69a2.16,2.16,0,0,1-.47.49,2.28,2.28,0,0,1-.71.38A3,3,0,0,1,575.19,129.49Z"/><path class="cls-2" d="M491,144.78a3.08,3.08,0,0,1-1.09-.18,2.05,2.05,0,0,1-.83-.55,2.44,2.44,0,0,1-.52-.94,4.37,4.37,0,0,1-.18-1.33V141a5,5,0,0,1,.2-1.51,2.64,2.64,0,0,1,.57-1,2.06,2.06,0,0,1,.8-.55,2.8,2.8,0,0,1,2,0,1.74,1.74,0,0,1,.73.61,2.85,2.85,0,0,1,.42,1,6.16,6.16,0,0,1,.13,1.36v.64H489v-.94h3.11v-.15a4,4,0,0,0-.14-.92,1.25,1.25,0,0,0-.38-.63,1.09,1.09,0,0,0-.74-.23,1.47,1.47,0,0,0-.56.11,1,1,0,0,0-.44.35,1.82,1.82,0,0,0-.29.7,4.93,4.93,0,0,0-.1,1.12v.76a3.63,3.63,0,0,0,.1.93,1.74,1.74,0,0,0,.31.64,1.28,1.28,0,0,0,.49.37,1.83,1.83,0,0,0,.68.12,1.78,1.78,0,0,0,.91-.21,2.55,2.55,0,0,0,.63-.55l.58.69a2.68,2.68,0,0,1-.47.49,2.27,2.27,0,0,1-.71.37A3,3,0,0,1,491,144.78Z"/><path class="cls-2" d="M495.65,139.26v5.4h-1.09v-6.74h1Zm-.22,1.77h-.51a5.18,5.18,0,0,1,.14-1.28,3.2,3.2,0,0,1,.43-1,2,2,0,0,1,.73-.67,2.08,2.08,0,0,1,1-.24,1.88,1.88,0,0,1,.72.13,1.49,1.49,0,0,1,.58.42,1.93,1.93,0,0,1,.39.74,3.78,3.78,0,0,1,.14,1.08v4.49H498v-4.43a2.18,2.18,0,0,0-.14-.85.91.91,0,0,0-.4-.46,1.33,1.33,0,0,0-1.28,0,1.24,1.24,0,0,0-.43.5,2.54,2.54,0,0,0-.23.72A5.9,5.9,0,0,0,495.43,141Zm3.63-.63-.74.24a3.79,3.79,0,0,1,.14-1.07,3.05,3.05,0,0,1,.43-.91,2.22,2.22,0,0,1,.7-.63,2.1,2.1,0,0,1,1-.23,2.29,2.29,0,0,1,.81.14,1.47,1.47,0,0,1,.6.44,1.86,1.86,0,0,1,.37.76,3.88,3.88,0,0,1,.13,1.09v4.43h-1.1v-4.44a2.27,2.27,0,0,0-.14-.88.87.87,0,0,0-.4-.44,1.28,1.28,0,0,0-.61-.13,1,1,0,0,0-.51.13,1.27,1.27,0,0,0-.37.36,1.63,1.63,0,0,0-.22.52A2.07,2.07,0,0,0,499.06,140.4Z"/><path class="cls-2" d="M504.17,136.14a.71.71,0,0,1,.16-.48.59.59,0,0,1,.47-.19.62.62,0,0,1,.47.19.76.76,0,0,1,.15.48.68.68,0,0,1-.15.45.58.58,0,0,1-.47.19.56.56,0,0,1-.47-.19A.64.64,0,0,1,504.17,136.14Zm1.16,1.78v6.74h-1.09v-6.74Z"/><path class="cls-2" d="M510.34,142.93a.84.84,0,0,0-.12-.45,1.51,1.51,0,0,0-.41-.37,4.85,4.85,0,0,0-.76-.38q-.46-.19-.84-.39a2.74,2.74,0,0,1-.63-.41,1.52,1.52,0,0,1-.39-.52,1.95,1.95,0,0,1,0-1.45,2,2,0,0,1,.44-.61,2,2,0,0,1,.67-.41,2.66,2.66,0,0,1,.88-.14,2.35,2.35,0,0,1,1.17.27,1.82,1.82,0,0,1,.75.73,2.11,2.11,0,0,1,.25,1h-1.09a1.09,1.09,0,0,0-.13-.53,1,1,0,0,0-.36-.41,1.1,1.1,0,0,0-.59-.16,1.27,1.27,0,0,0-.6.13.77.77,0,0,0-.33.34,1,1,0,0,0-.11.46.76.76,0,0,0,.06.32.59.59,0,0,0,.18.25,1.87,1.87,0,0,0,.36.24c.15.08.34.17.58.27a7.32,7.32,0,0,1,1.15.55,2,2,0,0,1,.71.64,1.6,1.6,0,0,1,.24.91,1.91,1.91,0,0,1-.16.8,1.67,1.67,0,0,1-.45.61,2,2,0,0,1-.7.39,2.86,2.86,0,0,1-.91.13,2.53,2.53,0,0,1-1.28-.3,2,2,0,0,1-.8-.79,2.16,2.16,0,0,1-.27-1.05H508a1.24,1.24,0,0,0,.21.73,1.06,1.06,0,0,0,.48.37,1.84,1.84,0,0,0,.56.1,1.6,1.6,0,0,0,.62-.11.83.83,0,0,0,.37-.32A.84.84,0,0,0,510.34,142.93Z"/><path class="cls-2" d="M512.91,136.14a.71.71,0,0,1,.16-.48.58.58,0,0,1,.46-.19.59.59,0,0,1,.47.19.71.71,0,0,1,.16.48.64.64,0,0,1-.16.45.56.56,0,0,1-.47.19.55.55,0,0,1-.46-.19A.64.64,0,0,1,512.91,136.14Zm1.16,1.78v6.74H513v-6.74Z"/><path class="cls-2" d="M515.58,141.61V141a4.46,4.46,0,0,1,.2-1.38,3,3,0,0,1,.55-1,2.55,2.55,0,0,1,.83-.6,2.65,2.65,0,0,1,1-.2,2.61,2.61,0,0,1,1,.2,2.45,2.45,0,0,1,.83.6,2.81,2.81,0,0,1,.56,1,4.46,4.46,0,0,1,.2,1.38v.64a4.37,4.37,0,0,1-.2,1.38,2.77,2.77,0,0,1-.55,1,2.29,2.29,0,0,1-.83.6,2.69,2.69,0,0,1-1,.2,2.61,2.61,0,0,1-1-.2,2.21,2.21,0,0,1-.83-.6,2.64,2.64,0,0,1-.56-1A4.37,4.37,0,0,1,515.58,141.61Zm1.1-.64v.64a3.93,3.93,0,0,0,.11,1,2.16,2.16,0,0,0,.32.7,1.35,1.35,0,0,0,.48.42,1.33,1.33,0,0,0,.6.14,1.45,1.45,0,0,0,.65-.14,1.12,1.12,0,0,0,.47-.42,1.94,1.94,0,0,0,.28-.7,4,4,0,0,0,.1-1V141a4,4,0,0,0-.11-1,2.2,2.2,0,0,0-.32-.69,1.49,1.49,0,0,0-.48-.43,1.39,1.39,0,0,0-.6-.14,1.24,1.24,0,0,0-1.07.57,2.2,2.2,0,0,0-.32.69A4,4,0,0,0,516.68,141Z"/><path class="cls-2" d="M523.31,139.36v5.3h-1.1v-6.74h1ZM523,141h-.45a4.72,4.72,0,0,1,.16-1.28,3.26,3.26,0,0,1,.48-1A2.21,2.21,0,0,1,524,138a2.09,2.09,0,0,1,1.7-.11,1.36,1.36,0,0,1,.58.43,2.28,2.28,0,0,1,.36.75,4.56,4.56,0,0,1,.13,1.13v4.42h-1.1v-4.43a2.51,2.51,0,0,0-.12-.85.84.84,0,0,0-.35-.46,1.05,1.05,0,0,0-.59-.15,1.11,1.11,0,0,0-.6.18,1.67,1.67,0,0,0-.49.5,2.36,2.36,0,0,0-.32.72A3,3,0,0,0,523,141Z"/><path class="cls-2" d="M530.79,144.78a3.16,3.16,0,0,1-1.09-.18,2.12,2.12,0,0,1-.83-.55,2.58,2.58,0,0,1-.52-.94,4.37,4.37,0,0,1-.18-1.33V141a4.7,4.7,0,0,1,.21-1.51,2.76,2.76,0,0,1,.56-1,2.21,2.21,0,0,1,.8-.55,2.82,2.82,0,0,1,2,0,1.8,1.8,0,0,1,.73.61,3,3,0,0,1,.41,1A6.16,6.16,0,0,1,533,141v.64h-4.2v-.94h3.1v-.15a3.49,3.49,0,0,0-.14-.92,1.23,1.23,0,0,0-.37-.63,1.11,1.11,0,0,0-.74-.23,1.52,1.52,0,0,0-.57.11,1,1,0,0,0-.44.35,2,2,0,0,0-.29.7,5.58,5.58,0,0,0-.1,1.12v.76a4.14,4.14,0,0,0,.1.93,1.74,1.74,0,0,0,.31.64,1.24,1.24,0,0,0,.5.37,1.74,1.74,0,0,0,.67.12,1.82,1.82,0,0,0,.92-.21,2.55,2.55,0,0,0,.63-.55l.57.69a2.61,2.61,0,0,1-.46.49,2.38,2.38,0,0,1-.71.37A3,3,0,0,1,530.79,144.78Z"/><path class="cls-2" d="M537.62,142.93a.84.84,0,0,0-.12-.45,1.38,1.38,0,0,0-.41-.37,4.85,4.85,0,0,0-.76-.38q-.47-.19-.84-.39a2.9,2.9,0,0,1-.62-.41,1.52,1.52,0,0,1-.39-.52,1.68,1.68,0,0,1-.14-.7,1.87,1.87,0,0,1,.16-.75,1.83,1.83,0,0,1,.43-.61,2.15,2.15,0,0,1,.67-.41,2.71,2.71,0,0,1,.88-.14,2.35,2.35,0,0,1,1.17.27,1.76,1.76,0,0,1,.75.73,2.11,2.11,0,0,1,.26,1h-1.1a1.21,1.21,0,0,0-.12-.53,1.12,1.12,0,0,0-.37-.41,1.1,1.1,0,0,0-.59-.16,1.27,1.27,0,0,0-.6.13.89.89,0,0,0-.33.34,1,1,0,0,0-.1.46.77.77,0,0,0,0,.32.69.69,0,0,0,.18.25,1.87,1.87,0,0,0,.36.24c.15.08.35.17.58.27a7.32,7.32,0,0,1,1.15.55,2,2,0,0,1,.71.64,1.6,1.6,0,0,1,.25.91,2.08,2.08,0,0,1-.16.8,1.93,1.93,0,0,1-.45.61,2.08,2.08,0,0,1-.7.39,3,3,0,0,1-.92.13,2.55,2.55,0,0,1-1.28-.3,2.09,2.09,0,0,1-.8-.79,2.16,2.16,0,0,1-.27-1.05h1.1a1.32,1.32,0,0,0,.22.73,1,1,0,0,0,.47.37,1.89,1.89,0,0,0,.56.1,1.6,1.6,0,0,0,.62-.11.86.86,0,0,0,.38-.32A.92.92,0,0,0,537.62,142.93Z"/><path class="cls-2" d="M542.86,141.61V141a5.47,5.47,0,0,1,.16-1.43,2.84,2.84,0,0,1,.46-1,1.79,1.79,0,0,1,.72-.57,2.1,2.1,0,0,1,.92-.19,1.69,1.69,0,0,1,1.53.82,3.45,3.45,0,0,1,.4,1,7.61,7.61,0,0,1,.2,1.29v.84A7.6,7.6,0,0,1,547,143a3.23,3.23,0,0,1-.4,1,1.75,1.75,0,0,1-.63.61,1.88,1.88,0,0,1-.91.21,1.92,1.92,0,0,1-.9-.2,1.85,1.85,0,0,1-.72-.59,2.84,2.84,0,0,1-.46-1A5.21,5.21,0,0,1,542.86,141.61ZM544,141v.63a5.54,5.54,0,0,0,.08,1,1.82,1.82,0,0,0,.26.68,1,1,0,0,0,.44.4,1.45,1.45,0,0,0,.65.13,1.17,1.17,0,0,0,.75-.22,1.52,1.52,0,0,0,.47-.59,4.23,4.23,0,0,0,.29-.8v-1.77a3.07,3.07,0,0,0-.18-.61,2.09,2.09,0,0,0-.3-.53,1.27,1.27,0,0,0-.43-.37,1.12,1.12,0,0,0-.59-.14,1.33,1.33,0,0,0-.65.14,1,1,0,0,0-.45.41,2,2,0,0,0-.26.69A5.5,5.5,0,0,0,544,141Zm2.66,2.37V135.1h1.1v9.56h-1Z"/><path class="cls-2" d="M551.83,144.78a3.08,3.08,0,0,1-1.09-.18,2.05,2.05,0,0,1-.83-.55,2.44,2.44,0,0,1-.52-.94,4.37,4.37,0,0,1-.18-1.33V141a5,5,0,0,1,.2-1.51,2.64,2.64,0,0,1,.57-1,2.06,2.06,0,0,1,.8-.55,2.8,2.8,0,0,1,2,0,1.74,1.74,0,0,1,.73.61,2.85,2.85,0,0,1,.42,1,6.16,6.16,0,0,1,.13,1.36v.64h-4.21v-.94H553v-.15a4,4,0,0,0-.14-.92,1.25,1.25,0,0,0-.38-.63,1.09,1.09,0,0,0-.74-.23,1.47,1.47,0,0,0-.56.11,1,1,0,0,0-.44.35,1.82,1.82,0,0,0-.29.7,4.93,4.93,0,0,0-.1,1.12v.76a3.63,3.63,0,0,0,.1.93,1.74,1.74,0,0,0,.31.64,1.28,1.28,0,0,0,.49.37,2,2,0,0,0,1.59-.09,2.55,2.55,0,0,0,.63-.55l.58.69a2.68,2.68,0,0,1-.47.49,2.27,2.27,0,0,1-.71.37A3,3,0,0,1,551.83,144.78Z"/><path class="cls-2" d="M563,141.78h1.15a4.05,4.05,0,0,1-.38,1.6,2.36,2.36,0,0,1-1,1,3.16,3.16,0,0,1-1.58.36,2.77,2.77,0,0,1-1.23-.27,2.6,2.6,0,0,1-.93-.76,3.71,3.71,0,0,1-.6-1.21,5.94,5.94,0,0,1-.2-1.58v-1.67a5.54,5.54,0,0,1,.21-1.58,3.38,3.38,0,0,1,.6-1.2,2.56,2.56,0,0,1,1-.77,3.31,3.31,0,0,1,2.79.08,2.37,2.37,0,0,1,.95,1,4.18,4.18,0,0,1,.37,1.65H563a3.93,3.93,0,0,0-.22-1.17,1.32,1.32,0,0,0-.53-.66,1.78,1.78,0,0,0-.91-.22,1.83,1.83,0,0,0-.87.2,1.69,1.69,0,0,0-.59.57,2.63,2.63,0,0,0-.35.89,5.23,5.23,0,0,0-.12,1.16V141a5.52,5.52,0,0,0,.1,1.11,3,3,0,0,0,.31.91,1.65,1.65,0,0,0,.56.61,1.62,1.62,0,0,0,.85.21,2,2,0,0,0,1-.2,1.27,1.27,0,0,0,.55-.65A3.84,3.84,0,0,0,563,141.78Z"/><path class="cls-2" d="M569,140.57l0,.81h-.77a2.6,2.6,0,0,0-.71.09,1.74,1.74,0,0,0-.55.25,1.06,1.06,0,0,0-.35.41,1.23,1.23,0,0,0-.12.55,1.49,1.49,0,0,0,.11.65.65.65,0,0,0,.33.34,1.35,1.35,0,0,0,.57.11,1.44,1.44,0,0,0,.73-.19,1.51,1.51,0,0,0,.5-.47.82.82,0,0,0,.16-.51l.25.52a1.7,1.7,0,0,1-.16.52,2.08,2.08,0,0,1-.37.54,2,2,0,0,1-.56.43,1.53,1.53,0,0,1-.72.16,2.19,2.19,0,0,1-1-.22,1.6,1.6,0,0,1-.68-.66,2.21,2.21,0,0,1-.25-1.08,2.44,2.44,0,0,1,.17-.9,2,2,0,0,1,.5-.71,2.31,2.31,0,0,1,.83-.47,3.68,3.68,0,0,1,1.16-.17Zm-.17,2.94v-3.66a1.46,1.46,0,0,0-.12-.64.72.72,0,0,0-.36-.35,1.34,1.34,0,0,0-.6-.12,1.16,1.16,0,0,0-.6.15,1,1,0,0,0-.39.38,1,1,0,0,0-.13.52h-1.1a1.86,1.86,0,0,1,.15-.72,2.16,2.16,0,0,1,.46-.64,2.22,2.22,0,0,1,.72-.46,2.58,2.58,0,0,1,.94-.17,2.93,2.93,0,0,1,1.11.2,1.6,1.6,0,0,1,.75.66,2.32,2.32,0,0,1,.27,1.2v3.33a4.53,4.53,0,0,0,.06.71,2.8,2.8,0,0,0,.15.66v.1H569a2,2,0,0,1-.13-.54C568.86,143.9,568.84,143.7,568.84,143.51Z"/><path class="cls-2" d="M572.75,139v5.68h-1.1v-6.74h1.06Zm1.67-1.09V139a1.18,1.18,0,0,0-.25,0h-.25a1.13,1.13,0,0,0-.54.12,1.12,1.12,0,0,0-.4.35,1.56,1.56,0,0,0-.27.53,3.41,3.41,0,0,0-.14.68l-.29.18a6.81,6.81,0,0,1,.1-1.14,4.08,4.08,0,0,1,.3-.95,1.82,1.82,0,0,1,.53-.65,1.3,1.3,0,0,1,.77-.23l.24,0A.41.41,0,0,1,574.42,137.89Z"/><path class="cls-2" d="M575.53,135.1h1.1v8.25l-.09,1.31h-1Zm4.88,5.88v.63a5.69,5.69,0,0,1-.15,1.39,2.65,2.65,0,0,1-.43,1,1.72,1.72,0,0,1-.7.59,2,2,0,0,1-.94.2,1.84,1.84,0,0,1-.9-.21,1.75,1.75,0,0,1-.63-.61,3.23,3.23,0,0,1-.4-1,7.6,7.6,0,0,1-.21-1.28v-.84a8.76,8.76,0,0,1,.2-1.29,3.45,3.45,0,0,1,.4-1,1.78,1.78,0,0,1,.64-.61,1.81,1.81,0,0,1,.9-.21,2.24,2.24,0,0,1,.95.19,1.65,1.65,0,0,1,.69.57,2.65,2.65,0,0,1,.43,1A6,6,0,0,1,580.41,141Zm-1.1.63V141a6.78,6.78,0,0,0-.07-1,2,2,0,0,0-.24-.69,1,1,0,0,0-.43-.41,1.36,1.36,0,0,0-.67-.14,1.15,1.15,0,0,0-.59.14,1.37,1.37,0,0,0-.43.37,2.09,2.09,0,0,0-.3.53,3.05,3.05,0,0,0-.17.61v1.77a3,3,0,0,0,.26.77,1.61,1.61,0,0,0,.48.61,1.19,1.19,0,0,0,.76.23,1.38,1.38,0,0,0,.64-.13,1,1,0,0,0,.43-.4,1.82,1.82,0,0,0,.25-.68A5.54,5.54,0,0,0,579.31,141.61Z"/><path class="cls-2" d="M581.59,141.61V141a4.18,4.18,0,0,1,.2-1.38,2.79,2.79,0,0,1,.55-1,2.45,2.45,0,0,1,.83-.6,2.6,2.6,0,0,1,1-.2,2.7,2.7,0,0,1,1,.2,2.55,2.55,0,0,1,.83.6,3,3,0,0,1,.56,1,4.46,4.46,0,0,1,.2,1.38v.64a4.37,4.37,0,0,1-.2,1.38,2.79,2.79,0,0,1-.56,1,2.13,2.13,0,0,1-.83.6,2.61,2.61,0,0,1-1,.2,2.69,2.69,0,0,1-1-.2,2.29,2.29,0,0,1-.83-.6,2.63,2.63,0,0,1-.55-1A4.1,4.1,0,0,1,581.59,141.61Zm1.1-.64v.64a3.93,3.93,0,0,0,.11,1,2,2,0,0,0,.32.7,1.2,1.2,0,0,0,.48.42,1.31,1.31,0,0,0,.59.14,1.53,1.53,0,0,0,.66-.14,1.12,1.12,0,0,0,.47-.42,2.13,2.13,0,0,0,.28-.7,4.57,4.57,0,0,0,.09-1V141a3.55,3.55,0,0,0-.11-1,2,2,0,0,0-.32-.69,1.31,1.31,0,0,0-1.67-.43,1.49,1.49,0,0,0-.48.43,2.19,2.19,0,0,0-.31.69A4,4,0,0,0,582.69,141Z"/><path class="cls-2" d="M589.32,139.36v5.3h-1.11v-6.74h1Zm-.27,1.67h-.45a4.72,4.72,0,0,1,.16-1.28,3.48,3.48,0,0,1,.47-1A2.24,2.24,0,0,1,590,138a1.92,1.92,0,0,1,.95-.24,2,2,0,0,1,.75.13,1.39,1.39,0,0,1,.57.43,1.94,1.94,0,0,1,.36.75,4.13,4.13,0,0,1,.13,1.13v4.42h-1.1v-4.43a2.83,2.83,0,0,0-.11-.85.89.89,0,0,0-.35-.46,1.08,1.08,0,0,0-.59-.15,1.06,1.06,0,0,0-.6.18,1.67,1.67,0,0,0-.49.5,2.64,2.64,0,0,0-.33.72A3.43,3.43,0,0,0,589.05,141Z"/><path class="cls-2" d="M594.16,141.61V141a4.18,4.18,0,0,1,.2-1.38,2.79,2.79,0,0,1,.55-1,2.45,2.45,0,0,1,.83-.6,2.6,2.6,0,0,1,1-.2,2.7,2.7,0,0,1,1,.2,2.55,2.55,0,0,1,.83.6,3,3,0,0,1,.56,1,4.46,4.46,0,0,1,.2,1.38v.64a4.37,4.37,0,0,1-.2,1.38,2.79,2.79,0,0,1-.56,1,2.18,2.18,0,0,1-.82.6,2.73,2.73,0,0,1-2,0,2.29,2.29,0,0,1-.83-.6,2.63,2.63,0,0,1-.55-1A4.1,4.1,0,0,1,594.16,141.61Zm1.1-.64v.64a3.93,3.93,0,0,0,.11,1,2.16,2.16,0,0,0,.32.7,1.2,1.2,0,0,0,.48.42,1.31,1.31,0,0,0,.59.14,1.53,1.53,0,0,0,.66-.14,1.12,1.12,0,0,0,.47-.42,1.94,1.94,0,0,0,.28-.7,4.57,4.57,0,0,0,.09-1V141a3.55,3.55,0,0,0-.11-1,2.19,2.19,0,0,0-.31-.69,1.43,1.43,0,0,0-.49-.43,1.33,1.33,0,0,0-1.19,0,1.37,1.37,0,0,0-.47.43,2.2,2.2,0,0,0-.32.69A4,4,0,0,0,595.26,141Z"/></g></g></svg>