<svg id="Capa_1" data-name="Capa 1" xmlns="http://www.w3.org/2000/svg" xmlns:xlink="http://www.w3.org/1999/xlink" viewBox="0 0 1014.35 339.97"><defs><style>.cls-1{fill:none;}.cls-2{clip-path:url(#clip-path);}.cls-3{fill:#dbd59e;}.cls-4{fill:#cfca9d;}.cls-5{fill:#fdce75;}</style><clipPath id="clip-path"><path class="cls-1" d="M0,0H904.29c60.78,0,110.06,48.92,110.06,109.26V340H110.06C49.28,340,0,291.05,0,230.7Z"/></clipPath></defs><g class="cls-2"><rect class="cls-3" width="1014.35" height="339.97"/><path class="cls-4" d="M236.45,242.47c-13.71-6.23-30.14-7-48.18-4.94,10.46-50.42,35.54-55.69,35.54-55.69-29.75,5.32-38.26,49.66-39.36,56.17-19.44,2.61-40.62,8.24-62.24,13.78-17.79-59.66-3-99.49,17.86-125l.27.27c.88,18.57,8.66,32.56,19.74,41.49.5-.92,1-1.85,1.58-2.77l.11-.19c.54-.88,1.1-1.75,1.69-2.59,3-4.3,6.57-7.77,10.32-7.68,4.05.1,4,6.72,2.51,14.45-.21,1.08-.44,2.19-.7,3.3l-.06.26c-.26,1.15-.55,2.3-.84,3.45A53.89,53.89,0,0,0,193.84,180v0h0a54.4,54.4,0,0,0,26.3-7.12c-.21-.55-.43-1.12-.63-1.7l0-.06c-.2-.57-.39-1.15-.57-1.72v0c-.18-.59-.34-1.17-.49-1.74h0c-.14-.57-.26-1.13-.34-1.66-.33-1.92-.26-3.54.53-4.36,1.05-1.08,2,.16,2.84,2.2.09.21.17.44.26.68a.78.78,0,0,0,.05.14c.07.2.14.4.2.61l.09.27q.08.24.15.51l.12.4c0,.13.08.27.11.41s.1.34.14.52.06.24.09.36l.15.56c0,.16.07.3.1.46s.07.3.11.45c.13.59.25,1.17.36,1.69a56.49,56.49,0,0,0,10.21-8.76l-1.78-1.77-.32-.32-.15-.16c-.71-.72-1.46-1.48-2.23-2.28-11.34-11.82-28.29-32-14.86-35.12,11.95-2.77,20.08,12.23,24.51,23.91l.56,1.53.07.2.46,1.29.12.36c.13.38.26.75.38,1.12,0,.11.07.22.1.32l.43,1.33A115.71,115.71,0,0,0,247.54,141v0a112,112,0,0,0,10.09-30.65L256.58,109c-.19-.22-.37-.45-.55-.67l-.63-.79c-5.8-7.26-11.06-15.36-5.87-15.6a11.91,11.91,0,0,1,8.12,3.17c.2.16.4.32.59.49s.64.58.95.89c.7-14.08-1.52-23.32-1.52-23.32-8,9.93-17.68,9.76-28.56,5a6.77,6.77,0,0,1,.1,1.17,2.91,2.91,0,0,1-.68,2.2c-.87.82-1.66-1.13-2.29-3.6-.1-.41-.2-.84-.3-1.27-1.68-.85-3.38-1.8-5.11-2.82-2.31,1.4-5.29,2.55-8.17,1.65s-2.23-3.94-.73-6.68h0l.27-.47c-6.55-4.42-13.35-9.41-20.28-14l-.07,0h0a133.79,133.79,0,0,0-20.2-11.56c-.12.84-.25,1.67-.4,2.48-1,5.51-3,10-6.63,9-4.29-1.19-5.49-7.24-5.63-13,0-.87,0-1.74,0-2.58a34.18,34.18,0,0,0-27.12,5.73c-.38.26-.74.52-1.1.79h0l.14-.08-.2.14.06-.06-.76.58-.65.5c-.65.51-1.29,1-1.89,1.55,1,3.61,1.66,7.89-.2,9.43-1.56,1.31-2.66-.56-3.39-3-.12-.37-.22-.77-.32-1.17h0c-.1-.4-.19-.81-.27-1.21a37.39,37.39,0,0,0-5.93,8.69h0l-.07.15h0a34.16,34.16,0,0,0-2.28,6.2l1.75,1.25.21.15,1.66,1.24c6.83,5.19,13.67,11.62,11.07,15.05-1.83,2.42-6.16-.28-10.81-4.55l-.93-.87-.29-.28c-.34-.32-.68-.66-1-1l-.23-.23-1.06-1.08-.19-.2c-.42-.43-.83-.86-1.24-1.3-.31,18.86,13.48,37.48,21.25,46.45C173.56,77,215.39,98.91,215.39,98.91c-37.36-10.7-64,11-77.18,25.94l0,0c-41.29,47.44-25.6,111.13-20.4,128l-7,1.76c.94-9.18,3-47.47-24.5-71.44h-.1S75.69,171.73,52,174.52c0,0,17.82-4.52,31.92,4,3.45-6.08,9.76-19.26,7.15-30.76q-.57.94-1.17,1.86l0,0c-.39.59-.78,1.16-1.17,1.7-2.22,3.09-4.45,5.21-5.83,4-2-1.73,1.31-6.41,4.74-10.34q.34-.41.69-.78l.25-.29.85-.92a20.46,20.46,0,0,0-2.13-3.4h0l-.06-.08h0a22.71,22.71,0,0,0-4.61-4.43c0,.49,0,1,0,1.5h0c-.14,1.52-.56,2.76-1.65,2.18-1.29-.69-1.43-3.32-1.29-5.59-.64-.35-1.32-.69-2-1l-.27-.14,0,0-.15-.07.1,0h0l-.75-.33a21.44,21.44,0,0,0-8.07-1.82h-.06a21.82,21.82,0,0,0-8.71,1.74c.12.51.24,1,.33,1.57.63,3.43.66,7.15-1.73,8.38-2.06,1.05-3.78-1.42-5.08-4.58q-.28-.69-.54-1.41a81,81,0,0,0-10.57,9.36h0l0,0h0c-3.55,3.61-7,7.41-10.31,10.84,1.34,1.49,2.38,3.34.61,4.31a6.24,6.24,0,0,1-5.06,0c-.9.82-1.8,1.59-2.69,2.3,0,.26,0,.51,0,.77-.06,1.55-.29,2.83-.92,2.44a1.74,1.74,0,0,1-.67-1.23,3.94,3.94,0,0,1-.09-.7c-5.87,4.17-11.64,5.47-17.6.54a54.91,54.91,0,0,0,2,14.05,11.49,11.49,0,0,1,.9-1.21,7.08,7.08,0,0,1,4.28-2.68c3-.48,1.08,4.73-1.39,9.67-.38.76-.77,1.51-1.16,2.24a68.58,68.58,0,0,0,9.8,17h0l0,0h0a71,71,0,0,0,5.39,6.08c.06-.59.12-1.22.21-1.88v0c.09-.66.18-1.36.3-2.08h0c1.18-7.48,4.15-17.33,11.58-17.15,8.39.2.79,14.33-4.49,22.74-.35.56-.7,1.1-1,1.6l-.1.16-.95,1.44a33.94,33.94,0,0,0,7.16,4,26.67,26.67,0,0,1,.27-4.44h0c.23-1.31.65-2.17,1.41-1.65.59.4.82,1.39.86,2.6,0,.24,0,.49,0,.74v.28c0,.26,0,.53-.06.79,0,.1,0,.2,0,.3,0,.27-.06.54-.09.8l0,.31c0,.36-.11.72-.17,1.07a33.08,33.08,0,0,0,16.53,1h0a32.6,32.6,0,0,0,11-4.27c-.32-.65-.64-1.3-.94-1.95a.61.61,0,0,0-.07-.14c-.28-.63-.56-1.26-.81-1.87-1.85-4.42-2.72-8.36-.32-8.91,2.22-.51,4.77,1.1,7.08,3.28.46.44.91.89,1.35,1.36a.6.6,0,0,0,.08.08c.44.48.87,1,1.28,1.46,5.48-6.67,8.37-15.94,6.58-27.09l.13-.19c15.82,12.82,25.57,32.35,25.74,73.72-44.13,10.83-88.79,18.36-122.93-3.57A302.39,302.39,0,0,0-47,234c-.55-10.43-1.66-44,4.93-68.9,0,0-9.47,28.26-7.21,67.82-25.65-12.11-47.55-17.64-63.46-20.11,12.78-20.91-8.83-30.46-8.83-30.46-.71,14.89,2.69,25,4.95,29.91-15.14-2-23.9-1.16-23.9-1.16V362.68H417.56C324.9,362.68,298.57,270.69,236.45,242.47Z"/><path class="cls-5" d="M818,151.33h0a52.3,52.3,0,0,0,9.7,1.47h.1a33.16,33.16,0,0,0,7.56-.44h0l.18,0h0a21.66,21.66,0,0,0,7.47-2.81h0l.09-.06h0a18.2,18.2,0,0,0,6.42-7h0l0-.05h0a17.16,17.16,0,0,0,1.74-4.93v0a34.45,34.45,0,0,0-9.59-2.59h0l-.23,0v0a21.18,21.18,0,0,0-10.14,1.29v0l-.12.05v0a20.16,20.16,0,0,0-2.9,1.46h0l-.07,0h0a23.25,23.25,0,0,0-6.32,6h0l-.06.09h0a28,28,0,0,0-4,7.57Z"/><path class="cls-5" d="M832.56,178.76h0a.41.41,0,0,1,.05-.09h0a51.73,51.73,0,0,0,4.22-8.68,28.06,28.06,0,0,0-8.36-1h-.11a22.92,22.92,0,0,0-8.35,1.77h0l-.08,0h0a19.66,19.66,0,0,0-2.81,1.51h0l-.12.07h0a20.72,20.72,0,0,0-6.68,7.41h0c0,.06-.07.13-.11.2h0a33.38,33.38,0,0,0-3.22,9.13h0a17.11,17.11,0,0,0,5,1.35h0a18.13,18.13,0,0,0,9.24-1.28h0l.05,0h0l.06,0h0a21.12,21.12,0,0,0,6.44-4.42h0a1.59,1.59,0,0,0,.13-.13h0A31.71,31.71,0,0,0,832.56,178.76Z"/><path class="cls-5" d="M834.28,176.36q-2.06,4.8-3.73,9.28C831.27,183.76,832.5,180.62,834.28,176.36Z"/><path class="cls-5" d="M830.55,185.64c-.53,1.36-.78,2.08-.78,2.08C830,187,830.28,186.34,830.55,185.64Z"/><path class="cls-5" d="M961.59-30.14c4.46-6.22,7-9.73,7-9.73q-4,4.88-7.93,9.73H508.38S523.62,36.45,623.22,41.5c54.52,2.76,62.15,32.72,68.21,60.44-25.28-15.57-42.76-10.31-42.76-10.31,20.27,19.62,39.69,16.91,39.69,16.91-49.51,13.49-46.6,55.35-46.6,55.35,24.39-8.82,44.16-34.21,53.08-47.31,4.51,16.77,11.8,30.37,34.08,32.87l1.19.12a60.84,60.84,0,0,1-24.9,48.65c24.18-13.87,29.18-38.74,30.22-48.44a43.14,43.14,0,0,0,8.72-.95c3.28,16.22,5.81,48.75-12.52,88.4,0,0,30.1-42.78,18.13-90,41-15.41,40.92-93.42,95-78.45,1.65.45,3.27,1,4.87,1.6,0,.53,0,1.06,0,1.57a.57.57,0,0,1,0,.13h0a42.52,42.52,0,0,0,1,10s0,.08,0,.12h0c2.5,10.44,8.87,15.4,13.88,17.73h0l.06,0h0a23.67,23.67,0,0,0,6.49,2q-3.89,6.93-7.39,13.44a34,34,0,0,0-6.77-5.69h0l-.2-.12h0a21.12,21.12,0,0,0-9.7-3.21H847a20,20,0,0,0-3.3.07h-.08a23.35,23.35,0,0,0-8.3,2.63h0l-.09.05h0a28,28,0,0,0-6.89,5.11l.07.06h0a52.88,52.88,0,0,0,8.1,5.5h0l.08,0h0a32.17,32.17,0,0,0,7,2.86v0l.18,0h0a21.56,21.56,0,0,0,8,.69h.14a18.37,18.37,0,0,0,8.83-3.5h0l0,0h0c.38-.28.73-.56,1-.83-8.92,16.76-15.81,31.08-20.87,42.24h0l0,.08h0c-.12.25-.21.49-.31.74-2.56,5.65-4.62,10.44-6.24,14.33,1.48-3.47,3.09-7.07,4.82-10.75a48,48,0,0,0-1.46,4.9h0a.29.29,0,0,1,0,.09h0a31.93,31.93,0,0,0-.91,7.47h0v.19h0c.09,8.15,4,12.89,7.28,15.44h0l0,0h0a17.33,17.33,0,0,0,4.6,2.58,34.46,34.46,0,0,0,4.28-8.91h0c0-.07.05-.14.07-.22A20.74,20.74,0,0,0,853.5,177h0a18.69,18.69,0,0,0-1-3.28h0a22.87,22.87,0,0,0-4.77-7.23h0l-.08-.07a28.9,28.9,0,0,0-6.53-5.07c2.34-4.85,4.88-9.86,7.56-15a78.71,78.71,0,0,0,2.61,14.23h0l0,.08a48.65,48.65,0,0,0,4.31,10.45h0c.05.08.1.16.14.24h0c6.1,10.55,14.64,13.9,20.83,14.83a25.5,25.5,0,0,0,7.93,0h0a50.77,50.77,0,0,0-1-14.7h0c0-.11-.05-.23-.07-.34h0a31.37,31.37,0,0,0-6.77-13.59h0l0,0-.1-.11h0a29.45,29.45,0,0,0-3.53-3.38l-.07-.05h0a34.66,34.66,0,0,0-11.52-6h0a43,43,0,0,0-12.67-1.9q2.48-4.75,5.14-9.61A53,53,0,0,0,861.9,142h0l.09,0h0a32.62,32.62,0,0,0,7,2.86h0l.17,0h0a21.8,21.8,0,0,0,8,.69h0l.1,0h0a18.42,18.42,0,0,0,8.83-3.5h0l0,0h0a17,17,0,0,0,3.73-3.7h0a34.33,34.33,0,0,0-7.5-6.48h0l-.19-.13h0a21.22,21.22,0,0,0-9.78-3.22h-.06a19.56,19.56,0,0,0-3.26.07H869a23.21,23.21,0,0,0-8.3,2.63h0l-.09.05a29.52,29.52,0,0,0-6.21,4.45c7.66-14,16.25-28.61,25.21-43.21a60.59,60.59,0,0,0-.53,7.52.25.25,0,0,1,0,.08h0a42.24,42.24,0,0,0,1,9.86,2,2,0,0,1,0,.24h0a27.93,27.93,0,0,0,4.16,9.59h0l0,0,.06.09s0,0,0,0h0a24.1,24.1,0,0,0,9.61,8l.05,0h0a22.51,22.51,0,0,0,6.64,2h0s0,0,0,0a45.16,45.16,0,0,0,2.9-12.67h0c0-.1,0-.2,0-.3.05-.92.05-1.8,0-2.67,32.34,32.46,70.92,65,145.36,37.28V-30.14ZM874.18,89.21l0-.3h0a31.7,31.7,0,0,0,0-3.23c1.38,1.16,2.74,2.36,4.11,3.59q-3.5,6-6.73,11.73A43.89,43.89,0,0,0,874.18,89.21Z"/></g></svg>