<svg xmlns="http://www.w3.org/2000/svg" viewBox="0 0 236.07 271.59"><defs><style>.cls-1{fill:#6c2912;}.cls-2{fill:#fdce76;}.cls-3{fill:none;stroke:#fdce76;stroke-miterlimit:10;stroke-width:2px;}</style></defs><g id="Capa_2" data-name="Capa 2"><g id="Capa_1-2" data-name="Capa 1"><rect class="cls-1" width="236.07" height="271.59" rx="35.2"/><path class="cls-2" d="M164.29,162.11H183c4.92,0,7.31,2.4,7.31,7.29,0,3,0,6,0,9.06,0,.72.19,1,.94,1.14a6,6,0,0,1,5.26,6.08c.06,6.45,0,12.89,0,19.34,0,1.1-.48,1.69-1.63,1.67-1.4,0-2.8,0-4.19,0a1.55,1.55,0,0,1-1.72-1.36c-.08-.31-.16-.61-.23-.92-.67-2.64-.67-2.64-3.32-2.64q-21.64,0-43.29,0c-1.17,0-1.68.23-2,1.49-.94,3.87-.32,3.42-4.36,3.45-3.73,0-3.69.25-3.67-3.7,0-5.41,0-10.82,0-16.23,0-4.26,1.41-6.12,5.55-7.2.7-.18.66-.6.66-1.1,0-3.15,0-6.31,0-9.47,0-4.32,2.52-6.85,6.91-6.87C151.57,162.09,157.93,162.11,164.29,162.11Zm0,29.7h3.11c8.38,0,16.77,0,25.15,0,1.23,0,1.56-.34,1.47-1.51-.1-1.44,0-2.88,0-4.33-.07-2.57-1.49-4-4.08-4q-25.62,0-51.25,0c-2.58,0-4,1.44-4.07,4,0,1.44.07,2.89,0,4.32-.08,1.18.25,1.52,1.48,1.51C145.45,191.78,154.87,191.81,164.29,191.81Zm.05,2.48c-9.47,0-18.94,0-28.41,0-1,0-1.42.25-1.38,1.35.09,2.25,0,4.51,0,6.76,0,2,0,1.92,1.9,1.86.67,0,1-.22,1.07-.9a16.77,16.77,0,0,1,.47-1.82c.55-2.26.55-2.26,2.89-2.26h42.47c1.58,0,3.16.08,4.73,0a2,2,0,0,1,2.4,1.91,19.3,19.3,0,0,0,.57,2.36c.4,1.34,1.5.57,2.28.68s.63-.57.63-1c0-2.44-.06-4.88,0-7.31,0-1.21-.27-1.6-1.55-1.59C183.09,194.32,173.72,194.29,164.34,194.29Zm-.09-29.63c-6.45,0-12.9,0-19.35,0-2.46,0-4,1.3-4.09,3.55-.1,3.47,0,6.95,0,10.42,0,.31,0,.6.38.76,1.21.47,2.06-.08,2.06-1.37,0-.72,0-1.45,0-2.17a6.21,6.21,0,0,1,6.54-6.27c2.43,0,4.87,0,7.3,0a6,6,0,0,1,5.9,5.58,19.62,19.62,0,0,1,.06,3c-.07,1,.28,1.32,1.3,1.3s1.27-.3,1.21-1.24a21,21,0,0,1,.07-3,6,6,0,0,1,6-5.64q3.85-.08,7.71,0a6.06,6.06,0,0,1,5.92,5.12,16,16,0,0,1,.14,3.24c0,.86-.09,1.53,1.2,1.51s1.29-.51,1.27-1.46c0-2.93,0-5.86,0-8.79,0-3.24-1.34-4.56-4.62-4.57Zm-11.12,14.77h3.79c3.79,0,3.79,0,3.6-3.77a3.58,3.58,0,0,0-3.5-3.58c-2.56-.08-5.14-.07-7.7,0a3.51,3.51,0,0,0-3.5,3.29c-.11,1,0,2.07-.1,3.1,0,.8.34,1,1.06,1C148.89,179.41,151,179.43,153.13,179.43Zm22.25,0c2.16,0,4.33,0,6.49,0,.66,0,1-.17,1-.91,0-1,0-2.07-.09-3.1a3.53,3.53,0,0,0-3.57-3.36c-2.52-.06-5.05-.07-7.57,0a3.58,3.58,0,0,0-3.56,3.66c0,.9,0,1.81,0,2.71s.23,1,1,1C171.14,179.4,173.26,179.43,175.38,179.43Z"/><path class="cls-2" d="M164.29,157.18a9.89,9.89,0,1,1,9.92-9.84A9.89,9.89,0,0,1,164.29,157.18Zm7.37-9.89a7.37,7.37,0,1,0-7.32,7.43A7.4,7.4,0,0,0,171.66,147.29Z"/><path class="cls-2" d="M189,188.1c-.31-1.33.56-1.13,1.34-1.22,1.14-.12,1.14.49,1.2,1.36.09,1.21-.6,1.09-1.4,1.15C189.08,189.47,188.78,189,189,188.1Z"/><path class="cls-2" d="M185.38,189.33c-1.06.23-1.38-.14-1.37-1.17s.23-1.31,1.26-1.29,1.35.2,1.3,1.25S186.46,189.67,185.38,189.33Z"/><path class="cls-2" d="M163,145.05v-1.22c0-1.42.78-2,2.11-1.51a.66.66,0,0,1,.43.87c-.67,2.88.87,4.28,3.37,5,1.05.31.67.88.36,1.52s-.58,1.3-1.55.7a16.53,16.53,0,0,0-2.89-1.43,2.52,2.52,0,0,1-1.83-3A7.37,7.37,0,0,0,163,145.05Z"/><path class="cls-2" d="M184.11,57.09c-.75-7-7.87-11.81-15.15-10.21-.77.17-1.51.35-1.79-.57-.33-1.1.5-1.36,1.35-1.57a14.44,14.44,0,0,1,17.34,10.07,8.76,8.76,0,0,0,3.43,5.13,13.65,13.65,0,0,1,5.24,14.2,14,14,0,0,1-9.72,11,2.05,2.05,0,0,0-1.51,1.79,94.67,94.67,0,0,1-3,9.37,4.73,4.73,0,0,1-2.56,2.24,14.45,14.45,0,0,0-3.7,2.71,5.84,5.84,0,0,1-5.36,1.82,17.83,17.83,0,0,0-5.31,0,5.34,5.34,0,0,1-4.66-1.39c-1.5-1.45-3.4-2.37-4.93-3.69s-2.83-1.4-4.79-.77c-5.57,1.79-11.27-2.86-11-8.74a1.43,1.43,0,0,0-.94-1.65,6.46,6.46,0,0,1-3.91-5.46,10.69,10.69,0,0,0-1.3-3.78,6.19,6.19,0,0,1,0-6.07,14.22,14.22,0,0,0,1.44-4.49,6.28,6.28,0,0,1,4-4.93c1.23-.56,1.9-1.13,1.56-2.8-.4-2,.71-3.6,2.49-4.64A9.4,9.4,0,0,1,145,53.36c.74-.07,1.11-.29,1.18-1.2a4.89,4.89,0,0,1,5.68-4.4,10.77,10.77,0,0,1,6.61,3.18c.67.69.9.46,1.32-.2a12.38,12.38,0,0,1,2.8-3.07c.57-.45,1.16-.83,1.76-.17s.27,1.31-.36,1.84a12.47,12.47,0,0,0,.33,19.51c.34.28.86,1,1.24.46a1.5,1.5,0,0,0-.05-2c-.93-1-1.77-2-2.63-3.06a2.82,2.82,0,0,1-.68-2.93A1.28,1.28,0,0,0,162,60a3.06,3.06,0,0,1-.32-3c.39-1,.76-2.07,1.12-3.11.2-.55.41-1.29.92-1.41,2-.45,2.55-2.9,4.52-3.36a16.68,16.68,0,0,1,3.54-.59c2.42,0,4.54,1.22,6.6,2.23,1.22.6,2,2.18,2.9,3.34a1.16,1.16,0,0,1,.34.77C181.24,56.92,182.64,57,184.11,57.09ZM180,58.87a9.92,9.92,0,0,0-3.35.47,12.45,12.45,0,0,0-6.92,18.73c.4.66,1,1.38.09,2s-1.48-.11-1.95-.82a15,15,0,0,1-2-4.88c-.54-2.38-.63-2.47-3.11-2.51-.24,0-.48,0-.72,0a2.75,2.75,0,0,0-2.6,3.34,8.59,8.59,0,0,1-4,9c-.64.43-.78.73-.51,1.48a8.51,8.51,0,0,1-.67,7.6c-.95,1.6-.91,2.08.75,3a23.92,23.92,0,0,1,5.08,3.73,3.74,3.74,0,0,0,3.5.84,13.07,13.07,0,0,1,4.87,0,4.08,4.08,0,0,0,3.95-1.18,16.55,16.55,0,0,1,4.41-3.2,3.18,3.18,0,0,0,1.9-2,33.32,33.32,0,0,1,2.31-7.08c.51-1.12.09-1.46-1.13-1.47a14,14,0,0,1-7-1.92c-.68-.39-1.46-.82-1-1.76s1.27-.63,2-.19c.24.15.5.29.75.42A12.44,12.44,0,1,0,180,58.87Zm-31.6,9.39a5.56,5.56,0,0,1-.8-3.49c.05-.51.64-1.06-.12-1.54s-1.25-.14-1.87.14a4.57,4.57,0,0,1-4.42-.17,1.26,1.26,0,0,0-1.66.06,9.32,9.32,0,0,1-1.73,1,4.12,4.12,0,0,0-2.46,3.31,15.69,15.69,0,0,1-1.71,5.16,3.72,3.72,0,0,0,0,3.59,16.52,16.52,0,0,1,1.74,5.3,4.15,4.15,0,0,0,2.41,3.18c.66.37,1,.31,1.33-.37a7.3,7.3,0,0,1,3-3.07c.75-.41.73-.81.43-1.49a8.1,8.1,0,0,1-.54-3.24,1.08,1.08,0,0,1,.89-1.16A1,1,0,0,1,144,76c.25.38.13.83.16,1.26a6.68,6.68,0,0,0,7.17,6.16,6.58,6.58,0,0,0,6.06-6.8,6.28,6.28,0,0,0-4-5.84,6.38,6.38,0,0,0-7.3,1.41c-.57.52-1.12,1.27-1.92.47s-.14-1.47.43-2.07A10.51,10.51,0,0,1,148.43,68.26Zm4.94,20.51a6.48,6.48,0,0,0-.48-2.39c-.22-.61-.47-.9-1.25-.81A8.17,8.17,0,0,1,145,83.43a1.33,1.33,0,0,0-2-.1,6.64,6.64,0,0,0-2.4,8,6.58,6.58,0,0,0,7.07,4A6.66,6.66,0,0,0,153.37,88.77ZM146.8,55.42a7.74,7.74,0,0,0-4.52,1.21,2.65,2.65,0,0,0-1.06,3.61,2.57,2.57,0,0,0,3.45,1.15,4.31,4.31,0,0,1,4.11,0,2.56,2.56,0,0,0,3.45-1.16,2.63,2.63,0,0,0-1.06-3.61A7.73,7.73,0,0,0,146.8,55.42Zm1.58-2.88c-.13.72.4.82,1,1,2.16.62,4.19,1.45,5.09,3.78.11.3.25.52.61.44.77-.16,2,0,2.19-.61.28-1.2,1.31-2.51.47-3.69a7.86,7.86,0,0,0-7-3.49A2.54,2.54,0,0,0,148.38,52.54ZM158.44,65a19,19,0,0,1-1.09-4.57c0-.36-.14-.69-.59-.63-1,.11-2,.06-2.49,1.25a4.34,4.34,0,0,1-3.17,2.66,1.47,1.47,0,0,0-1.26,1.61,2.43,2.43,0,0,0,1.56,2.64,2.37,2.37,0,0,0,3.08-.75A4.5,4.5,0,0,1,158.44,65Zm17.75-13c-.22.14-.51.23-.58.41a17.29,17.29,0,0,0-1.33,3.59,1.33,1.33,0,0,0,1.41,1.39,24.68,24.68,0,0,0,3.06-.71c.77-.2,1.06-.73.57-1.39-.77-1-1.63-2-2.48-3A2.07,2.07,0,0,0,176.19,51.94Zm-3.9-1.29c-1.18.22-2.36.4-3.53.66-.88.2-1.07.8-.56,1.5a13.55,13.55,0,0,0,2,2.41,1.21,1.21,0,0,0,2-.41,20.32,20.32,0,0,0,1-2.83C173.5,51.18,173.2,50.67,172.29,50.65Zm-7.7,8.51c1.18-.21,2.23-.35,3.25-.59a1.4,1.4,0,0,0,.63-2,26.74,26.74,0,0,0-2-2.3c-.58-.61-1.24-.6-1.6.23a33,33,0,0,0-1.22,3.37C163.41,58.78,163.92,59.12,164.59,59.16Zm-2.74,10.38c-1.38-1-1.72-3-4-2.36-1.19.34-1.52,1.29-2.08,2-.34.46.67.74,1,1.19.74,1.13,1.53,1.35,2.54.25A5.72,5.72,0,0,1,161.85,69.54Zm4.86-4.13a20.36,20.36,0,0,1,2.22-3.48c.2-.23.34-.44.11-.75a.82.82,0,0,0-.95-.43c-.93.2-1.88.29-2.81.5s-1.3.82-.66,1.67S166,64.51,166.71,65.41Zm4.37-5.63c.38-.26.82-.54,1.24-.85s.84-.26.64-.77a1,1,0,0,0-1.19-.58,1.37,1.37,0,0,0-1.25,1.61C170.54,59.43,170.61,59.78,171.08,59.78Z"/><path class="cls-2" d="M161.55,38.6c-16,.06-30.79,12.75-33,29.77-1.85,14.47,3.51,25.9,15.55,34.17.24.16.5.29.73.47.54.4,1,.86.5,1.56a1.09,1.09,0,0,1-1.64.27,26.82,26.82,0,0,1-4.45-3.17c-11.47-10.2-15.88-22.92-12-37.75,3.85-14.65,13.78-23.77,28.62-26.83,20.6-4.25,40.36,10,43.55,30.9a37,37,0,0,1-50.17,39.64,2.42,2.42,0,0,1-1.22-.72,1,1,0,0,1,0-1.21,1.19,1.19,0,0,1,1.56-.29,38.3,38.3,0,0,0,6.88,2c18.1,3.7,36.89-8.88,40.38-27.07a34.73,34.73,0,0,0-26.24-40.92A37.84,37.84,0,0,0,161.55,38.6Z"/><path class="cls-2" d="M169.9,71.31c-.12-1.8-.23-3.61,1.69-4.68.13-.07.2-.3.25-.47.61-2.18,3.81-5.13,6.06-5.07,1.52,0,3,0,4.53,0,2.25-.07,5.56,2.91,6.09,5a1,1,0,0,0,.47.65,3.46,3.46,0,0,1,1.56,3.34c0,1.15.28,2.44-.13,3.43a20.49,20.49,0,0,1-3.08,5.36,7.53,7.53,0,0,1-4.18,2.41,16.65,16.65,0,0,1-5.89,0,7.75,7.75,0,0,1-4.3-2.48,23.94,23.94,0,0,1-3-5.25A6,6,0,0,1,169.9,71.31Zm9.16-5.49h0c0-.38,0-.76,0-1.15,0-1.51-.51-1.79-1.84-1.06-.84.47-1.67.93-2.48,1.45s-.93,1.2,0,1.78a23.53,23.53,0,0,0,2.48,1.44c.93.45,1.55-.07,1.85-.89A5.12,5.12,0,0,0,179.06,65.82Zm2.23-.14c.13.73-.26,1.55.21,2.13.81,1,1.69.49,2.61,0,2.93-1.62,3-2.09,0-3.61-.73-.38-1.41-1.3-2.31-.84S181.5,64.92,181.29,65.68ZM179.1,76.81c-.16-.67.25-1.48-.23-2.06-.83-1-1.7-.45-2.62,0-3,1.62-2.89,2.1,0,3.61.73.37,1.4,1.31,2.3.81S178.89,77.64,179.1,76.81Zm2.22,0c0,.34,0,.67,0,1,0,1.52.51,1.83,1.81,1.11.84-.46,1.68-.92,2.48-1.44s.93-1.25,0-1.87c-.76-.49-1.55-.94-2.36-1.36a1.31,1.31,0,0,0-1.9,1A13.87,13.87,0,0,0,181.32,76.86Zm-9.23-5.62c0,.43,0,.86,0,1.29,0,1.57.48,1.84,1.83,1.11.71-.39,1.43-.78,2.11-1.22a1.32,1.32,0,0,0,0-2.28c-.32-.21-.66-.38-1-.59C172.64,68.05,171.91,67.92,172.09,71.24Zm16.2.17c0-.55,0-1,0-1.42,0-1.52-.5-1.78-1.87-1-.71.39-1.4.83-2.12,1.21-.87.46-.65,1.29-.4,1.85s.87.72,1.39.94c.84.35,1.55,1.47,2.56.87S188.08,72.14,188.29,71.41Zm-8,1.32a1.42,1.42,0,0,0,1.35-1.42,1.4,1.4,0,1,0-2.8.09A1.43,1.43,0,0,0,180.24,72.73Z"/><path class="cls-2" d="M164.33,80.12c0,.71-.2,1.16-.82,1.29a1,1,0,0,1-1.29-.81,15.77,15.77,0,0,1-.42-2.24,1.08,1.08,0,0,1,2.11-.37C164.12,78.73,164.21,79.49,164.33,80.12Z"/><path class="cls-2" d="M168.94,87.48c.05.77-.21,1.25-.88,1.37a1,1,0,0,1-1.23-.89c-.15-.69-.32-1.39-.4-2.09a1.06,1.06,0,0,1,.89-1.26,1.05,1.05,0,0,1,1.26.89C168.76,86.18,168.84,86.89,168.94,87.48Z"/><path class="cls-2" d="M160.41,94.93c-.83,0-1.14-.19-1.35-.63a.89.89,0,0,1,.26-1.15,6.7,6.7,0,0,1,2.76-1.06c.52-.1.89.31,1,.79a.87.87,0,0,1-.41,1.11C161.87,94.4,161,94.71,160.41,94.93Z"/><path class="cls-2" d="M168.64,93.49a1.14,1.14,0,0,1,1.13,1,5.51,5.51,0,0,1-1.77,3,1,1,0,0,1-1.26-.4,1.38,1.38,0,0,1,.21-1.61C167.46,94.75,167.59,93.69,168.64,93.49Z"/><path class="cls-2" d="M162.35,87.31c0,.65-.27,1.06-.71,1.1a4.67,4.67,0,0,1-3.15-1,.93.93,0,0,1-.06-1.31.87.87,0,0,1,.57-.36,4.93,4.93,0,0,1,3.15,1.12C162.31,86.93,162.32,87.23,162.35,87.31Z"/><path class="cls-2" d="M174.28,90.85c-.51-.11-2.05.34-1.84-1.3.19-1.48,1.52-.82,2.45-.75.15,0,.29,0,.43,0,.77,0,1.4.35,1.29,1.17C176.46,91.11,175.55,91,174.28,90.85Z"/><path class="cls-2" d="M69.83,208.49H39.17c-3.09,0-4.4-1.32-4.4-4.41,0-1.16,0-2.32,0-3.47s.48-2,1.77-1.78c1.68.26,1.94-.5,1.89-2A31,31,0,0,1,62.9,165.71a4.85,4.85,0,0,1,.74-.15c1.54-.17,2.9-.19,2.73-2.56-.13-1.73,2-3,3.78-2.88a3.55,3.55,0,0,1,3.29,3.66c-.06,1.07.14,1.38,1.28,1.55a31.2,31.2,0,0,1,26.18,25.51,28.87,28.87,0,0,1,.37,6.63c-.06,1,.19,1.4,1.3,1.37,2.3-.07,2.34,0,2.35,2.39,0,1.11,0,2.22,0,3.32a3.63,3.63,0,0,1-4,3.93Zm0-9.68h3.48c8,0,16,0,24,0,1.3,0,1.64-.36,1.55-1.6-.12-1.6-.07-3.21-.26-4.82-1.91-16.17-17.59-27.49-34-24.59a28.83,28.83,0,0,0-23.87,29.42c0,1.21.26,1.6,1.55,1.59C51.51,198.78,60.68,198.81,69.84,198.81Zm0,2.42c-10.32,0-20.65,0-31,0-1.43,0-1.88.43-1.67,1.75a1.5,1.5,0,0,1,0,.3c0,2.81,0,2.81,2.74,2.81H99.17c3.33,0,3.27,0,3.35-3.28,0-1.25-.29-1.59-1.56-1.58C90.59,201.26,80.21,201.23,69.83,201.23ZM71,163.73a1.19,1.19,0,0,0-1.17-1.16,1.17,1.17,0,1,0,0,2.34A1.18,1.18,0,0,0,71,163.73Z"/><path class="cls-2" d="M50.53,131.09a13.83,13.83,0,0,1,7.6,3.13c.53.43,1,.89.75,1.65s-1,.81-1.76.76a9,9,0,1,0-.08,18c.75-.06,1.47-.13,1.81.67s-.29,1.37-.9,1.85c-8.2,6.53-20.86,1.84-22.87-8.47C33.29,139.44,40,131.09,50.53,131.09Zm2.92,3.29a11.85,11.85,0,0,0-14.2,4.48,12.2,12.2,0,0,0,1.21,15c3.19,3.46,9.2,4.91,12.78,2.82-5.14-1.93-8.22-5.47-8.25-11S48.06,136.46,53.45,134.38Z"/><path class="cls-2" d="M45.27,188.08c.08-.23.18-.57.3-.9A25.59,25.59,0,0,1,56.5,174c.75-.46,1.57-1,2.22,0s-.11,1.55-.88,2a23.08,23.08,0,0,0-10.1,12.35c-.25.72-.63,1.29-1.52,1.15S45.25,188.87,45.27,188.08Z"/><path class="cls-2" d="M191.88,38.33A9.11,9.11,0,1,1,201,29.24,9.11,9.11,0,0,1,191.88,38.33Zm0-16.56a7.46,7.46,0,1,0,7.44,7.48A7.51,7.51,0,0,0,191.91,21.77Z"/><path class="cls-2" d="M187.86,28.3a.93.93,0,0,1,.7.32c.61.61,1.23,1.21,1.83,1.84.18.19.28.19.47,0,1.43-1.45,2.87-2.88,4.31-4.33a.94.94,0,0,1,.88-.35.82.82,0,0,1,.49,1.33l-.22.23-4.95,4.95a.89.89,0,0,1-1.49,0c-.83-.83-1.68-1.66-2.51-2.51a.83.83,0,0,1,.26-1.43A2,2,0,0,1,187.86,28.3Z"/><path class="cls-2" d="M105,38.33a9.11,9.11,0,1,1,9.12-9.09A9.11,9.11,0,0,1,105,38.33Zm0-16.56a7.46,7.46,0,1,0,7.44,7.48A7.51,7.51,0,0,0,105,21.77Z"/><path class="cls-2" d="M101,28.3a.93.93,0,0,1,.7.32c.61.61,1.23,1.21,1.83,1.84.18.19.28.19.47,0,1.43-1.45,2.88-2.88,4.32-4.33a.91.91,0,0,1,.87-.35.82.82,0,0,1,.49,1.33l-.22.23-5,4.95c-.54.53-1,.54-1.48,0-.84-.83-1.68-1.66-2.51-2.51a.82.82,0,0,1,.26-1.43A1.56,1.56,0,0,1,101,28.3Z"/><path class="cls-2" d="M191.88,139.27a9.11,9.11,0,1,1,9.12-9.09A9.11,9.11,0,0,1,191.88,139.27Zm0-16.56a7.46,7.46,0,1,0,7.44,7.48A7.51,7.51,0,0,0,191.91,122.71Z"/><path class="cls-2" d="M187.86,129.24a.93.93,0,0,1,.7.32c.61.61,1.23,1.21,1.83,1.84.18.19.28.19.47,0,1.43-1.45,2.87-2.88,4.31-4.33a.94.94,0,0,1,.88-.35.82.82,0,0,1,.49,1.33l-.22.23-4.95,4.95a.89.89,0,0,1-1.49,0c-.83-.83-1.68-1.66-2.51-2.51a.83.83,0,0,1,.26-1.43A2,2,0,0,1,187.86,129.24Z"/><path class="cls-2" d="M105,139.27a9.11,9.11,0,1,1,9.12-9.09A9.11,9.11,0,0,1,105,139.27Zm0-16.56a7.46,7.46,0,1,0,7.44,7.48A7.51,7.51,0,0,0,105,122.71Z"/><path class="cls-2" d="M101,129.24a.93.93,0,0,1,.7.32c.61.61,1.23,1.21,1.83,1.84.18.19.28.19.47,0,1.43-1.45,2.88-2.88,4.32-4.33a.91.91,0,0,1,.87-.35.82.82,0,0,1,.49,1.33l-.22.23-5,4.95a.88.88,0,0,1-1.48,0c-.84-.83-1.68-1.66-2.51-2.51a.82.82,0,0,1,.26-1.43A1.56,1.56,0,0,1,101,129.24Z"/><path class="cls-2" d="M98.94,76a25.19,25.19,0,0,1-3.26,10.51A62.26,62.26,0,0,1,86.32,99a13.62,13.62,0,0,1-3,2.26c-.63.37-1.29.56-1.77-.18s-.08-1.31.58-1.67c3.42-1.9,5.43-5.2,7.86-8,2-2.31,1.47-5.89-.79-8-1.43-1.38-2.73-2.87-4.11-4.29a12.86,12.86,0,0,0-13.13-3.73c-2.38.6-4.72,1.39-7,2.17a6.25,6.25,0,0,0-4.3,7.41c.56,3,0,4.1-2.76,5.34-3.06,1.36-3.92,4.8-1.92,7.65A6.3,6.3,0,0,0,63,100.33a14.33,14.33,0,0,1,8.28.19,11.42,11.42,0,0,0,5.85.58c.74-.15,1.41,0,1.54.89s-.55,1.26-1.34,1.34a15.17,15.17,0,0,1-6.59-.65,12.22,12.22,0,0,0-7.4-.19c-6.34,1.7-11.44-3.87-10.59-8.83.05-.23.13-.56,0-.71-1.3-1.67-2.3-4-4-4.81-3.42-1.64-4.63-4.38-4.91-7.61-.91-10.58,2.44-19.89,9-28.13a12.86,12.86,0,0,1,4.88-3.81,4.28,4.28,0,0,1,2.94-.54c2,.66,3.75-.45,5.61-.74.7-.11.64-.6.65-1.08,0-1.06,0-2.13,0-3.19a2.28,2.28,0,0,1,1.51-2.26,2.35,2.35,0,0,1,2.67.54c.39.36.78.73,1.14,1.12a22.67,22.67,0,0,0,9.46,6.21C92.15,52.28,99,62.62,98.94,76ZM93.22,86.45A24.93,24.93,0,0,0,96.67,72c0-.8-.37-.9-1.07-.9-5.32,0-10.64,0-16,0-3.25,0-6.49,0-9.73,0-2.2,0-3-.77-3-2.93,0-.92,0-1.84,0-2.76,0-5,0-10,0-14.95,0-.35.16-.92-.39-.92A3.7,3.7,0,0,0,64.8,50c-.38.19,0,.58.09.87a5.62,5.62,0,0,1-.62,5.37A63,63,0,0,0,55.05,83a5.31,5.31,0,0,1-2.74,4.5c-.7.38-.64.68-.19,1.17a8.89,8.89,0,0,1,.71.91c.58.84,1.09,1.25,1.9.14A4.2,4.2,0,0,1,57,88.21c1.46-.44,1.79-1.33,1.47-2.77a8.35,8.35,0,0,1,5.6-10c2.14-.74,4.32-1.39,6.49-2,6.67-2,12.27-.23,16.86,4.93a30.88,30.88,0,0,0,2.28,2.43A9.62,9.62,0,0,1,93.22,86.45ZM82.53,69c4.12,0,8.23,0,12.34,0,.32,0,.75.18.91-.22s-.24-.58-.47-.8Q82.74,55.74,70.15,43.5c-.25-.25-.48-.73-.94-.48S69,43.63,69,44c0,7.93,0,15.87,0,23.81,0,1,.31,1.31,1.32,1.3C74.4,69,78.47,69,82.53,69Zm-36.74,8c0,.58,0,1.17,0,1.74.18,2.13.44,4.26,1.89,6a2.67,2.67,0,0,0,3.1,1,2.82,2.82,0,0,0,2-2.6,13.1,13.1,0,0,1,.31-2.59c.36-1.32,0-1.94-1.35-2.35a2.64,2.64,0,0,1-1.55-3.46A2.68,2.68,0,0,1,53.27,73c1,.31,1.42.11,1.73-.91.37-1.25-.54-1.22-1.2-1.5-.27-.11-.55-.18-.81-.3A2.77,2.77,0,0,1,54.6,65a5.8,5.8,0,0,1,1.25.36c.76.33,1.25.42,1.66-.58s.22-1.28-.7-1.66a2.72,2.72,0,0,1-1.42-3.42c.4-1.19,1.85-2.29,2.94-1.8,2,.89,2.64-.17,3.31-1.61a12.54,12.54,0,0,1,.93-1.47,2.77,2.77,0,0,0,0-3.5,2.85,2.85,0,0,0-3.39-.89,9.87,9.87,0,0,0-4.43,3.16C48.89,60.31,46.35,68.32,45.79,77.07ZM94.56,64.19A22.12,22.12,0,0,0,81,51ZM54.32,67.12c-.51-.08-.87.15-.81.48.17,1.05,1.23.83,1.9,1.16a.51.51,0,0,0,.73-.57C55.93,67.16,54.79,67.59,54.32,67.12Zm4.85-6.31c.13-.64-.46-.58-.8-.7s-.84,0-.89.44.47.62.85.79C58.87,61.59,59,61.22,59.17,60.81ZM53,75.17c-.41,0-.78.09-.76.5,0,.71.7.7,1.16.85s.45-.25.48-.54C54,75.27,53.42,75.28,53,75.17Z"/><path class="cls-2" d="M71.08,38.75A34.15,34.15,0,0,0,48.9,47.38c-.29.25-.58.51-.88.75a1,1,0,0,1-1.43-.05,1,1,0,0,1,0-1.55c.85-.79,1.72-1.56,2.63-2.27C71.11,27.11,104.07,40,108.57,67.45A37.18,37.18,0,1,1,35.29,80,36.74,36.74,0,0,1,42.21,51.4c.5-.69,1-2.07,2.19-1.22S44.5,52,44,52.7c-15.67,20.84-3.58,51.24,22.11,55.54a35,35,0,0,0,11.74-69A41.27,41.27,0,0,0,71.08,38.75Z"/><path class="cls-2" d="M75.39,96.43a8,8,0,0,1-8.12-8.07,8.17,8.17,0,0,1,8.2-8.2,8.25,8.25,0,0,1,8.07,8.2A8.12,8.12,0,0,1,75.39,96.43Zm5.89-8a5.91,5.91,0,1,0-11.81-.1,5.91,5.91,0,1,0,11.81.1Z"/><path class="cls-2" d="M81,58.47a1.35,1.35,0,0,1-.55,1.09L77,62.94c-.57.58-1.19.91-1.86.2s-.23-1.24.29-1.76l3.47-3.48a1.25,1.25,0,0,1,1.44-.37A.93.93,0,0,1,81,58.47Z"/><path class="cls-2" d="M72.51,59.84c-.5,0-.87-.08-1.07-.47A1.1,1.1,0,0,1,71.59,58c1.31-1.34,2.63-2.68,4-4a1,1,0,0,1,1.43,0c.38.36.59.87.2,1.29-1.38,1.47-2.82,2.89-4.24,4.32C72.85,59.81,72.61,59.81,72.51,59.84Z"/><path class="cls-2" d="M84.65,62.12a1.74,1.74,0,0,1-.55,1L80.63,66.6c-.54.54-1.19.78-1.77.2s-.34-1.23.2-1.77c1.19-1.19,2.38-2.39,3.58-3.57a1.09,1.09,0,0,1,1.3-.33A1.21,1.21,0,0,1,84.65,62.12Z"/><line class="cls-3" x1="38" y1="238.5" x2="198.07" y2="238.5"/></g></g></svg>