<svg xmlns="http://www.w3.org/2000/svg" viewBox="0 0 241.5 147.42"><defs><style>.cls-1{fill:#c7c6c6;}.cls-2{fill:#f6f6f6;}.cls-3{fill:#343434;}.cls-4{fill:#f5a784;}.cls-5{fill:#f39794;}.cls-6{fill:#6c2912;}.cls-7{fill:#c98b5f;}.cls-8{fill:#967f6d;}.cls-9{fill:#dbd69f;}.cls-10{fill:#fff;}.cls-11{fill:#af8868;}.cls-12{fill:#222650;}</style></defs><g id="Capa_2" data-name="Capa 2"><g id="Capa_1-2" data-name="Capa 1"><path class="cls-1" d="M240.23,145.5c-1.85-.12-3.69-.21-5.56-.26-.52,0-16.24.06-19.71,0h-.21c-.52,0-131.53-.05-131.53-.05h-.48l-19.44,0H63l-.42,0-38.31,0h-.48l-19.44,0H4l-2.42.13c-2.07.13-2.07,1.82,0,1.94.81.06,1.61.1,2.42.14h.32l19.45,0h.47l38.32,0,.43,0h.32l19.45,0h.47l131.56,0H215c3.47-.05,19.18,0,19.71,0,1.87-.05,3.71-.14,5.55-.27C241.92,147,241.93,145.62,240.23,145.5Z"/><path class="cls-2" d="M148.87,1.11c6.65,3.32,6.92,12.66,11.11,18.8,7.83,11.45,26.48,8.72,36.61,18.19,5.35,5,7.42,13,6.1,20.18S197,71.91,191.36,76.59c-3.72,3.09-8.51,6.56-7.93,11.37a20.29,20.29,0,0,0,1.75,4.85c2.85,7.18,0,15.7-5.34,21.29s-12.76,8.7-20.18,10.88a109.44,109.44,0,0,1-20,3.87c-3.73.37-7.55.56-11,2s-6.27,4.1-9.58,5.85c-7.92,4.17-17.49,2.81-26.31,1.3-11.35-2-22.71-4-33.82-7-4.16-1.14-8.4-2.49-11.71-5.26s-5.5-7.31-4.32-11.46c1-3.49,4-5.93,6.49-8.59s4.59-6.39,3.26-9.77c-1.57-4-6.67-4.82-10.32-7C38.5,86.53,36,82.27,35,77.85s-1-9-.72-13.58c.23-4,.58-8.16,2.34-11.79,3.36-6.93,11.2-10.65,18.83-11.72,6.17-.87,9.29-1.09,12.64-7.32,4.06-7.57,6.71-15.94,11.85-22.82S93.76-1.52,102,.82c5.2,1.48,9.23,5.65,14.29,7.56,5.76,2.18,10.44,1.14,14.89-2.5C135.89,2.05,142.65-2,148.87,1.11Z"/><path class="cls-3" d="M164.69,24.7l-1.33,2.11s-.62,5.41,2.53,8.32,5.32-5,5.32-5L170.45,25Z"/><path class="cls-4" d="M153.54,46.15s-4.35,3.87-5.19,6.56,8.4,8,12.2,8.78l.79-5.42-5.42-3.44,1.19-1.33L156.53,47Z"/><polygon class="cls-4" points="167.36 32.54 161.66 40.01 166.83 40.23 168.63 40.45 171.56 36.18 167.36 32.54"/><path class="cls-5" d="M169.65,39l1.91-2.78-4.2-3.64-1.06,1.39A11,11,0,0,0,169.65,39Z"/><path class="cls-4" d="M164.55,89.71s14.23,13.46,15.33,15.35,12.26,30.75,14.24,30.86,4.28.72,5.55-1.1c0,0-7.17-32.38-10.23-39.64S176.85,78.8,173.86,72.6l-10,8.19Z"/><path class="cls-6" d="M180.08,81.51a55,55,0,0,1-6.23-9l-9.94,8.19.64,8.92s2.35,2.23,5.22,5C171.29,92.17,175.51,85.59,180.08,81.51Z"/><path class="cls-6" d="M169.54,90.66a103.61,103.61,0,0,0,4.66-18.18l-7.86-2.59-7.25,0s-9.69,4.33-5.84,18.49A59.34,59.34,0,0,1,169.54,90.66Z"/><path class="cls-7" d="M160.68,61l-1.59,8.81s5.51,5.59,15.11,2.63c0,0,.33-11.68.91-15.79s2-5.77.51-9.61-7.44-9.7-11.42-9.41-4,5.21-4,5.21l.68,9.58Z"/><path class="cls-8" d="M152,46.21s2.62,5.34,5.68,6.15L162,47.87l.31-9.82S158,39.2,152,46.21Z"/><path class="cls-4" d="M162.63,52.71s1.94,10.17,5.91,9.66,23-8.61,23-8.61l-1.7-4.07L171.13,55l-1-3.48Z"/><path class="cls-7" d="M161.39,54.06s-3.66-14.86,2.13-16.48,8,15.05,8,15.05S165.32,54.62,161.39,54.06Z"/><path class="cls-4" d="M153.25,88.34,148.14,105a53.45,53.45,0,0,0-24.78.1s-3.19,2.31-2.21,5.69c0,0,28.33,5.28,31.09,4.1,2.13-.92,11-6.74,17.3-24.21A59.34,59.34,0,0,0,153.25,88.34Z"/><path class="cls-9" d="M135.72,103.56a48.06,48.06,0,0,0-12.36,1.52s-3.19,2.31-2.21,5.69c0,0,5.81,1.09,12.43,2.16A32.72,32.72,0,0,1,135.72,103.56Z"/><path class="cls-9" d="M187.76,123.7c2.81,6.49,5.48,12.17,6.36,12.22,2,.1,4.28.72,5.55-1.1,0,0-1.33-6-3.09-13.41A20.92,20.92,0,0,1,187.76,123.7Z"/><path class="cls-3" d="M163.63,29.6s-1.46-7.44,2.26-10a11.62,11.62,0,0,1,11-1.09c4.2,1.7,3.09,8.11,2.14,10.85l-9,2.46Z"/><path class="cls-3" d="M165.89,23.06s-3-4.42-7.16-4.9-9.95,4.2-12.3,7.51-6.31.85-6.31.85a6.38,6.38,0,0,0,3.2,3s-6.19,1.7-7.7,6.12c0,0,3.73-2.65,6.24-2.62,0,0-7,6.38-1.94,12.48,0,0-.3-7.41,6.4-8.37s8.85-7.17,11.05-9.06S165,26.59,165,26.59Z"/><path class="cls-10" d="M112.07,117.36l4.06-15.63a.9.9,0,0,1,1.1-.65h0a.89.89,0,0,1,.65,1.1l-4.06,15.64a.91.91,0,0,1-1.1.65h0A.92.92,0,0,1,112.07,117.36Z"/><path class="cls-7" d="M123.22,103.48l-4.72-1.84c-.58-.23-1.21,0-1.33.41l-4,15.32a1.15,1.15,0,0,0,.45,1.19,2.19,2.19,0,0,0,2.28.13c2.27-.86,3.91-5.16,6.1-7a.31.31,0,0,0,.09-.14l1.83-7A1,1,0,0,0,123.22,103.48Z"/><path class="cls-10" d="M119.55,109.85h0a.33.33,0,0,1,.42,0,3.07,3.07,0,0,1,1.14,3.67.29.29,0,0,1-.36.08h0c-.15-.06-.22-.18-.17-.28a2.64,2.64,0,0,0-1-3.2C119.49,110,119.47,109.93,119.55,109.85Z"/><path class="cls-10" d="M118.51,111.28h0a.33.33,0,0,1,.42,0,3.07,3.07,0,0,1,1.14,3.67.29.29,0,0,1-.36.08h0c-.15-.06-.22-.18-.17-.29a2.63,2.63,0,0,0-1-3.19C118.45,111.47,118.43,111.35,118.51,111.28Z"/><path class="cls-10" d="M117.55,112.6h0a.35.35,0,0,1,.42,0,3.06,3.06,0,0,1,1.13,3.66.28.28,0,0,1-.36.09h0a.25.25,0,0,1-.17-.29,2.63,2.63,0,0,0-1-3.2A.18.18,0,0,1,117.55,112.6Z"/><path class="cls-10" d="M209.28,141.67,193.19,143a.91.91,0,0,1-1-.82h0a.91.91,0,0,1,.83-1l16.09-1.35a.91.91,0,0,1,1,.82h0A.91.91,0,0,1,209.28,141.67Z"/><path class="cls-7" d="M192.5,135.75l-.18,5.06c0,.63.37,1.16.83,1.12l15.77-1.32a1.18,1.18,0,0,0,1-.82,2.2,2.2,0,0,0-.63-2.2c-1.56-1.86-6.16-2-8.6-3.44a.23.23,0,0,0-.16,0l-7.26.61A1,1,0,0,0,192.5,135.75Z"/><path class="cls-10" d="M199.72,137.1h0a.35.35,0,0,1-.13-.4,3.07,3.07,0,0,1,3.08-2.29c.12,0,.21.16.2.32h0c0,.15-.1.26-.21.25a2.64,2.64,0,0,0-2.69,2C199.92,137.09,199.82,137.15,199.72,137.1Z"/><path class="cls-10" d="M201.41,137.61h0a.35.35,0,0,1-.13-.4,3.07,3.07,0,0,1,3.08-2.29c.12,0,.21.16.2.31h0c0,.15-.1.26-.21.25a2.64,2.64,0,0,0-2.69,2C201.61,137.6,201.51,137.66,201.41,137.61Z"/><path class="cls-10" d="M203,138.08h0a.33.33,0,0,1-.12-.4,3.05,3.05,0,0,1,3.08-2.28c.11,0,.2.15.2.31h0c0,.16-.1.26-.22.25a2.64,2.64,0,0,0-2.69,2A.18.18,0,0,1,203,138.08Z"/><path class="cls-4" d="M195.34,48.05a4.48,4.48,0,0,1,.19,4.41c-.84,1.63-5,1.71-6.24,1.7.06-.38.11-.75.16-1.13s.08-.87.11-1.31,0-.88,0-1.32c0-.23,0-.45,0-.68,1.37-.46,2.72-1.09,2.88-1.84C192.81,46.3,194.89,47.45,195.34,48.05Z"/><path class="cls-4" d="M179.18,25a16.38,16.38,0,0,1,.12,4.46,4.62,4.62,0,0,0,.17,2.12l.55,1.71a.51.51,0,0,1-.49.66l-1.21,0s-2.51,4.54-3.92,4.85-4.26-.41-7.14-6.45a2.26,2.26,0,0,1-2.19-2.66c.12-2.68,3-1.79,3.33-.89C168.4,28.74,173.75,22.58,179.18,25Z"/><path class="cls-3" d="M171.25,28.37a20.36,20.36,0,0,0,5.65-4.06,16.37,16.37,0,0,1-1.34,3.49c.19.07,3.48-1.64,4-3.79s-3.11-2.24-3.11-2.24-2.71-.08-2.82,0-1.89,1.15-2,1.23-2.19,3.12-2.19,3.12l-.5,1.11-.56,1.53h0A4.24,4.24,0,0,0,171.25,28.37Z"/><path class="cls-3" d="M177.83,30.35a.67.67,0,0,1-.71.6.75.75,0,1,1,.71-.6Z"/><path class="cls-3" d="M178.84,28.76a3.53,3.53,0,0,0-.77-.35,2.6,2.6,0,0,0-.82-.13,1.92,1.92,0,0,0-.41,0l-.2,0-.1,0-.1,0a3.78,3.78,0,0,0-.75.38,2.24,2.24,0,0,1,.69-.52,1.5,1.5,0,0,1,.42-.15,1.63,1.63,0,0,1,.45-.06,2.32,2.32,0,0,1,.87.17,1.87,1.87,0,0,1,.39.22A1.75,1.75,0,0,1,178.84,28.76Z"/><path class="cls-10" d="M175.9,34.13a1.89,1.89,0,0,0,.95,2.13c.29-.42.56-.85.79-1.21Z"/><path class="cls-4" d="M58,85.88s-6.45,18.5-7.72,20.28-23,23.78-22.31,25.63,1.09,4.2,3.27,4.61c0,0,26.6-19.8,32-25.57S73,92.63,77.45,87.36L65.9,81.65Z"/><path class="cls-11" d="M65.81,107.74c.31,0,16.5-29.72,16.5-29.72l-5-13.14s-8.6-4.58-14.86,2.56S52.08,101.09,51.28,103.3C53.57,105.25,60.6,107.31,65.81,107.74Z"/><path class="cls-4" d="M62.44,68S54.05,85.51,76.5,88.71l19.2,2-15.51,32,2.58,4.53s29.48-31.65,26.12-40.42-33-18.19-33-18.19L68.6,66Z"/><path class="cls-7" d="M76.5,88.71l18.41,2a65.14,65.14,0,0,0,6.17-11.17c-9.86-6-25.21-10.88-25.21-10.88L68.6,66l-6.17,1.42S54.05,85.51,76.5,88.71Z"/><path class="cls-10" d="M94.57,132.29l-16-2.18a.9.9,0,0,1-.77-1h0a.9.9,0,0,1,1-.77l16,2.18a.91.91,0,0,1,.78,1h0A.91.91,0,0,1,94.57,132.29Z"/><path class="cls-6" d="M79.47,122.87l-1.27,4.9c-.16.6.11,1.21.56,1.27l15.68,2.13a1.15,1.15,0,0,0,1.13-.59,2.21,2.21,0,0,0-.14-2.28c-1.12-2.15-5.59-3.26-7.64-5.23a.3.3,0,0,0-.15-.07l-7.22-1C80,122,79.61,122.32,79.47,122.87Z"/><path class="cls-10" d="M86.22,125.75h0a.34.34,0,0,1,0-.42,3.05,3.05,0,0,1,3.5-1.56.29.29,0,0,1,.13.35h0c0,.15-.15.24-.26.2a2.65,2.65,0,0,0-3.06,1.35C86.42,125.79,86.31,125.82,86.22,125.75Z"/><path class="cls-10" d="M87.76,126.62h0a.34.34,0,0,1,0-.42,3.07,3.07,0,0,1,3.5-1.57.29.29,0,0,1,.13.35h0a.24.24,0,0,1-.27.2A2.64,2.64,0,0,0,88,126.54.18.18,0,0,1,87.76,126.62Z"/><path class="cls-10" d="M89.2,127.42h0a.34.34,0,0,1,0-.42,3.05,3.05,0,0,1,3.5-1.56c.11,0,.17.19.13.35h0c0,.15-.16.23-.26.2a2.63,2.63,0,0,0-3.06,1.35C89.4,127.46,89.28,127.49,89.2,127.42Z"/><path class="cls-10" d="M32.71,145.94l-9.64-13a.91.91,0,0,1,.19-1.27h0a.9.9,0,0,1,1.26.19l9.64,13a.91.91,0,0,1-.18,1.27h0A.91.91,0,0,1,32.71,145.94Z"/><path class="cls-6" d="M28.88,128.56l-4.39,2.52c-.54.31-.78.92-.51,1.29l9.44,12.7a1.15,1.15,0,0,0,1.21.39c.53-.12,1.16-.52,1.54-1.69.75-2.31-1.58-6.28-1.61-9.12a.23.23,0,0,0-.06-.16l-4.34-5.85A1,1,0,0,0,28.88,128.56Z"/><path class="cls-10" d="M31.55,135.4h0a.32.32,0,0,1,.27-.31,3,3,0,0,1,3.57,1.41c0,.1,0,.25-.16.33h0a.22.22,0,0,1-.32-.05,2.65,2.65,0,0,0-3.11-1.24C31.66,135.57,31.56,135.51,31.55,135.4Z"/><path class="cls-10" d="M32,137.11h0a.33.33,0,0,1,.27-.32,3.06,3.06,0,0,1,3.57,1.41.29.29,0,0,1-.16.34h0c-.13.07-.27.05-.32,0a2.65,2.65,0,0,0-3.11-1.24C32.12,137.28,32,137.22,32,137.11Z"/><path class="cls-10" d="M32.43,138.7h0a.34.34,0,0,1,.28-.32,3.07,3.07,0,0,1,3.57,1.41c0,.1,0,.25-.16.33h0c-.13.07-.27.05-.32,0a2.62,2.62,0,0,0-3.11-1.24C32.55,138.87,32.44,138.81,32.43,138.7Z"/><path class="cls-4" d="M112.61,52c0-.24,3.06-1.49,2.82-1.65s-3.16.65-3.18.46S115.16,49.41,115,49s-3.35,1-3.36.63,3.26-1.69,3-2-3.89,1.13-5.06,1.58a.2.2,0,0,1-.27-.23c.52-2.45.42-2.67.14-2.67a48.54,48.54,0,0,0-3.52,5l-19,2.77,2.77-10c-1.36-1.45-5,2-8-1.54C79,48.49,76.32,55.27,77,57.31c1.23,3.85,9.07,4.56,17.79,2.35s13-4.54,13-4.54l2.09-.67c5.23-1.91,5.17-2,5.13-2.24S112.57,52.18,112.61,52Z"/><polygon class="cls-4" points="86.23 28.27 80.86 36.6 86.31 36.39 88.22 36.48 90.95 31.75 86.23 28.27"/><path class="cls-5" d="M89.17,34.83,91,31.75l-4.72-3.48-1,1.54A11.67,11.67,0,0,0,89.17,34.83Z"/><path class="cls-4" d="M82.05,31.1l2.27.14,4.24,5.69.07,1.47s-2.41,1-2.61.44-4.93-6.51-4.93-6.51Z"/><path class="cls-6" d="M77,31a16.88,16.88,0,0,1,5.08.08s.3,4.86,6.51,5.83a17,17,0,0,1,.18,12c-2.32,6.81-6.68,21.83-6.68,21.83s-16.69,1-19.63-3.34l5.82-21.15,6.57-.9Z"/><path class="cls-4" d="M73.19,59.08a.21.21,0,0,1,.09-.35c2.44-.59,2.59-.78,2.47-1a49.08,49.08,0,0,0-6-1L58.94,40.77l10.75,1.88-1.44,3.64S74.1,52,77.74,47.41c3.15-3.93,5.44-11.53,2.25-15A4.17,4.17,0,0,0,77,31c-4.65-.08-22.71-.23-25.26,2.19-2.93,2.78-.16,10.15,5.62,17S67.08,60,67.08,60l1.51,1.59c4,3.87,4.08,3.77,4.25,3.64s-1-2.18-.79-2.24,2.66,2.11,2.71,1.82-2-2.57-1.8-2.66,2.48,2,2.75,1.7-2.36-2.57-2-2.75,3,2.21,3.15,1.87S74.11,59.94,73.19,59.08Z"/><path class="cls-5" d="M58.94,40.77c1.42.22,2.82.44,4.23.68l4.22.71,4.22.72,1,.17,1.06.17,1,.16,1.07.15c-1.43-.08-2.85-.24-4.27-.44s-2.82-.42-4.23-.66-2.81-.49-4.21-.77S60.34,41.09,58.94,40.77Z"/><path class="cls-4" d="M87.7,19.62s2-3.78,2.38-3.89,5,.47,5.27.49,1.31,3.05,1.31,3.05a12,12,0,0,1,.54,2.1c-.13.06-3,1.39-3.14,1.38l-4.36-.26s-3.19.21-3-.19S87.7,19.62,87.7,19.62Z"/><path class="cls-4" d="M99.49,19.54a18.62,18.62,0,0,1-.18,5.06,5.26,5.26,0,0,0,0,2.4l.5,2a.57.57,0,0,1-.6.71l-1.37-.11s-3.14,5-4.76,5.21S88.34,34,85.49,27c0,0-2.6-.15-2.29-3.17S86.68,22,87,23.06C87,23.06,93.5,16.45,99.49,19.54Z"/><path class="cls-3" d="M97.58,25.53a.75.75,0,0,1-.84.63.84.84,0,0,1,.42-1.59A.74.74,0,0,1,97.58,25.53Z"/><path class="cls-3" d="M98.84,23.8a3.87,3.87,0,0,0-.85-.45,3,3,0,0,0-.92-.19,3.41,3.41,0,0,0-1.8.49,2.43,2.43,0,0,1,1.81-.71,2.37,2.37,0,0,1,1,.25A2.46,2.46,0,0,1,98.84,23.8Z"/><path class="cls-10" d="M95.14,29.67a2.17,2.17,0,0,0,.93,2.49c.36-.47.69-.92,1-1.32Z"/><path class="cls-12" d="M103.28,14.81a16.17,16.17,0,0,0-6.61-3.34c.75-.29,1.23-.56,1.09-.72-1.1-1.29-6,.24-7.6.78-.18-.41-.84-1.69-1.9-1.41-1.25.32.66,1.72.66,1.72s-1.55-.18-2.09.55c-.4.53.55.63,1.08.65a2.17,2.17,0,0,0-.7.22h0s-2.49,1.23-2.52,2.27c0,.25.19.32.5.28-.49,1-1.35,2.82-1,3.16s.41.13.62,0a19.84,19.84,0,0,0,.06,3c1.88.12,3,2.43,3,2.43.14-2.53,3-6.72,3-6.72s6.26,4.49,5.59,2.19c0,0,7.49,4.61,6.68.3,0,0,3.14.5.2-3.4C103.24,16.72,105.57,17,103.28,14.81Z"/></g></g></svg>