<svg xmlns="http://www.w3.org/2000/svg" viewBox="0 0 236.07 271.59"><defs><style>.cls-1{fill:#dbd69f;}.cls-2,.cls-3{fill:#6c2912;}.cls-3,.cls-4{stroke:#6c2912;stroke-miterlimit:10;}.cls-3{stroke-width:0.5px;}.cls-4{fill:none;stroke-width:2px;}</style></defs><g id="Capa_2" data-name="Capa 2"><g id="Capa_1-2" data-name="Capa 1"><rect class="cls-1" width="236.07" height="271.59" rx="35.2"/><path class="cls-2" d="M182,57.09c-.74-7-7.86-11.81-15.15-10.21-.76.17-1.51.35-1.78-.57-.34-1.1.5-1.36,1.34-1.57a14.45,14.45,0,0,1,17.35,10.07,8.7,8.7,0,0,0,3.42,5.13,13.65,13.65,0,0,1,5.24,14.2,14,14,0,0,1-9.71,11,2,2,0,0,0-1.51,1.79,97.38,97.38,0,0,1-3,9.37,4.77,4.77,0,0,1-2.56,2.24,14.28,14.28,0,0,0-3.7,2.71,5.86,5.86,0,0,1-5.36,1.82,17.9,17.9,0,0,0-5.32,0,5.35,5.35,0,0,1-4.66-1.39c-1.5-1.45-3.39-2.37-4.93-3.69s-2.83-1.4-4.79-.77c-5.56,1.79-11.26-2.86-11-8.74a1.44,1.44,0,0,0-.94-1.65A6.46,6.46,0,0,1,131,81.39a10.89,10.89,0,0,0-1.3-3.78,6.19,6.19,0,0,1,0-6.07,13.73,13.73,0,0,0,1.44-4.49,6.27,6.27,0,0,1,4-4.93c1.23-.56,1.9-1.13,1.56-2.8-.4-2,.71-3.6,2.48-4.64a9.44,9.44,0,0,1,3.78-1.32c.74-.07,1.11-.29,1.18-1.2a4.88,4.88,0,0,1,5.67-4.4,10.72,10.72,0,0,1,6.61,3.18c.67.69.91.46,1.33-.2a12.38,12.38,0,0,1,2.8-3.07c.56-.45,1.16-.83,1.76-.17s.26,1.31-.36,1.84a12.48,12.48,0,0,0,.32,19.51c.35.28.87,1,1.25.46a1.49,1.49,0,0,0-.06-2c-.93-1-1.77-2-2.62-3.06a2.84,2.84,0,0,1-.69-2.93,1.26,1.26,0,0,0-.25-1.32,3.06,3.06,0,0,1-.32-3c.38-1,.75-2.07,1.12-3.11.2-.55.41-1.29.92-1.41,2-.45,2.55-2.9,4.52-3.36a16.68,16.68,0,0,1,3.54-.59c2.42,0,4.54,1.22,6.6,2.23,1.22.6,2,2.18,2.9,3.34a1.21,1.21,0,0,1,.34.77C179.13,56.92,180.53,57,182,57.09Zm-4.08,1.78a10,10,0,0,0-3.35.47,12.45,12.45,0,0,0-6.92,18.73c.41.66,1,1.38.09,2s-1.47-.11-1.94-.82a15,15,0,0,1-2-4.88c-.54-2.38-.64-2.47-3.11-2.51-.24,0-.48,0-.72,0a2.75,2.75,0,0,0-2.6,3.34,8.59,8.59,0,0,1-4,9c-.63.43-.77.73-.5,1.48a8.51,8.51,0,0,1-.68,7.6c-.94,1.6-.9,2.08.75,3a23.73,23.73,0,0,1,5.09,3.73,3.73,3.73,0,0,0,3.5.84,13.07,13.07,0,0,1,4.87,0,4.08,4.08,0,0,0,4-1.18,16.34,16.34,0,0,1,4.4-3.2,3.17,3.17,0,0,0,1.91-2A33.32,33.32,0,0,1,179,87.39c.5-1.12.09-1.46-1.13-1.47a14,14,0,0,1-7-1.92c-.68-.39-1.47-.82-1-1.76s1.26-.63,2-.19c.25.15.5.29.76.42a12.44,12.44,0,1,0,5.33-23.6Zm-31.6,9.39a5.55,5.55,0,0,1-.79-3.49c.05-.51.64-1.06-.12-1.54s-1.25-.14-1.88.14a4.55,4.55,0,0,1-4.41-.17,1.26,1.26,0,0,0-1.66.06,9.74,9.74,0,0,1-1.74,1,4.11,4.11,0,0,0-2.45,3.31,16.17,16.17,0,0,1-1.71,5.16,3.75,3.75,0,0,0,0,3.59,16.3,16.3,0,0,1,1.75,5.3,4.13,4.13,0,0,0,2.4,3.18c.66.37,1,.31,1.34-.37a7.25,7.25,0,0,1,3-3.07c.74-.41.72-.81.43-1.49a7.76,7.76,0,0,1-.54-3.24,1.08,1.08,0,0,1,.89-1.16,1,1,0,0,1,1.1.5c.26.38.14.83.17,1.26a6.67,6.67,0,0,0,7.16,6.16,6.58,6.58,0,0,0,6.07-6.8,6.31,6.31,0,0,0-4-5.84A6.39,6.39,0,0,0,144,72.17c-.56.52-1.11,1.27-1.92.47s-.13-1.47.44-2.07A10.47,10.47,0,0,1,146.32,68.26Zm5,20.51a6.48,6.48,0,0,0-.48-2.39c-.22-.61-.48-.9-1.25-.81a8.15,8.15,0,0,1-6.63-2.14,1.33,1.33,0,0,0-2-.1,6.64,6.64,0,0,0-2.4,8,6.57,6.57,0,0,0,7.06,4A6.66,6.66,0,0,0,151.27,88.77Zm-6.58-33.35a7.76,7.76,0,0,0-4.52,1.21,2.64,2.64,0,0,0-1,3.61,2.57,2.57,0,0,0,3.45,1.15,4.31,4.31,0,0,1,4.11,0,2.56,2.56,0,0,0,3.45-1.16,2.65,2.65,0,0,0-1.06-3.61A7.76,7.76,0,0,0,144.69,55.42Zm1.59-2.88c-.14.72.4.82,1,1,2.16.62,4.19,1.45,5.08,3.78.12.3.26.52.61.44.78-.16,2.05,0,2.2-.61.27-1.2,1.31-2.51.47-3.69a7.88,7.88,0,0,0-7-3.49A2.54,2.54,0,0,0,146.28,52.54ZM156.34,65a18.06,18.06,0,0,1-1.09-4.57c0-.36-.14-.69-.59-.63-1,.11-2,.06-2.49,1.25A4.36,4.36,0,0,1,149,63.67a1.48,1.48,0,0,0-1.26,1.61,2.46,2.46,0,0,0,1.56,2.64,2.38,2.38,0,0,0,3.09-.75A4.5,4.5,0,0,1,156.34,65Zm17.74-13c-.21.14-.5.23-.58.41a17.84,17.84,0,0,0-1.32,3.59,1.32,1.32,0,0,0,1.41,1.39,25.54,25.54,0,0,0,3.06-.71c.76-.2,1.06-.73.57-1.39-.78-1-1.64-2-2.48-3A2.14,2.14,0,0,0,174.08,51.94Zm-3.89-1.29c-1.18.22-2.37.4-3.53.66-.88.2-1.07.8-.56,1.5a13.15,13.15,0,0,0,2,2.41,1.2,1.2,0,0,0,2-.41,20.36,20.36,0,0,0,1-2.83C171.4,51.18,171.09,50.67,170.19,50.65Zm-7.7,8.51c1.18-.21,2.22-.35,3.25-.59a1.39,1.39,0,0,0,.62-2,25,25,0,0,0-2-2.3c-.58-.61-1.24-.6-1.6.23a35.63,35.63,0,0,0-1.23,3.37C161.31,58.78,161.82,59.12,162.49,59.16Zm-2.75,10.38c-1.37-1-1.72-3-4-2.36-1.19.34-1.53,1.29-2.08,2-.35.46.66.74,1,1.19.75,1.13,1.54,1.35,2.55.25A5.62,5.62,0,0,1,159.74,69.54Zm4.86-4.13a21,21,0,0,1,2.23-3.48c.19-.23.34-.44.11-.75a.83.83,0,0,0-.95-.43c-.93.2-1.89.29-2.81.5s-1.3.82-.67,1.67S163.84,64.51,164.6,65.41ZM169,59.78c.39-.26.83-.54,1.25-.85s.84-.26.64-.77a1,1,0,0,0-1.2-.58,1.37,1.37,0,0,0-1.25,1.61C168.44,59.43,168.51,59.78,169,59.78Z"/><path class="cls-2" d="M159.45,38.6c-16,.06-30.8,12.75-33,29.77C124.64,82.84,130,94.27,142,102.54c.24.16.5.29.73.47.53.4,1,.86.49,1.56a1.08,1.08,0,0,1-1.63.27,26.9,26.9,0,0,1-4.46-3.17c-11.47-10.2-15.88-22.92-12-37.75C129,49.27,139,40.15,153.79,37.09c20.6-4.25,40.37,10,43.56,30.9a37,37,0,0,1-50.17,39.64,2.38,2.38,0,0,1-1.22-.72,1,1,0,0,1,0-1.21,1.19,1.19,0,0,1,1.56-.29,38.3,38.3,0,0,0,6.88,2c18.1,3.7,36.88-8.88,40.38-27.07a34.74,34.74,0,0,0-26.24-40.92A37.84,37.84,0,0,0,159.45,38.6Z"/><path class="cls-2" d="M167.79,71.31c-.11-1.8-.23-3.61,1.7-4.68.13-.07.2-.3.24-.47.62-2.18,3.82-5.13,6.07-5.07,1.52,0,3,0,4.53,0,2.25-.07,5.56,2.91,6.09,5a.93.93,0,0,0,.47.65,3.45,3.45,0,0,1,1.55,3.34c0,1.15.29,2.44-.12,3.43a20.52,20.52,0,0,1-3.09,5.36,7.53,7.53,0,0,1-4.18,2.41,16.65,16.65,0,0,1-5.89,0,7.75,7.75,0,0,1-4.3-2.48,24.31,24.31,0,0,1-3-5.25A5.77,5.77,0,0,1,167.79,71.31ZM177,65.82h0c0-.38,0-.76,0-1.15,0-1.51-.51-1.79-1.84-1.06-.84.47-1.68.93-2.48,1.45s-.93,1.2,0,1.78a23.53,23.53,0,0,0,2.48,1.44c.92.45,1.55-.07,1.84-.89A4.83,4.83,0,0,0,177,65.82Zm2.24-.14c.12.73-.26,1.55.2,2.13.82,1,1.7.49,2.62,0,2.93-1.62,3-2.09,0-3.61-.74-.38-1.42-1.3-2.31-.84S179.4,64.92,179.19,65.68ZM177,76.81c-.17-.67.25-1.48-.23-2.06-.84-1-1.71-.45-2.62,0-3,1.62-2.89,2.1,0,3.61.72.37,1.4,1.31,2.3.81S176.78,77.64,177,76.81Zm2.21,0v1c0,1.52.52,1.83,1.82,1.11.83-.46,1.68-.92,2.48-1.44s.92-1.25,0-1.87c-.76-.49-1.55-.94-2.35-1.36a1.3,1.3,0,0,0-1.9,1C179.17,75.8,179.22,76.33,179.21,76.86ZM170,71.24c0,.43,0,.86,0,1.29,0,1.57.47,1.84,1.82,1.11.72-.39,1.43-.78,2.12-1.22a1.32,1.32,0,0,0,0-2.28c-.32-.21-.67-.38-1-.59C170.53,68.05,169.81,67.92,170,71.24Zm16.2.17c0-.55,0-1,0-1.42,0-1.52-.49-1.78-1.86-1-.71.39-1.4.83-2.12,1.21-.88.46-.65,1.29-.41,1.85s.88.72,1.4.94c.84.35,1.55,1.47,2.55.87S186,72.14,186.19,71.41Zm-8.05,1.32a1.43,1.43,0,0,0,1.35-1.42,1.4,1.4,0,1,0-2.8.09A1.42,1.42,0,0,0,178.14,72.73Z"/><path class="cls-2" d="M162.22,80.12c0,.71-.19,1.16-.81,1.29a1,1,0,0,1-1.3-.81,17.28,17.28,0,0,1-.41-2.24,1.08,1.08,0,0,1,2.11-.37C162,78.73,162.1,79.49,162.22,80.12Z"/><path class="cls-2" d="M166.84,87.48c0,.77-.22,1.25-.88,1.37a1,1,0,0,1-1.23-.89,18.78,18.78,0,0,1-.4-2.09,1.06,1.06,0,0,1,.89-1.26,1,1,0,0,1,1.25.89C166.65,86.18,166.73,86.89,166.84,87.48Z"/><path class="cls-2" d="M158.31,94.93c-.83,0-1.15-.19-1.35-.63a.87.87,0,0,1,.26-1.15A6.66,6.66,0,0,1,160,92.09c.52-.1.89.31,1.05.79a.87.87,0,0,1-.4,1.11C159.77,94.4,158.88,94.71,158.31,94.93Z"/><path class="cls-2" d="M166.54,93.49a1.14,1.14,0,0,1,1.13,1,5.51,5.51,0,0,1-1.77,3,1,1,0,0,1-1.26-.4,1.38,1.38,0,0,1,.21-1.61C165.35,94.75,165.48,93.69,166.54,93.49Z"/><path class="cls-2" d="M160.25,87.31c0,.65-.27,1.06-.71,1.1a4.7,4.7,0,0,1-3.16-1,.94.94,0,0,1-.06-1.31.87.87,0,0,1,.58-.36,5,5,0,0,1,3.15,1.12C160.2,86.93,160.22,87.23,160.25,87.31Z"/><path class="cls-2" d="M172.18,90.85c-.52-.11-2.06.34-1.85-1.3.2-1.48,1.53-.82,2.46-.75.14,0,.28,0,.43,0,.77,0,1.4.35,1.28,1.17C174.35,91.11,173.44,91,172.18,90.85Z"/><path class="cls-2" d="M67.73,208.32H37.06c-3.08,0-4.39-1.31-4.39-4.4,0-1.16,0-2.32,0-3.48s.47-2,1.77-1.78c1.67.26,1.94-.5,1.89-2A31,31,0,0,1,60.8,165.54c.25,0,.49-.12.74-.15,1.54-.17,2.89-.19,2.72-2.55-.12-1.73,2-3,3.79-2.89a3.55,3.55,0,0,1,3.28,3.66c0,1.07.15,1.38,1.29,1.56A31.2,31.2,0,0,1,98.8,190.68a29.38,29.38,0,0,1,.37,6.62c-.06,1,.18,1.4,1.29,1.37,2.3-.06,2.35.06,2.35,2.4,0,1.11,0,2.21,0,3.32a3.63,3.63,0,0,1-4,3.93Q83.28,208.34,67.73,208.32Zm0-9.68h3.47c8,0,16,0,24,0,1.29,0,1.64-.36,1.54-1.6-.11-1.6-.06-3.21-.25-4.82-1.91-16.17-17.6-27.49-34-24.59a28.82,28.82,0,0,0-23.88,29.41c0,1.22.27,1.6,1.56,1.6C49.4,198.62,58.57,198.64,67.74,198.64Zm0,2.43c-10.32,0-20.65,0-31,0-1.44,0-1.89.43-1.67,1.75,0,.1,0,.21,0,.31,0,2.81,0,2.81,2.74,2.81H97.06c3.34,0,3.28,0,3.36-3.28,0-1.25-.29-1.59-1.56-1.58C88.48,201.09,78.11,201.07,67.73,201.07Zm1.21-37.5c-.11-.68-.47-1.15-1.17-1.16a1.17,1.17,0,1,0,0,2.33C68.48,164.73,68.84,164.25,68.94,163.57Z"/><path class="cls-2" d="M48.43,130.92A13.73,13.73,0,0,1,56,134.06c.54.42,1,.89.76,1.64s-1,.82-1.76.76a9,9,0,1,0-.08,18c.74,0,1.47-.13,1.81.68s-.3,1.37-.9,1.85c-8.2,6.53-20.87,1.84-22.87-8.48C31.19,139.28,37.91,130.92,48.43,130.92Zm2.91,3.3a11.83,11.83,0,0,0-14.19,4.48,12.19,12.19,0,0,0,1.21,15c3.19,3.45,9.19,4.91,12.77,2.82-5.14-1.93-8.21-5.47-8.24-11S46,136.29,51.34,134.22Z"/><path class="cls-2" d="M43.17,187.91c.07-.23.18-.56.3-.89a25.45,25.45,0,0,1,10.92-13.23c.76-.47,1.57-1,2.23,0s-.11,1.54-.88,2a23,23,0,0,0-10.1,12.36c-.25.71-.63,1.28-1.52,1.14S43.15,188.71,43.17,187.91Z"/><path class="cls-2" d="M189.78,38.33a9.11,9.11,0,1,1,9.12-9.09A9.12,9.12,0,0,1,189.78,38.33Zm0-16.56a7.46,7.46,0,1,0,7.45,7.48A7.5,7.5,0,0,0,189.8,21.77Z"/><path class="cls-2" d="M185.75,28.3a1,1,0,0,1,.71.32c.61.61,1.23,1.21,1.83,1.84.18.19.28.19.46,0l4.32-4.33a.93.93,0,0,1,.88-.35.82.82,0,0,1,.48,1.33c-.06.08-.14.15-.21.23l-4.95,4.95a.89.89,0,0,1-1.49,0c-.84-.83-1.68-1.66-2.51-2.51a.82.82,0,0,1,.26-1.43Z"/><path class="cls-3" d="M84.63,130.24a9.15,9.15,0,0,1,7.77-9.11,9.05,9.05,0,0,1,3.77.22c.48.13.72.44.62.8s-.45.52-.93.4a7.9,7.9,0,1,0,5.72,8.77,7.78,7.78,0,0,0-1-5.16l-.18-.29a.62.62,0,0,1,.15-.9.63.63,0,0,1,.88.25,9,9,0,0,1,1.32,3.41,9.13,9.13,0,1,1-18.12,1.61Z"/><path class="cls-3" d="M97,132.77a.57.57,0,0,1-.38.53.59.59,0,0,1-.69-.15l-1.77-1.77c-.35-.35-.35-.35-.71,0-.58.58-1.16,1.17-1.75,1.75a.6.6,0,0,1-1-.16.64.64,0,0,1,.2-.75c.59-.59,1.17-1.2,1.78-1.76.27-.25.23-.39,0-.62-.62-.58-1.21-1.19-1.8-1.8a.6.6,0,0,1,.15-1,.64.64,0,0,1,.75.21c.6.6,1.22,1.19,1.8,1.8.22.25.34.21.55,0q.9-.93,1.83-1.83a.6.6,0,0,1,1,.16.64.64,0,0,1-.2.75c-.61.6-1.19,1.21-1.81,1.79-.24.23-.21.35,0,.56.61.57,1.19,1.18,1.78,1.77A.72.72,0,0,1,97,132.77Z"/><path class="cls-3" d="M99.7,123.43a.61.61,0,0,1-.87.63,2.93,2.93,0,0,1-.64-.47.56.56,0,0,1,0-.79.54.54,0,0,1,.74-.17C99.23,122.85,99.64,123,99.7,123.43Z"/><path class="cls-2" d="M99.23,76A25.19,25.19,0,0,1,96,86.55,62.26,62.26,0,0,1,86.61,99a13.62,13.62,0,0,1-3,2.26c-.64.37-1.29.56-1.77-.18s-.08-1.31.58-1.67c3.42-1.9,5.43-5.2,7.86-8,2-2.31,1.47-5.89-.79-8C88,82,86.74,80.47,85.36,79.05a12.86,12.86,0,0,0-13.13-3.73c-2.38.6-4.72,1.39-7,2.17a6.25,6.25,0,0,0-4.3,7.41c.55,3,0,4.1-2.76,5.34C55.06,91.6,54.2,95,56.2,97.89a6.29,6.29,0,0,0,7.06,2.44,14.33,14.33,0,0,1,8.28.19,11.42,11.42,0,0,0,5.85.58c.74-.15,1.41,0,1.54.89s-.55,1.26-1.34,1.34a15.17,15.17,0,0,1-6.59-.65,12.22,12.22,0,0,0-7.4-.19c-6.35,1.7-11.44-3.87-10.59-8.83,0-.23.13-.56,0-.71-1.3-1.67-2.3-4-4-4.81-3.42-1.64-4.63-4.38-4.91-7.61-.91-10.58,2.44-19.89,9-28.13A12.86,12.86,0,0,1,58,48.59a4.28,4.28,0,0,1,2.94-.54c2,.66,3.75-.45,5.61-.74.7-.11.64-.6.65-1.08,0-1.06,0-2.13,0-3.19a2.31,2.31,0,0,1,1.52-2.26,2.35,2.35,0,0,1,2.67.54c.39.36.78.73,1.14,1.12A22.67,22.67,0,0,0,82,48.65C92.44,52.28,99.24,62.62,99.23,76ZM93.51,86.45A24.93,24.93,0,0,0,97,72c0-.8-.37-.9-1.07-.9-5.32,0-10.64,0-16,0-3.24,0-6.48,0-9.72,0-2.2,0-3-.77-3-2.93,0-.92,0-1.84,0-2.76,0-5,0-10,0-14.95,0-.35.16-.92-.39-.92a3.7,3.7,0,0,0-1.66.41c-.38.19,0,.58.09.87a5.62,5.62,0,0,1-.62,5.37A63,63,0,0,0,55.34,83a5.31,5.31,0,0,1-2.74,4.5c-.7.38-.64.68-.19,1.17a8.89,8.89,0,0,1,.71.91c.58.84,1.09,1.25,1.9.14a4.21,4.21,0,0,1,2.26-1.5c1.46-.44,1.8-1.33,1.47-2.77a8.36,8.36,0,0,1,5.61-10c2.14-.74,4.32-1.39,6.49-2,6.67-2,12.27-.23,16.86,4.93A30.88,30.88,0,0,0,90,80.78,9.62,9.62,0,0,1,93.51,86.45ZM82.82,69c4.11,0,8.23,0,12.34,0,.31,0,.75.18.91-.22s-.24-.58-.47-.8Q83,55.74,70.44,43.5c-.26-.25-.48-.73-.94-.48s-.17.61-.17.93c0,7.93,0,15.87,0,23.81,0,1,.32,1.31,1.33,1.3C74.69,69,78.76,69,82.82,69Zm-36.74,8c0,.58,0,1.17,0,1.74.18,2.13.44,4.26,1.89,6a2.66,2.66,0,0,0,3.1,1,2.82,2.82,0,0,0,2-2.6,13.89,13.89,0,0,1,.3-2.59c.37-1.32,0-1.94-1.34-2.35a2.64,2.64,0,0,1-1.55-3.46A2.67,2.67,0,0,1,53.56,73c1,.31,1.42.11,1.73-.91.37-1.25-.54-1.22-1.2-1.5-.27-.11-.55-.18-.81-.3A2.77,2.77,0,0,1,54.89,65a6,6,0,0,1,1.25.36c.76.33,1.25.42,1.66-.58s.22-1.28-.7-1.66a2.71,2.71,0,0,1-1.42-3.42c.4-1.19,1.85-2.29,2.94-1.8,2,.89,2.64-.17,3.31-1.61a12.54,12.54,0,0,1,.93-1.47,2.77,2.77,0,0,0,0-3.5,2.85,2.85,0,0,0-3.39-.89A9.87,9.87,0,0,0,55,53.56C49.18,60.31,46.64,68.32,46.08,77.07ZM94.84,64.19A22.08,22.08,0,0,0,81.28,51ZM54.6,67.12c-.5-.08-.86.15-.81.48.18,1.05,1.24.83,1.91,1.16a.51.51,0,0,0,.73-.57C56.22,67.16,55.08,67.59,54.6,67.12Zm4.86-6.31c.13-.64-.46-.58-.8-.7s-.84,0-.89.44.47.62.85.79C59.16,61.59,59.29,61.22,59.46,60.81ZM53.31,75.17c-.42,0-.78.09-.76.5,0,.71.7.7,1.16.85s.45-.25.48-.54C54.28,75.27,53.71,75.28,53.31,75.17Z"/><path class="cls-2" d="M71.37,38.75a34.15,34.15,0,0,0-22.18,8.63c-.29.25-.58.51-.88.75a1,1,0,0,1-1.43-.05,1,1,0,0,1,0-1.55c.85-.79,1.72-1.56,2.63-2.27C71.4,27.11,104.36,40,108.85,67.45A37.17,37.17,0,1,1,35.58,80,36.74,36.74,0,0,1,42.5,51.4c.5-.69,1-2.07,2.19-1.22s.1,1.79-.45,2.52c-15.67,20.84-3.58,51.24,22.11,55.54a35,35,0,0,0,11.74-69A41.27,41.27,0,0,0,71.37,38.75Z"/><path class="cls-2" d="M75.68,96.43a8,8,0,0,1-8.12-8.07,8.16,8.16,0,0,1,8.2-8.2,8.25,8.25,0,0,1,8.07,8.2A8.12,8.12,0,0,1,75.68,96.43Zm5.89-8a5.91,5.91,0,1,0-11.81-.1,5.91,5.91,0,1,0,11.81.1Z"/><path class="cls-2" d="M81.25,58.47a1.35,1.35,0,0,1-.55,1.09q-1.7,1.68-3.38,3.38c-.57.58-1.19.91-1.86.2s-.23-1.24.29-1.76l3.47-3.48a1.25,1.25,0,0,1,1.44-.37A.93.93,0,0,1,81.25,58.47Z"/><path class="cls-2" d="M72.8,59.84c-.5,0-.87-.08-1.07-.47A1.1,1.1,0,0,1,71.88,58c1.31-1.34,2.63-2.68,4-4a1,1,0,0,1,1.43,0c.38.36.59.87.2,1.29-1.39,1.47-2.82,2.89-4.24,4.32C73.14,59.81,72.9,59.81,72.8,59.84Z"/><path class="cls-2" d="M84.94,62.12a1.74,1.74,0,0,1-.55,1L80.92,66.6c-.54.54-1.19.78-1.77.2s-.34-1.23.2-1.77c1.19-1.19,2.38-2.39,3.58-3.57a1.09,1.09,0,0,1,1.3-.33A1.21,1.21,0,0,1,84.94,62.12Z"/><path class="cls-2" d="M105.71,38.33a9.11,9.11,0,1,1,9.12-9.09A9.1,9.1,0,0,1,105.71,38.33Zm0-16.56a7.46,7.46,0,1,0,7.45,7.48A7.51,7.51,0,0,0,105.73,21.77Z"/><path class="cls-2" d="M101.69,28.3a.93.93,0,0,1,.7.32c.61.61,1.23,1.21,1.83,1.84.18.19.28.19.47,0,1.43-1.45,2.87-2.88,4.31-4.33a.94.94,0,0,1,.88-.35.82.82,0,0,1,.49,1.33l-.22.23-5,4.95a.89.89,0,0,1-1.49,0c-.84-.83-1.68-1.66-2.51-2.51a.83.83,0,0,1,.26-1.43A1.64,1.64,0,0,1,101.69,28.3Z"/><path class="cls-2" d="M174.43,190.43c0-2.63,0-5.26,0-7.89a3.54,3.54,0,0,1,1.11-2.84c.59-.53.66-.92,0-1.48a3.63,3.63,0,0,1-1.14-3c0-2.87.05-5.74,0-8.61a4.19,4.19,0,0,1,1.37-3.32c1-.88,1.84-1.82,2.75-2.73.23-.24.53-.46.45-.84s-.53-.31-.81-.31c-1,0-1.47-.51-1.46-1.51q0-3.09,0-6.17c0-1.11.52-1.53,1.59-1.53q6.47,0,12.92,0c1.07,0,1.59.42,1.58,1.53,0,2.06,0,4.11,0,6.17,0,1-.43,1.51-1.46,1.51-.28,0-.72-.19-.81.31s.23.61.46.84c.95.95,1.88,1.91,2.85,2.84a4,4,0,0,1,1.26,3.07q0,4.38,0,8.76a3.64,3.64,0,0,1-1.14,3c-.64.56-.54,1,0,1.47a3.73,3.73,0,0,1,1.1,3c0,5.12,0,10.24,0,15.35a4,4,0,0,1-1.22,3.24c-.52.45-.51.78,0,1.26a3.4,3.4,0,0,1,.87,4.17,3.7,3.7,0,0,1-3.76,2.1q-6.24-.06-12.48,0a3.68,3.68,0,0,1-3.75-2.11,3.4,3.4,0,0,1,.88-4.17c.52-.49.48-.82,0-1.26a3.92,3.92,0,0,1-1.21-3.24C174.46,195.5,174.43,193,174.43,190.43ZM191,177.88H178.54a1.4,1.4,0,0,1-.3,2.31A4.1,4.1,0,0,0,176.7,184c.09,4.54.06,9.08,0,13.62a3.3,3.3,0,0,0,1.08,2.65c1.73,1.65,1.7,1.69,0,3.39-.14.13-.27.27-.41.41-.46.45-.85.94-.56,1.64a1.54,1.54,0,0,0,1.66.84c1.77,0,3.53,0,5.3,0h7.46a1.41,1.41,0,0,0,1.41-.79c.3-.62,0-1.09-.39-1.55a2.75,2.75,0,0,0-2.45-1.13c-2.48.1-5,0-7.46.05-1,0-1.08-.36-1.07-1.17s.11-1.2,1.07-1.18c2.49.07,5,0,7.46,0a2.63,2.63,0,0,0,3-3c0-4.73-.05-9.47,0-14.2a3.7,3.7,0,0,0-1.37-3.25C190.67,179.73,190,179,191,177.88Zm-6.37-2.38c2.39,0,4.78,0,7.16,0,.83,0,1.05-.26,1-1.06,0-2.39,0-4.78,0-7.16,0-.73-.17-1-.95-1q-7.1,0-14.18,0c-.77,0-1,.24-1,1,0,2.39.06,4.78,0,7.16,0,1,.38,1.08,1.18,1.06C180.13,175.47,182.38,175.5,184.62,175.5Zm0-18.37h2.43c3.51,0,3.47,0,3.43-3.52,0-.93-.33-1.1-1.16-1.08-2.29,0-4.58,0-6.87,0-3.62,0-3.58,0-3.49,3.59,0,.86.31,1,1.08,1C181.62,157.1,183.14,157.13,184.67,157.13Zm6.22,6.78c-.85-1.53-2.9-2.08-2.71-4.13,0-.32-.29-.34-.52-.34h-5.73c-.39,0-.67.13-.6.57.17,1-.53,1.55-1.12,2.18s-1.23,1-1.55,1.84H190.4A2.81,2.81,0,0,0,190.89,163.91Z"/><path class="cls-2" d="M130.66,172.06c-1.11-3-1.93-5.76.89-8a4.37,4.37,0,0,1,5.23-.12c3.05,2.25,2.16,5.15,1.08,8.14,2.12,0,4.12,0,6.11,0a1.65,1.65,0,0,1,1.9,1.46,27,27,0,0,1,1,7.33q-.14,9.88,0,19.78a27.2,27.2,0,0,1-1.15,7,1.37,1.37,0,0,1-1.52,1.17q-7.68,0-15.35,0a1.44,1.44,0,0,1-1.6-1.26,26.18,26.18,0,0,1-1.12-7.17c.09-7,.07-14,0-21.07,0-2.21.73-4.21,1.19-6.3a1.15,1.15,0,0,1,1.25-.95Zm-2.15,18.31q0,5.22,0,10.46c0,.48-.18,1,.69,1.1,3.74.43,3.89.33,3.89-3.35,0-.39,0-.77,0-1.15a13.26,13.26,0,0,1,4-10.36,10.35,10.35,0,0,0,2.91-7c0-.82-.11-1.19-1.06-1.17-3.11.06-6.22,0-9.32,0-.88,0-1.14.22-1.13,1.12C128.54,183.49,128.51,186.93,128.51,190.37Zm6.89,7.92c0,.91.06,1.82,0,2.72s.54.89,1.18.9,1.15,0,1.14-.93a12.7,12.7,0,0,1,3.91-9.24,10.1,10.1,0,0,0,2.76-5.39c.38-2.09.08-4.2.21-6.29.06-.88-.2-1.15-1.1-1.14s-1.23.19-1.23,1.17a11.26,11.26,0,0,1-3.1,8.1A12.19,12.19,0,0,0,135.4,198.29Zm1.08-21.64c2.15,0,4.3,0,6.45,0,.39,0,1.24.42,1.12-.46-.09-.7.19-1.86-1.21-1.82s-3.05,0-4.58,0c-2.58,0-5.16.08-7.73,0-1.54-.07-1.46,1-1.49,1.86s.86.42,1.29.43C132.38,176.69,134.43,176.65,136.48,176.65Zm.14,27.56c-2.29,0-4.58,0-6.88,0-.29,0-.88-.25-.74.47.18.93.12,2,1.68,1.84s3,0,4.58,0c2.39,0,4.78-.11,7.16,0,1.56.1,1.65-.93,1.63-1.85s-.93-.44-1.42-.46C140.63,204.17,138.62,204.21,136.62,204.21Zm8-12.15c-2.46,2.2-4.13,4.61-4.53,7.74-.28,2.11-.29,2.11,1.76,2.11.67,0,1.34,0,2,0s.78-.15.78-.72C144.57,198.2,144.58,195.21,144.58,192.06ZM132,167.46c1.31,0,2.53,0,3.74,0,.82,0,.74-.36.45-.85a2.11,2.11,0,0,0-2.12-1.14A2.21,2.21,0,0,0,132,167.46Zm2.26,2.23c-.57.35-1.68-.43-1.7.51a1.68,1.68,0,1,0,3.34,0C135.91,169.19,134.8,170.09,134.28,169.69Z"/><path class="cls-2" d="M160.59,208.8c-1.86,0-3.73,0-5.59,0-3.85-.06-6.76-3.62-5.33-7.16,1.9-4.67,1.54-9.31,1-14.08-.57-5.46-1-10.94-1.42-16.42a10.86,10.86,0,0,1,.58-3.95c1.52-5.17,3-10.34,4.57-15.5a11,11,0,0,0,.5-3.37c0-.91.1-1.75-1.27-1.56-.51.08-.86-.37-1-.86-1.05-3.49.82-6,4.48-6,2.63,0,5.26,0,7.89,0a3.44,3.44,0,0,1,3.67,3.68c0,.53,0,1,0,1.58.05,1-.33,1.69-1.47,1.63-.59,0-.86.14-.84.79a14.13,14.13,0,0,0,.38,3.82c1.53,5,2.92,10.07,4.51,15.07a19.19,19.19,0,0,1,.51,7.79c-.57,6.52-1.07,13-1.73,19.56-.28,2.76.89,5.13,1.61,7.63a5.57,5.57,0,0,1-5.48,7.34Zm0-2.3h5c3.33,0,4.66-1.89,3.61-5.08-.71-2.17-1.73-4.29-1.55-6.64.34-4.62.7-9.24,1.21-13.84.71-6.43,1.35-12.83-1.39-19a5.44,5.44,0,0,1-.23-.68c-1-4.62-3.4-8.94-3.18-13.85,0-.67-.44-.61-.87-.61-1.67,0-3.35,0-5,0-.87,0-1,.34-1,1.1a12.56,12.56,0,0,1-.62,4.78c-1.51,5-3,10-4.43,14.94a11.3,11.3,0,0,0-.46,4.37c.61,6.61,1.12,13.23,1.76,19.84a17,17,0,0,1-1.07,8.69,12.52,12.52,0,0,0-.49,1.5,3.27,3.27,0,0,0,3.25,4.49C157,206.52,158.79,206.5,160.6,206.5Zm.05-62c1.63,0,3.25,0,4.88,0,.71,0,.92-.22.87-.9-.05-.85-.41-1.36-1.29-1.39s-1.53,0-2.3,0c-2.2,0-4.4,0-6.6,0-1,0-1.27.63-1.3,1.52,0,1.13.78.73,1.3.75C157.69,144.53,159.17,144.5,160.65,144.5Z"/><path class="cls-2" d="M183.92,190.48a15.05,15.05,0,0,1-2.26,7.83c-.28.46-.53,1-1.15.39-.44-.44-1.52-.47-.83-1.65a12.24,12.24,0,0,0,0-13.27c-.72-1.2.44-1.2.87-1.64.64-.65.87,0,1.13.43A15,15,0,0,1,183.92,190.48Z"/><path class="cls-2" d="M185.61,190.36a15,15,0,0,1,2.26-7.82c.29-.46.54-1,1.15-.39.45.45,1.53.48.83,1.66a12.22,12.22,0,0,0,0,13.27c.71,1.2-.44,1.2-.88,1.64-.64.65-.87,0-1.13-.44A15,15,0,0,1,185.61,190.36Z"/><path class="cls-2" d="M156.12,175.52c-.8-.14-1.25-.54-1.18-1.28a1.13,1.13,0,0,1,2.25.08C157.22,175.08,156.7,175.39,156.12,175.52Z"/><path class="cls-2" d="M160.69,173.2a1.11,1.11,0,0,1,1.09,1.11,1.13,1.13,0,1,1-2.25-.05A1.12,1.12,0,0,1,160.69,173.2Z"/><path class="cls-2" d="M165.33,173.21a1.09,1.09,0,0,1,1,1.14,1.12,1.12,0,1,1-2.24-.13A1.1,1.1,0,0,1,165.33,173.21Z"/><path class="cls-2" d="M157.23,178.83c-.1.81-.47,1.27-1.21,1.24a1,1,0,0,1-1.08-1.1,1.06,1.06,0,0,1,1.17-1.15C156.8,177.83,157.08,178.31,157.23,178.83Z"/><path class="cls-2" d="M161.81,178.88c-.06.72-.42,1.19-1.16,1.19a1,1,0,0,1-1.12-1.06,1.05,1.05,0,0,1,1.13-1.19C161.33,177.81,161.68,178.24,161.81,178.88Z"/><path class="cls-2" d="M166.4,178.92c-.08.71-.45,1.17-1.19,1.15a1,1,0,0,1-1.09-1.09,1.05,1.05,0,0,1,1.17-1.16C166,177.83,166.3,178.27,166.4,178.92Z"/><path class="cls-2" d="M157.22,183.56c-.11.69-.49,1.15-1.23,1.1a1,1,0,0,1-1.05-1.13,1.06,1.06,0,0,1,1.2-1.12A1.13,1.13,0,0,1,157.22,183.56Z"/><path class="cls-2" d="M160.62,182.39a1.11,1.11,0,0,1,1.16,1,1.13,1.13,0,1,1-2.25.07A1.11,1.11,0,0,1,160.62,182.39Z"/><path class="cls-2" d="M166.4,183.59a1.11,1.11,0,0,1-1.25,1.07,1.12,1.12,0,1,1,.2-2.24A1.11,1.11,0,0,1,166.4,183.59Z"/><path class="cls-2" d="M157.22,188.09c-.08.71-.44,1.18-1.18,1.17a1.13,1.13,0,1,1,.05-2.25A1.11,1.11,0,0,1,157.22,188.09Z"/><path class="cls-2" d="M159.51,188.18a1.1,1.1,0,0,1,1-1.17,1,1,0,0,1,1.23,1.08,1.06,1.06,0,0,1-1.16,1.17A1.11,1.11,0,0,1,159.51,188.18Z"/><path class="cls-2" d="M166.4,188.15c-.11.7-.49,1.15-1.23,1.11a1.13,1.13,0,0,1,.15-2.25A1.11,1.11,0,0,1,166.4,188.15Z"/><path class="cls-2" d="M188.92,139.27a9.11,9.11,0,1,1,9.13-9.09A9.12,9.12,0,0,1,188.92,139.27Zm0-16.56a7.46,7.46,0,1,0,7.44,7.48A7.5,7.5,0,0,0,189,122.71Z"/><path class="cls-2" d="M184.9,129.24a1,1,0,0,1,.71.32c.6.61,1.23,1.21,1.82,1.84.19.19.28.19.47,0,1.43-1.45,2.88-2.88,4.32-4.33a.93.93,0,0,1,.88-.35.82.82,0,0,1,.48,1.33,2.34,2.34,0,0,1-.22.23l-5,4.95a.88.88,0,0,1-1.48,0c-.84-.83-1.68-1.66-2.51-2.51a.82.82,0,0,1,.26-1.43Z"/><line class="cls-4" x1="38" y1="238.5" x2="198.07" y2="238.5"/></g></g></svg>