<svg xmlns="http://www.w3.org/2000/svg" viewBox="0 0 217.38 224.37"><defs><style>.cls-1{fill:#c88a5e;}</style></defs><g id="Capa_2" data-name="Capa 2"><g id="Capa_1-2" data-name="Capa 1"><path class="cls-1" d="M32.11,97.6,19.2,105.84c-1.59,1-3.25,1.64-4.95.35s-1.55-3-1-4.84c.87-3.1,1.71-6.21,2.6-9.44-2.72-.53-5.34-.15-7.66-1.27-3.89-1.87-6.5-4.78-6.55-9.28-.1-8.77-.18-17.54,0-26.3a10,10,0,0,1,10.07-9.85c5.5-.17,11-.19,16.5,0,2.84.09,3.91-.7,3.82-3.72-.2-7.27-.11-14.56,0-21.84.09-10.53,7.4-18.06,17.89-18.08q55.52-.12,111,0c10.11,0,17.23,7.38,17.39,17.57.09,5.33,0,10.66,0,16.33,6.65-1.45,12.22-4.53,17.85-7.43,5.1-2.64,7.09-1.48,7.11,4.21,0,1.19.07,2.38,0,3.56-.18,2.39.2,3.87,3,4.85,6.24,2.16,9.62,7.6,9.62,14.07s-3.32,11.59-9.74,13.92c-2.44.88-3.22,2.08-2.92,4.46a26.4,26.4,0,0,1,0,3.56c-.06,5-2.28,6.34-6.77,4-5.75-3-11.47-6.1-18.2-7.69v28.87c0,15,.09,30-.06,45,0,3.07.75,4.22,3.94,4a112.26,112.26,0,0,1,12,0c7.16.29,10.9,4.14,11,11.24q.1,13.38,0,26.75c0,7.15-3.73,11-10.92,11.28-4.3.19-8.62.15-12.93,0-2.29-.06-3,.73-3.08,3.06-.63,14.1-6.54,19.65-20.66,19.66q-52.62,0-105.23,0c-13.54,0-20.22-6.68-20.22-20.24q0-49.73,0-99.44Zm73.1,118.24c18.13,0,36.27,0,54.4,0,7.71,0,11.57-4.31,11.68-12,0-3.05-1-3.79-3.85-3.68-4.6.19-9.22.17-13.82,0-7.51-.25-11.19-3.95-11.27-11.39-.1-8.92-.12-17.84,0-26.75.1-7.17,3.82-10.88,11.07-11.15,4.46-.16,8.93-.23,13.37,0,3.43.21,4.54-.78,4.51-4.39-.17-22.44-.07-44.89-.1-67.33,0-3.41,1.38-7.63-4.25-8.23-.43-.05-.94-.78-1.12-1.3a2.39,2.39,0,0,0-3.57-1.51c-1.53.77-.15,2.16.13,3.12a65,65,0,0,1,2.48,16.69c0,2-.57,3.53-2.84,3.74s-3.58-1.12-3.85-3.34c-.2-1.62-.27-3.26-.33-4.89a43.4,43.4,0,0,0-2.92-13A5.52,5.52,0,0,0,151.81,67c-6.91-3.21-9.8-8.41-8.5-14.79,1.35-6.63,6.37-10.68,13.72-11,3.76-.18,6.76-.64,10.41-3.27s3.71-5.05,3.77-8.34c0-2.23,0-4.46,0-6.69,0-11.38-3.05-14.38-14.6-14.38H53.6a52.74,52.74,0,0,0-5.34.14A9.89,9.89,0,0,0,39.11,18C38.86,26.19,39,34.37,39,42.54c0,1.88.7,2.68,2.62,2.62,3.12-.08,6.24,0,9.37,0,7.55.1,11.53,3.94,11.71,11.51.13,5.65-.23,11.31.08,16.94.81,14.47-3.29,19-18,18-4.18-.29-5.66,1.2-5.64,5.61.17,35.23.09,70.45.1,105.68,0,9.17,3.8,13,13,13Q78.68,215.87,105.21,215.84Zm-82-121.62c.52,0,.86,0,1.08-.09A32.67,32.67,0,0,0,27.66,92c6.84-5.27,14.05-9.12,23.18-7.57,3.31.56,4.93-1.63,4.95-4.81.06-7.57,0-15.14,0-22.71,0-3.29-1.65-4.86-5-4.86-12.45,0-24.91,0-37.36,0-3.59,0-5.07,1.65-5,5.17.08,6.83,0,13.66,0,20.48,0,6.2.65,6.8,7,6.82,9,0,9,0,7.59,8.52A5.22,5.22,0,0,0,23.19,94.22ZM196,36.27c-7.27,3.21-14.19,6.57-21.93,7.31-1.72.17-1.63,1.56-1.64,2.67q-.1,8,0,16c0,1.13,0,2.48,1.66,2.63,7.75.7,14.61,4.26,22,7.23ZM194.23,193c-4-5.58-7.64-10.43-11-15.45-1.62-2.42-3-2.85-5.12-.72-3.06,3-6.26,3.72-9.65.35-.75-.75-1.81-1.83-3-.35L152.83,193Zm-40.1-35.07c6.48,4.82,11.91,8.87,17.36,12.89.67.5,1.38,1.28,2.34.56,5.7-4.25,11.38-8.52,18-13.45Zm11.36-103.1c0-6.71,0-6.71-5.21-6.72-6.95,0-10.36,2.1-10.38,6.39S153.19,61,160.13,61C165.48,61,165.48,61,165.49,54.83ZM149.38,185.94l10.11-12.83c.7-.88,1.22-1.75-.05-2.58-3.25-2.13-6-5-10.06-6.72ZM198,162.71c-3.94,1.7-6.71,4.59-9.94,6.79a1.42,1.42,0,0,0-.48,2.24L198,186.14Zm5.42-100.49c3.91-1.82,5.68-4.39,5.41-8.19a7.29,7.29,0,0,0-5.41-7Z"/><path class="cls-1" d="M102.36,224.37h-50c-14.41,0-21.72-7.32-21.72-21.74q0-35.52,0-71V100.33l-1.72,1.11c-3.19,2-6,3.84-8.88,5.67-1,.67-3.81,2.44-6.66.28s-1.92-5.27-1.59-6.45c.6-2.11,1.18-4.23,1.77-6.39l.38-1.39-1.18-.09A13.76,13.76,0,0,1,7.5,92C2.64,89.65.15,86.08.1,81.38,0,72-.07,63.55.12,55A11.47,11.47,0,0,1,11.65,43.71c5.74-.18,11.32-.18,16.58,0,1.4,0,1.83-.17,2-.31s.36-.55.32-1.86c-.18-6.65-.12-13.4-.07-19.93l0-2C30.56,8.13,38.53.08,49.85.06c37.93-.08,75.28-.08,111,0,10.77,0,18.71,8,18.89,19,.06,3.66,0,7.26,0,11.08,0,1.11,0,2.23,0,3.37,5.14-1.39,9.74-3.79,14.21-6.1l1.45-.75c2.14-1.11,4.87-2.22,7-1s2.34,4.13,2.35,6.49c0,.33,0,.65,0,1,0,.88,0,1.78,0,2.71-.15,2,.08,2.64,2,3.31,6.65,2.31,10.62,8.09,10.63,15.49s-3.81,12.82-10.73,15.33c-1.9.69-2.14,1.28-1.94,2.86a17.57,17.57,0,0,1,.07,2.89c0,.29,0,.59,0,.88,0,3.09-.84,5.06-2.45,6s-3.74.73-6.52-.72l-.76-.4c-4.8-2.52-9.74-5.11-15.24-6.68v26.93c0,3.92,0,7.85,0,11.78,0,10.9,0,22.17-.07,33.26,0,1.53.2,2.06.39,2.24s.59.36,1.95.27a118,118,0,0,1,12.19,0c7.93.32,12.33,4.84,12.4,12.73.07,8.74.07,17.75,0,26.78-.06,8-4.33,12.41-12.35,12.76-3.79.17-7.81.17-13,0-1.33,0-1.46,0-1.54,1.62-.67,14.78-7.29,21.09-22.16,21.1ZM33.61,94.86v36.73q0,35.52,0,71c0,12.78,6,18.74,18.72,18.74q52.62,0,105.23,0c13.37,0,18.57-5,19.17-18.23.09-2.15.66-4.59,4.62-4.49,5.15.15,9.11.14,12.82,0,6.42-.27,9.43-3.39,9.48-9.79.07-9,.07-18,0-26.73,0-6.3-3.17-9.49-9.52-9.75a114.62,114.62,0,0,0-11.88,0,5.49,5.49,0,0,1-4.2-1.08c-1.2-1.14-1.35-2.89-1.33-4.44.11-11.08.09-22.34.07-33.24,0-3.93,0-7.86,0-11.78V71.07l1.85.43c6.61,1.57,12.29,4.54,17.78,7.42l.76.4c1.68.88,3,1.17,3.6.81s.95-1.63,1-3.49c0-.31,0-.62,0-.93a14.78,14.78,0,0,0-.05-2.42c-.39-3.08.81-5,3.9-6.06,5.73-2.08,8.75-6.4,8.75-12.51s-3.22-10.79-8.61-12.65c-3.86-1.34-4.22-3.86-4-6.38,0-.78,0-1.58,0-2.43,0-.34,0-.68,0-1,0-3.06-.64-3.77-.9-3.93s-1.22-.4-4,1.05l-1.44.75c-5.16,2.68-10.5,5.45-16.77,6.82l-1.82.39V35.46c0-1.8,0-3.56,0-5.29,0-3.8,0-7.39,0-11-.15-9.45-6.69-16.06-15.89-16.08-35.75-.09-73.1-.09-111,0-9.57,0-16.32,6.84-16.4,16.59l0,2c0,6.5-.11,13.22.07,19.81a5.44,5.44,0,0,1-1.2,4.08,5.51,5.51,0,0,1-4.17,1.18c-5.2-.17-10.72-.17-16.4,0-5,.15-8.51,3.6-8.62,8.38C2.93,63.58,3,72,3.1,81.34c0,3.52,1.9,6.12,5.7,8a11.39,11.39,0,0,0,4.14.79,24.29,24.29,0,0,1,3.16.36l1.59.31-1.27,4.59c-.59,2.17-1.17,4.29-1.77,6.41s-.23,2.69.51,3.25,1.52.68,3.23-.42l8.88-5.67Zm102.84,122.5H92.28q-20.07,0-40.14,0c-10,0-14.47-4.49-14.47-14.5q0-14,0-28c0-25.46,0-51.79-.11-77.68,0-2.79.54-4.56,1.78-5.72C40.92,90,43.22,90,44.82,90.06c7,.48,11.25-.34,13.6-2.66s3.23-6.55,2.82-13.71c-.18-3.32-.14-6.68-.09-9.93,0-2.32.06-4.72,0-7.07-.16-6.76-3.41-9.95-10.23-10-3,0-6.17-.08-9.31,0a4,4,0,0,1-3.1-1,4.15,4.15,0,0,1-1.06-3.14c0-3,0-5.89,0-8.84,0-5.15,0-10.47.14-15.72A11.35,11.35,0,0,1,48.1,7.19,42.72,42.72,0,0,1,52.74,7H156.61c12.34,0,16.1,3.71,16.1,15.88v2c0,1.56,0,3.12,0,4.67v.3c0,3.29-.1,6.13-4.39,9.23-4.13,3-7.66,3.39-11.21,3.56-6.62.31-11.12,3.89-12.32,9.82-1.48,7.22,3.35,11.13,7.66,13.13A7.06,7.06,0,0,1,156.35,70a45.56,45.56,0,0,1,3,13.42c.05,1.46.12,3.14.32,4.77.22,1.84,1,2.14,2.22,2,.92-.09,1.53-.29,1.48-2.22A63.26,63.26,0,0,0,161,71.66a3.84,3.84,0,0,0-.25-.52,3.59,3.59,0,0,1-.53-2.81,2.64,2.64,0,0,1,1.41-1.55,3.88,3.88,0,0,1,5.67,2.36,1.4,1.4,0,0,0,.18.34c5.8.77,5.52,5.14,5.34,8,0,.55-.07,1.11-.07,1.64q0,10.78,0,21.56c0,15,0,30.51.1,45.76,0,1.56-.14,3.5-1.43,4.73s-3.17,1.26-4.66,1.17c-4.61-.28-9.28-.17-13.23,0-6.49.24-9.54,3.31-9.63,9.67-.11,8.42-.11,17.16,0,26.72.07,6.62,3.1,9.68,9.82,9.9,4.93.17,9.41.17,13.71,0a4.44,4.44,0,0,1,5.41,5.19c-.12,8.67-4.8,13.46-13.17,13.49C151.93,217.35,144.16,217.36,136.45,217.36Zm-31.24-3h15.66c12.7,0,25.83,0,38.74,0,6.75,0,10.08-3.47,10.18-10.53,0-1.37-.24-1.76-.34-1.87s-.65-.34-1.95-.29c-4.37.18-8.93.18-13.93,0-8.35-.28-12.63-4.61-12.72-12.87-.11-9.58-.11-18.34,0-26.79.11-8,4.44-12.33,12.52-12.62,4-.15,8.78-.26,13.51,0,1.29.08,2.1,0,2.42-.35s.51-1.17.5-2.52c-.12-15.27-.11-30.78-.1-45.79q0-10.78,0-21.56c0-.59,0-1.21.08-1.83.2-3.24.16-4.57-3-4.91-1.3-.14-2.12-1.56-2.38-2.3a1.25,1.25,0,0,0-.58-.78,1,1,0,0,0-.67,0l.2.39a5.42,5.42,0,0,1,.47,1.07,66.07,66.07,0,0,1,2.53,17.07c.11,4.24-2.58,5.12-4.19,5.28-3,.29-5.09-1.46-5.48-4.66-.21-1.74-.29-3.5-.34-5A42.24,42.24,0,0,0,153.52,71a4,4,0,0,0-2.34-2.58c-7.48-3.47-10.8-9.32-9.34-16.45S149,40.09,157,39.72c3.88-.18,6.42-.69,9.6-3s3.09-3.77,3.14-6.85v-.3c0-1.53,0-3.07,0-4.6V22.92c0-10.6-2.33-12.88-13.1-12.88H52.73a38.19,38.19,0,0,0-4.32.14,8.37,8.37,0,0,0-7.8,7.88c-.16,5.2-.15,10.5-.14,15.62,0,3,0,5.92,0,8.87,0,.81.16,1,.16,1a1.59,1.59,0,0,0,.92.13c3.2-.08,6.36,0,9.43,0,8.43.11,13,4.6,13.19,13,0,2.39,0,4.82,0,7.17,0,3.2-.09,6.5.09,9.72.46,8.2-.65,13-3.71,16S52.6,93.6,44.61,93.05c-1.63-.12-2.67.08-3.2.57s-.85,1.69-.84,3.53c.13,25.9.12,52.23.11,77.69q0,14,0,28c0,8.37,3.11,11.49,11.48,11.5q20.06,0,40.13,0Zm91.94-19.84h-47.4l5.84-7.47,8.71-11.13a3,3,0,0,1,2.23-1.31,4,4,0,0,1,2.95,1.5c2.55,2.54,4.8,2.43,7.56-.32a5,5,0,0,1,3.82-1.8c1.68.16,2.81,1.55,3.61,2.74,2.34,3.5,4.83,6.93,7.46,10.56,1.14,1.57,2.31,3.18,3.51,4.85Zm-41.24-3H191.3L189.51,189c-2.66-3.65-5.16-7.11-7.54-10.65-.85-1.28-1.29-1.41-1.4-1.42s-.48,0-1.41.93c-5,5-9.16,3-11.77.35a7.07,7.07,0,0,0-.65-.59l-.08.1L158,188.88Zm43.59-.73-13.14-18.15a3,3,0,0,1-.61-2.29,3.22,3.22,0,0,1,1.47-2.07c1-.7,2-1.47,3-2.28a31.56,31.56,0,0,1,7.16-4.65l2.09-.9Zm-10.72-19.93v0l7.71,10.65V165.16a40.91,40.91,0,0,0-4.39,3.17c-1,.81-2.09,1.65-3.2,2.41Zm-40.9,19.43V161.55l2.08.88a32,32,0,0,1,7.15,4.54c1.07.83,2.08,1.61,3.15,2.3a3,3,0,0,1,1.42,2,3.66,3.66,0,0,1-1,2.78Zm3-24v15.36l7.43-9.43.3-.4c-1.16-.76-2.27-1.61-3.33-2.44A41.58,41.58,0,0,0,150.88,166.25Zm22.2,6.92a3.75,3.75,0,0,1-2.25-1l-.23-.18-12.78-9.48-8.22-6.12h46.71l-8.55,6.4c-4.58,3.44-8.8,6.6-13,9.75A2.73,2.73,0,0,1,173.08,173.17Zm-14.42-13.74,1,.71c4.56,3.39,8.66,6.44,12.77,9.48a3.55,3.55,0,0,1,.31.23l.34.26L186,160.43l1.33-1ZM21.9,95.82l-.19-1.39q0-.29-.09-.48a3.3,3.3,0,0,1-.06-1.15c.5-3,.92-5.65.46-6.2S18.72,86,15.45,86C8.27,86,7,84.76,7,77.71c0-2.65,0-5.3,0-7.95,0-4.1,0-8.35,0-12.52a6.68,6.68,0,0,1,1.63-5,6.49,6.49,0,0,1,4.85-1.66h.06c12.35.06,24.71,0,37.35,0h0a6.48,6.48,0,0,1,4.79,1.67,6.34,6.34,0,0,1,1.65,4.69v5c0,5.8,0,11.79,0,17.69a6.59,6.59,0,0,1-2.07,5.23,5.44,5.44,0,0,1-4.63,1c-9.07-1.54-15.93,2.59-22,7.28a25.35,25.35,0,0,1-2.91,1.85l-.63.37a2.54,2.54,0,0,1-1.36.29H23.3ZM13.44,53.55a3.81,3.81,0,0,0-2.72.77A4,4,0,0,0,10,57.2c0,4.2,0,8.45,0,12.57,0,2.64,0,5.29,0,7.93C10,83,10,83,15.46,83c5.13,0,7.47,0,8.85,1.64,1.24,1.47,1,3.56.39,7.48a17.88,17.88,0,0,0,2-1.32C33.05,86,40.88,81.22,51.1,83a2.59,2.59,0,0,0,2.19-.39,3.83,3.83,0,0,0,1-2.95c.05-5.89,0-11.88,0-17.67v-5a3.57,3.57,0,0,0-.77-2.58,3.72,3.72,0,0,0-2.67-.79h0c-12.64,0-25,0-37.38,0ZM197.49,74.32l-2.07-.84q-2.16-.89-4.29-1.8c-5.77-2.46-11.22-4.79-17.22-5.32-3-.27-3-3-3-4v-.12c0-5.69,0-10.93,0-16V46c0-1,0-3.66,3-3.95,6.77-.65,12.93-3.39,19.45-6.3L197.49,34ZM174,63.34l.21,0c6.48.58,12.41,3.11,18.14,5.55l2.18.93V38.58c-6.71,3-13.06,5.8-20.29,6.5a.53.53,0,0,0-.24.05,7.48,7.48,0,0,0,0,.94v.2c-.07,5.07-.08,10.29,0,15.95v.14a3.59,3.59,0,0,0,.08,1Zm28,1.23V45l2,.67a8.79,8.79,0,0,1,6.42,8.26c.32,4.39-1.73,7.55-6.27,9.66Zm3-15.1V59.61a5.75,5.75,0,0,0,2.41-5.47A5.69,5.69,0,0,0,204.92,49.47Zm-44.35,13h-.44c-4.68,0-7.88-.93-9.77-2.84a7,7,0,0,1-2-5.18c0-3.59,2.08-7.88,11.84-7.88h0c6.34,0,6.71.94,6.71,8.22h0c0,3.46,0,5.2-1,6.39S163.33,62.51,160.57,62.51Zm-.33-12.9c-8.82,0-8.83,3.55-8.84,4.89a4.09,4.09,0,0,0,1.09,3.06c1.28,1.29,3.85,1.94,7.64,1.95,1.49,0,3.33,0,3.55-.25s.31-2.33.31-4.43c0-2.42,0-4.52-.34-4.95-.2-.26-2-.26-3.37-.27Z"/><path class="cls-1" d="M105,144.75c-12.91,0-25.83,0-38.75,0-5.35,0-5.83-.53-5.85-5.89,0-5.64-.13-11.28.07-16.92.49-14.22,11.78-26.17,26-26.77,12-.51,24.06-.5,36.06-.09,15.28.51,26.82,12.67,27.21,28,.14,5.49-.19,11,.16,16.47.26,4.11-1.58,5.21-5.21,5.2C131.38,144.71,118.16,144.75,105,144.75Zm.21-6.9c11,0,22-.11,33,.07,3.32.05,4.94-.6,4.53-4.34a91,91,0,0,1-.07-9.35c-.1-12.66-8.48-21.84-21.16-22.33-11-.42-22-.4-33,0-12.37.44-20.57,9-21.18,21.38-.17,3.56.13,7.14-.12,10.69-.22,3.22,1.1,4,4.12,3.95C82.58,137.76,93.87,137.85,105.16,137.85Z"/><path class="cls-1" d="M144.69,146.28h-.11c-9.68-.05-19.53,0-29.06,0H94.31c-9.37,0-18.74,0-28.11,0-6.16,0-7.33-1.19-7.35-7.38,0-1.24,0-2.48,0-3.72,0-4.35-.07-8.84.09-13.26.53-15.19,12.56-27.59,27.39-28.22,11.39-.49,23.57-.52,36.18-.09,15.91.53,28.23,13.22,28.65,29.5.06,2.28,0,4.6,0,6.83,0,3.16-.07,6.42.13,9.58.15,2.3-.3,4-1.37,5.1C148.52,146.07,146.41,146.28,144.69,146.28Zm-17.9-3c5.92,0,11.89,0,17.81,0,1.62,0,2.65-.24,3.14-.76a3.89,3.89,0,0,0,.56-2.85c-.21-3.27-.18-6.59-.14-9.8,0-2.21,0-4.49,0-6.72-.37-14.68-11.45-26.1-25.76-26.58-12.53-.43-24.62-.4-35.95.09-13.27.56-24,11.69-24.51,25.32-.16,4.37-.12,8.82-.09,13.14,0,1.24,0,2.48,0,3.73,0,4.38,0,4.38,4.36,4.39,9.36,0,18.73,0,28.1,0h32.48Zm11.72-3.82h-.4c-7.93-.13-16-.11-23.79-.09l-9.16,0H96c-8.08,0-16.44,0-24.65.07-1.55,0-3.35-.13-4.53-1.36a5.45,5.45,0,0,1-1.1-4.19c.12-1.84.1-3.74.07-5.58,0-1.66,0-3.38,0-5.08.66-13.39,9.54-22.35,22.62-22.81,11.37-.4,22.5-.4,33.09,0,13.41.52,22.49,10.09,22.6,23.82,0,1,0,2.11,0,3.17a46.22,46.22,0,0,0,.11,6c.15,1.31.2,3.22-1,4.54S140.28,139.42,138.51,139.42Zm-15.1-3.1c4.91,0,9.85,0,14.75.1.58,0,2.3,0,2.77-.48a3.24,3.24,0,0,0,.25-2.2,47.62,47.62,0,0,1-.13-6.42c0-1,.06-2.06,0-3.08-.1-12-8-20.38-19.72-20.84-10.51-.41-21.56-.41-32.86,0s-19.16,8.24-19.73,20c-.08,1.61-.06,3.28,0,4.9,0,1.9,0,3.87-.08,5.82A2.87,2.87,0,0,0,69,136c.28.3,1.06.45,2.31.43,8.24-.11,16.6-.09,24.7-.07q9.16,0,18.34,0Z"/><path class="cls-1" d="M104.87,205.9c-6.68,0-13.37,0-20,0-5.57-.06-8.82-3.26-9.07-8.77-.07-1.78-.08-3.57,0-5.34.26-5.06,3.27-8.53,8.37-8.6q20.92-.31,41.86,0c5.1.08,8.08,3.48,8.43,8.58a41.37,41.37,0,0,1,0,5.34c-.32,5.57-3.54,8.73-9.08,8.79C118.52,206,111.69,205.9,104.87,205.9Zm.21-7c6.24,0,12.48-.16,18.71.07,3.57.12,3.7-1.79,3.67-4.46s0-4.62-3.64-4.58q-18.7.2-37.42,0c-3.61,0-3.6,2-3.61,4.57s-.09,4.63,3.58,4.48C92.6,198.72,98.85,198.89,105.08,198.89Z"/><path class="cls-1" d="M92.77,207.42c-2.65,0-5.32,0-8,0-6.32-.07-10.27-3.88-10.54-10.21-.09-1.95-.09-3.75,0-5.48.31-6,4.18-9.94,9.85-10,13.9-.21,28-.21,41.9,0,5.7.09,9.49,3.91,9.9,10a44.24,44.24,0,0,1,0,5.53c-.37,6.41-4.22,10.13-10.56,10.2-4.77.05-9.61,0-14.29,0H92.77ZM105,184.51c-7,0-13.9.05-20.81.16-4.15.06-6.66,2.68-6.89,7.17-.09,1.64-.09,3.34,0,5.2.21,4.75,2.83,7.29,7.58,7.34s9.38,0,14,0h12.29c4.67,0,9.5,0,14.24,0s7.33-2.6,7.61-7.38a42,42,0,0,0,0-5.15c-.31-4.5-2.84-7.12-7-7.18C119,184.56,112,184.51,105,184.51ZM86,200.47a4.83,4.83,0,0,1-3.49-1.14c-1.26-1.21-1.25-3-1.25-4.69v-.16c0-1.78,0-3.59,1.28-4.84a5.1,5.1,0,0,1,3.85-1.23c12,.14,24.59.14,37.39,0h.11c5,0,5,3.64,5,6.06,0,1.57,0,3.52-1.27,4.8a5.12,5.12,0,0,1-4,1.18c-4.36-.16-8.82-.13-13.12-.09l-5.54,0h0c-1.85,0-3.69,0-5.54,0-4.3,0-8.74-.07-13.09.1Zm.26-9.06a2.57,2.57,0,0,0-1.62.36c-.37.37-.38,1.55-.38,2.69v.19c0,1,0,2.19.33,2.52.11.1.5.34,1.69.29,4.42-.17,8.9-.13,13.23-.1,1.85,0,3.73,0,5.54,0h0l5.51,0c4.34,0,8.83-.07,13.26.09a2.67,2.67,0,0,0,1.74-.33c.4-.38.38-1.72.37-2.61,0-2.82-.06-3.11-2.12-3.1-12.82.13-25.42.13-37.46,0Z"/><path class="cls-1" d="M105.13,86.49A17.55,17.55,0,1,1,123,69.18,17.7,17.7,0,0,1,105.13,86.49Zm10.73-17.28A10.49,10.49,0,0,0,105.4,58.36a10.59,10.59,0,1,0-.53,21.18A10.54,10.54,0,0,0,115.86,69.21Z"/><path class="cls-1" d="M105.21,88h-.09A19.16,19.16,0,0,1,86,68.93a18.82,18.82,0,0,1,5.65-13.46,19.39,19.39,0,0,1,14-5.58A19.12,19.12,0,0,1,124.46,69.2,19.21,19.21,0,0,1,105.21,88Zm.15-35.1a16.42,16.42,0,0,0-11.61,4.72A15.84,15.84,0,0,0,89,68.93,16.16,16.16,0,0,0,105.14,85h.07a16.2,16.2,0,0,0,16.25-15.83,16.13,16.13,0,0,0-15.88-16.27Zm-.1,28.16h-.44A12.24,12.24,0,0,1,93,68.89a11.91,11.91,0,0,1,3.61-8.5,12.12,12.12,0,0,1,20.74,8.85h0a12.06,12.06,0,0,1-12.11,11.81Zm0-21.19a9.24,9.24,0,0,0-6.53,2.67A8.93,8.93,0,0,0,96,68.9a9.22,9.22,0,0,0,8.9,9.14,9.09,9.09,0,1,0,.46-18.18Z"/><path class="cls-1" d="M103.29,18.48c5.35,0,10.7,0,16,0,2.51,0,4.55.53,4.5,3.55,0,2.73-2,3.43-4.28,3.43q-16.71.06-33.43,0c-2.25,0-4.2-.68-4.25-3.45-.06-3.09,2-3.55,4.48-3.53C92,18.51,97.65,18.48,103.29,18.48Z"/><path class="cls-1" d="M103,27c-5.77,0-11.41,0-16.89,0-4.93,0-5.72-3.09-5.75-4.92a4.85,4.85,0,0,1,1.24-3.64C82.88,17.11,84.77,17,86.37,17c4,0,8,0,12,0H108c3.77,0,7.55,0,11.33,0,1.56,0,3.47.14,4.77,1.45A4.81,4.81,0,0,1,125.34,22c0,1.83-.82,4.9-5.78,4.91ZM86.21,20a3.94,3.94,0,0,0-2.46.53A2,2,0,0,0,83.38,22c0,1.08.24,2,2.76,2,10.62,0,21.86,0,33.41,0,2.55,0,2.78-.93,2.79-2a2,2,0,0,0-.39-1.46,3.76,3.76,0,0,0-2.6-.56c-3.79,0-7.58,0-11.37,0H98.42c-4,0-8,0-12.07,0Z"/><path class="cls-1" d="M31,72.06c-4.59,0-9.18,0-13.77,0-2.38,0-4.17-.69-4.2-3.39s1.68-3.65,4-3.66q14.21,0,28.41,0c2.41,0,4.13,1.2,4,3.71s-1.88,3.39-4.32,3.35C40.47,72,35.73,72.06,31,72.06Z"/><path class="cls-1" d="M45.37,73.58h-.19c-3.31,0-6.69,0-10,0H27c-3.25,0-6.5,0-9.75,0-4.91,0-5.7-3-5.72-4.87A4.89,4.89,0,0,1,12.85,65a5.71,5.71,0,0,1,4.22-1.51c9.27,0,18.84,0,28.43,0a5.72,5.72,0,0,1,4.24,1.59A4.91,4.91,0,0,1,51,68.79C51,70.24,50.29,73.58,45.37,73.58Zm-6.08-3c2,0,4,0,5.94,0,2.7.06,2.76-1.18,2.79-1.91a2,2,0,0,0-.44-1.49,3,3,0,0,0-2.09-.66c-9.59,0-19.14,0-28.41,0a3.06,3.06,0,0,0-2.09.61,2.09,2.09,0,0,0-.46,1.53c0,1.1.26,2,2.69,1.91,3.26,0,6.53,0,9.79,0H39.29Z"/></g></g></svg>