<svg xmlns="http://www.w3.org/2000/svg" viewBox="0 0 142.02 142.02"><defs><style>.cls-1{fill:#6c2912;}.cls-2{fill:#fff;}.cls-3{fill:#c88a5e;}</style></defs><g id="Capa_2" data-name="Capa 2"><g id="Capa_1-2" data-name="Capa 1"><circle class="cls-1" cx="71.01" cy="71.01" r="71.01"/><circle class="cls-2" cx="71.01" cy="71.01" r="60.69"/><path class="cls-3" d="M55,38.48c-1-3.61-.78-6.68,2.11-8.6a27.31,27.31,0,0,1,8.3-4c2.76-.68,5.83-.21,8.77-.11A4.28,4.28,0,0,1,77,27.13a7.32,7.32,0,0,0,2.59,1.39c2.35,1,4.49-.69,6.77-.31.24,0,.59-.46.87-.72a6.89,6.89,0,0,1,9.74,0,2.54,2.54,0,0,0,1.91.79,8.26,8.26,0,0,1,8.19,5.84,4.74,4.74,0,0,0,1.12,1.82,6.75,6.75,0,0,1,0,9.82,2.26,2.26,0,0,0-.79,1.88,5.29,5.29,0,0,1-4.66,5.68,2.36,2.36,0,0,0-2,1.43,7.83,7.83,0,0,1-3.55,3.51c-.33.18-.85.27-.76.76s.64.36,1,.44c1.37.32,2.75.59,4.13.86,5.7,1.12,8.76,4.82,8.77,10.66q0,9.74,0,19.45a3.42,3.42,0,0,0,1,2.55,6.23,6.23,0,0,1-2.71,10.43c-1.07.34-1.21.8-1.15,1.76.11,1.8,0,3.61.13,5.41.09,1.31-.41,1.57-1.63,1.56-13.76,0-27.52,0-41.28,0-10.32,0-20.63,0-30.95,0-1.37,0-1.76-.4-1.67-1.7.12-1.86.05-3.72.15-5.58,0-.8-.16-1.1-1-1.37-4.91-1.62-6.28-6.84-2.82-10.62a3,3,0,0,0,.86-2.24c0-6.54,0-13.08,0-19.62,0-5.93,3.06-9.59,8.9-10.71,1.43-.27,2.86-.6,4.29-.91.26-.06.6,0,.7-.34s-.18-.53-.42-.64A8.62,8.62,0,0,1,38.4,54c-.32-.7-.92-.54-1.43-.64-3-.58-4.81-2.57-4.9-5.38s1.68-5,4.75-5.65a1.56,1.56,0,0,0,1.26-1.12,6.94,6.94,0,0,1,7-4.59c1.19,0,2.37.05,3.56,0A8.89,8.89,0,0,1,55,38.48ZM84.63,62.84c4,2.42,5.86,4.64,6,8a91.76,91.76,0,0,1-.17,15c-.1.85.1,1.11.92,1.1,2.2,0,4.4,0,6.6,0,.89,0,1.18-.33,1.17-1.2-.05-1.91-.06-3.83,0-5.74,0-1-.21-1.64-1.38-1.44s-1.51-.32-1.54-1.49c0-1.62,1-1.3,1.91-1.31,2.84,0,3.76-1,3.77-3.75,0-1.12,0-2.25,0-3.38,0-.91.19-1.26,1.2-1.29,1.23,0,1.73.26,1.61,1.57a33.66,33.66,0,0,0,0,3.89,4.12,4.12,0,0,1-1.12,3.43c-1.81,1.41-1.7,3.2-1.65,5.11s0,3.6,0,5.41a2.72,2.72,0,0,0,.21,1.48,34.69,34.69,0,0,1,4.72,11.84c.16.8.51.8,1.17.55a3.4,3.4,0,0,0,1.2-5.67c-1.59-1.44-1.81-3-1.79-4.94.07-6.48,0-13,0-19.44,0-4.19-2.18-6.73-6.28-7.53-1.38-.27-2.77-.5-4.15-.78-3.66-.74-3.64-.74-3.56-4.55a1.34,1.34,0,0,1,1.13-1.53,5.93,5.93,0,0,0,4.53-6.15c0-2.76,0-5.52,0-8.29,0-.87,0-1.71-1-2.14s-1.57.2-2.2.79c-2.59,2.46-5,2.45-7.68,0-.58-.55-1.12-1.14-2.05-.8s-1.06,1.21-1.07,2.07c0,2.82,0,5.64,0,8.46a5.86,5.86,0,0,0,4.57,6.1c.84.26,1.08.63,1,1.41a19.57,19.57,0,0,0,0,2.54c.08,1-.15,1.53-1.29,1.66C87.93,62,86.42,62.46,84.63,62.84ZM55,62.85l-2.59-.52c-3.89-.76-3.87-.76-3.64-4.81a1.18,1.18,0,0,1,1-1.26c3.17-1,4.54-2.93,4.61-6.25q.06-3,0-5.92c-.07-3-1.69-4.57-4.63-4.63-1.52,0-3,0-4.56,0-3.12,0-4.74,1.7-4.78,4.86,0,1.86,0,3.72,0,5.58,0,3.37,1.43,5.28,4.67,6.39.51.17,1,.26,1,.93-.06,1.4.43,3-.21,4.16-.46.84-2,.54-3,.84a2.22,2.22,0,0,1-.49.13c-.61,0-.55.38-.39.8a29.7,29.7,0,0,0,6.78,10.75C48.54,68.8,50.37,65.16,55,62.85ZM76.68,47.11h.09c0-1,0-2,0-3-.1-3-1.73-4.56-4.68-4.61-1.58,0-3.16,0-4.73,0-2.78.07-4.47,1.64-4.57,4.37q-.12,3.29,0,6.59C62.89,53,64,55.1,66.53,55.9c1.63.52,2.14,1.3,1.89,2.86a7.35,7.35,0,0,0,0,1.69c.06.75-.23,1.2-1,1.29-1.68.22-2,1.29-1.82,2.76.08.61,0,1.24,0,1.85a4.11,4.11,0,0,0,8.2.08c.07-.84,0-1.7.06-2.53.13-1.15-.25-1.84-1.43-2S71,61.12,71.12,60a9.1,9.1,0,0,0,0-2c-.12-1.09.29-1.53,1.37-1.85a5.54,5.54,0,0,0,4.17-5A39.07,39.07,0,0,0,76.68,47.11ZM44.83,87h3.38c.53,0,1.1,0,.9-.8-.61-2.4-.22-4.83-.29-7.24A2.38,2.38,0,0,0,48,77.05a31.62,31.62,0,0,1-8.56-12.78c-.41-1.14-.87-1.27-2-1-3.41,1-5.35,3.44-5.37,7.23,0,6.6-.06,13.19,0,19.78a5.49,5.49,0,0,1-1.75,4.62,3.43,3.43,0,0,0,.76,5.57c.94.51,1.5.43,1.69-.78a17,17,0,0,1,2.23-6.85c2.61-3.91,2.84-8.15,2.58-12.57a8.51,8.51,0,0,1,0-1,2.2,2.2,0,0,0-.9-2.16,4.88,4.88,0,0,1-1.85-4c0-1.36,0-2.71,0-4.06,0-.95-.11-1.68,1.32-1.7s1.57.61,1.47,1.71c0,.62,0,1.24,0,1.86,0,4.23.3,4.56,4.5,4.87h.34c1.1.07.74.92.78,1.52s.12,1.42-.85,1.25c-2.11-.38-2.15.87-2,2.35a15.88,15.88,0,0,1,0,1.69C40.41,87,40.41,87,44.83,87Zm6.76-9c0,1.86,0,3.72,0,5.58,0,2.69,1,4.07,3.61,4.81,3.83,1.11,7.67,2.19,11.51,3.27a16.1,16.1,0,0,0,3.94.9c2,0,3.18-.93,3.23-2.62a2.6,2.6,0,0,0-3-2.82,11.7,11.7,0,0,1-5.67-1.3c-2.19-1-4.42-2-6.67-2.84a1.75,1.75,0,0,1-1.35-2,29.86,29.86,0,0,0,0-4.23c-.08-1.25.13-2.2,1.51-2.57.85-.22,1-.66.44-1.45a11,11,0,0,1-1.91-6.37c0-1.08-.42-1-1.22-.75a7,7,0,0,0-4.41,6.62C51.55,74.11,51.59,76,51.59,77.94ZM61.84,31.17c-2.44,0-4.49,1.22-4.46,3.27,0,2.38.41,4.74-.07,7.12-.08.38,0,1.19.75,1,.93-.26,2,0,2.52-1.49,1.05-2.93,3.42-4.35,6.54-4.4,1.64,0,3.27,0,4.9,0,3.42,0,5.89,1.46,7.09,4.65.52,1.39,1.65,1.17,2.47,1.21s.66-1.06.72-1.75A2.93,2.93,0,0,0,81.86,39a1.79,1.79,0,0,1,0-1.88c1.35-3.16-.6-6-4-5.93a1.72,1.72,0,0,1-1.76-.88,3.94,3.94,0,0,0-5.42-1.48,2,2,0,0,1-1.86-.06,4,4,0,0,0-5.32,1.49C63,30.92,62.66,31.47,61.84,31.17ZM85,36.94a4.72,4.72,0,0,1,4.87,1c2.16,2,2.33,2,4.55,0,2.4-2.14,6.4-1.67,6.91,1.25.49,2.72,2.24,3.2,4,4.24.75.44,1.06.29,1.48-.31a4.23,4.23,0,0,0-1.11-5.69,2.23,2.23,0,0,1-1.08-1.56,5.31,5.31,0,0,0-6.45-4.63c-1.25.22-1.92.16-2.63-1.08-1.16-2-4.05-2.76-5.52-1.15-1.71,1.87-3.32,2.93-6.18,1.86A9,9,0,0,1,85,36.94ZM74.9,85.52a6,6,0,0,1,1.86,3.94c0,1,.38.94,1.13.71,2.26-.7,4.54-1.28,6.8-2a4.16,4.16,0,0,0,3.25-4.37c0-3.89.07-7.77,0-11.66a6.88,6.88,0,0,0-4.11-6.46c-1.14-.55-1.54-.39-1.52,1,.07,4.57-.06,9.13.07,13.69a2.42,2.42,0,0,1-1.91,2.79C78.61,83.8,76.84,84.69,74.9,85.52Zm-9.31,16.13c0-2.08,0-4.16,0-6.24a1.3,1.3,0,0,0-1.13-1.53c-1.79-.46-3.58-.93-5.34-1.5-.84-.28-1.17-.21-1.35.74-.92,5-1.9,10-2.88,15-.17.86.1,1.21,1,1.2,2.76,0,5.51-.07,8.26,0,1.16,0,1.44-.42,1.41-1.47C65.55,105.81,65.59,103.73,65.59,101.65Zm8.36.14c0,2,.06,4,0,6.07-.05,1.21.4,1.54,1.55,1.5,2.42-.07,4.84,0,7.26,0,2.09,0,2.09,0,1.67-2.14-.14-.72-.27-1.44-.41-2.15-.71-3.81-1.46-7.6-2.11-11.42-.22-1.29-.67-1.66-2-1.15a29.1,29.1,0,0,1-4,1.17,2.18,2.18,0,0,0-2,2.58C74.05,98.07,74,99.94,74,101.79Zm19.48-12c-2.49.09-5.37-.41-8,1.13-.71.41-1.07.54-.94,1.53.58,4.72,3.73,7.63,7,10.49.7.6,1.11.14,1.58-.24a24.66,24.66,0,0,0,7.47-10,2,2,0,0,0-2-2.86C96.92,89.77,95.34,89.78,93.43,89.78Zm-7,12.55c.37,2,.73,3.88,1,5.76A1.3,1.3,0,0,0,89,109.37c3.61-.07,7.21,0,10.81,0,5.17,0,5.22,0,4.77-5.22a25.7,25.7,0,0,0-2.13-8.77,29,29,0,0,1-8.76,10.44c-1.13.83-2,1-3.05,0C89.31,104.64,87.89,103.55,86.4,102.33ZM51.51,58.76l.15.49a32.18,32.18,0,0,1,5.68,1.2c2.7,1.1,5,0,7.4-.76.33-.11.7-.21.77-.56s-.35-.63-.69-.81a8.84,8.84,0,0,1-4-4.15,14.63,14.63,0,0,0-3.72-1.4.82.82,0,0,0-.27.41A9.25,9.25,0,0,1,51.51,58.76ZM88,58.94a10.54,10.54,0,0,1-4.77-4.68c-.34-.71-.34-2.1-1.82-1.12-.76.5-2-.13-2.55.92a9.26,9.26,0,0,1-4.3,4.37c-.43.2-.87.73-.23,1,1.75.7,3.61,1.95,5.39,1.59A47.53,47.53,0,0,0,88,58.94Zm-43.24,50.3c.29-.4,2.16.92,1.5-.83-1.66-4.4-3.64-8.68-5.52-13-.27-.62-2.66-1.32-3.17-.92-.93.74-.44,1.59-.08,2.42,1.55,3.61,3.14,7.19,4.61,10.83C42.54,109,43.14,109.66,44.72,109.24Zm-.95-13.89c1.93,4.5,3.84,8.92,5.72,13.35.33.78,1,.59,1.56.64s.86-.4,1-.92a4.54,4.54,0,0,0,.1-2.8q-2-4.64-4-9.29c-.23-.53-.46-1-1.18-1C45.94,95.37,44.94,95.35,43.77,95.35Zm24.64,6.77c0,2.09,0,4.18,0,6.26,0,.92.48,1.05,1.17,1s1.53.42,1.54-.72c0-4.17,0-8.34,0-12.51,0-1.27-1.18-.71-1.84-.89-.87-.22-.86.4-.86,1C68.42,98.18,68.41,100.15,68.41,102.12Zm1.48-23.51c-.51,0-1,0-1.52,0a2.4,2.4,0,0,0-2.63,1.89,2.54,2.54,0,0,0,1.49,3,7.1,7.1,0,0,0,3.77.58,3.14,3.14,0,0,0,2.89-3.08c0-1.5-1.07-2.39-2.82-2.43ZM62.53,63.42c-.83.54-2.26,0-2.53,1.46-.61,3.21,1.67,7.8,4.56,9.37.29.15.56.43.91.18s.38-2.59-.08-3a7.41,7.41,0,0,1-2.66-6.11A3.94,3.94,0,0,0,62.53,63.42Zm14.3.11c.15,3.21-.28,6.16-3.07,8.32-.78.61,0,1.78.34,2.44s1.06-.16,1.47-.46a9.65,9.65,0,0,0,4-7.15C79.78,64.15,79.64,64,76.83,63.53ZM35.71,100a21.44,21.44,0,0,0-.8,5.88c0,3.76,0,3.72,3.77,3.45.89-.06.89-.36.61-1C38.15,105.72,37,103.09,35.71,100ZM75.31,77.4a7.81,7.81,0,0,1,1.62,4.11c1-.52,2.42-.37,2.57-1.62a51.56,51.56,0,0,0,.06-5.75A23.19,23.19,0,0,1,75.31,77.4Zm-11,0c-1.25-.41-2-2.15-3.6-1.06-1.38.9-.63,2.25-.64,3.37,0,1.54,1.61,1.18,2.53,1.85C62.92,80,63.15,78.57,64.28,77.38Zm-11,23.92c.31-1.52.52-2.58.75-3.65.59-2.85.59-2.85-2.26-2.48a1.88,1.88,0,0,1-.34,0c-.5,0-.73.17-.49.71C51.72,97.57,52.44,99.24,53.33,101.3ZM37.63,47.86a4.7,4.7,0,0,0,0-.84c-.11-.62.39-1.6-.34-1.79-.94-.24-1.66.53-2.09,1.38a2.61,2.61,0,0,0,.23,2.87c.44.6,1.06,1.21,1.82,1s.26-1.06.38-1.61A4.86,4.86,0,0,0,37.63,47.86ZM60,48c0-.56,0-1.13,0-1.69,0-.36.19-.84-.23-1.06s-.87.09-1.24.32a2.73,2.73,0,0,0-.58,4.11c.45.51,1,1.06,1.72.82s.24-1,.33-1.49A6.8,6.8,0,0,0,60,48Zm22.32-.07a2.42,2.42,0,0,0-.77-2c-.44-.44-1-.94-1.6-.72s-.28,1-.32,1.48a10.69,10.69,0,0,0,0,2.19c.06.55-.42,1.39.37,1.6s1.36-.42,1.82-1A2.2,2.2,0,0,0,82.29,47.9Zm19.63,0a2.5,2.5,0,0,0,0,.67c.19.66-.54,1.79.54,1.93s1.73-.77,2-1.72a2.61,2.61,0,0,0-.63-2.81c-.45-.44-1-.93-1.62-.73s-.25,1-.33,1.48A7.72,7.72,0,0,0,101.92,47.86ZM43.21,91.08c.48-1.29-.3-1.37-1.26-1.3-.55,0-1.11,0-1.67,0-.92.07-1.17.9-1.26,1.53s.73.44,1.14.55c.63.17,1.32.18,2,.31C43.08,92.39,43.53,92.13,43.21,91.08ZM71.12,74.29a1.26,1.26,0,0,0-1.46-1.22,1.22,1.22,0,0,0-1.23,1.32,1.24,1.24,0,0,0,1.38,1.33A1.26,1.26,0,0,0,71.12,74.29ZM47.44,92.52a1.31,1.31,0,0,0,1.32-1.35,1.25,1.25,0,0,0-1.36-1.36,1.23,1.23,0,0,0-1.3,1.24C46,91.92,46.53,92.38,47.44,92.52Zm4.13-2.76c0,2.81,1,3.21,3.69,1.66A23.05,23.05,0,0,1,51.57,89.76Z"/></g></g></svg>