<svg xmlns="http://www.w3.org/2000/svg" viewBox="0 0 203.36 201.72"><defs><style>.cls-1{fill:#c88a5e;}</style></defs><g id="Capa_2" data-name="Capa 2"><g id="Capa_1-2" data-name="Capa 1"><path class="cls-1" d="M200,193a2.47,2.47,0,0,1-.54-.17,3.05,3.05,0,0,1-.08-1.06c0-4.13,0-8.32,0-12.37,0-6,0-12.1.12-18.13.29-10.07-.07-21.53-7.54-31.16h.31c2.56,0,6.09,0,7.68-3.81,1.73-4.18-1.05-6.85-3.08-8.81l-.5-.48c-8.29-8.08-17.91-17.49-27.37-26.86a6.84,6.84,0,0,0-.86-.69,5.13,5.13,0,0,1-.64-.52,2.21,2.21,0,0,1,.15-.27c3.07-4.55-.32-8-1.77-9.44-3.91-3.94-7.85-8-11.66-11.89-7.75-7.95-15.76-16.17-23.94-24C117.4,31.08,110.12,19,107.36,5.29A10.63,10.63,0,0,0,107,4a5.49,5.49,0,0,0-10.59.15c-.39,1.14-.67,2.28-.88,3.16A63,63,0,0,1,77.71,38.69C68.42,47.87,59.12,57.34,50.13,66.5L37.78,79.05l-.16.16c-1.84,1.85-4.61,4.65-2.25,8.43.64,1,.6,1.13-.66,2.35-5.18,5-10.4,10.1-15.45,15.05l-2.49,2.44-5.08,5c-2.21,2.18-4.41,4.35-6.63,6.52A6.31,6.31,0,0,0,3.39,126,6.09,6.09,0,0,0,9.3,130l2.2.1a42.09,42.09,0,0,0-4.26,7.26,32.77,32.77,0,0,0-2.78,10.23C3.79,157,3.89,166.53,4,175.75c.06,5,.11,10.24,0,15.35,0,.31,0,.61,0,.91s0,.75.06.8a1.75,1.75,0,0,1-.63.16,3.94,3.94,0,0,0-2.72,1.56A4.36,4.36,0,0,0,.09,198a4.5,4.5,0,0,0,4.44,3.73c.85,0,1.69,0,2.49,0H197.08c.58,0,1.17,0,1.76,0a4.51,4.51,0,0,0,4.43-3.75A4.06,4.06,0,0,0,200,193ZM91.42,185c0-2.3,0-4.68,0-7a10.22,10.22,0,0,1,20.41-.22c.11,2.6.09,5.27.07,7.85,0,2,0,4.1,0,6.15a2.23,2.23,0,0,1-.07.81,2.08,2.08,0,0,1-.89.08c-2.23-.07-4.47,0-6.65,0l-2.76,0h0l-2.72,0c-2.06,0-4.19,0-6.3,0a2.37,2.37,0,0,1-1.09-.1s-.14-.19-.11-.94C91.45,189.4,91.43,187.15,91.42,185Zm98.81,6.35c-2.35-2.27-4.68-4.55-7-6.84l-1.27-1.24h.65c2.57,0,5.14,0,7.71,0v1.61C190.33,187,190.35,189.2,190.23,191.33Zm-25.58.34c2.23-2.12,4.54-4.31,6.79-6.51l0,0c.13.11.29.27.41.38,2.18,2.11,4.38,4.18,6.59,6.26l.68.64H163.88Zm-3.72-8.21-.81.76c-2.25,2.11-4.58,4.3-6.84,6.5l-.15.13a3.46,3.46,0,0,1-.38-.31c-2.27-2.12-4.61-4.24-6.87-6.29l-.88-.79Zm-103.29,0-.18.17-7.23,7.21q-3.52-3.36-7-6.75l-.66-.63ZM25,192.08c2.44-2.45,4.68-4.7,6.9-7h0l7.59,7.34H24.57ZM13.88,183.6a4.6,4.6,0,0,1,3-.69,35.8,35.8,0,0,1,4.51.39l-1.06,1-7,6.87-.12.11,0-.23c0-.1,0-.2,0-.3s0-.28,0-.42C12.87,186.94,12.92,184.47,13.88,183.6ZM64.8,145.22a9.13,9.13,0,0,0,.79-.72c2-2.12,4.08-4.21,6.14-6.3,1.87-1.9,3.74-3.8,5.59-5.72a5.45,5.45,0,0,1,.53-.5,2.54,2.54,0,0,1,.42.35c3.58,3.51,7.28,7,10.86,10.36l2.68,2.53Zm.74-12.67c-3.69,3.49-7.5,7.1-11.22,10.7l-.24.21-.17-.16c-3.6-3.72-7.22-7.4-11.07-11.32l-1.62-1.64H67.87Zm46.89,12.68c1.86-1.9,3.73-3.79,5.6-5.69q3.47-3.51,6.91-7a6.62,6.62,0,0,1,.57-.53,2.38,2.38,0,0,1,.39.33c3.58,3.51,7.29,7,10.88,10.36l2.73,2.56Zm.3-13c-3.82,3.91-7.44,7.6-11,11.3a2.31,2.31,0,0,1-.21-.18c-3.86-3.63-7.74-7.23-11.62-10.84l-2.33-2.16h27.05Zm47.82-.21c-3.93,4-7.61,7.74-11.27,11.49h0l-.14-.13c-3.81-3.64-7.63-7.24-11.46-10.85l-2.33-2.2h26.84ZM189,145.44c-4.81,0-9.67,0-14.48,0H159.05l3.35-3.21c3.91-3.75,7.95-7.63,12-11.39a6,6,0,0,1,3.89-.9,4.27,4.27,0,0,1,2.61.75c3.45,3.87,6.84,8.2,8.39,13.62l.05.15a8.74,8.74,0,0,1,.24,1A2.88,2.88,0,0,1,189,145.44ZM83.4,172.9c-.47,1.41-.74,1.54-2,1.54h-.06c-26.56-.07-47.09-.06-66.54,0-1.22,0-1.5-.2-1.54-.25s-.24-.31-.21-1.53c.17-5.89.11-11.79,0-17.29,0-.92.15-1.11.15-1.11a1.47,1.47,0,0,1,.75-.11h.21c2.12.09,4.26.07,6.33.05l3.12,0h.21c1.66,0,3.75,0,5.07-1.34A4.23,4.23,0,0,0,30,149.66c-.12-4.34-4.1-4.27-6-4.25h-.54l-2.82,0c-1.92,0-3.9,0-5.86,0a4.4,4.4,0,0,1-.85,0,3.39,3.39,0,0,1,.15-.79,30.93,30.93,0,0,1,8.82-14.06,4.6,4.6,0,0,1,5.91.14c4.12,3.68,8.14,7.64,12,11.46l3.33,3.26h-.38c-1.62,0-3.24,0-4.86,0-3.08-.08-5,1.53-5.12,4.16a4.15,4.15,0,0,0,1.07,3.19,5.45,5.45,0,0,0,4.1,1.42h40.5q53.34,0,106.67,0c.79,0,1.41,0,2,0a18,18,0,0,1,2.19,0,17.71,17.71,0,0,1,0,2.22c0,.62,0,1.35,0,2.19,0,1.73,0,3.47,0,5.21,0,2.92,0,5.94.08,8.92.05,1.12-.15,1.38-.19,1.43s-.35.25-1.62.25h0c-23.9-.09-47.9,0-66.15,0-1.64,0-2-.11-2.46-1.55-2.76-8.41-9.6-13.41-18.32-13.41h-.15C92.93,159.54,86.17,164.55,83.4,172.9Zm-21.75,19c2.34-2.25,4.56-4.37,6.66-6.54.08-.09.15-.15.2-.2.16.13.36.32.49.44l.65.62a74.72,74.72,0,0,1,6,6.12H61.19C61.34,192.15,61.49,192,61.65,191.86Zm20.69-6.21-2.49-2.51c1.46-.24,2-.13,2.22.05S82.46,184,82.34,185.65Zm39.73-2.45-1.2,1.05a2.52,2.52,0,0,1,.07-.87A2.73,2.73,0,0,1,122.07,183.2Zm5.82,8.65c2.35-2.24,4.56-4.36,6.68-6.5l.25-.23a5,5,0,0,1,.41.38c2.08,2.09,4.15,4.08,6.56,6.38l.43.41H127.43ZM96.36,29.49a84.09,84.09,0,0,0,5.36-11.65,78.88,78.88,0,0,0,5.42,11.65ZM48.42,91.29h79.27a21,21,0,0,0,2.49-.07c2.72-.28,4.32-1.87,4.4-4.35s-1.48-4.23-4.17-4.6a18.69,18.69,0,0,0-2.88-.11H46.71A26.13,26.13,0,0,0,49.28,80l2.35-2.35c7.4-7.39,15.06-15,22.43-22.72,2.27-2.37,4-3.13,6.5-2.8a20,20,0,0,0,3.45.08c.6,0,1.2,0,1.79,0,4.63.11,5.4-2.93,5.49-4.24.11-1.6-.38-4.35-4.94-4.84l-.54,0c2.92-3.81,6-5.11,10.13-4.43a36.44,36.44,0,0,0,11,0c4.68-.69,8,.65,10.74,4.42H115.3c-4.15,0-8.07,0-12.07,0-.43,0-.91,0-1.39,0-1.79-.09-4-.21-5.45,1.2a4.63,4.63,0,0,0-1.22,3.62,4.42,4.42,0,0,0,1.33,3.26c1.45,1.3,3.58,1.15,5.29,1,.53,0,1-.07,1.44-.07,4.55.08,9.18.07,13.64.06h7.51c.23,0,.44,0,.66,0,1.08,0,1.52,0,1.95.42q12.29,12,24.59,24l5.71,5.56H144.48a6.48,6.48,0,0,0-4.42,1.17,4.17,4.17,0,0,0-1.36,4.82c.4,1.16,1.55,3.1,4.83,3.11h2.69c3.15,0,6.3,0,9.45,0,1.25,0,1.91.06,2.48.66,7.94,8.34,15.9,16.66,23.63,24.75l4,4.19H18l4.69-4.95c7.32-7.72,14.9-15.7,22.43-23.74C46,91.3,46.81,91.26,48.42,91.29Z"/></g></g></svg>