<svg xmlns="http://www.w3.org/2000/svg" viewBox="0 0 213.74 192.09"><defs><style>.cls-1{fill:#c88a5e;}</style></defs><g id="Capa_2" data-name="Capa 2"><g id="Capa_1-2" data-name="Capa 1"><path class="cls-1" d="M35,56.18c-2.06-4.76-3.72-9.39-3.68-14.5a25.23,25.23,0,0,1,21.2-24.75C63.9,14.93,76,22.16,80,33.35A25.08,25.08,0,0,1,68.75,63.57,9,9,0,0,0,64.86,73.9c.41,1.32,1.28,1.26,2.23,1.26,4,0,8.08,0,12.11,0,1.82,0,2.23-.44,2-2.37-1-10.07,3.17-17.76,12-22.42s17.51-3.43,25.18,3.07c2.15,1.82,3.58,1.64,5.71-.11,10.51-8.66,23.55-7.32,32.46,3.23a4.43,4.43,0,0,0,3.82,1.91c5.7-.1,11.41-.12,17.11,0,2.16,0,2.82-.59,2.89-2.81.12-4.13-.23-7-4.77-9.52-11.51-6.35-15.24-21.1-9.2-32.68a25,25,0,0,1,45.88,19.66c-.83,2.39-1.1,4.34.2,6.66,1.15,2.05,1.26,4.49,1.26,6.89q0,65.34,0,130.66c0,5.24-1.12,6.36-6.33,6.37q-10,0-20,0c-6.16,0-7-.87-7-6.9,0-26.85-.1-53.71.1-80.56,0-3.85-1.11-4.63-4.64-4.47-6.39.28-12.8.18-19.2,0A6,6,0,0,0,151,94.49a85,85,0,0,1-21.85,19.78c-5.41,3.48-10.49,3.86-15.78.06-3-2.19-6.19-4.25-9.15-6.55-1.36-1-2.28-1.75-3.7-.08-1.09,1.29-2.84.89-4.35.89-6.77,0-13.55,0-21.28,0,4.54,3.92,8.22,7.41,11,11.64.78,1.16,2,.85,3,.85,4.17,0,8.35,0,12.52,0,9.47,0,17.74,5.79,20.39,14.9,4,13.85,7.65,27.82,11.36,41.76,1,3.7-.81,5.87-4.74,6-4.17.1-8.35.13-12.52,0-8.47-.29-16.57-6.91-19.12-15.59-1.16-3.95-2.17-8-3.58-13.18-3.14,12.11-8.75,21.16-17.77,28-22,16.68-54.56,9.76-67.65-14.43-2.15-4-1.33-7,2.08-7.57,2.93-.49,4.11,1.49,5.38,3.63,7.42,12.49,18.49,19,33,19.1,17.72.13,33.45-13.18,36.63-30.58a37.55,37.55,0,0,0-68.25-27.61c-.84,1.28-1.54,2.64-2.37,3.92a4,4,0,0,1-5.8,1.43c-2.07-1.19-2.53-3.27-1.48-5.45A35.82,35.82,0,0,1,12.53,117a7.83,7.83,0,0,0,2.13-5.63c-.09-15-.12-30.06,0-45.09,0-2.92-.84-4-3.76-3.7a45,45,0,0,1-6.67,0C1.66,62.52,0,61.1,0,58.47s1.67-4.11,4.27-4.13c8.07-.07,16.14,0,24.21,0C30.71,54.38,32.63,55.64,35,56.18ZM89.39,70.51c.69,2-.18,4.78,2.88,6.14,6.64,2.94,9.77,8.36,10.1,15.48a5.57,5.57,0,0,0,1.6,4.08,77.06,77.06,0,0,0,14,11.08c2.11,1.27,3.91,1.48,6.14.14a75.87,75.87,0,0,0,18-15.34c.62-.71,1.32-1.32,1-2.52-1-4.38-.23-8.85-.47-13.27a16,16,0,0,1,5.18-13.12c1.83-1.7,1.28-2.53-.27-3.83a14,14,0,0,0-17.37-.27c-8.2,6.1-10.06,6.06-18.25,0-4.67-3.46-9.75-3.95-14.9-1.26C92.15,60.41,89.68,64.72,89.39,70.51Zm116,19.36c-4.67,2.31-9.11,2.15-13.53,2-2.16-.08-3.22.3-3.21,2.87q.13,39,0,78c0,2.3.84,2.82,2.92,2.74,3.6-.13,7.23-.17,10.83,0,2.41.12,3.08-.73,3-3.07-.15-6.11-.05-12.23-.05-18.34Zm-30-6.35c7.09,0,14.18.09,21.26,0,5.19-.09,8.6-3.48,8.66-8.67q.16-14.16,0-28.34c0-5.25-3.74-9-8.49-8.86s-8,3.71-8.14,8.79c-.1,4.72,0,9.44,0,14.17,0,5.13-1.16,6.24-6.43,6.25-7.36,0-14.72-.06-22.09,0-5.66.06-8.92,3.42-9,9.13,0,1.53.13,3.08,0,4.58-.27,2.46.79,3,3.09,3C161.22,83.45,168.31,83.53,175.39,83.52ZM69.65,100.23c7,0,13.92-.15,20.87.07,2.87.09,3.73-.94,3.45-3.57-.12-1.1,0-2.22,0-3.33-.16-6.87-3.18-9.82-10.09-9.85-7.37,0-14.74-.07-22.12,0-3.7.05-5.37-1.66-5.36-5.27S56.5,70.78,56.3,67c-.28-5.14-3.83-8.6-8.42-8.52s-8,3.56-8.06,8.79q-.16,11.88,0,23.78c.07,6.09,3.21,9.09,9.4,9.14C56,100.27,62.84,100.23,69.65,100.23ZM91,129.51A57.2,57.2,0,0,1,93.93,144c.09,1.49.53,2.27,2.21,2.21,2.91-.12,4.12,1.82,4.77,4.3,1.13,4.28,2.28,8.56,3.41,12.84,2.39,9.06,7.14,12.43,16.63,12.11,2.28-.08,2.87-.55,2.23-2.87-3.06-11.07-5.91-22.2-9-33.28-1.46-5.29-6.21-9.41-11.28-9.73C99.08,129.32,95.19,129.51,91,129.51ZM39.82,42.14c0,.65,0,1.77.23,2.86.73,4.65,1.81,5.48,6.51,5.15,5.14-.35,9.76,1.08,13.13,5,2.07,2.38,3.65,2.13,5.89.61a16.84,16.84,0,0,0,6.17-20.22c-3-7.18-10.81-11.59-18.14-10.18A16.69,16.69,0,0,0,39.82,42.14Zm157.36-13a12.55,12.55,0,0,1,3.71.63c3.22,1.58,4-.06,4.38-2.8A16.92,16.92,0,0,0,193.79,9.25a16.69,16.69,0,0,0-20,8.4,16.89,16.89,0,0,0,4.66,20.59c2,1.51,3,1.54,4.35-.84C185.8,32,190.73,29.55,197.18,29.16ZM23.07,84.37v15c0,7.51,0,7.51,6.6,4.64a14.58,14.58,0,0,1,2.7-1.1c2.05-.44,2-1.42,1.05-2.94-1.91-3.08-2.11-6.56-2.11-10.06,0-6.82,0-13.63,0-20.44a13.35,13.35,0,0,0-.47-4.11c-1-2.83-3.47-2.8-5.9-2.7-2.9.12-1.77,2.38-1.8,3.75C23,72.41,23.07,78.39,23.07,84.37Z"/><path class="cls-1" d="M18.82,146.35a29.25,29.25,0,1,1,58.5-.16c0,15.88-13.08,29.08-28.81,29.21A29.15,29.15,0,0,1,18.82,146.35Zm8.47-.11a20.77,20.77,0,1,0,20.86-20.93A20.8,20.8,0,0,0,27.29,146.24Z"/><path class="cls-1" d="M6.36,150.36c-2.56-.23-4.11-1.52-4.13-4.19A3.72,3.72,0,0,1,6,142.05a3.82,3.82,0,0,1,4.4,3.91C10.49,148.5,9,150,6.36,150.36Z"/><path class="cls-1" d="M47.82,142c2.65.16,4.26,1.59,4.29,4.13A3.82,3.82,0,0,1,48,150.29a3.7,3.7,0,0,1-4-3.86C43.86,143.8,45.28,142.36,47.82,142Z"/></g></g></svg>