<svg id="Capa_1" data-name="Capa 1" xmlns="http://www.w3.org/2000/svg" viewBox="0 0 232 260"><defs><style>.cls-1{fill:#fdce75;}.cls-2{fill:#6c2910;}.cls-3{fill:#c88a5e;}</style></defs><circle class="cls-1" cx="114.79" cy="225.28" r="28.85"/><path class="cls-2" d="M120.81,225.71v3.53H106.55l-.28-2.8,8-12.81h3.62l-3.94,6.44-3.26,5.64Zm-2-12.08v19.82h-4.59V213.63Z"/><path class="cls-3" d="M117,177.29q-44.49,0-89-.06c-1.26,0-3.62,1.19-3.71-1.23-.07-1.66-1.93-4.64,2-5,1.34-.12.92-1.36.93-2.17,0-5.67,0-11.34,0-17,0-.73,0-1.94-.44-2.11-3.58-1.56-2.59-4.69-2.61-7.39-.06-10.7,0-21.41-.06-32.11,0-4.14,1.49-7.31,5.12-9.25s7.32-1.2,10.51,1.21c4.65,3.5,9.82,6.14,14.74,9.19,3.18,2,6.8.78,10.21.89,5.61.19,5.79.27,5.91,6,0,1.51-.73,3.67,2.19,3.34,2-.23,4.67,1.11,4.94-2.88.28-4.21,1.37-8.37,2.09-12.55.36-2.09,1.49-3.4,3.68-3s2.81,2.09,2.48,4.11c-.62,3.81-1.24,7.63-2,11.41-.43,2.08-.15,3,2.31,3,6.13.08,6.14.21,7.16-5.67.35-2,.61-4.07.93-6.11,1.5-9.31,9.58-15.79,19.14-16.24a34.6,34.6,0,0,1,19.84,4.68c3.42,2,5.43,4.62,6,8.45s1.31,7.63,1.54,11.47c.16,2.69,1.09,3.73,3.73,3.38a12.29,12.29,0,0,1,3.09,0c2.4.28,2.82-.77,2.37-2.92-.78-3.64-1.35-7.34-2-11-.37-2.13,0-4.07,2.4-4.52s3.41,1.12,3.76,3.35c.68,4.32,1.61,8.61,2.18,12.94.47,3.6,3.1,1.71,4.79,2.1,2,.46,2.36-.86,2.21-2.51-.67-7.43,2-7.32,7-6.65,9.45,1.27,15.55-5.13,22.52-9.37,3.87-2.35,7.42-4.31,11.8-2.07,4.18,2.15,5.24,5.9,5.16,10.39-.16,9-.07,18.06,0,27.08,0,1.87,0,3.71-2,4.62-1.45.67-1.11,1.88-1.11,3,0,7.48,0,15,0,22.43,0,.9-.6,2.38.91,2.55,3.91.42,2,3.36,2,5-.09,2.42-2.45,1.23-3.72,1.23Q161.49,177.35,117,177.29ZM79.87,155.62c0,4.38,0,8.77,0,13.15,0,1.53.3,2.36,2.1,2.34,7.73-.07,15.47,0,23.2,0,1.2,0,2.16-.28,1.81-1.71-1.9-7.71,1-16.8-6.5-22.94a2.16,2.16,0,0,1-.84-1.27c-.34-6.23-4.87-5-8.78-5-2.57,0-5.16.14-7.73,0-2.42-.17-3.45.48-3.3,3.14C80,147.36,79.87,151.5,79.87,155.62Zm74.27.16c0-3.87-.21-7.75.06-11.59.22-3.11-.54-4.42-3.92-4.11a62.63,62.63,0,0,1-10.43,0c-2.81-.2-4.52.28-4.84,3.51-.22,2.13-2,3.55-3.49,5a6.62,6.62,0,0,0-2.5,4.17q-.89,7.86-2,15.7c-.28,2,.31,2.72,2.42,2.69,7.34-.11,14.69-.1,22,0,2,0,2.74-.49,2.67-2.58C154,164.29,154.13,160,154.14,155.78ZM116.8,134c15.46,0,30.92,0,46.38,0,2.24,0,3.52-.18,3.44-3-.08-2.47-.66-3.25-3.23-3.24q-46.38.12-92.76,0c-2.54,0-3.18.73-3.24,3.23-.08,2.81,1.15,3.05,3.42,3C86.14,133.91,101.47,134,116.8,134Zm-86.45-8.09c0,5,.1,10-.05,15.07-.06,2.25.48,3.49,2.86,4.12,3.71,1,7.27,2.58,11,3.56a6.81,6.81,0,0,1,5.5,5.62c1.14,4.87,2.8,9.62,4,14.49.78,3.31,3.27,2.62,5.14,2.21,2.18-.47.57-2.2.31-3.33-.49-2.13-1.38-4.18-1.73-6.32-1.83-11.17-6.82-19.87-18.06-23.94-2.22-.81-2.87-2.63-2.78-5,.14-3.86,0-7.73,0-11.59,0-5.5,1.7-6.66,6.48-4,6,3.25,12,5.88,19,4.83,1.07-.17,2.43.32,2.38-1.6s-1.43-1.37-2.48-1.49c-3.14-.35-6.45.86-9.42-1-5.31-3.39-11-6.2-16-10-1.23-.92-2.55-1.86-4.24-1s-1.86,2.57-1.85,4.31C30.37,115.81,30.35,120.84,30.35,125.86ZM186,169.28l.75-.31c-1.4-5.73-2.63-11.5-4.28-17.15-.93-3.21.12-4.81,3-6,5.24-2.11,10.39-4.47,15.63-6.58a3.6,3.6,0,0,0,2.66-4c-.14-8-.06-16-.05-24,0-1.8.25-3.72-1.74-4.76-2.19-1.13-3.52.6-5.17,1.52-8,4.45-14.75,12.07-25.3,10.44-.93-.14-1.76,0-1.82,1.35s.67,1.71,1.88,1.71c5.25,0,10.56.62,15.24-2.72a32.38,32.38,0,0,1,4.8-2.46c4-1.93,5.85-.85,5.92,3.52.05,3-.16,5.94.06,8.89s-.94,4.5-3.31,5.91c-6.08,3.62-12,7.45-18,11.21-1.15.73-2.59,1.22-1.45,3.21C178.55,155.81,182.23,162.56,186,169.28Zm-68.68-29.13c-3.09,0-6.18-.05-9.27,0-1.06,0-2.6-.65-3.11.58s.77,2.38,1.73,3.15a12.35,12.35,0,0,1,4.81,9.18c.37,4.61,1.27,9.18,1.59,13.79.19,2.82.57,4.35,4.08,4.36s3.34-1.71,3.88-4.18c1.82-8.34-.82-18.08,7.54-24.49,1.45-1.12,1.13-2.49-1.21-2.43C124,140.21,120.63,140.16,117.28,140.15Zm17.47-20.72c-.57-4.1-1.1-8.18-1.71-12.26a4.77,4.77,0,0,0-2.5-3.23,25,25,0,0,0-18-3.94c-3.84.56-7.17,2.79-10.34,4.92-2,1.35-1.29,4-1.7,6.14-.46,2.4-.84,4.82-1.15,7.24-.19,1.57-.87,3.33,2.06,3.35,2.46,0,3.47-.58,3.25-3.2s0-5.41-.06-8.11c-.08-2.89,1.14-4.3,4.11-4.26q8.33.09,16.63,0c3,0,4.14,1.46,4.07,4.31-.08,3.09,0,6.19,0,9.28-.06,2.74,2,1.7,3.27,1.88C134.26,121.77,135.16,121.2,134.75,119.43ZM61.28,150.82c0-7,0-13.69,0-20.36,0-1.2.42-2.87-1.69-2.66a23.55,23.55,0,0,1-16.38-4.15c-1.27,8.06-1.42,8.35,4.92,11.65s11.66,7.29,12.48,15.09C60.61,150.46,60.78,150.51,61.28,150.82Zm139.28-4.55c-3.67,1.55-6.95,2.95-10.25,4.31a1.77,1.77,0,0,0-1.16,2.43c1.44,5.47,2.72,11,4.26,16.43.9,3.14,3.65,1.25,5.54,1.59s1.6-1.19,1.6-2.32C200.56,161.38,200.56,154.06,200.56,146.27Zm-167.11,5.5c0,6.11,0,11.62,0,17.13,0,1.66.54,2.26,2.21,2.21,3.21-.09,6.42-.18,9.61,0,2.49.15,2.43-1,1.92-2.74-1.13-3.8-2.27-7.6-3.31-11.42a3.31,3.31,0,0,0-2.38-2.66C38.92,153.56,36.39,152.71,33.45,151.77Zm40.21,3.74c0-4.38-.12-8.75,0-13.12.1-2.87-1.8-2.14-3.34-2.24s-3-.14-2.93,2.28q.19,13.11,0,26.23c0,2.64,1.41,2.44,3.15,2.45s3.24.12,3.13-2.49C73.52,164.26,73.66,159.88,73.66,155.51Zm86.68-.09c0,4.25.14,8.5-.05,12.73-.12,2.43.7,3.11,3,3,2-.09,3.31-.08,3.25-2.8q-.27-12.72,0-25.45c.06-2.72-1.22-2.72-3.24-2.81-2.34-.1-3.17.56-3.05,3C160.49,147.19,160.34,151.31,160.34,155.42Zm12.38-14.76c5.51-3.42,10.25-6.67,15.29-9.39,3.24-1.74,3.89-4,2.85-7.48-1.56.77-3,1.54-4.5,2.21s-3.09,1.75-5,1.81c-2.78.09-6.66-1.3-8,.64s-.49,5.65-.58,8.59C172.7,137.93,172.72,138.83,172.72,140.66Zm-55.88-19.1c1.54,0,3.08,0,4.61,0,1,0,1.52-.33,1.76-1.48,1.28-6.27.11-7.78-6.24-7.78h-4.23c-.91,0-1.61,0-1.93,1.28C109.31,119.31,111,121.57,116.84,121.56Zm56.62,38.13-.74.17a47.4,47.4,0,0,1-.06,6.85c-.57,3.92,1.14,5,4.65,4.39.6-.11,1.22-.1,2.34-.18C177.47,167,175.46,163.33,173.46,159.69Z"/><path class="cls-3" d="M145,7.05c4.9,0,9.79,0,14.69,0,6,.06,9.78,3.55,9.9,9.44,0,2.42.72,3.13,3.07,3,2.95-.19,5.92-.09,8.88,0,5.88.1,9.69,3.81,9.77,9.63s0,11.85,0,17.78c0,3.18-1,6-3.67,7.66-2.24,1.37-2.75,3-2.56,5.35a42,42,0,0,1,0,5c-.15,3.86-2.32,5.12-5.55,3.07-4.45-2.83-8.88-5.72-13.15-8.81a12.08,12.08,0,0,0-8.57-2.59,64.44,64.44,0,0,1-6.95,0c-3.2,0-6.1-1.34-7.37-4.14-1.67-3.67-3.3-2.66-5.58-.93a64,64,0,0,1-6.43,4.27c-2.89,1.68-5,.48-5.19-2.9a24.5,24.5,0,0,1,0-3.09c.18-3.34.23-6.37-3.4-8.46-2.25-1.3-2.84-4.13-2.81-6.86,0-5.93,0-11.85,0-17.78s3.9-9.54,9.78-9.61C134.91,7,139.94,7.05,145,7.05ZM178.9,59.94c0-2.48,0-4.15,0-5.82,0-1.94.74-3.39,2.68-3.66,3.08-.42,3.58-2.35,3.54-5-.08-4.64,0-9.28,0-13.92,0-5.51-.43-6-6-5.91-3,.06-6.93-1.34-8.92.61-1.83,1.79-.45,5.63-.58,8.56-.24,5.41-3.93,9.18-9.32,9.35-3,.09-5.93,0-8.89,0-1.63,0-3.55-.41-3.47,2.3.07,2.28,1,3.69,3.39,3.84a16,16,0,0,0,3.09,0,21.93,21.93,0,0,1,18.17,5.43C174.29,57.28,176.39,58.31,178.9,59.94ZM132.48,47.07c7.06-2.57,10.89-6.69,9.31-14.23a17.07,17.07,0,0,1,0-3.85c.16-5.62,3.88-9.41,9.46-9.54,3.21-.08,6.44-.17,9.64,0,2.47.16,2.79-1,2.54-3-.29-2.37-1.73-3.24-4-3.24q-14.47,0-28.94,0c-2.91,0-4.22,1.32-4.2,4.22q.07,8.1,0,16.21c0,2.36.7,4,3.28,4.35,2.15.32,3,1.75,2.93,3.84C132.45,43.52,132.48,45.18,132.48,47.07ZM154.88,38c1.16,0,2.33-.08,3.47,0,3.58.28,5.15-1.16,5.12-4.89,0-7.49.08-7.49-7.36-7.49-.9,0-1.8,0-2.7,0-4.81,0-5.41.6-5.45,5.25C147.9,38,147.9,38,154.88,38Z"/><path class="cls-3" d="M58.27,16.34c5.93,0,11.86,0,17.79,0,6.15,0,9.92,3.74,10,9.82S86.13,38,86,44c-.08,5.61-4,10.08-9.48,9.37C65.75,51.94,57,55.67,49,62.32a27.74,27.74,0,0,1-3.85,2.57c-3.28,1.94-5.36.73-5.52-3.15,0-.91-.05-1.81,0-2.71.17-3.11.37-5.65-4-6.66-3.52-.81-5.28-4.32-5.29-8.18,0-6.19-.1-12.38,0-18.56a9.11,9.11,0,0,1,9.35-9.27C45.9,16.26,52.08,16.34,58.27,16.34ZM45.82,56.51a7.32,7.32,0,0,0,1.51-.6,33.76,33.76,0,0,1,28.38-8.67c2.89.4,4.19-1.33,4.16-4.21q-.09-8.12,0-16.24c0-2.89-1.24-4.27-4.17-4.26-11.6,0-23.2,0-34.8,0-3.12,0-4.43,1.37-4.38,4.45q.12,7.92,0,15.85c-.05,3.07,1.22,4.72,4.35,4.44,4-.35,5.31,1.67,5,5.35C45.73,53.76,45.82,54.92,45.82,56.51Z"/><path class="cls-3" d="M129.39,78.25a12.39,12.39,0,1,1-12.18-12.39A12.39,12.39,0,0,1,129.39,78.25ZM117,72.08a6.16,6.16,0,1,0,6.15,6.17A6.26,6.26,0,0,0,117,72.08Z"/><path class="cls-3" d="M36.53,96.82a12.39,12.39,0,1,1,12.39-12.2A12.4,12.4,0,0,1,36.53,96.82Zm.13-6.23a6.16,6.16,0,1,0-6.29-6A6.3,6.3,0,0,0,36.66,90.59Z"/><path class="cls-3" d="M197.6,72.05A12.39,12.39,0,1,1,185.09,84.5,12.38,12.38,0,0,1,197.6,72.05Zm-.07,18.54a6.16,6.16,0,1,0-6.22-6.1A6.29,6.29,0,0,0,197.53,90.59Z"/><path class="cls-3" d="M70.49,31.89c2.61-.59,3.24.54,3.28,3s-.91,3.16-3.31,3.16-3.15-.59-3.06-3C67.48,32.82,67.65,31.2,70.49,31.89Z"/><path class="cls-3" d="M58.16,37.94c-2.77.67-3-.83-3.15-3.15-.15-2.84,1.19-3,3.41-3.06,2.52-.11,2.93.89,3,3.12C61.4,37.31,60.82,38.56,58.16,37.94Z"/><path class="cls-3" d="M48.84,35.06c.73,2.94-1.09,2.85-3.24,3-3,.26-2.79-1.43-3-3.49-.21-2.67,1.12-2.76,3.2-2.86C48.47,31.61,49.39,32.54,48.84,35.06Z"/></svg>