<svg xmlns="http://www.w3.org/2000/svg" viewBox="0 0 142.02 142.02"><defs><style>.cls-1{fill:#6c2912;}.cls-2{fill:#fff;}.cls-3{fill:#c88a5e;}</style></defs><g id="Capa_2" data-name="Capa 2"><g id="Capa_1-2" data-name="Capa 1"><circle class="cls-1" cx="71.01" cy="71.01" r="71.01"/><circle class="cls-2" cx="71.01" cy="71.01" r="60.69"/><path class="cls-3" d="M59.05,77.67c-1.61,0-3.23,0-4.84,0a2,2,0,0,1-2.33-2.29c0-1.8-.05-3.59,0-5.38,0-1-.36-1.33-1.35-1.3-2.15.06-4.31,0-6.46,0-1.49,0-2.24-.67-2.22-2.16a29.27,29.27,0,0,1,.11-4.3,8.1,8.1,0,0,1,5.72-6.72,20.5,20.5,0,0,1,2.77-.72c1-.21,1.24-.46.42-1.33-3-3.09-3.89-9.88-2-13.73a8,8,0,0,1,11.29-3.34c1,.58,1.26.44,1.81-.48a10.37,10.37,0,0,1,18.13,0c.59,1,.89,1,1.82.44A8,8,0,0,1,94,43.26c0,1.44,0,2.87,0,4.31a7.65,7.65,0,0,1-2.69,5.84c-.88.79-.89,1.19.35,1.42a20.6,20.6,0,0,1,2.43.62,8.26,8.26,0,0,1,6.1,7.75c.35,5.52.35,5.49-5.12,5.54-1.58,0-3.69-.74-4.6.37-.78.94-.24,3-.28,4.51,0,.6,0,1.2,0,1.8A2,2,0,0,1,88,77.66c-3.41,0-6.82,0-10.23,0-1.22,0-2.13-.56-2.07-1.93s1-1.77,2.1-1.64c1.45.16,1.75-.52,1.65-1.77A10.54,10.54,0,0,1,79.59,70a1.54,1.54,0,0,1,1.61-1.4A1.57,1.57,0,0,1,83,70a18,18,0,0,1,.13,2.32A2.08,2.08,0,0,0,86.19,74c.45-.27.37-.72.37-1.12,0-1.26,0-2.52,0-3.77a7.23,7.23,0,0,0-5.33-6.86c-5.07-1.58-5.07-1.58-7.18,3.19-.39.87-.78,1.74-1.15,2.62A1.89,1.89,0,0,1,71,69.46c-1,0-1.46-.64-1.81-1.46-.83-1.92-1.75-3.8-2.49-5.75a1.4,1.4,0,0,0-2.06-1c-.29.09-.58.17-.87.23-8.11,1.49-8.47,5.36-8.29,11.4,0,1.56,1.09,1.06,1.88,1.13s1.71.1,1.62-1.21a16.19,16.19,0,0,1,0-2.51,1.68,1.68,0,0,1,1.71-1.73c1.16,0,1.71.69,1.84,1.79a5.31,5.31,0,0,1,0,.89c-.12,1.62-.26,3.12,2.21,2.88.89-.08,1.43.86,1.37,1.79a1.71,1.71,0,0,1-1.78,1.68c-1.79.07-3.58,0-5.38,0ZM77.9,46.52a4.34,4.34,0,0,0-3.37-4.26.9.9,0,0,0-.8.26A11.63,11.63,0,0,1,65.35,45c-1-.07-1.14.41-1.16,1.27-.11,4.22,2.74,7.4,6.75,7.47S77.85,50.82,77.9,46.52Zm3.37,12A11.28,11.28,0,0,1,89,64.32a1.22,1.22,0,0,0,1.23.81q2.69-.06,5.37,0c.77,0,1-.26,1-1A4.76,4.76,0,0,0,93.09,59c-1.25-.38-2.52-.71-3.8-1s-2-.61-2.31-1.88-1.77-.64-1.78-.5C85,58,82.94,57.75,81.27,58.48Zm-20.39,0c-1.12-.36-1.91-.58-2.69-.86-.95-.33-.86-1.34-1.3-2-.22-.31-1.48-.69-1.71.34-.34,1.57-1.47,1.84-2.74,2.11s-2.32.53-3.45.89a4.77,4.77,0,0,0-3.52,5.14c0,.79.31,1,1.06,1q2.59-.06,5.19,0a1.36,1.36,0,0,0,1.4-.83C54.67,61.25,57.22,59.43,60.88,58.46ZM77.65,39.8a6.72,6.72,0,0,0-6.85-5.55,7,7,0,0,0-6.53,5.83c-.07.59-.34,1.31.79,1.35a9.26,9.26,0,0,0,6.26-1.62c2.65-2,2.64-2,5.48-.43C77,39.5,77.22,39.59,77.65,39.8ZM60.46,45.36a17.7,17.7,0,0,1-7.59,1.2c-1.11,0-1.34.46-1.16,1.4a4.42,4.42,0,0,0,3.19,3.71,4.16,4.16,0,0,0,4.51-1.34C60.66,48.94,60.72,47.26,60.46,45.36Zm21.13,0a9.71,9.71,0,0,0,.12,3.09,4.37,4.37,0,0,0,4.46,3.39,4.5,4.5,0,0,0,4.21-3.73c.16-1,.08-1.6-1.2-1.55A17.57,17.57,0,0,1,81.59,45.35ZM53.9,42.89A12.89,12.89,0,0,0,59.07,42c1.09-.4,1-.92.34-1.68A4.39,4.39,0,0,0,53.18,40c-.77.7-1.61,1.63-1.26,2.57S53.41,42.76,53.9,42.89Zm33.84,0c.41,0,.83,0,1.24,0,1.32.15,1.56-.36,1-1.5a4.46,4.46,0,0,0-7.31-1.1c-.66.75-.8,1.29.33,1.68A13.33,13.33,0,0,0,87.74,42.94ZM71,63.19c.61-1.38,1-2.33,1.46-3.29,1.06-2.43,1.06-2.43-1.59-2.49a4.27,4.27,0,0,1-.71-.07c-1.48-.31-1.49.46-1.06,1.49C69.69,60.14,70.27,61.43,71,63.19Zm-6.31-7.67-2-2.29c-.26-.31-.53-.49-.87-.14s-.86.72-1,1.18.46.4.78.49Zm12.61,0,3.44-.82c.39-.09.69-.19.47-.7a1.23,1.23,0,0,0-2.11-.4Z"/><path class="cls-3" d="M104.72,76.32a7.62,7.62,0,0,0,.24-3c0-5.92,0-11.84,0-17.77.06-4.61,3.63-7.43,7.7-6.22A5.89,5.89,0,0,1,117,54.89c0,9.75.08,19.51,0,29.26a15.39,15.39,0,0,1-3,8.68c-4.41,6.25-8.86,12.48-13.28,18.72-.71,1-1.51,1.86-2.8,1s-1-2-.17-3.09c4.16-5.84,8.27-11.72,12.48-17.53a16.61,16.61,0,0,0,3.29-10.2c-.07-8.61,0-17.23,0-25.85a3.1,3.1,0,0,0-.86-2.62,2.3,2.3,0,0,0-3.81,1.2,9.14,9.14,0,0,0-.12,2c0,6.53,0,13.05,0,19.57a14.14,14.14,0,0,1-4.27,10.66c-2.54,2.53-4.93,5.21-7.39,7.83-.85.92-1.82,1.55-2.93.56s-.66-2,.22-3Q98.14,88,102,83.85c1-1.07,1.64-2.21,1-3.71a2.52,2.52,0,0,0-3.54-1.45c-5.95,3.68-12,7.23-14.94,14.17-1.62,3.9-2.11,8.07-3,12.13-.46,2-.84,4-1.26,6-.25,1.16-.81,2.14-2.15,1.87s-1.69-1.29-1.38-2.62c1.32-5.75,2-11.65,4-17.26A24.62,24.62,0,0,1,89.47,81c2.4-1.77,4.9-3.42,7.39-5.06C99.51,74.21,102.16,74.49,104.72,76.32Z"/><path class="cls-3" d="M37.11,76.5c3.58-2.59,6.59-1.86,9.54.37,1.77,1.33,3.68,2.46,5.47,3.76a25.69,25.69,0,0,1,10.25,15.3c1.12,4.7,2,9.46,3,14.18.29,1.32.07,2.37-1.29,2.69s-2-.73-2.26-1.94c-1-4.73-1.93-9.48-3-14.19a21.8,21.8,0,0,0-8.66-13c-2.17-1.58-4.44-3-6.66-4.56-1.36-.93-2.68-1-3.88.21s-1.11,2.81.17,4.2c2.3,2.51,4.66,5,7,7.45.41.44.83.87,1.22,1.32.76.87,1,1.83.09,2.7s-1.85.61-2.69-.2c-.26-.25-.49-.52-.74-.79-2.34-2.48-4.61-5-7-7.43a14,14,0,0,1-4.19-10.51c.06-6.46,0-12.93,0-19.39,0-.6,0-1.2-.06-1.79a2.19,2.19,0,0,0-2.35-2.21,2.3,2.3,0,0,0-2.36,2.25,11.51,11.51,0,0,0,0,1.44c0,8.25.08,16.51,0,24.77a17,17,0,0,0,3.59,11.18,38.22,38.22,0,0,1,2.24,3.25,1.59,1.59,0,0,1-.5,2.35,1.67,1.67,0,0,1-2.41-.34c-3.66-4.73-6.76-9.58-6.55-16,.28-8.79.05-17.59.08-26.39A6,6,0,0,1,29,49.44,6.1,6.1,0,0,1,35.53,51a6.93,6.93,0,0,1,1.58,5q0,9.06,0,18.13Z"/><path class="cls-3" d="M40.75,105.51c.22.08.65.11.87.34A19.93,19.93,0,0,1,45,110.61c.41.81-.1,1.5-.78,2a1.46,1.46,0,0,1-2.1-.2A36.27,36.27,0,0,1,39.08,108,1.72,1.72,0,0,1,40.75,105.51Z"/><path class="cls-3" d="M72.82,24.15a9.75,9.75,0,0,1,0,1.43A1.65,1.65,0,0,1,71,27.14a1.58,1.58,0,0,1-1.68-1.53,23.08,23.08,0,0,1-.05-2.5c0-1.26.55-2.15,1.87-2.12s1.73.9,1.73,2.08v1.08Z"/><path class="cls-3" d="M61.32,24.47c1.18,0,3.59,2.41,3.61,3.57a1.74,1.74,0,0,1-2.48,1.61,7.24,7.24,0,0,1-2.76-2.73A1.68,1.68,0,0,1,61.32,24.47Z"/><path class="cls-3" d="M78.88,29.9a1.77,1.77,0,0,1-1.55-2.56,6.8,6.8,0,0,1,2.61-2.63,1.72,1.72,0,0,1,2.59,1.45C82.59,27.3,80,29.91,78.88,29.9Z"/><path class="cls-3" d="M36.87,100.28a1.69,1.69,0,0,1,1.8,1.79,1.76,1.76,0,1,1-1.8-1.79Z"/><path class="cls-3" d="M72.86,75.73c-.18,1.2-.8,1.92-1.91,1.87a1.75,1.75,0,1,1,.18-3.5C72.22,74.12,72.64,74.88,72.86,75.73Z"/></g></g></svg>