<svg xmlns="http://www.w3.org/2000/svg" viewBox="0 0 202.15 202.35"><defs><style>.cls-1{fill:#c88a5e;}</style></defs><g id="Capa_2" data-name="Capa 2"><g id="Capa_1-2" data-name="Capa 1"><path class="cls-1" d="M202.12,148.89q0-17.55,0-35.11c0-5.55-2.83-8.47-8.39-8.68-1.47,0-1.47-.1-1.46-1.21.07-8.17.05-16.26,0-23.79,0-.9.19-1.28,1.36-1.73,8.33-3.23,8.57-3.59,8.5-12.85,0-3.75-1.08-6.43-3.14-8s-4.86-1.76-8.41-.73c-7,2-14.09,4.12-21.24,6.23l-8,2.36v-.74c0-1.22,0-2.29,0-3.37a60.52,60.52,0,0,0-19.86-45.7A60.12,60.12,0,0,0,46.25,35.5a59.85,59.85,0,0,0,5.6,59.41c1.25,1.79,1.21,2.32,1.17,2.44-.13.36-1.57.78-2.62,1.08-10.45,3-21,6.15-31.29,9.21l-11.06,3.3c-6.58,2-8,3.88-8,10.85,0,.33,0,.65,0,1,0,.77,0,1.57,0,2.36a8.63,8.63,0,0,0,2.87,6.33A7,7,0,0,0,8.43,133c1.15-.13,1.37.06,1.37.06a3.68,3.68,0,0,1,.11,1.28l0,4.22c0,5.83-.08,11.85.08,17.78.06,2.28-.47,3-2.56,3.65C2.21,161.56.09,164.44.06,170c0,3.39,0,6.79,0,10.19,0,5.26,0,10.7-.06,16,0,2.21.41,3.71,1.4,4.71s2.41,1.45,4.53,1.45h0c59.75,0,122-.06,190.28,0h0c2.14,0,3.58-.45,4.54-1.42a5.78,5.78,0,0,0,1.38-4.31Q202.11,172.76,202.12,148.89Zm-152-3.63c0,1.63-.34,2.18-1.73,2.56l-1.75.48c-4.47,1.22-9.1,2.49-13.56,4-1.14.39-1.45.27-1.46.27h0a4.81,4.81,0,0,1-.14-1.7c.07-2.61.05-5.26,0-7.82,0-1.08,0-2.17,0-3.25s0-2.24,0-3.36c0-2.66,0-5.41-.05-8.13,0-1.5.34-2,1.89-2.41,5.37-1.42,10.25-2.86,14.92-4.41,1.36-.45,1.61-.31,1.63-.3s.24.2.21,1.52C50,129.77,50,137.14,50.12,145.26Zm133.6-39c-.05,1.76-.84,2-2.79,2.24a15.1,15.1,0,0,0-1.78.35q0-3.27,0-6.47c0-6.31,0-12.28.08-18.32,0-1.81.75-2,2.81-2.27a17.17,17.17,0,0,0,1.76-.31q0,3.26,0,6.44C183.83,94.25,183.86,100.21,183.72,106.27Zm-13,3.85c0,1.13-.29,1.47-1.58,1.83-4.3,1.21-8.65,2.54-12.84,3.83l-2.8.85c-1,.31-1.23.21-1.25.2s-.19-.2-.17-1.17c.09-5.27.07-10.63.06-15.81,0-1.95,0-3.91,0-5.87s.78-3.42,2.34-3.91c4-1.27,8-2.42,12.29-3.64l3.93-1.14v5.65C170.64,97.54,170.64,103.78,170.68,110.12ZM158.26,80c.54-3.88,2.41-5.76,6.49-6.74,7-1.69,14.06-3.88,20.86-6q3.79-1.18,7.61-2.34c1.15,4.44.81,4.54-3.43,5.79l-23.71,7Zm-27.79,42.86c0,.48-.06.57-1,.86l-.11,0c-4.56,1.36-9.12,2.7-13.7,4l-3.56,1c-.45-4-.63-6.36.12-7.61s3.07-2,7.2-3.34a76.32,76.32,0,0,0,11-4.7V115C130.43,117.72,130.42,120.28,130.47,122.83Zm-29.12-10.55H101A51.67,51.67,0,0,1,49.46,60.81a51.8,51.8,0,0,1,15.13-37,51.19,51.19,0,0,1,36.52-15.1h0a51.78,51.78,0,0,1,.23,103.55Zm2,12.84c0,.42,0,.84,0,1.25,0,2.72,0,4.21-.58,4.87s-1.81.91-4,1.37c0-.82,0-1.64,0-2.44,0-2.71.08-5.27-.09-7.85-.07-1,.13-1.3.2-1.37a1.46,1.46,0,0,1,.9-.18c.27,0,.57,0,.86,0H101c.33,0,.67,0,1,0s1.21,0,1.37.13c0,0,.2.26.08,1.2A17.41,17.41,0,0,0,103.37,125.12Zm35.63-6.9a7.82,7.82,0,0,1,0-1.82,10.55,10.55,0,0,0-.06-2.24c-.8-4.77.69-8.24,4.68-10.81V118.2c0,1.84-.88,2.09-3,2.27-.44,0-.86.08-1.23.14a1.38,1.38,0,0,1-.45,0,4.86,4.86,0,0,1,.07-1A4.81,4.81,0,0,0,139,118.22Zm-67.3-2.39c0-.81.16-1.36.46-1.56a1,1,0,0,1,.55-.13,4.12,4.12,0,0,1,1.55.39,68.3,68.3,0,0,0,15.32,5c.59.1.69.23.69,1.54v3.11q0,5,0,10c0,.92-.19,1.2-1,1.43-4.51,1.27-8.94,2.59-13.64,4l-3.92,1.15v-6.38C71.71,128.1,71.71,122,71.7,115.83ZM58.39,105c2,0,3.7,1,5.53,3l-8,2.37c-15,4.46-30.46,9.08-45.62,13.54-.17,0-.37.13-.59.21a5.16,5.16,0,0,1-1,.31,1.31,1.31,0,0,1,0-.25,10.89,10.89,0,0,0-.2-1.52c-.32-1.83-.5-2.84,1.71-3.46,7.69-2.15,15.47-4.49,23-6.75,3.15-1,6.31-1.91,9.47-2.84,1.25-.38,2.55-.71,3.8-1a51.66,51.66,0,0,0,8.4-2.7A8.61,8.61,0,0,1,58.39,105ZM63.22,127c0,1,0,2,0,2.95v3.38c0,2.68,0,5.37,0,8a3.46,3.46,0,0,1-1.55,2.31,3.81,3.81,0,0,1-2.88.92l-.14,0a2.76,2.76,0,0,1,0-.44V144c0-1.89,0-3.77,0-5.66,0-6.17-.06-12.56.05-18.83,0-1.66.91-1.89,3.08-2a12,12,0,0,0,1.41-.15l.24,0a5.41,5.41,0,0,1-.1,1,5.25,5.25,0,0,0-.11,1.15C63.26,121.94,63.24,124.52,63.22,127Zm130.43,61.55,0,3c0,1.11-.1,1.7-.36,2a2.72,2.72,0,0,1-1.77.38h0c-47.68-.07-96.15-.08-143-.08h-33l14.72-4.38,42-12.49,31.1-9.22c28.57-8.47,58.12-17.23,87.16-25.92.86-.26,2.45-.74,2.85-.43.14.1.47.57.43,2.64C193.48,158.85,193.57,174,193.65,188.58ZM13.12,180.83l177.42-52.64,2.7-.76.25-.07c.13,2.2.15,3.49-.27,4.14s-1.85,1.14-4.37,1.89L11.06,186.2c-.69.21-1.4.38-2.1.54l-.07,0c-.49-2.1-.73-3.41-.39-4S10.47,181.62,13.12,180.83Zm178.07-61.64c-47.93,14.08-96.63,28.51-143.73,42.46L10.08,172.72c-.42.13-.85.24-1.29.34-.31-2-.47-3.42-.14-4.06s1.51-1,3.74-1.68l6-1.78c56.34-16.72,114.61-34,171.94-50.91a6.66,6.66,0,0,0,1.26-.58,4.57,4.57,0,0,1,1.43-.6h.1c.07,0,.22.21.35.69C194.21,116.83,194.06,118.34,191.19,119.19ZM18.38,146.87v-3c0-1.19,0-2.39,0-3.58,0-2.72,0-5.54,0-8.32-.05-2.26,1.11-2.43,3.33-2.55.37,0,.73,0,1.06-.08a2,2,0,0,1,.31,0h.16a4.07,4.07,0,0,1-.13,1.18,5.79,5.79,0,0,0-.15,1.2c.11,6.05.09,12.22.07,18.18V153a3.89,3.89,0,0,1-1.55,2.73,3.83,3.83,0,0,1-2.94,1l-.22-.06h0a2.36,2.36,0,0,1,.05-.56,3.67,3.67,0,0,0,.07-.75C18.36,152.51,18.37,149.64,18.38,146.87Z"/><path class="cls-1" d="M110.48,91.84l-.26.2a21.2,21.2,0,0,1-16.16,4.6C83.69,95.23,76.13,88.1,74.33,78.05c-1.71-9.56,3.42-19.16,12.76-23.91,1.5-.76,3.15-1.71,3.67-3.31a4.18,4.18,0,0,0-.44-3.24c-1.91-3.74-5.59-1.88-7-1.18C72,52.15,66,61.57,65.5,74.41v.09c.64,13,6.56,22.33,17.58,27.67a31,31,0,0,0,13.58,3.32c6.33,0,12.57-2.2,18.65-6.59,1.46-1.06,3-2.34,3.3-4.14a4.19,4.19,0,0,0-1.07-3.23C115,88.35,112.29,90.45,110.48,91.84Z"/><path class="cls-1" d="M129.6,88.78c-1.62.14-2.35-.44-3.12-2.46-.46-1.2-1-2.36-1.57-3.47-.23-.47-.46-.94-.68-1.41-.9-1.92-1.6-3.52-2.16-4.81-2.82-6.46-3.18-6.71-9.87-6.58-1.51,0-3.39.07-5.75,0h-.28c-2.84,0-4.56-.07-5.1-.63s-.5-2.28-.45-5.14v-.36a2.81,2.81,0,0,1,.5-1.94,2.68,2.68,0,0,1,1.88-.33c1.86.12,3.74.07,5.55,0l.68,0c3-.08,4.8-1.75,4.75-4.34s-1.87-4.13-4.89-4.2l-1.16,0c-1.66,0-3.37-.09-5.07,0a2.37,2.37,0,0,1-1.81-.34,2.71,2.71,0,0,1-.41-2c.11-2,.08-4.08.06-6.06,0-1,0-2,0-3,0-1.82,0-5.62-4.15-5.64h0a4.15,4.15,0,0,0-3,1.11c-1.21,1.2-1.35,3.09-1.35,4.41q0,5.07,0,10.12V60.9q0,5.3,0,10.6c0,6.13.94,7.06,7,7.11,1.52,0,3.13-.12,4.69-.25,3.42-.29,7-.58,9.33.74s3.47,4.52,4.61,7.9a37.52,37.52,0,0,0,1.84,4.78c2,4.12,3.89,5.75,7.19,5.75a15.82,15.82,0,0,0,3.13-.36c2.71-.54,4.16-2.2,4-4.55a4.21,4.21,0,0,0-1.39-3A3.81,3.81,0,0,0,129.6,88.78Z"/><path class="cls-1" d="M96.39,32h.09a7.28,7.28,0,0,0,7.43-7.27A7.4,7.4,0,0,0,96.78,17a7.5,7.5,0,1,0-.39,15Z"/></g></g></svg>