<svg xmlns="http://www.w3.org/2000/svg" viewBox="0 0 142.02 142.02"><defs><style>.cls-1{fill:#6c2912;}.cls-2{fill:#fff;}.cls-3{fill:#c88a5e;}</style></defs><g id="Capa_2" data-name="Capa 2"><g id="Capa_1-2" data-name="Capa 1"><circle class="cls-1" cx="71.01" cy="71.01" r="71.01"/><circle class="cls-2" cx="71.01" cy="71.01" r="60.69"/><path class="cls-3" d="M92.76,66.42c0,3.14,0,6.28,0,9.42a1.77,1.77,0,0,0,1,1.74A42.13,42.13,0,0,1,105.8,88.85a2.18,2.18,0,0,0,1.76,1,5.67,5.67,0,0,1,4.87,8.24c-.44,1-.28,1.32.5,1.85,2.85,2,3.23,4.9,3,8-.08,1.13-1,.63-1.54.67s-1.31.35-1.34-.67c0-.6,0-1.21,0-1.81a6.56,6.56,0,0,0-.09-1.26c-.61-2.74-3-3.85-7.38-3.47a4.42,4.42,0,0,0-4.11,4.46,7.68,7.68,0,0,0,0,1.27c.15,1.15-.25,1.55-1.47,1.55s-1.57-.42-1.46-1.56c.2-2.1-.16-4.15-2.25-5.11a8.08,8.08,0,0,0-7.16,0c-2,1-2.36,2.94-2.15,5,.12,1.24-.26,1.67-1.57,1.64-1.16,0-1.37-.41-1.38-1.47-.06-5.14-4.57-7.75-9.18-5.32-2,1.07-2.62,2.93-2.36,5.06.19,1.56-.54,1.78-1.85,1.72-.89,0-1.12-.36-1.09-1.19a10.58,10.58,0,0,0-.12-2.7c-.61-2.72-3.12-3.82-7.44-3.38A4.44,4.44,0,0,0,58,106a7.57,7.57,0,0,0,0,1.26c.15,1.09-.22,1.48-1.38,1.45S55,108.52,55,107.24c0-5.14-4.56-7.75-9.17-5.32-2,1.07-2.62,2.93-2.36,5.06.19,1.57-.54,1.78-1.85,1.72-.9,0-1.12-.36-1.09-1.19a10.58,10.58,0,0,0-.12-2.7c-.61-2.72-3.12-3.82-7.44-3.38A4.44,4.44,0,0,0,29,106a7.69,7.69,0,0,0,0,1.27c.15,1.08-.22,1.47-1.38,1.44s-1.54-.2-1.58-1.46c-.09-3.1.65-5.75,3.37-7.53.55-.37.63-.64.35-1.29-1.76-4.26-.05-7.63,4.36-8.56a1.93,1.93,0,0,0,1.3-.82,42.19,42.19,0,0,1,13-11.89,1.84,1.84,0,0,0,.87-2q0-8.86,0-17.75c0-2.15.27-2.41,2.39-2.42,2.66,0,5.32,0,8,0,.92,0,1.31-.23,1.25-1.21-.07-1.33,0-2.66,0-4s.41-2.15,1.84-2.05c.94.06,1-.38,1.08-1.18.16-3,1.59-4.48,4.63-4.6,1,0,1.27-.42,1.15-1.29-.17-1.17.13-1.71,1.5-1.7s1.57.54,1.4,1.61S72.85,42,73.89,42a4.18,4.18,0,0,1,4.34,4.35c0,1,.18,1.54,1.37,1.46s1.57.7,1.57,1.77c0,1.38.06,2.78,0,4.16-.06,1.07.36,1.32,1.35,1.3,2.72-.06,5.44,0,8.15,0,1.57,0,2.16.64,2.14,2.18C92.72,60.26,92.76,63.34,92.76,66.42ZM59,75.65a9,9,0,0,1,2.33,3.62c1.37,4.42,1.76,3.47-2.2,6.25-2.93,2.06-6,1.89-9,.54-2.51-1.1-5.1-.4-7.66-.52-.23,0-.52.29-.71.51q-1.66,1.9-3.3,3.84c-.32.38-.6.72-.06,1.21,2.36,2.14,2.81,4.6,1.39,7.5-.65,1.34,1.14,1.22,1.55,2,.18.35.55.88,1.14.31,1-1,2.78-1.66,1.32-3.59a2.65,2.65,0,0,1-.29-1.4,5.78,5.78,0,0,1,9.85-4.42A5.73,5.73,0,0,1,54.56,98c-.19.48-1,1-.15,1.52s1.38,1.7,2.28,1.5a4.57,4.57,0,0,0,2.2-1.78c.39-.5-.37-1.06-.57-1.6a5.8,5.8,0,0,1,8.87-6.7c2,1.49,3.1,4.2,2,6.39-.85,1.7-.22,2.41,1,3.25.51.35,1,1,1.4.11s2.44-.63,1.54-2.46a5.6,5.6,0,0,1,1.51-7.16,5.79,5.79,0,0,1,8.75,7.18c-.17.39-.71.79-.09,1.24.77.56,1.56,1.57,2.3,1.53s1.59-1,2.22-1.71c.46-.51-.25-1-.44-1.43A5.81,5.81,0,0,1,96,90.78c2.15,1.43,3.33,4.2,2.25,6.47-.83,1.74-.28,2.54,1.06,3.39.47.3.92.86,1.27.1s2.52-.67,1.61-2.44a5.35,5.35,0,0,1,.83-6.52c.66-.73.56-1.14,0-1.8-1.27-1.62-2.65-3.14-4-4.64a2.75,2.75,0,0,0-2.9-.81c-2.37.46-4.76,1.57-7.2.22a2.74,2.74,0,0,0-3.31.49A6.76,6.76,0,0,1,81,87c-5.44-.13-5.44,0-8.11-4.78a1.92,1.92,0,0,1-.38-1.35c.24-1.14,3.74-4.14,4.94-4A2.06,2.06,0,0,0,79.88,75,39.32,39.32,0,0,0,59,75.65ZM78.26,61.18c0-3.08,0-6.16,0-9.24,0-.89-.18-1.29-1.18-1.27-4,0-8.09,0-12.14,0-.8,0-1.2.13-1.2,1.07,0,6.22,0,12.44,0,18.66,0,.8.27,1,1.05,1,1.28,0,2.11-.26,1.87-1.83a21.31,21.31,0,0,1,0-2.53c0-1.29.61-1.87,1.88-1.85,1.63,0,3.27,0,4.9,0,1.38,0,2,.63,1.93,2,0,1.08-.05,2.17,0,3.26.09,1.61,1.48.8,2.25,1,1,.32.6-.65.61-1C78.27,67.34,78.26,64.26,78.26,61.18ZM89.85,75.34c0-5.66,0-11.13,0-16.6,0-.82-.51-.81-1.08-.81-2.17,0-4.35,0-6.52,0-.89,0-1.12.32-1.11,1.16,0,4,0,8.09,0,12.13,0,.54,0,1.05.72,1.23A51.46,51.46,0,0,1,89.85,75.34ZM52.18,75a48.92,48.92,0,0,1,7.73-2.66,1.09,1.09,0,0,0,1-1.26q0-6.06,0-12.13c0-.77-.24-1.06-1-1q-3.26.06-6.51,0c-.83,0-1.18.2-1.17,1.1C52.19,64.27,52.18,69.52,52.18,75Zm42.37,6.66a42.44,42.44,0,0,0-10.09-5.4c-1-.4-1.68-.26-2.2.73-.91,1.7-1.94,3.12-4.31,2.72-1-.17-2.2,1.37-1.8,2.06.71,1.2,1.28,2.4,3.2,2.31s3.68-.31,5.13-1.64a4,4,0,0,1,4.93-.62A5.6,5.6,0,0,0,94.55,81.68Zm-48.27.9a14.75,14.75,0,0,1,3,0,20.55,20.55,0,0,1,2.81,1.16,6.75,6.75,0,0,0,3.9.12c2.55-.6,3.44-2.62,2.09-4.7-.65-1-1.41-2.69-2.88-2.19A23.45,23.45,0,0,0,46.28,82.58Zm-8.62,13a2.89,2.89,0,1,0-2.8,3A3,3,0,0,0,37.66,95.53Zm11.56-2.8a2.89,2.89,0,1,0,2.94,2.83A2.94,2.94,0,0,0,49.22,92.73Zm17.43,2.94a2.89,2.89,0,1,0-2.94,2.83A3,3,0,0,0,66.65,95.67Zm14.5-.07a2.89,2.89,0,1,0-2.87,2.9A3,3,0,0,0,81.15,95.6Zm14.49,0a2.89,2.89,0,1,0-2.87,2.9A2.95,2.95,0,0,0,95.64,95.6Zm11.7,2.9a2.89,2.89,0,1,0-3-2.8A3,3,0,0,0,107.34,98.5ZM70.85,47.78c1,0,2.05,0,3.07,0,.56,0,1.43.41,1.44-.76,0-1-.16-2-1.29-2a48.38,48.38,0,0,0-6.14,0C66.81,45,66.64,46,66.67,47c0,1.17.92.69,1.47.73C69,47.83,69.94,47.78,70.85,47.78Zm1.58,21.85c.23-1.14-.1-1.62-1.37-1.59s-1.58.28-1.53,1.49c0,1,.14,1.57,1.36,1.47C71.85,70.93,72.77,71,72.43,69.63Z"/><path class="cls-3" d="M38.15,29.56c1.08.1,2.18.11,3.23.31,5.26,1,7.89,3.76,8.53,9.06a21.25,21.25,0,0,1-.26,6.84,1.76,1.76,0,0,1-1.47,1.6,20.25,20.25,0,0,1-9.13-.16c-4.44-1.28-6.88-4.58-7.14-9.73a27,27,0,0,1,.25-5.23c.21-1.4.73-2.14,2.21-2.33C35.63,29.76,36.88,29.66,38.15,29.56Zm-1.61,3.17c1.92,1.73,3.6,3.28,5.3,4.8s3.34,3,5.19,4.6C47.36,34.91,44,31.91,36.54,32.73ZM45,44.67A84,84,0,0,0,35,35.6C34.05,41.92,38.36,45.82,45,44.67Z"/><path class="cls-3" d="M105.1,29.66a20.24,20.24,0,0,1-.23,3.1c-1.08,5.18-3.9,7.86-9.17,8.43A21.91,21.91,0,0,1,89,40.93a1.86,1.86,0,0,1-1.69-1.6,20.32,20.32,0,0,1,.11-8.78c1.19-4.59,4.63-7.15,9.92-7.39a26.89,26.89,0,0,1,5.22.28,2.21,2.21,0,0,1,2.21,2.13A31.24,31.24,0,0,1,105.1,29.66Zm-3-.91L91.65,38.16C98.9,39.17,102.53,35.93,102.08,28.75Zm-1.71-2.43c-7-1.28-12.08,3.46-10.14,9.17Z"/><path class="cls-3" d="M70.73,20.21A35.35,35.35,0,0,1,86.36,23.8c.75.37,1.46.61.78,1.68-.52.82-.71,1.61-2.1,1-12.27-5.58-23.78-4.2-34.38,4.12-1.08.84-1.48.52-2.26-.3-1-1.08-.25-1.51.45-2.09A34.83,34.83,0,0,1,70.73,20.21Z"/><path class="cls-3" d="M105.81,56.46a34,34,0,0,1-7.37,20c-.55.72-1,1.57-2.06.51-.79-.77-1.17-1.16-.33-2.27,7-9.36,8.7-19.64,4.8-30.7-.52-1.47.13-1.65,1.12-2.13,1.34-.65,1.4.37,1.67,1.1A36.68,36.68,0,0,1,105.81,56.46Z"/><path class="cls-3" d="M36.21,55a36.86,36.86,0,0,1,.32-4.7c.1-1,.36-1.34,1.43-1.18s1.7.31,1.51,1.62a30.8,30.8,0,0,0,5.64,22.76c.94,1.32-.29,1.44-.81,2-.74.8-1.16.35-1.65-.34A34.64,34.64,0,0,1,36.21,55Z"/><path class="cls-3" d="M71,56.48c-.9,0-1.81-.06-2.71,0-1.17.11-1.7-.15-1.69-1.52s.54-1.45,1.61-1.42c1.86.06,3.73.07,5.6,0,1.07,0,1.63.13,1.59,1.43,0,1.15-.3,1.64-1.51,1.51C73,56.41,72,56.48,71,56.48Z"/><path class="cls-3" d="M70.84,62.28c-.91,0-1.82-.07-2.71,0-1.22.13-1.52-.35-1.51-1.51s.26-1.49,1.41-1.44c2,.1,4,.09,6,0,1.15-.05,1.41.35,1.42,1.43s-.28,1.64-1.5,1.52C72.89,62.2,71.86,62.28,70.84,62.28Z"/><path class="cls-3" d="M86.93,62.22c.26,1.19-.2,1.55-1.41,1.56S84,63.4,84,62.24s.22-1.51,1.39-1.45S87.26,60.85,86.93,62.22Z"/><path class="cls-3" d="M85.47,66.66c1.22-.28,1.51.25,1.54,1.43s-.43,1.48-1.56,1.48S84,69.29,84,68.16,84.14,66.34,85.47,66.66Z"/><path class="cls-3" d="M57.91,62.17c.32,1.36-.3,1.56-1.43,1.6S55.06,63.28,55,62.2s.34-1.46,1.44-1.4S58.41,60.81,57.91,62.17Z"/><path class="cls-3" d="M57.94,68c.28,1.23-.27,1.51-1.44,1.53S55,69.13,55,68s.29-1.47,1.42-1.43S58.26,66.72,57.94,68Z"/></g></g></svg>