<svg xmlns="http://www.w3.org/2000/svg" viewBox="0 0 142.02 142.02"><defs><style>.cls-1{fill:#6c2912;}.cls-2{fill:#fff;}.cls-3{fill:#c88a5e;}</style></defs><g id="Capa_2" data-name="Capa 2"><g id="Capa_1-2" data-name="Capa 1"><circle class="cls-1" cx="71.01" cy="71.01" r="71.01"/><circle class="cls-2" cx="71.01" cy="71.01" r="60.69"/><path class="cls-3" d="M87.9,82.28c-.26,1.33.2,2.83-1.58,2.92-1.63.08-1.5-1.25-1.69-2.42a2.73,2.73,0,0,0-2.1,3c.09,4.39,0,8.78,0,13.16,0,1.13,0,2.38-1.6,2.34s-1.5-1.29-1.5-2.42c0-2.23,0-4.45,0-7.31a44.74,44.74,0,0,1-7.61,8.79c-.54.47-.45,1.1-.46,1.72,0,1,0,2-.05,3.08a1.37,1.37,0,0,1-1.58,1.48c-.89-.05-1.56-.62-1.37-1.45.86-3.77-1.55-5.81-3.84-8.13a30.61,30.61,0,0,1-7.05-11.45c-.82-2.34-2.09-2.91-4.41-2-3.87,1.45-7.58,3.17-10.53,6.19A10.06,10.06,0,0,0,39.5,97.1c.06,6.23,0,12.47,0,18.71,0,.48,0,1,0,1.44,0,1-.34,2-1.56,2s-1.61-.84-1.63-1.93c0-.41,0-.82,0-1.23,0-6.1.07-12.21,0-18.31A14.2,14.2,0,0,1,41.8,86.17a29.84,29.84,0,0,1,9.09-5.09c1.42-.51,2.06-1,1-2.47a11.7,11.7,0,0,1-1.1-2.86c-.36-1-.15-2,1-2.34s1.8.48,2,1.47a9.71,9.71,0,0,0,4.41,6.43c2.53,1.47,5.19,2.72,7.83,4a7.43,7.43,0,0,0,6.55.19,91.56,91.56,0,0,0,8.55-4.36A8.75,8.75,0,0,0,85.51,74c.29-5.3.08-10.63.08-16.1-1.54.73-1.47,2-1.56,3.2a16.72,16.72,0,0,1-3.63,9.64c-2.73,3.32-4.85,3.35-7.62.15-1.11-1.29-5.4-1.17-6.49.19-2.29,2.86-4.43,3-7,.25a16.22,16.22,0,0,1-4.14-10.06c-.11-1.21,0-2.5-1.66-3.5,0,2.36,0,4.48,0,6.6,0,1.23,0,2.47-.05,3.7A1.47,1.47,0,0,1,52,69.51c-1,0-1.79-.64-1.61-1.46.66-3-1.6-4.52-3.11-6.47C39.62,51.73,38.17,41,43.84,29.86s15.42-16.27,28-15.8a23.1,23.1,0,0,1,5.85,1.07c1.07.32,2,.77,1.68,2.08s-1.45,1.2-2.54.91A25.9,25.9,0,0,0,58,19.85a21.62,21.62,0,0,0-7.18,5.48c6-.47,11.71-1.12,17.31-.15,5,.87,9.35-1.48,14-2.3a4.81,4.81,0,0,0,2.63-.77c-.5-.39-.91-.73-1.34-1-.84-.61-1.2-1.4-.58-2.29s1.47-.81,2.34-.25a28.72,28.72,0,0,1,7.91,7.39,29,29,0,0,1-2.8,37.45,4.28,4.28,0,0,0-1.43,3.39c.09,3.75.36,7.56-1.21,11.14-.41.93.28,1,.84,1.2,1.85.74,3.9,1.4,5.16,2.89,3.46,4.06,8.45,7.18,9.06,13.14.3,2.85.16,5.75.18,8.63,0,4.32,0,8.63,0,12.95,0,1.22,0,2.57-1.64,2.53s-1.57-1.42-1.57-2.61c0-6.65,0-13.3,0-19.95a8.67,8.67,0,0,0-3.29-7c-.58.66-.29,1.44-.29,2.14,0,8,0,16,0,24.06,0,.62,0,1.24,0,1.85-.07,1-.56,1.59-1.56,1.53A1.49,1.49,0,0,1,93,117.61c0-.48,0-1,0-1.44,0-9.19-.15-18.38.09-27.56.08-2.9-1-4.46-3.41-5.51C89.15,82.86,88.61,82.6,87.9,82.28ZM53.66,49.55c-.4,2.29-.08,4.15,1.86,5.56a7,7,0,0,1,2.76,5.67A13,13,0,0,0,61.49,69c.89,1,1.62,1.46,2.47-.06a3.75,3.75,0,0,1,3.78-2c1.23.06,2.47.06,3.7,0A3.75,3.75,0,0,1,75.23,69c.83,1.48,1.55,1.12,2.47.1A14.08,14.08,0,0,0,81,60.19a5.92,5.92,0,0,1,2.23-4.63,5.72,5.72,0,0,0,2.43-5.84,5.3,5.3,0,0,1,0-1.64,2.47,2.47,0,0,0-1.39-2.68q-13.5-8.57-27.61-1.1C54.48,45.47,52.65,46.76,53.66,49.55ZM57.31,37c3.12.16,5.52,1.33,8.06,1.05C75.19,37,84.89,37,94.21,40.85c1.07.45,1.33.24,1.17-.88a27.1,27.1,0,0,0-5.95-13.73,2.79,2.79,0,0,0-3-1.06,80.89,80.89,0,0,0-18.54,5.71A57.75,57.75,0,0,0,57.31,37Zm8.38-8.78c-4.34-.17-8.59,0-12.82,0-4.46,0-6.45,2.07-7.68,5.93-.59,1.85-.22,2.21,1.56,2.1a41.33,41.33,0,0,1,4.72.12,2.23,2.23,0,0,0,1.58-.28A96.32,96.32,0,0,1,65.69,28.19ZM61.52,86.68a29,29,0,0,0,7.53,10.48c.38.35.7.85,1.33.28a31.93,31.93,0,0,0,8.43-11.75C72.92,89.9,67.33,90.36,61.52,86.68ZM57.19,40.27A59.12,59.12,0,0,0,45,39.44c-.73,0-1.15.28-1.2,1.05A24.71,24.71,0,0,0,45.1,51.2,32.14,32.14,0,0,1,57.19,40.27ZM84,41.38a32.52,32.52,0,0,1,10,9.74,20.4,20.4,0,0,0,1.25-4.83c.26-1.09-.12-1.6-1.1-2A36.14,36.14,0,0,0,84,41.38ZM50.25,50c-4.17,3.51-4.17,6.67.08,9.88C50.12,56.48,50.78,53.27,50.25,50Zm38.68-.17a31.09,31.09,0,0,0-.11,5.15c.14,1.59,0,3.2,0,5.07C93.15,56.13,93.15,53.9,88.93,49.79Z"/><path class="cls-3" d="M90.22,105.88c0,3.69,0,7.39,0,11.09,0,1.09-.06,2.22-1.43,2.28-1.56.07-1.6-1.16-1.6-2.31V94.76c0-1.09.09-2.2,1.53-2.18s1.51,1.1,1.5,2.2C90.21,98.48,90.22,102.18,90.22,105.88Z"/><path class="cls-3" d="M51.43,109.7c0,2.46,0,4.93,0,7.39,0,1.11-.25,2.18-1.61,2.17s-1.59-1-1.59-2.17q0-7.4,0-14.79c0-1.07.27-2,1.48-2s1.71.91,1.72,2.06Z"/><path class="cls-3" d="M82.55,112.35c0,1.71,0,3.43,0,5.14,0,1-.42,1.81-1.55,1.78s-1.52-.77-1.52-1.8V107c0-1,.42-1.75,1.54-1.76s1.52.79,1.53,1.78C82.56,108.79,82.55,110.57,82.55,112.35Z"/><path class="cls-3" d="M69.65,65.7c-1.65,0-3.29.06-4.93,0-2.07-.09-2.87-1-3-3.11-.12-2.5.11-4.83,2.58-6.23.74-.41.48-1,.41-1.61a1.57,1.57,0,0,1,1.33-2c1.21-.18,1.67.68,1.84,1.73a27.29,27.29,0,0,1,.39,2.84c0,.87.38,1.2,1.26,1.18s1.28-.14,1.32-1.1a26.1,26.1,0,0,1,.41-3c.17-1,.66-1.75,1.75-1.63a1.48,1.48,0,0,1,1.38,1.91c-.26,1.1.27,1.54,1,2.12,1.85,1.42,2.73,5.26,1.77,7.34a2.77,2.77,0,0,1-2.67,1.59C72.93,65.71,71.29,65.69,69.65,65.7Zm-4.43-6c-.75,2.81-.74,2.83,1.92,2.83,1.78,0,3.56,0,5.34,0,.62,0,1.52.42,1.8-.46a2.22,2.22,0,0,0-.48-2.36C71.3,62.51,68.14,62.5,65.22,59.71Z"/><path class="cls-3" d="M61.42,52.66a5,5,0,0,1-3.31-.94,1.55,1.55,0,0,1-.69-2.1A1.41,1.41,0,0,1,59.51,49a4,4,0,0,0,3.34.25,1.46,1.46,0,0,1,2.06,1.07c.28,1-.33,1.53-1.15,1.87A4.7,4.7,0,0,1,61.42,52.66Z"/><path class="cls-3" d="M77.56,52.69a5.43,5.43,0,0,1-1.22-.12c-1.07-.35-2.51-.52-2.24-2.12s1.55-1.33,2.72-1a3.09,3.09,0,0,0,2.37-.32c.87-.48,1.79-.5,2.29.5s0,1.82-1,2.35A5.31,5.31,0,0,1,77.56,52.69Z"/></g></g></svg>