<svg xmlns="http://www.w3.org/2000/svg" viewBox="0 0 142.02 142.02"><defs><style>.cls-1{fill:#6c2912;}.cls-2{fill:#fff;}.cls-3{fill:#c88a5e;}</style></defs><g id="Capa_2" data-name="Capa 2"><g id="Capa_1-2" data-name="Capa 1"><circle class="cls-1" cx="71.01" cy="71.01" r="71.01"/><circle class="cls-2" cx="71.01" cy="71.01" r="60.69"/><path class="cls-3" d="M57.76,64.37a14.8,14.8,0,0,1,3.33,5.38,1.15,1.15,0,0,0,1.35.89c.8,0,1.62,0,2.42,0,5.21,0,8.68,3.64,8.2,8.8-.61,6.5-1.42,13-2.16,19.46-.17,1.47-.3,3-.59,4.4a7.53,7.53,0,0,1-7.46,6.16c-2.56,0-5.12.06-7.68,0-1.12,0-1.59.28-1.48,1.45.19,2-.38,3.75-2.39,4.68s-3.63,0-5.13-1.3a17.53,17.53,0,0,1-1.41-1.14,11.67,11.67,0,0,0-10.08-3.76,7,7,0,0,1-7.3-6.23c-.81-5.52-1.34-11.09-2-16.64-.23-2-.4-4-.69-6-.84-5.91,2.53-9.93,8.47-9.81,2.07,0,3.26-.33,4.17-2.52A11.63,11.63,0,0,1,46,61.27c.58-.13,1.16-.3,1.76-.45-1.87-3.88-1.53-8.08-2.12-12.11-.66-4.53-1-9.1-1.57-13.64-.75-5.8,2.59-9.8,8.41-9.7,2,0,3.11-.22,4-2.42,1.94-5.13,6.65-7.54,13.12-7.32A12,12,0,0,1,80.4,23.69c.46,1.33,1,1.77,2.4,1.67a10.85,10.85,0,0,1,4.59.41,7.85,7.85,0,0,1,5.08,8.5c-.4,4.15-.94,8.29-1.42,12.44,0,.46-.08.93-.12,1.38.55.24.77-.2,1-.44,5.69-5,17.91-4.16,21,5.76.3,1,.78,1.06,1.58,1.05a22.35,22.35,0,0,1,3.84.09,7.74,7.74,0,0,1,6.4,8.68c-.49,5.3-1.16,10.58-1.76,15.86-.3,2.61-.51,5.23-1,7.81-.7,3.91-3.72,6.59-7.67,6.3a11,11,0,0,0-9.39,3.44,20.94,20.94,0,0,1-2.84,2.27,3.8,3.8,0,0,1-4.18.43,3.63,3.63,0,0,1-2.24-3.74c.25-2.06-.57-2.5-2.45-2.36-2.21.17-4.44.07-6.67,0A7.35,7.35,0,0,1,79.15,87c-.82-5.59-1.35-11.22-2-16.84a36.06,36.06,0,0,1-.4-4c0-1.56-.59-2.06-2.17-2-1.36,0-1.58.54-1.49,1.67a4.11,4.11,0,0,1-2.37,4.49c-1.86.87-3.39.14-4.82-1-1.73-1.4-3.47-2.78-5.19-4.19A2.67,2.67,0,0,0,57.76,64.37Zm48.94,26.5c-2.06-2.06-3.52-4.58-5.35-6.81-.37-.45-.65-1.13-1.31-.22-1.45,2-3,3.94-4.5,6,3.45.41,3.45.41,3.46,3.88,0,.54,0,1.08,0,1.62.08,1,.53,1.5,1.41.77,2.1-1.74,4.53-3.09,6.23-5.29,1.76-1.08,3.7-.75,5.6-.8.56,0,1.14.17,1.32-.77.56-3-1.89-8.49-4.55-10-.68-.4-1-.27-1.06.47ZM55.32,59c0,1.95,0,2.11,2,1.92a7.5,7.5,0,0,1,6.33,2.28A50.44,50.44,0,0,0,68,66.7c.4.3.78.85,1.4.5s.46-.92.47-1.45a27.64,27.64,0,0,0,0-3c-.13-1.35.24-2.06,1.73-1.82.39.06.81,0,1.21,0,2.13.17,4.17.29,4.68-2.59.1-.58.73-1.11,1.19-1.59,1.91-1.93,1.94-2.13.31-4.3a11.61,11.61,0,0,0-4.52-3.63c-.74-.34-1.26-.54-1.6.56a4.78,4.78,0,0,1-9.17.06c-.32-1-.73-1-1.58-.65A11.47,11.47,0,0,0,55.32,59Zm61.51,30.27c2-1.18,2.17-3,2.37-4.79.76-6.88,1.48-13.77,2.32-20.65.54-4.47-3.19-7.58-7.45-6.08-.28.09-.5.18-.53.49-.13,1.48-1,2.83-.3,4.47.87,1.94.23,4.51-1.68,5.26-2.39.93-3.66,2.77-5.28,4.41-1.16,1.18-1.18,1.53.44,2.08a14.32,14.32,0,0,1,9.48,9.7A16.44,16.44,0,0,1,116.83,89.23ZM52,60.08c.24-7.17,3.3-12.16,9.93-14.69,2-.76,2-.81.4-2.36a4,4,0,0,1-1-1.23,3.56,3.56,0,0,0-2.7-2.25A4.4,4.4,0,0,1,55.49,34c.61-1.62.2-3-.05-4.46-.14-.77-.45-1-1.18-1s-1.48,0-2.22,0c-3.11.08-5.08,2.16-4.76,5.22.78,7.5,1.63,15,2.49,22.47A4.43,4.43,0,0,0,52,60.08ZM84.31,89.19c.28-7.45,3.57-12.49,10.52-14.89,1.36-.47,1.24-1,.27-1.76a5.28,5.28,0,0,1-1.7-2,2.71,2.71,0,0,0-2.1-1.76,4.64,4.64,0,0,1-3.22-6.47c.61-1.58-.09-3-.53-4.25-.31-.92-1.69-.22-2.57-.39a3,3,0,0,0-.6,0c-3.1.1-5.06,2.17-4.74,5.24.78,7.5,1.63,15,2.48,22.46A4.43,4.43,0,0,0,84.31,89.19Zm-.69-60.62c-.68.31-2-.62-2.35.5-.43,1.39-1.11,2.8-.39,4.45.86,2,.26,4.47-1.65,5.27-2.31,1-3.65,2.74-5.29,4.39-1.4,1.42-.89,1.68.57,2.17a13.12,13.12,0,0,1,8.35,7.41c.75,1.8,1.9,1.88,3.3,1.65s.93-1.6,1-2.47c.7-5.74,1.25-11.49,2-17.23C89.65,30.71,87.85,28.59,83.62,28.57ZM56.2,106.21c1.48,0,3,0,4.44,0,.88,0,1.15-.3,1.16-1.16a11.58,11.58,0,0,0-4.53-9.66c-.74-.59-1.21-.65-1.7.29A51.41,51.41,0,0,0,53,100.27c-.92,2.29-2.4,3-4.8,2.79-1.45-.11-2.32-.44-3-1.77-.85-1.75-2-3.34-2.84-5.1-.74-1.57-1.43-1.35-2.5-.38a11.86,11.86,0,0,0-4,8.08c-.16,1.72.21,2.68,2.19,2.34a6.36,6.36,0,0,1,5.8,2,46.75,46.75,0,0,0,4.39,3.53c.49.37.93,1.16,1.71.72s.43-1.2.46-1.84a16.37,16.37,0,0,0,0-2.62c-.15-1.35.25-2,1.73-1.82A38.68,38.68,0,0,0,56.2,106.21Zm-23.59-.81a15.6,15.6,0,0,1,3-9.78,2.05,2.05,0,0,0,.29-1.13q0-9.7,0-19.41c0-.43.15-.91-.47-1.18a5.44,5.44,0,0,0-7.54,5.45c.22,2.14.51,4.28.74,6.42.59,5.28,1.14,10.57,1.75,15.85A4.37,4.37,0,0,0,32.61,105.4Zm32.45.1c2-1.32,2.18-3,2.37-4.8.71-6.63,1.37-13.26,2.16-19.88.64-5.28-.9-7-6.23-7-1.21,0-1.61.29-1.6,1.57.07,6.2,0,12.4,0,18.6a2.64,2.64,0,0,0,.35,1.74A15.13,15.13,0,0,1,65.06,105.5ZM100.6,48c-5,0-8.52,2.73-9.52,7.32a7.35,7.35,0,0,0,0,3.2c.09.39.22.8.76.79.28,0,.64-.08.62-.35-.1-1.77,1.2-1.27,2.08-1.24A4.7,4.7,0,0,0,99.32,55c.22-.45.37-1.22,1.08-.88,2.72,1.32,5.42,2.68,8.08,4.11.4.21.26,1.34,1.13,1s.64-1.11.68-1.76C110.66,52.2,106.37,48,100.6,48ZM49,64.17a9.73,9.73,0,0,0-9.81,9.67c0,.56-.52,1.47.45,1.67a1.41,1.41,0,0,0,1.82-1.08,6,6,0,0,1,1.88-2.58c1.32-1.21,2.62-1.77,4.19-.33a9.52,9.52,0,0,0,7.84,2.36c.72-.08,1.7-.32,1.62,1.05,0,.72.63.58,1,.6.81,0,.5-.63.52-1A9.8,9.8,0,0,0,49,64.17Zm19.37-45.3c-5.94,0-10.44,4.5-9.75,9.83.08.62,0,1.52,1,1.45s.6-.94.55-1.43c-.14-1.39.32-1.84,1.77-1.81,4.24.1,8.48.07,12.72,0,1.2,0,1.92.14,1.77,1.6-.06.53-.51,1.54.55,1.61s.92-1,1-1.65C78.4,23.22,74.08,18.88,68.35,18.87Zm-4.94,16c0,1,0,2,0,3,.06,2.35,1.27,3.57,3.6,3.66,4.48.17,6.45,0,6.1-5.79,0-.2,0-.4,0-.6,0-4.93,0-4.93-5-4.93C63.41,30.19,63.41,30.19,63.41,34.83Zm42.05,29.53c0-4.11-.08-4-2.92-5.56-1.9-1.06-2.36,1-3.58,1.19-3.48.45-3.51,2.81-3.21,5.44.08.66,0,1.35,0,2a3.18,3.18,0,0,0,3,3.16c5.36.64,6.63-.49,6.63-5.84ZM44,80.22c0,1.17,0,2.11,0,3a3.31,3.31,0,0,0,2.92,3.51c3.78.55,5.94-.2,6.62-2.31a2.4,2.4,0,0,0,.13-.59c0-1.94,0-3.89,0-5.84,0-.69-.27-1-1-.93a8.61,8.61,0,0,1-6.09-2.23c-1.12-.87-1.64-.34-2.15.62C43.67,77.08,44.12,78.79,44,80.22Zm49.06-1.56a11.4,11.4,0,0,0-5.33,8.42c-.38,3-.34,3,2.69,3h3.22c.54,0,.9-.1.81-.79C94,85.81,93.55,82.38,93.06,78.66ZM48.69,90.11c-1.07-.39-1.45.27-1.69,1.26-.13.56-.07,1.49-.63,1.61-2.91.64-.75,1.93-.37,2.86A23.74,23.74,0,0,0,47.75,99c.67,1.11,1.47,1.14,2.14.06,1-1.54,1.8-3.13,2.68-4.71.23-.41.57-1-.24-1-1.32,0-1.46-1-1.63-1.9C50.5,90.32,49.94,89.79,48.69,90.11Zm9.86,2c0-2,0-3.92,0-5.78,0-.4.29-1.08-.38-1.13s-1.34-.24-1.66.68a6.53,6.53,0,0,1-2.27,3c-.95.74-.78,1.25.36,1.64S57,91.46,58.55,92.08Zm-19.41.07a33.51,33.51,0,0,1,4.25-1.78c.77-.19.93-.87.31-1.35a8.06,8.06,0,0,1-2.64-3.44c-.24-.62-.94-.43-1.43-.44-.76,0-.47.68-.47,1.06C39.12,88.11,39.14,90,39.14,92.15ZM69.86,46.67c.15-1.15,0-2-1.68-2s-1.56.94-1.54,2c0,1.29-.13,2.83,1.69,2.78C70,49.47,69.9,48,69.86,46.67Zm30.72,27.18c-.62.15-1.72-.34-1.52.91.14.89.76,2.13,1.49,2.13.93,0,1.49-1.27,1.61-2.2C102.32,73.47,101.18,74,100.58,73.85ZM96.86,82.3c2-2.12,1.78-3.09-.59-4.71ZM105,77.11c-2.67,3.09-2.67,3.09-.81,5C104.86,80.61,104.63,79.09,105,77.11ZM60.08,33.44c-1,.3-1.56.79-1.48,1.71a1.36,1.36,0,0,0,1.48,1.36Zm16.4,3.22c2-1.38,2-2.13,0-3.09A8,8,0,0,0,76.48,36.66Zm15.91,29V62.62C90.41,63.8,90.41,64.52,92.39,65.7Zm16.46-3v3C110.82,64.46,110.8,63.73,108.85,62.67ZM40.7,78.79c-1.13.25-1.62.83-1.5,1.74a1.35,1.35,0,0,0,1.5,1.27ZM57,82c2-1.36,2-2.09,0-3.13Z"/></g></g></svg>