<svg id="Capa_1" data-name="Capa 1" xmlns="http://www.w3.org/2000/svg" viewBox="0 0 232 260"><defs><style>.cls-1{fill:#fdce75;}.cls-2{fill:#6c2910;}.cls-3{fill:#c88a5e;}</style></defs><circle class="cls-1" cx="113.59" cy="220.72" r="28.85"/><path class="cls-2" d="M120.3,225.53v3.54H106.47v-3l6.37-6.7a18.94,18.94,0,0,0,1.36-1.73,7,7,0,0,0,.75-1.4,3.19,3.19,0,0,0,.24-1.13,3.52,3.52,0,0,0-.25-1.43,1.88,1.88,0,0,0-.73-.88,2.24,2.24,0,0,0-1.19-.3,2,2,0,0,0-1.24.41A2.63,2.63,0,0,0,111,214a4.3,4.3,0,0,0-.29,1.6h-4.6a6.5,6.5,0,0,1,.89-3.34,6.63,6.63,0,0,1,2.49-2.41,7.25,7.25,0,0,1,3.68-.91,8.86,8.86,0,0,1,3.68.68,4.92,4.92,0,0,1,2.24,2,6,6,0,0,1,.75,3.09,6.28,6.28,0,0,1-.32,2,8.53,8.53,0,0,1-.94,1.89A17.86,17.86,0,0,1,117,220.5c-.59.65-1.25,1.35-2,2.08l-2.56,2.95Z"/><path class="cls-3" d="M95.3,117c-3.71,0-7.75.23-9.16-3C84,109.11,79,111.79,76.31,109c-2.46,1.34-5,2.21-7.89,1.61-.79-.16-.61.88-.64,1.43-.6,9.73,1.07,18.62,9.31,25.06a4,4,0,0,1,1.58,3.46c0,8.2,0,16.4,0,24.6,0,1.64-.24,3.29-2.26,3.37-2.24.09-2.53-1.62-2.53-3.4,0-7.38,0-14.76,0-22.14a4.92,4.92,0,0,0-1.68-4,27.58,27.58,0,0,1-9-20.8c0-6.45,0-12.91,0-19.36,0-5.48,3.27-8.64,8.68-8.28,1.63.11,2.27-.16,2.1-1.8-.06-.51,0-1,0-1.54-.47-4.08.32-6.74,5-8.51,6.5-2.46,8.25-9,9.41-15.22A51.72,51.72,0,0,0,89,54c0-3.49-1.39-4.89-4.82-4.94-6.05-.07-12.1,0-18.14,0-2,0-3.83.45-3.88,2.9C62.07,54.62,64,55,66.12,55q7.38,0,14.76,0c1.58,0,3.3.09,3.4,2.2.12,2.29-1.57,2.44-3.34,2.56A14.78,14.78,0,0,0,67,73.26c-.19,1.82-.42,3.83-2.81,3.51S62,74.36,62.21,72.59c.41-4,1.67-6.61,6-12.51-.93-.63-2-.29-2.92-.29-1.82,0-4.1-.26-4.75-1.64-2.14-4.56-6.67-4.31-10.28-5.92a1.66,1.66,0,0,0-1.92.12,7.52,7.52,0,0,1-5.57,1.24c-1.4-.19-1.71.38-1.79,1.67-.61,9.64,1,18.41,9.22,24.76A3.94,3.94,0,0,1,51.7,83.5q0,22.91,0,45.81c0,1.69-.23,3.33-2.22,3.36-2.21,0-2.41-1.78-2.41-3.52,0-14.15,0-28.29,0-42.43A6.31,6.31,0,0,0,45,81.63,27.9,27.9,0,0,1,36.3,61q-.06-9.69,0-19.37C36.36,35,42.08,31.5,48,34.52a2.63,2.63,0,0,0,3-.13,6.87,6.87,0,0,1,7.57,0,2.68,2.68,0,0,0,3.29-.08,6.88,6.88,0,0,1,7.56.15,2.48,2.48,0,0,0,3,.15c5.42-2.88,11,.23,11.48,6.39.16,2.25.83,2.85,3,3.79,3.27,1.44,5.77.53,8.65-.44a53,53,0,0,1,28.14-2c2.11.43,2.9.13,3.2-2.38,2.46-21.07,26.6-34.83,46-26.37l.55.26c1.45.69,3,1.46,2.05,3.42s-2.41,1.48-3.94.84a27.93,27.93,0,0,0-25.14,1.28,28.47,28.47,0,0,0-13.54,35.16c4.9,13.66,18.83,21.41,33.44,18.61C179.5,70.71,189.43,57.7,189,43.59a27.54,27.54,0,0,0-6.53-17.16c-1-1.26-2.47-2.63-.72-4.2s3.13-.12,4.31,1.22c15.25,17.27,6.59,46.82-15.78,53.44-2.89.86-3.67,1.49-2.68,4.72,10.12,33.06-12.68,67.62-47.08,71.48a59.9,59.9,0,0,1-12.27,0c-2.47-.23-2.7.59-2.62,2.57.12,3.17,0,6.35,0,9.53,0,1.75-.28,3.51-2.54,3.39-2-.1-2.24-1.73-2.24-3.39,0-8.19,0-16.39,0-24.59,0-1.9.62-3.06,2.56-3.58,5.34-1.44,8.27-5.4,10.21-10.25,2.17-5.45,2.3-11.18,2-16.94a3.6,3.6,0,0,0-3.81-3.65c-6.56-.14-13.12-.1-19.68,0-1.83,0-3.21,1-3.19,3s1.37,3,3.44,3c5.13,0,10.25,0,15.37,0,1.65,0,3.31.27,3.42,2.24.11,2.2-1.61,2.48-3.39,2.6A14.79,14.79,0,0,0,93.9,129.41c-.34,1.79.3,4.88-2.87,4.36s-1.89-3.43-1.71-5.36C89.67,124.83,91.32,122,95.3,117Zm18.91-70.74a48.48,48.48,0,0,0-19.59,3.37c-1.32.49-1.15,1.42-1.13,2.46.11,4.3.26,8.6-.6,12.85C91.43,72,89,78.78,82.22,82.37,79,84.05,78.46,86,78.68,89c.1,1.33.4,1.5,1.74,1.58,4,.24,8,2,12.12,0,1.24-.6,2.79.33,4,1.16a2.14,2.14,0,0,0,2.48.12c6.36-3,11.51.21,11.74,7.22,0,1.5.17,2.3,2,2.58,4.94.73,7.62,4.12,7.74,9.14a51.07,51.07,0,0,1-.63,10.41c-1.43,7.79-4.18,14.8-11.62,18.9-2.15,1.19-3.52,5.21-2.49,7.38.33.7.89.74,1.49.82A52.44,52.44,0,0,0,130,146.25c1.24-.38,2-.93,1.52-2.39-2.4-7.13-.77-14.2.5-21.22,1.7-9.4,7.68-11.73,15.42-6.09a10.89,10.89,0,0,0,6.26,2.14,28,28,0,0,1,5.19.32c1.53.35,2-.27,2.46-1.45a52.9,52.9,0,0,0,4-22.47c-.05-1.56-.63-2.17-2.2-2.16a59.57,59.57,0,0,0-9.8.45c-3.66.63-7.54,1.21-10.46-1.77-3.08-3.13-6.2-3-9.74-1.16a17.13,17.13,0,0,1-7.94,2.07c-4.58,0-7.25-2.7-7.23-7.25,0-3.31,1.47-6.11,3-8.89,2-3.62,1.64-5.37-1.82-7.73-1.77-1.21-3.71-2.17-5.46-3.41-4.3-3-5.51-7.24-3.63-12.14A36.92,36.92,0,0,1,114.21,46.24Zm45.53,41.85c5,0,5,0,3.57-4.88-.17-.59-.41-1.16-.53-1.76-.44-2.22-1.65-3-4-3.1-16.34-.87-28.88-12.09-32-28.39-.2-1,.12-2.38-1.57-2.5-2-.15-4.11-1.77-6,.29a24.28,24.28,0,0,0-4.5,6.54c-1.47,3.33-.94,5.3,2.06,7.38,1.93,1.34,4.06,2.39,5.92,3.81,4.62,3.55,5.43,7.88,2.56,12.94A19.64,19.64,0,0,0,122.76,84c-.63,3,.84,4.69,3.84,4a47.46,47.46,0,0,0,6.56-2.49c4.37-1.78,8.4-1.55,11.88,1.92,1.86,1.86,4,2.18,6.49,1.63A34.27,34.27,0,0,1,159.74,88.09ZM158,124c-.44-.25-.7-.53-.95-.52a21.65,21.65,0,0,1-14.78-4.7c-2-1.6-4.44-.29-5.21,2.29a29,29,0,0,0-.95,4.81c-.62,5.25-2,10.48-.4,15.81.39,1.31.61,2,2.19,1.21A51.37,51.37,0,0,0,158,124ZM57.79,43.68h0V41.84c0-2-.72-3.51-2.89-3.57s-3.16,1.53-3.22,3.61a32.31,32.31,0,0,0,0,4.29,3,3,0,0,0,6,0C57.86,45.32,57.79,44.49,57.79,43.68ZM78.7,100.49h0c0,.81,0,1.62,0,2.43,0,1.79.86,2.93,2.67,3.1a2.81,2.81,0,0,0,3.3-2.81,23.75,23.75,0,0,0-.11-5.46,2.65,2.65,0,0,0-3-2.38,2.73,2.73,0,0,0-2.78,2.68A19.83,19.83,0,0,0,78.7,100.49Zm-4.88.49h0c0-.71,0-1.42,0-2.13,0-1.91-.82-3.21-2.76-3.35s-3,1.21-3.22,3a21.21,21.21,0,0,0,.08,5.16A2.68,2.68,0,0,0,71,106a2.71,2.71,0,0,0,2.83-2.62C73.89,102.62,73.82,101.8,73.82,101ZM47.1,43.92H47a25,25,0,0,0,0-2.74,2.79,2.79,0,0,0-3-2.8,2.85,2.85,0,0,0-2.87,3C41,43,41,44.6,41.09,46.23A2.68,2.68,0,0,0,43.8,49,2.78,2.78,0,0,0,47,46.35C47.06,45.55,47.05,44.73,47.1,43.92Zm45.52,57.57c1.48.27,3,.28,2.79-2.46-.19-2.06-.74-3.79-3-3.79-2.73,0-3,2.08-3.15,4.29C89,102.17,90.76,101.55,92.62,101.49Zm10.4,0c1.64,0,3.51.53,3.23-2.21-.2-2-.65-3.77-3-3.87s-2.93,1.53-3.1,3.63C99.92,101.48,101.15,101.8,103,101.48ZM76.23,44.38c1.3-.2,3.38.84,3.14-2.09-.17-2.14-.65-4-3.14-4s-2.9,1.94-3.07,4.06C72.94,45,74.75,44.3,76.23,44.38Zm-10.93,0c1.35-.21,3.47.81,3.25-2.07-.16-2.06-.43-4.06-3-4.13s-2.89,1.9-3.06,4C62.29,44.51,63.54,44.65,65.3,44.37Z"/><path class="cls-3" d="M158.45,64.75c-6,0-11.11-4.25-12.36-11a13,13,0,0,1,8.42-14.38c3-1.18,3-1.58.71-3.7a6.31,6.31,0,0,1-.54-9,6.15,6.15,0,0,1,8.57-.15,6.31,6.31,0,0,1-.25,9c-.69.66-2.08,1-1.54,2.32s1.8.64,2.77.71c1.12.08,2.25,0,3.37.09a2,2,0,0,1,2.14,2.13,2.14,2.14,0,0,1-2.29,2.33c-1.63.07-3.27,0-4.91.05-.55,0-1,.18-1.11.81-.11.91.62,1.08,1.19.94,6.39-1.5,8.2,3.13,10.21,7.55.59,1.3,1.27,2.56,1.95,3.82a2.17,2.17,0,0,1-.39,2.79,1.92,1.92,0,0,1-2.77.24c-1.41-1.34-1.82-.11-2.5.7C166.54,63.14,163.29,64.8,158.45,64.75Zm8.84-11.84c0-2.08-1-3.11-3.13-3.19-1,0-2,0-3.07,0-3.84,0-4.18-.25-4.28-4.12-.05-2.09-.79-1.91-2.16-1.12a8.52,8.52,0,0,0,4.77,15.77C163.33,60,167.24,56.36,167.29,52.91Z"/><path class="cls-3" d="M51.68,154.38c0,3.77,0,7.55,0,11.33,0,1.65-.57,2.87-2.39,2.86s-2.18-1.31-2.19-2.75q0-11.32,0-22.67c0-1.56.46-2.93,2.39-2.83s2.22,1.45,2.21,3C51.67,147,51.68,150.7,51.68,154.38Z"/><path class="cls-3" d="M169.05,137.33a2.3,2.3,0,0,1-2.31,2.3,2.11,2.11,0,0,1-2.27-2.33,2.09,2.09,0,0,1,2.1-2.2A2.28,2.28,0,0,1,169.05,137.33Z"/><path class="cls-3" d="M128.37,162.25c-.14,1.41-.85,2.35-2.28,2.4a2.13,2.13,0,0,1-2.31-2,2.17,2.17,0,0,1,2.08-2.54C127.32,160,128.06,160.92,128.37,162.25Z"/><path class="cls-3" d="M110.73,33.69a2.23,2.23,0,0,1-2.29-2.33,2.28,2.28,0,0,1,4.55-.1C113.06,32.68,112.17,33.49,110.73,33.69Z"/><path class="cls-3" d="M144.3,153.85a2.16,2.16,0,0,1,2.45,2.25,2,2,0,0,1-2.06,2.19,2.23,2.23,0,1,1-.39-4.44Z"/><path class="cls-3" d="M93.85,35.08a2.21,2.21,0,0,1-2.48,2.13A2,2,0,0,1,89.29,35a2.16,2.16,0,0,1,2.3-2.3C93.08,32.74,93.7,33.72,93.85,35.08Z"/><path class="cls-3" d="M182,91.35c-.38,1.46-1.08,2.36-2.57,2.23a2.2,2.2,0,0,1,.24-4.4C181.2,89.21,181.72,90.21,182,91.35Z"/><path class="cls-3" d="M180.87,110.65a2.14,2.14,0,0,1-2.23,2.45,2.09,2.09,0,0,1-2.18-2.37,2.21,2.21,0,0,1,4.41-.08Z"/><path class="cls-3" d="M180.2,81.5c0,1.6-.78,2.42-2.2,2.46a2,2,0,0,1-2.23-2c-.09-1.41.51-2.4,2-2.51A2.17,2.17,0,0,1,180.2,81.5Z"/><path class="cls-3" d="M171.84,126.82a2.16,2.16,0,0,1,2.34,2.26,2,2,0,0,1-1.94,2.25,2,2,0,0,1-2.47-2A2.25,2.25,0,0,1,171.84,126.82Z"/><path class="cls-3" d="M160.29,142.36c1.35.28,2.23.94,2.17,2.45a2,2,0,0,1-2.09,2.15,2.1,2.1,0,0,1-2.31-2.24C158,143.2,159,142.61,160.29,142.36Z"/><path class="cls-3" d="M152.93,153.26a2.12,2.12,0,0,1-2.31-2.26,1.92,1.92,0,0,1,2-2.19c1.41-.09,2.35.5,2.42,2A2.14,2.14,0,0,1,152.93,153.26Z"/><path class="cls-3" d="M137.78,159.59c-.07,1.82-1,2.6-2.33,2.58a2,2,0,0,1-2.12-2.1,2.08,2.08,0,0,1,2.12-2.42A2.22,2.22,0,0,1,137.78,159.59Z"/><path class="cls-3" d="M122.76,31.72c-.21,1.33-.81,2.29-2.33,2.23a2.09,2.09,0,0,1-2.22-2.32,2,2,0,0,1,2.15-2.09C121.86,29.47,122.53,30.36,122.76,31.72Z"/><path class="cls-3" d="M103.3,32.68a2.2,2.2,0,0,1-2.64,1.94c-1.52-.2-2-1.24-1.81-2.61a2,2,0,0,1,2.37-1.77A2.2,2.2,0,0,1,103.3,32.68Z"/><path class="cls-3" d="M178.35,120.15c-.25,1.41-.91,2.33-2.38,2.32a2,2,0,0,1-2.17-2.34,2,2,0,0,1,2.12-2.1A2.23,2.23,0,0,1,178.35,120.15Z"/><path class="cls-3" d="M118.67,163.48a2.25,2.25,0,0,1-2.46,2.15,2,2,0,0,1-2.09-2.12,2,2,0,0,1,2.21-2.29C117.82,161.24,118.45,162.15,118.67,163.48Z"/><path class="cls-3" d="M182.07,101.48a2,2,0,0,1-2.37,1.9,2.07,2.07,0,0,1-2-2.5,2,2,0,0,1,2.22-1.95C181.34,99,182.14,99.75,182.07,101.48Z"/></svg>