<svg xmlns="http://www.w3.org/2000/svg" viewBox="0 0 241.72 214.56"><defs><style>.cls-1{fill:#c88a5e;}</style></defs><g id="Capa_2" data-name="Capa 2"><g id="Capa_1-2" data-name="Capa 1"><path class="cls-1" d="M84.93,20.79q17.46,0,34.92,0c1.41,0,2.83,0,4.23-.15,3.14-.3,5-2.26,5.08-5.22.1-3.21-1.77-5.46-5.12-5.61-5.34-.23-10.69-.16-16-.18-3.5,0-6.62-.89-6.48-5C101.66.77,104.72,0,108,0c4.88,0,9.75-.09,14.63,0C130.37.27,135.7,4,137.9,10.4s.17,12.49-6,17.42c-9.93,8-10.42,17.09-1.51,26,7,7,14.64,13.41,20.67,21.32,16.46,21.59,22.2,45.75,16.56,72.37-.85,4,.21,4.49,3.69,4.46,17.62-.12,35.23-.08,52.84,0,20.33,0,17.28-1.81,17.48,17.7a58.1,58.1,0,0,1-.35,9.88c-3.2,19.77-17.67,33.55-37.73,34.53-16.47.81-33,.28-49.52.1a35.12,35.12,0,0,1-21-7.41c-2.15-1.63-3.6-1.55-5,.58-4.09,6.28-10,7.37-17.09,7.21-19-.43-38.06-.23-57.09-.09a11.55,11.55,0,0,1-9.46-4.1C36.13,201.14,27,192.6,19.21,183-8.38,148.83-5.95,100.3,24.54,68.52,29.55,63.3,34.88,58.4,40,53.27c8.17-8.19,7.53-17.94-1.59-25.12C31.89,23,29.7,17.06,31.92,10.51,34.2,3.79,39.46.22,47.56.06c5-.1,10.07-.06,15.1,0,3.19,0,5.65,1.25,5.56,4.92-.08,3.4-2.46,4.53-5.43,4.58-5,.09-10.07,0-15.1.08-4.72.1-7.26,2.19-7,5.77.34,4.21,3.25,5.35,6.94,5.35Zm0,112.83c-23.72,0-47.44,0-71.16-.05-3.19,0-4.48.45-3.76,4.13.89,4.61,1.65,9.23,2.93,13.77,4.43,15.68,14.49,27.6,25.64,38.82,4.65,4.68,8.43,11.24,14,13.66s13,.74,19.54.85c1.88,0,3.77,0,5.65,0,12.1,0,24.2-.16,36.29.08,4.71.09,6.44-3.5,8.83-6.13,1.83-2-1.07-3.53-1.85-5.21a53.2,53.2,0,0,1-4.2-11.91c-1.41-7.19-.55-14.42-.71-21.62s.94-8,8.21-8c6.76,0,13.51,0,20.27,0,13.87,0,13.71,0,15.07-14,.37-3.72-.54-4.43-4.08-4.41C132.1,133.7,108.54,133.62,85,133.62Zm-.4-9.48c23.74,0,47.47,0,71.2.07,3.3,0,4.37-.78,3.95-4.21a88.15,88.15,0,0,0-5.61-21.31c-.93-2.37-2.3-2.86-4.61-2.85q-64.6.07-129.2,0c-2.72,0-3.92,1-4.8,3.36a103.17,103.17,0,0,0-5.39,20.41c-.66,4.1.59,4.65,4.2,4.63C37.73,124.08,61.15,124.14,84.57,124.14Zm62-37.9c-.16-2.11-1.44-3.15-2.35-4.36-5.32-7.07-12.17-12.68-18.19-19.08a8.14,8.14,0,0,0-6.63-2.63c-17.6.1-35.2,0-52.79.08-6.74,0-14.3-2.1-20,.76C40.5,64.1,36,70.56,30.92,75.68c-3,3.06-6,6.22-8,10.56Zm82,102.14H129.2c5.48,9.4,12.94,15.31,23.11,15.94a435.49,435.49,0,0,0,53.22,0C215.71,203.7,223.14,197.77,228.63,188.38ZM66.56,50.37h36.52c-6-5.92-11.27-11.15-16.5-16.48-1.37-1.39-2.24-1-3.44.18C77.94,39.27,72.66,44.38,66.56,50.37Zm99.17,111.48-.8,1c4.24,4.08,8.5,8.13,12.69,12.25,1.06,1,1.77.79,2.71-.12,4.24-4,8.52-8,12.79-12l-.89-1.15Zm.09,16.23.51-1.07c-4-3.92-8.06-7.86-12.12-11.75-.71-.69-1.4-2-2.65-.75-4.31,4.31-8.59,8.65-13.49,13.57Zm52.69,0,.82-1c-4.24-4.08-8.49-8.13-12.68-12.25-1.05-1-1.76-.82-2.71.1-4.19,4.09-8.42,8.13-12.64,12.19l.72,1ZM54.45,47.55,71.77,30.67H53A29.26,29.26,0,0,1,54.45,47.55ZM97.5,30.42l18.1,18c-1.16-5.07-1.4-10.45.57-15.72.6-1.62,0-2.3-1.68-2.29C108.94,30.43,103.39,30.42,97.5,30.42Zm42.59,131.17c-4.54,0-8.38,0-12.22,0-1.53,0-2.28.62-2.26,2.22,0,3.95,0,7.91,0,12.47Zm92.12,14.64c0-4.54,0-8.25,0-12,0-1.28,0-2.67-1.78-2.63-4.05.07-8.18-.6-12.31.46Z"/><path class="cls-1" d="M85,9.48c-2.83-.26-4.7-1.61-4.72-4.65A4.19,4.19,0,0,1,84.59.27c2.91-.19,4.85,1.42,5,4.33S87.94,9.1,85,9.48Z"/><path class="cls-1" d="M63.31,109.55c-.41,3-1.87,5-4.78,5.08a4.27,4.27,0,0,1-4.65-4.26c-.22-3,1.3-4.79,4.28-5S62.53,107.16,63.31,109.55Z"/><path class="cls-1" d="M85.1,105.26c2.86.41,4.67,2.06,4.48,4.95a4.4,4.4,0,0,1-5,4.41,4.32,4.32,0,0,1-4.25-4.68C80.36,106.92,82.15,105.49,85.1,105.26Z"/><path class="cls-1" d="M36.86,109.71c-.56,3-2,5-5,4.92s-4.59-1.88-4.48-4.9c.1-2.77,1.71-4.3,4.46-4.39C35,105.24,36.16,107.32,36.86,109.71Z"/><path class="cls-1" d="M111.57,105.26c2.86.42,4.62,2.06,4.47,5a4.64,4.64,0,0,1-9.27-.3C106.77,106.91,108.62,105.49,111.57,105.26Z"/><path class="cls-1" d="M142.62,110c-.46,2.84-2,4.75-4.92,4.63a4.37,4.37,0,0,1-4.49-4.93,4.23,4.23,0,0,1,4.55-4.34C140.78,105.32,142.2,107.16,142.62,110Z"/></g></g></svg>