<svg id="Capa_1" data-name="Capa 1" xmlns="http://www.w3.org/2000/svg" viewBox="0 0 232 260"><defs><style>.cls-1{fill:#fdce75;}.cls-2{fill:#6c2910;}.cls-3{fill:#c88a5e;}</style></defs><circle class="cls-1" cx="107.83" cy="218.66" r="28.85"/><path class="cls-2" d="M109.88,207.2V227H105.3V212.38l-4.52,1.32v-3.49l8.68-3Z"/><path class="cls-3" d="M151.65,64.34a6.94,6.94,0,0,0,.56-.77c1.19-2.07,3.27-3.73,4.08-5.76s-2.19-3.69-2.94-5.89A14.46,14.46,0,0,1,159.07,35a14,14,0,0,1,17.66,2,13.76,13.76,0,0,1,1.63,17.65c-1.45,2-2,3.33.18,5.17,1.28,1.11,2,2.85,3,4.31,6.93-4.56,10-15.72,6.79-24.74A23,23,0,0,0,156,26.71c-.64.34-1.25.74-1.88,1.08-1.42.77-2.62.57-3.42-.89s-.07-2.4,1.07-3.15a26.41,26.41,0,0,1,15.6-4.36c14.14.48,25.72,11.26,26.94,24.9a27.78,27.78,0,0,1-21.38,29.8c-.41.1-.8.23-1.21.3-1.71.29-4.09-.3-4.93,1-.63,1,.54,3.07.85,4.68,5.71,29.2-13.62,56.18-43.19,60.09a45.92,45.92,0,0,1-20.58-1.82c-2.26-.74-3.1-1-3,2.07.25,13.72-9.4,24.94-23.38,27.59-12.29,2.33-25.37-5.18-30.13-17.3-.26-.68-.51-1.36-.73-2-.5-1.54-.45-3,1.29-3.62s2.72.59,3.18,2.06A24.92,24.92,0,0,0,56,156c1.46,1.71,2.05,1.9,3.68-.25,2.48-3.28,3.36-5.51.77-9.57-3.59-5.62-1-13.33,4.56-17.28a14.17,14.17,0,0,1,18,1.45,13.68,13.68,0,0,1,1.87,17.85c-1.48,2.09-2.06,3.57.26,5.21a3.3,3.3,0,0,1,.57.74c3,4.12,3.11,4.11,6.15-.11A22.27,22.27,0,0,0,96,143.47c.52-4.63.41-8.69-5-11.27s-9.48-7.06-12.84-12a5.6,5.6,0,0,0-5.46-2.6,23.07,23.07,0,0,0-22,17.78,7.77,7.77,0,0,1-.81,2.3,2,2,0,0,1-2.77.63c-1.42-.74-1.44-2-1.13-3.48A27.68,27.68,0,0,1,71.37,113c.51,0,1-.09,1.89-.17-1.7-4.45-3.53-8.71-4.22-13.3-.19-1.23-.35-2.46-.42-3.69a2,2,0,0,1,2-2.32,2.09,2.09,0,0,1,2.48,1.79c.39,1.92.7,3.87,1.16,5.78,5,20.91,24.51,35.75,45.62,34.79,22-1,40.05-16.85,43.48-38.22a46.05,46.05,0,0,0-1.22-20.28,5,5,0,0,0-3.68-3.9C148.17,70.09,141.77,63,139.54,52.39a4.94,4.94,0,0,0-3.2-4,45.58,45.58,0,0,0-62.8,34.26c-.3,1.79.17,4.91-3,4.34S68.6,83.45,69,81.59c5.88-31.39,37.45-49.32,67.31-38.2,2.35.87,3.05.44,3.32-1.87A22.17,22.17,0,0,1,142.25,34c.85-1.63,1.92-3.37,4-2.17,2,1.11,1,2.79.19,4.34-4.81,9.46-3.25,20.13,3.95,27.2A14.81,14.81,0,0,0,151.65,64.34Zm14.93-26.78a9.41,9.41,0,0,0-9.39,9.53,9.48,9.48,0,0,0,18.95-.17A9.42,9.42,0,0,0,166.58,37.56ZM82.45,140.45a9.37,9.37,0,1,0-9.4,9.38A9.15,9.15,0,0,0,82.45,140.45ZM167.63,70.1a22,22,0,0,0,8.38-2c.56-.3,1.42-.32,1.34-1.39-.23-2.88-4.78-6.49-7.61-6a13.6,13.6,0,0,1-6.77-.2,2.87,2.87,0,0,0-3.28.89,19.71,19.71,0,0,0-3.21,4.18c-.74,1.24-.61,2,.85,2.54A26.06,26.06,0,0,0,167.63,70.1ZM73,163.6a22.75,22.75,0,0,0,9.33-1.92c.72-.37,1.52-.52,1.27-1.73a7.58,7.58,0,0,0-8.16-5.53,13.83,13.83,0,0,1-4,.13c-4.62-.53-6.31.37-8.44,4.43-.76,1.45-.59,2.16,1,2.8A23.48,23.48,0,0,0,73,163.6Z"/><path class="cls-3" d="M63.07,59.08c-15.62-1.23-25.58-11.4-25.48-25.53C37.69,20.94,48,10,60.44,9.17c14.67-1,24.77,8.41,27.22,25.42a69.31,69.31,0,0,1,20.43-7,63,63,0,0,1,26.46,1.24c1.74.45,3.79.8,3.21,3.25s-2.57,1.76-4.3,1.33a58.5,58.5,0,0,0-44.64,6,7,7,0,0,0-3.32,3.8A23.52,23.52,0,0,1,71.64,57.07a7.4,7.4,0,0,0-4,3.54,58.78,58.78,0,0,0-6.12,44.64,21.55,21.55,0,0,0,.58,2.09c.56,1.52.2,2.73-1.33,3.27-1.78.63-2.73-.44-3.19-2a62.37,62.37,0,0,1-2.53-14A63.6,63.6,0,0,1,63.07,59.08Zm12.76-10.3c8.43-6.73,9.1-20.27,1.39-28.46a20,20,0,0,0-29.75.24C40,28.83,40.72,42.24,49.14,48.83a10.19,10.19,0,0,1,1.7-2.56c2.53-2,2.07-3.8.45-6.38-3.14-5-1.82-11.59,2.54-15.53a12.71,12.71,0,0,1,16-.93c4.83,3.41,7.38,10.09,4.28,15-2.7,4.31-1.22,6.86,1.27,9.87C75.54,48.49,75.69,48.63,75.83,48.78ZM70.56,33.86a8,8,0,0,0-8.05-8,7.9,7.9,0,0,0-8.13,7.91A8.14,8.14,0,0,0,62.55,42,8.26,8.26,0,0,0,70.56,33.86Zm-8.14,20.3a21.4,21.4,0,0,0,7.81-1.49c1.49-.58,1.59-1.29.79-2.5-1.61-2.42-3-5-6.77-3.71a6.16,6.16,0,0,1-3.68,0c-3.22-1.14-4.69.84-6.25,3-1.23,1.71-1.34,2.77,1,3.5A26,26,0,0,0,62.42,54.16Z"/><path class="cls-3" d="M113.47,85.05c0,2.47.11,4.54,0,6.6s.8,2.47,2.57,2.44c4.35-.07,8.71,0,13.06,0,4.68,0,6.15,1.07,7.93,5.46,1.15,2.88,2.37,5.73,3.38,8.66.63,1.84,1.58,2.71,3.6,2.51,1.81-.18,3.56.4,3.47,2.56-.08,2-1.75,2.21-3.46,2.24-5.6.09-5.6.13-7.66-5-1.27-3.16-2.6-6.3-3.79-9.5a3.14,3.14,0,0,0-3.46-2.35c-4.66.12-9.33.06-14,0-4.19,0-6.26-2.06-6.43-6.26a25.94,25.94,0,0,1,0-4c.37-3-1-2.89-3.17-2-6.2,2.6-9.7,8.85-8.8,15.89a14.52,14.52,0,0,0,11.86,12c7,1,13.25-2.35,16-8.58.77-1.75.89-4.8,3.86-3.49,2.69,1.19,1.14,3.62.38,5.42A19.38,19.38,0,0,1,108,119.07a19.34,19.34,0,0,1-2.39-37.68c1.28-.38,3.13,0,3-2.29-.13-1.94.59-3.9-2.1-5.16a9.07,9.07,0,0,1-4.71-10.77A9.55,9.55,0,1,1,115.65,74c-2.84,1.64-2.78,2.18-.83,4.87,2.15,3,4.73,4.33,8.41,3.79a16.82,16.82,0,0,1,4.64.14A2.07,2.07,0,0,1,129.73,85a2.29,2.29,0,0,1-1.67,2.35C125.26,88.39,116.37,87.13,113.47,85.05Zm-2.37-14.5a4.87,4.87,0,1,0-4.89-4.69A5.1,5.1,0,0,0,111.1,70.55Z"/><path class="cls-3" d="M181.94,89.59c-.05,32.51-23.2,59.14-54.88,63.7a62.44,62.44,0,0,1-20.09-.47c-1.71-.31-3.16-1-2.73-3s1.94-2,3.68-1.67c33.57,5.53,63.76-16.32,68.82-49.85a53.35,53.35,0,0,0-.18-17c-.31-1.79-.41-3.53,1.85-3.84s2.62,1.45,2.87,3.2A50.1,50.1,0,0,1,181.94,89.59Z"/></svg>