<svg xmlns="http://www.w3.org/2000/svg" viewBox="0 0 142.02 142.02"><defs><style>.cls-1{fill:#6c2912;}.cls-2{fill:#fff;}.cls-3{fill:#c88a5e;stroke:#fff;stroke-miterlimit:10;stroke-width:0.5px;}</style></defs><g id="Capa_2" data-name="Capa 2"><g id="Capa_1-2" data-name="Capa 1"><circle class="cls-1" cx="71.01" cy="71.01" r="71.01"/><circle class="cls-2" cx="71.01" cy="71.01" r="60.69"/><path class="cls-3" d="M49.81,111.78c2.93,0,5.54,0,8.14,0,.79,0,1.07-.28,1-1.05,0-1.28,0-2.55,0-3.83a2.14,2.14,0,0,1,2.46-2.43c5.52,0,11.05,0,16.57,0,1.68,0,2.44.78,2.4,2.45,0,1.27,0,2.55,0,3.82,0,.63.09,1,.87,1,2.53,0,5.06,0,7.87,0a28.43,28.43,0,0,0-8-8.64c-1.44-1.1-3-2-4.53-3-.79-.52-1.51-1.1-1.29-2.18s1-1.41,2-1.58a29.3,29.3,0,0,1,10.48-.28c1.31.24,1.94,0,1.75-1.49a10.88,10.88,0,0,1,0-2.55,1.75,1.75,0,0,1,1.88-1.81,1.67,1.67,0,0,1,1.73,1.9q0,10.65,0,21.3c0,1.58-1,2-2.42,2-5.88,0-11.77,0-17.65,0H48.93c-2.82,0-3.17-.33-3.17-3.1,0-11.1,0-22.21,0-33.31,0-1.56-.39-1.94-1.94-1.78-6.53.67-12.67-.45-18.15-4.3a21.6,21.6,0,0,1-2-1.62,2,2,0,0,1-.24-3c3.26-4.36,7.76-6.42,13-7.13.42-.06.84-.08,1.35-.13-.08-.82-.78-1-1.25-1.43A29.41,29.41,0,0,1,25.55,41c-.44-2.75.32-3.57,3.08-3.34,6.27.51,11.63,3.15,16.83,7.26C44.74,43,44.18,41.49,43.59,40a45.38,45.38,0,0,1-2.41-9.86c-.36-2.57.51-3.41,3-2.88,6.55,1.39,11.2,5.49,15.09,10.65l1.35,1.79a28,28,0,0,1,4.5-13.3,26.46,26.46,0,0,1,2.12-2.72c1.76-2,2.71-2,4.46,0a26,26,0,0,1,6.15,12.57c.22,1.05.33,2.11.54,3.5A35.66,35.66,0,0,1,86,31.4a21.4,21.4,0,0,1,9-4.19c2.29-.45,3.2.35,2.9,2.68A47.86,47.86,0,0,1,94.1,43.31c-.17.38-.32.77-.61,1.5.74-.51,1.22-.8,1.66-1.13a29.42,29.42,0,0,1,15-6c3-.28,3.77.5,3.29,3.45a29.22,29.22,0,0,1-11,18.45l-1.49,1.28c1.88.38,3.59.62,5.24,1.1a17.34,17.34,0,0,1,9.19,6.16,2.17,2.17,0,0,1-.32,3.44,23.52,23.52,0,0,1-13.14,5.65,27.08,27.08,0,0,1-7.25,0c-1-.14-1.48,0-1.45,1.19a1.6,1.6,0,0,1-1.82,1.79c-1.29,0-1.78-.94-1.79-2.09,0-2.61-.08-5.22,0-7.83,0-1.21-.36-1.53-1.53-1.51-3.46.07-6.92,0-10.38,0a3.25,3.25,0,0,0-2,.68,10.1,10.1,0,0,1-12.33,0,3.5,3.5,0,0,0-2.18-.69c-3.4,0-6.8.06-10.19,0-1.13,0-1.58.23-1.57,1.49q.09,12.28,0,24.57c0,1.18.36,1.49,1.46,1.27a30.28,30.28,0,0,1,9.78.05c.36,0,.71.17,1.07.22A2,2,0,0,1,63.63,98c.17,1.09-.55,1.67-1.37,2.14a43.91,43.91,0,0,0-6.5,4.65A26.82,26.82,0,0,0,49.81,111.78ZM69.28,67.83a6.74,6.74,0,0,0,7-6.6A6.78,6.78,0,1,0,62.71,61,6.76,6.76,0,0,0,69.28,67.83Zm15-2.7h1.27c4.28,0,4.25,0,4-4.31,0-.88-.33-1.14-1.17-1.12a59.82,59.82,0,0,1-6,0c-1.82-.15-2.83.18-2.53,2.29a4.89,4.89,0,0,1-.4,2.13c-.31.88.06,1.05.83,1C81.66,65.11,83,65.13,84.32,65.13Zm-29.72,0c1.15,0,2.3-.09,3.44,0,1.45.14,1.79-.3,1.31-1.69a7.56,7.56,0,0,1-.3-2.69c0-.76-.11-1.09-.95-1.07-2.54,0-5.09,0-7.63,0-.48,0-1-.07-1,.66,0,1.51-.51,3.21.24,4.44.53.86,2.15.2,3.27.3C53.5,65.17,54.05,65.13,54.6,65.13Zm15,46.65c2,0,4-.07,6,0,1.62.08,1.16-1,1.15-1.82s.5-1.89-1.13-1.86c-3.88.08-7.76.09-11.64,0-1.48,0-1.35.82-1.3,1.74s-.42,2,1.27,1.94C65.83,111.7,67.71,111.78,69.59,111.78Zm39.67-43.9,0-.52c-4.69-2.94-9.84-3.1-15.15-2.38-1.18.16-.87,1.06-.93,1.81-.08.94.47,1.1,1.24,1.09h14.79Zm-79.68-.39a1.2,1.2,0,0,0,1.16.38c4.47,0,8.94,0,13.41,0,.75,0,1.59.21,1.63-1.07s-.2-1.86-1.48-1.93-2.29-.22-3.43-.23C36.91,64.62,33.06,65.1,29.58,67.49ZM64.49,38.61a30.31,30.31,0,0,0,1.37,11.47c.16.56.34,1,1.09.9s.71-.68.71-1.21a36.6,36.6,0,0,1,.06-5.24C68.14,41.76,66.67,40.18,64.49,38.61Zm-14.74,6.3a59.12,59.12,0,0,0,6.9,10.45,1.86,1.86,0,0,0,2.33.51c-1.86-2.87-3.75-5.61-5.44-8.46A4.71,4.71,0,0,0,49.75,44.91Zm39.52,0c-1.2.3-2.29.34-2.83,1.15-2.2,3.24-4.28,6.55-6.46,9.91,1.64.14,1.7.19,2.17-.37A56.82,56.82,0,0,0,89.27,44.86ZM71.4,41.5c1.19-1.37,3-2.11,2.94-3.37a16.51,16.51,0,0,0-2.94-8.58Zm35.91,30.09h-13c-.6,0-1.08.12-1,.9,0,.55.17.94.79,1C98.56,73.93,103,73.84,107.31,71.59Zm-75.64,0c4.28,2.25,8.76,2.35,13.3,1.9.61-.06.76-.45.78-1,0-.78-.44-.9-1-.9ZM88.1,55.94c4.21.36,8-3.79,7-7.46A41.11,41.11,0,0,0,88.1,55.94ZM43.76,48.37c-.36,3.5-.34,3.47,3.79,7.07,1,.89,2,.6,3.36.5A43.89,43.89,0,0,0,43.76,48.37Zm56,4.42c1.92-.12,3.6.62,4.56-.34a14.11,14.11,0,0,0,3.87-7.28ZM38.88,52.5,30.5,44.92a16.69,16.69,0,0,0,2.06,4.74C33.83,52.23,35.64,53.6,38.88,52.5ZM58,42.66c-.45,2.93-.26,5.34,1.59,7.42.67.76,1.08,1.74,1.68,2.56.27.36.34,1.2,1.14.78s.37-.89.18-1.41A47.53,47.53,0,0,0,58,42.66Zm22.86.14a47.81,47.81,0,0,0-4.55,9.36c-.18.51-.29.9.22,1.26s.68,0,.86-.3C79.27,50,82.32,47.27,80.87,42.8ZM49.43,105.93a50.79,50.79,0,0,1,7.06-6.51c-1.1,0-1.75,0-2.39,0-4.69.11-4.71.14-4.67,4.68Zm40.12-.09c0-2,0-3.48,0-5a.81.81,0,0,0-.69-.91,15.37,15.37,0,0,0-6.25-.35A46.18,46.18,0,0,1,89.55,105.84Zm3.83-45a26.48,26.48,0,0,0,6.74-4.17C95.33,55.89,93,57.32,93.38,60.82Zm-54.56-4.2a29.65,29.65,0,0,0,6.79,4.21C46,57.35,43.86,56,38.82,56.62ZM90.46,33c-5,2.62-6.35,4.76-5.33,8.23ZM48.54,33l5.51,8.45C54.42,37.11,53.3,35.38,48.54,33ZM74.22,44.14c-2.36,1.37-3.36,3.25-2.92,5.88.1.54.17.9.81,1a.77.77,0,0,0,.93-.64C73.5,48.33,74.36,46.38,74.22,44.14Zm25,4.24,6.52-5.91C100.83,43.45,98.92,45.12,99.17,48.38ZM33.54,42.7l6.19,5.59c.36-2.53.36-2.74-.55-3.31A13.92,13.92,0,0,0,33.54,42.7ZM67.59,29.64c-2.64,3.94-2.63,4.56,0,6.23Zm24.56,7.47L90,40.5C92.15,40,91.87,38.37,92.15,37.11Zm-45.6-.43c.66,3.26.7,3.31,2.26,3.49Z"/><path class="cls-3" d="M75.69,88c0,1.53-.11,2.82,0,4.07a4.7,4.7,0,0,1-1.87,4.44c-1,.85-1.9,1.87-2.85,2.81a1.89,1.89,0,0,1-3,0l-3.87-3.86a2.69,2.69,0,0,1-.82-2.12c0-1.69,0-3.39,0-5.15a16.7,16.7,0,0,1-3.33.45,6.53,6.53,0,0,1,.47-13,6.49,6.49,0,0,1,6.48,6.3c.09,3.21.16,6.44,0,9.64-.11,1.9,1.23,2.62,2.21,3.7.33.35.65.13.93-.14,1.12-1.09,2.2-2,2.06-4a87.8,87.8,0,0,1,0-9.46,6.43,6.43,0,0,1,6.14-6.07,6.52,6.52,0,0,1,2.54,12.67A6.92,6.92,0,0,1,75.69,88ZM60.41,84.94a2.84,2.84,0,1,0-2.92-2.82A2.89,2.89,0,0,0,60.41,84.94Zm18.2,0a2.84,2.84,0,1,0-2.91-2.82A2.89,2.89,0,0,0,78.61,84.94Z"/><path class="cls-3" d="M93.2,85.37A1.64,1.64,0,0,1,91.44,87a1.78,1.78,0,1,1,0-3.56A1.73,1.73,0,0,1,93.2,85.37Z"/><path class="cls-3" d="M73.86,61a4.37,4.37,0,1,1-8.74.05A4.37,4.37,0,0,1,73.86,61Z"/></g></g></svg>