<svg id="Capa_1" data-name="Capa 1" xmlns="http://www.w3.org/2000/svg" viewBox="0 0 232 260"><defs><style>.cls-1{fill:#fdce75;}.cls-2{fill:#6c2910;}.cls-3{fill:#c88a5e;}</style></defs><circle class="cls-1" cx="105.9" cy="219.48" r="28.85"/><path class="cls-2" d="M103,221.19V218.9h3a10,10,0,0,1,2.71.34,6.36,6.36,0,0,1,2.1,1,4.41,4.41,0,0,1,1.36,1.62,4.83,4.83,0,0,1,.48,2.19,5.27,5.27,0,0,1-.56,2.48,5.21,5.21,0,0,1-1.56,1.84,7.08,7.08,0,0,1-2.36,1.13,10.41,10.41,0,0,1-2.92.39,9.61,9.61,0,0,1-2.48-.33,7.28,7.28,0,0,1-2.26-1,5.08,5.08,0,0,1-2.26-4.41h4.6a2,2,0,0,0,.35,1.13,2.45,2.45,0,0,0,.93.81,2.73,2.73,0,0,0,1.27.3,2.88,2.88,0,0,0,1.43-.32,2.23,2.23,0,0,0,.91-.86,2.37,2.37,0,0,0,.31-1.21,3.36,3.36,0,0,0-.33-1.61,2,2,0,0,0-1-.87,3.86,3.86,0,0,0-1.52-.27Zm0-3.42h2.23a2.89,2.89,0,0,0,1.41-.3,2,2,0,0,0,.83-.87,3.13,3.13,0,0,0,.27-1.35,2.57,2.57,0,0,0-.25-1.1,2.06,2.06,0,0,0-.77-.81,2.87,2.87,0,0,0-2.38-.08,2.18,2.18,0,0,0-.85.63,1.52,1.52,0,0,0-.34,1h-4.6a4.57,4.57,0,0,1,.93-2.89,6,6,0,0,1,2.47-1.85,8.24,8.24,0,0,1,3.3-.65,9.62,9.62,0,0,1,3.7.65,5.43,5.43,0,0,1,2.48,1.9,5.22,5.22,0,0,1,.9,3.11,4,4,0,0,1-.48,1.92,5,5,0,0,1-1.34,1.58,6.71,6.71,0,0,1-2,1.07,8.1,8.1,0,0,1-2.51.38h-3Z"/><path class="cls-3" d="M84.13,140.49c0-10.18,0-20,0-29.77,0-1.61-.12-3.23,1.7-4,1.36-.61.8-1.81.81-2.76.05-6.63,0-13.27,0-19.9A15.48,15.48,0,0,1,98.43,68.71c2-.55,4.09-.94,6.12-1.47,2.56-.65,3.44-3.07,1.56-4.82a19.91,19.91,0,0,1-5.66-7.84c-.42-1.17-1.35-1.07-2.31-1.14-4.49-.34-7.35-2.4-8.53-6.25s.07-7.28,3.33-9.72a3.09,3.09,0,0,0,1.31-2.91q-.06-4.43,0-8.85a15.12,15.12,0,0,1,15.24-15.24c4.1,0,8.21,0,12.32,0a9.72,9.72,0,0,1,9.35,5.81A5.26,5.26,0,0,0,133.89,19a9.75,9.75,0,0,1,5.87,9.32c0,1.26,0,2.53,0,3.79-.11,2.54.06,4.64,2.52,6.53,2.77,2.12,3.26,5.54,2,8.92a8.21,8.21,0,0,1-7.56,5.76c-1.95.11-3,.56-3.72,2.48a12.27,12.27,0,0,1-4.28,5.76,3.76,3.76,0,0,0-1.51,4.13c.3,1.63,1.91,1.21,2.85,1.32,7.44.87,11.42,5.33,13.72,12.14,2.06,6.1,2.33,6,7.85,3,4.23-2.35,8.43-4.75,12.69-7,4.87-2.62,9.85-1.38,12.3,3A9,9,0,0,1,173,90.34q-11.37,6.47-23,12.53c-4.2,2.2-7.67,1.44-12.39-2.25-.65,1.32-.21,2.68-.36,3.94-.18,1.49.38,2.08,1.93,2,2.2-.1,4.43.09,6.63,0,3-.19,4.16,1,4.13,4-.12,9.9,0,19.8,0,29.93,1.28-.36,2.37-.61,3.42-1,1.33-.46,3.68.78,3.92-.79.41-2.7,1.23-5.84-.53-8.28-4.82-6.68-4.77-14.26-4.09-21.83.5-5.54,5.55-9.5,11.21-9.63,2.42,0,4.84,0,7.27,0a11.54,11.54,0,0,1,11.68,11.57c.22,7.23-.09,14.22-4.64,20.49-1.41,1.94-.38,4.93-.36,7.44,0,1.34,1.2.88,1.94.93,7.05.48,10.62,4.28,10.64,11.39,0,4.53-.1,9.06,0,13.59.06,2-.29,3-2.67,2.95s-2.51-1-2.47-2.82c.09-4.63.05-9.27,0-13.91,0-4.26-1.89-6.09-6.2-6.11q-11.53,0-23.07,0c-4.25,0-6.08,1.9-6.1,6.22,0,4.74-.12,9.48,0,14.22.08,2.13-.83,2.35-2.59,2.36s-2.58-.29-2.57-2.38c.08-16.65,0-33.29.12-49.93,0-2.83-.71-3.68-3.48-3.42s-6.25-.86-8.36.39-.48,5-.94,7.62c-.61,3.45-1.39,6.92-3.55,9.68-2.27,2.91-1.13,6-1.38,9.09-.11,1.3,1,1,1.82,1.07,7.4.59,10.76,4.2,10.77,11.56,0,4.64-.11,9.27.05,13.9.07,2.06-.69,2.47-2.54,2.42s-2.71-.14-2.63-2.33c.17-4.73.07-9.48.05-14.22,0-4.45-1.85-6.24-6.39-6.25q-11.22,0-22.44,0c-4.85,0-6.54,1.75-6.55,6.71,0,4.64-.14,9.28,0,13.91.1,2.41-1.29,2.06-2.77,2.16-1.71.12-2.44-.33-2.39-2.22.12-5.16,0-10.33.06-15.49a9.83,9.83,0,0,1,9.95-10.07c2.3,0,2.78-.75,2.73-2.88-.07-2.95-.22-5.64-2-8.31-2.84-4.23-3.45-9.21-3.08-14.24.15-1.94-.47-2.66-2.45-2.47-3.31.32-7.65-1.38-9.67.72-1.61,1.67-.52,6-.53,9.12,0,14.33,0,28.66,0,43,0,2.1-.37,2.91-2.71,2.92s-2.46-1.06-2.43-2.85c.08-4.53,0-9.06,0-13.59s-1.81-6.39-6.56-6.4q-11.22,0-22.43,0c-4.54,0-6.36,1.8-6.38,6.25,0,4.74-.13,9.49,0,14.22.08,2.19-.92,2.29-2.63,2.33s-2.6-.37-2.54-2.42c.16-5.05,0-10.11.07-15.16.06-5.92,4.13-10.15,10.12-10.22,2.2,0,2.57-.8,2.55-2.73,0-3.06-.25-5.81-2.07-8.61-3.93-6.09-3.56-13.14-2.73-19.92.68-5.5,5.59-9.15,11.19-9.26,2.63,0,5.27-.09,7.9,0a11.43,11.43,0,0,1,10.92,10.68c.33,7.41.24,14.68-4.47,21.16-1.53,2.1-.42,5.12-.48,7.72,0,.89.77.9,1.38.84C80.05,139.19,81.93,139.87,84.13,140.49Zm45.51-96.21a27.11,27.11,0,0,1,0-4.45c.68-3.67-2.34-5.06-4.2-7.18-.46-.52-.93-.34-1.32.05-5.06,5-11.34,6-18.06,5.58-1.45-.1-1.77.59-1.74,1.87.06,3.05-.11,6.11.08,9.14a12.58,12.58,0,0,0,24.69,2.46C129.9,49.15,129.47,46.53,129.64,44.28Zm2.52,61.81v-5.63c0-2,0-4,0-6a2.76,2.76,0,0,1,1.54-2.85,2.55,2.55,0,0,1,3.11.8c1.25,1.27,2.52,2.53,3.79,3.79,3.32,3.28,4.69,3.47,8.88,1.21,3.42-1.84,6.82-3.71,10.23-5.57,3.73-2,3.73-2,1.51-5.84a2.34,2.34,0,0,1-.15-.27c-.74-1.83-1.71-2.25-3.56-1.09-3.1,1.95-6.38,3.63-9.6,5.4-3.86,2.13-4.6,1.86-6.25-2.22-1.5-3.69-2.82-7.47-4.54-11s-3.22-3.77-6-1l-4,4c-.82.82-1.64,1.76-3,1.42-2.06-.55-2,.76-1.93,2.09.39,4.61.8,9.21,1.26,13.81.1,1,0,2.13,1.29,2.62C128,100.93,130,103.39,132.16,106.09ZM134,34.21l.68-.39c0-1.46,0-2.93,0-4.39,0-4-1.07-5.42-5.05-6.29-1.74-.38-2.35-1.34-2.6-3-.46-3-2.37-4.57-5.43-4.59-4.1,0-8.2-.09-12.29,0a9.94,9.94,0,0,0-9.89,8.83c-.3,3.16-.06,6.38-.06,9.7,3.28-1.52,6.47-.84,9.56-.82,5.39,0,9.86-1.66,13.16-6.05,1.58-2.09,3.2-2,5-.19C129.34,29.45,131.68,31.82,134,34.21ZM76.54,115c0-1.65,0-2.81,0-4-.13-4.24-2.68-6.83-6.9-6.95-2.31-.07-4.62-.11-6.93,0-3.18.18-5.68,1.89-6.07,5-.73,5.83-.92,11.75,2.27,17.14a5.76,5.76,0,0,0,5.12,3.1c1.58,0,3.15,0,4.73,0A5.79,5.79,0,0,0,74.06,126,19.58,19.58,0,0,0,76.54,115Zm50.57.07c0-1.56,0-2.61,0-3.67-.07-4.12-2.26-6.82-5.9-7.3-8.25-1.08-12.6.36-14,4.61a1.76,1.76,0,0,0-.1.3c-.41,5.88-.83,11.76,2.33,17.16a5.87,5.87,0,0,0,5.41,3.16c1.36,0,2.73,0,4.09,0,2.85.06,4.72-1.33,6-3.81A20.05,20.05,0,0,0,127.11,115Zm50.56-.18c0-1.29,0-2,0-2.76,0-5.7-2.35-8-8-8.07-1.89,0-3.78-.07-5.67,0a6.5,6.5,0,0,0-6.48,6.38,66.82,66.82,0,0,0,0,7.88c.6,8.34,3.76,11.16,11.89,11a6.36,6.36,0,0,0,6-3.75A20.1,20.1,0,0,0,177.67,114.85Zm-75.83-8.78c2.18-2.77,4.35-5.21,7.62-6.48,1.11-.44,1-1.57,1-2.46.46-4.6.85-9.21,1.28-13.81.09-.88-.06-2.3-.69-2.17-4.09.78-5.33-2.81-7.5-4.76-3.58-3.22-5.44-3.34-8.85.15a10,10,0,0,0-3,7.07c0,7,.06,13.89-.06,20.83,0,2,.93,2.12,2.48,2.13s2.75,0,2.66-2.27c-.18-4.31.07-8.63-.1-12.94-.09-2.17.72-2.58,2.69-2.59s2.52.54,2.47,2.49C101.75,96.19,101.84,101.13,101.84,106.07ZM66.58,134.36a16.8,16.8,0,0,1-2.84,0c-2.09-.36-2.38.63-2.42,2.45,0,2,.47,2.89,2.61,2.66a22.66,22.66,0,0,1,4.73,0c2.09.2,2.93-.35,2.92-2.69s-.92-2.65-2.8-2.41A16.14,16.14,0,0,1,66.58,134.36Zm50.35,5a19.24,19.24,0,0,1,2.52,0c2,.27,2.67-.49,2.68-2.58s-.67-2.75-2.7-2.52a25.77,25.77,0,0,1-4.73,0c-1.78-.13-2.87,0-2.84,2.36s.7,3,2.86,2.72A16.3,16.3,0,0,1,116.93,139.4Zm50.59,0a19.25,19.25,0,0,1,2.52,0c2.07.29,2.72-.54,2.64-2.6-.07-1.76-.24-2.78-2.39-2.5a25,25,0,0,1-5,0c-1.82-.13-2.84,0-2.83,2.39s.75,3,2.89,2.7A16.27,16.27,0,0,1,167.52,139.4ZM172.59,82c-.3-1.83-1.42-3.34-3.66-3.14a5,5,0,0,0-4.33,2.54c-.4.83,3.2,5.62,3.93,5.56C170.39,86.79,172.62,84.24,172.59,82ZM99.51,44.62c-1-1.14,1.23-3.41-1.51-3.75-1.93-.24-3.87,1.86-3.7,3.87.2,2.18,1.53,3.65,3.67,3.55C100.75,48.16,98.5,45.74,99.51,44.62Zm36.7-3.8c-.64.07-1.43-.16-1.45.79q-.07,3,0,6c0,.94.83.81,1.41.73,2.16-.3,3.51-1.55,3.51-3.74S138.28,41.21,136.21,40.82Zm-18.81,45h-.8q-.48,5.73-.95,11.45c-.07.91,0,1.63,1.21,1.67s1.59-.55,1.49-1.71C118,93.44,117.71,89.63,117.4,85.83Zm-6.11-20.38c4.18,3.58,8.68,3.42,10.7.07A24.62,24.62,0,0,1,111.29,65.45Zm16.4,6.78c-2-1.15-3.82-1.25-5.14,0-.88.8.59,1.65,1.2,2C126.09,75.67,126.08,72.79,127.69,72.23Zm-20.91.23c1.38.34,1.2,3.08,3.3,1.91.7-.38,2.1-1.34,1.47-2.05C110.34,71,108.55,71.19,106.78,72.46ZM117,75c-.77.62-1.83,1.06-1.88,2.21,0,.89.58,1.48,1.59,1.55s2-.19,2.15-1.29S117.94,75.72,117,75Z"/><path class="cls-3" d="M172.94,23.1c4.84,0,9.68,0,14.52,0s7.87,3.14,7.91,7.92q.07,9.78,0,19.57c-.05,4.75-3.17,7.79-8,7.9a1.71,1.71,0,0,1-.32,0c-10-1.85-17.92,1.82-24.53,9.13a30,30,0,0,1-3.39,2.82,2.39,2.39,0,0,1-2.91.34,2.6,2.6,0,0,1-1.29-3c.45-2.37.8-4.77,1.46-7.09.43-1.53.18-2.17-1.39-2.71-3.61-1.25-5.22-4-5.2-7.76,0-6.31,0-12.62,0-18.94,0-5.17,3.06-8.19,8.25-8.23C163.06,23.08,168,23.1,172.94,23.1ZM162,61.42a49.89,49.89,0,0,0,4.91-4.08,12,12,0,0,1,10.69-4c3,.32,6.09,0,9.14.08,2.57,0,3.59-1.15,3.56-3.66-.06-6-.07-12,0-18,0-2.76-1.26-3.69-3.87-3.67q-13.89.09-27.77,0c-2.68,0-3.83,1.05-3.79,3.75.08,5.68,0,11.36,0,17,0,3.93.36,4.28,4.25,4.5,2.83.17,3.68,1.25,3.12,4.1C162.06,58.73,161.57,59.89,162,61.42Z"/><path class="cls-3" d="M61.36,10.46c4.84,0,9.68,0,14.52,0,5.18,0,8.22,3.06,8.25,8.23,0,6.31,0,12.62,0,18.93,0,3.79-1.59,6.51-5.19,7.76-1.57.55-1.84,1.19-1.39,2.72.61,2.11.9,4.31,1.35,6.46.3,1.44.24,2.76-1.19,3.59s-2.38.13-3.4-.74c-3.79-3.17-7.64-6.27-11.37-9.51a7.43,7.43,0,0,0-5.65-2.09c-3.57.2-7.15.09-10.73,0-4.79-.07-7.9-3.13-7.95-7.89q-.09-9.78,0-19.56c0-4.78,3.13-7.88,7.9-7.93C51.48,10.42,56.42,10.46,61.36,10.46Zm10.82,38c-.09-1-.09-1.87-.24-2.68-.79-4.19-.44-4.73,3.86-4.94,2.22-.1,3.28-1.07,3.27-3.29,0-6.21,0-12.41,0-18.61,0-2.39-1.12-3.41-3.48-3.4q-14.19,0-28.38,0c-2.56,0-3.58,1.16-3.55,3.66.06,5.25,0,10.51,0,15.76,0,5.87,0,6.26,5.71,5.78,8.45-.72,16,.4,21.73,7.4C71.23,48.24,71.5,48.24,72.18,48.44Z"/><path class="cls-3" d="M162.6,43.39c2.37-.58,2.37.84,2.51,2.63.19,2.42-1.11,2.32-2.84,2.44-2.14.14-2.29-.86-2.36-2.6C159.84,43.76,160.51,42.92,162.6,43.39Z"/><path class="cls-3" d="M175.1,46c.61,2.48-1,2.27-2.71,2.41-2.13.17-2.28-.84-2.37-2.58-.09-2.13.68-2.57,2.68-2.62C174.91,43.21,175.51,44.05,175.1,46Z"/><path class="cls-3" d="M182.38,48.35c-2.69.63-2-1.35-2.21-2.85-.33-2.7,1.53-2,3-2.2,2.45-.31,1.94,1.34,2.12,2.77C185.62,48.54,184.18,48.59,182.38,48.35Z"/><path class="cls-3" d="M51.13,30.79c2.44-.58,2.64.64,2.74,2.54.13,2.32-1,2.41-2.79,2.49-2.06.1-2.44-.72-2.4-2.55S48.86,30,51.13,30.79Z"/><path class="cls-3" d="M61.23,35.7c-2.44.6-2.32-1-2.44-2.68-.15-2.1.77-2.34,2.56-2.4,2.08-.07,2.61.61,2.64,2.65S63.25,36.13,61.23,35.7Z"/><path class="cls-3" d="M71.6,35.7c-2.08.45-2.71-.35-2.72-2.46s.65-2.65,2.68-2.62c1.84,0,2.64.39,2.52,2.43C74,34.84,74,36.28,71.6,35.7Z"/></svg>