<svg xmlns="http://www.w3.org/2000/svg" viewBox="0 0 142.02 142.02"><defs><style>.cls-1{fill:#6c2912;}.cls-2{fill:#fff;}.cls-3{fill:#c88a5e;stroke:#c88a5e;stroke-miterlimit:10;}</style></defs><g id="Capa_2" data-name="Capa 2"><g id="Capa_1-2" data-name="Capa 1"><circle class="cls-1" cx="71.01" cy="71.01" r="71.01"/><circle class="cls-2" cx="71.01" cy="71.01" r="60.69"/><path class="cls-3" d="M83,117.8c1.7-.6,3.34-1.2,5-1.76a1.62,1.62,0,0,0,1.19-1.36c.24-1.14.62-2.25.94-3.38.72-2.52,1.63-3.41,4.28-3.22,2.23.17,3.18-.81,3.79-2.69a19.12,19.12,0,0,1,3.11-5.82,6.25,6.25,0,0,0,1.18-5.5c-.71-3.06-1.12-6.15-.12-9.24.67-2.11,1.1-2.4,3.17-1.66.74.26.91-.07,1.17-.53a16.7,16.7,0,0,1,6.24-6.3,4,4,0,0,0,1.92-3.44,27.13,27.13,0,0,0-.3-5.25c-.08-.55-.2-1.15-.7-1.32-1.92-.66-.89-1.59-.32-2.52.89-1.44,1.69-.29,2.39.16a3.74,3.74,0,0,1,1.25,1.45,11.51,11.51,0,0,1-3.68,14.32,12.77,12.77,0,0,0-4.56,5.47c-.78,1.7-1.63,3-3.66,1.41-.76,2.52-.14,4.82.33,7.09a8.9,8.9,0,0,1-1.65,7.55,21.48,21.48,0,0,0-3,5.65c-1,2.83-2.72,4.74-6.08,4.25A1.44,1.44,0,0,0,93,112.63c-.36,4.63-3,7-7.47,7.54a9.42,9.42,0,0,0-1.67.51c-3.32,1.06-3.73.78-4.11-2.75-.06-.51-.11-1-.14-1.55-.07-1-.52-1.54-1.63-1.28-4.8,1.12-8.84-.34-12.33-3.66a4.55,4.55,0,0,0-2.44-1.07c-2.42-.47-3.92-1.8-3.78-4.23.23-3.73-1.37-5.86-4.44-7.69-2.86-1.7-3.06-3.23-1.82-6.25A.85.85,0,0,0,53,91c-2.36-2.26-4.29-5-8-5.53a5.6,5.6,0,0,1-3.69-2.7c-.56-.84-1-1.07-2-.49a8.9,8.9,0,0,1-11.89-3.09A2.74,2.74,0,0,0,25.38,78a11.75,11.75,0,0,1-6.49-3.68c-1-1.24-1.2-2.4.18-3.52a5.34,5.34,0,0,0,1.82-3.31c.6-3,1.91-4.09,5-4.51,1.77-.24,1.77-.24,3.15-3.19.1,0,.24.07.3.15,2.69,4,2,5.58-2.83,6.1a2.6,2.6,0,0,0-2.67,2.66A4.34,4.34,0,0,1,22.34,72c-.73.55-.56,1,.18,1.46a13,13,0,0,0,5.28,1.85,2.23,2.23,0,0,1,2.12,1.66c.95,2.83,5.16,4.26,7.76,2.74,2.91-1.69,4.12-1.49,6.07,1.15a5.44,5.44,0,0,0,3.4,2.09,10.32,10.32,0,0,1,6,3.75,38.64,38.64,0,0,0,3.46,3.43c1.09,1,1.32,2.1,0,3.09s-1.15,1.74,0,2.6a12.78,12.78,0,0,0,2.21,1.58c2.82,1.19,3.66,3.37,3.63,6.25,0,3.17.06,3.2,3,3.94A6.11,6.11,0,0,1,68,109.3,10.21,10.21,0,0,0,77.48,112c3.51-.74,4.58.16,5.18,3.73C82.77,116.39,82.87,117,83,117.8Z"/><path class="cls-3" d="M85.12,77.57A11.54,11.54,0,0,1,95.85,93.94,24.46,24.46,0,0,1,94,97.35c-2.49,3.81-4.94,7.63-7.1,11.64-1,1.81-2.32,2-3.18.32-2.53-4.85-5.8-9.24-8.47-14-2.95-5.27-2.16-10.77,1.93-14.61A11.34,11.34,0,0,1,85.12,77.57Zm0,27.77C87.59,101.51,89.85,98,92,94.49c1.25-2,2.15-4.19,1.64-6.65A8.28,8.28,0,0,0,87.25,81a8,8,0,0,0-8.58,2.77,7.65,7.65,0,0,0-1,9.25C80,97.15,82.56,101.1,85.17,105.34Z"/><path class="cls-3" d="M101.69,43.22A11.57,11.57,0,0,1,112.48,59,22.55,22.55,0,0,1,110.39,63c-2.46,3.82-4.92,7.63-7.08,11.63-1.07,2-2.32,2-3.38,0-2.3-4.3-5-8.34-7.6-12.45-1.92-3-3-6.27-2.12-10A11.68,11.68,0,0,1,101.69,43.22Zm-.08,27.92c2.5-4.64,5.64-8.4,7.73-12.79a8.14,8.14,0,0,0-2.43-10.14,8.47,8.47,0,0,0-10.48-.1A8.11,8.11,0,0,0,93.82,58.2C95.89,62.67,99.11,66.46,101.61,71.14Z"/><path class="cls-3" d="M61.63,53.36c9.38,0,14.92,8.46,11.66,16.2a37.81,37.81,0,0,1-3.65,6.19c-2,3-3.75,6.07-5.49,9.18-.93,1.66-2.26,1.77-3.09.18-2.52-4.84-5.75-9.25-8.46-14-2.52-4.39-2.49-8.8.51-13A11.08,11.08,0,0,1,61.63,53.36Zm.88,27.77c1.73-2.72,3.28-5.18,4.85-7.63a31.4,31.4,0,0,0,3.18-5.58A7.81,7.81,0,0,0,69,59.41a8,8,0,0,0-8.47-2.6c-5.41,1.42-8.11,6.93-5.5,11.92C57.17,72.92,59.87,76.83,62.51,81.13Z"/><path class="cls-3" d="M36.71,32.27a11.55,11.55,0,0,1,10.71,16.4c-1.31,3-3.38,5.53-5.05,8.31-1.33,2.23-2.6,4.5-3.91,6.74-1.09,1.85-2.3,1.93-3.28.09-2.43-4.53-5.39-8.73-8-13.13-3.31-5.58-2.71-11.14,1.45-15.16A11.36,11.36,0,0,1,36.71,32.27Zm0,27.81c.88-1.44,1.58-2.6,2.3-3.74s1.57-2.38,2.32-3.6A36,36,0,0,0,44.68,47a8.39,8.39,0,0,0-2.86-10,8.77,8.77,0,0,0-10.66.44A8.2,8.2,0,0,0,29.11,47.5C31.39,51.71,34.07,55.7,36.76,60.08Z"/><path class="cls-3" d="M75.57,44.24c-2.23,3.44-5.24,4.16-8.76,3.4-.31-.07-.67-.15-.76.3-.36,1.83-1.9,1.68-3.2,1.92-1.15.21-2.33.31-3.46.61a4,4,0,0,1-4.85-1.69c-1-1.38-1.43-2.54-.6-4.07a11.94,11.94,0,0,0,.71-1.81c.16-.48.38-1-.19-1.4s-.83.1-1.24.18c-.58.1-1.28,1.29-1.68.19-.33-.95-1.33-2.21.43-3.14,2.15-1.12,5.35-.24,6.34,1.94.38.82,0,1.51-.31,2.23s-.64,1.7-.94,2.55c-.12.35-.38.67-.14,1.1,1.07,1.89,2.57.36,3.85.45.74,0,1.62,0,1.44-1.42-.22-1.75.66-2.31,2.4-1.84a30.34,30.34,0,0,0,3.57.95c1.65.23,3.31.12,4.21-1.63.8-1.55,2-2.5,3.75-2.12s2.61,1.92,2.73,3.62c.09,1.33.22,2.21,1.75,2.71S81.69,49,81,50c-.54.84-1.27,1.58-.21,2.71s1.9.8,3,.31a2.32,2.32,0,0,1,.9-.34c.76,0,1.92-1.11,2.14-.07s.65,2.5-1.25,3.16c-4.34,1.54-6.39.93-8.5-3a2.25,2.25,0,0,1-.39-1.07c.06-1.18,1.35-2.32-.33-3.52C75.23,47.44,76,45.77,75.57,44.24Z"/><path class="cls-3" d="M85.11,83.83a5.47,5.47,0,1,1-5.37,5.52A5.5,5.5,0,0,1,85.11,83.83Zm2.44,5.37c-.26-1.38-1-2.28-2.48-2.19a2.29,2.29,0,0,0,.17,4.58C86.69,91.57,87.41,90.62,87.55,89.2Z"/><path class="cls-3" d="M101.5,49.46A5.47,5.47,0,1,1,96.14,55,5.49,5.49,0,0,1,101.5,49.46Zm.08,7.82c1.4-.18,2.33-.91,2.33-2.37a2.3,2.3,0,0,0-4.59,0C99.26,56.31,100.18,57.06,101.58,57.28Z"/><path class="cls-3" d="M62.53,59.62a5.47,5.47,0,1,1-5.44,5.44A5.48,5.48,0,0,1,62.53,59.62ZM64.9,65c-.26-1.38-1-2.3-2.48-2.19a2.29,2.29,0,0,0,.18,4.58C64.05,67.34,64.76,66.41,64.9,65Z"/><path class="cls-3" d="M36.8,49.47A5.47,5.47,0,1,1,42.25,44,5.49,5.49,0,0,1,36.8,49.47Zm2.33-5.39c-.15-1.41-.87-2.35-2.32-2.38a2.3,2.3,0,0,0-.15,4.59C38.11,46.38,38.87,45.46,39.13,44.08Z"/></g></g></svg>