<svg id="Capa_1" data-name="Capa 1" xmlns="http://www.w3.org/2000/svg" viewBox="0 0 232 260"><defs><style>.cls-1{fill:#fdce75;}.cls-2{fill:#6c2910;}.cls-3{fill:#c88a5e;}</style></defs><circle class="cls-1" cx="109.07" cy="221.36" r="28.85"/><path class="cls-2" d="M105.87,221.68l-3.65-.86,1.2-10.13H115v3.57h-7.84l-.45,3.93a7,7,0,0,1,1.11-.45,5.29,5.29,0,0,1,1.74-.27,7.23,7.23,0,0,1,2.6.44,5.19,5.19,0,0,1,1.93,1.3,5.55,5.55,0,0,1,1.19,2.09,9.08,9.08,0,0,1,.4,2.83,7.66,7.66,0,0,1-.41,2.47,6.25,6.25,0,0,1-1.27,2.13,6.07,6.07,0,0,1-2.14,1.5,7.79,7.79,0,0,1-3.07.55,8,8,0,0,1-2.57-.41A7.53,7.53,0,0,1,104,229.2a5.78,5.78,0,0,1-1.58-1.87,5,5,0,0,1-.56-2.45h4.61a2.89,2.89,0,0,0,.34,1.25,2.13,2.13,0,0,0,.81.82,2.27,2.27,0,0,0,1.18.29,2.17,2.17,0,0,0,1.13-.27,1.88,1.88,0,0,0,.7-.75,3.26,3.26,0,0,0,.37-1.09,7.83,7.83,0,0,0,.11-1.32,4.87,4.87,0,0,0-.16-1.32,2.67,2.67,0,0,0-.49-1,2.28,2.28,0,0,0-.88-.63,3.55,3.55,0,0,0-1.29-.22,3.11,3.11,0,0,0-1.56.34A2.74,2.74,0,0,0,105.87,221.68Z"/><path class="cls-3" d="M39.71,80.41C34.89,82,26.3,76.93,25.23,71.77c-.58-2.75,1.32-4.36,3-6.09,1.19-1.25,2.85-2.08,1.75-4.58s-2.74-2-4.53-2.06c-6-.09-7.14-1.26-7.21-7.22,0-1.18,0-2.37,0-3.56.08-5.71,1.31-6.93,7-7,1.17,0,2.77.27,3.42-.36,1.63-1.58,2.59-3.35.31-5.64-5.36-5.36-5.23-6.4.19-11.83.84-.84,1.66-1.7,2.53-2.51,3-2.77,5.27-2.77,8.23,0a22.19,22.19,0,0,1,1.67,1.69c1,1.19,2.06,1.77,3.78,1s2-1.62,2.13-3.27c.4-8.11.7-8.35,8.81-8.36,1.19,0,2.38,0,3.57,0,3.9.13,5.44,1.67,5.57,5.56a21,21,0,0,1,0,2.38c-.13,1.7.17,2.87,2.09,3.65s2.89-.13,4.07-1.26c4.62-4.43,4.67-4.46,9.94-1.19,1.23.76,2.19.4,3.34,0,23.6-7.94,45.47-4.57,65.46,10.31,2,1.46,2.51.69,3.42-.92,2.64-4.71,5.34-9.4,8.12-14,3.74-6.26,10.05-6.3,13.7,0q16.1,27.71,32,55.5c3.79,6.61.48,12.13-7.23,12.18-6.74,0-13.48.12-20.21,0-2.46-.06-3,.74-3.12,3.12-1.2,24.17-11.71,43.13-32,56.52-1.23.81-2.33,1.57-2.64,3.22-2.33,12.43-10.83,18.52-22.33,21.16-16.87,3.88-31.23-2.9-39.48-18.45a5.4,5.4,0,0,0-2.54-2.29c-26.3-14.24-39.17-36.24-38.2-66.22A3.49,3.49,0,0,0,39.71,80.41ZM143.29,139.3c18.59-13.21,28-30.56,29-52.54.13-2.67-1.36-2.6-3.21-2.6q-15.65.06-31.29,0c-8.89,0-12-5.22-7.61-12.84,5.84-10.18,11.6-20.4,17.67-30.44,1.73-2.87,1.61-4.44-1.2-6.36a72.2,72.2,0,0,0-15.95-8.64,62.66,62.66,0,0,0-41.11-1.18c-1.12.35-3.32,0-2.33,2.46,1.17,2.91,0,5-2.11,7C83.88,35.43,81.94,36.34,83,39s3.19,2.19,5.19,2.23c5.16.1,6.55,1.46,6.59,6.58,0,1.32,0,2.65,0,4,0,6-1.18,7.15-7.14,7.23-1.78,0-3.51-.36-4.55,2-1.14,2.61.59,3.61,2,4.91,1.8,1.7,3.69,3.69,2.49,6.15a18.84,18.84,0,0,1-9,9c-3.31,1.51-5.26-1.52-7.25-3.55a3.06,3.06,0,0,0-3.82-.81c-1.75.68-2,1.74-2,3.32s.38,3.36-.21,4.71c-2.59,5.94-8,2.86-12.23,3.44-3.11.43-5-1.39-5.41-4.48-.18-1.29-.07-2.63-.14-4-.06-1.13.19-2.71-1.59-2.56-1.51.13-1,1.64-1,2.57a62.64,62.64,0,0,0,13.67,45.82,57.58,57.58,0,0,0,19.72,16.25c-.14-2-.17-3.41-.36-4.81-.81-6.23,0-12.38.82-18.53.17-1.31.27-2.73,1.83-3.2,1.8-.56,2.59.87,3.5,2,1.38,1.65,2.72,3.33,4.56,5.58,1.93-8.44,6.08-14.62,12.33-19.16,7.28-5.3,9.16-11.84,5.68-20-.6-1.43-.95-2.85.58-3.88,1.32-.89,2.5-.17,3.62.6,8.67,6,14.71,13.88,17.3,24.22,1.28,5.11,1.52,10.32,1.45,16.43A10.82,10.82,0,0,0,132,114.6c.12-1.62.17-3.39,2.18-3.72,2.31-.38,2.75,1.58,3.35,3.17A90.63,90.63,0,0,1,143.29,139.3Zm25.15-59.93c10.56,0,21.11,0,31.66,0,4.33,0,5.28-1.62,3.12-5.37q-15.67-27.22-31.44-54.4c-2.24-3.87-3.88-3.88-6.1-.06q-15.74,27.18-31.4,54.41c-2.28,4-1.4,5.41,3.29,5.42C147.86,79.4,158.15,79.37,168.44,79.37Zm-91-2.67a48.72,48.72,0,0,0,4.89-5.29c1-1.53-.91-2.25-1.74-3-2.67-2.46-3.9-4.83-2.23-8.67s3.67-6.1,7.92-5.48c3.45.5,3.81-1.25,3.76-4.06,0-2.64,0-4.7-3.65-4.16-4.19.62-6.33-1.57-8-5.38s-.78-6.42,2.17-8.61,1.67-3.54-.25-5.47-3.49-3.54-5.77-.39c-2.4,3.31-5.41,3.36-9.09,1.81s-5.34-3.69-4.78-7.53c.42-2.92-.59-4-3.63-3.75-2.72.2-5.41-.34-4.78,3.9.6,4.06-1.52,6.11-5.28,7.58-3.54,1.38-6.18,1-8.36-1.88s-3.6-2.2-5.81.06-3.07,3.68-.16,5.83c3.16,2.33,3.18,5.24,1.75,8.77s-3.5,5.6-7.38,5.06c-3.56-.5-4,1.2-4.05,4.26s.76,4.38,4,4c4.09-.54,6.15,1.68,7.58,5.35C35.89,63,35.7,65.79,32.74,68c-2.75,2.07-2.29,3.6,0,5.82,2.16,2.07,3.62,3.13,5.81.19s4.77-3.4,8.34-2,6,3.42,5.35,7.52,1.86,3.81,4.69,4c3.38.24,4.1-1.2,3.72-4.07-.5-3.73,1.32-5.74,4.7-7.2C69,70.77,71.94,70.76,74.54,74A30.24,30.24,0,0,0,77.45,76.7Zm51.64,82.22c10.46-5.65,11.41-22.42,5.75-36.28-1.83,2.3-3.56,4.64-6.23,6-1.33.68-2.69,1.41-4.06.38s-.86-2.28-.68-3.63c.7-5.37,1.18-10.73.26-16.16a34.48,34.48,0,0,0-10.67-20.32c-1.36,10.08-1.82,12-6.51,15.73-8,6.33-13.71,13.75-14.51,24.34-.22,2.83-2.43,3.32-4.42,1.2-1.66-1.78-3.1-3.78-4.85-5.94-2.93,15.41,2.17,30.55,11.66,34.89-2.32-7.84,0-14.93,3-21.93.54-1.27,1.19-2.77,2.72-2.29,2.85.89,2.6-1,2.79-2.64a22.09,22.09,0,0,1,8.81-15.34c1-.81,2.06-1.72,3.55-1.23,1.66.55,1.47,2,1.55,3.28a27.13,27.13,0,0,0,2.39,9.55c2.35,5.29,4.95,10.48,7.23,15.8C128.78,148.82,130.37,153.45,129.09,158.92Zm-16.41-36c-.87,1.09-1.31,1.57-1.67,2.11-3.81,5.7-3.61,11.93-2.35,18.29.71,3.57-.92,5-4.32,3.9a12.12,12.12,0,0,1-2.77-1.48c-.77-.51-1.55-.85-1.84.26-1.09,4.1-2.11,8.28.44,12.22,3.47,5.38,13.09,6.89,20.17,3.25,4.86-2.49,5.6-6.15,2.74-13.74-.51-1.36-1.08-2.69-1.69-4C118.29,137.06,114.73,130.58,112.68,122.93Z"/><path class="cls-3" d="M174.94,46.85c-.28,3.53-.5,7.07-.85,10.6-.3,2.91-2.05,4.44-4.94,4.64s-5.29-1-5.58-3.82c-.71-7.17-1.17-14.39-1.24-21.59,0-3.11,3.66-5.59,6.75-5.38a6.61,6.61,0,0,1,6.21,6.88c0,2.89-.37,5.77-.57,8.65Zm-6,10.2a6.49,6.49,0,0,0,.41-1.37c.34-5.51.65-11,1-16.52.09-1.4,0-2.92-1.79-2.82s-1.67,1.68-1.6,3c.29,5.25.57,10.49.88,15.74C167.9,55.83,167.75,56.74,169,57.05Z"/><path class="cls-3" d="M168.86,77.36a5.88,5.88,0,0,1-6.16-5.83,6.06,6.06,0,1,1,6.16,5.83Z"/><path class="cls-3" d="M73.47,50.25a17,17,0,0,1-17.19,17,17.08,17.08,0,0,1,.22-34.15A16.92,16.92,0,0,1,73.47,50.25ZM56.49,38a12.19,12.19,0,1,0,.2,24.37A12.19,12.19,0,0,0,56.49,38Z"/></svg>