<svg xmlns="http://www.w3.org/2000/svg" viewBox="0 0 189.08 189.1"><defs><style>.cls-1{fill:#c88a5e;}</style></defs><g id="Capa_2" data-name="Capa 2"><g id="Capa_1-2" data-name="Capa 1"><path class="cls-1" d="M166.4,61.05c-3-.57-3.93-2-5-4.25l.48-.07a38.15,38.15,0,0,0,5.09-1c9.9-2.83,16.93-12.83,16-22.76-1-11.35-9.51-19.87-20.55-20.72l-.19,0c-1.74-.13-2.61-.24-3.53-1.34C152,2.92,142.69-1,133.08.21s-17.7,7.27-22.23,16.66c-.61,1.27-.89,1.39-1.78,1.37A17.24,17.24,0,0,0,96,23.85a3.39,3.39,0,0,1-.74.63,3.33,3.33,0,0,1-.75-.65C86,14.93,75.26,11.09,62.69,12.44a35.52,35.52,0,0,0-17.06,6.69,4.62,4.62,0,0,0-2.06,3,4.13,4.13,0,0,0,.86,3.15c1.44,2,3.68,2.34,5.86.93l.62-.4c.59-.39,1.17-.77,1.77-1.12A28.91,28.91,0,0,1,93.62,37.27c.87,1.87.9,2.49-.88,3.81a20.89,20.89,0,0,0-8.46,16.8c-.07,2.78,1.49,4.6,4.08,4.74,1.11.06,3.75-.21,4.32-4,.06-.38.11-.76.16-1.14l.09-.68a13.41,13.41,0,0,1,10.39-11.66A13.06,13.06,0,0,1,118,51c2.36,3.9,5,4.56,9,2.27a19.79,19.79,0,0,1,16.15-1.57A18.21,18.21,0,0,1,154.27,62c2,4.65,4.51,6.55,9.72,7.27,8.25,1.14,13.72,6.17,15.82,14.52,2,8.06-.33,15-6.79,20.21-6.15,4.92-13.16,5.84-20.26,2.66S141.63,97.78,141,89.86c-.15-1.84-.46-5.69-4.63-5.4a4.21,4.21,0,0,0-3.09,1.42c-1.11,1.33-1.08,3.15-.88,4.91A30.28,30.28,0,0,0,136.34,103a28.74,28.74,0,0,0,4.06,5.18H114.46a8.26,8.26,0,0,1,.29-.82,12,12,0,0,0,.43-1.24,8,8,0,0,0-1-7,7.25,7.25,0,0,0-5.83-2.75c-7.77-.2-15.46-.13-23.3,0-4,0-6.65,2.43-7.34,6.54-.07.41-.16.82-.26,1.23a12.63,12.63,0,0,0-.42,2.52c-.05,1.32-.16,1.74-2.16,1.69-5-.11-10-.09-14.89-.07l-5.84,0h-.73c-.47,0-.94,0-1.4,0a5.12,5.12,0,0,0-3.87,1.21,4.51,4.51,0,0,0-.07,6A5.18,5.18,0,0,0,51.9,117c1.82,0,3.64,0,5.46,0,5.13.06,10.45.12,15.68-.13,1.55-.08,1.87.2,1.87.2s.17.49-.17,2.15c-1.15,5.66-2.23,11.43-3.29,17q-.67,3.6-1.36,7.2c-.53,2.77-.09,5.12,1.27,6.81a7.9,7.9,0,0,0,6.22,2.66l1.06,0a82.66,82.66,0,0,0,8.9-.06c1.42-.12,1.72.14,1.72.14s.24.31-.1,2.07c-1.25,6.42-2.4,13-3.5,19.3q-.61,3.56-1.25,7.11c-.63,3.58.75,6.23,3.79,7.27a6,6,0,0,0,2,.35c2.11,0,3.93-1.25,5.14-3.63q3.15-6.15,6.32-12.3c5-9.81,10.25-19.95,15.28-30a7.38,7.38,0,0,0,.07-7.09,8,8,0,0,0-6.65-3.7c-1.26-.07-2.53-.06-3.86,0,.3-.89.6-1.77.89-2.65,1.24-3.62,2.4-7,3.4-10.56.52-1.86,1.07-2.28,3.09-2.25,17,.15,32.08.15,46.15,0,15.12-.13,27.26-10.77,28.87-25.29A27.75,27.75,0,0,0,166.4,61.05ZM149.61,15.17c-6.65,3.62-10.48,9.72-11.1,17.64-.27,3.57,1,5.5,3.76,5.73,4.06.35,4.51-3.62,4.65-4.92.8-7.39,5.86-12.49,12.9-13A13.87,13.87,0,0,1,174,30.89a13.46,13.46,0,0,1-2.12,11.53,13.32,13.32,0,0,1-10.11,5.65c-.67,0-1.36,0-2.16,0l-1.33,0-.21,0c-2.23.32-4.51-.29-7.19-1.91a26.82,26.82,0,0,0-14-4.06,28.45,28.45,0,0,0-10.57,2.11c-1.75.7-2.16.63-3.17-.53-4.83-5.57-11.15-8-18.77-7.33-1.88.17-2.06.1-2.35-.88a15,15,0,0,0-.67-1.72c-.8-1.79-1-2.41.23-3.54,3.18-2.93,6-4,9.18-3.43,3.85.68,5.93-.61,7.18-4.47a19.84,19.84,0,0,1,13.68-13.1,19.43,19.43,0,0,1,18,4.21,13.85,13.85,0,0,1,1.08,1A6,6,0,0,1,149.61,15.17ZM98.78,137.9c1,1.39,3.07,3.06,7.39,3.14h.23c.67,0,1.35,0,2,0h.13c-4,7.74-8,15.62-11.93,23.25l-.82,1.61c.64-3.74,1.31-7.56,2-11.33.6-3.28.21-5.71-1.21-7.41s-3.75-2.57-7.13-2.59l-2.14,0-3.7,0c-1.45,0-2.92,0-4.38.07a3.33,3.33,0,0,1-.7,0,2.77,2.77,0,0,1,.08-.79l.21-1.15c2.3-12.09,4.68-24.59,6.94-36.9.16-.9.22-.93,1.16-.92,7.76.07,13.69.06,19.25,0h.47c0,.14-.1.33-.18.58-2.93,8.53-5.7,16.91-8.26,24.7C96.92,134.06,97.8,136.53,98.78,137.9Z"/><path class="cls-1" d="M39.35,108.34h-.2c-1.75,0-3.63,0-5.74,0A25.86,25.86,0,0,1,9.17,76.71c3.16-12.82,14.37-20.8,27.88-19.85C49.25,57.72,59,68,60.17,81.36l0,.21c.17,1.88.47,5.39,4.64,5,3.83-.32,3.75-3.7,3.71-5.33V81C68.25,65.38,56,51.3,40.67,48.9c-1.37-.21-1.79-.55-1.92-.73a3.21,3.21,0,0,1,0-2.06,30.58,30.58,0,0,1,4.46-12.24,5.56,5.56,0,0,0,1.19-4.16,4.13,4.13,0,0,0-2-2.63c-3.52-2.22-5.54,1-6.4,2.3a34.65,34.65,0,0,0-5.66,17.05c-.08,1.7-.3,2.13-2.28,2.45C12.6,51.38.3,65.6,0,81.26a34.55,34.55,0,0,0,9.57,25.09c6.61,6.78,15.94,10.55,26.27,10.61h2c.44,0,.88,0,1.32,0a5.75,5.75,0,0,0,4.16-1.49,4,4,0,0,0,1-3.06C44.26,111.17,43.65,108.34,39.35,108.34Z"/><path class="cls-1" d="M35.82,156.62h0a4,4,0,0,0-2.9,1.12,5.3,5.3,0,0,0-1.35,3.91c0,6.94,0,14.81,0,22.42A5.2,5.2,0,0,0,32.92,188,3.93,3.93,0,0,0,35.74,189h.18c1.26,0,4.19-.62,4.16-5,0-2.65,0-5.29,0-7.93v-3.26c0-1.09,0-2.18,0-3.27,0-2.47,0-5,0-7.55a5.68,5.68,0,0,0-1.26-4.18A4.05,4.05,0,0,0,35.82,156.62Z"/><path class="cls-1" d="M156.05,157.68a4,4,0,0,0-3.07-1.07c-2.53.11-4.09,1.94-4,4.75,0,2.61,0,5.22,0,7.83v6.91q0,4.2,0,8.38c0,2.75,1.71,4.53,4.31,4.53h0c2.43,0,4.08-1.75,4.11-4.36.06-7.43.07-15.12,0-23.51A4.71,4.71,0,0,0,156.05,157.68Z"/><path class="cls-1" d="M55.33,120.59h0c-2.58,0-4.19,1.78-4.21,4.65-.05,7.38-.05,15.07,0,22.87,0,2.91,1.57,4.66,4.15,4.7h.09a4.14,4.14,0,0,0,3-1.11A5.07,5.07,0,0,0,59.66,148c0-2.66,0-5.31,0-8V125.49C59.66,121.09,56.63,120.6,55.33,120.59Z"/><path class="cls-1" d="M137.91,125.49a5.09,5.09,0,0,0-1.35-3.83,4,4,0,0,0-3-1.06c-1.57,0-4.2.74-4.2,5q0,11.06,0,22.11c0,4.07,2.22,5,4.08,5.09h.26a4,4,0,0,0,2.88-1,5.64,5.64,0,0,0,1.37-4.13c0-2.64,0-5.28,0-7.93v-6.4C137.94,130.71,138,128.1,137.91,125.49Z"/><path class="cls-1" d="M16.41,120.58a4,4,0,0,0-3,1,4.6,4.6,0,0,0-1.28,3.5c0,8,0,15.82,0,23.19a4.62,4.62,0,0,0,1.29,3.49,3.89,3.89,0,0,0,2.79,1h.28c1.22-.06,4-.64,4-4.73q0-4,0-8v-6.63c0-2.74,0-5.47,0-8.2C20.5,121.19,17.64,120.63,16.41,120.58Z"/><path class="cls-1" d="M175.66,121.65a4,4,0,0,0-3-1.06c-2.62,0-4.17,1.77-4.16,4.62V140c0,2.69,0,5.37,0,8.06,0,4,2.46,4.7,3.94,4.79h.37a3.92,3.92,0,0,0,2.77-1,5,5,0,0,0,1.33-3.79c0-8,0-15.51,0-22.84A4.79,4.79,0,0,0,175.66,121.65Z"/></g></g></svg>