<svg xmlns="http://www.w3.org/2000/svg" viewBox="0 0 187.26 177.01"><defs><style>.cls-1{fill:#c88a5e;}</style></defs><g id="Capa_2" data-name="Capa 2"><g id="Capa_1-2" data-name="Capa 1"><path class="cls-1" d="M78.53,98.08c4.71-2.53,6.13-6,3.67-11.5-1.54-3.47.46-7.43,3.32-10.25a4.89,4.89,0,0,0,1.53-3.86c0-18.28-.07-36.56,0-54.84,0-2.26-.69-3.12-2.91-2.86a11.9,11.9,0,0,1-2.92-.09A2.37,2.37,0,0,1,79,12.21,2.37,2.37,0,0,1,81.37,9.5a34.77,34.77,0,0,1,7.29.13c3.06.52,3.83,3,3.83,5.81q0,11.15,0,22.3V69.19c0,1.68-.35,3.33,2.46,3.27s2.19-1.63,2.2-3.14c0-8.29,0-16.58,0-24.86,0-2.8.56-5.16,3.42-6.18,1.47-.52,1.29-1.57,1.3-2.63,0-2.92,0-5.85,0-8.77,0-1.85.54-3.52,2.82-3.49s2.81,1.56,2.8,3.48c0,1.59,0,3.17,0,4.75-.09,3.58-1,7.58,5.1,6.62,1.6-.25,2.73,1.83,4.08,2.83,7.39,5.46,10.71,12.51,9.15,21.76-.39,2.25,0,4.62-.08,6.94-.07,1.69.18,2.64,2.3,2.69,2.37.06,2.13-1.3,2.12-2.78V7.52c0-6.09,1.42-7.5,7.5-7.5,4.15,0,8.29,0,12.43,0,4.35.05,6.13,1.85,6.29,6.25.1,2.66-.72,5.92.52,7.82s4.76.37,7.24.8c3,.53,4.85,2.13,4.86,5.38,0,1.46.07,2.92,0,4.38-.11,1.87.08,3,2.52,3.35,2.74.38,3.87,2.76,3.89,5.44,0,6.7,0,13.41,0,20.11,0,1.85-.5,3.54-2.73,3.59-2.44.06-3-1.69-3-3.72,0-5.6-.09-11.21,0-16.81.06-2.34-.31-3.7-3.08-3.49-2.09.16-3.07-1.13-3.07-3.21,0-2.31-.1-4.63,0-6.94.09-1.9-.59-2.64-2.52-2.52s-4.14-.05-6.21,0c-2.92.13-4.3-1.15-4.22-4.11.07-2.68-.09-5.37.05-8,.1-2-.5-2.86-2.64-2.77-3.29.14-6.58.11-9.87,0-1.89,0-2.57.65-2.56,2.54q.06,32.73,0,65.45a5,5,0,0,0,1.3,3.27c3.49,4.47,4.06,9.34,1.37,14.32-1,1.78-.22,2.18.91,3.38a46.68,46.68,0,0,0,12,9.19c5.31,2.9,6.53,10.18,3.52,15.86-1,1.87-.69,2.5.94,3.56a11.62,11.62,0,0,1,5.4,9.09c.43,5,.91,9.94,1.34,14.91.28,3.28-.93,5.58-4.49,5.76-1.92.09-2.12,1.05-2.1,2.58,0,4.38.1,8.77,0,13.16-.06,2,.48,2.82,2.62,2.78,6.83-.1,13.66-.12,20.48,0,2.37,0,2.81-1,2.8-3q-.06-36.57,0-73.13c0-2.28-.51-3.21-3-3.15-9.65.24-9,.84-9-9.1V69.5c0-2.13-.05-4.53,2.91-4.46s2.77,2.53,2.78,4.62c0,4.51.15,9-.05,13.53-.11,2.63.55,3.91,3.4,3.52a14.88,14.88,0,0,1,3.65.07c3.17.35,4.8,2.2,4.81,5.36q0,40.59,0,81.17c0,2.64-1.23,3.8-3.8,3.7-.49,0-1,0-1.46,0H5.4C.27,177,0,176.75,0,171.62q0-11,0-21.94c0-2.11-.22-4.65,2.64-4.7,3.16-.06,2.89,2.69,2.91,4.87,0,6.09.12,12.19,0,18.28-.06,2.52.69,3.39,3.28,3.33q10.79-.22,21.57,0c2.61.06,3.35-.83,3.23-3.34-.18-4-.12-8,0-12.06.06-2-.23-3.1-2.66-3.23-2.71-.13-4.13-2.08-3.94-4.76.42-5.83.86-11.66,1.62-17.45a10.68,10.68,0,0,1,5.56-7.77c1.29-.77,1.48-1.3.77-2.75-4.13-8.4-.69-16.34,8.2-18.88A3.82,3.82,0,0,0,46,99c1.15-2.7,4.88-3.77,5.45-6,.51-2-2-4.67-2.11-7.45A12.89,12.89,0,0,1,57.1,73.32,13,13,0,0,1,71,75.88c3.69,3.55,5.14,9.53,2.77,14.11-1.36,2.64-1.05,4,1.43,5.3A20.83,20.83,0,0,1,78.53,98.08ZM43.14,159.77c0-2.68,0-5.35,0-8,0-2-.05-4.24,2.69-4.25s2.79,2.2,2.79,4.23c0,5.6,0,11.2,0,16.8,0,1.5-.12,3,2.17,2.88,2-.1,1.91-1.43,1.9-2.81,0-5.6.08-11.2,0-16.8-.06-2.89,1-4.47,4-4.16,2.2.22,2.73-.73,2.47-2.76-.52-4.1-.78-8.24-1.33-12.33a6.59,6.59,0,0,0-6.68-6c-3.4-.12-6.82-.1-10.22,0a6.94,6.94,0,0,0-7.23,6.71c-.39,4-.59,8-1.05,12-.2,1.79.31,2.56,2.1,2.36,3.57-.4,4.31,1.57,4.22,4.65-.14,5.23,0,10.47,0,15.71,0,1.77-.12,3.53,2.5,3.43s1.62-2,1.67-3.22C43.21,165.38,43.14,162.57,43.14,159.77Zm67.72-61.26a35.52,35.52,0,0,1,4.59-4.12c1.54-1,1.53-1.64.72-3.11-2.44-4.42-2.84-9.5.57-13,3.65-3.75,3.31-7.74,3.34-12,0-2.93,0-5.85,0-8.78,0-7.61-6.85-14.14-14.49-14-2.35,0-3.15.7-3.11,3.14.14,8.65.1,17.3,0,26a5.63,5.63,0,0,0,1.72,4.18,12.24,12.24,0,0,1,3.17,10.12c-.26,2.33-2.76,4.66-2.12,6.29.76,1.9,3.8,2.78,5.09,4.95C110.48,98.26,110.71,98.37,110.86,98.51ZM81.2,159.84c0,2.8-.08,5.6,0,8.4.05,1.23-.87,3.13,1.7,3.16,2.37,0,2.38-1.52,2.38-3.19,0-5.36.07-10.72,0-16.08-.05-2.86.58-4.87,4-4.52,2,.21,2.45-.8,2.27-2.63-.4-4-.53-8-1-12a6.86,6.86,0,0,0-7.12-6.44c-3.4-.1-6.82-.1-10.22,0a6.55,6.55,0,0,0-6.75,5.91c-.61,4.21-.86,8.47-1.35,12.7-.23,2,.56,2.64,2.45,2.47,3.33-.31,4.15,1.61,4.09,4.53-.1,5-.12,10,0,15,0,1.52-1.23,4.07,1.85,4.21,3.29.15,1.92-2.54,2-4,.17-5,0-10,.07-15,0-2.2-.21-4.87,2.94-4.84,2.94,0,2.68,2.56,2.67,4.65Zm27,.23c0-2.79,0-5.59,0-8.39,0-2.06,0-4.21,2.75-4.19s2.76,2.25,2.76,4.27c0,5.59,0,11.19,0,16.79,0,1.27-.32,2.78,1.81,2.84s2.23-1.28,2.22-2.87c0-5.48.07-11,0-16.43-.06-3,.82-4.78,4.12-4.47,1.89.18,2.66-.48,2.42-2.47-.52-4.22-.79-8.48-1.37-12.69a6.56,6.56,0,0,0-6.73-5.92c-3.4-.11-6.81-.1-10.22,0-4,.1-6.7,2.5-7.13,6.4-.46,4.11-.61,8.25-1.07,12.35-.2,1.84.43,2.5,2.17,2.32,3.28-.36,4.22,1.34,4.15,4.35-.13,5.6,0,11.2,0,16.8,0,1.81.65,2.68,2.57,2.64s1.6-1.42,1.61-2.56C108.26,165.92,108.24,163,108.24,160.07Zm38.06,0c0,2.81,0,5.61,0,8.41,0,1.34-.55,3.07,1.93,3,2.15-.09,2.2-1.48,2.2-3,0-5.6.06-11.2,0-16.8,0-2.71.92-4.25,3.82-4,2.24.23,2.64-.85,2.43-2.83-.42-3.87-.54-7.77-1-11.64-.45-4.13-3.15-6.52-7.35-6.62-3.28-.08-6.57-.09-9.86,0-3.9.1-6.38,2.23-6.94,6.11s-.81,8-1.3,12c-.26,2.1.18,3.25,2.62,3,2.83-.29,3.91,1.26,3.88,4q-.09,8,0,16.07c0,1.52-.8,3.72,2.08,3.68,2.72,0,1.79-2.15,1.82-3.49.1-5.36,0-10.72,0-16.07,0-2,.1-4.24,2.77-4.3s2.86,2.05,2.83,4.14C146.26,154.44,146.29,157.24,146.3,160ZM127.07,97.87c-2.82.44-6-.71-8.75,1.2-1.86,1.28-2.93,2.25-.2,4.14,5.71,4,7.17,10.19,4.06,16.38-.91,1.81-.25,2.27.92,3.65,3.08,3.66,5.26,3.53,8.34,0,1.24-1.43,1.7-2,.84-3.72-3.05-6.2-1.55-12.35,4.18-16.35,2.43-1.69,1.77-2.6,0-3.93C133.57,97.13,130.29,98.27,127.07,97.87Zm-64.77,0c-3.32.37-6.9-.86-9.83,1.71-1.3,1.13-1.78,1.9.1,3.29,6.34,4.69,7.64,10.07,4.26,17.2-.71,1.5-.17,1.82.74,2.83,3,3.35,5.59,4.43,8.89.19,1-1.29,1.64-1.73.81-3.42-3.19-6.46-1.71-12.47,4.22-16.63,2.28-1.6,1.58-2.45,0-3.71C68.66,97.13,65.37,98.25,62.3,97.89Zm32.44,29.32c1.35-1.5,2.39-3.28,4.17-4.13,2-.94,1.66-1.86.79-3.56-3.09-6-1.51-12.63,4.16-16.33,2.88-1.88,1.52-2.86-.15-4.08-2.45-1.77-15.66-1.69-18.08,0-.3.21-.56.47-.84.71-1.23,1.08-1.47,1.76.21,3,6.48,4.61,7.73,10,4.31,17.43-.43.94-1,1.65.35,2.3C91.8,123.56,93.1,125.54,94.74,127.21Zm-32.49-35a7.18,7.18,0,0,0,7.17-7.15,7.27,7.27,0,1,0-14.53.22A7.13,7.13,0,0,0,62.25,92.21Zm64.86,0a7.17,7.17,0,0,0,7.41-6.9A7.27,7.27,0,1,0,120,85,7.14,7.14,0,0,0,127.11,92.21ZM78.59,120.8a7,7,0,0,0,7-7.21,7.12,7.12,0,0,0-7.19-7.09,7.26,7.26,0,0,0-7.27,7.44A7.17,7.17,0,0,0,78.59,120.8ZM101.82,85a7.14,7.14,0,1,0-14.27.11A7.14,7.14,0,1,0,101.82,85Zm9.12,35.79a7.17,7.17,0,0,0,7.3-7.1,7.24,7.24,0,0,0-7.22-7.2,7.07,7.07,0,0,0-7.19,7.14A6.93,6.93,0,0,0,110.94,120.8Zm32.6,0a7,7,0,0,0,7.16-7.13,7.11,7.11,0,0,0-7.2-7.16,7.25,7.25,0,0,0-7.25,7.19A7.16,7.16,0,0,0,143.54,120.79Zm-97.57,0a7.11,7.11,0,0,0,7.13-7.23,7.21,7.21,0,0,0-7.34-7.07,7.09,7.09,0,0,0-7,7.29A6.92,6.92,0,0,0,46,120.79Zm52.69,41.55c0-2.43,0-4.86,0-7.29,0-3.16-2.56-2.1-4-2.12s-4-1-3.91,2.21c.07,4.74,0,9.48,0,14.21,0,1,.08,1.76,1.42,2.06,5,1.09,6.48,0,6.48-5.06Zm-32.72,0c0-2.31-.14-4.63,0-6.93.23-3.07-2-2.57-3.65-2.54s-4.13-.76-4,2.56c.14,4.26.18,8.53,0,12.78-.12,2.64.91,3.11,3.33,3.27,3.51.23,4.93-.82,4.38-4.4A32.56,32.56,0,0,1,65.94,162.37Zm65.11.11a45.48,45.48,0,0,1,0-5.84c.42-3.21-1.11-3.92-3.93-3.85-2.58.06-4,.54-3.79,3.67a80.41,80.41,0,0,1,0,11.3c-.16,2.81.65,3.69,3.59,3.77,3.44.1,4.53-1.06,4.11-4.31A35.68,35.68,0,0,1,131.05,162.48Z"/><path class="cls-1" d="M24.18,23.47V70.92c0,1.46-.1,2.93,0,4.39.27,3.4-1.4,4.82-4.58,4.37-3.55-.51-4.57.77-4.37,4.32.32,6,0,11.94.12,17.9.08,3.33-1.33,4.57-4.56,4.58-5.24,0-5.24.12-5.24,5.27q0,10.41,0,20.83c0,2.11.09,4.63-2.73,4.71S0,134.93,0,132.76c0-8.4,0-16.81,0-25.22,0-4.9,1.61-6.67,6.52-6.54,2.72.07,3.21-1,3.14-3.37-.15-5.47-.07-11,0-16.44,0-5.19,1.38-6.87,6.58-7.07,3.1-.13,2.43-2.07,2.43-3.75q0-31.07,0-62.13a20.83,20.83,0,0,1,.24-3.63,2.36,2.36,0,0,1,2.69-2,2.47,2.47,0,0,1,2.5,2.22,6.25,6.25,0,0,1,.05,1.83c-1.05,5.88,1.3,10.16,5.83,13.82,3.17,2.56,5.82,5.77,9.48,9.49,0-2.25,0-3.39,0-4.54,0-2.11-.21-4.6,2.77-4.52s2.66,2.61,2.69,4.68c0,1.83,0,3.66,0,5.48,0,8.78-.09,17.55.09,26.32,0,1.62-1.67,4.54,2,4.69,3.86.16,1.77-2.87,2.26-4.5a11.19,11.19,0,0,0,.08-2.18c.28-3.08,1.82-5.15,5-5.11,2.6,0,2.94-1.22,2.93-3.37-.07-10.23,0-20.47,0-30.7,0-2.54.19-5.23,2.84-6.22a16.12,16.12,0,0,1,10-.1,2.15,2.15,0,0,1,1.13,2.79,2.61,2.61,0,0,1-2.3,2c-1.9.28-4.51-.9-5.57.61-1.35,1.93-.44,4.71-.46,7.11-.06,9.51-.12,19,0,28.51.05,3.45-1.16,5.18-4.66,4.65-3.14-.48-3.53,1.05-3.48,3.7.14,8.5,1,8.33-8.3,8.26-.73,0-1.46,0-2.19,0-4.45-.06-4.85-.43-4.86-4.77,0-7.43-.06-14.86,0-22.29a6,6,0,0,0-2-4.79C33.29,31.58,29.17,27.3,25,23.06Z"/></g></g></svg>