<svg xmlns="http://www.w3.org/2000/svg" viewBox="0 0 139.92 175.82"><defs><style>.cls-1{fill:#c88a5e;}</style></defs><g id="Capa_2" data-name="Capa 2"><g id="Capa_1-2" data-name="Capa 1"><path class="cls-1" d="M34.46,102.62a34.15,34.15,0,0,1-11-17.07c-.38-1.43-1.52-1.15-2.45-1.36-5.57-1.26-8.84-4.29-9.55-9.4A10.24,10.24,0,0,1,17.1,63.66c1.6-.86,1.52-2,1.55-3.37.11-5.82-.54-11.68.91-17.42,2.3-9.12,7.16-16.52,15-21.74a5.06,5.06,0,0,0,2.54-4.4,18.24,18.24,0,0,1,36.36.11A4.67,4.67,0,0,0,75.72,21C86.32,28.17,91.49,38.4,92,51.09c.06,1.49,0,3,0,4.47,0,3.89-.85,8,4,10,1.08.45,1.66,2.09,2.63,3.39.71-1.22.41-2.46.41-3.62q0-29.52,0-59C99.1,0,101-1.22,106.87,1.4q14.38,6.39,28.78,12.79c1.94.86,3.89,1.66,3.82,4.24-.06,2.38-1.92,3.18-3.72,4-9,4-17.93,8-26.94,11.9a3.27,3.27,0,0,0-2.31,3.56c.08,13.27.1,26.54,0,39.82,0,2.32.76,2.77,2.91,2.83C117,80.72,121,85,121.16,92.69c.14,6-.38,11.51,3.79,17.3,5.66,7.87,9.34,17.23,13.4,26.16a18.63,18.63,0,0,1-.14,15.28,9.7,9.7,0,0,1-9.29,5.95c-5.26.09-10.52.13-15.78,0-2.16-.05-3.18.5-3,2.86.23,3.39-1.66,4.59-4.89,4.58-5.88,0-5.88.06-6.06,6.12-.11,3.78-1.14,4.82-5,4.82q-44.44,0-88.9,0c-2.65,0-4.9-.77-4.9-3.56,0-9.81-1.25-19.73.85-29.42C3.55,132.1,10.09,124.46,20.15,120c2-.87,2.54-1.64,2.28-4-.56-5.21,2.85-8.42,6.9-10.94A51.35,51.35,0,0,1,34.46,102.62ZM36.9,130a67.41,67.41,0,0,1-7.27-3.68,4.68,4.68,0,0,0-4.78-.38C16,129.42,10.26,135.63,8.3,145c-1.42,6.78-.28,13.69-.67,20.53-.13,2.27.65,2.87,2.87,2.86q39.32-.1,78.61,0c2.36,0,2.84-.83,2.86-3,.07-7.88.14-7.88,8-8.06.23,0,.46,0,.69,0,1.55.14,2.27-.43,2.26-2.12-.05-9,0-18.08,0-27.12,0-1.45-.29-2.39-2-2.46-2.14-.09-1.7,1.4-1.7,2.56,0,6.41-.17,12.82,0,19.22.1,3.12-1.68,2.84-3.69,2.84s-3.79.29-3.69-2.84c.22-6.51,0-13,.1-19.56,0-2.11-.58-2.65-2.77-3.13-6.36-1.38-10.18,3.81-15.65,5,5.49,6.47,7.85,12.53,7.44,18.64-.31,4.48-1.57,5.7-6,5.42-8.44-.53-15-4.29-19.6-11.69-.61.76-1.13,1.36-1.59,2-4.62,6.42-11.06,9.35-18.78,9.7-3.85.18-5.2-1.15-5.37-4.93A23.94,23.94,0,0,1,36.9,130Zm28-77.68A37.24,37.24,0,0,1,47.67,62.67a56.21,56.21,0,0,1-14.1,2.61c-2.91.09-4.38.87-4,4.17.33,2.82,0,5.71.1,8.57.44,12.74,11.08,23.74,23.5,24.34,14.14.68,25.6-8.52,27.4-21.89.61-4.57.24-9.14.37-13.71a2,2,0,0,0-1.53-2.3C73.08,62.37,68.43,58.16,64.94,52.35Zm-38.86-.69a24.51,24.51,0,0,1,0,3.43c-.41,2.77.74,3.58,3.41,3.3a80.12,80.12,0,0,0,12.18-1.74C51.53,54.07,60.87,50.79,63,38.8a3.06,3.06,0,0,1,3.16-2.22,3.48,3.48,0,0,1,3.34,2A8.13,8.13,0,0,1,70,42.24c.3,6.53,3.49,11.23,9.21,14.2,4.86,2.51,5.34,2.16,5.34-3.28V51.79C84.46,35.12,71.48,22,55.16,22S26.24,35,26.08,51.66Zm84.73,82.54-.64.18c0,4.63,0,9.26,0,13.89,0,1.55.82,1.93,2.17,1.92,5.26,0,10.53.06,15.79-.06,2.54-.06,3.88-1.47,4-4.17.11-3.7-.24-7.15-2.15-10.52A108.37,108.37,0,0,1,122,119.5c-2-5.34-5.25-6.58-10.38-6.11-2.67.25-2.43,1-1.51,2.83,3.21,6.31,6.28,12.68,9.56,18.95,1,1.91.72,2.91-1.27,3.6A13.61,13.61,0,0,0,116,140c-1.21.72-2,.64-2.61-.81C112.64,137.48,111.67,135.86,110.81,134.2ZM75.92,102.7c5.1,1.89,10.55,4.11,11.3,9.36.8,5.67,3.75,5.68,7.76,5.59,1.24,0,2.5.36,3.74.36s3,.82,3.42-.33c.47-1.43-.78-3-1.83-4.15-.48-.54-1.42-.66-2.13-1-3.84-2-6.1-5.09-6.2-9.51-.08-3.87,0-7.76,0-11.64a9.87,9.87,0,0,1,5.15-9.06c2.19-1.22,2.22-2.73,1.61-5.38-2.17,4.68-5.52,7-10,7.37-1.45.13-1.59,1.15-1.86,2.06C85,92.77,81.28,98,75.92,102.7Zm38-4.44c0-10.67-.41-11-10.54-10.38-2.65.18-4,1.53-4.13,4.05s-.06,5,0,7.54c0,5.94.81,6.76,6.64,6.77C113.9,106.26,113.9,106.26,113.9,98.26Zm-58.7,26c3.12.3,5.75-1,8.18-2.8.88-.67,1.43-1.33.67-2.54a11.67,11.67,0,0,1-1.46-7.25c.13-1.78-.11-2.79-2.39-2.25a21.84,21.84,0,0,1-9.85,0c-2-.44-2.44.25-2.3,2,.15,2,.2,4.13-.81,5.69-2.33,3.64.08,4.81,2.64,6.08A9.39,9.39,0,0,0,55.2,124.28Zm71.53-106-20-8.89v17.8ZM65.86,16.17c-1.76-6-5.56-8.87-11.11-8.7-4.93.15-8.68,3.28-9.93,8.61A42.83,42.83,0,0,1,65.86,16.17Zm-28.49,130c6.79-1.52,11.1-5.43,13.21-11.84.48-1.47.36-2.06-1.46-1.89C42.72,133,37.23,139.1,37.37,146.13Zm36,0c-.52-7.38-4.6-12.27-10.92-13.61-2.46-.52-3.19.17-2.25,2.58C62.52,141.15,66.77,144.83,73.36,146.17Zm-.42-24.3c5-1.58,8.12-4.58,7.61-7.05C80,112,74.77,109.48,70.47,110c0,0-.09.18-.14.27C74,115.55,74.22,116.38,72.94,121.87Zm-35.45,0c-1.44-4.83-.54-8.66,3.58-12-1.48,0-2.15,0-2.82,0-3.49.09-8.26,2.6-8.37,4.87-.19,3.71,3,5,5.64,6.51A11.25,11.25,0,0,0,37.49,121.84ZM88.07,73.38c.66,1-.89,3.09,1.15,3.17,1.73.07,2.63-1.71,2.57-3.4-.06-1.5-.77-3.22-2.48-3.08C87.28,70.23,88.62,72.23,88.07,73.38ZM22.2,77c0-1.72.09-3.08,0-4.41-.09-.89.71-2.36-.79-2.55s-2.24,1.12-2.53,2.36C18.3,74.62,19.46,76,22.2,77Z"/><path class="cls-1" d="M25.86,164.8a22.8,22.8,0,0,0-3.41,0c-3.15.5-3.89-.78-3.94-3.85s1-3.91,3.89-3.67a75.82,75.82,0,0,0,8.53,0c3.47-.11,2.15,2.48,2.28,4.1s.72,3.64-2.23,3.38C29.29,164.68,27.57,164.8,25.86,164.8Z"/></g></g></svg>