<svg xmlns="http://www.w3.org/2000/svg" viewBox="0 0 184.81 184.9"><defs><style>.cls-1{fill:#c88a5e;}</style></defs><g id="Capa_2" data-name="Capa 2"><g id="Capa_1-2" data-name="Capa 1"><path class="cls-1" d="M177.35,41.72A116.42,116.42,0,0,1,164.6,57.13c-1.93,2-2.21,4.72-2.94,7.19-.81,2.77-2.26,4.3-5.19,4.51-4.77.34-2.41,4-2.79,6.35-.46,2.79,1.83,2.09,3.37,2.17a20.94,20.94,0,0,1,2.86,0c5,.94,8.22-1.31,10.48-5.51a5.19,5.19,0,0,1,2.37-2.59,2.4,2.4,0,0,1,2.9.73,2.57,2.57,0,0,1,.19,3.31c-3.28,5.28-6.61,10.51-14.15,9.37-2.33-.35-2.92.78-2.62,2.91a51.31,51.31,0,0,1,0,14c-.26,2,.41,3,2.5,2.68,6.14-.94,9.76,2.46,12.87,7.14A57.35,57.35,0,0,1,184,134.22c.72,5.85-.69,11.41-3,16.71a4.25,4.25,0,0,0,.32,4.53,19,19,0,0,1-25.93,26.18c-1.22-.69-2.23-1.57-3.89-.8-16,7.39-29.91,1.84-43.37-6.89-4.55-2.94-6.45-6.83-6.28-12.32.32-9.92.09-19.85.09-29.78,0-.95-.29-2,.07-2.84,1.91-4.3-.6-6.77-3.47-9.25A66.14,66.14,0,0,1,93.64,115c-2.75-2.94-2.77-5.54.07-8.46,4.17-4.28,8.39-8.52,12.69-12.67,2.74-2.66,5.4-2.68,8.22-.07,3.25,3,5.93,7.82,9.64,8.75s8.65-.2,13-.26,8.85-.08,13.27,0c1.85,0,2.81-.38,3.05-2.43a64.75,64.75,0,0,0,0-14.66c-.23-2-1-2.56-3-2.53-6.81.11-13.63,0-20.45.07-4.15.06-7.58-.93-9.28-5.16-1.65-4.08,0-7.15,3-9.88,1.31-1.22,2.52-2.55,3.81-3.79,3.71-3.58,7.57-4.09,11-.41,2.85,3.05,5.43,2.54,8.75,1.24a61.61,61.61,0,0,0-27.31-27.47c-1.27-.66-1.86-.36-2.42.87-2.1,4.68-4.23,9.35-6.45,14-.7,1.45,0,2.51.52,3.7,2,4.52,1.6,6.44-1.84,10q-1.63,1.67-3.3,3.3c-3.74,3.72-6.6,4.26-10.51,2s-5.57-6-4.35-10.68q3.6-13.84,7.34-27.66c3.5-13,20.32-28.9,33.42-31.69A26.41,26.41,0,0,1,147,2.37a9,9,0,0,0,6.47.07A28.82,28.82,0,0,1,168.29.9c10.26,1.88,17.19,10.84,15.6,21.46-1.18,7.89-2.06,15.39,0,23.35,1.4,5.44-.75,11.09-2.6,16.43-.57,1.64-1.69,2.78-3.52,2.14s-2.15-2.29-1.52-4.12a35.21,35.21,0,0,0,2.24-14.76C178.35,44.22,178.47,43,177.35,41.72ZM162.94,6.18c-6.78.12-13.09,3.07-19,7.13-7.31,5-13.33,11.56-19.8,17.57-1.23,1.13-1.12,1.72.31,2.6,1.77,1.1,3.09,1.29,4.58-.52s3.55-3.53,5.27-5.36a14.16,14.16,0,0,1,12.21-4.72c3.91.39,7.81.9,11.71,1.41a2.47,2.47,0,0,1,2.23,2.41c.48,3.79,1,7.56,1.39,11.36a14.34,14.34,0,0,1-4.46,12,40.54,40.54,0,0,1-4.34,4.26c-3,2.17-3.39,4.46-1.09,7.33.7.87.78,2.32,2.47,2.09a2.58,2.58,0,0,0,2.37-2.3c.88-5,4.06-8.39,7.37-11.92,6.5-6.92,12.08-14.47,14-24.12C180.46,13.8,174.27,5.67,162.94,6.18ZM147.52,147.91c1.23,3.15.58,5.35-.63,7.71a10.28,10.28,0,0,0,1.6,12.29,81.92,81.92,0,0,0,7.9,7.8A13.54,13.54,0,0,0,175,156.14c-2.17-2.38-4.52-4.6-6.81-6.86-3.78-3.71-8.23-4.32-12.85-2.14A9.79,9.79,0,0,1,147.52,147.91Zm-.85-15.43c2.3.2,4.34.24,6.32.58,7.08,1.2,12.11,5.82,17.19,10.39,1.9,1.7,4.11,5.59,5.59,4.67,2.18-1.35,2.35-5.2,2.65-8.19a22.51,22.51,0,0,0,.09-3.58c-.57-10.26-4.74-19.07-11-27-1.15-1.48-2.68-1.76-4.45-1.74-5.49.07-11,0-16.48.06-1.55,0-3.76-1-3.79,2.19,0,2.43.19,4.19,3.25,4.29,1.76.06,3.51,1,5.25,1,7.89-.17,11,4.55,12.19,11.44a1.5,1.5,0,0,0,.11.34c.85,1.89.29,3.38-1.59,4s-2.91-.6-3.49-2.19c-.7-1.89-1.26-3.85-1.9-5.76a2.35,2.35,0,0,0-2.08-1.71c-1.16-.16-1.66.42-2.18,1.37C150.59,125.82,148.71,129,146.67,132.48Zm-14.09,14.24c-3.71,2.15-7,4.1-10.28,5.93a2,2,0,0,0-1.26,2.27,2.24,2.24,0,0,0,1.74,2c1.92.64,3.87,1.2,5.76,1.91,1.61.61,2.69,1.69,2,3.58s-2.15,2.08-3.81,1.55c-2.5-.81-4.94-1.8-7.46-2.48a4.22,4.22,0,0,1-3.25-3.79c-.71-4-1.65-7.94-2.23-12-.44-3.1-2.58-2.44-4.54-2.52-2.45-.1-1.83,1.69-1.84,3,0,5.74.08,11.48-.07,17.21a5.54,5.54,0,0,0,2.34,4.88,51,51,0,0,0,19.47,9.52,27.31,27.31,0,0,0,19.5-1.8c-3.86-4.34-8.14-8-11.3-12.65A27.39,27.39,0,0,1,132.58,146.72Zm-12.22-37.26c1.2-3-2-4-3.65-5.86-1.88-2.12-4.1-5.49-6.15-5.48s-4.19,3.44-6.2,5.45c-2.36,2.35-6.41,4.79-6.41,7.2s4.06,4.82,6.44,7.15c1.08,1.06,2,3.09,3.5,2.79,5.68-1.16,8.62,2.72,11.65,6.11,2.23,2.5,3.58,2.3,5.73,0,3.89-4.24,4-4.12,0-8.19C122.78,116.14,120,113.89,120.36,109.46ZM143.55,7c-5.25-1.16-9.77-1.67-13.7.57-12.07,6.9-23.29,14.71-26.26,29.73-.31,1.56-1.57,3.41,1.24,3.77,2.1.27,4.75,3,6.11-1.11,1.77-5.39,5.38-9.39,9.54-13.12C127.83,20.24,134.48,12.87,143.55,7Zm4.19,112.72c-2.43.26-4.68-1.85-6-.2-2.83,3.71-7.11,5.45-10.41,8.53-4.64,4.32-7.6,9.92-12.17,14.23-1.25,1.17-.13,3.25.45,4.75.51,1.32,1.47.11,2-.19A61.71,61.71,0,0,0,147.74,119.71Zm-7-90.34c-3.07,2.14-5.28,5-7.91,7.39-1,.94-.62,1.54.29,2.23A65.21,65.21,0,0,1,145.69,51.6c.74,1,1.37,1.16,2.25.19,2.41-2.61,5.28-4.8,7.29-7.81-3.29-1.8-3.29-1.8-7.2-1.58-4.49.24-6.41-1.57-5.7-5.89A9.69,9.69,0,0,0,140.7,29.37Zm-3.22,48c2.75,0,5.5-.07,8.25,0,1.72.06,2.54-.3,2.58-2.33.1-4.74.24-4.68-4.63-3.73-2,.39-4.13,1.34-6-.78-4.14-4.8-4.19-4.76-8.71-.23-.5.5-1,1-1.52,1.52-1.09,1-2,2.11-1.42,3.73.68,1.84,2.3,1.8,3.89,1.79C132.47,77.35,135,77.36,137.48,77.36ZM107.54,47.58c-1.77-.51-3.26-.86-4.7-1.36-1.26-.45-1.65,0-2,1.21-1.31,5.08-2.73,10.13-4,15.21-.48,1.84.78,2.93,2.12,3.76s2.46.24,3.47-.84c1.3-1.4,2.67-2.74,4-4.06.88-.85,1.36-2,.62-2.87C104.13,54.92,105,51.35,107.54,47.58Zm-.21,84.67c.54,2.26-1.64,6.26,3.65,5.45,2.45-.37,5.68,1.15,7-2s-1.85-4.56-3.57-6.32c-1.47-1.51-2.69-4.2-5.47-2.94C106.35,127.59,107.76,130.23,107.33,132.25Zm25.42-24.66h-3.13c-1.49,0-2.91.12-3.54,1.75s.28,2.69,1.36,3.73c1.54,1.48,3,3,4.56,4.5s3.06,1.48,4.31-.17c2.08-2.73,1.51-6.05.9-8.92C136.79,106.5,134.07,108.08,132.75,107.59Zm23.18-69.36c.52-8.29-1.62-10.37-9.19-9.27a8.92,8.92,0,0,1,1,8A8.5,8.5,0,0,1,155.93,38.23Zm1.07,102c-4.5-2.5-8.92-2.42-13.63-1C146.81,143.79,150.1,144,157,140.22ZM140.09,157c3.59-6.88,3.32-10.16-.92-13.27C137.56,147.75,137.82,152.15,140.09,157Z"/><path class="cls-1" d="M165.24,184.85a20.55,20.55,0,0,1-10.17-2.77l-.49-.29c-1-.61-1.74-1-2.94-.5-17.06,7.9-31.74.94-43.86-6.92-4.61-3-6.68-7.05-6.5-12.76.22-7,.18-14.08.13-20.94,0-2.94,0-5.88,0-8.82a8.43,8.43,0,0,0-.05-.86,4.37,4.37,0,0,1,.16-2.19c1.72-3.87-.3-6-3.33-8.66a67,67,0,0,1-4.88-4.83c-3-3.15-2.92-6,.08-9.14,4.49-4.61,8.64-8.76,12.7-12.69,3-2.86,5.87-2.89,8.91-.08a40.31,40.31,0,0,1,3.11,3.38c2,2.4,4,4.67,6.31,5.26s5.24.33,8.23,0c1.55-.15,3.15-.3,4.69-.32,4-.05,8.65-.09,13.29,0,1.64,0,2.33-.23,2.53-2a64.27,64.27,0,0,0,0-14.54c-.19-1.65-.71-2.12-2.46-2.09-3.45,0-7,0-10.35,0s-6.73,0-10.1,0-7.77-.53-9.76-5.47.82-8.31,3.09-10.43c.74-.69,1.44-1.4,2.14-2.12.55-.56,1.11-1.13,1.67-1.67,2.17-2.1,4.3-3.13,6.46-3.08a7.46,7.46,0,0,1,5.26,2.69c2.38,2.55,4.5,2.49,7.68,1.31A61.37,61.37,0,0,0,119.92,37.7a1.46,1.46,0,0,0-1-.25c-.22.07-.45.37-.68.89-1.73,3.85-4,8.92-6.46,14-.5,1-.15,1.81.31,2.79.07.16.15.32.22.49,2,4.68,1.63,6.85-1.94,10.52-1,1-2.06,2.07-3.09,3.1l-.22.21c-3.89,3.86-7,4.44-11.11,2.08s-5.84-6.42-4.59-11.24c2.11-8.08,4.44-16.87,7.35-27.66,3.51-13,20.57-29.23,33.79-32A26.73,26.73,0,0,1,147.16,1.9a8.59,8.59,0,0,0,6.15.07A29,29,0,0,1,168.38.4c10.71,2,17.59,11.45,16,22-1.2,8-2,15.32,0,23.14,1.36,5.32-.52,10.72-2.34,15.94l-.27.78a4,4,0,0,1-1.86,2.4,2.94,2.94,0,0,1-2.3.06c-1.16-.41-2.93-1.57-1.83-4.76,1.91-5.53,2.61-10.15,2.21-14.55,0-.19,0-.38,0-.57a4.51,4.51,0,0,0-.56-2.31A117,117,0,0,1,165,57.48c-1.41,1.46-1.88,3.33-2.38,5.32-.14.56-.28,1.12-.44,1.66-.92,3.15-2.66,4.65-5.64,4.87a3.1,3.1,0,0,0-2.21.81c-.52.66-.37,1.72-.22,2.84a7.7,7.7,0,0,1,.11,2.28,1.78,1.78,0,0,0,.14,1.31c.31.35,1.07.32,1.82.29.32,0,.64,0,.93,0s.73,0,1.09,0a7.58,7.58,0,0,1,1.84.06c4.41.83,7.57-.84,9.95-5.25a5.54,5.54,0,0,1,2.62-2.82,2.88,2.88,0,0,1,3.46.85,3,3,0,0,1,.24,3.91c-3.14,5.06-6.71,10.8-14.64,9.61a2.13,2.13,0,0,0-1.77.26,2.57,2.57,0,0,0-.28,2.08,52.67,52.67,0,0,1,0,14.08,2.29,2.29,0,0,0,.29,1.87,1.92,1.92,0,0,0,1.63.25c6.79-1,10.57,3.15,13.37,7.37a57.23,57.23,0,0,1,9.59,25c.65,5.27-.35,10.83-3.07,17a3.75,3.75,0,0,0,.3,4.07,19.46,19.46,0,0,1-2.89,24A19.13,19.13,0,0,1,165.24,184.85Zm-12.57-4.8a4.68,4.68,0,0,1,2.43.89l.46.27c7.63,4.33,16.47,3.26,22.52-2.73a18.48,18.48,0,0,0,2.75-22.76,4.75,4.75,0,0,1-.36-5c2.64-6,3.62-11.36,3-16.45A56.19,56.19,0,0,0,174,109.66c-2.75-4.16-6.16-7.87-12.38-6.93a2.77,2.77,0,0,1-2.48-.52,3.08,3.08,0,0,1-.58-2.72,51.49,51.49,0,0,0,0-13.81c-.2-1.41,0-2.34.57-2.93a2.92,2.92,0,0,1,2.62-.54c7.28,1.1,10.52-4.11,13.64-9.15a2,2,0,0,0-.13-2.7,1.88,1.88,0,0,0-2.33-.61,4.69,4.69,0,0,0-2.13,2.37c-2.58,4.79-6.18,6.67-11,5.76a6.58,6.58,0,0,0-1.61,0c-.4,0-.79,0-1.19,0s-.55,0-.84,0a3.14,3.14,0,0,1-2.61-.63,2.51,2.51,0,0,1-.38-2.14,6.84,6.84,0,0,0-.11-2c-.18-1.28-.37-2.61.44-3.61a3.91,3.91,0,0,1,2.91-1.18c2.57-.18,3.94-1.39,4.75-4.15.16-.53.3-1.07.43-1.62.51-2,1-4.13,2.63-5.78a114.33,114.33,0,0,0,12.69-15.34l.36-.53.43.48a5,5,0,0,1,1.2,3.43c0,.18,0,.36,0,.54.41,4.55-.31,9.3-2.27,15-.84,2.45.29,3.17,1.22,3.49a1.92,1.92,0,0,0,1.53,0A3.09,3.09,0,0,0,180.79,62l.28-.78c1.77-5.08,3.6-10.33,2.31-15.36-2-8-1.21-15.4,0-23.54,1.5-10-5-19-15.2-20.9a28.06,28.06,0,0,0-14.56,1.52,9.58,9.58,0,0,1-6.81-.07,25.74,25.74,0,0,0-14.17-1.3c-12.93,2.76-29.6,18.57-33,31.33-2.9,10.79-5.24,19.58-7.34,27.65-1.15,4.41.28,7.91,4.12,10.12s6.31,1.64,9.91-1.92l.21-.21c1-1,2.07-2.05,3.08-3.09,3.31-3.41,3.62-5.08,1.74-9.42l-.21-.47a3.88,3.88,0,0,1-.3-3.64c2.42-5,4.72-10.11,6.45-14a2.43,2.43,0,0,1,1.26-1.43,2.32,2.32,0,0,1,1.84.31A62.47,62.47,0,0,1,147.91,64.5l.25.5-.52.2c-3.21,1.26-6.13,2-9.29-1.37a6.51,6.51,0,0,0-4.56-2.37c-1.82-.05-3.76.89-5.73,2.8q-.84.81-1.65,1.65c-.7.71-1.43,1.45-2.17,2.15-3.32,3.09-4.2,6-2.85,9.33s4,4.91,8.82,4.84c3.37,0,6.8,0,10.11,0s6.89,0,10.33,0c2.26,0,3.23.8,3.47,3a65.14,65.14,0,0,1,0,14.77c-.28,2.45-1.62,2.93-3.56,2.88-4.62-.11-9.29-.07-13.25,0-1.49,0-3.07.17-4.6.32-3,.28-6,.57-8.57-.07s-4.78-3.17-6.83-5.58a38.6,38.6,0,0,0-3-3.29c-2.65-2.45-5-2.43-7.54,0-4,3.93-8.19,8.07-12.67,12.67-2.62,2.7-2.64,5-.07,7.76a65.18,65.18,0,0,0,4.8,4.77c2.56,2.21,5.75,5,3.6,9.82a3.56,3.56,0,0,0-.08,1.69c0,.32.05.64.05.95,0,2.94,0,5.87,0,8.81,0,6.88.09,14-.13,21-.17,5.4,1.69,9.07,6,11.89,11.88,7.71,26.27,14.55,42.89,6.86A3.34,3.34,0,0,1,152.67,180.05Zm12.37-.63a13.81,13.81,0,0,1-9-3.33,82.84,82.84,0,0,1-7.95-7.85,10.82,10.82,0,0,1-1.68-12.85c1.22-2.37,1.74-4.42.61-7.3l-.38-1,1,.3a9.25,9.25,0,0,0,7.49-.74c4.92-2.33,9.55-1.56,13.41,2.23l1.34,1.32c1.84,1.79,3.73,3.64,5.49,5.57A14.11,14.11,0,0,1,165,179.42ZM148.3,148.63a9,9,0,0,1-1,7.22,9.76,9.76,0,0,0,1.53,11.73,82.87,82.87,0,0,0,7.85,7.74,12.87,12.87,0,0,0,17.78-1,13.08,13.08,0,0,0,.17-17.83c-1.74-1.91-3.62-3.75-5.45-5.53l-1.34-1.32a10.17,10.17,0,0,0-12.28-2A10.29,10.29,0,0,1,148.3,148.63Zm-11.49,30.7a32,32,0,0,1-7.78-1,51.69,51.69,0,0,1-19.66-9.62,6.05,6.05,0,0,1-2.53-5.28c.09-3.54.08-7.16.07-10.65,0-2.18,0-4.37,0-6.56,0-.2,0-.42,0-.64a2.8,2.8,0,0,1,.47-2.26,2.4,2.4,0,0,1,1.92-.57h1c1.62,0,3.63-.08,4.07,2.95.35,2.47.86,5,1.34,7.38.31,1.52.61,3,.88,4.56A3.68,3.68,0,0,0,119.4,161c1.58.44,3.15,1,4.67,1.53.93.33,1.87.66,2.81,1,2.2.71,2.87-.37,3.19-1.24s.48-2.11-1.7-2.94c-1.26-.47-2.58-.89-3.85-1.29l-1.9-.61a2.76,2.76,0,0,1-2.08-2.45,2.53,2.53,0,0,1,1.52-2.76c2.37-1.31,4.72-2.68,7.21-4.14l3.06-1.78.78-.45,0,.89a27.08,27.08,0,0,0,4.69,16.37,61.44,61.44,0,0,0,7.19,8.3c1.34,1.38,2.73,2.81,4.06,4.3l.44.49-.59.29A27,27,0,0,1,136.81,179.33Zm-27.75-35.6a1.36,1.36,0,0,0-1,.27c-.28.29-.23.9-.19,1.5q0,.38,0,.72c0,2.18,0,4.37,0,6.55,0,3.5,0,7.12-.07,10.68a5.08,5.08,0,0,0,2.15,4.47,50.87,50.87,0,0,0,19.28,9.43,27,27,0,0,0,18.56-1.48c-1.18-1.3-2.4-2.55-3.58-3.77a62.37,62.37,0,0,1-7.31-8.44,27.85,27.85,0,0,1-4.87-16.07l-2.3,1.35c-2.49,1.45-4.85,2.83-7.23,4.14a1.56,1.56,0,0,0-1,1.78,1.77,1.77,0,0,0,1.4,1.61l1.88.6c1.29.41,2.61.83,3.9,1.32,2.16.82,3,2.31,2.29,4.21s-2.25,2.56-4.43,1.85c-1-.3-1.9-.64-2.84-1-1.5-.53-3-1.08-4.6-1.5a4.68,4.68,0,0,1-3.61-4.18c-.27-1.51-.57-3-.88-4.53-.49-2.43-1-4.94-1.35-7.44-.31-2.15-1.41-2.13-3.06-2.09h-1.18Zm31,14.44-.43-.92c-2.29-4.94-2.6-9.54-.92-13.67L139,143l.52.38c4.49,3.3,4.76,6.81,1.06,13.9Zm-.66-13.59c-1.22,3.47-1,7.18.72,11.29C142.92,150.19,142.74,147.28,139.4,144.58Zm35.88,4.19c-1.16,0-2.36-1.44-3.62-3a20.33,20.33,0,0,0-1.81-2l-.32-.29c-5.06-4.54-9.83-8.83-16.62-10a40.55,40.55,0,0,0-4.11-.41c-.7,0-1.42-.1-2.17-.17l-.78-.06.39-.68,1.7-2.92c1.4-2.39,2.73-4.65,4-7a2.47,2.47,0,0,1,2.69-1.62,2.86,2.86,0,0,1,2.48,2.05c.26.76.5,1.52.74,2.28.36,1.15.74,2.33,1.16,3.47.94,2.57,2.38,2.06,2.85,1.89a2.39,2.39,0,0,0,1.5-1.21,2.72,2.72,0,0,0-.19-2.16,1.77,1.77,0,0,1-.16-.46c-1.32-7.77-4.92-11.17-11.68-11a9.63,9.63,0,0,1-2.88-.51,10.73,10.73,0,0,0-2.39-.47c-3.78-.12-3.75-2.82-3.74-4.79a3,3,0,0,1,.78-2.3,3.26,3.26,0,0,1,2.61-.45c.31,0,.62.06.89.06,2.91,0,5.87,0,8.74,0,2.58,0,5.17,0,7.75,0,1.72,0,3.5.2,4.85,1.93,6.93,8.87,10.55,17.81,11.08,27.34a22.53,22.53,0,0,1-.09,3.65l-.08.8c-.28,3-.6,6.41-2.8,7.77A1.47,1.47,0,0,1,175.28,148.77ZM147.5,132l1.36.1c1.47.1,2.85.19,4.21.42,7.08,1.2,12.18,5.79,17.13,10.22l.32.29a22.13,22.13,0,0,1,1.9,2.1c1.09,1.3,2.43,2.93,3.09,2.53,1.78-1.1,2.08-4.24,2.34-7l.07-.8a20.73,20.73,0,0,0,.09-3.5c-.51-9.31-4.07-18.07-10.87-26.77-1-1.31-2.38-1.57-4-1.55-2.59,0-5.18,0-7.76,0-2.86,0-5.82,0-8.72,0-.32,0-.66,0-1-.06-.75-.08-1.46-.15-1.85.2a2.18,2.18,0,0,0-.44,1.56c0,2.51.25,3.7,2.77,3.78a11.15,11.15,0,0,1,2.62.51,9.29,9.29,0,0,0,2.6.47c7.23-.15,11.29,3.61,12.69,11.85a.83.83,0,0,0,.08.22,3.67,3.67,0,0,1,.2,3,3.36,3.36,0,0,1-2.08,1.76c-1.85.65-3.31-.23-4.13-2.48-.43-1.16-.81-2.36-1.17-3.52-.24-.75-.48-1.51-.74-2.26a1.84,1.84,0,0,0-1.66-1.38c-.86-.11-1.2.24-1.68,1.12-1.28,2.3-2.6,4.57-4,7C148.38,130.54,148,131.29,147.5,132Zm-27.2,16.09a.84.84,0,0,1-.27,0,1.29,1.29,0,0,1-.83-.89c-.08-.19-.17-.4-.25-.62-.6-1.44-1.42-3.42-.09-4.68a55.52,55.52,0,0,0,6-7,57.1,57.1,0,0,1,6.22-7.25,37.29,37.29,0,0,1,4.38-3.34,24.51,24.51,0,0,0,6-5.12c.95-1.25,2.31-.84,3.64-.44a6.54,6.54,0,0,0,2.65.44l.91-.1-.42.82a62.14,62.14,0,0,1-26.27,27.34,1.93,1.93,0,0,0-.33.24A2.24,2.24,0,0,1,120.3,148.13Zm22.81-28.76a1.08,1.08,0,0,0-.92.45,25.83,25.83,0,0,1-6.2,5.34,35.1,35.1,0,0,0-4.27,3.25,55.34,55.34,0,0,0-6.1,7.12,57.13,57.13,0,0,1-6.07,7.1c-.83.78-.22,2.26.32,3.57l.26.64c.09.25.17.29.17.29s.5-.28.66-.41a4.62,4.62,0,0,1,.47-.33,61.08,61.08,0,0,0,25.49-26.18,10.15,10.15,0,0,1-2.17-.48A6.29,6.29,0,0,0,143.11,119.37Zm6.24,24c-2.5,0-4.45-1.27-6.38-3.85l-.43-.58.68-.2c5.37-1.61,9.83-1.27,14,1.06l.79.44-.79.43C154,142.45,151.47,143.36,149.35,143.36Zm-5.13-3.88c3,3.62,5.89,3.8,11.71.75C152.38,138.5,148.71,138.27,144.22,139.48Zm-34.47-1.17a3,3,0,0,1-2.16-.67c-.89-.81-.8-2.11-.72-3.37a6.6,6.6,0,0,0,0-1.9l0-.11,0-.11a7.1,7.1,0,0,0,0-1.91c-.1-1.56-.22-3.33,1.85-4.27,2.57-1.16,4,.63,5.2,2.07.28.34.55.68.84,1a16,16,0,0,0,1.26,1.11c1.59,1.31,3.58,3,2.42,5.75-1.07,2.58-3.29,2.44-5.25,2.31a10.15,10.15,0,0,0-2.14,0A9.11,9.11,0,0,1,109.75,138.31Zm-1.91-6.06a8.08,8.08,0,0,1,0,2.09c-.07,1.07-.14,2.08.39,2.57s1.33.5,2.64.3a10.85,10.85,0,0,1,2.35,0c1.87.12,3.47.22,4.26-1.71.88-2.11-.51-3.26-2.13-4.59a15.36,15.36,0,0,1-1.34-1.19c-.3-.31-.6-.67-.9-1-1.33-1.64-2.26-2.58-4-1.79-1.37.62-1.37,1.66-1.26,3.3A8.44,8.44,0,0,1,107.84,132.25Zm14.53-3.13h0c-1,0-2-.62-3.19-2l-.62-.7c-2.85-3.22-5.55-6.27-10.56-5.25-1.37.28-2.3-.9-3.12-2a12.79,12.79,0,0,0-.83-1c-.65-.63-1.42-1.27-2.24-1.94-2.14-1.78-4.35-3.61-4.35-5.56s2.18-3.79,4.29-5.55c.79-.66,1.61-1.35,2.26-2s1.09-1.19,1.67-1.88c1.55-1.82,3.15-3.72,4.89-3.72s3.61,2.13,5.31,4.21c.42.5.82,1,1.21,1.43a10.67,10.67,0,0,0,1.5,1.31c1.51,1.17,3.22,2.49,2.28,5-.27,3.77,1.84,5.83,4.07,8l.65.64c4.13,4.12,4.14,4.44.41,8.5l-.35.38C124.35,128.52,123.38,129.12,122.37,129.12ZM109.9,120c4.28,0,6.87,2.94,9.4,5.8l.62.7c1,1.1,1.76,1.62,2.44,1.63h0c.7,0,1.46-.51,2.53-1.68l.36-.39c1.62-1.77,2.51-2.74,2.47-3.51s-1-1.79-2.86-3.61l-.64-.63c-2.31-2.26-4.69-4.6-4.36-8.87l0-.15c.7-1.77-.28-2.64-1.93-3.92a11.84,11.84,0,0,1-1.64-1.43c-.4-.45-.81-1-1.23-1.47-1.48-1.8-3.15-3.84-4.53-3.84h0c-1.27,0-2.72,1.71-4.12,3.37-.57.67-1.16,1.36-1.73,1.93s-1.52,1.39-2.33,2.06c-1.93,1.62-3.93,3.3-3.93,4.79s2,3.16,4,4.79c.8.65,1.62,1.33,2.3,2a12.4,12.4,0,0,1,.92,1.08c.82,1,1.41,1.72,2.13,1.58A10.07,10.07,0,0,1,109.9,120Zm24.32-.89a3.84,3.84,0,0,1-2.56-1.17c-.89-.83-1.76-1.71-2.61-2.56-.64-.65-1.29-1.31-2-1.94-1.1-1.07-2.21-2.36-1.48-4.27.83-2.14,2.91-2.1,4-2.07h3.21l.08,0a4.12,4.12,0,0,0,1.59,0c1.19-.18,2.82-.42,3.19,1.3.68,3.17,1.16,6.5-1,9.32a3.18,3.18,0,0,1-2.27,1.39Zm-4.87-11c-1.43,0-2.35.27-2.8,1.44s.07,2.06,1.24,3.19c.67.64,1.32,1.3,2,2,.84.84,1.7,1.71,2.58,2.53a2.8,2.8,0,0,0,2,.9,2.25,2.25,0,0,0,1.55-1c1.9-2.48,1.44-5.56.81-8.5-.15-.69-.62-.74-2.07-.52a4.73,4.73,0,0,1-2,0h-3.32Zm16.72-30.19h-.36c-1.92-.07-3.87-.06-5.77,0h-4.73c-1.75,0-3.5,0-5.25,0-1.6,0-3.56,0-4.36-2.11s.73-3.52,1.55-4.28c.35-.33.69-.67,1-1l.49-.5c2.38-2.38,3.56-3.58,4.89-3.53s2.47,1.38,4.55,3.79c1.36,1.57,2.84,1.23,4.55.83.31-.08.63-.15.94-.21l.25,0c2.49-.49,3.63-.71,4.35-.1s.68,1.73.63,4v.37a3,3,0,0,1-.73,2.22A2.79,2.79,0,0,1,146.07,77.89Zm-3.69-1c1.12,0,2.24,0,3.36,0a2.32,2.32,0,0,0,1.66-.33,2.14,2.14,0,0,0,.41-1.51v-.38c0-1.76.07-2.93-.27-3.22s-1.61,0-3.51.32l-.26,0-.9.2c-1.78.42-3.78.89-5.53-1.14s-2.95-3.41-3.84-3.45-2,1.13-4.14,3.24l-.48.49c-.35.35-.69.71-1.06,1-1.17,1.09-1.76,2-1.3,3.2.53,1.41,1.63,1.47,3.36,1.47s3.57,0,5.32,0h7.17ZM100.2,67.29a2.82,2.82,0,0,1-1.5-.46c-1.38-.86-2.9-2.13-2.34-4.32.64-2.47,1.31-4.94,2-7.42s1.4-5.18,2.07-7.78a2.33,2.33,0,0,1,1-1.59,2,2,0,0,1,1.65,0c1,.34,2,.62,3.07.91l1.59.45.67.18-.39.58c-2.83,4.2-3,7.33-.45,10.45.81,1,.56,2.38-.67,3.55s-2.69,2.61-4,4A3.63,3.63,0,0,1,100.2,67.29Zm1.86-20.73a.53.53,0,0,0-.23,0c-.17.09-.32.4-.46.95-.67,2.61-1.37,5.21-2.07,7.81s-1.33,4.93-2,7.4C97,64,97.56,64.94,99.23,66c1,.59,1.8.36,2.84-.76,1.35-1.45,2.76-2.82,4.07-4.08.4-.38,1.25-1.36.58-2.2-2.68-3.33-2.68-6.77,0-11.07l-.94-.25c-1.09-.3-2.13-.58-3.13-.93A2,2,0,0,0,102.06,46.56Zm52.06,17.69a2.32,2.32,0,0,1-2.11-1.6,4,4,0,0,0-.42-.71A5.62,5.62,0,0,1,150,57.69a5.88,5.88,0,0,1,2.75-3.8,19.31,19.31,0,0,0,2.87-2.73c.46-.5.93-1,1.41-1.48a13.83,13.83,0,0,0,4.31-11.58c-.24-2.66-.6-5.37-1-8-.14-1.12-.29-2.24-.43-3.36a2,2,0,0,0-1.8-2c-3.81-.5-7.75-1-11.7-1.4A13.68,13.68,0,0,0,134.69,28c-.69.73-1.43,1.44-2.14,2.12a40.82,40.82,0,0,0-3.1,3.21c-1.85,2.24-3.61,1.63-5.24.63-.64-.4-1.31-.9-1.38-1.61a2.35,2.35,0,0,1,1-1.79c1.66-1.54,3.32-3.14,4.92-4.69,4.66-4.5,9.47-9.14,14.94-12.92,6.88-4.75,13.18-7.11,19.24-7.22,5.43-.24,9.84,1.42,12.75,4.8,3.12,3.62,4.17,9,3,15-2.06,10.44-8.29,18.17-14.11,24.37-3.13,3.33-6.37,6.78-7.24,11.65a3.07,3.07,0,0,1-2.79,2.72ZM145,22.3c.54,0,1.09,0,1.64.08,4,.4,7.91.91,11.73,1.41A3,3,0,0,1,161,26.64c.14,1.12.29,2.23.43,3.35.35,2.62.71,5.34,1,8a14.81,14.81,0,0,1-4.61,12.38c-.47.47-.92,1-1.38,1.45a20,20,0,0,1-3,2.86A5,5,0,0,0,151,57.82a4.73,4.73,0,0,0,1.35,3.5,4.6,4.6,0,0,1,.53.87c.4.78.64,1.15,1.49,1a2.08,2.08,0,0,0,1.94-1.9c.91-5.17,4.26-8.73,7.5-12.17,5.72-6.09,11.84-13.69,13.85-23.87,1.13-5.75.15-10.78-2.76-14.16-2.71-3.14-6.83-4.68-12-4.45h0c-5.86.1-12,2.4-18.69,7-5.4,3.73-10.19,8.35-14.82,12.82-1.6,1.55-3.27,3.16-4.93,4.7-.59.55-.7.83-.69,1s.19.4.92.85c1.58,1,2.62,1.18,3.94-.41a36.79,36.79,0,0,1,3.18-3.3c.7-.68,1.43-1.37,2.11-2.09A14.67,14.67,0,0,1,145,22.3Zm1.92,30.63h-.07a2.23,2.23,0,0,1-1.51-1,64.79,64.79,0,0,0-12.51-12.52,2.21,2.21,0,0,1-1.09-1.56,1.88,1.88,0,0,1,.77-1.44c.92-.85,1.82-1.77,2.69-2.67A36.07,36.07,0,0,1,140.42,29l.43-.3.28.45a10.14,10.14,0,0,1,1.69,7.48c-.32,1.92-.1,3.27.67,4.13S145.78,42,148,41.9c4-.22,4.09-.21,7.47,1.65l.49.26-.31.45a33.14,33.14,0,0,1-4.73,5.26c-.88.84-1.78,1.71-2.61,2.61A2,2,0,0,1,146.87,52.93Zm-6.32-22.84a37.93,37.93,0,0,0-4.68,4.33c-.88.9-1.79,1.84-2.74,2.71-.29.26-.45.5-.44.66s.4.58.7.8a66.47,66.47,0,0,1,12.7,12.71c.31.41.57.62.76.63s.43-.15.73-.47c.84-.93,1.76-1.81,2.65-2.66a35.62,35.62,0,0,0,4.28-4.64c-2.7-1.47-2.89-1.46-6.46-1.26-2.53.13-4.27-.36-5.3-1.52s-1.29-2.71-.92-5A9,9,0,0,0,140.55,30.09ZM108.68,42.7a6.36,6.36,0,0,1-2.31-.62,6.58,6.58,0,0,0-1.6-.52,2.55,2.55,0,0,1-2-1,3,3,0,0,1,0-2.53c.09-.3.18-.59.24-.87,3.06-15.52,14.77-23.36,26.5-30.07,3.91-2.24,8.28-1.9,14.05-.63l1.17.25-1,.66c-6.52,4.22-11.84,9.28-17,14.17-2,1.87-4,3.79-6,5.62-3.61,3.24-7.55,7.3-9.4,12.91a3.66,3.66,0,0,1-1.74,2.38A2.29,2.29,0,0,1,108.68,42.7ZM136.24,6.5A11.92,11.92,0,0,0,130.1,8c-11.53,6.59-23,14.29-26,29.39a9.33,9.33,0,0,1-.26,1c-.2.66-.41,1.34-.17,1.69a1.85,1.85,0,0,0,1.24.52,7.69,7.69,0,0,1,1.86.58,3.46,3.46,0,0,0,2.5.43,2.8,2.8,0,0,0,1.21-1.78c1.92-5.83,6-10,9.69-13.34,2-1.82,4-3.74,6-5.6,4.91-4.67,10-9.5,16.12-13.63A30.74,30.74,0,0,0,136.24,6.5Zm20.13,32.64-.72-.5a8,8,0,0,0-7.77-1.18l-.95.32.32-1a8.42,8.42,0,0,0-.93-7.6l-.41-.65.76-.11c4.06-.59,6.42-.26,7.92,1.12s2.13,4.05,1.84,8.67Zm-5.59-3.2a8.91,8.91,0,0,1,4.69,1.4c.16-3.71-.34-5.89-1.56-7s-3.12-1.37-6.36-1a9.28,9.28,0,0,1,.91,6.89A9.43,9.43,0,0,1,150.78,35.94Z"/><path class="cls-1" d="M9.09,35.48c-4.42,9.4-3.5,17.83,0,26.13,1.27,3,4.48,3.84,8,2.44,2.89-1.14,5.13-2.72,3.71-6.46-.68-1.77.2-3.11,1.94-3.6s2.71.63,3.25,2.08c.71,1.89,1.28,3.84,1.89,5.77a2.67,2.67,0,0,0,2.43,1.81c1.29.21,1.6-.74,2-1.59A66.73,66.73,0,0,1,62,32.43c.91-.47,1.66-.88,1.55-2.09A2.46,2.46,0,0,0,61.77,28C59.84,27.35,57.91,26.74,56,26c-1.48-.55-2.46-1.58-2-3.29.51-1.87,1.89-2.21,3.65-1.88,3.61.68,5.52-.54,6.55-4.07,1.11-3.81,0-6.73-3.36-8A33.8,33.8,0,0,0,45.1,6.26c-1.87.2-4.13.66-4.53-2.09-.42-2.95,2-3.32,4-3.41C58.42.15,70.17,5.36,80.43,14.3,83,16.54,82.94,19.88,82.75,23c-.14,2.23.58,3,2.85,2.62a36.19,36.19,0,0,1,5-.49c2.13-.12,4.45,0,4.46,2.79,0,2.52-2.14,2.76-4.17,2.8s-3.82.16-5.73.28c-1.7.12-2.46.94-2.4,2.77.13,4.47,0,8.58,3,12.79C91.14,54.32,87.3,62.81,78,65.28a6.62,6.62,0,0,0-3.3,2c-4,4.4-8.64,8.07-10.83,14.27-2.51,7.08-11.62,8.85-18.14,3.72C41.54,82,37.22,83,32.83,82.73c-1.57-.1-1.51,1.15-1.73,2.18-.7,3.31-.46,6.67-.46,10,0,2,.14,4.14-2.6,4.19S25.2,96.91,25.2,95c0-3.22.12-6.45.4-9.66.18-2.07-.52-2.94-2.56-2.64-5.94.86-9.57-2.28-12.65-6.88A57.26,57.26,0,0,1,.69,50.71C0,44.86,1.37,39.3,3.73,34a4.24,4.24,0,0,0-.34-4.52A19,19,0,0,1,33,6.13c2.42,2.31,4.81,4.66,7.08,7.12,4.68,5.1,6.26,10.9,3.43,17.47a8.18,8.18,0,0,0-.39,4.51c.59,4.85-2.42,8.18-7.3,7.88a16.5,16.5,0,0,0-6.57,1c-6,2-11.3.27-15.88-3.82A60.52,60.52,0,0,1,9.09,35.48ZM20.66,6.13C13.44,6.11,8,10.24,6.44,16.19s2.28,14.4,7.83,17.16A3.17,3.17,0,0,0,19,30.77c.46-3.08,1.84-3.65,4.69-2.91,3.2.84,4.92-.91,4.12-4.07-.69-2.75-.31-4.25,2.91-4.69,2.75-.38,3.91-3.05,2.26-5.07C29.57,9.83,25.79,5.93,20.66,6.13ZM50.53,66.91c1.22.64,2-.41,2.85-1.25,1.78-1.76,3.31-3.89,5.36-5.25,7.93-5.27,9.27-12.3,6.42-20.87-.58-1.73-.85-2.25-2.49-1.33a62.18,62.18,0,0,0-24.46,24.5c-.81,1.47-.52,2.18,1.14,2.43C43,65.69,46.65,66.29,50.53,66.91ZM58.2,80.57c-6-2.18-6-2.18-9.14-7.55A2.76,2.76,0,0,0,47,71.82c-7.7-1.8-15.89-1.33-23.21-4.95-.23-.11-.72.09-1,.29-2.64,2.14-5.91,2.63-9.1,3.27,2.2,5.12,5.46,7.65,11.19,7,4.84-.52,9.79,0,14.69-.15,3.1-.09,5.62.46,8.08,2.73C51.24,83.35,54.49,83.29,58.2,80.57Zm12-67c-.08.93-.09,1.64-.22,2.33a6.94,6.94,0,0,1-.67,2.4c-1.94,3.09-1.94,6-.86,9.61C70,32.81,70.43,38,71.17,43.08c.47,3.19.56,6.25,4.81,7.15,1.89.41,2.89,2.72,3.48,4.74.31,1,.61,2.09,1,3.35,2.92-3.86,2.72-7.25-.84-11.16a8.46,8.46,0,0,1-2.39-6.42c.16-5.38-.4-10.81.17-16.13C78,18.92,75.29,15.94,70.25,13.6ZM20.49,38.47a9.18,9.18,0,0,0,8.85-.31,6.17,6.17,0,0,1,5.43-.6c2.49.9,3.59-.42,2.77-2.69s-.23-3.84.72-5.74a9.18,9.18,0,0,0,.13-8.63c-2.5,2.09-5,3.73-5.43,7.43a5.79,5.79,0,0,1-5,5C24.26,33.34,22.58,35.84,20.49,38.47ZM74.4,57.9a3,3,0,0,0-1.47-3.1c-1.12-.54-1.65.68-2.26,1.29Q63.29,63.36,56,70.73c-.61.62-1.78,1.16-1.24,2.29a3.11,3.11,0,0,0,2.7,1.48,4.91,4.91,0,0,0,4.07-1.82L72.67,61.57C73.7,60.53,74.55,59.41,74.4,57.9Z"/><path class="cls-1" d="M27.94,99.62a3.08,3.08,0,0,1-2.23-.79c-.93-.91-1-2.39-1-3.82,0-3.32.13-6.59.4-9.7.08-.94,0-1.57-.35-1.86a2,2,0,0,0-1.63-.25c-6.75,1-10.43-3-13.15-7.09A57.39,57.39,0,0,1,.19,50.77c-.65-5.3.36-10.85,3.08-17A3.74,3.74,0,0,0,3,29.74a19.49,19.49,0,0,1,30.38-24c2.18,2.07,4.72,4.54,7.1,7.14,5.1,5.55,6.29,11.61,3.53,18a7.64,7.64,0,0,0-.35,4.25,7.68,7.68,0,0,1-1.78,6.33,7.51,7.51,0,0,1-6.05,2.11,16,16,0,0,0-6.38,1c-5.75,2-11.26.64-16.37-3.91a27.34,27.34,0,0,1-2.76-3l-1-1.25c-3.59,8.06-3.47,16,.36,25,1.12,2.65,4,3.5,7.38,2.18,2.94-1.16,4.65-2.6,3.42-5.82a3.16,3.16,0,0,1,0-2.58,3.4,3.4,0,0,1,2.24-1.68c1.7-.49,3.11.38,3.86,2.38.53,1.41,1,2.87,1.42,4.28l.48,1.52c.27.85.86,1.27,2,1.47.75.12,1-.23,1.37-1l.14-.27A67.55,67.55,0,0,1,61.81,32c1-.49,1.36-.78,1.28-1.6a2,2,0,0,0-1.47-1.94L61,28.25c-1.71-.54-3.48-1.1-5.2-1.74-2-.73-2.79-2.11-2.31-3.89s2-2.67,4.24-2.24c3.33.63,5-.42,6-3.72,1.05-3.62,0-6.25-3.06-7.41A33.37,33.37,0,0,0,45.15,6.76l-.4,0c-1.79.2-4.24.48-4.67-2.56a3.23,3.23,0,0,1,.58-2.65C41.53.53,43.1.33,44.53.26c13.17-.57,25,3.89,36.23,13.66,2.67,2.33,2.7,5.64,2.49,9.12-.07,1,.06,1.65.39,1.94s.93.34,1.87.16a36.25,36.25,0,0,1,4.74-.48l.31,0c1.54-.09,3.11,0,4.09.89a3.11,3.11,0,0,1,.9,2.4c0,3.21-3,3.27-4.66,3.3-1.83,0-3.59.14-5.71.28-1.46.1-2,.71-1.93,2.26l0,1c.11,4,.2,7.75,2.84,11.52S89.37,54,88,57.58c-1.42,3.91-5,6.89-9.91,8.19a6,6,0,0,0-3.06,1.85c-.83.9-1.69,1.77-2.54,2.64-3.33,3.41-6.48,6.63-8.19,11.46a10.36,10.36,0,0,1-7,6.53,13.37,13.37,0,0,1-11.92-2.59c-3.09-2.42-6.21-2.41-9.56-2.38-1,0-2,0-3.06,0-.82-.06-.95.27-1.12,1.31l-.09.48a35.34,35.34,0,0,0-.47,7.88c0,.67,0,1.35,0,2v.28c0,1.83,0,4.35-3.09,4.41ZM23.75,82.15a2.35,2.35,0,0,1,1.69.57,3.12,3.12,0,0,1,.66,2.67c-.27,3.09-.41,6.33-.4,9.62,0,1.22.06,2.47.71,3.11a2.13,2.13,0,0,0,1.62.49c2,0,2.11-1.26,2.11-3.41v-.28c0-.67,0-1.34,0-2a36.3,36.3,0,0,1,.49-8.1c0-.14.06-.29.08-.44.15-.9.37-2.25,2.18-2.14,1,.06,2,0,3,0,3.34,0,6.82,0,10.18,2.6a12.4,12.4,0,0,0,11,2.41,9.23,9.23,0,0,0,6.33-5.91c1.79-5,5.16-8.48,8.43-11.82.84-.86,1.69-1.72,2.51-2.62a7.18,7.18,0,0,1,3.54-2.14c4.55-1.21,7.92-4,9.23-7.56,1.21-3.31.57-7-1.8-10.39-2.82-4-2.92-7.92-3-12.07l0-1c-.07-2.08.87-3.15,2.87-3.29s3.9-.25,5.75-.28c2.39-.05,3.69-.43,3.68-2.3A2.2,2.2,0,0,0,94,26.25c-.71-.67-2.1-.68-3.35-.61l-.31,0a33.8,33.8,0,0,0-4.61.46A3.08,3.08,0,0,1,83,25.73,3.2,3.2,0,0,1,82.25,23c.2-3.34.18-6.28-2.14-8.3-11-9.6-22.66-14-35.54-13.42-1.2.06-2.52.21-3.14,1a2.32,2.32,0,0,0-.36,1.88c.28,2,1.54,1.94,3.57,1.71l.41,0A34.37,34.37,0,0,1,61,8.31c3.53,1.36,4.86,4.5,3.66,8.63-1.1,3.78-3.3,5.14-7.12,4.42-1.77-.33-2.7.12-3.08,1.52-.13.47-.52,1.88,1.69,2.69,1.69.63,3.45,1.19,5.15,1.73l.58.18a3,3,0,0,1,2.17,2.81c.14,1.58-1,2.13-1.82,2.58A66.64,66.64,0,0,0,32.85,62.29l-.13.26c-.38.78-.91,1.85-2.43,1.59A3.18,3.18,0,0,1,27.47,62L27,60.47c-.44-1.4-.89-2.84-1.4-4.23s-1.46-2.11-2.66-1.77a2.53,2.53,0,0,0-1.62,1.17,2.18,2.18,0,0,0,0,1.77c1.62,4.27-1.28,6-4,7.11C13.43,66.06,10,65,8.67,61.81c-4.06-9.52-4.07-18,0-26.54L9,34.58l.5.57c.58.67,1.1,1.28,1.58,1.86a27.49,27.49,0,0,0,2.65,2.9c4.83,4.29,10,5.55,15.38,3.71a17.3,17.3,0,0,1,6.78-1,6.39,6.39,0,0,0,5.25-1.79,6.72,6.72,0,0,0,1.52-5.53,8.69,8.69,0,0,1,.42-4.77c2.59-6,1.46-11.7-3.34-16.93-2.37-2.58-4.9-5-7.06-7.1A18.49,18.49,0,0,0,3.82,29.22a4.75,4.75,0,0,1,.36,5c-2.64,5.94-3.62,11.32-3,16.44a56.44,56.44,0,0,0,9.63,24.9c3.6,5.39,7.24,7.38,12.16,6.66A5.54,5.54,0,0,1,23.75,82.15Zm29.33.9a8.47,8.47,0,0,1-5.76-2.64c-2.11-1.94-4.35-2.69-7.73-2.59-1.94.06-3.91,0-5.82,0a66.75,66.75,0,0,0-8.83.18c-5.63.6-9.26-1.66-11.7-7.34L13,70.07l1.44-.29c2.82-.56,5.74-1.13,8-3a1.6,1.6,0,0,1,1.5-.35c4.64,2.29,9.76,2.94,14.71,3.56a84.79,84.79,0,0,1,8.4,1.35,3.27,3.27,0,0,1,2.39,1.44c3,5.2,3,5.2,8.83,7.32l.89.32-.72.57A9.23,9.23,0,0,1,53.08,83.05ZM40.21,76.81A10.48,10.48,0,0,1,48,79.68c3,2.81,5.81,3.14,9.11,1-5.26-1.92-5.48-2.25-8.48-7.44-.38-.65-1-.79-1.75-1A81.6,81.6,0,0,0,38.57,71c-5-.63-10.23-1.28-15-3.65a2.08,2.08,0,0,0-.43.23c-2.51,2-5.54,2.63-8.48,3.21l-.23,0c2.25,4.86,5.41,6.71,10.42,6.17a69,69,0,0,1,9-.18c1.89,0,3.85.09,5.76,0ZM57.91,75a4.1,4.1,0,0,1-.49,0,3.48,3.48,0,0,1-3.09-1.77c-.6-1.24.32-2,.93-2.49.14-.12.28-.24.4-.36,5-5,9.91-10,14.65-14.65a4.14,4.14,0,0,0,.38-.43c.49-.61,1.23-1.54,2.45-.95.84.4,1.83,1.34,1.77,3.53a5.08,5.08,0,0,1-1.89,4L61.91,73A5.64,5.64,0,0,1,57.91,75ZM72.4,55.16c-.27,0-.51.24-.93.77-.15.18-.3.37-.45.52-4.75,4.68-9.67,9.61-14.65,14.64-.14.14-.31.28-.48.42-.71.58-.88.82-.66,1.29.34.7,1.07,1.08,2.3,1.2a4.45,4.45,0,0,0,3.67-1.68l11.11-11.1A4.14,4.14,0,0,0,73.91,58v-.07c0-1.34-.35-2.23-1.19-2.63A.67.67,0,0,0,72.4,55.16ZM51.27,67.62a2.08,2.08,0,0,1-.89-.22l-3.29-.53c-2.66-.43-5.23-.85-7.81-1.24a2.33,2.33,0,0,1-1.87-1,2.45,2.45,0,0,1,.36-2.15A62.89,62.89,0,0,1,62.43,37.78a2.35,2.35,0,0,1,1.93-.43c.68.26,1,1.08,1.27,2,3.13,9.4,1,16.41-6.61,21.44a19.89,19.89,0,0,0-3.6,3.4c-.54.6-1.11,1.22-1.69,1.8l-.29.29A3.28,3.28,0,0,1,51.27,67.62ZM63.9,38.26a2.47,2.47,0,0,0-1,.39A61.9,61.9,0,0,0,38.64,63c-.43.78-.39,1.1-.33,1.22s.5.37,1.12.46c2.58.39,5.16.81,7.82,1.24l3.52.59c.67.36,1.11,0,1.95-.85l.31-.31c.56-.56,1.11-1.17,1.65-1.77A21.25,21.25,0,0,1,58.47,60c7.25-4.81,9.22-11.26,6.21-20.29-.18-.56-.44-1.33-.68-1.42A.22.22,0,0,0,63.9,38.26ZM80.24,59.41,79,55.11c-.79-2.68-1.8-4.11-3.1-4.39-4.28-.91-4.7-3.93-5.1-6.86l-.1-.71c-.17-1.13-.32-2.27-.47-3.41A75.59,75.59,0,0,0,68,28.08c-1.22-4-1-7,.92-10a5.18,5.18,0,0,0,.51-1.76l.09-.47a14,14,0,0,0,.15-1.43c0-.26,0-.54.07-.85l.06-.71.64.3c5.78,2.68,8,6.12,7.42,11.51a75.42,75.42,0,0,0-.2,9.74c0,2.08.09,4.24,0,6.35A7.94,7.94,0,0,0,80,46.82c3.7,4.07,4,7.71.87,11.8Zm-9.54-45a.49.49,0,0,0,0,.12A13.75,13.75,0,0,1,70.52,16l-.08.46a6,6,0,0,1-.65,2.12c-1.72,2.74-2,5.4-.82,9.2A75.42,75.42,0,0,1,71.2,39.61c.15,1.13.3,2.27.47,3.39l.1.73c.4,2.93.73,5.25,4.31,6,1.7.36,3,2,3.86,5.09l.69,2.35c2.14-3.33,1.7-6.28-1.4-9.69a9,9,0,0,1-2.52-6.77c.06-2.09,0-4.23,0-6.3a77.4,77.4,0,0,1,.2-9.86C77.4,19.81,75.6,16.81,70.7,14.37ZM24.58,40a9.79,9.79,0,0,1-4.31-1l-.56-.27.87-1.1c1.9-2.42,3.71-4.71,7.32-5.09a5.35,5.35,0,0,0,4.57-4.59c.38-3.48,2.51-5.23,4.78-7.08l.82-.68.48-.4.29.56a9.67,9.67,0,0,1-.14,9.08c-1,2-1.38,3.41-.69,5.35.48,1.33.38,2.42-.28,3.08-.38.38-1.29.92-3.13.25a5.64,5.64,0,0,0-5,.57A10.37,10.37,0,0,1,24.58,40Zm-3.3-1.68a8.63,8.63,0,0,0,7.83-.56,6.59,6.59,0,0,1,5.83-.63c1,.35,1.73.34,2.09,0s.38-1.11,0-2c-.9-2.49-.13-4.39.74-6.12a8.64,8.64,0,0,0,.4-7.62l-.33.28C35.69,23.36,33.8,24.9,33.46,28A6.27,6.27,0,0,1,28,33.45c-3.19.34-4.79,2.37-6.64,4.72Zm-5.33-4a4.25,4.25,0,0,1-1.9-.46C8.25,30.91,4.32,22.29,6,16.07S13.36,5.63,20.6,5.63h0c5.53-.21,9.46,4.06,12.75,8.08a3.45,3.45,0,0,1,.65,3.54,3.9,3.9,0,0,1-3.22,2.34,3.41,3.41,0,0,0-2.46,1.08c-.4.58-.4,1.51,0,3,.43,1.72.18,3.15-.7,4s-2.32,1.11-4,.67c-1.44-.38-2.35-.38-3,0a3.44,3.44,0,0,0-1.12,2.47,3.92,3.92,0,0,1-2,3A3.4,3.4,0,0,1,16,34.26ZM20.6,6.63c-6.77,0-12.13,3.8-13.68,9.69C5.43,22,9.17,30.25,14.49,32.9a2.85,2.85,0,0,0,2.6.09,2.93,2.93,0,0,0,1.45-2.29,4.29,4.29,0,0,1,1.56-3.17c.85-.56,2-.61,3.76-.15A3.19,3.19,0,0,0,26.94,27a3.16,3.16,0,0,0,.43-3.06c-.32-1.28-.55-2.73.17-3.8a4.23,4.23,0,0,1,3.15-1.51,2.93,2.93,0,0,0,2.43-1.72,2.5,2.5,0,0,0-.49-2.54C29.56,10.6,25.88,6.62,21,6.62H20.6Z"/><path class="cls-1" d="M90.6,159.84c-2.46-.23-5.3-.09-7.9-.83-3-.85-4.49.2-6.25,2.39a119.78,119.78,0,0,1-18.4,18.52c-7.37,5.87-15,5.05-22.9,1.73a6.38,6.38,0,0,0-6.52.29,18.63,18.63,0,0,1-22.69-3.39,18.82,18.82,0,0,1-2.71-22.8,4.72,4.72,0,0,0,.32-5.16C-1.34,140.43.08,131.34,8,123.06a206.2,206.2,0,0,1,16.7-15.69,8.2,8.2,0,0,1,9.37-1.14c4.74,2.24,9.47,4.51,14.14,6.91a4.83,4.83,0,0,0,5,0c3.48-1.85,7.09-3.46,11.16-3.48a11,11,0,0,1,10.89,12.91,28.88,28.88,0,0,1-3.55,9.32,4.43,4.43,0,0,0-.07,4.65q3.67,7.16,7,14.47a3.92,3.92,0,0,0,3.49,2.5,67,67,0,0,0,10,.74c2,0,4.49-.18,4.51,2.71,0,3.15-2.61,2.82-4.75,2.88Zm-81-10.22a34.2,34.2,0,0,1,3.13-4.31c1.67-1.66,3-4.4,5.31-4.56,4-.28,8.16-1,12,.75a13.09,13.09,0,0,0,6.9,1.09c4.22-.37,6,1.58,5.44,5.78a11.42,11.42,0,0,0,.77,5.87c2.5,6.6,1.51,12.66-3.42,17.89-.81.87-1.63,1.75-2.52,2.54-1.26,1.12-.76,1.74.53,2.22,6.07,2.25,11.86,3.09,17.47-1.61A147.08,147.08,0,0,0,73,157.18c1-1.13,1.65-2.27.84-3.89-2.45-4.9-4.81-9.85-7.2-14.78-1.32-2.7-3.45-.77-5-.63-1.9.16-.76,1.86-.49,2.83q1.29,4.65,2.86,9.22a3.49,3.49,0,0,1-.44,3.68c-2.28,2.77-4.56,5.53-6.88,8.26a2.61,2.61,0,0,1-3.82.57c-1.53-1.16-1.4-2.65-.26-4.07,1.58-2,3.14-3.92,4.81-5.79,1.09-1.23,1.25-1.94-.39-3a64.7,64.7,0,0,1-21.59-21.56c-1.1-1.8-1.9-1.52-3.22-.35-2,1.75-4,3.35-6.11,5a2.35,2.35,0,0,1-3.49-.45,2.28,2.28,0,0,1-.1-3.26,69.42,69.42,0,0,1,9.93-8.18c.9-.6,1.84,0,2.74.26l11.59,3.49c1.66-6.74,1.79-5.18-3.42-7.78-3.53-1.75-7.12-3.35-10.6-5.19a4.09,4.09,0,0,0-5.19.52c-6.19,5.28-12.27,10.66-17.34,17.06S4.83,141.27,9.55,149.62ZM6.12,165.1a13.35,13.35,0,0,0,8.52,12.81c4.91,1.94,11.11.72,14.55-3,3.61-3.91,2.4-8.2.61-12.35-2.29-5.32-6-9.72-9.73-14.05-1-1.17-1.71-1.29-2.81-.13-2.62,2.77-5.43,5.37-8,8.18A11.65,11.65,0,0,0,6.12,165.1ZM25.4,146.29c5.33,6.32,9.54,12.51,11.58,20.43,2.53-3.89,2.59-7.36.94-10.73-1.22-2.49-2.1-4.89-.75-8.59C32.5,150.41,29.68,146.13,25.4,146.29Zm44.68-26.53L69,118.92c-1.34,1.64-2.62,3.34-4,4.91-1.6,1.76-3.42,3.32-5,5.11-.8.92-1.72,3.06-.55,3.26,2.16.38,5.21.67,6.6-1.33C68.25,127.62,70.1,124,70.08,119.76Zm-4.66-4.24c-7-.59-12.06,2.72-12.67,8-.09.79-.8,1.78,0,2.33,1,.65,2.21,0,2.94-.65C59,122.1,62.05,118.9,65.42,115.52ZM55.56,142c-.63-3.57-2.1-6.25-2.09-9.27,0-.63-.3-1.25-1-1.25-3.1,0-5.89-1.69-9.51-1.91A61.53,61.53,0,0,0,55.56,142Z"/><path class="cls-1" d="M19.54,184.9A19.54,19.54,0,0,1,2.8,155.5a4.26,4.26,0,0,0,.3-4.69c-5-10.47-3.54-19.65,4.57-28.09A204.48,204.48,0,0,1,24.41,107a8.76,8.76,0,0,1,9.9-1.22c4.49,2.13,9.32,4.44,14.15,6.93a4.38,4.38,0,0,0,4.55,0c4-2.12,7.43-3.53,11.39-3.54h0a11.45,11.45,0,0,1,8.75,4,11.65,11.65,0,0,1,2.59,9.48,29,29,0,0,1-3.6,9.47,3.92,3.92,0,0,0-.06,4.18c2.51,4.9,4.88,9.77,7,14.49a3.41,3.41,0,0,0,3.1,2.22,68.16,68.16,0,0,0,9.92.73h.23c1.41,0,3-.05,4,.9a3.16,3.16,0,0,1,.83,2.31c0,3.33-2.66,3.35-4.6,3.37H90.55c-.72-.07-1.49-.1-2.27-.14a25.37,25.37,0,0,1-5.72-.71c-2.7-.77-4,.14-5.72,2.22a119.17,119.17,0,0,1-18.48,18.6c-6.62,5.27-13.84,5.83-23.41,1.8-2.12-.89-3.71-1.12-6.07.26A18.32,18.32,0,0,1,19.54,184.9Zm10.6-79.14a7.86,7.86,0,0,0-5.09,2A205.8,205.8,0,0,0,8.39,123.41c-7.79,8.1-9.22,16.92-4.39,27A5.24,5.24,0,0,1,3.66,156,18.41,18.41,0,0,0,6.3,178.2a18,18,0,0,0,22.08,3.31,6.86,6.86,0,0,1,7-.32c9.19,3.87,16.1,3.36,22.4-1.66a118.07,118.07,0,0,0,18.32-18.45c1.86-2.31,3.57-3.47,6.78-2.55a24,24,0,0,0,5.49.67c.79,0,1.56.07,2.29.14h2c2.24,0,3.61-.14,3.61-2.36a2.17,2.17,0,0,0-.53-1.6c-.67-.66-2-.64-3.24-.62H92.2A69.88,69.88,0,0,1,82.14,154a4.41,4.41,0,0,1-3.88-2.79c-2.16-4.71-4.53-9.57-7-14.45a4.93,4.93,0,0,1,.08-5.13,27.69,27.69,0,0,0,3.48-9.15,10.64,10.64,0,0,0-2.36-8.66,10.48,10.48,0,0,0-8-3.67h0c-3.76,0-7.09,1.38-10.93,3.42a5.34,5.34,0,0,1-5.47,0c-4.83-2.49-9.64-4.79-14.13-6.91A8.68,8.68,0,0,0,30.14,105.76ZM19.6,179.33a14,14,0,0,1-5.15-1,13.83,13.83,0,0,1-8.83-13.26,12.23,12.23,0,0,1,3.26-8.89c1.45-1.57,3-3.1,4.47-4.58,1.18-1.17,2.39-2.38,3.55-3.6a2.35,2.35,0,0,1,1.76-1,2.62,2.62,0,0,1,1.78,1.11c4,4.65,7.56,8.93,9.82,14.18,1.85,4.29,3.05,8.83-.71,12.89A13.6,13.6,0,0,1,19.6,179.33Zm-1-31.26c-.26,0-.59.21-1,.65-1.17,1.24-2.39,2.45-3.57,3.63-1.48,1.47-3,3-4.44,4.55a11.18,11.18,0,0,0-3,8.17v0a12.86,12.86,0,0,0,8.2,12.35c4.74,1.88,10.75.64,14-2.87,3.54-3.82,2.12-8.1.52-11.82-2.21-5.11-5.68-9.33-9.65-13.91-.45-.52-.78-.77-1.05-.77Zm27.44,31.12a24.86,24.86,0,0,1-8.55-1.83c-.6-.23-1.42-.61-1.56-1.34-.1-.54.18-1.11.87-1.72.86-.77,1.67-1.63,2.45-2.46,4.73-5,5.84-10.87,3.37-17.42a11.88,11.88,0,0,1-.8-6.12c.27-1.94,0-3.36-.8-4.2s-2.18-1.18-4.1-1A13.43,13.43,0,0,1,29.79,142c-3.14-1.43-6.59-1.14-9.94-.85l-1.83.15c-1.46.1-2.49,1.4-3.58,2.78a20.44,20.44,0,0,1-1.4,1.64,16.56,16.56,0,0,0-2,2.7c-.33.5-.67,1-1,1.54l-.46.64-.39-.68c-4.72-8.37-4.53-14.47.66-21S20.94,117,27.19,111.71a4.6,4.6,0,0,1,5.75-.58c2.13,1.13,4.36,2.19,6.51,3.22,1.36.65,2.72,1.3,4.07,2,.86.43,1.57.74,2.16,1,3,1.3,3,1.65,1.9,5.83-.11.45-.24.95-.38,1.51l-.12.51-3.44-1L35,121.53c-.2-.06-.39-.13-.59-.21-.76-.28-1.25-.44-1.73-.12a68.61,68.61,0,0,0-9.86,8.13,1.82,1.82,0,0,0,.12,2.57,1.85,1.85,0,0,0,2.81.38l.44-.34c1.89-1.47,3.84-3,5.65-4.6.8-.71,1.49-1.17,2.23-1s1.16.55,1.74,1.5A64.61,64.61,0,0,0,57.23,149.2c.91.56,1.36,1.07,1.44,1.67a2.7,2.7,0,0,1-.94,2c-1.4,1.57-2.75,3.25-4.06,4.87l-.73.9a2.76,2.76,0,0,0-.75,2,2.28,2.28,0,0,0,4.05.89c2.31-2.71,4.62-5.5,6.85-8.2a3,3,0,0,0,.38-3.25c-1-2.9-2-6-2.86-9.24,0-.18-.13-.37-.21-.58-.28-.69-.62-1.56-.21-2.22a1.61,1.61,0,0,1,1.34-.67,5.63,5.63,0,0,0,1.26-.35c1.32-.47,3.12-1.11,4.28,1.26l2.07,4.29c1.67,3.45,3.39,7,5.13,10.49.93,1.85.12,3.22-.9,4.43a145.7,145.7,0,0,1-17.88,18.16A14.22,14.22,0,0,1,46.07,179.19Zm-8.21-37.14a5.17,5.17,0,0,1,3.92,1.36c1,1.08,1.38,2.77,1.06,5a10.87,10.87,0,0,0,.74,5.63C46.2,161,45,167.2,40.06,172.47c-.85.91-1.67,1.78-2.56,2.57-.58.52-.57.75-.56.79s.09.28.93.59c5.46,2,11.29,3.24,17-1.52A143.91,143.91,0,0,0,72.6,156.85c1-1.18,1.42-2.06.78-3.33-1.75-3.49-3.47-7.05-5.14-10.5l-2.07-4.29c-.73-1.5-1.59-1.28-3.05-.76a6,6,0,0,1-1.5.4.86.86,0,0,0-.58.21c-.14.23.12.89.29,1.32.09.25.18.48.24.68.9,3.21,1.85,6.3,2.85,9.18a4.06,4.06,0,0,1-.52,4.17c-2.27,2.75-4.58,5.55-6.89,8.26a3.09,3.09,0,0,1-4.5.64,3,3,0,0,1-1.31-2.06,3.66,3.66,0,0,1,1-2.72l.72-.9c1.32-1.63,2.68-3.31,4.09-4.91.53-.59.74-1,.71-1.23s-.37-.59-1-1A65.52,65.52,0,0,1,35,128.32c-.4-.65-.75-1-1-1s-.73.19-1.41.81c-1.84,1.63-3.81,3.16-5.71,4.64l-.44.34a2.81,2.81,0,0,1-4.17-.51,2.78,2.78,0,0,1-.07-3.95,71.07,71.07,0,0,1,10-8.24,2.72,2.72,0,0,1,2.64,0c.18.06.35.13.53.18,2.88.88,5.76,1.74,8.64,2.61l2.44.73.25-1c.93-3.68.93-3.68-1.33-4.68-.6-.26-1.33-.58-2.21-1-1.34-.67-2.69-1.31-4-2-2.16-1-4.4-2.1-6.55-3.24a3.62,3.62,0,0,0-4.64.46c-6.2,5.3-12.2,10.58-17.27,17-4.82,6.09-5.11,11.53-1,19.22l.56-.86A17.61,17.61,0,0,1,12.33,145a17.75,17.75,0,0,0,1.32-1.55c1.18-1.49,2.4-3,4.3-3.16l1.82-.15c3.47-.29,7.06-.6,10.44.94a12.53,12.53,0,0,0,6.65,1.05C37.21,142.06,37.54,142.05,37.86,142.05ZM36.78,168l-.28-1.1c-2.17-8.41-6.8-14.7-11.48-20.24l-.66-.78,1,0A11,11,0,0,1,30.07,147c2.24.93,4.18,1.74,6.83,0l1.26-.81-.52,1.4c-1.3,3.55-.44,5.81.73,8.2,1.83,3.74,1.51,7.41-1,11.22Zm-10.26-21.1c4.29,5.16,8.43,11,10.64,18.61a9.33,9.33,0,0,0,.31-9.25c-1.09-2.24-2-4.52-1.15-7.78-2.56,1.14-4.62.28-6.63-.56A13.46,13.46,0,0,0,26.52,146.85Zm29.75-3.69-1-.73a61.9,61.9,0,0,1-12.68-12.52l-.69-.88,1.11.07a21.88,21.88,0,0,1,5,1,15.87,15.87,0,0,0,4.5.88h0a1.4,1.4,0,0,1,1,.41,1.87,1.87,0,0,1,.48,1.35,17.45,17.45,0,0,0,1,5.06,33.68,33.68,0,0,1,1.06,4.11ZM44.1,130.22a60.25,60.25,0,0,0,10.7,10.62c-.23-1-.5-1.84-.76-2.71A18,18,0,0,1,53,132.76a.92.92,0,0,0-.19-.64.5.5,0,0,0-.3-.11h0a16.58,16.58,0,0,1-4.78-.92A27.55,27.55,0,0,0,44.1,130.22Zm18,2.75a16.88,16.88,0,0,1-2.76-.27,1.1,1.1,0,0,1-.89-.74c-.35-1,.47-2.58,1.14-3.35.86-1,1.81-1.92,2.73-2.82.76-.74,1.54-1.51,2.25-2.3,1-1.07,1.91-2.24,2.81-3.36l1.22-1.53.31-.37,1.7,1.28v.25c0,4.79-2.38,8.8-4.19,11.4A5,5,0,0,1,62.06,133Zm7-13.36c-.31.37-.62.76-.92,1.14-.91,1.14-1.85,2.32-2.85,3.41-.73.81-1.52,1.59-2.29,2.34s-1.84,1.81-2.67,2.77a3.62,3.62,0,0,0-1,2.36s0,.06.12.08c2,.36,4.88.63,6.1-1.12,2.69-3.86,4-7.23,4-10.58Zm-15.31,7a2.27,2.27,0,0,1-1.22-.36c-.92-.6-.61-1.56-.41-2.2a2.76,2.76,0,0,0,.15-.6c.65-5.56,6.07-9,13.21-8.41l1.07.09-.76.76-2.66,2.67c-2.4,2.43-4.67,4.73-7,7A3.57,3.57,0,0,1,53.73,126.6ZM63.8,116c-5.85,0-10,2.94-10.55,7.6a4.46,4.46,0,0,1-.2.8c-.22.71-.22.9,0,1.05.75.49,1.72,0,2.32-.59,2.35-2.24,4.62-4.53,7-7L64.28,116Z"/></g></g></svg>