<svg xmlns="http://www.w3.org/2000/svg" viewBox="0 0 196.43 196.42"><defs><style>.cls-1{fill:#c88a5e;}</style></defs><g id="Capa_2" data-name="Capa 2"><g id="Capa_1-2" data-name="Capa 1"><path class="cls-1" d="M45.76,0c9.58,0,19.16,0,28.75,0S91,6,91.46,15.6a311.66,311.66,0,0,1,0,34.85C90.88,59.12,84.53,65,75.87,65.33c-5.1.21-10.22.23-15.33,0-3-.1-3.27.94-2.07,3.25a9.42,9.42,0,0,1,1,2.47c.62,3.37,2.57,4.7,5.92,4.13C68,74.79,69,75.79,69,78.55s-.82,3.51-3.51,3.48q-19.55-.18-39.1,0c-2.69,0-3.46-.77-3.46-3.44s.68-3.68,3.42-3.43c1.42.13,3.44.85,4.27-.59a36.79,36.79,0,0,0,3.15-7.77c.48-1.59-1.12-1.33-2-1.34-4.47,0-8.95,0-13.42,0C6.42,65.34,0,58.94,0,47.18c0-10,0-19.93,0-29.9C.09,6.91,7,.08,17.39,0,26.84,0,36.3,0,45.76,0Zm.15,42.47c12,0,24-.07,36,0,2.5,0,3.31-.7,3.25-3.24-.15-7.28,0-14.56-.07-21.85-.06-6.8-3.84-10.72-10.7-10.75q-28.54-.15-57.11,0c-7,0-10.52,3.69-10.63,10.73s.11,14.31-.09,21.47c-.08,2.88.82,3.68,3.67,3.65C22.15,42.4,34,42.49,45.91,42.49Zm.27,6.64q-18,0-36,0c-3.72,0-4.21.82-2.55,4.2a9.46,9.46,0,0,0,8.9,5.6q29.28.14,58.56,0c4.43,0,7.69-2.27,9.38-6.6,1-2.5.44-3.28-2.33-3.25C70.16,49.2,58.17,49.13,46.18,49.13ZM38.07,75H54.43c-3.25-3.18-1.12-9.22-7.15-9.56C40.9,65.11,40.76,65.4,38.07,75Z"/><path class="cls-1" d="M136.55,137.38h34.39c5,0,10-.08,14.95,0,6.5.14,10.47,4.17,10.5,10.64q.08,19,0,38c0,6.29-4,10.36-10.29,10.37q-35.46.09-70.93,0c-6,0-10.18-3.6-10.29-9.54q-.37-19.92,0-39.87c.11-5.77,4.07-9.27,9.94-9.54A14.94,14.94,0,0,0,120,136.3c17.85-7.55,35.68-15.12,53.58-22.54a5.05,5.05,0,0,0,3.51-4.3A9.49,9.49,0,0,1,189.46,102a9.76,9.76,0,1,1-7.67,17.82c-1.24-.65-2.23-1.5-3.84-.81q-20.73,8.83-41.52,17.55Zm14.22,6.77c-11.49,0-23,.09-34.48,0-3.63,0-5.07,1.37-5,5q.14,17.82,0,35.64c0,3.58,1.38,5.09,5,5.08q34.31-.09,68.6,0c3.61,0,5-1.42,5-5-.11-11.88,0-23.76-.06-35.64,0-4.35-.73-5-5.25-5Q167.64,144.13,150.77,144.15Zm38.86-33.06c-.24-1.88-1.28-3-3.24-2.87a3.07,3.07,0,1,0,.33,6.13C188.73,114.27,189.59,113,189.63,111.09Z"/><path class="cls-1" d="M33.26,119.15c-2.73-2.53-5.18-4.94-7.78-7.17-2.39-2-.2-3,.87-4.15s2.07-2.63,3.88-.56c2.18,2.51,4.78,4.63,7,7.12,1.59,1.8,2.6,1.67,4.24,0C49,106.7,56.67,99.23,64.14,91.52c2-2.06,3-1.62,4.82.16s1.83,2.78,0,4.55c-7,6.86-13.92,13.91-20.92,20.82-1.53,1.51-2.58,2.54-.07,4.26a9.75,9.75,0,0,1,4.1,7.11c.24,2.31,1.34,2.61,3.26,2.6,8.17-.07,16.35-.05,24.53,0s11.78,3.43,11.83,11.54q.11,21.09,0,42.17c0,8.13-3.68,11.69-11.74,11.69H11.72c-8,0-11.69-3.7-11.7-11.67q0-21.28,0-42.55C0,134.83,3.7,131.11,11,131c4.22-.06,8.44,0,12.65,0,1.42,0,2.36-.17,2.63-1.92C26.94,125,29.31,121.84,33.26,119.15Zm12.35,70.61c11.5,0,23,0,34.51,0,3.54,0,5.08-1.37,5.06-5-.1-14,0-28.11-.05-42.17,0-4.09-1.09-5.17-5.27-5.17q-33.93,0-67.86,0c-4.52,0-5.32.82-5.33,5.43q0,20.9,0,41.79c0,4.42.69,5.07,5.2,5.08C23.12,189.79,34.37,189.77,45.61,189.76Zm-6-58.77c1,0,2,.06,3,0s2.24.48,2.75-.67-.21-2.2-.88-3.13a6.4,6.4,0,0,0-9.65-.92c-1.09,1.06-2.31,2.38-1.71,4s2.23.61,3.41.75A23.67,23.67,0,0,0,39.63,131Z"/><path class="cls-1" d="M144.09,39.3c0-9.45-.05-18.91,0-28.36C144.16,3.8,147.92.05,155,0Q170.31,0,185.64,0c6.76,0,10.74,4,10.75,10.68q.06,28.56,0,57.11c0,6.64-3.71,10.59-10.34,10.69q-15.9.22-31.81,0c-6.46-.1-10.07-3.94-10.12-10.45C144,58.47,144.09,48.89,144.09,39.3Zm45.67.19c0-5.61-.06-11.23,0-16.84,0-2.08-.55-2.94-2.79-2.92q-16.84.14-33.68,0c-2.17,0-2.86.73-2.84,2.89q.12,16.63,0,33.29c0,2.25.56,3.15,3,3.13q16.65-.18,33.3,0c2.38,0,3.08-.8,3-3.08C189.68,50.46,189.76,45,189.76,39.49ZM170,72.06v0c5.35,0,10.7.06,16,0,2.72,0,3.68-1.77,3.72-4.31,0-3.06-2.18-2.24-3.78-2.25-10.82,0-21.65.06-32.47-.08-3.15,0-3.37,1.51-2.79,3.83s2.26,2.87,4.38,2.86C160.07,72,165,72.06,170,72.06Zm.14-59c5.47,0,10.95,0,16.42,0,1.37,0,3.3.68,3.19-2-.09-2-.24-3.91-2.78-4.28a14.48,14.48,0,0,0-2.28-.15h-29a12.43,12.43,0,0,0-2.28.16c-2.64.51-2.89,2.55-2.82,4.68.08,2.39,2,1.5,3.16,1.52C159.19,13.12,164.67,13.07,170.15,13.07Z"/><path class="cls-1" d="M111.24,78.57a35.69,35.69,0,0,1,23.29,8.75c1,.87,2.64,1.88.61,3.18-1.46.94-1.83,4.32-5,1.83-12.09-9.58-26-9.71-37.83-.24-3.15,2.53-3.83-.37-5.3-1.57-2.41-2,.12-2.8,1.15-3.66A35.67,35.67,0,0,1,111.24,78.57Z"/><path class="cls-1" d="M110.17,91.66c6.59.17,11.2,1.83,15.23,5,1,.78,2.38,1.74.61,2.92-1.43,1-2,4.22-4.66,2.31-6.87-4.84-13.63-5-20.51,0-2.73,2-3.21-1.41-4.67-2.33-1.79-1.13-.46-2.05.55-2.88A21.84,21.84,0,0,1,110.17,91.66Z"/><path class="cls-1" d="M111.17,104.81a20.35,20.35,0,0,1,2.26.3c1.6.41,3.83.86,3.93,2.46.12,1.89-2.21,3.89-3.5,3.92-2.28.06-5,1.4-7.16-1.14-2.57-3-2.44-4.06,1.46-5.12A20.07,20.07,0,0,1,111.17,104.81Z"/><path class="cls-1" d="M47.64,17.93a2.48,2.48,0,0,1-1.09,2.45c-4.3,4.33-8.73,8.54-12.9,13-2,2.1-2.92.75-4.23-.55s-2.63-2.27-.54-4.22c4.28-4,8.29-8.26,12.47-12.35.73-.71,1.35-2.33,2.68-1.49A26.41,26.41,0,0,1,47.64,17.93Z"/><path class="cls-1" d="M71.28,18.14c-1.09,1.28-1.61,2-2.22,2.59-4.12,4.15-8.4,8.15-12.34,12.46-2.08,2.28-3.07.86-4.5-.49s-2.37-2.35-.36-4.21c4.38-4.06,8.48-8.42,12.74-12.61.64-.63,1.23-2,2.46-1.1C68.51,15.77,69.83,17,71.28,18.14Z"/><path class="cls-1" d="M171.72,157.22c-3.05,0-6.1-.11-9.15,0-2.8.13-2.24-1.8-2.19-3.33s-.77-3.5,2.07-3.47c6.22.06,12.45.08,18.68,0,3.12-.05,2,2.19,2.21,3.73.2,1.79.07,3.25-2.47,3.1C177.83,157.08,174.77,157.22,171.72,157.22Z"/><path class="cls-1" d="M172.2,163.55c2.41,0,4.83,0,7.24,0,3.75,0,4.9,1.73,3.93,5.48-.39,1.48-1.38,1.26-2.34,1.26-6.1,0-12.2-.09-18.29.06-2.64.07-2.49-1.47-2.38-3.17s-.75-3.78,2.31-3.65S169,163.55,172.2,163.55Z"/><path class="cls-1" d="M124.3,154.24c.75,3.15-1.35,2.88-3.54,3-3,.24-2.8-1.51-3-3.54-.21-2.81,1-3.29,3.55-3.39C124.52,150.24,124.59,151.92,124.3,154.24Z"/><path class="cls-1" d="M137.32,153.82c.75,3.08-.82,3.4-3.29,3.49-2.72.1-3.06-1.1-3.11-3.37,0-2.5.5-3.61,3.33-3.58S138,151.31,137.32,153.82Z"/><path class="cls-1" d="M147.28,157.15c-3.08.74-3.14-1.09-3.26-3.42-.15-2.78.95-3.31,3.5-3.37,2.77-.05,3,1.2,3.06,3.43C150.6,156.21,150.26,157.88,147.28,157.15Z"/><path class="cls-1" d="M124.29,167.32c.78,3.39-1.55,2.82-3.61,3-3.09.31-2.69-1.64-2.87-3.58-.26-2.9,1.19-3.19,3.62-3.31C124.71,163.3,124.52,165.18,124.29,167.32Z"/><path class="cls-1" d="M137.39,167.43c.73,3.17-1.49,2.72-3.59,2.92-3.09.3-2.68-1.61-2.85-3.55-.27-2.83,1-3.25,3.53-3.35C137.72,163.32,137.57,165.16,137.39,167.43Z"/><path class="cls-1" d="M150.45,167.14c.74,3-1,3.1-3.39,3.23-2.81.16-3-1.2-3-3.39-.08-2.54.58-3.53,3.35-3.53S150.93,164.62,150.45,167.14Z"/><path class="cls-1" d="M124.29,180.32c.78,3.15-1.24,2.94-3.46,3.11-2.83.21-2.93-1.24-3-3.4-.13-2.69.86-3.42,3.48-3.46C124.26,176.51,124.72,177.88,124.29,180.32Z"/><path class="cls-1" d="M137.37,180.35c.77,3.14-1.28,2.9-3.47,3.08-2.9.24-2.85-1.33-3-3.42-.15-2.68.84-3.39,3.45-3.44C137.4,176.5,137.75,178,137.37,180.35Z"/><path class="cls-1" d="M150.42,180.15c.79,3.26-1.18,3.12-3.41,3.28-2.85.21-2.88-1.26-3-3.39-.13-2.62.72-3.46,3.39-3.47C150.33,176.55,151,177.79,150.42,180.15Z"/><path class="cls-1" d="M37.6,183.36c-6.51,0-13-.09-19.52,0-3.59.07-5.08-1.42-5-5q.15-14.73,0-29.48c0-3.38,1.3-4.85,4.76-4.83q19.9.12,39.82,0c3.21,0,4.63,1.27,4.6,4.56q-.13,15.12,0,30.24c0,3.33-1.56,4.54-4.7,4.51C50.87,183.31,44.24,183.36,37.6,183.36Zm.25-32.84c-5,0-10,.08-14.92,0-2.17-.05-3.26.4-3.21,2.9.14,6.88.11,13.77,0,20.65,0,2,.66,2.66,2.65,2.64q15.28-.1,30.59,0c2,0,2.68-.69,2.66-2.66q-.11-10.32,0-20.65c0-2.12-.7-2.93-2.88-2.88C47.79,150.61,42.82,150.53,37.85,150.52Z"/><path class="cls-1" d="M73.3,170.29c-4.69,0-4.91-.28-4.56-4.47.13-1.54.59-2.37,2.25-2.28,1,.06,2,0,3,0,2.35,0,4.67-.63,4.68,3.4s-2.33,3.33-4.65,3.35C73.81,170.3,73.55,170.29,73.3,170.29Z"/><path class="cls-1" d="M73.77,183.36c-5.17,0-5.47-.36-5-4.56.17-1.65.87-2.22,2.39-2.14.76,0,1.52,0,2.28,0,2.42.14,5.33-1.11,5.29,3.53S75.63,183,73.77,183.36Z"/><path class="cls-1" d="M75.34,150.41c-3.27.79-3.2-1.13-3.35-3.39-.18-2.81,1.23-2.92,3.4-3,2.44-.08,3.28.69,3.25,3.19S78.05,151.2,75.34,150.41Z"/><path class="cls-1" d="M186.53,45.87a22.3,22.3,0,0,0,0,3.06c.35,2.62-.58,3.47-3.33,3.51-3,.05-3.33-1.36-3.16-3.71.12-1.64,0-3.31,0-5,0-2.3-.81-4.76,3.33-4.7,3.94,0,3,2.38,3.1,4.51C186.55,44.34,186.53,45.1,186.53,45.87Z"/><path class="cls-1" d="M186.46,29.65c.7,3-1,3.18-3.38,3.31-3.24.18-2.89-1.71-3.05-3.83-.21-2.71,1.1-3,3.35-3.08C186.26,25.92,187,27.13,186.46,29.65Z"/></g></g></svg>