<svg xmlns="http://www.w3.org/2000/svg" viewBox="0 0 192.04 192.04"><defs><style>.cls-1{fill:#c88a5e;}</style></defs><g id="Capa_2" data-name="Capa 2"><g id="Capa_1-2" data-name="Capa 1"><path class="cls-1" d="M53.63,65.65c-.91-2.86-1.81-5.52-2.6-8.21-.56-1.91-2-1.61-3.43-1.61-9.28,0-18.57-.09-27.85,0-5.58.07-9.83-2-12.26-7.07S6.3,39,9.88,34.86c2-2.35,3.93-4.78,6-7.08A26.09,26.09,0,0,1,36,18.69c17.27,0,34.55-.05,51.82,0,2.38,0,3.73-.6,4.66-2.9,1.24-3.09,2.9-6,4.41-9C99.76,1.2,103.08-.57,109.42.15c4.4.5,7.13,3.4,8.67,9.52,4.21-2.31,8.42-4.43,12.43-6.88,6-3.67,11.78-3.55,17.8.07,5.73,3.44,11.69,6.5,17.54,9.76,7.45,4.17,9,8.75,6,16.69-2.16,5.74-5.23,11.2-5.57,17.56-.1,1.87,0,2.9,2,3.86a8.91,8.91,0,0,1,5,9.59A9.08,9.08,0,0,1,165.68,68c-2.33.32-2.62,1.53-2.89,3.2a17.49,17.49,0,0,1-7.62,12c-1.41,1-2.33,1.88-1.78,3.75s1.64,3.19,3.7,3.4c3.59.36,7.18.77,10.77,1,14.77.94,24.1,10.85,24.1,25.72,0,23.72-.06,47.44.08,71.16,0,3.13-.92,3.78-3.87,3.77-29.78-.11-59.56-.19-89.33,0-9.35.06-16.46-3.33-21.46-11.2-.68-1.08-1.51-2.06-3-4.05,0,4.79-.1,8.55,0,12.3C74.5,191.15,74,192,71.7,192c-19.85-.09-39.7,0-59.55-.09a12.06,12.06,0,0,1-12-12.16Q0,164.11.14,148.45c.08-6.93,5.4-12,12.4-12.18,3.09-.06,6.19.08,9.28-.05,1.06-.05,2.73.91,3-1.24.25-1.8-.41-2.72-2.18-3.43a34.57,34.57,0,0,1-19-17.72C-6.73,92.28,6,70.23,29.93,68.2,37.74,67.54,45.52,66.53,53.63,65.65Zm32.65,85.58c1.3-3.13-.15-4.7-2.31-6.25-4-2.91-4.87-6.35-1.59-9.76,4-4.13,4.9-8.73,4.4-14.06a55.2,55.2,0,0,1,0-6.17,23.52,23.52,0,0,1,19.29-22.85c4.93-.87,10-1.14,15-1.65a4.49,4.49,0,0,0,4.27-3.26c.78-2.32-.65-3.18-2.16-4.28a17.58,17.58,0,0,1-7-10.73c-.89-4-4.52-6-8.58-4.56-4.3,1.5-8.79.27-9.53-3.73-1.47-7.9-6.32-9.07-12.92-8.11a3.7,3.7,0,0,1-1.15,0c-2.71-.45-3.49.64-3.44,3.37.18,8.88.12,17.77.08,26.66,0,4.73-2.39,6.83-7.15,7.15-6.38.42-11.5-1-13.47-8.1-2,1.29-2.82,2.33-1.4,4.46a15.63,15.63,0,0,1,2.55,6,16.49,16.49,0,0,0,5,9.94c3.75,3.64,2.52,9.07-2.11,11.65-1.09.6-2.33.82-2.78,2.37a14.12,14.12,0,0,1-7.44,8.94c-1.66.83-1.46,1.72-1,3.05,1.14,3.27,2.55,5.4,6.72,6.09C69.72,139.08,78.54,144.11,86.28,151.23Zm35,22c1.1.1,1.57.17,2,.17,13.67,0,27.34-.08,41,.09,2.94,0,3-1.33,2.95-3.49-.05-15.59,0-31.19,0-46.79a15.4,15.4,0,0,1,1.42-7.12c1.93-3.92,3.21-4,5.85-.51a2,2,0,0,1,0,2.74c-1.09,1.71-1.1,3.64-1.1,5.59q0,26.31,0,52.6c0,9.77,0,9.7,9.82,9.34,2.08-.08,2.58-.74,2.58-2.7-.06-22.69,0-45.38-.1-68.07a16.94,16.94,0,0,0-14.32-16.77c-4.67-.84-9.46-1.08-14.19-1.56-3.87-.4-8.61,4.39-8.13,8.28,1.83,14.69,3.71,29.38,5.55,44.06.22,1.76.58,3.45-.79,5.11q-6.54,7.89-12.8,16c-1.09,1.4-1.76,1.42-2.93.19-2.21-2.34-4.52-4.59-6.8-6.86-.83-.84-1.58-1.77-2.7-.2C126.31,166.51,123.91,169.62,121.24,173.21ZM112.39,49.55a8,8,0,0,0,.14-1.07c-.17-7.29-3.62-13.59-6.11-20.17-2.18-5.76-1.35-9.85,3.46-13.76,2.24-1.82,1.71-3.86,1.4-5.9-.23-1.49-1.56-2.22-3.17-2.33-2.38-.18-4.2.3-5.34,2.75-2,4.32-4.37,8.46-6.31,12.8-1,2.32-2.34,3.1-4.93,3.09-18-.13-36.08-.08-54.12-.07a23.24,23.24,0,0,0-5.75.51c-4.75,1.2-4.76,1.14-2.21,5.34,3.79,6.23.38,12.55-6.85,12.7-2.06.05-4.14-.12-6.18.06-1.27.12-3.25-1-3.68.79s.91,3.15,2.32,4.17a7.14,7.14,0,0,0,4.39,1.18q13.9-.06,27.83,0a3.44,3.44,0,0,0,3.6-2.09,7.73,7.73,0,0,1,7.35-4.13c5.15,0,10.31,0,15.46,0,2.56,0,5,.86,5.75,3.13,1,3.07,3,3.28,5.54,3.1,1.92-.13,3.86,0,5.79,0,1,0,1.88.14,2.34-1.3,2-6.31,7.42-4.81,12-4.83C109.05,43.48,111,46.06,112.39,49.55ZM54.12,185.77c4.31,0,7.91-.11,11.5,0,2.07.09,2.66-.66,2.6-2.65-.12-4.37,0-8.76-.06-13.13,0-2.8.6-5.72-1-8.31-1.9-3,1.11-4,2.51-5,1.9-1.35,2.31,1.19,3.08,2.26,1.63,2.26.92,5.38,2.37,7.61a137.6,137.6,0,0,0,9.83,13.82c6.29,7.47,17,7.17,23.23-.36,2-2.37,3.75-4.9,5.59-7.38,5.87-7.84,5.82-7.78-1.77-13.93-1.61-1.3-2.39-1.2-3.62.37-3.65,4.66-7.43,9.22-11.23,13.76-.62.75-1,2.58-2.55,1.4-1.31-1-3.94-1.81-3.29-3.67.8-2.27-.47-3.41-1.3-4.84a45.09,45.09,0,0,0-9.13-10.91,48.43,48.43,0,0,0-22.45-11.35c-.93-.2-3.62-1.91-3.22,1.17,1.37,10.52.24,21.07.62,31.59C55.92,179.3,56.06,182.41,54.12,185.77Zm85-148.52h11.19c12.32,0,12.26,0,16.32-11.61,1.1-3.13.22-5.27-2.49-6.79Q153.73,13,143.26,7.25a7.42,7.42,0,0,0-7.39-.17Q125,13,114.31,19c-2.57,1.46-3.43,3.67-2.22,6.55,1.28,3.08,2.59,6.16,3.63,9.32.65,2,1.81,2.42,3.72,2.39C126,37.19,132.56,37.25,139.12,37.25ZM24.67,125.33c.44-6.24.41-6.22-3.6-10.78-2.3-2.6-3.76-6.15-1.76-8.85,3.58-4.82,6.1-10.24,9.56-15.09a3.53,3.53,0,0,1,1.19-1c1.62-.86,2.16-1.93,1.29-3.74-.76-1.59,0-2,1.73-2.33,2.92-.54,4.13,1.7,6.14,2.78C45.83,89.88,56,83.26,55.8,75.79c-.07-2.53-1.3-3.86-3.86-3.67-2.3.16-4.6.46-6.9.75-7,.86-14.14,1.23-21,2.73C13.89,77.81,6.73,87.13,6.34,97.37,5.87,109.57,13.57,121.46,24.67,125.33Zm92.94-7.63c8.66,0,14.44,8.18,11.7,16.65-.35,1.09-1.57,2.24.4,3.17,1.75.82,2.31-.45,3-1.45,2.75-3.73,5.45-7.49,8.2-11.22.93-1.26,1.51-2.14-.39-3.25-8.43-4.95-16.78-10-25.12-15.14-1.35-.83-2.12-.78-3.15.54q-12,15.39-24.1,30.66c-1.2,1.51-1,2.28.53,3.32a153.63,153.63,0,0,1,12.44,9.15c3.26,2.81,5.32,2.49,7.39-1.13a20.35,20.35,0,0,1,3.39-4.2c1.85-1.82,2.15-2.79-.62-4.28A11.72,11.72,0,0,1,105.71,127,12.39,12.39,0,0,1,117.61,117.7Zm-68.87,5.71c-4.56-3.58-4.54-4.1-1.3-6.76,1.68-1.37,2.59.06,3.79.44,2.24.73,4.69,1.54,4.48-2.13-.18-3.06,1-3.88,3.72-3.47.89.13,2,.08,2.32-.94s-.56-1.61-1.17-2.24c-1.91-2-3.53-4.32-7-3.07A6.53,6.53,0,0,1,48,104.16c-1.31-.85-4-1.4-2.66-3.64,1-1.55,2.24-4.43,5.37-2.11,1.44,1.06,3.68,1.47,4.3-1.07.75-3-2.66-6-5.63-5.06a22.45,22.45,0,0,1-8.42.64c-6.54-.37-11,3.23-9.91,9.5.35,2-.15,3.16-2.58,3-2.09-.16-3.57,1-3.48,3.2a2.91,2.91,0,0,0,3.43,2.87c2.35-.21,2.72.87,2.69,2.91-.11,6.31.07,12.63-.1,18.94-.06,2.41.69,3.05,3.05,3,4.59-.07,9.21-.45,14,.51-.94-3.9-1.81-7.41-6.68-7.63-1.07,0-2.08-1-3.17-1.33-2.3-.76-2.09-2-1.11-3.8s1.39-3.35,3.89-1.85C43.17,123.54,45.6,124.47,48.74,123.41Zm70.88-70c.86,5.75,1.53,11.5,2.63,17.17a11.88,11.88,0,0,0,11.67,9.91c3.61.13,7.23.17,10.83,0,5.39-.26,9.57-2.88,11.19-8,2-6.21,2.23-12.8,3-18.93A75.39,75.39,0,0,1,119.62,53.45ZM74.29,68.59c0-5.27-.08-10.54,0-15.81,0-2.21-.4-3.29-2.93-3.17-4,.19-8,.08-12,0-3.17,0-4.13,1.15-3,4.3,2.7,7.75,5.19,15.57,7.76,23.37.76,2.31,1.52,4.62,2.3,6.93,1.07,3.21,3.8,2.58,6.15,2.47,2.89-.12,1.57-2.49,1.62-3.84C74.39,78.11,74.29,73.35,74.29,68.59ZM39.78,142.47c-9.45,0-18.32-.08-27.19,0-3.81.06-6.11,2.56-6.25,6.45-.11,3.08-.07,6.18,0,9.27,0,1.13-.58,3,1.56,2.7,1.61-.25,3.88,1.51,4.81-1.52,1.17-3.86,4.21-4.72,7.92-4.63,4.14.11,8.58-.58,10.23,4.66.95,3,3.21,1.25,4.82,1.48,2.13.32,1.52-1.59,1.53-2.71C37.27,153,36.75,147.64,39.78,142.47Zm-16.23,43.3c3.73,0,7.47-.07,11.21,0,1.74,0,2.57-.38,2.52-2.34-.12-4.63,0-9.27,0-13.91,0-1.16.15-2.59-1.66-2.28-1.56.27-3.71-1.21-4.59,1.27-1.18,3.34-3.41,5-7,4.88-4.51-.15-9.52,1.13-11.53-5-.74-2.27-3.09-.91-4.68-1.08-1.87-.21-1.44,1.39-1.46,2.45,0,3.09-.08,6.19,0,9.28.12,4.26,2.49,6.62,6.78,6.73C16.58,185.83,20.07,185.77,23.55,185.77Zm88.52,0c17.42,0,34.51,0,51.61,0,2.45,0,3.61-.26,3.64-3.22,0-3.28-1.67-3-3.83-3-13.64,0-27.29.26-40.91-.11C117.6,179.34,114.25,180.68,112.07,185.77Zm26.76-23.05c1.85-2.24,3.17-4.36,5-5.94,4.54-4,4.83-8.77,3.67-14.23-.87-4.11-1.14-8.36-1.81-13.51-3.25,4.43-5.78,8-8.42,11.42a5.19,5.19,0,0,0-1.11,5.22c.81,2.7.85,5.81-.84,8.2-1.91,2.69-1.09,4.31,1.1,6A21.14,21.14,0,0,1,138.83,162.72ZM93.26,121.15c5.14-6.56,9.78-12.52,14.46-18.44,3.25-4.11,5.86-4.6,10.28-2,2.76,1.64,5.55,3.24,8.19,5s3.09.43,3.22-1.8c.2-3.22-4.33-7.63-7.45-7.31s-6.39.69-9.59.9C98.59,98.45,92,106.25,93.26,121.15Zm65.89-77.51H119.62a12,12,0,0,0,10.15,5.9q9.66.33,19.33,0C153.09,49.38,156.45,47.56,159.15,43.64ZM139.46,86.77h-4.61c-2.88,0-5.89,4.06-4.38,6.39s2.37,5.6,5.53,5.85c4,.32,8.11,1.09,11.06-3.65,1.82-2.94.94-4.94.12-7.37s-2.83-.89-4.28-1.18A17.93,17.93,0,0,0,139.46,86.77Zm-9.29,63c.16-3.68-1-5.54-3.27-6.71a5,5,0,0,0-6.34,1.15c-2,2.14-3.78,4.55-5.67,6.83-.53.64-.91,1.26-.1,1.93q3.72,3.09,7.45,6.14c.4.32,1,.63,1.38.16C126.13,156,129.46,153.12,130.17,149.79Zm-12.61-25.87a6.16,6.16,0,1,0,6.3,6A6.28,6.28,0,0,0,117.56,123.92Zm-68,39.56c-4.78.91-6.8,3.1-6.24,7.74.45,3.67,0,7.44.12,11.15,0,1.07-.63,2.58.58,3.11s2.44-.49,3.41-1.31a5.7,5.7,0,0,0,2.12-4.37C49.62,174.43,49.59,169.06,49.59,163.48Zm-6-4.79c6.06-2.37,7.93-6.93,5.48-12.39-.42-.94-.82-2.08-1.92-2.22s-1.58,1.13-2.06,2C42.77,149.94,43.49,154.19,43.56,158.69Zm100.13-42.31c.61-2.5-.53-4.48-.34-6.43.43-4.54-2.1-4.94-5.64-4.68-1.56.12-2.36.57-2.6,2.07s-1.31,3,.53,4.14C138.23,113.08,140.85,114.65,143.69,116.38ZM93.28,152c-.94,4.75-.22,8.5,3.18,11.46,5.21-5.58,5.22-5.58-.73-9.83C95,153.17,94.29,152.72,93.28,152ZM99.39,50c1.27,3.53,2.5,7,3.78,10.47.25.68.51,1.64,1.5,1.37s.59-1.26.62-1.94c.07-1.67,0-3.34,0-5C105.31,49.28,105.31,49.28,99.39,50Zm-78,111.2c-3.17-1.15-2.57,1.22-2.78,3.19-.27,2.52.85,2.89,3.06,2.94,2.5.06,3.24-.67,3.25-3.2S24.13,160.56,21.43,161.15ZM16.31,37.22c2.59,0,4.57.06,6.54,0,1.35-.05,2.34-.84,1.74-2.21S23.17,32,22,31.35s-1.93,1.25-2.75,2.13S17.55,35.6,16.31,37.22ZM164.17,62.1c3.82-2.54,3.9-3.57.87-5.48C164.78,58.27,164.52,59.88,164.17,62.1Zm-50.56-5.89c-2.93,2.95-2.72,4,.86,5.39C114.19,59.88,113.94,58.27,113.61,56.21Z"/><path class="cls-1" d="M46.8,37.14c-2.82.65-3.41-.52-3.46-3-.06-2.67.94-3.14,3.32-3.15s3.2.62,3,3C49.54,36.14,49.8,38.22,46.8,37.14Z"/><path class="cls-1" d="M74.31,34.2c.67,2.78-.84,3-3.15,3.15-2.85.16-3-1.2-3-3.41C68,31.41,69,31,71.22,31,73.68,31,74.93,31.54,74.31,34.2Z"/><path class="cls-1" d="M58.9,37.19c-2.72.64-3.08-.75-3.18-3.13-.12-2.78,1.11-3,3.38-3.08,2.48-.08,3,.81,3,3.09S61.61,37.83,58.9,37.19Z"/><path class="cls-1" d="M130.07,23c.15-5.1,5.61-10.37,10.49-9.95,2,.17,1.6,2.25,2.22,3.5.52,1,.69,2-.72,2.43-.37.12-.71.29-1.08.41-2.06.67-4.55,1-4.61,3.85s2.37,3.44,4.48,3.91c2.57.58,2.38,1.89,1.69,3.91s-1.28,3-3.71,2.17C133,31.31,129.93,28,130.07,23Z"/><path class="cls-1" d="M136.83,74.39c-1.41,0-2.31-.07-3.2,0-2.36.25-3.68-.09-3.69-3.14s1.42-3.2,3.73-3.11c4.35.16,8.61.4,12-3.6,1.27-1.52,3.28.61,4.65,1.45,1.75,1.07.1,2.24-.6,3.1A14.2,14.2,0,0,1,136.83,74.39Z"/></g></g></svg>