<svg xmlns="http://www.w3.org/2000/svg" viewBox="0 0 229.8 184.46"><defs><style>.cls-1{fill:#fdce75;}</style></defs><g id="Capa_2" data-name="Capa 2"><g id="Capa_1-2" data-name="Capa 1"><path class="cls-1" d="M106,0h98.23c6.62,0,7.11.52,7.13,7.13,0,4.17-.16,8.35,0,12.51.22,4.34-1.58,6.13-5.93,6-7.22-.16-14.46.26-21.66-.14-4.65-.27-4.38,2.33-4.24,5.36.13,2.7-1,5.63,3.94,5.62,12.21,0,18.88,7,18.91,19.24,0,11.55.09,23.11-.06,34.67,0,3.16.66,5.07,3.72,6.81,16.85,9.62,26.12,28.87,23.11,47.17-3.25,19.8-17.49,35.2-36.94,39-16.6,3.27-31.19-1.27-43-13.51a10.74,10.74,0,0,0-8.71-3.6q-55.38.17-110.76.06c-14.28,0-20.93-6.63-20.93-20.87q0-44.07,0-88.12c0-14.1,5.71-20.23,19.78-20.92,2.63-.13,3.21-1,3.17-3.43-.14-9.15.56-7.24-6.9-7.37-6.58-.12-13.16-.06-19.74,0-3.56,0-5.33-1.47-5.21-5.22.14-4.49,0-9,0-13.48C.06.59.58,0,6.84,0Q33.57,0,60.29,0Zm35,158.9c-3.61-8.58-5.83-16.78-4.65-25.39.46-3.33-.6-3.69-3.39-3.67-13.81.11-27.61,0-41.42,0-11.52,0-11.52,0-11.6,11.29,0,.48,0,1,0,1.44.13,3.76-1.47,5.67-5.44,5.56-5-.15-10-.13-14.93,0-3.71.09-5.28-1.7-5.27-5.23,0-3.37-.06-6.75,0-10.11,0-2-.44-3.12-2.54-4-11.14-4.4-15.43-10.78-15.52-22.75-.06-9,0-18,0-27,0-11.06,0-11.06,11-11,9.26.07,14.43,4.93,14.41,14.18,0,3.52,1.16,4.19,4.39,4.17,8.71,0,13.94,4.85,13.75,13.67-.12,6,3.64,4,6.61,4.48,3.9.57,4.41-1.31,4.39-4.66,0-8.43,5.14-13.52,13.42-13.56,13.64,0,27.29,0,40.93,0,5.77,0,10.46,2.26,13.45,7,1.76,2.8,3.15,2.66,5.68,1.45,8.54-4.07,17.65-4.76,26.8-3.17,3.55.62,4.08-.25,4-3.36-.12-10.92,0-21.83-.06-32.75,0-8.5-3.41-11.84-12.08-11.84q-77.29,0-154.58,0c-8.67,0-12,3.34-12,11.89q0,45.51,0,91c0,9,3.22,12.2,12.12,12.21q53.93,0,107.86,0Zm2.52-21.27a39.17,39.17,0,0,0,39.33,39.46,39.49,39.49,0,1,0-39.33-39.46ZM106.13,18.15c31.12,0,62.25-.08,93.37.1,4.15,0,5.23-1.25,4.92-5.14-.26-3.26.45-5.84-4.74-5.83q-93.85.33-187.7,0c-4.84,0-4.82,2-5,5.64-.24,4.26,1.06,5.35,5.32,5.33C43.57,18.06,74.85,18.15,106.13,18.15Zm37.45,93.52H64.82c-10.5,0-10.5,0-10.5-10.46,0-6.58.1-13.17-.06-19.74-.11-4.56-2.19-5.84-7.4-6-5-.14-3.25,3.36-3.29,5.63-.15,8.66-.11,17.33,0,26,.06,9.08,5.39,15.29,14.29,15.39,26,.3,52,.18,78,.23,1.52,0,2.77-.15,3.48-1.86C140.5,118,141.94,115.16,143.58,111.67ZM105.13,36.39c15.08,0,30.16-.2,45.23.12,4.93.1,3.93-2.8,3.93-5.51s.93-5.51-4-5.48q-44.52.36-89,0c-5.15,0-4.09,2.88-4.25,5.79-.17,3.15-.18,5.3,4.31,5.2C75.93,36.19,90.54,36.39,105.13,36.39Zm19.17,68.25c7.69,0,15.37-.08,23.06,0,3.22,0,5.68-1.82,6.3-4.22s-1.82-4.58-4.2-5.79a14,14,0,0,0-6.56-1.13c-12.17,0-24.34,0-36.51,0a16.43,16.43,0,0,0-4.27.42c-4.35,1.17-4.12,4.75-4,8.16.13,3.85,3.16,2.39,5,2.44C110.2,104.73,117.25,104.64,124.3,104.64ZM44.24,36.21c4.25,1,6-.18,5.92-5-.1-4.32-1.09-5.83-5.6-5.61-3.88.18-6.14.37-5.86,5.33C38.93,35.09,39.48,37.52,44.24,36.21Zm22.29,68.43c6,0,6,0,6-4.08,0-5-1.93-6.7-6.94-7.08s-3.47,3.15-3.8,5.7C61.21,103.37,62.32,105.81,66.53,104.64ZM172.38,30.93c1.46-5.13-1.6-5.09-5.41-5.34-4.55-.29-5.39,1.39-5.56,5.6-.19,4.85,1.9,5.21,5.83,5.31C171.61,36.62,173.68,35.55,172.38,30.93ZM67.59,140.64c5.47,1.44,4.6-2.28,5-5.73.62-5.19-2.23-4.81-5.88-5.17-5.28-.51-4.79,2.36-5.09,6C61.21,140.71,63.53,141.46,67.59,140.64Z"/><path class="cls-1" d="M30.93,148.11c-2.1-.21-3.59-1.34-3.67-3.52A3.25,3.25,0,0,1,30.8,141a3.22,3.22,0,0,1,3.48,3.17C34.44,146.4,33.17,147.69,30.93,148.11Z"/><path class="cls-1" d="M34.37,58.14c-.28,1.93-1.12,3.38-3.28,3.48-2.32.1-3.81-1.14-3.81-3.38A3.3,3.3,0,0,1,31,54.72C33.15,54.77,34,56.21,34.37,58.14Z"/><path class="cls-1" d="M184.19,58.21c-.21,2.16-1.34,3.34-3.4,3.41-2.33.07-3.61-1.2-3.55-3.53a3.09,3.09,0,0,1,3.27-3.36C182.81,54.71,184,56.09,184.19,58.21Z"/><path class="cls-1" d="M197.67,155.73c-1.74.06-2.76-1-3.79-2-3-2.94-6-5.82-8.81-8.87-1.59-1.7-2.69-1.66-4.26,0-3,3.16-6.08,6.16-9.17,9.19-1.82,1.78-3.84,2.55-5.81.32-1.75-2-.94-3.83.72-5.48,3.06-3.06,6-6.22,9.21-9.15,1.72-1.6,1.67-2.66,0-4.23-3.17-2.95-6.14-6.11-9.21-9.16-1.67-1.66-2.49-3.54-.69-5.46,2-2.11,4-1.36,5.83.46a114.15,114.15,0,0,1,8.1,8.22c2.45,3,4.09,2.48,6.33-.16,2.38-2.81,5.17-5.26,7.77-7.87,1.75-1.76,3.74-2.87,5.83-.82s1.15,4.1-.6,5.88c-3,3.08-6.07,6.18-9.2,9.17-1.5,1.42-1.53,2.42,0,3.87,3.27,3.07,6.36,6.33,9.54,9.5a3.83,3.83,0,0,1,1,4.39A3.6,3.6,0,0,1,197.67,155.73Z"/></g></g></svg>