<svg xmlns="http://www.w3.org/2000/svg" viewBox="0 0 153.95 189.26"><defs><style>.cls-1{fill:#fdce75;}</style></defs><g id="Capa_2" data-name="Capa 2"><g id="Capa_1-2" data-name="Capa 1"><path class="cls-1" d="M129.7,135.33c0,2,.06,3.95,0,5.91a16.56,16.56,0,0,1-13.2,16.1c-1.22.28-2.31.26-2.85,1.75-3.84,10.6-12.34,16.24-22.12,20.33a61.54,61.54,0,0,1-20,4.6c-1.58.1-2.66.39-3.5,2a5.37,5.37,0,0,1-6.84,2.89A5.59,5.59,0,0,1,57,183.07c0-3.44,0-6.89,0-10.34a5.4,5.4,0,0,1,4.42-5.61A5.4,5.4,0,0,1,68,170c.74,1.5,1.36,2.43,3.21,2.2,9.29-1.14,18.13-3.45,25.57-9.49a38.6,38.6,0,0,0,3.33-3.43c.85-.9.92-1.53-.42-2.16-2.8-1.33-3.51-3.77-3.48-6.73.09-10.23.07-20.45,0-30.67,0-3.55,1.36-6,5-6.61,1.52-.25,1.64-.95,1.75-2.18,1.77-21.09-12.25-38.9-33.59-41.85C51.22,66.59,32.09,78.78,28,99.41c-.75,3.78-.57,7.6-.66,11.41,0,1.5.54,2,2.06,2.37,3.2.71,4.65,3.12,4.67,6.25.06,10.59.1,21.18,0,31.77-.05,4.21-2.3,6.3-6.48,6.4-3.57.09-7.15.1-10.71,0C8.57,157.34,2.2,152.17.78,144a49,49,0,0,1,.11-18A15.13,15.13,0,0,1,12,113.9c2.82-.83,3.49-2,3.45-4.8C15.14,88.45,23.75,72.57,42,62.75c32.72-17.6,72.53,6.38,72.76,43.56a5.87,5.87,0,0,1,0,1.11c-.63,3.71.46,5.62,4.49,7,6.46,2.16,10,7.36,10.39,14.31.14,2.2,0,4.43,0,6.64Zm-107.53.2c0-2.71,0-5.42,0-8.12,0-.82.24-1.75-.67-2.33-2.15-1.41-8,.16-8.66,2.73A27.73,27.73,0,0,0,13,143.06c1.17,3.59,4.86,2.85,7.7,2.56s1.29-2.72,1.47-4.19A50.44,50.44,0,0,0,22.17,135.53Zm95.66,0c0-1.23,0-2.46,0-3.69,0-5.74-1.88-7.34-7.66-7-1.61.1-2.12.6-2.1,2.17.07,5.53,0,11.06,0,16.59,0,1-.08,1.82,1.34,2.14,5.31,1.23,8.34-1.08,8.39-6.56C117.84,138,117.83,136.72,117.83,135.49Z"/><path class="cls-1" d="M116.52,0c7.39,0,14.78,0,22.17,0,8.74,0,15,6,15.16,14.72.14,6.89.12,13.79,0,20.69-.12,7.7-4.87,13.43-12.44,14.68-2,.34-2.57,1.29-3.16,2.86-2.48,6.68-5.09,13.31-7.56,20-1.1,3-2.56,5.39-6.14,5.41s-5.11-2.28-6.21-5.29C116,66.5,113.34,60,111,53.41c-.81-2.25-1.82-3.36-4.46-3.19-4.29.27-8.62.1-12.93.06C85.25,50.21,79,44.43,78.73,36.05c-.27-7.26-.27-14.54,0-21.8C79,5.89,85.28.08,93.61,0,101.25,0,108.88,0,116.52,0Zm8,55.64c1.62-4.18,2.91-7.47,4.17-10.78,2.2-5.74,2.93-6.37,9.15-6.38,3,0,4.27-1.2,4.23-4.16-.06-6-.08-12.06,0-18.1.05-3.09-1.14-4.44-4.36-4.42q-21.42.15-42.84,0c-3,0-4.33,1.12-4.31,4.1q.09,9.23,0,18.47c0,3,1.3,4.16,4.29,4.09,5.91-.13,11.82.06,17.72-.07,3.73-.09,6,1.54,7.3,5C121.22,47.15,122.68,50.9,124.47,55.65Z"/><path class="cls-1" d="M116.4,19.23c3.93,0,7.86,0,11.79,0s6.53,2.33,6.56,5.87-2.4,5.92-6.45,5.95q-12,.09-24,0c-4.07,0-6.56-2.32-6.58-5.85s2.45-5.9,6.47-6S112.35,19.23,116.4,19.23Z"/></g></g></svg>