<svg xmlns="http://www.w3.org/2000/svg" viewBox="0 0 183.86 183.95"><defs><style>.cls-1{fill:#fdce75;}</style></defs><g id="Capa_2" data-name="Capa 2"><g id="Capa_1-2" data-name="Capa 1"><path class="cls-1" d="M83.6,0c10.17,0,20.34,0,30.52,0a17.21,17.21,0,0,1,13.14,5.51c5.28,5.56,10.57,11.09,15.81,16.68a17.34,17.34,0,0,1,4.86,12.36c0,7.54.09,15.08-.06,22.62-.05,2.38.67,3.16,3,3,3.46-.16,6.94-.1,10.41,0,12.49.33,22.25,9.57,22.37,22q.36,39.86,0,79.72c-.13,12.58-10.26,22-22.8,22q-24.95,0-49.91,0c-13.28,0-22.33-8.17-23.83-21.37-.13-1.08.78-2.78-1.42-3.07-2-.28-2,1.15-2.7,2.41-1.53,2.71-1.31,4.84-.09,7.75,2.48,5.92-2.1,12.68-8.59,12.75-17.36.19-34.72.42-52.06-.09C10.62,182,1.25,171.77.1,159.71c-1.07-11.27,6.74-22.42,18-25.41,2.53-.67,3.75-1.38,4.44-4.52a19.23,19.23,0,0,0-.1-10.18c-1.72-6,2.81-11.27,9.42-11.51,2.93-.1,3.46-1,3.45-3.72q-.13-42.56,0-85.1C35.21,6.74,42,0,54.51,0ZM41,60.88c0,14.24.16,28.48-.11,42.72-.07,3.84,1.18,4.52,4.64,4.44,9.21-.22,18.43-.21,27.64,0,8.44.17,12.73,7.72,8.69,15.1a2.64,2.64,0,0,0,0,3.18,9.34,9.34,0,0,1,0,10.48,2.5,2.5,0,0,0,0,3.17A9.32,9.32,0,0,1,82,150.43c-1.43,2.32-.82,3.09,1.78,3.34,2.82.27,3.36-.85,3.35-3.44q-.13-33,0-66.05c0-14.63,9.37-24,24-24.1,9.33,0,18.66,0,28,0,1.83,0,3.19,0,3.14-2.56-.14-7.77-.09-15.55,0-23.33,0-2.15-.77-3-3-2.92-5.5.11-11,.07-16.51,0-3.92,0-4.8-.94-4.82-4.92,0-5.74-.17-11.49.06-17.23.11-2.89-.84-3.54-3.61-3.52-20,.11-40,.06-59.95.06-9.1,0-13.32,4.26-13.33,13.45Q41,40.06,41,60.88Zm137.1,61.22c0-12.81,0-25.61,0-38.42,0-10.85-7.11-18.1-17.88-18.14q-24.94-.12-49.91,0c-10.5.06-17.71,7.45-17.72,18q0,38.42,0,76.83c0,10.72,6.9,17.93,17.58,18q25.14.21,50.27,0c10.77-.08,17.63-7.15,17.66-17.89C178.16,147.71,178.14,134.9,178.14,122.1ZM34.78,177a19.08,19.08,0,0,0,19-19.24,19.38,19.38,0,0,0-19.31-19,19.17,19.17,0,0,0-18.89,19.36A18.81,18.81,0,0,0,34.78,177Zm18-55.24q9.87,0,19.75,0c2.58,0,5-.49,5.06-3.71.12-3.41-2.25-4.15-5-4.15q-19.76,0-39.5,0c-2.76,0-5.16.7-5.07,4.11.09,3.21,2.43,3.75,5,3.75Q42.88,121.74,52.74,121.72Zm.07,5.93H32.72c-2.52,0-4.54.69-4.79,3.65-.08,1,.1,2.08,1.42,2,5.92-.37,11.56,1.57,17.31,2.05,8.55.71,17.21.2,25.82.17,2.76,0,5.15-.71,5.08-4.12-.08-3.22-2.4-3.74-5-3.74Zm-2,49c8.11,0,15.45.08,22.78,0,2.44,0,4-1.45,4-4.09s-1.77-3.72-4.27-3.73a81.83,81.83,0,0,1-9.27-.08c-4.77-.55-8.57.35-10.72,5.12C52.92,174.68,52.07,175.29,50.83,176.68Zm2.55-35.26C54.83,143.94,56,146,57.15,148a2,2,0,0,0,1.91,1.27c4.88,0,9.77.1,14.64-.1,2.4-.09,4-1.5,3.87-4.18-.15-2.48-1.68-3.56-4-3.57C67,141.4,60.46,141.42,53.38,141.42ZM67,163v0c2.14,0,4.29.11,6.43,0,2.4-.15,4.13-1.31,4.11-4s-1.62-3.82-4.15-3.84c-3.93,0-7.87.09-11.79,0-2.12-.08-2.51.74-2.52,2.7,0,5.22-.16,5.22,5.06,5.22ZM123.74,10.35V23.74c0,1,.38,1.69,1.42,1.7a81.18,81.18,0,0,0,12.69-.3ZM8,155.65c2.5.45,2.32-1.54,2.59-2.92.32-1.59-1-1.13-1.86-1.27-2.23-.38-2.47,1.29-2.75,2.76C5.58,156.05,7.06,155.53,8,155.65ZM8.26,161c-.77.23-2.36-.57-2,1.38.25,1.5.37,3.24,2.59,3.15.9,0,2.09.19,1.92-1.35S10.71,160.94,8.26,161Zm8.16-19.64a8.74,8.74,0,0,0-6,4.2C14,146.72,14.19,143.42,16.42,141.4Z"/><path class="cls-1" d="M74,89.69a5,5,0,0,0-3.32-5c-2.05-1-4.17-1.77-6.23-2.7a8.31,8.31,0,0,1-5.24-8.23c.06-3.61,1.46-6.54,5-8,1.23-.51,2-1,2-2.52a2.52,2.52,0,0,1,2.45-2.94c1.79-.11,2.68.93,2.65,2.63,0,1.42.76,1.76,1.93,2a16,16,0,0,1,3.67,1.36,2.27,2.27,0,0,1,1.11,3.32,2.18,2.18,0,0,1-3.29,1,10.7,10.7,0,0,0-6.61-1c-2,.25-3.37,1.14-3.68,3.25a3.85,3.85,0,0,0,2.27,4.42c2,1,4.21,1.68,6.26,2.63,4.06,1.88,6.21,5,6.17,9.6s-1.54,8-5.94,9.62a2.51,2.51,0,0,0-1.91,2.6,2.3,2.3,0,0,1-2.51,2.45A2.24,2.24,0,0,1,66.24,102c0-2.3-1.48-2.6-3.09-3.18a7.8,7.8,0,0,1-4.21-3.18,2.69,2.69,0,0,1,.34-3.59c1.26-1.27,2.4-.64,3.35.46a7.31,7.31,0,0,0,6.43,2.42C72.48,94.7,74.05,93.06,74,89.69Z"/><path class="cls-1" d="M82.91,42.44c-7.54,0-15.08,0-22.62,0-2,0-4.17-.12-4.19-2.7S58.29,37,60.28,37q22.46,0,44.89,0c2,0,4.15,0,4.15,2.74s-2.14,2.69-4.14,2.69C97.75,42.43,90.33,42.44,82.91,42.44Z"/><path class="cls-1" d="M101.25,56c-7.17,0-14.35,0-21.52,0-2,0-4.15-.26-4.19-2.77s2-2.87,4.09-2.87q21.69,0,43.39,0c2.07,0,4.07.35,4,2.94-.07,2.34-1.94,2.69-3.89,2.69Z"/><path class="cls-1" d="M62.87,56c-1.2,0-2.39,0-3.59,0-1.76-.06-3.12-.82-3.2-2.69s1.23-2.81,3-2.87c2.63-.09,5.26-.08,7.89,0,1.79.05,3.07,1,3,2.85S68.6,55.94,66.82,56C65.5,56,64.19,56,62.87,56Z"/><path class="cls-1" d="M120.68,42.44c-2-.36-5.55,1.14-5.62-2.64s3.51-2.52,5.79-2.77a19.51,19.51,0,0,1,2.86,0c1.85.06,3.44.63,3.32,2.82s-1.69,2.64-3.56,2.58C122.64,42.42,121.81,42.44,120.68,42.44Z"/><path class="cls-1" d="M135.38,71.75c8.26,0,16.51,0,24.76,0,6.38,0,9.89,3.62,10,10.06.05,2.87.1,5.74,0,8.61-.22,5.65-4,9.36-9.64,9.41-9.21.08-18.42,0-27.63,0-2.09,0-4.14-.3-4.12-2.81s2.14-2.81,4.18-2.81c8.85,0,17.7,0,26.55,0,4.27,0,5-.78,5-5,0-2.51-.06-5,0-7.54.1-3-1.4-4.54-4.27-4.55q-24.93-.07-49.87,0c-2.65,0-4.18,1.5-4.14,4.33,0,3,0,6,0,9,0,2.44,1.31,3.78,3.79,3.82,2.87,0,5.74,0,8.61,0,2,0,3.71.66,3.59,3-.11,2.11-1.73,2.61-3.6,2.59-2.87,0-5.75.06-8.62,0-5.14-.16-8.84-3.49-9.25-8.65a70.14,70.14,0,0,1,0-10.75c.41-5.42,4-8.62,9.5-8.67C118.64,71.7,127,71.75,135.38,71.75Z"/><path class="cls-1" d="M170.27,150.16c0,4.66.06,9.32,0,14-.07,5.15-3.11,8.15-8.27,8.29-1.43,0-2.87.05-4.3,0-4.56-.19-7.79-3-7.88-7.58-.2-9.66-.07-19.34-.06-29a6.75,6.75,0,0,1,.2-1.41c1-4.76,5-6.47,13.31-5.73,4.18.38,6.88,3,7,7.16C170.35,140.61,170.27,145.39,170.27,150.16Zm-15.13.27c0,3.95,0,7.9,0,11.85,0,4.33.27,4.55,4.78,4.56,4.7,0,5-.26,5-4.73,0-7.06,0-14.12,0-21.17s0-6.86-6.79-6.69c-2.42.06-3.1,1-3,3.26C155.21,141.82,155.14,146.13,155.14,150.43Z"/><path class="cls-1" d="M145.76,162.28c0,1.32,0,2.63,0,3.94-.16,3.93-2.35,6.09-6.34,6.19-2.74.07-5.49.08-8.24,0-3.7-.12-6-2.33-6.13-6.06-.13-2.86-.13-5.74,0-8.59.18-3.7,2.44-5.88,6.18-6.05,2.5-.12,5-.07,7.52,0,4.84.09,6.94,2.22,7,7C145.77,159.9,145.76,161.09,145.76,162.28Zm-9.8,4.54c2.08.19,4.65.66,4.31-3.84-.43-5.65-.11-5.71-4.93-5.66-5.42.05-4.68-.75-4.69,4.7S129.93,166.81,136,166.82Z"/><path class="cls-1" d="M121.37,139.11c0,1.31,0,2.62,0,3.93-.1,4-2.17,6.23-6.11,6.37-2.75.09-5.49.08-8.24,0-3.78-.11-6.06-2.19-6.28-5.92a76.36,76.36,0,0,1,0-9c.21-3.53,2.46-5.66,6-5.84,2.5-.13,5-.06,7.52,0,5.07.06,7.07,2.1,7.11,7.21C121.38,137,121.37,138,121.37,139.11Zm-10.16-4.81c-5.73.07-4.94-.59-4.93,4.14,0,6.18-.82,5.35,4.41,5.36,5.72,0,5.19.81,5.2-4.67C115.89,133.49,116.37,134.4,111.21,134.3Z"/><path class="cls-1" d="M145.76,139.18c0,1.43.06,2.87,0,4.3-.19,3.53-2.35,5.76-5.88,5.92-2.86.12-5.73.09-8.59,0-3.73-.12-6-2.31-6.22-6-.15-2.86-.13-5.73,0-8.59.17-3.73,2.39-6,6.1-6.14,2.38-.11,4.78-.05,7.16,0,5.48.05,7.43,2.06,7.46,7.65Zm-10.45,4.64c5.5-.08,4.85.67,4.85-4.59,0-5.68.62-4.9-4.51-4.91-5.78,0-5-.69-5,4.38C130.66,144.55,129.85,143.72,135.31,143.82Z"/><path class="cls-1" d="M121.36,162.19c0,1.43,0,2.86,0,4.29-.16,3.6-2.23,5.77-5.81,5.91-3,.12-6,.12-9,0a5.7,5.7,0,0,1-5.83-5.61,70.39,70.39,0,0,1,0-9.3c.22-3.53,2.48-5.6,6.06-5.78,2.38-.12,4.77,0,7.16,0,5.38,0,7.36,2,7.4,7.29C121.37,160,121.37,161.11,121.36,162.19Zm-9.9,4.63c2.52.4,4.93.34,4.62-4.14-.37-5.35-.08-5.37-5-5.37s-4.86,0-4.81,4.63C106.31,167.43,105.5,166.81,111.46,166.82Z"/><path class="cls-1" d="M135.18,125.11c-1.43,0-2.87,0-4.3,0-3.42-.16-5.59-2.11-5.81-5.53a78,78,0,0,1,0-9.3c.19-3.42,2.27-5.46,5.74-5.64a80.15,80.15,0,0,1,9.3,0c3.59.22,5.51,2.4,5.63,6.1.08,2.38,0,4.76,0,7.15,0,5.38-1.89,7.19-7.36,7.24h-3.22Zm-4.56-11c.09,6.23-.68,5.68,4.54,5.71,5,0,5,0,5-4.54,0-5.27,0-4.94-5.63-5.37C130.17,109.54,130.33,111.89,130.62,114.08Z"/><path class="cls-1" d="M110.89,125.11c-1.43,0-2.86,0-4.29,0-3.43-.15-5.6-2-5.84-5.49a72,72,0,0,1,0-9.29c.22-3.52,2.2-5.49,5.69-5.69a80.15,80.15,0,0,1,9.3,0c3.62.21,5.53,2.37,5.62,6.06.07,2.5,0,5,0,7.51,0,5-1.91,6.86-6.89,6.93h-3.58ZM110.48,110c-2.46-.39-4.72-.3-4.34,4.2.54,6.33-.72,5.57,4.72,5.62,5,.06,5.06,0,5-5C115.87,109.13,116.25,110.05,110.48,110Z"/><path class="cls-1" d="M159.9,125.11c-1.44,0-2.88,0-4.31,0-3.41-.06-5.47-1.87-5.74-5.18a73,73,0,0,1,0-10,5,5,0,0,1,5-5.18,72.06,72.06,0,0,1,10.39,0c3.14.25,5,2.22,5.06,5.46.08,2.75.06,5.51,0,8.26-.05,4.77-2,6.63-6.79,6.69C162.29,125.13,161.09,125.12,159.9,125.11ZM159.26,110c-2.35-.41-4.53-.32-4.21,4,.48,6.45-.88,5.79,4.84,5.85,5.06,0,5.08,0,5.06-4.92C164.92,109.15,165.42,110.05,159.26,110Z"/><path class="cls-1" d="M34.77,143.58c.88.06,6.67,4.85,6.71,5.68.11,1.84-.76,3-2.66,3.05-.67,0-1.35-.47-2-.55-1.24-.15-3-.88-3.44.75-.39,1.39,1.34,1.67,2.39,2.15,5.53,2.52,7.22,5.51,5.94,10.19-.92,3.33-4.48,4.41-6,7.24,0,.08-.2.11-.32.15-1,.37-2.32.13-2.56-.66-1-3.16-6.29-3-5.48-7.23.34-1.74,1.79-2.53,3.6-1.71.74.33,1.31,1,2,1.42,1.3.69,2.68.7,3.38-.77C37,162,36.25,161,35,160.4s-2.21-.9-3.28-1.43c-4.86-2.42-5.59-7.84-1.45-11.39a7.86,7.86,0,0,0,1.91-2.47A2.35,2.35,0,0,1,34.77,143.58Z"/></g></g></svg>