<svg xmlns="http://www.w3.org/2000/svg" viewBox="0 0 185.22 185.17"><defs><style>.cls-1{fill:#fdce75;stroke:#fdce75;stroke-miterlimit:10;}</style></defs><g id="Capa_2" data-name="Capa 2"><g id="Capa_1-2" data-name="Capa 1"><path class="cls-1" d="M.51,90.41q0-29.64,0-59.29c0-11.32,6.87-18.44,18.23-18.47,3.3,0,4-1.07,3.92-4.11-.15-5.87,2.13-8,8-8h3.59c6.26,0,8.57,2.11,8.42,8.37-.06,3.1,1,3.87,3.9,3.72,4.3-.23,8.63-.14,12.93,0,2,.05,3-.34,3-2.71C62.63,2,64.27.53,72.08.53h2.16c6.15,0,8.44,2.06,8.23,8.08-.1,3.12.69,4.24,3.94,4,4.42-.29,8.86-.17,13.29,0,2.18.06,2.85-.65,2.88-2.86.13-7.86,1.64-9.21,9.65-9.21,1,0,1.91,0,2.87,0,5,.07,7.76,2.5,7.46,7.51-.24,4,1.23,4.85,4.81,4.59a95.61,95.61,0,0,1,11.85,0c2.61.13,3.41-.88,3.18-3.31a12.18,12.18,0,0,1,.25-3.56,6.1,6.1,0,0,1,6-5.18c1.43-.11,2.88,0,4.31,0,7.72,0,9.36,1.47,9.46,9,0,2.41.85,3.21,3.14,3,11.16-1,19.29,8.09,19.15,19.58-.42,31.86-.2,63.72-.1,95.58a19,19,0,0,1-5.9,14.46q-10.28,10-20.33,20.32a18,18,0,0,1-13.82,5.66c-9.57-.15-19.16,0-28.74-.09a6,6,0,0,0-4.91,2.19c-17.77,19.32-46.36,19.19-64.05-.29a5.13,5.13,0,0,0-4.3-1.88q-12.22.1-24.44,0C7.83,168,.53,160.71.52,150.42Q.46,120.41.51,90.41Zm116.34,71.91c10.09,0,19.54,0,29,0,2.25,0,2.84-.82,2.8-3-.11-6.47-.05-12.94,0-19.41,0-5.45,2.39-7.82,7.91-7.85,6.1,0,12.22-.2,18.32.07,3.25.14,4-1,4-4.06q-.17-37.54,0-75.1c0-2.55-.46-3.5-3.3-3.5q-83,.13-166,0c-2.77,0-3.35.85-3.34,3.47.11,22.63.06,45.27.06,67.91,0,9.82,0,19.64,0,29.46,0,6.2,4.2,11.54,9.84,11.78,8.21.35,16.46.09,24.74.09,0-1.88-.95-3.19-1.62-4.53-1.3-2.65-.68-6.77-3.12-8s-6.1-.35-9.21-.38c-4.06,0-4.76-.7-4.76-4.85q0-38.44,0-76.9c0-4.12.71-4.86,4.82-4.86q65.57,0,131.15,0c4.1,0,4.78.74,4.79,4.89q0,25,0,50c0,4-.89,4.88-4.83,4.91-6.34,0-12.69.1-19,0-2.44,0-3.37.62-3.3,3.2.17,6.23.07,12.46.05,18.69,0,4.62-.38,5-4.86,5-2.52,0-5,0-7.55,0-1.14,0-2.14,0-2.43,1.45A56.85,56.85,0,0,1,116.85,162.32ZM78.92,104.76A37,37,0,0,0,79,178.83a37,37,0,1,0-.11-74.07Zm13.67-61q41.31,0,82.64,0c2.24,0,3.92,0,3.65-3.09-.31-3.45,0-6.94-.08-10.41-.11-7.17-4.78-11.62-12-12-3.42-.18-4.61.7-4.39,4.28.84,13.34-2.52,12.83-13,12.62-4.49-.09-6.8-2.38-7-6.89-.12-2.39-.11-4.8,0-7.19.08-1.88-.33-2.85-2.54-2.79-4.9.14-9.82.11-14.73,0-1.84,0-2.59.52-2.48,2.44.13,2.39.08,4.79,0,7.18-.1,3.91-2.07,6.51-5.28,7.12-7.57,1.42-13,0-14.43-3.94a8.86,8.86,0,0,1-.39-2.82c0-2.39-.11-4.79,0-7.18.09-1.88-.33-2.87-2.52-2.81-5,.13-10.06.11-15.09,0-1.91,0-2.51.69-2.43,2.53.12,2.63.1,5.27,0,7.9-.14,3.86-2.43,6.19-6.29,6.4-2.27.13-4.55.11-6.82,0-4.39-.15-6.81-2.56-7-7-.09-2.51-.09-5,0-7.54.06-1.64-.43-2.37-2.2-2.34-5,.08-10.07.09-15.09,0-1.92,0-2.53.69-2.45,2.51.11,2.39.1,4.8,0,7.19-.19,4.76-2.46,7-7.13,7.17-2.15.06-4.31.08-6.47,0-4.1-.2-6.3-2.44-6.47-6.59-.1-2.64,0-5.27,0-7.91,0-1.08,0-2-1.51-2.33A12.07,12.07,0,0,0,6.29,30.05c-.08,3.35.19,6.72-.08,10.05-.24,3,.73,3.78,3.73,3.77C37.49,43.75,65,43.8,92.59,43.8Zm64.52,63c0-3.51-.05-6.39,0-9.26,0-1.55-.58-2.1-2.11-2.09-5.63,0-11.26.09-16.88,0-2,0-2.38.87-2.36,2.6.07,5.38.09,10.77,0,16.16,0,1.87.63,2.57,2.48,2.52,2.75-.09,5.52.08,8.26,0,3.43-.16,7.85,1.52,10-.77C158.51,113.82,156.9,109.49,157.11,106.8ZM49.27,79.9c0-3.35-.09-6.1,0-8.84.08-1.91-.73-2.48-2.53-2.46-5.37.07-10.74.08-16.11,0-1.94,0-2.78.53-2.73,2.63.12,5.37.11,10.74,0,16.11,0,2,.76,2.45,2.54,2.39,2.74-.11,5.49.07,8.23-.06,3.41-.16,7.79,1.51,10-.69C50.68,86.93,49,82.6,49.27,79.9Zm42.55,9.79c.8,0,1,0,1.28,0,3.2-.09,7.44,1,9.34-.59,2.23-1.9.7-6.28.69-9.57,0-3.53,1.59-8.09-.73-10.31-2.13-2-6.62-.57-10.06-.56s-7.63-1.45-9.7.58c-2.24,2.19-.64,6.57-.71,10s-1.42,7.61.52,9.7C84.59,91.24,89,89.29,91.82,89.69Zm54.24,0c3.34,0,6.09-.08,8.83,0,1.73.07,2.27-.62,2.25-2.29-.07-5.49-.09-11,0-16.47,0-2-1-2.38-2.65-2.35-2.86.07-5.73,0-8.59,0-3.2.1-7.35-1.36-9.36.58-2.19,2.12-.63,6.34-.69,9.63-.06,3.44-1.48,7.89.51,10.05C138.58,91.3,143.14,89.25,146.06,89.69ZM39.44,95.47c-3.47,0-6.34.07-9.21,0-1.7-.06-2.31.57-2.29,2.27.07,5.61.06,11.23,0,16.84,0,1.54.62,2.14,2.11,2.13,4.3,0,8.6,0,12.9,0a2.37,2.37,0,0,0,1.93-.76c2.36-2.9,5.31-5.4,4.45-9.91-.63-3.34,1.42-7.8-.81-10C46.48,94.07,42.15,95.69,39.44,95.47Zm26-5.78c2.76,0,5.52-.11,8.26,0,1.91.1,2.48-.59,2.45-2.45q-.15-8.08,0-16.17c0-1.85-.54-2.54-2.44-2.51-5.39.1-10.78.06-16.17,0-1.53,0-2.46.25-2.43,2.13.09,5.63.07,11.26,0,16.89,0,1.54.5,2.13,2.07,2.08C59.89,89.62,62.65,89.69,65.4,89.69Zm64.67-10.51c-.46-3.41,1.46-7.84-.83-10-2.08-2-6.41-.53-9.74-.53s-7.68-1.42-9.73.54c-2.25,2.15-.71,6.57-.7,10s-1.58,8,.71,9.92c2,1.68,6.39.56,9.72.56s7.73,1.12,9.73-.56C131.56,87.15,129.61,82.59,130.07,79.18Zm-.34,27H130c0-2.75-.09-5.51,0-8.26.09-1.87-.55-2.5-2.45-2.47q-8.08.16-16.17,0c-1.93,0-2.5.67-2.42,2.5.11,2.75,0,5.51,0,8.26,0,7.53,2.95,10.58,10.42,10.46,3.43-.05,8,1.55,10-.75C131,114,129.73,109.5,129.73,106.16ZM174,137.94h-17.5c-1.23,0-2.1.31-2.09,1.78,0,5.91,0,11.82,0,17.81ZM28,133.28c0,2.5.12,5,0,7.51-.14,2.14.53,3.14,2.78,2.83a7.67,7.67,0,0,1,2.14,0c2.52.36,3.71-.39,3.52-3.23-.23-3.21.57-6.36,1.19-9.52.55-2.79,3.71-6.28,1.83-7.89s-5.92-.35-9-.47c-1.88-.07-2.51.72-2.44,2.54C28.05,127.8,28,130.54,28,133.28ZM76.75,17.88c0-3.1-.06-6.2,0-9.3,0-1.66-.5-2.46-2.24-2.3a13,13,0,0,1-2.86,0c-2.61-.36-3.63.55-3.5,3.32.21,4.76,0,9.54.07,14.31.1,6-1.36,5.42,5.87,5.54,2,0,2.79-.54,2.68-2.62C76.64,23.86,76.75,20.87,76.75,17.88Zm31.58-.45c0,3.23.06,6.45,0,9.67,0,1.64.46,2.46,2.22,2.33a19.35,19.35,0,0,1,3.57,0c2.27.23,2.85-.82,2.8-2.93-.11-4.89,0-9.78,0-14.67-.07-6.16,1.08-5.43-5.84-5.58-2,0-2.82.48-2.71,2.58C108.44,11.7,108.33,14.57,108.33,17.43Zm-79.91.2c0,2.16-.05,4.31,0,6.46.16,5.84-1.37,5.2,5.66,5.37,2.31.05,2.83-.9,2.8-3-.09-5.74-.19-11.49,0-17.22.16-4.32-2.86-2.7-4.89-3-2.29-.31-4,0-3.66,3.08C28.63,12.11,28.42,14.88,28.42,17.63Zm128.23.46c0-3.23,0-6.46,0-9.69,0-1.48-.48-2.22-2.08-2.12a34.27,34.27,0,0,1-4.3,0c-1.63-.1-2.07.77-2.07,2.18,0,6.22,0,12.44,0,18.66,0,.7-.11,1.72.57,1.94a13.59,13.59,0,0,0,6.73.19c2-.36,1-2.36,1.09-3.63C156.77,23.12,156.66,20.6,156.65,18.09ZM117.57,122.55c2.78,6.57,4.46,13,4.42,19.73,0,1.17.74,1.33,1.66,1.33,1.44,0,2.88-.08,4.3,0,1.58.11,2.08-.55,2.06-2.08q-.07-8.42,0-16.85c0-1.46-.4-2.21-2-2.17C124.67,122.6,121.34,122.55,117.57,122.55Zm-14.39-16.28c0-3.51,0-6.24,0-9,0-1.11-.32-1.83-1.61-1.82q-9,0-18,0c-1.19,0-1.73.47-1.72,1.7,0,1.08.21,1.77,1.52,1.91A45.09,45.09,0,0,1,103.18,106.27Zm-47.86-.59c3.19-1.48,6-2.9,9-4.14A38,38,0,0,1,74,99.17c1.4-.19,2.16-.48,2.1-2.11-.08-2-1.4-1.57-2.52-1.58-3.1,0-6.21,0-9.31,0C54.41,95.47,54.41,95.47,55.32,105.68Z"/><path class="cls-1" d="M79,123.76a2.91,2.91,0,0,1,2.92,3.3c0,3.46.12,6.93,0,10.38a3.71,3.71,0,0,0,2.31,3.94c2.12,1.07,4.13,2.36,6.2,3.55a2.83,2.83,0,0,1,1.27,4c-.82,1.7-2.48,1.87-4,1.06-3.36-1.8-6.64-3.74-9.91-5.7a3.34,3.34,0,0,1-1.63-3c0-4.77,0-9.54,0-14.31A3.1,3.1,0,0,1,79,123.76Z"/><path class="cls-1" d="M96.21,121.78c0-1.82,3.67-5.52,5.34-5.41a2.78,2.78,0,0,1,2.81,3.08c0,1.91-3.61,5.21-5.43,5A2.87,2.87,0,0,1,96.21,121.78Z"/><path class="cls-1" d="M61.76,161.92c0,1.91-3.47,5.38-5.28,5.2a2.73,2.73,0,0,1-2.74-2.77c-.09-1.95,3.65-5.69,5.5-5.4A2.72,2.72,0,0,1,61.76,161.92Z"/><path class="cls-1" d="M50.07,144.62c-3-.05-5.47.14-5.6-2.69-.14-3,2.31-3.13,4.55-3.17s4.44.31,4.48,3S51.24,144.66,50.07,144.62Z"/><path class="cls-1" d="M81.88,111.39c0,2.32.12,4.79-2.89,4.78-2.67,0-2.92-2.24-2.93-4.39s.15-4.64,3-4.66C81.78,107.1,82,109.37,81.88,111.39Z"/><path class="cls-1" d="M81.89,172.22c.1,1.78,0,4.14-2.75,4.15S76,174,76.07,171.67c0-2.16.24-4.36,3.06-4.3S81.88,169.79,81.89,172.22Z"/><path class="cls-1" d="M59.08,124.48c-1.92,0-5.41-3.45-5.34-5.24a2.74,2.74,0,0,1,3-2.86c1.83,0,5.09,3.67,5,5.46A2.55,2.55,0,0,1,59.08,124.48Z"/><path class="cls-1" d="M104.4,164.17a2.91,2.91,0,0,1-2.92,3c-1.6.1-5.32-3.65-5.25-5.25a2.87,2.87,0,0,1,3-2.94C100.84,158.83,104.37,162.47,104.4,164.17Z"/><path class="cls-1" d="M108.86,144.6c-1.82-.08-4.19.13-4.14-2.85s2.53-2.94,4.69-3,4.32.38,4.21,3.13S111.12,144.57,108.86,144.6Z"/></g></g></svg>