<svg xmlns="http://www.w3.org/2000/svg" viewBox="0 0 237.63 158.87"><defs><style>.cls-1{fill:#c88a5e;}.cls-2{fill:#a1a08b;}.cls-3{fill:#7f7f74;}.cls-4{fill:#666;}.cls-5{fill:#4b3c32;}.cls-6{fill:#dbd59e;}.cls-7{fill:#fbcba7;}.cls-8{fill:#fdce75;}.cls-9{fill:#eba06d;}.cls-10{fill:#f08071;}.cls-11{fill:#513118;}.cls-12{fill:#6c2910;}.cls-13{fill:#bd9883;}.cls-14{fill:#b2b095;}.cls-15{fill:#fff;}</style></defs><g id="Capa_2" data-name="Capa 2"><g id="Capa_1-2" data-name="Capa 1"><path class="cls-1" d="M59.28,130.18c-15.14,0-26.2-8.51-30.44-12.38l-.27-.24.31-.4,0,0h-.52l.31-.48c.32-.14.49,0,.89.38,6.73,6.15,31.08,24.26,61.54-.82l.66.8C79.78,126.86,68.74,130.18,59.28,130.18Z"/><path class="cls-1" d="M127.05,130.18c-15.14,0-26.21-8.51-30.45-12.38a1.88,1.88,0,0,0-.27-.24l.31-.4v0H96.1l.31-.48c.33-.14.49,0,.89.38,6.74,6.15,31.09,24.26,61.55-.82l.66.8C147.55,126.86,136.5,130.18,127.05,130.18Z"/><path class="cls-1" d="M195.34,130.18c-15.14,0-26.21-8.51-30.45-12.38l-.27-.24.31-.4,0,0h-.52l.31-.48c.32-.14.49,0,.89.38,6.74,6.15,31.08,24.26,61.54-.82l.67.8C215.84,126.86,204.79,130.18,195.34,130.18Z"/><rect class="cls-2" x="159.65" y="115.4" width="6.35" height="41.94"/><path class="cls-2" d="M166.32,110.67a3.5,3.5,0,1,1-3.49-3.4A3.44,3.44,0,0,1,166.32,110.67Z"/><rect class="cls-2" x="227.69" y="115.4" width="6.35" height="41.94"/><path class="cls-2" d="M234.36,110.67a3.49,3.49,0,1,1-3.49-3.4A3.44,3.44,0,0,1,234.36,110.67Z"/><rect class="cls-2" x="91.29" y="115.35" width="6.35" height="41.94"/><path class="cls-2" d="M98,111.14a3.5,3.5,0,1,1-3.49-3.4A3.44,3.44,0,0,1,98,111.14Z"/><path class="cls-3" d="M100,115.31a1,1,0,0,1-1,1h-8.6a1,1,0,0,1-1-1h0a1,1,0,0,1,1-1H99a1,1,0,0,1,1,1Z"/><path class="cls-3" d="M100,156.23a1,1,0,0,1-1,1h-8.6a1,1,0,0,1-1-1h0a1,1,0,0,1,1-1H99a1,1,0,0,1,1,1Z"/><path class="cls-3" d="M167.78,115.31a1,1,0,0,1-1,1h-8.61a1,1,0,0,1-1-1h0a1,1,0,0,1,1-1h8.61a1,1,0,0,1,1,1Z"/><path class="cls-3" d="M167.78,156.23a1,1,0,0,1-1,1h-8.61a1,1,0,0,1-1-1h0a1,1,0,0,1,1-1h8.61a1,1,0,0,1,1,1Z"/><path class="cls-3" d="M236.33,115.31a1,1,0,0,1-1.05,1h-8.6a1,1,0,0,1-1-1h0a1,1,0,0,1,1-1h8.6a1,1,0,0,1,1.05,1Z"/><path class="cls-3" d="M236.33,156.23a1,1,0,0,1-1.05,1h-8.6a1,1,0,0,1-1-1h0a1,1,0,0,1,1-1h8.6a1,1,0,0,1,1.05,1Z"/><path class="cls-4" d="M236.83,158.87H.8a.78.78,0,1,1,0-1.56h236a.78.78,0,1,1,0,1.56Z"/><path class="cls-5" d="M136.23,97.29c3.93-.64,7.48,1.94,7.48,1.94s1.91,24-2.08,23.63c-1.72-.15-3.67.9-4.87-.86-2.63-3.89-3-14.41-4.17-23.46C132.29,96.22,132.3,97.93,136.23,97.29Z"/><path class="cls-6" d="M138.38,151.8h4s.67,1.85,1.11,3a5,5,0,0,1,.15,2.52h-7.11a3.64,3.64,0,0,1,.45-2.82A15.09,15.09,0,0,0,138.38,151.8Z"/><path class="cls-5" d="M143.37,117c0-1.91-2,.5-4.51.28S135.55,130,135.55,130l2.12,22.14s5.36-.13,5.33,0c-.36,1.73,1.05-11.15,1.06-22.14C144.06,127,143.38,119.29,143.37,117Z"/><path class="cls-5" d="M130.86,97.29c-3.93-.64-7.48,1.94-7.48,1.94s-1.91,24,2.08,23.63c1.72-.15,3.67.9,4.87-.86,2.63-3.89,3-14.41,4.17-23.46C134.8,96.22,134.79,97.93,130.86,97.29Z"/><path class="cls-6" d="M128.71,151.8h-4s-.67,1.85-1.11,3a5,5,0,0,0-.15,2.52h7.11a3.64,3.64,0,0,0-.45-2.82A15.09,15.09,0,0,1,128.71,151.8Z"/><path class="cls-5" d="M123.72,117c0-1.91,2,.5,4.51.28S131.54,130,131.54,130l-2.12,22.14s-5.36-.13-5.34,0c.37,1.73-1-11.15-1-22.14C123,127,123.71,119.29,123.72,117Z"/><path class="cls-7" d="M121.15,75.78l22.78.3s1.43-1.3.56-4.38c-1-3.54-5.34-3.16-7.48-5.36-.77-.79-1-1-1.3-2a11.58,11.58,0,0,1-.25-3.49L130,59.72a15.15,15.15,0,0,1-.48,5.13c-.33,1.08-1,1.22-1.88,1.87-1.29,1-3.71,1.4-5.55,2.91S121.15,75.78,121.15,75.78Z"/><path class="cls-8" d="M144.49,71.7c-1-3.36-4.91-3.19-7.14-5a6,6,0,0,1-9.34-.22c-.13.09-.27.18-.41.29-1.29,1-3.71,1.4-5.55,2.91s-.9,6.15-.9,6.15l22.78.3S145.36,74.78,144.49,71.7Z"/><path class="cls-1" d="M131.35,45.13s-5.55-.22-7.47,6.13,5.5,9,5.5,9,2.18,1.78,6.69.79,5.73-9.21,2-13.26A8.23,8.23,0,0,0,131.35,45.13Z"/><path class="cls-1" d="M137.3,58.22l.77-3.47.08-.35a4.51,4.51,0,0,1,5.22,2.87c1.42,3.84-1.66,4.87-1.66,5.91s1.66.52,1.48,2.08-1.13,1.65-1.13,1.65.18-1.73-.69-1.39-5.82.61-5.39-1.91a19.11,19.11,0,0,1,1-3.91l-1.39-2.08"/><path class="cls-9" d="M129.48,64.85c.53.26-.32,0,.28.08,1.39.22,4.51.26,6-.54a11.58,11.58,0,0,1-.25-3.49L130,59.72A15.15,15.15,0,0,1,129.48,64.85Z"/><path class="cls-7" d="M136.14,55.74s2.19-1.61,3.53-.43a2.79,2.79,0,0,1-.53,4.25c-1.27.6-3.52-.77-3.52-.77Z"/><path class="cls-9" d="M127.69,53.71s-2.43-1.21-3.55.18A2.79,2.79,0,0,0,125.38,58c1.36.38,3.35-1.36,3.35-1.36Z"/><path class="cls-7" d="M126.88,49.44s-1.82,7.65-1,9.89a5.06,5.06,0,0,0,3.9,3.6,6.91,6.91,0,0,0,6.64-2.81c1.38-2.1,2.06-9.34,2.06-9.34s-4.08-2.56-5.83-2.75S126.88,49.44,126.88,49.44Z"/><path class="cls-10" d="M132.94,58.45a.74.74,0,1,0,.64-.83A.74.74,0,0,0,132.94,58.45Z"/><path class="cls-10" d="M126.68,59.2a.74.74,0,1,0,1.47-.17.73.73,0,0,0-.82-.65A.75.75,0,0,0,126.68,59.2Z"/><path class="cls-1" d="M137.56,49.6s-2.63,2.61-5.24,3.18a26.6,26.6,0,0,1-6.4.47s-2.28-5.24,4.82-7C136.55,44.81,137.56,49.6,137.56,49.6Z"/><path class="cls-1" d="M134.46,49.53a8.19,8.19,0,0,0,0,3.73c1.05,3.57,2.26,3.9,2.43,4,0,0,3.11-3.51,2.47-6.27S134.46,49.53,134.46,49.53Z"/><path class="cls-9" d="M129.41,54.91c0-.24.4-.18.38.06-.1.91-1.55,3.44-.07,3.72.24,0,.19.42-.05.37C127.69,58.69,129.29,56.05,129.41,54.91Z"/><path class="cls-11" d="M127.15,56.28c-.05.3.08.58.29.61s.43-.18.47-.49-.08-.57-.29-.61S127.19,56,127.15,56.28Z"/><path class="cls-11" d="M132.4,56.54a.5.5,0,0,0,.3.61c.21,0,.42-.19.47-.49s-.09-.58-.3-.61S132.45,56.23,132.4,56.54Z"/><path class="cls-9" d="M131,60.17a1.26,1.26,0,0,1,1.74-.44c.26.18,0,.62-.23.45-.45-.29-.85-.07-1.14.33S130.76,60.43,131,60.17Z"/><path class="cls-11" d="M132.77,53.91a2.17,2.17,0,0,0,.95.55c.54.19.19,1-.35.81a2.82,2.82,0,0,1-1.31-.82C131.7,54,132.41,53.47,132.77,53.91Z"/><path class="cls-11" d="M127.1,54a2.12,2.12,0,0,0,1-.43c.49-.3.92.47.43.78a2.7,2.7,0,0,1-1.44.53A.44.44,0,0,1,127.1,54Z"/><path class="cls-9" d="M137.63,58c.11-.15.39-.17.45-.35s-.1-.33-.11-.48a1,1,0,0,1,.12-.6c.39-.67,1.3-.32,1.54.28.11.28-.34.43-.45.15a.48.48,0,0,0-.49-.32c-.33,0-.25.46-.17.66a.69.69,0,0,1-.07.61c-.09.15-.48.29-.46.44,0,.3-.43.33-.47,0A.57.57,0,0,1,137.63,58Z"/><path class="cls-7" d="M163.31,83.91,147,84.67a2.31,2.31,0,0,0-1.56,2.23c0,1.71.67,3.18,2.62,3.31s13-1.71,14.74-2.6S163.31,83.91,163.31,83.91Z"/><path class="cls-7" d="M148.74,84l-4.63-12.24a2.79,2.79,0,0,0-3.1-1c-2,.62-3.5,1.79-3,4a37.26,37.26,0,0,0,4.13,9.48c1.36,1.81,4.73,7,6.28,5.89C150.36,88.72,148.74,84,148.74,84Z"/><path class="cls-7" d="M106.07,77.21l14.5,7.47a2.32,2.32,0,0,1,.49,2.68c-.76,1.53-1.93,2.61-3.76,1.91s-11.12-7-12.32-8.49S106.07,77.21,106.07,77.21Z"/><path class="cls-7" d="M108.89,78.75a4.61,4.61,0,0,0-.67-3,10.09,10.09,0,0,1-1.48-2.83c-.6-1.52-.87-1.69-1.47-1.18-.14.11.18,1.26.31,1.76.28,1,.81,2.08-.1,1.68s-2.75-3.83-3.48-3.43-.23.85.28,1.53S103.5,75,103.5,75s-2.76-2.57-3.2-2.4-.55.84,0,1.37,2.4,2,2.4,2-2.71-1.45-3-1.33-1,.5-.45.81l2.8,1.67s-1.93-.75-2.35-.21,0,.63,1.1,1.2,5.49,3.9,5.49,3.9Z"/><path class="cls-7" d="M160.24,84.22A4.68,4.68,0,0,1,162,81.7a9.53,9.53,0,0,0,2.46-2c1.14-1.18,1.45-1.22,1.82-.52.08.16-.65,1.09-1,1.5-.65.84-1.56,1.6-.56,1.59s4-2.47,4.53-1.81-.11.87-.85,1.29-1.76,1.07-1.76,1.07,3.54-1.3,3.88-1,.18,1-.56,1.25-3,.87-3,.87,3.06-.29,3.31,0,.68.82.1.91l-3.23.47s2.08,0,2.25.71-.24.58-1.48.68-6.57,1.48-6.57,1.48Z"/><path class="cls-7" d="M117.64,83.29l3.91-12.49a2.81,2.81,0,0,1,3-1.17c2,.51,3.6,1.59,3.25,3.81a37,37,0,0,1-3.58,9.71c-1.25,1.87-4.32,7.22-5.93,6.23C116.29,88.13,117.64,83.29,117.64,83.29Z"/><path class="cls-8" d="M141.48,83.21c.54-.5,1.06-1,1.58-1.53a42.44,42.44,0,0,1,3.59-3.25l-2.54-6.7a2.79,2.79,0,0,0-3.1-1c-2,.62-3.5,1.79-3,4A40.51,40.51,0,0,0,141.48,83.21Z"/><path class="cls-8" d="M124.11,83.36l.15-.21a37,37,0,0,0,3.58-9.71c.35-2.22-1.24-3.3-3.25-3.81a2.81,2.81,0,0,0-3,1.17l-3.11,9.94C120.41,81.64,122.22,82.62,124.11,83.36Z"/><path class="cls-8" d="M141.45,72.3l-17.59-.52s-2.72,6.49-1,8.86c6.26,8.6,1.35,15.72.87,17.2s.65,2,8.74,3c4.08.46,11.07-1.66,11.07-1.66a35.33,35.33,0,0,1-2.74-9.78c-.57-3.85-.65-15.77-.65-15.77"/><path class="cls-11" d="M68.72,47S75.16,50.66,74,57.18c-.65,3.52,1.54,2.67,1.3,4.83-.39,3.51-4,1.78-1.56,5.6,2,3-3.65,5-3.65,5L53.75,73.73S47,69,51.92,65c.9-.73,1.5-1,1.44-1.56-.2-1.65-2.09-2-1.57-4,.76-3,2.77-1.4,3.78-4.43,1.83-5.48,4.58-6.81,5.94-7.62A7.79,7.79,0,0,1,68.72,47Z"/><path class="cls-1" d="M71.74,81.28,48.41,73.76s-.22-1.25,2.11-4.08,5.74-1.69,8.29-3.26c.92-.57,1.23-.65,1.74-1.55a12.33,12.33,0,0,0,1.22-3.28l5.3.23a16.28,16.28,0,0,0-1,5c0,1.11,5.38,5.62,6.61,7.53S71.74,81.28,71.74,81.28Z"/><path class="cls-1" d="M42.28,79.49l8.56-10.27a2.88,2.88,0,0,1,3.31,0c1.68,1.23,2.74,2.83,1.54,4.79a38.7,38.7,0,0,1-7.16,7.79c-1.91,1.3-6.3,5.17-7.42,3.64C39.69,83.53,42.28,79.49,42.28,79.49Z"/><path class="cls-7" d="M44.5,64.58l2.21,16.84s-2.22,4.06-4.3,4.17S40,85.41,39.6,83.05s.64-16,1.53-18.19S44.5,64.58,44.5,64.58Z"/><path class="cls-7" d="M44.45,65.61a4.7,4.7,0,0,0,.47-3,9.81,9.81,0,0,1-.35-3.17c0-1.64-.19-1.89-.94-1.64-.18.06-.29,1.24-.35,1.76-.12,1.06,0,2.23-.7,1.52s-1.18-4.57-2-4.45-.53.7-.29,1.52.53,2,.53,2-1.65-3.4-2.11-3.4-.83.58-.47,1.29,1.52,2.69,1.52,2.69-2-2.34-2.34-2.34-1.06.12-.71.58,2,2.58,2,2.58-1.53-1.4-2.12-1-.23.58.59,1.52,3.69,5.63,3.69,5.63Z"/><path class="cls-7" d="M81,76a4.6,4.6,0,0,1-.47-3,9.84,9.84,0,0,0,.35-3.17c0-1.64.19-1.89.94-1.64.17.06.29,1.24.35,1.76.12,1,0,2.22.7,1.52s1.17-4.57,2-4.45.53.7.3,1.52-.53,2-.53,2,1.64-3.4,2.11-3.4.82.59.47,1.29-1.52,2.7-1.52,2.7,2-2.35,2.34-2.35,1.06.12.7.59-2,2.58-2,2.58,1.53-1.41,2.11-1.05.24.58-.58,1.52S84.57,78,84.57,78Z"/><path class="cls-7" d="M83.2,73.38,71.55,86.71A2.82,2.82,0,0,0,72.23,90c1.56,1.38,3.38,2.07,5.13.44S85,78,85.68,75.69,83.2,73.38,83.2,73.38Z"/><path class="cls-1" d="M76.16,86.51,73,74.85a3,3,0,0,0-3-1.28c-2,.38-3.66,1.33-3.37,3.47a35.09,35.09,0,0,0,3.32,9.45c1.2,1.86,3.21,5.31,4.85,4.45C76.82,89.85,76.16,86.51,76.16,86.51Z"/><path class="cls-12" d="M53.86,101c-.14-2.61-7-6-10.41-6.09s-2.78,10.6-2.78,10.6,2.48,19.36,6.26,20.33C49.91,126.58,54.61,115.72,53.86,101Z"/><path class="cls-12" d="M51.13,129.55c.27-1.88-1.44-14.71-3.9-15.29s-5,14.69-5,14.69l2,23.55h4S50.37,135.06,51.13,129.55Z"/><path class="cls-13" d="M75,150.55a2.58,2.58,0,0,0,2.32,2.63c2.34.19,5.29-.23,6.07.49s-.11,1.4-1.3,1.54-7.8,1.77-9,2.06-1.81-1.25-1.89-2.13a14.52,14.52,0,0,0-.68-3.34Z"/><path class="cls-12" d="M67.8,121.4a4.14,4.14,0,0,0-4.71-3.15c-2.49.39-1.41,14.08-1.41,14.08l8.61,20.08s5.17-1.41,5.17-1.28C75.54,153.38,70.43,131.88,67.8,121.4Z"/><path class="cls-12" d="M52.45,106.51c-.67-2.23-.15-7.69,2.73-9.06s6.91,1,6.91,1,8.71,24.3,5.69,26.29C64,127.24,56.66,120.43,52.45,106.51Z"/><path class="cls-1" d="M54,70.87l14.3,4.73s1.6,4.91,0,7.13c-.51.71-4.43,5.13-5.61,10-.67,2.78,0,6.73,0,7.27-.16,1.5-4.4,2-10.52,1.07-3.1-.47-10.29-5.24-10.29-5.24s5.15-6.81,6.38-9.22c2-3.94,5.6-15.77,5.6-15.77Z"/><path class="cls-9" d="M66,66.86c-.55.11.3.07-.27,0-1.32-.13-4.15-.87-5.22-2a12.33,12.33,0,0,0,1.22-3.28l5.3.23A16.28,16.28,0,0,0,66,66.86Z"/><path class="cls-7" d="M60.49,56.57s-2-1.84-3.46-.81A2.79,2.79,0,0,0,57.09,60c1.2.74,3.59-.38,3.59-.38Z"/><path class="cls-9" d="M69.11,55.47s2.55-.94,3.51.56A2.79,2.79,0,0,1,70.94,60c-1.38.23-3.17-1.71-3.17-1.71Z"/><path class="cls-7" d="M70.39,51.31s1,7.8,0,9.95a5.07,5.07,0,0,1-4.26,3.15,6.91,6.91,0,0,1-6.3-3.52c-1.14-2.23-1-9.5-1-9.5s4.33-2.1,6.1-2.1S70.39,51.31,70.39,51.31Z"/><path class="cls-10" d="M63.39,59.6a.74.74,0,0,1-1.45-.33.74.74,0,1,1,1.45.33Z"/><path class="cls-10" d="M69.52,61a.74.74,0,0,1-.89.55A.74.74,0,0,1,69,60.15.74.74,0,0,1,69.52,61Z"/><path class="cls-11" d="M65.15,50.24s1.24,2.9,2.57,3.76A8.38,8.38,0,0,0,71,55.2s1.47-4.94-2.15-7.5C65.92,45.6,65.15,50.24,65.15,50.24Z"/><path class="cls-11" d="M66.36,52s-2.48,1.94-4.06,2a8.21,8.21,0,0,1-3.49-.55s1.11-5,5.51-5.53C67.93,47.59,66.36,52,66.36,52Z"/><path class="cls-11" d="M62.84,50.57a8.23,8.23,0,0,1-.41,3.71C61,57.71,59.09,57.18,59.57,58c0,0-2.71-3.82-1.78-6.5S62.84,50.57,62.84,50.57Z"/><path class="cls-9" d="M67.27,56.48c0-.25-.37-.23-.38,0,0,.91,1.16,3.58-.34,3.7-.24,0-.23.4,0,.38C68.57,60.41,67.27,57.62,67.27,56.48Z"/><path class="cls-11" d="M69.38,58.08c0,.31-.15.56-.37.58s-.4-.23-.41-.54.15-.56.36-.57S69.36,57.77,69.38,58.08Z"/><path class="cls-11" d="M64.12,57.76c0,.31-.14.57-.36.58s-.4-.23-.41-.54.14-.56.36-.57S64.11,57.46,64.12,57.76Z"/><path class="cls-9" d="M65.17,61.54a1.26,1.26,0,0,0-1.68-.63c-.28.14-.11.61.18.47.48-.24.85,0,1.1.45S65.33,61.81,65.17,61.54Z"/><path class="cls-11" d="M64,55.11a1.9,1.9,0,0,1-1,.44c-.56.14-.29,1,.26.85a2.91,2.91,0,0,0,1.39-.67C65.1,55.32,64.45,54.71,64,55.11Z"/><path class="cls-11" d="M69.67,55.81a2.17,2.17,0,0,1-1-.53c-.44-.36-1,.36-.51.72a2.87,2.87,0,0,0,1.38.69C70.15,56.77,70.24,55.88,69.67,55.81Z"/><path class="cls-9" d="M58.76,58.66c-.09-.17-.36-.21-.4-.4s.13-.32.16-.46a.92.92,0,0,0-.06-.61c-.31-.71-1.25-.46-1.55.1-.15.27.28.47.42.21a.47.47,0,0,1,.53-.26c.32.06.2.47.1.66a.75.75,0,0,0,0,.62c.08.16.45.34.41.48-.07.3.39.38.47.09A.51.51,0,0,0,58.76,58.66Z"/><path class="cls-13" d="M44.21,151.63h4s.66,1.85,1.11,3a5,5,0,0,1,.14,2.51H42.35a3.61,3.61,0,0,1,.45-2.81A14.77,14.77,0,0,0,44.21,151.63Z"/><path class="cls-14" d="M199.46,71.54s14.19,3.71,14.19,3.37c0-2.11,1.83-14.09-.25-13.78-3.78.58-7.36-.43-7.57-.3C202.56,62.93,199.46,71.54,199.46,71.54Z"/><rect class="cls-4" x="174.8" y="8.77" width="59.62" height="48.51" transform="translate(142.06 230.62) rotate(-81.6)"/><rect class="cls-15" x="177.01" y="10.58" width="55.18" height="44.9" transform="translate(142.06 230.62) rotate(-81.6)"/><path class="cls-1" d="M200.9,26.94A4,4,0,0,0,198.65,28c-.93-1.28-1.84-2.51-2.71-3.77-.31-.45-.5-.53-.93-.1-6.58,6.68-3.6,18.38,5.39,21.13a12.72,12.72,0,0,0,7,.2.75.75,0,0,1,1,.36,10,10,0,0,0,.77,1.07c.33.38.23.54-.23.68a15.09,15.09,0,0,1-8.16.31,15.26,15.26,0,1,1,18.76-14.47,14.88,14.88,0,0,1-7.08,12.52c-.41.27-.62.26-.92-.16q-1.74-2.49-3.56-4.92c-.44-.58-.27-.72.35-.7a1.4,1.4,0,0,0,1-.29c.59-.56.86-.2,1.19.3.53.79,1.13,1.53,1.66,2.32.27.4.46.37.79.07a12.83,12.83,0,0,0-3.82-21.41,12.58,12.58,0,0,0-11,.64c-.59.31-.56.56-.2,1C198.9,24.15,199.87,25.52,200.9,26.94Z"/><path d="M200.65,36.76c.24-1.5.49-3,.71-4.48,0-.3.3-.78-.19-.87s-.44.48-.49.79c-.25,1.41-.45,2.84-.7,4.26-.15.82-.8,1.15-1.43.78a.83.83,0,0,1-.42-.93c.35-2.22.69-4.44,1.08-6.65a1.57,1.57,0,0,1,1.84-1.28q3.87.57,7.73,1.23a1.63,1.63,0,0,1,1.38,2c-.32,2.12-.67,4.24-1,6.36a.9.9,0,0,1-1,.88.92.92,0,0,1-.81-1.17c.22-1.5.48-3,.7-4.48,0-.27.23-.65-.2-.73s-.45.35-.5.64c-.51,3.1-1,6.21-1.5,9.32-.15.89-.58,1.28-1.33,1.23a1.23,1.23,0,0,1-1.24-1.59c.22-1.55.49-3.09.73-4.63a5.4,5.4,0,0,0,.08-.58c0-.2,0-.4-.27-.45s-.41.12-.46.36-.12.67-.18,1c-.22,1.37-.43,2.74-.66,4.11-.16.95-.65,1.34-1.48,1.22s-1.23-.67-1.09-1.64C200.14,39.89,200.4,38.32,200.65,36.76Z"/><path d="M208.16,25.73a2.67,2.67,0,1,1-2.24-3.07A2.68,2.68,0,0,1,208.16,25.73Z"/><path class="cls-1" d="M195,7.61l-.77,4.7-1.13-.18-1.18-3.2-.48,2.93-1.13-.19L191,7l1.14.19,1.18,3.19.48-2.92Z"/><path class="cls-1" d="M199.27,10.63l0,.19a3.15,3.15,0,0,1-.3.94,2.11,2.11,0,0,1-.55.66,1.88,1.88,0,0,1-.72.36,2,2,0,0,1-.85,0,2,2,0,0,1-.81-.29,2.1,2.1,0,0,1-.58-.57,2,2,0,0,1-.3-.8,3,3,0,0,1,0-1l0-.19a3.15,3.15,0,0,1,.31-.94,2.23,2.23,0,0,1,.54-.66,1.85,1.85,0,0,1,.73-.36,2.19,2.19,0,0,1,.85,0,2.13,2.13,0,0,1,.81.3,1.94,1.94,0,0,1,.57.57,2,2,0,0,1,.31.8A3,3,0,0,1,199.27,10.63Zm-1.18,0,0-.19a3.61,3.61,0,0,0,0-.63,1.3,1.3,0,0,0-.11-.47.8.8,0,0,0-.24-.32.83.83,0,0,0-.37-.16.92.92,0,0,0-.41,0,.71.71,0,0,0-.32.23,1.42,1.42,0,0,0-.25.42,3.75,3.75,0,0,0-.15.6l0,.2a2.81,2.81,0,0,0,0,.62,1.7,1.7,0,0,0,.1.48.87.87,0,0,0,.24.32.77.77,0,0,0,.38.16.89.89,0,0,0,.4,0,.9.9,0,0,0,.33-.23,1.67,1.67,0,0,0,.25-.42A3.2,3.2,0,0,0,198.09,10.63Z"/><path class="cls-1" d="M203,8.92l-.77,4.7-1.13-.18.76-4.7Zm1.48,4.17-.14.87-2.51-.41.14-.87Zm0-2-.13.85-2.19-.36.14-.84Zm.64-1.81-.14.88-2.52-.41.14-.88Z"/><path class="cls-1" d="M209.5,10l-.76,4.7-1.13-.18-1.19-3.19-.48,2.92L204.81,14l.76-4.7,1.14.18,1.18,3.2.48-2.93Z"/><path class="cls-1" d="M213.9,10.69l-.14.88-3.93-.64.15-.88Zm-1.41-.23-.76,4.7L210.59,15l.77-4.7Z"/><path class="cls-1" d="M214.39,10.77l1.85.3a2.57,2.57,0,0,1,.91.31,1.36,1.36,0,0,1,.54.58,1.39,1.39,0,0,1,.09.82,1.55,1.55,0,0,1-.23.65,1.29,1.29,0,0,1-.42.39,2,2,0,0,1-.57.21l-.41.15-1.55-.26.13-.87,1.15.19a.87.87,0,0,0,.37,0,.55.55,0,0,0,.26-.19.81.81,0,0,0,.12-.33.71.71,0,0,0,0-.36.55.55,0,0,0-.19-.26.76.76,0,0,0-.34-.14l-.71-.11-.62,3.82-1.14-.18Zm1.81,5.12-.71-2.25,1.21.19.72,2.21v0Z"/><path class="cls-1" d="M220.53,12.78l-1.75,3.53-1.22-.2,2.49-4.42.78.12Zm.59,2.11-.15.87-2.41-.39.14-.88Zm-.24,1.76-.55-3.9v-1l.78.12,1,5Z"/><path class="cls-1" d="M223.2,12.2l1.85.3a2.44,2.44,0,0,1,.92.32,1.34,1.34,0,0,1,.54.57,1.39,1.39,0,0,1,.09.82,1.55,1.55,0,0,1-.24.65,1.12,1.12,0,0,1-.42.39,1.77,1.77,0,0,1-.57.21l-.4.15-1.56-.25.14-.88,1.15.19a.88.88,0,0,0,.37,0,.53.53,0,0,0,.25-.19.82.82,0,0,0,.13-.33.71.71,0,0,0,0-.36.48.48,0,0,0-.18-.26.69.69,0,0,0-.34-.13l-.72-.12-.62,3.82-1.13-.18ZM225,17.32l-.7-2.25,1.2.19.72,2.21v.05Z"/><path class="cls-12" d="M226.08,140s3.47,1.87,3.07,4.42-1.84,5.27-1.05,6.63,2,1,2.57-.16,4.75-6.68,5.48-7.65-1.25-2.81-2.48-3.58c-2.9-1.82-9.13-6.06-9.13-6.06Z"/><path class="cls-12" d="M200.87,148.45s.81,3.45-1.71,4.48-5.92,1.4-6.55,2.67.58,1.94,1.94,1.75,9.21,0,10.57,0,1.59-2.34,1.4-3.62c-.45-3-1.12-9.65-1.12-9.65Z"/><path class="cls-1" d="M197.49,98.62a46,46,0,0,1,6.91-5.13c2.7-1.39,6.85-1.57,7.77.36,3.59,7.49,2.5,10.53,2.44,15.64A86.15,86.15,0,0,0,217,125.21c.64,2.26,0,3.45-2.61,4.17-3.24.91-5.73-2.61-5.73-2.61Z"/><path class="cls-1" d="M227.2,132.51c-2-2.57-4.43-7.82-9.9-8.6-2.61-.38-9.65,1.36-8.6,2.86s19.16,16,19.26,16.16,5.27-4.87,5.27-4.87A69.71,69.71,0,0,1,227.2,132.51Z"/><path class="cls-1" d="M198.42,94a10.62,10.62,0,0,1,5.64-1.5c3,.17,5.24,1,5.66,3.06,2.11,10.36-1.54,9.06-8.32,25.74-.88,2.17-3.33,2.35-6,2.35-.18,0-4-2.39-3.91-3.65C192.28,110.09,198.42,94,198.42,94Z"/><path class="cls-1" d="M205.05,141.11s.26-11.21-3.91-18c-2.16-3.51-9.89-3.89-9.64-2.08S199,151.12,199,151.27s7.76,0,7.76,0Z"/><path class="cls-7" d="M210.78,70.48l-.26,8.6-12.76-2.65c.46-2.39,1.62-7.69,3.12-9.09a3.86,3.86,0,0,0,1-1.07.7.7,0,0,0,.08-.2l0,0s0-.11.05-.18l0-.11A7.24,7.24,0,0,0,202,63l3.36-.75L209,61a9.08,9.08,0,0,0,.79,4,.17.17,0,0,1,0,0c.37.82-.38,1.71.5,2.17C211.62,67.86,208.84,69.38,210.78,70.48Z"/><path class="cls-14" d="M213.91,97.84l-16.51-.52s.13-5.83,0-7.82c-.16-2.55.47-8.11.14-11.88,0,0,.08-.46.22-1.19.46-2.39,1.62-7.69,3.12-9.09a3.86,3.86,0,0,0,1-1.07,1.19,1.19,0,0,0,.08-.2l0,0s0-.12,0-.18h0l7.77-.84h0a8.79,8.79,0,0,0,1.83,2c4.13,4,2.63,15.42,2.3,23.85A69.44,69.44,0,0,0,213.91,97.84Z"/><path class="cls-9" d="M206.43,61.67l-.63.87-.12.11a17,17,0,0,1-4.54,2.92,2.47,2.47,0,0,0,.17-.54,7.2,7.2,0,0,0,0-2.75l3.37-.76C205,61.85,206,61.4,206.43,61.67Z"/><path class="cls-9" d="M206.52,63.23c.17-.12-.13.22,0,0Z"/><path class="cls-7" d="M201.89,47.3s-1.38,3.22-2.5,6.41c-.39,1.1-1.47,2.57-1.73,3.52-.1.38.52.36.45.69a6.17,6.17,0,0,0-.17,1.32c.05,2.58.87,3,2.7,3.43,2.78.59,6,1,8.11-.72S214,53,214,53s-3.35-4-5.1-4.82S201.89,47.3,201.89,47.3Z"/><path class="cls-11" d="M208.23,49.92a5.21,5.21,0,0,0-2.75,2.55c-.89,2.08-.65,8.52-.46,8.73,0,0,0,2.63,3.87,1.72a6.8,6.8,0,0,0,3.77-2.59,10.71,10.71,0,0,0,2.26-6.78C215.07,50.32,208.23,49.92,208.23,49.92Z"/><path class="cls-11" d="M209.22,56.89a6.25,6.25,0,0,1,2.3,2.17c.69,1.48.93,3.37.22,4.3-.83,1.08-3.24.28-3.75-2.83S209.22,56.89,209.22,56.89Z"/><path class="cls-7" d="M204.81,56s2.81-.82,3.82.76-.41,3.74-1.93,3.9-3.43-1.9-3.43-1.9Z"/><path class="cls-9" d="M205.52,58.69c.16-.12.45,0,.57-.21s0-.37,0-.53a1.09,1.09,0,0,1,.33-.58c.63-.56,1.45.11,1.5.8,0,.33-.49.34-.51,0a.53.53,0,0,0-.41-.49c-.35-.09-.41.38-.4.61a.76.76,0,0,1-.27.62c-.14.12-.59.13-.62.29-.06.33-.56.2-.5-.12A.57.57,0,0,1,205.52,58.69Z"/><path class="cls-10" d="M199.75,57.46a.94.94,0,0,0,.74,1.11.95.95,0,1,0,.37-1.86A.94.94,0,0,0,199.75,57.46Z"/><path class="cls-9" d="M199.19,60a.53.53,0,0,0,.42.63.54.54,0,0,0,.64-.42.56.56,0,0,0-.43-.64A.55.55,0,0,0,199.19,60Z"/><path class="cls-11" d="M213.53,51.46a21.42,21.42,0,0,0-5.08-1.18c-3.54-.37-8.81.86-9.86-1.17-1.22-2.35,2.77-5.35,9.24-3.11C214,48.12,213.53,51.46,213.53,51.46Z"/><path class="cls-11" d="M211.71,52.8a11.18,11.18,0,0,1-4.79-2.1c-2.06-1.89-3.81-4.62-3.52-6.39.34-2.06,4.26-2.07,7.29,2.37C213.57,50.91,211.71,52.8,211.71,52.8Z"/><path class="cls-11" d="M212,53a10.37,10.37,0,0,1-2.66-3.4c-.86-2.2-1.27-4.88-.58-6.08.8-1.39,3.46.1,4.26,4.56C213.78,52.33,212,53,212,53Z"/><path class="cls-11" d="M212.08,54.37a10.2,10.2,0,0,1-1.24-4.13c0-2.36.59-5,1.67-5.87,1.25-1,3.18,1.35,2.31,5.79C214,54.39,212.08,54.37,212.08,54.37Z"/><path class="cls-11" d="M211.86,52.37a6.19,6.19,0,0,1,.55-3.12c.87-1.38,2.31-2.62,3.48-2.53,1.36.11,2,2.56-.32,4.69S211.86,52.37,211.86,52.37Z"/><path class="cls-11" d="M211.25,52.75a6.2,6.2,0,0,1,2.29-2.18c1.52-.6,3.42-.73,4.3,0,1,.89.1,3.25-3,3.58C211.82,54.5,211.25,52.75,211.25,52.75Z"/><path class="cls-11" d="M211.58,53.78a6.26,6.26,0,0,1,3-1.11c1.63,0,3.43.65,4,1.7.61,1.22-1.17,3-4.19,2.12S211.58,53.78,211.58,53.78Z"/><path class="cls-11" d="M210.36,56a6.29,6.29,0,0,1,3.14-.38c1.58.43,3.18,1.45,3.43,2.6.3,1.33-1.86,2.66-4.57,1.06S210.36,56,210.36,56Z"/><path class="cls-11" d="M209.65,56.63a6.22,6.22,0,0,1,3,1c1.25,1,2.27,2.66,2,3.8-.29,1.33-2.81,1.63-4.59-1S209.65,56.63,209.65,56.63Z"/><path class="cls-11" d="M210,50a6.2,6.2,0,0,1-2.29,2.18c-1.52.6-3.42.73-4.3,0-1-.89-.1-3.25,3-3.58C209.43,48.2,210,50,210,50Z"/><path class="cls-11" d="M210.67,53.27a6.2,6.2,0,0,1-2.29,2.18c-1.52.6-3.42.73-4.3,0-1-.9-.1-3.25,3-3.58C210.1,51.52,210.67,53.27,210.67,53.27Z"/><path class="cls-9" d="M199.22,54c.11-.24.48-.06.37.18-.41.91-2.76,3-1.32,3.83.23.12,0,.49-.19.36C196.17,57.27,198.71,55.09,199.22,54Z"/><path class="cls-11" d="M200.5,54.84c-.15.3-.11.63.1.74s.5,0,.65-.35a.53.53,0,0,0-.1-.73C201,54.39,200.65,54.55,200.5,54.84Z"/><path class="cls-11" d="M201.65,52.19a2.25,2.25,0,0,0,.95.72c.56.28.07,1.11-.48.83a3.09,3.09,0,0,1-1.31-1.06C200.48,52.15,201.32,51.67,201.65,52.19Z"/><path class="cls-7" d="M186.9,61.6l12,4.46a23.08,23.08,0,0,0-.78,2.86c-.52,2.25,0,5.93-1.84,5.61s-9.05-4.61-10.63-5.86-5.45-10.45-4.54-12.27C182.22,54.1,186.9,61.6,186.9,61.6Z"/><path class="cls-14" d="M194.6,75.36s12.9,1.44,12.91,1.1c0-2.11,4.31-11.9,2.23-11.59-3.78.58-13.07.08-13.28.22C193.19,67.18,194.6,75.36,194.6,75.36Z"/><path class="cls-7" d="M184.43,54.58l5.88,10.36s1,.36-.65,1.94-3.5,2.53-4.87,1.22-4.86-8.2-5.37-10.16c-2.27-8.8-2.72-9.78-1-10.79C180.7,45.87,184.43,54.58,184.43,54.58Z"/><path class="cls-7" d="M181.24,48.6a4.71,4.71,0,0,0,.92-3,9.67,9.67,0,0,1,.11-3.18c.25-1.62.09-1.9-.68-1.76-.18,0-.47,1.18-.61,1.69-.27,1-.33,2.2-.92,1.4s-.49-4.7-1.31-4.7-.63.62-.52,1.46.23,2,.23,2-1.12-3.6-1.59-3.67-.9.46-.65,1.2,1.11,2.9,1.11,2.9-1.63-2.62-2-2.67-1.07,0-.79.48l1.59,2.84s-1.3-1.61-1.93-1.35-.32.54.36,1.59S177.41,50,177.41,50Z"/></g></g></svg>