<svg xmlns="http://www.w3.org/2000/svg" viewBox="0 0 194.76 169.23"><defs><style>.cls-1{fill:#dbd59e;}.cls-2{fill:#4c311e;}.cls-3{fill:#a1a08b;}.cls-4{fill:#bd9883;}.cls-5{fill:#fdce75;}.cls-6{fill:#ee7162;}.cls-7{fill:#f28f7e;}.cls-8{fill:#5b3e2d;}.cls-9{fill:#e06e5c;}.cls-10{fill:#fff;}.cls-11{fill:#7f7f74;}.cls-12{fill:#2f526e;}.cls-13{fill:#e59a85;}.cls-14{fill:#c88a5e;}.cls-15{fill:#6c2910;}.cls-16{fill:#2d2d44;}.cls-17{fill:#967e6c;}.cls-18{fill:#baddee;}.cls-19{fill:#b2b095;}.cls-20{fill:#db6e57;}.cls-21{fill:#f4a087;}.cls-22{fill:#f18c80;}.cls-23{fill:#776b61;}.cls-24{fill:#9e3924;}</style></defs><g id="Capa_2" data-name="Capa 2"><g id="Capa_1-2" data-name="Capa 1"><path class="cls-1" d="M27,110.62c2.16-1.22,5,.16,6.33,2.26a10,10,0,0,1,1.26,3.39l3.74,4.37L35,119c0,.34.07.67.1,1,.1,1,.21,1.94.34,2.91l6.75,4.92-6.43-2.69c.28,1.77.61,3.52,1,5.27l6.47,5.33-5.67-1.91c.57,2.23,1.23,4.43,2,6.61l4.9,4.46-4-1.76c.34.92.7,1.85,1.07,2.77,2.08,5.1,4.66,10.37,4.11,15.82a84.56,84.56,0,0,0,5.88-13.46c.29-.94.55-1.9.77-2.86l-2.71,1.27,3.29-4.61a25.74,25.74,0,0,0-.18-8l-3.2,6.23,2.44-9.18a40.08,40.08,0,0,0-2.41-5.66l-2,5.43.62-8.07c-.37-.7-.74-1.39-1.1-2.09s-.7-1.37-1.05-2l-1.58,2.59.57-4.47a29,29,0,0,0-2.53-3.94l-.09-.12-1,3.26-.65-5a11.92,11.92,0,0,0-5.63-3.19C32.12,107.1,28.68,108.09,27,110.62Z"/><path class="cls-2" d="M45.79,162.62h0a.2.2,0,0,1-.17-.23,80.66,80.66,0,0,0-7.79-48.63.21.21,0,0,1,.09-.28.2.2,0,0,1,.27.09A81.1,81.1,0,0,1,46,162.45.21.21,0,0,1,45.79,162.62Z"/><path class="cls-2" d="M46.32,142.17a.19.19,0,0,1-.12,0L41.88,139a.2.2,0,0,1-.05-.28.22.22,0,0,1,.29-.05l4.1,3c.91-2.62,3.42-9.84,3.7-10.16a.22.22,0,0,1,.29,0,.2.2,0,0,1,0,.28c-.24.37-2.35,6.36-3.71,10.29a.2.2,0,0,1-.14.13Z"/><path class="cls-2" d="M42.5,124.64l-.1,0-4.79-2.72a.2.2,0,1,1,.2-.35l4.53,2.56.87-6.49a.2.2,0,0,1,.22-.18.22.22,0,0,1,.18.23l-.9,6.8a.22.22,0,0,1-.12.15A.13.13,0,0,1,42.5,124.64Z"/><path class="cls-2" d="M44.86,133.21a.19.19,0,0,1-.12,0l-6.3-4.75a.2.2,0,1,1,.24-.32L45,132.84a.21.21,0,0,1-.13.37Z"/><path class="cls-2" d="M46.7,148.86a.18.18,0,0,1-.1,0,.2.2,0,0,1-.07-.28l4.35-7.31a.2.2,0,0,1,.28-.07.22.22,0,0,1,.07.28l-4.35,7.31A.21.21,0,0,1,46.7,148.86Z"/><path class="cls-3" d="M19.83,137.19l6,2.61-4.57-.31c.72,1.06,1.47,2.11,2.22,3.17l3.78,1.05-2.8.35c.7,1,1.39,2.06,2,3.12l.07.13L34.71,149H27.55c.81,1.46,1.61,2.94,2.54,4.3l5.3.56-4,1.12a14.8,14.8,0,0,0,1.11,1.13,16.39,16.39,0,0,0,8,3.66,46.49,46.49,0,0,0,8.5.58v-.11c-3.8-3.26-4.64-8.7-6.66-13.28a27.16,27.16,0,0,0-2.2-4L38.84,147l-.05-6.08c-.91-1.23-1.89-2.41-2.91-3.57L34.3,141.4l.23-5.57c-1.08-1.16-2.18-2.31-3.28-3.45L30.14,138l-.49-7.27c-.72-.77-1.44-1.55-2.14-2.35l-1,3.92-1.42-6.78a28.71,28.71,0,0,1-5.25-10A18.32,18.32,0,0,0,16.43,127l7.78,7.78-7-3.33A25.19,25.19,0,0,0,19.83,137.19Z"/><path class="cls-3" d="M49.91,161.24a.18.18,0,0,1-.12-.05A104.73,104.73,0,0,1,19.67,124a.2.2,0,0,1,.09-.27.19.19,0,0,1,.27.09,104.35,104.35,0,0,0,30,37.05.22.22,0,0,1,0,.29A.21.21,0,0,1,49.91,161.24Z"/><path class="cls-2" d="M28.19,138.38h-.05l-6.94-1.88a.2.2,0,0,1-.14-.25.19.19,0,0,1,.24-.14l6.7,1.81c.05-2,.1-4.93,0-5.26a.2.2,0,0,1,.06-.24.21.21,0,0,1,.29,0c.05.07.17.21,0,5.73a.21.21,0,0,1-.08.16A.28.28,0,0,1,28.19,138.38Z"/><path class="cls-2" d="M31.42,142.77h0l-6.62-1a.2.2,0,0,1,.06-.4l6.63,1a.21.21,0,0,1,.17.23A.22.22,0,0,1,31.42,142.77Z"/><path class="cls-2" d="M36.68,149h0a.2.2,0,0,1-.2-.2v-8.05a.2.2,0,0,1,.21-.2h0a.2.2,0,0,1,.2.2l0,8.05A.2.2,0,0,1,36.68,149Z"/><path class="cls-2" d="M33.56,145.42h0l-5.69-.26a.2.2,0,0,1-.19-.21.2.2,0,0,1,.21-.2l5.69.27a.19.19,0,0,1,.19.21A.19.19,0,0,1,33.56,145.42Z"/><path class="cls-2" d="M40.54,153h0l-9.32-1.45a.2.2,0,0,1-.17-.23.2.2,0,0,1,.23-.17l9.08,1.41-.16-5.7a.22.22,0,0,1,.2-.21.24.24,0,0,1,.21.2l.16,5.94a.2.2,0,0,1-.07.16A.21.21,0,0,1,40.54,153Z"/><path class="cls-1" d="M45.46,161.25a39.64,39.64,0,0,1-10.89-8.55c-.28-.31-.55-.63-.83-1l-1.83,3.37v-5.65c-.8-1-1.58-2.07-2.38-3.1l-1.31,2.39L28,144.42a31.22,31.22,0,0,0-4.77-4.84l-1,4.54-1.42-6.2-.06,0a24.14,24.14,0,0,0-6.59-2.36c.73,1.63,1.46,3.25,2.18,4.88l-5.39-5.47c-3.66-.59-7.41-1-10.9-2.18a28.44,28.44,0,0,0,3.89,11.12A41.35,41.35,0,0,1,10.23,146L5.31,146a33.38,33.38,0,0,0,4.18,4.8l6.13.39-4.3,1.24a35.64,35.64,0,0,0,3.39,2.5l7.26-.4-5.08,1.69a38.15,38.15,0,0,0,5.73,2.57l5.21-1.35-3.23,2A53.15,53.15,0,0,0,45.46,161.25Z"/><path class="cls-2" d="M46.36,161.77h0A81.05,81.05,0,0,1,5,138.5a.21.21,0,0,1,0-.29.2.2,0,0,1,.28,0A80.69,80.69,0,0,0,46.4,161.37a.21.21,0,0,1,.16.24A.2.2,0,0,1,46.36,161.77Z"/><path class="cls-2" d="M19.59,150.57a.21.21,0,0,1-.2-.19l-1.09-9.89a.21.21,0,1,1,.41-.05l1.08,9.9a.2.2,0,0,1-.18.22Z"/><path class="cls-2" d="M15.55,153.73a.21.21,0,0,1-.2-.19.21.21,0,0,1,.19-.22l8-.61.3-7.19a.21.21,0,0,1,.21-.19.2.2,0,0,1,.2.21L24,152.91a.19.19,0,0,1-.19.19l-8.2.62Z"/><path class="cls-2" d="M29.51,156.08a.2.2,0,0,1-.2-.18l-.42-3.44a.21.21,0,1,1,.41-.05l.41,3.44a.21.21,0,0,1-.18.23Z"/><path class="cls-1" d="M153.14,156.06A39.31,39.31,0,0,0,151,142.38c-.13-.4-.28-.79-.42-1.19l3.83.06-4.92-2.77-1.54-3.6,2.73,0L147,132.58a31.84,31.84,0,0,1-1.88-6.52l4.47,1.32-4.71-4.29V123a23.43,23.43,0,0,1,1.17-6.89l3.18,4.29L147.13,113c1.29-3.48,2.78-6.94,3.45-10.57a28.18,28.18,0,0,1,7.78,8.84,40.63,40.63,0,0,0-1.26,6.56l2.46-4.26a34.17,34.17,0,0,1,2.14,6L159,125.14q1.6-1.56,3.19-3.14a33,33,0,0,1,.51,4.19l-3.9,6.13,4-3.6a39.58,39.58,0,0,1-.57,6.25l-3.74,3.88,3.34-1.83A53.19,53.19,0,0,1,153.14,156.06Z"/><path class="cls-2" d="M153,157.21h-.06a.22.22,0,0,1-.14-.26,80.55,80.55,0,0,0,0-47.16.2.2,0,0,1,.39-.12,81,81,0,0,1,0,47.4A.21.21,0,0,1,153,157.21Z"/><path class="cls-2" d="M156.33,128.38a.19.19,0,0,1-.12,0l-8.1-5.79a.21.21,0,0,1,0-.29.19.19,0,0,1,.28,0l8.1,5.79a.21.21,0,0,1,.05.28A.21.21,0,0,1,156.33,128.38Z"/><path class="cls-2" d="M156.5,133.26l-.09,0-6.58-3.35a.21.21,0,0,1-.09-.28.2.2,0,0,1,.28-.08l6.41,3.26,4.46-6.69a.2.2,0,0,1,.34.22l-4.56,6.85A.2.2,0,0,1,156.5,133.26Z"/><path class="cls-2" d="M156.27,139.73a.19.19,0,0,1-.12,0l-2.79-2.05a.2.2,0,0,1-.05-.28.22.22,0,0,1,.29-.05l2.79,2.05a.22.22,0,0,1,.05.29A.23.23,0,0,1,156.27,139.73Z"/><path class="cls-1" d="M190.62,119.71c-1.55-1.93-4.72-1.73-6.71-.27a9.92,9.92,0,0,0-2.44,2.68l-5.1,2.65,3.72-.26-.47.9c-.45.87-.92,1.73-1.4,2.58l-8.1,2,7-.09c-.91,1.53-1.87,3-2.88,4.51l-8,2.53,6,.34c-1.36,1.85-2.79,3.66-4.29,5.41l-6.21,2.3,4.33-.16c-.67.73-1.35,1.46-2,2.17-3.83,4-8.2,7.88-9.72,13.14a85.78,85.78,0,0,1-.43-14.68c.09-1,.21-2,.36-2.94l2,2.19-1.32-5.51a25.87,25.87,0,0,1,3.17-7.38l.63,7,1.18-9.43a39.7,39.7,0,0,1,4.35-4.35l-.18,5.78,2.44-7.72,1.8-1.52,1.74-1.51.5,3,1.13-4.37a30.72,30.72,0,0,1,3.82-2.71l.13-.07-.32,3.38,2.5-4.44a12,12,0,0,1,6.41-.85C187.19,114.53,190,116.73,190.62,119.71Z"/><path class="cls-2" d="M153.84,160.94h-.05a.19.19,0,0,1-.15-.24,81,81,0,0,1,25.52-42.41.2.2,0,0,1,.29,0,.2.2,0,0,1,0,.28,80.68,80.68,0,0,0-25.4,42.2A.19.19,0,0,1,153.84,160.94Z"/><path class="cls-2" d="M161,141.77a.21.21,0,0,1-.13-.05.18.18,0,0,1-.07-.17c.21-4.17.49-10.52.4-10.94a.2.2,0,0,1,.12-.25.21.21,0,0,1,.26.13c.14.4-.23,8-.36,10.81l4.92-1.23a.21.21,0,0,1,.1.4L161,141.76Z"/><path class="cls-2" d="M171.07,126.94a.23.23,0,0,1-.15-.07.21.21,0,0,1,0-.19l1.7-6.64a.21.21,0,0,1,.25-.14.19.19,0,0,1,.14.24l-1.62,6.35,5.16-.68a.2.2,0,0,1,.23.17.22.22,0,0,1-.18.23l-5.46.73Z"/><path class="cls-2" d="M165.68,134a.2.2,0,0,1-.05-.4l7.62-2a.2.2,0,1,1,.11.39l-7.62,2Z"/><path class="cls-2" d="M158.13,147.83a.2.2,0,0,1-.2-.17l-1.31-8.4a.2.2,0,0,1,.17-.23.21.21,0,0,1,.24.17l1.3,8.4a.21.21,0,0,1-.17.23Z"/><path class="cls-3" d="M188,140.44l-6.51.94,4.49.89c-1,.84-2,1.66-3,2.49l-3.92,0,2.61,1.07c-1,.81-1.88,1.63-2.77,2.49l-.11.1-8.26-.5,6.91,1.86c-1.16,1.19-2.31,2.41-3.57,3.48l-5.26-.83,3.56,2.12a14.4,14.4,0,0,1-1.37.8,16.41,16.41,0,0,1-8.7,1.44,46.93,46.93,0,0,1-8.35-1.66l0-.1c4.52-2.16,6.74-7.19,9.89-11.09a28.59,28.59,0,0,1,3.18-3.33l.21,4.3,1.64-5.86c1.19-.95,2.45-1.83,3.74-2.68l.46,4.34,1.23-5.43c1.35-.85,2.71-1.67,4.07-2.48l-.39,5.68,2.37-6.89c.9-.55,1.8-1.12,2.68-1.71l-.11,4,3.14-6.17a28.83,28.83,0,0,0,7.67-8.25,18.31,18.31,0,0,1,.36,11.94l-9.55,5.49,7.68-1.38A25.42,25.42,0,0,1,188,140.44Z"/><path class="cls-2" d="M152.72,155.82a.22.22,0,0,1-.19-.13.2.2,0,0,1,.11-.26,104.53,104.53,0,0,0,38.63-27.95.2.2,0,1,1,.3.26A104.8,104.8,0,0,1,152.8,155.8Z"/><path class="cls-2" d="M179.65,139.41a.19.19,0,0,1-.16-.08.18.18,0,0,1,0-.17c1.3-5.37,1.44-5.48,1.51-5.53a.21.21,0,0,1,.29,0,.21.21,0,0,1,0,.25c-.15.3-.87,3.16-1.34,5.08h6.94a.2.2,0,0,1,0,.4Z"/><path class="cls-2" d="M182,143.55h0l-6.66-.75a.2.2,0,0,1-.18-.22.21.21,0,0,1,.23-.18l6.66.75a.19.19,0,0,1,.17.22A.2.2,0,0,1,182,143.55Z"/><path class="cls-2" d="M168.68,147.46h-.05a.21.21,0,0,1-.15-.25l2.09-7.77a.21.21,0,0,1,.25-.15.21.21,0,0,1,.14.25l-2.08,7.77A.21.21,0,0,1,168.68,147.46Z"/><path class="cls-2" d="M178.19,146h0l-5.56-1.23a.2.2,0,1,1,.08-.4l5.56,1.23a.21.21,0,0,1,.16.24A.2.2,0,0,1,178.19,146Z"/><path class="cls-2" d="M173.29,151.37h0l-9.37-1a.21.21,0,0,1-.15-.09.21.21,0,0,1,0-.17l1.7-5.7a.2.2,0,0,1,.39.12L164.17,150l9.14,1a.21.21,0,0,1,0,.41Z"/><path class="cls-1" d="M122.56,156.48a39.72,39.72,0,0,1-2.09-13.68c0-.42,0-.85,0-1.27l-3.64,1.21,3.87-4.12c.12-1.3.26-2.6.39-3.89l-2.6.85,2.8-3.33a31.39,31.39,0,0,0-.17-6.79l-3.87,2.6,3.21-5.5s0,0,0-.06a23.84,23.84,0,0,0-3.19-6.23c-.58,1.68-1.17,3.36-1.75,5l-.18-7.68a66.08,66.08,0,0,1-6.47-9,28.53,28.53,0,0,0-4.77,10.77,41.18,41.18,0,0,1,3.18,5.88l-3.62-3.32a33.66,33.66,0,0,0-.25,6.35l4.21,4.49-4-2a35.94,35.94,0,0,0,.77,4.14l5.56,4.68-4.86-2.24a38.67,38.67,0,0,0,2.42,5.79l4.73,2.58-3.74-.74A53.33,53.33,0,0,0,122.56,156.48Z"/><path class="cls-2" d="M123,157.53a.21.21,0,0,1-.17-.08,81.08,81.08,0,0,1-14.19-45.23.2.2,0,0,1,.2-.2h0a.21.21,0,0,1,.21.2,80.48,80.48,0,0,0,14.12,45,.21.21,0,0,1-.06.29A.2.2,0,0,1,123,157.53Z"/><path class="cls-2" d="M111.15,131a.2.2,0,0,1-.13,0,.2.2,0,0,1,0-.28l6-8a.2.2,0,0,1,.32.24l-6,8A.21.21,0,0,1,111.15,131Z"/><path class="cls-2" d="M112.45,135.75a.21.21,0,0,1-.13-.05l-6.4-5.16a.2.2,0,0,1,0-.28.21.21,0,0,1,.29,0l6.27,5.05,5.13-5a.21.21,0,1,1,.29.29l-5.27,5.17A.2.2,0,0,1,112.45,135.75Z"/><path class="cls-2" d="M114.61,141.85a.17.17,0,0,1-.12,0,.19.19,0,0,1,0-.28l2-2.8a.19.19,0,0,1,.28,0,.21.21,0,0,1,0,.28l-2.06,2.8A.21.21,0,0,1,114.61,141.85Z"/><path class="cls-1" d="M75.9,133.06c.89-2.31,4-3.07,6.32-2.28a10.18,10.18,0,0,1,3.13,1.83l5.66,1-3.63.87.72.72c.69.68,1.4,1.36,2.11,2l8.34-.48-6.67,2q2,1.78,4.1,3.44h8.39l-5.59,2.12c1.85,1.36,3.76,2.65,5.7,3.87l6.62.34-4.17,1.14c.85.5,1.72,1,2.59,1.46,4.84,2.62,10.19,5.05,13.22,9.62a84.82,84.82,0,0,0-4-14.14q-.57-1.37-1.23-2.7l-1.28,2.7-.38-5.65a26.16,26.16,0,0,0-5.25-6.09l1.49,6.85-4-8.64a38.58,38.58,0,0,0-5.45-2.84l1.9,5.46L100,129.07l-2.18-.92-2.11-.91.43,3-2.4-3.82A29,29,0,0,0,89.23,125l-.14,0,1.32,3.13L86.7,124.6a11.88,11.88,0,0,0-6.37,1.11C77.62,127.08,75.59,130,75.9,133.06Z"/><path class="cls-2" d="M123.3,161.35a.18.18,0,0,1-.17-.1,80.71,80.71,0,0,0-36.9-32.63.19.19,0,0,1-.1-.26.2.2,0,0,1,.27-.11,81.07,81.07,0,0,1,37.08,32.8.2.2,0,0,1-.08.27A.17.17,0,0,1,123.3,161.35Z"/><path class="cls-2" d="M105.39,145.53a.21.21,0,0,1-.2-.19.19.19,0,0,1,.19-.21l5.06-.31c-1-2.6-3.6-9.78-3.59-10.2a.2.2,0,0,1,.2-.2h0a.22.22,0,0,1,.2.2c0,.44,2.21,6.41,3.66,10.32a.19.19,0,0,1,0,.18.2.2,0,0,1-.16.09l-5.33.32Z"/><path class="cls-2" d="M91.22,135a.2.2,0,0,1,0-.4l5.13-.9-3.46-5.57a.19.19,0,0,1,.06-.27.2.2,0,0,1,.28.06l3.62,5.82a.19.19,0,0,1,0,.19.17.17,0,0,1-.15.12l-5.42.95Z"/><path class="cls-2" d="M96,139.55a.21.21,0,1,1,0-.41l7.88-.33a.18.18,0,0,1,.21.19.19.19,0,0,1-.19.21l-7.88.34Z"/><path class="cls-2" d="M115.27,150.14a.21.21,0,0,1-.2-.17l-1.28-8.41a.2.2,0,0,1,.17-.23.2.2,0,0,1,.23.17l1.28,8.41a.2.2,0,0,1-.17.23Z"/><path class="cls-4" d="M176.89,158.74c0,5.8-33.19,10.49-74.14,10.49S28.6,164.54,28.6,158.74H176.89Z"/><path class="cls-5" d="M45.89,21.68c.45.23,1.12.47,1.83.74.31.12.63.24.94.38-8.49-.9-10.3,8.54-10.3,8.54a1.86,1.86,0,0,0-.74.05,1.27,1.27,0,0,0-.32.13l-.09-.16s-2.13-7.6,4.73-10.11A7,7,0,0,1,45.89,21.68Z"/><path class="cls-6" d="M47.51,43.44a4,4,0,0,0,.2.75,8,8,0,0,1-7.65-5.31,7.82,7.82,0,0,0,4.58,3.43,5,5,0,0,0,2.7,0A10.84,10.84,0,0,0,47.51,43.44Z"/><path class="cls-7" d="M44.73,24.3s4.59,1,5.89,4.47h0s.08.69.17,1.67h0c.07.75.15,1.67.21,2.59a22.51,22.51,0,0,1,.06,3.6c-.25,1.8-2.71,4.94-3.37,5.5a1.13,1.13,0,0,1-.35.21,5,5,0,0,1-2.7,0,7.82,7.82,0,0,1-4.58-3.43v0a6.51,6.51,0,0,1-.56-1.28,4.5,4.5,0,0,1-.19-.68,3.3,3.3,0,0,1-1.88-.69,3.31,3.31,0,0,1-1.25-2.07,2.77,2.77,0,0,1,.19-1.66,2.52,2.52,0,0,1,.45-.62,2,2,0,0,1,.48-.34,1.27,1.27,0,0,1,.32-.13,1.86,1.86,0,0,1,.74-.05S43.29,28.71,44.73,24.3Z"/><path class="cls-8" d="M50.62,28.77c-1.3-3.43-5.89-4.47-5.89-4.47-1.44,4.41-6.37,7-6.37,7s1.81-9.44,10.3-8.54c1.38.59,2.71,1.35,2.9,2.46.32,1.92-.71,5-.77,5.19-.09-1-.17-1.67-.17-1.67Z"/><path class="cls-2" d="M56.49,41.89A2.4,2.4,0,0,1,56,44.82a5.5,5.5,0,0,0-1.91-1.38,39.8,39.8,0,0,0-6.6,0,10.84,10.84,0,0,1-.17-1.08,1.13,1.13,0,0,0,.35-.21c.66-.56,3.12-3.7,3.37-5.5a22.51,22.51,0,0,0-.06-3.6,7.18,7.18,0,0,0,1.93,1.32c1,.56,2.17,1.29,2.34,2.46S54.73,39,55.07,40C55.32,40.73,56.08,41.2,56.49,41.89Z"/><path class="cls-7" d="M40.06,38.88a8,8,0,0,0,7.65,5.31s-3,3.27-5,2.86-4.08-2.7-4.08-2.7a4.79,4.79,0,0,0,.37-.91,22.44,22.44,0,0,0,.51-5.86,6.51,6.51,0,0,0,.56,1.28Z"/><path class="cls-8" d="M44.56,20.24a5.69,5.69,0,0,1,3.2,2.08l0,.1c-.71-.27-1.38-.51-1.83-.74a7,7,0,0,0-4-.43c-6.86,2.51-4.73,10.11-4.73,10.11l.09.16a2,2,0,0,0-.48.34,2.52,2.52,0,0,0-.45.62,2.77,2.77,0,0,0-.19,1.66,3.31,3.31,0,0,0,1.25,2.07,3.3,3.3,0,0,0,1.88.69,4.5,4.5,0,0,0,.19.68A22.44,22.44,0,0,1,39,43.44h0a40.8,40.8,0,0,0-7.06,1.24,4.08,4.08,0,0,1-3.42-2.41A4.13,4.13,0,0,1,29.15,38c.68-.78,1.68-1.31,2.08-2.26.66-1.52-.47-3.35.07-4.91.61-1.73,2.92-2.24,3.88-3.81.81-1.3.5-3,1.2-4.4a4,4,0,0,1,2.48-1.92,5.77,5.77,0,0,1,2.19-.15A5.72,5.72,0,0,1,44.56,20.24Z"/><path class="cls-9" d="M47.46,36.8a.19.19,0,0,1-.19-.15.2.2,0,0,1,.14-.25,3.27,3.27,0,0,0,1.41-.79.34.34,0,0,0,0-.48,15.84,15.84,0,0,1-2-2.78.2.2,0,0,1,.08-.28.2.2,0,0,1,.27.08,15.26,15.26,0,0,0,1.91,2.71.74.74,0,0,1,0,1,3.67,3.67,0,0,1-1.59.89Z"/><path class="cls-2" d="M44.73,32.28a.84.84,0,1,1-1.67.08.84.84,0,1,1,1.67-.08Z"/><path class="cls-2" d="M50,32a.84.84,0,1,1-.88-.92A.9.9,0,0,1,50,32Z"/><path class="cls-2" d="M44,29.49a4.88,4.88,0,0,0-1.62.52.47.47,0,0,0-.19.27.45.45,0,0,0,.06.34.44.44,0,0,0,.27.19.51.51,0,0,0,.34-.06l.08,0a3.75,3.75,0,0,1,1-.32l.13,0a.51.51,0,0,0,.3-.15.44.44,0,0,0,.11-.31A.44.44,0,0,0,44,29.49Z"/><path class="cls-2" d="M48.29,29.28a4.81,4.81,0,0,1,1.67.36.44.44,0,0,1,.18.59.44.44,0,0,1-.25.21.5.5,0,0,1-.34,0l-.09,0a4.26,4.26,0,0,0-1-.22h-.13a.44.44,0,1,1,0-.87Z"/><path class="cls-10" d="M48.35,38.41a1.89,1.89,0,0,1-2,1.15,1.8,1.8,0,0,1-1.52-1.65.24.24,0,0,1,.26-.28l3.08.45A.24.24,0,0,1,48.35,38.41Z"/><path class="cls-9" d="M39,36.2a.22.22,0,0,1-.2-.18,4.1,4.1,0,0,0-1.68-2.75.19.19,0,0,1-.05-.28.2.2,0,0,1,.28-.05,4.54,4.54,0,0,1,1.86,3,.22.22,0,0,1-.18.23Z"/><path class="cls-2" d="M30.89,43.15h0a3.87,3.87,0,0,1-2.66-5.88A7.45,7.45,0,0,1,29.32,36c.21-.2.42-.41.61-.63a2.69,2.69,0,0,0,.84-2.14,3,3,0,0,0-.25-.73,4.5,4.5,0,0,1-.25-.7,3.24,3.24,0,0,1,1.2-3,10.5,10.5,0,0,1,1.79-1.19c.3-.18.62-.36.91-.55a3.88,3.88,0,0,0,1.88-2.28.21.21,0,0,1,.25-.15.2.2,0,0,1,.15.24,4.29,4.29,0,0,1-2.06,2.53c-.3.2-.62.38-.93.56A9.92,9.92,0,0,0,31.74,29a2.83,2.83,0,0,0-1.08,2.61,4.1,4.1,0,0,0,.23.64,3.69,3.69,0,0,1,.28.81,3.11,3.11,0,0,1-.93,2.49c-.2.23-.42.44-.63.65a7.67,7.67,0,0,0-1.07,1.23,3.47,3.47,0,0,0,2.38,5.27.21.21,0,0,1,.17.24A.2.2,0,0,1,30.89,43.15Z"/><path class="cls-2" d="M56,43.47a.2.2,0,0,1-.2-.18.22.22,0,0,1,.18-.23,1.07,1.07,0,0,0,.76-1.5,2.06,2.06,0,0,0-.44-.51,2.83,2.83,0,0,1-.46-.51,2.92,2.92,0,0,1-.22-2.1,3.34,3.34,0,0,0,0-1.64,3,3,0,0,0-1.86-1.45l-.15-.06a4.22,4.22,0,0,1-2.11-1.35.19.19,0,0,1,.05-.28.2.2,0,0,1,.28.05,4,4,0,0,0,1.93,1.2l.15.06A3.37,3.37,0,0,1,56,36.65,3.73,3.73,0,0,1,56,38.5a2.65,2.65,0,0,0,.16,1.82,3.25,3.25,0,0,0,.4.44,2.58,2.58,0,0,1,.52.61,1.38,1.38,0,0,1,0,1.31,1.42,1.42,0,0,1-1.05.79Z"/><path class="cls-2" d="M39.56,30.21a.21.21,0,0,1-.2-.15.2.2,0,0,1,.14-.25,8.35,8.35,0,0,0,3.72-2,4,4,0,0,0,1.17-3.78.2.2,0,0,1,.14-.25.2.2,0,0,1,.25.14,4.35,4.35,0,0,1-1.27,4.17,8.67,8.67,0,0,1-3.89,2.08Z"/><path class="cls-6" d="M44.41,35.57c0,.63-.74,1.14-1.65,1.14s-1.66-.51-1.66-1.14.74-1.15,1.66-1.15S44.41,34.94,44.41,35.57Z"/><path class="cls-11" d="M73.31,149.58a3.27,3.27,0,0,1-.61,1.58,6.28,6.28,0,0,1-3,2.18,10.82,10.82,0,0,1-5,.69,7.36,7.36,0,0,1-1.4-.26s-6.86-12.42-9.1-17.08a92.52,92.52,0,0,1-4.4-12.94c-3.31-6.47-9.79-27.36-9.79-27.36s-2.27,19.4-2.7,24.89-3.47,30.18-3.47,30.18a36.41,36.41,0,0,1-3.66,1.81,12.74,12.74,0,0,1-4,1.09,4.32,4.32,0,0,1-2-.41A4.41,4.41,0,0,1,22.2,152l1.73-29.32s.87-26.32,1.45-33.3a20.35,20.35,0,0,1,3.8-9.85c2.08,2,8.28,7.72,12.13,7.37A65.12,65.12,0,0,0,54.9,83.25s4.26,23.88,5.56,28.79S73.31,149.58,73.31,149.58Z"/><path class="cls-2" d="M83.17,157.77c.81.19,2.09,2.57-.92,3.31s-17,0-17.44-1.46c-.37-1.14-.17-4.22-.06-5.59a10.82,10.82,0,0,0,5-.69,6.28,6.28,0,0,0,3-2.18,11.17,11.17,0,0,0,3,4C77.48,156.34,82.36,157.59,83.17,157.77Z"/><path class="cls-2" d="M30.28,156c0,1.06,1.9,5.5,1.09,6.17s-9.12.78-9.61,0-.37-2.29.94-4.33A11.45,11.45,0,0,0,24.15,154a4.32,4.32,0,0,0,2,.41,12.74,12.74,0,0,0,4-1.09C30.24,154.13,30.26,155.33,30.28,156Z"/><path class="cls-12" d="M23.09,151.36h0a.2.2,0,0,1-.19-.21c0-.58,3.41-58.47,3.44-62.52s3-7.49,3.17-7.63a.19.19,0,0,1,.28,0,.21.21,0,0,1,0,.29s-3,3.4-3.06,7.36-3.41,62-3.44,62.54A.21.21,0,0,1,23.09,151.36Z"/><path class="cls-12" d="M41,95.21a.21.21,0,0,1-.18-.12.2.2,0,0,1,.1-.27,50.79,50.79,0,0,0,5.93-3.34.21.21,0,0,1,.28,0,.2.2,0,0,1-.06.28,49.6,49.6,0,0,1-6,3.38Z"/><path class="cls-12" d="M42.53,96.07a.2.2,0,0,1-.2-.16.21.21,0,0,1,.16-.24l4.39-.87a.2.2,0,1,1,.08.4l-4.39.87Z"/><path class="cls-12" d="M33.76,125.42a7.1,7.1,0,0,1-5-2.06.21.21,0,0,1,.29-.29,6.67,6.67,0,0,0,6.62,1.66.2.2,0,0,1,.25.14.19.19,0,0,1-.13.25A6.78,6.78,0,0,1,33.76,125.42Z"/><path class="cls-12" d="M57.59,123.83a6.8,6.8,0,0,1-2.14-.35.2.2,0,0,1-.13-.26.21.21,0,0,1,.26-.13,6.48,6.48,0,0,0,5.73-.83.22.22,0,0,1,.29,0,.2.2,0,0,1-.05.28A6.91,6.91,0,0,1,57.59,123.83Z"/><path class="cls-7" d="M54.6,88.42a32.65,32.65,0,0,0-3.35,1.35c-.81.46-1.51.39-1.57,0S51.33,88,51.33,88c-.73.18-1.83.22-1.63-.32s3.54-2,4.66-2.33a8.89,8.89,0,0,0,2.71-1.9l6-14.78-6.28-9.32A26.7,26.7,0,0,0,63,53.59c1.3,2,7.22,11.4,7.7,12.71A5.93,5.93,0,0,1,71.15,70c-.3,1-10.67,16.24-10.67,16.24a6.55,6.55,0,0,1-3.41,4,7.39,7.39,0,0,1-1,1.84c-.75,1-1.65,1.94-1.8,1.49-.26-.75,1.51-3.71,1.51-3.71s-4.07,2.88-4.3,2.73.45-1.74,1-2.08A24.22,24.22,0,0,0,54.6,88.42Z"/><path class="cls-5" d="M54,83.81a57.6,57.6,0,0,1-12.68,3.12c-3.85.35-10-5.34-12.13-7.37-.45-.43-.7-.7-.7-.7A1.7,1.7,0,0,1,29.24,77l1-2.31c1.17-1,2.6-4.84,2.6-4.84s-1.75-7.15-1.63-11.34h-.14a9.43,9.43,0,0,1-3.94-1.27,18.32,18.32,0,0,1-1.76-1s2.09-8.92,4.4-10.54a8,8,0,0,1,2.14-1A40.8,40.8,0,0,1,39,43.44h0a4.79,4.79,0,0,1-.37.91s2,2.29,4.08,2.7,5-2.86,5-2.86a4,4,0,0,1-.2-.75,39.8,39.8,0,0,1,6.6,0A5.5,5.5,0,0,1,56,44.82a104,104,0,0,1,7.33,8.32s-.12.17-.34.45a26.7,26.7,0,0,1-6.27,5.77l-.11-.15v.21a22.74,22.74,0,0,1-.48,5.09,24.55,24.55,0,0,1-1.57,3.41s-.08,12.86.22,13.59a2,2,0,0,1,.1,1.74C54.86,83.38,54.53,83.57,54,83.81Z"/><path class="cls-7" d="M31.22,58.48c-.12,4.19,1.63,11.34,1.63,11.34s-1.43,3.88-2.6,4.84-2.67.07-3.4-.76S21.29,62.15,20.68,61s-1.16-2.16-1.16-2.16-1.64-3.16-2-4.19-.07-1.27-.07-1.27L17,51.91c-.27-.83.3-.92.69-1.8s0-1.16.68-2,1.72-.25,2.78-.14,1.3,1.53,1.73,2a2.83,2.83,0,0,1,.47,1.53c.83,1.35-.14,1.57-.14,1.57s.43,1.48.14,1.77a2.92,2.92,0,0,1-.47.4,6.54,6.54,0,0,1,0,1.73l3.42,5.23.84-4.95a9.43,9.43,0,0,0,3.94,1.27Z"/><path class="cls-13" d="M31.22,58.69a.2.2,0,0,1-.2-.19,25.62,25.62,0,0,1,.82-7.08.21.21,0,0,1,.25-.15.2.2,0,0,1,.14.25,25.54,25.54,0,0,0-.81,6.95.2.2,0,0,1-.19.22Z"/><path class="cls-13" d="M56.74,59.56a.21.21,0,0,1-.21-.19c-.17-2.07-3-8.46-3-8.52a.2.2,0,0,1,.1-.27.2.2,0,0,1,.27.1c.11.27,2.83,6.52,3,8.66a.21.21,0,0,1-.19.22Z"/><path class="cls-13" d="M35.39,64.34a.2.2,0,0,1-.21-.18.2.2,0,0,1,.19-.22c.08,0,8.86-.9,14.3-1.09a.21.21,0,0,1,.21.2.19.19,0,0,1-.19.21c-5.43.19-14.2,1.07-14.28,1.08Z"/><path class="cls-13" d="M39.66,66.89a.19.19,0,0,1-.19-.15.2.2,0,0,1,.14-.25c.08,0,8-2.23,10-2.76a.19.19,0,0,1,.24.14.2.2,0,0,1-.14.25c-2,.53-9.93,2.74-10,2.76Z"/><path class="cls-13" d="M41.48,85a10.48,10.48,0,0,1-2.92-.32c-3.31-1-8.83-6.69-9.06-6.93a.2.2,0,1,1,.29-.28c.06.06,5.68,5.82,8.89,6.82s12.3-.8,12.39-.82a.2.2,0,0,1,.08.4A60.07,60.07,0,0,1,41.48,85Z"/><path class="cls-9" d="M59.69,85.63a.2.2,0,0,1-.15-.06A6.51,6.51,0,0,0,57.31,84a.2.2,0,0,1-.1-.27.2.2,0,0,1,.27-.1,6.89,6.89,0,0,1,2.36,1.68.21.21,0,0,1,0,.29A.19.19,0,0,1,59.69,85.63Z"/><path class="cls-9" d="M29.65,66.89a.19.19,0,0,1-.18-.11,41.77,41.77,0,0,0-3.32-4.49.21.21,0,0,1,0-.29.21.21,0,0,1,.29,0,39.29,39.29,0,0,1,3.36,4.56.19.19,0,0,1-.08.27A.16.16,0,0,1,29.65,66.89Z"/><path class="cls-9" d="M63,68.88a.18.18,0,0,1-.17-.1.21.21,0,0,1,.07-.28,6.2,6.2,0,0,1,3-.66.2.2,0,0,1,0,.4,5.79,5.79,0,0,0-2.74.62Z"/><path class="cls-9" d="M51.33,88.21a.19.19,0,0,1-.17-.09.21.21,0,0,1,.06-.28,12.45,12.45,0,0,1,2.24-1.09.21.21,0,0,1,.26.13.2.2,0,0,1-.13.25,13.21,13.21,0,0,0-2.15,1.05Z"/><path class="cls-9" d="M22.88,55.4a.19.19,0,0,1-.12,0L20.84,54l-1.79.28a.21.21,0,0,1-.24-.17.2.2,0,0,1,.17-.23l1.88-.29a.2.2,0,0,1,.15,0L23,55a.21.21,0,0,1,.05.28A.2.2,0,0,1,22.88,55.4Z"/><path class="cls-9" d="M23.21,53.23l-.1,0a10.58,10.58,0,0,0-2.21-1,7.21,7.21,0,0,0-2.11,0,.2.2,0,0,1-.23-.17.21.21,0,0,1,.17-.23,7.51,7.51,0,0,1,2.26,0,10.18,10.18,0,0,1,2.32,1,.19.19,0,0,1,.07.27A.18.18,0,0,1,23.21,53.23Z"/><path class="cls-9" d="M23.35,51.66a.15.15,0,0,1-.09,0,19.8,19.8,0,0,0-2.11-1,3.48,3.48,0,0,0-2.07,0,.2.2,0,0,1-.26-.13.2.2,0,0,1,.13-.25,3.78,3.78,0,0,1,2.34,0,20.1,20.1,0,0,1,2.16,1,.2.2,0,0,1,.08.28A.19.19,0,0,1,23.35,51.66Z"/><path class="cls-9" d="M22.88,50.13a.19.19,0,0,1-.1,0,7.43,7.43,0,0,0-1.64-.74,15.37,15.37,0,0,0-2.38-.21.22.22,0,0,1-.2-.21.2.2,0,0,1,.21-.2,16.39,16.39,0,0,1,2.46.22,8.2,8.2,0,0,1,1.76.79.22.22,0,0,1,.07.28A.22.22,0,0,1,22.88,50.13Z"/><path class="cls-13" d="M43,49c-2,0-5.43-3.83-5.58-4a.2.2,0,0,1,.3-.27s3.51,3.93,5.32,3.86,5.89-4.06,5.93-4.1a.21.21,0,1,1,.29.29c-.17.16-4.2,4.15-6.2,4.22Z"/><path class="cls-7" d="M141.37,37.33a6.23,6.23,0,0,0,1.33,1c-1.14.86-4.43,3.12-7.38,3a14.16,14.16,0,0,1-6.2-2.08c.24-.18,1.1-.85,1.73-1.42,0,0,7.3,2.82,10-3.84A14.56,14.56,0,0,0,141.37,37.33Z"/><path class="cls-2" d="M128.79,25.18a.54.54,0,0,0-.21.19,1.51,1.51,0,0,0-.21.23.72.72,0,0,1-.17-.22,1.84,1.84,0,0,1-.1-.93,1.86,1.86,0,0,0-.07-.94c-.15-.36-.51-.58-.7-.92a2,2,0,0,1,.12-1.75,5,5,0,0,0,.62-1.71,9.21,9.21,0,0,1-.11-1.65,2.1,2.1,0,0,1,1-1.2,7.62,7.62,0,0,0,1.28-.91c.66-.68.89-1.77,1.72-2.23a2.67,2.67,0,0,1,1.87-.12,6.19,6.19,0,0,0,1.89.28c.58-.05,1.11-.31,1.67-.39a2.75,2.75,0,0,1,2.73,1.47A2.31,2.31,0,0,1,143,16a6.47,6.47,0,0,0,.42,1.76c.43.68,1.41.91,1.73,1.65a1.93,1.93,0,0,1,0,1.34,6.15,6.15,0,0,0-.39,1.31,4.81,4.81,0,0,0,.15,1.46,3,3,0,0,1,0,1.45,1.3,1.3,0,0,1-.68.79,1.8,1.8,0,0,0-.3-.37.5.5,0,0,0-.22-.19,1.92,1.92,0,0,0-.57-.29,1.85,1.85,0,0,0-.57-.06h0a18.65,18.65,0,0,0-.57-3.7c-.57-2-1.73-2.52-2.38-2.43a13.45,13.45,0,0,1-3.34.47,13.34,13.34,0,0,1-3.33-.47c-.65-.09-1.81.43-2.38,2.43a18.65,18.65,0,0,0-.57,3.7h0a1.85,1.85,0,0,0-.57.06A2.1,2.1,0,0,0,128.79,25.18Z"/><path class="cls-6" d="M140.89,33.93c-2.74,6.66-10,3.84-10,3.84a4,4,0,0,0,.67-.69,9.88,9.88,0,0,0,0-3.13,16.43,16.43,0,0,0,2.84,2.69,4,4,0,0,0,3.63,0A16.33,16.33,0,0,0,140.89,33.93Z"/><path class="cls-7" d="M131.57,34a5,5,0,0,1-1.06-1.75c-.08-.28-.15-1.45-.21-1.93l-.56-.25a3.22,3.22,0,0,1-.56-.34,3.39,3.39,0,0,1-1.24-2.06,2.65,2.65,0,0,1,.2-1.64,1.83,1.83,0,0,1,.23-.38,1.51,1.51,0,0,1,.21-.23.54.54,0,0,1,.21-.19,2.1,2.1,0,0,1,.58-.29,1.85,1.85,0,0,1,.57-.06h0a18.65,18.65,0,0,1,.57-3.7c.57-2,1.73-2.52,2.38-2.43a13.34,13.34,0,0,0,3.33.47,13.45,13.45,0,0,0,3.34-.47c.65-.09,1.81.43,2.38,2.43a18.65,18.65,0,0,1,.57,3.7h0a1.85,1.85,0,0,1,.57.06,1.92,1.92,0,0,1,.57.29.5.5,0,0,1,.22.19,1.8,1.8,0,0,1,.3.37,1.38,1.38,0,0,1,.14.24,2.8,2.8,0,0,1,.2,1.64,3.4,3.4,0,0,1-1.25,2.06,2.88,2.88,0,0,1-.56.34l-.55.24c-.06.48-.13,1.65-.21,1.94a5.09,5.09,0,0,1-1.05,1.73A16.33,16.33,0,0,1,138,36.64a4,4,0,0,1-3.63,0A16.43,16.43,0,0,1,131.57,34Z"/><path class="cls-9" d="M135.94,30.5a.2.2,0,0,1,0-.4,4,4,0,0,0,1.87-.78.62.62,0,0,0,.15-.76,20.4,20.4,0,0,1-1.51-4.08.21.21,0,0,1,.15-.25.2.2,0,0,1,.24.15,20.22,20.22,0,0,0,1.48,4,1,1,0,0,1-.26,1.27,4.39,4.39,0,0,1-2.07.85Z"/><path class="cls-2" d="M134.58,25.74a.9.9,0,1,1-.9-1A1,1,0,0,1,134.58,25.74Z"/><path class="cls-2" d="M140.22,25.74a.91.91,0,1,1-.9-1A1,1,0,0,1,140.22,25.74Z"/><path class="cls-2" d="M134.08,22.53a6.54,6.54,0,0,0-2.21.6.56.56,0,0,0-.27.35.59.59,0,0,0,.06.45.61.61,0,0,0,.35.28.74.74,0,0,0,.46-.06l.11-.06a6.17,6.17,0,0,1,1.34-.36h.16a.67.67,0,0,0,.42-.18.59.59,0,0,0,.17-.42A.6.6,0,0,0,134.08,22.53Z"/><path class="cls-2" d="M138.36,22.53a6.6,6.6,0,0,1,2.22.6.63.63,0,0,1,.27.35.59.59,0,0,1-.06.45.61.61,0,0,1-.35.28.72.72,0,0,1-.46-.06l-.11-.06a6.17,6.17,0,0,0-1.34-.36h-.17a.64.64,0,0,1-.41-.18.6.6,0,0,1-.18-.42A.61.61,0,0,1,138.36,22.53Z"/><path class="cls-9" d="M130.3,30.48a.21.21,0,0,1-.2-.19l-.26-3.66a.2.2,0,0,1,.19-.21.21.21,0,0,1,.22.18l.26,3.66a.22.22,0,0,1-.19.22Z"/><path class="cls-9" d="M142.15,30.46h0a.21.21,0,0,1-.2-.21l.17-3.83a.18.18,0,0,1,.21-.19.19.19,0,0,1,.19.21l-.16,3.83A.21.21,0,0,1,142.15,30.46Z"/><path class="cls-9" d="M129.76,29.39h0a.2.2,0,0,1-.2-.21,6.46,6.46,0,0,0-.83-2.92.2.2,0,0,1,.07-.28.21.21,0,0,1,.27.07,6.66,6.66,0,0,1,.9,3.14A.22.22,0,0,1,129.76,29.39Z"/><path class="cls-9" d="M142.68,29.08a.2.2,0,0,1-.2-.2,6.58,6.58,0,0,1,.89-3.14.21.21,0,0,1,.28-.06.19.19,0,0,1,.07.27,6.19,6.19,0,0,0-.83,2.92.21.21,0,0,1-.2.21Z"/><path class="cls-6" d="M133.64,28.45c0,.53-.63,1-1.4,1s-1.39-.43-1.39-1,.62-1,1.39-1S133.64,27.92,133.64,28.45Z"/><path class="cls-6" d="M141.68,28.22c0,.53-.62,1-1.39,1s-1.39-.43-1.39-1,.62-1,1.39-1S141.68,27.68,141.68,28.22Z"/><path class="cls-2" d="M136.88,32.82a3.06,3.06,0,0,1-2.73-1.76.2.2,0,0,1,.1-.27.21.21,0,0,1,.27.1A2.62,2.62,0,0,0,137,32.41a.2.2,0,0,1,.21.19.19.19,0,0,1-.19.21Z"/><path class="cls-14" d="M133.46,152.35a19,19,0,0,1-3.53.73,11,11,0,0,1-3.57-.89c-1.2-.46-2.19-.92-2.19-.92s.06-28.56,0-30.54.38-26.58.66-32.1a77.34,77.34,0,0,1,.88-8.23,20,20,0,0,0,7.62,2.82c2,.07,10.93-3,10.93-3a105.41,105.41,0,0,0,10.6,2c.17,2.58,1.16,17.31,1.42,21.42.29,4.5.87,47.91.87,47.91a12.2,12.2,0,0,1-2.16,1.89,4.87,4.87,0,0,1-2.4.93,13.06,13.06,0,0,1-4.23-.77c-.76-.25-1.27-.46-1.27-.46s-1.92-23.82-2.17-25.55a25.36,25.36,0,0,1,0-4.63L141,98.13l-4.35,24.77c.54,2.53-1.08,28.81-1.08,28.81S134.63,152,133.46,152.35Z"/><path class="cls-15" d="M155,153.38s2.33,7.59,2.16,8.86-2.46,3.83-4,4.06-4.56-1.15-5-1.89,0-3.74.21-5.47a51.35,51.35,0,0,0,0-5.4,13.06,13.06,0,0,0,4.23.77A4.87,4.87,0,0,0,155,153.38Z"/><path class="cls-15" d="M133.46,152.35v7.83l-6.35,4.23H119a3.71,3.71,0,0,1-.28-2.6c.39-1.47,1.42-1.09,3-2.55,1.42-1.32,4.11-6.13,4.63-7.07a11,11,0,0,0,3.57.89A19,19,0,0,0,133.46,152.35Z"/><path class="cls-16" d="M125.94,120.25a.2.2,0,0,1-.2-.18.22.22,0,0,1,.18-.23,4.86,4.86,0,0,0,3.76-2.54.21.21,0,0,1,.28-.08.19.19,0,0,1,.08.27,5.28,5.28,0,0,1-4.07,2.76Z"/><path class="cls-16" d="M146.76,121.91a.21.21,0,0,1-.16-.08.21.21,0,0,1,0-.29,9.83,9.83,0,0,0,3-4,.2.2,0,0,1,.26-.11.2.2,0,0,1,.11.27,10.27,10.27,0,0,1-3.12,4.11A.21.21,0,0,1,146.76,121.91Z"/><path class="cls-16" d="M141,98.34a.21.21,0,0,1-.2-.19L140.46,93l-9-3.79a.2.2,0,0,1-.11-.26.2.2,0,0,1,.27-.11l9.14,3.83a.2.2,0,0,1,.12.18l.35,5.28a.22.22,0,0,1-.19.22Z"/><path class="cls-16" d="M139.41,93.78h-6.95a.2.2,0,0,1-.2-.21.2.2,0,0,1,.2-.2h6.95a.21.21,0,1,1,0,.41Z"/><path class="cls-16" d="M154,88.84h-.06c-4.28-1.37-5.79-5.81-5.81-5.85a.22.22,0,0,1,.13-.26.21.21,0,0,1,.26.13s1.46,4.28,5.55,5.59a.21.21,0,0,1-.07.4Z"/><path class="cls-16" d="M156.14,151.11a.21.21,0,0,1-.21-.19l-1-33.66c1.5-22.32-2.34-33.86-2.38-34a.2.2,0,0,1,.13-.26.21.21,0,0,1,.26.13c0,.11,3.9,11.72,2.4,34.11l1,33.64a.2.2,0,0,1-.2.2Z"/><path class="cls-5" d="M142.7,38.3c.27-.2.41-.32.41-.32s5.06.82,8.79,1.65,8.42,10.69,9,11.23c0,0-.18.61-.48,1.45-.58,1.69-1.61,4.32-2.45,4.85a20.84,20.84,0,0,1-4.38,1.56l.25,10.17s1.23,8.9,1.6,10.06.86,2.46.28,3.11c-.09.11-.42.13-.91.1a105.41,105.41,0,0,1-10.6-2s-9,3.09-10.93,3a20,20,0,0,1-7.62-2.82c-.92-.63-1.54-1.3-1.54-2,0-2.26,2-15,2-15l-1.23-6-3.59,3.33a7.47,7.47,0,0,1-1.34-.71c-2.21-1.42-5.57-4.52-6.75-8.06a8.31,8.31,0,0,1-.34-1.37s5.35-7.46,6.84-8.9,8.69-3,8.69-3,.26.18.71.45a14.16,14.16,0,0,0,6.2,2.08C138.27,41.42,141.56,39.16,142.7,38.3Z"/><path class="cls-17" d="M165.33,96.49s0,.14.14.35a2.92,2.92,0,0,0-.25.7,8.57,8.57,0,0,1-.41,1.75,1.06,1.06,0,0,1-1,.72c-.46-.07-.7-.57-.88-1a6.24,6.24,0,0,1-.39-1.25,2,2,0,0,1,.17-1.28,2.66,2.66,0,0,1,1-1l.57-.32A4.58,4.58,0,0,0,165.33,96.49Z"/><path class="cls-17" d="M178.1,115.22c1.57,5.43,3,11.2,1.55,16.66a2.82,2.82,0,0,1-.66,1.34,3.13,3.13,0,0,1-1.63.65c-2.08.38-4.16.76-6.25,1a16.62,16.62,0,0,1-7.3-.4,7.29,7.29,0,0,1-4.93-5,10.09,10.09,0,0,1,.25-4.12c2-9.45,6.85-18.16,8.57-27.66a2.5,2.5,0,0,0,1.16.23A3.75,3.75,0,0,0,170.4,97a2.38,2.38,0,0,0,1.46-.86Q175.3,105.57,178.1,115.22Z"/><path class="cls-7" d="M120,60.09A20.08,20.08,0,0,1,116,63c-1.81.59-15.52-7.68-15.52-7.68h0c-2.35-.37-4.72-3-4.72-3a7.17,7.17,0,0,1-1.13-1.65,1.83,1.83,0,0,1,.3-1A1.62,1.62,0,0,1,95,48.51c.23-.79.52-.6.52-.6a4,4,0,0,1,.18-1.1.75.75,0,0,1,.67-.48,3.5,3.5,0,0,1,.1-1.37c.2-.35,1-.4,1-.4a1.63,1.63,0,0,1,.06-.75c.13-.27,1.86.06,2.31.3a15.23,15.23,0,0,1,3,2.22c.66.67.88,3,.94,4.23l8.44,2.7,1-1.23C114.4,55.57,117.76,58.67,120,60.09Z"/><path class="cls-15" d="M100.34,44.43c.15.08.3.16.44.25l.19.14,12-32.65-1.3-.48L99.75,44.12Z"/><path class="cls-18" d="M98.82,50.32a1.65,1.65,0,0,1-.53.4l-.23.09a1.63,1.63,0,0,1,.12.62,1.12,1.12,0,0,1-.46.78l.47.17.66-1.79Z"/><path class="cls-19" d="M117.67,10l-1.13-.8a3.31,3.31,0,0,0-.23-4.09l-.47-.53,1.59-1.36.9,1-.56.48A4.7,4.7,0,0,1,118.24,9,4.53,4.53,0,0,1,117.67,10Z"/><path class="cls-19" d="M109.16,6.86a4.51,4.51,0,0,1,.26-1.13,4.7,4.7,0,0,1,3-2.87l-.08-.59,1.37-.19L114,4l-.66.11a3.31,3.31,0,0,0-2.58,2.14,3.14,3.14,0,0,0-.19.79Z"/><path class="cls-15" d="M117.9,10.2a5,5,0,0,1-4.71,2.07l-.66,1.83-1.82-.67.64-1.77a5,5,0,0,1-2.47-4.83l1.93.2a3,3,0,0,0,5.5,2.05Z"/><path class="cls-15" d="M99,51a4.57,4.57,0,0,1-.14-.72,1.61,1.61,0,0,1-.52.4l-.23.09a1.63,1.63,0,0,1,.12.62,1.12,1.12,0,0,1-.52.83,1.19,1.19,0,0,1-1.21.05l-.63,1.74,1.82.66L99,51.07Z"/><path class="cls-2" d="M166.09,96.17a1.44,1.44,0,0,0-.62.67c-.09-.21-.14-.35-.14-.35a4.58,4.58,0,0,1-1.05-1.29,10.76,10.76,0,0,1,1.43-.64A4.27,4.27,0,0,1,166.09,96.17Z"/><path class="cls-7" d="M171.86,96.12a2.38,2.38,0,0,1-1.46.86,3.75,3.75,0,0,1-1.54.92,2.5,2.5,0,0,1-1.16-.23l-.09,0s-1,1.11-1.39.6a6.92,6.92,0,0,1-.75-1.39,1.44,1.44,0,0,1,.62-.67,4.27,4.27,0,0,0-.38-1.61,10.76,10.76,0,0,0-1.43.64,4.24,4.24,0,0,1-.52-2.57c.26-2.41.43-6.08.43-6.08s-4.32-15.83-4.78-17.1-5.77-10.73-5.77-10.73A20.84,20.84,0,0,0,158,57.16c.84-.53,1.87-3.16,2.45-4.85,1.53,3.46,5.62,12.81,6.67,15.71,1.3,3.58,2,18.24,2,18.24S170.4,89.41,171,91s2.42,4.13,1.08,4.85A1.12,1.12,0,0,1,171.86,96.12Z"/><path class="cls-20" d="M99.46,52.24a.2.2,0,0,1-.18-.11,5.08,5.08,0,0,1-.4-2.89,10.39,10.39,0,0,1,.78-2.57,6.88,6.88,0,0,1-2.42-2,.2.2,0,1,1,.32-.25A6.4,6.4,0,0,0,100,46.38a.21.21,0,0,1,.11.27,9.53,9.53,0,0,0-.83,2.64A4.64,4.64,0,0,0,99.64,52a.2.2,0,0,1-.09.27Z"/><path class="cls-20" d="M99.22,48.09a.13.13,0,0,1-.08,0,11.13,11.13,0,0,1-2.75-1.64.22.22,0,0,1,0-.29.21.21,0,0,1,.29,0A10.49,10.49,0,0,0,99.3,47.7a.2.2,0,0,1-.08.39Z"/><path class="cls-20" d="M99,49.8h0A5.88,5.88,0,0,1,95.51,48a.21.21,0,0,1,0-.29.2.2,0,0,1,.29,0A5.54,5.54,0,0,0,99,49.4a.2.2,0,0,1,0,.4Z"/><path class="cls-20" d="M97.81,51a2.83,2.83,0,0,1-.68-.09,4.79,4.79,0,0,1-2.27-1.32.21.21,0,0,1,0-.29.22.22,0,0,1,.29,0,4.43,4.43,0,0,0,2.07,1.2,1.67,1.67,0,0,0,1.07,0,.66.66,0,0,0,.41-.73.2.2,0,0,1,.13-.26.21.21,0,0,1,.25.13,1.06,1.06,0,0,1-.63,1.23A1.47,1.47,0,0,1,97.81,51Z"/><path class="cls-20" d="M97.06,52.52a1.83,1.83,0,0,1-.73-.16,3,3,0,0,1-.84-.58.2.2,0,1,1,.27-.3,2.8,2.8,0,0,0,.73.5,1.32,1.32,0,0,0,.81.11.85.85,0,0,0,.59-.46.61.61,0,0,0-.12-.65.19.19,0,0,1,0-.28.2.2,0,0,1,.29,0,1,1,0,0,1,.22,1.11,1.34,1.34,0,0,1-1.2.73Z"/><path class="cls-20" d="M101.13,55,101,55a.21.21,0,0,1-.06-.28l1.73-2.68A.21.21,0,0,1,103,52a.21.21,0,0,1,.06.28L101.3,55A.2.2,0,0,1,101.13,55Z"/><path class="cls-13" d="M124.9,57.67a.19.19,0,0,1-.2-.16l-1.86-8.6a.2.2,0,0,1,.15-.24.21.21,0,0,1,.24.16l1.86,8.6a.2.2,0,0,1-.15.24Z"/><path class="cls-13" d="M135.18,42.9c-4.12,0-8.08-3.18-8.26-3.32a.2.2,0,1,1,.26-.31s4.34,3.47,8.47,3.21,8.22-3.93,8.26-4a.21.21,0,0,1,.29,0,.19.19,0,0,1,0,.28c-.17.16-4.23,3.8-8.51,4.07Z"/><path class="cls-13" d="M124,56.89a.21.21,0,0,1-.18-.11l-2.56-5.45a.21.21,0,0,1,.37-.18l2.56,5.45a.2.2,0,0,1-.1.27A.15.15,0,0,1,124,56.89Z"/><path class="cls-13" d="M153.64,58.92a.22.22,0,0,1-.21-.2l-.25-9.14a.21.21,0,0,1,.41,0l.25,9.14a.2.2,0,0,1-.2.21Z"/><path class="cls-13" d="M154.47,56.89h-.05a.21.21,0,0,1-.15-.25l1.09-4.07a.21.21,0,0,1,.25-.15.2.2,0,0,1,.14.25l-1.08,4.07A.21.21,0,0,1,154.47,56.89Z"/><path class="cls-13" d="M136.8,82.74a.21.21,0,0,1-.2-.17.2.2,0,0,1,.16-.23c.1,0,9.55-1.87,13.42-7.36a.2.2,0,0,1,.33.23c-4,5.62-13.57,7.51-13.67,7.52Z"/><path class="cls-13" d="M132.59,61.67a.19.19,0,0,1-.13-.05.2.2,0,0,1,0-.29c.07-.08,7.67-8.74,12.3-12.13a.2.2,0,0,1,.24.32c-4.6,3.37-12.16,12-12.24,12.08A.18.18,0,0,1,132.59,61.67Z"/><path class="cls-13" d="M136.92,62.87a.21.21,0,0,1-.18-.31l5.4-8.87a.19.19,0,0,1,.27-.07.2.2,0,0,1,.07.28l-5.39,8.87A.22.22,0,0,1,136.92,62.87Z"/><path class="cls-9" d="M167.56,98.09a.2.2,0,0,1-.13,0,.22.22,0,0,1,0-.29,3.3,3.3,0,0,0,.66-2.39.2.2,0,0,1,.18-.22.2.2,0,0,1,.23.18,3.75,3.75,0,0,1-.74,2.68A.21.21,0,0,1,167.56,98.09Z"/><path class="cls-9" d="M170.17,97.34h0a.21.21,0,0,1-.17-.23,4.61,4.61,0,0,0-.2-2.24.21.21,0,0,1,.39-.14,5.06,5.06,0,0,1,.22,2.44A.21.21,0,0,1,170.17,97.34Z"/><path class="cls-9" d="M171.9,96a.2.2,0,0,1-.19-.16A5.46,5.46,0,0,0,171,94.1a.2.2,0,1,1,.34-.22,5.61,5.61,0,0,1,.79,1.91A.19.19,0,0,1,172,96Z"/><path class="cls-9" d="M166.17,96.88h0a.21.21,0,0,1-.16-.24,2.12,2.12,0,0,0-.13-1l-.59-2a.2.2,0,0,1,.14-.25.21.21,0,0,1,.25.13l.59,2a2.53,2.53,0,0,1,.14,1.21A.2.2,0,0,1,166.17,96.88Z"/><path class="cls-9" d="M164.78,86.94a.21.21,0,0,1-.2-.17.22.22,0,0,1,.17-.24,8.52,8.52,0,0,1,2.76,0,.21.21,0,0,1,.16.24.2.2,0,0,1-.23.16,7.68,7.68,0,0,0-2.62,0Z"/><path class="cls-20" d="M115.6,58.17a.22.22,0,0,1-.19-.12,14.19,14.19,0,0,0-3-4.11.2.2,0,0,1,0-.28.2.2,0,0,1,.29,0,14.57,14.57,0,0,1,3.07,4.23.2.2,0,0,1-.09.27Z"/><path class="cls-2" d="M107.12,4.93l-.11,0-5.55-3.25a.21.21,0,0,1-.07-.28.2.2,0,0,1,.28-.07l5.55,3.24a.2.2,0,0,1,.07.28A.2.2,0,0,1,107.12,4.93Z"/><path class="cls-2" d="M108.58,3.77a.2.2,0,0,1-.15-.06l-2.72-3a.21.21,0,0,1,.3-.28l2.72,3a.21.21,0,0,1,0,.29A.17.17,0,0,1,108.58,3.77Z"/><path class="cls-2" d="M106.64,6.78h0l-4.35-.88a.2.2,0,1,1,.08-.4l4.35.89a.21.21,0,0,1,.16.24A.21.21,0,0,1,106.64,6.78Z"/><path class="cls-2" d="M104.89,8.77a.2.2,0,0,1-.2-.17.2.2,0,0,1,.17-.23l2-.36a.21.21,0,0,1,.24.17.2.2,0,0,1-.17.23l-2,.36Z"/><path class="cls-2" d="M109.7,2.54a.22.22,0,0,1-.17-.1L108.21.31a.2.2,0,0,1,.07-.28.2.2,0,0,1,.28.07l1.32,2.13a.21.21,0,0,1-.18.31Z"/><path class="cls-20" d="M81.54,87.55c1.31,2.84,4.29,3.75,4.88,4a6.79,6.79,0,0,0,2.23.23V92c0,.37,0,.85,0,1.35s0,.8,0,1.18h-.17C83.89,94.77,81.67,88,81.54,87.55Z"/><path class="cls-21" d="M85.73,74.35c2.34.4,3.15,2.62,6.44,2.18a6.36,6.36,0,0,1,.23,1.23,2.09,2.09,0,0,1,0,.25h0s0,.1,0,.28.08.63.12,1.11a42.54,42.54,0,0,1,.29,6.5c-.24,1.8-1.28,4.9-1.95,5.47a4.53,4.53,0,0,1-2.23.43h0a6.79,6.79,0,0,1-2.23-.23c-.59-.27-3.57-1.18-4.88-4h0a7.51,7.51,0,0,1-.28-.76,5.61,5.61,0,0,1-.16-.62,3.35,3.35,0,0,1-3.16-2.77,2.86,2.86,0,0,1,.2-1.66,2.13,2.13,0,0,1,.74-.86,1.73,1.73,0,0,1,1.25-.29s2.45-2.43,2.6-5.1C82.72,75.47,83.39,74,85.73,74.35Z"/><path class="cls-21" d="M81.54,87.55c.13.42,2.35,7.22,6.92,6.94h.17c0,.83,0,1.51,0,1.51s-1.42,3.69-3.86,3.85-6.45-8.58-6.45-8.58c.4-.56.88-1.3,1.33-2h0c.83-1.28,1.56-2.49,1.56-2.49a7.51,7.51,0,0,0,.28.76h0Z"/><path class="cls-8" d="M92.17,76.53c-3.29.44-4.1-1.78-6.44-2.18s-3,1.12-3,1.12c-.15,2.67-2.6,5.1-2.6,5.1a1.73,1.73,0,0,0-1.25.29,1.45,1.45,0,0,1-.5-1.31c.06-.61.35-1.18.41-1.79.08-.82-.25-1.62-.19-2.44a2.57,2.57,0,0,1,1-1.86,2.61,2.61,0,0,1,2-.53,5.35,5.35,0,0,1,3.83-2.45,6.68,6.68,0,0,1,4.47,1.07c1.07.7,2,1.7,3.28,1.94a2,2,0,0,1,1,.35,1.33,1.33,0,0,1,.1,1.34,5.51,5.51,0,0,1-1.93,2.58A6.36,6.36,0,0,0,92.17,76.53Z"/><path class="cls-20" d="M89.83,85.51a.2.2,0,0,1-.18-.12.2.2,0,0,1,.1-.27,3.58,3.58,0,0,0,1.46-1.18.56.56,0,0,0-.06-.71A19.52,19.52,0,0,1,88.71,80a.21.21,0,0,1,.07-.27.2.2,0,0,1,.28.07A19,19,0,0,0,91.45,83a1,1,0,0,1,.09,1.22,4,4,0,0,1-1.63,1.31Z"/><path class="cls-2" d="M87.09,80.83a.85.85,0,1,1-.84-1A.91.91,0,0,1,87.09,80.83Z"/><path class="cls-2" d="M92.35,80.83a.84.84,0,1,1-.84-1A.9.9,0,0,1,92.35,80.83Z"/><path class="cls-2" d="M86.62,77.84a6,6,0,0,0-2.06.56.55.55,0,0,0-.26.32.58.58,0,0,0,.06.43.55.55,0,0,0,.33.25.61.61,0,0,0,.42-.05l.11,0A5.38,5.38,0,0,1,86.47,79l.15,0a.57.57,0,0,0,.39-.16.51.51,0,0,0,.16-.39A.56.56,0,0,0,86.62,77.84Z"/><path class="cls-2" d="M90.62,77.84a6,6,0,0,1,2.07.56.54.54,0,0,1,.19.75.52.52,0,0,1-.33.25.61.61,0,0,1-.42-.05l-.11,0A5.44,5.44,0,0,0,90.78,79l-.16,0a.57.57,0,0,1-.39-.16.51.51,0,0,1-.16-.39A.56.56,0,0,1,90.62,77.84Z"/><path class="cls-20" d="M80.69,85.2a.2.2,0,0,1-.2-.18,4.12,4.12,0,0,0-1.55-2.84.21.21,0,0,1,0-.29.2.2,0,0,1,.28,0A4.54,4.54,0,0,1,80.9,85a.21.21,0,0,1-.19.22Z"/><path class="cls-8" d="M89.83,77.23l-.27,0a5.52,5.52,0,0,1-2.38-1L86.79,76a8.45,8.45,0,0,0-1.74-1,2.55,2.55,0,0,0-2.23.11.2.2,0,0,1-.28-.06.21.21,0,0,1,.06-.28,2.94,2.94,0,0,1,2.58-.15,8.52,8.52,0,0,1,1.83,1l.38.24a5,5,0,0,0,2.2.9,2.86,2.86,0,0,0,2.55-1.17.2.2,0,0,1,.33.24A3.28,3.28,0,0,1,89.83,77.23Z"/><path class="cls-8" d="M81.52,72.61h0a.2.2,0,0,1-.17-.23A3.54,3.54,0,0,1,82.78,70a.21.21,0,0,1,.23.34,3.13,3.13,0,0,0-1.29,2.07A.21.21,0,0,1,81.52,72.61Z"/><path class="cls-8" d="M81.11,72.64a.19.19,0,0,1-.2-.19,5.64,5.64,0,0,1,.36-2.33.2.2,0,0,1,.26-.11.2.2,0,0,1,.12.26,5.3,5.3,0,0,0-.34,2.16.19.19,0,0,1-.19.21Z"/><path class="cls-8" d="M78.7,80.08h0a.2.2,0,0,1-.2-.21,8.4,8.4,0,0,0-.22-1.93c0-.2-.08-.4-.11-.6a4.53,4.53,0,0,1,.17-2.68,2.12,2.12,0,0,1,2.32-1.29.21.21,0,0,1,.15.25.2.2,0,0,1-.25.14,1.74,1.74,0,0,0-1.85,1.06,4.22,4.22,0,0,0-.14,2.45c0,.19.07.39.11.59a8.6,8.6,0,0,1,.23,2A.21.21,0,0,1,78.7,80.08Z"/><path class="cls-2" d="M89.41,87.46a3.08,3.08,0,0,1-2.65-1.52.21.21,0,1,1,.36-.2A2.64,2.64,0,0,0,89.84,87a.21.21,0,0,1,.24.17.2.2,0,0,1-.16.23A2.21,2.21,0,0,1,89.41,87.46Z"/><path class="cls-22" d="M85.68,83.51c0,.53-.62,1-1.39,1s-1.4-.43-1.4-1,.63-1,1.4-1S85.68,83,85.68,83.51Z"/><path class="cls-23" d="M104.48,159c.81.19,2.09,2.56-.93,3.31s-17,0-17.48-1.47c-.42-1.26-.13-4.9,0-6a12.8,12.8,0,0,0,3.22.58,35.55,35.55,0,0,0,6.28-.49A6.14,6.14,0,0,0,97,156.4C98.77,157.57,103.66,158.82,104.48,159Z"/><path class="cls-23" d="M49.25,157.73s2.49,1.84,2,2.72-4.75.75-6.62.59-2-1.55-2.17-3.36S43.82,149,43.82,149a7.87,7.87,0,0,1,5.91-.9,19.12,19.12,0,0,0-.79,5,23,23,0,0,0,.9,4.16Z"/><path class="cls-15" d="M101.52,135.25C100.37,139.38,96,154.9,96,154.9l-.43.06a35.55,35.55,0,0,1-6.28.49,12.8,12.8,0,0,1-3.22-.58l-.27-.11,0,0s1.82-12,2-14.28a13.18,13.18,0,0,1,1.57-4.78l-9.39,3.1s2.61,11.81,3.75,16.24a15.42,15.42,0,0,0,.47,1.57c.55,1.22,1,6.16-.48,7.49s-9,1.55-11.67.92-22.1-7.67-22.1-7.67a23,23,0,0,1-.9-4.16,19.12,19.12,0,0,1,.79-5l12.35.76a6.43,6.43,0,0,1,3.7,1.84c-.54-.63-6.91-7.94-7.69-12.67-.47-2.87,1.34-10,1.79-11.62l10.74,1.89s13,.76,14.78-1.31a3.49,3.49,0,0,0,.75-3.91L98,121.89a5.9,5.9,0,0,0,.65.54,17.23,17.23,0,0,0,3.71,1.23v.06C105.09,125.77,102.67,131.12,101.52,135.25Z"/><path class="cls-16" d="M101.69,128.82h0A6.71,6.71,0,0,1,97.35,127a.2.2,0,0,1,.27-.29,6.29,6.29,0,0,0,4.07,1.67.21.21,0,0,1,.2.21A.2.2,0,0,1,101.69,128.82Z"/><path class="cls-16" d="M79,163.6a.2.2,0,0,1-.18-.1,4.9,4.9,0,0,1,.24-5,.22.22,0,0,1,.29-.05.2.2,0,0,1,0,.28,4.46,4.46,0,0,0-.22,4.58.22.22,0,0,1-.08.28A.2.2,0,0,1,79,163.6Z"/><path class="cls-16" d="M69.11,154.74a.21.21,0,0,1-.19-.13,7.46,7.46,0,0,0-3.21-3.67.2.2,0,0,1-.09-.27.21.21,0,0,1,.28-.09,7.75,7.75,0,0,1,3.4,3.88.22.22,0,0,1-.12.27Z"/><path class="cls-16" d="M67.81,155.71a.2.2,0,0,1-.19-.12l-1.81-4.05a.2.2,0,0,1,.37-.17L68,155.43a.2.2,0,0,1-.1.27Z"/><path class="cls-16" d="M79.75,138.63a.19.19,0,0,1-.12,0,.2.2,0,0,1,0-.28c0-.06,4.16-5.93,7.35-8.78a.19.19,0,0,1,.28,0,.21.21,0,0,1,0,.29c-3.15,2.81-7.24,8.64-7.28,8.7A.21.21,0,0,1,79.75,138.63Z"/><path class="cls-16" d="M81.74,137.31a.19.19,0,0,1-.15-.07.2.2,0,0,1,0-.29c.15-.13,3.77-3.31,6-4.27a.21.21,0,1,1,.16.38c-2.14.92-5.83,4.16-5.86,4.2A.24.24,0,0,1,81.74,137.31Z"/><path class="cls-16" d="M89.26,135.89a.24.24,0,0,1-.13,0,.2.2,0,0,1,0-.29,12.82,12.82,0,0,1,3.9-3.19.2.2,0,0,1,.27.11.2.2,0,0,1-.12.26,12.84,12.84,0,0,0-3.74,3.08A.21.21,0,0,1,89.26,135.89Z"/><path class="cls-16" d="M72.72,158.82c-1.23,0-6-.25-7.61-3.87-1.81-3.93-15.75-5.52-15.89-5.53a.21.21,0,1,1,.05-.41c.58.07,14.31,1.64,16.2,5.77,1.54,3.36,5.94,3.62,7.19,3.63-1.24-2.21-8.57-15.3-9.65-18.3a17.61,17.61,0,0,1-.85-6.8.21.21,0,0,1,.23-.18.2.2,0,0,1,.18.22,17.38,17.38,0,0,0,.82,6.62c1.15,3.18,9.7,18.38,9.79,18.54a.21.21,0,0,1,0,.19.2.2,0,0,1-.17.11Z"/><path class="cls-5" d="M97.12,107.92a18.79,18.79,0,0,1-5,7.21A13.71,13.71,0,0,1,91,116l-1.34-1.54s-1.88,6.84-3.51,8.68A3.49,3.49,0,0,1,85.4,127c-1.79,2.07-14.78,1.31-14.78,1.31l-.58,0c-.15-.13-.29-.26-.44-.37a8.22,8.22,0,0,0-4.9-1.77c-2.56-.11-3.36-.69-3.36-.69l-.59-2.85h0l1.74-11.74s-.47-.74-1.09-1.74-1.51-2.5-2.11-3.64a21,21,0,0,1-1.51-5.94h0c-.09-.57-.12-.94-.12-.94s7.64-5.72,9.7-6.86,7.49-1.58,9.12-1.69a9.92,9.92,0,0,0,3.21-.85c-.45.71-.93,1.45-1.33,2,0,0,4,8.74,6.45,8.58S88.67,96,88.67,96s0-.68,0-1.51c0-.38,0-.78,0-1.18h0a47.5,47.5,0,0,0,3.73,3.9c1.43,1.23,5.2,9.48,5.2,9.48S97.41,107.16,97.12,107.92Z"/><path class="cls-5" d="M65.83,132.54c.06.12,1.1,2,1.33,2.58s.3,1.51-.36,1.57-2.15-2.49-2.73-2.76a16.37,16.37,0,0,0-1.7-.6,5.81,5.81,0,0,1-3.85-2.3,5.19,5.19,0,0,1-.86-1.83h0l-2.72-2.58a4.71,4.71,0,0,1,.9-.87,41,41,0,0,1,4.91-3.08h0l.59,2.85s.8.58,3.36.69A8.22,8.22,0,0,1,69.6,128c.15.11.29.24.44.37a4.65,4.65,0,0,1,1.39,1.93c.17.73-.68.89-.68.89s1,1,.57,1.73-1.39.2-1.39.2c.82.67.73,1.89,0,1.94s-2.6-1.79-2.6-1.79Z"/><path class="cls-21" d="M112.43,120a36.19,36.19,0,0,0-1.5,5.63c-2.74-.58-6.05-1.31-8.57-2a17.23,17.23,0,0,1-3.71-1.23,5.9,5.9,0,0,1-.65-.54,85.15,85.15,0,0,1-5.88-6.76,18.79,18.79,0,0,0,5-7.21l4.47,7.2S108.53,118.39,112.43,120Z"/><path class="cls-5" d="M124.5,123.41c.62,1-.54,1.79-.54,1.79.21,1-.87,2.39-.87,2.39-.11.8-1,.89-1.5.89h-.24a4.72,4.72,0,0,1-2,0,3.8,3.8,0,0,1-.92-.3,9.23,9.23,0,0,1-2.34-1.52l-5.21-.16a5,5,0,0,1,.06-.89,36.19,36.19,0,0,1,1.5-5.63c.2-.6.34-1,.34-1l2.88,1.71c.81-.34,1.66-1.2,2.55-1.62a1.86,1.86,0,0,1,1.36-.2,3.9,3.9,0,0,1,2.33,2.44,2.34,2.34,0,0,1,.28-.1,2.67,2.67,0,0,1,.92-.17c.43,0,2,.16,2.33,1S124.5,123.41,124.5,123.41Z"/><path class="cls-3" d="M137.84,98.56a4.84,4.84,0,0,1-3.63,3.81,3.8,3.8,0,0,1-4.34,6.22,3,3,0,0,1-.93,2,3,3,0,0,1-2.87.71,4,4,0,0,1-2.75-4.65,4.38,4.38,0,0,1-3.13,1,2.72,2.72,0,0,1-1.93-1.25c-1.19,2.3-3.23,4.3-6,4.29a4.24,4.24,0,0,1-3.44-1.66,3.87,3.87,0,0,1-.78-2.66,4.9,4.9,0,0,1-2.75.42,4.65,4.65,0,0,1-4.18-4.11,5.14,5.14,0,0,1,2.08-4.53,4.19,4.19,0,0,1-2-1.19,4.87,4.87,0,0,1-.3-6,7,7,0,0,1,5.28-2.88,4.79,4.79,0,0,1-1.08-2.27,4.64,4.64,0,0,1,2.18-5,5,5,0,0,1,4.44-.2,5,5,0,0,1-.16-2.22,4.68,4.68,0,0,1,3.9-4,5.18,5.18,0,0,1,4.12,1.32,4.11,4.11,0,0,1,7.19,2.81,4.68,4.68,0,0,1,6.06,6.62A3.93,3.93,0,0,1,137,87.71a5.58,5.58,0,0,1-1.69,5.9A4.85,4.85,0,0,1,137.84,98.56Z"/><path class="cls-14" d="M129.27,102.14q-1.31,2.7-2.46,5.48a110.47,110.47,0,0,0-4.64,13.63,2.34,2.34,0,0,0-.28.1,3.9,3.9,0,0,0-2.33-2.44,1.86,1.86,0,0,0-1.36.2,96.11,96.11,0,0,0-6.43-18,.35.35,0,0,1,.61-.35c.21.33.4.67.6,1l0,0q1.41,2.09,2.61,4.31a50,50,0,0,1,3.86,9.4c.06-9.32,0-16.2,0-16.2h1.65c0,6.69.07,13.07.19,19,0-.19.11-.38.16-.57a59.51,59.51,0,0,1,7.16-16A.35.35,0,0,1,129.27,102.14Z"/><path class="cls-14" d="M121.59,128.48a2.67,2.67,0,0,1-1.28-1.59c-.15-.47-.33-1,.15-1.29.17-.1.56.12.75.13-.11-.25-.39-.75-.28-1.06a.54.54,0,0,1,.3-.34,1.49,1.49,0,0,1-.14-.57.56.56,0,0,1,.08-.3c-.39-.34-.92-.42-1.19-.86-.1-.18-.14-.6-.24-.78a6.81,6.81,0,0,1-.5,2l.15.77c0,1.3,0,2.62,0,3.94-.22,14.36-.68,29.69-1.69,34.88h5.67S122.23,149.43,121.59,128.48Z"/><path class="cls-1" d="M131.31,98.12a5.65,5.65,0,0,1,.24,6.88,4.27,4.27,0,0,1-2.72,1.72,3,3,0,0,1-2.88-1.19c-.83-1.26-.39-3,.25-4.32a2.82,2.82,0,0,1-3.85-1.9,6.49,6.49,0,0,1-1.49,2.9,2.21,2.21,0,0,1-3,.16,5.11,5.11,0,0,1-1.68,4.42,3.79,3.79,0,0,1-4.56.22,3,3,0,0,1-.44-4.33,3.52,3.52,0,0,1-4.43-.82,4.3,4.3,0,0,1-.37-4.62,5.49,5.49,0,0,1,3.92-2.7,4.45,4.45,0,1,1,4.88-7.44,7.51,7.51,0,0,1,0-4.23,3.9,3.9,0,0,1,3-2.68,2.73,2.73,0,0,1,2.94,2,3.8,3.8,0,0,1,3.32-1.9A5.1,5.1,0,0,1,128.68,83a5.32,5.32,0,0,1,.69,3.35,4,4,0,0,1-1.82,2.84,4.84,4.84,0,0,1,3.76,8.91Z"/><path class="cls-3" d="M114.62,90.32l-1-2.28a.39.39,0,0,0-.54-.14.4.4,0,0,0-.14.53l1,2.28a.39.39,0,0,0,.68-.39Z"/><path class="cls-3" d="M112.91,91.28l-1-1a.4.4,0,0,0-.55,0,.4.4,0,0,0,0,.56l1,1a.4.4,0,0,0,.55,0A.38.38,0,0,0,112.91,91.28Z"/><path class="cls-3" d="M112.53,93l-1.63-.17a.38.38,0,0,0-.39.39.4.4,0,0,0,.39.39l1.63.18a.4.4,0,0,0,.39-.39A.41.41,0,0,0,112.53,93Z"/><path class="cls-3" d="M124.93,82a.41.41,0,0,0-.48.27l-.66,1.68a.39.39,0,0,0,.27.48.4.4,0,0,0,.48-.27l.67-1.68A.4.4,0,0,0,124.93,82Z"/><path class="cls-3" d="M126.87,83.19a.39.39,0,0,0-.55,0l-1.1,1.24a.46.46,0,0,0-.11.28.39.39,0,0,0,.11.27.4.4,0,0,0,.56,0c.36-.41.73-.82,1.09-1.24a.38.38,0,0,0,0-.55Z"/><path class="cls-3" d="M128.37,85.45a.4.4,0,0,0-.48-.27l-1.63.6a.4.4,0,0,0-.27.48.39.39,0,0,0,.48.27l1.63-.6A.39.39,0,0,0,128.37,85.45Z"/><path class="cls-3" d="M128.65,103.72l-.22-1.25a.35.35,0,0,0-.18-.23.39.39,0,0,0-.3,0,.41.41,0,0,0-.23.18.44.44,0,0,0,0,.3c.07.41.14.83.22,1.25a.37.37,0,0,0,.18.23.39.39,0,0,0,.3,0,.41.41,0,0,0,.23-.18A.45.45,0,0,0,128.65,103.72Z"/><path class="cls-3" d="M130.13,102.38l-.6-.93a.42.42,0,0,0-.23-.18.45.45,0,0,0-.3,0,.43.43,0,0,0-.18.24.39.39,0,0,0,0,.3l.6.92a.38.38,0,0,0,.23.18.39.39,0,0,0,.3,0,.38.38,0,0,0,.18-.23A.39.39,0,0,0,130.13,102.38Z"/><path class="cls-3" d="M131.14,101l0-.1a.62.62,0,0,0-.14-.14l-.82-.59a.38.38,0,0,0-.53.14.39.39,0,0,0,0,.3l0,.09a.32.32,0,0,0,.14.14l.81.6a.4.4,0,0,0,.3,0,.48.48,0,0,0,.24-.18A.39.39,0,0,0,131.14,101Z"/><path class="cls-3" d="M123.1,94a.39.39,0,0,0-.48.27l-.39,1.59a.39.39,0,1,0,.75.2l.39-1.58A.39.39,0,0,0,123.1,94Z"/><path class="cls-3" d="M125.06,94.81a.35.35,0,0,0-.18-.23.39.39,0,0,0-.3,0,.38.38,0,0,0-.23.18l-.6,1.36a.45.45,0,0,0,0,.3.42.42,0,0,0,.18.23.39.39,0,0,0,.3,0,.4.4,0,0,0,.24-.18c.2-.45.4-.9.59-1.36A.39.39,0,0,0,125.06,94.81Z"/><path class="cls-3" d="M127,96.23a.4.4,0,0,0-.53-.14l-1.36.71a.39.39,0,1,0,.39.67l1.36-.7A.4.4,0,0,0,127,96.23Z"/><path class="cls-3" d="M121.48,96.12c-.12-.44-.25-.87-.38-1.31a.39.39,0,0,0-.48-.27.39.39,0,0,0-.27.48l.38,1.3a.4.4,0,0,0,.48.28A.39.39,0,0,0,121.48,96.12Z"/><path class="cls-3" d="M120.11,97,119,95.85a.4.4,0,0,0-.56,0,.4.4,0,0,0,0,.55l1.08,1.15a.39.39,0,0,0,.55,0A.4.4,0,0,0,120.11,97Z"/><path class="cls-3" d="M119.64,98l-1.52-.12a.4.4,0,0,0-.39.4.4.4,0,0,0,.39.39l1.52.11a.4.4,0,0,0,.39-.39A.39.39,0,0,0,119.64,98Z"/><path class="cls-11" d="M111.71,82.47a.4.4,0,0,0-.39.39v1.2a.39.39,0,0,0,.78,0v-1.2A.4.4,0,0,0,111.71,82.47Z"/><path class="cls-11" d="M110.37,84.22c-.11-.49-.22-1-.34-1.46a.39.39,0,0,0-.75.21l.34,1.46a.39.39,0,0,0,.75-.21Z"/><path class="cls-11" d="M109.26,84.76l-.82-1.1a.45.45,0,0,0-.24-.19.47.47,0,0,0-.31,0,.48.48,0,0,0-.18.24.42.42,0,0,0,0,.31c.28.36.55.73.83,1.1a.44.44,0,0,0,.24.18.39.39,0,0,0,.3,0,.36.36,0,0,0,.18-.24A.35.35,0,0,0,109.26,84.76Z"/><path class="cls-11" d="M108.47,85.74l-1.21-.27a.39.39,0,1,0-.21.76l1.21.28a.41.41,0,0,0,.49-.28A.4.4,0,0,0,108.47,85.74Z"/><path class="cls-11" d="M104.68,101.05a.41.41,0,0,0-.49-.28l-1,.27a.41.41,0,0,0-.24.19.39.39,0,0,0,0,.3.4.4,0,0,0,.49.28l1-.28a.36.36,0,0,0,.24-.18A.39.39,0,0,0,104.68,101.05Z"/><path class="cls-11" d="M104.86,102.77a.4.4,0,0,0-.55-.14l-1,.55a.38.38,0,0,0-.14.54.4.4,0,0,0,.54.14l1-.55A.4.4,0,0,0,104.86,102.77Z"/><path class="cls-11" d="M106.27,104.19a.34.34,0,0,0-.18-.24.4.4,0,0,0-.54.14l-.72,1a.39.39,0,0,0,.15.54.4.4,0,0,0,.54-.14l.71-1.05A.35.35,0,0,0,106.27,104.19Z"/><path class="cls-11" d="M132.55,85.63a.38.38,0,0,0-.53.14l-.71,1.3a.39.39,0,0,0,.67.39l.71-1.3A.39.39,0,0,0,132.55,85.63Z"/><path class="cls-11" d="M133.92,87.1a.42.42,0,0,0-.18-.23.39.39,0,0,0-.3,0l-.1,0a.47.47,0,0,0-.14.14l-.43.6a.24.24,0,0,0-.05.14.29.29,0,0,0,0,.16.35.35,0,0,0,.18.23.39.39,0,0,0,.3,0l.09,0a.32.32,0,0,0,.14-.14l.44-.6a.23.23,0,0,0,0-.14A.43.43,0,0,0,133.92,87.1Z"/><path class="cls-11" d="M135.27,88.84a.4.4,0,0,0-.48-.27l-1.08.22a.39.39,0,0,0-.28.48.41.41,0,0,0,.48.27l1.09-.22a.38.38,0,0,0,.23-.18A.39.39,0,0,0,135.27,88.84Z"/><path class="cls-11" d="M130.07,80a.41.41,0,0,0-.54.14c-.26.55-.53,1.1-.79,1.64a.39.39,0,1,0,.67.4l.8-1.64A.42.42,0,0,0,130.07,80Z"/><path class="cls-11" d="M124,76.34a.4.4,0,0,0-.39.39c0,.61,0,1.23,0,1.84a.4.4,0,0,0,.39.4.41.41,0,0,0,.39-.4c0-.61,0-1.23.05-1.84A.38.38,0,0,0,124,76.34Z"/><path class="cls-11" d="M122.58,77.38a.39.39,0,0,0-.78,0l.06,1.14a.39.39,0,1,0,.78,0Z"/><path class="cls-11" d="M121.49,78.73l-.81-1a.39.39,0,0,0-.56,0A.39.39,0,0,0,120,78a.43.43,0,0,0,.11.28c.28.32.55.65.82,1a.39.39,0,0,0,.27.11.41.41,0,0,0,.28-.11.44.44,0,0,0,.12-.28A.5.5,0,0,0,121.49,78.73Z"/><path class="cls-11" d="M131.6,81.47a.41.41,0,0,0-.54-.14l-1,.6a.39.39,0,0,0-.17.23.39.39,0,0,0,0,.3.39.39,0,0,0,.54.14l1-.59a.48.48,0,0,0,.18-.24A.45.45,0,0,0,131.6,81.47Z"/><path class="cls-11" d="M133.6,106.53l-.65-.7a.38.38,0,0,0-.28-.12.39.39,0,0,0-.28.12.44.44,0,0,0-.11.27.41.41,0,0,0,.11.28l.66.7a.36.36,0,0,0,.27.12.38.38,0,0,0,.28-.12.35.35,0,0,0,.11-.27A.41.41,0,0,0,133.6,106.53Z"/><path class="cls-11" d="M134.73,105.67a.42.42,0,0,0-.23-.18l-1.08-.4a.45.45,0,0,0-.3,0,.4.4,0,0,0-.18.24.39.39,0,0,0,0,.3.46.46,0,0,0,.23.18l1.08.39a.35.35,0,0,0,.3,0,.38.38,0,0,0,.18-.23A.35.35,0,0,0,134.73,105.67Z"/><path class="cls-21" d="M59.29,105.55c.6,1.14,1.45,2.55,2.11,3.64l-3.14,1.25,2.49,12.23a41,41,0,0,0-4.91,3.08c-1.32-2.49-3-5.74-4-7.62-1.7-3.37-3.11-8.51-2.46-10.79.57-2,6.86-6.65,8.36-7.73h0A21,21,0,0,0,59.29,105.55Z"/><path class="cls-13" d="M62.49,111.13a.2.2,0,0,1-.1-.38l9.81-5.42a.19.19,0,0,1,.27.08.19.19,0,0,1-.08.27l-9.8,5.42A.19.19,0,0,1,62.49,111.13Z"/><path class="cls-13" d="M65.89,110.16a.2.2,0,0,1,0-.4l3.53-.55a.21.21,0,0,1,.23.17.22.22,0,0,1-.17.24l-3.53.54Z"/><path class="cls-13" d="M89.66,114.64h0a.2.2,0,0,1-.18-.22c0-.08.79-7.92.39-11.23A.19.19,0,0,1,90,103a.19.19,0,0,1,.23.18c.41,3.35-.36,11-.39,11.31A.2.2,0,0,1,89.66,114.64Z"/><path class="cls-13" d="M76.07,126.66a29.25,29.25,0,0,1-6.16-.84.21.21,0,0,1-.15-.25.21.21,0,0,1,.25-.15s4.61,1.16,7.57.73,7.59-3.3,7.64-3.33a.21.21,0,0,1,.28.06.2.2,0,0,1-.07.28c-.19.12-4.76,3-7.8,3.4A11.06,11.06,0,0,1,76.07,126.66Z"/><path class="cls-13" d="M80.09,123.25c-.52,0-1.09,0-1.74-.06a.2.2,0,0,1-.19-.21.2.2,0,0,1,.22-.19c4.33.28,5.45-.55,5.46-.56a.2.2,0,0,1,.28,0,.21.21,0,0,1,0,.29S83.2,123.25,80.09,123.25Z"/><path class="cls-2" d="M70.15,133.32a.24.24,0,0,1-.16-.07,7.87,7.87,0,0,0-4.86-2.68.22.22,0,0,1-.18-.23.2.2,0,0,1,.23-.17A8.31,8.31,0,0,1,70.3,133a.21.21,0,0,1,0,.29A.24.24,0,0,1,70.15,133.32Z"/><path class="cls-2" d="M70.65,131.4a.2.2,0,0,1-.14-.06,7.53,7.53,0,0,0-4.38-2.3.2.2,0,1,1,.06-.4,7.9,7.9,0,0,1,4.61,2.42.21.21,0,0,1,0,.29A.24.24,0,0,1,70.65,131.4Z"/><path class="cls-2" d="M70,128.56a.19.19,0,0,1-.1,0,8.92,8.92,0,0,0-3.73-1.18.21.21,0,0,1-.19-.22.22.22,0,0,1,.22-.19,9.35,9.35,0,0,1,3.91,1.24.21.21,0,0,1,.07.28A.22.22,0,0,1,70,128.56Z"/><path class="cls-2" d="M58.72,128.51a.24.24,0,0,1-.14,0,.21.21,0,0,1,0-.29A7.9,7.9,0,0,1,61,126.35a.2.2,0,1,1,.18.36,7.87,7.87,0,0,0-2.27,1.73A.19.19,0,0,1,58.72,128.51Z"/><path class="cls-2" d="M117.54,125.44a.21.21,0,0,1-.07-.4,3.06,3.06,0,0,0,2-3.37.2.2,0,0,1,.4-.07,2.15,2.15,0,0,0,.73,1.19,6.73,6.73,0,0,0,1.27.82c.06,0,.19.1.26.08s.08-.22,0-.44l-.43-1.64a.2.2,0,0,1,.14-.25.21.21,0,0,1,.25.15l.44,1.64c.12.46,0,.8-.28.91a.67.67,0,0,1-.59-.1,6.9,6.9,0,0,1-1.35-.87,2.4,2.4,0,0,1-.45-.49,3.63,3.63,0,0,1-.46,1.33,3.53,3.53,0,0,1-1.85,1.49Z"/><path class="cls-2" d="M123.08,123.89a4,4,0,0,1-.7,0,.2.2,0,0,1,.06-.4,4.24,4.24,0,0,0,2-.17.2.2,0,1,1,.13.38A4.56,4.56,0,0,1,123.08,123.89Z"/><path class="cls-2" d="M123.49,125.41a3.43,3.43,0,0,1-2.29-.88,1.17,1.17,0,0,1-.35-.52.6.6,0,0,1,.24-.69.2.2,0,0,1,.28.07.21.21,0,0,1-.07.28.2.2,0,0,0-.06.23.78.78,0,0,0,.24.33,3,3,0,0,0,2.45.74.19.19,0,0,1,.23.16.21.21,0,0,1-.16.24A4.38,4.38,0,0,1,123.49,125.41Z"/><path class="cls-2" d="M123.13,127.3a2,2,0,0,1-1.24-.47,4.36,4.36,0,0,1-1-1.36,1.63,1.63,0,0,1-.22-.75.71.71,0,0,1,.56-.7.21.21,0,0,1,.23.17.21.21,0,0,1-.18.23c-.12,0-.2.18-.21.31a1.37,1.37,0,0,0,.18.55,3.77,3.77,0,0,0,.89,1.23,1.42,1.42,0,0,0,1.31.34.19.19,0,0,1,.25.13.19.19,0,0,1-.13.25A1.33,1.33,0,0,1,123.13,127.3Z"/><path class="cls-2" d="M121.6,128.63a.73.73,0,0,1-.45-.16,1.55,1.55,0,0,1-.35-.38,9.6,9.6,0,0,1-.6-1,2.08,2.08,0,0,1-.23-.65.85.85,0,0,1,.22-.74,1.19,1.19,0,0,1,1-.22.22.22,0,0,1,.18.23.21.21,0,0,1-.23.18.9.9,0,0,0-.72.09.54.54,0,0,0-.1.41,1.57,1.57,0,0,0,.19.51,8.64,8.64,0,0,0,.57.91,1.22,1.22,0,0,0,.26.29.33.33,0,0,0,.27.08.2.2,0,0,1,.24.15.19.19,0,0,1-.15.24Z"/><path class="cls-20" d="M58.26,110.64a.2.2,0,0,1-.2-.16c-.18-.87-1.7-2-2.27-2.39a.2.2,0,1,1,.22-.34c.09.06,2.2,1.44,2.45,2.65a.21.21,0,0,1-.16.24Z"/><path class="cls-20" d="M99.93,117.65a.27.27,0,0,1-.12,0,.21.21,0,0,1,0-.29l1.65-2.32a.2.2,0,0,1,.33.23l-1.65,2.33A.23.23,0,0,1,99.93,117.65Z"/><path class="cls-24" d="M111,164.63a19.2,19.2,0,0,0,8.78,1.34c5.45-.29,9.42-.45,9.42-.45a4.44,4.44,0,0,0-2.81-4.22c-3.06-1.43-2.77-5.33-6.1-2.86s-3.06,1.72-5.25,3S110.91,163.48,111,164.63Z"/><path class="cls-13" d="M84.56,101.56c-3.48,0-7-9.15-7.14-9.55a.2.2,0,0,1,.11-.26.2.2,0,0,1,.26.12c0,.09,3.66,9.52,6.89,9.28s4.37-4.77,4.38-4.81a.21.21,0,0,1,.25-.15.2.2,0,0,1,.15.24c0,.2-1.22,4.85-4.74,5.12Z"/></g></g></svg>