<svg xmlns="http://www.w3.org/2000/svg" viewBox="0 0 81.66 84.83"><defs><style>.cls-1{fill:#6c2910;}</style></defs><g id="Capa_2" data-name="Capa 2"><g id="Capa_1-2" data-name="Capa 1"><path class="cls-1" d="M0,49.16c0-10,0-20,0-30.07A6.81,6.81,0,0,1,2.22,13.8c4-3.89,8-7.86,11.87-11.86A6,6,0,0,1,18.65,0C31.5,0,44.34,0,57.19,0c3.64,0,5.19,1.62,5.19,5.34q0,16.53,0,33.06c0,1.17.12,1.89,1.57,1.71a1.33,1.33,0,0,1,1.57,1.64,1.89,1.89,0,0,0,1.75,2.4,3.85,3.85,0,0,1,1.51.66c.86.61,1.42.36,2.09-.34,1.33-1.4,1.71-1.35,3.11,0,1.14,1.13,2.24,2.3,3.41,3.4s1.11,2,0,2.93c-.82.66-1.07,1.31-.39,2.22a3.25,3.25,0,0,1,.51,1.21c.3,1.34.91,2.11,2.48,1.91,1.13-.14,1.71.62,1.72,1.76v5.48c0,1.3-.64,2-1.94,1.89s-1.91.41-2.15,1.62A3,3,0,0,1,77.13,68a1.87,1.87,0,0,0,.45,2.92c.91.71.82,1.6,0,2.42-1.3,1.29-2.61,2.56-3.87,3.89-.93,1-1.84,1-2.65,0a1.7,1.7,0,0,0-2.66-.4,4.21,4.21,0,0,1-1.37.56,1.63,1.63,0,0,0-1.52,2.07c.17,1.44-.59,2-2,1.91-.66-.06-1.2,0-1.53.82-.75,1.92-2.36,2.67-4.37,2.67h-8q-21.93,0-43.86,0C1.45,84.83,0,83.41,0,79.06Zm45.48,20.4a3.09,3.09,0,0,0-1.84-.22c-8,0-16,0-23.93,0a13.15,13.15,0,0,1-1.66,0,1.29,1.29,0,0,1-1.27-1.45,1.18,1.18,0,0,1,1.33-1.18H39.08c1.38,0,2.77,0,4.15,0,.34,0,.88.19.88-.43a.76.76,0,0,0-.8-.86c-.45,0-.89,0-1.33,0-.88,0-1.59-.44-1.52-1.39.09-1.42-.72-1.43-1.76-1.43-6.42,0-12.85,0-19.27,0a13.09,13.09,0,0,1-1.66-.09,1.1,1.1,0,0,1-1-1.17A1.13,1.13,0,0,1,17.64,60a7.48,7.48,0,0,1,1.64-.16c6.48,0,13,0,19.44,0,1.22,0,1.9-.21,1.71-1.62s.57-2.19,2-2.06c1,.1,1.66-.23,1.87-1.33a4.72,4.72,0,0,1,.7-1.67,1.54,1.54,0,0,0-.41-2.39,1.56,1.56,0,0,1,0-2.76,2.84,2.84,0,0,0,1-2.49q0-12.46,0-24.93c0-2.32.22-2.54,2.58-2.54H53.3c2.2,0,2.44.26,2.44,2.52,0,7.15,0,14.29,0,21.43a3.11,3.11,0,0,0,.2,1.7c.64-.21.53-.67.49-1-.19-1.78.35-2.83,2.36-2.59,1,.11.89-.57.89-1.2q0-16.93,0-33.89c0-1.8-.48-2.27-2.28-2.27-12.68,0-25.37,0-38,0-1.21,0-1.47.42-1.45,1.53.07,3.1,0,6.2,0,9.31,0,2.75-1.56,4.3-4.32,4.32-3.15,0-6.31.05-9.47,0-1.1,0-1.43.32-1.42,1.4q0,30.24,0,60.48c0,1.93.44,2.38,2.34,2.38q26.17,0,52.34,0c.62,0,1.35.14,1.78-.68-1.18-.22-2.9.24-2.7-1.78a1.88,1.88,0,0,0-1.77-2.37,3.27,3.27,0,0,1-1.21-.53,1.61,1.61,0,0,0-2.51.43c-.91,1.13-1.9,1-2.77-.06A3.13,3.13,0,0,0,45.47,76c-8.69,0-17.39,0-26.08,0a14.76,14.76,0,0,1-1.49,0,1.14,1.14,0,0,1-1.08-1.08,1.23,1.23,0,0,1,.86-1.44,4.84,4.84,0,0,1,1.48-.12h25.1C42.94,71.4,45,70.77,45.51,69.56Zm29.3-20.09c-.24-.73-.87-1-1.28-1.56-.7-.87-1.37-1.38-2.26-.14-.64.89-1.48.79-2.33.22a11.92,11.92,0,0,0-4.25-1.8c-1.33-.27-1.93-.91-1.86-2.26.1-2-1.43-.94-2.24-1.13s-1.65,0-1.47,1.24-.47,1.88-1.74,2.12a9.8,9.8,0,0,0-3.81,1.56c-1.25.88-2.31,1-3.28-.34-.44-.6-.83-.57-1.29,0a5.91,5.91,0,0,1-1.06,1.06c-.89.67-.85,1.26,0,1.93a1.62,1.62,0,0,1,.3,2.46,14,14,0,0,0-1.89,4.57c-.14.66-.38,1.46-1.2,1.36-2.44-.29-2,1.34-2.07,2.81,0,.91.38,1.19,1.2,1.08,1.31-.17,1.93.49,2.16,1.71a10.72,10.72,0,0,0,1.62,4c.77,1.15.87,2.12-.32,3-.76.56-.58,1.05,0,1.57a5.57,5.57,0,0,1,.94.94c.59.76,1.11.93,1.77,0,.77-1,1.67-1,2.74-.31a12.43,12.43,0,0,0,4.42,1.8c.75.15,1.54.53,1.41,1.36-.33,2.11.92,2,2.34,2,1,0,1.57-.12,1.43-1.32s.52-1.81,1.69-2a10,10,0,0,0,3.82-1.53c1.31-.92,2.23-.84,3.45.31s1.54-.73,2.31-1.15.89-1,.08-1.67a1.81,1.81,0,0,1-.38-2.75,12.27,12.27,0,0,0,1.77-4.26c.25-1.19.85-1.78,2.06-1.62,1.4.2,1.41-.7,1.3-1.64s.61-2.33-1.28-2.17c-1.32.11-1.89-.56-2.12-1.78A10.37,10.37,0,0,0,74,53.24c-.81-1.2-.92-2.21.29-3.17A3.67,3.67,0,0,0,74.81,49.47ZM48.25,44.14a1.81,1.81,0,0,1,2.73.09c.42.41.69,1.3,1.54.92s.51-1.26.52-1.93c0-6.35,0-12.71,0-19.06,0-3.68,0-3.65-3.68-3.44-.86.05-1.14.33-1.13,1.18C48.26,29.19,48.25,36.48,48.25,44.14Zm-33-38.67-9.7,9.72h8.1a1.41,1.41,0,0,0,1.6-1.63C15.24,10.74,15.25,7.93,15.25,5.47Z"/><path class="cls-1" d="M42.78,39.39c0,4,0,8.07,0,12.11,0,1.9-.35,2.23-2.21,2.24-2,0-4.09,0-6.14,0A1.56,1.56,0,0,1,32.6,52q0-12.69,0-25.39c0-1.22.62-1.79,1.87-1.77,2.05,0,4.1.07,6.14,0,1.58-.06,2.2.61,2.18,2.15C42.76,31.09,42.78,35.24,42.78,39.39Zm-2.69-.07V30.7c0-3.28,0-3.23-3.35-3.25-1.17,0-1.49.34-1.48,1.49.05,6.25,0,12.5,0,18.74,0,3.5,0,3.46,3.51,3.41,1,0,1.32-.32,1.31-1.32C40.06,46.29,40.09,42.8,40.09,39.32Z"/><path class="cls-1" d="M44.58,12.64c-9.67,5.57-18.95,10.93-28.23,16.29-.91.52-1.81,1.06-2.73,1.57s-2.06,1.45-2.86,0,.56-1.81,1.44-2.32l24.27-14L43,10.41a7.31,7.31,0,0,0-2.3-.63c-.87-.19-1.66-.62-1.43-1.67s.94-1.14,1.82-1c2,.38,4,.71,6,1.16a1.37,1.37,0,0,1,1.09,2c-.68,1.93-1.33,3.86-2,5.8a1.3,1.3,0,0,1-1.78,1c-.87-.32-1-1-.72-1.91C44,14.48,44.23,13.75,44.58,12.64Z"/><path class="cls-1" d="M19.63,42.76c0-2.93,0-5.86,0-8.79,0-2,.35-2.36,2.29-2.37s4,0,6,0c1.3,0,1.94.58,1.93,1.91q0,9.2,0,18.41c0,1.32-.62,1.88-2,1.85-2-.06-4,0-6,0s-2.25-.31-2.26-2.35C19.62,48.51,19.63,45.64,19.63,42.76Zm2.7-.07v5c0,3.5,0,3.44,3.49,3.43,1.2,0,1.33-.51,1.32-1.48,0-4,0-8,0-11.94,0-3.58,0-3.55-3.58-3.39-.94,0-1.26.35-1.24,1.27C22.36,37.94,22.33,40.32,22.33,42.69Z"/><path class="cls-1" d="M16.86,46.16c0,1.88,0,3.76,0,5.64,0,1.39-.59,2-2,2q-3.06-.1-6.14,0c-1.42.05-2-.54-2-1.94q0-5.73,0-11.46c0-1.39.59-2,2-2,2.05.06,4.1.07,6.15,0,1.55,0,2.06.68,2,2.11C16.83,42.39,16.86,44.27,16.86,46.16Zm-2.69,0c0-1.32,0-2.65,0-4,0-.41.16-1-.47-1.07-1.26-.07-2.53,0-3.8,0-.54,0-.52.48-.52.87v8.11c0,.45,0,1,.63.94,1.32,0,2.83.47,3.88-.21.79-.51.19-2,.28-3C14.2,47.3,14.17,46.74,14.17,46.19Z"/><path class="cls-1" d="M9.9,76H8.41C7.58,76,7,75.63,7,74.77s.59-1.38,1.48-1.41,1.77,0,2.66,0,1.64.44,1.6,1.47S12,76.07,11.07,76C10.68,76,10.29,76,9.9,76Z"/><path class="cls-1" d="M10.17,66.65c.86.17,2.5-.54,2.5,1.29S11.12,69.28,10,69.32a11.07,11.07,0,0,1-1.82,0A1.26,1.26,0,0,1,7,68a1.24,1.24,0,0,1,1.38-1.31C8.9,66.64,9.45,66.65,10.17,66.65Z"/><path class="cls-1" d="M10,59.81c1,.14,2.66-.45,2.63,1.4s-1.75,1.15-2.85,1.3a6.54,6.54,0,0,1-1,0c-.94,0-1.88-.14-1.85-1.36s1-1.31,1.9-1.34Z"/><path class="cls-1" d="M61,72.06A11.34,11.34,0,1,1,72.4,60.71,11.34,11.34,0,0,1,61,72.06Zm-.07-2.69a8.65,8.65,0,1,0-8.55-8.7A8.57,8.57,0,0,0,60.91,69.37Z"/></g></g></svg>