<svg id="Capa_1" data-name="Capa 1" xmlns="http://www.w3.org/2000/svg" viewBox="0 0 232 260"><defs><style>.cls-1{fill:#6c2910;}.cls-2{fill:#fff;}.cls-3{fill:#c88a5e;}</style></defs><circle class="cls-1" cx="109.46" cy="221.8" r="28.85"/><path class="cls-2" d="M115.47,222.23v3.54H101.21l-.27-2.81,8-12.81h3.62l-3.94,6.44-3.26,5.64Zm-2-12.08V230h-4.59V210.15Z"/><path class="cls-3" d="M115.9,164.76H27.62c-7.68,0-9.9-2.19-9.91-9.73,0-3.71,0-7.42,0-11.13.07-4.91,2.58-7.49,7.47-7.87,2.77-.22,6.4,1.21,8.09-.69s.41-5.62.6-8.53a5,5,0,0,0,0-.77c-.5-10.12,1.1-13.48,12.61-12.71,2,.13,3.82.26,4-2.64.08-1.4,1.4-2.06,2.86-2a2.5,2.5,0,0,1,2.59,2.37c0,2.35,1.42,2.28,3,2.25,1.79,0,3.58,0,5.37,0,2.17.06,4.36.48,4.39-2.93,0-1.33,1.44-2.12,2.86-2a2.59,2.59,0,0,1,2.6,2.4c.07,2.66,1.71,2.51,3.59,2.59s3.07-.34,3.08-2.63a2.51,2.51,0,0,1,2.61-2.36,2.7,2.7,0,0,1,3,2.44c.54,4.42,3.87,2.15,5.93,2.39,2.78.34,1.88-2.12,1.93-3.56.11-3.45-.06-6.91.07-10.36.07-2.09-.52-3-2.78-3-10.88.09-21.75,0-32.63,0-1.46,0-2.67,0-3.13,1.92a2.61,2.61,0,0,1-3.61,1.92C50.38,99.55,50,98,50.39,96.13a7.16,7.16,0,0,1,5.68-5.57A9.3,9.3,0,0,1,58,90.42c8.49-.29,8.49-.28,8.49-8.65,0-1.66,0-3.33,0-5,.06-6.22,1.34-7.88,7.41-9.13,1.34-.27,2-.68,2.22-2.07.6-3.26,1.37-6.49,2.09-9.73.41-1.81-.34-2.35-2-2a13.91,13.91,0,0,0-6.32,2.57c-2,1.66-3.77,1.67-5.63-.4-5.28-5.87-11.92-7.84-19.46-5.71s-12,7.42-13.29,15.24C31.09,67.72,30,69,27.58,68.87a16.63,16.63,0,0,0-6.06.65,2.74,2.74,0,0,1-3.64-2c-.55-1.74.37-3.45,2-3.48,5.57-.1,6.72-4.28,8.87-8.17,7.06-12.8,24.09-16.22,35.78-7.39,2,1.53,3.62,2.43,6.06.89A7,7,0,0,1,75,48.26c4.64.71,5.38-2,6-5.62s1-7.71,5.18-9.67c1.47-.68.89-2.27.76-3.46-.15-1.48-1.46-1.08-2.42-1.17a5,5,0,0,0-.77,0c-11.36,1-10-3.82-9.73-12.29.11-2.91,2.38-4.55,5.28-4.57,13.43-.08,26.86-.05,40.3,0,2,0,3.64.81,3.54,3.1s-1.79,2.85-3.78,2.85c-11.9,0-23.8,0-35.7,0-1.7,0-3.88-.89-3.89,2.48,0,3.09,1.74,2.78,3.71,2.77q32.63,0,65.25,0c2.1,0,3.64,0,3.59-2.92s-2-2.34-3.64-2.36c-4.35-.05-8.7,0-13,0-2.14,0-4.06-.51-4.09-3s2-3,4-3c5.63,0,11.26-.1,16.89,0,3.75.1,5.51,2,5.72,5.8,0,.63,0,1.28,0,1.92,0,8.42-.65,9.11-9.19,9.12-2.23,0-4.63-.36-4,3.17.09.47.26,1.15.59,1.3,4.32,2,4.77,6.05,5.47,9.92.33,1.85.71,2.19,2.61,1.5,13.14-4.84,24.07-1.13,31.4,10.49,1.58,2.49,7.88,3.61,10.38,1.71A19.09,19.09,0,0,1,210,52.79c2.24.27,4.72.78,4.15,3.77-.5,2.65-2.69,2.46-4.9,2a12.09,12.09,0,0,0-11.53,3.71c-1.92,2-3.64,1.59-6.09,1.39-6.64-.53-10.44-3.82-14.13-9.29-4.71-7-14.89-8.33-22.19-4.58-1.65.85-2.62,1.65-1.9,3.83A43.35,43.35,0,0,1,155,61.48c.47,3.54,1,6.38,5.71,6.8,3.2.29,4.64,3.37,4.71,6.61.09,4.09.16,8.19,0,12.28-.08,2.41.58,3.28,3.19,3.32,12.6.16,13.16.87,13.24,13.71,0,2.9-1.26,6.54.63,8.51s5.35.47,8.13.61c4.57.25,7.28,2.85,7.41,7.52.11,3.84.19,7.69,0,11.51-.16,2.76.54,4,3.55,3.71a28.48,28.48,0,0,1,6.12.09c4.05.44,6.43,3.07,6.53,7.16s0,8.19,0,12.28c0,6.72-2.46,9.15-9.31,9.17-10,0-20,0-29.94,0ZM165,119c-8.06,0-16.11.05-24.16,0-2.22,0-3.29.5-3.18,3,.17,3.7.17,7.42,0,11.12-.11,2.46.95,3.06,3.17,3,4.47-.1,8.95,0,13.42,0,2,0,3.73.79,3.68,3s-1.7,2.86-3.77,2.83c-4.6-.06-9.21.06-13.81-.05-2,0-2.75.54-2.68,2.59q.19,5.76,0,11.51c-.07,2.09.53,2.93,2.78,2.91,10-.1,19.94-.06,29.91,0,1.5,0,2.74,0,2.87-2a2.64,2.64,0,0,1,3.07-2.69,2.6,2.6,0,0,1,2.62,2.75c0,1.87,1,2,2.42,2,4.09,0,8.19,0,12.28,0,1.16,0,2.31.14,2.3-1.66a2.72,2.72,0,0,1,2.73-3.06c1.91-.13,2.78,1.06,3,2.77.5,3.48,3.16,1.62,4.84,1.86,2.13.31,1.95-1.53,2-2.91,0-3.45-.13-6.91.07-10.35.17-2.93-1-3.68-3.8-3.64-11,.14-22,.07-33,.05-2.35,0-5.57.6-5.46-3s3.33-2.83,5.69-2.85c5.5-.05,11-.2,16.49.05,3.15.15,4-1,3.75-3.93a49.85,49.85,0,0,1,0-8.81c.39-3.73-1.22-4.52-4.6-4.42C180,119.13,172.49,119,165,119ZM58.78,141.85c-10.36,0-20.71.15-31.06-.09-3.52-.08-4.47,1.15-4.22,4.4.22,2.92,0,5.88.08,8.81.07,1.47-.8,3.74,1.92,3.74,2,0,4.81,1.23,5.07-2.58A2.31,2.31,0,0,1,33,154.05c1.3-.1,2.71.44,2.75,1.55.14,4.1,3,3.13,5.34,3.17,3.2,0,6.4,0,9.59,0,1.37,0,2.47,0,2.47-1.93a2.65,2.65,0,0,1,3-2.81,2.62,2.62,0,0,1,2.74,2.64c.16,1.63.84,2.12,2.43,2.11q15.34-.08,30.68,0c1.82,0,2.49-.62,2.45-2.44-.09-3.71-.18-7.42,0-11.12.15-2.66-.68-3.49-3.4-3.46C80.25,141.93,69.52,141.85,58.78,141.85ZM67,136c7.93,0,15.87-.12,23.79.07,3,.07,3.8-1,3.62-3.76-.22-3.44-.13-6.91,0-10.36.07-2-.42-3-2.73-3q-24.37.1-48.75,0c-2.37,0-3.12,1-3.05,3.22.13,3.57.2,7.17,0,10.74-.16,2.7,1,3.16,3.37,3.13C51.11,136,59.05,136,67,136Zm89.88-39.63c-5.24,0-10.49.11-15.73,0-2.57-.08-3.72.57-3.53,3.38.22,3.31,0,6.64.09,10,0,1.44-.83,3.89,1.94,3.55,2.06-.26,5.39,2,5.92-2.41a2.68,2.68,0,0,1,3-2.43,2.51,2.51,0,0,1,2.61,2.36c0,2.27,1.08,2.72,3.09,2.63s3.51.09,3.58-2.58a2.59,2.59,0,0,1,2.6-2.4c1.4-.1,2.83.66,2.86,2,.05,3.36,2.19,3,4.38,2.94a39.4,39.4,0,0,1,5,0c2.36.21,3.51-.41,3.34-3.1a89.33,89.33,0,0,1,0-10.73c.15-2.66-1-3.25-3.37-3.19C167.34,96.47,162.1,96.38,156.86,96.38Zm-53-43.46c0-4,0-7.92,0-11.88,0-1.81-.31-2.88-2.49-2.8-3.7.14-7.41.08-11.11,0-1.65,0-2.59.51-3,2.24C85.67,48.74,84,57,82.14,65.18c-.43,1.95.18,2.47,2.06,2.44,5.62-.08,11.24-.1,16.86,0,2.14.05,2.94-.64,2.86-2.83C103.78,60.84,103.88,56.88,103.88,52.92Zm24.23-.27c0,4.08.07,8.17,0,12.26-.05,1.92.51,2.76,2.58,2.72,5.74-.11,11.49-.1,17.24,0,2.07,0,2.3-.83,1.92-2.56q-2.62-12.13-5.12-24.3c-.37-1.83-1.24-2.57-3.12-2.52-3.58.1-7.16.15-10.73,0-2.28-.1-2.84.85-2.78,2.92C128.19,45,128.1,48.82,128.11,52.65ZM82.86,90.42c2.94,0,5.88-.09,8.81,0,1.93.07,2.76-.51,2.7-2.58-.13-4-.09-7.91,0-11.87,0-1.71-.43-2.55-2.35-2.52-5.74.09-11.48.06-17.23,0-1.77,0-2.55.69-2.53,2.48,0,4.09.07,8.17,0,12.26,0,1.66.55,2.26,2.21,2.21C77.24,90.35,80.06,90.42,82.86,90.42Zm65.8,0c2.93,0,5.87-.06,8.81,0,1.56,0,2.33-.39,2.29-2.13q-.13-6.14,0-12.26c0-2.08-1-2.58-2.85-2.56-5.61.06-11.23.07-16.84,0-1.84,0-2.47.64-2.43,2.44.09,4,.11,7.92,0,11.87-.06,2,.59,2.75,2.62,2.66C143,90.32,145.85,90.42,148.66,90.42ZM116.23,119c-4.47,0-9,.08-13.42,0-2.17-.06-2.92.67-2.88,2.86s.5,3,2.78,3q13.23-.15,26.47,0c2.16,0,2.91-.68,2.88-2.87s-.49-3-2.78-3C124.93,119.09,120.58,119,116.23,119Zm5.89-57.53c0-1.54.12-3.08,0-4.6a6.13,6.13,0,0,0-12.22,0c-.14,1.52,0,3.07,0,4.6,0,6.11,0,6.11,6,6.11C122.15,67.6,122.15,67.6,122.12,61.46ZM115.66,79c4.59,0,9.17-.07,13.76,0,2,0,2.63-.64,2.64-2.64s-.49-2.93-2.75-2.9q-13.36.17-26.74,0c-2,0-2.64.6-2.65,2.61s.47,3,2.75,2.93C107,78.86,111.33,79,115.66,79ZM116,90.42c4.46,0,8.92-.07,13.37,0,1.92,0,2.73-.48,2.7-2.56s-.36-3-2.7-3q-13.37.17-26.74,0c-2.33,0-2.66,1-2.69,3s.77,2.6,2.69,2.56C107.07,90.35,111.53,90.42,116,90.42Zm-.34,11.47c4.59,0,9.18-.08,13.77,0,2,0,2.64-.62,2.64-2.62s-.43-3-2.73-3q-13.38.15-26.76,0c-2.4,0-2.58,1.13-2.64,3-.06,2.12.84,2.58,2.73,2.53C107,101.83,111.32,101.89,115.65,101.89Zm-.05,11.44c4.59,0,9.18-.07,13.76,0,2,0,2.71-.6,2.69-2.62s-.32-3.1-2.67-3.08q-13.38.12-26.76,0c-2.33,0-2.67,1.09-2.69,3.06s.69,2.69,2.67,2.64C106.93,113.25,111.27,113.33,115.6,113.33Zm.46,22.68c4.45,0,8.92-.09,13.37,0,2.41.07,2.57-1.21,2.62-3.11,0-2.1-.85-2.57-2.74-2.55q-13.38.09-26.75,0c-2,0-2.61.74-2.62,2.68s.47,3,2.74,3C107.14,135.92,111.6,136,116.06,136Zm.33,5.84c-4.59,0-9.18.07-13.77,0-1.92,0-2.73.48-2.69,2.56s.31,3,2.68,3q13.38-.16,26.76,0c2.34,0,2.66-1,2.69-3s-.73-2.63-2.68-2.58C125.05,141.92,120.72,141.85,116.39,141.85ZM116,153.32c-4.45,0-8.91.07-13.37,0-1.9,0-2.73.47-2.7,2.56s.34,3,2.68,3q13.38-.16,26.75,0c2.32,0,2.68-.95,2.7-2.95s-.75-2.63-2.68-2.58C124.92,153.39,120.46,153.32,116,153.32ZM109.77,47c4.45-2.2,8.27-1.85,12.32-.23-.3-3.07,1.49-7.07-.86-8.09a14.54,14.54,0,0,0-10.39,0C108.31,39.73,110.3,43.68,109.77,47ZM116,32.59c1.4,0,2.79,0,4.19,0s2-.7,1.94-2.1-.25-2.2-1.85-2.17c-2.92.06-5.84,0-8.75,0-1.33,0-1.78.64-1.74,1.88s-.09,2.38,1.64,2.36C113,32.57,114.52,32.58,116,32.59Zm-17.73,0c1,0,2,0,3.07,0,1.4,0,2.46-.13,2.52-2s-.92-2.36-2.58-2.3c-2.17.08-4.34.07-6.51,0-1.59,0-1.87.81-1.88,2.16s.4,2.18,1.94,2.11C96,32.55,97.17,32.59,98.31,32.6Zm35.37-4.26c-1,0-2,0-3.06,0-1.38,0-2.49.07-2.54,2s.9,2.4,2.58,2.34c2.17-.08,4.34-.07,6.51,0,1.57,0,1.88-.81,1.89-2.16s-.38-2.2-1.93-2.11C136,28.4,134.83,28.35,133.68,28.34Z"/><path class="cls-3" d="M93.61,58.16c2.13.29,6-1.07,5.94,2.92s-3.79,2.78-6.29,3a26.48,26.48,0,0,1-3.45,0c-1.87-.1-3.31-.92-3.29-3s1.37-2.88,3.31-2.89Z"/><path class="cls-3" d="M138.81,58.07c2.55.5,6.45-1.18,6.54,2.85.08,4.31-3.93,3-6.49,3.08s-6.33,1.06-6.42-2.79C132.35,56.86,136.47,58.63,138.81,58.07Z"/></svg>