<svg id="Capa_1" data-name="Capa 1" xmlns="http://www.w3.org/2000/svg" viewBox="0 0 232 260"><defs><style>.cls-1{fill:#6c2910;}.cls-2{fill:#fff;}.cls-3{fill:#c88a5e;}</style></defs><circle class="cls-1" cx="113.98" cy="221.36" r="28.85"/><path class="cls-2" d="M116,209.9v19.81h-4.59V215.07l-4.52,1.32v-3.48l8.68-3Z"/><path class="cls-3" d="M110.9,165.9H73c-8.24,0-13-4.66-13.72-12.78-1.47-17-3.15-34-4.72-51-1.52-16.48-3.1-33-4.44-49.45-.21-2.55-1.06-3.05-3.34-3-4.17.11-5.35-1.16-5.4-5.28,0-2.59,0-5.17,0-7.76,0-9.14,4.37-13.57,13.67-13.63C65,23,74.94,22.9,84.87,23.1c2.84,0,3.43-.83,3.38-3.47-.11-5.74,2.13-7.83,7.86-7.83q13,0,26.09,0c5.09,0,7.54,2.3,7.29,7.4-.15,3.1.65,4,3.84,3.91,9.73-.24,19.46-.08,29.19-.09A17.5,17.5,0,0,1,170.9,25c3.45,1.82,5.54,4.5,5.4,8.66-.12,3.82,0,7.66,0,11.49,0,3.44-1.25,4.84-4.71,4.57-3.1-.25-3.83,1.08-4,3.78-.37,5.88-.86,11.76-1.51,17.62-.2,1.81.42,2.54,1.9,3.28Q189.61,85.21,194.48,109c5.38,26-13.82,53-40.14,56.34-9.69,1.25-19.43.34-29.15.57C120.43,166,115.67,165.9,110.9,165.9Zm61.47-82.69.12.09c-.36-1.1-1.42-1.43-2.27-2A43.5,43.5,0,0,0,140,75.15c-22.18,3.18-39.29,26.24-35.66,48.29,4.07,24.81,24.9,40.35,49.8,36.8A38.42,38.42,0,0,0,179.37,146l2.36-3c1-.36,1.29-1.31,1.75-2.08,8.57-14.25,9.2-28.86,1.54-43.63C182.05,91.54,178.11,86.51,172.37,83.21Zm-48,77.71.09-.55-1.57-1c-16-10.06-24.3-24.4-23.87-43.43.65-29.2,28.58-51.41,57.18-45.58,4.8,1,4.66,1,5.19-4,.23-2.1-.45-2.37-2.27-2.37q-50.31.06-100.6,0c-2,0-2.46.6-2.27,2.48,1.14,11.73,2.2,23.47,3.28,35.21,1.58,17,3.21,34,4.71,51,.5,5.59,3.12,8.29,8.68,8.3,9.94,0,19.88,0,29.81,0ZM109.07,44.75h6.83c17.49,0,35,0,52.47.06,2.31,0,3.14-.55,2.93-2.91a36.92,36.92,0,0,1,0-7.13c.38-3.53-1.57-5.15-4.47-6.08a16.88,16.88,0,0,0-5.21-.68q-52.78,0-105.57,0a16.15,16.15,0,0,0-5.2.72c-2.92,1-4.77,2.72-4.48,6.16a38.84,38.84,0,0,1,0,6.82c-.22,2.47.65,3.11,3.09,3.1C69.32,44.71,89.19,44.75,109.07,44.75Zm-.34,5H60.61c-5.9,0-5.65,0-5.27,6,.2,3,1.39,3.34,3.93,3.33Q107.54,59,155.81,59c6.21,0,6,0,6.89-6.18.42-3-.7-3.12-3.06-3.11C142.67,49.8,125.7,49.76,108.73,49.76Zm0-26.74c4.54,0,9.08-.12,13.62.05,2.14.08,2.42-.9,2.24-2.58s.7-3.74-2.27-3.72c-9,.05-18,0-26.94,0-2.75,0-2,2-2.11,3.56s-.11,2.8,2.14,2.72C99.85,22.91,104.29,23,108.73,23Z"/><path class="cls-3" d="M181.73,143l-2.36,3c-3.1.08-6.2.27-9.29.18-2.09-.06-2.91.42-2.75,2.75.23,3.14-1.56,5.17-4.45,5.2q-15.84.12-31.68,0c-2.49,0-4.47-1.7-4.12-4.1.67-4.42-1.73-4.4-4.76-4.11a15.72,15.72,0,0,1-2.17,0c-5.22-.26-8.47-3.5-8.53-8.72-.08-7.45-.06-14.91,0-22.36,0-3.17.52-6.6,3.23-8.4,4-2.68,4.39-6.27,4-10.42a48.45,48.45,0,0,1,0-5c.09-3.56,1.3-4.73,4.94-4.83,9.75-.28,10.14-.12,9.8,9.62-.16,4.65.5,8.42,4.57,11.19.92.63,1.21,1,2.12.09a9,9,0,0,1,8.84-2.55c1.92.46,2-.26,2.16-1.72a11.46,11.46,0,0,1,4.13-8.08c2.31-1.77,2.77-3.74,2.68-6.38-.13-3.59,1.43-5,5.07-5.07,3.1,0,6.2,0,9.3,0l-.12-.09A6.88,6.88,0,0,1,174.94,90a3.72,3.72,0,0,0,1.49,3.75,14,14,0,0,1,5.37,12.54c-.36,5.42-.21,10.84-.05,16.27C182,129.35,181.76,136.16,181.73,143ZM147,149.16c4.45,0,8.89,0,13.34,0,1.67,0,2-.48,1.86-2.16-.82-8.23-1.47-16.47-2.2-24.7-.1-1.15.28-2.7-1.67-2.72-2.16,0-1.38,1.67-1.41,2.72-.06,1.86-.55,3.48-2.62,3.5s-2.48-1.72-2.46-3.53c0-.86.47-2.32-.62-2.45a26.87,26.87,0,0,0-7.7-.09c-1.91.32-.62,2.46-1,3.73-.43,1.44-1.2,2.49-2.79,2.35a2.3,2.3,0,0,1-2.18-2.55c0-.62-.05-1.24,0-1.86.06-1.07-.21-1.79-1.48-1.85s-1.5.69-1.59,1.74c-.77,8.54-1.55,17.08-2.39,25.61-.18,1.8.47,2.31,2.21,2.26C138.49,149.09,142.73,149.16,147,149.16Zm-30.35-23.49v6.82c0,8.56.34,8.84,8.92,8.42,1.56-.08,2.1-.52,2.23-2.12.49-6.38,1.26-12.74,1.7-19.13.21-3,1.33-5,4.53-5.1,2,0,1.88-1,1.45-2.38a8.33,8.33,0,0,0-4-4.57,5.58,5.58,0,0,1-2.84-5.67c.18-2.89-.05-5.79.07-8.68.08-2-1.1-2-2.56-2.05s-2.34.19-2.26,2c.12,2.78-.14,5.59.07,8.36s-.65,4.77-3.11,6.17c-3.2,1.82-4.37,4.72-4.23,8.34C116.72,119.26,116.62,122.46,116.62,125.67Zm60.18,5.84c0-.41,0-.82,0-1.23-.16-2.87,1.21-6.58-.53-8.4-1.89-2-5.67-.4-8.61-.72-2.15-.24-3,.44-2.64,2.71.48,3.37.72,6.77,1.07,10.16.76,7.3.77,7.3,8.12,7.14h.31c1.71.23,2.42-.41,2.32-2.22C176.7,136.48,176.8,134,176.8,131.51Zm-10.59-24c2.79,0,5.58,0,8.37,0,.9,0,1.83.17,2.21-1.12,1.22-4.16-2.9-10-7.23-10.1-1.55,0-3.1,0-4.65,0-5.36,0-8.79,3.56-8.75,8.89,0,1.7.49,2.45,2.3,2.36C161,107.4,163.62,107.48,166.21,107.48Zm.48,5c-2.8,0-5.59,0-8.39,0-.57,0-1.3-.12-1.39.77-.08.74.24,1.11,1,1.23,5.53.89,11,2.38,16.68,1.73,1.25-.15,2.18-.15,2.22-1.81,0-1.84-1-2-2.38-2C171.87,112.5,169.28,112.47,166.69,112.48Zm-19.58,2a8.41,8.41,0,0,0,1.23,0c1.13-.2,2.9.66,3.25-.73.4-1.66-.77-3.09-2.36-3.91a4.26,4.26,0,0,0-4.89.42c-1.08.84-2.07,2-1.67,3.39s1.91.61,2.91.82A7.8,7.8,0,0,0,147.11,114.52Zm19.6-23.31h0c.72,0,1.44,0,2.15,0,1.24-.06,1.26-1.06,1-1.78-.8-2.31-2.77-.82-4.18-1-.88-.14-2.42-.75-2.59,1.12-.07.85,0,1.7,1.15,1.72C165.08,91.23,165.9,91.21,166.71,91.21Z"/></svg>