<svg xmlns="http://www.w3.org/2000/svg" viewBox="0 0 87.18 87.05"><defs><style>.cls-1{fill:#6c2910;}</style></defs><g id="Capa_2" data-name="Capa 2"><g id="Capa_1-2" data-name="Capa 1"><path class="cls-1" d="M22.29,56.93V37.23c0-3.93,1.52-5.42,5.44-5.42.74,0,1.49,0,2.24,0,1.41,0,2.81.38,3.51-1.67.5-1.46,2.25-1.38,3.66-1.09,1,.21,1.59.19,2.07-1a4.49,4.49,0,0,1,4.41-2.78A4.56,4.56,0,0,1,48,28.12c.44,1,.93,1.12,1.92,1,2.63-.43,3.2-.14,4.35,2.18.3.59.66.54,1.09.54,1.5,0,3,0,4.49,0,3.34,0,5,1.62,5,5,0,5.36,0,10.71,0,16.07,0,1.51.37,1.85,1.69,1.09s2.73-1.48,4-2.3a2.07,2.07,0,0,1,2.54,0,31.68,31.68,0,0,0,11.91,4.78,2.27,2.27,0,0,1,2.12,2.71c-.12,3.68-.11,7.37,0,11a12.75,12.75,0,0,1-4.84,10.41C79.42,83,76,84.78,72.8,86.78a1.74,1.74,0,0,1-2.06-.18c-2.34-1.47-4.7-2.9-7-4.38a1.89,1.89,0,0,0-1.88-.35,7.23,7.23,0,0,1-2.38.25q-15.81,0-31.62,0c-4.06,0-5.53-1.47-5.54-5.51Zm38,22.4c-3-3-3.77-6.61-3.56-10.56.12-2.41,0-4.84,0-7.25,0-4.44,0-4.44,4.23-5.65a2.34,2.34,0,0,1,.49-.16,1,1,0,0,0,1-1.15c0-6.1,0-12.2,0-18.3a1.86,1.86,0,0,0-2.08-2c-1.56,0-3.11,0-4.66,0-.95,0-1.41.23-1.3,1.25s-.35,1.69-1.44,1.69H34.27c-.66,0-1.47-.24-1.37-1,.3-2.31-1.23-1.94-2.58-1.93H28.08c-3,0-3.31.33-3.31,3.23q0,19.5,0,39c0,2.83.34,3.17,3.2,3.17H58.36A2.91,2.91,0,0,0,60.25,79.33ZM59.17,65.59h0c0,1.43.07,2.88,0,4.31-.22,3.92,1.51,6.84,4.48,9.2A74.23,74.23,0,0,0,71.12,84a1.3,1.3,0,0,0,1.57,0,67.89,67.89,0,0,0,7.91-5.21,10.51,10.51,0,0,0,4.13-8.69q-.12-4.91,0-9.83c0-1.17-.4-1.58-1.45-1.82A31.21,31.21,0,0,1,72.8,54.26a1.48,1.48,0,0,0-1.87.07,33.49,33.49,0,0,1-5.87,2.85c-1.94.78-4.8.42-5.7,2.12S59.17,63.46,59.17,65.59ZM43.48,34.71c2.41,0,4.83,0,7.24,0,.86,0,1.2-.23,1.23-1.16,0-2.23-.09-2.4-2.28-2l-1.87.31c-1.07.16-1.7-.31-1.72-1.38,0-1.66-.86-2.71-2.46-2.72s-2.46,1-2.51,2.67c0,1.18-.71,1.61-1.84,1.41-.91-.16-1.82-.26-2.72-.43s-1.43.25-1.27,1.2c.13.8-.65,2.11,1.13,2.08C38.77,34.67,41.13,34.71,43.48,34.71Z"/><path class="cls-1" d="M20.14,30.74c1.27,4.87.31,8.15-2.87,10.35A8.08,8.08,0,0,1,7.91,41a7.8,7.8,0,0,1-3.06-8.67c.51-1.6-.12-1.67-1.34-1.58C-.91,31-.23,29.54.65,26.61A11.87,11.87,0,0,1,7,19.24c.92-.46,1.18-.69.43-1.65A6.28,6.28,0,0,1,7,10a6.65,6.65,0,0,1,12.19,2.4,5.79,5.79,0,0,1-1.2,5c-.85,1-.54,1.35.49,1.88a12.39,12.39,0,0,1,6.66,9.12c.33,1.68-.12,2.24-1.81,2.28C22.33,30.76,21.3,30.74,20.14,30.74Zm-.25-2.45a9.36,9.36,0,0,1,1.1,0c1.66.23,1.68-.53,1.11-1.75a10.69,10.69,0,0,0-3.52-4.38,10.23,10.23,0,0,0-15.44,4.7c-.16.45-.8,1.3.15,1.34,1.61.06,3.27.51,4.84-.56a7.63,7.63,0,0,1,8.62-.28A4.7,4.7,0,0,0,19.89,28.29Zm-7.3.4a5.7,5.7,0,0,0,.14,11.4,5.7,5.7,0,1,0-.14-11.4Zm.1-10.89a4.3,4.3,0,0,0,4.22-4.17,4.31,4.31,0,0,0-4.28-4.28,4.33,4.33,0,0,0-4.22,4.18A4.29,4.29,0,0,0,12.69,17.8Z"/><path class="cls-1" d="M79.06,18.62c4.3,2,7,5.06,7.92,9.57.41,2,0,2.52-2,2.54-1,0-1.93,0-2.93,0,1.17,5.14.26,8.23-3,10.4a8,8,0,0,1-9.37-.24c-3-2.2-3.88-5.46-2.61-10.16-1.11,0-2.17,0-3.22,0-1.7,0-2.16-.59-1.83-2.28a12.58,12.58,0,0,1,7-9.3c.79-.4,1-.58.38-1.43a6.52,6.52,0,0,1,.77-9.15,6.65,6.65,0,0,1,9,.16c2.64,2.48,2.82,6.08.48,9.2Zm2.7,9.67a9,9,0,0,1,1.08,0c1.66.23,1.69-.52,1.13-1.75a10.69,10.69,0,0,0-3.67-4.48A10.24,10.24,0,0,0,65,26.87c-.15.44-.81,1.3.15,1.34,1.6.06,3.27.5,4.84-.55a7.61,7.61,0,0,1,8.76-.2A4.56,4.56,0,0,0,81.76,28.29Zm-7.2.4a5.68,5.68,0,0,0-5.74,5.65,5.7,5.7,0,1,0,11.4.07A5.67,5.67,0,0,0,74.56,28.69ZM74.5,17.8a4.31,4.31,0,0,0,4.28-4.11,4.26,4.26,0,1,0-8.51,0A4.31,4.31,0,0,0,74.5,17.8Z"/><path class="cls-1" d="M39.08,11.69c-2.81-3.48-2.79-7.28,0-9.86A6.59,6.59,0,0,1,48,1.67c2.9,2.54,3,6.19.2,10.05a12.85,12.85,0,0,1,7.63,8.57,10.75,10.75,0,0,1,.27,1.35c.21,1.77-.13,2.18-1.92,2.18H32.75c-1.35,0-1.86-.62-1.67-1.95a12.41,12.41,0,0,1,6.35-9.33C37.92,12.25,38.44,12,39.08,11.69Zm4.5,9.69c2.88,0,5.75-.05,8.62,0,1.22,0,1.34-.38,1-1.39A10.29,10.29,0,0,0,34,20c-.33,1-.29,1.44,1,1.41C37.84,21.32,40.71,21.38,43.58,21.38Zm-.06-10.51a4.12,4.12,0,0,0,4.25-4,4.18,4.18,0,1,0-8.35-.33A4.12,4.12,0,0,0,43.52,10.87Z"/><path class="cls-1" d="M43.51,44.94c-4.08,0-8.16,0-12.24,0-.95,0-2.18.23-2.16-1.25,0-1.31,1.16-1.18,2.08-1.18h25.5c.78,0,1.38.33,1.4,1.18s-.63,1.24-1.49,1.24Z"/><path class="cls-1" d="M43.57,49.47H31c-.89,0-1.89,0-1.87-1.2S30.07,47,31,47H56c.92,0,1.91.06,2,1.17.06,1.29-1,1.29-2,1.28Z"/><path class="cls-1" d="M41,62H31c-.86,0-1.88,0-1.89-1.21s1-1.25,1.86-1.25H51.15c.89,0,1.84.07,1.81,1.3S52,62,51.19,62Z"/><path class="cls-1" d="M40.91,74.61H31.07c-1,0-2,0-2-1.33s1.1-1.11,1.94-1.11q10,0,20,0c.86,0,1.89-.1,1.87,1.18s-1,1.26-1.86,1.26Z"/><path class="cls-1" d="M41.06,57.47H30.88c-.82,0-1.75,0-1.78-1.11S30,55,30.9,55Q41,55,51.1,55c.9,0,1.85.06,1.85,1.26s-1,1.18-1.88,1.18Z"/><path class="cls-1" d="M41,70.07c-3.28,0-6.56,0-9.83,0-.92,0-2,.1-2.1-1.2s1.08-1.25,2-1.25q9.93,0,19.85,0c.89,0,2.05-.16,2,1.23s-1.15,1.21-2.07,1.22C47.6,70.08,44.32,70.07,41,70.07Z"/><path class="cls-1" d="M83.12,66.56a21.69,21.69,0,0,0,0,2.42c.48,4.34-1.52,7.41-5,9.72-1.66,1.12-3.4,2.15-5.09,3.23a1.84,1.84,0,0,1-2.1.14,45.7,45.7,0,0,1-7.26-4.93,8.74,8.74,0,0,1-3-6.86q.06-4.22,0-8.45a1.9,1.9,0,0,1,1.63-2.21,31.66,31.66,0,0,0,8.6-3.44,1.87,1.87,0,0,1,2.09,0,31.08,31.08,0,0,0,8.45,3.38,1.94,1.94,0,0,1,1.7,2.31C83.06,63.45,83.12,65,83.12,66.56Zm-2.46.64c0-1.38,0-2.76,0-4.14a1.25,1.25,0,0,0-1.08-1.45,31.78,31.78,0,0,1-7-2.83,1.32,1.32,0,0,0-1.43,0,31.26,31.26,0,0,1-6.85,2.75,1.35,1.35,0,0,0-1.17,1.57,45.83,45.83,0,0,1,0,5.86c-.34,3.54,1.25,5.95,4.06,7.78a19.52,19.52,0,0,1,2.14,1.44c1.72,1.46,3.18,1.34,5.15.1C78.67,75.69,81.91,72.76,80.66,67.2Z"/><path class="cls-1" d="M16.32,34.34c-.13.84-.58,1.27-1.29,1.24-.87,0-1.23.21-1.18,1.14A1.12,1.12,0,0,1,12.58,38a1.09,1.09,0,0,1-1.1-1.26c.06-.91-.27-1.2-1.17-1.17A1.12,1.12,0,0,1,9,34.3a1.1,1.1,0,0,1,1.26-1.11c.88.06,1.23-.24,1.18-1.15a1.1,1.1,0,0,1,1.25-1.28A1.08,1.08,0,0,1,13.85,32c-.09,1.06.45,1.21,1.32,1.2A1.11,1.11,0,0,1,16.32,34.34Z"/><path class="cls-1" d="M78.17,34.25c0,.82-.46,1.35-1.16,1.31-1.1-.07-1.36.38-1.32,1.38A1.05,1.05,0,0,1,74.57,38a1,1,0,0,1-1.19-1c.07-1.25-.55-1.47-1.59-1.52a1,1,0,0,1-.9-1.1c0-.67.36-1.19,1-1.18,1.05,0,1.57-.25,1.48-1.43,0-.61.45-1,1.12-1.05s1.23.36,1.19,1c-.08,1.25.5,1.52,1.59,1.52A1,1,0,0,1,78.17,34.25Z"/><path class="cls-1" d="M77.78,65.6a1.71,1.71,0,0,1-.64,1.18l-6.32,6.33c-.94.94-1.79,1-2.49-.26s-1.37-2.39-2-3.58a1.14,1.14,0,0,1,.45-1.75c.65-.36,1.17,0,1.64.51.62.72.61,2.3,1.76,2.14.77-.11,1.41-1.25,2.1-1.93,1.14-1.13,2.27-2.28,3.42-3.4a1.14,1.14,0,0,1,1.4-.31A1.23,1.23,0,0,1,77.78,65.6Z"/></g></g></svg>