<svg id="Capa_1" data-name="Capa 1" xmlns="http://www.w3.org/2000/svg" viewBox="0 0 232 260"><defs><style>.cls-1{fill:#6c2910;}.cls-2{fill:#fff;}.cls-3{fill:#c88a5e;}</style></defs><circle class="cls-1" cx="115.73" cy="222.88" r="28.85"/><path class="cls-2" d="M112.79,224.59V222.3h3a10,10,0,0,1,2.71.34,6.32,6.32,0,0,1,2.11,1,4.41,4.41,0,0,1,1.36,1.62,4.83,4.83,0,0,1,.48,2.19,5.36,5.36,0,0,1-.56,2.48,5.21,5.21,0,0,1-1.56,1.84,7.3,7.3,0,0,1-2.36,1.14,10.85,10.85,0,0,1-2.92.38,9.55,9.55,0,0,1-2.48-.33,7.17,7.17,0,0,1-2.26-1,5.08,5.08,0,0,1-2.26-4.41h4.6a2,2,0,0,0,.35,1.14,2.45,2.45,0,0,0,.93.81,3.14,3.14,0,0,0,2.7,0,2.23,2.23,0,0,0,.91-.86,2.47,2.47,0,0,0,.31-1.21,3.36,3.36,0,0,0-.33-1.61,2,2,0,0,0-1-.87,3.86,3.86,0,0,0-1.52-.27Zm0-3.42H115a3,3,0,0,0,1.41-.3,2,2,0,0,0,.82-.87,3,3,0,0,0,.28-1.34,2.45,2.45,0,0,0-.26-1.11,2,2,0,0,0-.76-.81,2.63,2.63,0,0,0-1.32-.3,2.66,2.66,0,0,0-1.07.22,2.25,2.25,0,0,0-.85.64,1.52,1.52,0,0,0-.33,1h-4.6a4.57,4.57,0,0,1,.93-2.89,5.87,5.87,0,0,1,2.47-1.85,8.24,8.24,0,0,1,3.3-.65,9.62,9.62,0,0,1,3.7.65,5.43,5.43,0,0,1,2.48,1.9,5.29,5.29,0,0,1,.89,3.11,4.13,4.13,0,0,1-.47,1.92,5.14,5.14,0,0,1-1.34,1.58,6.71,6.71,0,0,1-2,1.07,7.83,7.83,0,0,1-2.52.39h-3Z"/><path class="cls-3" d="M90.49,61.21c-2.85-3.23-4.92-6-7.38-8.26-4.51-4.24-7-9.55-9-15.23-1.12-3.19-2.5-6.29-3.68-9.47s-.49-6.48,2.23-8.33c6.19-4.2,12.49-8.37,19.58-11a17.94,17.94,0,0,1,11.56-.09q30.76,9.44,61.5,19c5.28,1.65,7.3,6.86,4.65,11.26-2,3.38-7.16,5-12.48,4-5.61-1.12-11.22-2.26-17.21-3.47,2.22,3.07,4.07,5.91,4.37,9.43.15,1.7,1.47,1.09,2.35,1.15,4.93.31,9.88.44,14.67,1.79a25.32,25.32,0,0,1,5.16,2c4.08,2.18,5,5.09,3.05,9.21-3.37,7-3.22,14.35-1.54,21.72a92.8,92.8,0,0,0,4.48,13.43c.59,1.51,1.37,2.11,2.95,2a23.86,23.86,0,0,1,4.31.07,2.48,2.48,0,0,1,2.46,2.66,2.52,2.52,0,0,1-2.5,2.63c-1.21.11-2.44,0-4,0,1,2.42,1.86,4.49,2.69,6.56a2,2,0,0,0,2.14,1.36c1.44,0,2.88,0,4.32,0,1.69.07,2.77,1,2.71,2.69a2.42,2.42,0,0,1-2.64,2.44,11.31,11.31,0,0,1-1.54,0c-2-.19-2.21.62-1.58,2.36a61.12,61.12,0,0,1,2.86,11,37.13,37.13,0,0,1-.86,17.09c-.36,1.17-.53,1.91.62,2.89,3.19,2.74,3.95,5.72,2.68,9s-4,5.12-8.29,5.13q-33.37,0-66.74,0c-3.64,0-6.48-1.23-8-4.59a7.53,7.53,0,0,1,1.67-9.05c2.21-2.25-.42-4.16-.45-6.26,0-1.68-1.69-1.12-2.71-1.13-3.6-.06-7.21,0-10.81,0-2,0-4.27,0-4.21-2.77s2.36-2.66,4.35-2.67c3.29,0,6.59-.11,9.88,0,2,.09,2.91-.39,3-2.65.16-5.13.29-5.12-4.74-5.12-3.09,0-6.18,0-9.27,0-1.81,0-3.35-.67-3.22-2.86.12-2,1.5-2.48,3.25-2.47,4.53,0,9.06,0,13.6,0,1,0,1.95.13,2.35-1.31,3.32-11.81,9.3-22.59,13.23-34.17,2.51-7.39,4-14.9,2.19-22.7a23.07,23.07,0,0,0-1.85-5.21c-1.57-3-1.46-5.61,1.08-8.09a4,4,0,0,0,.42-5.81,62.23,62.23,0,0,1-3.83-5.6c-2-3.51-5.54-4.47-9-5.33-2.15-.54-4,.66-5.27,2.49a5.47,5.47,0,0,0,0,6.39c1.56,2.42,3.26,4.75,4.92,7.1a44.77,44.77,0,0,1,7.66,18.33,7.79,7.79,0,0,1-1.73,6.9A2.8,2.8,0,0,0,114.2,83c1.48,4.48-.89,8.25-5.57,9.12-2.83.52-5.67,1-8.53,1.31-1.67.2-2.42.73-2.61,2.6a10.16,10.16,0,0,1-4.14,7.31,5.81,5.81,0,0,0-1.67,2.15c-.76,1.48-1.57,3.08-3,3.88-6.8,3.87-11.82,10.14-18.92,13.65s-14.45,4.28-22.06,1.51c-3.85-1.4-7.63-2.94-11.75-3.61-3.9-.63-6.25-3.72-6.26-7.68-.06-11.53,0-23.07,0-34.6a7.69,7.69,0,0,1,4.69-7.37C41.17,68.06,48,65,55,62.27a18.19,18.19,0,0,1,6.65-1.07q12.52,0,25,0Zm54.66,89.21c9.88,0,19.77-.12,29.65.08,2.75.05,3.78-1,4.42-3.41,2.46-9.47,0-18.32-3.17-27.1-.48-1.3-1.53-1.16-2.55-1.16-4.63,0-9.27,0-13.9,0-1.73,0-3.15-.47-3.23-2.46-.08-2.21,1.42-2.73,3.28-2.73h9c4.91,0,4.73.07,3-4.62-.93-2.54-2.21-3.5-4.91-3.32-3.59.24-7.21,0-10.81.06-2.18,0-4.92.27-4.83-2.78s2.84-2.66,5-2.66c3,0,6-.13,8.95,0,2.55.15,2.7-.72,1.84-2.79A75.49,75.49,0,0,1,164,89.41c-2.53-8.87-3.4-17.75.2-26.6,1.62-4,1.62-4-2.72-5.3-8.15-2.36-16.48-2.1-24.81-1.47a32.13,32.13,0,0,0-9.89,2.18c-1.63.68-2.17,1.54-1.27,3.28a26.15,26.15,0,0,1,1.81,4.9c2.8,9.79.66,19.2-2.73,28.35-3.33,8.94-7.21,17.68-10.69,26.57-2.1,5.37-2,5.42,3.64,5.46a16.46,16.46,0,0,1,1.86,0,2.45,2.45,0,0,1,2.43,2.64,2.31,2.31,0,0,1-2.2,2.52c-1.53.17-3.08.13-4.62.15-5.37.09-3.91-.4-4.79,4.15-.05.3,0,.62-.09.92-.35,1.93.25,2.77,2.4,2.72,5.45-.13,10.91,0,16.37,0,1.79,0,3.43.46,3.46,2.63,0,2.33-1.61,2.82-3.58,2.81-4.84,0-9.68,0-14.52,0-3.47,0-4,1-2.35,4,.81,1.5,2.09,1.08,3.24,1.08Q130.18,150.45,145.15,150.42Zm-60.44-45c-3.28.23-6.09.41-8.9.63-3.8.29-7.59.63-11.38.93-1.74.14-3.16-.38-3.4-2.29-.27-2.16,1.21-2.85,3-3.09.61-.08,1.23-.09,1.84-.14,7.28-.6,14.56-1.26,21.85-1.75a4.44,4.44,0,0,0,4.14-3.09c.52-1.26.42-2.23-1.39-2.07-2,.18-4.11.25-6.16.39l-13.86,1a2.59,2.59,0,0,1-3-2.08,2.3,2.3,0,0,1,1.41-2.78,8,8,0,0,1,2.71-.56q10-.75,20-1.4a140.45,140.45,0,0,0,15.57-2.16c1-.17,2.24-.33,2.11-1.75-.11-1.12-1.2-1.28-2.09-1.51-.4-.1-.82-.09-1.22-.16-13.81-2.32-27.78-3.2-41.66-4.87-1.85-.22-3.7-.36-3.72-2.73,0-2.58,2-2.76,3.93-2.84,5.34-.22,10.69-.46,16-.63A17.68,17.68,0,0,0,89.07,70c1-.58,2.68-.92,2.32-2.47s-2-1-3.15-1c-8.65,0-17.3,0-25.95,0a14.34,14.34,0,0,0-5.16.77c-6.82,2.58-13.45,5.6-20.06,8.7a2.92,2.92,0,0,0-2,2.8q0,17.14,0,34.28c0,1.35.46,2.51,2,2.72,5.14.72,9.76,3.14,14.69,4.54,7.53,2.13,14-.34,20.63-5.22-3.93.77-7,1.32-10.15,2-1.87.41-3.47.09-3.91-1.89s.92-2.88,2.8-3.25q8.92-1.76,17.81-3.67C80.85,107.77,82.93,107.57,84.71,105.43ZM98.6,13.5a15.08,15.08,0,0,0-8,1.85c-4.46,2.56-8.88,5.17-13.36,7.69-1.87,1.06-2.27,2.47-1.49,4.39,1.42,3.52,2.92,7,4.18,10.6a29.59,29.59,0,0,0,6.73,10.88c7.51,7.81,14.25,16.22,19.11,26,.77,1.55,1.81,3,3.8,2.29,2.17-.77,1.88-2.71,1.52-4.45a38.49,38.49,0,0,0-5.9-14.12c-1.93-2.79-4-5.51-5.79-8.37a10.46,10.46,0,0,1,0-11.92c2.5-3.92,6.25-5.77,10.82-4.93,4.92.9,9.52,2.63,12.32,7.3a34.8,34.8,0,0,0,3.52,5c1.62,1.81,1.59,5.19,3.55,5.85s4.77-.75,7.21-.85c2.78-.1,2.75-1.49,2-3.41-1-2.54-2.93-4.45-4.57-6.55-1.39-1.78-2.12-3.59-.79-5.63s3.18-1.89,5.24-1.44c6.11,1.35,12.24,2.63,18.38,3.89a12.88,12.88,0,0,0,6.41,0c1.1-.34,2.12-.87,2.2-2.27a2.41,2.41,0,0,0-1.9-2.47c-.58-.22-1.16-.42-1.75-.6q-29.43-9-58.85-18.07A19.39,19.39,0,0,0,98.6,13.5Zm47.07,142.33q-16.51,0-33,0c-1.93,0-3.74.3-3.73,2.61s1.9,2.6,3.77,2.57c.42,0,.83,0,1.24,0h63.59a25.55,25.55,0,0,0,2.77-.1,2.22,2.22,0,0,0,2.18-2.49,2.36,2.36,0,0,0-2.22-2.5,16.92,16.92,0,0,0-2.47-.06Q161.72,155.82,145.67,155.83ZM101,77.32l-4.21-7.5c-1.45,3.06-4.31,4.18-7,6.1Z"/><path class="cls-3" d="M95.48,118.81c-1.65,0-3.29,0-4.94,0s-2.76-.84-2.75-2.61a2.35,2.35,0,0,1,2.55-2.5c3.49-.06,7,0,10.48,0a2.32,2.32,0,0,1,2.59,2.45,2.42,2.42,0,0,1-2.69,2.68C99,118.83,97.22,118.81,95.48,118.81Z"/></svg>