<svg xmlns="http://www.w3.org/2000/svg" viewBox="0 0 86.71 86.76"><defs><style>.cls-1{fill:#6c2910;}</style></defs><g id="Capa_2" data-name="Capa 2"><g id="Capa_1-2" data-name="Capa 1"><path class="cls-1" d="M15.05,74.66c.26,2.4.5,4.78.78,7.16.1.91,0,2.24,1.32,2.1,1.19-.13,1.09-1.41,1.09-2.35,0-7.45,0-14.9,0-22.35,0-1.7-.07-3.39,0-5.08.06-1.09-.34-1.31-1.35-1.31-2.9,0-2.81,0-3.09,2.86Q12.55,69.33,11.13,83c-.24,2.33-1.66,3.7-3.63,3.77s-3.59-1.21-4-3.54a11.25,11.25,0,0,1-.11-2q0-13.8,0-27.61A3.59,3.59,0,0,0,2.69,51,3.5,3.5,0,0,1,2,48.66C2,45.78,2,42.9,2,40c0-.43-.43-1.43.49-1.23s2.24-.44,2.21,1.32c0,2.59,0,5.19,0,7.79,0,2,.22,2.23,2.24,2.24,3.56,0,7.12,0,10.67,0,1.46,0,2.05-.58,2-2-.06-1.8,0-3.61,0-5.42,0-.44-.2-1.23.65-1s2.08-.25,2,.94c-.21,3.07,1,6.34-1.14,9.2-.28.37-.15,1.09-.15,1.64q0,13.89,0,27.78a7.92,7.92,0,0,1-.43,3A3.78,3.78,0,0,1,14.68,86a2.3,2.3,0,0,1-.94-2.33c.4-2.74.57-5.5.85-8.25C14.61,75.11,14.56,74.79,15.05,74.66Zm-9-6.73c0,4.39,0,8.79,0,13.19a7.83,7.83,0,0,0,.12,1.68c.14.6.38,1.25,1.19,1.18s.92-.62,1-1.19c.16-1.06.27-2.12.37-3.19C9.51,72,10.2,64.47,11,56.91c.45-4.14.55-4.09-3.57-4.08-1.09,0-1.44.28-1.42,1.4C6.1,58.8,6.07,63.36,6.07,67.93Z"/><path class="cls-1" d="M71.91,74.69c.38,3.22.87,6.44,1.06,9.68.06,1.19-1.12,1.93-2.27,2.23a3.58,3.58,0,0,1-4-1.23,5.77,5.77,0,0,1-1.07-3.83q0-14,0-27.94A3.78,3.78,0,0,0,65,50.93a3.66,3.66,0,0,1-.63-2.41c0-1.69.11-3.4,0-5.08-.1-1.22.49-1.47,1.48-1.67s1.33,0,1.29,1c-.07,1.8,0,3.61,0,5.42,0,1.36.53,1.94,1.91,1.92,3.72,0,7.45,0,11.17,0,1.29,0,1.85-.54,1.84-1.83,0-2.65,0-5.31,0-8a2.07,2.07,0,0,1,2.44-1.64c.39.19.26.58.27.88,0,3.17,0,6.33,0,9.49a2.1,2.1,0,0,1-.33,1.28c-1.28,1.49-1,3.26-1,5q0,13,0,25.92A8.47,8.47,0,0,1,83,84.1a3.71,3.71,0,0,1-3.56,2.63,3.41,3.41,0,0,1-3.55-2.56c-.76-2.22-.68-4.57-.92-6.86-.79-7.4-1.44-14.82-2.17-22.22-.08-.75.17-1.89-.61-2.12a9.89,9.89,0,0,0-3.35,0c-.54,0-.38.61-.38,1q0,14.07,0,28.12c0,.84.09,1.91,1.18,1.94s1.12-1,1.21-1.89c.27-2.46.52-4.92.78-7.38Zm8.68-6.78V56.75c0-4,0-4-4.11-3.91-1,0-1.23.19-1.1,1.23.35,2.79.54,5.6.82,8.4q1,9.91,2,19.83c.08.75.17,1.61,1.09,1.66s1.14-.91,1.27-1.68a8.67,8.67,0,0,0,0-1.35Z"/><path class="cls-1" d="M43.34,58.28H27.27c-2,0-2.17-.25-2.25-2.25-.21-4.9.46-6.2,5.8-5.87,1.09.07,1.62-.13,1.87-1.39a5.71,5.71,0,0,1,4.81-4.62c.78-.16,1-.34,1.14-1.2.26-2.2,6.22-5,8.19-4a3.61,3.61,0,0,1,1.54,1.94c1.13,2.7,2.29,5.38,3.37,8.1a1.52,1.52,0,0,0,1.71,1.18c1.63-.1,3.27-.06,4.9,0a3.08,3.08,0,0,1,3.26,3.31c0,5.31.59,4.82-4.57,4.82Zm0-2.72c4.74,0,9.47,0,14.21,0,.94,0,1.43-.11,1.4-1.26s-.27-1.49-1.42-1.48q-14.22,0-28.42,0c-1.2,0-1.35.5-1.4,1.51-.06,1.18.51,1.24,1.42,1.23C33.86,55.54,38.6,55.56,43.34,55.56Zm3-5.42a10.36,10.36,0,0,1,1.29,0c1.33.17,1.73-.2,1.06-1.51s-1.19-2.78-1.78-4.18c-1.43-3.39-1.42-3.37-4.72-1.65-.65.34-.77.65-.48,1.28a36.18,36.18,0,0,1,1.71,4C43.92,49.77,44.8,50.6,46.31,50.14Zm-5.05,0c-.23-.58-.41-1-.54-1.39-.39-1.19-.9-2.21-2.44-2a3.46,3.46,0,0,0-2.93,2.42c-.2.56-.2,1,.6,1C37.66,50.12,39.38,50.14,41.26,50.14Z"/><path class="cls-1" d="M7,18.85a3.55,3.55,0,0,0-2.4,3.06c-.55,2.82-1.21,5.62-1.8,8.43C2.3,32.67,2.66,33.25,5,33.65c7,1.2,14,2.36,21,3.54,1.11.19,2.14.05,2.37-1.24s-.61-1.64-1.7-1.85c-4.92-1-9.83-2-14.74-2.93-1.11-.23-2.44-.34-2.69-1.66a6.23,6.23,0,0,1,1-4.34,1,1,0,0,1,1.51-.24,1.24,1.24,0,0,1,.7,1.56c-.84,1.92.35,2.07,1.76,2.34,4.42.82,8.84,1.74,13.25,2.65a4.25,4.25,0,0,1,3.66,5,4.38,4.38,0,0,1-5.18,3.47c-3.57-.54-7.12-1.17-10.68-1.76-3.83-.64-7.66-1.3-11.5-1.92C1.33,35.86-.13,34.46,0,32A44.59,44.59,0,0,1,2.59,19.51C3.66,16.52,4.61,16.48,7,18.85Z"/><path class="cls-1" d="M79.71,18.82c2.36-2.39,3.06-2.3,4.4.68C85.23,22,85.37,24.74,86,27.37A15.86,15.86,0,0,1,86.7,32a4.07,4.07,0,0,1-3.78,4.22L61.09,39.89c-2.77.47-5.14-1-5.52-3.42a4.42,4.42,0,0,1,3.81-5.07c4.5-.72,8.94-1.76,13.42-2.62,1.26-.24,2.15-.52,1.48-2.11a1.29,1.29,0,0,1,1-1.85c.94-.25,1.47.32,1.68,1.21l.39,1.65c.5,2.19,0,3-2.21,3.43-4.64.93-9.28,1.82-13.91,2.78-1.22.25-3.16,0-2.84,2s2,1.28,3.29,1.07c6.83-1.14,13.66-2.31,20.5-3.37,1.45-.23,2.09-.9,1.83-2.23-.68-3.54-1.44-7-2.21-10.57C81.53,19.78,80.67,19.28,79.71,18.82Z"/><path class="cls-1" d="M43.28,86.73c-3,0-6,0-9,0a3.58,3.58,0,0,1-3.84-3.43c-.88-6.82-1.76-13.63-2.68-20.44-.19-1.36-.05-2.13,1.64-1.92.81.11,1,.4,1.06,1.13.86,6.76,1.81,13.51,2.63,20.27.15,1.29.58,1.72,1.88,1.7C40.58,84,46.16,84,51.75,84c1.23,0,1.63-.42,1.78-1.62.83-6.76,1.81-13.51,2.6-20.27.19-1.66,1.22-1.1,2-1.15,1.24-.07.77.91.7,1.44Q57.55,73,56.15,83.55a3.5,3.5,0,0,1-3.73,3.18C49.37,86.75,46.33,86.73,43.28,86.73Z"/><path class="cls-1" d="M80.6,8.92c0,.85,0,1.69,0,2.54a6,6,0,0,1-6,6.16,5.79,5.79,0,0,1-6.14-6c-.07-1.91-.07-3.83,0-5.74A6,6,0,0,1,74.34,0a5.77,5.77,0,0,1,6.2,5.55c.1,1.12,0,2.25,0,3.37Zm-9.48-.15h.06a31.23,31.23,0,0,0,0,3.21,3,3,0,0,0,3.29,2.92,3.22,3.22,0,0,0,3.36-3.09,58.7,58.7,0,0,0,0-6.08,3,3,0,0,0-3.38-3A3.27,3.27,0,0,0,71.13,5.9C71.07,6.85,71.12,7.81,71.12,8.77Z"/><path class="cls-1" d="M18.26,9.07A21.29,21.29,0,0,1,18,13.16a5.78,5.78,0,0,1-6.45,4.45,6,6,0,0,1-5.47-5.49,60.17,60.17,0,0,1,0-6.58A5.73,5.73,0,0,1,12.33,0a6,6,0,0,1,5.93,5.92C18.28,6.94,18.26,8,18.26,9.07ZM8.82,8.86h0c0,.9,0,1.8,0,2.7a3.27,3.27,0,0,0,3.3,3.34,3.08,3.08,0,0,0,3.4-3.18c.1-1.91.1-3.83,0-5.74a3.25,3.25,0,0,0-3.38-3.26,3.08,3.08,0,0,0-3.3,3.1C8.75,6.82,8.82,7.84,8.82,8.86Z"/><path class="cls-1" d="M28.61,42.45c3.58-1.18,5-3.57,5.34-6.9a37.94,37.94,0,0,1,1.72-6.34,3.86,3.86,0,0,0-.1-2.8c-.52-1.09-1-2.09-.18-3.3.47-.73-.33-1.06-.85-1S33,21,32.83,22.37a4.06,4.06,0,0,1-2.08,3A3.84,3.84,0,0,0,29.31,28c-.27,1.5-1.29.81-2.08.73-1.09-.12-.74-.8-.56-1.48a6.17,6.17,0,0,1,1.22-2.76c1.12-1.24,2.4-2.36,2.69-4.14,0-.1.12-.19.19-.28,1.38-1.61,2.62-1.25,5.94-.13,1.53.51,1.87,1.91,1.48,3.35a4,4,0,0,0,.08,2.62,6.08,6.08,0,0,1,.09,3.82c-.84,3-1.79,6-2.44,9.1C35.15,42.44,33.1,44.39,28.61,42.45Z"/><path class="cls-1" d="M57.85,42.48c-4.14,1.6-5.89.76-7-3.26-.86-3.15-1.67-6.3-2.56-9.43a5.45,5.45,0,0,1-.2-2.67,8.7,8.7,0,0,0,.25-4.77,1.07,1.07,0,0,1,0-.5c.25-1.61,1.84-2.55,4.87-2.87a2.61,2.61,0,0,1,3.08,2,4.65,4.65,0,0,0,1.58,2.5,7.51,7.51,0,0,1,2.2,4.09c.19.67,0,1-.6,1.06s-1.64.89-2-.3a6,6,0,0,0-3.06-4c-.41-.2-.36-.68-.44-1-.31-1.55-1.09-1.85-2.48-1.05-.71.41-.37.89-.14,1.27a1.94,1.94,0,0,1,0,2.21A4.67,4.67,0,0,0,51,29.45a78.1,78.1,0,0,1,2,7.83,5.89,5.89,0,0,0,3.54,4.58Z"/><path class="cls-1" d="M48.07,71.09a4.75,4.75,0,1,1-4.76-4.69A4.76,4.76,0,0,1,48.07,71.09Zm-2.69,0a2,2,0,0,0-2-2,2,2,0,0,0-.13,4C44.48,73.22,45.14,72.42,45.38,71.14Z"/><path class="cls-1" d="M17.41,18.86c.26-.28.37-.41.49-.52,1.76-1.67,2.52-1.52,3.76.66a8.12,8.12,0,0,1,.67,4.26c0,.67-.13,1.36.87,1.51.61.1,1.48.2,1,1.24-.32.68,0,2-1.54,1.47-.13,0-.32.1-.49.1-2.27,0-2.57-.28-2.57-2.52,0-.79-.05-1.58,0-2.36A3.32,3.32,0,0,0,17.41,18.86Z"/><path class="cls-1" d="M69.27,18.85C67.34,19.57,66.88,21,67,22.8a14.31,14.31,0,0,1,0,2.36c-.06.68.42,1.57-.37,2a5.92,5.92,0,0,1-3.57.37c-.62-.08-.53-1.26-.75-1.94s.42-.67.73-.69c1.28-.11,1.33-.93,1.27-1.91a6.25,6.25,0,0,1,1.3-4.9c.87-1,1.7-1.69,2.7-.14A6.21,6.21,0,0,0,69.27,18.85Z"/></g></g></svg>