<svg xmlns="http://www.w3.org/2000/svg" viewBox="0 0 202.21 172.63"><defs><style>.cls-1{isolation:isolate;}.cls-2{fill:#fdce75;}.cls-27,.cls-3{fill:#fbbb34;}.cls-26,.cls-4{fill:#ffd825;}.cls-21,.cls-25,.cls-27,.cls-30,.cls-31,.cls-35,.cls-4,.cls-40,.cls-41,.cls-42,.cls-8,.cls-9{mix-blend-mode:multiply;}.cls-21,.cls-25,.cls-27,.cls-30,.cls-33,.cls-4,.cls-42{opacity:0.4;}.cls-5{fill:#a1a08b;}.cls-6{fill:#4b3c32;}.cls-7{fill:#693015;}.cls-8{fill:#1276bc;}.cls-40,.cls-8,.cls-9{opacity:0.3;}.cls-10{fill:#e6569a;}.cls-11,.cls-20{fill:#fff;}.cls-11,.cls-31{opacity:0.5;}.cls-12{fill:#bd9883;}.cls-13{fill:#c88a5e;}.cls-14{fill:#86133b;}.cls-15{fill:#967e6c;}.cls-16{fill:#b2b095;}.cls-17{fill:#ffd207;}.cls-18{fill:#f6a01c;}.cls-19{fill:#c0bd99;}.cls-20,.cls-35,.cls-41{opacity:0.2;}.cls-21,.cls-34,.cls-35,.cls-40{fill:#bdbec0;}.cls-22{fill:#6c2910;}.cls-23{fill:#a7a9ab;}.cls-24{fill:#8c2213;}.cls-28{fill:#05863f;}.cls-29{fill:#dbd59e;}.cls-30,.cls-31{fill:#ea5235;}.cls-32{fill:#e7e8e9;}.cls-33,.cls-42{fill:#d1d2d4;}.cls-36{fill:#0b457c;}.cls-37{fill:#595a5c;}.cls-38{fill:#333;}.cls-39{fill:#079cd9;}.cls-41{fill:#2dab5b;}</style></defs><g class="cls-1"><g id="Capa_2" data-name="Capa 2"><g id="Capa_1-2" data-name="Capa 1"><path class="cls-2" d="M107.94,21.92a3.35,3.35,0,0,1,4.11-2.33l46.37,12.89a3.35,3.35,0,0,1,2.32,4.11l-1.08,3.89a3.35,3.35,0,0,1-4.11,2.33L109.18,29.92a3.36,3.36,0,0,1-2.32-4.12Z"/><path class="cls-3" d="M160.63,37l.11-.43a3.11,3.11,0,0,0,.11-1L108.37,21a2.83,2.83,0,0,0-.43.91l-.12.42Z"/><rect class="cls-3" x="132.79" y="4.85" width="1.43" height="54.81" transform="matrix(0.27, -0.96, 0.96, 0.27, 66.67, 152.25)"/><path class="cls-4" d="M131.8,25.09l-19.75-5.5a3.35,3.35,0,0,0-4.11,2.33l-1.08,3.88a3.36,3.36,0,0,0,2.32,4.12l15.24,4.23,4.1-1.61s-10.49-2.92-8.83-6.9C120.87,22.8,127.88,24.1,131.8,25.09Z"/><rect class="cls-5" x="79.35" y="80.98" width="79.96" height="6.12" transform="translate(6.4 176.5) rotate(-74.46)"/><rect class="cls-6" x="77.39" y="82.47" width="79.96" height="2.05" transform="translate(5.5 174.22) rotate(-74.47)"/><rect class="cls-7" x="125.12" y="33.46" width="12.43" height="16.37" rx="4.45" transform="translate(56.03 157.02) rotate(-74.46)"/><path class="cls-7" d="M108.73,28.19a1.11,1.11,0,0,1,1.37-.77l46.77,13a1.12,1.12,0,0,1,.77,1.37l-1.68,6a1.11,1.11,0,0,1-1.37.77l-46.77-13a1.11,1.11,0,0,1-.77-1.37Z"/><path class="cls-8" d="M108.73,28.19l-1.68,6a1.11,1.11,0,0,0,.77,1.37l15.5,4.31L123,41.15a4.46,4.46,0,0,0,3.09,5.48l2.05.57c-.85-.29-1.65-.9-1.56-3a2.66,2.66,0,0,1,3-2.6s-10.07-5.11-8.4-7.8,16.52,1.25,16.52,1.25L110.1,27.42A1.11,1.11,0,0,0,108.73,28.19Z"/><path class="cls-2" d="M101.67,98s-2.5-16.2-2-19.64,3.55-7.34,4.48-9.57.76-3.66-1.32-2.44A8.24,8.24,0,0,0,99.59,70c-.42.74-1.08,1.16-1-1.76s.45-11.47-1.06-12-1.82,2.15-2,5.27,0,5-.44,4.19S94.65,56.16,93,55s-1.37,3.44-1.32,6.83.29,6.39.13,7-.18-1.73-.52-3.91-1.51-9.19-2.79-9-1.39,2.49-1.07,5.38.53,6.78.61,7.8-.42-.53-.5-1.61-1.33-8.93-2.22-9.09-1.69,2.34-.67,9.47S87.14,77.51,87.85,83s.24,16.08.24,16.08S97.14,99.87,101.67,98Z"/><g class="cls-9"><path class="cls-10" d="M84.71,68.37a0,0,0,0,0,0,0A0,0,0,0,1,84.71,68.37Z"/><path class="cls-10" d="M88.09,99.05s.47-10.63-.24-16.08C87.23,78.2,86,75.65,85,70.34c.87,3.9,2.93,7,3.62,8.9.8,2.18,1.25,4.17,1.64,11.33s4.39,5.92,7.43,5.88,3-5.25,3-5.28c.5,3.76,1,6.84,1,6.84C97.14,99.87,88.09,99.05,88.09,99.05Z"/></g><path class="cls-2" d="M105.36,94.23s12.36-10.77,14.18-13.73,2-7.9,2.75-10.2,1.78-3.29,2.58-1a8.21,8.21,0,0,1,.16,4.86c-.16.84.07,1.58,1.86-.74s7-9.05,8.53-8.47,0,2.82-1.85,5.33-3.22,3.87-2.36,3.48,6.49-7,8.52-6.78-1.18,3.51-3.39,6.07-4.34,4.7-4.59,5.23,1.25-1.21,2.93-2.65,7.07-6,7.92-5.07-.54,2.8-2.65,4.8-4.77,4.84-5.5,5.57.67-.13,1.43-.91,6.77-6,7.55-5.53-.21,2.89-5.59,7.68-8.15,5.78-12.21,9.49-10.56,12.14-10.56,12.14S107.63,98.57,105.36,94.23Z"/><g class="cls-9"><path class="cls-10" d="M137.44,82.5l0,0Z"/><path class="cls-10" d="M115.07,103.78s6.49-8.43,10.56-12.14c3.54-3.24,6.11-4.41,10.29-7.84-3.18,2.42-6.75,3.46-8.51,4.47-2,1.15-3.64,2.38-8.57,7.6s-7.16,1.7-9.46-.3,1.11-5.92,1.13-5.94c-2.8,2.55-5.15,4.6-5.15,4.6C107.63,98.57,115.07,103.78,115.07,103.78Z"/></g><path class="cls-2" d="M119.16,81c-.93-8.88-1.36-13,.22-14.76S122.82,62.85,122,61s-6.14-7.76-6.14-7.76l-4.18-.53-4.17-.53s-6.58,4.37-7.88,6,.08,3.71,1.19,5.76-.35,6-3.45,14.35-5.45,26.82-5.91,30.46.24,5.64,1.65,8.56,10,3.5,10,3.5,8.43,1.56,10.52-.91,3.28-4.25,3.74-7.88S120.09,89.87,119.16,81Z"/><rect class="cls-11" x="91.77" y="85.54" width="29.62" height="16.47" transform="matrix(0.13, -0.99, 0.99, 0.13, 0.18, 187.76)"/><rect class="cls-12" x="109.34" y="45.63" width="5.3" height="8.83" transform="translate(48.29 154.87) rotate(-82.79)"/><rect class="cls-13" x="111.25" y="43.46" width="2.45" height="5.49" transform="translate(52.52 151.99) rotate(-82.79)"/><polygon class="cls-14" points="115.35 45.33 109.9 44.65 111.89 42.43 113.98 42.69 115.35 45.33"/><path class="cls-15" d="M116,53.23,116.7,48,115,47.76l.31-2.43L114,42.69l-2.09-.26-.32.35h0c3.27,0,1.7,2.29,1.7,2.29a1.14,1.14,0,0,1,.72,1.44c-.16.93-1.51.93-1.51.93,2.78,1.2,2.89,3.12-.47,4s-4.55-.84-4.55-.84l-.18,1.48Z"/><path class="cls-16" d="M113.56,119.85c2.09-2.48,3.28-4.25,3.74-7.88s2.79-22.1,1.86-31-1.36-13,.22-14.76S122.82,62.85,122,61s-6.14-7.76-6.14-7.76l-4.18-.53-4.17-.53s-.62.41-1.51,1c2.35-.76,9.37,1,11.4,19.69,2.34,21.58-6.86,42.42-15.09,42.44s-10.93-5.75-10.94-5.76c-.25,3.12.45,5,1.74,7.72,1.42,2.91,10,3.5,10,3.5S111.47,122.32,113.56,119.85Z"/><rect class="cls-17" x="65.14" y="47.7" width="14.52" height="12.95" rx="2.04" transform="translate(-9.95 16.82) rotate(-12.41)"/><rect class="cls-18" x="63.58" y="57.57" width="20.5" height="4.34" transform="translate(-11.11 17.26) rotate(-12.41)"/><path class="cls-19" d="M101.79,77.78c-6.33-9.17-11.71-13.37-14.31-14.66s-3.57-1.13-3.72-1.8-.32-1.47-.32-1.47l-17,3.74,1.43,6.5a68.31,68.31,0,0,0-2.27,14.54c-.48,8.59.72,27.93,5.48,34.39s6.05,6,9.1,5.37l30-6.6s2-2.51,1.7-8.71S108.12,87,101.79,77.78ZM101.3,101c-2.44-1.69-6.13-7.88-8.8-12s-3-7-1.22-8.56a4.63,4.63,0,0,1,4-1c4.42,2,8.53,14.63,9.55,17.32C106.24,100.55,102.52,101.86,101.3,101Z"/><path class="cls-20" d="M77.34,71.89s-7.2.83-7.38,4.36c-.08,1.68-.8,23.51,1,30.35S77.42,118.14,79.5,118s10.92-2.41,13.37-2.94,4.86-2.58,4.3-4.42-12-21.16-13.61-24.89S79.76,71.16,77.34,71.89Z"/><path class="cls-19" d="M94.37,79.33a5,5,0,0,1,.89.09c4.42,2,8.53,14.63,9.55,17.32,1.43,3.81-2.29,5.12-3.51,4.27a7.12,7.12,0,0,1-1.06-.93c.15,8.7-2.63,15.94-7.44,17.82-12.79,5-22.16.43-22.17.43.15.24.31.47.47.69,4.75,6.46,6.05,6,9.1,5.37l30-6.6s2-2.51,1.7-8.71S108.12,87,101.79,77.78,90.08,64.41,87.48,63.12s-3.57-1.13-3.72-1.8-.32-1.47-.32-1.47L71.35,62.51C83.44,59.85,92.79,71.33,94.37,79.33Z"/><path class="cls-21" d="M80.26,56.1l-1.72-7.82a2.05,2.05,0,0,0-2.43-1.56l-6.48,1.43s6.91-.29,7.43,4.14a4.64,4.64,0,0,1-3.54,5.3c6.66.62,2.24,3.95,2.24,3.95l8.56-1.88-.94-4.24Z"/><path class="cls-12" d="M61,90.68l2.27,64.64a11.16,11.16,0,0,0,11,10.65h49a11.15,11.15,0,0,0,11-10.65l2.27-64.64Z"/><path class="cls-22" d="M118.3,147.37c-7.89,15.47-24.94,15.38-38.09,15s-16.82-6-16.82-6h0A11.16,11.16,0,0,0,74.33,166h49a11.15,11.15,0,0,0,11-10.65l2.27-64.64h-34C141,100.72,124.83,134.54,118.3,147.37Z"/><rect class="cls-22" x="57.4" y="85.11" width="82.82" height="6.22"/><path class="cls-23" d="M98.81,142.51c-23.8,0-43.17-20.25-43.17-45.14a1.06,1.06,0,0,1,1.07-1.06h2.57a1.07,1.07,0,0,1,0,2.13H57.79c.54,23.23,18.73,41.94,41,41.94s40.48-18.71,41-41.94h-1.46a1.07,1.07,0,1,1,0-2.13h2.53A1.06,1.06,0,0,1,142,97.37C142,122.26,122.61,142.51,98.81,142.51Z"/><polygon class="cls-24" points="139.41 99.85 136.41 99.85 136.57 95.26 139.41 95.26 139.41 99.85"/><polygon class="cls-24" points="61.47 99.85 58.21 99.85 58.21 95.26 61.3 95.26 61.47 99.85"/><rect class="cls-12" x="90.16" y="138.52" width="17.3" height="5.9" rx="2.13"/><path class="cls-22" d="M105.33,138.52h-.17a1.82,1.82,0,0,1,.08.52v1.64a2.14,2.14,0,0,1-2.13,2.13H90.24a2.14,2.14,0,0,0,2.06,1.61h13a2.14,2.14,0,0,0,2.13-2.14v-1.63A2.14,2.14,0,0,0,105.33,138.52Z"/><polygon class="cls-2" points="21.77 0 82.21 0 73.25 21.44 30.73 21.44 21.77 0"/><g class="cls-25"><polygon class="cls-26" points="52.92 21.44 51.99 0 51.06 21.44 52.92 21.44"/><polygon class="cls-26" points="49.54 21.44 46.74 0 47.67 21.44 49.54 21.44"/><polygon class="cls-26" points="46.15 21.44 41.48 0 44.28 21.44 46.15 21.44"/><polygon class="cls-26" points="42.76 21.44 36.23 0 40.9 21.44 42.76 21.44"/><polygon class="cls-26" points="39.38 21.44 30.98 0 37.51 21.44 39.38 21.44"/><polygon class="cls-26" points="35.99 21.44 25.73 0 34.13 21.44 35.99 21.44"/><polygon class="cls-26" points="69.85 21.44 78.25 0 67.99 21.44 69.85 21.44"/><polygon class="cls-26" points="66.47 21.44 73 0 64.6 21.44 66.47 21.44"/><polygon class="cls-26" points="63.08 21.44 67.75 0 61.22 21.44 63.08 21.44"/><polygon class="cls-26" points="59.69 21.44 62.49 0 57.83 21.44 59.69 21.44"/><polygon class="cls-26" points="56.31 21.44 57.24 0 54.44 21.44 56.31 21.44"/></g><rect class="cls-3" x="49.54" y="36.43" width="4.89" height="136.19"/><rect class="cls-27" x="49.54" y="36.43" width="2.16" height="136.19"/><path class="cls-28" d="M29.85,23a1,1,0,0,1,.91-1.53H73.21A1,1,0,0,1,74.13,23l-1.67,3.1A3.22,3.22,0,0,1,69.9,27.6H34.08a3.2,3.2,0,0,1-2.56-1.53Z"/><path class="cls-29" d="M29.85,23a1,1,0,0,1,.91-1.53H73.21A1,1,0,0,1,74.13,23l-1.67,3.1A3.22,3.22,0,0,1,69.9,27.6H34.08a3.2,3.2,0,0,1-2.56-1.53Z"/><polygon class="cls-5" points="43.55 27.6 60.43 27.6 56.8 37.54 47.18 37.54 43.55 27.6"/><path class="cls-21" d="M52.92,21.44H30.76A1,1,0,0,0,29.85,23l1.67,3.1a3.2,3.2,0,0,0,2.56,1.53h9.47l3.63,9.94H51.7a6.2,6.2,0,0,1-4-5.14c-.35-3.93,2.62-4.8,2.62-4.8a69.86,69.86,0,0,1-8.09-1.75c-1.79-.71-3-1.43-1.91-2.62S52.92,21.44,52.92,21.44Z"/><path class="cls-13" d="M190.77,110.51s1.89,1.92,2.12,2.32a1.26,1.26,0,0,1,.24,1.42c-.21.73-1.72.24-1.64,2s1.43,1.47,1.19,3c-.15,1-.66.68-1.14,1.88a2,2,0,0,0,.34,2.18c.32.55.72,1,.32,1.83s-1.35,1.43-1,2.62,7.72,5,8,9.88.16,20.22-1.75,23.4-2.71,4.14-4.7,4.06-11.7,0-11.7,0-2.64-.63-3.43-5c-.51-2.89-2.3-17.59.24-27.14s6.1-22.45,6.1-22.45Z"/><path class="cls-20" d="M185.21,131.61s7.28,2.13,9.56,6.76c1.14,2.31-.29,15.6-.73,18.25s-1.62,4.85-3.24,4.85h-5.74s-2.86-.05-3.24-2.2c-.26-1.48-1.17-15.6-.73-20S183.26,130.84,185.21,131.61Z"/><path class="cls-3" d="M184.41,118.57a.53.53,0,0,0,.55.51h3.32a.51.51,0,1,0,0-1H185A.53.53,0,0,0,184.41,118.57Z"/><path class="cls-3" d="M183.77,121.13a.53.53,0,0,0,.55.51h3.31a.53.53,0,0,0,.55-.51.54.54,0,0,0-.55-.52h-3.31A.54.54,0,0,0,183.77,121.13Z"/><path class="cls-3" d="M183,123.85a.53.53,0,0,0,.55.51h3.31a.52.52,0,1,0,0-1h-3.31A.54.54,0,0,0,183,123.85Z"/><path class="cls-30" d="M183.89,110.51h6.88l.86.89c-5.34-.9-7.76,2-9.51,15.31s2.19,31.89,6.59,34.76,9.3-2.14,9.3-2.14h0a6.48,6.48,0,0,1-.63,1.73c-1.91,3.18-2.71,4.14-4.7,4.06s-11.7,0-11.7,0-2.64-.63-3.43-5c-.51-2.89-2.3-17.59.24-27.14S183.89,110.51,183.89,110.51Z"/><rect class="cls-12" x="197.18" y="98.79" width="5.02" height="2.63" rx="0.73"/><path class="cls-15" d="M201.47,101.42h-3.55a.74.74,0,0,1-.74-.73V99.52a.74.74,0,0,1,.74-.73h2.69c-1,.16-1.44,1.86-.25,2.25a1.72,1.72,0,0,0,1.85-.35A.74.74,0,0,1,201.47,101.42Z"/><path class="cls-15" d="M196.39,101.07l.37,1.93s-.84.14-.7.73a89.06,89.06,0,0,0,5.2,8.17c.41.37-.45.28-1.41.18s-1.83-1.68-3.29-3.56a25.89,25.89,0,0,1-3.28-4.93,1.62,1.62,0,0,1,.28-1.75Z"/><path class="cls-31" d="M195.62,103.15c-2.12,1-.2,3.85.22,4.44a20.43,20.43,0,0,1-2.56-4,1.62,1.62,0,0,1,.28-1.75l1.21-.33.08,0S198,102,195.62,103.15Z"/><path class="cls-32" d="M184.81,106.34v-2.63s.23-.41-.45-.59-3.47-.68-3.47-.68-.78,0-.78-.64.32-5.71,4.52-5.94,11.78-.27,11.78-.27a1.74,1.74,0,0,1,.77.55c.32.41,2.1,2.43,2.1,2.43v3.74a.74.74,0,0,1-.77.5c-.64,0-8.13,1-8.13,1s-.41.14-.41.46v2Z"/><path class="cls-33" d="M180.11,101.8c0-.64.32-5.71,4.52-5.94,1.85-.1,4.36-.16,6.59-.2-3.89.5-8.6.8-9.28,2.59s1.53,3.37,2.9,3.61,1,1.29.92,2.69,1.69,1.71,1.69,1.71l-.1.08h-2.54v-2.63s.23-.41-.45-.59-3.47-.68-3.47-.68S180.11,102.44,180.11,101.8Z"/><rect class="cls-34" x="183.89" y="106.29" width="6.92" height="4.21"/><path class="cls-35" d="M190.82,109.65s-3.13.71-4.54.09-1.36-3.14,1.17-3.45h-3.56v4.22h6.88Z"/><polygon class="cls-36" points="36.12 142.02 31.84 147.94 22.37 149.77 34.88 132.45 36.12 142.02"/><rect class="cls-37" x="-8.02" y="130.83" width="59.61" height="10.69" transform="translate(-101.35 74.09) rotate(-54.15)"/><rect class="cls-38" x="-11.38" y="132.54" width="59.61" height="2.39" transform="matrix(0.59, -0.81, 0.81, 0.59, -100.77, 70.35)"/><rect class="cls-19" x="-1.69" y="138.28" width="59.61" height="4.92" transform="translate(-102.43 81.11) rotate(-54.15)"/><path class="cls-39" d="M36.12,142l-4.28,5.92,25.62,20a4.33,4.33,0,0,0,6.19-.88l.61-.85a4.32,4.32,0,0,0-1.11-6.15Zm24.64,22.31a1.48,1.48,0,1,1-.33-2.06A1.47,1.47,0,0,1,60.76,164.33Z"/><path class="cls-40" d="M36.2,125.35S41,120.2,40.91,123,29.2,143.44,29.2,143.44s3.55-3.18,4.34-1.18-.77,4.4-.77,4.4c5.7-4.35,19.79,8.39,25.61,14a14.86,14.86,0,0,1,1.19,1.3,1.45,1.45,0,0,1,.86.28,1.46,1.46,0,0,1,.38,2c.86,3-2.49,4.22-2.49,4.22h0a4.33,4.33,0,0,0,5.33-1.4l.61-.85a4.32,4.32,0,0,0-1.11-6.15l-27-18h0l-.9-6.93L47.56,118l-4-2.88-6.72-4.86-1.94-1.4-5.56,7.69C39.21,115.87,36.2,125.35,36.2,125.35Z"/><path class="cls-29" d="M172.6,120.73c-1.44-5.42-2.62-14.22-6.67-16.29s-8.65-4.42-8.84-5.17a1.83,1.83,0,0,1,0-1.13H145.44a5,5,0,0,1-1.6,2.17c-1.32,1.12-6.21,3.19-6.21,6.48v54.44s-.28,4.51,5.73,4.51h25.86a4.59,4.59,0,0,0,4.7-4.89C173.92,157.75,175.74,132.6,172.6,120.73Zm-6.29,16.06a4,4,0,0,1-3.95-2.92c-.28-1.5-4-16.26-3.38-19.93a4.1,4.1,0,0,1,3.75-3.77,3.39,3.39,0,0,1,3.58,2.83c.2.92,2.26,10.06,2.91,16.45S168.28,136.79,166.31,136.79Z"/><path class="cls-41" d="M143.36,165.74h25.86a4.59,4.59,0,0,0,4.7-4.89c0-3.1,1.82-28.25-1.32-40.12-1.44-5.42-2.62-14.22-6.67-16.29s-8.65-4.42-8.84-5.17a1.83,1.83,0,0,1,0-1.13H148a24.69,24.69,0,0,1,13.88,12.18,3.53,3.53,0,0,1,.82-.15,3.39,3.39,0,0,1,3.58,2.83c.2.92,2.26,10.06,2.91,16.45.64,6.17-.83,7.26-2.7,7.33-1,10.59-4.83,19.54-9.92,21.09-12.32,3.75-19-3-19-3v6.4S137.35,165.74,143.36,165.74Z"/><path class="cls-20" d="M142.48,111.7h8.22a3.44,3.44,0,0,1,2.3,2.74c.15,2,6.2,31.87,6.35,32.88s.43,3.6-1.44,4.47H142.77A1.66,1.66,0,0,1,141,150V114S140.6,111.7,142.48,111.7Z"/><path class="cls-17" d="M155.74,94.45c0,1.19-.59,2.16-1.3,2.16h-6.68c-.71,0-1.3-1-1.3-2.16V88.08c0-1.19.59-2.16,1.3-2.16h6.68c.71,0,1.3,1,1.3,2.16Z"/><rect class="cls-18" x="144.68" y="93.53" width="13.09" height="4.61"/><path class="cls-21" d="M155.74,93.53V88.08c0-1.19-.59-2.16-1.3-2.16H150.2s4.15.31,4.07,2.94c-.15,4.72-2.94,4.67-2.94,4.67,4.07,2.17.85,4.61.85,4.61h5.6V93.53Z"/><rect class="cls-2" x="33.17" y="151.73" width="45.49" height="13.75" transform="translate(-0.86 0.3) rotate(-0.31)"/><rect class="cls-29" x="33.12" y="146.61" width="45.49" height="5.12" transform="translate(-0.81 0.3) rotate(-0.31)"/><path class="cls-18" d="M62.8,155.93a1,1,0,0,1,1-1,1,1,0,0,1,0,2A1,1,0,0,1,62.8,155.93Z"/><path class="cls-18" d="M70.54,162.76a1,1,0,0,1,1-1,1,1,0,0,1,1,1,1,1,0,0,1-1,1A1,1,0,0,1,70.54,162.76Z"/><path class="cls-18" d="M48.89,162.2a1,1,0,1,1,2,0,1,1,0,0,1-2,0Z"/><path class="cls-18" d="M38,156a1,1,0,0,1,1-1,1,1,0,1,1,0,2A1,1,0,0,1,38,156Z"/><path class="cls-18" d="M65.34,159.63a.44.44,0,0,1,.44-.44.44.44,0,0,1,0,.88A.45.45,0,0,1,65.34,159.63Z"/><path class="cls-18" d="M52.17,155.94a.44.44,0,0,1,.44-.44.44.44,0,0,1,.44.43.44.44,0,1,1-.88,0Z"/><path class="cls-18" d="M43.14,162.91a.44.44,0,0,1,.44-.44.44.44,0,0,1,0,.88A.44.44,0,0,1,43.14,162.91Z"/><path class="cls-18" d="M34.92,157.79a.44.44,0,0,1,.44-.44.44.44,0,1,1-.44.44Z"/><path class="cls-18" d="M76.34,162a.44.44,0,0,1,.44-.44.44.44,0,0,1,0,.88A.45.45,0,0,1,76.34,162Z"/><path class="cls-18" d="M72.54,155.83A1.48,1.48,0,1,1,74,157.3,1.47,1.47,0,0,1,72.54,155.83Z"/><path class="cls-18" d="M56.47,159.82A1.48,1.48,0,1,1,58,161.29,1.47,1.47,0,0,1,56.47,159.82Z"/><path class="cls-18" d="M45.33,155.78a1.48,1.48,0,1,1,1.49,1.47A1.48,1.48,0,0,1,45.33,155.78Z"/><path class="cls-18" d="M36.29,161.78a1.48,1.48,0,1,1,1.49,1.47A1.48,1.48,0,0,1,36.29,161.78Z"/><path class="cls-42" d="M50.38,146.63l-17.27.1,0,5.12.07,13.75L48,165.52c-11.22-4.31-4.17-13.73-4.17-13.73C41.45,150,43,146.91,50.38,146.63Z"/></g></g></g></svg>