<svg xmlns="http://www.w3.org/2000/svg" xmlns:xlink="http://www.w3.org/1999/xlink" viewBox="0 0 195.33 154.93"><defs><style>.cls-1{fill:none;}.cls-2{isolation:isolate;}.cls-3{clip-path:url(#clip-path);}.cls-4{fill:#c88a5e;}.cls-5{fill:#66361d;}.cls-6{fill:url(#linear-gradient);}.cls-7{fill:url(#linear-gradient-2);}.cls-8{fill:url(#linear-gradient-3);}.cls-9{fill:url(#linear-gradient-4);}.cls-10{fill:#6c2910;}.cls-11{fill:url(#linear-gradient-5);}.cls-12,.cls-23{fill:#fff;}.cls-13,.cls-14{fill:#f5f7fa;}.cls-14,.cls-21,.cls-24,.cls-25{mix-blend-mode:multiply;}.cls-15{fill:#967e6c;}.cls-16{fill:url(#linear-gradient-6);}.cls-17{fill:url(#linear-gradient-7);}.cls-18{fill:url(#linear-gradient-8);}.cls-19{fill:url(#linear-gradient-9);}.cls-20{fill:#603b25;}.cls-21,.cls-23,.cls-25{opacity:0.3;}.cls-22{fill:#5b3e2d;}.cls-23{mix-blend-mode:soft-light;}.cls-24{opacity:0.8;fill:url(#linear-gradient-10);}.cls-25{fill:url(#linear-gradient-11);}.cls-26{fill:#fdce75;}.cls-27{fill:url(#linear-gradient-12);}.cls-28{fill:url(#linear-gradient-13);}.cls-29{fill:url(#linear-gradient-14);}</style><clipPath id="clip-path" transform="translate(17.54 -25.54)"><ellipse class="cls-1" cx="80.93" cy="85.28" rx="80.93" ry="85.28"/></clipPath><linearGradient id="linear-gradient" x1="44.91" y1="115.3" x2="45.38" y2="79.34" gradientUnits="userSpaceOnUse"><stop offset="0" stop-color="#fcc345"/><stop offset="1" stop-color="#ee7058"/></linearGradient><linearGradient id="linear-gradient-2" x1="41.61" y1="75.02" x2="45.5" y2="39.44" xlink:href="#linear-gradient"/><linearGradient id="linear-gradient-3" x1="589.84" y1="1023.43" x2="593.74" y2="987.86" gradientTransform="translate(-674.91 -876.08) rotate(-6.51)" xlink:href="#linear-gradient"/><linearGradient id="linear-gradient-4" x1="57.88" y1="76.83" x2="61.78" y2="41.25" xlink:href="#linear-gradient"/><linearGradient id="linear-gradient-5" x1="47.23" y1="41.43" x2="44.07" y2="68.69" xlink:href="#linear-gradient"/><linearGradient id="linear-gradient-6" x1="115.78" y1="102.41" x2="118.19" y2="54.57" xlink:href="#linear-gradient"/><linearGradient id="linear-gradient-7" x1="112.12" y1="82.17" x2="131.18" y2="-8.2" xlink:href="#linear-gradient"/><linearGradient id="linear-gradient-8" x1="127.32" y1="85.37" x2="146.38" y2="-4.99" xlink:href="#linear-gradient"/><linearGradient id="linear-gradient-9" x1="97.12" y1="79" x2="116.18" y2="-11.36" xlink:href="#linear-gradient"/><linearGradient id="linear-gradient-10" x1="98.08" y1="68.78" x2="80.82" y2="114.57" gradientUnits="userSpaceOnUse"><stop offset="0" stop-color="#444c8d"/><stop offset="1" stop-color="#3f4178"/></linearGradient><linearGradient id="linear-gradient-11" x1="92.61" y1="67.44" x2="75.55" y2="112.69" xlink:href="#linear-gradient-10"/><linearGradient id="linear-gradient-12" x1="81.31" y1="167.07" x2="78.15" y2="98.87" xlink:href="#linear-gradient"/><linearGradient id="linear-gradient-13" x1="108.26" y1="72.62" x2="90.99" y2="118.41" xlink:href="#linear-gradient-10"/><linearGradient id="linear-gradient-14" x1="78.47" y1="115.49" x2="82.65" y2="13.42" xlink:href="#linear-gradient"/></defs><g class="cls-2"><g id="Capa_2" data-name="Capa 2"><g id="Capa_1-2" data-name="Capa 1"><g class="cls-3"><path class="cls-4" d="M49,155.81c-41.21.32-57.26-6.32-63.8-15.25-6-8.22-1-22.69,6.15-31C2.66,96.48,20.9,95.84,45.86,95.14c23.46-.65,37.93-1.06,49.34,9.06,10.68,9.45,17.5,27,10.85,36.12C99.88,148.75,88.3,155.51,49,155.81Z" transform="translate(17.54 -25.54)"/><path class="cls-5" d="M32.09,95.1l-4.83,1.24A1.79,1.79,0,0,0,26.2,99c3.29,5.12,12,18,17.43,19.49,5.64,1.57,16.16-14.73,19.66-20.47a1.78,1.78,0,0,0-1-2.63L58.77,94.3a23.35,23.35,0,0,0-9-1L36.6,94.34A27.59,27.59,0,0,0,32.09,95.1Z" transform="translate(17.54 -25.54)"/><path class="cls-6" d="M35.67,76.37s2.65,19.07-1,20.89l10.44,11.38L55.66,95.16s-4-3-2.94-18.79Z" transform="translate(17.54 -25.54)"/><path class="cls-7" d="M29.51,49.06c-.38.51-5.27,24.55,11.68,27.06s17.7-15.25,17.48-22.78-8-10.28-12.41-10.8S30.85,47.25,29.51,49.06Z" transform="translate(17.54 -25.54)"/><path class="cls-8" d="M28.53,63.1s-.85-3.93-3.76-1.48,1.72,8.95,5.53,8.68Z" transform="translate(17.54 -25.54)"/><path class="cls-9" d="M58.15,60.36c-.49.33-1.89,9.55-1.89,9.55s2.45.29,4.22-3S63.11,57,58.15,60.36Z" transform="translate(17.54 -25.54)"/><path class="cls-10" d="M64.81,42.74c-1.78-3-6.29-1.56-7.61-4.42-1.11-2.4,1.49-4.66.1-6.73-1.17-1.74-4-1.69-4.53-1.68C48.92,30,48,33,45.29,33c-3.36-.09-3.49-4.67-7.93-6.61S26.77,26,24.22,29.51c-2,2.73-.29,4.74-2.88,8.25-1.79,2.41-3.36,2.52-4.25,4.88a9.2,9.2,0,0,0,.17,5.9c1.06,3.77,3,5.43,6,9.43a65.52,65.52,0,0,1,5,8,94.54,94.54,0,0,1,3,9.49c.95,3.75.89,4.51,1.78,5.72,3.06,4.19,10.05,3.78,13,3.61,3.37-.19,7.57-.43,9.68-3.36,1.14-1.59,1-3,1.26-6.85a94.28,94.28,0,0,1,1.47-11.21,33.46,33.46,0,0,1,1.38-4.75c1.23-3.28,2.5-3.8,3.89-7.19C64.83,48.66,66.27,45.15,64.81,42.74Zm-14,25.58c-2.08.57-3.49.06-6.31-.1-5.65-.33-7.44,2.32-10.11,1.16-1.11-.49-3.68-1.85-4.23-4.45A21.16,21.16,0,0,1,30,58.27c.44-3.25.95-7,3.56-8.68,3.79-2.41,8.63,1.74,12.11-1a6.29,6.29,0,0,0,2.1-3.79,15.3,15.3,0,0,1,9.17,9,14.82,14.82,0,0,1-.08,9.6A11,11,0,0,1,50.77,68.32Z" transform="translate(17.54 -25.54)"/><path class="cls-11" d="M39.05,72.3A14,14,0,0,0,48.19,72c.38-.15.7.27.39.5a8.5,8.5,0,0,1-5.32,1.77,11.07,11.07,0,0,1-4.53-1.49C38.38,72.62,38.66,72.17,39.05,72.3Z" transform="translate(17.54 -25.54)"/><path class="cls-12" d="M53.12,67.76h-.06a.45.45,0,0,1-.43-.48.46.46,0,0,1,.32-.42,93.71,93.71,0,0,0,6-7.24.45.45,0,0,1,.64-.08.46.46,0,0,1,.08.65s-1.47,1.88-3,3.71C53.79,67.54,53.41,67.76,53.12,67.76Z" transform="translate(17.54 -25.54)"/><path class="cls-12" d="M49.49,79a.47.47,0,0,1-.31-.12.46.46,0,0,1,0-.65l8.28-9a.47.47,0,0,1,.65,0,.46.46,0,0,1,0,.65l-8.28,9A.49.49,0,0,1,49.49,79Z" transform="translate(17.54 -25.54)"/><path class="cls-12" d="M34.1,68.38a.47.47,0,0,1-.28-.09c-3.13-2.43-8.25-6.36-8.74-6.63a.48.48,0,0,1-.25-.57.46.46,0,0,1,.58-.29c.28.09,3.3,2.37,9,6.76a.46.46,0,0,1,.09.64A.47.47,0,0,1,34.1,68.38Zm-9-6.72h0Z" transform="translate(17.54 -25.54)"/><path class="cls-12" d="M37.91,79.63a.47.47,0,0,1-.34-.16c-3.4-4-7.32-8.32-8-8.71a.46.46,0,0,1-.35-.45.45.45,0,0,1,.45-.46c.29,0,.59,0,4.69,4.58,2,2.19,3.87,4.42,3.89,4.44a.45.45,0,0,1,0,.65A.46.46,0,0,1,37.91,79.63Zm-8.22-8.86Z" transform="translate(17.54 -25.54)"/><path class="cls-12" d="M53.42,66a30.76,30.76,0,0,0-9.78-1.77A30.42,30.42,0,0,0,33.86,66,2.94,2.94,0,0,0,32,69.36c.82,4.13,3.65,12.18,11.65,13.19,8-1,10.84-9,11.66-13.18A3,3,0,0,0,53.42,66Z" transform="translate(17.54 -25.54)"/><path class="cls-13" d="M55.29,69.37c-.82,4.13-3.66,12.17-11.66,13.18-3-4.52-2.83-7.15-2.19-8.71.8-2,2.65-2.75,3.08-5.18a7,7,0,0,0-.88-4.42c.68,0,1.7.05,2.94.19A31.74,31.74,0,0,1,53.42,66,3,3,0,0,1,55.29,69.37Z" transform="translate(17.54 -25.54)"/><path class="cls-14" d="M48.34,70.14H38.65a1.15,1.15,0,1,0,0,2.29h9.69a1.15,1.15,0,0,0,0-2.3Z" transform="translate(17.54 -25.54)"/><path class="cls-14" d="M48.34,73.85H38.65a1.15,1.15,0,1,0,0,2.3h9.69a1.15,1.15,0,1,0,0-2.29Z" transform="translate(17.54 -25.54)"/><path class="cls-10" d="M55.06,149.51c-1.08-2.08-.55-5.17.51-11.35.53-3.06,2.93-17.06,9-25.81C76.19,95.73,102.52,96,117.24,96.1c17.49.16,35.42.32,48,13.92,10.62,11.46,16.82,31.76,9,41.29-7.5,9.16-20.67,6.93-59.5,7.29C82.16,158.9,59.79,158.7,55.06,149.51Z" transform="translate(17.54 -25.54)"/><path class="cls-15" d="M114.93,88.86c-14.39,0-29.89,6.53-29.58,11.49.33,5.19,18,8.55,30.62,8.64,11.73.09,29.15-2.57,29.64-7.67S130.13,88.89,114.93,88.86Z" transform="translate(17.54 -25.54)"/><path class="cls-16" d="M107.43,74.41s3.74,24.47-10,26.57l20,4.48,16.74-4.67s-12.62-3.41-10.81-23.55Z" transform="translate(17.54 -25.54)"/><path class="cls-17" d="M129.48,68.29c0,8.41-6.43,15.23-14.36,15.23s-14.36-6.82-14.36-15.23,6.43-24.63,14.36-24.63S129.48,59.87,129.48,68.29Z" transform="translate(17.54 -25.54)"/><path class="cls-18" d="M128.51,65.44s3.4-2.55,5.15.12c2.46,3.74-5.49,7.56-5.49,7.56Z" transform="translate(17.54 -25.54)"/><path class="cls-19" d="M101.67,65.44s-3.4-2.55-5.16.12c-2.46,3.74,5.5,7.56,5.5,7.56Z" transform="translate(17.54 -25.54)"/><path class="cls-15" d="M101.54,70.9c-.67.16-5.34-9-3.73-17.88,3-16.42,24.23-23.52,25.64-21.15.72,1.21-3.3,5.73-2.32,7.08s5.17-1.88,6-.63-2.25,4.6-1.51,5.77,4.27-1.69,5.43-.38c1.63,1.86-3.57,9.76-1.43,12.69.73,1,1.58.43,2.41,1.48,2.29,2.94-1,11.66-2.41,11.43-1.09-.18-.08-5.39-3.11-10.58a15.09,15.09,0,0,0-4.54-4.86,21.28,21.28,0,0,0-6.44,3.57c-1.82,1.47-1.61,2.16-2.91,2.88-3.42,1.89-6.57-.92-8.72,1-.69.6-1,1.7-1.48,3.9C101.53,68.75,101.85,70.83,101.54,70.9Z" transform="translate(17.54 -25.54)"/><path class="cls-10" d="M120.75,50.46c-3.09-1.27-3.33-5.2-6.56-6.06-6.21-1.67-12.52,11-14.27,9.69-.66-.47-.61-2.82,1.71-10A22.46,22.46,0,0,0,97.81,53c-1.61,8.93,3.06,18,3.73,17.88.31-.07,0-2.15.85-5.73.53-2.2.79-3.3,1.48-3.9,2.15-1.87,5.3.94,8.72-1,1.3-.72,1.09-1.41,2.91-2.88a21.28,21.28,0,0,1,6.44-3.57,15.09,15.09,0,0,1,4.54,4.86c3,5.19,2,10.4,3.11,10.58,1.43.23,4.7-8.49,2.41-11.43-.83-1.05-1.68-.48-2.41-1.48-1.63-2.23,1-7.36,1.63-10.49C126.06,50.89,122.84,51.31,120.75,50.46Z" transform="translate(17.54 -25.54)"/><path class="cls-12" d="M106.8,70.7a.42.42,0,0,1-.28-.1L98.26,64a.46.46,0,0,1-.07-.65.45.45,0,0,1,.64-.07l8.26,6.66a.45.45,0,0,1,.07.64A.43.43,0,0,1,106.8,70.7Z" transform="translate(17.54 -25.54)"/><path class="cls-12" d="M108.53,79.42a.45.45,0,0,1-.31-.11L101,72.77a.46.46,0,0,1,.62-.68l7.23,6.53a.46.46,0,0,1-.31.8Z" transform="translate(17.54 -25.54)"/><path class="cls-12" d="M124.53,70.7a.44.44,0,0,1-.36-.17.45.45,0,0,1,.07-.64l8.26-6.66a.46.46,0,1,1,.58.72l-8.26,6.65A.46.46,0,0,1,124.53,70.7Z" transform="translate(17.54 -25.54)"/><path class="cls-12" d="M122.81,79.42a.47.47,0,0,1-.35-.15.46.46,0,0,1,0-.65l7.23-6.53a.46.46,0,1,1,.61.68l-7.23,6.54A.41.41,0,0,1,122.81,79.42Z" transform="translate(17.54 -25.54)"/><path class="cls-12" d="M124.74,68.31a26.33,26.33,0,0,0-18.51,0,2.78,2.78,0,0,0-1.77,3.17c.78,3.91,3.46,11.52,11,12.48,7.56-1,10.24-8.57,11-12.48A2.78,2.78,0,0,0,124.74,68.31Z" transform="translate(17.54 -25.54)"/><path class="cls-13" d="M126.51,71.48c-.78,3.91-3.46,11.52-11,12.48a13.06,13.06,0,0,1-.48-7c.63-2.72,2.08-4.28,1.76-7a7.63,7.63,0,0,0-1.28-3.32c.64,0,1.61.05,2.78.18a29.49,29.49,0,0,1,6.47,1.5A2.78,2.78,0,0,1,126.51,71.48Z" transform="translate(17.54 -25.54)"/><path class="cls-14" d="M119.94,72.21h-9.17a1.09,1.09,0,1,0,0,2.17h9.17a1.09,1.09,0,1,0,0-2.17Z" transform="translate(17.54 -25.54)"/><path class="cls-14" d="M119.94,75.72h-9.17a1.09,1.09,0,1,0,0,2.17h9.17a1.09,1.09,0,1,0,0-2.17Z" transform="translate(17.54 -25.54)"/><path class="cls-20" d="M76.74,71.83c-2.85-1.61-3.07-5.32-3.15-6.79-.2-3.47,1-9.11,4.73-10,3-.67,5.67,2.17,6,2.53,3.4,3.67,1.76,8.92,1.58,9.47-.4,1.23-1.24,3.76-3.79,4.9A6.46,6.46,0,0,1,76.74,71.83Z" transform="translate(17.54 -25.54)"/><g class="cls-21"><path class="cls-22" d="M82.11,64.57c-1.66-2.45-4.64-2.18-5.52-4.27-.45-1-.34-2.61,1.32-5.09-3.36,1.15-4.52,6.49-4.32,9.83.08,1.47.3,5.18,3.15,6.79a6.46,6.46,0,0,0,5.37.16l.33-.16C83.21,69.27,83.47,66.56,82.11,64.57Z" transform="translate(17.54 -25.54)"/></g><path class="cls-20" d="M62.54,141.61s-5.71-40.89-3.25-55.26S75.08,69.09,80.8,69s17.18,3.87,18,20.87S91,142.59,91,142.59Z" transform="translate(17.54 -25.54)"/><path class="cls-23" d="M79.09,105.33c9,.83,12.3-7.11,20.52-6.32a12.38,12.38,0,0,1,2.63.55c.15-1.61.26-3.17.31-4.66a12.48,12.48,0,0,0-2.94-.65c-8.22-.8-11.57,7.15-20.52,6.31-7.28-.68-9.62-6.38-16-5.52a11.25,11.25,0,0,0-4.39,1.59c0,1.51,0,3.09.11,4.71a11.28,11.28,0,0,1,4.28-1.54C69.47,98.94,71.81,104.65,79.09,105.33Z" transform="translate(17.54 -25.54)"/><path class="cls-24" d="M77.38,120.16c-6.68-.68-8.82-6.39-14.69-5.53a9.26,9.26,0,0,0-3,1c1.14,13.55,2.88,26,2.88,26l28.47,1s3.42-14,5.75-28.67l-.6-.08C88.63,113.05,85.57,121,77.38,120.16Z" transform="translate(17.54 -25.54)"/><path class="cls-25" d="M96.16,99c-7.53-.79-10.59,7.15-18.78,6.32-6.68-.68-8.82-6.39-14.69-5.53a9.8,9.8,0,0,0-3.92,1.54c.15,4.57.48,9.51.89,14.3a9.26,9.26,0,0,1,3-1c5.87-.86,8,4.85,14.69,5.53,8.19.83,11.25-7.11,18.78-6.32C96.36,113.86,96.89,99.09,96.16,99Z" transform="translate(17.54 -25.54)"/><path class="cls-26" d="M34.27,171c-6.18-7.34-.84-22.8,5.74-31.58C51,124.71,69.45,123.26,79,122.51c10.19-.81,24.06-1.9,35.43,7.36,13.38,10.9,19.1,32.7,11.61,41.11-6.08,6.83-16.6,9.41-45.39,9.49C51.49,180.55,40.36,178.2,34.27,171Z" transform="translate(17.54 -25.54)"/><path class="cls-27" d="M60.63,127.47c5.27-1.64,13.9-1.65,13.81-20.59,0,0,11-.16,11.36,0s-2.9,18.78,12.41,19.42c1,0,1.32,1.52.48,2.14-2.77,2.07-9,5.16-18.26,4.8-5.84-.22-12.5.76-19.83-3.48C59.59,129.18,59.52,127.82,60.63,127.47Z" transform="translate(17.54 -25.54)"/><path class="cls-28" d="M89.36,166c-3-.64,2.37-26.32-.3-66.34-.55-8.3-1.32-15.14-1.89-19.74l9.87.85c3.77,12.11,8.71,34.2,2.71,60.11C96.93,153,91.6,166.42,89.36,166Z" transform="translate(17.54 -25.54)"/><path class="cls-22" d="M89.36,166c-3-.64,2.37-26.32-.3-66.34-.55-8.3-1.32-15.14-1.89-19.74l9.87.85c3.77,12.11,8.71,34.2,2.71,60.11C96.93,153,91.6,166.42,89.36,166Z" transform="translate(17.54 -25.54)"/><path class="cls-29" d="M67.05,91.25c0,2.53-1.15,21,13,21,12.9,0,11.77-13.5,11.4-20.27,0,0-.59-6.09-4.94-7.82,0,0,4,3.48,4,11,0,0-1-4-10.46-4.15s-11.43,4.15-11.43,4.15-1.67-7.24,3.14-11C71.68,84.16,68.27,85.22,67.05,91.25Z" transform="translate(17.54 -25.54)"/><path class="cls-12" d="M70.43,100.25a.46.46,0,0,1-.36-.17l-3.61-4.49a.46.46,0,1,1,.71-.57l3.61,4.48a.46.46,0,0,1-.07.65A.42.42,0,0,1,70.43,100.25Z" transform="translate(17.54 -25.54)"/><path class="cls-12" d="M73,108.92a.44.44,0,0,1-.36-.18l-5.93-7.36a.46.46,0,0,1,.07-.65.45.45,0,0,1,.64.07l5.93,7.37a.45.45,0,0,1-.07.64A.43.43,0,0,1,73,108.92Z" transform="translate(17.54 -25.54)"/><path class="cls-12" d="M88.48,100.25a.46.46,0,0,1-.29-.1.47.47,0,0,1-.07-.65L91.74,95a.46.46,0,1,1,.71.57l-3.61,4.49A.46.46,0,0,1,88.48,100.25Z" transform="translate(17.54 -25.54)"/><path class="cls-12" d="M86,108.92a.48.48,0,0,1-.29-.11.47.47,0,0,1-.07-.64l5.93-7.37a.46.46,0,1,1,.72.58l-5.93,7.36A.44.44,0,0,1,86,108.92Z" transform="translate(17.54 -25.54)"/><path class="cls-12" d="M88.29,97.78a27.7,27.7,0,0,0-8.79-1.59,27.74,27.74,0,0,0-8.79,1.59,2.65,2.65,0,0,0-1.69,3c.75,3.72,3.29,10.95,10.48,11.86,7.19-.91,9.74-8.14,10.48-11.86A2.65,2.65,0,0,0,88.29,97.78Z" transform="translate(17.54 -25.54)"/><path class="cls-13" d="M90,100.79c-.74,3.72-3.29,10.95-10.48,11.86a32,32,0,0,1,.81-5.77c.84-3.5,1.88-5.12,1.32-7.35a6.86,6.86,0,0,0-2.13-3.34c.61,0,1.54,0,2.65.17a28.36,28.36,0,0,1,6.14,1.42A2.65,2.65,0,0,1,90,100.79Z" transform="translate(17.54 -25.54)"/><path class="cls-14" d="M83.73,101.49H75a1,1,0,0,0,0,2.06h8.71a1,1,0,1,0,0-2.06Z" transform="translate(17.54 -25.54)"/><path class="cls-14" d="M83.73,104.82H75a1,1,0,0,0,0,2.06h8.71a1,1,0,1,0,0-2.06Z" transform="translate(17.54 -25.54)"/></g></g></g></g></svg>