<svg id="Capa_1" data-name="Capa 1" xmlns="http://www.w3.org/2000/svg" viewBox="0 0 232 260"><defs><style>.cls-1{fill:#6c2910;}.cls-2{fill:#fff;}.cls-3{fill:#c88a5e;}</style></defs><circle class="cls-1" cx="115.47" cy="221.01" r="28.85"/><path class="cls-2" d="M122.18,225.83v3.54H108.36v-3l6.36-6.69a18.84,18.84,0,0,0,1.37-1.74,7.47,7.47,0,0,0,.75-1.39,3.23,3.23,0,0,0,.24-1.13,3.61,3.61,0,0,0-.25-1.44,1.89,1.89,0,0,0-.74-.88,2.21,2.21,0,0,0-1.19-.3,2,2,0,0,0-1.24.41,2.73,2.73,0,0,0-.82,1.12,4,4,0,0,0-.29,1.59H108a6.34,6.34,0,0,1,.89-3.33,6.55,6.55,0,0,1,2.48-2.42,7.36,7.36,0,0,1,3.69-.9,8.73,8.73,0,0,1,3.68.68,4.87,4.87,0,0,1,2.23,2,6,6,0,0,1,.76,3.1,6.06,6.06,0,0,1-.33,2,8.47,8.47,0,0,1-.94,1.88,15.84,15.84,0,0,1-1.49,1.91c-.58.66-1.25,1.35-2,2.09l-2.56,3Z"/><path class="cls-3" d="M44.63,85.14a8.34,8.34,0,0,1,1-.11c3.06.07,4.9-.4,6.11-1.58s1.77-3.08,1.78-6.3c0-.83,0-1.66,0-2.49,0-2.61,0-5.31-.05-8,0-1,.14-1.44.3-1.59a1.89,1.89,0,0,1,1.37-.2l.49,0c1.29.14,3.07.33,4.18-1,1.3-1.58,2.87-1.55,4.87-1.51l1.08,0q3.38,0,6.75,0h6.25c3,0,6,0,9.06,0a3,3,0,0,1,2.23.62,2.56,2.56,0,0,1,.49,2c0,.56,0,1.12,0,1.66.06,2.06,0,3.38-1.53,4.4a2.88,2.88,0,0,0-1,2.51c0,2.23-.09,4.83,0,7.41s1.67,4.08,4.34,4.08h0q7.95,0,15.92,0h0c2.78,0,3.52-1.42,3.72-2.28.9-4,1.62-8.16-.42-11.42a10.14,10.14,0,0,1-1.55-5.82c0-.94,0-1.87,0-2.81,0-1.49,0-3,0-4.57-.26-8.56-6.39-14.76-14.92-15.07-.87,0-1.73,0-2.6,0s-1.54,0-2.31,0h-.61a2.51,2.51,0,0,1-.87,0,1.17,1.17,0,0,1-.11-.61c0-.92.11-1.18.2-1.26s.23-.17.89-.13a3.57,3.57,0,0,0,3.63-2.33c1-2.5,1-4.85-.14-6.61s-3.21-2.79-5.88-2.92h-.36l-.75,0a.89.89,0,0,1,0-.38c0-.82,0-1.65,0-2.47,0-1,0-2,0-3a.83.83,0,0,1,.2-.6.78.78,0,0,1,.61,0c1.14.33,2.32.56,3.45.79a21.43,21.43,0,0,1,5.76,1.7,7.51,7.51,0,0,0,6.25.32,7.72,7.72,0,0,0,4.46-4.56,7.38,7.38,0,0,0-1.9-8.36c-3-2.87-6.35-2.29-8.64-1.59l-1.42.44c-3.6,1.15-7,2.24-10.41-.26a5.41,5.41,0,0,0-6.46.08c-3.13,2.48-6.3,1.49-9.65.45L67,11.22c-4.54-1.29-7.78-.59-9.9,2.15a7.94,7.94,0,0,0,.1,9.75c2.41,3,6.17,3.65,10,1.8a21,21,0,0,1,5.83-1.53c1-.16,2.1-.34,3.15-.59.13,0,.23,0,.22-.06.91,1.92.59,4.1.28,6.21l0,.1a.69.69,0,0,1-.07.24,3.4,3.4,0,0,1-1.2-.06,6.85,6.85,0,0,0-1.1-.12h0c-1.17,0-4.74,0-5.1,4.34-.38,4.64.15,7,4.21,7.55.85.13.92.22.93,1.26a1,1,0,0,1-.13.66s-.27.17-1,.16c-3.41,0-6.76,0-10.74,0h0a1.47,1.47,0,0,1-1.34-.52,5.59,5.59,0,0,0-5.31-2c-1,.12-1.75,0-2.06-.31a2.61,2.61,0,0,1-.21-1.95,7.41,7.41,0,0,0,0-1.76c0-.16,0-.33,0-.5,0-.83,0-2.77-2.07-2.89a2.12,2.12,0,0,0-1.6.51,2.92,2.92,0,0,0-.67,2.22c0,.17,0,.34,0,.49a14.78,14.78,0,0,0,0,1.62c0,.21,0,.41,0,.62V48.91q0,14.16,0,28.31c0,3.25-.1,3.35-3.46,3.5a8.45,8.45,0,0,1-1.1-.09c-1.1-.14-2.35-.3-3.21.45a2.3,2.3,0,0,0-.73,1.79,2.35,2.35,0,0,0,.74,1.86,2.52,2.52,0,0,0,1.74.55A10.44,10.44,0,0,0,44.63,85.14Zm8.89-30.58c0-.59,0-1.17,0-1.76h0c0-.59,0-1.19,0-1.78,0-1.32,0-2.69,0-4,0-.71-.06-1.68.24-2a1.46,1.46,0,0,1,1-.23H55c2.39.16,3.08.29,3,2.22-.11,3.48-.11,7.28,0,11.63.05,1.75-.53,1.87-2.76,2h-.11a2,2,0,0,1-1.42-.24c-.24-.23-.33-.82-.27-1.81C53.56,57.27,53.54,55.89,53.52,54.56ZM84.38,42.25a2.65,2.65,0,0,1,0,.8,1,1,0,0,1-.33,0h-.87c-1,0-2.11,0-3.18.05-.79,0-1-.07-1.13-.16s-.22-.29-.21-1c0-.58.15-.75.19-.79a1.28,1.28,0,0,1,.75-.14l.4,0,.9,0H84c.22,0,.31,0,.33,0a3.17,3.17,0,0,1,0,.74ZM71,47.48c2-.09,4.1-.07,6.11,0h2.73c1.59,0,3.19,0,4.78,0,3.25,0,6.6,0,9.9,0,6.85.11,11.16,4.48,11.25,11.39,0,1.11,0,2.23,0,3.35,0,1.82,0,3.7.06,5.57,0,1-.12,1.4-.27,1.55a2,2,0,0,1-1.39.19l-.23,0a2.79,2.79,0,0,0-2.28.43,2.11,2.11,0,0,0-.66,1.63c0,2.12,1.89,2.23,2.61,2.27l.32,0c2.12.18,3.53.3,3.93.73s.43,1.81.47,3.91v.36a2.54,2.54,0,0,1-.29,1.63,2.51,2.51,0,0,1-1.59.26c-1.84-.08-3.69-.1-5.53-.1-2.33,0-4.64,0-6.92.08h-.46c-.77,0-1-.15-1-.18s-.15-.2-.09-.86a14.31,14.31,0,0,0,0-3.29c-.17-1.23-.07-2.06.29-2.42s1.39-.37,2.14-.25c1.78.28,2.81-.3,3.06-1.71a2.06,2.06,0,0,0-.37-1.79,2.63,2.63,0,0,0-2.11-.72,1.24,1.24,0,0,1-.44,0,2.8,2.8,0,0,1-.06-.83v-.53c-.34-9.18-1.21-10-10.36-10H78.88c-4.85,0-9.88,0-14.82.05-1,0-1.37-.14-1.51-.28s-.26-.49-.18-1.41a20.75,20.75,0,0,0-.17-3.68c-.21-2-.41-3.95.46-4.94s2.93-.8,5-.55A21.89,21.89,0,0,0,71,47.48ZM81.63,20.4a2.71,2.71,0,0,1-2.88-2.69,2.67,2.67,0,0,1,.66-2,2.87,2.87,0,0,1,2-1h.12a2.84,2.84,0,0,1,1.87.79,2.87,2.87,0,0,1,1,2h0a3,3,0,0,1-.92,2.16A2.52,2.52,0,0,1,81.63,20.4ZM81.17,26a3.78,3.78,0,0,1-.07-1.11,1.17,1.17,0,0,1,.58-.06l.3,0a4,4,0,0,1,0,.67A4.29,4.29,0,0,0,82,27a4,4,0,0,0,0,1.42A4,4,0,0,1,82,29a1.51,1.51,0,0,1-.38,0h0a1.65,1.65,0,0,1-.5-.06h0a3.5,3.5,0,0,1,.06-1,5.05,5.05,0,0,0,.1-.9A6,6,0,0,0,81.17,26Zm2.39,7.53c1.41,0,2.87,0,4.33,0,.88-.06,1.18.08,1.28.17s.27.4.27,1.36a2.39,2.39,0,0,1-.31,1.54,2.15,2.15,0,0,1-1.42.25c-2.11-.07-4.23-.11-6.33-.11s-4.18,0-6.22.11a2,2,0,0,1-1.3-.24,3,3,0,0,1-.34-1.7,1.73,1.73,0,0,1,.23-1.17c.26-.26,1.18-.22,1.53-.2,1.51.07,3,0,4.52,0C81.05,33.55,82.3,33.55,83.56,33.57Zm8.6-15.48a3.34,3.34,0,0,1,0,.88s-.13.1-.59.13l-.42,0c-.65.06-1.64.15-2.06-.23a1.43,1.43,0,0,1-.34-1,3.68,3.68,0,0,1,0-.76,10.1,10.1,0,0,1,3.33-.5A7,7,0,0,0,92.16,18.09Zm4.09.09a3.74,3.74,0,0,1,3.52-3.51h0a3.56,3.56,0,0,1,2.45,1.12,3.46,3.46,0,0,1,1.08,2.4,3.84,3.84,0,0,1-3.53,3.53h0A3.83,3.83,0,0,1,96.25,18.18ZM71,17.52c0-.18,0-.37,0-.55s0-.2,0-.3h0a5,5,0,0,0,1.85.15c.52,0,1.17,0,1.36.15s.21.26.19,1a1.47,1.47,0,0,1-.27,1c-.27.26-1,.24-1.62.21a6.64,6.64,0,0,0-1.41.06H71l0-.24A3.15,3.15,0,0,0,71,17.52Zm-4.31.56a3.61,3.61,0,0,1-3.32,3.63,3.17,3.17,0,0,1-2.33-.93,3.61,3.61,0,0,1-1.15-2.49,3.48,3.48,0,0,1,3.3-3.61h.1a3.36,3.36,0,0,1,2.27.94A3.52,3.52,0,0,1,66.72,18.08Z"/><path class="cls-3" d="M173.61,74.76A4.58,4.58,0,0,0,171,77.35a4.54,4.54,0,0,0,1,3.57c1.58,2.39,3.09,4.89,4.55,7.31,1.07,1.79,2.19,3.64,3.33,5.43a7.93,7.93,0,0,1,.55,1,5.1,5.1,0,0,1-1,0c-4.25-.14-7.49-.13-10.51.06-1.11.06-1.8,0-2.06-.34a2.19,2.19,0,0,1-.16-1.66c.09-.61.37-2.49-1.36-3.22a2.45,2.45,0,0,0-2.93,1.07l-.2.23q-1.5,1.68-3,3.38c-1.74,2-3.54,4-5.36,6-1.55,1.67-1.51,3.17.11,4.71,1.94,1.85,3.88,3.78,5.75,5.65l3.62,3.59a2.68,2.68,0,0,1,.28.3,2.92,2.92,0,0,0,2.06,1.19,2.32,2.32,0,0,0,1.11-.3,2.53,2.53,0,0,0,1.17-2.62c0-.15,0-.3,0-.45.07-1.48.12-2.76.39-3s1.56-.25,3.16-.25h1.23c1.56,0,2.87,0,4,0,7.15.09,7.38,0,12.34-5.37.82-.89,1.78-1.93,2.95-3.15a12.46,12.46,0,0,0,3.27-9.32A12.92,12.92,0,0,0,190.74,82,2.54,2.54,0,0,0,189,81.3a2.06,2.06,0,0,0,.23-.55,3.17,3.17,0,0,0-.63-2.39l-1-1.66c-.92-1.5-1.88-3-2.77-4.6a3.23,3.23,0,0,0-2-1.74,3.34,3.34,0,0,0-2.65.63A71.06,71.06,0,0,1,173.61,74.76Zm10.11,26.41a3,3,0,0,1-3.09,3.38c-1.82.11-3.7.08-5.52.06h-6.54c-3.89,0-4.69.49-5.08,3.58l-.72-.71c-1.75-1.74-3.4-3.38-5-5a3.22,3.22,0,0,1,.24-.28l.15-.16,3.93-4.41.4-.44a2.83,2.83,0,0,0,.58,1,4.06,4.06,0,0,0,3.23,1c2.08,0,4.17,0,6.25,0,2.67,0,5.43,0,8.14-.08,1.36-.05,2.14.11,2.54.49A2.3,2.3,0,0,1,183.72,101.17Zm4.12-3.06-10.2-16.68a8.66,8.66,0,0,1-1.34-2.63,8.67,8.67,0,0,1,2.48-1.71,9.56,9.56,0,0,1,2.56-1.27h.06a8.33,8.33,0,0,1,1.79,2.47l.4.67c.33.56.68,1.15,1.07,1.72l.17.24c.31.49,1,1.64,2.29,1.52a2.1,2.1,0,0,0,.07,2.11c.55,1,1.12,2,1.71,3C191.67,92.13,191.46,94.84,187.84,98.11Z"/><path class="cls-3" d="M118,97.84c.27,1.16.54,2.32.85,3.48a11.43,11.43,0,0,0,11.42,8.89c1.87,0,3.73,0,5.6,0H142c8.57,0,9-.43,9.14-9,0-.8.05-1.48.07-2.07.08-1.92.13-3-.61-3.75s-2-.82-4.64-.8h-1.87a3.15,3.15,0,0,0-2.39.59,2.1,2.1,0,0,0-.45.65,1.9,1.9,0,0,0-.46-.72,3.22,3.22,0,0,0-2.63-.51l-.4,0a3.88,3.88,0,0,1-.78-.06,3.34,3.34,0,0,0-2.58.4,2.07,2.07,0,0,0-.69,1,1.92,1.92,0,0,0-.45-.83,3.19,3.19,0,0,0-2.45-.66,8.54,8.54,0,0,1-.88,0l1.17-1.91c1.44-2.33,2.79-4.53,4.06-6.85.42-.77,1-1.81,1.61-1.9.36-.06.92.23,1.58.82,1.69,1.51,3,.87,3.48.53a2.67,2.67,0,0,0,.74-3.14l0-.17c-.33-1.37-.68-2.73-1-4.09-.68-2.74-1.39-5.57-2-8.36a5.06,5.06,0,0,0-.73-1.8c2.18,1.31,3.53,2.07,4.72,2.07a2.55,2.55,0,0,0,.72-.1c1.49-.42,2.3-2,3.93-5.14l.15-.28a3,3,0,0,0,.52-2.35,2.08,2.08,0,0,0-.58-.88c1.68.6,2.68-1.09,3-1.68s.84-1.38,1.26-2.06c.75-1.21,1.53-2.46,2.22-3.74a6.55,6.55,0,0,1,.53-.84,5.34,5.34,0,0,1,.49.75,79.8,79.8,0,0,0,5.07,8.15c.8,1.08,1.14,1.86,1,2.32s-.66.81-1.59,1.19c-2.07.84-2.11,2.2-1.95,2.93a2.61,2.61,0,0,0,2.39,1.87L161,70c1.5.37,3,.71,4.5,1.06,2.72.62,5.52,1.27,8.25,2a5.06,5.06,0,0,0,1.35.21,2.66,2.66,0,0,0,1.4-.37A3.6,3.6,0,0,0,178,70.44c.35-1.57.73-3.13,1.1-4.69.55-2.26,1.12-4.61,1.59-6.94a6.62,6.62,0,0,1,.26-.72c.35-.86,1-2.47-.54-3.67s-3.08-.1-3.85.55a5.47,5.47,0,0,1-.5.4c-.7.47-.93.44-1,.43s-.27-.09-.68-.81c-1.26-2.24-2.65-4.43-4-6.56l-1.15-1.82a8.94,8.94,0,0,0-7.32-4.48c-4.08-.18-8.13-.19-12,0a10.67,10.67,0,0,0-9.13,5.44,2.27,2.27,0,0,0,.39,3.16,2,2,0,0,0,1.7.55,2.31,2.31,0,0,0,1.59-1.16c2-3.26,5-3.68,9.15-3.52l-1.23,2.06c-1.75,2.91-3.4,5.66-5,8.43a3.25,3.25,0,0,0-.64,2.46,2,2,0,0,0,.6,1c-1.52-.56-2.4.73-2.79,1.31l-.24.35a7.31,7.31,0,0,0-.75,1.34,6.07,6.07,0,0,1-.54,1c-2-.13-3.83-1.68-5.42-3a3.57,3.57,0,0,1,.6-.9,6.83,6.83,0,0,0,.71-1c.73-1.39,1.53-2.72,2.3-4l.86-1.43.13-.22v-.25c0-.53.09-2.14-1.47-2.55a2.35,2.35,0,0,0-2.69,1c-.75,1.18-1.47,2.37-2.2,3.57l-.37.61c-1.95,3.23-2.93,4.85-2.54,6.46.34,1.35,1.55,2.27,3.83,3.67a5.16,5.16,0,0,0-1.92.19c-2.78.74-5.63,1.44-8.39,2.11l-3.45.86-.5.1c-.91.17-2.44.46-2.7,2.15-.3,1.89,1.4,2.65,2.31,3.05l.2.09c.9.41,1.07.72,1.1.83s0,.49-.6,1.39a37.31,37.31,0,0,0-2.12,3.43c-.59,1-1.21,2.11-1.89,3.09a11.84,11.84,0,0,0-1.64,10.44C117.46,95.4,117.75,96.64,118,97.84Zm10.4-23.47a3.1,3.1,0,0,0-.84-1.37c3.6-1.2,6.07-1.85,7.24-1.13s1.72,3.2,2.29,7a3.2,3.2,0,0,0-1.59-.07c-1.49.33-2.39,1.74-3.17,3.15-1,1.81-2.12,3.61-3.2,5.36-1.19,1.92-2.42,3.91-3.53,5.94-.26.49-.68,1.1-1.13,1.21s-1-.15-1.84-.75c-1.91-1.33-2.24-3.9-.83-6.38,1.93-3.4,3.59-6.12,5.2-8.56C127.85,77.49,128.88,75.94,128.43,74.37Zm5.23,23.31a1.76,1.76,0,0,0,.38.73,3.07,3.07,0,0,0,2.38.76,5.3,5.3,0,0,1,.85.06l.27,0,.26-.09a2.46,2.46,0,0,1,.7,0c.65,0,2.19,0,2.72-1.38a2.06,2.06,0,0,0,.54.83,3.28,3.28,0,0,0,2.73.53c.95-.14,1.62-.06,1.89.21s.34,1,.15,2.09a14.49,14.49,0,0,0-.13,3.27,1.27,1.27,0,0,1-.14.82c0,.06-.28.21-1.07.19-2.87,0-5.77,0-8.58,0-1.84,0-3.68,0-5.51,0-4.79,0-7.2-2.06-7.87-6.75a17.19,17.19,0,0,0,5.28.2,7.11,7.11,0,0,1,1.24.08c1.09.14,2.33.29,3.22-.45A2.3,2.3,0,0,0,133.66,97.68Zm31.86-36.84c-1.89-2.84-3.7-5.82-5.44-8.7L158.76,50c-.52-.86-.72-1.51-.57-1.93s1.05-1,1.74-1.21c2.11-.77,4.21.08,5.64,2.26,1.77,2.7,3.8,5.86,5.57,9,.71,1.28,1.56,2.5,2.94,2.76a3.11,3.11,0,0,0,1.58-.15c-.24,1.44-.58,2.79-.92,4.11-.26,1-.53,2.08-.74,3.13a1.31,1.31,0,0,1-.15.44,2.77,2.77,0,0,1-.95-.12c-2-.45-3.9-.92-6-1.45l-.7-.17a3.31,3.31,0,0,0,.78-1.46C167.35,63.59,166.33,62.06,165.52,60.84Z"/><path class="cls-3" d="M54,146.79l.35.27a15,15,0,0,0,17.46,1c1-.64,1.44-.73,2.41-.12a14.39,14.39,0,0,0,16.34,0c1-.64,1.42-.54,2.35.11a12.74,12.74,0,0,0,13.65.78,11.21,11.21,0,0,1,3.62-1.22c1.17-.08,2.56.66,3.89,1.37a8.9,8.9,0,0,0,4.39,1.47h.1c4.2,0,7.87-1.18,10.35-3.34.13-.11.29-.22.46-.34.66-.46,2.44-1.7,1.15-3.57a2.2,2.2,0,0,0-1.57-1.05,2.82,2.82,0,0,0-2.15,1.05,4.7,4.7,0,0,1-.43.38c-4.62,3.39-9.35,3.35-13.69-.13-1.74-1.4-3.06-1.4-4.86,0-4.51,3.52-9.11,3.54-13.66.07-1.29-1-2.73-1.81-4.87-.12-4.56,3.59-9.23,3.58-13.88,0-1.69-1.32-2.93-1.32-4.59-.05-4.67,3.62-9.24,3.67-13.94.15a4,4,0,0,1-.39-.34,2.75,2.75,0,0,0-2-1A2.13,2.13,0,0,0,53,143a2.25,2.25,0,0,0-.53,1.71A3.3,3.3,0,0,0,54,146.79Z"/><path class="cls-3" d="M192.39,128.39a4.19,4.19,0,0,1-.38.36c-4.71,3.44-9.4,3.37-13.94-.21-1.86-1.47-3.14-1.06-4.6.08-4.58,3.57-9.25,3.58-13.89,0-2-1.51-3.31-1.07-4.85.14-4.33,3.4-9.31,3.37-13.65-.08-1.75-1.39-3.06-1.39-4.84,0-4.44,3.45-9.18,3.49-13.71.12a3.45,3.45,0,0,1-.39-.38,2.93,2.93,0,0,0-2-1.07,2.07,2.07,0,0,0-1.5.77,2.27,2.27,0,0,0-.68,1.74,3.23,3.23,0,0,0,1.51,2.13l.3.25a15,15,0,0,0,17.46,1.12c1.14-.69,1.45-.87,2.41-.26a15.06,15.06,0,0,0,8.23,2.59,15.6,15.6,0,0,0,8.38-2.62,1.33,1.33,0,0,1,1.87,0,14.69,14.69,0,0,0,16.62,0c1-.59,1.29-.53,2.06,0a14.35,14.35,0,0,0,8.05,2.49H185a14.52,14.52,0,0,0,9.67-3.44c.11-.1.25-.19.39-.3A3,3,0,0,0,196.5,130a2.29,2.29,0,0,0-.62-1.76,2.14,2.14,0,0,0-1.53-.84A2.78,2.78,0,0,0,192.39,128.39Z"/><path class="cls-3" d="M90.8,160.83l-.34,0a10.65,10.65,0,0,1-6.12-2.52c-2-1.88-3.63-1.09-5-.06-4.41,3.47-9.25,3.48-13.63,0-1.57-1.23-2.87-1.65-4.83-.1-4.55,3.56-9.11,3.56-13.92,0l-.37-.3a2.74,2.74,0,0,0-2.08-.95,2.15,2.15,0,0,0-1.48,1c-1.24,1.74.34,3,1,3.58.09.08.19.15.27.23a15,15,0,0,0,17.7,1.06,1.8,1.8,0,0,1,2.43,0,14.53,14.53,0,0,0,16.06.06c1.16-.71,1.52-.81,2.32-.18a14.07,14.07,0,0,0,7.38,2.52h.24l.23,0c1.53-.07,2.33-.8,2.37-2.15C93.17,161,91.39,160.88,90.8,160.83Z"/><path class="cls-3" d="M102.54,128.44c-1.68-1.51-3-.88-4.14-.06-5.23,3.86-9.15,3.89-14.44.1l-.31-.24c-.57-.45-1.92-1.52-3.34-.17a12.68,12.68,0,0,1-7.69,3.3,2.1,2.1,0,0,0-2.12,2.14,2.16,2.16,0,0,0,2.44,2.09h.12a12.87,12.87,0,0,0,7.5-2.29c1.07-.79,1.56-.8,2.53-.07a13.94,13.94,0,0,0,8.08,2.42h.08a14,14,0,0,0,8.06-2.46c.89-.65,1.29-.65,2.31,0a14.45,14.45,0,0,0,12.86,1.63l.2-.06c.74-.23,2.73-.83,2.14-2.9a2.06,2.06,0,0,0-1-1.34,3,3,0,0,0-2.4,0l-.15.05A10.41,10.41,0,0,1,102.54,128.44Z"/><path class="cls-3" d="M175.72,146a11.26,11.26,0,0,1-6.61-2.85c-1.82-1.71-3.41-.53-4.18,0-5.14,3.82-9.06,3.8-14.44-.09l-.21-.15c-.65-.49-2-1.5-3.44-.12a12.07,12.07,0,0,1-7.39,3.22,2.64,2.64,0,0,0-1.9.83,2,2,0,0,0-.36,1.53c.19,1.42,1.19,2.07,2.95,1.91a13.2,13.2,0,0,0,7.13-2.36c.9-.7,1.34-.68,2.6.1a14.31,14.31,0,0,0,15.53.16c1.51-.89,2.09-.91,3.14-.11,1.93,1.48,4.22,2,7.07,2.23h.18c1.58,0,2.43-.74,2.52-2.06.14-2-1.72-2.21-2.33-2.26Z"/><path class="cls-3" d="M93.73,105.9a2.43,2.43,0,0,0-2,1.32c-2.08,3.29-3.88,6.31-4.74,9.86a6.26,6.26,0,0,0,2.55,6.68,6.69,6.69,0,0,0,4.12,1.47,7.08,7.08,0,0,0,3.26-.83c2.51-1.28,3.69-3.51,3.63-6.79v-.15c-.63-3.6-2.92-7.22-5-10.41A2.16,2.16,0,0,0,93.73,105.9Zm1.43,14.45a2.33,2.33,0,0,1-2.87,0c-.71-.48-1.57-1.35-.78-3.4a25.61,25.61,0,0,1,2.19-4.53,23.56,23.56,0,0,1,2.11,4.31l.06.14C96.7,119,95.86,119.85,95.16,120.35Z"/><path class="cls-3" d="M159.55,158.27c-.72-.3-3.15-1.2-4.5-.22-5.05,3.69-9.3,3.69-14.18,0l-.3-.24c-.67-.53-2-1.64-3.6-.18a12.08,12.08,0,0,1-7.38,3.2,2.57,2.57,0,0,0-1.86.83,2.06,2.06,0,0,0-.37,1.57,2.24,2.24,0,0,0,2.67,1.89h.2c1.85-.14,3.94-.3,5.59-1.52,2.07-1.52,3.57-1.55,5.53-.07,1.67,1.26,3.8,1.44,5.51,1.59l.68.06h.2a14.06,14.06,0,0,0,7.34-1.9c1.82-1.21,2.63-1.42,3.79-.28a2.33,2.33,0,0,0,3,.16,2.3,2.3,0,0,0,.81-2C162.48,159.65,160.42,158.64,159.55,158.27Z"/><path class="cls-3" d="M102.29,94.16c.46.84.88,1.59,1.33,2.32a2,2,0,0,0,2.77,1.07,2.17,2.17,0,0,0,1-3.16l-.41-.75c-.87-1.62-1.77-3.3-2.76-4.9a2.26,2.26,0,0,0-1.94-1.28h0a2.52,2.52,0,0,0-2.12,1.44,35.18,35.18,0,0,0-4.63,9.61,6.31,6.31,0,0,0,.77,4.88,6.8,6.8,0,0,0,4.21,3.13,7.61,7.61,0,0,0,1.71.2,7.19,7.19,0,0,0,3.88-1.12,6.12,6.12,0,0,0,2.79-3.94l.07-.31c.19-.79.69-2.9-1.54-3.43-2-.49-2.51,1.41-2.69,2.13l-.09.34a2.62,2.62,0,0,1-1.19,1.71,2.53,2.53,0,0,1-2,0A2.35,2.35,0,0,1,100,101a3.09,3.09,0,0,1,.11-2.28A25.84,25.84,0,0,1,102.29,94.16Z"/><path class="cls-3" d="M196,157.8a2.11,2.11,0,0,0-1.42-.87,2.73,2.73,0,0,0-2,.8,3.65,3.65,0,0,1-.31.24c-5.37,3.84-9.15,3.82-14.43,0-.88-.64-2.34-1.71-3.93-.17a11.55,11.55,0,0,1-7.1,3.07c-1.66.17-2.45.93-2.34,2.24a2.18,2.18,0,0,0,.77,1.58,2.84,2.84,0,0,0,2.14.5,13.81,13.81,0,0,0,7.09-2.36,1.69,1.69,0,0,1,2.52,0,14.47,14.47,0,0,0,8,2.46h.12a15.31,15.31,0,0,0,9.92-3.83l.27-.24C195.81,160.73,197.33,159.47,196,157.8Z"/><path class="cls-3" d="M119.13,156.9a2.76,2.76,0,0,0-2.13,1,3.48,3.48,0,0,1-.42.37c-2.93,2.18-7.37,4.13-11.89,1-2.58-1.79-5.42-3-8.7.32l-.32.14a4,4,0,0,0-.56.25c-1.74,1-1.66,2.17-1.28,3a2.19,2.19,0,0,0,1.6,1.25,2.13,2.13,0,0,0,1.83-.51c2.07-2,3.72-1.34,6.45,0,.36.17.72.35,1.08.51a11.6,11.6,0,0,0,3.24.82c.34.05.65.09.92.15l.12,0h.13c4.45-.22,7.57-1.32,10.13-3.57l.38-.29c.62-.46,2.27-1.67,1-3.42A2.22,2.22,0,0,0,119.13,156.9Z"/><path class="cls-3" d="M54.29,135.64h0a14.4,14.4,0,0,0,9.81-3.93l.18-.15a2.81,2.81,0,0,0,1.16-1.94,2.18,2.18,0,0,0-.75-1.61,2.11,2.11,0,0,0-3.08.13l-.29.23c-5.48,3.89-9.06,3.87-14.74-.07l-.26-.19c-.52-.39-1.92-1.45-3.17.11-.61.77-1,2,.63,3.47a15.47,15.47,0,0,0,10.47,3.95Z"/><path class="cls-3" d="M44.37,22.36c.31,0,.62-.05.86-.05,3.87.1,3.87.1,4,3.9a7.54,7.54,0,0,1-.05.91c-.1,1.05-.22,2.23.51,3a2,2,0,0,0,1.55.66h.06A2.22,2.22,0,0,0,53,30.15a3.18,3.18,0,0,0,.52-2.57,3.4,3.4,0,0,1,0-.89l.07-.18v-.17c0-3-.31-5.34-1.76-6.76s-4-1.64-6.48-1.59a6.47,6.47,0,0,1-.9-.08,3.71,3.71,0,0,0-3,.43,2.35,2.35,0,0,0-.74,1.86,2.15,2.15,0,0,0,.64,1.62C42.12,22.56,43.31,22.45,44.37,22.36Z"/><path class="cls-3" d="M184.23,142.67l-.89.62c-.94.65-1.88,1.31-2.84,1.94a2.23,2.23,0,0,0-1,2.66,2,2,0,0,0,2,1.44l.3,0,.29-.07a12,12,0,0,0,5.21-3.71,2.06,2.06,0,0,0-.14-2.64A2,2,0,0,0,184.23,142.67Z"/></svg>