<svg id="Capa_1" data-name="Capa 1" xmlns="http://www.w3.org/2000/svg" viewBox="0 0 232 260"><defs><style>.cls-1{fill:#6c2910;}.cls-2{fill:#fff;}.cls-3{fill:#c88a5e;}</style></defs><circle class="cls-1" cx="113.07" cy="221.95" r="28.85"/><path class="cls-2" d="M109.87,222.27l-3.65-.86,1.2-10.12H119v3.56h-7.84l-.45,3.94a6.78,6.78,0,0,1,1.11-.46,5.3,5.3,0,0,1,1.74-.26,7,7,0,0,1,2.6.44,5,5,0,0,1,1.93,1.29,5.63,5.63,0,0,1,1.19,2.09,9.12,9.12,0,0,1,.4,2.83,7.62,7.62,0,0,1-.41,2.47,6.3,6.3,0,0,1-1.27,2.14,5.92,5.92,0,0,1-2.14,1.49,7.79,7.79,0,0,1-3.07.56,8.32,8.32,0,0,1-2.57-.41,7.55,7.55,0,0,1-2.25-1.18,5.65,5.65,0,0,1-1.58-1.86,5.12,5.12,0,0,1-.56-2.46h4.61a2.85,2.85,0,0,0,.34,1.25,2.15,2.15,0,0,0,.81.83,2.37,2.37,0,0,0,1.18.29,2.17,2.17,0,0,0,1.13-.27,2,2,0,0,0,.7-.75,3.4,3.4,0,0,0,.37-1.1,7.8,7.8,0,0,0,.11-1.31,4.87,4.87,0,0,0-.16-1.32,2.6,2.6,0,0,0-.49-1,2.21,2.21,0,0,0-.88-.64,3.56,3.56,0,0,0-1.29-.21,3,3,0,0,0-1.56.34A2.73,2.73,0,0,0,109.87,222.27Z"/><path class="cls-3" d="M193.71,86.13h-9q-29,0-58,0h0a7.59,7.59,0,0,1-4.84-1.35c-3.76-2.72-8.11-2.9-11.64-.5-2.61,1.78-5.3,1.89-8,1.84s-5.41,0-8.05,0H37c-4.69,0-5.34.64-5.35,5.2,0,2,0,4,0,5.92,0,4.9.46,5.35,5.43,5.35h68c1.86,0,2.94.21,3.22.62s.08,1.46-.57,3.15q-8.19,21.07-16.37,42.15c-.89,2.28-1.38,3.54-2.07,4s-2,.5-4.52.54c-5.7.1-9.08,3.4-9.27,9.07,0,.91,0,1.81,0,2.72v.61c0,4.66.67,5.31,5.25,5.31h68.88c2.68,0,4-.1,4.89-1s.94-2.41.89-5.26c0-.59,0-1.24,0-2,0-6.06-3.41-9.44-9.52-9.51l-.63,0a8.79,8.79,0,0,0-1.84.05c-1.55.27-2.16-.18-2.88-2.07-4.1-10.75-8.34-21.64-12.45-32.18l-4.48-11.52c-.42-1.07-1.39-3.58-1-4.15s3.15-.59,4.47-.59h61.44c5.16,0,7.75,0,9.27-1.52s1.51-4.14,1.51-9.34S198.78,86.13,193.71,86.13ZM104,95.43c.17.87,0,1.09,0,1.09-.13.15-1,.13-1.37.12H62.28c-7.5,0-15.26,0-22.89.09-1,0-1.39-.17-1.51-.29s-.27-1-.28-1.8v-.27c0-.88,0-1.69.27-2A2.44,2.44,0,0,1,39.41,92h.05c24.38.16,44.3.15,62.7,0h.07c1.14,0,1.48.24,1.58.34s.17.8.15,1.37A7,7,0,0,0,104,95.43Zm29.75,57.68c-2.74,0-5.52,0-8.27,0h-15.1c-4.29,0-8.74,0-13.11,0a7.53,7.53,0,0,1-1.17,0,3.43,3.43,0,0,1,.25-.86c6.09-15.51,12-30.89,17.54-45.2.34-.89.67-1.1,1.75-1.1h0c.81,0,1.06.19,1.4,1.06l2.65,6.86c4.86,12.58,9.89,25.58,14.9,38.34a3.51,3.51,0,0,1,.26.9A5.75,5.75,0,0,1,133.76,153.11ZM109.92,94.44a5.62,5.62,0,0,1,1.68-4,5.51,5.51,0,0,1,3.9-1.63h0a5.65,5.65,0,0,1,5.54,5.46,5.44,5.44,0,0,1-5.48,5.7,5.44,5.44,0,0,1-5.68-5.51ZM84,164.75a7.87,7.87,0,0,0-.94.07c-.48.05-1.13.11-1.31,0s-.21-.23-.2-1c0-2.71.15-4.15,2.4-4.64a3.48,3.48,0,0,1,.75-.07h16.68q22,0,44,0h0c2.62,0,3.59.57,4,2.33.13.6.52,2.41.12,2.91s-1.8.5-2.85.5H107.92c-7.84,0-16,0-23.92,0ZM127,93.63c0-.54,0-1.11.14-1.3s.46-.3,1.57-.3c19.72.17,40.23.17,62.69,0,1.86,0,1.87.27,2,2.09l0,.52c0,.91,0,1.48-.25,1.71s-.81.36-1.8.34c-4.88-.07-9.82-.09-14.7-.09H151.79c-7.58,0-15.41,0-23.12,0-1.16,0-1.53-.13-1.63-.25s-.17-.51-.05-1.24A7.34,7.34,0,0,0,127,93.63Z"/><path class="cls-3" d="M32.61,79.34a4.11,4.11,0,0,0,3.1,1h0c20.52,0,39.43,0,57.78,0h0a4,4,0,0,0,3-1,4.28,4.28,0,0,0,1-3.19c-.08-3.16-.06-6.39,0-9.51V63.71a18.55,18.55,0,0,0-5.4-13.08c-4-4.28-9.11-6.43-13.36-7.78,6.56-12,5.76-21-2.43-27.39a18.91,18.91,0,0,0-24.47.92c-7.33,6.69-7.77,16.28-1.28,26.47a32.56,32.56,0,0,0-10.42,5.08C34.77,52,31.93,57.1,31.72,63.07c-.08,2.37-.06,4.77,0,7.1,0,2,0,4,0,6A4,4,0,0,0,32.61,79.34Zm5-13.94c-.28-6,2.32-10.59,7.72-13.65s9.91-5.19,15.49-3.19c3.25,1.16,6.71.4,9-.27,4.31-1.26,9.82.11,14.4,3.54s7.24,8.11,7.23,12.54a31.22,31.22,0,0,0,.27,3.43c.29,2.48.6,5-.64,6.25s-3.55.8-5.92.53a29.94,29.94,0,0,0-3.36-.26h-.17c-4,.05-8,0-12,0l-11.86,0c-6.06,0-12.32,0-18.49,0-1.05,0-1.44-.14-1.57-.28s-.25-.42-.18-1.36A60,60,0,0,0,37.62,65.4ZM73.37,39.55a12.78,12.78,0,0,1-21.51-9.74,12.82,12.82,0,0,1,4.13-9,12.37,12.37,0,0,1,8.49-3.42h.45A13.07,13.07,0,0,1,77.49,30.45,12.83,12.83,0,0,1,73.37,39.55Z"/><path class="cls-3" d="M133.46,76.25a4,4,0,0,0,.93,3.08,4.28,4.28,0,0,0,3.15,1h0c20.48,0,39.28,0,57.46,0h0a4.56,4.56,0,0,0,3.33-1.07,4.16,4.16,0,0,0,.95-3.2c-.12-3.49-.08-7,0-10.5V64.33a19.23,19.23,0,0,0-6-14.24c-3.85-3.84-8.57-5.85-12.85-7.25,6.6-11.82,5.86-20.73-2.24-27.21a18.79,18.79,0,0,0-24.72.81c-7.35,6.85-7.78,16.19-1.25,26.41a36.68,36.68,0,0,0-7.59,3.25c-7.93,4.7-11.61,11-11.25,19.39C133.6,68.59,133.6,71.91,133.46,76.25Zm6-11.27c-.28-5.54,2.05-9.84,6.92-12.77,4-2.41,7.78-4.42,11.89-4.42a13,13,0,0,1,4.43.79c3.05,1.09,6.25.46,8.69-.21,4.63-1.28,10.14.05,14.74,3.53s7.21,8.24,7.24,12.89q0,1.3,0,2.61c0,1.74-.05,3.54.07,5.33.07,1-.09,1.27-.19,1.37s-.48.29-1.56.29c-6.15-.08-12.4-.07-18.45-.06h-6.87l-6.9,0c-5.79,0-11.78,0-17.68.09-1.1,0-1.8-.11-2.08-.41s-.35-1-.25-2A47.38,47.38,0,0,0,139.45,65Zm27-22h0A12.93,12.93,0,0,1,153.5,30.33a13.08,13.08,0,0,1,12.82-13h.16a12.9,12.9,0,0,1,12.68,12.89A12.67,12.67,0,0,1,166.42,43Z"/><path class="cls-3" d="M90.21,130.81a25.78,25.78,0,0,0-25.6-25.61h-.1A25.73,25.73,0,0,0,39,130.7a25.81,25.81,0,0,0,25.58,25.74h0a25.68,25.68,0,0,0,25.61-25.63ZM64.62,111.19a19.64,19.64,0,0,1-.12,39.28A20,20,0,0,1,45,131a19.93,19.93,0,0,1,19.61-19.77Z"/><path class="cls-3" d="M166.39,105.2h0a25.59,25.59,0,0,0-18.09,43.67,25.23,25.23,0,0,0,18,7.57h.09a25.62,25.62,0,0,0,.07-51.24Zm0,45.27h0a19.64,19.64,0,0,1,0-39.28h.18A20,20,0,0,1,186,130.76a19.91,19.91,0,0,1-19.65,19.71Z"/><path class="cls-3" d="M59.91,143.85l.13.06c1.32.62,1.78.89,1.74,1.93a2.62,2.62,0,0,0,2.58,2.73h.3a2.93,2.93,0,0,0,2-.71,2.16,2.16,0,0,0,.73-1.63c0-1.28.66-1.68,2-2.41l.6-.33a8.36,8.36,0,0,0,4.45-8.64c-.36-3.44-2.37-5.74-6-6.83-.92-.28-1.85-.53-2.79-.78s-1.71-.46-2.56-.71c-1.26-.38-1.41-1-1.39-1.59a1.89,1.89,0,0,1,1.5-1.94c3.11-.78,4,.48,4.38,1.82.34,1.06,1.12,3.56,3.89,2.73,1.89-.56,2.52-2,1.9-4.43a7.58,7.58,0,0,0-4-5.16c-1.36-.66-1.81-1.07-1.84-2.17a2.78,2.78,0,0,0-.86-2,3,3,0,0,0-2.18-.75,2.93,2.93,0,0,0-2.06.91,2.41,2.41,0,0,0-.61,1.78c.07,1.07-.41,1.38-1.6,2l-.51.28a7.63,7.63,0,0,0-4,7.48A7,7,0,0,0,61,132.12c.84.26,1.7.48,2.55.7s1.88.48,2.79.78c1.54.5,2.11,1.1,2.12,2.22a2.88,2.88,0,0,1-2.09,2.81,4.33,4.33,0,0,1-3.51,0A4.2,4.2,0,0,1,60.71,136c-.32-1.05-.81-2.63-2.9-2.87l-.12,0-.13,0a3.2,3.2,0,0,0-2.28,1.23,3.44,3.44,0,0,0-.5,2.72A8.81,8.81,0,0,0,59.91,143.85Z"/><path class="cls-3" d="M170.17,128c-.88-.26-1.77-.49-2.65-.72l-1.52-.41c-2.27-.62-2.83-1-2.46-2.34.27-1,.92-2,3.67-1.66,1.24.15,1.92.88,2.32,2.53a2.82,2.82,0,0,0,3.67,2.2,2.74,2.74,0,0,0,2.13-2.85v-.14a7.83,7.83,0,0,0-4.21-6.65l-.33-.17c-1.2-.63-1.62-.91-1.57-1.91a2.65,2.65,0,0,0-.72-2,3,3,0,0,0-2.24-.81,2.86,2.86,0,0,0-2.06.88,2.46,2.46,0,0,0-.67,1.77c.05,1.12-.48,1.46-1.66,2.13-.26.14-.51.28-.76.44a7.6,7.6,0,0,0-3.72,7.3,7.11,7.11,0,0,0,5.08,6.43c1.59.54,3.18.95,4.81,1.35,2.49.61,3.23,1.35,2.94,2.93-.32,1.77-1.63,2.62-3.92,2.59-3-.07-3.58-1.62-3.78-2.78-.37-2.13-1.69-3.21-3.53-2.9a2.86,2.86,0,0,0-2,1.16,4,4,0,0,0-.4,3.11,8.54,8.54,0,0,0,4.76,6.23l.24.12c1.34.66,1.89,1,1.89,2.13a2.65,2.65,0,0,0,2.73,2.61h.12a3,3,0,0,0,2.13-.8,2.18,2.18,0,0,0,.64-1.67c0-1.17.48-1.49,1.76-2.15l.59-.32c3.42-1.89,5.07-4.82,4.76-8.49S173.84,129.1,170.17,128Z"/></svg>