<svg xmlns="http://www.w3.org/2000/svg" viewBox="0 0 79.16 87.81"><defs><style>.cls-1{fill:#fdce75;}</style></defs><g id="Capa_2" data-name="Capa 2"><g id="Capa_1-2" data-name="Capa 1"><path class="cls-1" d="M48.73,54.41h-23c-.85,0-1.67-.09-2.23.86-.36.62-1.13.68-1.84.68q-9.6,0-19.2,0A2.17,2.17,0,0,1,0,53.53Q0,43.93,0,34.34c0-1.76.8-2.47,2.57-2.47,6.34,0,12.68,0,19,0,.57,0,1.29-.08,1.6.41.89,1.4,2.23,1.1,3.5,1.1,15,0,29.93,0,44.89,0a3.24,3.24,0,0,1,3.44,2.12c1.08,2.38,2.36,4.68,3.64,7a2.83,2.83,0,0,1,0,3c-1.32,2.39-2.62,4.81-3.8,7.27A2.71,2.71,0,0,1,72,54.44C64.26,54.39,56.5,54.41,48.73,54.41Zm-.51-2.62c7.6,0,15.2,0,22.8,0a1.84,1.84,0,0,0,2-1.15c.89-1.91,1.91-3.76,2.93-5.61a2.05,2.05,0,0,0,0-2.22c-1.06-1.89-2.06-3.81-3-5.76A1.61,1.61,0,0,0,71.27,36Q48.4,36,25.52,36c-1.08,0-1.35.32-1.34,1.36.06,4.28.08,8.57,0,12.85,0,1.26.29,1.63,1.59,1.62C33.26,51.75,40.74,51.79,48.22,51.79Zm-36-17.41c-2.79,0-5.58,0-8.38,0-.81,0-1.24.14-1.24,1.11q.06,8.39,0,16.77c0,.89.3,1.18,1.18,1.17q8.3,0,16.6,0c.9,0,1.18-.33,1.17-1.2,0-5.53,0-11.06,0-16.59,0-1-.34-1.28-1.3-1.26C17.59,34.41,14.9,34.38,12.22,34.38Z"/><path class="cls-1" d="M48.74,22.61H25.59c-.81,0-1.53,0-2.05.84-.42.7-1.27.68-2,.68-6.29,0-12.58,0-18.86,0C.75,24.1,0,23.43,0,21.51Q0,12.08,0,2.65C0,.72.83,0,2.81,0H21.49c.64,0,1.43-.07,1.76.47.87,1.43,2.21,1.14,3.48,1.14H45.42c.92,0,1.67.32,1.64,1.31s-.79,1.24-1.71,1.23c-5.2,0-10.4,0-15.6,0-1.8,0-4.21-.81-5.24.37-.89,1-.28,3.37-.3,5.13,0,2.86.06,5.72,0,8.57-.05,1.33.3,1.73,1.68,1.72,10.51-.06,21,0,31.55,0,4.45,0,8.91,0,13.37,0a2.19,2.19,0,0,0,2.37-1.39c1-2.18,2.9-4.24,3-6.43s-2-4.33-3-6.57a2.18,2.18,0,0,0-2.34-1.45c-5.89.07-11.77,0-17.66,0-.46,0-.91,0-1.37,0a1.15,1.15,0,0,1-1.17-1.22A1.1,1.1,0,0,1,51.7,1.66a8.25,8.25,0,0,1,.86,0c6.63,0,13.26,0,19.89,0A2.22,2.22,0,0,1,74.72,3q1.94,3.9,4,7.73a2.58,2.58,0,0,1,0,2.73c-1.37,2.5-2.72,5-4,7.58a2.63,2.63,0,0,1-2.72,1.58C64.28,22.58,56.51,22.61,48.74,22.61ZM21.54,12c0-2.68,0-5.37,0-8,0-1-.28-1.39-1.35-1.39q-8.13.08-16.27,0C2.88,2.59,2.59,2.93,2.6,4q.06,8.15,0,16.28c0,1,.24,1.38,1.32,1.37q8.15-.08,16.28,0c1.05,0,1.38-.31,1.36-1.36C21.5,17.51,21.54,14.77,21.54,12Z"/><path class="cls-1" d="M48.87,86.19h-23c-.92,0-1.77-.07-2.38.91-.41.67-1.23.71-2,.71-6.29,0-12.57,0-18.86,0C.84,87.79,0,87,0,85.19Q0,75.76,0,66.33c0-2,.73-2.63,2.76-2.64,6.23,0,12.46,0,18.68,0a2.41,2.41,0,0,1,2.38,1c.42.72,1.11.47,1.69.47,6.29,0,12.57,0,18.86,0a8.78,8.78,0,0,1,1.54.06,1.25,1.25,0,0,1,1.13,1.3,1.27,1.27,0,0,1-1.17,1.27,8.79,8.79,0,0,1-1.36,0c-6.23,0-12.46,0-18.69,0-1.38,0-1.7.42-1.67,1.73.08,4.22.07,8.45,0,12.68,0,1.14.35,1.43,1.45,1.42q22.71,0,45.42,0a1.75,1.75,0,0,0,1.88-1.06c1-2,2-4,3.09-5.92A1.9,1.9,0,0,0,76,74.63c-1-1.86-2-3.71-2.93-5.61a1.82,1.82,0,0,0-2-1.16c-6,0-11.89,0-17.83,0a8.92,8.92,0,0,1-1.37,0,1.3,1.3,0,0,1-.07-2.6,5.84,5.84,0,0,1,1,0c6.45,0,12.91,0,19.37,0a2.48,2.48,0,0,1,2.56,1.52c1.29,2.61,2.67,5.17,4,7.74a2.3,2.3,0,0,1,.09,2.41C77.4,79.56,76,82.28,74.6,85c-.55,1.09-1.41,1.16-2.42,1.16C64.41,86.18,56.64,86.19,48.87,86.19Zm-36.66-20c-2.74,0-5.48,0-8.22,0-1,0-1.41.18-1.4,1.3.06,5.49.05,11,0,16.45,0,1,.32,1.27,1.28,1.26q8.22-.06,16.44,0c1,0,1.24-.4,1.24-1.32,0-5.48,0-11,0-16.44,0-1-.35-1.26-1.3-1.25C17.58,66.25,14.9,66.22,12.21,66.22Z"/><path class="cls-1" d="M38,80.26c-2.51,0-5,0-7.52,0-1,0-1.77-.2-1.75-1.34s.86-1.23,1.7-1.23H45.61c.86,0,1.66.19,1.66,1.27s-.85,1.31-1.79,1.31C43,80.25,40.47,80.26,38,80.26Z"/><path class="cls-1" d="M37.93,14.06c2.56,0,5.13,0,7.69,0,.9,0,1.63.22,1.65,1.26s-.76,1.3-1.63,1.3q-7.61,0-15.2,0c-.91,0-1.81-.16-1.74-1.35.06-1,.83-1.21,1.72-1.21C32.92,14.07,35.43,14.06,37.93,14.06Z"/><path class="cls-1" d="M33.8,10.3H30.2c-.85,0-1.47-.33-1.51-1.25s.63-1.31,1.45-1.32c2.51,0,5,0,7.53,0,.84,0,1.47.44,1.43,1.35s-.66,1.24-1.53,1.23C36.31,10.28,35.06,10.3,33.8,10.3Z"/><path class="cls-1" d="M34,71.35h3.74A1.31,1.31,0,1,1,37.75,74q-3.82.07-7.66,0c-.8,0-1.46-.42-1.4-1.36s.68-1.25,1.51-1.26Z"/><path class="cls-1" d="M37.93,45.63h7.52c.94,0,1.8.17,1.81,1.31s-.87,1.34-1.79,1.35h-15c-.93,0-1.78-.25-1.72-1.4s.82-1.25,1.71-1.25Z"/><path class="cls-1" d="M34,39.39h3.76c.81,0,1.35.37,1.38,1.18s-.52,1.33-1.41,1.32H30.16c-.86,0-1.48-.34-1.47-1.27s.66-1.24,1.5-1.24Z"/><path class="cls-1" d="M12.42,47.38c.95,0,1.58,0,2.2,0A1.28,1.28,0,0,1,16,48.67,1.22,1.22,0,0,1,14.69,50,38.26,38.26,0,0,1,9.9,50c-1.31-.12-1.7-1.23-.91-2.39,1.15-1.7,2.4-3.33,3.55-5,.43-.63.76-1.44-.09-2s-1.37-.06-1.72.78a1.22,1.22,0,0,1-1.82.71c-.8-.41-.79-1.14-.49-1.93A3.64,3.64,0,0,1,13,38a3.56,3.56,0,0,1,2.37,4.6A9,9,0,0,1,14.08,45Z"/><path class="cls-1" d="M14.38,12.11c0,1.43,0,2.85,0,4.28,0,.9-.28,1.67-1.27,1.68s-1.28-.74-1.27-1.67c0-2.16,0-4.33,0-6.5,0-.71.05-1.32-1-1.36a1.1,1.1,0,0,1-1-1.34c.08-.75.59-1,1.29-1.11,2.71-.4,3.25.06,3.25,2.77C14.39,10,14.38,11,14.38,12.11Z"/><path class="cls-1" d="M11.61,69.62c3,0,4.83,2.4,4,4.83a3.23,3.23,0,0,0,0,2.5,3.59,3.59,0,0,1-2.42,4.74,3.69,3.69,0,0,1-4.6-2.46c-.25-.92-.35-1.93.8-2.29,1-.31,1.42.38,1.64,1.26.16.68.57,1.14,1.34,1a1,1,0,0,0,.86-.94c.07-.78-.46-1.07-1.14-1.23s-1.19-.46-1.2-1.24a1.29,1.29,0,0,1,1.25-1.36c.71-.13,1.15-.51,1.09-1.27a.94.94,0,0,0-.74-.85,1.12,1.12,0,0,0-1.46.8c-.36.93-1,1.28-1.88.8s-.79-1.29-.39-2.09A3.52,3.52,0,0,1,11.61,69.62Z"/></g></g></svg>